<?xml version="1.0" encoding="utf-8" standalone="no"?>
<!DOCTYPE svg PUBLIC "-//W3C//DTD SVG 1.1//EN"
  "http://www.w3.org/Graphics/SVG/1.1/DTD/svg11.dtd">
<svg xmlns:xlink="http://www.w3.org/1999/xlink" width="1186.56pt" height="588.24pt" viewBox="0 0 1186.56 588.24" xmlns="http://www.w3.org/2000/svg" version="1.1">
 <metadata>
  <rdf:RDF xmlns:dc="http://purl.org/dc/elements/1.1/" xmlns:cc="http://creativecommons.org/ns#" xmlns:rdf="http://www.w3.org/1999/02/22-rdf-syntax-ns#">
   <cc:Work>
    <dc:type rdf:resource="http://purl.org/dc/dcmitype/StillImage"/>
    <dc:date>2023-04-14T15:43:27.878682</dc:date>
    <dc:format>image/svg+xml</dc:format>
    <dc:creator>
     <cc:Agent>
      <dc:title>Matplotlib v3.6.2, https://matplotlib.org/</dc:title>
     </cc:Agent>
    </dc:creator>
   </cc:Work>
  </rdf:RDF>
 </metadata>
 <defs>
  <style type="text/css">*{stroke-linejoin: round; stroke-linecap: butt}</style>
 </defs>
 <g id="figure_1">
  <g id="patch_1">
   <path d="M 0 588.24 
L 1186.56 588.24 
L 1186.56 0 
L 0 0 
z
" style="fill: #ffffff"/>
  </g>
  <g id="axes_1">
   <g id="patch_2">
    <path d="M 72.61088 536.37684 
L 844.381228 536.37684 
L 844.381228 38.36632 
L 72.61088 38.36632 
z
" style="fill: #ffffff"/>
   </g>
   <g id="matplotlib.axis_1">
    <g id="xtick_1">
     <g id="line2d_1">
      <defs>
       <path id="mc8ef62baf5" d="M 0 0 
L 0 3.5 
" style="stroke: #000000; stroke-width: 0.8"/>
      </defs>
      <g>
       <use xlink:href="#mc8ef62baf5" x="72.61088" y="536.37684" style="stroke: #000000; stroke-width: 0.8"/>
      </g>
     </g>
     <g id="text_1">
      <!-- 0 -->
      <g transform="translate(69.42963 550.975278) scale(0.1 -0.1)">
       <defs>
        <path id="DejaVuSans-30" d="M 2034 4250 
Q 1547 4250 1301 3770 
Q 1056 3291 1056 2328 
Q 1056 1369 1301 889 
Q 1547 409 2034 409 
Q 2525 409 2770 889 
Q 3016 1369 3016 2328 
Q 3016 3291 2770 3770 
Q 2525 4250 2034 4250 
z
M 2034 4750 
Q 2819 4750 3233 4129 
Q 3647 3509 3647 2328 
Q 3647 1150 3233 529 
Q 2819 -91 2034 -91 
Q 1250 -91 836 529 
Q 422 1150 422 2328 
Q 422 3509 836 4129 
Q 1250 4750 2034 4750 
z
" transform="scale(0.015625)"/>
       </defs>
       <use xlink:href="#DejaVuSans-30"/>
      </g>
     </g>
    </g>
    <g id="xtick_2">
     <g id="line2d_2">
      <g>
       <use xlink:href="#mc8ef62baf5" x="193.94068" y="536.37684" style="stroke: #000000; stroke-width: 0.8"/>
      </g>
     </g>
     <g id="text_2">
      <!-- 10 -->
      <g transform="translate(187.57818 550.975278) scale(0.1 -0.1)">
       <defs>
        <path id="DejaVuSans-31" d="M 794 531 
L 1825 531 
L 1825 4091 
L 703 3866 
L 703 4441 
L 1819 4666 
L 2450 4666 
L 2450 531 
L 3481 531 
L 3481 0 
L 794 0 
L 794 531 
z
" transform="scale(0.015625)"/>
       </defs>
       <use xlink:href="#DejaVuSans-31"/>
       <use xlink:href="#DejaVuSans-30" x="63.623047"/>
      </g>
     </g>
    </g>
    <g id="xtick_3">
     <g id="line2d_3">
      <g>
       <use xlink:href="#mc8ef62baf5" x="315.27048" y="536.37684" style="stroke: #000000; stroke-width: 0.8"/>
      </g>
     </g>
     <g id="text_3">
      <!-- 20 -->
      <g transform="translate(308.90798 550.975278) scale(0.1 -0.1)">
       <defs>
        <path id="DejaVuSans-32" d="M 1228 531 
L 3431 531 
L 3431 0 
L 469 0 
L 469 531 
Q 828 903 1448 1529 
Q 2069 2156 2228 2338 
Q 2531 2678 2651 2914 
Q 2772 3150 2772 3378 
Q 2772 3750 2511 3984 
Q 2250 4219 1831 4219 
Q 1534 4219 1204 4116 
Q 875 4013 500 3803 
L 500 4441 
Q 881 4594 1212 4672 
Q 1544 4750 1819 4750 
Q 2544 4750 2975 4387 
Q 3406 4025 3406 3419 
Q 3406 3131 3298 2873 
Q 3191 2616 2906 2266 
Q 2828 2175 2409 1742 
Q 1991 1309 1228 531 
z
" transform="scale(0.015625)"/>
       </defs>
       <use xlink:href="#DejaVuSans-32"/>
       <use xlink:href="#DejaVuSans-30" x="63.623047"/>
      </g>
     </g>
    </g>
    <g id="xtick_4">
     <g id="line2d_4">
      <g>
       <use xlink:href="#mc8ef62baf5" x="436.600279" y="536.37684" style="stroke: #000000; stroke-width: 0.8"/>
      </g>
     </g>
     <g id="text_4">
      <!-- 30 -->
      <g transform="translate(430.237779 550.975278) scale(0.1 -0.1)">
       <defs>
        <path id="DejaVuSans-33" d="M 2597 2516 
Q 3050 2419 3304 2112 
Q 3559 1806 3559 1356 
Q 3559 666 3084 287 
Q 2609 -91 1734 -91 
Q 1441 -91 1130 -33 
Q 819 25 488 141 
L 488 750 
Q 750 597 1062 519 
Q 1375 441 1716 441 
Q 2309 441 2620 675 
Q 2931 909 2931 1356 
Q 2931 1769 2642 2001 
Q 2353 2234 1838 2234 
L 1294 2234 
L 1294 2753 
L 1863 2753 
Q 2328 2753 2575 2939 
Q 2822 3125 2822 3475 
Q 2822 3834 2567 4026 
Q 2313 4219 1838 4219 
Q 1578 4219 1281 4162 
Q 984 4106 628 3988 
L 628 4550 
Q 988 4650 1302 4700 
Q 1616 4750 1894 4750 
Q 2613 4750 3031 4423 
Q 3450 4097 3450 3541 
Q 3450 3153 3228 2886 
Q 3006 2619 2597 2516 
z
" transform="scale(0.015625)"/>
       </defs>
       <use xlink:href="#DejaVuSans-33"/>
       <use xlink:href="#DejaVuSans-30" x="63.623047"/>
      </g>
     </g>
    </g>
    <g id="xtick_5">
     <g id="line2d_5">
      <g>
       <use xlink:href="#mc8ef62baf5" x="557.930079" y="536.37684" style="stroke: #000000; stroke-width: 0.8"/>
      </g>
     </g>
     <g id="text_5">
      <!-- 40 -->
      <g transform="translate(551.567579 550.975278) scale(0.1 -0.1)">
       <defs>
        <path id="DejaVuSans-34" d="M 2419 4116 
L 825 1625 
L 2419 1625 
L 2419 4116 
z
M 2253 4666 
L 3047 4666 
L 3047 1625 
L 3713 1625 
L 3713 1100 
L 3047 1100 
L 3047 0 
L 2419 0 
L 2419 1100 
L 313 1100 
L 313 1709 
L 2253 4666 
z
" transform="scale(0.015625)"/>
       </defs>
       <use xlink:href="#DejaVuSans-34"/>
       <use xlink:href="#DejaVuSans-30" x="63.623047"/>
      </g>
     </g>
    </g>
    <g id="xtick_6">
     <g id="line2d_6">
      <g>
       <use xlink:href="#mc8ef62baf5" x="679.259879" y="536.37684" style="stroke: #000000; stroke-width: 0.8"/>
      </g>
     </g>
     <g id="text_6">
      <!-- 50 -->
      <g transform="translate(672.897379 550.975278) scale(0.1 -0.1)">
       <defs>
        <path id="DejaVuSans-35" d="M 691 4666 
L 3169 4666 
L 3169 4134 
L 1269 4134 
L 1269 2991 
Q 1406 3038 1543 3061 
Q 1681 3084 1819 3084 
Q 2600 3084 3056 2656 
Q 3513 2228 3513 1497 
Q 3513 744 3044 326 
Q 2575 -91 1722 -91 
Q 1428 -91 1123 -41 
Q 819 9 494 109 
L 494 744 
Q 775 591 1075 516 
Q 1375 441 1709 441 
Q 2250 441 2565 725 
Q 2881 1009 2881 1497 
Q 2881 1984 2565 2268 
Q 2250 2553 1709 2553 
Q 1456 2553 1204 2497 
Q 953 2441 691 2322 
L 691 4666 
z
" transform="scale(0.015625)"/>
       </defs>
       <use xlink:href="#DejaVuSans-35"/>
       <use xlink:href="#DejaVuSans-30" x="63.623047"/>
      </g>
     </g>
    </g>
    <g id="xtick_7">
     <g id="line2d_7">
      <g>
       <use xlink:href="#mc8ef62baf5" x="800.589679" y="536.37684" style="stroke: #000000; stroke-width: 0.8"/>
      </g>
     </g>
     <g id="text_7">
      <!-- 60 -->
      <g transform="translate(794.227179 550.975278) scale(0.1 -0.1)">
       <defs>
        <path id="DejaVuSans-36" d="M 2113 2584 
Q 1688 2584 1439 2293 
Q 1191 2003 1191 1497 
Q 1191 994 1439 701 
Q 1688 409 2113 409 
Q 2538 409 2786 701 
Q 3034 994 3034 1497 
Q 3034 2003 2786 2293 
Q 2538 2584 2113 2584 
z
M 3366 4563 
L 3366 3988 
Q 3128 4100 2886 4159 
Q 2644 4219 2406 4219 
Q 1781 4219 1451 3797 
Q 1122 3375 1075 2522 
Q 1259 2794 1537 2939 
Q 1816 3084 2150 3084 
Q 2853 3084 3261 2657 
Q 3669 2231 3669 1497 
Q 3669 778 3244 343 
Q 2819 -91 2113 -91 
Q 1303 -91 875 529 
Q 447 1150 447 2328 
Q 447 3434 972 4092 
Q 1497 4750 2381 4750 
Q 2619 4750 2861 4703 
Q 3103 4656 3366 4563 
z
" transform="scale(0.015625)"/>
       </defs>
       <use xlink:href="#DejaVuSans-36"/>
       <use xlink:href="#DejaVuSans-30" x="63.623047"/>
      </g>
     </g>
    </g>
    <g id="text_8">
     <!-- Time (s) -->
     <g transform="translate(428.002695 568.452621) scale(0.15 -0.15)">
      <defs>
       <path id="DejaVuSans-54" d="M -19 4666 
L 3928 4666 
L 3928 4134 
L 2272 4134 
L 2272 0 
L 1638 0 
L 1638 4134 
L -19 4134 
L -19 4666 
z
" transform="scale(0.015625)"/>
       <path id="DejaVuSans-69" d="M 603 3500 
L 1178 3500 
L 1178 0 
L 603 0 
L 603 3500 
z
M 603 4863 
L 1178 4863 
L 1178 4134 
L 603 4134 
L 603 4863 
z
" transform="scale(0.015625)"/>
       <path id="DejaVuSans-6d" d="M 3328 2828 
Q 3544 3216 3844 3400 
Q 4144 3584 4550 3584 
Q 5097 3584 5394 3201 
Q 5691 2819 5691 2113 
L 5691 0 
L 5113 0 
L 5113 2094 
Q 5113 2597 4934 2840 
Q 4756 3084 4391 3084 
Q 3944 3084 3684 2787 
Q 3425 2491 3425 1978 
L 3425 0 
L 2847 0 
L 2847 2094 
Q 2847 2600 2669 2842 
Q 2491 3084 2119 3084 
Q 1678 3084 1418 2786 
Q 1159 2488 1159 1978 
L 1159 0 
L 581 0 
L 581 3500 
L 1159 3500 
L 1159 2956 
Q 1356 3278 1631 3431 
Q 1906 3584 2284 3584 
Q 2666 3584 2933 3390 
Q 3200 3197 3328 2828 
z
" transform="scale(0.015625)"/>
       <path id="DejaVuSans-65" d="M 3597 1894 
L 3597 1613 
L 953 1613 
Q 991 1019 1311 708 
Q 1631 397 2203 397 
Q 2534 397 2845 478 
Q 3156 559 3463 722 
L 3463 178 
Q 3153 47 2828 -22 
Q 2503 -91 2169 -91 
Q 1331 -91 842 396 
Q 353 884 353 1716 
Q 353 2575 817 3079 
Q 1281 3584 2069 3584 
Q 2775 3584 3186 3129 
Q 3597 2675 3597 1894 
z
M 3022 2063 
Q 3016 2534 2758 2815 
Q 2500 3097 2075 3097 
Q 1594 3097 1305 2825 
Q 1016 2553 972 2059 
L 3022 2063 
z
" transform="scale(0.015625)"/>
       <path id="DejaVuSans-20" transform="scale(0.015625)"/>
       <path id="DejaVuSans-28" d="M 1984 4856 
Q 1566 4138 1362 3434 
Q 1159 2731 1159 2009 
Q 1159 1288 1364 580 
Q 1569 -128 1984 -844 
L 1484 -844 
Q 1016 -109 783 600 
Q 550 1309 550 2009 
Q 550 2706 781 3412 
Q 1013 4119 1484 4856 
L 1984 4856 
z
" transform="scale(0.015625)"/>
       <path id="DejaVuSans-73" d="M 2834 3397 
L 2834 2853 
Q 2591 2978 2328 3040 
Q 2066 3103 1784 3103 
Q 1356 3103 1142 2972 
Q 928 2841 928 2578 
Q 928 2378 1081 2264 
Q 1234 2150 1697 2047 
L 1894 2003 
Q 2506 1872 2764 1633 
Q 3022 1394 3022 966 
Q 3022 478 2636 193 
Q 2250 -91 1575 -91 
Q 1294 -91 989 -36 
Q 684 19 347 128 
L 347 722 
Q 666 556 975 473 
Q 1284 391 1588 391 
Q 1994 391 2212 530 
Q 2431 669 2431 922 
Q 2431 1156 2273 1281 
Q 2116 1406 1581 1522 
L 1381 1569 
Q 847 1681 609 1914 
Q 372 2147 372 2553 
Q 372 3047 722 3315 
Q 1072 3584 1716 3584 
Q 2034 3584 2315 3537 
Q 2597 3491 2834 3397 
z
" transform="scale(0.015625)"/>
       <path id="DejaVuSans-29" d="M 513 4856 
L 1013 4856 
Q 1481 4119 1714 3412 
Q 1947 2706 1947 2009 
Q 1947 1309 1714 600 
Q 1481 -109 1013 -844 
L 513 -844 
Q 928 -128 1133 580 
Q 1338 1288 1338 2009 
Q 1338 2731 1133 3434 
Q 928 4138 513 4856 
z
" transform="scale(0.015625)"/>
      </defs>
      <use xlink:href="#DejaVuSans-54"/>
      <use xlink:href="#DejaVuSans-69" x="57.958984"/>
      <use xlink:href="#DejaVuSans-6d" x="85.742188"/>
      <use xlink:href="#DejaVuSans-65" x="183.154297"/>
      <use xlink:href="#DejaVuSans-20" x="244.677734"/>
      <use xlink:href="#DejaVuSans-28" x="276.464844"/>
      <use xlink:href="#DejaVuSans-73" x="315.478516"/>
      <use xlink:href="#DejaVuSans-29" x="367.578125"/>
     </g>
    </g>
   </g>
   <g id="matplotlib.axis_2">
    <g id="ytick_1">
     <g id="line2d_8">
      <defs>
       <path id="m96308c909b" d="M 0 0 
L -3.5 0 
" style="stroke: #000000; stroke-width: 0.8"/>
      </defs>
      <g>
       <use xlink:href="#m96308c909b" x="72.61088" y="536.37684" style="stroke: #000000; stroke-width: 0.8"/>
      </g>
     </g>
     <g id="text_9">
      <!-- 0 -->
      <g transform="translate(59.24838 540.176059) scale(0.1 -0.1)">
       <use xlink:href="#DejaVuSans-30"/>
      </g>
     </g>
    </g>
    <g id="ytick_2">
     <g id="line2d_9">
      <g>
       <use xlink:href="#m96308c909b" x="72.61088" y="472.410301" style="stroke: #000000; stroke-width: 0.8"/>
      </g>
     </g>
     <g id="text_10">
      <!-- 10 -->
      <g transform="translate(52.88588 476.20952) scale(0.1 -0.1)">
       <use xlink:href="#DejaVuSans-31"/>
       <use xlink:href="#DejaVuSans-30" x="63.623047"/>
      </g>
     </g>
    </g>
    <g id="ytick_3">
     <g id="line2d_10">
      <g>
       <use xlink:href="#m96308c909b" x="72.61088" y="408.443762" style="stroke: #000000; stroke-width: 0.8"/>
      </g>
     </g>
     <g id="text_11">
      <!-- 20 -->
      <g transform="translate(52.88588 412.242981) scale(0.1 -0.1)">
       <use xlink:href="#DejaVuSans-32"/>
       <use xlink:href="#DejaVuSans-30" x="63.623047"/>
      </g>
     </g>
    </g>
    <g id="ytick_4">
     <g id="line2d_11">
      <g>
       <use xlink:href="#m96308c909b" x="72.61088" y="344.477223" style="stroke: #000000; stroke-width: 0.8"/>
      </g>
     </g>
     <g id="text_12">
      <!-- 30 -->
      <g transform="translate(52.88588 348.276442) scale(0.1 -0.1)">
       <use xlink:href="#DejaVuSans-33"/>
       <use xlink:href="#DejaVuSans-30" x="63.623047"/>
      </g>
     </g>
    </g>
    <g id="ytick_5">
     <g id="line2d_12">
      <g>
       <use xlink:href="#m96308c909b" x="72.61088" y="280.510684" style="stroke: #000000; stroke-width: 0.8"/>
      </g>
     </g>
     <g id="text_13">
      <!-- 40 -->
      <g transform="translate(52.88588 284.309902) scale(0.1 -0.1)">
       <use xlink:href="#DejaVuSans-34"/>
       <use xlink:href="#DejaVuSans-30" x="63.623047"/>
      </g>
     </g>
    </g>
    <g id="ytick_6">
     <g id="line2d_13">
      <g>
       <use xlink:href="#m96308c909b" x="72.61088" y="216.544145" style="stroke: #000000; stroke-width: 0.8"/>
      </g>
     </g>
     <g id="text_14">
      <!-- 50 -->
      <g transform="translate(52.88588 220.343363) scale(0.1 -0.1)">
       <use xlink:href="#DejaVuSans-35"/>
       <use xlink:href="#DejaVuSans-30" x="63.623047"/>
      </g>
     </g>
    </g>
    <g id="ytick_7">
     <g id="line2d_14">
      <g>
       <use xlink:href="#m96308c909b" x="72.61088" y="152.577606" style="stroke: #000000; stroke-width: 0.8"/>
      </g>
     </g>
     <g id="text_15">
      <!-- 60 -->
      <g transform="translate(52.88588 156.376824) scale(0.1 -0.1)">
       <use xlink:href="#DejaVuSans-36"/>
       <use xlink:href="#DejaVuSans-30" x="63.623047"/>
      </g>
     </g>
    </g>
    <g id="ytick_8">
     <g id="line2d_15">
      <g>
       <use xlink:href="#m96308c909b" x="72.61088" y="88.611066" style="stroke: #000000; stroke-width: 0.8"/>
      </g>
     </g>
     <g id="text_16">
      <!-- 70 -->
      <g transform="translate(52.88588 92.410285) scale(0.1 -0.1)">
       <defs>
        <path id="DejaVuSans-37" d="M 525 4666 
L 3525 4666 
L 3525 4397 
L 1831 0 
L 1172 0 
L 2766 4134 
L 525 4134 
L 525 4666 
z
" transform="scale(0.015625)"/>
       </defs>
       <use xlink:href="#DejaVuSans-37"/>
       <use xlink:href="#DejaVuSans-30" x="63.623047"/>
      </g>
     </g>
    </g>
    <g id="text_17">
     <!-- Packets per Second -->
     <g transform="translate(45.766349 360.639549) rotate(-90) scale(0.15 -0.15)">
      <defs>
       <path id="DejaVuSans-50" d="M 1259 4147 
L 1259 2394 
L 2053 2394 
Q 2494 2394 2734 2622 
Q 2975 2850 2975 3272 
Q 2975 3691 2734 3919 
Q 2494 4147 2053 4147 
L 1259 4147 
z
M 628 4666 
L 2053 4666 
Q 2838 4666 3239 4311 
Q 3641 3956 3641 3272 
Q 3641 2581 3239 2228 
Q 2838 1875 2053 1875 
L 1259 1875 
L 1259 0 
L 628 0 
L 628 4666 
z
" transform="scale(0.015625)"/>
       <path id="DejaVuSans-61" d="M 2194 1759 
Q 1497 1759 1228 1600 
Q 959 1441 959 1056 
Q 959 750 1161 570 
Q 1363 391 1709 391 
Q 2188 391 2477 730 
Q 2766 1069 2766 1631 
L 2766 1759 
L 2194 1759 
z
M 3341 1997 
L 3341 0 
L 2766 0 
L 2766 531 
Q 2569 213 2275 61 
Q 1981 -91 1556 -91 
Q 1019 -91 701 211 
Q 384 513 384 1019 
Q 384 1609 779 1909 
Q 1175 2209 1959 2209 
L 2766 2209 
L 2766 2266 
Q 2766 2663 2505 2880 
Q 2244 3097 1772 3097 
Q 1472 3097 1187 3025 
Q 903 2953 641 2809 
L 641 3341 
Q 956 3463 1253 3523 
Q 1550 3584 1831 3584 
Q 2591 3584 2966 3190 
Q 3341 2797 3341 1997 
z
" transform="scale(0.015625)"/>
       <path id="DejaVuSans-63" d="M 3122 3366 
L 3122 2828 
Q 2878 2963 2633 3030 
Q 2388 3097 2138 3097 
Q 1578 3097 1268 2742 
Q 959 2388 959 1747 
Q 959 1106 1268 751 
Q 1578 397 2138 397 
Q 2388 397 2633 464 
Q 2878 531 3122 666 
L 3122 134 
Q 2881 22 2623 -34 
Q 2366 -91 2075 -91 
Q 1284 -91 818 406 
Q 353 903 353 1747 
Q 353 2603 823 3093 
Q 1294 3584 2113 3584 
Q 2378 3584 2631 3529 
Q 2884 3475 3122 3366 
z
" transform="scale(0.015625)"/>
       <path id="DejaVuSans-6b" d="M 581 4863 
L 1159 4863 
L 1159 1991 
L 2875 3500 
L 3609 3500 
L 1753 1863 
L 3688 0 
L 2938 0 
L 1159 1709 
L 1159 0 
L 581 0 
L 581 4863 
z
" transform="scale(0.015625)"/>
       <path id="DejaVuSans-74" d="M 1172 4494 
L 1172 3500 
L 2356 3500 
L 2356 3053 
L 1172 3053 
L 1172 1153 
Q 1172 725 1289 603 
Q 1406 481 1766 481 
L 2356 481 
L 2356 0 
L 1766 0 
Q 1100 0 847 248 
Q 594 497 594 1153 
L 594 3053 
L 172 3053 
L 172 3500 
L 594 3500 
L 594 4494 
L 1172 4494 
z
" transform="scale(0.015625)"/>
       <path id="DejaVuSans-70" d="M 1159 525 
L 1159 -1331 
L 581 -1331 
L 581 3500 
L 1159 3500 
L 1159 2969 
Q 1341 3281 1617 3432 
Q 1894 3584 2278 3584 
Q 2916 3584 3314 3078 
Q 3713 2572 3713 1747 
Q 3713 922 3314 415 
Q 2916 -91 2278 -91 
Q 1894 -91 1617 61 
Q 1341 213 1159 525 
z
M 3116 1747 
Q 3116 2381 2855 2742 
Q 2594 3103 2138 3103 
Q 1681 3103 1420 2742 
Q 1159 2381 1159 1747 
Q 1159 1113 1420 752 
Q 1681 391 2138 391 
Q 2594 391 2855 752 
Q 3116 1113 3116 1747 
z
" transform="scale(0.015625)"/>
       <path id="DejaVuSans-72" d="M 2631 2963 
Q 2534 3019 2420 3045 
Q 2306 3072 2169 3072 
Q 1681 3072 1420 2755 
Q 1159 2438 1159 1844 
L 1159 0 
L 581 0 
L 581 3500 
L 1159 3500 
L 1159 2956 
Q 1341 3275 1631 3429 
Q 1922 3584 2338 3584 
Q 2397 3584 2469 3576 
Q 2541 3569 2628 3553 
L 2631 2963 
z
" transform="scale(0.015625)"/>
       <path id="DejaVuSans-53" d="M 3425 4513 
L 3425 3897 
Q 3066 4069 2747 4153 
Q 2428 4238 2131 4238 
Q 1616 4238 1336 4038 
Q 1056 3838 1056 3469 
Q 1056 3159 1242 3001 
Q 1428 2844 1947 2747 
L 2328 2669 
Q 3034 2534 3370 2195 
Q 3706 1856 3706 1288 
Q 3706 609 3251 259 
Q 2797 -91 1919 -91 
Q 1588 -91 1214 -16 
Q 841 59 441 206 
L 441 856 
Q 825 641 1194 531 
Q 1563 422 1919 422 
Q 2459 422 2753 634 
Q 3047 847 3047 1241 
Q 3047 1584 2836 1778 
Q 2625 1972 2144 2069 
L 1759 2144 
Q 1053 2284 737 2584 
Q 422 2884 422 3419 
Q 422 4038 858 4394 
Q 1294 4750 2059 4750 
Q 2388 4750 2728 4690 
Q 3069 4631 3425 4513 
z
" transform="scale(0.015625)"/>
       <path id="DejaVuSans-6f" d="M 1959 3097 
Q 1497 3097 1228 2736 
Q 959 2375 959 1747 
Q 959 1119 1226 758 
Q 1494 397 1959 397 
Q 2419 397 2687 759 
Q 2956 1122 2956 1747 
Q 2956 2369 2687 2733 
Q 2419 3097 1959 3097 
z
M 1959 3584 
Q 2709 3584 3137 3096 
Q 3566 2609 3566 1747 
Q 3566 888 3137 398 
Q 2709 -91 1959 -91 
Q 1206 -91 779 398 
Q 353 888 353 1747 
Q 353 2609 779 3096 
Q 1206 3584 1959 3584 
z
" transform="scale(0.015625)"/>
       <path id="DejaVuSans-6e" d="M 3513 2113 
L 3513 0 
L 2938 0 
L 2938 2094 
Q 2938 2591 2744 2837 
Q 2550 3084 2163 3084 
Q 1697 3084 1428 2787 
Q 1159 2491 1159 1978 
L 1159 0 
L 581 0 
L 581 3500 
L 1159 3500 
L 1159 2956 
Q 1366 3272 1645 3428 
Q 1925 3584 2291 3584 
Q 2894 3584 3203 3211 
Q 3513 2838 3513 2113 
z
" transform="scale(0.015625)"/>
       <path id="DejaVuSans-64" d="M 2906 2969 
L 2906 4863 
L 3481 4863 
L 3481 0 
L 2906 0 
L 2906 525 
Q 2725 213 2448 61 
Q 2172 -91 1784 -91 
Q 1150 -91 751 415 
Q 353 922 353 1747 
Q 353 2572 751 3078 
Q 1150 3584 1784 3584 
Q 2172 3584 2448 3432 
Q 2725 3281 2906 2969 
z
M 947 1747 
Q 947 1113 1208 752 
Q 1469 391 1925 391 
Q 2381 391 2643 752 
Q 2906 1113 2906 1747 
Q 2906 2381 2643 2742 
Q 2381 3103 1925 3103 
Q 1469 3103 1208 2742 
Q 947 2381 947 1747 
z
" transform="scale(0.015625)"/>
      </defs>
      <use xlink:href="#DejaVuSans-50"/>
      <use xlink:href="#DejaVuSans-61" x="55.802734"/>
      <use xlink:href="#DejaVuSans-63" x="117.082031"/>
      <use xlink:href="#DejaVuSans-6b" x="172.0625"/>
      <use xlink:href="#DejaVuSans-65" x="226.347656"/>
      <use xlink:href="#DejaVuSans-74" x="287.871094"/>
      <use xlink:href="#DejaVuSans-73" x="327.080078"/>
      <use xlink:href="#DejaVuSans-20" x="379.179688"/>
      <use xlink:href="#DejaVuSans-70" x="410.966797"/>
      <use xlink:href="#DejaVuSans-65" x="474.443359"/>
      <use xlink:href="#DejaVuSans-72" x="535.966797"/>
      <use xlink:href="#DejaVuSans-20" x="577.080078"/>
      <use xlink:href="#DejaVuSans-53" x="608.867188"/>
      <use xlink:href="#DejaVuSans-65" x="672.34375"/>
      <use xlink:href="#DejaVuSans-63" x="733.867188"/>
      <use xlink:href="#DejaVuSans-6f" x="788.847656"/>
      <use xlink:href="#DejaVuSans-6e" x="850.029297"/>
      <use xlink:href="#DejaVuSans-64" x="913.408203"/>
     </g>
    </g>
   </g>
   <g id="line2d_16">
    <path d="M 72.61088 187.163487 
L 73.821673 151.783698 
L 75.251284 156.361885 
L 76.523334 170.304292 
L 77.868463 132.494604 
L 79.197106 185.896851 
L 80.558838 137.419382 
L 81.898846 130.951327 
L 83.394278 121.19004 
L 84.846347 215.687573 
L 86.209965 137.971146 
L 87.430587 91.29753 
L 88.75456 184.660566 
L 89.973134 154.23949 
L 91.299904 185.402084 
L 92.461852 135.616105 
L 93.733915 170.307954 
L 95.100619 82.084146 
L 96.553326 215.828352 
L 97.917737 138.202746 
L 99.341271 154.739765 
L 100.682749 131.395689 
L 101.955149 170.404611 
L 103.296025 131.213967 
L 104.62991 187.274227 
L 105.993451 137.948358 
L 107.333552 130.979793 
L 108.690193 193.129858 
L 110.041616 76.947284 
L 111.372041 186.366236 
L 112.79776 155.324482 
L 114.080409 112.821234 
L 115.405031 184.832875 
L 116.706551 178.592936 
L 118.109057 149.017813 
L 119.451112 131.569914 
L 120.875323 154.921097 
L 122.148957 170.759556 
L 123.489838 131.215133 
L 124.84615 193.046791 
L 126.202835 135.935103 
L 127.523323 124.958208 
L 128.735529 152.232006 
L 130.071014 187.692307 
L 131.440664 139.725702 
L 132.776151 129.578724 
L 133.987622 151.998971 
L 135.220678 158.727567 
L 136.637432 98.132941 
L 137.870277 158.662657 
L 139.178705 180.481973 
L 140.45845 172.50512 
L 141.676807 154.17128 
L 143.157497 169.471527 
L 144.514216 135.944983 
L 145.71143 147.421379 
L 147.205418 120.788598 
L 148.534664 186.055932 
L 150.027296 172.40678 
L 151.367165 130.909475 
L 152.599712 158.571443 
L 153.7937 146.370368 
L 155.28091 171.080047 
L 156.616703 129.671955 
L 157.834879 154.11435 
L 159.176544 189.298516 
L 160.475384 118.101162 
L 161.687636 152.246381 
L 162.960059 170.41159 
L 164.177993 90.315249 
L 165.521044 189.656716 
L 166.849628 185.88127 
L 168.153218 119.625032 
L 169.427885 171.055737 
L 170.771603 132.070734 
L 172.204868 103.181452 
L 173.469394 229.501263 
L 174.826149 135.955797 
L 176.024895 147.918522 
L 177.46008 103.760829 
L 178.817966 193.444533 
L 180.122252 179.351905 
L 181.284056 135.566464 
L 182.497006 152.467719 
L 183.923173 101.025519 
L 185.192293 230.611883 
L 186.477865 113.784132 
L 187.835454 193.369457 
L 189.089054 164.916633 
L 190.386328 117.5961 
L 191.660851 171.014387 
L 193.002226 131.364571 
L 194.234527 158.496057 
L 195.670032 157.922292 
L 196.984312 123.014942 
L 198.25808 170.797934 
L 199.600122 189.395962 
L 200.898173 117.846847 
L 202.172268 170.891673 
L 203.514701 131.683761 
L 204.850588 187.797105 
L 206.21542 138.325615 
L 207.429641 152.869252 
L 208.770871 131.320957 
L 210.127033 193.008537 
L 211.442354 123.342097 
L 212.773859 128.362322 
L 214.241234 166.142079 
L 215.515261 170.872258 
L 216.790241 110.273236 
L 218.069285 172.305948 
L 219.569393 122.483948 
L 221.023862 216.216912 
L 222.231919 150.912395 
L 223.602534 140.004933 
L 224.943576 131.264117 
L 226.151929 151.006872 
L 227.487736 187.776563 
L 228.700571 152.430881 
L 229.919644 154.395831 
L 231.235318 64.463956 
L 232.840698 197.968761 
L 234.115025 170.958214 
L 235.470554 135.593689 
L 236.946292 168.240067 
L 238.293288 133.054742 
L 239.617736 184.786685 
L 240.936848 65.693798 
L 242.201843 229.614814 
L 243.502928 118.822657 
L 244.750423 163.098595 
L 246.024994 171.028198 
L 247.457909 157.238387 
L 248.799143 131.322038 
L 250.226497 155.761122 
L 251.500894 170.978089 
L 252.841745 131.206495 
L 254.178663 188.065982 
L 255.493075 64.010669 
L 256.757764 229.540637 
L 258.064916 120.761004 
L 259.318856 165.016958 
L 260.675186 193.051136 
L 262.014069 130.610996 
L 263.288614 110.128038 
L 264.569694 172.884408 
L 265.849142 172.420722 
L 267.282048 103.072852 
L 268.833214 136.107699 
L 270.200486 195.798783 
L 271.718796 178.562514 
L 272.993475 110.172761 
L 274.274011 172.729894 
L 275.610462 187.944369 
L 276.822798 152.273238 
L 278.18929 138.808848 
L 279.545614 135.828545 
L 280.743927 147.778336 
L 282.23725 120.603531 
L 283.533505 177.139779 
L 284.889639 193.001456 
L 286.275383 144.332559 
L 287.557986 112.80584 
L 288.914645 193.13434 
L 290.319742 149.732333 
L 291.66582 132.77942 
L 292.876186 151.647958 
L 294.310997 103.648147 
L 295.480131 204.462633 
L 296.789081 180.623851 
L 298.125115 129.745314 
L 299.558237 157.293291 
L 300.832693 170.995194 
L 302.180281 133.231811 
L 303.611912 102.687041 
L 304.883389 170.139132 
L 306.184218 178.402868 
L 307.313184 123.908463 
L 308.63941 185.258069 
L 310.143569 123.598717 
L 311.598016 216.212059 
L 312.806245 150.967392 
L 314.019047 152.420633 
L 315.390383 140.213097 
L 316.946792 137.456169 
L 318.22125 170.995938 
L 319.434168 152.457212 
L 320.83678 149.047195 
L 322.270456 103.305486 
L 323.601029 186.405337 
L 324.943055 189.391862 
L 326.275099 70.263357 
L 327.470672 146.88758 
L 328.828033 193.311754 
L 330.352699 180.054168 
L 331.688725 129.742939 
L 332.984601 177.034812 
L 334.238421 164.981382 
L 335.610075 140.305221 
L 336.833432 92.293006 
L 338.283869 215.326629 
L 339.59898 64.261823 
L 340.867179 230.389822 
L 342.223341 135.780852 
L 343.636213 151.859643 
L 344.850065 152.752979 
L 346.124158 170.891091 
L 347.741554 152.498136 
L 348.974452 95.729474 
L 350.297209 184.337161 
L 351.633158 187.813523 
L 352.999483 138.760262 
L 354.335188 129.645334 
L 355.638554 179.099785 
L 356.982186 132.044853 
L 358.256886 171.065223 
L 359.598688 131.493559 
L 360.940585 189.358412 
L 362.300653 136.931142 
L 363.642635 131.547651 
L 364.85617 152.652647 
L 366.197935 189.324418 
L 367.554466 135.889523 
L 368.777641 92.22686 
L 370.113052 187.673106 
L 371.540677 155.833409 
L 372.876362 129.639068 
L 374.15297 171.611242 
L 375.647318 172.824693 
L 376.995157 133.306983 
L 378.351749 193.117526 
L 379.655364 60.098413 
L 380.904101 225.620997 
L 382.240009 129.707009 
L 383.453238 152.555927 
L 384.886805 157.410788 
L 386.161756 171.136949 
L 387.50353 131.484838 
L 388.71683 152.578262 
L 390.058635 189.334771 
L 391.291014 158.51992 
L 392.486117 146.734427 
L 393.845052 136.598328 
L 395.119755 110.180647 
L 396.522289 204.361428 
L 397.754994 158.620119 
L 399.049301 56.673094 
L 400.383564 187.373018 
L 401.775566 201.849408 
L 403.146995 140.240372 
L 404.489144 131.598074 
L 405.707756 154.251125 
L 407.192127 170.381333 
L 408.414441 91.913871 
L 409.75044 187.826413 
L 410.960066 151.412658 
L 412.2906 186.39493 
L 413.610494 65.972533 
L 414.977391 195.705343 
L 416.217079 160.747705 
L 417.572716 192.875736 
L 418.858141 113.735696 
L 420.133023 171.117463 
L 421.346175 152.531437 
L 422.701999 135.680687 
L 424.177102 168.081712 
L 425.400617 92.350091 
L 426.854377 216.06074 
L 427.940308 107.562451 
L 429.276512 187.879852 
L 431.8882 98.38218 
L 433.1746 174.38779 
L 434.417052 161.5832 
L 435.63022 152.536654 
L 436.986099 192.937092 
L 438.18658 148.479658 
L 439.484859 117.920306 
L 440.759161 170.951293 
L 442.386823 107.237175 
L 443.600459 152.684376 
L 444.933012 186.925232 
L 446.139534 150.422056 
L 447.476192 187.998332 
L 448.695898 154.594037 
L 449.927629 158.321145 
L 451.222913 57.035227 
L 452.487735 229.572882 
L 453.701245 152.644551 
L 454.934117 95.720224 
L 456.251048 182.779914 
L 457.552754 178.643949 
L 458.959061 150.064835 
L 460.173665 152.990451 
L 461.447232 109.80067 
L 462.667642 154.814276 
L 463.941083 170.703893 
L 465.297157 192.986254 
L 466.649766 77.349994 
L 467.86324 152.633513 
L 469.198968 187.755703 
L 470.554185 192.769291 
L 471.86601 122.241472 
L 473.114338 163.347496 
L 474.470345 135.73485 
L 475.725992 165.521961 
L 477.098093 140.434099 
L 478.372993 171.122535 
L 479.714641 131.446893 
L 480.928041 152.610034 
L 482.283516 192.834631 
L 483.639572 135.749174 
L 484.843419 149.564644 
L 486.07581 158.523747 
L 488.616491 132.797241 
L 489.831392 153.084203 
L 491.253357 154.318581 
L 492.505103 164.366318 
L 493.741237 159.667553 
L 495.35938 152.675541 
L 496.695804 129.864083 
L 497.915338 154.540006 
L 499.342658 155.752302 
L 500.555998 152.590731 
L 501.918346 137.599609 
L 503.055735 126.963097 
L 504.257263 213.411102 
L 505.543613 114.039611 
L 507.027076 170.157276 
L 508.301711 171.046428 
L 509.515022 152.581735 
L 510.728748 152.712885 
L 511.942126 152.602996 
L 513.498558 137.462031 
L 514.773121 171.025861 
L 516.177685 149.585459 
L 517.608678 156.729042 
L 519.161093 136.429882 
L 520.435612 171.013034 
L 521.649593 152.793674 
L 523.267027 152.507279 
L 524.89535 107.411237 
L 526.344654 215.075963 
L 527.558103 152.625141 
L 528.874329 64.661829 
L 530.114299 160.833053 
L 531.357554 224.250899 
L 532.569191 152.051272 
L 534.126954 137.802929 
L 535.339662 152.390931 
L 536.552816 152.532066 
L 537.827176 170.967652 
L 539.04115 152.791167 
L 540.254236 152.510483 
L 541.589919 129.638813 
L 543.085522 173.129718 
L 544.304173 90.578131 
L 545.513071 215.380079 
L 546.848717 129.627311 
L 548.062124 152.612133 
L 549.505285 106.151975 
L 550.832165 185.430885 
L 553.331147 156.073427 
L 554.662379 186.578418 
L 555.881898 154.535322 
L 557.09812 153.500567 
L 558.455795 136.226893 
L 559.669231 152.621407 
L 561.005069 129.685896 
L 562.218785 152.709545 
L 563.560377 189.27984 
L 564.931485 83.542979 
L 566.267164 187.743092 
L 567.499883 158.624105 
L 568.971463 167.200131 
L 570.184662 152.546247 
L 571.398265 152.67403 
L 572.611251 152.478928 
L 573.94772 129.877907 
L 575.172199 156.082169 
L 576.38087 151.108094 
L 577.879794 122.157404 
L 579.216223 187.938548 
L 580.543936 185.651256 
L 581.859892 64.56489 
L 583.128532 230.496249 
L 584.429316 118.72634 
L 585.68928 166.792624 
L 586.964718 171.276469 
L 588.385833 154.09006 
L 589.599128 152.576615 
L 590.81253 152.610686 
L 592.431685 152.915266 
L 593.773003 131.347176 
L 594.980792 150.827036 
L 596.31793 188.123418 
L 598.867076 85.939804 
L 600.14278 171.352741 
L 601.464972 184.186718 
L 602.946439 169.663888 
L 604.22181 110.404153 
L 605.50339 173.026192 
L 606.993297 171.740974 
L 608.328288 129.427902 
L 609.54798 154.589537 
L 610.985485 104.459289 
L 612.338374 192.178005 
L 613.59222 164.989288 
L 615.081739 171.646065 
L 616.368533 114.185425 
L 617.638659 169.749544 
L 618.974223 187.712919 
L 620.316984 131.782866 
L 621.553802 159.876206 
L 622.773668 91.021689 
L 624.103654 186.250882 
L 625.440884 188.147265 
L 626.537022 111.555648 
L 628.026022 171.518847 
L 629.240248 152.871007 
L 630.453778 152.651039 
L 631.755122 118.905757 
L 632.94851 146.174439 
L 634.222877 170.96966 
L 635.55347 186.410628 
L 636.779465 156.552329 
L 638.108985 127.753202 
L 639.300299 80.348146 
L 640.627229 185.444327 
L 641.911893 173.898693 
L 643.398808 171.007328 
L 645.953215 131.616343 
L 647.442518 171.593234 
L 648.745941 119.571737 
L 649.992392 162.785827 
L 651.217245 156.198391 
L 652.554773 188.224989 
L 653.91516 137.024812 
L 655.128799 152.685565 
L 656.409113 112.048643 
L 657.74003 186.495498 
L 659.179703 105.10951 
L 660.514382 187.482042 
L 661.729727 153.223992 
L 663.168331 104.789149 
L 664.431776 229.238421 
L 665.776246 132.296995 
L 666.993708 153.890296 
L 668.331271 188.234178 
L 669.691797 137.065369 
L 671.037007 132.519244 
L 672.307051 169.725976 
L 673.465573 134.431077 
L 674.668914 149.402141 
L 676.025773 193.18505 
L 677.376372 134.130595 
L 678.678423 119.132386 
L 679.988669 180.975758 
L 682.61055 101.74401 
L 683.936646 185.22356 
L 685.190748 165.065249 
L 686.681791 172.018828 
L 688.017785 129.733187 
L 689.230366 152.350719 
L 690.449773 154.500521 
L 691.910664 164.498733 
L 693.152388 161.363581 
L 694.365458 152.505587 
L 695.578974 152.646378 
L 696.819157 98.317991 
L 698.350575 181.625004 
L 699.625009 170.988824 
L 700.899119 109.982537 
L 702.185417 174.358914 
L 703.670097 170.457375 
L 704.977542 120.85399 
L 706.225959 163.374371 
L 707.582171 193.021328 
L 708.782008 148.271554 
L 709.995549 152.654415 
L 711.209075 152.649927 
L 712.508584 118.31646 
L 713.747731 97.951589 
L 714.995526 225.386275 
L 716.39924 149.351286 
L 717.551926 132.395919 
L 718.826611 171.060908 
L 720.193972 139.061723 
L 721.468853 171.116844 
L 722.700126 158.180632 
L 723.968674 108.11297 
L 725.523139 136.957119 
L 726.727583 214.193109 
L 728.069213 131.441477 
L 729.400673 186.638366 
L 730.624975 156.027175 
L 731.980531 78.348198 
L 733.165014 143.240749 
L 734.412426 225.290844 
L 735.969529 137.633874 
L 737.244755 171.215798 
L 738.586398 131.445552 
L 739.942393 192.966436 
L 741.289414 133.062302 
L 742.50303 152.678161 
L 743.839448 129.862108 
L 745.335119 173.146502 
L 746.676615 131.401179 
L 748.165887 171.58543 
L 749.380591 153.022113 
L 750.60314 91.99895 
L 751.929917 185.403972 
L 753.425443 173.111243 
L 754.638289 152.434391 
L 755.871646 158.819846 
L 757.072142 83.83611 
L 758.401523 186.091371 
L 759.615232 152.70755 
L 760.829358 152.839163 
L 762.131889 178.870812 
L 763.262736 124.594416 
L 764.689551 155.617334 
L 765.965249 171.350869 
L 767.246391 112.323032 
L 768.45968 152.574727 
L 770.016495 137.560078 
L 771.447932 211.065473 
L 772.788586 73.256618 
L 774.055324 230.036929 
L 775.270259 153.094841 
L 776.88643 152.207283 
L 778.099721 152.575237 
L 780.526936 152.695929 
L 781.740133 152.545552 
L 783.016041 110.583271 
L 784.24838 158.507788 
L 785.517476 169.451893 
L 786.846055 185.879955 
L 788.060335 152.887917 
L 789.426007 138.570386 
L 790.640362 152.91178 
L 791.985992 132.645164 
L 793.190299 149.712414 
L 794.422544 158.47889 
L 795.846368 100.308911 
L 797.112897 229.986341 
L 798.448828 129.714281 
L 799.804076 192.777175 
L 801.15731 134.913856 
L 802.504171 133.014304 
L 803.718183 152.803247 
L 805.211636 120.639613 
L 806.4203 151.106396 
L 807.630259 215.66142 
L 807.630259 215.66142 
" clip-path="url(#p2508f49af4)" style="fill: none; stroke: #1f77b4; stroke-width: 1.5; stroke-linecap: square"/>
   </g>
   <g id="line2d_17">
    <path d="M 72.61088 152.563126 
L 844.381228 152.563126 
" clip-path="url(#p2508f49af4)" style="fill: none; stroke-dasharray: 5.55,2.4; stroke-dashoffset: 0; stroke: #0000ff; stroke-width: 1.5"/>
   </g>
   <g id="line2d_18">
    <path d="M 72.61088 361.775668 
L 73.821646 408.176214 
L 75.251281 319.229121 
L 76.523309 353.337359 
L 77.868469 305.592536 
L 79.197057 361.129553 
L 80.558808 365.397426 
L 81.898809 362.622069 
L 83.394249 276.886442 
L 84.846341 376.03484 
L 86.209967 365.632527 
L 87.430591 282.046321 
L 88.754555 360.517428 
L 89.973143 408.999197 
L 91.29991 302.393036 
L 92.46185 335.995248 
L 93.733874 353.336714 
L 95.100624 309.238012 
L 96.553327 376.102256 
L 97.917674 365.722783 
L 99.341197 318.296846 
L 100.682731 362.82074 
L 101.955103 353.38667 
L 103.296009 362.739548 
L 104.629897 303.642179 
L 105.993437 365.621676 
L 107.333542 362.635656 
L 108.690187 307.546319 
L 110.041599 306.660206 
L 111.372029 419.707048 
L 112.797746 318.632456 
L 114.080404 294.346704 
L 115.405017 419.194721 
L 116.706544 297.855531 
L 118.109046 370.365341 
L 119.451098 362.887692 
L 120.875318 318.403695 
L 122.148947 353.567261 
L 123.489728 362.723343 
L 124.846131 307.505408 
L 126.202825 364.760056 
L 127.523287 360.051094 
L 128.735527 344.309713 
L 130.070977 303.914463 
L 131.440643 366.385507 
L 132.7761 303.915633 
L 133.987615 408.255454 
L 135.220659 347.550431 
L 136.637412 317.25466 
L 137.870196 284.555035 
L 139.178682 417.750451 
L 140.458421 354.440261 
L 141.676706 281.558065 
L 143.157476 379.140117 
L 144.514192 364.762802 
L 145.711349 341.889989 
L 147.205399 328.591352 
L 148.534645 361.216237 
L 150.027214 328.385209 
L 151.367151 362.613949 
L 152.599694 347.473439 
L 153.793624 341.364304 
L 155.280888 327.643325 
L 156.616671 303.972275 
L 157.834803 408.951434 
L 159.176523 305.000918 
L 160.475367 357.116269 
L 161.687547 344.300282 
L 162.960046 353.40505 
L 164.177968 345.205701 
L 165.521027 305.231458 
L 166.849606 361.128473 
L 168.153202 357.769702 
L 169.42786 353.715101 
L 170.771474 363.089378 
L 172.204835 265.647775 
L 173.469376 413.627979 
L 174.826124 307.563733 
L 176.024798 406.882949 
L 177.460053 266.005099 
L 178.817645 364.873584 
L 180.122197 357.900623 
L 181.28401 335.973389 
L 182.496951 344.420701 
L 183.923147 373.123402 
L 185.192243 352.914365 
L 186.477835 294.899163 
L 187.835428 364.873734 
L 189.088999 350.64223 
L 190.386308 356.90429 
L 191.660795 353.69053 
L 193.002166 362.799582 
L 194.234494 347.440681 
L 195.669978 320.113949 
L 196.984161 359.208617 
L 198.258028 353.601494 
L 199.600086 305.059069 
L 200.898115 357.003746 
L 202.172238 353.638309 
L 203.514675 362.937447 
L 204.85053 303.984909 
L 206.21539 365.786959 
L 207.429613 344.623358 
L 208.770833 362.780103 
L 210.126971 307.460679 
L 211.44231 359.364416 
L 212.7737 361.498405 
L 214.241158 324.826042 
L 215.515233 353.631374 
L 216.790165 353.754241 
L 218.069223 293.665353 
L 219.569353 329.433554 
L 221.023824 376.297004 
L 222.231855 343.640547 
L 223.602493 366.506068 
L 224.943546 362.758432 
L 226.15185 343.684157 
L 227.487701 303.984225 
L 228.700425 344.386413 
L 229.91958 345.399017 
L 231.235275 300.424195 
L 232.840663 391.34552 
L 234.114944 353.660989 
L 235.470514 364.617803 
L 236.946243 326.011774 
L 238.2932 305.900225 
L 239.617663 360.583829 
L 240.936805 301.040546 
L 242.201772 413.669399 
L 243.502884 357.428798 
L 244.750383 349.738269 
L 246.024953 292.810784 
L 247.457869 373.88898 
L 248.799099 362.781411 
L 250.226457 318.882882 
L 251.500846 353.676304 
L 252.841711 304.853298 
L 254.178617 362.219867 
L 255.493038 300.195459 
L 256.757716 413.641306 
L 258.064874 358.256488 
L 259.318812 288.80326 
L 260.67513 364.712471 
L 262.014021 362.478174 
L 263.288564 353.698521 
L 264.569651 354.63161 
L 265.849087 293.737095 
L 267.282004 319.726618 
L 268.833155 386.274443 
L 270.200439 366.089373 
L 271.718744 331.91063 
L 272.993354 353.70817 
L 274.273966 354.564137 
L 275.610408 304.087062 
L 276.822758 344.327186 
L 278.189238 365.98917 
L 279.545568 364.713994 
L 280.743879 342.07722 
L 282.237205 328.490525 
L 283.533457 356.757973 
L 284.889514 307.446995 
L 286.275326 368.366011 
L 287.557936 354.847426 
L 288.914594 307.548453 
L 290.319692 370.671997 
L 291.665772 305.750265 
L 292.876124 344.01023 
L 294.310945 320.013953 
L 295.480075 403.6107 
L 296.788944 358.489366 
L 298.125059 362.116724 
L 299.558188 319.75861 
L 300.832637 353.685013 
L 302.180234 306.009911 
L 303.611856 319.530568 
L 304.883346 414.298789 
L 306.18416 357.387799 
L 307.313128 261.398472 
L 308.639357 419.337487 
L 310.143462 278.381331 
L 311.597949 376.298801 
L 312.806184 343.673054 
L 314.018995 344.400179 
L 315.390328 366.592133 
L 316.946739 336.916757 
L 318.221192 353.685511 
L 319.434116 344.418184 
L 320.836721 315.044349 
L 322.270359 373.970912 
L 323.600967 361.395605 
L 324.942998 305.054333 
L 326.275042 303.319965 
L 327.470621 341.633208 
L 328.827967 422.020659 
L 330.352635 332.764008 
L 331.688668 362.106199 
L 332.98453 296.812841 
L 334.238314 350.673842 
L 335.610003 366.63615 
L 336.83337 282.616501 
L 338.283802 375.851369 
L 339.598926 359.335322 
L 340.867116 352.783457 
L 342.223286 307.466106 
L 343.636151 371.582962 
L 344.850003 344.564775 
L 346.124061 353.62898 
L 347.741489 344.441283 
L 348.974393 347.528957 
L 350.297141 360.355781 
L 351.6331 304.003005 
L 352.999416 365.968702 
L 354.335129 303.960242 
L 355.638485 357.736843 
L 356.981729 363.04176 
L 358.256802 353.774308 
L 359.59856 362.849765 
L 360.940514 305.041079 
L 362.300587 365.18648 
L 363.642445 362.862607 
L 364.856087 344.531619 
L 366.197809 305.001161 
L 367.554394 364.74633 
L 368.777574 346.027468 
L 370.112978 362.024102 
L 371.540613 318.924951 
L 372.876283 303.952672 
L 374.15249 414.750119 
L 375.647005 328.65601 
L 376.99501 306.079513 
L 378.351679 364.756977 
L 379.655292 357.772106 
L 380.903961 349.913147 
L 382.239929 304.004516 
L 383.453169 408.437628 
L 384.886655 319.812601 
L 386.161686 353.768347 
L 387.503453 362.850934 
L 388.716689 344.467387 
L 390.058559 305.026701 
L 391.290945 347.449436 
L 392.48597 341.542962 
L 393.844978 365.052266 
L 395.119675 353.720532 
L 396.522095 315.015341 
L 397.754913 347.515663 
L 399.048789 356.428075 
L 400.383484 361.931362 
L 401.775481 313.357784 
L 403.146795 366.5897 
L 404.48888 362.891978 
L 405.707681 281.665996 
L 407.191959 379.511742 
L 408.414362 282.416529 
L 409.750235 362.085226 
L 410.959992 408.069336 
L 412.290435 303.039534 
L 413.61042 301.190983 
L 414.977184 422.808584 
L 416.217001 348.581911 
L 417.572547 307.360633 
L 418.858057 355.256948 
L 420.132818 353.729826 
L 421.346093 344.473461 
L 422.701826 364.63844 
L 424.177018 325.935219 
L 425.400412 282.622282 
L 426.854284 376.231085 
L 427.94023 393.440625 
L 429.276422 304.043578 
L 430.647738 366.59002 
L 431.888106 348.665188 
L 433.174516 355.383742 
L 434.416956 348.978274 
L 435.630139 344.458946 
L 436.986008 307.415418 
L 438.186498 342.429751 
L 439.484768 357.037162 
L 440.759076 353.664763 
L 442.386731 297.964932 
L 443.600371 344.531189 
L 444.932799 361.634704 
L 446.139448 407.738815 
L 447.476095 304.122614 
L 448.695354 345.415373 
L 449.927539 347.4187 
L 451.222828 296.706779 
L 452.487639 413.654259 
L 453.701156 344.511891 
L 454.934022 347.522975 
L 456.250951 359.578137 
L 457.552669 297.890553 
L 458.958799 370.793671 
L 460.173576 344.710831 
L 461.447133 292.61721 
L 462.667553 409.190302 
L 463.940991 353.53994 
L 465.297074 307.451348 
L 466.649667 364.23977 
L 467.863144 344.505547 
L 469.198742 362.049442 
L 470.554092 307.327575 
L 471.865907 358.888857 
L 473.114249 349.864289 
L 474.470248 364.672107 
L 475.725904 289.142072 
L 477.097992 366.685466 
L 478.372901 353.750909 
L 479.714534 362.833592 
L 480.927941 344.494398 
L 482.283413 307.348249 
L 483.639462 364.678441 
L 484.843313 342.971374 
L 486.075705 347.450381 
L 487.270261 341.466351 
L 488.616388 305.75828 
L 489.831298 344.731802 
L 491.253249 372.636035 
L 492.505003 350.372713 
L 493.741134 348.021903 
L 495.359281 344.526622 
L 496.695691 304.081352 
L 497.915235 409.099027 
L 499.342551 318.876385 
L 500.555897 344.484789 
L 501.918243 365.472032 
L 503.055634 263.434837 
L 504.257157 407.189987 
L 505.543511 295.042146 
L 507.026971 379.425209 
L 508.301603 353.711281 
L 509.514919 344.479986 
L 510.728646 344.54511 
L 511.942015 344.488402 
L 513.498449 336.919697 
L 514.773023 353.70303 
L 516.177574 315.351109 
L 517.608338 373.644559 
L 519.160976 336.432013 
L 520.435336 353.672229 
L 521.648706 344.488609 
L 523.266708 344.509515 
L 524.894798 298.028522 
L 526.34454 375.774889 
L 527.557971 344.498251 
L 528.874147 359.476888 
L 530.114181 348.61477 
L 531.35744 349.101796 
L 532.569017 344.204628 
L 534.126316 337.030407 
L 535.339451 344.451549 
L 536.552696 344.468729 
L 537.827067 353.673906 
L 539.041034 344.582947 
L 540.254121 344.443886 
L 541.589805 303.955121 
L 543.085399 380.698612 
L 544.303942 345.303207 
L 545.512294 343.691777 
L 546.848376 304.024406 
L 548.061481 344.446729 
L 549.505172 321.343285 
L 550.832039 419.393778 
L 552.106517 292.793268 
L 553.331029 346.234722 
L 554.662262 361.477713 
L 555.881715 345.445823 
L 557.097464 344.864126 
L 558.455554 364.936527 
L 559.669118 344.519226 
L 561.004938 303.978868 
L 562.21867 408.489525 
L 563.560257 304.977716 
L 564.93137 366.564892 
L 566.26703 362.057452 
L 567.499765 284.545146 
L 568.971208 378.143446 
L 570.184398 344.460144 
L 572.611137 344.514872 
L 573.947596 304.089966 
L 575.172011 346.21965 
L 576.380734 407.95946 
L 577.879654 277.488911 
L 579.216025 362.150216 
L 580.54367 361.005053 
L 581.859086 359.374746 
L 583.127886 352.871604 
L 584.42919 357.4553 
L 585.689155 289.987545 
L 586.964602 353.827961 
L 588.385703 372.538022 
L 589.599005 344.477908 
L 590.812403 344.493013 
L 592.431419 344.629532 
L 593.772175 362.72003 
L 594.980381 343.668433 
L 596.317309 304.171555 
L 597.660838 363.078364 
L 598.866944 278.985089 
L 600.142572 414.694835 
L 601.46484 301.596923 
L 602.946305 379.213876 
L 604.221621 292.953395 
L 605.502636 415.206575 
L 606.993005 328.0781 
L 608.328148 361.989989 
L 609.547856 345.485742 
L 610.985352 266.426618 
L 612.338246 421.644264 
L 613.59208 350.681336 
L 615.0816 327.959366 
L 616.368247 295.097242 
L 617.637782 414.110786 
L 618.973793 304.012149 
L 620.316256 362.940767 
L 621.553675 348.21801 
L 622.773519 345.506996 
L 624.103466 302.952535 
L 625.440745 362.268458 
L 626.536895 394.771367 
L 628.02582 327.876101 
L 629.239497 344.537088 
L 630.453458 344.58214 
L 631.754996 357.487371 
L 632.948366 341.272704 
L 634.222743 353.674671 
L 635.553329 303.064617 
L 636.779327 346.465065 
L 638.108845 361.252167 
L 639.300168 275.791079 
L 640.626947 360.890677 
L 641.911207 415.5127 
L 643.39802 327.579978 
L 645.953066 362.906572 
L 647.442316 327.921603 
L 648.745682 357.73821 
L 649.992246 349.598418 
L 651.217049 282.913953 
L 652.554396 362.277446 
L 653.914255 365.15941 
L 655.128072 344.5593 
L 656.408973 354.605324 
L 657.739873 303.119595 
L 659.179563 374.653536 
L 660.514239 361.928975 
L 661.729591 280.943215 
L 663.168189 320.582015 
L 664.431472 413.505779 
L 665.775307 363.117967 
L 666.993199 281.475691 
L 668.330553 362.278269 
L 669.691651 365.315373 
L 671.036855 305.600047 
L 672.306848 353.044089 
L 673.465421 335.412842 
L 674.668762 407.385109 
L 676.025562 307.572374 
L 677.376225 363.993811 
L 678.678264 357.556205 
L 679.987738 299.30324 
L 681.359847 366.688027 
L 682.610396 288.132423 
L 683.936348 419.313095 
L 685.190444 350.719979 
L 686.681039 328.109777 
L 688.016516 362.033501 
L 689.230044 280.559361 
L 690.449622 409.10248 
L 691.909729 323.76106 
L 693.151652 348.900209 
L 694.365299 344.532405 
L 695.578669 344.488598 
L 696.818856 348.637868 
L 698.349699 333.585377 
L 699.623712 353.622539 
L 700.898804 353.777064 
L 702.185253 295.060113 
L 703.669136 379.469956 
L 704.976728 298.961907 
L 706.225807 412.108454 
L 707.581855 307.445582 
L 708.78168 342.322329 
L 709.994757 344.442321 
L 711.208639 344.569505 
L 712.508419 357.24539 
L 713.74676 285.685106 
L 714.995245 412.049374 
L 716.398448 315.138867 
L 717.551764 401.790103 
L 718.826185 292.782497 
L 720.193002 366.031126 
L 721.467568 353.701679 
L 722.699962 347.450835 
L 723.968504 291.653371 
L 725.522822 336.64814 
L 726.726588 407.430747 
L 728.068663 362.890667 
L 729.399662 303.137183 
L 730.624651 346.308559 
L 731.980363 307.388774 
L 733.164466 405.289434 
L 734.412261 349.782548 
L 735.969195 336.983778 
L 737.24372 353.695893 
L 738.586109 362.931296 
L 739.94223 307.457789 
L 741.288941 363.487989 
L 742.502849 344.573606 
L 743.839056 362.128772 
L 745.334144 328.7357 
L 746.676432 362.918232 
L 748.16556 327.904517 
L 749.379458 344.572043 
L 750.602844 282.620586 
L 751.929536 419.378377 
L 753.424453 328.711896 
L 754.63812 344.535581 
L 755.871317 347.573696 
L 757.071153 342.324048 
L 758.401248 361.328115 
L 759.615062 344.558862 
L 760.828452 344.491777 
L 762.131179 298.07533 
L 763.262573 399.182378 
L 764.689234 318.776587 
L 765.964802 353.845159 
L 767.245256 354.54186 
L 768.459214 344.581454 
L 770.016307 337.004167 
L 771.447607 319.481775 
L 772.788421 304.844503 
L 774.054238 413.75166 
L 775.269391 344.770203 
L 776.885838 344.324875 
L 778.099406 344.519909 
L 781.739961 344.552165 
L 783.014977 353.766237 
L 784.248056 347.555719 
L 785.517153 291.760496 
L 786.845666 361.119726 
L 788.059297 344.529862 
L 789.425827 365.995346 
L 790.640195 344.646231 
L 791.985649 305.642896 
L 793.189708 407.462102 
L 794.422212 347.467575 
L 795.846181 263.862365 
L 797.111606 413.713658 
L 799.803747 307.39493 
L 801.156244 364.227529 
L 802.504 306.037021 
L 803.717699 344.540726 
L 805.21146 328.551152 
L 806.420118 407.952561 
L 807.629915 343.921936 
L 807.629915 343.921936 
" clip-path="url(#p2508f49af4)" style="fill: none; stroke: #ff7f0e; stroke-width: 1.5; stroke-linecap: square"/>
   </g>
   <g id="line2d_19">
    <path d="M 72.61088 344.813511 
L 844.381228 344.813511 
" clip-path="url(#p2508f49af4)" style="fill: none; stroke-dasharray: 5.55,2.4; stroke-dashoffset: 0; stroke: #ffa500; stroke-width: 1.5"/>
   </g>
   <g id="patch_3">
    <path d="M 72.61088 536.37684 
L 72.61088 38.36632 
" style="fill: none; stroke: #000000; stroke-width: 0.8; stroke-linejoin: miter; stroke-linecap: square"/>
   </g>
   <g id="patch_4">
    <path d="M 844.381228 536.37684 
L 844.381228 38.36632 
" style="fill: none; stroke: #000000; stroke-width: 0.8; stroke-linejoin: miter; stroke-linecap: square"/>
   </g>
   <g id="patch_5">
    <path d="M 72.61088 536.37684 
L 844.381228 536.37684 
" style="fill: none; stroke: #000000; stroke-width: 0.8; stroke-linejoin: miter; stroke-linecap: square"/>
   </g>
   <g id="patch_6">
    <path d="M 72.61088 38.36632 
L 844.381228 38.36632 
" style="fill: none; stroke: #000000; stroke-width: 0.8; stroke-linejoin: miter; stroke-linecap: square"/>
   </g>
   <g id="text_18">
    <!-- Packet Rates for Camera Flows -->
    <g transform="translate(328.645179 32.36632) scale(0.168 -0.168)">
     <defs>
      <path id="DejaVuSans-52" d="M 2841 2188 
Q 3044 2119 3236 1894 
Q 3428 1669 3622 1275 
L 4263 0 
L 3584 0 
L 2988 1197 
Q 2756 1666 2539 1819 
Q 2322 1972 1947 1972 
L 1259 1972 
L 1259 0 
L 628 0 
L 628 4666 
L 2053 4666 
Q 2853 4666 3247 4331 
Q 3641 3997 3641 3322 
Q 3641 2881 3436 2590 
Q 3231 2300 2841 2188 
z
M 1259 4147 
L 1259 2491 
L 2053 2491 
Q 2509 2491 2742 2702 
Q 2975 2913 2975 3322 
Q 2975 3731 2742 3939 
Q 2509 4147 2053 4147 
L 1259 4147 
z
" transform="scale(0.015625)"/>
      <path id="DejaVuSans-66" d="M 2375 4863 
L 2375 4384 
L 1825 4384 
Q 1516 4384 1395 4259 
Q 1275 4134 1275 3809 
L 1275 3500 
L 2222 3500 
L 2222 3053 
L 1275 3053 
L 1275 0 
L 697 0 
L 697 3053 
L 147 3053 
L 147 3500 
L 697 3500 
L 697 3744 
Q 697 4328 969 4595 
Q 1241 4863 1831 4863 
L 2375 4863 
z
" transform="scale(0.015625)"/>
      <path id="DejaVuSans-43" d="M 4122 4306 
L 4122 3641 
Q 3803 3938 3442 4084 
Q 3081 4231 2675 4231 
Q 1875 4231 1450 3742 
Q 1025 3253 1025 2328 
Q 1025 1406 1450 917 
Q 1875 428 2675 428 
Q 3081 428 3442 575 
Q 3803 722 4122 1019 
L 4122 359 
Q 3791 134 3420 21 
Q 3050 -91 2638 -91 
Q 1578 -91 968 557 
Q 359 1206 359 2328 
Q 359 3453 968 4101 
Q 1578 4750 2638 4750 
Q 3056 4750 3426 4639 
Q 3797 4528 4122 4306 
z
" transform="scale(0.015625)"/>
      <path id="DejaVuSans-46" d="M 628 4666 
L 3309 4666 
L 3309 4134 
L 1259 4134 
L 1259 2759 
L 3109 2759 
L 3109 2228 
L 1259 2228 
L 1259 0 
L 628 0 
L 628 4666 
z
" transform="scale(0.015625)"/>
      <path id="DejaVuSans-6c" d="M 603 4863 
L 1178 4863 
L 1178 0 
L 603 0 
L 603 4863 
z
" transform="scale(0.015625)"/>
      <path id="DejaVuSans-77" d="M 269 3500 
L 844 3500 
L 1563 769 
L 2278 3500 
L 2956 3500 
L 3675 769 
L 4391 3500 
L 4966 3500 
L 4050 0 
L 3372 0 
L 2619 2869 
L 1863 0 
L 1184 0 
L 269 3500 
z
" transform="scale(0.015625)"/>
     </defs>
     <use xlink:href="#DejaVuSans-50"/>
     <use xlink:href="#DejaVuSans-61" x="55.802734"/>
     <use xlink:href="#DejaVuSans-63" x="117.082031"/>
     <use xlink:href="#DejaVuSans-6b" x="172.0625"/>
     <use xlink:href="#DejaVuSans-65" x="226.347656"/>
     <use xlink:href="#DejaVuSans-74" x="287.871094"/>
     <use xlink:href="#DejaVuSans-20" x="327.080078"/>
     <use xlink:href="#DejaVuSans-52" x="358.867188"/>
     <use xlink:href="#DejaVuSans-61" x="426.099609"/>
     <use xlink:href="#DejaVuSans-74" x="487.378906"/>
     <use xlink:href="#DejaVuSans-65" x="526.587891"/>
     <use xlink:href="#DejaVuSans-73" x="588.111328"/>
     <use xlink:href="#DejaVuSans-20" x="640.210938"/>
     <use xlink:href="#DejaVuSans-66" x="671.998047"/>
     <use xlink:href="#DejaVuSans-6f" x="707.203125"/>
     <use xlink:href="#DejaVuSans-72" x="768.384766"/>
     <use xlink:href="#DejaVuSans-20" x="809.498047"/>
     <use xlink:href="#DejaVuSans-43" x="841.285156"/>
     <use xlink:href="#DejaVuSans-61" x="911.109375"/>
     <use xlink:href="#DejaVuSans-6d" x="972.388672"/>
     <use xlink:href="#DejaVuSans-65" x="1069.800781"/>
     <use xlink:href="#DejaVuSans-72" x="1131.324219"/>
     <use xlink:href="#DejaVuSans-61" x="1172.4375"/>
     <use xlink:href="#DejaVuSans-20" x="1233.716797"/>
     <use xlink:href="#DejaVuSans-46" x="1265.503906"/>
     <use xlink:href="#DejaVuSans-6c" x="1323.023438"/>
     <use xlink:href="#DejaVuSans-6f" x="1350.806641"/>
     <use xlink:href="#DejaVuSans-77" x="1411.988281"/>
     <use xlink:href="#DejaVuSans-73" x="1493.775391"/>
    </g>
   </g>
   <g id="legend_1">
    <g id="patch_7">
     <path d="M 854.181228 330.57033 
L 1148.17029 330.57033 
Q 1150.97029 330.57033 1150.97029 327.77033 
L 1150.97029 246.97283 
Q 1150.97029 244.17283 1148.17029 244.17283 
L 854.181228 244.17283 
Q 851.381228 244.17283 851.381228 246.97283 
L 851.381228 327.77033 
Q 851.381228 330.57033 854.181228 330.57033 
z
" style="fill: #ffffff; opacity: 0.8; stroke: #cccccc; stroke-linejoin: miter"/>
    </g>
    <g id="line2d_20">
     <path d="M 856.981228 255.510642 
L 870.981228 255.510642 
L 884.981228 255.510642 
" style="fill: none; stroke: #1f77b4; stroke-width: 1.5; stroke-linecap: square"/>
    </g>
    <g id="text_19">
     <!-- Cam 1 (Mean Error Deviation: 3.88) -->
     <g transform="translate(896.181228 260.410642) scale(0.14 -0.14)">
      <defs>
       <path id="DejaVuSans-4d" d="M 628 4666 
L 1569 4666 
L 2759 1491 
L 3956 4666 
L 4897 4666 
L 4897 0 
L 4281 0 
L 4281 4097 
L 3078 897 
L 2444 897 
L 1241 4097 
L 1241 0 
L 628 0 
L 628 4666 
z
" transform="scale(0.015625)"/>
       <path id="DejaVuSans-45" d="M 628 4666 
L 3578 4666 
L 3578 4134 
L 1259 4134 
L 1259 2753 
L 3481 2753 
L 3481 2222 
L 1259 2222 
L 1259 531 
L 3634 531 
L 3634 0 
L 628 0 
L 628 4666 
z
" transform="scale(0.015625)"/>
       <path id="DejaVuSans-44" d="M 1259 4147 
L 1259 519 
L 2022 519 
Q 2988 519 3436 956 
Q 3884 1394 3884 2338 
Q 3884 3275 3436 3711 
Q 2988 4147 2022 4147 
L 1259 4147 
z
M 628 4666 
L 1925 4666 
Q 3281 4666 3915 4102 
Q 4550 3538 4550 2338 
Q 4550 1131 3912 565 
Q 3275 0 1925 0 
L 628 0 
L 628 4666 
z
" transform="scale(0.015625)"/>
       <path id="DejaVuSans-76" d="M 191 3500 
L 800 3500 
L 1894 563 
L 2988 3500 
L 3597 3500 
L 2284 0 
L 1503 0 
L 191 3500 
z
" transform="scale(0.015625)"/>
       <path id="DejaVuSans-3a" d="M 750 794 
L 1409 794 
L 1409 0 
L 750 0 
L 750 794 
z
M 750 3309 
L 1409 3309 
L 1409 2516 
L 750 2516 
L 750 3309 
z
" transform="scale(0.015625)"/>
       <path id="DejaVuSans-2e" d="M 684 794 
L 1344 794 
L 1344 0 
L 684 0 
L 684 794 
z
" transform="scale(0.015625)"/>
       <path id="DejaVuSans-38" d="M 2034 2216 
Q 1584 2216 1326 1975 
Q 1069 1734 1069 1313 
Q 1069 891 1326 650 
Q 1584 409 2034 409 
Q 2484 409 2743 651 
Q 3003 894 3003 1313 
Q 3003 1734 2745 1975 
Q 2488 2216 2034 2216 
z
M 1403 2484 
Q 997 2584 770 2862 
Q 544 3141 544 3541 
Q 544 4100 942 4425 
Q 1341 4750 2034 4750 
Q 2731 4750 3128 4425 
Q 3525 4100 3525 3541 
Q 3525 3141 3298 2862 
Q 3072 2584 2669 2484 
Q 3125 2378 3379 2068 
Q 3634 1759 3634 1313 
Q 3634 634 3220 271 
Q 2806 -91 2034 -91 
Q 1263 -91 848 271 
Q 434 634 434 1313 
Q 434 1759 690 2068 
Q 947 2378 1403 2484 
z
M 1172 3481 
Q 1172 3119 1398 2916 
Q 1625 2713 2034 2713 
Q 2441 2713 2670 2916 
Q 2900 3119 2900 3481 
Q 2900 3844 2670 4047 
Q 2441 4250 2034 4250 
Q 1625 4250 1398 4047 
Q 1172 3844 1172 3481 
z
" transform="scale(0.015625)"/>
      </defs>
      <use xlink:href="#DejaVuSans-43"/>
      <use xlink:href="#DejaVuSans-61" x="69.824219"/>
      <use xlink:href="#DejaVuSans-6d" x="131.103516"/>
      <use xlink:href="#DejaVuSans-20" x="228.515625"/>
      <use xlink:href="#DejaVuSans-31" x="260.302734"/>
      <use xlink:href="#DejaVuSans-20" x="323.925781"/>
      <use xlink:href="#DejaVuSans-28" x="355.712891"/>
      <use xlink:href="#DejaVuSans-4d" x="394.726562"/>
      <use xlink:href="#DejaVuSans-65" x="481.005859"/>
      <use xlink:href="#DejaVuSans-61" x="542.529297"/>
      <use xlink:href="#DejaVuSans-6e" x="603.808594"/>
      <use xlink:href="#DejaVuSans-20" x="667.1875"/>
      <use xlink:href="#DejaVuSans-45" x="698.974609"/>
      <use xlink:href="#DejaVuSans-72" x="762.158203"/>
      <use xlink:href="#DejaVuSans-72" x="801.521484"/>
      <use xlink:href="#DejaVuSans-6f" x="840.384766"/>
      <use xlink:href="#DejaVuSans-72" x="901.566406"/>
      <use xlink:href="#DejaVuSans-20" x="942.679688"/>
      <use xlink:href="#DejaVuSans-44" x="974.466797"/>
      <use xlink:href="#DejaVuSans-65" x="1051.46875"/>
      <use xlink:href="#DejaVuSans-76" x="1112.992188"/>
      <use xlink:href="#DejaVuSans-69" x="1172.171875"/>
      <use xlink:href="#DejaVuSans-61" x="1199.955078"/>
      <use xlink:href="#DejaVuSans-74" x="1261.234375"/>
      <use xlink:href="#DejaVuSans-69" x="1300.443359"/>
      <use xlink:href="#DejaVuSans-6f" x="1328.226562"/>
      <use xlink:href="#DejaVuSans-6e" x="1389.408203"/>
      <use xlink:href="#DejaVuSans-3a" x="1452.787109"/>
      <use xlink:href="#DejaVuSans-20" x="1486.478516"/>
      <use xlink:href="#DejaVuSans-33" x="1518.265625"/>
      <use xlink:href="#DejaVuSans-2e" x="1581.888672"/>
      <use xlink:href="#DejaVuSans-38" x="1613.675781"/>
      <use xlink:href="#DejaVuSans-38" x="1677.298828"/>
      <use xlink:href="#DejaVuSans-29" x="1740.921875"/>
     </g>
    </g>
    <g id="line2d_21">
     <path d="M 856.981228 276.060018 
L 870.981228 276.060018 
L 884.981228 276.060018 
" style="fill: none; stroke-dasharray: 5.55,2.4; stroke-dashoffset: 0; stroke: #0000ff; stroke-width: 1.5"/>
    </g>
    <g id="text_20">
     <!-- Cam 1 Average -->
     <g transform="translate(896.181228 280.960017) scale(0.14 -0.14)">
      <defs>
       <path id="DejaVuSans-41" d="M 2188 4044 
L 1331 1722 
L 3047 1722 
L 2188 4044 
z
M 1831 4666 
L 2547 4666 
L 4325 0 
L 3669 0 
L 3244 1197 
L 1141 1197 
L 716 0 
L 50 0 
L 1831 4666 
z
" transform="scale(0.015625)"/>
       <path id="DejaVuSans-67" d="M 2906 1791 
Q 2906 2416 2648 2759 
Q 2391 3103 1925 3103 
Q 1463 3103 1205 2759 
Q 947 2416 947 1791 
Q 947 1169 1205 825 
Q 1463 481 1925 481 
Q 2391 481 2648 825 
Q 2906 1169 2906 1791 
z
M 3481 434 
Q 3481 -459 3084 -895 
Q 2688 -1331 1869 -1331 
Q 1566 -1331 1297 -1286 
Q 1028 -1241 775 -1147 
L 775 -588 
Q 1028 -725 1275 -790 
Q 1522 -856 1778 -856 
Q 2344 -856 2625 -561 
Q 2906 -266 2906 331 
L 2906 616 
Q 2728 306 2450 153 
Q 2172 0 1784 0 
Q 1141 0 747 490 
Q 353 981 353 1791 
Q 353 2603 747 3093 
Q 1141 3584 1784 3584 
Q 2172 3584 2450 3431 
Q 2728 3278 2906 2969 
L 2906 3500 
L 3481 3500 
L 3481 434 
z
" transform="scale(0.015625)"/>
      </defs>
      <use xlink:href="#DejaVuSans-43"/>
      <use xlink:href="#DejaVuSans-61" x="69.824219"/>
      <use xlink:href="#DejaVuSans-6d" x="131.103516"/>
      <use xlink:href="#DejaVuSans-20" x="228.515625"/>
      <use xlink:href="#DejaVuSans-31" x="260.302734"/>
      <use xlink:href="#DejaVuSans-20" x="323.925781"/>
      <use xlink:href="#DejaVuSans-41" x="355.712891"/>
      <use xlink:href="#DejaVuSans-76" x="418.246094"/>
      <use xlink:href="#DejaVuSans-65" x="477.425781"/>
      <use xlink:href="#DejaVuSans-72" x="538.949219"/>
      <use xlink:href="#DejaVuSans-61" x="580.0625"/>
      <use xlink:href="#DejaVuSans-67" x="641.341797"/>
      <use xlink:href="#DejaVuSans-65" x="704.818359"/>
     </g>
    </g>
    <g id="line2d_22">
     <path d="M 856.981228 296.609393 
L 870.981228 296.609393 
L 884.981228 296.609393 
" style="fill: none; stroke: #ff7f0e; stroke-width: 1.5; stroke-linecap: square"/>
    </g>
    <g id="text_21">
     <!-- Cam 2 (Mean Error Deviation: 3.89) -->
     <g transform="translate(896.181228 301.509392) scale(0.14 -0.14)">
      <defs>
       <path id="DejaVuSans-39" d="M 703 97 
L 703 672 
Q 941 559 1184 500 
Q 1428 441 1663 441 
Q 2288 441 2617 861 
Q 2947 1281 2994 2138 
Q 2813 1869 2534 1725 
Q 2256 1581 1919 1581 
Q 1219 1581 811 2004 
Q 403 2428 403 3163 
Q 403 3881 828 4315 
Q 1253 4750 1959 4750 
Q 2769 4750 3195 4129 
Q 3622 3509 3622 2328 
Q 3622 1225 3098 567 
Q 2575 -91 1691 -91 
Q 1453 -91 1209 -44 
Q 966 3 703 97 
z
M 1959 2075 
Q 2384 2075 2632 2365 
Q 2881 2656 2881 3163 
Q 2881 3666 2632 3958 
Q 2384 4250 1959 4250 
Q 1534 4250 1286 3958 
Q 1038 3666 1038 3163 
Q 1038 2656 1286 2365 
Q 1534 2075 1959 2075 
z
" transform="scale(0.015625)"/>
      </defs>
      <use xlink:href="#DejaVuSans-43"/>
      <use xlink:href="#DejaVuSans-61" x="69.824219"/>
      <use xlink:href="#DejaVuSans-6d" x="131.103516"/>
      <use xlink:href="#DejaVuSans-20" x="228.515625"/>
      <use xlink:href="#DejaVuSans-32" x="260.302734"/>
      <use xlink:href="#DejaVuSans-20" x="323.925781"/>
      <use xlink:href="#DejaVuSans-28" x="355.712891"/>
      <use xlink:href="#DejaVuSans-4d" x="394.726562"/>
      <use xlink:href="#DejaVuSans-65" x="481.005859"/>
      <use xlink:href="#DejaVuSans-61" x="542.529297"/>
      <use xlink:href="#DejaVuSans-6e" x="603.808594"/>
      <use xlink:href="#DejaVuSans-20" x="667.1875"/>
      <use xlink:href="#DejaVuSans-45" x="698.974609"/>
      <use xlink:href="#DejaVuSans-72" x="762.158203"/>
      <use xlink:href="#DejaVuSans-72" x="801.521484"/>
      <use xlink:href="#DejaVuSans-6f" x="840.384766"/>
      <use xlink:href="#DejaVuSans-72" x="901.566406"/>
      <use xlink:href="#DejaVuSans-20" x="942.679688"/>
      <use xlink:href="#DejaVuSans-44" x="974.466797"/>
      <use xlink:href="#DejaVuSans-65" x="1051.46875"/>
      <use xlink:href="#DejaVuSans-76" x="1112.992188"/>
      <use xlink:href="#DejaVuSans-69" x="1172.171875"/>
      <use xlink:href="#DejaVuSans-61" x="1199.955078"/>
      <use xlink:href="#DejaVuSans-74" x="1261.234375"/>
      <use xlink:href="#DejaVuSans-69" x="1300.443359"/>
      <use xlink:href="#DejaVuSans-6f" x="1328.226562"/>
      <use xlink:href="#DejaVuSans-6e" x="1389.408203"/>
      <use xlink:href="#DejaVuSans-3a" x="1452.787109"/>
      <use xlink:href="#DejaVuSans-20" x="1486.478516"/>
      <use xlink:href="#DejaVuSans-33" x="1518.265625"/>
      <use xlink:href="#DejaVuSans-2e" x="1581.888672"/>
      <use xlink:href="#DejaVuSans-38" x="1613.675781"/>
      <use xlink:href="#DejaVuSans-39" x="1677.298828"/>
      <use xlink:href="#DejaVuSans-29" x="1740.921875"/>
     </g>
    </g>
    <g id="line2d_23">
     <path d="M 856.981228 317.158768 
L 870.981228 317.158768 
L 884.981228 317.158768 
" style="fill: none; stroke-dasharray: 5.55,2.4; stroke-dashoffset: 0; stroke: #ffa500; stroke-width: 1.5"/>
    </g>
    <g id="text_22">
     <!-- Cam 2 Average -->
     <g transform="translate(896.181228 322.058767) scale(0.14 -0.14)">
      <use xlink:href="#DejaVuSans-43"/>
      <use xlink:href="#DejaVuSans-61" x="69.824219"/>
      <use xlink:href="#DejaVuSans-6d" x="131.103516"/>
      <use xlink:href="#DejaVuSans-20" x="228.515625"/>
      <use xlink:href="#DejaVuSans-32" x="260.302734"/>
      <use xlink:href="#DejaVuSans-20" x="323.925781"/>
      <use xlink:href="#DejaVuSans-41" x="355.712891"/>
      <use xlink:href="#DejaVuSans-76" x="418.246094"/>
      <use xlink:href="#DejaVuSans-65" x="477.425781"/>
      <use xlink:href="#DejaVuSans-72" x="538.949219"/>
      <use xlink:href="#DejaVuSans-61" x="580.0625"/>
      <use xlink:href="#DejaVuSans-67" x="641.341797"/>
      <use xlink:href="#DejaVuSans-65" x="704.818359"/>
     </g>
    </g>
   </g>
  </g>
 </g>
 <defs>
  <clipPath id="p2508f49af4">
   <rect x="72.61088" y="38.36632" width="771.770348" height="498.01052"/>
  </clipPath>
 </defs>
</svg>
