<?xml version="1.0" encoding="utf-8" standalone="no"?>
<!DOCTYPE svg PUBLIC "-//W3C//DTD SVG 1.1//EN"
  "http://www.w3.org/Graphics/SVG/1.1/DTD/svg11.dtd">
<svg xmlns:xlink="http://www.w3.org/1999/xlink" width="792pt" height="576pt" viewBox="0 0 792 576" xmlns="http://www.w3.org/2000/svg" version="1.1">
 <metadata>
  <rdf:RDF xmlns:dc="http://purl.org/dc/elements/1.1/" xmlns:cc="http://creativecommons.org/ns#" xmlns:rdf="http://www.w3.org/1999/02/22-rdf-syntax-ns#">
   <cc:Work>
    <dc:type rdf:resource="http://purl.org/dc/dcmitype/StillImage"/>
    <dc:date>2023-05-07T21:53:48.093312</dc:date>
    <dc:format>image/svg+xml</dc:format>
    <dc:creator>
     <cc:Agent>
      <dc:title>Matplotlib v3.6.2, https://matplotlib.org/</dc:title>
     </cc:Agent>
    </dc:creator>
   </cc:Work>
  </rdf:RDF>
 </metadata>
 <defs>
  <style type="text/css">*{stroke-linejoin: round; stroke-linecap: butt}</style>
 </defs>
 <g id="figure_1">
  <g id="patch_1">
   <path d="M 0 576 
L 792 576 
L 792 0 
L 0 0 
z
" style="fill: #ffffff"/>
  </g>
  <g id="axes_1">
   <g id="patch_2">
    <path d="M 57.53 414.72 
L 767.79 414.72 
L 767.79 15.66 
L 57.53 15.66 
z
" style="fill: #ffffff"/>
   </g>
   <g id="matplotlib.axis_1">
    <g id="xtick_1">
     <g id="line2d_1">
      <path d="M 57.53 414.72 
L 57.53 15.66 
" clip-path="url(#p741f0ba90d)" style="fill: none; stroke: #b0b0b0; stroke-width: 0.8; stroke-linecap: square"/>
     </g>
     <g id="line2d_2">
      <defs>
       <path id="m0b452705e9" d="M 0 0 
L 0 3.5 
" style="stroke: #000000; stroke-width: 0.8"/>
      </defs>
      <g>
       <use xlink:href="#m0b452705e9" x="57.53" y="414.72" style="stroke: #000000; stroke-width: 0.8"/>
      </g>
     </g>
     <g id="text_1">
      <!-- 0 -->
      <g transform="translate(53.235313 431.977891) scale(0.135 -0.135)">
       <defs>
        <path id="DejaVuSans-30" d="M 2034 4250 
Q 1547 4250 1301 3770 
Q 1056 3291 1056 2328 
Q 1056 1369 1301 889 
Q 1547 409 2034 409 
Q 2525 409 2770 889 
Q 3016 1369 3016 2328 
Q 3016 3291 2770 3770 
Q 2525 4250 2034 4250 
z
M 2034 4750 
Q 2819 4750 3233 4129 
Q 3647 3509 3647 2328 
Q 3647 1150 3233 529 
Q 2819 -91 2034 -91 
Q 1250 -91 836 529 
Q 422 1150 422 2328 
Q 422 3509 836 4129 
Q 1250 4750 2034 4750 
z
" transform="scale(0.015625)"/>
       </defs>
       <use xlink:href="#DejaVuSans-30"/>
      </g>
     </g>
    </g>
    <g id="xtick_2">
     <g id="line2d_3">
      <path d="M 175.906667 414.72 
L 175.906667 15.66 
" clip-path="url(#p741f0ba90d)" style="fill: none; stroke: #b0b0b0; stroke-width: 0.8; stroke-linecap: square"/>
     </g>
     <g id="line2d_4">
      <g>
       <use xlink:href="#m0b452705e9" x="175.906667" y="414.72" style="stroke: #000000; stroke-width: 0.8"/>
      </g>
     </g>
     <g id="text_2">
      <!-- 10 -->
      <g transform="translate(167.317292 431.977891) scale(0.135 -0.135)">
       <defs>
        <path id="DejaVuSans-31" d="M 794 531 
L 1825 531 
L 1825 4091 
L 703 3866 
L 703 4441 
L 1819 4666 
L 2450 4666 
L 2450 531 
L 3481 531 
L 3481 0 
L 794 0 
L 794 531 
z
" transform="scale(0.015625)"/>
       </defs>
       <use xlink:href="#DejaVuSans-31"/>
       <use xlink:href="#DejaVuSans-30" x="63.623047"/>
      </g>
     </g>
    </g>
    <g id="xtick_3">
     <g id="line2d_5">
      <path d="M 294.283333 414.72 
L 294.283333 15.66 
" clip-path="url(#p741f0ba90d)" style="fill: none; stroke: #b0b0b0; stroke-width: 0.8; stroke-linecap: square"/>
     </g>
     <g id="line2d_6">
      <g>
       <use xlink:href="#m0b452705e9" x="294.283333" y="414.72" style="stroke: #000000; stroke-width: 0.8"/>
      </g>
     </g>
     <g id="text_3">
      <!-- 20 -->
      <g transform="translate(285.693958 431.977891) scale(0.135 -0.135)">
       <defs>
        <path id="DejaVuSans-32" d="M 1228 531 
L 3431 531 
L 3431 0 
L 469 0 
L 469 531 
Q 828 903 1448 1529 
Q 2069 2156 2228 2338 
Q 2531 2678 2651 2914 
Q 2772 3150 2772 3378 
Q 2772 3750 2511 3984 
Q 2250 4219 1831 4219 
Q 1534 4219 1204 4116 
Q 875 4013 500 3803 
L 500 4441 
Q 881 4594 1212 4672 
Q 1544 4750 1819 4750 
Q 2544 4750 2975 4387 
Q 3406 4025 3406 3419 
Q 3406 3131 3298 2873 
Q 3191 2616 2906 2266 
Q 2828 2175 2409 1742 
Q 1991 1309 1228 531 
z
" transform="scale(0.015625)"/>
       </defs>
       <use xlink:href="#DejaVuSans-32"/>
       <use xlink:href="#DejaVuSans-30" x="63.623047"/>
      </g>
     </g>
    </g>
    <g id="xtick_4">
     <g id="line2d_7">
      <path d="M 412.66 414.72 
L 412.66 15.66 
" clip-path="url(#p741f0ba90d)" style="fill: none; stroke: #b0b0b0; stroke-width: 0.8; stroke-linecap: square"/>
     </g>
     <g id="line2d_8">
      <g>
       <use xlink:href="#m0b452705e9" x="412.66" y="414.72" style="stroke: #000000; stroke-width: 0.8"/>
      </g>
     </g>
     <g id="text_4">
      <!-- 30 -->
      <g transform="translate(404.070625 431.977891) scale(0.135 -0.135)">
       <defs>
        <path id="DejaVuSans-33" d="M 2597 2516 
Q 3050 2419 3304 2112 
Q 3559 1806 3559 1356 
Q 3559 666 3084 287 
Q 2609 -91 1734 -91 
Q 1441 -91 1130 -33 
Q 819 25 488 141 
L 488 750 
Q 750 597 1062 519 
Q 1375 441 1716 441 
Q 2309 441 2620 675 
Q 2931 909 2931 1356 
Q 2931 1769 2642 2001 
Q 2353 2234 1838 2234 
L 1294 2234 
L 1294 2753 
L 1863 2753 
Q 2328 2753 2575 2939 
Q 2822 3125 2822 3475 
Q 2822 3834 2567 4026 
Q 2313 4219 1838 4219 
Q 1578 4219 1281 4162 
Q 984 4106 628 3988 
L 628 4550 
Q 988 4650 1302 4700 
Q 1616 4750 1894 4750 
Q 2613 4750 3031 4423 
Q 3450 4097 3450 3541 
Q 3450 3153 3228 2886 
Q 3006 2619 2597 2516 
z
" transform="scale(0.015625)"/>
       </defs>
       <use xlink:href="#DejaVuSans-33"/>
       <use xlink:href="#DejaVuSans-30" x="63.623047"/>
      </g>
     </g>
    </g>
    <g id="xtick_5">
     <g id="line2d_9">
      <path d="M 531.036667 414.72 
L 531.036667 15.66 
" clip-path="url(#p741f0ba90d)" style="fill: none; stroke: #b0b0b0; stroke-width: 0.8; stroke-linecap: square"/>
     </g>
     <g id="line2d_10">
      <g>
       <use xlink:href="#m0b452705e9" x="531.036667" y="414.72" style="stroke: #000000; stroke-width: 0.8"/>
      </g>
     </g>
     <g id="text_5">
      <!-- 40 -->
      <g transform="translate(522.447292 431.977891) scale(0.135 -0.135)">
       <defs>
        <path id="DejaVuSans-34" d="M 2419 4116 
L 825 1625 
L 2419 1625 
L 2419 4116 
z
M 2253 4666 
L 3047 4666 
L 3047 1625 
L 3713 1625 
L 3713 1100 
L 3047 1100 
L 3047 0 
L 2419 0 
L 2419 1100 
L 313 1100 
L 313 1709 
L 2253 4666 
z
" transform="scale(0.015625)"/>
       </defs>
       <use xlink:href="#DejaVuSans-34"/>
       <use xlink:href="#DejaVuSans-30" x="63.623047"/>
      </g>
     </g>
    </g>
    <g id="xtick_6">
     <g id="line2d_11">
      <path d="M 649.413333 414.72 
L 649.413333 15.66 
" clip-path="url(#p741f0ba90d)" style="fill: none; stroke: #b0b0b0; stroke-width: 0.8; stroke-linecap: square"/>
     </g>
     <g id="line2d_12">
      <g>
       <use xlink:href="#m0b452705e9" x="649.413333" y="414.72" style="stroke: #000000; stroke-width: 0.8"/>
      </g>
     </g>
     <g id="text_6">
      <!-- 50 -->
      <g transform="translate(640.823958 431.977891) scale(0.135 -0.135)">
       <defs>
        <path id="DejaVuSans-35" d="M 691 4666 
L 3169 4666 
L 3169 4134 
L 1269 4134 
L 1269 2991 
Q 1406 3038 1543 3061 
Q 1681 3084 1819 3084 
Q 2600 3084 3056 2656 
Q 3513 2228 3513 1497 
Q 3513 744 3044 326 
Q 2575 -91 1722 -91 
Q 1428 -91 1123 -41 
Q 819 9 494 109 
L 494 744 
Q 775 591 1075 516 
Q 1375 441 1709 441 
Q 2250 441 2565 725 
Q 2881 1009 2881 1497 
Q 2881 1984 2565 2268 
Q 2250 2553 1709 2553 
Q 1456 2553 1204 2497 
Q 953 2441 691 2322 
L 691 4666 
z
" transform="scale(0.015625)"/>
       </defs>
       <use xlink:href="#DejaVuSans-35"/>
       <use xlink:href="#DejaVuSans-30" x="63.623047"/>
      </g>
     </g>
    </g>
    <g id="xtick_7">
     <g id="line2d_13">
      <path d="M 767.79 414.72 
L 767.79 15.66 
" clip-path="url(#p741f0ba90d)" style="fill: none; stroke: #b0b0b0; stroke-width: 0.8; stroke-linecap: square"/>
     </g>
     <g id="line2d_14">
      <g>
       <use xlink:href="#m0b452705e9" x="767.79" y="414.72" style="stroke: #000000; stroke-width: 0.8"/>
      </g>
     </g>
     <g id="text_7">
      <!-- 60 -->
      <g transform="translate(759.200625 431.977891) scale(0.135 -0.135)">
       <defs>
        <path id="DejaVuSans-36" d="M 2113 2584 
Q 1688 2584 1439 2293 
Q 1191 2003 1191 1497 
Q 1191 994 1439 701 
Q 1688 409 2113 409 
Q 2538 409 2786 701 
Q 3034 994 3034 1497 
Q 3034 2003 2786 2293 
Q 2538 2584 2113 2584 
z
M 3366 4563 
L 3366 3988 
Q 3128 4100 2886 4159 
Q 2644 4219 2406 4219 
Q 1781 4219 1451 3797 
Q 1122 3375 1075 2522 
Q 1259 2794 1537 2939 
Q 1816 3084 2150 3084 
Q 2853 3084 3261 2657 
Q 3669 2231 3669 1497 
Q 3669 778 3244 343 
Q 2819 -91 2113 -91 
Q 1303 -91 875 529 
Q 447 1150 447 2328 
Q 447 3434 972 4092 
Q 1497 4750 2381 4750 
Q 2619 4750 2861 4703 
Q 3103 4656 3366 4563 
z
" transform="scale(0.015625)"/>
       </defs>
       <use xlink:href="#DejaVuSans-36"/>
       <use xlink:href="#DejaVuSans-30" x="63.623047"/>
      </g>
     </g>
    </g>
    <g id="text_8">
     <!-- Time (s) -->
     <g transform="translate(383.183086 449.803203) scale(0.145 -0.145)">
      <defs>
       <path id="DejaVuSans-54" d="M -19 4666 
L 3928 4666 
L 3928 4134 
L 2272 4134 
L 2272 0 
L 1638 0 
L 1638 4134 
L -19 4134 
L -19 4666 
z
" transform="scale(0.015625)"/>
       <path id="DejaVuSans-69" d="M 603 3500 
L 1178 3500 
L 1178 0 
L 603 0 
L 603 3500 
z
M 603 4863 
L 1178 4863 
L 1178 4134 
L 603 4134 
L 603 4863 
z
" transform="scale(0.015625)"/>
       <path id="DejaVuSans-6d" d="M 3328 2828 
Q 3544 3216 3844 3400 
Q 4144 3584 4550 3584 
Q 5097 3584 5394 3201 
Q 5691 2819 5691 2113 
L 5691 0 
L 5113 0 
L 5113 2094 
Q 5113 2597 4934 2840 
Q 4756 3084 4391 3084 
Q 3944 3084 3684 2787 
Q 3425 2491 3425 1978 
L 3425 0 
L 2847 0 
L 2847 2094 
Q 2847 2600 2669 2842 
Q 2491 3084 2119 3084 
Q 1678 3084 1418 2786 
Q 1159 2488 1159 1978 
L 1159 0 
L 581 0 
L 581 3500 
L 1159 3500 
L 1159 2956 
Q 1356 3278 1631 3431 
Q 1906 3584 2284 3584 
Q 2666 3584 2933 3390 
Q 3200 3197 3328 2828 
z
" transform="scale(0.015625)"/>
       <path id="DejaVuSans-65" d="M 3597 1894 
L 3597 1613 
L 953 1613 
Q 991 1019 1311 708 
Q 1631 397 2203 397 
Q 2534 397 2845 478 
Q 3156 559 3463 722 
L 3463 178 
Q 3153 47 2828 -22 
Q 2503 -91 2169 -91 
Q 1331 -91 842 396 
Q 353 884 353 1716 
Q 353 2575 817 3079 
Q 1281 3584 2069 3584 
Q 2775 3584 3186 3129 
Q 3597 2675 3597 1894 
z
M 3022 2063 
Q 3016 2534 2758 2815 
Q 2500 3097 2075 3097 
Q 1594 3097 1305 2825 
Q 1016 2553 972 2059 
L 3022 2063 
z
" transform="scale(0.015625)"/>
       <path id="DejaVuSans-20" transform="scale(0.015625)"/>
       <path id="DejaVuSans-28" d="M 1984 4856 
Q 1566 4138 1362 3434 
Q 1159 2731 1159 2009 
Q 1159 1288 1364 580 
Q 1569 -128 1984 -844 
L 1484 -844 
Q 1016 -109 783 600 
Q 550 1309 550 2009 
Q 550 2706 781 3412 
Q 1013 4119 1484 4856 
L 1984 4856 
z
" transform="scale(0.015625)"/>
       <path id="DejaVuSans-73" d="M 2834 3397 
L 2834 2853 
Q 2591 2978 2328 3040 
Q 2066 3103 1784 3103 
Q 1356 3103 1142 2972 
Q 928 2841 928 2578 
Q 928 2378 1081 2264 
Q 1234 2150 1697 2047 
L 1894 2003 
Q 2506 1872 2764 1633 
Q 3022 1394 3022 966 
Q 3022 478 2636 193 
Q 2250 -91 1575 -91 
Q 1294 -91 989 -36 
Q 684 19 347 128 
L 347 722 
Q 666 556 975 473 
Q 1284 391 1588 391 
Q 1994 391 2212 530 
Q 2431 669 2431 922 
Q 2431 1156 2273 1281 
Q 2116 1406 1581 1522 
L 1381 1569 
Q 847 1681 609 1914 
Q 372 2147 372 2553 
Q 372 3047 722 3315 
Q 1072 3584 1716 3584 
Q 2034 3584 2315 3537 
Q 2597 3491 2834 3397 
z
" transform="scale(0.015625)"/>
       <path id="DejaVuSans-29" d="M 513 4856 
L 1013 4856 
Q 1481 4119 1714 3412 
Q 1947 2706 1947 2009 
Q 1947 1309 1714 600 
Q 1481 -109 1013 -844 
L 513 -844 
Q 928 -128 1133 580 
Q 1338 1288 1338 2009 
Q 1338 2731 1133 3434 
Q 928 4138 513 4856 
z
" transform="scale(0.015625)"/>
      </defs>
      <use xlink:href="#DejaVuSans-54"/>
      <use xlink:href="#DejaVuSans-69" x="57.958984"/>
      <use xlink:href="#DejaVuSans-6d" x="85.742188"/>
      <use xlink:href="#DejaVuSans-65" x="183.154297"/>
      <use xlink:href="#DejaVuSans-20" x="244.677734"/>
      <use xlink:href="#DejaVuSans-28" x="276.464844"/>
      <use xlink:href="#DejaVuSans-73" x="315.478516"/>
      <use xlink:href="#DejaVuSans-29" x="367.578125"/>
     </g>
    </g>
   </g>
   <g id="matplotlib.axis_2">
    <g id="ytick_1">
     <g id="line2d_15">
      <path d="M 57.53 414.72 
L 767.79 414.72 
" clip-path="url(#p741f0ba90d)" style="fill: none; stroke: #b0b0b0; stroke-width: 0.8; stroke-linecap: square"/>
     </g>
     <g id="line2d_16">
      <defs>
       <path id="md68fc71472" d="M 0 0 
L -3.5 0 
" style="stroke: #000000; stroke-width: 0.8"/>
      </defs>
      <g>
       <use xlink:href="#md68fc71472" x="57.53" y="414.72" style="stroke: #000000; stroke-width: 0.8"/>
      </g>
     </g>
     <g id="text_9">
      <!-- 0 -->
      <g transform="translate(41.940625 419.848945) scale(0.135 -0.135)">
       <use xlink:href="#DejaVuSans-30"/>
      </g>
     </g>
    </g>
    <g id="ytick_2">
     <g id="line2d_17">
      <path d="M 57.53 363.463077 
L 767.79 363.463077 
" clip-path="url(#p741f0ba90d)" style="fill: none; stroke: #b0b0b0; stroke-width: 0.8; stroke-linecap: square"/>
     </g>
     <g id="line2d_18">
      <g>
       <use xlink:href="#md68fc71472" x="57.53" y="363.463077" style="stroke: #000000; stroke-width: 0.8"/>
      </g>
     </g>
     <g id="text_10">
      <!-- 10 -->
      <g transform="translate(33.35125 368.592022) scale(0.135 -0.135)">
       <use xlink:href="#DejaVuSans-31"/>
       <use xlink:href="#DejaVuSans-30" x="63.623047"/>
      </g>
     </g>
    </g>
    <g id="ytick_3">
     <g id="line2d_19">
      <path d="M 57.53 312.206153 
L 767.79 312.206153 
" clip-path="url(#p741f0ba90d)" style="fill: none; stroke: #b0b0b0; stroke-width: 0.8; stroke-linecap: square"/>
     </g>
     <g id="line2d_20">
      <g>
       <use xlink:href="#md68fc71472" x="57.53" y="312.206153" style="stroke: #000000; stroke-width: 0.8"/>
      </g>
     </g>
     <g id="text_11">
      <!-- 20 -->
      <g transform="translate(33.35125 317.335098) scale(0.135 -0.135)">
       <use xlink:href="#DejaVuSans-32"/>
       <use xlink:href="#DejaVuSans-30" x="63.623047"/>
      </g>
     </g>
    </g>
    <g id="ytick_4">
     <g id="line2d_21">
      <path d="M 57.53 260.94923 
L 767.79 260.94923 
" clip-path="url(#p741f0ba90d)" style="fill: none; stroke: #b0b0b0; stroke-width: 0.8; stroke-linecap: square"/>
     </g>
     <g id="line2d_22">
      <g>
       <use xlink:href="#md68fc71472" x="57.53" y="260.94923" style="stroke: #000000; stroke-width: 0.8"/>
      </g>
     </g>
     <g id="text_12">
      <!-- 30 -->
      <g transform="translate(33.35125 266.078175) scale(0.135 -0.135)">
       <use xlink:href="#DejaVuSans-33"/>
       <use xlink:href="#DejaVuSans-30" x="63.623047"/>
      </g>
     </g>
    </g>
    <g id="ytick_5">
     <g id="line2d_23">
      <path d="M 57.53 209.692306 
L 767.79 209.692306 
" clip-path="url(#p741f0ba90d)" style="fill: none; stroke: #b0b0b0; stroke-width: 0.8; stroke-linecap: square"/>
     </g>
     <g id="line2d_24">
      <g>
       <use xlink:href="#md68fc71472" x="57.53" y="209.692306" style="stroke: #000000; stroke-width: 0.8"/>
      </g>
     </g>
     <g id="text_13">
      <!-- 40 -->
      <g transform="translate(33.35125 214.821252) scale(0.135 -0.135)">
       <use xlink:href="#DejaVuSans-34"/>
       <use xlink:href="#DejaVuSans-30" x="63.623047"/>
      </g>
     </g>
    </g>
    <g id="ytick_6">
     <g id="line2d_25">
      <path d="M 57.53 158.435383 
L 767.79 158.435383 
" clip-path="url(#p741f0ba90d)" style="fill: none; stroke: #b0b0b0; stroke-width: 0.8; stroke-linecap: square"/>
     </g>
     <g id="line2d_26">
      <g>
       <use xlink:href="#md68fc71472" x="57.53" y="158.435383" style="stroke: #000000; stroke-width: 0.8"/>
      </g>
     </g>
     <g id="text_14">
      <!-- 50 -->
      <g transform="translate(33.35125 163.564328) scale(0.135 -0.135)">
       <use xlink:href="#DejaVuSans-35"/>
       <use xlink:href="#DejaVuSans-30" x="63.623047"/>
      </g>
     </g>
    </g>
    <g id="ytick_7">
     <g id="line2d_27">
      <path d="M 57.53 107.17846 
L 767.79 107.17846 
" clip-path="url(#p741f0ba90d)" style="fill: none; stroke: #b0b0b0; stroke-width: 0.8; stroke-linecap: square"/>
     </g>
     <g id="line2d_28">
      <g>
       <use xlink:href="#md68fc71472" x="57.53" y="107.17846" style="stroke: #000000; stroke-width: 0.8"/>
      </g>
     </g>
     <g id="text_15">
      <!-- 60 -->
      <g transform="translate(33.35125 112.307405) scale(0.135 -0.135)">
       <use xlink:href="#DejaVuSans-36"/>
       <use xlink:href="#DejaVuSans-30" x="63.623047"/>
      </g>
     </g>
    </g>
    <g id="ytick_8">
     <g id="line2d_29">
      <path d="M 57.53 55.921536 
L 767.79 55.921536 
" clip-path="url(#p741f0ba90d)" style="fill: none; stroke: #b0b0b0; stroke-width: 0.8; stroke-linecap: square"/>
     </g>
     <g id="line2d_30">
      <g>
       <use xlink:href="#md68fc71472" x="57.53" y="55.921536" style="stroke: #000000; stroke-width: 0.8"/>
      </g>
     </g>
     <g id="text_16">
      <!-- 70 -->
      <g transform="translate(33.35125 61.050481) scale(0.135 -0.135)">
       <defs>
        <path id="DejaVuSans-37" d="M 525 4666 
L 3525 4666 
L 3525 4397 
L 1831 0 
L 1172 0 
L 2766 4134 
L 525 4134 
L 525 4666 
z
" transform="scale(0.015625)"/>
       </defs>
       <use xlink:href="#DejaVuSans-37"/>
       <use xlink:href="#DejaVuSans-30" x="63.623047"/>
      </g>
     </g>
    </g>
    <g id="text_17">
     <!-- Packet Rate (pps) -->
     <g transform="translate(26.335703 278.771367) rotate(-90) scale(0.145 -0.145)">
      <defs>
       <path id="DejaVuSans-50" d="M 1259 4147 
L 1259 2394 
L 2053 2394 
Q 2494 2394 2734 2622 
Q 2975 2850 2975 3272 
Q 2975 3691 2734 3919 
Q 2494 4147 2053 4147 
L 1259 4147 
z
M 628 4666 
L 2053 4666 
Q 2838 4666 3239 4311 
Q 3641 3956 3641 3272 
Q 3641 2581 3239 2228 
Q 2838 1875 2053 1875 
L 1259 1875 
L 1259 0 
L 628 0 
L 628 4666 
z
" transform="scale(0.015625)"/>
       <path id="DejaVuSans-61" d="M 2194 1759 
Q 1497 1759 1228 1600 
Q 959 1441 959 1056 
Q 959 750 1161 570 
Q 1363 391 1709 391 
Q 2188 391 2477 730 
Q 2766 1069 2766 1631 
L 2766 1759 
L 2194 1759 
z
M 3341 1997 
L 3341 0 
L 2766 0 
L 2766 531 
Q 2569 213 2275 61 
Q 1981 -91 1556 -91 
Q 1019 -91 701 211 
Q 384 513 384 1019 
Q 384 1609 779 1909 
Q 1175 2209 1959 2209 
L 2766 2209 
L 2766 2266 
Q 2766 2663 2505 2880 
Q 2244 3097 1772 3097 
Q 1472 3097 1187 3025 
Q 903 2953 641 2809 
L 641 3341 
Q 956 3463 1253 3523 
Q 1550 3584 1831 3584 
Q 2591 3584 2966 3190 
Q 3341 2797 3341 1997 
z
" transform="scale(0.015625)"/>
       <path id="DejaVuSans-63" d="M 3122 3366 
L 3122 2828 
Q 2878 2963 2633 3030 
Q 2388 3097 2138 3097 
Q 1578 3097 1268 2742 
Q 959 2388 959 1747 
Q 959 1106 1268 751 
Q 1578 397 2138 397 
Q 2388 397 2633 464 
Q 2878 531 3122 666 
L 3122 134 
Q 2881 22 2623 -34 
Q 2366 -91 2075 -91 
Q 1284 -91 818 406 
Q 353 903 353 1747 
Q 353 2603 823 3093 
Q 1294 3584 2113 3584 
Q 2378 3584 2631 3529 
Q 2884 3475 3122 3366 
z
" transform="scale(0.015625)"/>
       <path id="DejaVuSans-6b" d="M 581 4863 
L 1159 4863 
L 1159 1991 
L 2875 3500 
L 3609 3500 
L 1753 1863 
L 3688 0 
L 2938 0 
L 1159 1709 
L 1159 0 
L 581 0 
L 581 4863 
z
" transform="scale(0.015625)"/>
       <path id="DejaVuSans-74" d="M 1172 4494 
L 1172 3500 
L 2356 3500 
L 2356 3053 
L 1172 3053 
L 1172 1153 
Q 1172 725 1289 603 
Q 1406 481 1766 481 
L 2356 481 
L 2356 0 
L 1766 0 
Q 1100 0 847 248 
Q 594 497 594 1153 
L 594 3053 
L 172 3053 
L 172 3500 
L 594 3500 
L 594 4494 
L 1172 4494 
z
" transform="scale(0.015625)"/>
       <path id="DejaVuSans-52" d="M 2841 2188 
Q 3044 2119 3236 1894 
Q 3428 1669 3622 1275 
L 4263 0 
L 3584 0 
L 2988 1197 
Q 2756 1666 2539 1819 
Q 2322 1972 1947 1972 
L 1259 1972 
L 1259 0 
L 628 0 
L 628 4666 
L 2053 4666 
Q 2853 4666 3247 4331 
Q 3641 3997 3641 3322 
Q 3641 2881 3436 2590 
Q 3231 2300 2841 2188 
z
M 1259 4147 
L 1259 2491 
L 2053 2491 
Q 2509 2491 2742 2702 
Q 2975 2913 2975 3322 
Q 2975 3731 2742 3939 
Q 2509 4147 2053 4147 
L 1259 4147 
z
" transform="scale(0.015625)"/>
       <path id="DejaVuSans-70" d="M 1159 525 
L 1159 -1331 
L 581 -1331 
L 581 3500 
L 1159 3500 
L 1159 2969 
Q 1341 3281 1617 3432 
Q 1894 3584 2278 3584 
Q 2916 3584 3314 3078 
Q 3713 2572 3713 1747 
Q 3713 922 3314 415 
Q 2916 -91 2278 -91 
Q 1894 -91 1617 61 
Q 1341 213 1159 525 
z
M 3116 1747 
Q 3116 2381 2855 2742 
Q 2594 3103 2138 3103 
Q 1681 3103 1420 2742 
Q 1159 2381 1159 1747 
Q 1159 1113 1420 752 
Q 1681 391 2138 391 
Q 2594 391 2855 752 
Q 3116 1113 3116 1747 
z
" transform="scale(0.015625)"/>
      </defs>
      <use xlink:href="#DejaVuSans-50"/>
      <use xlink:href="#DejaVuSans-61" x="55.802734"/>
      <use xlink:href="#DejaVuSans-63" x="117.082031"/>
      <use xlink:href="#DejaVuSans-6b" x="172.0625"/>
      <use xlink:href="#DejaVuSans-65" x="226.347656"/>
      <use xlink:href="#DejaVuSans-74" x="287.871094"/>
      <use xlink:href="#DejaVuSans-20" x="327.080078"/>
      <use xlink:href="#DejaVuSans-52" x="358.867188"/>
      <use xlink:href="#DejaVuSans-61" x="426.099609"/>
      <use xlink:href="#DejaVuSans-74" x="487.378906"/>
      <use xlink:href="#DejaVuSans-65" x="526.587891"/>
      <use xlink:href="#DejaVuSans-20" x="588.111328"/>
      <use xlink:href="#DejaVuSans-28" x="619.898438"/>
      <use xlink:href="#DejaVuSans-70" x="658.912109"/>
      <use xlink:href="#DejaVuSans-70" x="722.388672"/>
      <use xlink:href="#DejaVuSans-73" x="785.865234"/>
      <use xlink:href="#DejaVuSans-29" x="837.964844"/>
     </g>
    </g>
   </g>
   <g id="line2d_31">
    <path d="M 57.53 134.892416 
L 58.711323 106.542294 
L 60.106137 110.210834 
L 61.347226 121.383002 
L 62.659614 91.085782 
L 63.955919 133.87745 
L 65.284507 95.032048 
L 66.591899 89.849142 
L 68.050933 82.02734 
L 69.467659 157.749005 
L 70.798087 95.474181 
L 71.988999 58.074221 
L 73.280747 132.886804 
L 74.469662 108.510142 
L 75.764139 133.480989 
L 76.897805 93.587067 
L 78.138906 121.385936 
L 79.472345 50.69146 
L 80.889693 157.861812 
L 82.220896 95.659764 
L 83.609781 108.911016 
L 84.918608 90.205212 
L 86.160037 121.463388 
L 87.468277 90.059597 
L 88.769696 134.981152 
L 90.100048 95.455921 
L 91.407532 89.871951 
L 92.731153 139.673319 
L 94.049683 46.575249 
L 95.347726 134.253572 
L 96.738742 109.379555 
L 97.990172 75.321346 
L 99.282553 133.024877 
L 100.552395 128.024761 
L 101.920764 104.325968 
L 103.230154 90.344821 
L 104.6197 109.056319 
L 105.862334 121.747808 
L 107.170578 90.060531 
L 108.493878 139.606756 
L 109.817542 93.842683 
L 111.10589 85.046805 
L 112.288591 106.901528 
L 113.591571 135.316164 
L 114.927884 96.880121 
L 116.230865 88.749263 
L 117.41285 106.714795 
L 118.615894 112.106475 
L 119.998164 63.551494 
L 121.201002 112.054462 
L 122.477583 129.538463 
L 123.726179 123.146544 
L 124.914881 108.455485 
L 126.359533 120.7157 
L 127.683229 93.8506 
L 128.851303 103.046732 
L 130.308928 81.705662 
L 131.605821 134.004923 
L 133.062122 123.067743 
L 134.36938 89.815605 
L 135.571927 111.981372 
L 136.736853 102.204548 
L 138.187865 122.004621 
L 139.491145 88.82397 
L 140.67967 108.409866 
L 141.98868 136.603233 
L 143.255907 79.552197 
L 144.438653 106.913047 
L 145.680106 121.468981 
L 146.868395 57.287112 
L 148.178757 136.890261 
L 149.475003 133.864965 
L 150.746864 80.773286 
L 151.990506 121.985141 
L 153.301518 90.746132 
L 154.699898 67.596908 
L 155.933646 168.81803 
L 157.257379 93.859265 
L 158.426947 103.445097 
L 159.8272 68.061167 
L 161.152035 139.925471 
L 162.424576 128.63293 
L 163.558101 93.547289 
L 164.741529 107.090407 
L 166.132984 65.869341 
L 167.371213 169.707979 
L 168.625495 76.092925 
L 169.95004 139.865311 
L 171.173129 117.065826 
L 172.438827 79.147486 
L 173.682329 121.952007 
L 174.991055 90.180277 
L 176.193362 111.920965 
L 177.593927 111.461202 
L 178.876218 83.489649 
L 180.118983 121.778561 
L 181.42836 136.681317 
L 182.694817 79.348412 
L 183.937901 121.853675 
L 185.247659 90.436047 
L 186.55103 135.400139 
L 187.882643 95.75822 
L 189.06731 107.412158 
L 190.375896 90.145329 
L 191.699048 139.576103 
L 192.982355 83.751801 
L 194.281451 87.77455 
L 195.713111 118.047786 
L 196.956129 121.838117 
L 198.200076 73.279614 
L 199.447989 122.986946 
L 200.911584 83.06416 
L 202.330652 158.173169 
L 203.509305 105.844113 
L 204.846559 97.103872 
L 206.154961 90.099783 
L 207.333903 105.919818 
L 208.637197 135.383679 
L 209.820511 107.060888 
L 211.009913 108.635419 
L 212.293564 36.572254 
L 213.859869 143.550772 
L 215.103179 121.906995 
L 216.425716 93.569105 
L 217.865534 119.728921 
L 219.179745 91.534625 
L 220.471956 132.987864 
L 221.758962 37.557737 
L 222.993167 168.90902 
L 224.262583 80.130336 
L 225.479715 115.609016 
L 226.723263 121.963074 
L 228.121302 110.913183 
L 229.429891 90.146195 
L 230.822503 109.729438 
L 232.065881 121.922921 
L 233.374097 90.05361 
L 234.678474 135.615593 
L 235.960894 36.209032 
L 237.1948 168.849581 
L 238.470137 81.683551 
L 239.693556 117.146217 
L 241.016873 139.610239 
L 242.323169 89.576432 
L 243.566692 73.163265 
L 244.816591 123.450471 
L 246.064897 123.078915 
L 247.462927 67.509886 
L 248.976337 93.980986 
L 250.31033 141.811951 
L 251.791686 128.000385 
L 253.035339 73.199102 
L 254.284707 123.326657 
L 255.588629 135.518143 
L 256.771458 106.934567 
L 258.104689 96.145439 
L 259.428001 93.757297 
L 260.597148 103.332765 
L 262.054123 81.557366 
L 263.318828 126.860334 
L 264.641953 139.570429 
L 265.99397 100.571635 
L 267.245354 75.309011 
L 268.568992 139.67691 
L 269.93989 104.898519 
L 271.253204 91.314008 
L 272.43411 106.433525 
L 273.833998 67.970874 
L 274.974676 148.754367 
L 276.251767 129.652151 
L 277.555282 88.882753 
L 278.953523 110.957178 
L 280.196959 121.936627 
L 281.511747 91.676513 
L 282.908532 67.200733 
L 284.149062 121.250658 
L 285.418229 127.872459 
L 286.519716 84.205636 
L 287.813662 133.365589 
L 289.28121 83.957433 
L 290.700257 158.16928 
L 291.879078 105.888182 
L 293.062361 107.052676 
L 294.400318 97.270676 
L 295.918845 95.061526 
L 297.162283 121.937224 
L 298.345679 107.081987 
L 299.714152 104.349512 
L 301.112932 67.696298 
L 302.41112 134.284904 
L 303.720481 136.678031 
L 305.020104 41.219363 
L 306.186577 102.618995 
L 307.510899 139.819074 
L 308.998456 129.195659 
L 310.301963 88.88085 
L 311.566298 126.776224 
L 312.7896 117.117709 
L 314.127869 97.344495 
L 315.32145 58.871905 
L 316.736583 157.459777 
L 318.019685 36.410283 
L 319.257016 169.53004 
L 320.58017 93.71908 
L 321.958653 106.60315 
L 323.14296 107.318988 
L 324.386042 121.853209 
L 325.964071 107.11478 
L 327.166961 61.625575 
L 328.457522 132.627657 
L 329.760954 135.413295 
L 331.094023 96.106507 
L 332.397217 88.802638 
L 333.66886 128.430904 
L 334.979788 90.725393 
L 336.223463 121.992742 
L 337.532606 90.283636 
L 338.841841 136.651227 
L 340.168806 94.640817 
L 341.478124 90.326981 
L 342.662122 107.238591 
L 343.971229 136.623988 
L 345.294742 93.806159 
L 346.488145 58.818902 
L 347.791053 135.300778 
L 349.18393 109.787362 
L 350.487104 88.797617 
L 351.732641 122.430272 
L 353.190616 123.40262 
L 354.505649 91.736748 
L 355.829222 139.663437 
L 357.101108 33.074108 
L 358.319451 165.70874 
L 359.622843 88.852059 
L 360.806543 107.161089 
L 362.205217 111.051329 
L 363.449136 122.050217 
L 364.758251 90.276648 
L 365.94202 107.178985 
L 367.251166 136.632284 
L 368.453549 111.940085 
L 369.619563 102.496271 
L 370.945423 94.374131 
L 372.1891 73.205422 
L 373.557496 148.67327 
L 374.760198 112.020376 
L 376.023002 30.329372 
L 377.324789 135.060315 
L 378.68291 146.660368 
L 380.02096 97.292531 
L 381.330441 90.367385 
L 382.519392 108.519465 
L 383.967634 121.444735 
L 385.160197 58.568101 
L 386.463678 135.423624 
L 387.643863 106.244977 
L 388.942012 134.276564 
L 390.22978 37.78109 
L 391.563407 141.737077 
L 392.772921 113.725228 
L 394.095562 139.469689 
L 395.3497 76.054112 
L 396.593552 122.034602 
L 397.777177 107.141464 
L 399.1 93.638817 
L 400.5392 119.60203 
L 401.732934 58.917648 
L 403.151311 158.048026 
L 404.21081 71.107439 
L 405.514491 135.466445 
L 408.062611 63.751211 
L 409.317701 124.655143 
L 410.529911 114.394717 
L 411.713552 107.145644 
L 413.036429 139.518854 
L 414.20769 103.89474 
L 415.474369 79.407275 
L 416.717656 121.901449 
L 418.305701 70.846793 
L 419.489797 107.264015 
L 420.789916 134.7015 
L 421.967072 105.451199 
L 423.271196 135.561384 
L 424.461214 108.794243 
L 425.662965 111.780806 
L 426.926723 30.619551 
L 428.16076 168.875419 
L 429.344733 107.232104 
L 430.547597 61.618163 
L 431.832475 131.379822 
L 433.102497 128.065638 
L 434.474575 105.164955 
L 435.659616 107.509276 
L 436.902185 72.900943 
L 438.092891 108.970722 
L 439.335336 121.703205 
L 440.658403 139.558248 
L 441.97809 46.897945 
L 443.162029 107.223259 
L 444.465246 135.366963 
L 445.787477 139.384394 
L 447.067373 82.869861 
L 448.285317 115.808463 
L 449.608319 93.682218 
L 450.833404 117.55088 
L 452.172108 97.447766 
L 453.415978 122.038666 
L 454.72497 90.246242 
L 455.908837 107.204445 
L 457.23132 139.436751 
L 458.554369 93.693696 
L 459.728915 104.764148 
L 460.93131 111.943153 
L 463.410152 91.328288 
L 464.595483 107.584401 
L 465.982837 108.573517 
L 467.204116 116.624853 
L 468.410162 112.859694 
L 469.988921 107.256936 
L 471.292816 88.977923 
L 472.482667 108.750948 
L 473.875247 109.722371 
L 475.059054 107.188977 
L 476.388243 95.176466 
L 477.497949 86.65334 
L 478.670232 155.92485 
L 479.925272 76.297642 
L 481.372628 121.265196 
L 482.616239 121.977681 
L 483.800018 107.181769 
L 484.984202 107.28686 
L 486.168047 107.198805 
L 487.686596 95.066223 
L 488.930137 121.961201 
L 490.300514 104.780828 
L 491.696677 110.505041 
L 493.211307 94.239153 
L 494.454804 121.950923 
L 495.639237 107.351597 
L 497.217304 107.122106 
L 498.805993 70.98627 
L 500.220022 157.258917 
L 501.403936 107.21655 
L 502.688125 36.730811 
L 503.897914 113.793619 
L 505.11091 164.61087 
L 506.293055 106.756704 
L 507.812903 95.339387 
L 508.996094 107.028875 
L 510.17972 107.141968 
L 511.423063 121.914558 
L 512.607488 107.349588 
L 513.791048 107.124673 
L 515.094222 88.797413 
L 516.553422 123.647039 
L 517.742412 57.497761 
L 518.921885 157.502607 
L 520.225022 88.788196 
L 521.408895 107.206127 
L 522.81693 69.977213 
L 524.111513 133.504067 
L 526.549671 109.97969 
L 527.848501 134.423595 
L 529.038337 108.747194 
L 530.224958 107.918036 
L 531.549586 94.076497 
L 532.733488 107.213558 
L 534.036813 88.835141 
L 535.220986 107.284184 
L 536.529925 136.588267 
L 537.86766 51.860435 
L 539.170829 135.356859 
L 540.373544 112.02357 
L 541.809307 118.895611 
L 542.992977 107.153331 
L 544.177041 107.255725 
L 545.360503 107.099389 
L 546.664443 88.989001 
L 547.859119 109.986696 
L 549.03837 106.000928 
L 550.500811 82.802497 
L 551.804712 135.513479 
L 553.100108 133.680653 
L 554.384034 36.653134 
L 555.621796 169.615321 
L 556.89092 80.053157 
L 558.120217 118.569073 
L 559.364611 122.162016 
L 560.751136 108.390402 
L 561.9349 107.177666 
L 563.118768 107.204967 
L 564.698514 107.449029 
L 566.007184 90.166339 
L 567.185576 105.775713 
L 568.490168 135.661617 
L 570.977268 53.781031 
L 572.221922 122.223132 
L 573.511932 132.507106 
L 574.957341 120.869841 
L 576.20167 73.384519 
L 577.452057 123.564083 
L 578.905699 122.534227 
L 580.208197 88.628409 
L 581.398202 108.790637 
L 582.800719 68.620849 
L 584.120679 138.910591 
L 585.344007 117.124045 
L 586.797271 122.458176 
L 588.052745 76.414484 
L 589.291956 120.938478 
L 590.595013 135.33268 
L 591.905092 90.515461 
L 593.111807 113.026889 
L 594.301981 57.853188 
L 595.599596 134.161138 
L 596.904277 135.680725 
L 597.973736 74.307221 
L 599.426494 122.356235 
L 600.611166 107.413564 
L 601.795159 107.237302 
L 603.064829 80.196926 
L 604.22917 102.047548 
L 605.472519 121.916167 
L 606.770726 134.289143 
L 607.966881 110.363438 
L 609.264041 87.286457 
L 610.426358 49.300389 
L 611.720991 133.514839 
L 612.974387 124.263226 
L 614.425111 121.946351 
L 616.917344 90.382024 
L 618.370398 122.415842 
L 619.642096 80.730581 
L 620.858209 115.358393 
L 622.053249 110.079825 
L 623.358222 135.743006 
L 624.685498 94.715876 
L 625.869598 107.264968 
L 627.118749 74.702263 
L 628.417271 134.357151 
L 629.821903 69.141877 
L 631.124097 135.147677 
L 632.309861 107.696414 
L 633.713449 68.885169 
L 634.946142 168.607413 
L 636.257888 90.927437 
L 637.445718 108.230329 
L 638.750725 135.75037 
L 640.078135 94.748375 
L 641.390603 91.105526 
L 642.629735 120.919593 
L 643.760059 92.637494 
L 644.934112 104.633934 
L 646.257945 139.717545 
L 647.575671 92.396716 
L 648.846029 80.378525 
L 650.124384 129.934137 
L 652.68245 66.445074 
L 653.976269 133.337937 
L 655.199847 117.184913 
L 656.654598 122.756874 
L 657.958074 88.873035 
L 659.141141 106.996653 
L 660.330869 108.719308 
L 661.756202 116.730959 
L 662.967702 114.218735 
L 664.151247 107.120751 
L 665.335226 107.233567 
L 666.545224 63.699776 
L 668.039367 130.454383 
L 669.282782 121.931523 
L 670.52588 73.046675 
L 671.78087 124.632004 
L 673.229413 121.505668 
L 674.505036 81.758061 
L 675.723067 115.829998 
L 677.046269 139.586353 
L 678.216902 103.727984 
L 679.400905 107.240008 
L 680.584895 107.236411 
L 681.852775 79.724716 
L 683.061761 63.406175 
L 684.279185 165.520656 
L 685.648733 104.593183 
L 686.773362 91.006705 
L 688.017022 121.989284 
L 689.351102 96.34807 
L 690.594953 122.034107 
L 691.796257 111.668211 
L 693.033929 71.548574 
L 694.550558 94.661633 
L 695.725687 156.551478 
L 697.034662 90.241902 
L 698.333714 134.471632 
L 699.528217 109.942629 
L 700.85078 47.697814 
L 702.006433 99.696758 
L 703.223483 165.444186 
L 704.742686 95.203922 
L 705.986873 122.113399 
L 707.295861 90.245168 
L 708.618852 139.542368 
L 709.933087 91.540683 
L 711.117164 107.259036 
L 712.421054 88.976341 
L 713.880321 123.660489 
L 715.189166 90.209612 
L 716.642188 122.409588 
L 717.827327 107.534647 
L 719.020119 58.636276 
L 720.314603 133.482501 
L 721.773729 123.632235 
L 722.957054 107.063701 
L 724.160392 112.180419 
L 725.331668 52.095324 
L 726.628692 134.03332 
L 727.81286 107.282585 
L 728.997434 107.388048 
L 730.268262 128.247426 
L 731.371585 84.755296 
L 732.763671 109.614219 
L 734.008319 122.221633 
L 735.258279 74.922132 
L 736.442036 107.176153 
L 737.960959 95.144789 
L 739.357555 154.045277 
L 740.665578 43.617888 
L 741.901484 169.247264 
L 743.086848 107.592924 
L 744.663682 106.881717 
L 745.847441 107.176562 
L 748.215579 107.273273 
L 749.399247 107.152775 
L 750.6441 73.528047 
L 751.846444 111.930364 
L 753.08465 120.699967 
L 754.380892 133.863911 
L 755.565617 107.427115 
L 756.898049 95.954357 
L 758.082847 107.446236 
L 759.395725 91.206427 
L 760.57072 104.882558 
L 761.772972 111.907208 
L 763.16214 65.295117 
L 764.397842 169.206728 
L 765.701257 88.857886 
L 767.023519 139.390711 
L 768.343816 93.024349 
L 769.657894 91.502222 
L 770.842358 107.359268 
L 772.29946 81.586278 
L 773.478706 105.999567 
L 773.478706 105.999567 
" clip-path="url(#p741f0ba90d)" style="fill: none; stroke: #ff7f0e; stroke-width: 1.5; stroke-linecap: square"/>
   </g>
   <g id="line2d_32">
    <path d="M 57.53 107.076408 
L 767.79 107.076408 
" clip-path="url(#p741f0ba90d)" style="fill: none; stroke-dasharray: 5.55,2.4; stroke-dashoffset: 0; stroke: #ffa500; stroke-width: 1.5"/>
   </g>
   <g id="line2d_33">
    <path d="M 57.53 274.810619 
L 58.711296 311.991764 
L 60.106134 240.717714 
L 61.347202 268.048931 
L 62.659621 229.790605 
L 63.955871 274.292881 
L 65.284478 277.712764 
L 66.591863 275.488847 
L 68.050905 206.788171 
L 69.467654 286.236613 
L 70.79809 277.901152 
L 71.989004 210.922826 
L 73.280742 273.802381 
L 74.469671 312.651228 
L 75.764144 227.226819 
L 76.897803 254.152553 
L 78.138866 268.048415 
L 79.47235 232.711755 
L 80.889695 286.290634 
L 82.220834 277.973475 
L 83.609709 239.970675 
L 84.91859 275.648044 
L 86.159993 268.088445 
L 87.468262 275.582984 
L 88.769683 228.227767 
L 90.100035 277.892457 
L 91.407522 275.499734 
L 92.731147 231.356187 
L 94.049666 230.646137 
L 95.347714 321.231519 
L 96.738729 240.239602 
L 97.990168 220.779226 
L 99.28254 320.820987 
L 100.552388 223.590878 
L 101.920753 281.693596 
L 103.23014 275.701693 
L 104.619696 240.056294 
L 105.862324 268.233153 
L 107.170471 275.569999 
L 108.49386 231.323405 
L 109.817532 277.202034 
L 111.105854 273.428703 
L 112.288589 260.815003 
L 113.591534 228.445951 
L 114.927863 278.504521 
L 116.230815 228.446889 
L 117.412842 312.055261 
L 118.615875 263.411817 
L 119.998144 239.135562 
L 121.200923 212.933079 
L 122.47756 319.663681 
L 123.726151 268.932696 
L 124.914783 210.531582 
L 126.359512 288.724897 
L 127.683205 277.204234 
L 128.851225 258.876058 
L 130.30891 248.219749 
L 131.605802 274.362342 
L 133.062042 248.054565 
L 134.369366 275.48234 
L 135.571908 263.350123 
L 136.736779 258.454822 
L 138.187844 247.460087 
L 139.491113 228.492276 
L 140.679596 312.612955 
L 141.98866 229.316536 
L 143.25589 271.077003 
L 144.438566 260.807446 
L 145.680093 268.103172 
L 146.86837 261.532966 
L 148.17874 229.50127 
L 149.474982 274.292016 
L 150.746848 271.600605 
L 151.990482 268.351619 
L 153.301393 275.863305 
L 154.699866 197.782533 
L 155.933628 316.36031 
L 157.257354 231.370141 
L 158.426853 310.95546 
L 159.827174 198.06886 
L 161.151722 277.293005 
L 162.424521 271.705512 
L 163.558057 254.135036 
L 164.741475 260.903939 
L 166.132958 283.903653 
L 167.371164 267.709982 
L 168.625465 221.221915 
L 169.950015 277.293125 
L 171.173074 265.889302 
L 172.438807 270.907143 
L 173.682274 268.33193 
L 174.990996 275.631089 
L 176.19333 263.323873 
L 177.593875 241.426734 
L 178.876071 272.753619 
L 180.118932 268.260585 
L 181.428324 229.363133 
L 182.694759 270.986838 
L 183.937871 268.290085 
L 185.247633 275.741562 
L 186.550974 228.502399 
L 187.882614 278.0249 
L 189.067283 261.066329 
L 190.375858 275.615481 
L 191.698988 231.287563 
L 192.982312 272.878462 
L 194.281297 274.588446 
L 195.713037 245.202574 
L 196.956102 268.284528 
L 198.200002 268.382982 
L 199.447928 220.233253 
L 200.911545 248.894612 
L 202.330615 286.446687 
L 203.509242 260.278794 
L 204.84652 278.601128 
L 206.154932 275.598116 
L 207.333826 260.31374 
L 208.637163 228.501851 
L 209.82037 260.876463 
L 211.00985 261.687871 
L 212.293522 225.64917 
L 213.859835 298.505188 
L 215.103101 268.308259 
L 216.425677 277.088045 
L 217.865487 246.152711 
L 219.179659 230.037158 
L 220.471885 273.855588 
L 221.758919 226.143057 
L 222.993098 316.3935 
L 224.262541 271.327436 
L 225.479676 265.16495 
L 226.723223 219.54848 
L 228.121262 284.517117 
L 229.429847 275.616529 
L 230.822464 240.44027 
L 232.065834 268.320531 
L 233.374063 229.198247 
L 234.678429 275.166559 
L 235.960858 225.465882 
L 237.194754 316.370989 
L 238.470096 271.990671 
L 239.693514 216.337217 
L 241.016819 277.163904 
L 242.323122 275.373543 
L 243.566643 268.338333 
L 244.816549 269.086026 
L 246.064843 220.290741 
L 247.462884 241.116363 
L 248.97628 294.441693 
L 250.310285 278.267226 
L 251.791634 250.879514 
L 253.035221 268.346065 
L 254.284663 269.031959 
L 255.588577 228.584256 
L 256.771418 260.829004 
L 258.104639 278.186934 
L 259.427956 277.165124 
L 260.597101 259.026088 
L 262.054079 248.138955 
L 263.318781 270.789898 
L 264.641832 231.276598 
L 265.993914 280.091515 
L 267.245305 269.258961 
L 268.568943 231.357897 
L 269.93984 281.939322 
L 271.253158 229.916994 
L 272.43405 260.575024 
L 273.833948 241.346607 
L 274.974622 308.33338 
L 276.251634 272.177277 
L 277.555227 275.08391 
L 278.953474 241.141998 
L 280.196904 268.327509 
L 281.511701 230.125051 
L 282.908478 240.959266 
L 284.149019 316.897835 
L 285.418172 271.294583 
L 286.519661 194.377531 
L 287.81361 320.935387 
L 289.281106 207.986038 
L 290.700191 286.448127 
L 291.879018 260.304843 
L 293.062309 260.887494 
L 294.400265 278.670092 
L 295.918793 254.890965 
L 297.162226 268.327908 
L 298.345628 260.901921 
L 299.714094 237.364422 
L 301.112838 284.58277 
L 302.411059 274.506071 
L 303.720425 229.359338 
L 305.020047 227.969574 
L 306.186526 258.670297 
L 307.510835 323.085435 
L 308.998393 251.563332 
L 310.301908 275.075476 
L 311.566229 222.755362 
L 312.789496 265.914633 
L 314.127799 278.705364 
L 315.321389 211.379716 
L 316.736518 286.089596 
L 318.019632 272.855149 
L 319.256955 267.605085 
L 320.580117 231.291912 
L 321.958592 282.669285 
L 323.142899 261.019386 
L 324.385947 268.282609 
L 325.964007 260.920431 
L 327.166903 263.39461 
L 328.457456 273.672852 
L 329.760898 228.5169 
L 331.093958 278.170532 
L 332.39716 228.482634 
L 333.668793 271.574274 
L 334.979343 275.825149 
L 336.22338 268.399062 
L 337.532481 275.671301 
L 338.841772 229.348718 
L 340.168741 277.543731 
L 341.477939 275.681592 
L 342.662041 260.992818 
L 343.971106 229.316731 
L 345.294672 277.191035 
L 346.48808 262.191454 
L 347.790981 275.009691 
L 349.183868 240.473981 
L 350.487027 228.476568 
L 351.732172 317.25949 
L 353.190311 248.271559 
L 354.505506 230.180824 
L 355.829155 277.199567 
L 357.101038 271.602531 
L 358.319315 265.305081 
L 359.622765 228.518111 
L 360.806475 312.201238 
L 362.205071 241.185262 
L 363.449067 268.394285 
L 364.758177 275.672238 
L 365.941883 260.941349 
L 367.251092 229.337196 
L 368.453482 263.330889 
L 369.619421 258.597982 
L 370.945351 277.436184 
L 372.189022 268.355971 
L 373.557308 237.341177 
L 374.760119 263.383957 
L 376.022503 270.525548 
L 377.324711 274.935377 
L 378.682827 236.012963 
L 380.020764 278.668143 
L 381.330183 275.705127 
L 382.519319 210.618068 
L 383.96747 289.022683 
L 385.16012 211.219476 
L 386.463478 275.058671 
L 387.64379 311.906123 
L 388.94185 227.744862 
L 390.229708 226.263603 
L 391.563204 323.716805 
L 392.772845 264.238351 
L 394.095397 231.207396 
L 395.349618 269.587114 
L 396.593352 268.363419 
L 397.777096 260.946216 
L 399.099831 277.104582 
L 400.539117 246.091367 
L 401.732735 211.384348 
L 403.15122 286.393865 
L 404.210734 300.184014 
L 405.514403 228.549412 
L 406.852342 278.6684 
L 408.062519 264.305081 
L 409.317619 269.688715 
L 410.529818 264.55596 
L 411.713472 260.934585 
L 413.036341 231.251295 
L 414.20761 259.308573 
L 415.474281 271.013614 
L 416.717573 268.311282 
L 418.305611 223.678542 
L 419.489711 260.992473 
L 420.789709 274.697663 
L 421.966988 311.641274 
L 423.271101 228.612744 
L 424.460684 261.700977 
L 425.662878 263.30626 
L 426.926639 222.670373 
L 428.160666 316.381369 
L 429.344647 260.97701 
L 430.547504 263.389816 
L 431.83238 273.049719 
L 433.102415 223.618941 
L 434.47432 282.03682 
L 435.659529 261.136422 
L 436.902089 219.393368 
L 438.092804 312.804362 
L 439.335246 268.211261 
L 440.658322 231.280086 
L 441.977994 276.785125 
L 443.161935 260.971926 
L 444.465026 275.029996 
L 445.787387 231.180906 
L 447.067273 272.497393 
L 448.28523 265.265931 
L 449.608224 277.131559 
L 450.833318 216.60871 
L 452.17201 278.744881 
L 453.415888 268.380312 
L 454.724866 275.658342 
L 455.908739 260.962993 
L 457.231219 231.197472 
L 458.554262 277.136635 
L 459.728812 259.74258 
L 460.931208 263.331646 
L 462.096688 258.536593 
L 463.410051 229.923417 
L 464.59539 261.153226 
L 465.982731 283.513122 
L 467.204018 265.673335 
L 468.410062 263.789611 
L 469.988824 260.988814 
L 471.292706 228.57968 
L 472.482567 312.731223 
L 473.875143 240.435064 
L 475.058956 260.955293 
L 476.388142 277.772547 
L 477.49785 196.009287 
L 478.670128 311.201493 
L 479.925173 221.336488 
L 481.372526 288.953344 
L 482.616134 268.348558 
L 483.799917 260.951444 
L 486.167939 260.958188 
L 487.68649 254.893321 
L 488.930041 268.341946 
L 490.300406 237.610231 
L 491.696345 284.321261 
L 493.211192 254.502536 
L 494.454535 268.317265 
L 495.638371 260.958354 
L 497.216993 260.975106 
L 498.805455 223.729497 
L 500.219911 286.028312 
L 501.403807 260.96608 
L 502.687947 272.968587 
L 503.8978 264.264681 
L 505.110798 264.654939 
L 506.292886 260.730798 
L 507.81228 254.982034 
L 508.995888 260.928657 
L 510.179603 260.942424 
L 511.422956 268.318609 
L 512.607376 261.033948 
L 513.790937 260.922517 
L 515.09411 228.47853 
L 516.553302 289.973732 
L 517.742186 261.611098 
L 518.921127 260.319845 
L 520.224689 228.534049 
L 521.408268 260.924795 
L 522.816819 242.411812 
L 524.11139 320.980493 
L 525.354848 219.534444 
L 526.549556 262.357528 
L 527.848387 274.571865 
L 529.038159 261.725378 
L 530.224317 261.259259 
L 531.549352 277.343442 
L 532.733378 260.982887 
L 534.036684 228.497559 
L 535.220875 312.242824 
L 536.529807 229.297944 
L 537.867548 278.648264 
L 539.170698 275.036414 
L 540.373429 212.925155 
L 541.809058 287.926256 
L 542.992719 260.935544 
L 545.360392 260.979398 
L 546.664322 228.586583 
L 547.858935 262.345451 
L 549.038237 311.818078 
L 550.500674 207.270934 
L 551.804519 275.110747 
L 553.099849 274.193118 
L 554.383248 272.88674 
L 555.621166 267.675718 
L 556.890797 271.348672 
L 558.120095 217.286195 
L 559.364498 268.442054 
L 560.751009 283.434583 
L 561.93478 260.949779 
L 564.698253 261.071276 
L 566.006376 275.567344 
L 567.185174 260.30114 
L 568.489562 228.65196 
L 569.80039 275.85448 
L 570.97714 208.469835 
L 572.221719 317.215191 
L 573.511803 226.588887 
L 574.95721 288.784001 
L 576.201485 219.662755 
L 577.451321 317.625252 
L 578.905415 247.808476 
L 580.208061 274.982356 
L 581.398082 261.757365 
L 582.800589 198.406627 
L 584.120554 322.783826 
L 585.34387 265.920637 
L 586.797135 247.713333 
L 588.052466 221.380637 
L 589.291101 316.747187 
L 590.594594 228.524227 
L 591.904381 275.744223 
L 593.111682 263.946754 
L 594.301836 261.774396 
L 595.599412 227.67515 
L 596.904142 275.205496 
L 597.973612 301.250349 
L 599.426297 247.646612 
L 600.610433 260.9972 
L 601.794847 261.033301 
L 603.064706 271.37437 
L 604.22903 258.381422 
L 605.472389 268.319222 
L 606.770588 227.764962 
L 607.966746 262.542105 
L 609.263904 274.391133 
L 610.426231 205.910448 
L 611.720716 274.101468 
L 612.973718 317.870553 
L 614.424342 247.409326 
L 616.917199 275.716822 
L 618.370201 247.683073 
L 619.641843 271.57537 
L 620.858067 265.052886 
L 622.053058 211.618066 
L 623.357855 275.212698 
L 624.684614 277.52204 
L 625.868887 261.014999 
L 627.118612 269.064962 
L 628.417118 227.809016 
L 629.821766 285.129762 
L 631.123957 274.933465 
L 632.309728 210.038897 
L 633.71331 241.8018 
L 634.945846 316.26239 
L 636.256972 275.886214 
L 637.445221 210.465575 
L 638.750024 275.213357 
L 640.077993 277.647014 
L 641.390455 229.796623 
L 642.629538 267.813931 
L 643.759911 253.685866 
L 644.933962 311.357845 
L 646.257738 231.377065 
L 647.575527 276.588035 
L 648.845874 271.429528 
L 650.123477 224.750939 
L 651.462188 278.746933 
L 652.6823 215.79967 
L 653.975979 320.915841 
L 655.19955 265.951603 
L 656.653865 247.833859 
L 657.956836 275.017223 
L 659.140828 209.731312 
L 660.330721 312.73399 
L 661.75529 244.349195 
L 662.966984 264.493406 
L 664.151092 260.993448 
L 665.334928 260.958345 
L 666.544929 264.283189 
L 668.038512 252.221502 
L 669.281516 268.277448 
L 670.525573 268.40127 
L 671.780711 221.350886 
L 673.228476 288.9892 
L 674.504242 224.477426 
L 675.722918 315.142702 
L 677.045961 231.275466 
L 678.216582 259.222495 
L 679.400134 260.921263 
L 680.58447 261.023176 
L 681.852613 271.180469 
L 683.060813 213.838615 
L 684.27891 315.09536 
L 685.64796 237.440159 
L 686.773204 306.874521 
L 688.016607 219.525813 
L 689.350156 278.220553 
L 690.593699 268.340864 
L 691.796097 263.33201 
L 693.033763 218.621035 
L 694.550249 254.67572 
L 695.724716 311.394416 
L 697.034125 275.704077 
L 698.332729 227.82311 
L 699.527901 262.416695 
L 700.850616 231.229945 
L 702.005897 309.678564 
L 703.223321 265.200431 
L 704.74236 254.94467 
L 705.985864 268.336228 
L 707.29558 275.736633 
L 708.618693 231.285248 
L 709.932626 276.182716 
L 711.116987 261.026462 
L 712.420671 275.093564 
L 713.87937 248.335416 
L 715.188987 275.726165 
L 716.641869 247.669382 
L 717.826221 261.02521 
L 719.019831 211.382989 
L 720.314232 320.968152 
L 721.772763 248.316341 
L 722.95689 260.995993 
L 724.160071 263.43046 
L 725.330703 259.223873 
L 726.628423 274.451991 
L 727.812694 261.014648 
L 728.99655 260.960892 
L 730.26757 223.767005 
L 731.371425 304.784929 
L 732.763362 240.355095 
L 734.007883 268.455836 
L 735.257171 269.014108 
L 736.441581 261.032751 
L 737.960776 254.961007 
L 739.357238 240.920168 
L 740.665417 229.1912 
L 741.900424 316.459417 
L 743.086001 261.183997 
L 744.663104 260.827152 
L 745.847134 260.983435 
L 749.399079 261.009281 
L 750.643061 268.392595 
L 751.846128 263.416054 
L 753.084335 218.706875 
L 754.380513 274.285007 
L 755.564604 260.99141 
L 756.897874 278.191882 
L 758.082684 261.084658 
L 759.39539 229.830959 
L 760.570142 311.419541 
L 761.772647 263.345424 
L 763.161958 196.351869 
L 764.396582 316.428965 
L 767.023197 231.234878 
L 768.342775 276.775316 
L 769.657727 230.146774 
L 770.841886 261.000116 
L 772.299289 248.187536 
L 773.478528 311.81255 
L 774.658879 260.504274 
L 774.658879 260.504274 
" clip-path="url(#p741f0ba90d)" style="fill: none; stroke: #1f77b4; stroke-width: 1.5; stroke-linecap: square"/>
   </g>
   <g id="line2d_34">
    <path d="M 57.53 261.2187 
L 767.79 261.2187 
" clip-path="url(#p741f0ba90d)" style="fill: none; stroke-dasharray: 5.55,2.4; stroke-dashoffset: 0; stroke: #0000ff; stroke-width: 1.5"/>
   </g>
   <g id="patch_3">
    <path d="M 57.53 414.72 
L 57.53 15.66 
" style="fill: none; stroke: #000000; stroke-width: 0.8; stroke-linejoin: miter; stroke-linecap: square"/>
   </g>
   <g id="patch_4">
    <path d="M 767.79 414.72 
L 767.79 15.66 
" style="fill: none; stroke: #000000; stroke-width: 0.8; stroke-linejoin: miter; stroke-linecap: square"/>
   </g>
   <g id="patch_5">
    <path d="M 57.53 414.72 
L 767.79 414.72 
" style="fill: none; stroke: #000000; stroke-width: 0.8; stroke-linejoin: miter; stroke-linecap: square"/>
   </g>
   <g id="patch_6">
    <path d="M 57.53 15.66 
L 767.79 15.66 
" style="fill: none; stroke: #000000; stroke-width: 0.8; stroke-linejoin: miter; stroke-linecap: square"/>
   </g>
   <g id="legend_1">
    <g id="patch_7">
     <path d="M 234.276016 559.340325 
L 591.043984 559.340325 
Q 593.943984 559.340325 593.943984 556.440325 
L 593.943984 472.7572 
Q 593.943984 469.8572 591.043984 469.8572 
L 234.276016 469.8572 
Q 231.376016 469.8572 231.376016 472.7572 
L 231.376016 556.440325 
Q 231.376016 559.340325 234.276016 559.340325 
z
" style="fill: #ffffff; opacity: 0.8; stroke: #cccccc; stroke-linejoin: miter"/>
    </g>
    <g id="line2d_35">
     <path d="M 237.176016 481.599934 
L 251.676016 481.599934 
L 266.176016 481.599934 
" style="fill: none; stroke: #ff7f0e; stroke-width: 1.5; stroke-linecap: square"/>
    </g>
    <g id="text_18">
     <!-- Camera 1 - mean error deviation: 3.88 pps -->
     <g transform="translate(277.776016 486.674934) scale(0.145 -0.145)">
      <defs>
       <path id="DejaVuSans-43" d="M 4122 4306 
L 4122 3641 
Q 3803 3938 3442 4084 
Q 3081 4231 2675 4231 
Q 1875 4231 1450 3742 
Q 1025 3253 1025 2328 
Q 1025 1406 1450 917 
Q 1875 428 2675 428 
Q 3081 428 3442 575 
Q 3803 722 4122 1019 
L 4122 359 
Q 3791 134 3420 21 
Q 3050 -91 2638 -91 
Q 1578 -91 968 557 
Q 359 1206 359 2328 
Q 359 3453 968 4101 
Q 1578 4750 2638 4750 
Q 3056 4750 3426 4639 
Q 3797 4528 4122 4306 
z
" transform="scale(0.015625)"/>
       <path id="DejaVuSans-72" d="M 2631 2963 
Q 2534 3019 2420 3045 
Q 2306 3072 2169 3072 
Q 1681 3072 1420 2755 
Q 1159 2438 1159 1844 
L 1159 0 
L 581 0 
L 581 3500 
L 1159 3500 
L 1159 2956 
Q 1341 3275 1631 3429 
Q 1922 3584 2338 3584 
Q 2397 3584 2469 3576 
Q 2541 3569 2628 3553 
L 2631 2963 
z
" transform="scale(0.015625)"/>
       <path id="DejaVuSans-2d" d="M 313 2009 
L 1997 2009 
L 1997 1497 
L 313 1497 
L 313 2009 
z
" transform="scale(0.015625)"/>
       <path id="DejaVuSans-6e" d="M 3513 2113 
L 3513 0 
L 2938 0 
L 2938 2094 
Q 2938 2591 2744 2837 
Q 2550 3084 2163 3084 
Q 1697 3084 1428 2787 
Q 1159 2491 1159 1978 
L 1159 0 
L 581 0 
L 581 3500 
L 1159 3500 
L 1159 2956 
Q 1366 3272 1645 3428 
Q 1925 3584 2291 3584 
Q 2894 3584 3203 3211 
Q 3513 2838 3513 2113 
z
" transform="scale(0.015625)"/>
       <path id="DejaVuSans-6f" d="M 1959 3097 
Q 1497 3097 1228 2736 
Q 959 2375 959 1747 
Q 959 1119 1226 758 
Q 1494 397 1959 397 
Q 2419 397 2687 759 
Q 2956 1122 2956 1747 
Q 2956 2369 2687 2733 
Q 2419 3097 1959 3097 
z
M 1959 3584 
Q 2709 3584 3137 3096 
Q 3566 2609 3566 1747 
Q 3566 888 3137 398 
Q 2709 -91 1959 -91 
Q 1206 -91 779 398 
Q 353 888 353 1747 
Q 353 2609 779 3096 
Q 1206 3584 1959 3584 
z
" transform="scale(0.015625)"/>
       <path id="DejaVuSans-64" d="M 2906 2969 
L 2906 4863 
L 3481 4863 
L 3481 0 
L 2906 0 
L 2906 525 
Q 2725 213 2448 61 
Q 2172 -91 1784 -91 
Q 1150 -91 751 415 
Q 353 922 353 1747 
Q 353 2572 751 3078 
Q 1150 3584 1784 3584 
Q 2172 3584 2448 3432 
Q 2725 3281 2906 2969 
z
M 947 1747 
Q 947 1113 1208 752 
Q 1469 391 1925 391 
Q 2381 391 2643 752 
Q 2906 1113 2906 1747 
Q 2906 2381 2643 2742 
Q 2381 3103 1925 3103 
Q 1469 3103 1208 2742 
Q 947 2381 947 1747 
z
" transform="scale(0.015625)"/>
       <path id="DejaVuSans-76" d="M 191 3500 
L 800 3500 
L 1894 563 
L 2988 3500 
L 3597 3500 
L 2284 0 
L 1503 0 
L 191 3500 
z
" transform="scale(0.015625)"/>
       <path id="DejaVuSans-3a" d="M 750 794 
L 1409 794 
L 1409 0 
L 750 0 
L 750 794 
z
M 750 3309 
L 1409 3309 
L 1409 2516 
L 750 2516 
L 750 3309 
z
" transform="scale(0.015625)"/>
       <path id="DejaVuSans-2e" d="M 684 794 
L 1344 794 
L 1344 0 
L 684 0 
L 684 794 
z
" transform="scale(0.015625)"/>
       <path id="DejaVuSans-38" d="M 2034 2216 
Q 1584 2216 1326 1975 
Q 1069 1734 1069 1313 
Q 1069 891 1326 650 
Q 1584 409 2034 409 
Q 2484 409 2743 651 
Q 3003 894 3003 1313 
Q 3003 1734 2745 1975 
Q 2488 2216 2034 2216 
z
M 1403 2484 
Q 997 2584 770 2862 
Q 544 3141 544 3541 
Q 544 4100 942 4425 
Q 1341 4750 2034 4750 
Q 2731 4750 3128 4425 
Q 3525 4100 3525 3541 
Q 3525 3141 3298 2862 
Q 3072 2584 2669 2484 
Q 3125 2378 3379 2068 
Q 3634 1759 3634 1313 
Q 3634 634 3220 271 
Q 2806 -91 2034 -91 
Q 1263 -91 848 271 
Q 434 634 434 1313 
Q 434 1759 690 2068 
Q 947 2378 1403 2484 
z
M 1172 3481 
Q 1172 3119 1398 2916 
Q 1625 2713 2034 2713 
Q 2441 2713 2670 2916 
Q 2900 3119 2900 3481 
Q 2900 3844 2670 4047 
Q 2441 4250 2034 4250 
Q 1625 4250 1398 4047 
Q 1172 3844 1172 3481 
z
" transform="scale(0.015625)"/>
      </defs>
      <use xlink:href="#DejaVuSans-43"/>
      <use xlink:href="#DejaVuSans-61" x="69.824219"/>
      <use xlink:href="#DejaVuSans-6d" x="131.103516"/>
      <use xlink:href="#DejaVuSans-65" x="228.515625"/>
      <use xlink:href="#DejaVuSans-72" x="290.039062"/>
      <use xlink:href="#DejaVuSans-61" x="331.152344"/>
      <use xlink:href="#DejaVuSans-20" x="392.431641"/>
      <use xlink:href="#DejaVuSans-31" x="424.21875"/>
      <use xlink:href="#DejaVuSans-20" x="487.841797"/>
      <use xlink:href="#DejaVuSans-2d" x="519.628906"/>
      <use xlink:href="#DejaVuSans-20" x="555.712891"/>
      <use xlink:href="#DejaVuSans-6d" x="587.5"/>
      <use xlink:href="#DejaVuSans-65" x="684.912109"/>
      <use xlink:href="#DejaVuSans-61" x="746.435547"/>
      <use xlink:href="#DejaVuSans-6e" x="807.714844"/>
      <use xlink:href="#DejaVuSans-20" x="871.09375"/>
      <use xlink:href="#DejaVuSans-65" x="902.880859"/>
      <use xlink:href="#DejaVuSans-72" x="964.404297"/>
      <use xlink:href="#DejaVuSans-72" x="1003.767578"/>
      <use xlink:href="#DejaVuSans-6f" x="1042.630859"/>
      <use xlink:href="#DejaVuSans-72" x="1103.8125"/>
      <use xlink:href="#DejaVuSans-20" x="1144.925781"/>
      <use xlink:href="#DejaVuSans-64" x="1176.712891"/>
      <use xlink:href="#DejaVuSans-65" x="1240.189453"/>
      <use xlink:href="#DejaVuSans-76" x="1301.712891"/>
      <use xlink:href="#DejaVuSans-69" x="1360.892578"/>
      <use xlink:href="#DejaVuSans-61" x="1388.675781"/>
      <use xlink:href="#DejaVuSans-74" x="1449.955078"/>
      <use xlink:href="#DejaVuSans-69" x="1489.164062"/>
      <use xlink:href="#DejaVuSans-6f" x="1516.947266"/>
      <use xlink:href="#DejaVuSans-6e" x="1578.128906"/>
      <use xlink:href="#DejaVuSans-3a" x="1641.507812"/>
      <use xlink:href="#DejaVuSans-20" x="1675.199219"/>
      <use xlink:href="#DejaVuSans-33" x="1706.986328"/>
      <use xlink:href="#DejaVuSans-2e" x="1770.609375"/>
      <use xlink:href="#DejaVuSans-38" x="1802.396484"/>
      <use xlink:href="#DejaVuSans-38" x="1866.019531"/>
      <use xlink:href="#DejaVuSans-20" x="1929.642578"/>
      <use xlink:href="#DejaVuSans-70" x="1961.429688"/>
      <use xlink:href="#DejaVuSans-70" x="2024.90625"/>
      <use xlink:href="#DejaVuSans-73" x="2088.382812"/>
     </g>
    </g>
    <g id="line2d_36">
     <path d="M 237.176016 502.883216 
L 251.676016 502.883216 
L 266.176016 502.883216 
" style="fill: none; stroke-dasharray: 5.55,2.4; stroke-dashoffset: 0; stroke: #ffa500; stroke-width: 1.5"/>
    </g>
    <g id="text_19">
     <!-- Camera 1 - average: 60.02 pps -->
     <g transform="translate(277.776016 507.958216) scale(0.145 -0.145)">
      <defs>
       <path id="DejaVuSans-67" d="M 2906 1791 
Q 2906 2416 2648 2759 
Q 2391 3103 1925 3103 
Q 1463 3103 1205 2759 
Q 947 2416 947 1791 
Q 947 1169 1205 825 
Q 1463 481 1925 481 
Q 2391 481 2648 825 
Q 2906 1169 2906 1791 
z
M 3481 434 
Q 3481 -459 3084 -895 
Q 2688 -1331 1869 -1331 
Q 1566 -1331 1297 -1286 
Q 1028 -1241 775 -1147 
L 775 -588 
Q 1028 -725 1275 -790 
Q 1522 -856 1778 -856 
Q 2344 -856 2625 -561 
Q 2906 -266 2906 331 
L 2906 616 
Q 2728 306 2450 153 
Q 2172 0 1784 0 
Q 1141 0 747 490 
Q 353 981 353 1791 
Q 353 2603 747 3093 
Q 1141 3584 1784 3584 
Q 2172 3584 2450 3431 
Q 2728 3278 2906 2969 
L 2906 3500 
L 3481 3500 
L 3481 434 
z
" transform="scale(0.015625)"/>
      </defs>
      <use xlink:href="#DejaVuSans-43"/>
      <use xlink:href="#DejaVuSans-61" x="69.824219"/>
      <use xlink:href="#DejaVuSans-6d" x="131.103516"/>
      <use xlink:href="#DejaVuSans-65" x="228.515625"/>
      <use xlink:href="#DejaVuSans-72" x="290.039062"/>
      <use xlink:href="#DejaVuSans-61" x="331.152344"/>
      <use xlink:href="#DejaVuSans-20" x="392.431641"/>
      <use xlink:href="#DejaVuSans-31" x="424.21875"/>
      <use xlink:href="#DejaVuSans-20" x="487.841797"/>
      <use xlink:href="#DejaVuSans-2d" x="519.628906"/>
      <use xlink:href="#DejaVuSans-20" x="555.712891"/>
      <use xlink:href="#DejaVuSans-61" x="587.5"/>
      <use xlink:href="#DejaVuSans-76" x="648.779297"/>
      <use xlink:href="#DejaVuSans-65" x="707.958984"/>
      <use xlink:href="#DejaVuSans-72" x="769.482422"/>
      <use xlink:href="#DejaVuSans-61" x="810.595703"/>
      <use xlink:href="#DejaVuSans-67" x="871.875"/>
      <use xlink:href="#DejaVuSans-65" x="935.351562"/>
      <use xlink:href="#DejaVuSans-3a" x="996.875"/>
      <use xlink:href="#DejaVuSans-20" x="1030.566406"/>
      <use xlink:href="#DejaVuSans-36" x="1062.353516"/>
      <use xlink:href="#DejaVuSans-30" x="1125.976562"/>
      <use xlink:href="#DejaVuSans-2e" x="1189.599609"/>
      <use xlink:href="#DejaVuSans-30" x="1221.386719"/>
      <use xlink:href="#DejaVuSans-32" x="1285.009766"/>
      <use xlink:href="#DejaVuSans-20" x="1348.632812"/>
      <use xlink:href="#DejaVuSans-70" x="1380.419922"/>
      <use xlink:href="#DejaVuSans-70" x="1443.896484"/>
      <use xlink:href="#DejaVuSans-73" x="1507.373047"/>
     </g>
    </g>
    <g id="line2d_37">
     <path d="M 237.176016 524.166497 
L 251.676016 524.166497 
L 266.176016 524.166497 
" style="fill: none; stroke: #1f77b4; stroke-width: 1.5; stroke-linecap: square"/>
    </g>
    <g id="text_20">
     <!-- Camera 2 - mean error deviation: 3.89 pps -->
     <g transform="translate(277.776016 529.241497) scale(0.145 -0.145)">
      <defs>
       <path id="DejaVuSans-39" d="M 703 97 
L 703 672 
Q 941 559 1184 500 
Q 1428 441 1663 441 
Q 2288 441 2617 861 
Q 2947 1281 2994 2138 
Q 2813 1869 2534 1725 
Q 2256 1581 1919 1581 
Q 1219 1581 811 2004 
Q 403 2428 403 3163 
Q 403 3881 828 4315 
Q 1253 4750 1959 4750 
Q 2769 4750 3195 4129 
Q 3622 3509 3622 2328 
Q 3622 1225 3098 567 
Q 2575 -91 1691 -91 
Q 1453 -91 1209 -44 
Q 966 3 703 97 
z
M 1959 2075 
Q 2384 2075 2632 2365 
Q 2881 2656 2881 3163 
Q 2881 3666 2632 3958 
Q 2384 4250 1959 4250 
Q 1534 4250 1286 3958 
Q 1038 3666 1038 3163 
Q 1038 2656 1286 2365 
Q 1534 2075 1959 2075 
z
" transform="scale(0.015625)"/>
      </defs>
      <use xlink:href="#DejaVuSans-43"/>
      <use xlink:href="#DejaVuSans-61" x="69.824219"/>
      <use xlink:href="#DejaVuSans-6d" x="131.103516"/>
      <use xlink:href="#DejaVuSans-65" x="228.515625"/>
      <use xlink:href="#DejaVuSans-72" x="290.039062"/>
      <use xlink:href="#DejaVuSans-61" x="331.152344"/>
      <use xlink:href="#DejaVuSans-20" x="392.431641"/>
      <use xlink:href="#DejaVuSans-32" x="424.21875"/>
      <use xlink:href="#DejaVuSans-20" x="487.841797"/>
      <use xlink:href="#DejaVuSans-2d" x="519.628906"/>
      <use xlink:href="#DejaVuSans-20" x="555.712891"/>
      <use xlink:href="#DejaVuSans-6d" x="587.5"/>
      <use xlink:href="#DejaVuSans-65" x="684.912109"/>
      <use xlink:href="#DejaVuSans-61" x="746.435547"/>
      <use xlink:href="#DejaVuSans-6e" x="807.714844"/>
      <use xlink:href="#DejaVuSans-20" x="871.09375"/>
      <use xlink:href="#DejaVuSans-65" x="902.880859"/>
      <use xlink:href="#DejaVuSans-72" x="964.404297"/>
      <use xlink:href="#DejaVuSans-72" x="1003.767578"/>
      <use xlink:href="#DejaVuSans-6f" x="1042.630859"/>
      <use xlink:href="#DejaVuSans-72" x="1103.8125"/>
      <use xlink:href="#DejaVuSans-20" x="1144.925781"/>
      <use xlink:href="#DejaVuSans-64" x="1176.712891"/>
      <use xlink:href="#DejaVuSans-65" x="1240.189453"/>
      <use xlink:href="#DejaVuSans-76" x="1301.712891"/>
      <use xlink:href="#DejaVuSans-69" x="1360.892578"/>
      <use xlink:href="#DejaVuSans-61" x="1388.675781"/>
      <use xlink:href="#DejaVuSans-74" x="1449.955078"/>
      <use xlink:href="#DejaVuSans-69" x="1489.164062"/>
      <use xlink:href="#DejaVuSans-6f" x="1516.947266"/>
      <use xlink:href="#DejaVuSans-6e" x="1578.128906"/>
      <use xlink:href="#DejaVuSans-3a" x="1641.507812"/>
      <use xlink:href="#DejaVuSans-20" x="1675.199219"/>
      <use xlink:href="#DejaVuSans-33" x="1706.986328"/>
      <use xlink:href="#DejaVuSans-2e" x="1770.609375"/>
      <use xlink:href="#DejaVuSans-38" x="1802.396484"/>
      <use xlink:href="#DejaVuSans-39" x="1866.019531"/>
      <use xlink:href="#DejaVuSans-20" x="1929.642578"/>
      <use xlink:href="#DejaVuSans-70" x="1961.429688"/>
      <use xlink:href="#DejaVuSans-70" x="2024.90625"/>
      <use xlink:href="#DejaVuSans-73" x="2088.382812"/>
     </g>
    </g>
    <g id="line2d_38">
     <path d="M 237.176016 545.449778 
L 251.676016 545.449778 
L 266.176016 545.449778 
" style="fill: none; stroke-dasharray: 5.55,2.4; stroke-dashoffset: 0; stroke: #0000ff; stroke-width: 1.5"/>
    </g>
    <g id="text_21">
     <!-- Camera 2 - average: 29.95 pps -->
     <g transform="translate(277.776016 550.524778) scale(0.145 -0.145)">
      <use xlink:href="#DejaVuSans-43"/>
      <use xlink:href="#DejaVuSans-61" x="69.824219"/>
      <use xlink:href="#DejaVuSans-6d" x="131.103516"/>
      <use xlink:href="#DejaVuSans-65" x="228.515625"/>
      <use xlink:href="#DejaVuSans-72" x="290.039062"/>
      <use xlink:href="#DejaVuSans-61" x="331.152344"/>
      <use xlink:href="#DejaVuSans-20" x="392.431641"/>
      <use xlink:href="#DejaVuSans-32" x="424.21875"/>
      <use xlink:href="#DejaVuSans-20" x="487.841797"/>
      <use xlink:href="#DejaVuSans-2d" x="519.628906"/>
      <use xlink:href="#DejaVuSans-20" x="555.712891"/>
      <use xlink:href="#DejaVuSans-61" x="587.5"/>
      <use xlink:href="#DejaVuSans-76" x="648.779297"/>
      <use xlink:href="#DejaVuSans-65" x="707.958984"/>
      <use xlink:href="#DejaVuSans-72" x="769.482422"/>
      <use xlink:href="#DejaVuSans-61" x="810.595703"/>
      <use xlink:href="#DejaVuSans-67" x="871.875"/>
      <use xlink:href="#DejaVuSans-65" x="935.351562"/>
      <use xlink:href="#DejaVuSans-3a" x="996.875"/>
      <use xlink:href="#DejaVuSans-20" x="1030.566406"/>
      <use xlink:href="#DejaVuSans-32" x="1062.353516"/>
      <use xlink:href="#DejaVuSans-39" x="1125.976562"/>
      <use xlink:href="#DejaVuSans-2e" x="1189.599609"/>
      <use xlink:href="#DejaVuSans-39" x="1221.386719"/>
      <use xlink:href="#DejaVuSans-35" x="1285.009766"/>
      <use xlink:href="#DejaVuSans-20" x="1348.632812"/>
      <use xlink:href="#DejaVuSans-70" x="1380.419922"/>
      <use xlink:href="#DejaVuSans-70" x="1443.896484"/>
      <use xlink:href="#DejaVuSans-73" x="1507.373047"/>
     </g>
    </g>
   </g>
  </g>
 </g>
 <defs>
  <clipPath id="p741f0ba90d">
   <rect x="57.53" y="15.66" width="710.26" height="399.06"/>
  </clipPath>
 </defs>
</svg>
