<?xml version="1.0" encoding="utf-8" standalone="no"?>
<!DOCTYPE svg PUBLIC "-//W3C//DTD SVG 1.1//EN"
  "http://www.w3.org/Graphics/SVG/1.1/DTD/svg11.dtd">
<svg xmlns:xlink="http://www.w3.org/1999/xlink" width="792pt" height="576pt" viewBox="0 0 792 576" xmlns="http://www.w3.org/2000/svg" version="1.1">
 <metadata>
  <rdf:RDF xmlns:dc="http://purl.org/dc/elements/1.1/" xmlns:cc="http://creativecommons.org/ns#" xmlns:rdf="http://www.w3.org/1999/02/22-rdf-syntax-ns#">
   <cc:Work>
    <dc:type rdf:resource="http://purl.org/dc/dcmitype/StillImage"/>
    <dc:date>2023-05-08T15:09:13.245141</dc:date>
    <dc:format>image/svg+xml</dc:format>
    <dc:creator>
     <cc:Agent>
      <dc:title>Matplotlib v3.6.2, https://matplotlib.org/</dc:title>
     </cc:Agent>
    </dc:creator>
   </cc:Work>
  </rdf:RDF>
 </metadata>
 <defs>
  <style type="text/css">*{stroke-linejoin: round; stroke-linecap: butt}</style>
 </defs>
 <g id="figure_1">
  <g id="patch_1">
   <path d="M 0 576 
L 792 576 
L 792 0 
L 0 0 
z
" style="fill: #ffffff"/>
  </g>
  <g id="axes_1">
   <g id="patch_2">
    <path d="M 57.53 414.72 
L 754.59 414.72 
L 754.59 21.06 
L 57.53 21.06 
z
" style="fill: #ffffff"/>
   </g>
   <g id="matplotlib.axis_1">
    <g id="xtick_1">
     <g id="line2d_1">
      <path d="M 57.53 414.72 
L 57.53 21.06 
" clip-path="url(#p6ec73a8f4b)" style="fill: none; stroke: #b0b0b0; stroke-width: 0.8; stroke-linecap: square"/>
     </g>
     <g id="line2d_2">
      <defs>
       <path id="maaa3d71def" d="M 0 0 
L 0 3.5 
" style="stroke: #000000; stroke-width: 0.8"/>
      </defs>
      <g>
       <use xlink:href="#maaa3d71def" x="57.53" y="414.72" style="stroke: #000000; stroke-width: 0.8"/>
      </g>
     </g>
     <g id="text_1">
      <!-- 0 -->
      <g transform="translate(53.235313 431.977891) scale(0.135 -0.135)">
       <defs>
        <path id="DejaVuSans-30" d="M 2034 4250 
Q 1547 4250 1301 3770 
Q 1056 3291 1056 2328 
Q 1056 1369 1301 889 
Q 1547 409 2034 409 
Q 2525 409 2770 889 
Q 3016 1369 3016 2328 
Q 3016 3291 2770 3770 
Q 2525 4250 2034 4250 
z
M 2034 4750 
Q 2819 4750 3233 4129 
Q 3647 3509 3647 2328 
Q 3647 1150 3233 529 
Q 2819 -91 2034 -91 
Q 1250 -91 836 529 
Q 422 1150 422 2328 
Q 422 3509 836 4129 
Q 1250 4750 2034 4750 
z
" transform="scale(0.015625)"/>
       </defs>
       <use xlink:href="#DejaVuSans-30"/>
      </g>
     </g>
    </g>
    <g id="xtick_2">
     <g id="line2d_3">
      <path d="M 173.706667 414.72 
L 173.706667 21.06 
" clip-path="url(#p6ec73a8f4b)" style="fill: none; stroke: #b0b0b0; stroke-width: 0.8; stroke-linecap: square"/>
     </g>
     <g id="line2d_4">
      <g>
       <use xlink:href="#maaa3d71def" x="173.706667" y="414.72" style="stroke: #000000; stroke-width: 0.8"/>
      </g>
     </g>
     <g id="text_2">
      <!-- 10 -->
      <g transform="translate(165.117292 431.977891) scale(0.135 -0.135)">
       <defs>
        <path id="DejaVuSans-31" d="M 794 531 
L 1825 531 
L 1825 4091 
L 703 3866 
L 703 4441 
L 1819 4666 
L 2450 4666 
L 2450 531 
L 3481 531 
L 3481 0 
L 794 0 
L 794 531 
z
" transform="scale(0.015625)"/>
       </defs>
       <use xlink:href="#DejaVuSans-31"/>
       <use xlink:href="#DejaVuSans-30" x="63.623047"/>
      </g>
     </g>
    </g>
    <g id="xtick_3">
     <g id="line2d_5">
      <path d="M 289.883333 414.72 
L 289.883333 21.06 
" clip-path="url(#p6ec73a8f4b)" style="fill: none; stroke: #b0b0b0; stroke-width: 0.8; stroke-linecap: square"/>
     </g>
     <g id="line2d_6">
      <g>
       <use xlink:href="#maaa3d71def" x="289.883333" y="414.72" style="stroke: #000000; stroke-width: 0.8"/>
      </g>
     </g>
     <g id="text_3">
      <!-- 20 -->
      <g transform="translate(281.293958 431.977891) scale(0.135 -0.135)">
       <defs>
        <path id="DejaVuSans-32" d="M 1228 531 
L 3431 531 
L 3431 0 
L 469 0 
L 469 531 
Q 828 903 1448 1529 
Q 2069 2156 2228 2338 
Q 2531 2678 2651 2914 
Q 2772 3150 2772 3378 
Q 2772 3750 2511 3984 
Q 2250 4219 1831 4219 
Q 1534 4219 1204 4116 
Q 875 4013 500 3803 
L 500 4441 
Q 881 4594 1212 4672 
Q 1544 4750 1819 4750 
Q 2544 4750 2975 4387 
Q 3406 4025 3406 3419 
Q 3406 3131 3298 2873 
Q 3191 2616 2906 2266 
Q 2828 2175 2409 1742 
Q 1991 1309 1228 531 
z
" transform="scale(0.015625)"/>
       </defs>
       <use xlink:href="#DejaVuSans-32"/>
       <use xlink:href="#DejaVuSans-30" x="63.623047"/>
      </g>
     </g>
    </g>
    <g id="xtick_4">
     <g id="line2d_7">
      <path d="M 406.06 414.72 
L 406.06 21.06 
" clip-path="url(#p6ec73a8f4b)" style="fill: none; stroke: #b0b0b0; stroke-width: 0.8; stroke-linecap: square"/>
     </g>
     <g id="line2d_8">
      <g>
       <use xlink:href="#maaa3d71def" x="406.06" y="414.72" style="stroke: #000000; stroke-width: 0.8"/>
      </g>
     </g>
     <g id="text_4">
      <!-- 30 -->
      <g transform="translate(397.470625 431.977891) scale(0.135 -0.135)">
       <defs>
        <path id="DejaVuSans-33" d="M 2597 2516 
Q 3050 2419 3304 2112 
Q 3559 1806 3559 1356 
Q 3559 666 3084 287 
Q 2609 -91 1734 -91 
Q 1441 -91 1130 -33 
Q 819 25 488 141 
L 488 750 
Q 750 597 1062 519 
Q 1375 441 1716 441 
Q 2309 441 2620 675 
Q 2931 909 2931 1356 
Q 2931 1769 2642 2001 
Q 2353 2234 1838 2234 
L 1294 2234 
L 1294 2753 
L 1863 2753 
Q 2328 2753 2575 2939 
Q 2822 3125 2822 3475 
Q 2822 3834 2567 4026 
Q 2313 4219 1838 4219 
Q 1578 4219 1281 4162 
Q 984 4106 628 3988 
L 628 4550 
Q 988 4650 1302 4700 
Q 1616 4750 1894 4750 
Q 2613 4750 3031 4423 
Q 3450 4097 3450 3541 
Q 3450 3153 3228 2886 
Q 3006 2619 2597 2516 
z
" transform="scale(0.015625)"/>
       </defs>
       <use xlink:href="#DejaVuSans-33"/>
       <use xlink:href="#DejaVuSans-30" x="63.623047"/>
      </g>
     </g>
    </g>
    <g id="xtick_5">
     <g id="line2d_9">
      <path d="M 522.236667 414.72 
L 522.236667 21.06 
" clip-path="url(#p6ec73a8f4b)" style="fill: none; stroke: #b0b0b0; stroke-width: 0.8; stroke-linecap: square"/>
     </g>
     <g id="line2d_10">
      <g>
       <use xlink:href="#maaa3d71def" x="522.236667" y="414.72" style="stroke: #000000; stroke-width: 0.8"/>
      </g>
     </g>
     <g id="text_5">
      <!-- 40 -->
      <g transform="translate(513.647292 431.977891) scale(0.135 -0.135)">
       <defs>
        <path id="DejaVuSans-34" d="M 2419 4116 
L 825 1625 
L 2419 1625 
L 2419 4116 
z
M 2253 4666 
L 3047 4666 
L 3047 1625 
L 3713 1625 
L 3713 1100 
L 3047 1100 
L 3047 0 
L 2419 0 
L 2419 1100 
L 313 1100 
L 313 1709 
L 2253 4666 
z
" transform="scale(0.015625)"/>
       </defs>
       <use xlink:href="#DejaVuSans-34"/>
       <use xlink:href="#DejaVuSans-30" x="63.623047"/>
      </g>
     </g>
    </g>
    <g id="xtick_6">
     <g id="line2d_11">
      <path d="M 638.413333 414.72 
L 638.413333 21.06 
" clip-path="url(#p6ec73a8f4b)" style="fill: none; stroke: #b0b0b0; stroke-width: 0.8; stroke-linecap: square"/>
     </g>
     <g id="line2d_12">
      <g>
       <use xlink:href="#maaa3d71def" x="638.413333" y="414.72" style="stroke: #000000; stroke-width: 0.8"/>
      </g>
     </g>
     <g id="text_6">
      <!-- 50 -->
      <g transform="translate(629.823958 431.977891) scale(0.135 -0.135)">
       <defs>
        <path id="DejaVuSans-35" d="M 691 4666 
L 3169 4666 
L 3169 4134 
L 1269 4134 
L 1269 2991 
Q 1406 3038 1543 3061 
Q 1681 3084 1819 3084 
Q 2600 3084 3056 2656 
Q 3513 2228 3513 1497 
Q 3513 744 3044 326 
Q 2575 -91 1722 -91 
Q 1428 -91 1123 -41 
Q 819 9 494 109 
L 494 744 
Q 775 591 1075 516 
Q 1375 441 1709 441 
Q 2250 441 2565 725 
Q 2881 1009 2881 1497 
Q 2881 1984 2565 2268 
Q 2250 2553 1709 2553 
Q 1456 2553 1204 2497 
Q 953 2441 691 2322 
L 691 4666 
z
" transform="scale(0.015625)"/>
       </defs>
       <use xlink:href="#DejaVuSans-35"/>
       <use xlink:href="#DejaVuSans-30" x="63.623047"/>
      </g>
     </g>
    </g>
    <g id="xtick_7">
     <g id="line2d_13">
      <path d="M 754.59 414.72 
L 754.59 21.06 
" clip-path="url(#p6ec73a8f4b)" style="fill: none; stroke: #b0b0b0; stroke-width: 0.8; stroke-linecap: square"/>
     </g>
     <g id="line2d_14">
      <g>
       <use xlink:href="#maaa3d71def" x="754.59" y="414.72" style="stroke: #000000; stroke-width: 0.8"/>
      </g>
     </g>
     <g id="text_7">
      <!-- 60 -->
      <g transform="translate(746.000625 431.977891) scale(0.135 -0.135)">
       <defs>
        <path id="DejaVuSans-36" d="M 2113 2584 
Q 1688 2584 1439 2293 
Q 1191 2003 1191 1497 
Q 1191 994 1439 701 
Q 1688 409 2113 409 
Q 2538 409 2786 701 
Q 3034 994 3034 1497 
Q 3034 2003 2786 2293 
Q 2538 2584 2113 2584 
z
M 3366 4563 
L 3366 3988 
Q 3128 4100 2886 4159 
Q 2644 4219 2406 4219 
Q 1781 4219 1451 3797 
Q 1122 3375 1075 2522 
Q 1259 2794 1537 2939 
Q 1816 3084 2150 3084 
Q 2853 3084 3261 2657 
Q 3669 2231 3669 1497 
Q 3669 778 3244 343 
Q 2819 -91 2113 -91 
Q 1303 -91 875 529 
Q 447 1150 447 2328 
Q 447 3434 972 4092 
Q 1497 4750 2381 4750 
Q 2619 4750 2861 4703 
Q 3103 4656 3366 4563 
z
" transform="scale(0.015625)"/>
       </defs>
       <use xlink:href="#DejaVuSans-36"/>
       <use xlink:href="#DejaVuSans-30" x="63.623047"/>
      </g>
     </g>
    </g>
    <g id="text_8">
     <!-- Time (s) -->
     <g transform="translate(376.583086 449.803203) scale(0.145 -0.145)">
      <defs>
       <path id="DejaVuSans-54" d="M -19 4666 
L 3928 4666 
L 3928 4134 
L 2272 4134 
L 2272 0 
L 1638 0 
L 1638 4134 
L -19 4134 
L -19 4666 
z
" transform="scale(0.015625)"/>
       <path id="DejaVuSans-69" d="M 603 3500 
L 1178 3500 
L 1178 0 
L 603 0 
L 603 3500 
z
M 603 4863 
L 1178 4863 
L 1178 4134 
L 603 4134 
L 603 4863 
z
" transform="scale(0.015625)"/>
       <path id="DejaVuSans-6d" d="M 3328 2828 
Q 3544 3216 3844 3400 
Q 4144 3584 4550 3584 
Q 5097 3584 5394 3201 
Q 5691 2819 5691 2113 
L 5691 0 
L 5113 0 
L 5113 2094 
Q 5113 2597 4934 2840 
Q 4756 3084 4391 3084 
Q 3944 3084 3684 2787 
Q 3425 2491 3425 1978 
L 3425 0 
L 2847 0 
L 2847 2094 
Q 2847 2600 2669 2842 
Q 2491 3084 2119 3084 
Q 1678 3084 1418 2786 
Q 1159 2488 1159 1978 
L 1159 0 
L 581 0 
L 581 3500 
L 1159 3500 
L 1159 2956 
Q 1356 3278 1631 3431 
Q 1906 3584 2284 3584 
Q 2666 3584 2933 3390 
Q 3200 3197 3328 2828 
z
" transform="scale(0.015625)"/>
       <path id="DejaVuSans-65" d="M 3597 1894 
L 3597 1613 
L 953 1613 
Q 991 1019 1311 708 
Q 1631 397 2203 397 
Q 2534 397 2845 478 
Q 3156 559 3463 722 
L 3463 178 
Q 3153 47 2828 -22 
Q 2503 -91 2169 -91 
Q 1331 -91 842 396 
Q 353 884 353 1716 
Q 353 2575 817 3079 
Q 1281 3584 2069 3584 
Q 2775 3584 3186 3129 
Q 3597 2675 3597 1894 
z
M 3022 2063 
Q 3016 2534 2758 2815 
Q 2500 3097 2075 3097 
Q 1594 3097 1305 2825 
Q 1016 2553 972 2059 
L 3022 2063 
z
" transform="scale(0.015625)"/>
       <path id="DejaVuSans-20" transform="scale(0.015625)"/>
       <path id="DejaVuSans-28" d="M 1984 4856 
Q 1566 4138 1362 3434 
Q 1159 2731 1159 2009 
Q 1159 1288 1364 580 
Q 1569 -128 1984 -844 
L 1484 -844 
Q 1016 -109 783 600 
Q 550 1309 550 2009 
Q 550 2706 781 3412 
Q 1013 4119 1484 4856 
L 1984 4856 
z
" transform="scale(0.015625)"/>
       <path id="DejaVuSans-73" d="M 2834 3397 
L 2834 2853 
Q 2591 2978 2328 3040 
Q 2066 3103 1784 3103 
Q 1356 3103 1142 2972 
Q 928 2841 928 2578 
Q 928 2378 1081 2264 
Q 1234 2150 1697 2047 
L 1894 2003 
Q 2506 1872 2764 1633 
Q 3022 1394 3022 966 
Q 3022 478 2636 193 
Q 2250 -91 1575 -91 
Q 1294 -91 989 -36 
Q 684 19 347 128 
L 347 722 
Q 666 556 975 473 
Q 1284 391 1588 391 
Q 1994 391 2212 530 
Q 2431 669 2431 922 
Q 2431 1156 2273 1281 
Q 2116 1406 1581 1522 
L 1381 1569 
Q 847 1681 609 1914 
Q 372 2147 372 2553 
Q 372 3047 722 3315 
Q 1072 3584 1716 3584 
Q 2034 3584 2315 3537 
Q 2597 3491 2834 3397 
z
" transform="scale(0.015625)"/>
       <path id="DejaVuSans-29" d="M 513 4856 
L 1013 4856 
Q 1481 4119 1714 3412 
Q 1947 2706 1947 2009 
Q 1947 1309 1714 600 
Q 1481 -109 1013 -844 
L 513 -844 
Q 928 -128 1133 580 
Q 1338 1288 1338 2009 
Q 1338 2731 1133 3434 
Q 928 4138 513 4856 
z
" transform="scale(0.015625)"/>
      </defs>
      <use xlink:href="#DejaVuSans-54"/>
      <use xlink:href="#DejaVuSans-69" x="57.958984"/>
      <use xlink:href="#DejaVuSans-6d" x="85.742188"/>
      <use xlink:href="#DejaVuSans-65" x="183.154297"/>
      <use xlink:href="#DejaVuSans-20" x="244.677734"/>
      <use xlink:href="#DejaVuSans-28" x="276.464844"/>
      <use xlink:href="#DejaVuSans-73" x="315.478516"/>
      <use xlink:href="#DejaVuSans-29" x="367.578125"/>
     </g>
    </g>
   </g>
   <g id="matplotlib.axis_2">
    <g id="ytick_1">
     <g id="line2d_15">
      <path d="M 57.53 414.72 
L 754.59 414.72 
" clip-path="url(#p6ec73a8f4b)" style="fill: none; stroke: #b0b0b0; stroke-width: 0.8; stroke-linecap: square"/>
     </g>
     <g id="line2d_16">
      <defs>
       <path id="m0640d0aa7f" d="M 0 0 
L -3.5 0 
" style="stroke: #000000; stroke-width: 0.8"/>
      </defs>
      <g>
       <use xlink:href="#m0640d0aa7f" x="57.53" y="414.72" style="stroke: #000000; stroke-width: 0.8"/>
      </g>
     </g>
     <g id="text_9">
      <!-- 0 -->
      <g transform="translate(41.940625 419.848945) scale(0.135 -0.135)">
       <use xlink:href="#DejaVuSans-30"/>
      </g>
     </g>
    </g>
    <g id="ytick_2">
     <g id="line2d_17">
      <path d="M 57.53 358.482857 
L 754.59 358.482857 
" clip-path="url(#p6ec73a8f4b)" style="fill: none; stroke: #b0b0b0; stroke-width: 0.8; stroke-linecap: square"/>
     </g>
     <g id="line2d_18">
      <g>
       <use xlink:href="#m0640d0aa7f" x="57.53" y="358.482857" style="stroke: #000000; stroke-width: 0.8"/>
      </g>
     </g>
     <g id="text_10">
      <!-- 10 -->
      <g transform="translate(33.35125 363.611802) scale(0.135 -0.135)">
       <use xlink:href="#DejaVuSans-31"/>
       <use xlink:href="#DejaVuSans-30" x="63.623047"/>
      </g>
     </g>
    </g>
    <g id="ytick_3">
     <g id="line2d_19">
      <path d="M 57.53 302.245714 
L 754.59 302.245714 
" clip-path="url(#p6ec73a8f4b)" style="fill: none; stroke: #b0b0b0; stroke-width: 0.8; stroke-linecap: square"/>
     </g>
     <g id="line2d_20">
      <g>
       <use xlink:href="#m0640d0aa7f" x="57.53" y="302.245714" style="stroke: #000000; stroke-width: 0.8"/>
      </g>
     </g>
     <g id="text_11">
      <!-- 20 -->
      <g transform="translate(33.35125 307.37466) scale(0.135 -0.135)">
       <use xlink:href="#DejaVuSans-32"/>
       <use xlink:href="#DejaVuSans-30" x="63.623047"/>
      </g>
     </g>
    </g>
    <g id="ytick_4">
     <g id="line2d_21">
      <path d="M 57.53 246.008571 
L 754.59 246.008571 
" clip-path="url(#p6ec73a8f4b)" style="fill: none; stroke: #b0b0b0; stroke-width: 0.8; stroke-linecap: square"/>
     </g>
     <g id="line2d_22">
      <g>
       <use xlink:href="#m0640d0aa7f" x="57.53" y="246.008571" style="stroke: #000000; stroke-width: 0.8"/>
      </g>
     </g>
     <g id="text_12">
      <!-- 30 -->
      <g transform="translate(33.35125 251.137517) scale(0.135 -0.135)">
       <use xlink:href="#DejaVuSans-33"/>
       <use xlink:href="#DejaVuSans-30" x="63.623047"/>
      </g>
     </g>
    </g>
    <g id="ytick_5">
     <g id="line2d_23">
      <path d="M 57.53 189.771429 
L 754.59 189.771429 
" clip-path="url(#p6ec73a8f4b)" style="fill: none; stroke: #b0b0b0; stroke-width: 0.8; stroke-linecap: square"/>
     </g>
     <g id="line2d_24">
      <g>
       <use xlink:href="#m0640d0aa7f" x="57.53" y="189.771429" style="stroke: #000000; stroke-width: 0.8"/>
      </g>
     </g>
     <g id="text_13">
      <!-- 40 -->
      <g transform="translate(33.35125 194.900374) scale(0.135 -0.135)">
       <use xlink:href="#DejaVuSans-34"/>
       <use xlink:href="#DejaVuSans-30" x="63.623047"/>
      </g>
     </g>
    </g>
    <g id="ytick_6">
     <g id="line2d_25">
      <path d="M 57.53 133.534286 
L 754.59 133.534286 
" clip-path="url(#p6ec73a8f4b)" style="fill: none; stroke: #b0b0b0; stroke-width: 0.8; stroke-linecap: square"/>
     </g>
     <g id="line2d_26">
      <g>
       <use xlink:href="#m0640d0aa7f" x="57.53" y="133.534286" style="stroke: #000000; stroke-width: 0.8"/>
      </g>
     </g>
     <g id="text_14">
      <!-- 50 -->
      <g transform="translate(33.35125 138.663231) scale(0.135 -0.135)">
       <use xlink:href="#DejaVuSans-35"/>
       <use xlink:href="#DejaVuSans-30" x="63.623047"/>
      </g>
     </g>
    </g>
    <g id="ytick_7">
     <g id="line2d_27">
      <path d="M 57.53 77.297143 
L 754.59 77.297143 
" clip-path="url(#p6ec73a8f4b)" style="fill: none; stroke: #b0b0b0; stroke-width: 0.8; stroke-linecap: square"/>
     </g>
     <g id="line2d_28">
      <g>
       <use xlink:href="#m0640d0aa7f" x="57.53" y="77.297143" style="stroke: #000000; stroke-width: 0.8"/>
      </g>
     </g>
     <g id="text_15">
      <!-- 60 -->
      <g transform="translate(33.35125 82.426088) scale(0.135 -0.135)">
       <use xlink:href="#DejaVuSans-36"/>
       <use xlink:href="#DejaVuSans-30" x="63.623047"/>
      </g>
     </g>
    </g>
    <g id="ytick_8">
     <g id="line2d_29">
      <path d="M 57.53 21.06 
L 754.59 21.06 
" clip-path="url(#p6ec73a8f4b)" style="fill: none; stroke: #b0b0b0; stroke-width: 0.8; stroke-linecap: square"/>
     </g>
     <g id="line2d_30">
      <g>
       <use xlink:href="#m0640d0aa7f" x="57.53" y="21.06" style="stroke: #000000; stroke-width: 0.8"/>
      </g>
     </g>
     <g id="text_16">
      <!-- 70 -->
      <g transform="translate(33.35125 26.188945) scale(0.135 -0.135)">
       <defs>
        <path id="DejaVuSans-37" d="M 525 4666 
L 3525 4666 
L 3525 4397 
L 1831 0 
L 1172 0 
L 2766 4134 
L 525 4134 
L 525 4666 
z
" transform="scale(0.015625)"/>
       </defs>
       <use xlink:href="#DejaVuSans-37"/>
       <use xlink:href="#DejaVuSans-30" x="63.623047"/>
      </g>
     </g>
    </g>
    <g id="text_17">
     <!-- Packet Rate (pps) -->
     <g transform="translate(26.335703 281.471367) rotate(-90) scale(0.145 -0.145)">
      <defs>
       <path id="DejaVuSans-50" d="M 1259 4147 
L 1259 2394 
L 2053 2394 
Q 2494 2394 2734 2622 
Q 2975 2850 2975 3272 
Q 2975 3691 2734 3919 
Q 2494 4147 2053 4147 
L 1259 4147 
z
M 628 4666 
L 2053 4666 
Q 2838 4666 3239 4311 
Q 3641 3956 3641 3272 
Q 3641 2581 3239 2228 
Q 2838 1875 2053 1875 
L 1259 1875 
L 1259 0 
L 628 0 
L 628 4666 
z
" transform="scale(0.015625)"/>
       <path id="DejaVuSans-61" d="M 2194 1759 
Q 1497 1759 1228 1600 
Q 959 1441 959 1056 
Q 959 750 1161 570 
Q 1363 391 1709 391 
Q 2188 391 2477 730 
Q 2766 1069 2766 1631 
L 2766 1759 
L 2194 1759 
z
M 3341 1997 
L 3341 0 
L 2766 0 
L 2766 531 
Q 2569 213 2275 61 
Q 1981 -91 1556 -91 
Q 1019 -91 701 211 
Q 384 513 384 1019 
Q 384 1609 779 1909 
Q 1175 2209 1959 2209 
L 2766 2209 
L 2766 2266 
Q 2766 2663 2505 2880 
Q 2244 3097 1772 3097 
Q 1472 3097 1187 3025 
Q 903 2953 641 2809 
L 641 3341 
Q 956 3463 1253 3523 
Q 1550 3584 1831 3584 
Q 2591 3584 2966 3190 
Q 3341 2797 3341 1997 
z
" transform="scale(0.015625)"/>
       <path id="DejaVuSans-63" d="M 3122 3366 
L 3122 2828 
Q 2878 2963 2633 3030 
Q 2388 3097 2138 3097 
Q 1578 3097 1268 2742 
Q 959 2388 959 1747 
Q 959 1106 1268 751 
Q 1578 397 2138 397 
Q 2388 397 2633 464 
Q 2878 531 3122 666 
L 3122 134 
Q 2881 22 2623 -34 
Q 2366 -91 2075 -91 
Q 1284 -91 818 406 
Q 353 903 353 1747 
Q 353 2603 823 3093 
Q 1294 3584 2113 3584 
Q 2378 3584 2631 3529 
Q 2884 3475 3122 3366 
z
" transform="scale(0.015625)"/>
       <path id="DejaVuSans-6b" d="M 581 4863 
L 1159 4863 
L 1159 1991 
L 2875 3500 
L 3609 3500 
L 1753 1863 
L 3688 0 
L 2938 0 
L 1159 1709 
L 1159 0 
L 581 0 
L 581 4863 
z
" transform="scale(0.015625)"/>
       <path id="DejaVuSans-74" d="M 1172 4494 
L 1172 3500 
L 2356 3500 
L 2356 3053 
L 1172 3053 
L 1172 1153 
Q 1172 725 1289 603 
Q 1406 481 1766 481 
L 2356 481 
L 2356 0 
L 1766 0 
Q 1100 0 847 248 
Q 594 497 594 1153 
L 594 3053 
L 172 3053 
L 172 3500 
L 594 3500 
L 594 4494 
L 1172 4494 
z
" transform="scale(0.015625)"/>
       <path id="DejaVuSans-52" d="M 2841 2188 
Q 3044 2119 3236 1894 
Q 3428 1669 3622 1275 
L 4263 0 
L 3584 0 
L 2988 1197 
Q 2756 1666 2539 1819 
Q 2322 1972 1947 1972 
L 1259 1972 
L 1259 0 
L 628 0 
L 628 4666 
L 2053 4666 
Q 2853 4666 3247 4331 
Q 3641 3997 3641 3322 
Q 3641 2881 3436 2590 
Q 3231 2300 2841 2188 
z
M 1259 4147 
L 1259 2491 
L 2053 2491 
Q 2509 2491 2742 2702 
Q 2975 2913 2975 3322 
Q 2975 3731 2742 3939 
Q 2509 4147 2053 4147 
L 1259 4147 
z
" transform="scale(0.015625)"/>
       <path id="DejaVuSans-70" d="M 1159 525 
L 1159 -1331 
L 581 -1331 
L 581 3500 
L 1159 3500 
L 1159 2969 
Q 1341 3281 1617 3432 
Q 1894 3584 2278 3584 
Q 2916 3584 3314 3078 
Q 3713 2572 3713 1747 
Q 3713 922 3314 415 
Q 2916 -91 2278 -91 
Q 1894 -91 1617 61 
Q 1341 213 1159 525 
z
M 3116 1747 
Q 3116 2381 2855 2742 
Q 2594 3103 2138 3103 
Q 1681 3103 1420 2742 
Q 1159 2381 1159 1747 
Q 1159 1113 1420 752 
Q 1681 391 2138 391 
Q 2594 391 2855 752 
Q 3116 1113 3116 1747 
z
" transform="scale(0.015625)"/>
      </defs>
      <use xlink:href="#DejaVuSans-50"/>
      <use xlink:href="#DejaVuSans-61" x="55.802734"/>
      <use xlink:href="#DejaVuSans-63" x="117.082031"/>
      <use xlink:href="#DejaVuSans-6b" x="172.0625"/>
      <use xlink:href="#DejaVuSans-65" x="226.347656"/>
      <use xlink:href="#DejaVuSans-74" x="287.871094"/>
      <use xlink:href="#DejaVuSans-20" x="327.080078"/>
      <use xlink:href="#DejaVuSans-52" x="358.867188"/>
      <use xlink:href="#DejaVuSans-61" x="426.099609"/>
      <use xlink:href="#DejaVuSans-74" x="487.378906"/>
      <use xlink:href="#DejaVuSans-65" x="526.587891"/>
      <use xlink:href="#DejaVuSans-20" x="588.111328"/>
      <use xlink:href="#DejaVuSans-28" x="619.898438"/>
      <use xlink:href="#DejaVuSans-70" x="658.912109"/>
      <use xlink:href="#DejaVuSans-70" x="722.388672"/>
      <use xlink:href="#DejaVuSans-73" x="785.865234"/>
      <use xlink:href="#DejaVuSans-29" x="837.964844"/>
     </g>
    </g>
   </g>
   <g id="line2d_31">
    <path d="M 57.53 78.536924 
L 59.857397 77.857273 
L 62.188782 78.433531 
L 64.583481 87.324706 
L 67.244054 70.9286 
L 69.708561 96.598254 
L 71.956033 94.947888 
L 74.468957 76.728231 
L 76.741311 69.697535 
L 79.065278 77.360032 
L 81.612529 55.633967 
L 84.005213 87.049007 
L 86.44906 93.908971 
L 88.749381 73.8921 
L 91.118138 83.739203 
L 93.712867 62.204463 
L 96.032693 104.921468 
L 98.366959 50.859219 
L 101.025246 70.632948 
L 103.353567 77.991027 
L 105.703083 108.836196 
L 108.075114 56.65239 
L 110.40431 78.117391 
L 113.110186 100.82988 
L 115.621234 76.475792 
L 117.892973 69.604072 
L 120.217714 77.472402 
L 122.51654 73.670577 
L 124.867411 81.220953 
L 127.475346 63.989587 
L 129.911536 92.900597 
L 132.238909 77.853728 
L 134.566306 77.857364 
L 136.898827 78.59723 
L 139.441819 55.032716 
L 141.818281 112.304532 
L 144.538581 54.459559 
L 147.253723 77.838076 
L 149.703973 94.747258 
L 152.028683 77.467921 
L 154.313282 71.546773 
L 156.67225 82.365609 
L 159.218275 55.461133 
L 161.543622 77.56035 
L 163.92871 86.005426 
L 166.248205 104.877209 
L 168.702446 68.646446 
L 171.025617 77.244569 
L 173.566012 54.664915 
L 175.946454 85.363835 
L 178.267553 105.091319 
L 180.59388 77.702292 
L 183.016761 64.167213 
L 185.58432 58.474286 
L 188.142858 108.289736 
L 190.369105 62.551962 
L 192.939642 84.303507 
L 195.392684 68.477416 
L 197.709768 76.357873 
L 200.044114 78.860126 
L 202.369989 77.63687 
L 204.691849 77.053927 
L 206.952379 96.795044 
L 209.287371 50.972478 
L 211.778343 99.978062 
L 214.253157 71.523423 
L 216.585374 50.539608 
L 219.043675 95.795201 
L 221.290683 65.805773 
L 223.731672 93.533211 
L 226.263531 53.451018 
L 228.644225 85.398676 
L 231.348629 100.659055 
L 233.799057 68.108042 
L 236.231287 92.37657 
L 238.715326 46.496309 
L 241.156124 93.508154 
L 243.479792 77.316746 
L 246.013881 53.768931 
L 248.387607 111.955882 
L 251.038981 69.735864 
L 253.420626 85.530188 
L 255.744601 77.361278 
L 258.077943 50.715156 
L 260.633056 107.879042 
L 265.434927 44.915578 
L 267.758239 77.264929 
L 270.249049 99.957724 
L 272.792849 55.146832 
L 275.224271 92.26954 
L 277.643245 90.610076 
L 280.151576 50.062311 
L 282.642798 100.009759 
L 284.906231 68.337575 
L 287.289498 85.754228 
L 289.639853 81.147746 
L 291.973327 78.734584 
L 294.319232 80.515009 
L 296.642311 77.231106 
L 299.127192 46.621018 
L 301.499809 84.27765 
L 303.883348 85.79173 
L 306.097522 60.631653 
L 308.53902 93.600187 
L 310.794118 67.057459 
L 313.30096 101.970577 
L 315.711266 62.338316 
L 318.093501 85.611736 
L 320.745859 69.86386 
L 323.128218 85.628754 
L 325.517172 59.188891 
L 327.952724 92.816208 
L 330.335134 85.63599 
L 332.751323 63.196256 
L 335.139278 59.04004 
L 337.58073 93.594217 
L 340.021532 93.508657 
L 342.340575 76.643785 
L 344.757112 63.246879 
L 347.138946 85.556375 
L 349.462711 77.330814 
L 351.904274 66.849512 
L 354.195669 72.564508 
L 356.552111 82.009416 
L 358.96603 89.931408 
L 361.258509 72.726454 
L 363.646506 86.405821 
L 366.11626 70.820259 
L 368.563425 67.645813 
L 371.15125 86.510888 
L 373.475976 77.470351 
L 375.921784 67.453288 
L 378.451505 78.972368 
L 380.833042 85.515273 
L 383.275454 66.970488 
L 385.690093 90.028318 
L 388.19178 75.209964 
L 390.515595 77.338018 
L 392.956728 66.788217 
L 395.280342 77.308839 
L 397.875552 87.44492 
L 400.203246 49.831929 
L 402.532414 78.113402 
L 404.968935 92.944314 
L 407.416165 94.352472 
L 409.880484 70.061796 
L 412.29966 63.630274 
L 414.651022 81.290643 
L 417.246503 62.3066 
L 419.681111 92.691523 
L 422.283131 63.192223 
L 424.724814 93.624536 
L 427.106275 85.504818 
L 429.331116 62.32931 
L 431.686357 81.839727 
L 434.279649 87.202854 
L 436.604009 77.417061 
L 438.986598 58.23901 
L 441.337004 81.154974 
L 443.81573 98.423236 
L 446.135305 76.721298 
L 448.469955 78.903812 
L 450.934302 70.065728 
L 453.257821 77.2951 
L 455.582946 77.528126 
L 457.905532 77.159459 
L 460.347548 66.913983 
L 462.951409 63.440848 
L 465.388262 92.988179 
L 467.712207 77.356949 
L 470.304807 61.915004 
L 472.751 94.216584 
L 475.070933 76.773547 
L 477.664445 62.039055 
L 479.98774 77.262521 
L 482.307501 104.912677 
L 485.018315 77.30033 
L 487.350929 50.601516 
L 489.792533 93.614215 
L 492.112739 76.813311 
L 494.430835 76.505616 
L 496.8142 85.767742 
L 499.347871 79.495913 
L 501.671606 77.326442 
L 504.113248 66.860797 
L 506.443418 78.258122 
L 509.040115 62.471673 
L 511.364166 77.372248 
L 513.688121 77.358435 
L 516.129727 93.614495 
L 518.453535 77.336942 
L 520.988425 53.88295 
L 523.303043 104.224378 
L 525.636132 50.675829 
L 528.019137 85.71796 
L 530.392685 84.407241 
L 533.051559 70.708915 
L 535.496837 94.096591 
L 538.080463 85.977495 
L 540.733466 69.947647 
L 543.115584 85.595597 
L 545.77378 46.042686 
L 548.155951 85.602833 
L 550.80411 93.988638 
L 553.192182 59.057479 
L 555.633636 93.594516 
L 558.23163 62.647537 
L 560.875153 93.426102 
L 563.256453 85.482494 
L 565.586102 50.138193 
L 568.021989 92.860552 
L 570.625501 63.393811 
L 573.269226 93.450613 
L 575.592544 77.265834 
L 577.917834 77.552065 
L 580.299392 85.51825 
L 582.961238 46.548136 
L 585.334758 111.929788 
L 587.988126 69.995007 
L 590.438369 68.081891 
L 592.762109 77.327117 
L 595.077375 76.092307 
L 597.466926 86.619298 
L 600.004031 54.197975 
L 602.436335 92.386467 
L 605.094885 70.666964 
L 607.422128 77.835118 
L 609.864005 93.650026 
L 612.187628 77.310111 
L 614.508565 76.919774 
L 617.046607 54.331123 
L 619.370647 77.370707 
L 621.813275 93.748676 
L 624.406496 61.999604 
L 626.725031 104.748858 
L 629.509443 62.754695 
L 632.20538 99.672702 
L 634.529603 77.397233 
L 636.801405 40.854765 
L 639.312145 102.456201 
L 641.830336 77.435205 
L 644.169736 51.657785 
L 646.494574 77.486484 
L 648.936342 93.635769 
L 651.199961 68.366101 
L 653.852713 69.915019 
L 656.23593 85.747242 
L 658.932002 99.688532 
L 661.658108 55.226774 
L 664.310896 69.919654 
L 666.693852 85.711332 
L 669.405648 77.422419 
L 671.73075 77.524883 
L 674.044821 75.917303 
L 676.486453 93.617926 
L 679.070944 86.087526 
L 681.395455 77.439044 
L 684.046954 69.752014 
L 686.38005 50.676922 
L 688.704266 77.39622 
L 691.086906 85.667654 
L 693.578831 100.098504 
L 696.122566 55.13765 
L 698.437077 104.210034 
L 700.766154 50.048577 
L 703.423042 70.451748 
L 705.8557 92.433278 
L 708.238484 85.687649 
L 710.571475 78.665001 
L 713.165822 62.152642 
L 715.598538 92.440995 
L 717.921296 77.184506 
L 720.338109 90.320297 
L 722.840606 75.31999 
L 725.164262 77.314958 
L 727.884359 54.432635 
L 730.284879 88.118611 
L 732.857311 59.148974 
L 735.234756 112.429644 
L 737.567819 50.671587 
L 740.000632 92.453902 
L 742.331515 78.361018 
L 744.922918 61.752167 
L 747.251286 77.997655 
L 749.693253 93.661958 
L 752.016892 77.312547 
L 754.338639 77.037489 
L 754.338639 77.037489 
" clip-path="url(#p6ec73a8f4b)" style="fill: none; stroke: #ff7f0e; stroke-width: 1.5; stroke-linecap: square"/>
   </g>
   <g id="line2d_32">
    <path d="M 57.53 246.63225 
L 59.857386 274.359854 
L 62.188785 246.577804 
L 64.583476 223.738736 
L 67.244049 242.824314 
L 69.708521 255.656872 
L 71.956016 269.370525 
L 74.468901 232.721597 
L 76.741218 242.205919 
L 79.065171 246.039027 
L 81.612504 260.830994 
L 84.005218 223.58093 
L 86.449013 281.045891 
L 88.749322 244.305242 
L 91.118091 221.64879 
L 93.712864 238.465204 
L 96.032696 273.902831 
L 98.366962 246.784328 
L 101.025244 242.676152 
L 103.353569 246.355754 
L 105.702958 247.865288 
L 108.075058 221.91994 
L 110.404303 246.422278 
L 113.110176 269.847449 
L 115.621232 232.589075 
L 117.892973 242.162156 
L 120.217711 274.199998 
L 122.516542 215.774951 
L 124.867409 275.761839 
L 127.475344 214.302635 
L 129.911531 280.62839 
L 132.238907 218.214984 
L 136.898819 274.674599 
L 139.441808 209.184072 
L 141.818274 277.25866 
L 144.538578 246.598694 
L 147.253716 246.278839 
L 149.70396 228.068787 
L 152.028539 246.084407 
L 154.313274 243.143614 
L 156.67224 248.542675 
L 159.218149 260.744932 
L 161.54358 246.14621 
L 163.928691 250.364299 
L 166.248193 245.715318 
L 168.702439 228.373172 
L 171.025604 245.981792 
L 173.566004 234.692846 
L 175.946446 277.488264 
L 178.267547 245.83173 
L 180.593755 246.202571 
L 183.016728 252.932567 
L 185.584302 211.152106 
L 188.142828 261.504204 
L 190.369074 267.983252 
L 192.939624 236.804324 
L 195.392636 228.279356 
L 197.709734 245.540058 
L 200.044103 246.791669 
L 202.369982 246.178727 
L 204.691835 245.886449 
L 206.952363 270.208561 
L 209.287359 218.856268 
L 211.778338 257.349486 
L 214.253085 256.317264 
L 216.58526 218.619392 
L 219.043671 255.264691 
L 221.290682 240.263053 
L 223.731641 254.124698 
L 226.263398 259.884164 
L 228.644209 250.067435 
L 231.348584 245.608491 
L 233.799053 228.085904 
L 236.231277 253.547894 
L 238.715295 230.606567 
L 241.156117 254.115619 
L 243.479782 246.018153 
L 246.013848 234.242847 
L 248.387601 277.101531 
L 251.03897 242.2276 
L 253.420619 250.125345 
L 255.74459 246.040352 
L 258.077778 218.704522 
L 260.633048 261.30895 
L 265.434913 229.817743 
L 267.758226 245.992599 
L 270.249041 257.339134 
L 272.79284 234.933341 
L 275.224256 280.365278 
L 277.643226 225.655673 
L 280.151457 232.383904 
L 282.642743 257.36888 
L 284.906214 241.531703 
L 287.289482 250.237161 
L 289.63967 247.922018 
L 291.973211 246.73212 
L 294.319156 247.620383 
L 296.642292 245.979696 
L 299.127069 230.662823 
L 301.499789 277.041638 
L 303.88317 250.24495 
L 306.09751 208.183989 
L 308.538946 254.155994 
L 310.793997 240.885103 
L 313.300907 258.349555 
L 315.711243 252.08433 
L 318.093483 250.166188 
L 320.745672 242.280927 
L 323.128192 250.185554 
L 325.517043 250.62156 
L 327.952658 226.947695 
L 330.335112 250.180991 
L 332.751296 252.477954 
L 335.139251 250.560035 
L 337.580706 254.157326 
L 340.021507 227.346599 
L 342.340557 245.682443 
L 344.756944 252.4916 
L 347.138909 250.147168 
L 349.46252 246.014253 
L 351.904143 254.168321 
L 354.195581 243.645475 
L 356.552082 220.643708 
L 358.965998 252.325498 
L 361.258483 243.723659 
L 363.646423 250.558961 
L 366.116233 256.000673 
L 368.563332 254.527595 
L 371.151217 237.996115 
L 375.921761 254.447019 
L 378.451471 233.932066 
L 380.833012 250.117935 
L 383.275425 227.470297 
L 385.690063 252.374071 
L 388.191759 258.023637 
L 390.515554 246.02757 
L 392.956598 227.365316 
L 395.280308 246.021391 
L 397.87541 263.663674 
L 400.203215 246.318163 
L 402.532381 218.365995 
L 404.968899 280.646608 
L 407.416139 227.839712 
L 409.880353 255.640176 
L 412.299623 252.684899 
L 414.650927 248.001191 
L 417.246456 238.516577 
L 419.681075 253.706451 
L 422.283035 213.842391 
L 424.724671 254.169202 
L 427.106135 250.112582 
L 429.330912 267.886332 
L 431.686328 248.292263 
L 434.279614 238.364198 
L 436.603818 246.057245 
L 438.98656 250.200857 
L 441.336959 247.936992 
L 443.815631 230.209465 
L 446.135166 245.717773 
L 448.469917 246.81915 
L 450.934202 255.644781 
L 453.257784 246.012101 
L 455.582909 246.12412 
L 457.905491 245.939461 
L 460.347508 227.439945 
L 462.951296 239.075511 
L 465.388106 253.851224 
L 467.712058 246.038971 
L 470.304762 263.523885 
L 472.750958 227.759955 
L 475.070838 245.742883 
L 477.6643 263.568118 
L 479.987697 245.998635 
L 482.307295 245.722343 
L 485.018267 246.020024 
L 487.350782 218.647862 
L 489.792425 254.169697 
L 492.112693 245.771148 
L 494.430786 245.612599 
L 496.814088 250.239526 
L 499.347821 260.00494 
L 501.671457 246.016026 
L 504.113037 254.165499 
L 506.443263 246.493171 
L 509.040063 213.443252 
L 511.364053 246.041666 
L 513.688077 246.044241 
L 516.129559 254.159035 
L 518.453472 246.036123 
L 520.988306 234.297535 
L 523.302962 273.587941 
L 525.636067 218.697482 
L 528.019074 250.219188 
L 530.392621 249.5635 
L 533.051494 267.286608 
L 535.496701 227.684311 
L 538.080398 262.99688 
L 540.7334 242.333697 
L 543.115456 250.153494 
L 545.773718 242.674873 
L 548.155887 250.161285 
L 550.803974 242.013809 
L 553.192116 250.572889 
L 555.633562 254.156685 
L 558.231457 213.528107 
L 560.874967 266.429771 
L 563.256382 250.109234 
L 565.585964 246.446632 
L 568.02192 253.794836 
L 570.625437 213.962471 
L 573.269158 266.441669 
L 575.592477 245.993017 
L 577.917764 246.135808 
L 580.299318 250.118802 
L 582.961158 218.36129 
L 585.334689 277.088635 
L 587.988056 242.357469 
L 590.438125 228.05548 
L 592.762046 246.036677 
L 595.077306 273.624768 
L 597.466795 250.665432 
L 600.003957 208.712044 
L 602.436262 280.414374 
L 605.094738 242.688728 
L 607.42206 218.210432 
L 609.863928 254.184412 
L 612.18738 246.002701 
L 614.508387 245.824955 
L 617.046533 234.532886 
L 619.370507 246.040616 
L 621.813199 254.238601 
L 624.406417 238.359563 
L 626.724819 273.815978 
L 629.50934 227.012477 
L 632.205247 269.311895 
L 634.529509 246.061508 
L 636.801291 213.406214 
L 639.312046 258.588996 
L 641.830244 259.050531 
L 644.169571 219.218863 
L 646.494482 246.10853 
L 648.936249 254.177784 
L 651.199802 241.538001 
L 653.852623 242.322036 
L 656.235837 250.233429 
L 658.931842 269.317217 
L 661.658013 222.994894 
L 664.310803 242.319921 
L 666.693692 250.211079 
L 669.405559 246.075608 
L 671.730614 246.119014 
L 674.044633 245.314902 
L 676.486378 254.176369 
L 679.070866 263.043261 
L 681.395212 246.067576 
L 684.046768 242.239733 
L 686.379983 218.706778 
L 688.704186 246.057151 
L 691.086839 250.194749 
L 693.578762 257.409125 
L 696.122483 234.927828 
L 698.437004 273.579672 
L 700.766078 246.409967 
L 703.422969 217.995461 
L 705.855563 280.430378 
L 708.238305 250.200891 
L 710.571397 218.696415 
L 713.165689 238.432526 
L 715.598473 253.585047 
L 717.921219 245.951361 
L 720.337862 252.508775 
L 722.840527 258.084315 
L 725.164185 246.017637 
L 727.884285 222.566932 
L 730.284738 251.41475 
L 732.857235 262.336304 
L 735.234674 249.833904 
L 737.567744 218.694559 
L 740.000446 253.579588 
L 742.331427 274.576326 
L 744.92273 238.229205 
L 747.251206 218.307877 
L 749.692965 254.177256 
L 752.016803 246.030729 
L 754.337859 245.828478 
L 754.337859 245.828478 
" clip-path="url(#p6ec73a8f4b)" style="fill: none; stroke: #1f77b4; stroke-width: 1.5; stroke-linecap: square"/>
   </g>
   <g id="line2d_33">
    <path d="M 57.53 77.788145 
L 60.12476 62.208718 
L 62.431496 74.840044 
L 65.079336 69.275445 
L 67.457156 85.00059 
L 69.935981 98.435853 
L 72.532254 62.414114 
L 74.893651 82.707447 
L 77.255199 82.728765 
L 79.438832 85.599287 
L 82.156944 54.169601 
L 84.516908 110.190369 
L 87.173065 45.759657 
L 89.652159 98.470095 
L 91.825784 54.026115 
L 94.540103 77.736033 
L 97.018316 98.357683 
L 99.61425 87.53615 
L 102.328301 53.630071 
L 104.688552 110.227459 
L 107.300451 39.507667 
L 109.898208 112.916048 
L 112.083231 55.907661 
L 114.681044 62.622983 
L 116.973085 72.660976 
L 119.688409 101.922139 
L 122.16813 72.202585 
L 124.529888 82.758257 
L 127.128009 87.811558 
L 129.372858 65.470054 
L 131.852225 72.153658 
L 134.214305 82.803528 
L 136.577125 82.907505 
L 139.056159 45.752805 
L 141.345233 100.759539 
L 143.825508 72.279038 
L 146.187629 82.80937 
L 148.786289 62.737747 
L 151.26734 98.719544 
L 153.629803 82.85736 
L 156.110191 45.954253 
L 158.472689 82.862158 
L 160.826487 81.635678 
L 163.071726 65.530895 
L 165.553147 98.766629 
L 168.034399 98.745143 
L 170.515885 46.117428 
L 172.76028 94.509422 
L 175.123657 82.985742 
L 177.487926 83.110757 
L 179.85018 82.828095 
L 182.097055 36.707039 
L 184.462537 83.280911 
L 186.944414 98.824703 
L 189.307918 83.003486 
L 191.674996 55.903091 
L 194.038426 82.993065 
L 196.520961 72.590852 
L 198.885645 83.169041 
L 201.135732 66.283166 
L 203.735992 88.080431 
L 206.099297 82.975608 
L 208.356185 67.333166 
L 210.897577 80.514319 
L 213.394768 74.598754 
L 215.758714 83.065533 
L 218.122719 55.436598 
L 220.723272 88.117188 
L 223.089115 55.715889 
L 225.453352 110.740774 
L 228.128365 48.360371 
L 230.566003 93.091739 
L 232.808179 65.053881 
L 235.109268 74.005882 
L 237.80696 75.659114 
L 240.526501 78.382982 
L 242.88953 110.585493 
L 245.371128 72.461599 
L 247.874459 75.432968 
L 250.237267 82.905762 
L 252.718611 72.426605 
L 254.969752 66.446312 
L 257.33396 83.102257 
L 259.579189 65.529231 
L 261.944005 83.187587 
L 264.263399 76.694906 
L 266.864098 88.135657 
L 269.148076 71.45344 
L 271.472448 49.310355 
L 273.781104 75.122843 
L 276.156027 112.108553 
L 278.816875 46.410145 
L 281.19189 112.120267 
L 283.525732 50.793258 
L 286.239642 77.685154 
L 288.676728 93.018867 
L 291.212574 54.019086 
L 293.601219 86.494885 
L 296.318949 102.199032 
L 298.636212 48.189417 
L 301.078618 93.719634 
L 303.517908 93.309491 
L 305.996887 45.744688 
L 308.311142 104.175624 
L 310.642377 50.386308 
L 313.298994 70.416561 
L 315.673833 112.097886 
L 317.997827 77.364052 
L 320.332266 50.886184 
L 322.765391 92.495201 
L 325.366441 63.061213 
L 327.967395 113.287107 
L 330.399902 38.695446 
L 332.727781 77.92707 
L 335.209332 98.783153 
L 337.486275 70.392931 
L 339.815814 78.167023 
L 342.370953 56.742616 
L 344.736404 83.276513 
L 347.098687 82.83197 
L 349.494165 87.431265 
L 351.859982 83.327701 
L 354.14311 71.325759 
L 356.743482 62.969509 
L 359.106346 82.913597 
L 361.395652 72.252383 
L 364.114678 78.319295 
L 366.423388 103.42977 
L 369.142603 54.315791 
L 371.468354 77.618913 
L 374.17611 76.919258 
L 376.503971 77.924438 
L 378.82942 77.575026 
L 381.311831 98.892722 
L 383.912358 62.99051 
L 386.177997 97.511884 
L 388.838705 46.390858 
L 391.201704 82.932549 
L 393.566288 83.154962 
L 395.870218 74.426165 
L 398.198279 77.95338 
L 400.639995 93.628901 
L 403.233241 62.00297 
L 405.598934 110.927894 
L 407.963759 55.561193 
L 412.919199 77.422526 
L 415.234505 104.316585 
L 417.559224 77.469255 
L 419.967089 61.981077 
L 422.604578 67.919671 
L 424.968303 110.674997 
L 427.254187 43.157902 
L 429.954612 100.196346 
L 432.677986 54.866165 
L 435.000096 77.090368 
L 437.517675 103.304432 
L 440.037132 51.672613 
L 442.520174 98.972976 
L 444.768959 66.081435 
L 447.245792 98.181288 
L 449.444429 58.129435 
L 451.889986 94.133203 
L 454.335506 40.696498 
L 456.701294 83.323774 
L 459.018161 76.326195 
L 461.457973 93.378365 
L 463.665064 59.495381 
L 466.267614 113.471856 
L 468.702711 39.095517 
L 471.221035 103.396513 
L 473.469586 66.045068 
L 475.796498 77.787119 
L 478.38386 61.200785 
L 480.707771 77.352055 
L 483.427876 78.452795 
L 485.82857 88.142273 
L 488.180652 81.39262 
L 490.503423 77.186309 
L 493.108361 63.586133 
L 495.818959 77.27338 
L 500.469752 77.656727 
L 502.949815 98.593668 
L 505.23728 71.976743 
L 507.718886 98.790276 
L 510.200246 46.098599 
L 512.564771 83.146789 
L 514.930481 83.312836 
L 517.510831 60.240077 
L 519.996066 99.251548 
L 522.387143 86.828735 
L 524.750869 83.03471 
L 527.234847 46.487137 
L 529.908472 72.606939 
L 532.340849 92.396043 
L 534.939495 87.87769 
L 537.421483 72.515369 
L 539.711022 72.28727 
L 542.121255 89.434714 
L 544.558737 66.267051 
L 546.942003 85.754136 
L 549.272448 50.262719 
L 551.63568 82.965306 
L 554.255278 65.551143 
L 556.638122 85.695713 
L 558.958812 76.883748 
L 561.321295 110.515114 
L 563.611937 43.929872 
L 566.052523 93.480218 
L 568.587905 53.952973 
L 570.968535 85.389813 
L 573.286827 104.716478 
L 575.649009 82.817818 
L 578.132711 72.751551 
L 580.503748 84.05743 
L 582.700519 57.826481 
L 585.182348 98.818695 
L 587.466422 71.46787 
L 589.946454 72.245525 
L 592.652523 76.708595 
L 595.01792 55.647953 
L 597.499353 98.768261 
L 599.743746 65.399138 
L 602.194717 94.841341 
L 604.669321 45.092392 
L 607.317438 93.983512 
L 609.709192 59.604978 
L 612.141662 92.408463 
L 614.739902 62.680843 
L 617.33936 113.113512 
L 619.820482 46.063393 
L 622.09883 70.605287 
L 624.423036 77.394706 
L 626.75366 78.323775 
L 629.233154 98.521049 
L 631.60139 83.666292 
L 633.957298 81.93397 
L 636.437059 45.861045 
L 639.144285 76.853059 
L 641.467688 77.278283 
L 643.797346 78.184254 
L 646.351985 107.822093 
L 648.713933 82.785016 
L 651.097659 31.000421 
L 653.481616 85.849546 
L 655.802314 76.884878 
L 658.514524 77.473854 
L 660.838989 77.432474 
L 663.156768 104.647743 
L 665.49068 50.804067 
L 668.006149 103.043268 
L 670.516098 76.327634 
L 672.878473 55.188758 
L 675.502875 66.190226 
L 677.885666 85.688446 
L 680.20939 77.324926 
L 682.691023 98.793623 
L 684.965041 69.949952 
L 687.263935 73.68067 
L 689.743496 98.529609 
L 692.215529 44.707895 
L 694.661453 94.181401 
L 696.974718 75.799293 
L 699.335608 82.636272 
L 701.937954 63.23639 
L 704.224195 71.793167 
L 706.5495 77.55426 
L 709.195798 93.763054 
L 711.583877 59.058465 
L 714.290603 100.928532 
L 716.771946 72.426441 
L 719.271782 48.823094 
L 721.637806 83.356816 
L 723.984445 80.619523 
L 726.308279 77.340764 
L 728.622026 104.107487 
L 730.944179 77.096559 
L 733.667793 54.897901 
L 736.368138 100.186985 
L 738.705708 79.323214 
L 741.133987 64.946519 
L 743.735836 63.169234 
L 746.450979 77.838216 
L 748.877331 91.595705 
L 751.477109 88.019873 
L 754.18991 77.54745 
L 756.521656 50.466034 
L 756.521656 50.466034 
" clip-path="url(#p6ec73a8f4b)" style="fill: none; stroke: #d62728; stroke-width: 1.5; stroke-linecap: square"/>
   </g>
   <g id="line2d_34">
    <path d="M 57.53 218.176371 
L 60.124729 238.462242 
L 62.431444 273.102122 
L 65.079229 241.994085 
L 67.457097 249.863661 
L 69.935973 256.581125 
L 72.532149 238.560454 
L 74.893551 221.04652 
L 77.255071 248.722406 
L 79.438818 265.127513 
L 82.156755 222.413991 
L 84.516831 276.304049 
L 87.172914 242.533723 
L 89.652137 230.250476 
L 91.825759 234.372836 
L 94.540079 270.298307 
L 97.01829 230.175138 
L 99.614137 263.707033 
L 102.328271 222.144569 
L 104.688524 276.314405 
L 107.300417 214.606314 
L 109.898076 263.812359 
L 112.083195 235.321731 
L 114.680995 263.82051 
L 116.973039 215.185861 
L 119.688361 270.351637 
L 122.168085 256.63521 
L 124.52984 221.075359 
L 127.127958 263.83906 
L 129.372607 240.079463 
L 131.852172 256.625069 
L 134.214242 221.101244 
L 136.576977 248.807803 
L 139.056105 256.597209 
L 141.345173 243.468317 
L 143.825442 256.669986 
L 146.187569 221.105907 
L 148.786227 238.728742 
L 151.267271 256.719335 
L 153.629641 248.782129 
L 156.110109 230.343101 
L 158.472615 248.791668 
L 160.826412 248.177772 
L 163.071647 240.125072 
L 165.55307 256.743429 
L 168.03432 256.732456 
L 170.515801 230.418337 
L 172.760095 269.163254 
L 175.12357 248.859728 
L 177.487848 248.916006 
L 179.850098 248.773744 
L 182.096344 211.117623 
L 184.461994 249.012174 
L 186.944326 256.801318 
L 189.307194 248.817143 
L 191.674367 249.118761 
L 194.038313 248.892829 
L 196.520184 256.771948 
L 198.884851 221.313847 
L 201.134811 269.529821 
L 203.734929 238.827526 
L 206.098494 248.866053 
L 208.356068 241.079353 
L 210.896735 234.711748 
L 213.393935 257.741522 
L 215.758595 248.942842 
L 218.121819 221.195795 
L 220.722412 263.982565 
L 223.088252 221.409784 
L 225.452574 276.552636 
L 228.128237 243.793715 
L 230.565873 227.103351 
L 232.807931 239.877695 
L 235.108336 244.312396 
L 237.806026 269.408037 
L 240.52555 222.526211 
L 242.888693 276.483662 
L 245.370992 230.479131 
L 247.873443 258.070915 
L 250.23628 248.814906 
L 252.718469 256.792215 
L 254.968715 211.479548 
L 257.332957 248.913554 
L 259.579048 240.191546 
L 261.943859 248.953467 
L 264.262309 245.638631 
L 266.863051 263.991246 
L 269.147836 243.14738 
L 271.472295 246.0757 
L 273.78013 216.551175 
L 276.155065 277.170017 
L 278.816717 218.34743 
L 281.191732 277.174683 
L 283.524713 218.687088 
L 286.23849 246.194351 
L 288.676547 253.933513 
L 291.211548 260.082348 
L 293.600192 250.607323 
L 296.318775 246.492299 
L 298.635159 217.282484 
L 301.077394 254.208595 
L 303.516825 254.024038 
L 305.995845 230.2354 
L 308.310963 273.616115 
L 310.641138 246.489395 
L 313.297944 217.989255 
L 315.672538 277.150289 
L 317.99657 246.044797 
L 320.3307 218.783598 
L 322.764303 253.639213 
L 325.366239 238.950471 
L 327.966036 263.936432 
L 330.398729 253.578961 
L 332.726664 218.262183 
L 335.209124 256.809447 
L 337.484768 242.458201 
L 339.814843 274.52184 
L 342.369482 210.121448 
L 344.734995 249.002607 
L 347.097506 248.791995 
L 349.493951 278.404681 
L 351.858577 221.310549 
L 354.141832 271.646993 
L 356.742276 238.849614 
L 359.106135 221.247792 
L 361.394204 243.393604 
L 364.113363 246.527866 
L 366.42214 273.228537 
L 369.142379 222.576838 
L 371.466859 246.077238 
L 374.174822 269.959316 
L 376.503752 218.346067 
L 378.827902 246.053359 
L 381.31045 283.132549 
L 383.911051 213.73738 
L 386.177749 270.601888 
L 388.836929 242.734289 
L 391.200345 248.855581 
L 393.56469 248.920743 
L 395.868624 244.573326 
L 398.196845 218.286298 
L 400.638624 254.178626 
L 403.232986 238.437307 
L 405.597051 276.537605 
L 407.962318 221.362934 
L 410.593118 240.878945 
L 412.917538 246.072967 
L 415.232984 273.636033 
L 417.557772 246.099647 
L 419.966634 224.862275 
L 422.602499 241.212966 
L 424.966981 276.561983 
L 427.252454 214.612199 
L 429.952874 269.554898 
L 432.676253 222.798341 
L 434.998575 245.92059 
L 437.517398 259.089116 
L 440.035311 233.084972 
L 442.518551 256.859065 
L 444.768448 240.486877 
L 447.243618 256.344374 
L 449.442614 236.453773 
L 451.888402 254.441758 
L 454.335227 227.807953 
L 456.699401 276.543955 
L 459.016467 217.34061 
L 461.456343 254.053396 
L 463.664761 237.214382 
L 466.265307 263.979898 
L 468.701201 226.969128 
L 471.219123 259.033447 
L 473.467668 240.382148 
L 475.794741 246.265171 
L 478.382126 263.213104 
L 480.707441 246.137882 
L 483.425462 222.419938 
L 485.826919 251.483035 
L 488.178663 248.032312 
L 490.503105 274.182135 
L 493.106166 213.927355 
L 495.817325 246.031614 
L 500.46773 246.189344 
L 502.948024 256.671536 
L 505.235088 243.318353 
L 507.716674 256.753797 
L 510.19829 230.428417 
L 512.564178 276.644035 
L 514.928386 221.276399 
L 517.510513 237.602029 
L 519.993877 256.8669 
L 522.385276 250.796462 
L 524.750516 248.983466 
L 527.23216 230.430434 
L 529.906641 243.718196 
L 532.338673 280.399332 
L 534.938922 238.836463 
L 537.42112 230.471601 
L 539.708634 243.351993 
L 542.119009 252.086925 
L 544.55818 254.006941 
L 549.271842 246.508098 
L 551.635319 248.859818 
L 554.252794 215.033078 
L 556.635788 250.218295 
L 558.956536 273.958427 
L 561.320943 248.925112 
L 563.609593 214.889941 
L 566.050186 254.100527 
L 568.585563 234.336178 
L 570.968162 250.191001 
L 573.284302 273.67836 
L 575.648621 248.918914 
L 578.130122 230.419825 
L 580.501512 249.41329 
L 582.698135 236.261252 
L 585.180165 256.782121 
L 587.464208 243.091569 
L 589.946031 256.768914 
L 592.651924 245.703345 
L 595.0152 248.845764 
L 597.497423 230.473429 
L 599.743075 240.157515 
L 602.194299 254.797196 
L 604.666552 256.157465 
L 607.315179 242.049027 
L 609.705852 223.417717 
L 612.139097 253.615579 
L 614.73752 263.856684 
L 617.338949 238.91623 
L 619.820032 230.388761 
L 622.097918 271.309777 
L 624.422349 246.07369 
L 626.751294 218.347378 
L 629.232712 256.743153 
L 631.598495 249.021518 
L 633.954911 248.362831 
L 636.436614 230.434865 
L 639.141847 269.813195 
L 641.467109 246.134015 
L 643.794648 218.228732 
L 646.349309 261.272399 
L 648.713485 248.908888 
L 651.097192 222.858726 
L 653.478652 250.112289 
L 655.799504 273.964724 
L 658.514081 222.176052 
L 660.835883 274.022302 
L 663.153926 245.608921 
L 665.487942 218.774004 
L 668.003641 258.895904 
L 670.512955 258.499349 
L 672.877918 221.33806 
L 675.500161 240.311676 
L 677.882486 250.17209 
L 680.208101 246.159562 
L 682.690224 256.788028 
L 684.964255 242.335963 
L 687.261276 272.504413 
L 689.743004 230.436653 
L 692.212279 255.966283 
L 694.658441 227.757316 
L 696.972066 273.525003 
L 699.335068 248.826517 
L 701.93464 238.790672 
L 704.220477 243.226267 
L 706.548389 218.26023 
L 709.192235 266.448687 
L 711.580378 250.572908 
L 714.28657 245.721973 
L 716.768071 230.419865 
L 719.270555 258.072991 
L 721.633513 248.823449 
L 723.980518 219.858392 
L 726.304406 274.148592 
L 728.618368 245.31073 
L 730.943032 246.090674 
L 733.666624 222.813305 
L 736.366336 269.516863 
L 738.701665 246.860694 
L 741.132814 253.476671 
L 743.731839 238.753605 
L 746.449774 222.413905 
L 748.872923 279.90691 
L 751.472944 238.821022 
L 754.185506 246.118824 
L 756.518062 218.651408 
L 756.518062 218.651408 
" clip-path="url(#p6ec73a8f4b)" style="fill: none; stroke: #2ca02c; stroke-width: 1.5; stroke-linecap: square"/>
   </g>
   <g id="patch_3">
    <path d="M 57.53 414.72 
L 57.53 21.06 
" style="fill: none; stroke: #000000; stroke-width: 0.8; stroke-linejoin: miter; stroke-linecap: square"/>
   </g>
   <g id="patch_4">
    <path d="M 754.59 414.72 
L 754.59 21.06 
" style="fill: none; stroke: #000000; stroke-width: 0.8; stroke-linejoin: miter; stroke-linecap: square"/>
   </g>
   <g id="patch_5">
    <path d="M 57.53 414.72 
L 754.59 414.72 
" style="fill: none; stroke: #000000; stroke-width: 0.8; stroke-linejoin: miter; stroke-linecap: square"/>
   </g>
   <g id="patch_6">
    <path d="M 57.53 21.06 
L 754.59 21.06 
" style="fill: none; stroke: #000000; stroke-width: 0.8; stroke-linejoin: miter; stroke-linecap: square"/>
   </g>
   <g id="legend_1">
    <g id="patch_7">
     <path d="M 81.163711 548.599419 
L 730.956289 548.599419 
Q 733.856289 548.599419 733.856289 545.699419 
L 733.856289 472.1092 
Q 733.856289 469.2092 730.956289 469.2092 
L 81.163711 469.2092 
Q 78.263711 469.2092 78.263711 472.1092 
L 78.263711 545.699419 
Q 78.263711 548.599419 81.163711 548.599419 
z
" style="fill: #ffffff; opacity: 0.8; stroke: #cccccc; stroke-linejoin: miter"/>
    </g>
    <g id="line2d_35">
     <path d="M 84.063711 490.578122 
L 98.563711 490.578122 
L 113.063711 490.578122 
" style="fill: none; stroke: #ff7f0e; stroke-width: 1.5; stroke-linecap: square"/>
    </g>
    <g id="text_18">
     <!-- Camera 1 (no Packet Report export) -->
     <g transform="translate(124.663711 486.026934) scale(0.145 -0.145)">
      <defs>
       <path id="DejaVuSans-43" d="M 4122 4306 
L 4122 3641 
Q 3803 3938 3442 4084 
Q 3081 4231 2675 4231 
Q 1875 4231 1450 3742 
Q 1025 3253 1025 2328 
Q 1025 1406 1450 917 
Q 1875 428 2675 428 
Q 3081 428 3442 575 
Q 3803 722 4122 1019 
L 4122 359 
Q 3791 134 3420 21 
Q 3050 -91 2638 -91 
Q 1578 -91 968 557 
Q 359 1206 359 2328 
Q 359 3453 968 4101 
Q 1578 4750 2638 4750 
Q 3056 4750 3426 4639 
Q 3797 4528 4122 4306 
z
" transform="scale(0.015625)"/>
       <path id="DejaVuSans-72" d="M 2631 2963 
Q 2534 3019 2420 3045 
Q 2306 3072 2169 3072 
Q 1681 3072 1420 2755 
Q 1159 2438 1159 1844 
L 1159 0 
L 581 0 
L 581 3500 
L 1159 3500 
L 1159 2956 
Q 1341 3275 1631 3429 
Q 1922 3584 2338 3584 
Q 2397 3584 2469 3576 
Q 2541 3569 2628 3553 
L 2631 2963 
z
" transform="scale(0.015625)"/>
       <path id="DejaVuSans-6e" d="M 3513 2113 
L 3513 0 
L 2938 0 
L 2938 2094 
Q 2938 2591 2744 2837 
Q 2550 3084 2163 3084 
Q 1697 3084 1428 2787 
Q 1159 2491 1159 1978 
L 1159 0 
L 581 0 
L 581 3500 
L 1159 3500 
L 1159 2956 
Q 1366 3272 1645 3428 
Q 1925 3584 2291 3584 
Q 2894 3584 3203 3211 
Q 3513 2838 3513 2113 
z
" transform="scale(0.015625)"/>
       <path id="DejaVuSans-6f" d="M 1959 3097 
Q 1497 3097 1228 2736 
Q 959 2375 959 1747 
Q 959 1119 1226 758 
Q 1494 397 1959 397 
Q 2419 397 2687 759 
Q 2956 1122 2956 1747 
Q 2956 2369 2687 2733 
Q 2419 3097 1959 3097 
z
M 1959 3584 
Q 2709 3584 3137 3096 
Q 3566 2609 3566 1747 
Q 3566 888 3137 398 
Q 2709 -91 1959 -91 
Q 1206 -91 779 398 
Q 353 888 353 1747 
Q 353 2609 779 3096 
Q 1206 3584 1959 3584 
z
" transform="scale(0.015625)"/>
       <path id="DejaVuSans-78" d="M 3513 3500 
L 2247 1797 
L 3578 0 
L 2900 0 
L 1881 1375 
L 863 0 
L 184 0 
L 1544 1831 
L 300 3500 
L 978 3500 
L 1906 2253 
L 2834 3500 
L 3513 3500 
z
" transform="scale(0.015625)"/>
      </defs>
      <use xlink:href="#DejaVuSans-43"/>
      <use xlink:href="#DejaVuSans-61" x="69.824219"/>
      <use xlink:href="#DejaVuSans-6d" x="131.103516"/>
      <use xlink:href="#DejaVuSans-65" x="228.515625"/>
      <use xlink:href="#DejaVuSans-72" x="290.039062"/>
      <use xlink:href="#DejaVuSans-61" x="331.152344"/>
      <use xlink:href="#DejaVuSans-20" x="392.431641"/>
      <use xlink:href="#DejaVuSans-31" x="424.21875"/>
      <use xlink:href="#DejaVuSans-20" x="487.841797"/>
      <use xlink:href="#DejaVuSans-28" x="519.628906"/>
      <use xlink:href="#DejaVuSans-6e" x="558.642578"/>
      <use xlink:href="#DejaVuSans-6f" x="622.021484"/>
      <use xlink:href="#DejaVuSans-20" x="683.203125"/>
      <use xlink:href="#DejaVuSans-50" x="714.990234"/>
      <use xlink:href="#DejaVuSans-61" x="770.792969"/>
      <use xlink:href="#DejaVuSans-63" x="832.072266"/>
      <use xlink:href="#DejaVuSans-6b" x="887.052734"/>
      <use xlink:href="#DejaVuSans-65" x="941.337891"/>
      <use xlink:href="#DejaVuSans-74" x="1002.861328"/>
      <use xlink:href="#DejaVuSans-20" x="1042.070312"/>
      <use xlink:href="#DejaVuSans-52" x="1073.857422"/>
      <use xlink:href="#DejaVuSans-65" x="1138.839844"/>
      <use xlink:href="#DejaVuSans-70" x="1200.363281"/>
      <use xlink:href="#DejaVuSans-6f" x="1263.839844"/>
      <use xlink:href="#DejaVuSans-72" x="1325.021484"/>
      <use xlink:href="#DejaVuSans-74" x="1366.134766"/>
      <use xlink:href="#DejaVuSans-20" x="1405.34375"/>
      <use xlink:href="#DejaVuSans-65" x="1437.130859"/>
      <use xlink:href="#DejaVuSans-78" x="1496.904297"/>
      <use xlink:href="#DejaVuSans-70" x="1556.083984"/>
      <use xlink:href="#DejaVuSans-6f" x="1619.560547"/>
      <use xlink:href="#DejaVuSans-72" x="1680.742188"/>
      <use xlink:href="#DejaVuSans-74" x="1721.855469"/>
      <use xlink:href="#DejaVuSans-29" x="1761.064453"/>
     </g>
     <!-- (mean error deviation: 2.06) -->
     <g transform="translate(124.663711 502.263762) scale(0.145 -0.145)">
      <defs>
       <path id="DejaVuSans-64" d="M 2906 2969 
L 2906 4863 
L 3481 4863 
L 3481 0 
L 2906 0 
L 2906 525 
Q 2725 213 2448 61 
Q 2172 -91 1784 -91 
Q 1150 -91 751 415 
Q 353 922 353 1747 
Q 353 2572 751 3078 
Q 1150 3584 1784 3584 
Q 2172 3584 2448 3432 
Q 2725 3281 2906 2969 
z
M 947 1747 
Q 947 1113 1208 752 
Q 1469 391 1925 391 
Q 2381 391 2643 752 
Q 2906 1113 2906 1747 
Q 2906 2381 2643 2742 
Q 2381 3103 1925 3103 
Q 1469 3103 1208 2742 
Q 947 2381 947 1747 
z
" transform="scale(0.015625)"/>
       <path id="DejaVuSans-76" d="M 191 3500 
L 800 3500 
L 1894 563 
L 2988 3500 
L 3597 3500 
L 2284 0 
L 1503 0 
L 191 3500 
z
" transform="scale(0.015625)"/>
       <path id="DejaVuSans-3a" d="M 750 794 
L 1409 794 
L 1409 0 
L 750 0 
L 750 794 
z
M 750 3309 
L 1409 3309 
L 1409 2516 
L 750 2516 
L 750 3309 
z
" transform="scale(0.015625)"/>
       <path id="DejaVuSans-2e" d="M 684 794 
L 1344 794 
L 1344 0 
L 684 0 
L 684 794 
z
" transform="scale(0.015625)"/>
      </defs>
      <use xlink:href="#DejaVuSans-28"/>
      <use xlink:href="#DejaVuSans-6d" x="39.013672"/>
      <use xlink:href="#DejaVuSans-65" x="136.425781"/>
      <use xlink:href="#DejaVuSans-61" x="197.949219"/>
      <use xlink:href="#DejaVuSans-6e" x="259.228516"/>
      <use xlink:href="#DejaVuSans-20" x="322.607422"/>
      <use xlink:href="#DejaVuSans-65" x="354.394531"/>
      <use xlink:href="#DejaVuSans-72" x="415.917969"/>
      <use xlink:href="#DejaVuSans-72" x="455.28125"/>
      <use xlink:href="#DejaVuSans-6f" x="494.144531"/>
      <use xlink:href="#DejaVuSans-72" x="555.326172"/>
      <use xlink:href="#DejaVuSans-20" x="596.439453"/>
      <use xlink:href="#DejaVuSans-64" x="628.226562"/>
      <use xlink:href="#DejaVuSans-65" x="691.703125"/>
      <use xlink:href="#DejaVuSans-76" x="753.226562"/>
      <use xlink:href="#DejaVuSans-69" x="812.40625"/>
      <use xlink:href="#DejaVuSans-61" x="840.189453"/>
      <use xlink:href="#DejaVuSans-74" x="901.46875"/>
      <use xlink:href="#DejaVuSans-69" x="940.677734"/>
      <use xlink:href="#DejaVuSans-6f" x="968.460938"/>
      <use xlink:href="#DejaVuSans-6e" x="1029.642578"/>
      <use xlink:href="#DejaVuSans-3a" x="1093.021484"/>
      <use xlink:href="#DejaVuSans-20" x="1126.712891"/>
      <use xlink:href="#DejaVuSans-32" x="1158.5"/>
      <use xlink:href="#DejaVuSans-2e" x="1222.123047"/>
      <use xlink:href="#DejaVuSans-30" x="1253.910156"/>
      <use xlink:href="#DejaVuSans-36" x="1317.533203"/>
      <use xlink:href="#DejaVuSans-29" x="1381.15625"/>
     </g>
    </g>
    <g id="line2d_36">
     <path d="M 84.063711 528.098231 
L 98.563711 528.098231 
L 113.063711 528.098231 
" style="fill: none; stroke: #1f77b4; stroke-width: 1.5; stroke-linecap: square"/>
    </g>
    <g id="text_19">
     <!-- Camera 2 (no Packet Report export) -->
     <g transform="translate(124.663711 523.547044) scale(0.145 -0.145)">
      <use xlink:href="#DejaVuSans-43"/>
      <use xlink:href="#DejaVuSans-61" x="69.824219"/>
      <use xlink:href="#DejaVuSans-6d" x="131.103516"/>
      <use xlink:href="#DejaVuSans-65" x="228.515625"/>
      <use xlink:href="#DejaVuSans-72" x="290.039062"/>
      <use xlink:href="#DejaVuSans-61" x="331.152344"/>
      <use xlink:href="#DejaVuSans-20" x="392.431641"/>
      <use xlink:href="#DejaVuSans-32" x="424.21875"/>
      <use xlink:href="#DejaVuSans-20" x="487.841797"/>
      <use xlink:href="#DejaVuSans-28" x="519.628906"/>
      <use xlink:href="#DejaVuSans-6e" x="558.642578"/>
      <use xlink:href="#DejaVuSans-6f" x="622.021484"/>
      <use xlink:href="#DejaVuSans-20" x="683.203125"/>
      <use xlink:href="#DejaVuSans-50" x="714.990234"/>
      <use xlink:href="#DejaVuSans-61" x="770.792969"/>
      <use xlink:href="#DejaVuSans-63" x="832.072266"/>
      <use xlink:href="#DejaVuSans-6b" x="887.052734"/>
      <use xlink:href="#DejaVuSans-65" x="941.337891"/>
      <use xlink:href="#DejaVuSans-74" x="1002.861328"/>
      <use xlink:href="#DejaVuSans-20" x="1042.070312"/>
      <use xlink:href="#DejaVuSans-52" x="1073.857422"/>
      <use xlink:href="#DejaVuSans-65" x="1138.839844"/>
      <use xlink:href="#DejaVuSans-70" x="1200.363281"/>
      <use xlink:href="#DejaVuSans-6f" x="1263.839844"/>
      <use xlink:href="#DejaVuSans-72" x="1325.021484"/>
      <use xlink:href="#DejaVuSans-74" x="1366.134766"/>
      <use xlink:href="#DejaVuSans-20" x="1405.34375"/>
      <use xlink:href="#DejaVuSans-65" x="1437.130859"/>
      <use xlink:href="#DejaVuSans-78" x="1496.904297"/>
      <use xlink:href="#DejaVuSans-70" x="1556.083984"/>
      <use xlink:href="#DejaVuSans-6f" x="1619.560547"/>
      <use xlink:href="#DejaVuSans-72" x="1680.742188"/>
      <use xlink:href="#DejaVuSans-74" x="1721.855469"/>
      <use xlink:href="#DejaVuSans-29" x="1761.064453"/>
     </g>
     <!-- (mean error deviation: 1.96) -->
     <g transform="translate(124.663711 539.783872) scale(0.145 -0.145)">
      <defs>
       <path id="DejaVuSans-39" d="M 703 97 
L 703 672 
Q 941 559 1184 500 
Q 1428 441 1663 441 
Q 2288 441 2617 861 
Q 2947 1281 2994 2138 
Q 2813 1869 2534 1725 
Q 2256 1581 1919 1581 
Q 1219 1581 811 2004 
Q 403 2428 403 3163 
Q 403 3881 828 4315 
Q 1253 4750 1959 4750 
Q 2769 4750 3195 4129 
Q 3622 3509 3622 2328 
Q 3622 1225 3098 567 
Q 2575 -91 1691 -91 
Q 1453 -91 1209 -44 
Q 966 3 703 97 
z
M 1959 2075 
Q 2384 2075 2632 2365 
Q 2881 2656 2881 3163 
Q 2881 3666 2632 3958 
Q 2384 4250 1959 4250 
Q 1534 4250 1286 3958 
Q 1038 3666 1038 3163 
Q 1038 2656 1286 2365 
Q 1534 2075 1959 2075 
z
" transform="scale(0.015625)"/>
      </defs>
      <use xlink:href="#DejaVuSans-28"/>
      <use xlink:href="#DejaVuSans-6d" x="39.013672"/>
      <use xlink:href="#DejaVuSans-65" x="136.425781"/>
      <use xlink:href="#DejaVuSans-61" x="197.949219"/>
      <use xlink:href="#DejaVuSans-6e" x="259.228516"/>
      <use xlink:href="#DejaVuSans-20" x="322.607422"/>
      <use xlink:href="#DejaVuSans-65" x="354.394531"/>
      <use xlink:href="#DejaVuSans-72" x="415.917969"/>
      <use xlink:href="#DejaVuSans-72" x="455.28125"/>
      <use xlink:href="#DejaVuSans-6f" x="494.144531"/>
      <use xlink:href="#DejaVuSans-72" x="555.326172"/>
      <use xlink:href="#DejaVuSans-20" x="596.439453"/>
      <use xlink:href="#DejaVuSans-64" x="628.226562"/>
      <use xlink:href="#DejaVuSans-65" x="691.703125"/>
      <use xlink:href="#DejaVuSans-76" x="753.226562"/>
      <use xlink:href="#DejaVuSans-69" x="812.40625"/>
      <use xlink:href="#DejaVuSans-61" x="840.189453"/>
      <use xlink:href="#DejaVuSans-74" x="901.46875"/>
      <use xlink:href="#DejaVuSans-69" x="940.677734"/>
      <use xlink:href="#DejaVuSans-6f" x="968.460938"/>
      <use xlink:href="#DejaVuSans-6e" x="1029.642578"/>
      <use xlink:href="#DejaVuSans-3a" x="1093.021484"/>
      <use xlink:href="#DejaVuSans-20" x="1126.712891"/>
      <use xlink:href="#DejaVuSans-31" x="1158.5"/>
      <use xlink:href="#DejaVuSans-2e" x="1222.123047"/>
      <use xlink:href="#DejaVuSans-39" x="1253.910156"/>
      <use xlink:href="#DejaVuSans-36" x="1317.533203"/>
      <use xlink:href="#DejaVuSans-29" x="1381.15625"/>
     </g>
    </g>
    <g id="line2d_37">
     <path d="M 414.677305 490.578122 
L 429.177305 490.578122 
L 443.677305 490.578122 
" style="fill: none; stroke: #d62728; stroke-width: 1.5; stroke-linecap: square"/>
    </g>
    <g id="text_20">
     <!-- Camera 1 (incl. Packet Report export) -->
     <g transform="translate(455.277305 486.026934) scale(0.145 -0.145)">
      <defs>
       <path id="DejaVuSans-6c" d="M 603 4863 
L 1178 4863 
L 1178 0 
L 603 0 
L 603 4863 
z
" transform="scale(0.015625)"/>
      </defs>
      <use xlink:href="#DejaVuSans-43"/>
      <use xlink:href="#DejaVuSans-61" x="69.824219"/>
      <use xlink:href="#DejaVuSans-6d" x="131.103516"/>
      <use xlink:href="#DejaVuSans-65" x="228.515625"/>
      <use xlink:href="#DejaVuSans-72" x="290.039062"/>
      <use xlink:href="#DejaVuSans-61" x="331.152344"/>
      <use xlink:href="#DejaVuSans-20" x="392.431641"/>
      <use xlink:href="#DejaVuSans-31" x="424.21875"/>
      <use xlink:href="#DejaVuSans-20" x="487.841797"/>
      <use xlink:href="#DejaVuSans-28" x="519.628906"/>
      <use xlink:href="#DejaVuSans-69" x="558.642578"/>
      <use xlink:href="#DejaVuSans-6e" x="586.425781"/>
      <use xlink:href="#DejaVuSans-63" x="649.804688"/>
      <use xlink:href="#DejaVuSans-6c" x="704.785156"/>
      <use xlink:href="#DejaVuSans-2e" x="732.568359"/>
      <use xlink:href="#DejaVuSans-20" x="764.355469"/>
      <use xlink:href="#DejaVuSans-50" x="796.142578"/>
      <use xlink:href="#DejaVuSans-61" x="851.945312"/>
      <use xlink:href="#DejaVuSans-63" x="913.224609"/>
      <use xlink:href="#DejaVuSans-6b" x="968.205078"/>
      <use xlink:href="#DejaVuSans-65" x="1022.490234"/>
      <use xlink:href="#DejaVuSans-74" x="1084.013672"/>
      <use xlink:href="#DejaVuSans-20" x="1123.222656"/>
      <use xlink:href="#DejaVuSans-52" x="1155.009766"/>
      <use xlink:href="#DejaVuSans-65" x="1219.992188"/>
      <use xlink:href="#DejaVuSans-70" x="1281.515625"/>
      <use xlink:href="#DejaVuSans-6f" x="1344.992188"/>
      <use xlink:href="#DejaVuSans-72" x="1406.173828"/>
      <use xlink:href="#DejaVuSans-74" x="1447.287109"/>
      <use xlink:href="#DejaVuSans-20" x="1486.496094"/>
      <use xlink:href="#DejaVuSans-65" x="1518.283203"/>
      <use xlink:href="#DejaVuSans-78" x="1578.056641"/>
      <use xlink:href="#DejaVuSans-70" x="1637.236328"/>
      <use xlink:href="#DejaVuSans-6f" x="1700.712891"/>
      <use xlink:href="#DejaVuSans-72" x="1761.894531"/>
      <use xlink:href="#DejaVuSans-74" x="1803.007812"/>
      <use xlink:href="#DejaVuSans-29" x="1842.216797"/>
     </g>
     <!-- (mean error deviation: 2.50) -->
     <g transform="translate(455.277305 502.263762) scale(0.145 -0.145)">
      <use xlink:href="#DejaVuSans-28"/>
      <use xlink:href="#DejaVuSans-6d" x="39.013672"/>
      <use xlink:href="#DejaVuSans-65" x="136.425781"/>
      <use xlink:href="#DejaVuSans-61" x="197.949219"/>
      <use xlink:href="#DejaVuSans-6e" x="259.228516"/>
      <use xlink:href="#DejaVuSans-20" x="322.607422"/>
      <use xlink:href="#DejaVuSans-65" x="354.394531"/>
      <use xlink:href="#DejaVuSans-72" x="415.917969"/>
      <use xlink:href="#DejaVuSans-72" x="455.28125"/>
      <use xlink:href="#DejaVuSans-6f" x="494.144531"/>
      <use xlink:href="#DejaVuSans-72" x="555.326172"/>
      <use xlink:href="#DejaVuSans-20" x="596.439453"/>
      <use xlink:href="#DejaVuSans-64" x="628.226562"/>
      <use xlink:href="#DejaVuSans-65" x="691.703125"/>
      <use xlink:href="#DejaVuSans-76" x="753.226562"/>
      <use xlink:href="#DejaVuSans-69" x="812.40625"/>
      <use xlink:href="#DejaVuSans-61" x="840.189453"/>
      <use xlink:href="#DejaVuSans-74" x="901.46875"/>
      <use xlink:href="#DejaVuSans-69" x="940.677734"/>
      <use xlink:href="#DejaVuSans-6f" x="968.460938"/>
      <use xlink:href="#DejaVuSans-6e" x="1029.642578"/>
      <use xlink:href="#DejaVuSans-3a" x="1093.021484"/>
      <use xlink:href="#DejaVuSans-20" x="1126.712891"/>
      <use xlink:href="#DejaVuSans-32" x="1158.5"/>
      <use xlink:href="#DejaVuSans-2e" x="1222.123047"/>
      <use xlink:href="#DejaVuSans-35" x="1253.910156"/>
      <use xlink:href="#DejaVuSans-30" x="1317.533203"/>
      <use xlink:href="#DejaVuSans-29" x="1381.15625"/>
     </g>
    </g>
    <g id="line2d_38">
     <path d="M 414.677305 528.098231 
L 429.177305 528.098231 
L 443.677305 528.098231 
" style="fill: none; stroke: #2ca02c; stroke-width: 1.5; stroke-linecap: square"/>
    </g>
    <g id="text_21">
     <!-- Camera 2 (incl. Packet Report export) -->
     <g transform="translate(455.277305 523.547044) scale(0.145 -0.145)">
      <use xlink:href="#DejaVuSans-43"/>
      <use xlink:href="#DejaVuSans-61" x="69.824219"/>
      <use xlink:href="#DejaVuSans-6d" x="131.103516"/>
      <use xlink:href="#DejaVuSans-65" x="228.515625"/>
      <use xlink:href="#DejaVuSans-72" x="290.039062"/>
      <use xlink:href="#DejaVuSans-61" x="331.152344"/>
      <use xlink:href="#DejaVuSans-20" x="392.431641"/>
      <use xlink:href="#DejaVuSans-32" x="424.21875"/>
      <use xlink:href="#DejaVuSans-20" x="487.841797"/>
      <use xlink:href="#DejaVuSans-28" x="519.628906"/>
      <use xlink:href="#DejaVuSans-69" x="558.642578"/>
      <use xlink:href="#DejaVuSans-6e" x="586.425781"/>
      <use xlink:href="#DejaVuSans-63" x="649.804688"/>
      <use xlink:href="#DejaVuSans-6c" x="704.785156"/>
      <use xlink:href="#DejaVuSans-2e" x="732.568359"/>
      <use xlink:href="#DejaVuSans-20" x="764.355469"/>
      <use xlink:href="#DejaVuSans-50" x="796.142578"/>
      <use xlink:href="#DejaVuSans-61" x="851.945312"/>
      <use xlink:href="#DejaVuSans-63" x="913.224609"/>
      <use xlink:href="#DejaVuSans-6b" x="968.205078"/>
      <use xlink:href="#DejaVuSans-65" x="1022.490234"/>
      <use xlink:href="#DejaVuSans-74" x="1084.013672"/>
      <use xlink:href="#DejaVuSans-20" x="1123.222656"/>
      <use xlink:href="#DejaVuSans-52" x="1155.009766"/>
      <use xlink:href="#DejaVuSans-65" x="1219.992188"/>
      <use xlink:href="#DejaVuSans-70" x="1281.515625"/>
      <use xlink:href="#DejaVuSans-6f" x="1344.992188"/>
      <use xlink:href="#DejaVuSans-72" x="1406.173828"/>
      <use xlink:href="#DejaVuSans-74" x="1447.287109"/>
      <use xlink:href="#DejaVuSans-20" x="1486.496094"/>
      <use xlink:href="#DejaVuSans-65" x="1518.283203"/>
      <use xlink:href="#DejaVuSans-78" x="1578.056641"/>
      <use xlink:href="#DejaVuSans-70" x="1637.236328"/>
      <use xlink:href="#DejaVuSans-6f" x="1700.712891"/>
      <use xlink:href="#DejaVuSans-72" x="1761.894531"/>
      <use xlink:href="#DejaVuSans-74" x="1803.007812"/>
      <use xlink:href="#DejaVuSans-29" x="1842.216797"/>
     </g>
     <!-- (mean error deviation: 2.43) -->
     <g transform="translate(455.277305 539.783872) scale(0.145 -0.145)">
      <use xlink:href="#DejaVuSans-28"/>
      <use xlink:href="#DejaVuSans-6d" x="39.013672"/>
      <use xlink:href="#DejaVuSans-65" x="136.425781"/>
      <use xlink:href="#DejaVuSans-61" x="197.949219"/>
      <use xlink:href="#DejaVuSans-6e" x="259.228516"/>
      <use xlink:href="#DejaVuSans-20" x="322.607422"/>
      <use xlink:href="#DejaVuSans-65" x="354.394531"/>
      <use xlink:href="#DejaVuSans-72" x="415.917969"/>
      <use xlink:href="#DejaVuSans-72" x="455.28125"/>
      <use xlink:href="#DejaVuSans-6f" x="494.144531"/>
      <use xlink:href="#DejaVuSans-72" x="555.326172"/>
      <use xlink:href="#DejaVuSans-20" x="596.439453"/>
      <use xlink:href="#DejaVuSans-64" x="628.226562"/>
      <use xlink:href="#DejaVuSans-65" x="691.703125"/>
      <use xlink:href="#DejaVuSans-76" x="753.226562"/>
      <use xlink:href="#DejaVuSans-69" x="812.40625"/>
      <use xlink:href="#DejaVuSans-61" x="840.189453"/>
      <use xlink:href="#DejaVuSans-74" x="901.46875"/>
      <use xlink:href="#DejaVuSans-69" x="940.677734"/>
      <use xlink:href="#DejaVuSans-6f" x="968.460938"/>
      <use xlink:href="#DejaVuSans-6e" x="1029.642578"/>
      <use xlink:href="#DejaVuSans-3a" x="1093.021484"/>
      <use xlink:href="#DejaVuSans-20" x="1126.712891"/>
      <use xlink:href="#DejaVuSans-32" x="1158.5"/>
      <use xlink:href="#DejaVuSans-2e" x="1222.123047"/>
      <use xlink:href="#DejaVuSans-34" x="1253.910156"/>
      <use xlink:href="#DejaVuSans-33" x="1317.533203"/>
      <use xlink:href="#DejaVuSans-29" x="1381.15625"/>
     </g>
    </g>
   </g>
  </g>
 </g>
 <defs>
  <clipPath id="p6ec73a8f4b">
   <rect x="57.53" y="21.06" width="697.06" height="393.66"/>
  </clipPath>
 </defs>
</svg>
