<?xml version="1.0" encoding="utf-8" standalone="no"?>
<!DOCTYPE svg PUBLIC "-//W3C//DTD SVG 1.1//EN"
  "http://www.w3.org/Graphics/SVG/1.1/DTD/svg11.dtd">
<svg xmlns:xlink="http://www.w3.org/1999/xlink" width="1008pt" height="720pt" viewBox="0 0 1008 720" xmlns="http://www.w3.org/2000/svg" version="1.1">
 <metadata>
  <rdf:RDF xmlns:dc="http://purl.org/dc/elements/1.1/" xmlns:cc="http://creativecommons.org/ns#" xmlns:rdf="http://www.w3.org/1999/02/22-rdf-syntax-ns#">
   <cc:Work>
    <dc:type rdf:resource="http://purl.org/dc/dcmitype/StillImage"/>
    <dc:date>2023-04-19T17:14:04.362612</dc:date>
    <dc:format>image/svg+xml</dc:format>
    <dc:creator>
     <cc:Agent>
      <dc:title>Matplotlib v3.6.2, https://matplotlib.org/</dc:title>
     </cc:Agent>
    </dc:creator>
   </cc:Work>
  </rdf:RDF>
 </metadata>
 <defs>
  <style type="text/css">*{stroke-linejoin: round; stroke-linecap: butt}</style>
 </defs>
 <g id="figure_1">
  <g id="patch_1">
   <path d="M 0 720 
L 1008 720 
L 1008 0 
L 0 0 
z
" style="fill: #ffffff"/>
  </g>
  <g id="axes_1">
   <g id="patch_2">
    <path d="M 76.37 658.84 
L 842.7555 658.84 
L 842.7555 46.08 
L 76.37 46.08 
z
" style="fill: #ffffff"/>
   </g>
   <g id="matplotlib.axis_1">
    <g id="xtick_1">
     <g id="line2d_1">
      <path d="M 76.37 658.84 
L 76.37 46.08 
" clip-path="url(#p6ab8712300)" style="fill: none; stroke: #b0b0b0; stroke-width: 0.8; stroke-linecap: square"/>
     </g>
     <g id="line2d_2">
      <defs>
       <path id="m9344390879" d="M 0 0 
L 0 3.5 
" style="stroke: #000000; stroke-width: 0.8"/>
      </defs>
      <g>
       <use xlink:href="#m9344390879" x="76.37" y="658.84" style="stroke: #000000; stroke-width: 0.8"/>
      </g>
     </g>
     <g id="text_1">
      <!-- 0 -->
      <g transform="translate(73.18875 673.438437) scale(0.1 -0.1)">
       <defs>
        <path id="DejaVuSans-30" d="M 2034 4250 
Q 1547 4250 1301 3770 
Q 1056 3291 1056 2328 
Q 1056 1369 1301 889 
Q 1547 409 2034 409 
Q 2525 409 2770 889 
Q 3016 1369 3016 2328 
Q 3016 3291 2770 3770 
Q 2525 4250 2034 4250 
z
M 2034 4750 
Q 2819 4750 3233 4129 
Q 3647 3509 3647 2328 
Q 3647 1150 3233 529 
Q 2819 -91 2034 -91 
Q 1250 -91 836 529 
Q 422 1150 422 2328 
Q 422 3509 836 4129 
Q 1250 4750 2034 4750 
z
" transform="scale(0.015625)"/>
       </defs>
       <use xlink:href="#DejaVuSans-30"/>
      </g>
     </g>
    </g>
    <g id="xtick_2">
     <g id="line2d_3">
      <path d="M 204.100917 658.84 
L 204.100917 46.08 
" clip-path="url(#p6ab8712300)" style="fill: none; stroke: #b0b0b0; stroke-width: 0.8; stroke-linecap: square"/>
     </g>
     <g id="line2d_4">
      <g>
       <use xlink:href="#m9344390879" x="204.100917" y="658.84" style="stroke: #000000; stroke-width: 0.8"/>
      </g>
     </g>
     <g id="text_2">
      <!-- 10 -->
      <g transform="translate(197.738417 673.438437) scale(0.1 -0.1)">
       <defs>
        <path id="DejaVuSans-31" d="M 794 531 
L 1825 531 
L 1825 4091 
L 703 3866 
L 703 4441 
L 1819 4666 
L 2450 4666 
L 2450 531 
L 3481 531 
L 3481 0 
L 794 0 
L 794 531 
z
" transform="scale(0.015625)"/>
       </defs>
       <use xlink:href="#DejaVuSans-31"/>
       <use xlink:href="#DejaVuSans-30" x="63.623047"/>
      </g>
     </g>
    </g>
    <g id="xtick_3">
     <g id="line2d_5">
      <path d="M 331.831833 658.84 
L 331.831833 46.08 
" clip-path="url(#p6ab8712300)" style="fill: none; stroke: #b0b0b0; stroke-width: 0.8; stroke-linecap: square"/>
     </g>
     <g id="line2d_6">
      <g>
       <use xlink:href="#m9344390879" x="331.831833" y="658.84" style="stroke: #000000; stroke-width: 0.8"/>
      </g>
     </g>
     <g id="text_3">
      <!-- 20 -->
      <g transform="translate(325.469333 673.438437) scale(0.1 -0.1)">
       <defs>
        <path id="DejaVuSans-32" d="M 1228 531 
L 3431 531 
L 3431 0 
L 469 0 
L 469 531 
Q 828 903 1448 1529 
Q 2069 2156 2228 2338 
Q 2531 2678 2651 2914 
Q 2772 3150 2772 3378 
Q 2772 3750 2511 3984 
Q 2250 4219 1831 4219 
Q 1534 4219 1204 4116 
Q 875 4013 500 3803 
L 500 4441 
Q 881 4594 1212 4672 
Q 1544 4750 1819 4750 
Q 2544 4750 2975 4387 
Q 3406 4025 3406 3419 
Q 3406 3131 3298 2873 
Q 3191 2616 2906 2266 
Q 2828 2175 2409 1742 
Q 1991 1309 1228 531 
z
" transform="scale(0.015625)"/>
       </defs>
       <use xlink:href="#DejaVuSans-32"/>
       <use xlink:href="#DejaVuSans-30" x="63.623047"/>
      </g>
     </g>
    </g>
    <g id="xtick_4">
     <g id="line2d_7">
      <path d="M 459.56275 658.84 
L 459.56275 46.08 
" clip-path="url(#p6ab8712300)" style="fill: none; stroke: #b0b0b0; stroke-width: 0.8; stroke-linecap: square"/>
     </g>
     <g id="line2d_8">
      <g>
       <use xlink:href="#m9344390879" x="459.56275" y="658.84" style="stroke: #000000; stroke-width: 0.8"/>
      </g>
     </g>
     <g id="text_4">
      <!-- 30 -->
      <g transform="translate(453.20025 673.438437) scale(0.1 -0.1)">
       <defs>
        <path id="DejaVuSans-33" d="M 2597 2516 
Q 3050 2419 3304 2112 
Q 3559 1806 3559 1356 
Q 3559 666 3084 287 
Q 2609 -91 1734 -91 
Q 1441 -91 1130 -33 
Q 819 25 488 141 
L 488 750 
Q 750 597 1062 519 
Q 1375 441 1716 441 
Q 2309 441 2620 675 
Q 2931 909 2931 1356 
Q 2931 1769 2642 2001 
Q 2353 2234 1838 2234 
L 1294 2234 
L 1294 2753 
L 1863 2753 
Q 2328 2753 2575 2939 
Q 2822 3125 2822 3475 
Q 2822 3834 2567 4026 
Q 2313 4219 1838 4219 
Q 1578 4219 1281 4162 
Q 984 4106 628 3988 
L 628 4550 
Q 988 4650 1302 4700 
Q 1616 4750 1894 4750 
Q 2613 4750 3031 4423 
Q 3450 4097 3450 3541 
Q 3450 3153 3228 2886 
Q 3006 2619 2597 2516 
z
" transform="scale(0.015625)"/>
       </defs>
       <use xlink:href="#DejaVuSans-33"/>
       <use xlink:href="#DejaVuSans-30" x="63.623047"/>
      </g>
     </g>
    </g>
    <g id="xtick_5">
     <g id="line2d_9">
      <path d="M 587.293667 658.84 
L 587.293667 46.08 
" clip-path="url(#p6ab8712300)" style="fill: none; stroke: #b0b0b0; stroke-width: 0.8; stroke-linecap: square"/>
     </g>
     <g id="line2d_10">
      <g>
       <use xlink:href="#m9344390879" x="587.293667" y="658.84" style="stroke: #000000; stroke-width: 0.8"/>
      </g>
     </g>
     <g id="text_5">
      <!-- 40 -->
      <g transform="translate(580.931167 673.438437) scale(0.1 -0.1)">
       <defs>
        <path id="DejaVuSans-34" d="M 2419 4116 
L 825 1625 
L 2419 1625 
L 2419 4116 
z
M 2253 4666 
L 3047 4666 
L 3047 1625 
L 3713 1625 
L 3713 1100 
L 3047 1100 
L 3047 0 
L 2419 0 
L 2419 1100 
L 313 1100 
L 313 1709 
L 2253 4666 
z
" transform="scale(0.015625)"/>
       </defs>
       <use xlink:href="#DejaVuSans-34"/>
       <use xlink:href="#DejaVuSans-30" x="63.623047"/>
      </g>
     </g>
    </g>
    <g id="xtick_6">
     <g id="line2d_11">
      <path d="M 715.024583 658.84 
L 715.024583 46.08 
" clip-path="url(#p6ab8712300)" style="fill: none; stroke: #b0b0b0; stroke-width: 0.8; stroke-linecap: square"/>
     </g>
     <g id="line2d_12">
      <g>
       <use xlink:href="#m9344390879" x="715.024583" y="658.84" style="stroke: #000000; stroke-width: 0.8"/>
      </g>
     </g>
     <g id="text_6">
      <!-- 50 -->
      <g transform="translate(708.662083 673.438437) scale(0.1 -0.1)">
       <defs>
        <path id="DejaVuSans-35" d="M 691 4666 
L 3169 4666 
L 3169 4134 
L 1269 4134 
L 1269 2991 
Q 1406 3038 1543 3061 
Q 1681 3084 1819 3084 
Q 2600 3084 3056 2656 
Q 3513 2228 3513 1497 
Q 3513 744 3044 326 
Q 2575 -91 1722 -91 
Q 1428 -91 1123 -41 
Q 819 9 494 109 
L 494 744 
Q 775 591 1075 516 
Q 1375 441 1709 441 
Q 2250 441 2565 725 
Q 2881 1009 2881 1497 
Q 2881 1984 2565 2268 
Q 2250 2553 1709 2553 
Q 1456 2553 1204 2497 
Q 953 2441 691 2322 
L 691 4666 
z
" transform="scale(0.015625)"/>
       </defs>
       <use xlink:href="#DejaVuSans-35"/>
       <use xlink:href="#DejaVuSans-30" x="63.623047"/>
      </g>
     </g>
    </g>
    <g id="xtick_7">
     <g id="line2d_13">
      <path d="M 842.7555 658.84 
L 842.7555 46.08 
" clip-path="url(#p6ab8712300)" style="fill: none; stroke: #b0b0b0; stroke-width: 0.8; stroke-linecap: square"/>
     </g>
     <g id="line2d_14">
      <g>
       <use xlink:href="#m9344390879" x="842.7555" y="658.84" style="stroke: #000000; stroke-width: 0.8"/>
      </g>
     </g>
     <g id="text_7">
      <!-- 60 -->
      <g transform="translate(836.393 673.438437) scale(0.1 -0.1)">
       <defs>
        <path id="DejaVuSans-36" d="M 2113 2584 
Q 1688 2584 1439 2293 
Q 1191 2003 1191 1497 
Q 1191 994 1439 701 
Q 1688 409 2113 409 
Q 2538 409 2786 701 
Q 3034 994 3034 1497 
Q 3034 2003 2786 2293 
Q 2538 2584 2113 2584 
z
M 3366 4563 
L 3366 3988 
Q 3128 4100 2886 4159 
Q 2644 4219 2406 4219 
Q 1781 4219 1451 3797 
Q 1122 3375 1075 2522 
Q 1259 2794 1537 2939 
Q 1816 3084 2150 3084 
Q 2853 3084 3261 2657 
Q 3669 2231 3669 1497 
Q 3669 778 3244 343 
Q 2819 -91 2113 -91 
Q 1303 -91 875 529 
Q 447 1150 447 2328 
Q 447 3434 972 4092 
Q 1497 4750 2381 4750 
Q 2619 4750 2861 4703 
Q 3103 4656 3366 4563 
z
" transform="scale(0.015625)"/>
       </defs>
       <use xlink:href="#DejaVuSans-36"/>
       <use xlink:href="#DejaVuSans-30" x="63.623047"/>
      </g>
     </g>
    </g>
    <g id="text_8">
     <!-- Observed Time (s) -->
     <g transform="translate(413.58775 687.116562) scale(0.1 -0.1)">
      <defs>
       <path id="DejaVuSans-4f" d="M 2522 4238 
Q 1834 4238 1429 3725 
Q 1025 3213 1025 2328 
Q 1025 1447 1429 934 
Q 1834 422 2522 422 
Q 3209 422 3611 934 
Q 4013 1447 4013 2328 
Q 4013 3213 3611 3725 
Q 3209 4238 2522 4238 
z
M 2522 4750 
Q 3503 4750 4090 4092 
Q 4678 3434 4678 2328 
Q 4678 1225 4090 567 
Q 3503 -91 2522 -91 
Q 1538 -91 948 565 
Q 359 1222 359 2328 
Q 359 3434 948 4092 
Q 1538 4750 2522 4750 
z
" transform="scale(0.015625)"/>
       <path id="DejaVuSans-62" d="M 3116 1747 
Q 3116 2381 2855 2742 
Q 2594 3103 2138 3103 
Q 1681 3103 1420 2742 
Q 1159 2381 1159 1747 
Q 1159 1113 1420 752 
Q 1681 391 2138 391 
Q 2594 391 2855 752 
Q 3116 1113 3116 1747 
z
M 1159 2969 
Q 1341 3281 1617 3432 
Q 1894 3584 2278 3584 
Q 2916 3584 3314 3078 
Q 3713 2572 3713 1747 
Q 3713 922 3314 415 
Q 2916 -91 2278 -91 
Q 1894 -91 1617 61 
Q 1341 213 1159 525 
L 1159 0 
L 581 0 
L 581 4863 
L 1159 4863 
L 1159 2969 
z
" transform="scale(0.015625)"/>
       <path id="DejaVuSans-73" d="M 2834 3397 
L 2834 2853 
Q 2591 2978 2328 3040 
Q 2066 3103 1784 3103 
Q 1356 3103 1142 2972 
Q 928 2841 928 2578 
Q 928 2378 1081 2264 
Q 1234 2150 1697 2047 
L 1894 2003 
Q 2506 1872 2764 1633 
Q 3022 1394 3022 966 
Q 3022 478 2636 193 
Q 2250 -91 1575 -91 
Q 1294 -91 989 -36 
Q 684 19 347 128 
L 347 722 
Q 666 556 975 473 
Q 1284 391 1588 391 
Q 1994 391 2212 530 
Q 2431 669 2431 922 
Q 2431 1156 2273 1281 
Q 2116 1406 1581 1522 
L 1381 1569 
Q 847 1681 609 1914 
Q 372 2147 372 2553 
Q 372 3047 722 3315 
Q 1072 3584 1716 3584 
Q 2034 3584 2315 3537 
Q 2597 3491 2834 3397 
z
" transform="scale(0.015625)"/>
       <path id="DejaVuSans-65" d="M 3597 1894 
L 3597 1613 
L 953 1613 
Q 991 1019 1311 708 
Q 1631 397 2203 397 
Q 2534 397 2845 478 
Q 3156 559 3463 722 
L 3463 178 
Q 3153 47 2828 -22 
Q 2503 -91 2169 -91 
Q 1331 -91 842 396 
Q 353 884 353 1716 
Q 353 2575 817 3079 
Q 1281 3584 2069 3584 
Q 2775 3584 3186 3129 
Q 3597 2675 3597 1894 
z
M 3022 2063 
Q 3016 2534 2758 2815 
Q 2500 3097 2075 3097 
Q 1594 3097 1305 2825 
Q 1016 2553 972 2059 
L 3022 2063 
z
" transform="scale(0.015625)"/>
       <path id="DejaVuSans-72" d="M 2631 2963 
Q 2534 3019 2420 3045 
Q 2306 3072 2169 3072 
Q 1681 3072 1420 2755 
Q 1159 2438 1159 1844 
L 1159 0 
L 581 0 
L 581 3500 
L 1159 3500 
L 1159 2956 
Q 1341 3275 1631 3429 
Q 1922 3584 2338 3584 
Q 2397 3584 2469 3576 
Q 2541 3569 2628 3553 
L 2631 2963 
z
" transform="scale(0.015625)"/>
       <path id="DejaVuSans-76" d="M 191 3500 
L 800 3500 
L 1894 563 
L 2988 3500 
L 3597 3500 
L 2284 0 
L 1503 0 
L 191 3500 
z
" transform="scale(0.015625)"/>
       <path id="DejaVuSans-64" d="M 2906 2969 
L 2906 4863 
L 3481 4863 
L 3481 0 
L 2906 0 
L 2906 525 
Q 2725 213 2448 61 
Q 2172 -91 1784 -91 
Q 1150 -91 751 415 
Q 353 922 353 1747 
Q 353 2572 751 3078 
Q 1150 3584 1784 3584 
Q 2172 3584 2448 3432 
Q 2725 3281 2906 2969 
z
M 947 1747 
Q 947 1113 1208 752 
Q 1469 391 1925 391 
Q 2381 391 2643 752 
Q 2906 1113 2906 1747 
Q 2906 2381 2643 2742 
Q 2381 3103 1925 3103 
Q 1469 3103 1208 2742 
Q 947 2381 947 1747 
z
" transform="scale(0.015625)"/>
       <path id="DejaVuSans-20" transform="scale(0.015625)"/>
       <path id="DejaVuSans-54" d="M -19 4666 
L 3928 4666 
L 3928 4134 
L 2272 4134 
L 2272 0 
L 1638 0 
L 1638 4134 
L -19 4134 
L -19 4666 
z
" transform="scale(0.015625)"/>
       <path id="DejaVuSans-69" d="M 603 3500 
L 1178 3500 
L 1178 0 
L 603 0 
L 603 3500 
z
M 603 4863 
L 1178 4863 
L 1178 4134 
L 603 4134 
L 603 4863 
z
" transform="scale(0.015625)"/>
       <path id="DejaVuSans-6d" d="M 3328 2828 
Q 3544 3216 3844 3400 
Q 4144 3584 4550 3584 
Q 5097 3584 5394 3201 
Q 5691 2819 5691 2113 
L 5691 0 
L 5113 0 
L 5113 2094 
Q 5113 2597 4934 2840 
Q 4756 3084 4391 3084 
Q 3944 3084 3684 2787 
Q 3425 2491 3425 1978 
L 3425 0 
L 2847 0 
L 2847 2094 
Q 2847 2600 2669 2842 
Q 2491 3084 2119 3084 
Q 1678 3084 1418 2786 
Q 1159 2488 1159 1978 
L 1159 0 
L 581 0 
L 581 3500 
L 1159 3500 
L 1159 2956 
Q 1356 3278 1631 3431 
Q 1906 3584 2284 3584 
Q 2666 3584 2933 3390 
Q 3200 3197 3328 2828 
z
" transform="scale(0.015625)"/>
       <path id="DejaVuSans-28" d="M 1984 4856 
Q 1566 4138 1362 3434 
Q 1159 2731 1159 2009 
Q 1159 1288 1364 580 
Q 1569 -128 1984 -844 
L 1484 -844 
Q 1016 -109 783 600 
Q 550 1309 550 2009 
Q 550 2706 781 3412 
Q 1013 4119 1484 4856 
L 1984 4856 
z
" transform="scale(0.015625)"/>
       <path id="DejaVuSans-29" d="M 513 4856 
L 1013 4856 
Q 1481 4119 1714 3412 
Q 1947 2706 1947 2009 
Q 1947 1309 1714 600 
Q 1481 -109 1013 -844 
L 513 -844 
Q 928 -128 1133 580 
Q 1338 1288 1338 2009 
Q 1338 2731 1133 3434 
Q 928 4138 513 4856 
z
" transform="scale(0.015625)"/>
      </defs>
      <use xlink:href="#DejaVuSans-4f"/>
      <use xlink:href="#DejaVuSans-62" x="78.710938"/>
      <use xlink:href="#DejaVuSans-73" x="142.1875"/>
      <use xlink:href="#DejaVuSans-65" x="194.287109"/>
      <use xlink:href="#DejaVuSans-72" x="255.810547"/>
      <use xlink:href="#DejaVuSans-76" x="296.923828"/>
      <use xlink:href="#DejaVuSans-65" x="356.103516"/>
      <use xlink:href="#DejaVuSans-64" x="417.626953"/>
      <use xlink:href="#DejaVuSans-20" x="481.103516"/>
      <use xlink:href="#DejaVuSans-54" x="512.890625"/>
      <use xlink:href="#DejaVuSans-69" x="570.849609"/>
      <use xlink:href="#DejaVuSans-6d" x="598.632812"/>
      <use xlink:href="#DejaVuSans-65" x="696.044922"/>
      <use xlink:href="#DejaVuSans-20" x="757.568359"/>
      <use xlink:href="#DejaVuSans-28" x="789.355469"/>
      <use xlink:href="#DejaVuSans-73" x="828.369141"/>
      <use xlink:href="#DejaVuSans-29" x="880.46875"/>
     </g>
    </g>
   </g>
   <g id="matplotlib.axis_2">
    <g id="ytick_1">
     <g id="line2d_15">
      <path d="M 76.37 658.84 
L 842.7555 658.84 
" clip-path="url(#p6ab8712300)" style="fill: none; stroke: #b0b0b0; stroke-width: 0.8; stroke-linecap: square"/>
     </g>
     <g id="line2d_16">
      <defs>
       <path id="m7e33cee862" d="M 0 0 
L -3.5 0 
" style="stroke: #000000; stroke-width: 0.8"/>
      </defs>
      <g>
       <use xlink:href="#m7e33cee862" x="76.37" y="658.84" style="stroke: #000000; stroke-width: 0.8"/>
      </g>
     </g>
     <g id="text_9">
      <!-- 0 -->
      <g transform="translate(63.0075 662.639219) scale(0.1 -0.1)">
       <use xlink:href="#DejaVuSans-30"/>
      </g>
     </g>
    </g>
    <g id="ytick_2">
     <g id="line2d_17">
      <path d="M 76.37 566.673837 
L 842.7555 566.673837 
" clip-path="url(#p6ab8712300)" style="fill: none; stroke: #b0b0b0; stroke-width: 0.8; stroke-linecap: square"/>
     </g>
     <g id="line2d_18">
      <g>
       <use xlink:href="#m7e33cee862" x="76.37" y="566.673837" style="stroke: #000000; stroke-width: 0.8"/>
      </g>
     </g>
     <g id="text_10">
      <!-- 500 -->
      <g transform="translate(50.2825 570.473055) scale(0.1 -0.1)">
       <use xlink:href="#DejaVuSans-35"/>
       <use xlink:href="#DejaVuSans-30" x="63.623047"/>
       <use xlink:href="#DejaVuSans-30" x="127.246094"/>
      </g>
     </g>
    </g>
    <g id="ytick_3">
     <g id="line2d_19">
      <path d="M 76.37 474.507673 
L 842.7555 474.507673 
" clip-path="url(#p6ab8712300)" style="fill: none; stroke: #b0b0b0; stroke-width: 0.8; stroke-linecap: square"/>
     </g>
     <g id="line2d_20">
      <g>
       <use xlink:href="#m7e33cee862" x="76.37" y="474.507673" style="stroke: #000000; stroke-width: 0.8"/>
      </g>
     </g>
     <g id="text_11">
      <!-- 1000 -->
      <g transform="translate(43.92 478.306892) scale(0.1 -0.1)">
       <use xlink:href="#DejaVuSans-31"/>
       <use xlink:href="#DejaVuSans-30" x="63.623047"/>
       <use xlink:href="#DejaVuSans-30" x="127.246094"/>
       <use xlink:href="#DejaVuSans-30" x="190.869141"/>
      </g>
     </g>
    </g>
    <g id="ytick_4">
     <g id="line2d_21">
      <path d="M 76.37 382.34151 
L 842.7555 382.34151 
" clip-path="url(#p6ab8712300)" style="fill: none; stroke: #b0b0b0; stroke-width: 0.8; stroke-linecap: square"/>
     </g>
     <g id="line2d_22">
      <g>
       <use xlink:href="#m7e33cee862" x="76.37" y="382.34151" style="stroke: #000000; stroke-width: 0.8"/>
      </g>
     </g>
     <g id="text_12">
      <!-- 1500 -->
      <g transform="translate(43.92 386.140729) scale(0.1 -0.1)">
       <use xlink:href="#DejaVuSans-31"/>
       <use xlink:href="#DejaVuSans-35" x="63.623047"/>
       <use xlink:href="#DejaVuSans-30" x="127.246094"/>
       <use xlink:href="#DejaVuSans-30" x="190.869141"/>
      </g>
     </g>
    </g>
    <g id="ytick_5">
     <g id="line2d_23">
      <path d="M 76.37 290.175347 
L 842.7555 290.175347 
" clip-path="url(#p6ab8712300)" style="fill: none; stroke: #b0b0b0; stroke-width: 0.8; stroke-linecap: square"/>
     </g>
     <g id="line2d_24">
      <g>
       <use xlink:href="#m7e33cee862" x="76.37" y="290.175347" style="stroke: #000000; stroke-width: 0.8"/>
      </g>
     </g>
     <g id="text_13">
      <!-- 2000 -->
      <g transform="translate(43.92 293.974565) scale(0.1 -0.1)">
       <use xlink:href="#DejaVuSans-32"/>
       <use xlink:href="#DejaVuSans-30" x="63.623047"/>
       <use xlink:href="#DejaVuSans-30" x="127.246094"/>
       <use xlink:href="#DejaVuSans-30" x="190.869141"/>
      </g>
     </g>
    </g>
    <g id="ytick_6">
     <g id="line2d_25">
      <path d="M 76.37 198.009183 
L 842.7555 198.009183 
" clip-path="url(#p6ab8712300)" style="fill: none; stroke: #b0b0b0; stroke-width: 0.8; stroke-linecap: square"/>
     </g>
     <g id="line2d_26">
      <g>
       <use xlink:href="#m7e33cee862" x="76.37" y="198.009183" style="stroke: #000000; stroke-width: 0.8"/>
      </g>
     </g>
     <g id="text_14">
      <!-- 2500 -->
      <g transform="translate(43.92 201.808402) scale(0.1 -0.1)">
       <use xlink:href="#DejaVuSans-32"/>
       <use xlink:href="#DejaVuSans-35" x="63.623047"/>
       <use xlink:href="#DejaVuSans-30" x="127.246094"/>
       <use xlink:href="#DejaVuSans-30" x="190.869141"/>
      </g>
     </g>
    </g>
    <g id="ytick_7">
     <g id="line2d_27">
      <path d="M 76.37 105.84302 
L 842.7555 105.84302 
" clip-path="url(#p6ab8712300)" style="fill: none; stroke: #b0b0b0; stroke-width: 0.8; stroke-linecap: square"/>
     </g>
     <g id="line2d_28">
      <g>
       <use xlink:href="#m7e33cee862" x="76.37" y="105.84302" style="stroke: #000000; stroke-width: 0.8"/>
      </g>
     </g>
     <g id="text_15">
      <!-- 3000 -->
      <g transform="translate(43.92 109.642239) scale(0.1 -0.1)">
       <use xlink:href="#DejaVuSans-33"/>
       <use xlink:href="#DejaVuSans-30" x="63.623047"/>
       <use xlink:href="#DejaVuSans-30" x="127.246094"/>
       <use xlink:href="#DejaVuSans-30" x="190.869141"/>
      </g>
     </g>
    </g>
    <g id="text_16">
     <!-- Interarrival Time (ms) -->
     <g transform="translate(37.840312 406.873281) rotate(-90) scale(0.1 -0.1)">
      <defs>
       <path id="DejaVuSans-49" d="M 628 4666 
L 1259 4666 
L 1259 0 
L 628 0 
L 628 4666 
z
" transform="scale(0.015625)"/>
       <path id="DejaVuSans-6e" d="M 3513 2113 
L 3513 0 
L 2938 0 
L 2938 2094 
Q 2938 2591 2744 2837 
Q 2550 3084 2163 3084 
Q 1697 3084 1428 2787 
Q 1159 2491 1159 1978 
L 1159 0 
L 581 0 
L 581 3500 
L 1159 3500 
L 1159 2956 
Q 1366 3272 1645 3428 
Q 1925 3584 2291 3584 
Q 2894 3584 3203 3211 
Q 3513 2838 3513 2113 
z
" transform="scale(0.015625)"/>
       <path id="DejaVuSans-74" d="M 1172 4494 
L 1172 3500 
L 2356 3500 
L 2356 3053 
L 1172 3053 
L 1172 1153 
Q 1172 725 1289 603 
Q 1406 481 1766 481 
L 2356 481 
L 2356 0 
L 1766 0 
Q 1100 0 847 248 
Q 594 497 594 1153 
L 594 3053 
L 172 3053 
L 172 3500 
L 594 3500 
L 594 4494 
L 1172 4494 
z
" transform="scale(0.015625)"/>
       <path id="DejaVuSans-61" d="M 2194 1759 
Q 1497 1759 1228 1600 
Q 959 1441 959 1056 
Q 959 750 1161 570 
Q 1363 391 1709 391 
Q 2188 391 2477 730 
Q 2766 1069 2766 1631 
L 2766 1759 
L 2194 1759 
z
M 3341 1997 
L 3341 0 
L 2766 0 
L 2766 531 
Q 2569 213 2275 61 
Q 1981 -91 1556 -91 
Q 1019 -91 701 211 
Q 384 513 384 1019 
Q 384 1609 779 1909 
Q 1175 2209 1959 2209 
L 2766 2209 
L 2766 2266 
Q 2766 2663 2505 2880 
Q 2244 3097 1772 3097 
Q 1472 3097 1187 3025 
Q 903 2953 641 2809 
L 641 3341 
Q 956 3463 1253 3523 
Q 1550 3584 1831 3584 
Q 2591 3584 2966 3190 
Q 3341 2797 3341 1997 
z
" transform="scale(0.015625)"/>
       <path id="DejaVuSans-6c" d="M 603 4863 
L 1178 4863 
L 1178 0 
L 603 0 
L 603 4863 
z
" transform="scale(0.015625)"/>
      </defs>
      <use xlink:href="#DejaVuSans-49"/>
      <use xlink:href="#DejaVuSans-6e" x="29.492188"/>
      <use xlink:href="#DejaVuSans-74" x="92.871094"/>
      <use xlink:href="#DejaVuSans-65" x="132.080078"/>
      <use xlink:href="#DejaVuSans-72" x="193.603516"/>
      <use xlink:href="#DejaVuSans-61" x="234.716797"/>
      <use xlink:href="#DejaVuSans-72" x="295.996094"/>
      <use xlink:href="#DejaVuSans-72" x="335.359375"/>
      <use xlink:href="#DejaVuSans-69" x="376.472656"/>
      <use xlink:href="#DejaVuSans-76" x="404.255859"/>
      <use xlink:href="#DejaVuSans-61" x="463.435547"/>
      <use xlink:href="#DejaVuSans-6c" x="524.714844"/>
      <use xlink:href="#DejaVuSans-20" x="552.498047"/>
      <use xlink:href="#DejaVuSans-54" x="584.285156"/>
      <use xlink:href="#DejaVuSans-69" x="642.244141"/>
      <use xlink:href="#DejaVuSans-6d" x="670.027344"/>
      <use xlink:href="#DejaVuSans-65" x="767.439453"/>
      <use xlink:href="#DejaVuSans-20" x="828.962891"/>
      <use xlink:href="#DejaVuSans-28" x="860.75"/>
      <use xlink:href="#DejaVuSans-6d" x="899.763672"/>
      <use xlink:href="#DejaVuSans-73" x="997.175781"/>
      <use xlink:href="#DejaVuSans-29" x="1049.275391"/>
     </g>
    </g>
   </g>
   <g id="line2d_29">
    <path d="M 76.37 658.837007 
L 76.370207 646.362224 
L 77.23484 621.604305 
L 82.394898 621.612198 
L 84.974555 646.42857 
L 85.834591 652.639869 
L 86.264221 658.839985 
L 86.264222 652.629274 
L 87.124386 652.639131 
L 87.554068 658.839984 
L 87.554069 640.220405 
L 88.844292 646.433464 
L 89.703989 658.839986 
L 89.70399 652.632677 
L 90.134119 640.22601 
L 91.423953 640.22396 
L 92.71393 658.839986 
L 92.713931 609.205631 
L 98.732935 652.634124 
L 99.162964 621.612455 
L 101.742603 602.996257 
L 105.612229 658.839985 
L 105.61223 640.223784 
L 112.061548 640.224662 
L 113.351476 621.609385 
L 115.931328 658.839985 
L 115.931329 640.216829 
L 117.2218 640.221469 
L 118.511949 658.839985 
L 118.51195 646.426987 
L 119.372095 640.221938 
L 120.662212 652.634449 
L 121.092218 621.605161 
L 123.672362 602.987232 
L 127.542614 640.223463 
L 130.122755 640.222997 
L 131.412798 658.839986 
L 131.412799 640.218786 
L 132.703134 640.222919 
L 133.993183 658.839986 
L 133.993184 640.21878 
L 135.283519 621.604409 
L 137.863716 627.810862 
L 140.013843 652.631972 
L 140.444021 640.222933 
L 141.734069 621.598865 
L 144.31465 640.221979 
L 145.604764 652.637462 
L 146.034561 658.839985 
L 146.034562 652.632477 
L 146.894883 652.632328 
L 147.325036 627.808892 
L 149.4753 640.218333 
L 152.055971 640.220577 
L 153.346182 652.630025 
L 153.776495 646.430862 
L 154.636372 652.63031 
L 155.066665 646.431454 
L 155.9265 658.83999 
L 155.926501 652.626304 
L 156.357072 646.429307 
L 157.217056 652.636008 
L 157.646955 658.839993 
L 157.646955 646.423681 
L 158.507329 652.628371 
L 158.937757 646.429174 
L 159.79775 652.631697 
L 161.088072 652.631515 
L 161.518282 640.220695 
L 162.808485 646.429383 
L 163.668464 640.220001 
L 164.958715 658.839986 
L 164.958716 640.222803 
L 166.248772 621.601301 
L 168.829184 658.839993 
L 168.829185 652.632456 
L 169.259329 658.839993 
L 169.25933 646.426197 
L 170.11953 652.629825 
L 170.549856 646.426782 
L 171.410016 621.595657 
L 173.990819 640.22119 
L 175.280987 652.628724 
L 175.71139 646.42982 
L 176.571339 652.629871 
L 177.001663 646.42962 
L 177.861625 652.637507 
L 178.29142 658.83999 
L 178.29142 646.422049 
L 179.151908 640.217802 
L 180.442311 658.839986 
L 180.442312 640.219394 
L 181.732605 658.839991 
L 181.732606 640.220571 
L 185.603409 640.218573 
L 186.893759 652.631609 
L 187.323963 646.429551 
L 188.18393 640.219052 
L 189.474247 652.637171 
L 189.904065 658.839986 
L 189.904065 646.423709 
L 190.764438 652.633466 
L 191.194512 646.425732 
L 192.054744 646.428608 
L 192.914777 652.629615 
L 193.345118 652.637558 
L 193.774909 658.839987 
L 193.77491 646.426064 
L 194.635119 658.839991 
L 194.63512 652.635057 
L 195.065084 646.421786 
L 195.92559 652.633717 
L 196.355647 658.839985 
L 196.355648 627.80388 
L 198.936388 658.839993 
L 198.936389 646.424598 
L 199.796699 640.21769 
L 201.08711 640.219852 
L 202.377372 652.637315 
L 202.807179 658.839993 
L 202.80718 646.421378 
L 203.667714 621.598531 
L 206.248317 640.218917 
L 207.538643 627.80509 
L 209.689171 652.632866 
L 210.119287 646.425817 
L 210.979513 652.632302 
L 211.409668 658.839992 
L 211.409669 640.21628 
L 212.700178 658.839994 
L 212.700178 621.59832 
L 215.280796 640.221959 
L 216.570912 609.18051 
L 220.012008 652.631996 
L 220.442184 621.596163 
L 223.022952 621.593688 
L 225.603891 640.217838 
L 226.894292 640.218529 
L 228.184645 646.423397 
L 229.045039 652.634685 
L 229.475029 640.217523 
L 230.765451 658.839986 
L 230.765452 640.216682 
L 232.055933 658.839987 
L 232.055934 640.214703 
L 234.636941 640.218987 
L 235.927262 658.839986 
L 235.927263 640.216791 
L 237.217737 640.216894 
L 238.508203 621.596032 
L 241.08898 640.218546 
L 242.379332 621.59494 
L 244.960184 602.972006 
L 248.831491 658.839995 
L 248.831492 621.593353 
L 251.412454 627.803505 
L 253.563092 652.632117 
L 253.99326 640.216215 
L 255.283773 640.216356 
L 256.574276 621.590168 
L 259.15546 602.971555 
L 263.026798 640.214439 
L 264.317434 646.422224 
L 265.177909 652.633191 
L 265.608003 646.426126 
L 266.468208 652.631362 
L 266.898428 658.839992 
L 266.898428 640.213735 
L 268.189113 640.217193 
L 269.479559 621.590001 
L 272.490909 658.839992 
L 272.49091 627.802034 
L 274.641649 640.217707 
L 275.932059 658.839992 
L 275.932059 652.629068 
L 276.362438 646.428018 
L 277.222512 602.969359 
L 281.094002 640.216405 
L 282.384503 640.216165 
L 283.675019 658.839993 
L 283.67502 640.21449 
L 287.54648 640.216626 
L 288.836965 646.424569 
L 289.697278 652.631288 
L 290.127503 621.590249 
L 292.708681 640.217604 
L 300.45144 640.213273 
L 301.742157 652.633531 
L 302.172227 627.798977 
L 304.323178 602.968056 
L 308.194759 640.218684 
L 309.485101 658.839987 
L 309.485102 615.380859 
L 312.496552 658.83999 
L 312.496553 609.172226 
L 315.938223 640.217524 
L 317.228645 640.21694 
L 318.519108 75.259047 
L 358.957664 658.839986 
L 358.957665 602.95952 
L 362.829837 609.171216 
L 366.271577 584.343109 
L 371.433751 640.214518 
L 372.724382 634.006572 
L 374.445185 658.839986 
L 374.445186 634.001979 
L 376.166308 615.386872 
L 379.177341 658.839987 
L 379.177342 602.964468 
L 383.049171 627.793728 
L 385.200486 652.634038 
L 385.630521 640.211094 
L 386.921389 590.546445 
L 391.65371 565.70913 
L 398.107105 602.961872 
L 401.979114 621.589804 
L 404.560322 547.078649 
L 412.304693 578.126535 
L 417.897638 602.960602 
L 421.769735 621.585976 
L 424.351209 658.839986 
L 424.35121 621.586137 
L 426.932673 627.797703 
L 429.083712 410.491496 
L 446.292729 627.795474 
L 448.443923 522.241385 
L 457.909364 565.707108 
L 464.362898 602.958335 
L 468.235152 590.543175 
L 472.9677 559.502779 
L 479.851156 652.633174 
L 480.281251 646.422644 
L 481.141697 640.214811 
L 483.722967 640.213399 
L 485.013675 652.630097 
L 485.443983 646.421251 
L 486.304526 640.214537 
L 488.885724 640.212576 
L 490.176489 652.63072 
L 490.606754 652.627575 
L 491.037237 634.006266 
L 492.758061 658.839986 
L 492.758062 640.213556 
L 496.630112 640.210871 
L 497.920996 652.632875 
L 498.351111 646.420859 
L 499.211681 658.839986 
L 499.211682 621.58771 
L 501.793036 640.212907 
L 505.665257 640.213375 
L 506.955967 652.636555 
L 507.385828 658.839982 
L 507.385829 646.418267 
L 508.246578 640.214028 
L 509.537243 640.214148 
L 510.827899 621.583171 
L 515.990989 621.582275 
L 518.572719 658.839985 
L 518.57272 640.217097 
L 521.153982 640.213714 
L 522.444669 621.586671 
L 525.026095 640.208869 
L 526.317117 658.839986 
L 526.317118 652.637542 
L 526.74691 658.839985 
L 526.746911 646.414515 
L 527.60792 640.213582 
L 528.898616 640.212517 
L 530.189386 621.585941 
L 532.770862 640.213683 
L 534.06155 640.210834 
L 535.352437 627.794606 
L 537.503691 652.63299 
L 537.933798 640.208975 
L 544.388052 640.214175 
L 545.678707 621.585166 
L 550.84175 621.587587 
L 553.423112 584.327138 
L 558.586393 640.212969 
L 562.458869 640.213598 
L 563.749564 646.416924 
L 564.610406 652.631492 
L 565.040617 658.839985 
L 565.040618 640.213753 
L 568.912657 640.212763 
L 570.203409 652.63099 
L 570.633655 646.422097 
L 571.494139 640.212252 
L 572.784927 590.532715 
L 577.5182 652.634037 
L 577.948235 640.213076 
L 581.820119 640.212174 
L 583.110912 658.839986 
L 583.110913 640.21379 
L 588.273697 640.213814 
L 589.564377 658.839986 
L 589.564378 640.212108 
L 590.855176 621.587091 
L 593.436572 640.212146 
L 594.727367 640.214288 
L 596.018014 621.58732 
L 598.599395 640.212197 
L 605.053164 640.210432 
L 606.344078 621.584601 
L 608.925647 640.21214 
L 610.216442 634.000631 
L 611.937657 646.424115 
L 612.798001 640.211593 
L 614.088835 652.629637 
L 614.519175 646.423701 
L 615.379548 621.578944 
L 617.961509 640.213716 
L 619.252195 640.209699 
L 620.54316 621.583071 
L 623.124835 640.212729 
L 624.41559 640.210699 
L 625.706485 652.626064 
L 626.137073 646.423708 
L 626.997445 640.211799 
L 629.579261 640.211231 
L 630.87012 652.627512 
L 631.300607 646.426922 
L 632.160757 640.213514 
L 636.033073 640.210494 
L 637.323982 658.839986 
L 637.323983 640.211232 
L 641.196299 640.210121 
L 642.487235 621.583616 
L 645.068872 640.20955 
L 646.359847 652.628945 
L 646.790235 646.422757 
L 647.650673 652.627726 
L 648.081146 652.633126 
L 648.511244 634.003195 
L 650.232281 621.587071 
L 652.813679 640.213433 
L 654.104385 640.210464 
L 655.395296 658.839985 
L 655.395298 640.212622 
L 656.68606 658.839986 
L 656.686061 634.000708 
L 659.267633 652.626709 
L 659.698176 627.798744 
L 661.849143 640.211936 
L 663.139953 640.211144 
L 664.430818 621.587112 
L 667.012213 640.213634 
L 669.593587 640.215013 
L 670.884184 646.42038 
L 671.744787 652.633664 
L 672.174848 646.421239 
L 673.035391 652.633349 
L 673.465474 640.212626 
L 674.756236 646.425335 
L 675.616495 652.629023 
L 676.046878 640.212948 
L 677.337617 640.211884 
L 678.628431 652.627544 
L 679.058915 646.424345 
L 679.919244 652.62812 
L 680.349689 646.422141 
L 681.210169 640.211543 
L 682.501006 640.216118 
L 683.791526 658.839987 
L 683.791527 640.208484 
L 686.373423 640.21407 
L 687.664084 621.587697 
L 690.245439 640.210693 
L 691.536335 640.210588 
L 692.827238 652.628856 
L 693.257632 646.422203 
L 694.118109 640.209973 
L 696.699879 640.209313 
L 697.99087 658.839986 
L 697.990871 640.213451 
L 699.281576 646.419427 
L 700.142245 652.630841 
L 700.572501 658.839986 
L 700.572502 640.211764 
L 701.863324 652.628465 
L 702.293745 646.422534 
L 703.154199 640.214343 
L 705.735607 640.213049 
L 707.02634 646.419245 
L 707.887022 652.630394 
L 708.317309 640.215527 
L 716.062054 640.214585 
L 717.35268 658.839985 
L 717.352681 640.212668 
L 718.64344 640.210902 
L 719.934321 652.632515 
L 720.364462 646.42159 
L 721.224981 652.627324 
L 721.655481 646.42276 
L 722.515919 658.839986 
L 722.51592 640.21335 
L 725.097654 640.211135 
L 726.388519 658.839986 
L 726.38852 652.630747 
L 726.818783 646.422492 
L 727.679239 640.208226 
L 728.970306 640.210194 
L 730.261237 652.628045 
L 730.691687 646.422286 
L 731.552158 640.212736 
L 734.133887 640.211285 
L 735.424742 658.839986 
L 735.424743 633.999504 
L 738.006187 652.626412 
L 738.43675 646.42529 
L 739.297013 652.625964 
L 739.727607 646.425371 
L 740.587864 652.629127 
L 741.018239 646.423675 
L 741.878614 640.211062 
L 743.169484 640.210257 
L 744.46041 652.62577 
L 744.891018 646.425481 
L 745.751267 652.626661 
L 746.181813 646.422855 
L 747.042245 640.21251 
L 748.333015 640.211622 
L 749.623846 646.420261 
L 750.484457 652.630408 
L 750.914744 658.839986 
L 750.914745 640.214713 
L 752.205362 652.628025 
L 752.635814 646.424764 
L 753.496113 640.211885 
L 754.786926 652.629888 
L 755.647497 652.633484 
L 756.07757 640.210075 
L 758.659401 640.211864 
L 759.950216 652.6307 
L 760.380482 627.791592 
L 762.531945 640.212049 
L 763.822747 640.207629 
L 765.113855 658.839986 
L 765.113856 640.213244 
L 766.404575 658.839986 
L 766.404576 652.627198 
L 766.835085 646.424053 
L 767.695433 652.627879 
L 768.125895 646.422876 
L 768.986325 652.626665 
L 769.416871 646.424434 
L 770.277193 640.21173 
L 772.858938 640.212229 
L 774.149728 646.418103 
L 775.010488 652.633329 
L 775.440572 658.839986 
L 775.440573 640.211256 
L 778.022254 640.211833 
L 779.31307 646.420063 
L 780.173695 652.632848 
L 780.603813 652.628682 
L 781.034219 646.420936 
L 781.894783 640.207727 
L 783.185884 640.212653 
L 784.476645 652.628982 
L 784.90703 627.79521 
L 787.058242 640.212009 
L 788.349047 640.212224 
L 789.639836 621.585255 
L 792.22136 640.210222 
L 793.512289 652.628292 
L 793.942722 627.795347 
L 796.093924 640.210993 
L 799.966659 640.211181 
L 801.257521 621.580916 
L 803.839345 640.209658 
L 805.130313 627.794022 
L 807.281608 652.62658 
L 807.712159 640.214178 
L 809.002814 658.839986 
L 809.002815 621.582878 
L 811.584503 652.628482 
L 812.014923 646.424967 
L 812.875208 658.839986 
L 812.875209 640.209912 
L 816.747785 640.21304 
L 818.038518 658.839986 
L 818.038519 640.211269 
L 819.329375 646.416066 
L 820.190277 634.008184 
L 821.910968 640.212923 
L 830.946723 640.212707 
L 832.237479 621.585142 
L 834.819011 652.62823 
L 836.10975 633.999604 
L 837.831036 646.426074 
L 838.691244 640.211673 
L 839.982072 646.417793 
L 840.842854 652.633043 
L 841.272958 640.211158 
L 843.854579 640.206269 
L 845.145781 658.839986 
L 845.145782 640.212739 
L 846.436536 658.839986 
L 846.436537 640.210643 
L 847.727437 652.628842 
L 848.157831 646.422162 
L 849.018311 652.626558 
L 849.448864 646.424375 
L 850.30919 640.210836 
L 851.600076 652.624587 
L 852.030766 646.427184 
L 852.890897 658.839986 
L 852.890898 640.211756 
L 854.181721 658.839987 
L 854.181722 640.213806 
L 855.472402 652.627331 
L 855.902901 646.423191 
L 856.763309 652.626723 
L 857.193851 646.424276 
L 858.054184 640.217923 
L 859.344579 658.839979 
L 859.34458 640.2075 
L 861.926583 640.212453 
L 861.926583 640.212453 
" clip-path="url(#p6ab8712300)" style="fill: none; stroke: #1f77b4; stroke-width: 1.5; stroke-linecap: square"/>
   </g>
   <g id="patch_3">
    <path d="M 76.37 658.84 
L 76.37 46.08 
" style="fill: none; stroke: #000000; stroke-width: 0.8; stroke-linejoin: miter; stroke-linecap: square"/>
   </g>
   <g id="patch_4">
    <path d="M 842.7555 658.84 
L 842.7555 46.08 
" style="fill: none; stroke: #000000; stroke-width: 0.8; stroke-linejoin: miter; stroke-linecap: square"/>
   </g>
   <g id="patch_5">
    <path d="M 76.37 658.84 
L 842.7555 658.84 
" style="fill: none; stroke: #000000; stroke-width: 0.8; stroke-linejoin: miter; stroke-linecap: square"/>
   </g>
   <g id="patch_6">
    <path d="M 76.37 46.08 
L 842.7555 46.08 
" style="fill: none; stroke: #000000; stroke-width: 0.8; stroke-linejoin: miter; stroke-linecap: square"/>
   </g>
   <g id="text_17">
    <!-- Packet Interarrival Times Camera Flow 1 -->
    <g transform="translate(338.388062 40.08) scale(0.12 -0.12)">
     <defs>
      <path id="DejaVuSans-50" d="M 1259 4147 
L 1259 2394 
L 2053 2394 
Q 2494 2394 2734 2622 
Q 2975 2850 2975 3272 
Q 2975 3691 2734 3919 
Q 2494 4147 2053 4147 
L 1259 4147 
z
M 628 4666 
L 2053 4666 
Q 2838 4666 3239 4311 
Q 3641 3956 3641 3272 
Q 3641 2581 3239 2228 
Q 2838 1875 2053 1875 
L 1259 1875 
L 1259 0 
L 628 0 
L 628 4666 
z
" transform="scale(0.015625)"/>
      <path id="DejaVuSans-63" d="M 3122 3366 
L 3122 2828 
Q 2878 2963 2633 3030 
Q 2388 3097 2138 3097 
Q 1578 3097 1268 2742 
Q 959 2388 959 1747 
Q 959 1106 1268 751 
Q 1578 397 2138 397 
Q 2388 397 2633 464 
Q 2878 531 3122 666 
L 3122 134 
Q 2881 22 2623 -34 
Q 2366 -91 2075 -91 
Q 1284 -91 818 406 
Q 353 903 353 1747 
Q 353 2603 823 3093 
Q 1294 3584 2113 3584 
Q 2378 3584 2631 3529 
Q 2884 3475 3122 3366 
z
" transform="scale(0.015625)"/>
      <path id="DejaVuSans-6b" d="M 581 4863 
L 1159 4863 
L 1159 1991 
L 2875 3500 
L 3609 3500 
L 1753 1863 
L 3688 0 
L 2938 0 
L 1159 1709 
L 1159 0 
L 581 0 
L 581 4863 
z
" transform="scale(0.015625)"/>
      <path id="DejaVuSans-43" d="M 4122 4306 
L 4122 3641 
Q 3803 3938 3442 4084 
Q 3081 4231 2675 4231 
Q 1875 4231 1450 3742 
Q 1025 3253 1025 2328 
Q 1025 1406 1450 917 
Q 1875 428 2675 428 
Q 3081 428 3442 575 
Q 3803 722 4122 1019 
L 4122 359 
Q 3791 134 3420 21 
Q 3050 -91 2638 -91 
Q 1578 -91 968 557 
Q 359 1206 359 2328 
Q 359 3453 968 4101 
Q 1578 4750 2638 4750 
Q 3056 4750 3426 4639 
Q 3797 4528 4122 4306 
z
" transform="scale(0.015625)"/>
      <path id="DejaVuSans-46" d="M 628 4666 
L 3309 4666 
L 3309 4134 
L 1259 4134 
L 1259 2759 
L 3109 2759 
L 3109 2228 
L 1259 2228 
L 1259 0 
L 628 0 
L 628 4666 
z
" transform="scale(0.015625)"/>
      <path id="DejaVuSans-6f" d="M 1959 3097 
Q 1497 3097 1228 2736 
Q 959 2375 959 1747 
Q 959 1119 1226 758 
Q 1494 397 1959 397 
Q 2419 397 2687 759 
Q 2956 1122 2956 1747 
Q 2956 2369 2687 2733 
Q 2419 3097 1959 3097 
z
M 1959 3584 
Q 2709 3584 3137 3096 
Q 3566 2609 3566 1747 
Q 3566 888 3137 398 
Q 2709 -91 1959 -91 
Q 1206 -91 779 398 
Q 353 888 353 1747 
Q 353 2609 779 3096 
Q 1206 3584 1959 3584 
z
" transform="scale(0.015625)"/>
      <path id="DejaVuSans-77" d="M 269 3500 
L 844 3500 
L 1563 769 
L 2278 3500 
L 2956 3500 
L 3675 769 
L 4391 3500 
L 4966 3500 
L 4050 0 
L 3372 0 
L 2619 2869 
L 1863 0 
L 1184 0 
L 269 3500 
z
" transform="scale(0.015625)"/>
     </defs>
     <use xlink:href="#DejaVuSans-50"/>
     <use xlink:href="#DejaVuSans-61" x="55.802734"/>
     <use xlink:href="#DejaVuSans-63" x="117.082031"/>
     <use xlink:href="#DejaVuSans-6b" x="172.0625"/>
     <use xlink:href="#DejaVuSans-65" x="226.347656"/>
     <use xlink:href="#DejaVuSans-74" x="287.871094"/>
     <use xlink:href="#DejaVuSans-20" x="327.080078"/>
     <use xlink:href="#DejaVuSans-49" x="358.867188"/>
     <use xlink:href="#DejaVuSans-6e" x="388.359375"/>
     <use xlink:href="#DejaVuSans-74" x="451.738281"/>
     <use xlink:href="#DejaVuSans-65" x="490.947266"/>
     <use xlink:href="#DejaVuSans-72" x="552.470703"/>
     <use xlink:href="#DejaVuSans-61" x="593.583984"/>
     <use xlink:href="#DejaVuSans-72" x="654.863281"/>
     <use xlink:href="#DejaVuSans-72" x="694.226562"/>
     <use xlink:href="#DejaVuSans-69" x="735.339844"/>
     <use xlink:href="#DejaVuSans-76" x="763.123047"/>
     <use xlink:href="#DejaVuSans-61" x="822.302734"/>
     <use xlink:href="#DejaVuSans-6c" x="883.582031"/>
     <use xlink:href="#DejaVuSans-20" x="911.365234"/>
     <use xlink:href="#DejaVuSans-54" x="943.152344"/>
     <use xlink:href="#DejaVuSans-69" x="1001.111328"/>
     <use xlink:href="#DejaVuSans-6d" x="1028.894531"/>
     <use xlink:href="#DejaVuSans-65" x="1126.306641"/>
     <use xlink:href="#DejaVuSans-73" x="1187.830078"/>
     <use xlink:href="#DejaVuSans-20" x="1239.929688"/>
     <use xlink:href="#DejaVuSans-43" x="1271.716797"/>
     <use xlink:href="#DejaVuSans-61" x="1341.541016"/>
     <use xlink:href="#DejaVuSans-6d" x="1402.820312"/>
     <use xlink:href="#DejaVuSans-65" x="1500.232422"/>
     <use xlink:href="#DejaVuSans-72" x="1561.755859"/>
     <use xlink:href="#DejaVuSans-61" x="1602.869141"/>
     <use xlink:href="#DejaVuSans-20" x="1664.148438"/>
     <use xlink:href="#DejaVuSans-46" x="1695.935547"/>
     <use xlink:href="#DejaVuSans-6c" x="1753.455078"/>
     <use xlink:href="#DejaVuSans-6f" x="1781.238281"/>
     <use xlink:href="#DejaVuSans-77" x="1842.419922"/>
     <use xlink:href="#DejaVuSans-20" x="1924.207031"/>
     <use xlink:href="#DejaVuSans-31" x="1955.994141"/>
    </g>
   </g>
   <g id="legend_1">
    <g id="patch_7">
     <path d="M 852.5555 364.834687 
L 1020.702063 364.834687 
Q 1023.502062 364.834687 1023.502062 362.034687 
L 1023.502062 342.885312 
Q 1023.502062 340.085312 1020.702063 340.085312 
L 852.5555 340.085312 
Q 849.7555 340.085312 849.7555 342.885312 
L 849.7555 362.034687 
Q 849.7555 364.834687 852.5555 364.834687 
z
" style="fill: #ffffff; opacity: 0.8; stroke: #cccccc; stroke-linejoin: miter"/>
    </g>
    <g id="line2d_30">
     <path d="M 855.3555 351.423125 
L 869.3555 351.423125 
L 883.3555 351.423125 
" style="fill: none; stroke: #1f77b4; stroke-width: 1.5; stroke-linecap: square"/>
    </g>
    <g id="text_18">
     <!-- Interarrival Times -->
     <g transform="translate(894.5555 356.323125) scale(0.14 -0.14)">
      <use xlink:href="#DejaVuSans-49"/>
      <use xlink:href="#DejaVuSans-6e" x="29.492188"/>
      <use xlink:href="#DejaVuSans-74" x="92.871094"/>
      <use xlink:href="#DejaVuSans-65" x="132.080078"/>
      <use xlink:href="#DejaVuSans-72" x="193.603516"/>
      <use xlink:href="#DejaVuSans-61" x="234.716797"/>
      <use xlink:href="#DejaVuSans-72" x="295.996094"/>
      <use xlink:href="#DejaVuSans-72" x="335.359375"/>
      <use xlink:href="#DejaVuSans-69" x="376.472656"/>
      <use xlink:href="#DejaVuSans-76" x="404.255859"/>
      <use xlink:href="#DejaVuSans-61" x="463.435547"/>
      <use xlink:href="#DejaVuSans-6c" x="524.714844"/>
      <use xlink:href="#DejaVuSans-20" x="552.498047"/>
      <use xlink:href="#DejaVuSans-54" x="584.285156"/>
      <use xlink:href="#DejaVuSans-69" x="642.244141"/>
      <use xlink:href="#DejaVuSans-6d" x="670.027344"/>
      <use xlink:href="#DejaVuSans-65" x="767.439453"/>
      <use xlink:href="#DejaVuSans-73" x="828.962891"/>
     </g>
    </g>
   </g>
  </g>
 </g>
 <defs>
  <clipPath id="p6ab8712300">
   <rect x="76.37" y="46.08" width="766.3855" height="612.76"/>
  </clipPath>
 </defs>
</svg>
