<?xml version="1.0" encoding="utf-8" standalone="no"?>
<!DOCTYPE svg PUBLIC "-//W3C//DTD SVG 1.1//EN"
  "http://www.w3.org/Graphics/SVG/1.1/DTD/svg11.dtd">
<svg xmlns:xlink="http://www.w3.org/1999/xlink" width="1008pt" height="720pt" viewBox="0 0 1008 720" xmlns="http://www.w3.org/2000/svg" version="1.1">
 <metadata>
  <rdf:RDF xmlns:dc="http://purl.org/dc/elements/1.1/" xmlns:cc="http://creativecommons.org/ns#" xmlns:rdf="http://www.w3.org/1999/02/22-rdf-syntax-ns#">
   <cc:Work>
    <dc:type rdf:resource="http://purl.org/dc/dcmitype/StillImage"/>
    <dc:date>2023-04-13T18:54:41.238721</dc:date>
    <dc:format>image/svg+xml</dc:format>
    <dc:creator>
     <cc:Agent>
      <dc:title>Matplotlib v3.6.2, https://matplotlib.org/</dc:title>
     </cc:Agent>
    </dc:creator>
   </cc:Work>
  </rdf:RDF>
 </metadata>
 <defs>
  <style type="text/css">*{stroke-linejoin: round; stroke-linecap: butt}</style>
 </defs>
 <g id="figure_1">
  <g id="patch_1">
   <path d="M 0 720 
L 1008 720 
L 1008 0 
L 0 0 
z
" style="fill: #ffffff"/>
  </g>
  <g id="axes_1">
   <g id="patch_2">
    <path d="M 106.82 639.64 
L 794.164 639.64 
L 794.164 60.96 
L 106.82 60.96 
z
" style="fill: #ffffff"/>
   </g>
   <g id="matplotlib.axis_1">
    <g id="xtick_1">
     <g id="line2d_1">
      <defs>
       <path id="m49d34ab7b2" d="M 0 0 
L 0 3.5 
" style="stroke: #000000; stroke-width: 0.8"/>
      </defs>
      <g>
       <use xlink:href="#m49d34ab7b2" x="106.82" y="639.64" style="stroke: #000000; stroke-width: 0.8"/>
      </g>
     </g>
     <g id="text_1">
      <!-- 0 -->
      <g transform="translate(102.36625 657.277812) scale(0.14 -0.14)">
       <defs>
        <path id="DejaVuSans-30" d="M 2034 4250 
Q 1547 4250 1301 3770 
Q 1056 3291 1056 2328 
Q 1056 1369 1301 889 
Q 1547 409 2034 409 
Q 2525 409 2770 889 
Q 3016 1369 3016 2328 
Q 3016 3291 2770 3770 
Q 2525 4250 2034 4250 
z
M 2034 4750 
Q 2819 4750 3233 4129 
Q 3647 3509 3647 2328 
Q 3647 1150 3233 529 
Q 2819 -91 2034 -91 
Q 1250 -91 836 529 
Q 422 1150 422 2328 
Q 422 3509 836 4129 
Q 1250 4750 2034 4750 
z
" transform="scale(0.015625)"/>
       </defs>
       <use xlink:href="#DejaVuSans-30"/>
      </g>
     </g>
    </g>
    <g id="xtick_2">
     <g id="line2d_2">
      <g>
       <use xlink:href="#m49d34ab7b2" x="214.113909" y="639.64" style="stroke: #000000; stroke-width: 0.8"/>
      </g>
     </g>
     <g id="text_2">
      <!-- 10 -->
      <g transform="translate(205.206409 657.277812) scale(0.14 -0.14)">
       <defs>
        <path id="DejaVuSans-31" d="M 794 531 
L 1825 531 
L 1825 4091 
L 703 3866 
L 703 4441 
L 1819 4666 
L 2450 4666 
L 2450 531 
L 3481 531 
L 3481 0 
L 794 0 
L 794 531 
z
" transform="scale(0.015625)"/>
       </defs>
       <use xlink:href="#DejaVuSans-31"/>
       <use xlink:href="#DejaVuSans-30" x="63.623047"/>
      </g>
     </g>
    </g>
    <g id="xtick_3">
     <g id="line2d_3">
      <g>
       <use xlink:href="#m49d34ab7b2" x="321.407817" y="639.64" style="stroke: #000000; stroke-width: 0.8"/>
      </g>
     </g>
     <g id="text_3">
      <!-- 20 -->
      <g transform="translate(312.500317 657.277812) scale(0.14 -0.14)">
       <defs>
        <path id="DejaVuSans-32" d="M 1228 531 
L 3431 531 
L 3431 0 
L 469 0 
L 469 531 
Q 828 903 1448 1529 
Q 2069 2156 2228 2338 
Q 2531 2678 2651 2914 
Q 2772 3150 2772 3378 
Q 2772 3750 2511 3984 
Q 2250 4219 1831 4219 
Q 1534 4219 1204 4116 
Q 875 4013 500 3803 
L 500 4441 
Q 881 4594 1212 4672 
Q 1544 4750 1819 4750 
Q 2544 4750 2975 4387 
Q 3406 4025 3406 3419 
Q 3406 3131 3298 2873 
Q 3191 2616 2906 2266 
Q 2828 2175 2409 1742 
Q 1991 1309 1228 531 
z
" transform="scale(0.015625)"/>
       </defs>
       <use xlink:href="#DejaVuSans-32"/>
       <use xlink:href="#DejaVuSans-30" x="63.623047"/>
      </g>
     </g>
    </g>
    <g id="xtick_4">
     <g id="line2d_4">
      <g>
       <use xlink:href="#m49d34ab7b2" x="428.701726" y="639.64" style="stroke: #000000; stroke-width: 0.8"/>
      </g>
     </g>
     <g id="text_4">
      <!-- 30 -->
      <g transform="translate(419.794226 657.277812) scale(0.14 -0.14)">
       <defs>
        <path id="DejaVuSans-33" d="M 2597 2516 
Q 3050 2419 3304 2112 
Q 3559 1806 3559 1356 
Q 3559 666 3084 287 
Q 2609 -91 1734 -91 
Q 1441 -91 1130 -33 
Q 819 25 488 141 
L 488 750 
Q 750 597 1062 519 
Q 1375 441 1716 441 
Q 2309 441 2620 675 
Q 2931 909 2931 1356 
Q 2931 1769 2642 2001 
Q 2353 2234 1838 2234 
L 1294 2234 
L 1294 2753 
L 1863 2753 
Q 2328 2753 2575 2939 
Q 2822 3125 2822 3475 
Q 2822 3834 2567 4026 
Q 2313 4219 1838 4219 
Q 1578 4219 1281 4162 
Q 984 4106 628 3988 
L 628 4550 
Q 988 4650 1302 4700 
Q 1616 4750 1894 4750 
Q 2613 4750 3031 4423 
Q 3450 4097 3450 3541 
Q 3450 3153 3228 2886 
Q 3006 2619 2597 2516 
z
" transform="scale(0.015625)"/>
       </defs>
       <use xlink:href="#DejaVuSans-33"/>
       <use xlink:href="#DejaVuSans-30" x="63.623047"/>
      </g>
     </g>
    </g>
    <g id="xtick_5">
     <g id="line2d_5">
      <g>
       <use xlink:href="#m49d34ab7b2" x="535.995634" y="639.64" style="stroke: #000000; stroke-width: 0.8"/>
      </g>
     </g>
     <g id="text_5">
      <!-- 40 -->
      <g transform="translate(527.088134 657.277812) scale(0.14 -0.14)">
       <defs>
        <path id="DejaVuSans-34" d="M 2419 4116 
L 825 1625 
L 2419 1625 
L 2419 4116 
z
M 2253 4666 
L 3047 4666 
L 3047 1625 
L 3713 1625 
L 3713 1100 
L 3047 1100 
L 3047 0 
L 2419 0 
L 2419 1100 
L 313 1100 
L 313 1709 
L 2253 4666 
z
" transform="scale(0.015625)"/>
       </defs>
       <use xlink:href="#DejaVuSans-34"/>
       <use xlink:href="#DejaVuSans-30" x="63.623047"/>
      </g>
     </g>
    </g>
    <g id="xtick_6">
     <g id="line2d_6">
      <g>
       <use xlink:href="#m49d34ab7b2" x="643.289543" y="639.64" style="stroke: #000000; stroke-width: 0.8"/>
      </g>
     </g>
     <g id="text_6">
      <!-- 50 -->
      <g transform="translate(634.382043 657.277812) scale(0.14 -0.14)">
       <defs>
        <path id="DejaVuSans-35" d="M 691 4666 
L 3169 4666 
L 3169 4134 
L 1269 4134 
L 1269 2991 
Q 1406 3038 1543 3061 
Q 1681 3084 1819 3084 
Q 2600 3084 3056 2656 
Q 3513 2228 3513 1497 
Q 3513 744 3044 326 
Q 2575 -91 1722 -91 
Q 1428 -91 1123 -41 
Q 819 9 494 109 
L 494 744 
Q 775 591 1075 516 
Q 1375 441 1709 441 
Q 2250 441 2565 725 
Q 2881 1009 2881 1497 
Q 2881 1984 2565 2268 
Q 2250 2553 1709 2553 
Q 1456 2553 1204 2497 
Q 953 2441 691 2322 
L 691 4666 
z
" transform="scale(0.015625)"/>
       </defs>
       <use xlink:href="#DejaVuSans-35"/>
       <use xlink:href="#DejaVuSans-30" x="63.623047"/>
      </g>
     </g>
    </g>
    <g id="xtick_7">
     <g id="line2d_7">
      <g>
       <use xlink:href="#m49d34ab7b2" x="750.583451" y="639.64" style="stroke: #000000; stroke-width: 0.8"/>
      </g>
     </g>
     <g id="text_7">
      <!-- 60 -->
      <g transform="translate(741.675951 657.277812) scale(0.14 -0.14)">
       <defs>
        <path id="DejaVuSans-36" d="M 2113 2584 
Q 1688 2584 1439 2293 
Q 1191 2003 1191 1497 
Q 1191 994 1439 701 
Q 1688 409 2113 409 
Q 2538 409 2786 701 
Q 3034 994 3034 1497 
Q 3034 2003 2786 2293 
Q 2538 2584 2113 2584 
z
M 3366 4563 
L 3366 3988 
Q 3128 4100 2886 4159 
Q 2644 4219 2406 4219 
Q 1781 4219 1451 3797 
Q 1122 3375 1075 2522 
Q 1259 2794 1537 2939 
Q 1816 3084 2150 3084 
Q 2853 3084 3261 2657 
Q 3669 2231 3669 1497 
Q 3669 778 3244 343 
Q 2819 -91 2113 -91 
Q 1303 -91 875 529 
Q 447 1150 447 2328 
Q 447 3434 972 4092 
Q 1497 4750 2381 4750 
Q 2619 4750 2861 4703 
Q 3103 4656 3366 4563 
z
" transform="scale(0.015625)"/>
       </defs>
       <use xlink:href="#DejaVuSans-36"/>
       <use xlink:href="#DejaVuSans-30" x="63.623047"/>
      </g>
     </g>
    </g>
    <g id="text_8">
     <!-- Observed Time(s) -->
     <g transform="translate(388.351688 674.827188) scale(0.14 -0.14)">
      <defs>
       <path id="DejaVuSans-4f" d="M 2522 4238 
Q 1834 4238 1429 3725 
Q 1025 3213 1025 2328 
Q 1025 1447 1429 934 
Q 1834 422 2522 422 
Q 3209 422 3611 934 
Q 4013 1447 4013 2328 
Q 4013 3213 3611 3725 
Q 3209 4238 2522 4238 
z
M 2522 4750 
Q 3503 4750 4090 4092 
Q 4678 3434 4678 2328 
Q 4678 1225 4090 567 
Q 3503 -91 2522 -91 
Q 1538 -91 948 565 
Q 359 1222 359 2328 
Q 359 3434 948 4092 
Q 1538 4750 2522 4750 
z
" transform="scale(0.015625)"/>
       <path id="DejaVuSans-62" d="M 3116 1747 
Q 3116 2381 2855 2742 
Q 2594 3103 2138 3103 
Q 1681 3103 1420 2742 
Q 1159 2381 1159 1747 
Q 1159 1113 1420 752 
Q 1681 391 2138 391 
Q 2594 391 2855 752 
Q 3116 1113 3116 1747 
z
M 1159 2969 
Q 1341 3281 1617 3432 
Q 1894 3584 2278 3584 
Q 2916 3584 3314 3078 
Q 3713 2572 3713 1747 
Q 3713 922 3314 415 
Q 2916 -91 2278 -91 
Q 1894 -91 1617 61 
Q 1341 213 1159 525 
L 1159 0 
L 581 0 
L 581 4863 
L 1159 4863 
L 1159 2969 
z
" transform="scale(0.015625)"/>
       <path id="DejaVuSans-73" d="M 2834 3397 
L 2834 2853 
Q 2591 2978 2328 3040 
Q 2066 3103 1784 3103 
Q 1356 3103 1142 2972 
Q 928 2841 928 2578 
Q 928 2378 1081 2264 
Q 1234 2150 1697 2047 
L 1894 2003 
Q 2506 1872 2764 1633 
Q 3022 1394 3022 966 
Q 3022 478 2636 193 
Q 2250 -91 1575 -91 
Q 1294 -91 989 -36 
Q 684 19 347 128 
L 347 722 
Q 666 556 975 473 
Q 1284 391 1588 391 
Q 1994 391 2212 530 
Q 2431 669 2431 922 
Q 2431 1156 2273 1281 
Q 2116 1406 1581 1522 
L 1381 1569 
Q 847 1681 609 1914 
Q 372 2147 372 2553 
Q 372 3047 722 3315 
Q 1072 3584 1716 3584 
Q 2034 3584 2315 3537 
Q 2597 3491 2834 3397 
z
" transform="scale(0.015625)"/>
       <path id="DejaVuSans-65" d="M 3597 1894 
L 3597 1613 
L 953 1613 
Q 991 1019 1311 708 
Q 1631 397 2203 397 
Q 2534 397 2845 478 
Q 3156 559 3463 722 
L 3463 178 
Q 3153 47 2828 -22 
Q 2503 -91 2169 -91 
Q 1331 -91 842 396 
Q 353 884 353 1716 
Q 353 2575 817 3079 
Q 1281 3584 2069 3584 
Q 2775 3584 3186 3129 
Q 3597 2675 3597 1894 
z
M 3022 2063 
Q 3016 2534 2758 2815 
Q 2500 3097 2075 3097 
Q 1594 3097 1305 2825 
Q 1016 2553 972 2059 
L 3022 2063 
z
" transform="scale(0.015625)"/>
       <path id="DejaVuSans-72" d="M 2631 2963 
Q 2534 3019 2420 3045 
Q 2306 3072 2169 3072 
Q 1681 3072 1420 2755 
Q 1159 2438 1159 1844 
L 1159 0 
L 581 0 
L 581 3500 
L 1159 3500 
L 1159 2956 
Q 1341 3275 1631 3429 
Q 1922 3584 2338 3584 
Q 2397 3584 2469 3576 
Q 2541 3569 2628 3553 
L 2631 2963 
z
" transform="scale(0.015625)"/>
       <path id="DejaVuSans-76" d="M 191 3500 
L 800 3500 
L 1894 563 
L 2988 3500 
L 3597 3500 
L 2284 0 
L 1503 0 
L 191 3500 
z
" transform="scale(0.015625)"/>
       <path id="DejaVuSans-64" d="M 2906 2969 
L 2906 4863 
L 3481 4863 
L 3481 0 
L 2906 0 
L 2906 525 
Q 2725 213 2448 61 
Q 2172 -91 1784 -91 
Q 1150 -91 751 415 
Q 353 922 353 1747 
Q 353 2572 751 3078 
Q 1150 3584 1784 3584 
Q 2172 3584 2448 3432 
Q 2725 3281 2906 2969 
z
M 947 1747 
Q 947 1113 1208 752 
Q 1469 391 1925 391 
Q 2381 391 2643 752 
Q 2906 1113 2906 1747 
Q 2906 2381 2643 2742 
Q 2381 3103 1925 3103 
Q 1469 3103 1208 2742 
Q 947 2381 947 1747 
z
" transform="scale(0.015625)"/>
       <path id="DejaVuSans-20" transform="scale(0.015625)"/>
       <path id="DejaVuSans-54" d="M -19 4666 
L 3928 4666 
L 3928 4134 
L 2272 4134 
L 2272 0 
L 1638 0 
L 1638 4134 
L -19 4134 
L -19 4666 
z
" transform="scale(0.015625)"/>
       <path id="DejaVuSans-69" d="M 603 3500 
L 1178 3500 
L 1178 0 
L 603 0 
L 603 3500 
z
M 603 4863 
L 1178 4863 
L 1178 4134 
L 603 4134 
L 603 4863 
z
" transform="scale(0.015625)"/>
       <path id="DejaVuSans-6d" d="M 3328 2828 
Q 3544 3216 3844 3400 
Q 4144 3584 4550 3584 
Q 5097 3584 5394 3201 
Q 5691 2819 5691 2113 
L 5691 0 
L 5113 0 
L 5113 2094 
Q 5113 2597 4934 2840 
Q 4756 3084 4391 3084 
Q 3944 3084 3684 2787 
Q 3425 2491 3425 1978 
L 3425 0 
L 2847 0 
L 2847 2094 
Q 2847 2600 2669 2842 
Q 2491 3084 2119 3084 
Q 1678 3084 1418 2786 
Q 1159 2488 1159 1978 
L 1159 0 
L 581 0 
L 581 3500 
L 1159 3500 
L 1159 2956 
Q 1356 3278 1631 3431 
Q 1906 3584 2284 3584 
Q 2666 3584 2933 3390 
Q 3200 3197 3328 2828 
z
" transform="scale(0.015625)"/>
       <path id="DejaVuSans-28" d="M 1984 4856 
Q 1566 4138 1362 3434 
Q 1159 2731 1159 2009 
Q 1159 1288 1364 580 
Q 1569 -128 1984 -844 
L 1484 -844 
Q 1016 -109 783 600 
Q 550 1309 550 2009 
Q 550 2706 781 3412 
Q 1013 4119 1484 4856 
L 1984 4856 
z
" transform="scale(0.015625)"/>
       <path id="DejaVuSans-29" d="M 513 4856 
L 1013 4856 
Q 1481 4119 1714 3412 
Q 1947 2706 1947 2009 
Q 1947 1309 1714 600 
Q 1481 -109 1013 -844 
L 513 -844 
Q 928 -128 1133 580 
Q 1338 1288 1338 2009 
Q 1338 2731 1133 3434 
Q 928 4138 513 4856 
z
" transform="scale(0.015625)"/>
      </defs>
      <use xlink:href="#DejaVuSans-4f"/>
      <use xlink:href="#DejaVuSans-62" x="78.710938"/>
      <use xlink:href="#DejaVuSans-73" x="142.1875"/>
      <use xlink:href="#DejaVuSans-65" x="194.287109"/>
      <use xlink:href="#DejaVuSans-72" x="255.810547"/>
      <use xlink:href="#DejaVuSans-76" x="296.923828"/>
      <use xlink:href="#DejaVuSans-65" x="356.103516"/>
      <use xlink:href="#DejaVuSans-64" x="417.626953"/>
      <use xlink:href="#DejaVuSans-20" x="481.103516"/>
      <use xlink:href="#DejaVuSans-54" x="512.890625"/>
      <use xlink:href="#DejaVuSans-69" x="570.849609"/>
      <use xlink:href="#DejaVuSans-6d" x="598.632812"/>
      <use xlink:href="#DejaVuSans-65" x="696.044922"/>
      <use xlink:href="#DejaVuSans-28" x="757.568359"/>
      <use xlink:href="#DejaVuSans-73" x="796.582031"/>
      <use xlink:href="#DejaVuSans-29" x="848.681641"/>
     </g>
    </g>
   </g>
   <g id="matplotlib.axis_2">
    <g id="ytick_1">
     <g id="line2d_8">
      <defs>
       <path id="mc9de66a85b" d="M 0 0 
L -3.5 0 
" style="stroke: #000000; stroke-width: 0.8"/>
      </defs>
      <g>
       <use xlink:href="#mc9de66a85b" x="106.82" y="639.64" style="stroke: #000000; stroke-width: 0.8"/>
      </g>
     </g>
     <g id="text_9">
      <!-- 0 -->
      <g transform="translate(90.9125 644.958906) scale(0.14 -0.14)">
       <use xlink:href="#DejaVuSans-30"/>
      </g>
     </g>
    </g>
    <g id="ytick_2">
     <g id="line2d_9">
      <g>
       <use xlink:href="#mc9de66a85b" x="106.82" y="553.101017" style="stroke: #000000; stroke-width: 0.8"/>
      </g>
     </g>
     <g id="text_10">
      <!-- 5 -->
      <g transform="translate(90.9125 558.419923) scale(0.14 -0.14)">
       <use xlink:href="#DejaVuSans-35"/>
      </g>
     </g>
    </g>
    <g id="ytick_3">
     <g id="line2d_10">
      <g>
       <use xlink:href="#mc9de66a85b" x="106.82" y="466.562033" style="stroke: #000000; stroke-width: 0.8"/>
      </g>
     </g>
     <g id="text_11">
      <!-- 10 -->
      <g transform="translate(82.005 471.88094) scale(0.14 -0.14)">
       <use xlink:href="#DejaVuSans-31"/>
       <use xlink:href="#DejaVuSans-30" x="63.623047"/>
      </g>
     </g>
    </g>
    <g id="ytick_4">
     <g id="line2d_11">
      <g>
       <use xlink:href="#mc9de66a85b" x="106.82" y="380.02305" style="stroke: #000000; stroke-width: 0.8"/>
      </g>
     </g>
     <g id="text_12">
      <!-- 15 -->
      <g transform="translate(82.005 385.341956) scale(0.14 -0.14)">
       <use xlink:href="#DejaVuSans-31"/>
       <use xlink:href="#DejaVuSans-35" x="63.623047"/>
      </g>
     </g>
    </g>
    <g id="ytick_5">
     <g id="line2d_12">
      <g>
       <use xlink:href="#mc9de66a85b" x="106.82" y="293.484067" style="stroke: #000000; stroke-width: 0.8"/>
      </g>
     </g>
     <g id="text_13">
      <!-- 20 -->
      <g transform="translate(82.005 298.802973) scale(0.14 -0.14)">
       <use xlink:href="#DejaVuSans-32"/>
       <use xlink:href="#DejaVuSans-30" x="63.623047"/>
      </g>
     </g>
    </g>
    <g id="ytick_6">
     <g id="line2d_13">
      <g>
       <use xlink:href="#mc9de66a85b" x="106.82" y="206.945083" style="stroke: #000000; stroke-width: 0.8"/>
      </g>
     </g>
     <g id="text_14">
      <!-- 25 -->
      <g transform="translate(82.005 212.26399) scale(0.14 -0.14)">
       <use xlink:href="#DejaVuSans-32"/>
       <use xlink:href="#DejaVuSans-35" x="63.623047"/>
      </g>
     </g>
    </g>
    <g id="ytick_7">
     <g id="line2d_14">
      <g>
       <use xlink:href="#mc9de66a85b" x="106.82" y="120.4061" style="stroke: #000000; stroke-width: 0.8"/>
      </g>
     </g>
     <g id="text_15">
      <!-- 30 -->
      <g transform="translate(82.005 125.725006) scale(0.14 -0.14)">
       <use xlink:href="#DejaVuSans-33"/>
       <use xlink:href="#DejaVuSans-30" x="63.623047"/>
      </g>
     </g>
    </g>
    <g id="text_16">
     <!-- Interarrival Time (ms) -->
     <g transform="translate(75.093438 426.478594) rotate(-90) scale(0.14 -0.14)">
      <defs>
       <path id="DejaVuSans-49" d="M 628 4666 
L 1259 4666 
L 1259 0 
L 628 0 
L 628 4666 
z
" transform="scale(0.015625)"/>
       <path id="DejaVuSans-6e" d="M 3513 2113 
L 3513 0 
L 2938 0 
L 2938 2094 
Q 2938 2591 2744 2837 
Q 2550 3084 2163 3084 
Q 1697 3084 1428 2787 
Q 1159 2491 1159 1978 
L 1159 0 
L 581 0 
L 581 3500 
L 1159 3500 
L 1159 2956 
Q 1366 3272 1645 3428 
Q 1925 3584 2291 3584 
Q 2894 3584 3203 3211 
Q 3513 2838 3513 2113 
z
" transform="scale(0.015625)"/>
       <path id="DejaVuSans-74" d="M 1172 4494 
L 1172 3500 
L 2356 3500 
L 2356 3053 
L 1172 3053 
L 1172 1153 
Q 1172 725 1289 603 
Q 1406 481 1766 481 
L 2356 481 
L 2356 0 
L 1766 0 
Q 1100 0 847 248 
Q 594 497 594 1153 
L 594 3053 
L 172 3053 
L 172 3500 
L 594 3500 
L 594 4494 
L 1172 4494 
z
" transform="scale(0.015625)"/>
       <path id="DejaVuSans-61" d="M 2194 1759 
Q 1497 1759 1228 1600 
Q 959 1441 959 1056 
Q 959 750 1161 570 
Q 1363 391 1709 391 
Q 2188 391 2477 730 
Q 2766 1069 2766 1631 
L 2766 1759 
L 2194 1759 
z
M 3341 1997 
L 3341 0 
L 2766 0 
L 2766 531 
Q 2569 213 2275 61 
Q 1981 -91 1556 -91 
Q 1019 -91 701 211 
Q 384 513 384 1019 
Q 384 1609 779 1909 
Q 1175 2209 1959 2209 
L 2766 2209 
L 2766 2266 
Q 2766 2663 2505 2880 
Q 2244 3097 1772 3097 
Q 1472 3097 1187 3025 
Q 903 2953 641 2809 
L 641 3341 
Q 956 3463 1253 3523 
Q 1550 3584 1831 3584 
Q 2591 3584 2966 3190 
Q 3341 2797 3341 1997 
z
" transform="scale(0.015625)"/>
       <path id="DejaVuSans-6c" d="M 603 4863 
L 1178 4863 
L 1178 0 
L 603 0 
L 603 4863 
z
" transform="scale(0.015625)"/>
      </defs>
      <use xlink:href="#DejaVuSans-49"/>
      <use xlink:href="#DejaVuSans-6e" x="29.492188"/>
      <use xlink:href="#DejaVuSans-74" x="92.871094"/>
      <use xlink:href="#DejaVuSans-65" x="132.080078"/>
      <use xlink:href="#DejaVuSans-72" x="193.603516"/>
      <use xlink:href="#DejaVuSans-61" x="234.716797"/>
      <use xlink:href="#DejaVuSans-72" x="295.996094"/>
      <use xlink:href="#DejaVuSans-72" x="335.359375"/>
      <use xlink:href="#DejaVuSans-69" x="376.472656"/>
      <use xlink:href="#DejaVuSans-76" x="404.255859"/>
      <use xlink:href="#DejaVuSans-61" x="463.435547"/>
      <use xlink:href="#DejaVuSans-6c" x="524.714844"/>
      <use xlink:href="#DejaVuSans-20" x="552.498047"/>
      <use xlink:href="#DejaVuSans-54" x="584.285156"/>
      <use xlink:href="#DejaVuSans-69" x="642.244141"/>
      <use xlink:href="#DejaVuSans-6d" x="670.027344"/>
      <use xlink:href="#DejaVuSans-65" x="767.439453"/>
      <use xlink:href="#DejaVuSans-20" x="828.962891"/>
      <use xlink:href="#DejaVuSans-28" x="860.75"/>
      <use xlink:href="#DejaVuSans-6d" x="899.763672"/>
      <use xlink:href="#DejaVuSans-73" x="997.175781"/>
      <use xlink:href="#DejaVuSans-29" x="1049.275391"/>
     </g>
    </g>
   </g>
   <g id="line2d_15">
    <path d="M 106.82 61.048925 
L 107.178678 61.668215 
L 107.536973 61.161979 
L 108.254027 61.685384 
L 108.612311 61.169162 
L 108.970914 61.711312 
L 109.329182 61.214509 
L 109.687758 61.541678 
L 110.404597 61.24902 
L 110.763151 61.561634 
L 111.121512 61.575757 
L 111.479863 61.877709 
L 111.838028 61.550591 
L 112.913189 61.50161 
L 113.271586 61.43385 
L 113.630026 61.55838 
L 113.988388 61.812528 
L 114.346593 61.602047 
L 115.78002 61.459345 
L 116.138444 61.289763 
L 116.855302 61.880945 
L 117.213465 61.563936 
L 117.571824 61.605249 
L 117.930157 61.533509 
L 118.288535 61.311917 
L 119.005414 61.844184 
L 119.363599 61.263368 
L 119.722145 61.887245 
L 120.080303 61.574615 
L 121.155391 61.441691 
L 121.513825 61.949103 
L 121.871946 61.363511 
L 122.230429 62.022852 
L 122.588503 61.686371 
L 123.305067 61.687686 
L 123.663349 61.447973 
L 124.380096 61.693069 
L 124.738375 61.666796 
L 125.09667 62.033046 
L 125.454738 61.680798 
L 126.171295 61.691788 
L 126.529574 61.426408 
L 126.888019 61.685108 
L 127.246302 61.596422 
L 127.604641 62.01489 
L 127.962721 61.408598 
L 128.321176 61.949415 
L 129.037585 61.453045 
L 129.754304 61.958398 
L 130.112419 61.424089 
L 130.470865 61.990954 
L 131.187242 61.345113 
L 131.545736 61.991802 
L 131.90383 61.493147 
L 132.620455 62.144526 
L 133.336663 61.48117 
L 133.695073 61.9607 
L 134.053186 61.879664 
L 134.411349 61.503306 
L 135.127961 62.123583 
L 135.485973 61.518278 
L 135.84436 62.046425 
L 136.56063 61.456039 
L 136.919056 62.136356 
L 137.27706 61.459327 
L 137.635484 61.839943 
L 137.993672 61.681992 
L 138.351957 62.131095 
L 138.709965 61.782377 
L 139.426399 61.781927 
L 139.784622 61.579945 
L 140.142971 61.734383 
L 140.501225 62.106224 
L 140.859248 61.477656 
L 141.21766 62.150462 
L 141.575655 61.467168 
L 141.934074 61.898651 
L 142.292226 61.499724 
L 142.650625 62.188591 
L 143.366757 61.649748 
L 143.725062 62.186947 
L 144.083035 61.876947 
L 144.799372 61.868068 
L 145.157543 61.646875 
L 145.873992 62.139541 
L 146.231995 61.623578 
L 146.590317 62.146672 
L 146.948314 61.887851 
L 147.306472 61.917257 
L 147.664612 61.580222 
L 148.022961 62.207249 
L 148.380921 61.585328 
L 149.097429 62.176337 
L 149.455408 61.87243 
L 150.171729 61.871911 
L 150.529897 61.649263 
L 151.24633 62.125574 
L 151.604341 61.890118 
L 152.678785 61.885965 
L 153.036944 61.608261 
L 153.395275 61.865784 
L 154.469643 62.27899 
L 155.185679 61.654404 
L 155.543982 62.228538 
L 155.901929 61.685575 
L 156.618351 62.285757 
L 156.976262 61.657969 
L 157.692671 62.284234 
L 158.050584 61.646096 
L 158.408892 62.011117 
L 158.766973 61.923453 
L 159.125109 62.296627 
L 159.483014 61.682442 
L 159.8413 62.251817 
L 160.199232 61.999071 
L 160.915418 61.982421 
L 161.273518 61.701636 
L 161.989893 62.270146 
L 162.347815 61.663975 
L 162.706111 62.322606 
L 163.064 61.974875 
L 163.422104 61.987457 
L 163.780201 61.657034 
L 164.138502 62.363227 
L 164.496365 61.785856 
L 165.212659 62.343912 
L 165.570535 62.057589 
L 165.928588 62.087739 
L 166.644715 61.80197 
L 167.002926 62.04215 
L 167.360989 62.010529 
L 167.719071 62.379167 
L 168.076924 62.074671 
L 168.793029 62.036404 
L 169.151095 61.740891 
L 169.509344 62.004679 
L 170.225482 62.11467 
L 170.5835 62.311563 
L 170.941395 62.028581 
L 171.657519 62.078825 
L 172.015559 61.831358 
L 172.373752 62.082875 
L 173.089863 62.032994 
L 173.447931 62.051167 
L 173.805988 62.290223 
L 174.521947 61.850934 
L 174.880128 62.024046 
L 175.238202 62.365235 
L 175.596064 61.917984 
L 175.954204 62.369077 
L 176.312063 62.136028 
L 177.028088 62.086839 
L 177.386123 61.878591 
L 177.744286 62.106275 
L 178.102309 62.096323 
L 178.460338 62.369527 
L 178.818198 62.133656 
L 179.534228 62.11377 
L 179.892246 61.897855 
L 180.250398 62.082841 
L 180.966453 62.152695 
L 181.324447 62.342787 
L 181.682324 62.094022 
L 182.398361 62.104302 
L 182.756385 61.781633 
L 183.114609 62.228572 
L 183.472556 62.033877 
L 183.830624 62.435002 
L 184.188443 62.130801 
L 184.904468 62.085956 
L 185.262503 61.832137 
L 185.620696 62.536045 
L 185.978452 61.842764 
L 186.336639 62.478635 
L 186.694431 62.179678 
L 187.768349 62.166714 
L 188.126335 62.02164 
L 188.48441 62.070621 
L 188.842455 62.413247 
L 189.200287 62.174814 
L 189.916246 62.16848 
L 190.27423 61.825456 
L 190.990392 62.467662 
L 191.706165 61.876497 
L 192.06433 62.488674 
L 192.422116 61.841328 
L 192.780303 62.473339 
L 193.138098 61.864918 
L 193.496271 62.193714 
L 194.570232 62.180699 
L 194.928208 62.475987 
L 195.286002 62.143245 
L 195.644002 62.173464 
L 196.001983 61.899811 
L 196.360134 62.526699 
L 196.717896 61.867809 
L 197.434006 62.542484 
L 197.791758 62.242869 
L 198.507638 62.238213 
L 198.865579 61.875614 
L 199.581685 62.48793 
L 199.939471 62.233765 
L 200.655364 62.179505 
L 201.013341 61.90457 
L 201.729415 62.475226 
L 202.087209 61.884372 
L 202.44537 62.311113 
L 202.803266 62.418629 
L 203.519081 61.883888 
L 203.877242 62.166576 
L 204.235227 62.092516 
L 204.593259 62.168497 
L 204.951243 62.057381 
L 205.309296 62.480072 
L 205.667087 62.147883 
L 206.383089 62.152885 
L 206.741082 61.838385 
L 207.099271 62.317586 
L 207.815233 61.700511 
L 208.173508 62.319231 
L 208.531398 62.020585 
L 209.247535 62.070085 
L 209.605581 61.700858 
L 209.963855 62.115864 
L 210.321872 61.867497 
L 210.680042 62.364577 
L 211.037905 62.017019 
L 211.754063 62.020827 
L 212.112139 61.702069 
L 212.470412 62.307998 
L 212.82831 61.726335 
L 213.544633 62.346196 
L 213.902507 61.706673 
L 214.260777 62.313796 
L 214.618671 61.687911 
L 214.976953 62.008815 
L 215.335036 62.101654 
L 215.693062 61.966775 
L 216.051171 62.3076 
L 216.409069 61.748419 
L 216.767314 62.261648 
L 217.483331 61.726387 
L 217.84159 62.352462 
L 218.19946 61.748921 
L 218.557704 62.377281 
L 218.915559 62.006981 
L 219.989744 62.114081 
L 220.347762 61.73151 
L 220.706017 62.08722 
L 221.064051 61.982109 
L 221.422151 62.341817 
L 221.780028 62.040073 
L 222.496148 62.056464 
L 222.854202 61.748921 
L 223.570532 62.338563 
L 223.928411 62.072491 
L 224.644529 62.035573 
L 225.002596 62.039173 
L 225.36066 61.727131 
L 225.718918 62.016811 
L 226.435061 61.978146 
L 226.793163 62.391889 
L 227.151009 62.041267 
L 227.867146 62.03154 
L 228.225215 61.802731 
L 229.299532 62.366515 
L 229.657394 62.058817 
L 230.373502 62.065394 
L 230.73155 61.768341 
L 231.089782 62.076264 
L 231.805886 62.041146 
L 232.163949 62.326794 
L 232.521835 62.115449 
L 232.879852 62.037373 
L 233.237918 62.098954 
L 233.595945 61.775697 
L 233.954173 62.053002 
L 234.312229 62.127841 
L 234.670238 62.364265 
L 235.028101 62.089816 
L 235.744174 62.101049 
L 236.1022 61.845395 
L 237.176499 62.372348 
L 237.534357 62.090387 
L 238.250438 62.043085 
L 238.6085 61.758268 
L 238.966738 62.142276 
L 239.682767 62.082806 
L 240.398808 62.093433 
L 242.904968 62.176441 
L 243.262948 62.005059 
L 243.621033 62.01084 
L 243.979115 62.156416 
L 245.769234 62.079846 
L 246.843301 62.108491 
L 257.583594 62.141843 
L 257.941595 61.229203 
L 258.300161 62.125816 
L 259.732208 62.103229 
L 260.090233 62.196726 
L 260.806209 62.115483 
L 262.238192 62.191464 
L 263.312167 62.157039 
L 264.744123 62.15202 
L 265.102117 62.11801 
L 265.460133 62.224124 
L 266.176073 62.112679 
L 268.324064 62.197159 
L 269.398002 62.117301 
L 270.113999 62.153664 
L 273.33584 62.186843 
L 275.483697 62.199582 
L 275.841662 62.141376 
L 276.199663 62.245274 
L 277.273556 62.160033 
L 278.347501 62.163859 
L 279.779401 62.194978 
L 280.495361 62.165312 
L 281.927263 62.188972 
L 282.643224 62.194234 
L 284.433038 62.251678 
L 284.79097 62.169743 
L 285.148954 62.232605 
L 285.506898 62.165676 
L 286.222836 62.214726 
L 286.580791 62.16526 
L 286.938777 62.238161 
L 288.01266 62.185043 
L 289.086586 62.185839 
L 291.592345 62.198232 
L 291.95031 62.505982 
L 292.308085 61.951284 
L 292.666204 62.206297 
L 296.961647 62.241692 
L 297.319586 62.518132 
L 297.677353 61.960025 
L 298.035467 62.175593 
L 300.183238 62.225509 
L 300.899158 62.228607 
L 305.552504 62.279509 
L 306.268379 62.23662 
L 308.058073 62.224886 
L 308.773937 62.22762 
L 310.563677 62.219036 
L 320.585906 62.392789 
L 320.943751 62.115674 
L 321.659703 62.274421 
L 322.375581 62.251488 
L 323.449365 62.280825 
L 324.165223 62.213013 
L 324.523179 62.317742 
L 325.239003 62.27854 
L 326.312789 62.245482 
L 327.028629 62.293546 
L 327.744473 62.267151 
L 333.471245 62.268605 
L 333.829167 62.591344 
L 334.186889 61.984896 
L 334.544987 62.250449 
L 338.839942 62.306146 
L 339.555777 62.286675 
L 343.134865 62.30824 
L 343.8507 62.255919 
L 344.566522 62.275857 
L 345.282337 62.296765 
L 345.998178 62.290534 
L 353.514234 62.199028 
L 353.872199 62.410581 
L 354.587935 62.250138 
L 355.661669 62.304692 
L 358.524902 62.475762 
L 358.882696 62.15768 
L 359.240687 62.329529 
L 360.314368 62.315181 
L 362.103851 62.323159 
L 363.535414 62.292594 
L 363.893321 62.177982 
L 364.251299 62.327729 
L 365.682878 62.30213 
L 368.188167 62.289444 
L 369.977611 62.331883 
L 371.051275 62.300832 
L 373.198621 62.322259 
L 373.914423 62.32039 
L 375.345983 62.35305 
L 376.419632 62.28458 
L 378.209094 62.318694 
L 378.566985 62.493641 
L 378.924768 62.132029 
L 379.282775 62.349156 
L 385.008839 62.331017 
L 385.724629 62.339481 
L 386.082507 62.379064 
L 386.440361 62.29583 
L 387.156124 62.336158 
L 387.87191 62.343963 
L 389.66126 62.325063 
L 391.092785 62.358329 
L 392.882173 62.349035 
L 393.240045 62.668917 
L 393.597719 62.051894 
L 393.955776 62.340986 
L 396.103012 62.324319 
L 396.4609 62.630529 
L 396.818598 62.108474 
L 397.176619 62.329529 
L 400.75538 62.50117 
L 401.113158 62.211663 
L 401.828993 62.391006 
L 402.902598 62.333942 
L 403.976219 62.361635 
L 406.123433 62.365494 
L 408.628461 62.380985 
L 409.702073 62.335396 
L 410.775694 62.372625 
L 412.20714 62.370652 
L 412.564999 62.655833 
L 412.922681 62.129779 
L 413.28069 62.344171 
L 415.785756 62.319058 
L 416.143647 62.182672 
L 416.501622 62.333163 
L 420.080349 62.331208 
L 422.943339 62.357775 
L 423.301206 62.425691 
L 423.65903 62.36134 
L 424.016895 62.592953 
L 424.374616 62.0885 
L 424.73265 62.319248 
L 425.806256 62.402273 
L 431.889794 62.305973 
L 432.247693 62.473547 
L 432.963334 62.357014 
L 434.394737 62.393308 
L 435.826155 62.333856 
L 436.541877 62.400075 
L 439.046859 62.382629 
L 439.40471 62.441164 
L 440.120389 62.355162 
L 448.350955 62.489695 
L 448.70874 62.29159 
L 449.42451 62.532584 
L 449.782268 62.244755 
L 450.140205 62.450701 
L 450.855874 62.364179 
L 461.59128 62.402083 
L 463.022682 62.379946 
L 463.738353 62.390919 
L 464.454068 62.401045 
L 466.958907 62.400698 
L 467.674619 62.393498 
L 474.473539 62.410685 
L 474.831373 62.618188 
L 475.189079 62.146187 
L 475.547077 62.404714 
L 480.198926 62.412866 
L 481.630265 62.407985 
L 482.703775 62.401875 
L 483.777268 62.405302 
L 484.49296 62.418889 
L 485.208609 62.392477 
L 485.566455 62.329719 
L 486.640062 62.415773 
L 490.218382 62.451479 
L 490.934037 62.41901 
L 492.007518 62.437858 
L 492.365335 62.65855 
L 492.723015 62.101377 
L 493.081041 62.471176 
L 494.154488 62.40056 
L 495.943644 62.410408 
L 497.375008 62.379133 
L 498.448515 62.479258 
L 499.164141 62.393429 
L 502.026788 62.429862 
L 502.38461 62.51043 
L 502.742382 62.331035 
L 503.100266 62.412381 
L 503.458099 62.370704 
L 504.173768 62.450753 
L 504.531577 62.469255 
L 504.889375 62.370704 
L 505.605049 62.399002 
L 514.192885 62.448866 
L 514.908536 62.450908 
L 516.697617 62.410477 
L 517.413255 62.412848 
L 519.202418 62.299742 
L 519.560321 62.489955 
L 520.633736 62.358917 
L 520.991602 62.434397 
L 521.349422 62.36494 
L 522.422912 62.474499 
L 522.780706 62.391075 
L 523.854197 62.453331 
L 525.285473 62.42306 
L 530.652777 62.448883 
L 531.010587 62.64614 
L 531.368275 62.260626 
L 532.08404 62.432181 
L 536.735644 62.412572 
L 537.093477 62.572513 
L 537.451211 62.304034 
L 537.809111 62.456776 
L 539.95597 62.428304 
L 540.313793 62.731104 
L 540.671428 62.094385 
L 541.029458 62.448883 
L 543.176399 62.43026 
L 544.96546 62.432424 
L 546.038938 62.425137 
L 547.112381 62.446737 
L 547.470193 62.381193 
L 548.185858 62.440368 
L 549.259324 62.432649 
L 571.085893 62.433687 
L 571.443713 62.059077 
L 571.801765 62.711702 
L 572.159413 62.445283 
L 572.517225 62.343323 
L 573.232903 62.488449 
L 574.306322 62.430935 
L 575.737558 62.493866 
L 576.095341 62.410097 
L 577.168775 62.456516 
L 579.315573 62.458489 
L 580.746833 62.478774 
L 581.104625 62.516107 
L 581.820219 62.439018 
L 585.398369 62.426193 
L 586.471793 62.489297 
L 587.545211 62.463318 
L 590.049847 62.483326 
L 591.123255 62.446408 
L 591.481067 62.56893 
L 591.838803 62.385277 
L 592.196653 62.449472 
L 592.554463 62.692664 
L 592.912122 62.237763 
L 593.270063 62.454612 
L 594.343486 62.453106 
L 594.701294 62.601192 
L 595.05901 62.367121 
L 595.416871 62.471297 
L 595.774668 62.403848 
L 596.490307 62.476212 
L 596.8481 62.428927 
L 597.205923 62.509893 
L 598.27927 62.376987 
L 598.994916 62.474239 
L 600.783925 62.463387 
L 601.141726 62.788272 
L 601.499326 62.158978 
L 601.857316 62.458005 
L 602.215121 62.411429 
L 602.572954 62.523255 
L 603.288526 62.429222 
L 604.00415 62.468891 
L 604.361948 62.346958 
L 604.719821 62.53087 
L 607.582245 62.449472 
L 607.940055 62.516176 
L 608.655631 62.414423 
L 609.371262 62.486285 
L 610.802464 62.445006 
L 611.160277 62.448329 
L 611.518088 62.747425 
L 611.875713 62.151483 
L 612.233708 62.498972 
L 613.307113 62.464443 
L 618.316385 62.456758 
L 619.031958 62.474672 
L 619.74759 62.43952 
L 620.463191 62.46633 
L 624.041191 62.465845 
L 624.398991 62.28188 
L 624.756905 62.639252 
L 625.472423 62.322744 
L 625.830312 62.600327 
L 626.188028 62.442185 
L 626.545843 62.501482 
L 626.90362 62.689617 
L 627.261282 62.222324 
L 627.619232 62.474464 
L 627.977027 62.194545 
L 628.334995 62.440022 
L 629.76622 62.487185 
L 630.839622 62.443829 
L 634.059828 62.507747 
L 634.417602 62.442272 
L 634.775416 62.517907 
L 635.133184 62.439745 
L 636.206596 62.464824 
L 638.353386 62.501343 
L 639.42677 62.473824 
L 642.289116 62.459458 
L 642.646919 62.534851 
L 643.362487 62.460099 
L 643.72029 62.520088 
L 644.078057 62.409093 
L 644.435892 62.502711 
L 645.151472 62.480332 
L 645.509262 62.528516 
L 646.224838 62.467662 
L 648.729424 62.482149 
L 650.160585 62.462003 
L 650.518387 62.330186 
L 650.876271 62.57253 
L 651.591807 62.463318 
L 654.4542 62.47346 
L 655.885385 62.464581 
L 656.243186 62.553803 
L 656.600931 62.429447 
L 657.316535 62.449714 
L 658.389923 62.661094 
L 658.747601 62.354937 
L 659.463279 62.487376 
L 670.197122 62.430554 
L 670.554944 62.509564 
L 670.912717 62.427975 
L 671.628323 62.472335 
L 676.637504 62.568255 
L 676.995241 62.360164 
L 677.353106 62.493035 
L 678.784279 62.450718 
L 679.499874 62.463508 
L 679.857676 62.383443 
L 680.215527 62.634925 
L 680.573222 62.456672 
L 682.362206 62.494334 
L 682.719988 62.529538 
L 683.077748 62.442081 
L 683.435563 62.515864 
L 684.508933 62.486891 
L 689.160187 62.503368 
L 690.591349 62.476351 
L 690.949142 62.547538 
L 691.6647 62.465083 
L 692.0225 62.473789 
L 692.380295 62.629611 
L 692.737993 62.304 
L 693.095894 62.469808 
L 693.453691 62.42107 
L 693.811519 62.572721 
L 694.527053 62.46581 
L 700.251686 62.457866 
L 700.609491 62.780345 
L 700.967096 62.143556 
L 701.325095 62.509063 
L 728.874784 62.483257 
L 729.232574 62.437893 
L 729.590391 62.646988 
L 729.948078 62.356304 
L 730.305946 62.501378 
L 730.663724 62.827422 
L 731.0213 62.220801 
L 731.379251 62.460306 
L 733.526006 62.54174 
L 734.241554 62.464841 
L 734.957127 62.506674 
L 736.030497 62.477753 
L 737.103847 62.507938 
L 737.819434 62.446824 
L 738.892818 62.54283 
L 739.608363 62.45662 
L 739.966168 62.471453 
L 740.323965 62.635583 
L 740.681659 62.335275 
L 741.03954 62.497795 
L 749.98417 62.671237 
L 750.341843 62.295727 
L 750.699748 62.49011 
L 751.057533 62.446547 
L 751.415344 62.808349 
L 751.772932 62.173101 
L 752.130913 62.506934 
L 756.066562 62.484728 
L 756.42435 62.797012 
L 756.781945 62.173049 
L 757.139926 62.46176 
L 758.928831 62.517059 
L 760.00219 62.475883 
L 760.359984 62.538884 
L 761.075537 62.47102 
L 761.433333 62.496012 
L 761.433333 62.496012 
" clip-path="url(#pe8eacaec1f)" style="fill: none; stroke: #1f77b4; stroke-width: 1.5; stroke-linecap: square"/>
   </g>
   <g id="line2d_16">
    <path d="M 106.82 62.291854 
L 794.164 62.291854 
" clip-path="url(#pe8eacaec1f)" style="fill: none; stroke-dasharray: 5.55,2.4; stroke-dashoffset: 0; stroke: #0000ff; stroke-width: 1.5"/>
   </g>
   <g id="patch_3">
    <path d="M 106.82 639.64 
L 106.82 60.96 
" style="fill: none; stroke: #000000; stroke-width: 0.8; stroke-linejoin: miter; stroke-linecap: square"/>
   </g>
   <g id="patch_4">
    <path d="M 794.164 639.64 
L 794.164 60.96 
" style="fill: none; stroke: #000000; stroke-width: 0.8; stroke-linejoin: miter; stroke-linecap: square"/>
   </g>
   <g id="patch_5">
    <path d="M 106.82 639.64 
L 794.164 639.64 
" style="fill: none; stroke: #000000; stroke-width: 0.8; stroke-linejoin: miter; stroke-linecap: square"/>
   </g>
   <g id="patch_6">
    <path d="M 106.82 60.96 
L 794.164 60.96 
" style="fill: none; stroke: #000000; stroke-width: 0.8; stroke-linejoin: miter; stroke-linecap: square"/>
   </g>
   <g id="text_17">
    <!-- Interarrival Time (SelectionProcess: 16777217) -->
    <g transform="translate(252.807188 54.96) scale(0.168 -0.168)">
     <defs>
      <path id="DejaVuSans-53" d="M 3425 4513 
L 3425 3897 
Q 3066 4069 2747 4153 
Q 2428 4238 2131 4238 
Q 1616 4238 1336 4038 
Q 1056 3838 1056 3469 
Q 1056 3159 1242 3001 
Q 1428 2844 1947 2747 
L 2328 2669 
Q 3034 2534 3370 2195 
Q 3706 1856 3706 1288 
Q 3706 609 3251 259 
Q 2797 -91 1919 -91 
Q 1588 -91 1214 -16 
Q 841 59 441 206 
L 441 856 
Q 825 641 1194 531 
Q 1563 422 1919 422 
Q 2459 422 2753 634 
Q 3047 847 3047 1241 
Q 3047 1584 2836 1778 
Q 2625 1972 2144 2069 
L 1759 2144 
Q 1053 2284 737 2584 
Q 422 2884 422 3419 
Q 422 4038 858 4394 
Q 1294 4750 2059 4750 
Q 2388 4750 2728 4690 
Q 3069 4631 3425 4513 
z
" transform="scale(0.015625)"/>
      <path id="DejaVuSans-63" d="M 3122 3366 
L 3122 2828 
Q 2878 2963 2633 3030 
Q 2388 3097 2138 3097 
Q 1578 3097 1268 2742 
Q 959 2388 959 1747 
Q 959 1106 1268 751 
Q 1578 397 2138 397 
Q 2388 397 2633 464 
Q 2878 531 3122 666 
L 3122 134 
Q 2881 22 2623 -34 
Q 2366 -91 2075 -91 
Q 1284 -91 818 406 
Q 353 903 353 1747 
Q 353 2603 823 3093 
Q 1294 3584 2113 3584 
Q 2378 3584 2631 3529 
Q 2884 3475 3122 3366 
z
" transform="scale(0.015625)"/>
      <path id="DejaVuSans-6f" d="M 1959 3097 
Q 1497 3097 1228 2736 
Q 959 2375 959 1747 
Q 959 1119 1226 758 
Q 1494 397 1959 397 
Q 2419 397 2687 759 
Q 2956 1122 2956 1747 
Q 2956 2369 2687 2733 
Q 2419 3097 1959 3097 
z
M 1959 3584 
Q 2709 3584 3137 3096 
Q 3566 2609 3566 1747 
Q 3566 888 3137 398 
Q 2709 -91 1959 -91 
Q 1206 -91 779 398 
Q 353 888 353 1747 
Q 353 2609 779 3096 
Q 1206 3584 1959 3584 
z
" transform="scale(0.015625)"/>
      <path id="DejaVuSans-50" d="M 1259 4147 
L 1259 2394 
L 2053 2394 
Q 2494 2394 2734 2622 
Q 2975 2850 2975 3272 
Q 2975 3691 2734 3919 
Q 2494 4147 2053 4147 
L 1259 4147 
z
M 628 4666 
L 2053 4666 
Q 2838 4666 3239 4311 
Q 3641 3956 3641 3272 
Q 3641 2581 3239 2228 
Q 2838 1875 2053 1875 
L 1259 1875 
L 1259 0 
L 628 0 
L 628 4666 
z
" transform="scale(0.015625)"/>
      <path id="DejaVuSans-3a" d="M 750 794 
L 1409 794 
L 1409 0 
L 750 0 
L 750 794 
z
M 750 3309 
L 1409 3309 
L 1409 2516 
L 750 2516 
L 750 3309 
z
" transform="scale(0.015625)"/>
      <path id="DejaVuSans-37" d="M 525 4666 
L 3525 4666 
L 3525 4397 
L 1831 0 
L 1172 0 
L 2766 4134 
L 525 4134 
L 525 4666 
z
" transform="scale(0.015625)"/>
     </defs>
     <use xlink:href="#DejaVuSans-49"/>
     <use xlink:href="#DejaVuSans-6e" x="29.492188"/>
     <use xlink:href="#DejaVuSans-74" x="92.871094"/>
     <use xlink:href="#DejaVuSans-65" x="132.080078"/>
     <use xlink:href="#DejaVuSans-72" x="193.603516"/>
     <use xlink:href="#DejaVuSans-61" x="234.716797"/>
     <use xlink:href="#DejaVuSans-72" x="295.996094"/>
     <use xlink:href="#DejaVuSans-72" x="335.359375"/>
     <use xlink:href="#DejaVuSans-69" x="376.472656"/>
     <use xlink:href="#DejaVuSans-76" x="404.255859"/>
     <use xlink:href="#DejaVuSans-61" x="463.435547"/>
     <use xlink:href="#DejaVuSans-6c" x="524.714844"/>
     <use xlink:href="#DejaVuSans-20" x="552.498047"/>
     <use xlink:href="#DejaVuSans-54" x="584.285156"/>
     <use xlink:href="#DejaVuSans-69" x="642.244141"/>
     <use xlink:href="#DejaVuSans-6d" x="670.027344"/>
     <use xlink:href="#DejaVuSans-65" x="767.439453"/>
     <use xlink:href="#DejaVuSans-20" x="828.962891"/>
     <use xlink:href="#DejaVuSans-28" x="860.75"/>
     <use xlink:href="#DejaVuSans-53" x="899.763672"/>
     <use xlink:href="#DejaVuSans-65" x="963.240234"/>
     <use xlink:href="#DejaVuSans-6c" x="1024.763672"/>
     <use xlink:href="#DejaVuSans-65" x="1052.546875"/>
     <use xlink:href="#DejaVuSans-63" x="1114.070312"/>
     <use xlink:href="#DejaVuSans-74" x="1169.050781"/>
     <use xlink:href="#DejaVuSans-69" x="1208.259766"/>
     <use xlink:href="#DejaVuSans-6f" x="1236.042969"/>
     <use xlink:href="#DejaVuSans-6e" x="1297.224609"/>
     <use xlink:href="#DejaVuSans-50" x="1360.603516"/>
     <use xlink:href="#DejaVuSans-72" x="1419.15625"/>
     <use xlink:href="#DejaVuSans-6f" x="1458.019531"/>
     <use xlink:href="#DejaVuSans-63" x="1519.201172"/>
     <use xlink:href="#DejaVuSans-65" x="1574.181641"/>
     <use xlink:href="#DejaVuSans-73" x="1635.705078"/>
     <use xlink:href="#DejaVuSans-73" x="1687.804688"/>
     <use xlink:href="#DejaVuSans-3a" x="1739.904297"/>
     <use xlink:href="#DejaVuSans-20" x="1773.595703"/>
     <use xlink:href="#DejaVuSans-31" x="1805.382812"/>
     <use xlink:href="#DejaVuSans-36" x="1869.005859"/>
     <use xlink:href="#DejaVuSans-37" x="1932.628906"/>
     <use xlink:href="#DejaVuSans-37" x="1996.251953"/>
     <use xlink:href="#DejaVuSans-37" x="2059.875"/>
     <use xlink:href="#DejaVuSans-32" x="2123.498047"/>
     <use xlink:href="#DejaVuSans-31" x="2187.121094"/>
     <use xlink:href="#DejaVuSans-37" x="2250.744141"/>
     <use xlink:href="#DejaVuSans-29" x="2314.367188"/>
    </g>
   </g>
   <g id="legend_1">
    <g id="patch_7">
     <path d="M 803.964 372.949375 
L 1026.758688 372.949375 
Q 1029.558688 372.949375 1029.558688 370.149375 
L 1029.558688 330.450625 
Q 1029.558688 327.650625 1026.758688 327.650625 
L 803.964 327.650625 
Q 801.164 327.650625 801.164 330.450625 
L 801.164 370.149375 
Q 801.164 372.949375 803.964 372.949375 
z
" style="fill: #ffffff; opacity: 0.8; stroke: #cccccc; stroke-linejoin: miter"/>
    </g>
    <g id="line2d_17">
     <path d="M 806.764 338.988438 
L 820.764 338.988438 
L 834.764 338.988438 
" style="fill: none; stroke: #1f77b4; stroke-width: 1.5; stroke-linecap: square"/>
    </g>
    <g id="text_18">
     <!-- Interarrival Times -->
     <g transform="translate(845.964 343.888438) scale(0.14 -0.14)">
      <use xlink:href="#DejaVuSans-49"/>
      <use xlink:href="#DejaVuSans-6e" x="29.492188"/>
      <use xlink:href="#DejaVuSans-74" x="92.871094"/>
      <use xlink:href="#DejaVuSans-65" x="132.080078"/>
      <use xlink:href="#DejaVuSans-72" x="193.603516"/>
      <use xlink:href="#DejaVuSans-61" x="234.716797"/>
      <use xlink:href="#DejaVuSans-72" x="295.996094"/>
      <use xlink:href="#DejaVuSans-72" x="335.359375"/>
      <use xlink:href="#DejaVuSans-69" x="376.472656"/>
      <use xlink:href="#DejaVuSans-76" x="404.255859"/>
      <use xlink:href="#DejaVuSans-61" x="463.435547"/>
      <use xlink:href="#DejaVuSans-6c" x="524.714844"/>
      <use xlink:href="#DejaVuSans-20" x="552.498047"/>
      <use xlink:href="#DejaVuSans-54" x="584.285156"/>
      <use xlink:href="#DejaVuSans-69" x="642.244141"/>
      <use xlink:href="#DejaVuSans-6d" x="670.027344"/>
      <use xlink:href="#DejaVuSans-65" x="767.439453"/>
      <use xlink:href="#DejaVuSans-73" x="828.962891"/>
     </g>
    </g>
    <g id="line2d_18">
     <path d="M 806.764 359.537813 
L 820.764 359.537813 
L 834.764 359.537813 
" style="fill: none; stroke-dasharray: 5.55,2.4; stroke-dashoffset: 0; stroke: #0000ff; stroke-width: 1.5"/>
    </g>
    <g id="text_19">
     <!-- Interarrival Time Average -->
     <g transform="translate(845.964 364.437813) scale(0.14 -0.14)">
      <defs>
       <path id="DejaVuSans-41" d="M 2188 4044 
L 1331 1722 
L 3047 1722 
L 2188 4044 
z
M 1831 4666 
L 2547 4666 
L 4325 0 
L 3669 0 
L 3244 1197 
L 1141 1197 
L 716 0 
L 50 0 
L 1831 4666 
z
" transform="scale(0.015625)"/>
       <path id="DejaVuSans-67" d="M 2906 1791 
Q 2906 2416 2648 2759 
Q 2391 3103 1925 3103 
Q 1463 3103 1205 2759 
Q 947 2416 947 1791 
Q 947 1169 1205 825 
Q 1463 481 1925 481 
Q 2391 481 2648 825 
Q 2906 1169 2906 1791 
z
M 3481 434 
Q 3481 -459 3084 -895 
Q 2688 -1331 1869 -1331 
Q 1566 -1331 1297 -1286 
Q 1028 -1241 775 -1147 
L 775 -588 
Q 1028 -725 1275 -790 
Q 1522 -856 1778 -856 
Q 2344 -856 2625 -561 
Q 2906 -266 2906 331 
L 2906 616 
Q 2728 306 2450 153 
Q 2172 0 1784 0 
Q 1141 0 747 490 
Q 353 981 353 1791 
Q 353 2603 747 3093 
Q 1141 3584 1784 3584 
Q 2172 3584 2450 3431 
Q 2728 3278 2906 2969 
L 2906 3500 
L 3481 3500 
L 3481 434 
z
" transform="scale(0.015625)"/>
      </defs>
      <use xlink:href="#DejaVuSans-49"/>
      <use xlink:href="#DejaVuSans-6e" x="29.492188"/>
      <use xlink:href="#DejaVuSans-74" x="92.871094"/>
      <use xlink:href="#DejaVuSans-65" x="132.080078"/>
      <use xlink:href="#DejaVuSans-72" x="193.603516"/>
      <use xlink:href="#DejaVuSans-61" x="234.716797"/>
      <use xlink:href="#DejaVuSans-72" x="295.996094"/>
      <use xlink:href="#DejaVuSans-72" x="335.359375"/>
      <use xlink:href="#DejaVuSans-69" x="376.472656"/>
      <use xlink:href="#DejaVuSans-76" x="404.255859"/>
      <use xlink:href="#DejaVuSans-61" x="463.435547"/>
      <use xlink:href="#DejaVuSans-6c" x="524.714844"/>
      <use xlink:href="#DejaVuSans-20" x="552.498047"/>
      <use xlink:href="#DejaVuSans-54" x="584.285156"/>
      <use xlink:href="#DejaVuSans-69" x="642.244141"/>
      <use xlink:href="#DejaVuSans-6d" x="670.027344"/>
      <use xlink:href="#DejaVuSans-65" x="767.439453"/>
      <use xlink:href="#DejaVuSans-20" x="828.962891"/>
      <use xlink:href="#DejaVuSans-41" x="860.75"/>
      <use xlink:href="#DejaVuSans-76" x="923.283203"/>
      <use xlink:href="#DejaVuSans-65" x="982.462891"/>
      <use xlink:href="#DejaVuSans-72" x="1043.986328"/>
      <use xlink:href="#DejaVuSans-61" x="1085.099609"/>
      <use xlink:href="#DejaVuSans-67" x="1146.378906"/>
      <use xlink:href="#DejaVuSans-65" x="1209.855469"/>
     </g>
    </g>
   </g>
  </g>
 </g>
 <defs>
  <clipPath id="pe8eacaec1f">
   <rect x="106.82" y="60.96" width="687.344" height="578.68"/>
  </clipPath>
 </defs>
</svg>
