<?xml version="1.0" encoding="utf-8" standalone="no"?>
<!DOCTYPE svg PUBLIC "-//W3C//DTD SVG 1.1//EN"
  "http://www.w3.org/Graphics/SVG/1.1/DTD/svg11.dtd">
<svg xmlns:xlink="http://www.w3.org/1999/xlink" width="1080pt" height="720pt" viewBox="0 0 1080 720" xmlns="http://www.w3.org/2000/svg" version="1.1">
 <metadata>
  <rdf:RDF xmlns:dc="http://purl.org/dc/elements/1.1/" xmlns:cc="http://creativecommons.org/ns#" xmlns:rdf="http://www.w3.org/1999/02/22-rdf-syntax-ns#">
   <cc:Work>
    <dc:type rdf:resource="http://purl.org/dc/dcmitype/StillImage"/>
    <dc:date>2023-04-13T18:54:41.865658</dc:date>
    <dc:format>image/svg+xml</dc:format>
    <dc:creator>
     <cc:Agent>
      <dc:title>Matplotlib v3.6.2, https://matplotlib.org/</dc:title>
     </cc:Agent>
    </dc:creator>
   </cc:Work>
  </rdf:RDF>
 </metadata>
 <defs>
  <style type="text/css">*{stroke-linejoin: round; stroke-linecap: butt}</style>
 </defs>
 <g id="figure_1">
  <g id="patch_1">
   <path d="M 0 720 
L 1080 720 
L 1080 0 
L 0 0 
z
" style="fill: #ffffff"/>
  </g>
  <g id="axes_1">
   <g id="patch_2">
    <path d="M 71.22 652.92 
L 806.805 652.92 
L 806.805 46.96 
L 71.22 46.96 
z
" style="fill: #ffffff"/>
   </g>
   <g id="matplotlib.axis_1">
    <g id="xtick_1">
     <g id="line2d_1">
      <defs>
       <path id="m024f61b820" d="M 0 0 
L 0 3.5 
" style="stroke: #000000; stroke-width: 0.8"/>
      </defs>
      <g>
       <use xlink:href="#m024f61b820" x="71.22" y="652.92" style="stroke: #000000; stroke-width: 0.8"/>
      </g>
     </g>
     <g id="text_1">
      <!-- 0 -->
      <g transform="translate(66.76625 670.557812) scale(0.14 -0.14)">
       <defs>
        <path id="DejaVuSans-30" d="M 2034 4250 
Q 1547 4250 1301 3770 
Q 1056 3291 1056 2328 
Q 1056 1369 1301 889 
Q 1547 409 2034 409 
Q 2525 409 2770 889 
Q 3016 1369 3016 2328 
Q 3016 3291 2770 3770 
Q 2525 4250 2034 4250 
z
M 2034 4750 
Q 2819 4750 3233 4129 
Q 3647 3509 3647 2328 
Q 3647 1150 3233 529 
Q 2819 -91 2034 -91 
Q 1250 -91 836 529 
Q 422 1150 422 2328 
Q 422 3509 836 4129 
Q 1250 4750 2034 4750 
z
" transform="scale(0.015625)"/>
       </defs>
       <use xlink:href="#DejaVuSans-30"/>
      </g>
     </g>
    </g>
    <g id="xtick_2">
     <g id="line2d_2">
      <g>
       <use xlink:href="#m024f61b820" x="187.026083" y="652.92" style="stroke: #000000; stroke-width: 0.8"/>
      </g>
     </g>
     <g id="text_2">
      <!-- 10 -->
      <g transform="translate(178.118583 670.557812) scale(0.14 -0.14)">
       <defs>
        <path id="DejaVuSans-31" d="M 794 531 
L 1825 531 
L 1825 4091 
L 703 3866 
L 703 4441 
L 1819 4666 
L 2450 4666 
L 2450 531 
L 3481 531 
L 3481 0 
L 794 0 
L 794 531 
z
" transform="scale(0.015625)"/>
       </defs>
       <use xlink:href="#DejaVuSans-31"/>
       <use xlink:href="#DejaVuSans-30" x="63.623047"/>
      </g>
     </g>
    </g>
    <g id="xtick_3">
     <g id="line2d_3">
      <g>
       <use xlink:href="#m024f61b820" x="302.832166" y="652.92" style="stroke: #000000; stroke-width: 0.8"/>
      </g>
     </g>
     <g id="text_3">
      <!-- 20 -->
      <g transform="translate(293.924666 670.557812) scale(0.14 -0.14)">
       <defs>
        <path id="DejaVuSans-32" d="M 1228 531 
L 3431 531 
L 3431 0 
L 469 0 
L 469 531 
Q 828 903 1448 1529 
Q 2069 2156 2228 2338 
Q 2531 2678 2651 2914 
Q 2772 3150 2772 3378 
Q 2772 3750 2511 3984 
Q 2250 4219 1831 4219 
Q 1534 4219 1204 4116 
Q 875 4013 500 3803 
L 500 4441 
Q 881 4594 1212 4672 
Q 1544 4750 1819 4750 
Q 2544 4750 2975 4387 
Q 3406 4025 3406 3419 
Q 3406 3131 3298 2873 
Q 3191 2616 2906 2266 
Q 2828 2175 2409 1742 
Q 1991 1309 1228 531 
z
" transform="scale(0.015625)"/>
       </defs>
       <use xlink:href="#DejaVuSans-32"/>
       <use xlink:href="#DejaVuSans-30" x="63.623047"/>
      </g>
     </g>
    </g>
    <g id="xtick_4">
     <g id="line2d_4">
      <g>
       <use xlink:href="#m024f61b820" x="418.638249" y="652.92" style="stroke: #000000; stroke-width: 0.8"/>
      </g>
     </g>
     <g id="text_4">
      <!-- 30 -->
      <g transform="translate(409.730749 670.557812) scale(0.14 -0.14)">
       <defs>
        <path id="DejaVuSans-33" d="M 2597 2516 
Q 3050 2419 3304 2112 
Q 3559 1806 3559 1356 
Q 3559 666 3084 287 
Q 2609 -91 1734 -91 
Q 1441 -91 1130 -33 
Q 819 25 488 141 
L 488 750 
Q 750 597 1062 519 
Q 1375 441 1716 441 
Q 2309 441 2620 675 
Q 2931 909 2931 1356 
Q 2931 1769 2642 2001 
Q 2353 2234 1838 2234 
L 1294 2234 
L 1294 2753 
L 1863 2753 
Q 2328 2753 2575 2939 
Q 2822 3125 2822 3475 
Q 2822 3834 2567 4026 
Q 2313 4219 1838 4219 
Q 1578 4219 1281 4162 
Q 984 4106 628 3988 
L 628 4550 
Q 988 4650 1302 4700 
Q 1616 4750 1894 4750 
Q 2613 4750 3031 4423 
Q 3450 4097 3450 3541 
Q 3450 3153 3228 2886 
Q 3006 2619 2597 2516 
z
" transform="scale(0.015625)"/>
       </defs>
       <use xlink:href="#DejaVuSans-33"/>
       <use xlink:href="#DejaVuSans-30" x="63.623047"/>
      </g>
     </g>
    </g>
    <g id="xtick_5">
     <g id="line2d_5">
      <g>
       <use xlink:href="#m024f61b820" x="534.444332" y="652.92" style="stroke: #000000; stroke-width: 0.8"/>
      </g>
     </g>
     <g id="text_5">
      <!-- 40 -->
      <g transform="translate(525.536832 670.557812) scale(0.14 -0.14)">
       <defs>
        <path id="DejaVuSans-34" d="M 2419 4116 
L 825 1625 
L 2419 1625 
L 2419 4116 
z
M 2253 4666 
L 3047 4666 
L 3047 1625 
L 3713 1625 
L 3713 1100 
L 3047 1100 
L 3047 0 
L 2419 0 
L 2419 1100 
L 313 1100 
L 313 1709 
L 2253 4666 
z
" transform="scale(0.015625)"/>
       </defs>
       <use xlink:href="#DejaVuSans-34"/>
       <use xlink:href="#DejaVuSans-30" x="63.623047"/>
      </g>
     </g>
    </g>
    <g id="xtick_6">
     <g id="line2d_6">
      <g>
       <use xlink:href="#m024f61b820" x="650.250415" y="652.92" style="stroke: #000000; stroke-width: 0.8"/>
      </g>
     </g>
     <g id="text_6">
      <!-- 50 -->
      <g transform="translate(641.342915 670.557812) scale(0.14 -0.14)">
       <defs>
        <path id="DejaVuSans-35" d="M 691 4666 
L 3169 4666 
L 3169 4134 
L 1269 4134 
L 1269 2991 
Q 1406 3038 1543 3061 
Q 1681 3084 1819 3084 
Q 2600 3084 3056 2656 
Q 3513 2228 3513 1497 
Q 3513 744 3044 326 
Q 2575 -91 1722 -91 
Q 1428 -91 1123 -41 
Q 819 9 494 109 
L 494 744 
Q 775 591 1075 516 
Q 1375 441 1709 441 
Q 2250 441 2565 725 
Q 2881 1009 2881 1497 
Q 2881 1984 2565 2268 
Q 2250 2553 1709 2553 
Q 1456 2553 1204 2497 
Q 953 2441 691 2322 
L 691 4666 
z
" transform="scale(0.015625)"/>
       </defs>
       <use xlink:href="#DejaVuSans-35"/>
       <use xlink:href="#DejaVuSans-30" x="63.623047"/>
      </g>
     </g>
    </g>
    <g id="xtick_7">
     <g id="line2d_7">
      <g>
       <use xlink:href="#m024f61b820" x="766.056498" y="652.92" style="stroke: #000000; stroke-width: 0.8"/>
      </g>
     </g>
     <g id="text_7">
      <!-- 60 -->
      <g transform="translate(757.148998 670.557812) scale(0.14 -0.14)">
       <defs>
        <path id="DejaVuSans-36" d="M 2113 2584 
Q 1688 2584 1439 2293 
Q 1191 2003 1191 1497 
Q 1191 994 1439 701 
Q 1688 409 2113 409 
Q 2538 409 2786 701 
Q 3034 994 3034 1497 
Q 3034 2003 2786 2293 
Q 2538 2584 2113 2584 
z
M 3366 4563 
L 3366 3988 
Q 3128 4100 2886 4159 
Q 2644 4219 2406 4219 
Q 1781 4219 1451 3797 
Q 1122 3375 1075 2522 
Q 1259 2794 1537 2939 
Q 1816 3084 2150 3084 
Q 2853 3084 3261 2657 
Q 3669 2231 3669 1497 
Q 3669 778 3244 343 
Q 2819 -91 2113 -91 
Q 1303 -91 875 529 
Q 447 1150 447 2328 
Q 447 3434 972 4092 
Q 1497 4750 2381 4750 
Q 2619 4750 2861 4703 
Q 3103 4656 3366 4563 
z
" transform="scale(0.015625)"/>
       </defs>
       <use xlink:href="#DejaVuSans-36"/>
       <use xlink:href="#DejaVuSans-30" x="63.623047"/>
      </g>
     </g>
    </g>
    <g id="text_8">
     <!-- Time (s) -->
     <g transform="translate(408.519141 688.867031) scale(0.15 -0.15)">
      <defs>
       <path id="DejaVuSans-54" d="M -19 4666 
L 3928 4666 
L 3928 4134 
L 2272 4134 
L 2272 0 
L 1638 0 
L 1638 4134 
L -19 4134 
L -19 4666 
z
" transform="scale(0.015625)"/>
       <path id="DejaVuSans-69" d="M 603 3500 
L 1178 3500 
L 1178 0 
L 603 0 
L 603 3500 
z
M 603 4863 
L 1178 4863 
L 1178 4134 
L 603 4134 
L 603 4863 
z
" transform="scale(0.015625)"/>
       <path id="DejaVuSans-6d" d="M 3328 2828 
Q 3544 3216 3844 3400 
Q 4144 3584 4550 3584 
Q 5097 3584 5394 3201 
Q 5691 2819 5691 2113 
L 5691 0 
L 5113 0 
L 5113 2094 
Q 5113 2597 4934 2840 
Q 4756 3084 4391 3084 
Q 3944 3084 3684 2787 
Q 3425 2491 3425 1978 
L 3425 0 
L 2847 0 
L 2847 2094 
Q 2847 2600 2669 2842 
Q 2491 3084 2119 3084 
Q 1678 3084 1418 2786 
Q 1159 2488 1159 1978 
L 1159 0 
L 581 0 
L 581 3500 
L 1159 3500 
L 1159 2956 
Q 1356 3278 1631 3431 
Q 1906 3584 2284 3584 
Q 2666 3584 2933 3390 
Q 3200 3197 3328 2828 
z
" transform="scale(0.015625)"/>
       <path id="DejaVuSans-65" d="M 3597 1894 
L 3597 1613 
L 953 1613 
Q 991 1019 1311 708 
Q 1631 397 2203 397 
Q 2534 397 2845 478 
Q 3156 559 3463 722 
L 3463 178 
Q 3153 47 2828 -22 
Q 2503 -91 2169 -91 
Q 1331 -91 842 396 
Q 353 884 353 1716 
Q 353 2575 817 3079 
Q 1281 3584 2069 3584 
Q 2775 3584 3186 3129 
Q 3597 2675 3597 1894 
z
M 3022 2063 
Q 3016 2534 2758 2815 
Q 2500 3097 2075 3097 
Q 1594 3097 1305 2825 
Q 1016 2553 972 2059 
L 3022 2063 
z
" transform="scale(0.015625)"/>
       <path id="DejaVuSans-20" transform="scale(0.015625)"/>
       <path id="DejaVuSans-28" d="M 1984 4856 
Q 1566 4138 1362 3434 
Q 1159 2731 1159 2009 
Q 1159 1288 1364 580 
Q 1569 -128 1984 -844 
L 1484 -844 
Q 1016 -109 783 600 
Q 550 1309 550 2009 
Q 550 2706 781 3412 
Q 1013 4119 1484 4856 
L 1984 4856 
z
" transform="scale(0.015625)"/>
       <path id="DejaVuSans-73" d="M 2834 3397 
L 2834 2853 
Q 2591 2978 2328 3040 
Q 2066 3103 1784 3103 
Q 1356 3103 1142 2972 
Q 928 2841 928 2578 
Q 928 2378 1081 2264 
Q 1234 2150 1697 2047 
L 1894 2003 
Q 2506 1872 2764 1633 
Q 3022 1394 3022 966 
Q 3022 478 2636 193 
Q 2250 -91 1575 -91 
Q 1294 -91 989 -36 
Q 684 19 347 128 
L 347 722 
Q 666 556 975 473 
Q 1284 391 1588 391 
Q 1994 391 2212 530 
Q 2431 669 2431 922 
Q 2431 1156 2273 1281 
Q 2116 1406 1581 1522 
L 1381 1569 
Q 847 1681 609 1914 
Q 372 2147 372 2553 
Q 372 3047 722 3315 
Q 1072 3584 1716 3584 
Q 2034 3584 2315 3537 
Q 2597 3491 2834 3397 
z
" transform="scale(0.015625)"/>
       <path id="DejaVuSans-29" d="M 513 4856 
L 1013 4856 
Q 1481 4119 1714 3412 
Q 1947 2706 1947 2009 
Q 1947 1309 1714 600 
Q 1481 -109 1013 -844 
L 513 -844 
Q 928 -128 1133 580 
Q 1338 1288 1338 2009 
Q 1338 2731 1133 3434 
Q 928 4138 513 4856 
z
" transform="scale(0.015625)"/>
      </defs>
      <use xlink:href="#DejaVuSans-54"/>
      <use xlink:href="#DejaVuSans-69" x="57.958984"/>
      <use xlink:href="#DejaVuSans-6d" x="85.742188"/>
      <use xlink:href="#DejaVuSans-65" x="183.154297"/>
      <use xlink:href="#DejaVuSans-20" x="244.677734"/>
      <use xlink:href="#DejaVuSans-28" x="276.464844"/>
      <use xlink:href="#DejaVuSans-73" x="315.478516"/>
      <use xlink:href="#DejaVuSans-29" x="367.578125"/>
     </g>
    </g>
   </g>
   <g id="matplotlib.axis_2">
    <g id="ytick_1">
     <g id="line2d_8">
      <defs>
       <path id="m0a5f71fff2" d="M 0 0 
L -3.5 0 
" style="stroke: #000000; stroke-width: 0.8"/>
      </defs>
      <g>
       <use xlink:href="#m0a5f71fff2" x="71.22" y="652.92" style="stroke: #000000; stroke-width: 0.8"/>
      </g>
     </g>
     <g id="text_9">
      <!-- 0 -->
      <g transform="translate(55.3125 658.238906) scale(0.14 -0.14)">
       <use xlink:href="#DejaVuSans-30"/>
      </g>
     </g>
    </g>
    <g id="ytick_2">
     <g id="line2d_9">
      <g>
       <use xlink:href="#m0a5f71fff2" x="71.22" y="578.90347" style="stroke: #000000; stroke-width: 0.8"/>
      </g>
     </g>
     <g id="text_10">
      <!-- 10 -->
      <g transform="translate(46.405 584.222376) scale(0.14 -0.14)">
       <use xlink:href="#DejaVuSans-31"/>
       <use xlink:href="#DejaVuSans-30" x="63.623047"/>
      </g>
     </g>
    </g>
    <g id="ytick_3">
     <g id="line2d_10">
      <g>
       <use xlink:href="#m0a5f71fff2" x="71.22" y="504.88694" style="stroke: #000000; stroke-width: 0.8"/>
      </g>
     </g>
     <g id="text_11">
      <!-- 20 -->
      <g transform="translate(46.405 510.205846) scale(0.14 -0.14)">
       <use xlink:href="#DejaVuSans-32"/>
       <use xlink:href="#DejaVuSans-30" x="63.623047"/>
      </g>
     </g>
    </g>
    <g id="ytick_4">
     <g id="line2d_11">
      <g>
       <use xlink:href="#m0a5f71fff2" x="71.22" y="430.870409" style="stroke: #000000; stroke-width: 0.8"/>
      </g>
     </g>
     <g id="text_12">
      <!-- 30 -->
      <g transform="translate(46.405 436.189316) scale(0.14 -0.14)">
       <use xlink:href="#DejaVuSans-33"/>
       <use xlink:href="#DejaVuSans-30" x="63.623047"/>
      </g>
     </g>
    </g>
    <g id="ytick_5">
     <g id="line2d_12">
      <g>
       <use xlink:href="#m0a5f71fff2" x="71.22" y="356.853879" style="stroke: #000000; stroke-width: 0.8"/>
      </g>
     </g>
     <g id="text_13">
      <!-- 40 -->
      <g transform="translate(46.405 362.172785) scale(0.14 -0.14)">
       <use xlink:href="#DejaVuSans-34"/>
       <use xlink:href="#DejaVuSans-30" x="63.623047"/>
      </g>
     </g>
    </g>
    <g id="ytick_6">
     <g id="line2d_13">
      <g>
       <use xlink:href="#m0a5f71fff2" x="71.22" y="282.837349" style="stroke: #000000; stroke-width: 0.8"/>
      </g>
     </g>
     <g id="text_14">
      <!-- 50 -->
      <g transform="translate(46.405 288.156255) scale(0.14 -0.14)">
       <use xlink:href="#DejaVuSans-35"/>
       <use xlink:href="#DejaVuSans-30" x="63.623047"/>
      </g>
     </g>
    </g>
    <g id="ytick_7">
     <g id="line2d_14">
      <g>
       <use xlink:href="#m0a5f71fff2" x="71.22" y="208.820819" style="stroke: #000000; stroke-width: 0.8"/>
      </g>
     </g>
     <g id="text_15">
      <!-- 60 -->
      <g transform="translate(46.405 214.139725) scale(0.14 -0.14)">
       <use xlink:href="#DejaVuSans-36"/>
       <use xlink:href="#DejaVuSans-30" x="63.623047"/>
      </g>
     </g>
    </g>
    <g id="ytick_8">
     <g id="line2d_15">
      <g>
       <use xlink:href="#m0a5f71fff2" x="71.22" y="134.804288" style="stroke: #000000; stroke-width: 0.8"/>
      </g>
     </g>
     <g id="text_16">
      <!-- 70 -->
      <g transform="translate(46.405 140.123195) scale(0.14 -0.14)">
       <defs>
        <path id="DejaVuSans-37" d="M 525 4666 
L 3525 4666 
L 3525 4397 
L 1831 0 
L 1172 0 
L 2766 4134 
L 525 4134 
L 525 4666 
z
" transform="scale(0.015625)"/>
       </defs>
       <use xlink:href="#DejaVuSans-37"/>
       <use xlink:href="#DejaVuSans-30" x="63.623047"/>
      </g>
     </g>
    </g>
    <g id="ytick_9">
     <g id="line2d_16">
      <g>
       <use xlink:href="#m0a5f71fff2" x="71.22" y="60.787758" style="stroke: #000000; stroke-width: 0.8"/>
      </g>
     </g>
     <g id="text_17">
      <!-- 80 -->
      <g transform="translate(46.405 66.106664) scale(0.14 -0.14)">
       <defs>
        <path id="DejaVuSans-38" d="M 2034 2216 
Q 1584 2216 1326 1975 
Q 1069 1734 1069 1313 
Q 1069 891 1326 650 
Q 1584 409 2034 409 
Q 2484 409 2743 651 
Q 3003 894 3003 1313 
Q 3003 1734 2745 1975 
Q 2488 2216 2034 2216 
z
M 1403 2484 
Q 997 2584 770 2862 
Q 544 3141 544 3541 
Q 544 4100 942 4425 
Q 1341 4750 2034 4750 
Q 2731 4750 3128 4425 
Q 3525 4100 3525 3541 
Q 3525 3141 3298 2862 
Q 3072 2584 2669 2484 
Q 3125 2378 3379 2068 
Q 3634 1759 3634 1313 
Q 3634 634 3220 271 
Q 2806 -91 2034 -91 
Q 1263 -91 848 271 
Q 434 634 434 1313 
Q 434 1759 690 2068 
Q 947 2378 1403 2484 
z
M 1172 3481 
Q 1172 3119 1398 2916 
Q 1625 2713 2034 2713 
Q 2441 2713 2670 2916 
Q 2900 3119 2900 3481 
Q 2900 3844 2670 4047 
Q 2441 4250 2034 4250 
Q 1625 4250 1398 4047 
Q 1172 3844 1172 3481 
z
" transform="scale(0.015625)"/>
       </defs>
       <use xlink:href="#DejaVuSans-38"/>
       <use xlink:href="#DejaVuSans-30" x="63.623047"/>
      </g>
     </g>
    </g>
    <g id="text_18">
     <!-- Packets per Second -->
     <g transform="translate(39.285469 423.207969) rotate(-90) scale(0.15 -0.15)">
      <defs>
       <path id="DejaVuSans-50" d="M 1259 4147 
L 1259 2394 
L 2053 2394 
Q 2494 2394 2734 2622 
Q 2975 2850 2975 3272 
Q 2975 3691 2734 3919 
Q 2494 4147 2053 4147 
L 1259 4147 
z
M 628 4666 
L 2053 4666 
Q 2838 4666 3239 4311 
Q 3641 3956 3641 3272 
Q 3641 2581 3239 2228 
Q 2838 1875 2053 1875 
L 1259 1875 
L 1259 0 
L 628 0 
L 628 4666 
z
" transform="scale(0.015625)"/>
       <path id="DejaVuSans-61" d="M 2194 1759 
Q 1497 1759 1228 1600 
Q 959 1441 959 1056 
Q 959 750 1161 570 
Q 1363 391 1709 391 
Q 2188 391 2477 730 
Q 2766 1069 2766 1631 
L 2766 1759 
L 2194 1759 
z
M 3341 1997 
L 3341 0 
L 2766 0 
L 2766 531 
Q 2569 213 2275 61 
Q 1981 -91 1556 -91 
Q 1019 -91 701 211 
Q 384 513 384 1019 
Q 384 1609 779 1909 
Q 1175 2209 1959 2209 
L 2766 2209 
L 2766 2266 
Q 2766 2663 2505 2880 
Q 2244 3097 1772 3097 
Q 1472 3097 1187 3025 
Q 903 2953 641 2809 
L 641 3341 
Q 956 3463 1253 3523 
Q 1550 3584 1831 3584 
Q 2591 3584 2966 3190 
Q 3341 2797 3341 1997 
z
" transform="scale(0.015625)"/>
       <path id="DejaVuSans-63" d="M 3122 3366 
L 3122 2828 
Q 2878 2963 2633 3030 
Q 2388 3097 2138 3097 
Q 1578 3097 1268 2742 
Q 959 2388 959 1747 
Q 959 1106 1268 751 
Q 1578 397 2138 397 
Q 2388 397 2633 464 
Q 2878 531 3122 666 
L 3122 134 
Q 2881 22 2623 -34 
Q 2366 -91 2075 -91 
Q 1284 -91 818 406 
Q 353 903 353 1747 
Q 353 2603 823 3093 
Q 1294 3584 2113 3584 
Q 2378 3584 2631 3529 
Q 2884 3475 3122 3366 
z
" transform="scale(0.015625)"/>
       <path id="DejaVuSans-6b" d="M 581 4863 
L 1159 4863 
L 1159 1991 
L 2875 3500 
L 3609 3500 
L 1753 1863 
L 3688 0 
L 2938 0 
L 1159 1709 
L 1159 0 
L 581 0 
L 581 4863 
z
" transform="scale(0.015625)"/>
       <path id="DejaVuSans-74" d="M 1172 4494 
L 1172 3500 
L 2356 3500 
L 2356 3053 
L 1172 3053 
L 1172 1153 
Q 1172 725 1289 603 
Q 1406 481 1766 481 
L 2356 481 
L 2356 0 
L 1766 0 
Q 1100 0 847 248 
Q 594 497 594 1153 
L 594 3053 
L 172 3053 
L 172 3500 
L 594 3500 
L 594 4494 
L 1172 4494 
z
" transform="scale(0.015625)"/>
       <path id="DejaVuSans-70" d="M 1159 525 
L 1159 -1331 
L 581 -1331 
L 581 3500 
L 1159 3500 
L 1159 2969 
Q 1341 3281 1617 3432 
Q 1894 3584 2278 3584 
Q 2916 3584 3314 3078 
Q 3713 2572 3713 1747 
Q 3713 922 3314 415 
Q 2916 -91 2278 -91 
Q 1894 -91 1617 61 
Q 1341 213 1159 525 
z
M 3116 1747 
Q 3116 2381 2855 2742 
Q 2594 3103 2138 3103 
Q 1681 3103 1420 2742 
Q 1159 2381 1159 1747 
Q 1159 1113 1420 752 
Q 1681 391 2138 391 
Q 2594 391 2855 752 
Q 3116 1113 3116 1747 
z
" transform="scale(0.015625)"/>
       <path id="DejaVuSans-72" d="M 2631 2963 
Q 2534 3019 2420 3045 
Q 2306 3072 2169 3072 
Q 1681 3072 1420 2755 
Q 1159 2438 1159 1844 
L 1159 0 
L 581 0 
L 581 3500 
L 1159 3500 
L 1159 2956 
Q 1341 3275 1631 3429 
Q 1922 3584 2338 3584 
Q 2397 3584 2469 3576 
Q 2541 3569 2628 3553 
L 2631 2963 
z
" transform="scale(0.015625)"/>
       <path id="DejaVuSans-53" d="M 3425 4513 
L 3425 3897 
Q 3066 4069 2747 4153 
Q 2428 4238 2131 4238 
Q 1616 4238 1336 4038 
Q 1056 3838 1056 3469 
Q 1056 3159 1242 3001 
Q 1428 2844 1947 2747 
L 2328 2669 
Q 3034 2534 3370 2195 
Q 3706 1856 3706 1288 
Q 3706 609 3251 259 
Q 2797 -91 1919 -91 
Q 1588 -91 1214 -16 
Q 841 59 441 206 
L 441 856 
Q 825 641 1194 531 
Q 1563 422 1919 422 
Q 2459 422 2753 634 
Q 3047 847 3047 1241 
Q 3047 1584 2836 1778 
Q 2625 1972 2144 2069 
L 1759 2144 
Q 1053 2284 737 2584 
Q 422 2884 422 3419 
Q 422 4038 858 4394 
Q 1294 4750 2059 4750 
Q 2388 4750 2728 4690 
Q 3069 4631 3425 4513 
z
" transform="scale(0.015625)"/>
       <path id="DejaVuSans-6f" d="M 1959 3097 
Q 1497 3097 1228 2736 
Q 959 2375 959 1747 
Q 959 1119 1226 758 
Q 1494 397 1959 397 
Q 2419 397 2687 759 
Q 2956 1122 2956 1747 
Q 2956 2369 2687 2733 
Q 2419 3097 1959 3097 
z
M 1959 3584 
Q 2709 3584 3137 3096 
Q 3566 2609 3566 1747 
Q 3566 888 3137 398 
Q 2709 -91 1959 -91 
Q 1206 -91 779 398 
Q 353 888 353 1747 
Q 353 2609 779 3096 
Q 1206 3584 1959 3584 
z
" transform="scale(0.015625)"/>
       <path id="DejaVuSans-6e" d="M 3513 2113 
L 3513 0 
L 2938 0 
L 2938 2094 
Q 2938 2591 2744 2837 
Q 2550 3084 2163 3084 
Q 1697 3084 1428 2787 
Q 1159 2491 1159 1978 
L 1159 0 
L 581 0 
L 581 3500 
L 1159 3500 
L 1159 2956 
Q 1366 3272 1645 3428 
Q 1925 3584 2291 3584 
Q 2894 3584 3203 3211 
Q 3513 2838 3513 2113 
z
" transform="scale(0.015625)"/>
       <path id="DejaVuSans-64" d="M 2906 2969 
L 2906 4863 
L 3481 4863 
L 3481 0 
L 2906 0 
L 2906 525 
Q 2725 213 2448 61 
Q 2172 -91 1784 -91 
Q 1150 -91 751 415 
Q 353 922 353 1747 
Q 353 2572 751 3078 
Q 1150 3584 1784 3584 
Q 2172 3584 2448 3432 
Q 2725 3281 2906 2969 
z
M 947 1747 
Q 947 1113 1208 752 
Q 1469 391 1925 391 
Q 2381 391 2643 752 
Q 2906 1113 2906 1747 
Q 2906 2381 2643 2742 
Q 2381 3103 1925 3103 
Q 1469 3103 1208 2742 
Q 947 2381 947 1747 
z
" transform="scale(0.015625)"/>
      </defs>
      <use xlink:href="#DejaVuSans-50"/>
      <use xlink:href="#DejaVuSans-61" x="55.802734"/>
      <use xlink:href="#DejaVuSans-63" x="117.082031"/>
      <use xlink:href="#DejaVuSans-6b" x="172.0625"/>
      <use xlink:href="#DejaVuSans-65" x="226.347656"/>
      <use xlink:href="#DejaVuSans-74" x="287.871094"/>
      <use xlink:href="#DejaVuSans-73" x="327.080078"/>
      <use xlink:href="#DejaVuSans-20" x="379.179688"/>
      <use xlink:href="#DejaVuSans-70" x="410.966797"/>
      <use xlink:href="#DejaVuSans-65" x="474.443359"/>
      <use xlink:href="#DejaVuSans-72" x="535.966797"/>
      <use xlink:href="#DejaVuSans-20" x="577.080078"/>
      <use xlink:href="#DejaVuSans-53" x="608.867188"/>
      <use xlink:href="#DejaVuSans-65" x="672.34375"/>
      <use xlink:href="#DejaVuSans-63" x="733.867188"/>
      <use xlink:href="#DejaVuSans-6f" x="788.847656"/>
      <use xlink:href="#DejaVuSans-6e" x="850.029297"/>
      <use xlink:href="#DejaVuSans-64" x="913.408203"/>
     </g>
    </g>
   </g>
   <g id="line2d_17">
    <path d="M 71.22 206.132978 
L 72.518011 256.703033 
L 74.052604 206.075054 
L 75.231485 216.664093 
L 76.412211 217.345606 
L 77.710641 256.831198 
L 80.306432 168.798626 
L 81.604335 256.670296 
L 84.200853 169.001929 
L 85.380514 216.952399 
L 86.560653 289.76073 
L 88.093917 149.783891 
L 89.273723 217.00607 
L 90.571689 256.689437 
L 91.987069 168.438647 
L 93.166474 289.53485 
L 94.464654 190.727291 
L 95.88177 229.518016 
L 97.180581 190.95183 
L 98.24161 168.207584 
L 99.539899 124.74398 
L 100.838411 256.855879 
L 102.017676 216.805962 
L 103.079213 168.439875 
L 104.260224 217.450842 
L 105.793387 205.65827 
L 106.97236 216.698173 
L 108.26944 256.418479 
L 109.684515 168.334256 
L 110.863376 216.656744 
L 112.160264 256.360212 
L 113.342255 217.811786 
L 114.75775 229.033142 
L 116.055962 190.738781 
L 117.117121 168.266914 
L 118.41551 256.81849 
L 119.829807 228.674321 
L 121.00985 144.455688 
L 122.188804 216.691206 
L 123.427971 237.88791 
L 124.844705 229.404085 
L 126.0246 144.392059 
L 127.2041 216.892922 
L 128.444289 238.230282 
L 129.859558 228.965544 
L 131.392657 149.729395 
L 132.571761 216.746514 
L 133.869591 256.647865 
L 136.46301 168.191718 
L 137.642947 217.054518 
L 138.82078 216.276098 
L 140.234821 228.597355 
L 141.413763 143.981153 
L 142.591784 216.345559 
L 143.887955 256.140698 
L 145.301695 167.876624 
L 146.479311 216.195411 
L 147.776992 256.602331 
L 149.190789 167.896108 
L 150.193233 225.38691 
L 151.373242 217.080932 
L 152.553499 144.54813 
L 153.850291 256.330723 
L 155.264591 168.068721 
L 156.443228 216.573805 
L 157.623036 289.658948 
L 158.801899 216.657314 
L 160.099033 190.354336 
L 161.280227 217.518251 
L 162.458591 216.472614 
L 163.636946 216.46953 
L 165.050912 228.574905 
L 166.229208 143.701892 
L 167.52712 256.672785 
L 168.707472 217.207726 
L 169.769757 168.780961 
L 171.066457 256.302565 
L 172.009217 107.400441 
L 173.423994 228.818203 
L 174.72033 190.069561 
L 175.902255 217.787584 
L 177.316155 167.931826 
L 178.49586 289.62709 
L 180.030134 150.114851 
L 181.328247 256.734371 
L 182.742866 168.178016 
L 184.276324 205.744344 
L 185.45636 289.729303 
L 186.753398 190.320019 
L 188.170358 229.471484 
L 189.350044 216.961797 
L 190.882906 149.651908 
L 192.17986 256.380204 
L 193.358457 216.558919 
L 194.539336 217.402226 
L 195.954164 228.833481 
L 197.132303 143.634169 
L 198.430672 256.812195 
L 199.844484 167.90136 
L 201.023397 289.383203 
L 203.734821 143.895912 
L 204.678449 198.738751 
L 205.974457 256.090714 
L 207.270632 190.012105 
L 208.451985 217.57725 
L 210.704171 141.753011 
L 211.99933 255.830647 
L 213.180463 217.495754 
L 214.476065 255.966352 
L 215.774653 190.872694 
L 217.128436 146.394806 
L 219.486599 289.21224 
L 220.783866 190.401723 
L 221.962326 216.508156 
L 223.141223 216.669849 
L 224.555884 168.192722 
L 225.853434 256.562192 
L 227.031628 216.409561 
L 228.210813 216.776619 
L 229.390664 71.723744 
L 230.569959 216.817114 
L 231.748446 216.518277 
L 233.281732 205.69398 
L 234.81358 205.274498 
L 235.995152 217.657522 
L 237.527077 205.296778 
L 238.822799 256.003228 
L 240.356088 205.694932 
L 241.535999 217.044846 
L 243.068228 205.385752 
L 244.598673 204.8638 
L 245.777693 289.416161 
L 246.955092 143.314161 
L 248.132778 289.004469 
L 249.429159 190.085992 
L 250.608404 216.798364 
L 251.785633 216.051864 
L 253.081335 123.689402 
L 254.613178 205.273012 
L 255.793334 289.766036 
L 256.856928 169.376645 
L 258.153799 190.260555 
L 259.335058 217.542279 
L 260.75127 229.247813 
L 262.281866 204.908332 
L 263.462029 144.507688 
L 264.757341 255.877455 
L 266.170162 167.5612 
L 267.348124 216.323451 
L 268.525697 288.969761 
L 269.82366 190.649694 
L 271.236395 167.531619 
L 272.295902 167.511608 
L 273.593467 256.566709 
L 276.18592 167.676116 
L 277.366187 217.176249 
L 278.662038 256.042903 
L 280.074869 167.564581 
L 281.252312 216.131238 
L 282.432489 289.772607 
L 284.789135 144.150131 
L 285.96676 288.985802 
L 287.028107 168.352773 
L 288.20556 143.337692 
L 289.384796 216.795028 
L 290.503777 193.310924 
L 291.799359 255.960366 
L 293.094246 255.747099 
L 294.392259 124.631856 
L 295.570173 216.306019 
L 296.633628 249.914368 
L 298.091875 123.900722 
L 299.742067 237.377445 
L 300.919349 216.071366 
L 302.217128 256.632109 
L 303.516315 125.10903 
L 304.692881 215.805768 
L 305.991194 256.795454 
L 307.05121 248.60686 
L 308.582361 205.070686 
L 309.760173 216.267761 
L 311.056665 256.239126 
L 312.352191 189.780188 
L 313.47449 194.669758 
L 314.536081 168.464043 
L 315.950247 228.634938 
L 317.245096 189.53837 
L 318.423523 216.495878 
L 319.605915 217.959606 
L 321.022172 168.738613 
L 322.201607 216.868746 
L 323.378917 216.081911 
L 324.909374 204.867424 
L 326.088429 289.427254 
L 327.267505 216.735992 
L 328.33068 169.186159 
L 329.507944 216.064726 
L 330.687234 216.815341 
L 331.865279 216.354559 
L 333.396552 205.106056 
L 334.575438 216.666159 
L 335.875645 191.44743 
L 336.82326 110.195879 
L 338.35499 261.199867 
L 339.534342 216.837994 
L 340.711014 215.845269 
L 341.889955 143.980583 
L 343.422347 205.433142 
L 344.954309 261.259303 
L 346.131982 216.216441 
L 347.310524 143.808475 
L 348.605884 255.892058 
L 350.018479 167.483577 
L 351.196763 216.443072 
L 352.375389 216.569753 
L 353.791533 229.227331 
L 354.968779 143.248084 
L 356.502598 205.849524 
L 357.679728 288.83244 
L 358.861032 144.998566 
L 360.389981 204.425673 
L 361.923713 205.824102 
L 363.101901 216.407592 
L 364.395744 255.426747 
L 365.810363 168.178091 
L 367.341335 205.01808 
L 368.871718 204.845871 
L 370.050551 216.646145 
L 371.227062 215.785254 
L 372.522812 256.011905 
L 373.82184 257.013252 
L 375.118411 256.262861 
L 376.299674 144.981238 
L 377.477027 143.29397 
L 378.653464 215.757813 
L 380.187464 261.779439 
L 381.366216 143.899387 
L 382.544311 216.372973 
L 383.957435 167.665041 
L 385.313516 273.670004 
L 386.609556 123.827245 
L 387.787331 289.031985 
L 389.083145 189.883453 
L 390.49684 167.861124 
L 391.674545 216.228405 
L 392.854571 217.087271 
L 394.387282 205.526523 
L 395.682604 255.880462 
L 396.978168 255.954767 
L 398.159879 72.638357 
L 399.337464 288.973355 
L 400.630868 189.020252 
L 401.69218 249.10105 
L 402.987032 189.538992 
L 404.400128 167.655537 
L 405.576442 288.580078 
L 406.87178 189.713098 
L 407.933951 168.7289 
L 409.230612 256.290649 
L 410.406831 215.676783 
L 411.824072 229.555354 
L 413.002669 216.559077 
L 414.181934 216.805846 
L 415.358683 143.032772 
L 416.537862 216.774349 
L 417.716819 216.692153 
L 419.134268 229.617628 
L 420.310598 215.717887 
L 421.841242 148.922648 
L 423.13733 256.115233 
L 424.55293 168.513865 
L 425.730028 288.822769 
L 427.260989 149.02665 
L 428.441283 289.808665 
L 429.618235 143.120304 
L 430.796167 216.312806 
L 431.974992 216.64335 
L 433.387983 167.619321 
L 434.564196 215.674497 
L 436.095909 205.235029 
L 437.275523 216.934924 
L 438.453211 216.22238 
L 439.982176 204.43014 
L 441.160287 289.135857 
L 442.340714 144.620916 
L 443.872101 205.139596 
L 445.049999 216.299971 
L 446.34498 255.776042 
L 447.5252 217.158945 
L 448.820416 123.490862 
L 450.000146 289.635128 
L 451.177671 216.161493 
L 452.47312 189.753008 
L 453.531552 248.001675 
L 454.948929 229.596154 
L 456.007391 167.03205 
L 457.186469 216.737192 
L 458.598789 167.388986 
L 459.776759 216.326438 
L 461.074044 256.48134 
L 462.378408 127.204182 
L 463.552424 214.856298 
L 464.674522 270.976139 
L 466.207051 205.473205 
L 467.38302 142.694407 
L 468.682026 257.006723 
L 470.093887 167.231064 
L 471.626759 261.491642 
L 472.805637 143.953356 
L 474.099562 255.452031 
L 475.514644 228.909539 
L 476.691351 215.857942 
L 477.869691 143.721335 
L 479.047051 216.100262 
L 480.16729 193.827206 
L 481.345633 216.464838 
L 482.879236 205.786651 
L 484.172744 255.323502 
L 485.584044 167.038331 
L 486.763699 289.61185 
L 489.47405 144.217522 
L 490.767708 255.369886 
L 492.066272 190.863888 
L 493.533358 185.513832 
L 494.829109 189.860792 
L 496.007743 216.572416 
L 497.421406 228.483898 
L 498.718592 256.451282 
L 499.895946 143.294436 
L 502.719545 255.346574 
L 503.898914 216.844606 
L 505.082386 218.356145 
L 506.376999 189.453766 
L 507.557707 217.338993 
L 508.854652 190.286982 
L 510.031802 216.022841 
L 511.443507 167.177193 
L 512.741361 256.655361 
L 514.154019 167.505166 
L 515.450513 256.239292 
L 516.627013 215.781398 
L 518.041714 228.795183 
L 519.220474 216.619614 
L 520.279552 167.314717 
L 521.343459 169.518424 
L 522.895602 155.90368 
L 524.440477 209.049049 
L 525.969798 204.534442 
L 527.26752 256.615074 
L 528.326141 248.074279 
L 529.504688 216.540125 
L 530.680611 142.674674 
L 532.214548 261.763298 
L 533.391159 215.82253 
L 534.570564 144.180695 
L 535.8665 256.068892 
L 538.464742 169.897936 
L 539.643438 216.595716 
L 540.93835 255.754878 
L 542.115297 215.947155 
L 543.291643 215.723861 
L 544.708196 229.349817 
L 545.885121 215.939145 
L 546.952828 171.239165 
L 548.247031 189.306995 
L 549.545492 256.840301 
L 550.840724 123.497167 
L 552.018009 288.880753 
L 553.197554 216.909554 
L 554.617325 109.564235 
L 555.795103 289.032952 
L 557.32523 148.751997 
L 558.507457 290.402335 
L 560.041773 205.994366 
L 561.334549 188.795007 
L 562.746119 227.854651 
L 563.925251 216.757026 
L 565.455787 148.886806 
L 566.748982 255.227789 
L 567.816703 251.524454 
L 568.995556 216.653666 
L 570.290449 189.553994 
L 571.472609 217.874098 
L 572.88794 168.421851 
L 574.065258 288.890816 
L 575.182348 192.532769 
L 576.481506 191.074949 
L 577.783999 258.066567 
L 579.078246 189.322675 
L 580.60857 204.828429 
L 581.789021 144.632011 
L 583.202398 228.398028 
L 584.49754 189.643048 
L 585.674771 216.052479 
L 587.091327 168.840697 
L 588.386061 255.700316 
L 589.797146 227.708753 
L 591.329974 149.640455 
L 592.507558 288.972961 
L 593.805268 190.559751 
L 595.216266 166.934009 
L 596.398171 217.780225 
L 597.575135 215.953428 
L 598.752121 215.961838 
L 599.928486 215.730894 
L 601.463042 261.921135 
L 602.992617 148.570226 
L 604.170858 289.176074 
L 605.466893 189.962027 
L 606.649446 218.018818 
L 608.068751 230.171232 
L 609.245613 215.915512 
L 611.599807 167.636374 
L 612.897921 256.734364 
L 614.198278 125.58393 
L 615.3786 217.196783 
L 616.556619 216.344791 
L 617.618435 168.567001 
L 618.912658 255.543362 
L 621.50871 169.263974 
L 623.043905 206.25021 
L 624.217647 214.754102 
L 625.513521 256.049709 
L 626.690642 216.011623 
L 627.867767 216.013075 
L 629.089694 161.884559 
L 631.566149 216.158409 
L 632.859858 255.385672 
L 634.274581 168.213533 
L 635.567345 255.09511 
L 636.983767 229.310857 
L 638.162057 143.699259 
L 639.455963 255.44599 
L 640.872159 168.717803 
L 642.167888 256.005467 
L 643.351796 218.516564 
L 644.766579 168.234057 
L 645.948316 217.718231 
L 647.1252 288.756613 
L 648.302853 143.423872 
L 649.716187 167.737593 
L 651.247997 205.263191 
L 652.542653 255.676382 
L 653.604968 249.481853 
L 655.136707 149.282647 
L 656.434179 256.538677 
L 657.491069 166.309125 
L 658.670684 216.935454 
L 659.963394 255.078591 
L 661.262248 124.973691 
L 662.55661 255.586058 
L 665.150068 168.777793 
L 666.327517 216.133481 
L 667.505072 216.172923 
L 668.799686 255.663526 
L 669.980954 217.545702 
L 671.045253 169.696476 
L 672.227405 217.871238 
L 673.405102 216.225511 
L 674.820096 168.306503 
L 676.352255 205.365094 
L 677.52883 215.809094 
L 678.824006 255.835994 
L 680.237503 167.793188 
L 681.417827 289.817932 
L 682.59546 216.201432 
L 684.123671 204.209183 
L 685.188033 89.192584 
L 686.365081 215.984946 
L 687.89501 260.738756 
L 689.42282 147.987428 
L 690.601674 216.654232 
L 691.779278 216.190738 
L 692.961869 218.032642 
L 694.492036 260.799849 
L 695.669769 216.238625 
L 697.197967 148.11592 
L 698.72978 261.220997 
L 700.025201 189.742847 
L 701.093692 171.592421 
L 702.270956 288.874039 
L 703.450789 144.365644 
L 704.62607 215.327832 
L 706.16165 206.361976 
L 707.572905 167.022669 
L 708.749588 215.849261 
L 709.923764 287.916407 
L 711.458732 206.184228 
L 712.636775 216.35388 
L 713.928702 188.4901 
L 715.105591 215.925699 
L 716.520417 228.832839 
L 717.700731 144.572516 
L 718.875143 287.990043 
L 720.058051 145.687499 
L 721.232523 215.026151 
L 722.415846 218.301657 
L 723.828743 167.587149 
L 725.003854 215.264573 
L 726.184711 217.394183 
L 727.712539 204.096442 
L 729.009989 256.531636 
L 730.069068 167.315211 
L 731.250282 217.525892 
L 732.425677 215.369971 
L 733.603934 216.433278 
L 734.784106 217.141166 
L 735.96308 216.69819 
L 737.139058 215.587261 
L 738.314497 215.38668 
L 739.728529 167.976645 
L 740.90574 288.857687 
L 742.086544 217.374522 
L 743.621489 150.334779 
L 744.914147 255.062417 
L 746.329837 229.09152 
L 747.860315 148.867908 
L 750.685198 254.989339 
L 751.744113 167.239963 
L 752.921599 216.14709 
L 754.107159 219.121939 
L 755.284482 216.086822 
L 756.462024 216.16773 
L 757.637433 69.527514 
L 758.93253 321.996192 
L 760.109999 143.344418 
L 761.404996 255.780915 
L 762.70105 256.104908 
L 764.118603 229.64873 
L 765.294255 215.465882 
L 766.470365 215.63612 
L 767.885654 168.407651 
L 769.067939 217.920094 
L 770.598427 148.870902 
L 771.777143 289.32251 
L 771.777143 289.32251 
" clip-path="url(#pb59670ec93)" style="fill: none; stroke: #1f77b4; stroke-width: 1.5; stroke-linecap: square"/>
   </g>
   <g id="line2d_18">
    <path d="M 71.22 209.725831 
L 806.805 209.725831 
" clip-path="url(#pb59670ec93)" style="fill: none; stroke-dasharray: 5.55,2.4; stroke-dashoffset: 0; stroke: #0000ff; stroke-width: 1.5"/>
   </g>
   <g id="line2d_19">
    <path d="M 71.22 429.527446 
L 72.517963 388.765612 
L 74.052592 485.357059 
L 75.231428 434.783825 
L 76.412127 362.530486 
L 77.710564 454.876547 
L 80.306417 410.865968 
L 81.604249 454.784256 
L 82.783691 434.895771 
L 84.200765 471.456723 
L 85.380414 434.933991 
L 86.560558 435.025473 
L 88.093807 429.30157 
L 89.273707 362.33392 
L 90.571583 454.791024 
L 91.98705 410.694178 
L 93.166454 507.565801 
L 94.464533 388.789287 
L 95.881751 471.475095 
L 97.180496 388.924734 
L 98.241479 410.553378 
L 99.539877 388.854225 
L 100.838381 454.886753 
L 102.017569 434.848699 
L 103.079186 410.698126 
L 104.260089 507.75031 
L 105.793276 373.385914 
L 106.972215 434.802664 
L 108.269405 454.686124 
L 109.684393 410.612369 
L 110.863343 434.804645 
L 112.160108 454.621218 
L 113.342219 435.388163 
L 114.757629 471.24327 
L 116.055925 388.83354 
L 117.117086 410.593867 
L 118.415393 520.877798 
L 119.829766 410.506925 
L 121.009804 435.005806 
L 122.188688 362.083475 
L 123.427918 445.414534 
L 124.844654 471.413417 
L 126.024468 434.964584 
L 127.204055 362.256776 
L 128.444237 445.573778 
L 129.85945 471.218071 
L 131.392606 373.380137 
L 132.571701 434.831629 
L 133.869482 454.776449 
L 136.462948 410.555365 
L 137.642828 434.976703 
L 138.820723 434.609389 
L 140.234756 471.066547 
L 141.413648 362.085217 
L 142.591725 434.643244 
L 143.88789 454.529473 
L 145.301585 471.022898 
L 146.479247 361.781546 
L 147.776706 454.727348 
L 149.19072 471.063984 
L 150.192956 396.346776 
L 151.373157 435.035932 
L 152.552965 434.963457 
L 153.84989 388.55419 
L 155.264476 410.543331 
L 156.44315 434.753779 
L 157.622958 507.615675 
L 158.801777 434.780394 
L 160.098489 388.510882 
L 161.280136 435.302657 
L 162.458419 434.681236 
L 163.63686 434.71057 
L 165.050821 471.057226 
L 166.229029 434.667404 
L 167.52703 454.81006 
L 168.707381 362.444949 
L 169.769588 410.832516 
L 171.066364 520.72191 
L 172.009125 380.160562 
L 173.423815 410.561208 
L 174.720234 388.451131 
L 175.901535 435.23886 
L 177.31561 471.071763 
L 178.495768 435.028032 
L 180.029417 429.360004 
L 181.327533 388.796884 
L 182.742298 410.57393 
L 184.276218 485.279702 
L 185.455565 434.878235 
L 186.752637 388.584194 
L 188.169772 471.464474 
L 189.34994 435.029794 
L 190.882138 373.20549 
L 192.179197 454.666071 
L 193.357854 434.750671 
L 194.539216 435.250097 
L 195.953283 471.070752 
L 197.131891 362.015422 
L 198.429849 520.842244 
L 199.84405 349.866905 
L 201.022559 507.455452 
L 202.555632 429.275967 
L 203.734133 434.721592 
L 204.677718 380.398799 
L 205.974113 454.564574 
L 207.270507 388.44599 
L 208.451037 435.096706 
L 209.864861 471.039634 
L 210.703145 346.166035 
L 211.999182 454.509843 
L 213.179404 435.039821 
L 214.475566 454.528995 
L 215.77341 388.741333 
L 217.127893 463.071235 
L 218.307296 362.21152 
L 219.486037 507.484012 
L 220.782927 388.547063 
L 221.961792 434.789094 
L 223.140418 434.744874 
L 224.555076 471.146686 
L 225.852984 388.754504 
L 227.031486 434.721823 
L 228.209722 507.421742 
L 229.389675 362.347084 
L 230.569113 362.220097 
L 231.748296 434.847864 
L 233.280579 429.160709 
L 234.81297 429.176463 
L 235.994026 507.769061 
L 237.52626 429.153513 
L 238.822651 388.445494 
L 240.354987 429.168434 
L 241.534981 434.997671 
L 243.067385 429.178356 
L 244.598511 484.973785 
L 245.77665 434.654605 
L 246.954167 434.539374 
L 248.13181 434.562608 
L 249.428993 388.60675 
L 250.607236 434.674013 
L 251.784925 434.571216 
L 253.080227 388.222935 
L 254.612444 485.093256 
L 255.792205 434.954781 
L 256.856162 411.230885 
L 258.152868 388.509536 
L 259.334093 507.789893 
L 260.750677 410.88517 
L 262.281693 428.975543 
L 263.460791 362.136362 
L 264.75621 454.415193 
L 266.169112 410.25449 
L 267.347758 434.748448 
L 268.525327 507.339349 
L 269.822455 454.676709 
L 271.235607 349.641708 
L 272.294901 410.167007 
L 273.592432 520.798796 
L 274.772106 362.278294 
L 276.185742 410.380352 
L 277.36487 434.837742 
L 278.660852 454.501494 
L 280.073872 470.936028 
L 281.251964 434.646014 
L 282.431127 434.844174 
L 283.608962 434.598296 
L 284.787863 434.795597 
L 285.965905 434.636728 
L 287.026818 410.537269 
L 288.204695 361.834901 
L 289.383684 434.812035 
L 290.502653 423.112841 
L 291.79862 454.499155 
L 293.094049 454.416688 
L 294.390836 388.526077 
L 295.568898 434.64041 
L 296.632546 491.746973 
L 298.091665 359.196057 
L 299.740606 496.973267 
L 300.918411 361.817099 
L 302.215825 520.786919 
L 303.515071 323.053219 
L 304.692674 434.555258 
L 305.9897 454.661145 
L 307.04988 491.21981 
L 308.581001 428.99086 
L 309.759967 434.807801 
L 311.055264 454.396395 
L 312.351028 388.317432 
L 313.474265 423.986182 
L 314.534556 491.236678 
L 315.948847 410.492798 
L 317.244759 454.490763 
L 318.422051 361.69021 
L 319.604759 435.497853 
L 321.021951 410.988971 
L 322.199917 434.622541 
L 323.37771 434.590579 
L 324.909145 429.03678 
L 326.086797 507.349648 
L 327.266071 434.86457 
L 328.329394 411.08682 
L 329.507717 434.688687 
L 330.685326 434.556385 
L 331.864185 434.787935 
L 333.395236 428.980664 
L 334.573867 434.74582 
L 335.87385 389.176034 
L 336.822056 472.12462 
L 338.353626 429.056507 
L 339.533004 434.884001 
L 340.710767 434.584954 
L 341.889545 362.057308 
L 343.420822 484.990236 
L 344.953829 429.266346 
L 346.131567 434.580403 
L 347.309147 361.761332 
L 348.605401 454.542947 
L 350.018228 410.241674 
L 351.195171 434.432911 
L 352.374043 434.790317 
L 353.789943 471.306156 
L 354.968532 362.010652 
L 356.500914 429.175252 
L 357.678533 507.345436 
L 358.859415 435.161777 
L 360.389564 428.848607 
L 361.921998 429.182734 
L 363.100455 361.977933 
L 364.395486 454.355685 
L 365.808604 410.291634 
L 367.339648 484.96468 
L 368.871454 429.091103 
L 370.049145 434.57165 
L 371.226808 361.781798 
L 372.522203 454.411545 
L 373.821305 454.977906 
L 375.116943 454.448672 
L 376.29779 435.155112 
L 377.475685 434.609483 
L 378.653198 434.538702 
L 380.18565 429.185319 
L 381.364782 362.144656 
L 382.54387 434.830277 
L 383.956953 410.28548 
L 385.313044 463.296429 
L 386.608059 388.16423 
L 387.785363 507.306612 
L 389.081826 388.45989 
L 390.496559 471.15652 
L 391.67427 361.793716 
L 392.852961 434.756778 
L 394.385418 429.186159 
L 395.68105 520.605159 
L 396.97789 388.536987 
L 398.157961 435.012006 
L 399.335543 434.551285 
L 400.630581 388.169133 
L 401.690053 491.111715 
L 402.985606 388.274219 
L 404.398337 470.898927 
L 405.576146 434.593361 
L 406.87147 388.227599 
L 407.931776 410.398513 
L 409.229078 520.775562 
L 410.406532 361.730216 
L 411.822061 471.258619 
L 413.001097 434.820629 
L 414.179947 434.786283 
L 415.35737 361.722643 
L 416.537341 434.993391 
L 417.715106 434.585384 
L 419.132185 471.457367 
L 420.309968 434.588625 
L 421.840801 372.955974 
L 423.137009 520.664023 
L 424.5507 349.75741 
L 425.728104 507.318906 
L 427.260296 429.147354 
L 428.439396 434.832644 
L 429.616578 361.662889 
L 430.795346 434.771095 
L 431.973013 434.567087 
L 433.386155 470.951762 
L 434.563626 361.734392 
L 436.095546 429.10767 
L 437.273417 507.376652 
L 438.451436 434.632567 
L 439.981817 372.873263 
L 441.159466 507.349125 
L 442.338694 362.16834 
L 443.870293 429.06074 
L 445.047959 434.566997 
L 446.343047 520.549607 
L 447.524831 362.797232 
L 448.819971 388.189724 
L 449.997929 507.387438 
L 451.175522 434.553531 
L 452.471271 388.314145 
L 453.531203 491.182006 
L 454.945926 410.566967 
L 456.005618 491.145351 
L 457.184342 362.043863 
L 458.596921 410.198967 
L 459.775863 507.508924 
L 461.071795 388.351564 
L 462.37624 390.078363 
L 463.552047 507.121198 
L 464.672519 423.421083 
L 466.205141 429.210289 
L 467.382663 361.746863 
L 468.67915 454.578714 
L 470.09208 410.259406 
L 471.624581 485.12434 
L 472.8037 362.141451 
L 474.099185 520.590131 
L 475.5118 410.205344 
L 476.689172 434.512292 
L 477.867751 434.736134 
L 479.046669 434.798869 
L 480.164561 346.215544 
L 481.343737 507.537744 
L 482.877014 429.305661 
L 484.170738 454.15519 
L 485.583654 349.591158 
L 486.760911 507.30075 
L 488.292306 429.030885 
L 489.471883 362.254291 
L 490.76733 454.419481 
L 492.063671 454.55627 
L 493.531274 419.299206 
L 494.826785 454.429364 
L 496.005723 362.096728 
L 497.420982 471.223977 
L 498.715756 454.316294 
L 499.893313 434.546803 
L 501.423884 372.907955 
L 502.718957 454.3621 
L 503.896536 434.550847 
L 505.080014 435.639354 
L 506.376621 454.597049 
L 507.555314 434.757086 
L 508.852176 388.541529 
L 510.029687 507.332134 
L 511.443103 349.698355 
L 512.738239 454.371858 
L 514.151611 410.335137 
L 515.448367 454.619787 
L 516.626619 434.675661 
L 518.039249 470.885772 
L 519.218153 434.796347 
L 520.279102 410.545547 
L 521.339828 410.494622 
L 522.893099 377.000219 
L 524.438273 431.027422 
L 525.969366 428.98681 
L 527.264473 454.367279 
L 528.323674 491.070397 
L 529.502489 434.779792 
L 530.680173 361.787097 
L 532.211398 484.984527 
L 533.388978 434.551192 
L 534.567878 434.795509 
L 535.864342 388.460202 
L 537.042112 434.586249 
L 538.462551 411.542029 
L 539.641156 434.740986 
L 540.935892 454.310403 
L 542.113379 434.533945 
L 543.291185 434.592917 
L 544.704968 471.034183 
L 545.88254 434.549629 
L 546.9505 412.136779 
L 548.246586 388.382942 
L 549.542798 454.536705 
L 550.838377 454.439669 
L 552.017544 434.844823 
L 553.194854 434.500934 
L 554.614656 351.062403 
L 555.792727 507.401318 
L 557.324738 429.120959 
L 558.504676 434.987394 
L 560.039106 429.473785 
L 561.332124 454.046627 
L 562.74563 410.358182 
L 563.922447 434.409501 
L 565.453341 428.957564 
L 566.74848 388.189816 
L 567.813875 492.011309 
L 568.992801 434.800305 
L 570.287995 388.200846 
L 571.472114 435.757011 
L 572.885073 410.264329 
L 574.06278 507.356363 
L 575.181841 423.131866 
L 576.478609 388.522223 
L 577.781185 455.505865 
L 579.075766 454.286548 
L 580.608068 429.163552 
L 581.785597 361.74883 
L 583.199593 471.061674 
L 584.495012 454.41505 
L 585.674279 362.177987 
L 588.383537 454.36721 
L 589.796637 470.94646 
L 591.327092 428.893319 
L 592.504742 434.564012 
L 593.802715 388.767661 
L 595.215769 410.280644 
L 596.394711 434.803424 
L 597.572282 434.549234 
L 598.749547 507.301815 
L 599.927968 434.706729 
L 601.459006 428.978734 
L 602.990022 428.975579 
L 604.167862 434.599183 
L 605.464268 388.448352 
L 606.648895 508.206794 
L 608.064902 410.786515 
L 609.242599 434.572824 
L 610.539492 454.640787 
L 611.599285 329.401521 
L 612.894828 454.434089 
L 614.197766 389.774308 
L 615.37503 434.492404 
L 616.553969 434.80273 
L 617.615159 410.600743 
L 618.909974 454.322438 
L 621.507116 411.29172 
L 623.039296 429.145752 
L 624.216547 434.489877 
L 625.512031 454.42526 
L 626.689213 507.291383 
L 627.866641 361.723801 
L 629.088534 442.470469 
L 630.384149 388.286858 
L 631.562687 434.728444 
L 632.858222 454.432925 
L 634.270926 470.89547 
L 635.566177 388.212449 
L 636.979116 470.925669 
L 638.158119 362.112787 
L 639.454793 454.607216 
L 640.867922 470.950093 
L 642.16401 388.383526 
L 643.350602 508.446337 
L 644.765359 410.572738 
L 645.944026 434.752465 
L 647.121234 434.48198 
L 648.299198 434.622281 
L 649.714493 350.10084 
L 651.246467 429.115551 
L 652.541438 454.346634 
L 653.600646 491.071378 
L 655.132687 373.176706 
L 656.429229 454.587016 
L 657.489367 410.360155 
L 658.666877 434.538034 
L 659.9622 454.400453 
L 661.258396 388.405688 
L 662.555159 454.620895 
L 665.145591 410.285199 
L 666.323428 507.372496 
L 667.501206 361.810278 
L 668.797892 454.60917 
L 669.979435 507.828904 
L 671.044014 411.372124 
L 672.222977 434.807197 
L 673.401682 434.75938 
L 674.816171 349.928402 
L 676.348449 429.160051 
L 677.527292 434.784881 
L 678.822771 520.58959 
L 680.235874 410.28896 
L 681.413648 434.587069 
L 682.591597 434.619463 
L 684.122395 428.943522 
L 685.182758 329.5757 
L 686.360792 434.635091 
L 687.891178 484.892469 
L 689.421552 372.872065 
L 690.600412 507.49871 
L 692.957197 362.149428 
L 694.48813 484.952616 
L 695.66552 434.515721 
L 697.196394 428.95473 
L 698.728499 429.134638 
L 700.023924 388.248209 
L 701.092118 492.433029 
L 702.26964 434.540167 
L 703.447433 361.814125 
L 704.624802 434.511759 
L 706.155479 428.925931 
L 707.568414 410.260311 
L 708.745404 507.267623 
L 709.922486 434.458637 
L 711.453245 428.93794 
L 712.631356 434.64946 
L 713.927167 388.327056 
L 715.10428 507.282927 
L 716.51874 410.521689 
L 717.696588 434.600662 
L 718.873824 434.487393 
L 720.052429 434.740898 
L 721.231211 362.058191 
L 722.410631 434.89165 
L 723.82423 410.374204 
L 725.002512 434.681188 
L 726.180427 507.382014 
L 727.711248 372.953854 
L 729.007793 454.587549 
L 730.067382 410.234425 
L 731.246023 507.471733 
L 733.602252 361.995601 
L 734.779658 507.319145 
L 735.957451 361.814005 
L 738.312793 507.366703 
L 739.726781 410.44088 
L 740.904336 434.546481 
L 742.082133 434.591143 
L 743.615667 373.44917 
L 744.912791 454.675946 
L 746.325387 470.881468 
L 747.85808 429.220637 
L 749.387954 372.780421 
L 750.68321 454.390185 
L 751.742701 491.114679 
L 752.920178 361.735832 
L 755.279728 507.36274 
L 756.457642 361.843887 
L 757.636085 361.974562 
L 758.931139 520.546201 
L 760.108234 361.641433 
L 761.403586 520.576613 
L 762.699273 388.301612 
L 764.112415 470.951803 
L 765.289954 434.543435 
L 766.468972 434.817198 
L 767.88316 410.475295 
L 769.061699 434.728598 
L 770.593914 373.208598 
L 771.772801 507.502 
L 771.772801 507.502 
" clip-path="url(#pb59670ec93)" style="fill: none; stroke: #ff7f0e; stroke-width: 1.5; stroke-linecap: square"/>
   </g>
   <g id="line2d_20">
    <path d="M 71.22 431.127562 
L 806.805 431.127562 
" clip-path="url(#pb59670ec93)" style="fill: none; stroke-dasharray: 5.55,2.4; stroke-dashoffset: 0; stroke: #ffa500; stroke-width: 1.5"/>
   </g>
   <g id="patch_3">
    <path d="M 71.22 652.92 
L 71.22 46.96 
" style="fill: none; stroke: #000000; stroke-width: 0.8; stroke-linejoin: miter; stroke-linecap: square"/>
   </g>
   <g id="patch_4">
    <path d="M 806.805 652.92 
L 806.805 46.96 
" style="fill: none; stroke: #000000; stroke-width: 0.8; stroke-linejoin: miter; stroke-linecap: square"/>
   </g>
   <g id="patch_5">
    <path d="M 71.22 652.92 
L 806.805 652.92 
" style="fill: none; stroke: #000000; stroke-width: 0.8; stroke-linejoin: miter; stroke-linecap: square"/>
   </g>
   <g id="patch_6">
    <path d="M 71.22 46.96 
L 806.805 46.96 
" style="fill: none; stroke: #000000; stroke-width: 0.8; stroke-linejoin: miter; stroke-linecap: square"/>
   </g>
   <g id="text_19">
    <!-- Observed and Filtered Packet Rates -->
    <g transform="translate(289.890188 40.96) scale(0.168 -0.168)">
     <defs>
      <path id="DejaVuSans-4f" d="M 2522 4238 
Q 1834 4238 1429 3725 
Q 1025 3213 1025 2328 
Q 1025 1447 1429 934 
Q 1834 422 2522 422 
Q 3209 422 3611 934 
Q 4013 1447 4013 2328 
Q 4013 3213 3611 3725 
Q 3209 4238 2522 4238 
z
M 2522 4750 
Q 3503 4750 4090 4092 
Q 4678 3434 4678 2328 
Q 4678 1225 4090 567 
Q 3503 -91 2522 -91 
Q 1538 -91 948 565 
Q 359 1222 359 2328 
Q 359 3434 948 4092 
Q 1538 4750 2522 4750 
z
" transform="scale(0.015625)"/>
      <path id="DejaVuSans-62" d="M 3116 1747 
Q 3116 2381 2855 2742 
Q 2594 3103 2138 3103 
Q 1681 3103 1420 2742 
Q 1159 2381 1159 1747 
Q 1159 1113 1420 752 
Q 1681 391 2138 391 
Q 2594 391 2855 752 
Q 3116 1113 3116 1747 
z
M 1159 2969 
Q 1341 3281 1617 3432 
Q 1894 3584 2278 3584 
Q 2916 3584 3314 3078 
Q 3713 2572 3713 1747 
Q 3713 922 3314 415 
Q 2916 -91 2278 -91 
Q 1894 -91 1617 61 
Q 1341 213 1159 525 
L 1159 0 
L 581 0 
L 581 4863 
L 1159 4863 
L 1159 2969 
z
" transform="scale(0.015625)"/>
      <path id="DejaVuSans-76" d="M 191 3500 
L 800 3500 
L 1894 563 
L 2988 3500 
L 3597 3500 
L 2284 0 
L 1503 0 
L 191 3500 
z
" transform="scale(0.015625)"/>
      <path id="DejaVuSans-46" d="M 628 4666 
L 3309 4666 
L 3309 4134 
L 1259 4134 
L 1259 2759 
L 3109 2759 
L 3109 2228 
L 1259 2228 
L 1259 0 
L 628 0 
L 628 4666 
z
" transform="scale(0.015625)"/>
      <path id="DejaVuSans-6c" d="M 603 4863 
L 1178 4863 
L 1178 0 
L 603 0 
L 603 4863 
z
" transform="scale(0.015625)"/>
      <path id="DejaVuSans-52" d="M 2841 2188 
Q 3044 2119 3236 1894 
Q 3428 1669 3622 1275 
L 4263 0 
L 3584 0 
L 2988 1197 
Q 2756 1666 2539 1819 
Q 2322 1972 1947 1972 
L 1259 1972 
L 1259 0 
L 628 0 
L 628 4666 
L 2053 4666 
Q 2853 4666 3247 4331 
Q 3641 3997 3641 3322 
Q 3641 2881 3436 2590 
Q 3231 2300 2841 2188 
z
M 1259 4147 
L 1259 2491 
L 2053 2491 
Q 2509 2491 2742 2702 
Q 2975 2913 2975 3322 
Q 2975 3731 2742 3939 
Q 2509 4147 2053 4147 
L 1259 4147 
z
" transform="scale(0.015625)"/>
     </defs>
     <use xlink:href="#DejaVuSans-4f"/>
     <use xlink:href="#DejaVuSans-62" x="78.710938"/>
     <use xlink:href="#DejaVuSans-73" x="142.1875"/>
     <use xlink:href="#DejaVuSans-65" x="194.287109"/>
     <use xlink:href="#DejaVuSans-72" x="255.810547"/>
     <use xlink:href="#DejaVuSans-76" x="296.923828"/>
     <use xlink:href="#DejaVuSans-65" x="356.103516"/>
     <use xlink:href="#DejaVuSans-64" x="417.626953"/>
     <use xlink:href="#DejaVuSans-20" x="481.103516"/>
     <use xlink:href="#DejaVuSans-61" x="512.890625"/>
     <use xlink:href="#DejaVuSans-6e" x="574.169922"/>
     <use xlink:href="#DejaVuSans-64" x="637.548828"/>
     <use xlink:href="#DejaVuSans-20" x="701.025391"/>
     <use xlink:href="#DejaVuSans-46" x="732.8125"/>
     <use xlink:href="#DejaVuSans-69" x="783.082031"/>
     <use xlink:href="#DejaVuSans-6c" x="810.865234"/>
     <use xlink:href="#DejaVuSans-74" x="838.648438"/>
     <use xlink:href="#DejaVuSans-65" x="877.857422"/>
     <use xlink:href="#DejaVuSans-72" x="939.380859"/>
     <use xlink:href="#DejaVuSans-65" x="978.244141"/>
     <use xlink:href="#DejaVuSans-64" x="1039.767578"/>
     <use xlink:href="#DejaVuSans-20" x="1103.244141"/>
     <use xlink:href="#DejaVuSans-50" x="1135.03125"/>
     <use xlink:href="#DejaVuSans-61" x="1190.833984"/>
     <use xlink:href="#DejaVuSans-63" x="1252.113281"/>
     <use xlink:href="#DejaVuSans-6b" x="1307.09375"/>
     <use xlink:href="#DejaVuSans-65" x="1361.378906"/>
     <use xlink:href="#DejaVuSans-74" x="1422.902344"/>
     <use xlink:href="#DejaVuSans-20" x="1462.111328"/>
     <use xlink:href="#DejaVuSans-52" x="1493.898438"/>
     <use xlink:href="#DejaVuSans-61" x="1561.130859"/>
     <use xlink:href="#DejaVuSans-74" x="1622.410156"/>
     <use xlink:href="#DejaVuSans-65" x="1661.619141"/>
     <use xlink:href="#DejaVuSans-73" x="1723.142578"/>
    </g>
   </g>
   <g id="legend_1">
    <g id="patch_7">
     <path d="M 816.605 393.13875 
L 1083.440625 393.13875 
Q 1086.240625 393.13875 1086.240625 390.33875 
L 1086.240625 309.54125 
Q 1086.240625 306.74125 1083.440625 306.74125 
L 816.605 306.74125 
Q 813.805 306.74125 813.805 309.54125 
L 813.805 390.33875 
Q 813.805 393.13875 816.605 393.13875 
z
" style="fill: #ffffff; opacity: 0.8; stroke: #cccccc; stroke-linejoin: miter"/>
    </g>
    <g id="line2d_21">
     <path d="M 819.405 318.079062 
L 833.405 318.079062 
L 847.405 318.079062 
" style="fill: none; stroke: #1f77b4; stroke-width: 1.5; stroke-linecap: square"/>
    </g>
    <g id="text_20">
     <!-- Filtered packets Cam 1 -->
     <g transform="translate(858.605 322.979062) scale(0.14 -0.14)">
      <defs>
       <path id="DejaVuSans-43" d="M 4122 4306 
L 4122 3641 
Q 3803 3938 3442 4084 
Q 3081 4231 2675 4231 
Q 1875 4231 1450 3742 
Q 1025 3253 1025 2328 
Q 1025 1406 1450 917 
Q 1875 428 2675 428 
Q 3081 428 3442 575 
Q 3803 722 4122 1019 
L 4122 359 
Q 3791 134 3420 21 
Q 3050 -91 2638 -91 
Q 1578 -91 968 557 
Q 359 1206 359 2328 
Q 359 3453 968 4101 
Q 1578 4750 2638 4750 
Q 3056 4750 3426 4639 
Q 3797 4528 4122 4306 
z
" transform="scale(0.015625)"/>
      </defs>
      <use xlink:href="#DejaVuSans-46"/>
      <use xlink:href="#DejaVuSans-69" x="50.269531"/>
      <use xlink:href="#DejaVuSans-6c" x="78.052734"/>
      <use xlink:href="#DejaVuSans-74" x="105.835938"/>
      <use xlink:href="#DejaVuSans-65" x="145.044922"/>
      <use xlink:href="#DejaVuSans-72" x="206.568359"/>
      <use xlink:href="#DejaVuSans-65" x="245.431641"/>
      <use xlink:href="#DejaVuSans-64" x="306.955078"/>
      <use xlink:href="#DejaVuSans-20" x="370.431641"/>
      <use xlink:href="#DejaVuSans-70" x="402.21875"/>
      <use xlink:href="#DejaVuSans-61" x="465.695312"/>
      <use xlink:href="#DejaVuSans-63" x="526.974609"/>
      <use xlink:href="#DejaVuSans-6b" x="581.955078"/>
      <use xlink:href="#DejaVuSans-65" x="636.240234"/>
      <use xlink:href="#DejaVuSans-74" x="697.763672"/>
      <use xlink:href="#DejaVuSans-73" x="736.972656"/>
      <use xlink:href="#DejaVuSans-20" x="789.072266"/>
      <use xlink:href="#DejaVuSans-43" x="820.859375"/>
      <use xlink:href="#DejaVuSans-61" x="890.683594"/>
      <use xlink:href="#DejaVuSans-6d" x="951.962891"/>
      <use xlink:href="#DejaVuSans-20" x="1049.375"/>
      <use xlink:href="#DejaVuSans-31" x="1081.162109"/>
     </g>
    </g>
    <g id="line2d_22">
     <path d="M 819.405 338.628437 
L 833.405 338.628437 
L 847.405 338.628437 
" style="fill: none; stroke-dasharray: 5.55,2.4; stroke-dashoffset: 0; stroke: #0000ff; stroke-width: 1.5"/>
    </g>
    <g id="text_21">
     <!-- Filtered packets Cam 1 average -->
     <g transform="translate(858.605 343.528437) scale(0.14 -0.14)">
      <defs>
       <path id="DejaVuSans-67" d="M 2906 1791 
Q 2906 2416 2648 2759 
Q 2391 3103 1925 3103 
Q 1463 3103 1205 2759 
Q 947 2416 947 1791 
Q 947 1169 1205 825 
Q 1463 481 1925 481 
Q 2391 481 2648 825 
Q 2906 1169 2906 1791 
z
M 3481 434 
Q 3481 -459 3084 -895 
Q 2688 -1331 1869 -1331 
Q 1566 -1331 1297 -1286 
Q 1028 -1241 775 -1147 
L 775 -588 
Q 1028 -725 1275 -790 
Q 1522 -856 1778 -856 
Q 2344 -856 2625 -561 
Q 2906 -266 2906 331 
L 2906 616 
Q 2728 306 2450 153 
Q 2172 0 1784 0 
Q 1141 0 747 490 
Q 353 981 353 1791 
Q 353 2603 747 3093 
Q 1141 3584 1784 3584 
Q 2172 3584 2450 3431 
Q 2728 3278 2906 2969 
L 2906 3500 
L 3481 3500 
L 3481 434 
z
" transform="scale(0.015625)"/>
      </defs>
      <use xlink:href="#DejaVuSans-46"/>
      <use xlink:href="#DejaVuSans-69" x="50.269531"/>
      <use xlink:href="#DejaVuSans-6c" x="78.052734"/>
      <use xlink:href="#DejaVuSans-74" x="105.835938"/>
      <use xlink:href="#DejaVuSans-65" x="145.044922"/>
      <use xlink:href="#DejaVuSans-72" x="206.568359"/>
      <use xlink:href="#DejaVuSans-65" x="245.431641"/>
      <use xlink:href="#DejaVuSans-64" x="306.955078"/>
      <use xlink:href="#DejaVuSans-20" x="370.431641"/>
      <use xlink:href="#DejaVuSans-70" x="402.21875"/>
      <use xlink:href="#DejaVuSans-61" x="465.695312"/>
      <use xlink:href="#DejaVuSans-63" x="526.974609"/>
      <use xlink:href="#DejaVuSans-6b" x="581.955078"/>
      <use xlink:href="#DejaVuSans-65" x="636.240234"/>
      <use xlink:href="#DejaVuSans-74" x="697.763672"/>
      <use xlink:href="#DejaVuSans-73" x="736.972656"/>
      <use xlink:href="#DejaVuSans-20" x="789.072266"/>
      <use xlink:href="#DejaVuSans-43" x="820.859375"/>
      <use xlink:href="#DejaVuSans-61" x="890.683594"/>
      <use xlink:href="#DejaVuSans-6d" x="951.962891"/>
      <use xlink:href="#DejaVuSans-20" x="1049.375"/>
      <use xlink:href="#DejaVuSans-31" x="1081.162109"/>
      <use xlink:href="#DejaVuSans-20" x="1144.785156"/>
      <use xlink:href="#DejaVuSans-61" x="1176.572266"/>
      <use xlink:href="#DejaVuSans-76" x="1237.851562"/>
      <use xlink:href="#DejaVuSans-65" x="1297.03125"/>
      <use xlink:href="#DejaVuSans-72" x="1358.554688"/>
      <use xlink:href="#DejaVuSans-61" x="1399.667969"/>
      <use xlink:href="#DejaVuSans-67" x="1460.947266"/>
      <use xlink:href="#DejaVuSans-65" x="1524.423828"/>
     </g>
    </g>
    <g id="line2d_23">
     <path d="M 819.405 359.177812 
L 833.405 359.177812 
L 847.405 359.177812 
" style="fill: none; stroke: #ff7f0e; stroke-width: 1.5; stroke-linecap: square"/>
    </g>
    <g id="text_22">
     <!-- Filtered packets Cam 2 -->
     <g transform="translate(858.605 364.077812) scale(0.14 -0.14)">
      <use xlink:href="#DejaVuSans-46"/>
      <use xlink:href="#DejaVuSans-69" x="50.269531"/>
      <use xlink:href="#DejaVuSans-6c" x="78.052734"/>
      <use xlink:href="#DejaVuSans-74" x="105.835938"/>
      <use xlink:href="#DejaVuSans-65" x="145.044922"/>
      <use xlink:href="#DejaVuSans-72" x="206.568359"/>
      <use xlink:href="#DejaVuSans-65" x="245.431641"/>
      <use xlink:href="#DejaVuSans-64" x="306.955078"/>
      <use xlink:href="#DejaVuSans-20" x="370.431641"/>
      <use xlink:href="#DejaVuSans-70" x="402.21875"/>
      <use xlink:href="#DejaVuSans-61" x="465.695312"/>
      <use xlink:href="#DejaVuSans-63" x="526.974609"/>
      <use xlink:href="#DejaVuSans-6b" x="581.955078"/>
      <use xlink:href="#DejaVuSans-65" x="636.240234"/>
      <use xlink:href="#DejaVuSans-74" x="697.763672"/>
      <use xlink:href="#DejaVuSans-73" x="736.972656"/>
      <use xlink:href="#DejaVuSans-20" x="789.072266"/>
      <use xlink:href="#DejaVuSans-43" x="820.859375"/>
      <use xlink:href="#DejaVuSans-61" x="890.683594"/>
      <use xlink:href="#DejaVuSans-6d" x="951.962891"/>
      <use xlink:href="#DejaVuSans-20" x="1049.375"/>
      <use xlink:href="#DejaVuSans-32" x="1081.162109"/>
     </g>
    </g>
    <g id="line2d_24">
     <path d="M 819.405 379.727187 
L 833.405 379.727187 
L 847.405 379.727187 
" style="fill: none; stroke-dasharray: 5.55,2.4; stroke-dashoffset: 0; stroke: #ffa500; stroke-width: 1.5"/>
    </g>
    <g id="text_23">
     <!-- Filtered packets Cam 2 average -->
     <g transform="translate(858.605 384.627187) scale(0.14 -0.14)">
      <use xlink:href="#DejaVuSans-46"/>
      <use xlink:href="#DejaVuSans-69" x="50.269531"/>
      <use xlink:href="#DejaVuSans-6c" x="78.052734"/>
      <use xlink:href="#DejaVuSans-74" x="105.835938"/>
      <use xlink:href="#DejaVuSans-65" x="145.044922"/>
      <use xlink:href="#DejaVuSans-72" x="206.568359"/>
      <use xlink:href="#DejaVuSans-65" x="245.431641"/>
      <use xlink:href="#DejaVuSans-64" x="306.955078"/>
      <use xlink:href="#DejaVuSans-20" x="370.431641"/>
      <use xlink:href="#DejaVuSans-70" x="402.21875"/>
      <use xlink:href="#DejaVuSans-61" x="465.695312"/>
      <use xlink:href="#DejaVuSans-63" x="526.974609"/>
      <use xlink:href="#DejaVuSans-6b" x="581.955078"/>
      <use xlink:href="#DejaVuSans-65" x="636.240234"/>
      <use xlink:href="#DejaVuSans-74" x="697.763672"/>
      <use xlink:href="#DejaVuSans-73" x="736.972656"/>
      <use xlink:href="#DejaVuSans-20" x="789.072266"/>
      <use xlink:href="#DejaVuSans-43" x="820.859375"/>
      <use xlink:href="#DejaVuSans-61" x="890.683594"/>
      <use xlink:href="#DejaVuSans-6d" x="951.962891"/>
      <use xlink:href="#DejaVuSans-20" x="1049.375"/>
      <use xlink:href="#DejaVuSans-32" x="1081.162109"/>
      <use xlink:href="#DejaVuSans-20" x="1144.785156"/>
      <use xlink:href="#DejaVuSans-61" x="1176.572266"/>
      <use xlink:href="#DejaVuSans-76" x="1237.851562"/>
      <use xlink:href="#DejaVuSans-65" x="1297.03125"/>
      <use xlink:href="#DejaVuSans-72" x="1358.554688"/>
      <use xlink:href="#DejaVuSans-61" x="1399.667969"/>
      <use xlink:href="#DejaVuSans-67" x="1460.947266"/>
      <use xlink:href="#DejaVuSans-65" x="1524.423828"/>
     </g>
    </g>
   </g>
  </g>
 </g>
 <defs>
  <clipPath id="pb59670ec93">
   <rect x="71.22" y="46.96" width="735.585" height="605.96"/>
  </clipPath>
 </defs>
</svg>
