<?xml version="1.0" encoding="utf-8" standalone="no"?>
<!DOCTYPE svg PUBLIC "-//W3C//DTD SVG 1.1//EN"
  "http://www.w3.org/Graphics/SVG/1.1/DTD/svg11.dtd">
<svg xmlns:xlink="http://www.w3.org/1999/xlink" width="1186.56pt" height="588.24pt" viewBox="0 0 1186.56 588.24" xmlns="http://www.w3.org/2000/svg" version="1.1">
 <metadata>
  <rdf:RDF xmlns:dc="http://purl.org/dc/elements/1.1/" xmlns:cc="http://creativecommons.org/ns#" xmlns:rdf="http://www.w3.org/1999/02/22-rdf-syntax-ns#">
   <cc:Work>
    <dc:type rdf:resource="http://purl.org/dc/dcmitype/StillImage"/>
    <dc:date>2023-04-13T18:55:52.153583</dc:date>
    <dc:format>image/svg+xml</dc:format>
    <dc:creator>
     <cc:Agent>
      <dc:title>Matplotlib v3.6.2, https://matplotlib.org/</dc:title>
     </cc:Agent>
    </dc:creator>
   </cc:Work>
  </rdf:RDF>
 </metadata>
 <defs>
  <style type="text/css">*{stroke-linejoin: round; stroke-linecap: butt}</style>
 </defs>
 <g id="figure_1">
  <g id="patch_1">
   <path d="M 0 588.24 
L 1186.56 588.24 
L 1186.56 0 
L 0 0 
z
" style="fill: #ffffff"/>
  </g>
  <g id="axes_1">
   <g id="patch_2">
    <path d="M 109.850971 522.58588 
L 931.666194 522.58588 
L 931.666194 49.80432 
L 109.850971 49.80432 
z
" style="fill: #ffffff"/>
   </g>
   <g id="matplotlib.axis_1">
    <g id="xtick_1">
     <g id="line2d_1">
      <defs>
       <path id="m129d215bc9" d="M 0 0 
L 0 3.5 
" style="stroke: #000000; stroke-width: 0.8"/>
      </defs>
      <g>
       <use xlink:href="#m129d215bc9" x="109.850971" y="522.58588" style="stroke: #000000; stroke-width: 0.8"/>
      </g>
     </g>
     <g id="text_1">
      <!-- 0 -->
      <g transform="translate(105.397221 540.223692) scale(0.14 -0.14)">
       <defs>
        <path id="DejaVuSans-30" d="M 2034 4250 
Q 1547 4250 1301 3770 
Q 1056 3291 1056 2328 
Q 1056 1369 1301 889 
Q 1547 409 2034 409 
Q 2525 409 2770 889 
Q 3016 1369 3016 2328 
Q 3016 3291 2770 3770 
Q 2525 4250 2034 4250 
z
M 2034 4750 
Q 2819 4750 3233 4129 
Q 3647 3509 3647 2328 
Q 3647 1150 3233 529 
Q 2819 -91 2034 -91 
Q 1250 -91 836 529 
Q 422 1150 422 2328 
Q 422 3509 836 4129 
Q 1250 4750 2034 4750 
z
" transform="scale(0.015625)"/>
       </defs>
       <use xlink:href="#DejaVuSans-30"/>
      </g>
     </g>
    </g>
    <g id="xtick_2">
     <g id="line2d_2">
      <g>
       <use xlink:href="#m129d215bc9" x="235.604841" y="522.58588" style="stroke: #000000; stroke-width: 0.8"/>
      </g>
     </g>
     <g id="text_2">
      <!-- 10 -->
      <g transform="translate(226.697341 540.223692) scale(0.14 -0.14)">
       <defs>
        <path id="DejaVuSans-31" d="M 794 531 
L 1825 531 
L 1825 4091 
L 703 3866 
L 703 4441 
L 1819 4666 
L 2450 4666 
L 2450 531 
L 3481 531 
L 3481 0 
L 794 0 
L 794 531 
z
" transform="scale(0.015625)"/>
       </defs>
       <use xlink:href="#DejaVuSans-31"/>
       <use xlink:href="#DejaVuSans-30" x="63.623047"/>
      </g>
     </g>
    </g>
    <g id="xtick_3">
     <g id="line2d_3">
      <g>
       <use xlink:href="#m129d215bc9" x="361.358711" y="522.58588" style="stroke: #000000; stroke-width: 0.8"/>
      </g>
     </g>
     <g id="text_3">
      <!-- 20 -->
      <g transform="translate(352.451211 540.223692) scale(0.14 -0.14)">
       <defs>
        <path id="DejaVuSans-32" d="M 1228 531 
L 3431 531 
L 3431 0 
L 469 0 
L 469 531 
Q 828 903 1448 1529 
Q 2069 2156 2228 2338 
Q 2531 2678 2651 2914 
Q 2772 3150 2772 3378 
Q 2772 3750 2511 3984 
Q 2250 4219 1831 4219 
Q 1534 4219 1204 4116 
Q 875 4013 500 3803 
L 500 4441 
Q 881 4594 1212 4672 
Q 1544 4750 1819 4750 
Q 2544 4750 2975 4387 
Q 3406 4025 3406 3419 
Q 3406 3131 3298 2873 
Q 3191 2616 2906 2266 
Q 2828 2175 2409 1742 
Q 1991 1309 1228 531 
z
" transform="scale(0.015625)"/>
       </defs>
       <use xlink:href="#DejaVuSans-32"/>
       <use xlink:href="#DejaVuSans-30" x="63.623047"/>
      </g>
     </g>
    </g>
    <g id="xtick_4">
     <g id="line2d_4">
      <g>
       <use xlink:href="#m129d215bc9" x="487.112581" y="522.58588" style="stroke: #000000; stroke-width: 0.8"/>
      </g>
     </g>
     <g id="text_4">
      <!-- 30 -->
      <g transform="translate(478.205081 540.223692) scale(0.14 -0.14)">
       <defs>
        <path id="DejaVuSans-33" d="M 2597 2516 
Q 3050 2419 3304 2112 
Q 3559 1806 3559 1356 
Q 3559 666 3084 287 
Q 2609 -91 1734 -91 
Q 1441 -91 1130 -33 
Q 819 25 488 141 
L 488 750 
Q 750 597 1062 519 
Q 1375 441 1716 441 
Q 2309 441 2620 675 
Q 2931 909 2931 1356 
Q 2931 1769 2642 2001 
Q 2353 2234 1838 2234 
L 1294 2234 
L 1294 2753 
L 1863 2753 
Q 2328 2753 2575 2939 
Q 2822 3125 2822 3475 
Q 2822 3834 2567 4026 
Q 2313 4219 1838 4219 
Q 1578 4219 1281 4162 
Q 984 4106 628 3988 
L 628 4550 
Q 988 4650 1302 4700 
Q 1616 4750 1894 4750 
Q 2613 4750 3031 4423 
Q 3450 4097 3450 3541 
Q 3450 3153 3228 2886 
Q 3006 2619 2597 2516 
z
" transform="scale(0.015625)"/>
       </defs>
       <use xlink:href="#DejaVuSans-33"/>
       <use xlink:href="#DejaVuSans-30" x="63.623047"/>
      </g>
     </g>
    </g>
    <g id="xtick_5">
     <g id="line2d_5">
      <g>
       <use xlink:href="#m129d215bc9" x="612.866451" y="522.58588" style="stroke: #000000; stroke-width: 0.8"/>
      </g>
     </g>
     <g id="text_5">
      <!-- 40 -->
      <g transform="translate(603.958951 540.223692) scale(0.14 -0.14)">
       <defs>
        <path id="DejaVuSans-34" d="M 2419 4116 
L 825 1625 
L 2419 1625 
L 2419 4116 
z
M 2253 4666 
L 3047 4666 
L 3047 1625 
L 3713 1625 
L 3713 1100 
L 3047 1100 
L 3047 0 
L 2419 0 
L 2419 1100 
L 313 1100 
L 313 1709 
L 2253 4666 
z
" transform="scale(0.015625)"/>
       </defs>
       <use xlink:href="#DejaVuSans-34"/>
       <use xlink:href="#DejaVuSans-30" x="63.623047"/>
      </g>
     </g>
    </g>
    <g id="xtick_6">
     <g id="line2d_6">
      <g>
       <use xlink:href="#m129d215bc9" x="738.620321" y="522.58588" style="stroke: #000000; stroke-width: 0.8"/>
      </g>
     </g>
     <g id="text_6">
      <!-- 50 -->
      <g transform="translate(729.712821 540.223692) scale(0.14 -0.14)">
       <defs>
        <path id="DejaVuSans-35" d="M 691 4666 
L 3169 4666 
L 3169 4134 
L 1269 4134 
L 1269 2991 
Q 1406 3038 1543 3061 
Q 1681 3084 1819 3084 
Q 2600 3084 3056 2656 
Q 3513 2228 3513 1497 
Q 3513 744 3044 326 
Q 2575 -91 1722 -91 
Q 1428 -91 1123 -41 
Q 819 9 494 109 
L 494 744 
Q 775 591 1075 516 
Q 1375 441 1709 441 
Q 2250 441 2565 725 
Q 2881 1009 2881 1497 
Q 2881 1984 2565 2268 
Q 2250 2553 1709 2553 
Q 1456 2553 1204 2497 
Q 953 2441 691 2322 
L 691 4666 
z
" transform="scale(0.015625)"/>
       </defs>
       <use xlink:href="#DejaVuSans-35"/>
       <use xlink:href="#DejaVuSans-30" x="63.623047"/>
      </g>
     </g>
    </g>
    <g id="xtick_7">
     <g id="line2d_7">
      <g>
       <use xlink:href="#m129d215bc9" x="864.37419" y="522.58588" style="stroke: #000000; stroke-width: 0.8"/>
      </g>
     </g>
     <g id="text_7">
      <!-- 60 -->
      <g transform="translate(855.46669 540.223692) scale(0.14 -0.14)">
       <defs>
        <path id="DejaVuSans-36" d="M 2113 2584 
Q 1688 2584 1439 2293 
Q 1191 2003 1191 1497 
Q 1191 994 1439 701 
Q 1688 409 2113 409 
Q 2538 409 2786 701 
Q 3034 994 3034 1497 
Q 3034 2003 2786 2293 
Q 2538 2584 2113 2584 
z
M 3366 4563 
L 3366 3988 
Q 3128 4100 2886 4159 
Q 2644 4219 2406 4219 
Q 1781 4219 1451 3797 
Q 1122 3375 1075 2522 
Q 1259 2794 1537 2939 
Q 1816 3084 2150 3084 
Q 2853 3084 3261 2657 
Q 3669 2231 3669 1497 
Q 3669 778 3244 343 
Q 2819 -91 2113 -91 
Q 1303 -91 875 529 
Q 447 1150 447 2328 
Q 447 3434 972 4092 
Q 1497 4750 2381 4750 
Q 2619 4750 2861 4703 
Q 3103 4656 3366 4563 
z
" transform="scale(0.015625)"/>
       </defs>
       <use xlink:href="#DejaVuSans-36"/>
       <use xlink:href="#DejaVuSans-30" x="63.623047"/>
      </g>
     </g>
    </g>
    <g id="text_8">
     <!-- Time (s) -->
     <g transform="translate(492.298114 557.773068) scale(0.14 -0.14)">
      <defs>
       <path id="DejaVuSans-54" d="M -19 4666 
L 3928 4666 
L 3928 4134 
L 2272 4134 
L 2272 0 
L 1638 0 
L 1638 4134 
L -19 4134 
L -19 4666 
z
" transform="scale(0.015625)"/>
       <path id="DejaVuSans-69" d="M 603 3500 
L 1178 3500 
L 1178 0 
L 603 0 
L 603 3500 
z
M 603 4863 
L 1178 4863 
L 1178 4134 
L 603 4134 
L 603 4863 
z
" transform="scale(0.015625)"/>
       <path id="DejaVuSans-6d" d="M 3328 2828 
Q 3544 3216 3844 3400 
Q 4144 3584 4550 3584 
Q 5097 3584 5394 3201 
Q 5691 2819 5691 2113 
L 5691 0 
L 5113 0 
L 5113 2094 
Q 5113 2597 4934 2840 
Q 4756 3084 4391 3084 
Q 3944 3084 3684 2787 
Q 3425 2491 3425 1978 
L 3425 0 
L 2847 0 
L 2847 2094 
Q 2847 2600 2669 2842 
Q 2491 3084 2119 3084 
Q 1678 3084 1418 2786 
Q 1159 2488 1159 1978 
L 1159 0 
L 581 0 
L 581 3500 
L 1159 3500 
L 1159 2956 
Q 1356 3278 1631 3431 
Q 1906 3584 2284 3584 
Q 2666 3584 2933 3390 
Q 3200 3197 3328 2828 
z
" transform="scale(0.015625)"/>
       <path id="DejaVuSans-65" d="M 3597 1894 
L 3597 1613 
L 953 1613 
Q 991 1019 1311 708 
Q 1631 397 2203 397 
Q 2534 397 2845 478 
Q 3156 559 3463 722 
L 3463 178 
Q 3153 47 2828 -22 
Q 2503 -91 2169 -91 
Q 1331 -91 842 396 
Q 353 884 353 1716 
Q 353 2575 817 3079 
Q 1281 3584 2069 3584 
Q 2775 3584 3186 3129 
Q 3597 2675 3597 1894 
z
M 3022 2063 
Q 3016 2534 2758 2815 
Q 2500 3097 2075 3097 
Q 1594 3097 1305 2825 
Q 1016 2553 972 2059 
L 3022 2063 
z
" transform="scale(0.015625)"/>
       <path id="DejaVuSans-20" transform="scale(0.015625)"/>
       <path id="DejaVuSans-28" d="M 1984 4856 
Q 1566 4138 1362 3434 
Q 1159 2731 1159 2009 
Q 1159 1288 1364 580 
Q 1569 -128 1984 -844 
L 1484 -844 
Q 1016 -109 783 600 
Q 550 1309 550 2009 
Q 550 2706 781 3412 
Q 1013 4119 1484 4856 
L 1984 4856 
z
" transform="scale(0.015625)"/>
       <path id="DejaVuSans-73" d="M 2834 3397 
L 2834 2853 
Q 2591 2978 2328 3040 
Q 2066 3103 1784 3103 
Q 1356 3103 1142 2972 
Q 928 2841 928 2578 
Q 928 2378 1081 2264 
Q 1234 2150 1697 2047 
L 1894 2003 
Q 2506 1872 2764 1633 
Q 3022 1394 3022 966 
Q 3022 478 2636 193 
Q 2250 -91 1575 -91 
Q 1294 -91 989 -36 
Q 684 19 347 128 
L 347 722 
Q 666 556 975 473 
Q 1284 391 1588 391 
Q 1994 391 2212 530 
Q 2431 669 2431 922 
Q 2431 1156 2273 1281 
Q 2116 1406 1581 1522 
L 1381 1569 
Q 847 1681 609 1914 
Q 372 2147 372 2553 
Q 372 3047 722 3315 
Q 1072 3584 1716 3584 
Q 2034 3584 2315 3537 
Q 2597 3491 2834 3397 
z
" transform="scale(0.015625)"/>
       <path id="DejaVuSans-29" d="M 513 4856 
L 1013 4856 
Q 1481 4119 1714 3412 
Q 1947 2706 1947 2009 
Q 1947 1309 1714 600 
Q 1481 -109 1013 -844 
L 513 -844 
Q 928 -128 1133 580 
Q 1338 1288 1338 2009 
Q 1338 2731 1133 3434 
Q 928 4138 513 4856 
z
" transform="scale(0.015625)"/>
      </defs>
      <use xlink:href="#DejaVuSans-54"/>
      <use xlink:href="#DejaVuSans-69" x="57.958984"/>
      <use xlink:href="#DejaVuSans-6d" x="85.742188"/>
      <use xlink:href="#DejaVuSans-65" x="183.154297"/>
      <use xlink:href="#DejaVuSans-20" x="244.677734"/>
      <use xlink:href="#DejaVuSans-28" x="276.464844"/>
      <use xlink:href="#DejaVuSans-73" x="315.478516"/>
      <use xlink:href="#DejaVuSans-29" x="367.578125"/>
     </g>
    </g>
   </g>
   <g id="matplotlib.axis_2">
    <g id="ytick_1">
     <g id="line2d_8">
      <defs>
       <path id="m27b1934103" d="M 0 0 
L -3.5 0 
" style="stroke: #000000; stroke-width: 0.8"/>
      </defs>
      <g>
       <use xlink:href="#m27b1934103" x="109.850971" y="522.58588" style="stroke: #000000; stroke-width: 0.8"/>
      </g>
     </g>
     <g id="text_9">
      <!-- 0 -->
      <g transform="translate(93.943471 527.904786) scale(0.14 -0.14)">
       <use xlink:href="#DejaVuSans-30"/>
      </g>
     </g>
    </g>
    <g id="ytick_2">
     <g id="line2d_9">
      <g>
       <use xlink:href="#m27b1934103" x="109.850971" y="450.872877" style="stroke: #000000; stroke-width: 0.8"/>
      </g>
     </g>
     <g id="text_10">
      <!-- 20 -->
      <g transform="translate(85.035971 456.191783) scale(0.14 -0.14)">
       <use xlink:href="#DejaVuSans-32"/>
       <use xlink:href="#DejaVuSans-30" x="63.623047"/>
      </g>
     </g>
    </g>
    <g id="ytick_3">
     <g id="line2d_10">
      <g>
       <use xlink:href="#m27b1934103" x="109.850971" y="379.159874" style="stroke: #000000; stroke-width: 0.8"/>
      </g>
     </g>
     <g id="text_11">
      <!-- 40 -->
      <g transform="translate(85.035971 384.47878) scale(0.14 -0.14)">
       <use xlink:href="#DejaVuSans-34"/>
       <use xlink:href="#DejaVuSans-30" x="63.623047"/>
      </g>
     </g>
    </g>
    <g id="ytick_4">
     <g id="line2d_11">
      <g>
       <use xlink:href="#m27b1934103" x="109.850971" y="307.44687" style="stroke: #000000; stroke-width: 0.8"/>
      </g>
     </g>
     <g id="text_12">
      <!-- 60 -->
      <g transform="translate(85.035971 312.765777) scale(0.14 -0.14)">
       <use xlink:href="#DejaVuSans-36"/>
       <use xlink:href="#DejaVuSans-30" x="63.623047"/>
      </g>
     </g>
    </g>
    <g id="ytick_5">
     <g id="line2d_12">
      <g>
       <use xlink:href="#m27b1934103" x="109.850971" y="235.733867" style="stroke: #000000; stroke-width: 0.8"/>
      </g>
     </g>
     <g id="text_13">
      <!-- 80 -->
      <g transform="translate(85.035971 241.052774) scale(0.14 -0.14)">
       <defs>
        <path id="DejaVuSans-38" d="M 2034 2216 
Q 1584 2216 1326 1975 
Q 1069 1734 1069 1313 
Q 1069 891 1326 650 
Q 1584 409 2034 409 
Q 2484 409 2743 651 
Q 3003 894 3003 1313 
Q 3003 1734 2745 1975 
Q 2488 2216 2034 2216 
z
M 1403 2484 
Q 997 2584 770 2862 
Q 544 3141 544 3541 
Q 544 4100 942 4425 
Q 1341 4750 2034 4750 
Q 2731 4750 3128 4425 
Q 3525 4100 3525 3541 
Q 3525 3141 3298 2862 
Q 3072 2584 2669 2484 
Q 3125 2378 3379 2068 
Q 3634 1759 3634 1313 
Q 3634 634 3220 271 
Q 2806 -91 2034 -91 
Q 1263 -91 848 271 
Q 434 634 434 1313 
Q 434 1759 690 2068 
Q 947 2378 1403 2484 
z
M 1172 3481 
Q 1172 3119 1398 2916 
Q 1625 2713 2034 2713 
Q 2441 2713 2670 2916 
Q 2900 3119 2900 3481 
Q 2900 3844 2670 4047 
Q 2441 4250 2034 4250 
Q 1625 4250 1398 4047 
Q 1172 3844 1172 3481 
z
" transform="scale(0.015625)"/>
       </defs>
       <use xlink:href="#DejaVuSans-38"/>
       <use xlink:href="#DejaVuSans-30" x="63.623047"/>
      </g>
     </g>
    </g>
    <g id="ytick_6">
     <g id="line2d_13">
      <g>
       <use xlink:href="#m27b1934103" x="109.850971" y="164.020864" style="stroke: #000000; stroke-width: 0.8"/>
      </g>
     </g>
     <g id="text_14">
      <!-- 100 -->
      <g transform="translate(76.128471 169.33977) scale(0.14 -0.14)">
       <use xlink:href="#DejaVuSans-31"/>
       <use xlink:href="#DejaVuSans-30" x="63.623047"/>
       <use xlink:href="#DejaVuSans-30" x="127.246094"/>
      </g>
     </g>
    </g>
    <g id="ytick_7">
     <g id="line2d_14">
      <g>
       <use xlink:href="#m27b1934103" x="109.850971" y="92.307861" style="stroke: #000000; stroke-width: 0.8"/>
      </g>
     </g>
     <g id="text_15">
      <!-- 120 -->
      <g transform="translate(76.128471 97.626767) scale(0.14 -0.14)">
       <use xlink:href="#DejaVuSans-31"/>
       <use xlink:href="#DejaVuSans-32" x="63.623047"/>
       <use xlink:href="#DejaVuSans-30" x="127.246094"/>
      </g>
     </g>
    </g>
    <g id="text_16">
     <!-- Packets per Second -->
     <g transform="translate(69.216909 354.578537) rotate(-90) scale(0.14 -0.14)">
      <defs>
       <path id="DejaVuSans-50" d="M 1259 4147 
L 1259 2394 
L 2053 2394 
Q 2494 2394 2734 2622 
Q 2975 2850 2975 3272 
Q 2975 3691 2734 3919 
Q 2494 4147 2053 4147 
L 1259 4147 
z
M 628 4666 
L 2053 4666 
Q 2838 4666 3239 4311 
Q 3641 3956 3641 3272 
Q 3641 2581 3239 2228 
Q 2838 1875 2053 1875 
L 1259 1875 
L 1259 0 
L 628 0 
L 628 4666 
z
" transform="scale(0.015625)"/>
       <path id="DejaVuSans-61" d="M 2194 1759 
Q 1497 1759 1228 1600 
Q 959 1441 959 1056 
Q 959 750 1161 570 
Q 1363 391 1709 391 
Q 2188 391 2477 730 
Q 2766 1069 2766 1631 
L 2766 1759 
L 2194 1759 
z
M 3341 1997 
L 3341 0 
L 2766 0 
L 2766 531 
Q 2569 213 2275 61 
Q 1981 -91 1556 -91 
Q 1019 -91 701 211 
Q 384 513 384 1019 
Q 384 1609 779 1909 
Q 1175 2209 1959 2209 
L 2766 2209 
L 2766 2266 
Q 2766 2663 2505 2880 
Q 2244 3097 1772 3097 
Q 1472 3097 1187 3025 
Q 903 2953 641 2809 
L 641 3341 
Q 956 3463 1253 3523 
Q 1550 3584 1831 3584 
Q 2591 3584 2966 3190 
Q 3341 2797 3341 1997 
z
" transform="scale(0.015625)"/>
       <path id="DejaVuSans-63" d="M 3122 3366 
L 3122 2828 
Q 2878 2963 2633 3030 
Q 2388 3097 2138 3097 
Q 1578 3097 1268 2742 
Q 959 2388 959 1747 
Q 959 1106 1268 751 
Q 1578 397 2138 397 
Q 2388 397 2633 464 
Q 2878 531 3122 666 
L 3122 134 
Q 2881 22 2623 -34 
Q 2366 -91 2075 -91 
Q 1284 -91 818 406 
Q 353 903 353 1747 
Q 353 2603 823 3093 
Q 1294 3584 2113 3584 
Q 2378 3584 2631 3529 
Q 2884 3475 3122 3366 
z
" transform="scale(0.015625)"/>
       <path id="DejaVuSans-6b" d="M 581 4863 
L 1159 4863 
L 1159 1991 
L 2875 3500 
L 3609 3500 
L 1753 1863 
L 3688 0 
L 2938 0 
L 1159 1709 
L 1159 0 
L 581 0 
L 581 4863 
z
" transform="scale(0.015625)"/>
       <path id="DejaVuSans-74" d="M 1172 4494 
L 1172 3500 
L 2356 3500 
L 2356 3053 
L 1172 3053 
L 1172 1153 
Q 1172 725 1289 603 
Q 1406 481 1766 481 
L 2356 481 
L 2356 0 
L 1766 0 
Q 1100 0 847 248 
Q 594 497 594 1153 
L 594 3053 
L 172 3053 
L 172 3500 
L 594 3500 
L 594 4494 
L 1172 4494 
z
" transform="scale(0.015625)"/>
       <path id="DejaVuSans-70" d="M 1159 525 
L 1159 -1331 
L 581 -1331 
L 581 3500 
L 1159 3500 
L 1159 2969 
Q 1341 3281 1617 3432 
Q 1894 3584 2278 3584 
Q 2916 3584 3314 3078 
Q 3713 2572 3713 1747 
Q 3713 922 3314 415 
Q 2916 -91 2278 -91 
Q 1894 -91 1617 61 
Q 1341 213 1159 525 
z
M 3116 1747 
Q 3116 2381 2855 2742 
Q 2594 3103 2138 3103 
Q 1681 3103 1420 2742 
Q 1159 2381 1159 1747 
Q 1159 1113 1420 752 
Q 1681 391 2138 391 
Q 2594 391 2855 752 
Q 3116 1113 3116 1747 
z
" transform="scale(0.015625)"/>
       <path id="DejaVuSans-72" d="M 2631 2963 
Q 2534 3019 2420 3045 
Q 2306 3072 2169 3072 
Q 1681 3072 1420 2755 
Q 1159 2438 1159 1844 
L 1159 0 
L 581 0 
L 581 3500 
L 1159 3500 
L 1159 2956 
Q 1341 3275 1631 3429 
Q 1922 3584 2338 3584 
Q 2397 3584 2469 3576 
Q 2541 3569 2628 3553 
L 2631 2963 
z
" transform="scale(0.015625)"/>
       <path id="DejaVuSans-53" d="M 3425 4513 
L 3425 3897 
Q 3066 4069 2747 4153 
Q 2428 4238 2131 4238 
Q 1616 4238 1336 4038 
Q 1056 3838 1056 3469 
Q 1056 3159 1242 3001 
Q 1428 2844 1947 2747 
L 2328 2669 
Q 3034 2534 3370 2195 
Q 3706 1856 3706 1288 
Q 3706 609 3251 259 
Q 2797 -91 1919 -91 
Q 1588 -91 1214 -16 
Q 841 59 441 206 
L 441 856 
Q 825 641 1194 531 
Q 1563 422 1919 422 
Q 2459 422 2753 634 
Q 3047 847 3047 1241 
Q 3047 1584 2836 1778 
Q 2625 1972 2144 2069 
L 1759 2144 
Q 1053 2284 737 2584 
Q 422 2884 422 3419 
Q 422 4038 858 4394 
Q 1294 4750 2059 4750 
Q 2388 4750 2728 4690 
Q 3069 4631 3425 4513 
z
" transform="scale(0.015625)"/>
       <path id="DejaVuSans-6f" d="M 1959 3097 
Q 1497 3097 1228 2736 
Q 959 2375 959 1747 
Q 959 1119 1226 758 
Q 1494 397 1959 397 
Q 2419 397 2687 759 
Q 2956 1122 2956 1747 
Q 2956 2369 2687 2733 
Q 2419 3097 1959 3097 
z
M 1959 3584 
Q 2709 3584 3137 3096 
Q 3566 2609 3566 1747 
Q 3566 888 3137 398 
Q 2709 -91 1959 -91 
Q 1206 -91 779 398 
Q 353 888 353 1747 
Q 353 2609 779 3096 
Q 1206 3584 1959 3584 
z
" transform="scale(0.015625)"/>
       <path id="DejaVuSans-6e" d="M 3513 2113 
L 3513 0 
L 2938 0 
L 2938 2094 
Q 2938 2591 2744 2837 
Q 2550 3084 2163 3084 
Q 1697 3084 1428 2787 
Q 1159 2491 1159 1978 
L 1159 0 
L 581 0 
L 581 3500 
L 1159 3500 
L 1159 2956 
Q 1366 3272 1645 3428 
Q 1925 3584 2291 3584 
Q 2894 3584 3203 3211 
Q 3513 2838 3513 2113 
z
" transform="scale(0.015625)"/>
       <path id="DejaVuSans-64" d="M 2906 2969 
L 2906 4863 
L 3481 4863 
L 3481 0 
L 2906 0 
L 2906 525 
Q 2725 213 2448 61 
Q 2172 -91 1784 -91 
Q 1150 -91 751 415 
Q 353 922 353 1747 
Q 353 2572 751 3078 
Q 1150 3584 1784 3584 
Q 2172 3584 2448 3432 
Q 2725 3281 2906 2969 
z
M 947 1747 
Q 947 1113 1208 752 
Q 1469 391 1925 391 
Q 2381 391 2643 752 
Q 2906 1113 2906 1747 
Q 2906 2381 2643 2742 
Q 2381 3103 1925 3103 
Q 1469 3103 1208 2742 
Q 947 2381 947 1747 
z
" transform="scale(0.015625)"/>
      </defs>
      <use xlink:href="#DejaVuSans-50"/>
      <use xlink:href="#DejaVuSans-61" x="55.802734"/>
      <use xlink:href="#DejaVuSans-63" x="117.082031"/>
      <use xlink:href="#DejaVuSans-6b" x="172.0625"/>
      <use xlink:href="#DejaVuSans-65" x="226.347656"/>
      <use xlink:href="#DejaVuSans-74" x="287.871094"/>
      <use xlink:href="#DejaVuSans-73" x="327.080078"/>
      <use xlink:href="#DejaVuSans-20" x="379.179688"/>
      <use xlink:href="#DejaVuSans-70" x="410.966797"/>
      <use xlink:href="#DejaVuSans-65" x="474.443359"/>
      <use xlink:href="#DejaVuSans-72" x="535.966797"/>
      <use xlink:href="#DejaVuSans-20" x="577.080078"/>
      <use xlink:href="#DejaVuSans-53" x="608.867188"/>
      <use xlink:href="#DejaVuSans-65" x="672.34375"/>
      <use xlink:href="#DejaVuSans-63" x="733.867188"/>
      <use xlink:href="#DejaVuSans-6f" x="788.847656"/>
      <use xlink:href="#DejaVuSans-6e" x="850.029297"/>
      <use xlink:href="#DejaVuSans-64" x="913.408203"/>
     </g>
    </g>
   </g>
   <g id="line2d_15">
    <path d="M 128.188347 210.260661 
L 129.854978 197.924223 
L 131.264489 202.680892 
L 132.930904 224.940777 
L 134.211051 64.683802 
L 135.493202 100.567342 
L 136.903168 234.764523 
L 138.183834 205.704918 
L 139.721938 112.163062 
L 141.131332 234.647603 
L 142.412141 170.535586 
L 143.950892 200.246229 
L 145.231886 205.786249 
L 146.513399 241.100198 
L 148.178372 170.518716 
L 149.459523 170.629624 
L 150.868985 234.661512 
L 152.405947 170.533311 
L 153.686663 276.132713 
L 155.096358 170.736388 
L 156.635204 229.568055 
L 158.045584 170.907322 
L 159.197755 170.365408 
L 160.607568 138.782203 
L 162.017622 234.782458 
L 163.298186 205.679839 
L 164.45091 170.534203 
L 165.73337 241.308162 
L 167.398233 170.495388 
L 168.67848 205.601514 
L 170.086979 234.464618 
L 171.62361 170.457455 
L 172.903735 205.571408 
L 174.312027 234.422277 
L 175.595551 206.41073 
L 177.132637 229.232494 
L 178.542367 170.745136 
L 179.69468 170.40852 
L 181.104601 266.736466 
L 182.640387 199.624 
L 183.921796 170.700172 
L 185.202023 135.154356 
L 186.547634 220.99922 
L 188.086066 229.489208 
L 189.367315 170.656137 
L 190.648134 170.538269 
L 191.994856 221.248007 
L 193.531697 229.185713 
L 195.196489 143.39556 
L 196.476879 205.636641 
L 197.886193 234.631303 
L 200.702387 170.353878 
L 201.983682 205.860455 
L 203.262692 205.294809 
L 204.798199 228.930906 
L 206.078413 135.150356 
L 207.357626 205.345283 
L 208.765139 234.262766 
L 211.579093 169.975099 
L 212.988246 234.598215 
L 214.523488 199.509638 
L 215.612043 191.203885 
L 216.893415 205.879649 
L 218.175056 170.764147 
L 219.583243 202.38029 
L 221.119032 170.264501 
L 222.398915 205.51114 
L 223.680069 276.216878 
L 224.960196 205.571823 
L 226.368754 170.452472 
L 227.651413 206.197431 
L 228.930999 205.437609 
L 230.210576 205.435368 
L 231.746002 228.915369 
L 233.025514 170.178503 
L 234.434916 234.649412 
L 235.716661 170.792441 
L 236.870197 170.782057 
L 238.278284 266.40322 
L 239.302028 126.17937 
L 240.838335 199.733532 
L 242.246026 170.235684 
L 243.529479 206.393143 
L 245.064834 199.53343 
L 246.345875 240.996613 
L 248.011944 170.750304 
L 249.421566 202.706195 
L 250.957701 170.343921 
L 252.622884 224.720491 
L 253.904286 241.075838 
L 255.312739 170.426348 
L 256.851416 229.535852 
L 258.132438 205.793078 
L 259.796974 143.337168 
L 261.205337 234.436805 
L 262.485176 205.500323 
L 263.767493 206.11312 
L 265.303855 229.094318 
L 266.583197 134.88621 
L 267.993096 266.7324 
L 269.528355 140.772638 
L 270.808537 276.029864 
L 272.472874 197.476679 
L 273.752873 170.312775 
L 274.777559 170.548828 
L 276.184895 234.226445 
L 277.592411 170.191945 
L 278.875244 206.240303 
L 280.41044 199.499989 
L 281.320893 76.853179 
L 282.727307 234.037464 
L 284.009899 206.181083 
L 285.416794 234.136076 
L 286.826932 170.847078 
L 288.297005 185.18754 
L 289.578155 170.629089 
L 290.857735 275.913914 
L 292.266438 170.488546 
L 293.546128 205.463436 
L 294.826292 205.580931 
L 296.362474 199.707214 
L 299.050884 205.391791 
L 300.331362 240.872668 
L 301.612563 100.25459 
L 302.89316 170.477061 
L 304.17288 205.470791 
L 305.837875 197.605221 
L 307.50131 197.300401 
L 308.784379 241.44166 
L 310.447897 197.316591 
L 311.854922 202.115871 
L 313.519921 197.605913 
L 314.801187 205.853426 
L 316.465035 197.381245 
L 318.126946 224.133957 
L 319.407244 240.833122 
L 320.685782 169.910171 
L 321.964632 240.514018 
L 323.372373 170.248193 
L 324.652914 205.674318 
L 325.931268 205.131868 
L 327.338271 138.015885 
L 329.001701 224.406535 
L 330.283232 241.10431 
L 331.43819 171.214915 
L 332.846462 170.381081 
L 334.129192 241.367223 
L 335.667057 200.060577 
L 337.329132 197.034323 
L 338.610672 135.551187 
L 340.017251 234.071478 
L 341.551434 169.895707 
L 342.830583 205.329218 
L 344.109311 275.749461 
L 345.518769 202.669005 
L 347.052858 140.481572 
L 348.203378 169.85967 
L 349.612403 266.573836 
L 350.893003 170.477842 
L 352.427549 169.979212 
L 353.709201 205.948911 
L 355.116367 234.191702 
L 356.650561 199.288807 
L 357.929147 205.189546 
L 359.210701 241.109404 
L 361.769783 170.48871 
L 363.048567 240.499549 
L 364.201084 170.47091 
L 365.479682 134.660514 
L 366.760213 205.671894 
L 367.975315 188.606967 
L 369.382189 234.131726 
L 370.788306 233.976753 
L 372.19782 138.700727 
L 373.476917 205.316552 
L 374.631723 249.261518 
L 376.215234 123.931797 
L 378.007179 245.791419 
L 379.285589 169.874945 
L 380.694848 266.616079 
L 382.105635 107.085936 
L 383.383269 204.95304 
L 384.793108 234.73855 
L 385.944179 248.374747 
L 387.606857 197.1523 
L 388.885843 205.288751 
L 390.293705 234.334289 
L 391.700517 170.015396 
L 394.072003 209.666667 
L 395.607647 199.594019 
L 397.013725 201.899906 
L 398.293379 170.217696 
L 399.577339 206.518145 
L 401.115253 170.751284 
L 402.396001 205.725462 
L 403.674442 205.153701 
L 405.336366 197.004598 
L 406.616703 276.05974 
L 407.897062 205.628995 
L 409.051564 171.076497 
L 410.329955 205.141214 
L 411.610547 205.686655 
L 412.889787 205.351823 
L 414.552596 197.178002 
L 415.83275 205.57825 
L 417.244644 171.284602 
L 418.27366 172.030164 
L 419.936967 224.384444 
L 421.217625 205.703116 
L 422.495374 204.981744 
L 423.775586 135.149922 
L 425.439611 224.513198 
L 427.10317 224.429691 
L 428.382005 205.251459 
L 429.661784 135.018903 
L 431.068416 234.082089 
L 432.602353 169.839301 
L 433.881853 205.416142 
L 435.161723 205.508196 
L 436.699514 229.366884 
L 437.977886 134.592299 
L 439.643461 197.718249 
L 440.921706 275.656328 
L 442.204485 171.075874 
L 443.864771 196.683595 
L 445.530251 197.699776 
L 446.809646 170.146414 
L 448.214631 233.743967 
L 449.750766 170.343976 
L 451.413249 224.236723 
L 453.075093 196.988936 
L 454.355188 205.563707 
L 455.632762 169.643939 
L 457.039818 234.169177 
L 458.450432 234.896815 
L 459.858379 234.351536 
L 461.141113 171.063882 
L 462.419601 169.896198 
L 463.697094 204.918193 
L 465.362865 224.82565 
L 466.642873 135.088111 
L 467.922167 205.365204 
L 469.456678 169.971164 
L 470.929248 247.000588 
L 472.336618 138.116049 
L 473.615564 275.791663 
L 475.02269 170.094007 
L 476.557821 199.486335 
L 477.836691 170.001738 
L 479.118082 205.884255 
L 480.782454 170.391675 
L 482.189044 266.130576 
L 483.595898 202.076744 
L 484.879118 136.058091 
L 486.157858 240.489901 
L 487.562366 169.436886 
L 488.714846 248.709913 
L 490.120925 169.831782 
L 491.655406 199.349393 
L 492.932766 240.185072 
L 494.339374 169.964323 
L 495.492787 170.744226 
L 496.900831 266.395523 
L 498.178088 169.55636 
L 499.71707 229.593894 
L 500.99691 205.500438 
L 502.277473 205.679755 
L 503.555306 134.42839 
L 504.835777 205.656867 
L 506.116007 205.597139 
L 507.655215 229.636992 
L 508.932592 204.88918 
L 510.59472 142.787618 
L 512.002142 266.282219 
L 513.539342 141.25481 
L 514.817554 275.649769 
L 516.480024 169.98884 
L 517.761706 241.137353 
L 519.039758 134.495025 
L 520.318876 205.321483 
L 521.598962 205.561676 
L 523.133329 199.325269 
L 524.410579 169.554514 
L 526.073868 197.27172 
L 527.354811 240.97492 
L 528.633663 205.255775 
L 530.293966 169.528588 
L 531.573278 275.86211 
L 532.855103 135.637383 
L 534.518037 197.202373 
L 535.797117 205.312157 
L 537.203337 266.063129 
L 538.484939 170.753055 
L 539.891414 137.871614 
L 541.172484 276.200723 
L 542.451158 205.21153 
L 543.857888 169.994704 
L 545.007239 247.964301 
L 546.546369 200.325755 
L 547.695753 208.741716 
L 548.976115 170.412532 
L 550.509754 169.770566 
L 551.788911 240.581888 
L 553.197633 202.501898 
L 554.614044 140.56993 
L 555.888908 239.632297 
L 557.107394 226.540214 
L 558.771568 197.444793 
L 560.048553 134.170805 
L 561.459145 234.89207 
L 562.992285 169.65581 
L 564.656831 251.69559 
L 565.936975 135.129195 
L 567.342049 265.853844 
L 568.878687 199.803062 
L 570.156473 204.990952 
L 571.436034 170.191958 
L 572.714529 205.167036 
L 573.930997 151.915044 
L 575.21056 240.671283 
L 576.875901 197.672562 
L 578.28052 233.668943 
L 579.813052 140.093249 
L 581.09404 276.184936 
L 584.037211 135.330295 
L 585.441995 233.702648 
L 586.852106 202.817239 
L 588.445216 182.941142 
L 589.852272 202.12304 
L 591.132151 170.279492 
L 592.667248 228.852387 
L 594.075863 234.488454 
L 595.354352 169.896521 
L 597.015798 169.771508 
L 598.4205 233.685709 
L 599.701177 205.70792 
L 600.986309 206.806293 
L 602.39213 201.841355 
L 603.674261 206.067171 
L 605.082614 170.401199 
L 606.360883 240.385789 
L 607.893853 140.202563 
L 609.303193 234.63675 
L 610.837199 169.854989 
L 612.245062 234.33441 
L 613.522624 204.935331 
L 615.058848 229.067814 
L 616.338865 205.544428 
L 617.488918 169.716598 
L 618.644214 171.31794 
L 620.329688 148.048328 
L 622.007268 200.043212 
L 623.667958 196.762633 
L 625.077155 234.607475 
L 626.226712 248.013542 
L 627.506496 205.486667 
L 628.783432 134.155784 
L 630.449134 251.883591 
L 631.726817 204.96522 
L 633.007533 170.509861 
L 634.414791 202.168888 
L 635.694617 205.497264 
L 637.236222 171.593716 
L 638.516169 205.527062 
L 639.922315 233.982406 
L 641.200362 205.05578 
L 642.477756 204.893522 
L 644.015991 229.451651 
L 645.294015 205.049959 
L 646.453438 172.568332 
L 647.858814 169.655172 
L 649.268813 234.771138 
L 650.675305 169.935336 
L 651.953721 240.418126 
L 653.234589 205.755115 
L 654.776319 113.128222 
L 656.055268 275.792318 
L 657.716833 169.796653 
L 659.000614 241.597507 
L 660.666729 197.823499 
L 662.070554 201.385457 
L 663.603379 199.000016 
L 664.883799 205.64428 
L 666.545808 169.890985 
L 667.95009 201.489783 
L 669.109528 250.353502 
L 670.389645 205.569172 
L 671.79577 169.843203 
L 673.079478 206.456009 
L 674.616386 170.521106 
L 675.894837 275.695919 
L 677.107885 188.041514 
L 678.518641 171.001047 
L 679.933018 235.662215 
L 681.338442 201.750634 
L 683.000221 196.976261 
L 684.282074 135.645829 
L 685.81686 228.79296 
L 687.223256 201.972349 
L 688.501611 169.859696 
L 690.039849 170.825464 
L 691.445801 233.942758 
L 692.9781 228.315944 
L 694.642598 170.418348 
L 695.921337 240.489596 
L 697.330521 170.608847 
L 698.862724 169.439953 
L 700.146155 206.387796 
L 701.42422 205.060338 
L 702.70231 240.346386 
L 703.979725 204.898632 
L 705.6461 224.933518 
L 707.307066 169.66946 
L 708.586519 240.64703 
L 709.993883 170.153823 
L 711.278019 241.675028 
L 712.819243 200.76354 
L 714.097197 205.032786 
L 715.502802 201.792113 
L 716.653618 130.768605 
L 718.06324 234.694159 
L 719.475298 139.39256 
L 720.75701 205.963832 
L 722.036222 205.344725 
L 723.189248 170.626581 
L 724.594645 233.828707 
L 727.413699 171.133042 
L 729.080768 198.009411 
L 730.355335 204.188837 
L 731.762525 234.196648 
L 733.040761 240.378543 
L 734.319001 169.827882 
L 735.645892 182.761924 
L 737.05641 170.941817 
L 738.335076 205.209289 
L 739.739915 233.71412 
L 741.276163 199.721076 
L 742.679976 201.382658 
L 744.21807 229.424689 
L 745.497575 134.935761 
L 746.902628 233.757951 
L 748.440475 200.056972 
L 749.847508 202.117678 
L 751.133115 241.996532 
L 752.669428 170.384644 
L 755.230655 240.321905 
L 756.509469 169.986098 
L 758.04421 140.643718 
L 759.707603 197.292185 
L 761.11347 233.925367 
L 762.267038 248.96818 
L 763.930353 143.058903 
L 765.339279 234.55196 
L 766.486956 168.985876 
L 767.7679 205.773936 
L 769.171655 233.490977 
L 770.582081 138.949125 
L 771.987629 233.859732 
L 774.803866 170.779755 
L 776.082458 240.457253 
L 777.361166 169.956942 
L 778.766988 233.916025 
L 780.049728 241.369434 
L 781.205449 171.447324 
L 782.489149 206.453931 
L 783.768011 205.258049 
L 785.304553 141.091571 
L 786.968325 197.366233 
L 788.245969 204.955457 
L 789.652401 266.101853 
L 791.187318 170.064283 
L 792.469033 241.144535 
L 793.747824 205.240553 
L 795.40731 196.526281 
L 796.5631 93.441931 
L 797.841257 205.083241 
L 799.502608 251.174551 
L 801.161657 142.082862 
L 802.441776 240.793616 
L 805.004712 171.458476 
L 806.666321 251.216831 
L 807.945221 205.267579 
L 809.604692 169.351561 
L 811.268088 224.40053 
L 812.674787 169.986969 
L 813.835061 211.687346 
L 815.113452 240.412921 
L 816.394634 135.443054 
L 817.670872 204.605743 
L 819.338358 198.090627 
L 820.870841 169.504379 
L 822.148602 240.273671 
L 823.423639 239.670658 
L 825.090462 197.961464 
L 826.3697 205.35133 
L 827.772604 169.033301 
L 829.050588 240.323043 
L 830.586948 199.744673 
L 831.868651 170.781023 
L 833.143946 239.727734 
L 834.428466 171.552654 
L 835.703826 169.03104 
L 836.988796 206.766699 
L 838.523061 169.914563 
L 841.081409 241.271565 
L 842.740478 169.265897 
L 844.149379 234.546844 
L 845.299433 169.716957 
L 846.582114 241.356638 
L 849.137946 170.167152 
L 850.419495 241.108136 
L 851.699743 170.381042 
L 854.253148 239.974881 
L 855.788645 170.197594 
L 857.066979 240.400247 
L 858.349215 206.092989 
L 860.016013 143.85176 
L 861.419711 233.479223 
L 862.957008 229.272896 
L 864.618955 169.877761 
L 866.283056 170.33428 
L 867.686496 233.426121 
L 868.836373 208.876011 
L 870.115005 169.936085 
L 871.402406 207.362764 
L 872.680861 240.427116 
L 875.235932 98.65868 
L 876.642277 298.148474 
L 877.920892 134.665634 
L 879.327129 266.066277 
L 880.734515 202.197967 
L 882.273836 229.658516 
L 883.550477 204.706059 
L 884.827616 204.829763 
L 886.364479 170.510788 
L 887.648323 206.489433 
L 889.310279 142.748624 
L 890.590248 275.988701 
L 891.742037 131.100054 
L 893.405344 170.166143 
L 893.405344 170.166143 
" clip-path="url(#p647c102a79)" style="fill: none; stroke: #1f77b4; stroke-width: 1.5; stroke-linecap: square"/>
   </g>
   <g id="line2d_16">
    <path d="M 128.188347 306.360728 
L 129.854978 306.144775 
L 131.264489 330.642887 
L 132.930904 306.116715 
L 134.211051 311.246459 
L 135.493202 311.576611 
L 136.903168 330.704976 
L 139.721938 288.058555 
L 141.131332 330.627029 
L 143.950892 288.157043 
L 145.231886 311.386126 
L 146.513399 346.657329 
L 148.178372 278.847074 
L 149.459523 311.412127 
L 150.868985 330.636301 
L 152.405947 287.884168 
L 153.686663 346.547903 
L 155.096358 298.681658 
L 156.635204 317.473402 
L 158.045584 298.790434 
L 159.197755 287.772232 
L 160.607568 266.716762 
L 162.017622 330.716932 
L 163.298186 311.315186 
L 164.45091 287.884762 
L 165.73337 311.627591 
L 167.398233 305.914808 
L 168.67848 311.262969 
L 170.086979 330.505038 
L 171.62361 287.833597 
L 172.903735 311.242899 
L 174.312027 330.476811 
L 175.595551 311.802447 
L 177.132637 317.23851 
L 178.542367 298.687225 
L 179.69468 287.800973 
L 181.104601 330.69882 
L 182.640387 317.064683 
L 183.921796 276.265884 
L 185.202023 311.259594 
L 186.547634 321.528106 
L 188.086066 317.41821 
L 189.367315 276.23506 
L 190.648134 311.357313 
L 191.994856 321.693964 
L 193.531697 317.205763 
L 195.196489 278.820674 
L 196.476879 311.286387 
L 197.886193 330.616162 
L 200.702387 287.764545 
L 201.983682 311.435596 
L 203.262692 311.0585 
L 204.798199 317.027398 
L 206.078413 276.036001 
L 207.357626 311.092149 
L 208.765139 330.370471 
L 210.30032 287.611902 
L 211.579093 311.019411 
L 212.988246 330.594104 
L 214.523488 287.62134 
L 215.612043 315.472133 
L 216.893415 311.448392 
L 218.175056 276.310667 
L 219.583243 330.462526 
L 221.119032 287.704961 
L 222.398915 311.20272 
L 223.680069 346.608022 
L 224.960196 311.243175 
L 226.368754 298.500984 
L 227.651413 311.660247 
L 228.930999 311.153699 
L 230.210576 311.152205 
L 231.746002 317.016522 
L 233.025514 275.900716 
L 234.434916 330.628234 
L 235.716661 311.509817 
L 236.870197 288.049998 
L 238.278284 330.448885 
L 239.302028 258.314873 
L 240.838335 317.134386 
L 242.246026 298.363028 
L 243.529479 311.790722 
L 245.064834 287.638643 
L 246.345875 346.592588 
L 248.011944 279.007404 
L 249.421566 330.658069 
L 250.957701 287.757908 
L 252.622884 305.956506 
L 253.904286 346.642104 
L 255.312739 298.48436 
L 256.851416 317.450861 
L 258.132438 311.390679 
L 259.796974 278.783136 
L 261.205337 330.486496 
L 262.485176 311.195509 
L 263.767493 311.60404 
L 265.303855 317.141787 
L 266.583197 275.867908 
L 267.993096 330.69577 
L 269.528355 287.623885 
L 270.808537 346.47444 
L 273.752873 275.994707 
L 274.777559 302.562722 
L 276.184895 330.346256 
L 277.592411 298.335194 
L 278.875244 311.688828 
L 281.320893 274.956602 
L 282.727307 330.220269 
L 284.009899 311.649348 
L 285.416794 330.286011 
L 286.826932 298.752097 
L 288.297005 277.205269 
L 290.857735 346.391619 
L 292.266438 298.52394 
L 293.546128 311.170918 
L 294.826292 311.249248 
L 296.362474 287.765032 
L 297.771483 330.574659 
L 299.050884 311.123154 
L 300.331362 311.300971 
L 301.612563 241.031687 
L 302.89316 311.320589 
L 304.17288 311.17582 
L 305.837875 305.932107 
L 307.50131 305.728894 
L 308.784379 311.727715 
L 310.447897 305.739688 
L 311.854922 330.303875 
L 313.519921 305.932569 
L 314.801187 311.430911 
L 316.465035 305.78279 
L 318.126946 305.529936 
L 319.407244 346.490406 
L 320.685782 275.712884 
L 321.964632 346.290966 
L 323.372373 298.370988 
L 324.652914 311.311506 
L 325.931268 310.949872 
L 327.338271 266.205884 
L 329.001701 305.728174 
L 330.283232 346.659899 
L 331.43819 288.33857 
L 332.846462 298.455553 
L 334.129192 311.671887 
L 335.667057 317.342506 
L 337.329132 305.551509 
L 338.610672 276.291075 
L 340.017251 330.242945 
L 341.551434 287.459098 
L 342.830583 311.081439 
L 344.109311 346.274152 
L 345.518769 298.644067 
L 347.052858 287.444768 
L 348.203378 287.435074 
L 349.612403 330.576847 
L 352.427549 287.514768 
L 353.709201 311.494567 
L 355.116367 330.323095 
L 356.650561 287.460736 
L 357.929147 310.988324 
L 359.210701 346.663082 
L 361.769783 276.117861 
L 363.048567 346.281923 
L 364.201084 287.842567 
L 365.479682 275.724284 
L 366.760213 311.309889 
L 367.975315 299.933271 
L 369.382189 330.283111 
L 370.788306 330.179796 
L 372.19782 266.662445 
L 373.476917 311.072995 
L 374.631723 327.354193 
L 376.215234 266.308255 
L 378.007179 321.280817 
L 379.285589 310.959319 
L 380.694848 330.608529 
L 382.105635 266.893607 
L 383.383269 310.830653 
L 384.793108 330.68766 
L 385.944179 326.720785 
L 387.606857 305.63016 
L 388.885843 311.054461 
L 390.293705 330.418153 
L 391.700517 298.222845 
L 392.919222 300.591543 
L 394.072003 287.896471 
L 395.607647 317.045605 
L 397.013725 298.105699 
L 398.293379 311.164969 
L 399.577339 311.874057 
L 401.115253 288.029483 
L 402.396001 311.345601 
L 403.674442 310.964427 
L 405.336366 305.531692 
L 406.616703 346.49578 
L 407.897062 311.28129 
L 409.051564 288.246291 
L 410.329955 310.956103 
L 411.610547 311.31973 
L 412.889787 311.096509 
L 414.552596 305.647294 
L 415.83275 311.24746 
L 417.244644 299.030522 
L 418.27366 259.669093 
L 419.936967 332.82133 
L 421.217625 311.330704 
L 422.495374 310.849789 
L 423.775586 276.035725 
L 425.439611 305.805747 
L 427.10317 332.850123 
L 428.382005 311.029599 
L 429.661784 275.952349 
L 431.068416 330.25002 
L 432.602353 287.421494 
L 433.881853 311.139388 
L 435.161723 311.200757 
L 436.699514 317.332583 
L 437.977886 275.680874 
L 439.643461 306.007459 
L 440.921706 346.207629 
L 442.204485 276.528876 
L 443.864771 305.31769 
L 445.530251 305.995144 
L 446.809646 311.1222 
L 448.214631 330.024605 
L 449.750766 287.757944 
L 451.413249 305.604675 
L 453.075093 305.521251 
L 454.355188 311.237765 
L 455.632762 310.820715 
L 457.039818 330.308078 
L 458.450432 330.79317 
L 459.858379 330.429651 
L 461.141113 276.520481 
L 462.419601 275.703103 
L 463.697094 310.807422 
L 465.362865 333.102097 
L 466.642873 275.99639 
L 467.922167 311.105429 
L 469.456678 287.509403 
L 470.929248 338.862352 
L 472.336618 266.27266 
L 473.615564 346.304296 
L 475.02269 298.27287 
L 476.557821 287.604393 
L 477.836691 311.035395 
L 479.118082 311.451463 
L 480.782454 305.850985 
L 482.189044 330.244402 
L 483.595898 330.280398 
L 484.879118 241.474761 
L 486.157858 346.275893 
L 487.562366 297.854702 
L 488.714846 326.96019 
L 490.120925 298.106 
L 491.655406 287.504798 
L 492.932766 346.085375 
L 494.339374 298.190344 
L 495.492787 288.024777 
L 496.900831 330.443113 
L 498.178088 310.768168 
L 499.71707 317.49149 
L 500.99691 311.195586 
L 502.277473 311.31513 
L 503.555306 275.576568 
L 504.835777 311.299872 
L 506.116007 311.260053 
L 507.655215 317.521658 
L 508.932592 310.78808 
L 510.59472 278.429855 
L 512.002142 330.358134 
L 513.539342 287.920606 
L 514.817554 346.202944 
L 516.480024 278.480237 
L 517.761706 346.68055 
L 519.039758 275.618972 
L 520.318876 311.076282 
L 521.598962 311.236411 
L 523.133329 287.487254 
L 524.410579 310.767061 
L 526.073868 305.709774 
L 527.354811 311.37766 
L 528.633663 311.032476 
L 530.293966 305.319854 
L 531.573278 346.354616 
L 532.855103 276.345927 
L 534.518037 305.663542 
L 535.797117 311.070064 
L 537.203337 330.193817 
L 538.484939 311.486185 
L 539.891414 266.109703 
L 541.172484 346.596482 
L 542.451158 311.00298 
L 543.857888 298.209677 
L 545.007239 326.427609 
L 546.546369 317.511255 
L 547.695753 287.202757 
L 548.976115 311.281871 
L 550.509754 287.375671 
L 551.788911 311.082886 
L 553.197633 330.535491 
L 554.614044 267.90858 
L 555.888908 310.370693 
L 557.107394 337.557338 
L 558.771568 305.825156 
L 560.048553 275.412651 
L 561.459145 330.790007 
L 562.992285 287.299167 
L 564.656831 332.962677 
L 565.936975 276.022535 
L 567.342049 330.036853 
L 568.878687 317.178632 
L 570.156473 310.855928 
L 571.436034 275.910135 
L 572.714529 310.973318 
L 573.930997 300.183378 
L 575.21056 311.149932 
L 576.875901 305.977001 
L 578.28052 329.974589 
L 579.813052 287.205799 
L 581.09404 346.585206 
L 584.037211 276.150508 
L 585.441995 329.997059 
L 586.852106 298.747831 
L 588.445216 296.156055 
L 589.852272 298.261892 
L 591.132151 311.202047 
L 592.667248 316.972435 
L 594.075863 330.520929 
L 595.354352 275.703329 
L 598.4205 329.985766 
L 599.701177 311.333907 
L 600.986309 312.066155 
L 602.39213 298.064713 
L 603.674261 311.573407 
L 605.082614 298.468356 
L 606.360883 310.935812 
L 607.893853 287.27307 
L 609.303193 330.619794 
L 610.837199 287.431953 
L 612.245062 330.418234 
L 613.522624 310.818848 
L 615.058848 317.123234 
L 616.338865 311.224912 
L 617.488918 287.339692 
L 618.644214 288.407254 
L 620.329688 281.811739 
L 622.007268 307.557434 
L 623.667958 305.370382 
L 625.077155 330.600277 
L 626.226712 326.462782 
L 627.506496 311.186405 
L 628.783432 275.403092 
L 630.449134 333.094278 
L 631.726817 310.838773 
L 633.007533 276.132667 
L 634.414791 330.335685 
L 637.236222 288.591104 
L 638.516169 311.213335 
L 639.922315 330.183564 
L 641.200362 310.899147 
L 642.477756 310.790974 
L 644.015991 317.39192 
L 645.294015 310.895266 
L 646.453438 289.240848 
L 647.858814 297.993611 
L 649.268813 330.709386 
L 650.675305 266.112757 
L 651.953721 346.231034 
L 653.234589 311.36537 
L 654.776319 259.3631 
L 656.055268 346.304764 
L 657.716833 278.347185 
L 659.000614 346.968147 
L 660.666729 306.077626 
L 662.070554 297.745584 
L 663.603379 316.667603 
L 664.883799 311.29148 
L 666.545808 278.412491 
L 667.95009 329.928222 
L 669.109528 328.134181 
L 670.389645 311.241408 
L 671.79577 298.113267 
L 673.079478 311.832633 
L 674.616386 287.876031 
L 675.894837 346.235908 
L 677.107885 299.556303 
L 678.518641 298.850077 
L 679.933018 331.303437 
L 681.338442 298.001207 
L 683.000221 305.512801 
L 684.282074 276.351302 
L 685.81686 316.930836 
L 687.223256 298.156409 
L 688.501611 310.95017 
L 690.039849 288.078936 
L 691.445801 330.157132 
L 692.9781 316.596925 
L 694.642598 278.777588 
L 695.921337 346.275702 
L 697.330521 298.600495 
L 698.862724 287.155262 
L 700.146155 311.787157 
L 701.42422 310.902186 
L 702.70231 310.906259 
L 703.979725 310.794381 
L 705.6461 333.17074 
L 707.307066 278.259128 
L 708.586519 346.374098 
L 709.993883 298.310934 
L 711.278019 311.902741 
L 712.819243 317.789846 
L 714.097197 310.883817 
L 716.653618 287.495515 
L 718.06324 330.658066 
L 719.475298 267.123667 
L 720.75701 311.504515 
L 722.036222 311.091777 
L 723.189248 287.946347 
L 724.594645 330.081098 
L 727.413699 288.283988 
L 729.080768 306.201567 
L 730.355335 310.321185 
L 731.762525 330.326392 
L 733.040761 310.930377 
L 734.319001 310.931081 
L 735.645892 284.709111 
L 738.335076 311.001486 
L 739.739915 330.004706 
L 741.276163 287.775114 
L 742.679976 329.863947 
L 744.21807 317.373046 
L 745.497575 275.899441 
L 746.902628 330.033927 
L 748.440475 288.019402 
L 749.847508 330.304959 
L 751.133115 312.143869 
L 752.669428 287.785056 
L 753.952676 311.757125 
L 755.230655 346.170895 
L 756.509469 275.766033 
L 758.04421 287.54455 
L 759.707603 305.723417 
L 761.11347 330.145538 
L 762.267038 327.144666 
L 763.930353 278.604252 
L 765.339279 330.563267 
L 766.486956 286.852544 
L 767.7679 311.377917 
L 769.171655 329.855944 
L 770.582081 266.828043 
L 771.987629 330.101781 
L 774.803866 288.048463 
L 776.082458 310.98941 
L 777.361166 311.008517 
L 778.766988 330.13931 
L 780.049728 311.673545 
L 781.205449 288.493509 
L 782.489149 311.831248 
L 783.768011 311.033993 
L 785.304553 287.820152 
L 786.968325 305.772782 
L 788.245969 310.832264 
L 789.652401 330.22286 
L 791.187318 287.571482 
L 792.469033 346.685039 
L 793.747824 311.022328 
L 795.40731 305.212814 
L 796.5631 249.494276 
L 797.841257 310.917454 
L 799.502608 332.59795 
L 801.161657 277.976797 
L 802.441776 311.241682 
L 803.720536 311.017148 
L 805.004712 311.909438 
L 806.666321 332.627545 
L 807.945221 311.040346 
L 809.604692 278.039044 
L 811.268088 332.831566 
L 812.674787 298.204755 
L 813.835061 289.411979 
L 815.113452 346.227781 
L 816.394634 276.222264 
L 817.670872 310.599122 
L 819.338358 306.255711 
L 820.870841 287.198212 
L 822.148602 310.851723 
L 823.423639 345.763866 
L 825.090462 306.169603 
L 826.3697 311.09618 
L 827.772604 297.597875 
L 829.050588 310.888752 
L 830.586948 317.141476 
L 831.868651 276.32248 
L 833.143946 345.799539 
L 834.428466 276.862622 
L 835.703826 310.452976 
L 836.988796 312.039759 
L 838.523061 287.471669 
L 839.799115 310.568477 
L 841.081409 311.600144 
L 842.740478 305.158198 
L 844.149379 330.559856 
L 845.299433 287.339931 
L 846.582114 311.663949 
L 847.858476 310.619536 
L 849.137946 311.134643 
L 850.419495 311.477572 
L 851.699743 311.262977 
L 852.976738 310.7248 
L 854.253148 310.62763 
L 855.788645 287.660356 
L 857.066979 346.219859 
L 858.349215 311.590619 
L 860.016013 279.113946 
L 861.419711 329.848109 
L 862.957008 317.266791 
L 864.618955 278.403336 
L 867.686496 329.812707 
L 868.836373 287.303478 
L 870.115005 310.996003 
L 871.402406 312.437136 
L 872.680861 310.966807 
L 873.959554 311.006002 
L 875.235932 239.967747 
L 876.642277 362.273447 
L 877.920892 275.727542 
L 879.327129 330.196177 
L 880.734515 330.353132 
L 882.273836 317.536725 
L 883.550477 310.665999 
L 884.827616 310.748469 
L 886.364479 287.869152 
L 887.648323 311.854916 
L 889.310279 278.404787 
L 890.590248 346.445038 
L 891.742037 248.545802 
L 893.405344 305.712195 
L 893.405344 305.712195 
" clip-path="url(#p647c102a79)" style="fill: none; stroke: #ff7f0e; stroke-width: 1.5; stroke-linecap: square"/>
   </g>
   <g id="line2d_17">
    <path d="M 109.850971 199.525185 
L 931.666194 199.525185 
" clip-path="url(#p647c102a79)" style="fill: none; stroke-dasharray: 5.55,2.4; stroke-dashoffset: 0; stroke: #0000ff; stroke-width: 1.5"/>
   </g>
   <g id="line2d_18">
    <path d="M 109.850971 307.771509 
L 931.666194 307.771509 
" clip-path="url(#p647c102a79)" style="fill: none; stroke-dasharray: 5.55,2.4; stroke-dashoffset: 0; stroke: #ffa500; stroke-width: 1.5"/>
   </g>
   <g id="patch_3">
    <path d="M 109.850971 522.58588 
L 109.850971 49.80432 
" style="fill: none; stroke: #000000; stroke-width: 0.8; stroke-linejoin: miter; stroke-linecap: square"/>
   </g>
   <g id="patch_4">
    <path d="M 931.666194 522.58588 
L 931.666194 49.80432 
" style="fill: none; stroke: #000000; stroke-width: 0.8; stroke-linejoin: miter; stroke-linecap: square"/>
   </g>
   <g id="patch_5">
    <path d="M 109.850971 522.58588 
L 931.666194 522.58588 
" style="fill: none; stroke: #000000; stroke-width: 0.8; stroke-linejoin: miter; stroke-linecap: square"/>
   </g>
   <g id="patch_6">
    <path d="M 109.850971 49.80432 
L 931.666194 49.80432 
" style="fill: none; stroke: #000000; stroke-width: 0.8; stroke-linejoin: miter; stroke-linecap: square"/>
   </g>
   <g id="text_17">
    <!-- Parsed and Filtered Packets (SelectionProcess: 16777218) -->
    <g transform="translate(277.76102 43.80432) scale(0.168 -0.168)">
     <defs>
      <path id="DejaVuSans-46" d="M 628 4666 
L 3309 4666 
L 3309 4134 
L 1259 4134 
L 1259 2759 
L 3109 2759 
L 3109 2228 
L 1259 2228 
L 1259 0 
L 628 0 
L 628 4666 
z
" transform="scale(0.015625)"/>
      <path id="DejaVuSans-6c" d="M 603 4863 
L 1178 4863 
L 1178 0 
L 603 0 
L 603 4863 
z
" transform="scale(0.015625)"/>
      <path id="DejaVuSans-3a" d="M 750 794 
L 1409 794 
L 1409 0 
L 750 0 
L 750 794 
z
M 750 3309 
L 1409 3309 
L 1409 2516 
L 750 2516 
L 750 3309 
z
" transform="scale(0.015625)"/>
      <path id="DejaVuSans-37" d="M 525 4666 
L 3525 4666 
L 3525 4397 
L 1831 0 
L 1172 0 
L 2766 4134 
L 525 4134 
L 525 4666 
z
" transform="scale(0.015625)"/>
     </defs>
     <use xlink:href="#DejaVuSans-50"/>
     <use xlink:href="#DejaVuSans-61" x="55.802734"/>
     <use xlink:href="#DejaVuSans-72" x="117.082031"/>
     <use xlink:href="#DejaVuSans-73" x="158.195312"/>
     <use xlink:href="#DejaVuSans-65" x="210.294922"/>
     <use xlink:href="#DejaVuSans-64" x="271.818359"/>
     <use xlink:href="#DejaVuSans-20" x="335.294922"/>
     <use xlink:href="#DejaVuSans-61" x="367.082031"/>
     <use xlink:href="#DejaVuSans-6e" x="428.361328"/>
     <use xlink:href="#DejaVuSans-64" x="491.740234"/>
     <use xlink:href="#DejaVuSans-20" x="555.216797"/>
     <use xlink:href="#DejaVuSans-46" x="587.003906"/>
     <use xlink:href="#DejaVuSans-69" x="637.273438"/>
     <use xlink:href="#DejaVuSans-6c" x="665.056641"/>
     <use xlink:href="#DejaVuSans-74" x="692.839844"/>
     <use xlink:href="#DejaVuSans-65" x="732.048828"/>
     <use xlink:href="#DejaVuSans-72" x="793.572266"/>
     <use xlink:href="#DejaVuSans-65" x="832.435547"/>
     <use xlink:href="#DejaVuSans-64" x="893.958984"/>
     <use xlink:href="#DejaVuSans-20" x="957.435547"/>
     <use xlink:href="#DejaVuSans-50" x="989.222656"/>
     <use xlink:href="#DejaVuSans-61" x="1045.025391"/>
     <use xlink:href="#DejaVuSans-63" x="1106.304688"/>
     <use xlink:href="#DejaVuSans-6b" x="1161.285156"/>
     <use xlink:href="#DejaVuSans-65" x="1215.570312"/>
     <use xlink:href="#DejaVuSans-74" x="1277.09375"/>
     <use xlink:href="#DejaVuSans-73" x="1316.302734"/>
     <use xlink:href="#DejaVuSans-20" x="1368.402344"/>
     <use xlink:href="#DejaVuSans-28" x="1400.189453"/>
     <use xlink:href="#DejaVuSans-53" x="1439.203125"/>
     <use xlink:href="#DejaVuSans-65" x="1502.679688"/>
     <use xlink:href="#DejaVuSans-6c" x="1564.203125"/>
     <use xlink:href="#DejaVuSans-65" x="1591.986328"/>
     <use xlink:href="#DejaVuSans-63" x="1653.509766"/>
     <use xlink:href="#DejaVuSans-74" x="1708.490234"/>
     <use xlink:href="#DejaVuSans-69" x="1747.699219"/>
     <use xlink:href="#DejaVuSans-6f" x="1775.482422"/>
     <use xlink:href="#DejaVuSans-6e" x="1836.664062"/>
     <use xlink:href="#DejaVuSans-50" x="1900.042969"/>
     <use xlink:href="#DejaVuSans-72" x="1958.595703"/>
     <use xlink:href="#DejaVuSans-6f" x="1997.458984"/>
     <use xlink:href="#DejaVuSans-63" x="2058.640625"/>
     <use xlink:href="#DejaVuSans-65" x="2113.621094"/>
     <use xlink:href="#DejaVuSans-73" x="2175.144531"/>
     <use xlink:href="#DejaVuSans-73" x="2227.244141"/>
     <use xlink:href="#DejaVuSans-3a" x="2279.34375"/>
     <use xlink:href="#DejaVuSans-20" x="2313.035156"/>
     <use xlink:href="#DejaVuSans-31" x="2344.822266"/>
     <use xlink:href="#DejaVuSans-36" x="2408.445312"/>
     <use xlink:href="#DejaVuSans-37" x="2472.068359"/>
     <use xlink:href="#DejaVuSans-37" x="2535.691406"/>
     <use xlink:href="#DejaVuSans-37" x="2599.314453"/>
     <use xlink:href="#DejaVuSans-32" x="2662.9375"/>
     <use xlink:href="#DejaVuSans-31" x="2726.560547"/>
     <use xlink:href="#DejaVuSans-38" x="2790.183594"/>
     <use xlink:href="#DejaVuSans-29" x="2853.806641"/>
    </g>
   </g>
   <g id="legend_1">
    <g id="patch_7">
     <path d="M 941.466194 329.39385 
L 1157.602132 329.39385 
Q 1160.402132 329.39385 1160.402132 326.59385 
L 1160.402132 245.79635 
Q 1160.402132 242.99635 1157.602132 242.99635 
L 941.466194 242.99635 
Q 938.666194 242.99635 938.666194 245.79635 
L 938.666194 326.59385 
Q 938.666194 329.39385 941.466194 329.39385 
z
" style="fill: #ffffff; opacity: 0.8; stroke: #cccccc; stroke-linejoin: miter"/>
    </g>
    <g id="line2d_19">
     <path d="M 944.266194 254.334162 
L 958.266194 254.334162 
L 972.266194 254.334162 
" style="fill: none; stroke: #1f77b4; stroke-width: 1.5; stroke-linecap: square"/>
    </g>
    <g id="text_18">
     <!-- Parsed Packets -->
     <g transform="translate(983.466194 259.234162) scale(0.14 -0.14)">
      <use xlink:href="#DejaVuSans-50"/>
      <use xlink:href="#DejaVuSans-61" x="55.802734"/>
      <use xlink:href="#DejaVuSans-72" x="117.082031"/>
      <use xlink:href="#DejaVuSans-73" x="158.195312"/>
      <use xlink:href="#DejaVuSans-65" x="210.294922"/>
      <use xlink:href="#DejaVuSans-64" x="271.818359"/>
      <use xlink:href="#DejaVuSans-20" x="335.294922"/>
      <use xlink:href="#DejaVuSans-50" x="367.082031"/>
      <use xlink:href="#DejaVuSans-61" x="422.884766"/>
      <use xlink:href="#DejaVuSans-63" x="484.164062"/>
      <use xlink:href="#DejaVuSans-6b" x="539.144531"/>
      <use xlink:href="#DejaVuSans-65" x="593.429688"/>
      <use xlink:href="#DejaVuSans-74" x="654.953125"/>
      <use xlink:href="#DejaVuSans-73" x="694.162109"/>
     </g>
    </g>
    <g id="line2d_20">
     <path d="M 944.266194 274.883537 
L 958.266194 274.883537 
L 972.266194 274.883537 
" style="fill: none; stroke: #ff7f0e; stroke-width: 1.5; stroke-linecap: square"/>
    </g>
    <g id="text_19">
     <!-- Filtered Packets -->
     <g transform="translate(983.466194 279.783537) scale(0.14 -0.14)">
      <use xlink:href="#DejaVuSans-46"/>
      <use xlink:href="#DejaVuSans-69" x="50.269531"/>
      <use xlink:href="#DejaVuSans-6c" x="78.052734"/>
      <use xlink:href="#DejaVuSans-74" x="105.835938"/>
      <use xlink:href="#DejaVuSans-65" x="145.044922"/>
      <use xlink:href="#DejaVuSans-72" x="206.568359"/>
      <use xlink:href="#DejaVuSans-65" x="245.431641"/>
      <use xlink:href="#DejaVuSans-64" x="306.955078"/>
      <use xlink:href="#DejaVuSans-20" x="370.431641"/>
      <use xlink:href="#DejaVuSans-50" x="402.21875"/>
      <use xlink:href="#DejaVuSans-61" x="458.021484"/>
      <use xlink:href="#DejaVuSans-63" x="519.300781"/>
      <use xlink:href="#DejaVuSans-6b" x="574.28125"/>
      <use xlink:href="#DejaVuSans-65" x="628.566406"/>
      <use xlink:href="#DejaVuSans-74" x="690.089844"/>
      <use xlink:href="#DejaVuSans-73" x="729.298828"/>
     </g>
    </g>
    <g id="line2d_21">
     <path d="M 944.266194 295.432912 
L 958.266194 295.432912 
L 972.266194 295.432912 
" style="fill: none; stroke-dasharray: 5.55,2.4; stroke-dashoffset: 0; stroke: #0000ff; stroke-width: 1.5"/>
    </g>
    <g id="text_20">
     <!-- Parsed Packets Average -->
     <g transform="translate(983.466194 300.332912) scale(0.14 -0.14)">
      <defs>
       <path id="DejaVuSans-41" d="M 2188 4044 
L 1331 1722 
L 3047 1722 
L 2188 4044 
z
M 1831 4666 
L 2547 4666 
L 4325 0 
L 3669 0 
L 3244 1197 
L 1141 1197 
L 716 0 
L 50 0 
L 1831 4666 
z
" transform="scale(0.015625)"/>
       <path id="DejaVuSans-76" d="M 191 3500 
L 800 3500 
L 1894 563 
L 2988 3500 
L 3597 3500 
L 2284 0 
L 1503 0 
L 191 3500 
z
" transform="scale(0.015625)"/>
       <path id="DejaVuSans-67" d="M 2906 1791 
Q 2906 2416 2648 2759 
Q 2391 3103 1925 3103 
Q 1463 3103 1205 2759 
Q 947 2416 947 1791 
Q 947 1169 1205 825 
Q 1463 481 1925 481 
Q 2391 481 2648 825 
Q 2906 1169 2906 1791 
z
M 3481 434 
Q 3481 -459 3084 -895 
Q 2688 -1331 1869 -1331 
Q 1566 -1331 1297 -1286 
Q 1028 -1241 775 -1147 
L 775 -588 
Q 1028 -725 1275 -790 
Q 1522 -856 1778 -856 
Q 2344 -856 2625 -561 
Q 2906 -266 2906 331 
L 2906 616 
Q 2728 306 2450 153 
Q 2172 0 1784 0 
Q 1141 0 747 490 
Q 353 981 353 1791 
Q 353 2603 747 3093 
Q 1141 3584 1784 3584 
Q 2172 3584 2450 3431 
Q 2728 3278 2906 2969 
L 2906 3500 
L 3481 3500 
L 3481 434 
z
" transform="scale(0.015625)"/>
      </defs>
      <use xlink:href="#DejaVuSans-50"/>
      <use xlink:href="#DejaVuSans-61" x="55.802734"/>
      <use xlink:href="#DejaVuSans-72" x="117.082031"/>
      <use xlink:href="#DejaVuSans-73" x="158.195312"/>
      <use xlink:href="#DejaVuSans-65" x="210.294922"/>
      <use xlink:href="#DejaVuSans-64" x="271.818359"/>
      <use xlink:href="#DejaVuSans-20" x="335.294922"/>
      <use xlink:href="#DejaVuSans-50" x="367.082031"/>
      <use xlink:href="#DejaVuSans-61" x="422.884766"/>
      <use xlink:href="#DejaVuSans-63" x="484.164062"/>
      <use xlink:href="#DejaVuSans-6b" x="539.144531"/>
      <use xlink:href="#DejaVuSans-65" x="593.429688"/>
      <use xlink:href="#DejaVuSans-74" x="654.953125"/>
      <use xlink:href="#DejaVuSans-73" x="694.162109"/>
      <use xlink:href="#DejaVuSans-20" x="746.261719"/>
      <use xlink:href="#DejaVuSans-41" x="778.048828"/>
      <use xlink:href="#DejaVuSans-76" x="840.582031"/>
      <use xlink:href="#DejaVuSans-65" x="899.761719"/>
      <use xlink:href="#DejaVuSans-72" x="961.285156"/>
      <use xlink:href="#DejaVuSans-61" x="1002.398438"/>
      <use xlink:href="#DejaVuSans-67" x="1063.677734"/>
      <use xlink:href="#DejaVuSans-65" x="1127.154297"/>
     </g>
    </g>
    <g id="line2d_22">
     <path d="M 944.266194 315.982287 
L 958.266194 315.982287 
L 972.266194 315.982287 
" style="fill: none; stroke-dasharray: 5.55,2.4; stroke-dashoffset: 0; stroke: #ffa500; stroke-width: 1.5"/>
    </g>
    <g id="text_21">
     <!-- Filtered Packets Average -->
     <g transform="translate(983.466194 320.882287) scale(0.14 -0.14)">
      <use xlink:href="#DejaVuSans-46"/>
      <use xlink:href="#DejaVuSans-69" x="50.269531"/>
      <use xlink:href="#DejaVuSans-6c" x="78.052734"/>
      <use xlink:href="#DejaVuSans-74" x="105.835938"/>
      <use xlink:href="#DejaVuSans-65" x="145.044922"/>
      <use xlink:href="#DejaVuSans-72" x="206.568359"/>
      <use xlink:href="#DejaVuSans-65" x="245.431641"/>
      <use xlink:href="#DejaVuSans-64" x="306.955078"/>
      <use xlink:href="#DejaVuSans-20" x="370.431641"/>
      <use xlink:href="#DejaVuSans-50" x="402.21875"/>
      <use xlink:href="#DejaVuSans-61" x="458.021484"/>
      <use xlink:href="#DejaVuSans-63" x="519.300781"/>
      <use xlink:href="#DejaVuSans-6b" x="574.28125"/>
      <use xlink:href="#DejaVuSans-65" x="628.566406"/>
      <use xlink:href="#DejaVuSans-74" x="690.089844"/>
      <use xlink:href="#DejaVuSans-73" x="729.298828"/>
      <use xlink:href="#DejaVuSans-20" x="781.398438"/>
      <use xlink:href="#DejaVuSans-41" x="813.185547"/>
      <use xlink:href="#DejaVuSans-76" x="875.71875"/>
      <use xlink:href="#DejaVuSans-65" x="934.898438"/>
      <use xlink:href="#DejaVuSans-72" x="996.421875"/>
      <use xlink:href="#DejaVuSans-61" x="1037.535156"/>
      <use xlink:href="#DejaVuSans-67" x="1098.814453"/>
      <use xlink:href="#DejaVuSans-65" x="1162.291016"/>
     </g>
    </g>
   </g>
  </g>
 </g>
 <defs>
  <clipPath id="p647c102a79">
   <rect x="109.850971" y="49.80432" width="821.815223" height="472.78156"/>
  </clipPath>
 </defs>
</svg>
