<?xml version="1.0" encoding="utf-8" standalone="no"?>
<!DOCTYPE svg PUBLIC "-//W3C//DTD SVG 1.1//EN"
  "http://www.w3.org/Graphics/SVG/1.1/DTD/svg11.dtd">
<svg xmlns:xlink="http://www.w3.org/1999/xlink" width="1008pt" height="720pt" viewBox="0 0 1008 720" xmlns="http://www.w3.org/2000/svg" version="1.1">
 <metadata>
  <rdf:RDF xmlns:dc="http://purl.org/dc/elements/1.1/" xmlns:cc="http://creativecommons.org/ns#" xmlns:rdf="http://www.w3.org/1999/02/22-rdf-syntax-ns#">
   <cc:Work>
    <dc:type rdf:resource="http://purl.org/dc/dcmitype/StillImage"/>
    <dc:date>2023-04-13T17:46:50.587121</dc:date>
    <dc:format>image/svg+xml</dc:format>
    <dc:creator>
     <cc:Agent>
      <dc:title>Matplotlib v3.6.2, https://matplotlib.org/</dc:title>
     </cc:Agent>
    </dc:creator>
   </cc:Work>
  </rdf:RDF>
 </metadata>
 <defs>
  <style type="text/css">*{stroke-linejoin: round; stroke-linecap: butt}</style>
 </defs>
 <g id="figure_1">
  <g id="patch_1">
   <path d="M 0 720 
L 1008 720 
L 1008 0 
L 0 0 
z
" style="fill: #ffffff"/>
  </g>
  <g id="axes_1">
   <g id="patch_2">
    <path d="M 106.82 639.64 
L 794.164 639.64 
L 794.164 60.96 
L 106.82 60.96 
z
" style="fill: #ffffff"/>
   </g>
   <g id="matplotlib.axis_1">
    <g id="xtick_1">
     <g id="line2d_1">
      <defs>
       <path id="m0295532a0e" d="M 0 0 
L 0 3.5 
" style="stroke: #000000; stroke-width: 0.8"/>
      </defs>
      <g>
       <use xlink:href="#m0295532a0e" x="106.82" y="639.64" style="stroke: #000000; stroke-width: 0.8"/>
      </g>
     </g>
     <g id="text_1">
      <!-- 0 -->
      <g transform="translate(102.36625 657.277812) scale(0.14 -0.14)">
       <defs>
        <path id="DejaVuSans-30" d="M 2034 4250 
Q 1547 4250 1301 3770 
Q 1056 3291 1056 2328 
Q 1056 1369 1301 889 
Q 1547 409 2034 409 
Q 2525 409 2770 889 
Q 3016 1369 3016 2328 
Q 3016 3291 2770 3770 
Q 2525 4250 2034 4250 
z
M 2034 4750 
Q 2819 4750 3233 4129 
Q 3647 3509 3647 2328 
Q 3647 1150 3233 529 
Q 2819 -91 2034 -91 
Q 1250 -91 836 529 
Q 422 1150 422 2328 
Q 422 3509 836 4129 
Q 1250 4750 2034 4750 
z
" transform="scale(0.015625)"/>
       </defs>
       <use xlink:href="#DejaVuSans-30"/>
      </g>
     </g>
    </g>
    <g id="xtick_2">
     <g id="line2d_2">
      <g>
       <use xlink:href="#m0295532a0e" x="214.176385" y="639.64" style="stroke: #000000; stroke-width: 0.8"/>
      </g>
     </g>
     <g id="text_2">
      <!-- 10 -->
      <g transform="translate(205.268885 657.277812) scale(0.14 -0.14)">
       <defs>
        <path id="DejaVuSans-31" d="M 794 531 
L 1825 531 
L 1825 4091 
L 703 3866 
L 703 4441 
L 1819 4666 
L 2450 4666 
L 2450 531 
L 3481 531 
L 3481 0 
L 794 0 
L 794 531 
z
" transform="scale(0.015625)"/>
       </defs>
       <use xlink:href="#DejaVuSans-31"/>
       <use xlink:href="#DejaVuSans-30" x="63.623047"/>
      </g>
     </g>
    </g>
    <g id="xtick_3">
     <g id="line2d_3">
      <g>
       <use xlink:href="#m0295532a0e" x="321.532771" y="639.64" style="stroke: #000000; stroke-width: 0.8"/>
      </g>
     </g>
     <g id="text_3">
      <!-- 20 -->
      <g transform="translate(312.625271 657.277812) scale(0.14 -0.14)">
       <defs>
        <path id="DejaVuSans-32" d="M 1228 531 
L 3431 531 
L 3431 0 
L 469 0 
L 469 531 
Q 828 903 1448 1529 
Q 2069 2156 2228 2338 
Q 2531 2678 2651 2914 
Q 2772 3150 2772 3378 
Q 2772 3750 2511 3984 
Q 2250 4219 1831 4219 
Q 1534 4219 1204 4116 
Q 875 4013 500 3803 
L 500 4441 
Q 881 4594 1212 4672 
Q 1544 4750 1819 4750 
Q 2544 4750 2975 4387 
Q 3406 4025 3406 3419 
Q 3406 3131 3298 2873 
Q 3191 2616 2906 2266 
Q 2828 2175 2409 1742 
Q 1991 1309 1228 531 
z
" transform="scale(0.015625)"/>
       </defs>
       <use xlink:href="#DejaVuSans-32"/>
       <use xlink:href="#DejaVuSans-30" x="63.623047"/>
      </g>
     </g>
    </g>
    <g id="xtick_4">
     <g id="line2d_4">
      <g>
       <use xlink:href="#m0295532a0e" x="428.889156" y="639.64" style="stroke: #000000; stroke-width: 0.8"/>
      </g>
     </g>
     <g id="text_4">
      <!-- 30 -->
      <g transform="translate(419.981656 657.277812) scale(0.14 -0.14)">
       <defs>
        <path id="DejaVuSans-33" d="M 2597 2516 
Q 3050 2419 3304 2112 
Q 3559 1806 3559 1356 
Q 3559 666 3084 287 
Q 2609 -91 1734 -91 
Q 1441 -91 1130 -33 
Q 819 25 488 141 
L 488 750 
Q 750 597 1062 519 
Q 1375 441 1716 441 
Q 2309 441 2620 675 
Q 2931 909 2931 1356 
Q 2931 1769 2642 2001 
Q 2353 2234 1838 2234 
L 1294 2234 
L 1294 2753 
L 1863 2753 
Q 2328 2753 2575 2939 
Q 2822 3125 2822 3475 
Q 2822 3834 2567 4026 
Q 2313 4219 1838 4219 
Q 1578 4219 1281 4162 
Q 984 4106 628 3988 
L 628 4550 
Q 988 4650 1302 4700 
Q 1616 4750 1894 4750 
Q 2613 4750 3031 4423 
Q 3450 4097 3450 3541 
Q 3450 3153 3228 2886 
Q 3006 2619 2597 2516 
z
" transform="scale(0.015625)"/>
       </defs>
       <use xlink:href="#DejaVuSans-33"/>
       <use xlink:href="#DejaVuSans-30" x="63.623047"/>
      </g>
     </g>
    </g>
    <g id="xtick_5">
     <g id="line2d_5">
      <g>
       <use xlink:href="#m0295532a0e" x="536.245541" y="639.64" style="stroke: #000000; stroke-width: 0.8"/>
      </g>
     </g>
     <g id="text_5">
      <!-- 40 -->
      <g transform="translate(527.338041 657.277812) scale(0.14 -0.14)">
       <defs>
        <path id="DejaVuSans-34" d="M 2419 4116 
L 825 1625 
L 2419 1625 
L 2419 4116 
z
M 2253 4666 
L 3047 4666 
L 3047 1625 
L 3713 1625 
L 3713 1100 
L 3047 1100 
L 3047 0 
L 2419 0 
L 2419 1100 
L 313 1100 
L 313 1709 
L 2253 4666 
z
" transform="scale(0.015625)"/>
       </defs>
       <use xlink:href="#DejaVuSans-34"/>
       <use xlink:href="#DejaVuSans-30" x="63.623047"/>
      </g>
     </g>
    </g>
    <g id="xtick_6">
     <g id="line2d_6">
      <g>
       <use xlink:href="#m0295532a0e" x="643.601926" y="639.64" style="stroke: #000000; stroke-width: 0.8"/>
      </g>
     </g>
     <g id="text_6">
      <!-- 50 -->
      <g transform="translate(634.694426 657.277812) scale(0.14 -0.14)">
       <defs>
        <path id="DejaVuSans-35" d="M 691 4666 
L 3169 4666 
L 3169 4134 
L 1269 4134 
L 1269 2991 
Q 1406 3038 1543 3061 
Q 1681 3084 1819 3084 
Q 2600 3084 3056 2656 
Q 3513 2228 3513 1497 
Q 3513 744 3044 326 
Q 2575 -91 1722 -91 
Q 1428 -91 1123 -41 
Q 819 9 494 109 
L 494 744 
Q 775 591 1075 516 
Q 1375 441 1709 441 
Q 2250 441 2565 725 
Q 2881 1009 2881 1497 
Q 2881 1984 2565 2268 
Q 2250 2553 1709 2553 
Q 1456 2553 1204 2497 
Q 953 2441 691 2322 
L 691 4666 
z
" transform="scale(0.015625)"/>
       </defs>
       <use xlink:href="#DejaVuSans-35"/>
       <use xlink:href="#DejaVuSans-30" x="63.623047"/>
      </g>
     </g>
    </g>
    <g id="xtick_7">
     <g id="line2d_7">
      <g>
       <use xlink:href="#m0295532a0e" x="750.958312" y="639.64" style="stroke: #000000; stroke-width: 0.8"/>
      </g>
     </g>
     <g id="text_7">
      <!-- 60 -->
      <g transform="translate(742.050812 657.277812) scale(0.14 -0.14)">
       <defs>
        <path id="DejaVuSans-36" d="M 2113 2584 
Q 1688 2584 1439 2293 
Q 1191 2003 1191 1497 
Q 1191 994 1439 701 
Q 1688 409 2113 409 
Q 2538 409 2786 701 
Q 3034 994 3034 1497 
Q 3034 2003 2786 2293 
Q 2538 2584 2113 2584 
z
M 3366 4563 
L 3366 3988 
Q 3128 4100 2886 4159 
Q 2644 4219 2406 4219 
Q 1781 4219 1451 3797 
Q 1122 3375 1075 2522 
Q 1259 2794 1537 2939 
Q 1816 3084 2150 3084 
Q 2853 3084 3261 2657 
Q 3669 2231 3669 1497 
Q 3669 778 3244 343 
Q 2819 -91 2113 -91 
Q 1303 -91 875 529 
Q 447 1150 447 2328 
Q 447 3434 972 4092 
Q 1497 4750 2381 4750 
Q 2619 4750 2861 4703 
Q 3103 4656 3366 4563 
z
" transform="scale(0.015625)"/>
       </defs>
       <use xlink:href="#DejaVuSans-36"/>
       <use xlink:href="#DejaVuSans-30" x="63.623047"/>
      </g>
     </g>
    </g>
    <g id="text_8">
     <!-- Observed Time(s) -->
     <g transform="translate(388.351688 674.827188) scale(0.14 -0.14)">
      <defs>
       <path id="DejaVuSans-4f" d="M 2522 4238 
Q 1834 4238 1429 3725 
Q 1025 3213 1025 2328 
Q 1025 1447 1429 934 
Q 1834 422 2522 422 
Q 3209 422 3611 934 
Q 4013 1447 4013 2328 
Q 4013 3213 3611 3725 
Q 3209 4238 2522 4238 
z
M 2522 4750 
Q 3503 4750 4090 4092 
Q 4678 3434 4678 2328 
Q 4678 1225 4090 567 
Q 3503 -91 2522 -91 
Q 1538 -91 948 565 
Q 359 1222 359 2328 
Q 359 3434 948 4092 
Q 1538 4750 2522 4750 
z
" transform="scale(0.015625)"/>
       <path id="DejaVuSans-62" d="M 3116 1747 
Q 3116 2381 2855 2742 
Q 2594 3103 2138 3103 
Q 1681 3103 1420 2742 
Q 1159 2381 1159 1747 
Q 1159 1113 1420 752 
Q 1681 391 2138 391 
Q 2594 391 2855 752 
Q 3116 1113 3116 1747 
z
M 1159 2969 
Q 1341 3281 1617 3432 
Q 1894 3584 2278 3584 
Q 2916 3584 3314 3078 
Q 3713 2572 3713 1747 
Q 3713 922 3314 415 
Q 2916 -91 2278 -91 
Q 1894 -91 1617 61 
Q 1341 213 1159 525 
L 1159 0 
L 581 0 
L 581 4863 
L 1159 4863 
L 1159 2969 
z
" transform="scale(0.015625)"/>
       <path id="DejaVuSans-73" d="M 2834 3397 
L 2834 2853 
Q 2591 2978 2328 3040 
Q 2066 3103 1784 3103 
Q 1356 3103 1142 2972 
Q 928 2841 928 2578 
Q 928 2378 1081 2264 
Q 1234 2150 1697 2047 
L 1894 2003 
Q 2506 1872 2764 1633 
Q 3022 1394 3022 966 
Q 3022 478 2636 193 
Q 2250 -91 1575 -91 
Q 1294 -91 989 -36 
Q 684 19 347 128 
L 347 722 
Q 666 556 975 473 
Q 1284 391 1588 391 
Q 1994 391 2212 530 
Q 2431 669 2431 922 
Q 2431 1156 2273 1281 
Q 2116 1406 1581 1522 
L 1381 1569 
Q 847 1681 609 1914 
Q 372 2147 372 2553 
Q 372 3047 722 3315 
Q 1072 3584 1716 3584 
Q 2034 3584 2315 3537 
Q 2597 3491 2834 3397 
z
" transform="scale(0.015625)"/>
       <path id="DejaVuSans-65" d="M 3597 1894 
L 3597 1613 
L 953 1613 
Q 991 1019 1311 708 
Q 1631 397 2203 397 
Q 2534 397 2845 478 
Q 3156 559 3463 722 
L 3463 178 
Q 3153 47 2828 -22 
Q 2503 -91 2169 -91 
Q 1331 -91 842 396 
Q 353 884 353 1716 
Q 353 2575 817 3079 
Q 1281 3584 2069 3584 
Q 2775 3584 3186 3129 
Q 3597 2675 3597 1894 
z
M 3022 2063 
Q 3016 2534 2758 2815 
Q 2500 3097 2075 3097 
Q 1594 3097 1305 2825 
Q 1016 2553 972 2059 
L 3022 2063 
z
" transform="scale(0.015625)"/>
       <path id="DejaVuSans-72" d="M 2631 2963 
Q 2534 3019 2420 3045 
Q 2306 3072 2169 3072 
Q 1681 3072 1420 2755 
Q 1159 2438 1159 1844 
L 1159 0 
L 581 0 
L 581 3500 
L 1159 3500 
L 1159 2956 
Q 1341 3275 1631 3429 
Q 1922 3584 2338 3584 
Q 2397 3584 2469 3576 
Q 2541 3569 2628 3553 
L 2631 2963 
z
" transform="scale(0.015625)"/>
       <path id="DejaVuSans-76" d="M 191 3500 
L 800 3500 
L 1894 563 
L 2988 3500 
L 3597 3500 
L 2284 0 
L 1503 0 
L 191 3500 
z
" transform="scale(0.015625)"/>
       <path id="DejaVuSans-64" d="M 2906 2969 
L 2906 4863 
L 3481 4863 
L 3481 0 
L 2906 0 
L 2906 525 
Q 2725 213 2448 61 
Q 2172 -91 1784 -91 
Q 1150 -91 751 415 
Q 353 922 353 1747 
Q 353 2572 751 3078 
Q 1150 3584 1784 3584 
Q 2172 3584 2448 3432 
Q 2725 3281 2906 2969 
z
M 947 1747 
Q 947 1113 1208 752 
Q 1469 391 1925 391 
Q 2381 391 2643 752 
Q 2906 1113 2906 1747 
Q 2906 2381 2643 2742 
Q 2381 3103 1925 3103 
Q 1469 3103 1208 2742 
Q 947 2381 947 1747 
z
" transform="scale(0.015625)"/>
       <path id="DejaVuSans-20" transform="scale(0.015625)"/>
       <path id="DejaVuSans-54" d="M -19 4666 
L 3928 4666 
L 3928 4134 
L 2272 4134 
L 2272 0 
L 1638 0 
L 1638 4134 
L -19 4134 
L -19 4666 
z
" transform="scale(0.015625)"/>
       <path id="DejaVuSans-69" d="M 603 3500 
L 1178 3500 
L 1178 0 
L 603 0 
L 603 3500 
z
M 603 4863 
L 1178 4863 
L 1178 4134 
L 603 4134 
L 603 4863 
z
" transform="scale(0.015625)"/>
       <path id="DejaVuSans-6d" d="M 3328 2828 
Q 3544 3216 3844 3400 
Q 4144 3584 4550 3584 
Q 5097 3584 5394 3201 
Q 5691 2819 5691 2113 
L 5691 0 
L 5113 0 
L 5113 2094 
Q 5113 2597 4934 2840 
Q 4756 3084 4391 3084 
Q 3944 3084 3684 2787 
Q 3425 2491 3425 1978 
L 3425 0 
L 2847 0 
L 2847 2094 
Q 2847 2600 2669 2842 
Q 2491 3084 2119 3084 
Q 1678 3084 1418 2786 
Q 1159 2488 1159 1978 
L 1159 0 
L 581 0 
L 581 3500 
L 1159 3500 
L 1159 2956 
Q 1356 3278 1631 3431 
Q 1906 3584 2284 3584 
Q 2666 3584 2933 3390 
Q 3200 3197 3328 2828 
z
" transform="scale(0.015625)"/>
       <path id="DejaVuSans-28" d="M 1984 4856 
Q 1566 4138 1362 3434 
Q 1159 2731 1159 2009 
Q 1159 1288 1364 580 
Q 1569 -128 1984 -844 
L 1484 -844 
Q 1016 -109 783 600 
Q 550 1309 550 2009 
Q 550 2706 781 3412 
Q 1013 4119 1484 4856 
L 1984 4856 
z
" transform="scale(0.015625)"/>
       <path id="DejaVuSans-29" d="M 513 4856 
L 1013 4856 
Q 1481 4119 1714 3412 
Q 1947 2706 1947 2009 
Q 1947 1309 1714 600 
Q 1481 -109 1013 -844 
L 513 -844 
Q 928 -128 1133 580 
Q 1338 1288 1338 2009 
Q 1338 2731 1133 3434 
Q 928 4138 513 4856 
z
" transform="scale(0.015625)"/>
      </defs>
      <use xlink:href="#DejaVuSans-4f"/>
      <use xlink:href="#DejaVuSans-62" x="78.710938"/>
      <use xlink:href="#DejaVuSans-73" x="142.1875"/>
      <use xlink:href="#DejaVuSans-65" x="194.287109"/>
      <use xlink:href="#DejaVuSans-72" x="255.810547"/>
      <use xlink:href="#DejaVuSans-76" x="296.923828"/>
      <use xlink:href="#DejaVuSans-65" x="356.103516"/>
      <use xlink:href="#DejaVuSans-64" x="417.626953"/>
      <use xlink:href="#DejaVuSans-20" x="481.103516"/>
      <use xlink:href="#DejaVuSans-54" x="512.890625"/>
      <use xlink:href="#DejaVuSans-69" x="570.849609"/>
      <use xlink:href="#DejaVuSans-6d" x="598.632812"/>
      <use xlink:href="#DejaVuSans-65" x="696.044922"/>
      <use xlink:href="#DejaVuSans-28" x="757.568359"/>
      <use xlink:href="#DejaVuSans-73" x="796.582031"/>
      <use xlink:href="#DejaVuSans-29" x="848.681641"/>
     </g>
    </g>
   </g>
   <g id="matplotlib.axis_2">
    <g id="ytick_1">
     <g id="line2d_8">
      <defs>
       <path id="mb7bb5c09fd" d="M 0 0 
L -3.5 0 
" style="stroke: #000000; stroke-width: 0.8"/>
      </defs>
      <g>
       <use xlink:href="#mb7bb5c09fd" x="106.82" y="639.64" style="stroke: #000000; stroke-width: 0.8"/>
      </g>
     </g>
     <g id="text_9">
      <!-- 0 -->
      <g transform="translate(90.9125 644.958906) scale(0.14 -0.14)">
       <use xlink:href="#DejaVuSans-30"/>
      </g>
     </g>
    </g>
    <g id="ytick_2">
     <g id="line2d_9">
      <g>
       <use xlink:href="#mb7bb5c09fd" x="106.82" y="552.953516" style="stroke: #000000; stroke-width: 0.8"/>
      </g>
     </g>
     <g id="text_10">
      <!-- 5 -->
      <g transform="translate(90.9125 558.272422) scale(0.14 -0.14)">
       <use xlink:href="#DejaVuSans-35"/>
      </g>
     </g>
    </g>
    <g id="ytick_3">
     <g id="line2d_10">
      <g>
       <use xlink:href="#mb7bb5c09fd" x="106.82" y="466.267031" style="stroke: #000000; stroke-width: 0.8"/>
      </g>
     </g>
     <g id="text_11">
      <!-- 10 -->
      <g transform="translate(82.005 471.585937) scale(0.14 -0.14)">
       <use xlink:href="#DejaVuSans-31"/>
       <use xlink:href="#DejaVuSans-30" x="63.623047"/>
      </g>
     </g>
    </g>
    <g id="ytick_4">
     <g id="line2d_11">
      <g>
       <use xlink:href="#mb7bb5c09fd" x="106.82" y="379.580547" style="stroke: #000000; stroke-width: 0.8"/>
      </g>
     </g>
     <g id="text_12">
      <!-- 15 -->
      <g transform="translate(82.005 384.899453) scale(0.14 -0.14)">
       <use xlink:href="#DejaVuSans-31"/>
       <use xlink:href="#DejaVuSans-35" x="63.623047"/>
      </g>
     </g>
    </g>
    <g id="ytick_5">
     <g id="line2d_12">
      <g>
       <use xlink:href="#mb7bb5c09fd" x="106.82" y="292.894062" style="stroke: #000000; stroke-width: 0.8"/>
      </g>
     </g>
     <g id="text_13">
      <!-- 20 -->
      <g transform="translate(82.005 298.212969) scale(0.14 -0.14)">
       <use xlink:href="#DejaVuSans-32"/>
       <use xlink:href="#DejaVuSans-30" x="63.623047"/>
      </g>
     </g>
    </g>
    <g id="ytick_6">
     <g id="line2d_13">
      <g>
       <use xlink:href="#mb7bb5c09fd" x="106.82" y="206.207578" style="stroke: #000000; stroke-width: 0.8"/>
      </g>
     </g>
     <g id="text_14">
      <!-- 25 -->
      <g transform="translate(82.005 211.526484) scale(0.14 -0.14)">
       <use xlink:href="#DejaVuSans-32"/>
       <use xlink:href="#DejaVuSans-35" x="63.623047"/>
      </g>
     </g>
    </g>
    <g id="ytick_7">
     <g id="line2d_14">
      <g>
       <use xlink:href="#mb7bb5c09fd" x="106.82" y="119.521094" style="stroke: #000000; stroke-width: 0.8"/>
      </g>
     </g>
     <g id="text_15">
      <!-- 30 -->
      <g transform="translate(82.005 124.84) scale(0.14 -0.14)">
       <use xlink:href="#DejaVuSans-33"/>
       <use xlink:href="#DejaVuSans-30" x="63.623047"/>
      </g>
     </g>
    </g>
    <g id="text_16">
     <!-- Interarrival Time (ms) -->
     <g transform="translate(75.093438 426.478594) rotate(-90) scale(0.14 -0.14)">
      <defs>
       <path id="DejaVuSans-49" d="M 628 4666 
L 1259 4666 
L 1259 0 
L 628 0 
L 628 4666 
z
" transform="scale(0.015625)"/>
       <path id="DejaVuSans-6e" d="M 3513 2113 
L 3513 0 
L 2938 0 
L 2938 2094 
Q 2938 2591 2744 2837 
Q 2550 3084 2163 3084 
Q 1697 3084 1428 2787 
Q 1159 2491 1159 1978 
L 1159 0 
L 581 0 
L 581 3500 
L 1159 3500 
L 1159 2956 
Q 1366 3272 1645 3428 
Q 1925 3584 2291 3584 
Q 2894 3584 3203 3211 
Q 3513 2838 3513 2113 
z
" transform="scale(0.015625)"/>
       <path id="DejaVuSans-74" d="M 1172 4494 
L 1172 3500 
L 2356 3500 
L 2356 3053 
L 1172 3053 
L 1172 1153 
Q 1172 725 1289 603 
Q 1406 481 1766 481 
L 2356 481 
L 2356 0 
L 1766 0 
Q 1100 0 847 248 
Q 594 497 594 1153 
L 594 3053 
L 172 3053 
L 172 3500 
L 594 3500 
L 594 4494 
L 1172 4494 
z
" transform="scale(0.015625)"/>
       <path id="DejaVuSans-61" d="M 2194 1759 
Q 1497 1759 1228 1600 
Q 959 1441 959 1056 
Q 959 750 1161 570 
Q 1363 391 1709 391 
Q 2188 391 2477 730 
Q 2766 1069 2766 1631 
L 2766 1759 
L 2194 1759 
z
M 3341 1997 
L 3341 0 
L 2766 0 
L 2766 531 
Q 2569 213 2275 61 
Q 1981 -91 1556 -91 
Q 1019 -91 701 211 
Q 384 513 384 1019 
Q 384 1609 779 1909 
Q 1175 2209 1959 2209 
L 2766 2209 
L 2766 2266 
Q 2766 2663 2505 2880 
Q 2244 3097 1772 3097 
Q 1472 3097 1187 3025 
Q 903 2953 641 2809 
L 641 3341 
Q 956 3463 1253 3523 
Q 1550 3584 1831 3584 
Q 2591 3584 2966 3190 
Q 3341 2797 3341 1997 
z
" transform="scale(0.015625)"/>
       <path id="DejaVuSans-6c" d="M 603 4863 
L 1178 4863 
L 1178 0 
L 603 0 
L 603 4863 
z
" transform="scale(0.015625)"/>
      </defs>
      <use xlink:href="#DejaVuSans-49"/>
      <use xlink:href="#DejaVuSans-6e" x="29.492188"/>
      <use xlink:href="#DejaVuSans-74" x="92.871094"/>
      <use xlink:href="#DejaVuSans-65" x="132.080078"/>
      <use xlink:href="#DejaVuSans-72" x="193.603516"/>
      <use xlink:href="#DejaVuSans-61" x="234.716797"/>
      <use xlink:href="#DejaVuSans-72" x="295.996094"/>
      <use xlink:href="#DejaVuSans-72" x="335.359375"/>
      <use xlink:href="#DejaVuSans-69" x="376.472656"/>
      <use xlink:href="#DejaVuSans-76" x="404.255859"/>
      <use xlink:href="#DejaVuSans-61" x="463.435547"/>
      <use xlink:href="#DejaVuSans-6c" x="524.714844"/>
      <use xlink:href="#DejaVuSans-20" x="552.498047"/>
      <use xlink:href="#DejaVuSans-54" x="584.285156"/>
      <use xlink:href="#DejaVuSans-69" x="642.244141"/>
      <use xlink:href="#DejaVuSans-6d" x="670.027344"/>
      <use xlink:href="#DejaVuSans-65" x="767.439453"/>
      <use xlink:href="#DejaVuSans-20" x="828.962891"/>
      <use xlink:href="#DejaVuSans-28" x="860.75"/>
      <use xlink:href="#DejaVuSans-6d" x="899.763672"/>
      <use xlink:href="#DejaVuSans-73" x="997.175781"/>
      <use xlink:href="#DejaVuSans-29" x="1049.275391"/>
     </g>
    </g>
   </g>
   <g id="line2d_15">
    <path d="M 106.82 62.660481 
L 107.177279 63.064492 
L 107.534307 62.667693 
L 107.891581 62.871372 
L 108.605901 62.878064 
L 108.963045 63.015445 
L 109.320104 62.836437 
L 109.677273 62.466355 
L 110.034672 62.942958 
L 110.391776 62.487923 
L 110.749161 62.780386 
L 111.106365 62.634128 
L 111.46366 62.961855 
L 111.820752 62.449313 
L 112.535427 62.959341 
L 112.89252 62.573899 
L 113.60713 62.690752 
L 113.96439 62.673727 
L 114.321661 62.968391 
L 114.678748 62.711037 
L 115.393247 62.724196 
L 115.750486 62.512923 
L 116.107856 62.703859 
L 116.465108 62.706165 
L 116.822358 62.944397 
L 117.179461 62.641115 
L 117.894003 62.723953 
L 118.251242 62.434923 
L 118.60866 62.743371 
L 118.965887 62.622356 
L 119.323189 62.88916 
L 119.680326 62.879382 
L 120.037469 62.229181 
L 120.395015 62.880751 
L 120.752157 62.290347 
L 121.467042 62.747324 
L 121.824266 62.738031 
L 122.181497 62.573673 
L 123.25346 62.583937 
L 123.610785 62.374745 
L 123.968241 62.524158 
L 124.682956 62.540611 
L 125.040308 62.941727 
L 125.397413 62.568125 
L 126.469406 62.582758 
L 126.826733 62.349034 
L 127.184204 62.469147 
L 127.541601 62.915513 
L 127.898722 62.553978 
L 128.613383 62.561554 
L 128.970723 62.285857 
L 129.328233 62.593039 
L 130.0429 62.609371 
L 130.40021 62.945818 
L 130.757312 62.492829 
L 131.829496 62.505139 
L 132.186871 62.116194 
L 132.544486 62.508017 
L 132.901859 62.621073 
L 133.97389 62.466581 
L 134.331288 62.155914 
L 134.688879 62.474122 
L 135.403675 62.517292 
L 135.761042 62.74819 
L 136.118266 62.42915 
L 136.833097 62.476844 
L 137.19049 62.222073 
L 138.26287 62.715856 
L 138.620114 62.182266 
L 139.335118 62.689088 
L 139.692379 62.245461 
L 140.049914 62.458415 
L 140.764718 62.469095 
L 141.122115 62.68588 
L 141.479378 62.410824 
L 141.836811 62.34789 
L 142.194283 62.084484 
L 142.909444 62.35316 
L 143.266912 62.374069 
L 143.624368 62.604222 
L 143.981682 62.099446 
L 144.696799 62.566409 
L 145.054136 62.137016 
L 145.411739 62.357182 
L 146.48416 62.377484 
L 146.841613 62.583677 
L 147.198939 62.062778 
L 147.556588 62.377051 
L 148.271526 62.329529 
L 148.629009 62.364343 
L 148.986471 62.569235 
L 149.701272 62.103694 
L 150.058895 62.566738 
L 150.416232 62.11127 
L 150.77385 62.314446 
L 151.488811 62.334696 
L 151.846291 62.573205 
L 152.203624 62.324224 
L 152.561111 62.265087 
L 152.918634 62.035506 
L 153.276299 62.227916 
L 154.348877 62.483675 
L 154.706265 62.028675 
L 155.42147 62.496314 
L 155.77885 62.042337 
L 156.136511 62.268571 
L 156.851562 62.254754 
L 157.209092 62.489865 
L 157.924013 61.991678 
L 158.281705 62.268398 
L 158.996781 62.263093 
L 159.354306 62.277916 
L 159.711821 62.462038 
L 160.069222 62.002565 
L 160.784447 62.472233 
L 161.141842 62.056918 
L 161.857032 62.510201 
L 162.214403 62.225904 
L 162.571951 62.29319 
L 163.644636 61.940359 
L 164.002361 62.17632 
L 164.717527 62.191143 
L 165.075096 62.410391 
L 165.432529 62.172332 
L 166.147694 62.176718 
L 166.505272 61.820662 
L 166.863071 62.302102 
L 167.220571 62.165553 
L 167.578156 62.152776 
L 167.935749 62.434195 
L 168.650748 61.896444 
L 169.0085 62.199829 
L 169.723666 62.165692 
L 170.081251 62.153348 
L 170.438844 62.407547 
L 170.796279 61.91066 
L 171.154022 62.400612 
L 171.869036 61.973508 
L 172.22674 62.197072 
L 172.941909 62.173026 
L 173.299489 62.179111 
L 173.657066 62.374641 
L 174.372148 61.895698 
L 174.729901 62.084484 
L 175.445164 62.126579 
L 175.802773 62.313596 
L 176.517903 61.842646 
L 176.875688 62.335667 
L 177.233168 61.865618 
L 177.590938 62.163473 
L 177.948525 62.01139 
L 178.306205 62.355171 
L 178.663673 61.84998 
L 179.021453 62.341735 
L 179.736552 61.866364 
L 180.094322 62.073197 
L 180.809599 62.16538 
L 181.167184 62.305049 
L 181.524683 61.836751 
L 182.240114 62.313284 
L 182.597608 61.911198 
L 182.95535 62.109658 
L 183.31297 62.094401 
L 183.670599 62.371139 
L 184.028057 61.842525 
L 184.385842 62.305881 
L 184.74334 61.760346 
L 185.101176 62.073336 
L 185.816497 62.022694 
L 186.17417 62.054629 
L 186.531824 62.294404 
L 186.889329 62.044244 
L 187.604651 62.001508 
L 187.962338 61.793148 
L 188.320153 62.105982 
L 188.677775 61.990793 
L 189.035468 62.263336 
L 189.392993 62.054889 
L 189.750646 62.0319 
L 190.108314 61.778741 
L 190.466139 62.05749 
L 191.539149 62.023006 
L 191.896822 62.272975 
L 192.254341 61.788328 
L 192.612159 62.278627 
L 192.969674 61.800083 
L 193.327486 62.040239 
L 194.04281 62.044452 
L 194.40047 62.274536 
L 194.757988 62.053641 
L 195.473325 61.985523 
L 195.831022 61.777822 
L 196.188847 62.226078 
L 196.546394 61.750672 
L 197.261926 62.234538 
L 197.977173 61.719638 
L 198.335034 61.983858 
L 199.408142 61.955287 
L 199.765858 62.259417 
L 200.123384 61.850257 
L 200.481165 62.058409 
L 200.838816 61.955963 
L 201.196531 61.737322 
L 201.554381 61.919572 
L 202.269837 61.971982 
L 202.627542 62.190883 
L 202.985111 61.70901 
L 203.342979 61.955495 
L 204.773821 61.926125 
L 205.131555 62.229424 
L 206.204703 61.374574 
L 206.562778 61.107649 
L 206.921018 61.68876 
L 207.278898 61.060214 
L 207.995239 61.755266 
L 208.353078 61.419876 
L 211.57552 61.400025 
L 211.933579 61.094316 
L 212.291827 61.737721 
L 212.649677 61.135319 
L 213.0079 61.290315 
L 213.366027 61.72444 
L 213.723885 61.416773 
L 214.081934 61.413253 
L 214.439985 61.095374 
L 214.798232 61.404203 
L 215.156289 61.38319 
L 215.514358 61.764715 
L 215.872191 61.413964 
L 216.946354 61.403371 
L 217.304411 61.091265 
L 217.662661 61.724128 
L 218.02052 61.142219 
L 218.378738 61.696839 
L 218.736613 61.407879 
L 219.452728 61.383052 
L 219.810797 61.113093 
L 220.169034 61.390923 
L 220.527099 61.415594 
L 220.885148 61.774302 
L 221.242975 61.39394 
L 222.317129 61.410601 
L 222.675181 61.080672 
L 223.033438 61.744257 
L 223.391284 61.068848 
L 223.749548 61.779781 
L 224.107372 61.369147 
L 224.823513 61.406509 
L 225.181568 61.121935 
L 225.539799 61.341754 
L 225.897894 61.414866 
L 226.255944 61.76735 
L 226.613775 61.411207 
L 227.687925 61.454967 
L 228.045949 61.125385 
L 228.404179 61.433902 
L 228.762217 61.408173 
L 229.120271 61.808128 
L 229.478077 61.440161 
L 230.19414 61.458001 
L 230.552163 61.180604 
L 230.910358 61.7682 
L 231.268189 61.132389 
L 231.626414 61.752405 
L 231.984255 61.453979 
L 233.058327 61.443542 
L 233.416359 61.203333 
L 233.774539 61.722239 
L 234.132399 61.099899 
L 234.490644 61.780371 
L 234.848467 61.417917 
L 235.564546 61.455747 
L 235.922571 61.141266 
L 236.28079 61.507742 
L 236.638782 61.380312 
L 236.996853 61.781012 
L 237.354677 61.458972 
L 238.070749 61.472217 
L 238.428764 61.44694 
L 238.786794 61.226288 
L 239.861024 61.6997 
L 240.218898 61.459787 
L 240.934947 61.466184 
L 241.292965 61.127309 
L 241.651193 61.440837 
L 242.009227 61.545849 
L 242.367195 61.3731 
L 242.725271 61.644359 
L 243.083179 61.60216 
L 243.441112 61.442033 
L 243.799145 61.423101 
L 244.15719 61.168659 
L 244.515392 61.440889 
L 245.231455 61.483469 
L 245.589462 61.746459 
L 245.947307 61.457793 
L 246.30533 61.454793 
L 246.663355 61.116213 
L 247.02159 61.483227 
L 247.379597 61.39947 
L 247.737657 61.74528 
L 248.095502 61.499974 
L 248.811531 61.449904 
L 249.169559 61.447252 
L 249.527589 61.200507 
L 249.885772 61.436659 
L 250.243808 61.412404 
L 250.601859 61.804279 
L 250.959668 61.462595 
L 252.033721 61.482741 
L 252.391728 61.25727 
L 253.107968 61.449592 
L 253.465996 61.828326 
L 253.82379 61.147819 
L 254.182005 61.612424 
L 254.539933 61.325076 
L 254.898038 61.459561 
L 255.25606 61.815739 
L 255.613862 61.104389 
L 255.972104 61.820125 
L 256.329903 61.383242 
L 256.687972 61.481025 
L 257.045981 61.457013 
L 257.404005 61.131592 
L 257.76223 61.498952 
L 258.120228 61.407393 
L 258.478282 61.770991 
L 258.836112 61.45039 
L 259.552156 61.457325 
L 259.91018 61.182598 
L 260.626392 61.832105 
L 260.984184 61.145877 
L 261.3424 61.81482 
L 262.058221 61.166093 
L 262.416425 61.7527 
L 263.132256 61.151668 
L 263.848495 61.782312 
L 264.206317 61.415715 
L 264.922393 61.473969 
L 265.280406 61.09983 
L 265.99666 61.815825 
L 266.354461 61.14638 
L 266.712677 61.792923 
L 267.070493 61.484041 
L 267.786516 61.450476 
L 268.144544 61.312142 
L 268.502657 61.319597 
L 268.860766 61.453788 
L 269.576814 61.464329 
L 269.934833 61.749944 
L 270.650705 61.147351 
L 271.00892 61.837445 
L 271.366709 61.109747 
L 272.082961 61.828794 
L 272.440755 61.474957 
L 275.662891 61.459318 
L 276.020913 61.14189 
L 276.379132 61.850604 
L 276.736912 61.456354 
L 277.810944 61.472235 
L 278.52697 61.472443 
L 278.884984 61.126997 
L 279.243212 61.813936 
L 279.601015 61.472911 
L 281.03307 61.428042 
L 281.391112 61.512492 
L 282.465117 61.487023 
L 284.255126 61.518213 
L 284.613112 61.118502 
L 285.329344 61.823436 
L 286.045164 61.174761 
L 286.403363 61.47272 
L 286.761377 61.556373 
L 287.477348 61.441617 
L 289.625419 61.512561 
L 290.699423 61.459076 
L 291.415443 61.476482 
L 293.205532 61.446957 
L 294.995582 61.47272 
L 301.081808 61.481163 
L 302.513862 61.470622 
L 302.871878 61.54304 
L 303.587858 61.449228 
L 305.019944 61.493282 
L 307.16799 61.480609 
L 310.390065 61.437023 
L 310.748101 61.557222 
L 311.822079 61.234679 
L 312.18024 61.715841 
L 312.896113 61.247855 
L 313.254266 61.637598 
L 313.970169 61.499038 
L 322.204156 61.486521 
L 322.920188 61.469357 
L 324.352205 61.557361 
L 325.068175 61.472495 
L 329.364166 61.505141 
L 330.080125 61.491514 
L 332.228121 61.520172 
L 333.660118 61.480591 
L 341.894017 61.533609 
L 342.610007 61.507464 
L 344.041987 61.47409 
L 347.979963 61.530193 
L 349.053927 61.610708 
L 349.411856 61.439311 
L 350.843915 61.528477 
L 351.917877 61.513255 
L 352.275866 61.758248 
L 352.633703 61.136065 
L 352.991925 61.594324 
L 353.349864 61.487145 
L 354.781867 61.534944 
L 355.855842 61.516878 
L 364.089583 61.502974 
L 364.447578 61.555645 
L 365.163549 61.496472 
L 366.23752 61.522478 
L 369.459417 61.516167 
L 370.17537 61.483833 
L 371.607361 61.508175 
L 371.965353 61.450199 
L 373.039369 61.607951 
L 373.397299 61.419651 
L 373.755346 61.794726 
L 374.113161 61.218018 
L 374.82937 61.539157 
L 377.335285 61.534718 
L 377.69326 61.60086 
L 378.051195 61.387837 
L 378.409262 61.541411 
L 379.841198 61.522721 
L 380.915117 61.487422 
L 381.273122 61.31346 
L 381.631234 61.721927 
L 381.989094 61.511001 
L 385.926933 61.536036 
L 386.284908 61.264655 
L 386.643051 61.738657 
L 387.0009 61.530922 
L 387.716893 61.509423 
L 388.432878 61.497478 
L 388.790876 61.668805 
L 389.148769 61.388236 
L 389.864835 61.548016 
L 392.728653 61.515006 
L 403.110242 61.533765 
L 403.468218 61.798453 
L 403.82603 61.248826 
L 404.184183 61.531754 
L 409.553889 61.545554 
L 410.627783 61.537059 
L 411.343759 61.52605 
L 414.92354 61.560152 
L 415.639487 61.522877 
L 416.355432 61.533626 
L 417.429368 61.498085 
L 418.145323 61.547877 
L 418.861286 61.519149 
L 421.367181 61.564816 
L 421.725138 61.479534 
L 422.441119 61.525772 
L 425.30497 61.55476 
L 425.662933 61.390091 
L 426.020998 61.705335 
L 426.378868 61.436243 
L 426.736905 61.63257 
L 427.09482 61.393107 
L 427.452883 61.538429 
L 427.810856 61.818929 
L 428.168656 61.228715 
L 428.526821 61.549663 
L 429.958733 61.560291 
L 430.316693 61.578114 
L 430.674641 61.477419 
L 432.106569 61.547184 
L 432.822539 61.545069 
L 435.328356 61.512249 
L 435.686345 61.590753 
L 436.044286 61.459787 
L 436.760281 61.600167 
L 437.834169 61.478303 
L 438.192179 61.554656 
L 438.908135 61.52201 
L 439.62407 61.53477 
L 441.055979 61.523865 
L 441.771935 61.52364 
L 442.129918 61.86033 
L 442.487692 61.227883 
L 442.845857 61.552732 
L 444.277763 61.508522 
L 444.635755 61.589383 
L 445.351687 61.526986 
L 445.709668 61.523189 
L 446.067651 61.813554 
L 446.425454 61.229357 
L 446.783618 61.512353 
L 455.374995 61.482759 
L 455.733003 61.407081 
L 456.091058 61.637112 
L 456.80694 61.550062 
L 457.522894 61.546092 
L 458.954773 61.543058 
L 461.818533 61.527194 
L 462.176514 61.606061 
L 462.534445 61.491705 
L 463.250415 61.591273 
L 463.966347 61.532187 
L 464.682279 61.530713 
L 465.756197 61.496576 
L 466.114196 61.599993 
L 466.830108 61.530661 
L 467.904015 61.548137 
L 468.261982 61.437647 
L 468.620018 61.71787 
L 469.335859 61.439814 
L 469.693893 61.596179 
L 470.40982 61.53406 
L 473.989535 61.562493 
L 476.137365 61.534961 
L 482.938885 61.499056 
L 483.654848 61.53399 
L 499.047567 61.517416 
L 499.405554 61.853569 
L 499.763332 61.27511 
L 500.121468 61.548068 
L 501.195374 61.455314 
L 501.553399 61.62619 
L 502.269277 61.557084 
L 508.354752 61.548033 
L 508.712719 61.85558 
L 509.070496 61.244648 
L 509.428652 61.59767 
L 509.786588 61.467172 
L 510.860538 61.796373 
L 511.218352 61.277728 
L 511.576487 61.686298 
L 511.934368 61.231177 
L 512.292532 61.748158 
L 512.650375 61.555991 
L 513.366334 61.559389 
L 513.724294 61.577177 
L 514.082243 61.716448 
L 514.440107 61.426603 
L 514.798149 61.554708 
L 516.588001 61.558297 
L 518.019873 61.57579 
L 518.735805 61.563689 
L 543.43554 61.5433 
L 544.151455 61.54252 
L 551.668755 61.562302 
L 553.458557 61.439346 
L 553.816592 61.63524 
L 554.174505 61.526951 
L 554.532486 61.566498 
L 554.890442 61.489676 
L 555.606411 61.533643 
L 557.396238 61.530627 
L 557.754216 61.412733 
L 558.112267 61.679051 
L 558.828126 61.461208 
L 559.186148 61.653739 
L 560.617907 61.558089 
L 561.691807 61.506441 
L 562.049801 61.611748 
L 562.407728 61.556251 
L 562.765691 61.842767 
L 563.123476 61.278907 
L 563.48161 61.544358 
L 563.839579 61.482013 
L 564.197587 61.651953 
L 564.55549 61.528668 
L 564.91347 61.623953 
L 565.629357 61.513896 
L 570.282995 61.617851 
L 570.998885 61.539608 
L 573.146653 61.57208 
L 573.504606 61.511955 
L 574.578516 61.568023 
L 575.294426 61.512319 
L 575.652416 61.898802 
L 576.010166 61.267204 
L 576.368307 61.530922 
L 582.453719 61.561175 
L 586.033312 61.531182 
L 586.39129 61.613985 
L 587.107183 61.548346 
L 589.970889 61.553165 
L 596.772183 61.461364 
L 597.130204 61.678202 
L 597.846055 61.535707 
L 599.277929 61.549663 
L 599.635895 61.573537 
L 599.993847 61.901853 
L 600.351595 61.253924 
L 600.709745 61.530089 
L 602.857516 61.56492 
L 603.573462 61.575981 
L 604.289376 61.517069 
L 604.647363 61.319146 
L 605.005472 61.80492 
L 605.36328 61.607535 
L 605.721211 61.546907 
L 606.079179 61.662512 
L 606.437075 61.437439 
L 607.153071 61.592694 
L 607.86899 61.577836 
L 608.942867 61.547305 
L 609.300835 61.842733 
L 609.65862 61.236257 
L 610.016781 61.556875 
L 612.880475 61.551865 
L 614.670287 61.575201 
L 615.028237 61.84112 
L 615.386023 61.249624 
L 615.744175 61.60164 
L 616.818045 61.518387 
L 623.261405 61.557136 
L 623.619367 61.530055 
L 623.977345 61.826973 
L 624.33514 61.359958 
L 624.693224 61.548398 
L 628.988803 61.56277 
L 629.704687 61.557864 
L 631.136566 61.558609 
L 633.28433 61.55665 
L 633.642292 61.827788 
L 634.000086 61.264707 
L 634.358229 61.550478 
L 634.716195 61.620434 
L 635.432077 61.542243 
L 636.505962 61.548051 
L 636.86393 61.837098 
L 637.221718 61.353128 
L 637.579806 61.530765 
L 640.80145 61.556165 
L 641.875329 61.544289 
L 642.233298 61.712478 
L 642.591164 61.448847 
L 642.949193 61.543543 
L 644.02309 61.521733 
L 645.45494 61.626779 
L 646.170822 61.521247 
L 646.886759 61.576467 
L 647.602683 61.519583 
L 648.318616 61.534909 
L 650.82433 61.610812 
L 651.540222 61.55131 
L 652.256137 61.540526 
L 652.614109 61.387247 
L 652.972176 61.729954 
L 653.68796 61.400597 
L 654.046019 61.700567 
L 654.403892 61.585551 
L 654.761836 61.813155 
L 655.119639 61.254617 
L 655.477788 61.583037 
L 655.835734 61.532898 
L 656.193711 61.616342 
L 656.9096 61.544306 
L 659.415329 61.537839 
L 659.773302 61.688067 
L 660.131183 61.445327 
L 660.847179 61.599525 
L 662.278968 61.535134 
L 664.426731 61.547028 
L 666.216567 61.572635 
L 669.438174 61.602819 
L 669.796108 61.833908 
L 670.153898 61.24978 
L 670.51205 61.537076 
L 673.017797 61.566654 
L 674.807561 61.604466 
L 675.165494 61.516722 
L 675.881436 61.558817 
L 677.671263 61.573207 
L 678.029214 61.59533 
L 678.387152 61.503858 
L 679.10311 61.572444 
L 679.819033 61.578114 
L 681.250866 61.571994 
L 682.324756 61.560031 
L 682.682716 61.608506 
L 683.398623 61.536313 
L 685.546391 61.609772 
L 686.262294 61.542087 
L 689.125966 61.553113 
L 691.273718 61.557846 
L 693.421487 61.579119 
L 694.853338 61.545762 
L 696.285212 61.601346 
L 697.001131 61.545259 
L 698.43299 61.549472 
L 698.790956 61.840167 
L 699.148743 61.279097 
L 699.506877 61.578824 
L 700.938693 61.537336 
L 701.296667 61.599907 
L 701.654603 61.385046 
L 702.012671 61.748851 
L 702.370514 61.563152 
L 703.444405 61.577698 
L 703.802354 61.720245 
L 704.160215 61.420344 
L 704.876223 61.576051 
L 705.592155 61.573363 
L 709.171721 61.575305 
L 711.677399 61.560932 
L 716.330865 61.563568 
L 716.688823 61.863486 
L 717.046595 61.267083 
L 717.404736 61.909551 
L 717.76248 61.288737 
L 718.120608 61.524732 
L 722.058186 61.577646 
L 723.489972 61.546733 
L 723.84794 61.610881 
L 724.205868 61.509822 
L 725.279796 61.573173 
L 727.785506 61.567226 
L 728.143461 61.6286 
L 729.217299 61.541913 
L 733.512837 61.614886 
L 733.870763 61.64136 
L 734.228673 61.502852 
L 734.944624 61.569272 
L 736.734432 61.543803 
L 738.524275 61.568075 
L 738.88223 61.686697 
L 739.240112 61.520328 
L 739.956064 61.53992 
L 740.314036 61.756532 
L 740.671875 61.331265 
L 741.029976 61.559129 
L 742.461768 61.579275 
L 742.819716 61.507898 
L 743.177708 61.596665 
L 743.893614 61.539555 
L 744.251586 61.620763 
L 745.32543 61.56225 
L 752.484519 61.616013 
L 752.842444 61.848177 
L 753.200226 61.281715 
L 753.558358 61.557517 
L 757.137904 61.573606 
L 758.569682 61.595156 
L 759.285599 61.5519 
L 760.717402 61.559857 
L 761.433333 61.565561 
L 761.433333 61.565561 
" clip-path="url(#p40b457ff38)" style="fill: none; stroke: #1f77b4; stroke-width: 1.5; stroke-linecap: square"/>
   </g>
   <g id="line2d_16">
    <path d="M 106.82 61.644205 
L 794.164 61.644205 
" clip-path="url(#p40b457ff38)" style="fill: none; stroke-dasharray: 5.55,2.4; stroke-dashoffset: 0; stroke: #0000ff; stroke-width: 1.5"/>
   </g>
   <g id="patch_3">
    <path d="M 106.82 639.64 
L 106.82 60.96 
" style="fill: none; stroke: #000000; stroke-width: 0.8; stroke-linejoin: miter; stroke-linecap: square"/>
   </g>
   <g id="patch_4">
    <path d="M 794.164 639.64 
L 794.164 60.96 
" style="fill: none; stroke: #000000; stroke-width: 0.8; stroke-linejoin: miter; stroke-linecap: square"/>
   </g>
   <g id="patch_5">
    <path d="M 106.82 639.64 
L 794.164 639.64 
" style="fill: none; stroke: #000000; stroke-width: 0.8; stroke-linejoin: miter; stroke-linecap: square"/>
   </g>
   <g id="patch_6">
    <path d="M 106.82 60.96 
L 794.164 60.96 
" style="fill: none; stroke: #000000; stroke-width: 0.8; stroke-linejoin: miter; stroke-linecap: square"/>
   </g>
   <g id="text_17">
    <!-- Interarrival Time (SelectionProcess: 16777217) -->
    <g transform="translate(252.807188 54.96) scale(0.168 -0.168)">
     <defs>
      <path id="DejaVuSans-53" d="M 3425 4513 
L 3425 3897 
Q 3066 4069 2747 4153 
Q 2428 4238 2131 4238 
Q 1616 4238 1336 4038 
Q 1056 3838 1056 3469 
Q 1056 3159 1242 3001 
Q 1428 2844 1947 2747 
L 2328 2669 
Q 3034 2534 3370 2195 
Q 3706 1856 3706 1288 
Q 3706 609 3251 259 
Q 2797 -91 1919 -91 
Q 1588 -91 1214 -16 
Q 841 59 441 206 
L 441 856 
Q 825 641 1194 531 
Q 1563 422 1919 422 
Q 2459 422 2753 634 
Q 3047 847 3047 1241 
Q 3047 1584 2836 1778 
Q 2625 1972 2144 2069 
L 1759 2144 
Q 1053 2284 737 2584 
Q 422 2884 422 3419 
Q 422 4038 858 4394 
Q 1294 4750 2059 4750 
Q 2388 4750 2728 4690 
Q 3069 4631 3425 4513 
z
" transform="scale(0.015625)"/>
      <path id="DejaVuSans-63" d="M 3122 3366 
L 3122 2828 
Q 2878 2963 2633 3030 
Q 2388 3097 2138 3097 
Q 1578 3097 1268 2742 
Q 959 2388 959 1747 
Q 959 1106 1268 751 
Q 1578 397 2138 397 
Q 2388 397 2633 464 
Q 2878 531 3122 666 
L 3122 134 
Q 2881 22 2623 -34 
Q 2366 -91 2075 -91 
Q 1284 -91 818 406 
Q 353 903 353 1747 
Q 353 2603 823 3093 
Q 1294 3584 2113 3584 
Q 2378 3584 2631 3529 
Q 2884 3475 3122 3366 
z
" transform="scale(0.015625)"/>
      <path id="DejaVuSans-6f" d="M 1959 3097 
Q 1497 3097 1228 2736 
Q 959 2375 959 1747 
Q 959 1119 1226 758 
Q 1494 397 1959 397 
Q 2419 397 2687 759 
Q 2956 1122 2956 1747 
Q 2956 2369 2687 2733 
Q 2419 3097 1959 3097 
z
M 1959 3584 
Q 2709 3584 3137 3096 
Q 3566 2609 3566 1747 
Q 3566 888 3137 398 
Q 2709 -91 1959 -91 
Q 1206 -91 779 398 
Q 353 888 353 1747 
Q 353 2609 779 3096 
Q 1206 3584 1959 3584 
z
" transform="scale(0.015625)"/>
      <path id="DejaVuSans-50" d="M 1259 4147 
L 1259 2394 
L 2053 2394 
Q 2494 2394 2734 2622 
Q 2975 2850 2975 3272 
Q 2975 3691 2734 3919 
Q 2494 4147 2053 4147 
L 1259 4147 
z
M 628 4666 
L 2053 4666 
Q 2838 4666 3239 4311 
Q 3641 3956 3641 3272 
Q 3641 2581 3239 2228 
Q 2838 1875 2053 1875 
L 1259 1875 
L 1259 0 
L 628 0 
L 628 4666 
z
" transform="scale(0.015625)"/>
      <path id="DejaVuSans-3a" d="M 750 794 
L 1409 794 
L 1409 0 
L 750 0 
L 750 794 
z
M 750 3309 
L 1409 3309 
L 1409 2516 
L 750 2516 
L 750 3309 
z
" transform="scale(0.015625)"/>
      <path id="DejaVuSans-37" d="M 525 4666 
L 3525 4666 
L 3525 4397 
L 1831 0 
L 1172 0 
L 2766 4134 
L 525 4134 
L 525 4666 
z
" transform="scale(0.015625)"/>
     </defs>
     <use xlink:href="#DejaVuSans-49"/>
     <use xlink:href="#DejaVuSans-6e" x="29.492188"/>
     <use xlink:href="#DejaVuSans-74" x="92.871094"/>
     <use xlink:href="#DejaVuSans-65" x="132.080078"/>
     <use xlink:href="#DejaVuSans-72" x="193.603516"/>
     <use xlink:href="#DejaVuSans-61" x="234.716797"/>
     <use xlink:href="#DejaVuSans-72" x="295.996094"/>
     <use xlink:href="#DejaVuSans-72" x="335.359375"/>
     <use xlink:href="#DejaVuSans-69" x="376.472656"/>
     <use xlink:href="#DejaVuSans-76" x="404.255859"/>
     <use xlink:href="#DejaVuSans-61" x="463.435547"/>
     <use xlink:href="#DejaVuSans-6c" x="524.714844"/>
     <use xlink:href="#DejaVuSans-20" x="552.498047"/>
     <use xlink:href="#DejaVuSans-54" x="584.285156"/>
     <use xlink:href="#DejaVuSans-69" x="642.244141"/>
     <use xlink:href="#DejaVuSans-6d" x="670.027344"/>
     <use xlink:href="#DejaVuSans-65" x="767.439453"/>
     <use xlink:href="#DejaVuSans-20" x="828.962891"/>
     <use xlink:href="#DejaVuSans-28" x="860.75"/>
     <use xlink:href="#DejaVuSans-53" x="899.763672"/>
     <use xlink:href="#DejaVuSans-65" x="963.240234"/>
     <use xlink:href="#DejaVuSans-6c" x="1024.763672"/>
     <use xlink:href="#DejaVuSans-65" x="1052.546875"/>
     <use xlink:href="#DejaVuSans-63" x="1114.070312"/>
     <use xlink:href="#DejaVuSans-74" x="1169.050781"/>
     <use xlink:href="#DejaVuSans-69" x="1208.259766"/>
     <use xlink:href="#DejaVuSans-6f" x="1236.042969"/>
     <use xlink:href="#DejaVuSans-6e" x="1297.224609"/>
     <use xlink:href="#DejaVuSans-50" x="1360.603516"/>
     <use xlink:href="#DejaVuSans-72" x="1419.15625"/>
     <use xlink:href="#DejaVuSans-6f" x="1458.019531"/>
     <use xlink:href="#DejaVuSans-63" x="1519.201172"/>
     <use xlink:href="#DejaVuSans-65" x="1574.181641"/>
     <use xlink:href="#DejaVuSans-73" x="1635.705078"/>
     <use xlink:href="#DejaVuSans-73" x="1687.804688"/>
     <use xlink:href="#DejaVuSans-3a" x="1739.904297"/>
     <use xlink:href="#DejaVuSans-20" x="1773.595703"/>
     <use xlink:href="#DejaVuSans-31" x="1805.382812"/>
     <use xlink:href="#DejaVuSans-36" x="1869.005859"/>
     <use xlink:href="#DejaVuSans-37" x="1932.628906"/>
     <use xlink:href="#DejaVuSans-37" x="1996.251953"/>
     <use xlink:href="#DejaVuSans-37" x="2059.875"/>
     <use xlink:href="#DejaVuSans-32" x="2123.498047"/>
     <use xlink:href="#DejaVuSans-31" x="2187.121094"/>
     <use xlink:href="#DejaVuSans-37" x="2250.744141"/>
     <use xlink:href="#DejaVuSans-29" x="2314.367188"/>
    </g>
   </g>
   <g id="legend_1">
    <g id="patch_7">
     <path d="M 803.964 372.949375 
L 1026.758688 372.949375 
Q 1029.558688 372.949375 1029.558688 370.149375 
L 1029.558688 330.450625 
Q 1029.558688 327.650625 1026.758688 327.650625 
L 803.964 327.650625 
Q 801.164 327.650625 801.164 330.450625 
L 801.164 370.149375 
Q 801.164 372.949375 803.964 372.949375 
z
" style="fill: #ffffff; opacity: 0.8; stroke: #cccccc; stroke-linejoin: miter"/>
    </g>
    <g id="line2d_17">
     <path d="M 806.764 338.988438 
L 820.764 338.988438 
L 834.764 338.988438 
" style="fill: none; stroke: #1f77b4; stroke-width: 1.5; stroke-linecap: square"/>
    </g>
    <g id="text_18">
     <!-- Interarrival Times -->
     <g transform="translate(845.964 343.888438) scale(0.14 -0.14)">
      <use xlink:href="#DejaVuSans-49"/>
      <use xlink:href="#DejaVuSans-6e" x="29.492188"/>
      <use xlink:href="#DejaVuSans-74" x="92.871094"/>
      <use xlink:href="#DejaVuSans-65" x="132.080078"/>
      <use xlink:href="#DejaVuSans-72" x="193.603516"/>
      <use xlink:href="#DejaVuSans-61" x="234.716797"/>
      <use xlink:href="#DejaVuSans-72" x="295.996094"/>
      <use xlink:href="#DejaVuSans-72" x="335.359375"/>
      <use xlink:href="#DejaVuSans-69" x="376.472656"/>
      <use xlink:href="#DejaVuSans-76" x="404.255859"/>
      <use xlink:href="#DejaVuSans-61" x="463.435547"/>
      <use xlink:href="#DejaVuSans-6c" x="524.714844"/>
      <use xlink:href="#DejaVuSans-20" x="552.498047"/>
      <use xlink:href="#DejaVuSans-54" x="584.285156"/>
      <use xlink:href="#DejaVuSans-69" x="642.244141"/>
      <use xlink:href="#DejaVuSans-6d" x="670.027344"/>
      <use xlink:href="#DejaVuSans-65" x="767.439453"/>
      <use xlink:href="#DejaVuSans-73" x="828.962891"/>
     </g>
    </g>
    <g id="line2d_18">
     <path d="M 806.764 359.537813 
L 820.764 359.537813 
L 834.764 359.537813 
" style="fill: none; stroke-dasharray: 5.55,2.4; stroke-dashoffset: 0; stroke: #0000ff; stroke-width: 1.5"/>
    </g>
    <g id="text_19">
     <!-- Interarrival Time Average -->
     <g transform="translate(845.964 364.437813) scale(0.14 -0.14)">
      <defs>
       <path id="DejaVuSans-41" d="M 2188 4044 
L 1331 1722 
L 3047 1722 
L 2188 4044 
z
M 1831 4666 
L 2547 4666 
L 4325 0 
L 3669 0 
L 3244 1197 
L 1141 1197 
L 716 0 
L 50 0 
L 1831 4666 
z
" transform="scale(0.015625)"/>
       <path id="DejaVuSans-67" d="M 2906 1791 
Q 2906 2416 2648 2759 
Q 2391 3103 1925 3103 
Q 1463 3103 1205 2759 
Q 947 2416 947 1791 
Q 947 1169 1205 825 
Q 1463 481 1925 481 
Q 2391 481 2648 825 
Q 2906 1169 2906 1791 
z
M 3481 434 
Q 3481 -459 3084 -895 
Q 2688 -1331 1869 -1331 
Q 1566 -1331 1297 -1286 
Q 1028 -1241 775 -1147 
L 775 -588 
Q 1028 -725 1275 -790 
Q 1522 -856 1778 -856 
Q 2344 -856 2625 -561 
Q 2906 -266 2906 331 
L 2906 616 
Q 2728 306 2450 153 
Q 2172 0 1784 0 
Q 1141 0 747 490 
Q 353 981 353 1791 
Q 353 2603 747 3093 
Q 1141 3584 1784 3584 
Q 2172 3584 2450 3431 
Q 2728 3278 2906 2969 
L 2906 3500 
L 3481 3500 
L 3481 434 
z
" transform="scale(0.015625)"/>
      </defs>
      <use xlink:href="#DejaVuSans-49"/>
      <use xlink:href="#DejaVuSans-6e" x="29.492188"/>
      <use xlink:href="#DejaVuSans-74" x="92.871094"/>
      <use xlink:href="#DejaVuSans-65" x="132.080078"/>
      <use xlink:href="#DejaVuSans-72" x="193.603516"/>
      <use xlink:href="#DejaVuSans-61" x="234.716797"/>
      <use xlink:href="#DejaVuSans-72" x="295.996094"/>
      <use xlink:href="#DejaVuSans-72" x="335.359375"/>
      <use xlink:href="#DejaVuSans-69" x="376.472656"/>
      <use xlink:href="#DejaVuSans-76" x="404.255859"/>
      <use xlink:href="#DejaVuSans-61" x="463.435547"/>
      <use xlink:href="#DejaVuSans-6c" x="524.714844"/>
      <use xlink:href="#DejaVuSans-20" x="552.498047"/>
      <use xlink:href="#DejaVuSans-54" x="584.285156"/>
      <use xlink:href="#DejaVuSans-69" x="642.244141"/>
      <use xlink:href="#DejaVuSans-6d" x="670.027344"/>
      <use xlink:href="#DejaVuSans-65" x="767.439453"/>
      <use xlink:href="#DejaVuSans-20" x="828.962891"/>
      <use xlink:href="#DejaVuSans-41" x="860.75"/>
      <use xlink:href="#DejaVuSans-76" x="923.283203"/>
      <use xlink:href="#DejaVuSans-65" x="982.462891"/>
      <use xlink:href="#DejaVuSans-72" x="1043.986328"/>
      <use xlink:href="#DejaVuSans-61" x="1085.099609"/>
      <use xlink:href="#DejaVuSans-67" x="1146.378906"/>
      <use xlink:href="#DejaVuSans-65" x="1209.855469"/>
     </g>
    </g>
   </g>
  </g>
 </g>
 <defs>
  <clipPath id="p40b457ff38">
   <rect x="106.82" y="60.96" width="687.344" height="578.68"/>
  </clipPath>
 </defs>
</svg>
