<?xml version="1.0" encoding="utf-8" standalone="no"?>
<!DOCTYPE svg PUBLIC "-//W3C//DTD SVG 1.1//EN"
  "http://www.w3.org/Graphics/SVG/1.1/DTD/svg11.dtd">
<svg xmlns:xlink="http://www.w3.org/1999/xlink" width="1008pt" height="720pt" viewBox="0 0 1008 720" xmlns="http://www.w3.org/2000/svg" version="1.1">
 <metadata>
  <rdf:RDF xmlns:dc="http://purl.org/dc/elements/1.1/" xmlns:cc="http://creativecommons.org/ns#" xmlns:rdf="http://www.w3.org/1999/02/22-rdf-syntax-ns#">
   <cc:Work>
    <dc:type rdf:resource="http://purl.org/dc/dcmitype/StillImage"/>
    <dc:date>2023-04-14T11:38:23.933569</dc:date>
    <dc:format>image/svg+xml</dc:format>
    <dc:creator>
     <cc:Agent>
      <dc:title>Matplotlib v3.6.2, https://matplotlib.org/</dc:title>
     </cc:Agent>
    </dc:creator>
   </cc:Work>
  </rdf:RDF>
 </metadata>
 <defs>
  <style type="text/css">*{stroke-linejoin: round; stroke-linecap: butt}</style>
 </defs>
 <g id="figure_1">
  <g id="patch_1">
   <path d="M 0 720 
L 1008 720 
L 1008 0 
L 0 0 
z
" style="fill: #ffffff"/>
  </g>
  <g id="axes_1">
   <g id="patch_2">
    <path d="M 106.91 639.64 
L 794.182 639.64 
L 794.182 60.96 
L 106.91 60.96 
z
" style="fill: #ffffff"/>
   </g>
   <g id="matplotlib.axis_1">
    <g id="xtick_1">
     <g id="line2d_1">
      <defs>
       <path id="m0b4235d1ec" d="M 0 0 
L 0 3.5 
" style="stroke: #000000; stroke-width: 0.8"/>
      </defs>
      <g>
       <use xlink:href="#m0b4235d1ec" x="106.91" y="639.64" style="stroke: #000000; stroke-width: 0.8"/>
      </g>
     </g>
     <g id="text_1">
      <!-- 0 -->
      <g transform="translate(102.45625 657.277812) scale(0.14 -0.14)">
       <defs>
        <path id="DejaVuSans-30" d="M 2034 4250 
Q 1547 4250 1301 3770 
Q 1056 3291 1056 2328 
Q 1056 1369 1301 889 
Q 1547 409 2034 409 
Q 2525 409 2770 889 
Q 3016 1369 3016 2328 
Q 3016 3291 2770 3770 
Q 2525 4250 2034 4250 
z
M 2034 4750 
Q 2819 4750 3233 4129 
Q 3647 3509 3647 2328 
Q 3647 1150 3233 529 
Q 2819 -91 2034 -91 
Q 1250 -91 836 529 
Q 422 1150 422 2328 
Q 422 3509 836 4129 
Q 1250 4750 2034 4750 
z
" transform="scale(0.015625)"/>
       </defs>
       <use xlink:href="#DejaVuSans-30"/>
      </g>
     </g>
    </g>
    <g id="xtick_2">
     <g id="line2d_2">
      <g>
       <use xlink:href="#m0b4235d1ec" x="214.240143" y="639.64" style="stroke: #000000; stroke-width: 0.8"/>
      </g>
     </g>
     <g id="text_2">
      <!-- 10 -->
      <g transform="translate(205.332643 657.277812) scale(0.14 -0.14)">
       <defs>
        <path id="DejaVuSans-31" d="M 794 531 
L 1825 531 
L 1825 4091 
L 703 3866 
L 703 4441 
L 1819 4666 
L 2450 4666 
L 2450 531 
L 3481 531 
L 3481 0 
L 794 0 
L 794 531 
z
" transform="scale(0.015625)"/>
       </defs>
       <use xlink:href="#DejaVuSans-31"/>
       <use xlink:href="#DejaVuSans-30" x="63.623047"/>
      </g>
     </g>
    </g>
    <g id="xtick_3">
     <g id="line2d_3">
      <g>
       <use xlink:href="#m0b4235d1ec" x="321.570285" y="639.64" style="stroke: #000000; stroke-width: 0.8"/>
      </g>
     </g>
     <g id="text_3">
      <!-- 20 -->
      <g transform="translate(312.662785 657.277812) scale(0.14 -0.14)">
       <defs>
        <path id="DejaVuSans-32" d="M 1228 531 
L 3431 531 
L 3431 0 
L 469 0 
L 469 531 
Q 828 903 1448 1529 
Q 2069 2156 2228 2338 
Q 2531 2678 2651 2914 
Q 2772 3150 2772 3378 
Q 2772 3750 2511 3984 
Q 2250 4219 1831 4219 
Q 1534 4219 1204 4116 
Q 875 4013 500 3803 
L 500 4441 
Q 881 4594 1212 4672 
Q 1544 4750 1819 4750 
Q 2544 4750 2975 4387 
Q 3406 4025 3406 3419 
Q 3406 3131 3298 2873 
Q 3191 2616 2906 2266 
Q 2828 2175 2409 1742 
Q 1991 1309 1228 531 
z
" transform="scale(0.015625)"/>
       </defs>
       <use xlink:href="#DejaVuSans-32"/>
       <use xlink:href="#DejaVuSans-30" x="63.623047"/>
      </g>
     </g>
    </g>
    <g id="xtick_4">
     <g id="line2d_4">
      <g>
       <use xlink:href="#m0b4235d1ec" x="428.900428" y="639.64" style="stroke: #000000; stroke-width: 0.8"/>
      </g>
     </g>
     <g id="text_4">
      <!-- 30 -->
      <g transform="translate(419.992928 657.277812) scale(0.14 -0.14)">
       <defs>
        <path id="DejaVuSans-33" d="M 2597 2516 
Q 3050 2419 3304 2112 
Q 3559 1806 3559 1356 
Q 3559 666 3084 287 
Q 2609 -91 1734 -91 
Q 1441 -91 1130 -33 
Q 819 25 488 141 
L 488 750 
Q 750 597 1062 519 
Q 1375 441 1716 441 
Q 2309 441 2620 675 
Q 2931 909 2931 1356 
Q 2931 1769 2642 2001 
Q 2353 2234 1838 2234 
L 1294 2234 
L 1294 2753 
L 1863 2753 
Q 2328 2753 2575 2939 
Q 2822 3125 2822 3475 
Q 2822 3834 2567 4026 
Q 2313 4219 1838 4219 
Q 1578 4219 1281 4162 
Q 984 4106 628 3988 
L 628 4550 
Q 988 4650 1302 4700 
Q 1616 4750 1894 4750 
Q 2613 4750 3031 4423 
Q 3450 4097 3450 3541 
Q 3450 3153 3228 2886 
Q 3006 2619 2597 2516 
z
" transform="scale(0.015625)"/>
       </defs>
       <use xlink:href="#DejaVuSans-33"/>
       <use xlink:href="#DejaVuSans-30" x="63.623047"/>
      </g>
     </g>
    </g>
    <g id="xtick_5">
     <g id="line2d_5">
      <g>
       <use xlink:href="#m0b4235d1ec" x="536.230571" y="639.64" style="stroke: #000000; stroke-width: 0.8"/>
      </g>
     </g>
     <g id="text_5">
      <!-- 40 -->
      <g transform="translate(527.323071 657.277812) scale(0.14 -0.14)">
       <defs>
        <path id="DejaVuSans-34" d="M 2419 4116 
L 825 1625 
L 2419 1625 
L 2419 4116 
z
M 2253 4666 
L 3047 4666 
L 3047 1625 
L 3713 1625 
L 3713 1100 
L 3047 1100 
L 3047 0 
L 2419 0 
L 2419 1100 
L 313 1100 
L 313 1709 
L 2253 4666 
z
" transform="scale(0.015625)"/>
       </defs>
       <use xlink:href="#DejaVuSans-34"/>
       <use xlink:href="#DejaVuSans-30" x="63.623047"/>
      </g>
     </g>
    </g>
    <g id="xtick_6">
     <g id="line2d_6">
      <g>
       <use xlink:href="#m0b4235d1ec" x="643.560713" y="639.64" style="stroke: #000000; stroke-width: 0.8"/>
      </g>
     </g>
     <g id="text_6">
      <!-- 50 -->
      <g transform="translate(634.653213 657.277812) scale(0.14 -0.14)">
       <defs>
        <path id="DejaVuSans-35" d="M 691 4666 
L 3169 4666 
L 3169 4134 
L 1269 4134 
L 1269 2991 
Q 1406 3038 1543 3061 
Q 1681 3084 1819 3084 
Q 2600 3084 3056 2656 
Q 3513 2228 3513 1497 
Q 3513 744 3044 326 
Q 2575 -91 1722 -91 
Q 1428 -91 1123 -41 
Q 819 9 494 109 
L 494 744 
Q 775 591 1075 516 
Q 1375 441 1709 441 
Q 2250 441 2565 725 
Q 2881 1009 2881 1497 
Q 2881 1984 2565 2268 
Q 2250 2553 1709 2553 
Q 1456 2553 1204 2497 
Q 953 2441 691 2322 
L 691 4666 
z
" transform="scale(0.015625)"/>
       </defs>
       <use xlink:href="#DejaVuSans-35"/>
       <use xlink:href="#DejaVuSans-30" x="63.623047"/>
      </g>
     </g>
    </g>
    <g id="xtick_7">
     <g id="line2d_7">
      <g>
       <use xlink:href="#m0b4235d1ec" x="750.890856" y="639.64" style="stroke: #000000; stroke-width: 0.8"/>
      </g>
     </g>
     <g id="text_7">
      <!-- 60 -->
      <g transform="translate(741.983356 657.277812) scale(0.14 -0.14)">
       <defs>
        <path id="DejaVuSans-36" d="M 2113 2584 
Q 1688 2584 1439 2293 
Q 1191 2003 1191 1497 
Q 1191 994 1439 701 
Q 1688 409 2113 409 
Q 2538 409 2786 701 
Q 3034 994 3034 1497 
Q 3034 2003 2786 2293 
Q 2538 2584 2113 2584 
z
M 3366 4563 
L 3366 3988 
Q 3128 4100 2886 4159 
Q 2644 4219 2406 4219 
Q 1781 4219 1451 3797 
Q 1122 3375 1075 2522 
Q 1259 2794 1537 2939 
Q 1816 3084 2150 3084 
Q 2853 3084 3261 2657 
Q 3669 2231 3669 1497 
Q 3669 778 3244 343 
Q 2819 -91 2113 -91 
Q 1303 -91 875 529 
Q 447 1150 447 2328 
Q 447 3434 972 4092 
Q 1497 4750 2381 4750 
Q 2619 4750 2861 4703 
Q 3103 4656 3366 4563 
z
" transform="scale(0.015625)"/>
       </defs>
       <use xlink:href="#DejaVuSans-36"/>
       <use xlink:href="#DejaVuSans-30" x="63.623047"/>
      </g>
     </g>
    </g>
    <g id="text_8">
     <!-- Observed Time(s) -->
     <g transform="translate(388.405688 674.827188) scale(0.14 -0.14)">
      <defs>
       <path id="DejaVuSans-4f" d="M 2522 4238 
Q 1834 4238 1429 3725 
Q 1025 3213 1025 2328 
Q 1025 1447 1429 934 
Q 1834 422 2522 422 
Q 3209 422 3611 934 
Q 4013 1447 4013 2328 
Q 4013 3213 3611 3725 
Q 3209 4238 2522 4238 
z
M 2522 4750 
Q 3503 4750 4090 4092 
Q 4678 3434 4678 2328 
Q 4678 1225 4090 567 
Q 3503 -91 2522 -91 
Q 1538 -91 948 565 
Q 359 1222 359 2328 
Q 359 3434 948 4092 
Q 1538 4750 2522 4750 
z
" transform="scale(0.015625)"/>
       <path id="DejaVuSans-62" d="M 3116 1747 
Q 3116 2381 2855 2742 
Q 2594 3103 2138 3103 
Q 1681 3103 1420 2742 
Q 1159 2381 1159 1747 
Q 1159 1113 1420 752 
Q 1681 391 2138 391 
Q 2594 391 2855 752 
Q 3116 1113 3116 1747 
z
M 1159 2969 
Q 1341 3281 1617 3432 
Q 1894 3584 2278 3584 
Q 2916 3584 3314 3078 
Q 3713 2572 3713 1747 
Q 3713 922 3314 415 
Q 2916 -91 2278 -91 
Q 1894 -91 1617 61 
Q 1341 213 1159 525 
L 1159 0 
L 581 0 
L 581 4863 
L 1159 4863 
L 1159 2969 
z
" transform="scale(0.015625)"/>
       <path id="DejaVuSans-73" d="M 2834 3397 
L 2834 2853 
Q 2591 2978 2328 3040 
Q 2066 3103 1784 3103 
Q 1356 3103 1142 2972 
Q 928 2841 928 2578 
Q 928 2378 1081 2264 
Q 1234 2150 1697 2047 
L 1894 2003 
Q 2506 1872 2764 1633 
Q 3022 1394 3022 966 
Q 3022 478 2636 193 
Q 2250 -91 1575 -91 
Q 1294 -91 989 -36 
Q 684 19 347 128 
L 347 722 
Q 666 556 975 473 
Q 1284 391 1588 391 
Q 1994 391 2212 530 
Q 2431 669 2431 922 
Q 2431 1156 2273 1281 
Q 2116 1406 1581 1522 
L 1381 1569 
Q 847 1681 609 1914 
Q 372 2147 372 2553 
Q 372 3047 722 3315 
Q 1072 3584 1716 3584 
Q 2034 3584 2315 3537 
Q 2597 3491 2834 3397 
z
" transform="scale(0.015625)"/>
       <path id="DejaVuSans-65" d="M 3597 1894 
L 3597 1613 
L 953 1613 
Q 991 1019 1311 708 
Q 1631 397 2203 397 
Q 2534 397 2845 478 
Q 3156 559 3463 722 
L 3463 178 
Q 3153 47 2828 -22 
Q 2503 -91 2169 -91 
Q 1331 -91 842 396 
Q 353 884 353 1716 
Q 353 2575 817 3079 
Q 1281 3584 2069 3584 
Q 2775 3584 3186 3129 
Q 3597 2675 3597 1894 
z
M 3022 2063 
Q 3016 2534 2758 2815 
Q 2500 3097 2075 3097 
Q 1594 3097 1305 2825 
Q 1016 2553 972 2059 
L 3022 2063 
z
" transform="scale(0.015625)"/>
       <path id="DejaVuSans-72" d="M 2631 2963 
Q 2534 3019 2420 3045 
Q 2306 3072 2169 3072 
Q 1681 3072 1420 2755 
Q 1159 2438 1159 1844 
L 1159 0 
L 581 0 
L 581 3500 
L 1159 3500 
L 1159 2956 
Q 1341 3275 1631 3429 
Q 1922 3584 2338 3584 
Q 2397 3584 2469 3576 
Q 2541 3569 2628 3553 
L 2631 2963 
z
" transform="scale(0.015625)"/>
       <path id="DejaVuSans-76" d="M 191 3500 
L 800 3500 
L 1894 563 
L 2988 3500 
L 3597 3500 
L 2284 0 
L 1503 0 
L 191 3500 
z
" transform="scale(0.015625)"/>
       <path id="DejaVuSans-64" d="M 2906 2969 
L 2906 4863 
L 3481 4863 
L 3481 0 
L 2906 0 
L 2906 525 
Q 2725 213 2448 61 
Q 2172 -91 1784 -91 
Q 1150 -91 751 415 
Q 353 922 353 1747 
Q 353 2572 751 3078 
Q 1150 3584 1784 3584 
Q 2172 3584 2448 3432 
Q 2725 3281 2906 2969 
z
M 947 1747 
Q 947 1113 1208 752 
Q 1469 391 1925 391 
Q 2381 391 2643 752 
Q 2906 1113 2906 1747 
Q 2906 2381 2643 2742 
Q 2381 3103 1925 3103 
Q 1469 3103 1208 2742 
Q 947 2381 947 1747 
z
" transform="scale(0.015625)"/>
       <path id="DejaVuSans-20" transform="scale(0.015625)"/>
       <path id="DejaVuSans-54" d="M -19 4666 
L 3928 4666 
L 3928 4134 
L 2272 4134 
L 2272 0 
L 1638 0 
L 1638 4134 
L -19 4134 
L -19 4666 
z
" transform="scale(0.015625)"/>
       <path id="DejaVuSans-69" d="M 603 3500 
L 1178 3500 
L 1178 0 
L 603 0 
L 603 3500 
z
M 603 4863 
L 1178 4863 
L 1178 4134 
L 603 4134 
L 603 4863 
z
" transform="scale(0.015625)"/>
       <path id="DejaVuSans-6d" d="M 3328 2828 
Q 3544 3216 3844 3400 
Q 4144 3584 4550 3584 
Q 5097 3584 5394 3201 
Q 5691 2819 5691 2113 
L 5691 0 
L 5113 0 
L 5113 2094 
Q 5113 2597 4934 2840 
Q 4756 3084 4391 3084 
Q 3944 3084 3684 2787 
Q 3425 2491 3425 1978 
L 3425 0 
L 2847 0 
L 2847 2094 
Q 2847 2600 2669 2842 
Q 2491 3084 2119 3084 
Q 1678 3084 1418 2786 
Q 1159 2488 1159 1978 
L 1159 0 
L 581 0 
L 581 3500 
L 1159 3500 
L 1159 2956 
Q 1356 3278 1631 3431 
Q 1906 3584 2284 3584 
Q 2666 3584 2933 3390 
Q 3200 3197 3328 2828 
z
" transform="scale(0.015625)"/>
       <path id="DejaVuSans-28" d="M 1984 4856 
Q 1566 4138 1362 3434 
Q 1159 2731 1159 2009 
Q 1159 1288 1364 580 
Q 1569 -128 1984 -844 
L 1484 -844 
Q 1016 -109 783 600 
Q 550 1309 550 2009 
Q 550 2706 781 3412 
Q 1013 4119 1484 4856 
L 1984 4856 
z
" transform="scale(0.015625)"/>
       <path id="DejaVuSans-29" d="M 513 4856 
L 1013 4856 
Q 1481 4119 1714 3412 
Q 1947 2706 1947 2009 
Q 1947 1309 1714 600 
Q 1481 -109 1013 -844 
L 513 -844 
Q 928 -128 1133 580 
Q 1338 1288 1338 2009 
Q 1338 2731 1133 3434 
Q 928 4138 513 4856 
z
" transform="scale(0.015625)"/>
      </defs>
      <use xlink:href="#DejaVuSans-4f"/>
      <use xlink:href="#DejaVuSans-62" x="78.710938"/>
      <use xlink:href="#DejaVuSans-73" x="142.1875"/>
      <use xlink:href="#DejaVuSans-65" x="194.287109"/>
      <use xlink:href="#DejaVuSans-72" x="255.810547"/>
      <use xlink:href="#DejaVuSans-76" x="296.923828"/>
      <use xlink:href="#DejaVuSans-65" x="356.103516"/>
      <use xlink:href="#DejaVuSans-64" x="417.626953"/>
      <use xlink:href="#DejaVuSans-20" x="481.103516"/>
      <use xlink:href="#DejaVuSans-54" x="512.890625"/>
      <use xlink:href="#DejaVuSans-69" x="570.849609"/>
      <use xlink:href="#DejaVuSans-6d" x="598.632812"/>
      <use xlink:href="#DejaVuSans-65" x="696.044922"/>
      <use xlink:href="#DejaVuSans-28" x="757.568359"/>
      <use xlink:href="#DejaVuSans-73" x="796.582031"/>
      <use xlink:href="#DejaVuSans-29" x="848.681641"/>
     </g>
    </g>
   </g>
   <g id="matplotlib.axis_2">
    <g id="ytick_1">
     <g id="line2d_8">
      <defs>
       <path id="m1e14e0b9d9" d="M 0 0 
L -3.5 0 
" style="stroke: #000000; stroke-width: 0.8"/>
      </defs>
      <g>
       <use xlink:href="#m1e14e0b9d9" x="106.91" y="639.64" style="stroke: #000000; stroke-width: 0.8"/>
      </g>
     </g>
     <g id="text_9">
      <!-- 0 -->
      <g transform="translate(91.0025 644.958906) scale(0.14 -0.14)">
       <use xlink:href="#DejaVuSans-30"/>
      </g>
     </g>
    </g>
    <g id="ytick_2">
     <g id="line2d_9">
      <g>
       <use xlink:href="#m1e14e0b9d9" x="106.91" y="552.960896" style="stroke: #000000; stroke-width: 0.8"/>
      </g>
     </g>
     <g id="text_10">
      <!-- 5 -->
      <g transform="translate(91.0025 558.279803) scale(0.14 -0.14)">
       <use xlink:href="#DejaVuSans-35"/>
      </g>
     </g>
    </g>
    <g id="ytick_3">
     <g id="line2d_10">
      <g>
       <use xlink:href="#m1e14e0b9d9" x="106.91" y="466.281793" style="stroke: #000000; stroke-width: 0.8"/>
      </g>
     </g>
     <g id="text_11">
      <!-- 10 -->
      <g transform="translate(82.095 471.600699) scale(0.14 -0.14)">
       <use xlink:href="#DejaVuSans-31"/>
       <use xlink:href="#DejaVuSans-30" x="63.623047"/>
      </g>
     </g>
    </g>
    <g id="ytick_4">
     <g id="line2d_11">
      <g>
       <use xlink:href="#m1e14e0b9d9" x="106.91" y="379.602689" style="stroke: #000000; stroke-width: 0.8"/>
      </g>
     </g>
     <g id="text_12">
      <!-- 15 -->
      <g transform="translate(82.095 384.921595) scale(0.14 -0.14)">
       <use xlink:href="#DejaVuSans-31"/>
       <use xlink:href="#DejaVuSans-35" x="63.623047"/>
      </g>
     </g>
    </g>
    <g id="ytick_5">
     <g id="line2d_12">
      <g>
       <use xlink:href="#m1e14e0b9d9" x="106.91" y="292.923585" style="stroke: #000000; stroke-width: 0.8"/>
      </g>
     </g>
     <g id="text_13">
      <!-- 20 -->
      <g transform="translate(82.095 298.242491) scale(0.14 -0.14)">
       <use xlink:href="#DejaVuSans-32"/>
       <use xlink:href="#DejaVuSans-30" x="63.623047"/>
      </g>
     </g>
    </g>
    <g id="ytick_6">
     <g id="line2d_13">
      <g>
       <use xlink:href="#m1e14e0b9d9" x="106.91" y="206.244481" style="stroke: #000000; stroke-width: 0.8"/>
      </g>
     </g>
     <g id="text_14">
      <!-- 25 -->
      <g transform="translate(82.095 211.563388) scale(0.14 -0.14)">
       <use xlink:href="#DejaVuSans-32"/>
       <use xlink:href="#DejaVuSans-35" x="63.623047"/>
      </g>
     </g>
    </g>
    <g id="ytick_7">
     <g id="line2d_14">
      <g>
       <use xlink:href="#m1e14e0b9d9" x="106.91" y="119.565378" style="stroke: #000000; stroke-width: 0.8"/>
      </g>
     </g>
     <g id="text_15">
      <!-- 30 -->
      <g transform="translate(82.095 124.884284) scale(0.14 -0.14)">
       <use xlink:href="#DejaVuSans-33"/>
       <use xlink:href="#DejaVuSans-30" x="63.623047"/>
      </g>
     </g>
    </g>
    <g id="text_16">
     <!-- Interarrival Time (ms) -->
     <g transform="translate(75.183438 426.478594) rotate(-90) scale(0.14 -0.14)">
      <defs>
       <path id="DejaVuSans-49" d="M 628 4666 
L 1259 4666 
L 1259 0 
L 628 0 
L 628 4666 
z
" transform="scale(0.015625)"/>
       <path id="DejaVuSans-6e" d="M 3513 2113 
L 3513 0 
L 2938 0 
L 2938 2094 
Q 2938 2591 2744 2837 
Q 2550 3084 2163 3084 
Q 1697 3084 1428 2787 
Q 1159 2491 1159 1978 
L 1159 0 
L 581 0 
L 581 3500 
L 1159 3500 
L 1159 2956 
Q 1366 3272 1645 3428 
Q 1925 3584 2291 3584 
Q 2894 3584 3203 3211 
Q 3513 2838 3513 2113 
z
" transform="scale(0.015625)"/>
       <path id="DejaVuSans-74" d="M 1172 4494 
L 1172 3500 
L 2356 3500 
L 2356 3053 
L 1172 3053 
L 1172 1153 
Q 1172 725 1289 603 
Q 1406 481 1766 481 
L 2356 481 
L 2356 0 
L 1766 0 
Q 1100 0 847 248 
Q 594 497 594 1153 
L 594 3053 
L 172 3053 
L 172 3500 
L 594 3500 
L 594 4494 
L 1172 4494 
z
" transform="scale(0.015625)"/>
       <path id="DejaVuSans-61" d="M 2194 1759 
Q 1497 1759 1228 1600 
Q 959 1441 959 1056 
Q 959 750 1161 570 
Q 1363 391 1709 391 
Q 2188 391 2477 730 
Q 2766 1069 2766 1631 
L 2766 1759 
L 2194 1759 
z
M 3341 1997 
L 3341 0 
L 2766 0 
L 2766 531 
Q 2569 213 2275 61 
Q 1981 -91 1556 -91 
Q 1019 -91 701 211 
Q 384 513 384 1019 
Q 384 1609 779 1909 
Q 1175 2209 1959 2209 
L 2766 2209 
L 2766 2266 
Q 2766 2663 2505 2880 
Q 2244 3097 1772 3097 
Q 1472 3097 1187 3025 
Q 903 2953 641 2809 
L 641 3341 
Q 956 3463 1253 3523 
Q 1550 3584 1831 3584 
Q 2591 3584 2966 3190 
Q 3341 2797 3341 1997 
z
" transform="scale(0.015625)"/>
       <path id="DejaVuSans-6c" d="M 603 4863 
L 1178 4863 
L 1178 0 
L 603 0 
L 603 4863 
z
" transform="scale(0.015625)"/>
      </defs>
      <use xlink:href="#DejaVuSans-49"/>
      <use xlink:href="#DejaVuSans-6e" x="29.492188"/>
      <use xlink:href="#DejaVuSans-74" x="92.871094"/>
      <use xlink:href="#DejaVuSans-65" x="132.080078"/>
      <use xlink:href="#DejaVuSans-72" x="193.603516"/>
      <use xlink:href="#DejaVuSans-61" x="234.716797"/>
      <use xlink:href="#DejaVuSans-72" x="295.996094"/>
      <use xlink:href="#DejaVuSans-72" x="335.359375"/>
      <use xlink:href="#DejaVuSans-69" x="376.472656"/>
      <use xlink:href="#DejaVuSans-76" x="404.255859"/>
      <use xlink:href="#DejaVuSans-61" x="463.435547"/>
      <use xlink:href="#DejaVuSans-6c" x="524.714844"/>
      <use xlink:href="#DejaVuSans-20" x="552.498047"/>
      <use xlink:href="#DejaVuSans-54" x="584.285156"/>
      <use xlink:href="#DejaVuSans-69" x="642.244141"/>
      <use xlink:href="#DejaVuSans-6d" x="670.027344"/>
      <use xlink:href="#DejaVuSans-65" x="767.439453"/>
      <use xlink:href="#DejaVuSans-20" x="828.962891"/>
      <use xlink:href="#DejaVuSans-28" x="860.75"/>
      <use xlink:href="#DejaVuSans-6d" x="899.763672"/>
      <use xlink:href="#DejaVuSans-73" x="997.175781"/>
      <use xlink:href="#DejaVuSans-29" x="1049.275391"/>
     </g>
    </g>
   </g>
   <g id="line2d_15">
    <path d="M 106.91 61.112856 
L 107.984411 61.340857 
L 108.342449 61.658276 
L 108.700291 61.011147 
L 109.058534 61.689913 
L 109.416357 61.319291 
L 110.132453 61.375164 
L 110.490471 61.061473 
L 110.848682 61.466195 
L 111.206643 61.217738 
L 111.564758 61.644615 
L 111.922609 61.372512 
L 112.996722 61.173549 
L 113.354864 61.389605 
L 114.428877 61.558283 
L 115.144801 61.121732 
L 115.502975 61.579831 
L 115.860866 61.096248 
L 116.93514 61.663736 
L 117.292979 61.039543 
L 117.651204 61.375702 
L 119.799361 61.200073 
L 120.157487 61.4754 
L 120.515442 61.339262 
L 120.873482 61.4905 
L 121.231428 61.302215 
L 121.947501 61.413199 
L 122.305494 61.345485 
L 123.021527 61.366462 
L 124.453523 61.38879 
L 131.9716 61.421971 
L 136.625362 61.417412 
L 138.415302 61.407669 
L 141.279181 61.442739 
L 141.995154 61.434956 
L 142.353134 61.505582 
L 142.711071 61.432338 
L 143.069052 61.225244 
L 143.427163 61.651324 
L 143.785009 61.442982 
L 144.500938 61.438111 
L 144.858916 61.408414 
L 145.216913 61.514388 
L 145.932816 61.451373 
L 147.72263 61.460613 
L 148.438583 61.441769 
L 149.154511 61.447593 
L 150.228445 61.454822 
L 150.586413 61.521687 
L 151.660272 61.444889 
L 154.523912 61.464964 
L 155.597796 61.44482 
L 155.955771 61.523767 
L 157.029643 61.487639 
L 159.535359 61.486131 
L 160.609226 61.479214 
L 164.188709 61.482785 
L 164.54666 61.79249 
L 164.904419 61.512187 
L 166.33615 61.479647 
L 166.694103 61.366826 
L 167.410072 61.694958 
L 168.125816 61.455412 
L 168.841725 61.49603 
L 169.199668 61.327317 
L 169.557715 61.666077 
L 169.915552 61.308369 
L 170.631551 61.588152 
L 170.989436 61.625476 
L 171.347299 61.493135 
L 171.705243 61.50123 
L 172.063182 61.357031 
L 172.421211 61.516278 
L 172.779141 61.496428 
L 173.137083 61.661223 
L 173.494923 61.501646 
L 174.210794 61.459919 
L 174.568759 61.361712 
L 174.926784 61.680604 
L 175.284613 61.332952 
L 176.000578 61.694213 
L 176.358398 61.535989 
L 177.074236 61.510904 
L 177.432169 61.387074 
L 178.148111 61.690156 
L 178.505933 61.539404 
L 179.579711 61.51607 
L 179.937641 61.380296 
L 180.295655 61.678524 
L 180.653485 61.347028 
L 181.01152 61.566742 
L 181.369418 61.649018 
L 181.727266 61.530528 
L 182.443108 61.498301 
L 182.801049 61.38222 
L 183.516995 61.67972 
L 183.874824 61.528482 
L 184.948609 61.533666 
L 185.306528 61.421624 
L 185.664517 61.69872 
L 186.380257 61.347254 
L 186.738291 61.698564 
L 187.096109 61.537514 
L 187.811947 61.529245 
L 188.169869 61.401411 
L 188.885794 61.743134 
L 189.243583 61.541536 
L 190.675269 61.386519 
L 191.033279 61.698859 
L 191.749018 61.367866 
L 192.10704 61.690728 
L 192.464862 61.536647 
L 193.538577 61.531897 
L 193.896497 61.368525 
L 194.254519 61.70874 
L 194.612329 61.53878 
L 195.328144 61.531065 
L 196.044007 61.379013 
L 196.402022 61.718847 
L 196.759827 61.366115 
L 197.47576 61.760314 
L 197.833538 61.550325 
L 198.549353 61.567367 
L 198.907252 61.278448 
L 199.265329 61.579363 
L 199.62322 61.513886 
L 199.981151 61.804434 
L 200.338903 61.567644 
L 201.054719 61.494989 
L 201.412662 61.212676 
L 201.77078 61.602402 
L 202.128656 61.446709 
L 202.486629 61.564506 
L 202.84453 61.908969 
L 203.202216 61.555283 
L 203.560122 61.545298 
L 203.918034 61.235611 
L 204.276138 61.503085 
L 204.634076 61.428108 
L 204.992061 62.032591 
L 205.349671 61.567661 
L 206.423387 61.53852 
L 206.781303 61.264822 
L 207.139389 62.034082 
L 207.854842 61.249081 
L 208.212937 62.02895 
L 208.57055 61.660356 
L 209.286238 61.721413 
L 209.644041 61.379065 
L 210.002056 61.557606 
L 210.35996 61.991921 
L 210.717596 61.68636 
L 211.433294 61.52049 
L 211.791221 61.753709 
L 212.149004 61.397753 
L 212.507008 61.473701 
L 213.222772 61.923132 
L 213.58045 61.646418 
L 214.653988 61.678125 
L 215.011817 61.372824 
L 215.369836 61.627071 
L 216.085569 61.61875 
L 216.443436 61.721361 
L 217.159091 61.662558 
L 218.232617 61.676634 
L 224.673786 61.669284 
L 226.105104 61.653803 
L 227.178666 61.655311 
L 236.840421 61.675975 
L 237.198252 61.453106 
L 237.556221 61.856684 
L 237.913941 61.665938 
L 246.144761 61.62168 
L 248.649781 61.638166 
L 249.365513 61.646314 
L 254.375647 61.612492 
L 255.091358 61.616878 
L 256.5228 61.600495 
L 256.880677 61.495839 
L 257.23862 61.772172 
L 257.954228 61.587181 
L 258.669965 61.618611 
L 261.890737 61.581565 
L 262.248626 61.896522 
L 262.606321 61.316639 
L 262.964375 61.627886 
L 265.111569 61.575185 
L 265.469462 61.674641 
L 266.185175 61.575982 
L 266.900917 61.646591 
L 267.616644 61.6412 
L 268.690209 61.603269 
L 269.048085 61.501404 
L 269.763903 61.664308 
L 270.479627 61.614867 
L 270.837496 61.680084 
L 271.553198 61.62031 
L 272.626781 61.609614 
L 273.700418 61.625684 
L 289.4463 61.602541 
L 289.804177 61.684418 
L 290.877727 61.530251 
L 291.235648 61.720529 
L 291.951308 61.632653 
L 292.667007 61.618299 
L 294.45635 61.632064 
L 297.677055 61.678472 
L 298.392752 61.629082 
L 302.687153 61.611209 
L 303.402857 61.638097 
L 305.192159 61.601587 
L 305.550037 61.683603 
L 306.265733 61.611764 
L 306.623603 61.62298 
L 306.981467 61.402226 
L 307.339468 61.853477 
L 307.697189 61.628337 
L 311.27576 61.625563 
L 311.991518 61.625442 
L 313.065109 61.479855 
L 313.423062 61.777425 
L 313.78083 61.573434 
L 314.138725 61.725279 
L 314.496525 61.608973 
L 316.285824 61.650249 
L 316.643671 61.871367 
L 317.001381 61.361313 
L 317.359407 61.604153 
L 317.717283 61.489841 
L 318.075229 61.724342 
L 318.790877 61.611469 
L 319.506582 61.647337 
L 322.36945 61.596907 
L 323.443045 61.630868 
L 323.800904 61.389085 
L 324.158913 61.821908 
L 324.874479 61.630105 
L 326.66386 61.614468 
L 327.021729 61.705446 
L 327.379542 61.581027 
L 329.884584 61.681922 
L 330.60029 61.617259 
L 331.673865 61.636658 
L 343.840937 61.636502 
L 344.198793 61.44 
L 344.55677 61.80908 
L 344.914519 61.647995 
L 345.988102 61.670983 
L 346.345937 61.466229 
L 346.703898 61.758858 
L 347.061677 61.596161 
L 348.493131 61.673202 
L 348.850964 61.579536 
L 349.566709 61.626915 
L 352.071692 61.633139 
L 356.008116 61.661396 
L 356.365956 61.51548 
L 356.723886 61.7729 
L 357.081657 61.538554 
L 357.439573 61.696518 
L 358.155257 61.63404 
L 361.018123 61.602818 
L 361.733846 61.67393 
L 362.807405 61.647007 
L 366.028088 61.624505 
L 367.101649 61.6792 
L 367.459479 61.586644 
L 368.53311 61.642673 
L 369.24884 61.619201 
L 371.395992 61.624609 
L 373.185286 61.666146 
L 373.543124 61.554486 
L 374.258888 61.664707 
L 376.048154 61.640229 
L 378.553109 61.643523 
L 379.626692 61.625216 
L 379.984555 61.93206 
L 380.342228 61.325723 
L 380.700276 61.663372 
L 381.415984 61.653907 
L 384.636723 61.632046 
L 387.14175 61.655918 
L 388.573196 61.426097 
L 388.931181 61.825965 
L 389.28892 61.646193 
L 392.867453 61.630365 
L 393.225312 61.432268 
L 393.583294 61.82997 
L 393.94103 61.641477 
L 400.740275 61.506917 
L 401.09821 61.735073 
L 401.456005 61.63541 
L 401.813861 61.701251 
L 402.887379 61.588516 
L 403.245264 61.674814 
L 404.318828 61.43981 
L 404.676805 61.823087 
L 405.034545 61.618594 
L 406.465968 61.648724 
L 412.191667 61.604049 
L 412.549543 61.711757 
L 413.265207 61.616704 
L 414.696629 61.64725 
L 415.770205 61.626568 
L 418.275168 61.637143 
L 420.422291 61.634543 
L 420.780147 61.701216 
L 421.853698 61.41573 
L 422.21169 61.849576 
L 422.569414 61.625251 
L 424.358673 61.627175 
L 425.074415 61.649157 
L 428.295062 61.617068 
L 428.652929 61.456019 
L 429.010897 61.88619 
L 429.368598 61.630157 
L 433.304951 61.682806 
L 433.662778 61.590562 
L 434.020662 61.678385 
L 434.736346 61.624921 
L 435.094209 61.916163 
L 435.451891 61.376187 
L 435.809908 61.627435 
L 438.314887 61.641911 
L 439.746263 61.651965 
L 440.104109 61.586991 
L 440.819839 61.653058 
L 441.893419 61.659922 
L 443.324791 61.628267 
L 444.040538 61.623587 
L 447.261236 61.64276 
L 448.334779 61.648221 
L 449.05051 61.641425 
L 451.197616 61.647579 
L 457.996839 61.66807 
L 458.712556 61.617675 
L 460.501869 61.618351 
L 460.859736 61.706591 
L 461.575393 61.613879 
L 462.291103 61.661847 
L 463.006805 61.646487 
L 463.364654 61.68844 
L 463.722478 61.609753 
L 464.438195 61.664222 
L 464.796033 61.587407 
L 465.511768 61.63111 
L 467.301015 61.649001 
L 476.605192 61.644442 
L 476.963042 61.697559 
L 477.32086 61.590302 
L 478.394455 61.644806 
L 481.972981 61.636536 
L 482.330837 61.695236 
L 483.046514 61.628354 
L 488.056414 61.626014 
L 488.414276 61.40096 
L 488.772278 61.859995 
L 489.487836 61.429425 
L 489.84582 61.791276 
L 490.20358 61.673462 
L 490.561412 61.714357 
L 490.91922 61.547084 
L 491.277131 61.629862 
L 491.63499 61.487778 
L 491.992938 61.77446 
L 492.708548 61.624141 
L 493.424235 61.66124 
L 494.497784 61.649105 
L 502.370587 61.627938 
L 502.728447 61.355488 
L 503.086477 61.744487 
L 503.444266 61.624939 
L 503.802128 61.704545 
L 504.517791 61.647943 
L 517.042692 61.668972 
L 517.758401 61.634543 
L 520.263392 61.670099 
L 521.336955 61.622789 
L 522.768359 61.632879 
L 524.915484 61.691682 
L 525.273305 61.59786 
L 525.989024 61.6317 
L 536.008954 61.628891 
L 536.366815 61.680673 
L 537.082513 61.62454 
L 538.156091 61.624159 
L 538.513954 61.730809 
L 538.871751 61.613081 
L 540.30318 61.657322 
L 546.028822 61.648533 
L 546.38667 61.705481 
L 546.744483 61.60001 
L 549.249473 61.693797 
L 550.323017 61.575826 
L 550.68091 61.701754 
L 551.39659 61.637126 
L 552.112272 61.617086 
L 553.185851 61.659558 
L 553.901562 61.651896 
L 556.764361 61.628891 
L 557.122221 61.516451 
L 557.480151 61.64328 
L 559.269413 61.62513 
L 559.627275 61.730635 
L 560.342935 61.636918 
L 561.416502 61.644962 
L 586.823917 61.639934 
L 587.539653 61.652329 
L 588.613212 61.629429 
L 590.044591 61.657461 
L 594.338811 61.630972 
L 594.69667 61.685528 
L 595.412365 61.649954 
L 596.84378 61.633849 
L 597.55946 61.634127 
L 598.27519 61.648776 
L 600.064443 61.69182 
L 601.137982 61.616878 
L 602.569401 61.689064 
L 603.28508 61.593821 
L 604.000805 61.63489 
L 605.790057 61.616254 
L 606.147926 61.481988 
L 606.505877 61.784168 
L 606.863641 61.627123 
L 607.937188 61.705412 
L 609.010738 61.480722 
L 609.36869 61.785885 
L 609.726453 61.645343 
L 610.084303 61.784862 
L 610.442066 61.54197 
L 610.799981 61.687105 
L 611.157805 61.475469 
L 611.51576 61.806705 
L 611.87351 61.615213 
L 612.589212 61.620674 
L 618.672737 61.722678 
L 619.388401 61.63983 
L 620.819835 61.654964 
L 621.177679 61.698183 
L 621.893363 61.638131 
L 623.324788 61.64458 
L 627.261112 61.646626 
L 628.334656 61.624765 
L 628.692519 61.538277 
L 629.050435 61.718362 
L 631.913159 61.449171 
L 632.27113 61.838984 
L 632.62886 61.637057 
L 634.060263 61.795125 
L 634.41802 61.510886 
L 634.775954 61.698148 
L 635.133771 61.601518 
L 636.92304 61.647146 
L 642.290806 61.677258 
L 642.648636 61.51926 
L 643.006564 61.78533 
L 643.364328 61.650578 
L 647.658526 61.663546 
L 648.016365 61.704181 
L 648.374178 61.607846 
L 649.089882 61.658848 
L 650.521298 61.638651 
L 650.879152 61.721239 
L 651.594809 61.53819 
L 651.952725 61.732178 
L 652.668365 61.664274 
L 655.889039 61.597826 
L 656.246918 61.697957 
L 657.320443 61.62565 
L 659.109718 61.605124 
L 659.825435 61.62239 
L 662.688242 61.751473 
L 663.046026 61.54346 
L 663.40394 61.521964 
L 663.761866 61.762325 
L 664.477478 61.619842 
L 669.129622 61.675854 
L 669.487454 61.702863 
L 669.845268 61.60157 
L 670.560989 61.651757 
L 671.276704 61.65063 
L 671.63455 61.658328 
L 671.992392 61.429772 
L 672.350376 61.81487 
L 673.065951 61.562426 
L 673.423852 61.709347 
L 674.13952 61.633728 
L 674.855209 61.705654 
L 675.570883 61.627678 
L 677.360165 61.658154 
L 679.507277 61.618108 
L 681.296536 61.657131 
L 682.370084 61.633988 
L 683.085765 61.636554 
L 684.159305 61.64751 
L 687.379924 61.640645 
L 688.811311 61.666267 
L 690.600553 61.621194 
L 691.674118 61.660512 
L 698.831122 61.534082 
L 699.18904 61.81097 
L 699.546788 61.654358 
L 700.97818 61.612596 
L 701.693878 61.668036 
L 703.125255 61.612388 
L 704.914508 61.658796 
L 706.34591 61.641703 
L 708.49302 61.631908 
L 708.850878 61.541397 
L 709.208793 61.716177 
L 710.28229 61.653682 
L 712.071539 61.656993 
L 714.576483 61.653023 
L 717.081463 61.629585 
L 717.439323 61.707041 
L 717.797135 61.497902 
L 718.155076 61.765411 
L 718.512852 61.621212 
L 720.302123 61.655901 
L 724.596297 61.64087 
L 726.385559 61.655138 
L 727.816975 61.499757 
L 728.174916 61.691682 
L 728.890599 61.645083 
L 730.322029 61.65408 
L 730.679873 61.428923 
L 731.037858 61.917359 
L 731.753393 61.494019 
L 732.111337 61.794292 
L 732.469095 61.585326 
L 733.184821 61.660651 
L 734.616231 61.658414 
L 737.121143 61.66885 
L 737.836848 61.662159 
L 742.13099 61.637715 
L 743.562391 61.692861 
L 743.920211 61.485906 
L 744.27816 61.856684 
L 744.63588 61.646383 
L 745.351601 61.656507 
L 749.287969 61.636415 
L 750.003639 61.667862 
L 751.077181 61.6209 
L 756.444871 61.653976 
L 758.234143 61.639206 
L 759.307686 61.660841 
L 761.096907 61.637577 
L 761.454762 61.657461 
L 761.454762 61.657461 
" clip-path="url(#p69eaaf5f12)" style="fill: none; stroke: #1f77b4; stroke-width: 1.5; stroke-linecap: square"/>
   </g>
   <g id="line2d_16">
    <path d="M 106.91 61.612729 
L 794.182 61.612729 
" clip-path="url(#p69eaaf5f12)" style="fill: none; stroke-dasharray: 5.55,2.4; stroke-dashoffset: 0; stroke: #0000ff; stroke-width: 1.5"/>
   </g>
   <g id="patch_3">
    <path d="M 106.91 639.64 
L 106.91 60.96 
" style="fill: none; stroke: #000000; stroke-width: 0.8; stroke-linejoin: miter; stroke-linecap: square"/>
   </g>
   <g id="patch_4">
    <path d="M 794.182 639.64 
L 794.182 60.96 
" style="fill: none; stroke: #000000; stroke-width: 0.8; stroke-linejoin: miter; stroke-linecap: square"/>
   </g>
   <g id="patch_5">
    <path d="M 106.91 639.64 
L 794.182 639.64 
" style="fill: none; stroke: #000000; stroke-width: 0.8; stroke-linejoin: miter; stroke-linecap: square"/>
   </g>
   <g id="patch_6">
    <path d="M 106.91 60.96 
L 794.182 60.96 
" style="fill: none; stroke: #000000; stroke-width: 0.8; stroke-linejoin: miter; stroke-linecap: square"/>
   </g>
   <g id="text_17">
    <!-- Interarrival Time (SelectionProcess: 16777217) -->
    <g transform="translate(252.861188 54.96) scale(0.168 -0.168)">
     <defs>
      <path id="DejaVuSans-53" d="M 3425 4513 
L 3425 3897 
Q 3066 4069 2747 4153 
Q 2428 4238 2131 4238 
Q 1616 4238 1336 4038 
Q 1056 3838 1056 3469 
Q 1056 3159 1242 3001 
Q 1428 2844 1947 2747 
L 2328 2669 
Q 3034 2534 3370 2195 
Q 3706 1856 3706 1288 
Q 3706 609 3251 259 
Q 2797 -91 1919 -91 
Q 1588 -91 1214 -16 
Q 841 59 441 206 
L 441 856 
Q 825 641 1194 531 
Q 1563 422 1919 422 
Q 2459 422 2753 634 
Q 3047 847 3047 1241 
Q 3047 1584 2836 1778 
Q 2625 1972 2144 2069 
L 1759 2144 
Q 1053 2284 737 2584 
Q 422 2884 422 3419 
Q 422 4038 858 4394 
Q 1294 4750 2059 4750 
Q 2388 4750 2728 4690 
Q 3069 4631 3425 4513 
z
" transform="scale(0.015625)"/>
      <path id="DejaVuSans-63" d="M 3122 3366 
L 3122 2828 
Q 2878 2963 2633 3030 
Q 2388 3097 2138 3097 
Q 1578 3097 1268 2742 
Q 959 2388 959 1747 
Q 959 1106 1268 751 
Q 1578 397 2138 397 
Q 2388 397 2633 464 
Q 2878 531 3122 666 
L 3122 134 
Q 2881 22 2623 -34 
Q 2366 -91 2075 -91 
Q 1284 -91 818 406 
Q 353 903 353 1747 
Q 353 2603 823 3093 
Q 1294 3584 2113 3584 
Q 2378 3584 2631 3529 
Q 2884 3475 3122 3366 
z
" transform="scale(0.015625)"/>
      <path id="DejaVuSans-6f" d="M 1959 3097 
Q 1497 3097 1228 2736 
Q 959 2375 959 1747 
Q 959 1119 1226 758 
Q 1494 397 1959 397 
Q 2419 397 2687 759 
Q 2956 1122 2956 1747 
Q 2956 2369 2687 2733 
Q 2419 3097 1959 3097 
z
M 1959 3584 
Q 2709 3584 3137 3096 
Q 3566 2609 3566 1747 
Q 3566 888 3137 398 
Q 2709 -91 1959 -91 
Q 1206 -91 779 398 
Q 353 888 353 1747 
Q 353 2609 779 3096 
Q 1206 3584 1959 3584 
z
" transform="scale(0.015625)"/>
      <path id="DejaVuSans-50" d="M 1259 4147 
L 1259 2394 
L 2053 2394 
Q 2494 2394 2734 2622 
Q 2975 2850 2975 3272 
Q 2975 3691 2734 3919 
Q 2494 4147 2053 4147 
L 1259 4147 
z
M 628 4666 
L 2053 4666 
Q 2838 4666 3239 4311 
Q 3641 3956 3641 3272 
Q 3641 2581 3239 2228 
Q 2838 1875 2053 1875 
L 1259 1875 
L 1259 0 
L 628 0 
L 628 4666 
z
" transform="scale(0.015625)"/>
      <path id="DejaVuSans-3a" d="M 750 794 
L 1409 794 
L 1409 0 
L 750 0 
L 750 794 
z
M 750 3309 
L 1409 3309 
L 1409 2516 
L 750 2516 
L 750 3309 
z
" transform="scale(0.015625)"/>
      <path id="DejaVuSans-37" d="M 525 4666 
L 3525 4666 
L 3525 4397 
L 1831 0 
L 1172 0 
L 2766 4134 
L 525 4134 
L 525 4666 
z
" transform="scale(0.015625)"/>
     </defs>
     <use xlink:href="#DejaVuSans-49"/>
     <use xlink:href="#DejaVuSans-6e" x="29.492188"/>
     <use xlink:href="#DejaVuSans-74" x="92.871094"/>
     <use xlink:href="#DejaVuSans-65" x="132.080078"/>
     <use xlink:href="#DejaVuSans-72" x="193.603516"/>
     <use xlink:href="#DejaVuSans-61" x="234.716797"/>
     <use xlink:href="#DejaVuSans-72" x="295.996094"/>
     <use xlink:href="#DejaVuSans-72" x="335.359375"/>
     <use xlink:href="#DejaVuSans-69" x="376.472656"/>
     <use xlink:href="#DejaVuSans-76" x="404.255859"/>
     <use xlink:href="#DejaVuSans-61" x="463.435547"/>
     <use xlink:href="#DejaVuSans-6c" x="524.714844"/>
     <use xlink:href="#DejaVuSans-20" x="552.498047"/>
     <use xlink:href="#DejaVuSans-54" x="584.285156"/>
     <use xlink:href="#DejaVuSans-69" x="642.244141"/>
     <use xlink:href="#DejaVuSans-6d" x="670.027344"/>
     <use xlink:href="#DejaVuSans-65" x="767.439453"/>
     <use xlink:href="#DejaVuSans-20" x="828.962891"/>
     <use xlink:href="#DejaVuSans-28" x="860.75"/>
     <use xlink:href="#DejaVuSans-53" x="899.763672"/>
     <use xlink:href="#DejaVuSans-65" x="963.240234"/>
     <use xlink:href="#DejaVuSans-6c" x="1024.763672"/>
     <use xlink:href="#DejaVuSans-65" x="1052.546875"/>
     <use xlink:href="#DejaVuSans-63" x="1114.070312"/>
     <use xlink:href="#DejaVuSans-74" x="1169.050781"/>
     <use xlink:href="#DejaVuSans-69" x="1208.259766"/>
     <use xlink:href="#DejaVuSans-6f" x="1236.042969"/>
     <use xlink:href="#DejaVuSans-6e" x="1297.224609"/>
     <use xlink:href="#DejaVuSans-50" x="1360.603516"/>
     <use xlink:href="#DejaVuSans-72" x="1419.15625"/>
     <use xlink:href="#DejaVuSans-6f" x="1458.019531"/>
     <use xlink:href="#DejaVuSans-63" x="1519.201172"/>
     <use xlink:href="#DejaVuSans-65" x="1574.181641"/>
     <use xlink:href="#DejaVuSans-73" x="1635.705078"/>
     <use xlink:href="#DejaVuSans-73" x="1687.804688"/>
     <use xlink:href="#DejaVuSans-3a" x="1739.904297"/>
     <use xlink:href="#DejaVuSans-20" x="1773.595703"/>
     <use xlink:href="#DejaVuSans-31" x="1805.382812"/>
     <use xlink:href="#DejaVuSans-36" x="1869.005859"/>
     <use xlink:href="#DejaVuSans-37" x="1932.628906"/>
     <use xlink:href="#DejaVuSans-37" x="1996.251953"/>
     <use xlink:href="#DejaVuSans-37" x="2059.875"/>
     <use xlink:href="#DejaVuSans-32" x="2123.498047"/>
     <use xlink:href="#DejaVuSans-31" x="2187.121094"/>
     <use xlink:href="#DejaVuSans-37" x="2250.744141"/>
     <use xlink:href="#DejaVuSans-29" x="2314.367188"/>
    </g>
   </g>
   <g id="legend_1">
    <g id="patch_7">
     <path d="M 803.982 372.949375 
L 1026.776687 372.949375 
Q 1029.576687 372.949375 1029.576687 370.149375 
L 1029.576687 330.450625 
Q 1029.576687 327.650625 1026.776687 327.650625 
L 803.982 327.650625 
Q 801.182 327.650625 801.182 330.450625 
L 801.182 370.149375 
Q 801.182 372.949375 803.982 372.949375 
z
" style="fill: #ffffff; opacity: 0.8; stroke: #cccccc; stroke-linejoin: miter"/>
    </g>
    <g id="line2d_17">
     <path d="M 806.782 338.988438 
L 820.782 338.988438 
L 834.782 338.988438 
" style="fill: none; stroke: #1f77b4; stroke-width: 1.5; stroke-linecap: square"/>
    </g>
    <g id="text_18">
     <!-- Interarrival Times -->
     <g transform="translate(845.982 343.888438) scale(0.14 -0.14)">
      <use xlink:href="#DejaVuSans-49"/>
      <use xlink:href="#DejaVuSans-6e" x="29.492188"/>
      <use xlink:href="#DejaVuSans-74" x="92.871094"/>
      <use xlink:href="#DejaVuSans-65" x="132.080078"/>
      <use xlink:href="#DejaVuSans-72" x="193.603516"/>
      <use xlink:href="#DejaVuSans-61" x="234.716797"/>
      <use xlink:href="#DejaVuSans-72" x="295.996094"/>
      <use xlink:href="#DejaVuSans-72" x="335.359375"/>
      <use xlink:href="#DejaVuSans-69" x="376.472656"/>
      <use xlink:href="#DejaVuSans-76" x="404.255859"/>
      <use xlink:href="#DejaVuSans-61" x="463.435547"/>
      <use xlink:href="#DejaVuSans-6c" x="524.714844"/>
      <use xlink:href="#DejaVuSans-20" x="552.498047"/>
      <use xlink:href="#DejaVuSans-54" x="584.285156"/>
      <use xlink:href="#DejaVuSans-69" x="642.244141"/>
      <use xlink:href="#DejaVuSans-6d" x="670.027344"/>
      <use xlink:href="#DejaVuSans-65" x="767.439453"/>
      <use xlink:href="#DejaVuSans-73" x="828.962891"/>
     </g>
    </g>
    <g id="line2d_18">
     <path d="M 806.782 359.537813 
L 820.782 359.537813 
L 834.782 359.537813 
" style="fill: none; stroke-dasharray: 5.55,2.4; stroke-dashoffset: 0; stroke: #0000ff; stroke-width: 1.5"/>
    </g>
    <g id="text_19">
     <!-- Interarrival Time Average -->
     <g transform="translate(845.982 364.437813) scale(0.14 -0.14)">
      <defs>
       <path id="DejaVuSans-41" d="M 2188 4044 
L 1331 1722 
L 3047 1722 
L 2188 4044 
z
M 1831 4666 
L 2547 4666 
L 4325 0 
L 3669 0 
L 3244 1197 
L 1141 1197 
L 716 0 
L 50 0 
L 1831 4666 
z
" transform="scale(0.015625)"/>
       <path id="DejaVuSans-67" d="M 2906 1791 
Q 2906 2416 2648 2759 
Q 2391 3103 1925 3103 
Q 1463 3103 1205 2759 
Q 947 2416 947 1791 
Q 947 1169 1205 825 
Q 1463 481 1925 481 
Q 2391 481 2648 825 
Q 2906 1169 2906 1791 
z
M 3481 434 
Q 3481 -459 3084 -895 
Q 2688 -1331 1869 -1331 
Q 1566 -1331 1297 -1286 
Q 1028 -1241 775 -1147 
L 775 -588 
Q 1028 -725 1275 -790 
Q 1522 -856 1778 -856 
Q 2344 -856 2625 -561 
Q 2906 -266 2906 331 
L 2906 616 
Q 2728 306 2450 153 
Q 2172 0 1784 0 
Q 1141 0 747 490 
Q 353 981 353 1791 
Q 353 2603 747 3093 
Q 1141 3584 1784 3584 
Q 2172 3584 2450 3431 
Q 2728 3278 2906 2969 
L 2906 3500 
L 3481 3500 
L 3481 434 
z
" transform="scale(0.015625)"/>
      </defs>
      <use xlink:href="#DejaVuSans-49"/>
      <use xlink:href="#DejaVuSans-6e" x="29.492188"/>
      <use xlink:href="#DejaVuSans-74" x="92.871094"/>
      <use xlink:href="#DejaVuSans-65" x="132.080078"/>
      <use xlink:href="#DejaVuSans-72" x="193.603516"/>
      <use xlink:href="#DejaVuSans-61" x="234.716797"/>
      <use xlink:href="#DejaVuSans-72" x="295.996094"/>
      <use xlink:href="#DejaVuSans-72" x="335.359375"/>
      <use xlink:href="#DejaVuSans-69" x="376.472656"/>
      <use xlink:href="#DejaVuSans-76" x="404.255859"/>
      <use xlink:href="#DejaVuSans-61" x="463.435547"/>
      <use xlink:href="#DejaVuSans-6c" x="524.714844"/>
      <use xlink:href="#DejaVuSans-20" x="552.498047"/>
      <use xlink:href="#DejaVuSans-54" x="584.285156"/>
      <use xlink:href="#DejaVuSans-69" x="642.244141"/>
      <use xlink:href="#DejaVuSans-6d" x="670.027344"/>
      <use xlink:href="#DejaVuSans-65" x="767.439453"/>
      <use xlink:href="#DejaVuSans-20" x="828.962891"/>
      <use xlink:href="#DejaVuSans-41" x="860.75"/>
      <use xlink:href="#DejaVuSans-76" x="923.283203"/>
      <use xlink:href="#DejaVuSans-65" x="982.462891"/>
      <use xlink:href="#DejaVuSans-72" x="1043.986328"/>
      <use xlink:href="#DejaVuSans-61" x="1085.099609"/>
      <use xlink:href="#DejaVuSans-67" x="1146.378906"/>
      <use xlink:href="#DejaVuSans-65" x="1209.855469"/>
     </g>
    </g>
   </g>
  </g>
 </g>
 <defs>
  <clipPath id="p69eaaf5f12">
   <rect x="106.91" y="60.96" width="687.272" height="578.68"/>
  </clipPath>
 </defs>
</svg>
