<?xml version="1.0" encoding="utf-8" standalone="no"?>
<!DOCTYPE svg PUBLIC "-//W3C//DTD SVG 1.1//EN"
  "http://www.w3.org/Graphics/SVG/1.1/DTD/svg11.dtd">
<svg xmlns:xlink="http://www.w3.org/1999/xlink" width="1008pt" height="720pt" viewBox="0 0 1008 720" xmlns="http://www.w3.org/2000/svg" version="1.1">
 <metadata>
  <rdf:RDF xmlns:dc="http://purl.org/dc/elements/1.1/" xmlns:cc="http://creativecommons.org/ns#" xmlns:rdf="http://www.w3.org/1999/02/22-rdf-syntax-ns#">
   <cc:Work>
    <dc:type rdf:resource="http://purl.org/dc/dcmitype/StillImage"/>
    <dc:date>2023-04-14T11:38:23.604161</dc:date>
    <dc:format>image/svg+xml</dc:format>
    <dc:creator>
     <cc:Agent>
      <dc:title>Matplotlib v3.6.2, https://matplotlib.org/</dc:title>
     </cc:Agent>
    </dc:creator>
   </cc:Work>
  </rdf:RDF>
 </metadata>
 <defs>
  <style type="text/css">*{stroke-linejoin: round; stroke-linecap: butt}</style>
 </defs>
 <g id="figure_1">
  <g id="patch_1">
   <path d="M 0 720 
L 1008 720 
L 1008 0 
L 0 0 
z
" style="fill: #ffffff"/>
  </g>
  <g id="axes_1">
   <g id="patch_2">
    <path d="M 63.77 658.84 
L 795.154 658.84 
L 795.154 46.08 
L 63.77 46.08 
z
" style="fill: #ffffff"/>
   </g>
   <g id="matplotlib.axis_1">
    <g id="xtick_1">
     <g id="line2d_1">
      <defs>
       <path id="m1c09ace07e" d="M 0 0 
L 0 3.5 
" style="stroke: #000000; stroke-width: 0.8"/>
      </defs>
      <g>
       <use xlink:href="#m1c09ace07e" x="63.77" y="658.84" style="stroke: #000000; stroke-width: 0.8"/>
      </g>
     </g>
     <g id="text_1">
      <!-- 0 -->
      <g transform="translate(60.58875 673.438437) scale(0.1 -0.1)">
       <defs>
        <path id="DejaVuSans-30" d="M 2034 4250 
Q 1547 4250 1301 3770 
Q 1056 3291 1056 2328 
Q 1056 1369 1301 889 
Q 1547 409 2034 409 
Q 2525 409 2770 889 
Q 3016 1369 3016 2328 
Q 3016 3291 2770 3770 
Q 2525 4250 2034 4250 
z
M 2034 4750 
Q 2819 4750 3233 4129 
Q 3647 3509 3647 2328 
Q 3647 1150 3233 529 
Q 2819 -91 2034 -91 
Q 1250 -91 836 529 
Q 422 1150 422 2328 
Q 422 3509 836 4129 
Q 1250 4750 2034 4750 
z
" transform="scale(0.015625)"/>
       </defs>
       <use xlink:href="#DejaVuSans-30"/>
      </g>
     </g>
    </g>
    <g id="xtick_2">
     <g id="line2d_2">
      <g>
       <use xlink:href="#m1c09ace07e" x="177.929605" y="658.84" style="stroke: #000000; stroke-width: 0.8"/>
      </g>
     </g>
     <g id="text_2">
      <!-- 10 -->
      <g transform="translate(171.567105 673.438437) scale(0.1 -0.1)">
       <defs>
        <path id="DejaVuSans-31" d="M 794 531 
L 1825 531 
L 1825 4091 
L 703 3866 
L 703 4441 
L 1819 4666 
L 2450 4666 
L 2450 531 
L 3481 531 
L 3481 0 
L 794 0 
L 794 531 
z
" transform="scale(0.015625)"/>
       </defs>
       <use xlink:href="#DejaVuSans-31"/>
       <use xlink:href="#DejaVuSans-30" x="63.623047"/>
      </g>
     </g>
    </g>
    <g id="xtick_3">
     <g id="line2d_3">
      <g>
       <use xlink:href="#m1c09ace07e" x="292.089209" y="658.84" style="stroke: #000000; stroke-width: 0.8"/>
      </g>
     </g>
     <g id="text_3">
      <!-- 20 -->
      <g transform="translate(285.726709 673.438437) scale(0.1 -0.1)">
       <defs>
        <path id="DejaVuSans-32" d="M 1228 531 
L 3431 531 
L 3431 0 
L 469 0 
L 469 531 
Q 828 903 1448 1529 
Q 2069 2156 2228 2338 
Q 2531 2678 2651 2914 
Q 2772 3150 2772 3378 
Q 2772 3750 2511 3984 
Q 2250 4219 1831 4219 
Q 1534 4219 1204 4116 
Q 875 4013 500 3803 
L 500 4441 
Q 881 4594 1212 4672 
Q 1544 4750 1819 4750 
Q 2544 4750 2975 4387 
Q 3406 4025 3406 3419 
Q 3406 3131 3298 2873 
Q 3191 2616 2906 2266 
Q 2828 2175 2409 1742 
Q 1991 1309 1228 531 
z
" transform="scale(0.015625)"/>
       </defs>
       <use xlink:href="#DejaVuSans-32"/>
       <use xlink:href="#DejaVuSans-30" x="63.623047"/>
      </g>
     </g>
    </g>
    <g id="xtick_4">
     <g id="line2d_4">
      <g>
       <use xlink:href="#m1c09ace07e" x="406.248814" y="658.84" style="stroke: #000000; stroke-width: 0.8"/>
      </g>
     </g>
     <g id="text_4">
      <!-- 30 -->
      <g transform="translate(399.886314 673.438437) scale(0.1 -0.1)">
       <defs>
        <path id="DejaVuSans-33" d="M 2597 2516 
Q 3050 2419 3304 2112 
Q 3559 1806 3559 1356 
Q 3559 666 3084 287 
Q 2609 -91 1734 -91 
Q 1441 -91 1130 -33 
Q 819 25 488 141 
L 488 750 
Q 750 597 1062 519 
Q 1375 441 1716 441 
Q 2309 441 2620 675 
Q 2931 909 2931 1356 
Q 2931 1769 2642 2001 
Q 2353 2234 1838 2234 
L 1294 2234 
L 1294 2753 
L 1863 2753 
Q 2328 2753 2575 2939 
Q 2822 3125 2822 3475 
Q 2822 3834 2567 4026 
Q 2313 4219 1838 4219 
Q 1578 4219 1281 4162 
Q 984 4106 628 3988 
L 628 4550 
Q 988 4650 1302 4700 
Q 1616 4750 1894 4750 
Q 2613 4750 3031 4423 
Q 3450 4097 3450 3541 
Q 3450 3153 3228 2886 
Q 3006 2619 2597 2516 
z
" transform="scale(0.015625)"/>
       </defs>
       <use xlink:href="#DejaVuSans-33"/>
       <use xlink:href="#DejaVuSans-30" x="63.623047"/>
      </g>
     </g>
    </g>
    <g id="xtick_5">
     <g id="line2d_5">
      <g>
       <use xlink:href="#m1c09ace07e" x="520.408419" y="658.84" style="stroke: #000000; stroke-width: 0.8"/>
      </g>
     </g>
     <g id="text_5">
      <!-- 40 -->
      <g transform="translate(514.045919 673.438437) scale(0.1 -0.1)">
       <defs>
        <path id="DejaVuSans-34" d="M 2419 4116 
L 825 1625 
L 2419 1625 
L 2419 4116 
z
M 2253 4666 
L 3047 4666 
L 3047 1625 
L 3713 1625 
L 3713 1100 
L 3047 1100 
L 3047 0 
L 2419 0 
L 2419 1100 
L 313 1100 
L 313 1709 
L 2253 4666 
z
" transform="scale(0.015625)"/>
       </defs>
       <use xlink:href="#DejaVuSans-34"/>
       <use xlink:href="#DejaVuSans-30" x="63.623047"/>
      </g>
     </g>
    </g>
    <g id="xtick_6">
     <g id="line2d_6">
      <g>
       <use xlink:href="#m1c09ace07e" x="634.568024" y="658.84" style="stroke: #000000; stroke-width: 0.8"/>
      </g>
     </g>
     <g id="text_6">
      <!-- 50 -->
      <g transform="translate(628.205524 673.438437) scale(0.1 -0.1)">
       <defs>
        <path id="DejaVuSans-35" d="M 691 4666 
L 3169 4666 
L 3169 4134 
L 1269 4134 
L 1269 2991 
Q 1406 3038 1543 3061 
Q 1681 3084 1819 3084 
Q 2600 3084 3056 2656 
Q 3513 2228 3513 1497 
Q 3513 744 3044 326 
Q 2575 -91 1722 -91 
Q 1428 -91 1123 -41 
Q 819 9 494 109 
L 494 744 
Q 775 591 1075 516 
Q 1375 441 1709 441 
Q 2250 441 2565 725 
Q 2881 1009 2881 1497 
Q 2881 1984 2565 2268 
Q 2250 2553 1709 2553 
Q 1456 2553 1204 2497 
Q 953 2441 691 2322 
L 691 4666 
z
" transform="scale(0.015625)"/>
       </defs>
       <use xlink:href="#DejaVuSans-35"/>
       <use xlink:href="#DejaVuSans-30" x="63.623047"/>
      </g>
     </g>
    </g>
    <g id="xtick_7">
     <g id="line2d_7">
      <g>
       <use xlink:href="#m1c09ace07e" x="748.727628" y="658.84" style="stroke: #000000; stroke-width: 0.8"/>
      </g>
     </g>
     <g id="text_7">
      <!-- 60 -->
      <g transform="translate(742.365128 673.438437) scale(0.1 -0.1)">
       <defs>
        <path id="DejaVuSans-36" d="M 2113 2584 
Q 1688 2584 1439 2293 
Q 1191 2003 1191 1497 
Q 1191 994 1439 701 
Q 1688 409 2113 409 
Q 2538 409 2786 701 
Q 3034 994 3034 1497 
Q 3034 2003 2786 2293 
Q 2538 2584 2113 2584 
z
M 3366 4563 
L 3366 3988 
Q 3128 4100 2886 4159 
Q 2644 4219 2406 4219 
Q 1781 4219 1451 3797 
Q 1122 3375 1075 2522 
Q 1259 2794 1537 2939 
Q 1816 3084 2150 3084 
Q 2853 3084 3261 2657 
Q 3669 2231 3669 1497 
Q 3669 778 3244 343 
Q 2819 -91 2113 -91 
Q 1303 -91 875 529 
Q 447 1150 447 2328 
Q 447 3434 972 4092 
Q 1497 4750 2381 4750 
Q 2619 4750 2861 4703 
Q 3103 4656 3366 4563 
z
" transform="scale(0.015625)"/>
       </defs>
       <use xlink:href="#DejaVuSans-36"/>
       <use xlink:href="#DejaVuSans-30" x="63.623047"/>
      </g>
     </g>
    </g>
    <g id="text_8">
     <!-- Time (s) -->
     <g transform="translate(409.133094 687.116562) scale(0.1 -0.1)">
      <defs>
       <path id="DejaVuSans-54" d="M -19 4666 
L 3928 4666 
L 3928 4134 
L 2272 4134 
L 2272 0 
L 1638 0 
L 1638 4134 
L -19 4134 
L -19 4666 
z
" transform="scale(0.015625)"/>
       <path id="DejaVuSans-69" d="M 603 3500 
L 1178 3500 
L 1178 0 
L 603 0 
L 603 3500 
z
M 603 4863 
L 1178 4863 
L 1178 4134 
L 603 4134 
L 603 4863 
z
" transform="scale(0.015625)"/>
       <path id="DejaVuSans-6d" d="M 3328 2828 
Q 3544 3216 3844 3400 
Q 4144 3584 4550 3584 
Q 5097 3584 5394 3201 
Q 5691 2819 5691 2113 
L 5691 0 
L 5113 0 
L 5113 2094 
Q 5113 2597 4934 2840 
Q 4756 3084 4391 3084 
Q 3944 3084 3684 2787 
Q 3425 2491 3425 1978 
L 3425 0 
L 2847 0 
L 2847 2094 
Q 2847 2600 2669 2842 
Q 2491 3084 2119 3084 
Q 1678 3084 1418 2786 
Q 1159 2488 1159 1978 
L 1159 0 
L 581 0 
L 581 3500 
L 1159 3500 
L 1159 2956 
Q 1356 3278 1631 3431 
Q 1906 3584 2284 3584 
Q 2666 3584 2933 3390 
Q 3200 3197 3328 2828 
z
" transform="scale(0.015625)"/>
       <path id="DejaVuSans-65" d="M 3597 1894 
L 3597 1613 
L 953 1613 
Q 991 1019 1311 708 
Q 1631 397 2203 397 
Q 2534 397 2845 478 
Q 3156 559 3463 722 
L 3463 178 
Q 3153 47 2828 -22 
Q 2503 -91 2169 -91 
Q 1331 -91 842 396 
Q 353 884 353 1716 
Q 353 2575 817 3079 
Q 1281 3584 2069 3584 
Q 2775 3584 3186 3129 
Q 3597 2675 3597 1894 
z
M 3022 2063 
Q 3016 2534 2758 2815 
Q 2500 3097 2075 3097 
Q 1594 3097 1305 2825 
Q 1016 2553 972 2059 
L 3022 2063 
z
" transform="scale(0.015625)"/>
       <path id="DejaVuSans-20" transform="scale(0.015625)"/>
       <path id="DejaVuSans-28" d="M 1984 4856 
Q 1566 4138 1362 3434 
Q 1159 2731 1159 2009 
Q 1159 1288 1364 580 
Q 1569 -128 1984 -844 
L 1484 -844 
Q 1016 -109 783 600 
Q 550 1309 550 2009 
Q 550 2706 781 3412 
Q 1013 4119 1484 4856 
L 1984 4856 
z
" transform="scale(0.015625)"/>
       <path id="DejaVuSans-73" d="M 2834 3397 
L 2834 2853 
Q 2591 2978 2328 3040 
Q 2066 3103 1784 3103 
Q 1356 3103 1142 2972 
Q 928 2841 928 2578 
Q 928 2378 1081 2264 
Q 1234 2150 1697 2047 
L 1894 2003 
Q 2506 1872 2764 1633 
Q 3022 1394 3022 966 
Q 3022 478 2636 193 
Q 2250 -91 1575 -91 
Q 1294 -91 989 -36 
Q 684 19 347 128 
L 347 722 
Q 666 556 975 473 
Q 1284 391 1588 391 
Q 1994 391 2212 530 
Q 2431 669 2431 922 
Q 2431 1156 2273 1281 
Q 2116 1406 1581 1522 
L 1381 1569 
Q 847 1681 609 1914 
Q 372 2147 372 2553 
Q 372 3047 722 3315 
Q 1072 3584 1716 3584 
Q 2034 3584 2315 3537 
Q 2597 3491 2834 3397 
z
" transform="scale(0.015625)"/>
       <path id="DejaVuSans-29" d="M 513 4856 
L 1013 4856 
Q 1481 4119 1714 3412 
Q 1947 2706 1947 2009 
Q 1947 1309 1714 600 
Q 1481 -109 1013 -844 
L 513 -844 
Q 928 -128 1133 580 
Q 1338 1288 1338 2009 
Q 1338 2731 1133 3434 
Q 928 4138 513 4856 
z
" transform="scale(0.015625)"/>
      </defs>
      <use xlink:href="#DejaVuSans-54"/>
      <use xlink:href="#DejaVuSans-69" x="57.958984"/>
      <use xlink:href="#DejaVuSans-6d" x="85.742188"/>
      <use xlink:href="#DejaVuSans-65" x="183.154297"/>
      <use xlink:href="#DejaVuSans-20" x="244.677734"/>
      <use xlink:href="#DejaVuSans-28" x="276.464844"/>
      <use xlink:href="#DejaVuSans-73" x="315.478516"/>
      <use xlink:href="#DejaVuSans-29" x="367.578125"/>
     </g>
    </g>
   </g>
   <g id="matplotlib.axis_2">
    <g id="ytick_1">
     <g id="line2d_8">
      <defs>
       <path id="mf21c1a717a" d="M 0 0 
L -3.5 0 
" style="stroke: #000000; stroke-width: 0.8"/>
      </defs>
      <g>
       <use xlink:href="#mf21c1a717a" x="63.77" y="658.84" style="stroke: #000000; stroke-width: 0.8"/>
      </g>
     </g>
     <g id="text_9">
      <!-- 0 -->
      <g transform="translate(50.4075 662.639219) scale(0.1 -0.1)">
       <use xlink:href="#DejaVuSans-30"/>
      </g>
     </g>
    </g>
    <g id="ytick_2">
     <g id="line2d_9">
      <g>
       <use xlink:href="#mf21c1a717a" x="63.77" y="556.767382" style="stroke: #000000; stroke-width: 0.8"/>
      </g>
     </g>
     <g id="text_10">
      <!-- 5 -->
      <g transform="translate(50.4075 560.566601) scale(0.1 -0.1)">
       <use xlink:href="#DejaVuSans-35"/>
      </g>
     </g>
    </g>
    <g id="ytick_3">
     <g id="line2d_10">
      <g>
       <use xlink:href="#mf21c1a717a" x="63.77" y="454.694765" style="stroke: #000000; stroke-width: 0.8"/>
      </g>
     </g>
     <g id="text_11">
      <!-- 10 -->
      <g transform="translate(44.045 458.493984) scale(0.1 -0.1)">
       <use xlink:href="#DejaVuSans-31"/>
       <use xlink:href="#DejaVuSans-30" x="63.623047"/>
      </g>
     </g>
    </g>
    <g id="ytick_4">
     <g id="line2d_11">
      <g>
       <use xlink:href="#mf21c1a717a" x="63.77" y="352.622147" style="stroke: #000000; stroke-width: 0.8"/>
      </g>
     </g>
     <g id="text_12">
      <!-- 15 -->
      <g transform="translate(44.045 356.421366) scale(0.1 -0.1)">
       <use xlink:href="#DejaVuSans-31"/>
       <use xlink:href="#DejaVuSans-35" x="63.623047"/>
      </g>
     </g>
    </g>
    <g id="ytick_5">
     <g id="line2d_12">
      <g>
       <use xlink:href="#mf21c1a717a" x="63.77" y="250.54953" style="stroke: #000000; stroke-width: 0.8"/>
      </g>
     </g>
     <g id="text_13">
      <!-- 20 -->
      <g transform="translate(44.045 254.348749) scale(0.1 -0.1)">
       <use xlink:href="#DejaVuSans-32"/>
       <use xlink:href="#DejaVuSans-30" x="63.623047"/>
      </g>
     </g>
    </g>
    <g id="ytick_6">
     <g id="line2d_13">
      <g>
       <use xlink:href="#mf21c1a717a" x="63.77" y="148.476912" style="stroke: #000000; stroke-width: 0.8"/>
      </g>
     </g>
     <g id="text_14">
      <!-- 25 -->
      <g transform="translate(44.045 152.276131) scale(0.1 -0.1)">
       <use xlink:href="#DejaVuSans-32"/>
       <use xlink:href="#DejaVuSans-35" x="63.623047"/>
      </g>
     </g>
    </g>
    <g id="ytick_7">
     <g id="line2d_14">
      <g>
       <use xlink:href="#mf21c1a717a" x="63.77" y="46.404295" style="stroke: #000000; stroke-width: 0.8"/>
      </g>
     </g>
     <g id="text_15">
      <!-- 30 -->
      <g transform="translate(44.045 50.203514) scale(0.1 -0.1)">
       <use xlink:href="#DejaVuSans-33"/>
       <use xlink:href="#DejaVuSans-30" x="63.623047"/>
      </g>
     </g>
    </g>
    <g id="text_16">
     <!-- Packets per Second -->
     <g transform="translate(37.965312 401.305313) rotate(-90) scale(0.1 -0.1)">
      <defs>
       <path id="DejaVuSans-50" d="M 1259 4147 
L 1259 2394 
L 2053 2394 
Q 2494 2394 2734 2622 
Q 2975 2850 2975 3272 
Q 2975 3691 2734 3919 
Q 2494 4147 2053 4147 
L 1259 4147 
z
M 628 4666 
L 2053 4666 
Q 2838 4666 3239 4311 
Q 3641 3956 3641 3272 
Q 3641 2581 3239 2228 
Q 2838 1875 2053 1875 
L 1259 1875 
L 1259 0 
L 628 0 
L 628 4666 
z
" transform="scale(0.015625)"/>
       <path id="DejaVuSans-61" d="M 2194 1759 
Q 1497 1759 1228 1600 
Q 959 1441 959 1056 
Q 959 750 1161 570 
Q 1363 391 1709 391 
Q 2188 391 2477 730 
Q 2766 1069 2766 1631 
L 2766 1759 
L 2194 1759 
z
M 3341 1997 
L 3341 0 
L 2766 0 
L 2766 531 
Q 2569 213 2275 61 
Q 1981 -91 1556 -91 
Q 1019 -91 701 211 
Q 384 513 384 1019 
Q 384 1609 779 1909 
Q 1175 2209 1959 2209 
L 2766 2209 
L 2766 2266 
Q 2766 2663 2505 2880 
Q 2244 3097 1772 3097 
Q 1472 3097 1187 3025 
Q 903 2953 641 2809 
L 641 3341 
Q 956 3463 1253 3523 
Q 1550 3584 1831 3584 
Q 2591 3584 2966 3190 
Q 3341 2797 3341 1997 
z
" transform="scale(0.015625)"/>
       <path id="DejaVuSans-63" d="M 3122 3366 
L 3122 2828 
Q 2878 2963 2633 3030 
Q 2388 3097 2138 3097 
Q 1578 3097 1268 2742 
Q 959 2388 959 1747 
Q 959 1106 1268 751 
Q 1578 397 2138 397 
Q 2388 397 2633 464 
Q 2878 531 3122 666 
L 3122 134 
Q 2881 22 2623 -34 
Q 2366 -91 2075 -91 
Q 1284 -91 818 406 
Q 353 903 353 1747 
Q 353 2603 823 3093 
Q 1294 3584 2113 3584 
Q 2378 3584 2631 3529 
Q 2884 3475 3122 3366 
z
" transform="scale(0.015625)"/>
       <path id="DejaVuSans-6b" d="M 581 4863 
L 1159 4863 
L 1159 1991 
L 2875 3500 
L 3609 3500 
L 1753 1863 
L 3688 0 
L 2938 0 
L 1159 1709 
L 1159 0 
L 581 0 
L 581 4863 
z
" transform="scale(0.015625)"/>
       <path id="DejaVuSans-74" d="M 1172 4494 
L 1172 3500 
L 2356 3500 
L 2356 3053 
L 1172 3053 
L 1172 1153 
Q 1172 725 1289 603 
Q 1406 481 1766 481 
L 2356 481 
L 2356 0 
L 1766 0 
Q 1100 0 847 248 
Q 594 497 594 1153 
L 594 3053 
L 172 3053 
L 172 3500 
L 594 3500 
L 594 4494 
L 1172 4494 
z
" transform="scale(0.015625)"/>
       <path id="DejaVuSans-70" d="M 1159 525 
L 1159 -1331 
L 581 -1331 
L 581 3500 
L 1159 3500 
L 1159 2969 
Q 1341 3281 1617 3432 
Q 1894 3584 2278 3584 
Q 2916 3584 3314 3078 
Q 3713 2572 3713 1747 
Q 3713 922 3314 415 
Q 2916 -91 2278 -91 
Q 1894 -91 1617 61 
Q 1341 213 1159 525 
z
M 3116 1747 
Q 3116 2381 2855 2742 
Q 2594 3103 2138 3103 
Q 1681 3103 1420 2742 
Q 1159 2381 1159 1747 
Q 1159 1113 1420 752 
Q 1681 391 2138 391 
Q 2594 391 2855 752 
Q 3116 1113 3116 1747 
z
" transform="scale(0.015625)"/>
       <path id="DejaVuSans-72" d="M 2631 2963 
Q 2534 3019 2420 3045 
Q 2306 3072 2169 3072 
Q 1681 3072 1420 2755 
Q 1159 2438 1159 1844 
L 1159 0 
L 581 0 
L 581 3500 
L 1159 3500 
L 1159 2956 
Q 1341 3275 1631 3429 
Q 1922 3584 2338 3584 
Q 2397 3584 2469 3576 
Q 2541 3569 2628 3553 
L 2631 2963 
z
" transform="scale(0.015625)"/>
       <path id="DejaVuSans-53" d="M 3425 4513 
L 3425 3897 
Q 3066 4069 2747 4153 
Q 2428 4238 2131 4238 
Q 1616 4238 1336 4038 
Q 1056 3838 1056 3469 
Q 1056 3159 1242 3001 
Q 1428 2844 1947 2747 
L 2328 2669 
Q 3034 2534 3370 2195 
Q 3706 1856 3706 1288 
Q 3706 609 3251 259 
Q 2797 -91 1919 -91 
Q 1588 -91 1214 -16 
Q 841 59 441 206 
L 441 856 
Q 825 641 1194 531 
Q 1563 422 1919 422 
Q 2459 422 2753 634 
Q 3047 847 3047 1241 
Q 3047 1584 2836 1778 
Q 2625 1972 2144 2069 
L 1759 2144 
Q 1053 2284 737 2584 
Q 422 2884 422 3419 
Q 422 4038 858 4394 
Q 1294 4750 2059 4750 
Q 2388 4750 2728 4690 
Q 3069 4631 3425 4513 
z
" transform="scale(0.015625)"/>
       <path id="DejaVuSans-6f" d="M 1959 3097 
Q 1497 3097 1228 2736 
Q 959 2375 959 1747 
Q 959 1119 1226 758 
Q 1494 397 1959 397 
Q 2419 397 2687 759 
Q 2956 1122 2956 1747 
Q 2956 2369 2687 2733 
Q 2419 3097 1959 3097 
z
M 1959 3584 
Q 2709 3584 3137 3096 
Q 3566 2609 3566 1747 
Q 3566 888 3137 398 
Q 2709 -91 1959 -91 
Q 1206 -91 779 398 
Q 353 888 353 1747 
Q 353 2609 779 3096 
Q 1206 3584 1959 3584 
z
" transform="scale(0.015625)"/>
       <path id="DejaVuSans-6e" d="M 3513 2113 
L 3513 0 
L 2938 0 
L 2938 2094 
Q 2938 2591 2744 2837 
Q 2550 3084 2163 3084 
Q 1697 3084 1428 2787 
Q 1159 2491 1159 1978 
L 1159 0 
L 581 0 
L 581 3500 
L 1159 3500 
L 1159 2956 
Q 1366 3272 1645 3428 
Q 1925 3584 2291 3584 
Q 2894 3584 3203 3211 
Q 3513 2838 3513 2113 
z
" transform="scale(0.015625)"/>
       <path id="DejaVuSans-64" d="M 2906 2969 
L 2906 4863 
L 3481 4863 
L 3481 0 
L 2906 0 
L 2906 525 
Q 2725 213 2448 61 
Q 2172 -91 1784 -91 
Q 1150 -91 751 415 
Q 353 922 353 1747 
Q 353 2572 751 3078 
Q 1150 3584 1784 3584 
Q 2172 3584 2448 3432 
Q 2725 3281 2906 2969 
z
M 947 1747 
Q 947 1113 1208 752 
Q 1469 391 1925 391 
Q 2381 391 2643 752 
Q 2906 1113 2906 1747 
Q 2906 2381 2643 2742 
Q 2381 3103 1925 3103 
Q 1469 3103 1208 2742 
Q 947 2381 947 1747 
z
" transform="scale(0.015625)"/>
      </defs>
      <use xlink:href="#DejaVuSans-50"/>
      <use xlink:href="#DejaVuSans-61" x="55.802734"/>
      <use xlink:href="#DejaVuSans-63" x="117.082031"/>
      <use xlink:href="#DejaVuSans-6b" x="172.0625"/>
      <use xlink:href="#DejaVuSans-65" x="226.347656"/>
      <use xlink:href="#DejaVuSans-74" x="287.871094"/>
      <use xlink:href="#DejaVuSans-73" x="327.080078"/>
      <use xlink:href="#DejaVuSans-20" x="379.179688"/>
      <use xlink:href="#DejaVuSans-70" x="410.966797"/>
      <use xlink:href="#DejaVuSans-65" x="474.443359"/>
      <use xlink:href="#DejaVuSans-72" x="535.966797"/>
      <use xlink:href="#DejaVuSans-20" x="577.080078"/>
      <use xlink:href="#DejaVuSans-53" x="608.867188"/>
      <use xlink:href="#DejaVuSans-65" x="672.34375"/>
      <use xlink:href="#DejaVuSans-63" x="733.867188"/>
      <use xlink:href="#DejaVuSans-6f" x="788.847656"/>
      <use xlink:href="#DejaVuSans-6e" x="850.029297"/>
      <use xlink:href="#DejaVuSans-64" x="913.408203"/>
     </g>
    </g>
   </g>
   <g id="line2d_15">
    <path d="M 64.150971 47.109809 
L 65.293597 46.868628 
L 65.674208 46.532543 
L 66.055246 47.217337 
L 66.435837 46.499024 
L 66.816672 46.891449 
L 67.578298 46.832321 
L 67.959302 47.164137 
L 68.34004 46.735963 
L 68.720942 46.998888 
L 69.101563 46.547014 
L 69.482363 46.835128 
L 70.624953 47.045627 
L 71.005742 46.817037 
L 72.147984 46.638456 
L 72.90975 47.100424 
L 73.290413 46.615635 
L 73.671395 47.12737 
L 74.813652 46.526757 
L 75.194671 47.18732 
L 75.575469 46.831752 
L 77.86043 47.017573 
L 78.241162 46.726218 
L 78.621984 46.870316 
L 79.002706 46.710231 
L 79.383552 46.909517 
L 80.145116 46.792064 
L 80.525934 46.86373 
L 81.287514 46.841531 
L 82.429825 46.789293 
L 83.95297 46.818376 
L 93.091644 46.788247 
L 93.47237 46.716325 
L 94.614646 46.767786 
L 95.756933 46.787605 
L 97.660775 46.797917 
L 100.70686 46.760794 
L 101.468395 46.769034 
L 101.849108 46.694262 
L 102.229868 46.771805 
L 102.610765 46.990948 
L 102.991381 46.539907 
L 103.372135 46.760537 
L 104.133622 46.765694 
L 104.514398 46.797128 
L 104.895105 46.684937 
L 105.656602 46.751655 
L 107.560296 46.741873 
L 108.321818 46.761822 
L 109.083298 46.755656 
L 110.225562 46.748003 
L 110.606263 46.677209 
L 111.748503 46.758519 
L 114.794344 46.737266 
L 115.936573 46.758592 
L 116.317274 46.675006 
L 117.078777 46.789587 
L 117.840219 46.703256 
L 118.601749 46.774723 
L 118.982445 46.668122 
L 119.363199 46.761326 
L 120.88613 46.713462 
L 124.31267 46.698576 
L 125.074105 46.718399 
L 125.454628 46.390325 
L 125.835336 46.687269 
L 127.35819 46.721721 
L 127.738994 46.841146 
L 128.500304 46.493679 
L 129.261749 46.747379 
L 130.023186 46.704376 
L 130.404015 46.882955 
L 130.784622 46.524278 
L 131.165464 46.903005 
L 131.926838 46.606822 
L 132.307471 46.567288 
L 132.688192 46.707441 
L 133.068907 46.698869 
L 133.449717 46.851511 
L 133.830422 46.682936 
L 134.21114 46.703954 
L 134.59175 46.52942 
L 134.972465 46.698429 
L 135.733914 46.742607 
L 136.114721 46.846558 
L 136.495318 46.508887 
L 136.876144 46.876993 
L 137.637429 46.494469 
L 138.018121 46.662065 
L 138.779524 46.688627 
L 139.160315 46.819716 
L 139.921612 46.498767 
L 140.302302 46.658448 
L 141.444421 46.683157 
L 141.825215 46.82689 
L 142.205814 46.511091 
L 142.58663 46.862097 
L 142.967302 46.629496 
L 143.34792 46.54235 
L 143.728616 46.667847 
L 144.490029 46.701971 
L 144.870822 46.824853 
L 145.632128 46.509824 
L 146.012825 46.670013 
L 147.154932 46.664524 
L 147.5357 46.783146 
L 147.916285 46.489693 
L 148.677799 46.861859 
L 149.058384 46.489858 
L 149.439075 46.660449 
L 150.200468 46.669206 
L 150.581249 46.804541 
L 151.342504 46.442631 
L 151.723192 46.65619 
L 153.246079 46.820303 
L 153.626664 46.489546 
L 154.388163 46.840045 
L 154.768753 46.498161 
L 155.149445 46.661367 
L 156.291484 46.666397 
L 156.672287 46.839348 
L 157.052865 46.479076 
L 157.433556 46.659109 
L 158.194923 46.667278 
L 158.956437 46.828248 
L 159.337009 46.468367 
L 159.717813 46.841898 
L 160.479041 46.424425 
L 160.859724 46.646882 
L 161.621075 46.628835 
L 162.001937 46.934664 
L 162.382601 46.61613 
L 162.763308 46.68547 
L 163.143823 46.377665 
L 163.524495 46.628542 
L 164.285906 46.705477 
L 164.666811 47.004243 
L 165.047459 46.591728 
L 165.42821 46.756592 
L 165.808884 46.631865 
L 166.189331 46.266846 
L 166.57001 46.641632 
L 166.950696 46.652206 
L 167.331586 46.979982 
L 167.7123 46.696905 
L 168.093063 46.776283 
L 168.473429 46.13574 
L 168.8541 46.628523 
L 169.996156 46.659384 
L 170.377027 46.94908 
L 170.757391 46.134159 
L 171.518885 46.965732 
L 171.899253 46.139602 
L 172.279863 46.530339 
L 173.041051 46.465649 
L 173.421847 46.828193 
L 173.802525 46.639172 
L 174.182917 46.178878 
L 174.56351 46.502789 
L 175.324857 46.678476 
L 175.705406 46.431424 
L 176.08619 46.808413 
L 176.466923 46.728016 
L 177.227936 46.251828 
L 177.608555 46.545104 
L 178.750381 46.511514 
L 179.131181 46.834798 
L 179.511813 46.565598 
L 180.273094 46.574413 
L 180.653665 46.465704 
L 181.414895 46.528006 
L 182.556722 46.513093 
L 189.407749 46.52088 
L 190.930153 46.537281 
L 191.691412 46.546243 
L 194.355717 46.531937 
L 195.116957 46.517336 
L 202.348548 46.513791 
L 202.729295 46.74982 
L 203.109776 46.322279 
L 203.490383 46.524425 
L 212.244963 46.571309 
L 214.909367 46.553846 
L 215.670637 46.545214 
L 220.99959 46.581042 
L 221.760839 46.576396 
L 223.283375 46.593748 
L 223.664093 46.704578 
L 224.04463 46.411858 
L 224.805894 46.60785 
L 225.567154 46.57456 
L 227.850955 46.590351 
L 228.231545 46.497665 
L 228.612226 46.644312 
L 228.992888 46.613799 
L 229.373343 46.280043 
L 229.75418 46.894255 
L 230.134812 46.564735 
L 232.418668 46.620555 
L 232.799269 46.515205 
L 233.560588 46.619711 
L 234.321825 46.544921 
L 235.083098 46.550632 
L 236.224999 46.59081 
L 236.605714 46.698686 
L 237.366973 46.526151 
L 238.128271 46.578526 
L 238.508869 46.509438 
L 239.27015 46.57276 
L 240.412053 46.58409 
L 241.553996 46.567068 
L 258.30181 46.591582 
L 258.682404 46.504846 
L 259.824366 46.668141 
L 260.204937 46.466585 
L 260.966192 46.559685 
L 261.727441 46.57489 
L 263.630632 46.56031 
L 267.056241 46.511146 
L 267.817511 46.563468 
L 270.481997 46.578489 
L 271.623893 46.566058 
L 273.527048 46.583502 
L 274.668936 46.576157 
L 276.572099 46.569932 
L 276.952879 46.803679 
L 277.333362 46.325679 
L 277.713994 46.564258 
L 281.520273 46.567196 
L 282.281574 46.567325 
L 283.042845 46.561081 
L 283.423575 46.721501 
L 283.804108 46.406291 
L 284.184775 46.62241 
L 284.565343 46.461552 
L 284.945987 46.584769 
L 286.849112 46.541046 
L 287.229584 46.306712 
L 287.610391 46.84698 
L 287.991038 46.589874 
L 288.371761 46.710929 
L 288.752329 46.462544 
L 289.513589 46.582125 
L 290.274811 46.544131 
L 292.177951 46.563101 
L 293.700505 46.557592 
L 294.461764 46.561577 
L 294.842553 46.817587 
L 295.223057 46.359143 
L 295.984281 46.562385 
L 297.88753 46.578948 
L 298.268111 46.482566 
L 298.648774 46.614368 
L 301.313147 46.507491 
L 302.074436 46.575992 
L 303.21631 46.555443 
L 316.157578 46.555609 
L 316.538334 46.763694 
L 316.918846 46.37274 
L 317.299465 46.543433 
L 318.441346 46.51908 
L 318.822084 46.735927 
L 319.202629 46.425968 
L 319.583282 46.598339 
L 321.105769 46.51673 
L 321.486433 46.615947 
L 322.247689 46.565764 
L 324.912062 46.559171 
L 329.098943 46.529237 
L 329.479649 46.683781 
L 329.860185 46.411087 
L 330.240875 46.659348 
L 330.621462 46.492026 
L 331.382726 46.558216 
L 334.427778 46.591288 
L 335.188996 46.515958 
L 336.330884 46.54448 
L 339.756514 46.568316 
L 340.898351 46.510375 
L 341.27901 46.608419 
L 342.42092 46.549071 
L 343.182208 46.573935 
L 345.085347 46.551348 
L 346.988495 46.576378 
L 347.369101 46.524205 
L 347.749781 46.642476 
L 348.511017 46.525729 
L 350.414152 46.55166 
L 353.078495 46.548171 
L 354.220403 46.567563 
L 354.600835 46.242361 
L 354.981666 46.884643 
L 355.362274 46.527143 
L 356.12353 46.537171 
L 357.646038 46.5602 
L 358.026627 46.497261 
L 358.407265 46.574046 
L 358.787871 46.523966 
L 359.168591 46.705551 
L 359.54922 46.560328 
L 362.213627 46.53504 
L 362.974911 46.580068 
L 363.355543 46.564662 
L 363.736308 46.778411 
L 364.116809 46.354843 
L 364.497429 46.545343 
L 368.303675 46.562109 
L 368.684436 46.771878 
L 369.064935 46.350598 
L 369.445557 46.550338 
L 376.296818 46.495663 
L 376.67753 46.692849 
L 377.058091 46.451173 
L 377.438718 46.556766 
L 377.819301 46.487011 
L 378.961201 46.606436 
L 379.341802 46.515022 
L 380.483832 46.763896 
L 380.864335 46.357893 
L 381.244973 46.574578 
L 382.38684 46.554305 
L 385.051208 46.5328 
L 385.812476 46.543029 
L 386.573754 46.556784 
L 388.476868 46.563193 
L 388.857515 46.589984 
L 389.238092 46.47588 
L 389.999356 46.57658 
L 391.521841 46.544223 
L 392.663742 46.566131 
L 394.947464 46.508005 
L 395.708721 46.563744 
L 396.850587 46.561522 
L 398.753698 46.580234 
L 399.134469 46.789385 
L 399.514955 46.329814 
L 399.895588 46.567527 
L 401.798697 46.565488 
L 402.559968 46.542203 
L 405.985567 46.576194 
L 406.366312 46.746736 
L 406.746773 46.290998 
L 407.127404 46.56233 
L 408.649819 46.433813 
L 409.0305 46.644422 
L 409.411104 46.520146 
L 409.791756 46.596007 
L 410.172352 46.507161 
L 410.933599 46.547547 
L 411.314195 46.506554 
L 411.694851 46.604269 
L 412.07545 46.511238 
L 412.836708 46.567876 
L 413.217149 46.259217 
L 413.597947 46.831238 
L 413.978579 46.565213 
L 416.642942 46.549879 
L 418.16539 46.539228 
L 418.546049 46.608052 
L 419.307278 46.538071 
L 420.449165 46.530798 
L 421.971637 46.564331 
L 422.732931 46.569289 
L 425.397319 46.558382 
L 426.539146 46.507601 
L 427.681054 46.602488 
L 428.44231 46.566553 
L 433.390401 46.555609 
L 437.577247 46.522166 
L 438.338539 46.575551 
L 439.099838 46.588846 
L 439.861068 46.548245 
L 440.241706 46.574835 
L 440.622286 46.481354 
L 441.383541 46.579573 
L 442.144761 46.528759 
L 442.906013 46.545031 
L 443.286605 46.500585 
L 443.667249 46.583943 
L 444.428472 46.526243 
L 444.80913 46.607611 
L 445.570379 46.56132 
L 447.092847 46.56659 
L 448.995936 46.533534 
L 449.757195 46.539723 
L 454.324714 46.559998 
L 454.705301 46.492687 
L 455.085949 46.591361 
L 455.847189 46.548538 
L 457.369673 46.547198 
L 457.750259 46.490924 
L 458.130915 46.604545 
L 459.272787 46.546812 
L 462.698396 46.551256 
L 468.788335 46.561963 
L 469.16892 46.489914 
L 469.549553 46.566719 
L 469.930335 46.805019 
L 470.310813 46.318768 
L 471.072187 46.774888 
L 471.452711 46.391611 
L 471.833313 46.516454 
L 472.213887 46.473125 
L 472.594572 46.650315 
L 472.975203 46.562642 
L 473.355927 46.713113 
L 473.736462 46.409433 
L 474.497706 46.568702 
L 475.258907 46.529402 
L 476.400775 46.542258 
L 482.871389 46.546335 
L 483.251973 46.487305 
L 484.01325 46.568977 
L 484.774541 46.56468 
L 485.155352 46.853144 
L 485.535907 46.441198 
L 485.916541 46.567857 
L 486.297122 46.483521 
L 487.05836 46.543488 
L 499.618976 46.562826 
L 522.837095 46.568684 
L 523.217659 46.455692 
L 523.5983 46.580417 
L 525.120782 46.533553 
L 530.449522 46.556968 
L 531.591336 46.48253 
L 531.971986 46.594262 
L 534.636307 46.49491 
L 535.77824 46.619876 
L 536.158823 46.486479 
L 536.920083 46.554948 
L 537.30068 46.50784 
L 538.061935 46.540146 
L 539.203823 46.580491 
L 540.345642 46.490961 
L 540.726282 46.57814 
L 541.487514 46.540366 
L 541.868167 46.597825 
L 542.629414 46.56367 
L 543.010119 46.682753 
L 543.390741 46.548428 
L 545.293865 46.567655 
L 545.67443 46.455876 
L 546.055062 46.56659 
L 549.861337 46.554874 
L 594.774644 46.577057 
L 595.155372 46.719243 
L 595.535901 46.399144 
L 595.916533 46.565543 
L 597.058339 46.482603 
L 598.200347 46.720583 
L 598.580874 46.397325 
L 598.961495 46.546243 
L 599.342023 46.398409 
L 599.722711 46.655731 
L 600.103304 46.501999 
L 600.484036 46.726144 
L 600.86455 46.375258 
L 601.24519 46.578159 
L 601.625793 46.517409 
L 602.387061 46.565305 
L 603.148281 46.539852 
L 605.051404 46.548998 
L 605.812636 46.571769 
L 606.954531 46.576029 
L 609.23824 46.552083 
L 610.380133 46.557629 
L 612.283202 46.524205 
L 612.663863 46.612311 
L 613.425098 46.547051 
L 616.470031 46.549769 
L 616.850626 46.506059 
L 617.231271 46.586293 
L 618.373125 46.561118 
L 619.13445 46.659641 
L 619.515022 46.468882 
L 622.560079 46.753986 
L 622.940572 46.341042 
L 623.321198 46.555021 
L 624.463055 46.539521 
L 624.843577 46.387532 
L 625.224286 46.688645 
L 625.604871 46.490299 
L 625.98552 46.592665 
L 627.888611 46.544333 
L 633.59791 46.512432 
L 633.978614 46.679779 
L 634.359142 46.397913 
L 634.739759 46.540697 
L 639.30719 46.526959 
L 639.687771 46.483907 
L 640.068416 46.585963 
L 640.829627 46.531937 
L 642.352138 46.553331 
L 642.732708 46.465832 
L 643.494023 46.659733 
L 643.874586 46.454241 
L 644.635807 46.526188 
L 648.061457 46.596576 
L 648.442042 46.490501 
L 649.583924 46.567104 
L 650.725818 46.534397 
L 651.867676 46.531698 
L 653.009569 46.563689 
L 654.912645 46.558492 
L 655.293195 46.433794 
L 655.673882 46.654152 
L 656.054584 46.676915 
L 656.435127 46.422294 
L 657.196367 46.573256 
L 662.144493 46.51392 
L 662.525075 46.485303 
L 662.905724 46.59261 
L 663.666954 46.539448 
L 664.42821 46.540642 
L 664.808822 46.532487 
L 665.189584 46.774521 
L 665.570093 46.366603 
L 666.331366 46.634068 
L 666.711944 46.478433 
L 667.4732 46.558547 
L 668.234382 46.482346 
L 668.995645 46.564956 
L 670.89876 46.532671 
L 673.18252 46.575092 
L 675.085605 46.533755 
L 676.227478 46.558271 
L 676.988697 46.555554 
L 678.13054 46.543947 
L 681.556092 46.55122 
L 683.078542 46.524076 
L 684.981664 46.571824 
L 686.123514 46.530173 
L 693.736004 46.664084 
L 694.116515 46.370738 
L 694.49713 46.536693 
L 696.019629 46.580932 
L 696.780831 46.522203 
L 698.303324 46.581152 
L 700.206397 46.531992 
L 701.728891 46.550099 
L 704.012629 46.560475 
L 704.393318 46.656337 
L 704.773891 46.471196 
L 705.915736 46.537409 
L 707.818834 46.533902 
L 709.341305 46.537042 
L 710.102556 46.532359 
L 713.528139 46.480876 
L 713.908857 46.702394 
L 714.289398 46.419024 
L 714.670034 46.571805 
L 716.573134 46.535059 
L 721.140559 46.550981 
L 723.043662 46.535867 
L 724.566263 46.70043 
L 724.946853 46.49715 
L 725.708105 46.546518 
L 727.230612 46.536987 
L 727.611375 46.77542 
L 727.991816 46.257949 
L 728.372441 46.553221 
L 728.75316 46.706505 
L 729.133683 46.388414 
L 729.514342 46.609814 
L 730.275561 46.530027 
L 731.798054 46.532396 
L 734.462347 46.521339 
L 735.223597 46.528429 
L 739.029764 46.529494 
L 741.313438 46.495901 
L 741.694164 46.715095 
L 742.074645 46.322279 
L 742.455264 46.545141 
L 743.216521 46.534416 
L 747.403375 46.5557 
L 748.164562 46.522386 
L 749.306445 46.572136 
L 754.254421 46.550008 
L 758.821888 46.557427 
L 759.583094 46.539962 
L 760.344332 46.533406 
L 760.344332 46.533406 
" clip-path="url(#pddb239f8ce)" style="fill: none; stroke: #1f77b4; stroke-width: 1.5; stroke-linecap: square"/>
   </g>
   <g id="line2d_16">
    <path d="M 63.77 46.580774 
L 795.154 46.580774 
" clip-path="url(#pddb239f8ce)" style="fill: none; stroke-dasharray: 5.55,2.4; stroke-dashoffset: 0; stroke: #0000ff; stroke-width: 1.5"/>
   </g>
   <g id="patch_3">
    <path d="M 63.77 658.84 
L 63.77 46.08 
" style="fill: none; stroke: #000000; stroke-width: 0.8; stroke-linejoin: miter; stroke-linecap: square"/>
   </g>
   <g id="patch_4">
    <path d="M 795.154 658.84 
L 795.154 46.08 
" style="fill: none; stroke: #000000; stroke-width: 0.8; stroke-linejoin: miter; stroke-linecap: square"/>
   </g>
   <g id="patch_5">
    <path d="M 63.77 658.84 
L 795.154 658.84 
" style="fill: none; stroke: #000000; stroke-width: 0.8; stroke-linejoin: miter; stroke-linecap: square"/>
   </g>
   <g id="patch_6">
    <path d="M 63.77 46.08 
L 795.154 46.08 
" style="fill: none; stroke: #000000; stroke-width: 0.8; stroke-linejoin: miter; stroke-linecap: square"/>
   </g>
   <g id="text_17">
    <!-- Packet Rate from Timestamps (SelectionProcess: 16777217) -->
    <g transform="translate(248.322 40.08) scale(0.12 -0.12)">
     <defs>
      <path id="DejaVuSans-52" d="M 2841 2188 
Q 3044 2119 3236 1894 
Q 3428 1669 3622 1275 
L 4263 0 
L 3584 0 
L 2988 1197 
Q 2756 1666 2539 1819 
Q 2322 1972 1947 1972 
L 1259 1972 
L 1259 0 
L 628 0 
L 628 4666 
L 2053 4666 
Q 2853 4666 3247 4331 
Q 3641 3997 3641 3322 
Q 3641 2881 3436 2590 
Q 3231 2300 2841 2188 
z
M 1259 4147 
L 1259 2491 
L 2053 2491 
Q 2509 2491 2742 2702 
Q 2975 2913 2975 3322 
Q 2975 3731 2742 3939 
Q 2509 4147 2053 4147 
L 1259 4147 
z
" transform="scale(0.015625)"/>
      <path id="DejaVuSans-66" d="M 2375 4863 
L 2375 4384 
L 1825 4384 
Q 1516 4384 1395 4259 
Q 1275 4134 1275 3809 
L 1275 3500 
L 2222 3500 
L 2222 3053 
L 1275 3053 
L 1275 0 
L 697 0 
L 697 3053 
L 147 3053 
L 147 3500 
L 697 3500 
L 697 3744 
Q 697 4328 969 4595 
Q 1241 4863 1831 4863 
L 2375 4863 
z
" transform="scale(0.015625)"/>
      <path id="DejaVuSans-6c" d="M 603 4863 
L 1178 4863 
L 1178 0 
L 603 0 
L 603 4863 
z
" transform="scale(0.015625)"/>
      <path id="DejaVuSans-3a" d="M 750 794 
L 1409 794 
L 1409 0 
L 750 0 
L 750 794 
z
M 750 3309 
L 1409 3309 
L 1409 2516 
L 750 2516 
L 750 3309 
z
" transform="scale(0.015625)"/>
      <path id="DejaVuSans-37" d="M 525 4666 
L 3525 4666 
L 3525 4397 
L 1831 0 
L 1172 0 
L 2766 4134 
L 525 4134 
L 525 4666 
z
" transform="scale(0.015625)"/>
     </defs>
     <use xlink:href="#DejaVuSans-50"/>
     <use xlink:href="#DejaVuSans-61" x="55.802734"/>
     <use xlink:href="#DejaVuSans-63" x="117.082031"/>
     <use xlink:href="#DejaVuSans-6b" x="172.0625"/>
     <use xlink:href="#DejaVuSans-65" x="226.347656"/>
     <use xlink:href="#DejaVuSans-74" x="287.871094"/>
     <use xlink:href="#DejaVuSans-20" x="327.080078"/>
     <use xlink:href="#DejaVuSans-52" x="358.867188"/>
     <use xlink:href="#DejaVuSans-61" x="426.099609"/>
     <use xlink:href="#DejaVuSans-74" x="487.378906"/>
     <use xlink:href="#DejaVuSans-65" x="526.587891"/>
     <use xlink:href="#DejaVuSans-20" x="588.111328"/>
     <use xlink:href="#DejaVuSans-66" x="619.898438"/>
     <use xlink:href="#DejaVuSans-72" x="655.103516"/>
     <use xlink:href="#DejaVuSans-6f" x="693.966797"/>
     <use xlink:href="#DejaVuSans-6d" x="755.148438"/>
     <use xlink:href="#DejaVuSans-20" x="852.560547"/>
     <use xlink:href="#DejaVuSans-54" x="884.347656"/>
     <use xlink:href="#DejaVuSans-69" x="942.306641"/>
     <use xlink:href="#DejaVuSans-6d" x="970.089844"/>
     <use xlink:href="#DejaVuSans-65" x="1067.501953"/>
     <use xlink:href="#DejaVuSans-73" x="1129.025391"/>
     <use xlink:href="#DejaVuSans-74" x="1181.125"/>
     <use xlink:href="#DejaVuSans-61" x="1220.333984"/>
     <use xlink:href="#DejaVuSans-6d" x="1281.613281"/>
     <use xlink:href="#DejaVuSans-70" x="1379.025391"/>
     <use xlink:href="#DejaVuSans-73" x="1442.501953"/>
     <use xlink:href="#DejaVuSans-20" x="1494.601562"/>
     <use xlink:href="#DejaVuSans-28" x="1526.388672"/>
     <use xlink:href="#DejaVuSans-53" x="1565.402344"/>
     <use xlink:href="#DejaVuSans-65" x="1628.878906"/>
     <use xlink:href="#DejaVuSans-6c" x="1690.402344"/>
     <use xlink:href="#DejaVuSans-65" x="1718.185547"/>
     <use xlink:href="#DejaVuSans-63" x="1779.708984"/>
     <use xlink:href="#DejaVuSans-74" x="1834.689453"/>
     <use xlink:href="#DejaVuSans-69" x="1873.898438"/>
     <use xlink:href="#DejaVuSans-6f" x="1901.681641"/>
     <use xlink:href="#DejaVuSans-6e" x="1962.863281"/>
     <use xlink:href="#DejaVuSans-50" x="2026.242188"/>
     <use xlink:href="#DejaVuSans-72" x="2084.794922"/>
     <use xlink:href="#DejaVuSans-6f" x="2123.658203"/>
     <use xlink:href="#DejaVuSans-63" x="2184.839844"/>
     <use xlink:href="#DejaVuSans-65" x="2239.820312"/>
     <use xlink:href="#DejaVuSans-73" x="2301.34375"/>
     <use xlink:href="#DejaVuSans-73" x="2353.443359"/>
     <use xlink:href="#DejaVuSans-3a" x="2405.542969"/>
     <use xlink:href="#DejaVuSans-20" x="2439.234375"/>
     <use xlink:href="#DejaVuSans-31" x="2471.021484"/>
     <use xlink:href="#DejaVuSans-36" x="2534.644531"/>
     <use xlink:href="#DejaVuSans-37" x="2598.267578"/>
     <use xlink:href="#DejaVuSans-37" x="2661.890625"/>
     <use xlink:href="#DejaVuSans-37" x="2725.513672"/>
     <use xlink:href="#DejaVuSans-32" x="2789.136719"/>
     <use xlink:href="#DejaVuSans-31" x="2852.759766"/>
     <use xlink:href="#DejaVuSans-37" x="2916.382812"/>
     <use xlink:href="#DejaVuSans-29" x="2980.005859"/>
    </g>
   </g>
   <g id="legend_1">
    <g id="patch_7">
     <path d="M 802.154 368.638125 
L 983.61025 368.638125 
Q 985.61025 368.638125 985.61025 366.638125 
L 985.61025 338.281875 
Q 985.61025 336.281875 983.61025 336.281875 
L 802.154 336.281875 
Q 800.154 336.281875 800.154 338.281875 
L 800.154 366.638125 
Q 800.154 368.638125 802.154 368.638125 
z
" style="fill: #ffffff; opacity: 0.8; stroke: #cccccc; stroke-linejoin: miter"/>
    </g>
    <g id="line2d_17">
     <path d="M 804.154 344.380313 
L 814.154 344.380313 
L 824.154 344.380313 
" style="fill: none; stroke: #1f77b4; stroke-width: 1.5; stroke-linecap: square"/>
    </g>
    <g id="text_18">
     <!-- Packet Rate from Timestamps -->
     <g transform="translate(832.154 347.880313) scale(0.1 -0.1)">
      <use xlink:href="#DejaVuSans-50"/>
      <use xlink:href="#DejaVuSans-61" x="55.802734"/>
      <use xlink:href="#DejaVuSans-63" x="117.082031"/>
      <use xlink:href="#DejaVuSans-6b" x="172.0625"/>
      <use xlink:href="#DejaVuSans-65" x="226.347656"/>
      <use xlink:href="#DejaVuSans-74" x="287.871094"/>
      <use xlink:href="#DejaVuSans-20" x="327.080078"/>
      <use xlink:href="#DejaVuSans-52" x="358.867188"/>
      <use xlink:href="#DejaVuSans-61" x="426.099609"/>
      <use xlink:href="#DejaVuSans-74" x="487.378906"/>
      <use xlink:href="#DejaVuSans-65" x="526.587891"/>
      <use xlink:href="#DejaVuSans-20" x="588.111328"/>
      <use xlink:href="#DejaVuSans-66" x="619.898438"/>
      <use xlink:href="#DejaVuSans-72" x="655.103516"/>
      <use xlink:href="#DejaVuSans-6f" x="693.966797"/>
      <use xlink:href="#DejaVuSans-6d" x="755.148438"/>
      <use xlink:href="#DejaVuSans-20" x="852.560547"/>
      <use xlink:href="#DejaVuSans-54" x="884.347656"/>
      <use xlink:href="#DejaVuSans-69" x="942.306641"/>
      <use xlink:href="#DejaVuSans-6d" x="970.089844"/>
      <use xlink:href="#DejaVuSans-65" x="1067.501953"/>
      <use xlink:href="#DejaVuSans-73" x="1129.025391"/>
      <use xlink:href="#DejaVuSans-74" x="1181.125"/>
      <use xlink:href="#DejaVuSans-61" x="1220.333984"/>
      <use xlink:href="#DejaVuSans-6d" x="1281.613281"/>
      <use xlink:href="#DejaVuSans-70" x="1379.025391"/>
      <use xlink:href="#DejaVuSans-73" x="1442.501953"/>
     </g>
    </g>
    <g id="line2d_18">
     <path d="M 804.154 359.058438 
L 814.154 359.058438 
L 824.154 359.058438 
" style="fill: none; stroke-dasharray: 5.55,2.4; stroke-dashoffset: 0; stroke: #0000ff; stroke-width: 1.5"/>
    </g>
    <g id="text_19">
     <!-- Packet Rate Average -->
     <g transform="translate(832.154 362.558438) scale(0.1 -0.1)">
      <defs>
       <path id="DejaVuSans-41" d="M 2188 4044 
L 1331 1722 
L 3047 1722 
L 2188 4044 
z
M 1831 4666 
L 2547 4666 
L 4325 0 
L 3669 0 
L 3244 1197 
L 1141 1197 
L 716 0 
L 50 0 
L 1831 4666 
z
" transform="scale(0.015625)"/>
       <path id="DejaVuSans-76" d="M 191 3500 
L 800 3500 
L 1894 563 
L 2988 3500 
L 3597 3500 
L 2284 0 
L 1503 0 
L 191 3500 
z
" transform="scale(0.015625)"/>
       <path id="DejaVuSans-67" d="M 2906 1791 
Q 2906 2416 2648 2759 
Q 2391 3103 1925 3103 
Q 1463 3103 1205 2759 
Q 947 2416 947 1791 
Q 947 1169 1205 825 
Q 1463 481 1925 481 
Q 2391 481 2648 825 
Q 2906 1169 2906 1791 
z
M 3481 434 
Q 3481 -459 3084 -895 
Q 2688 -1331 1869 -1331 
Q 1566 -1331 1297 -1286 
Q 1028 -1241 775 -1147 
L 775 -588 
Q 1028 -725 1275 -790 
Q 1522 -856 1778 -856 
Q 2344 -856 2625 -561 
Q 2906 -266 2906 331 
L 2906 616 
Q 2728 306 2450 153 
Q 2172 0 1784 0 
Q 1141 0 747 490 
Q 353 981 353 1791 
Q 353 2603 747 3093 
Q 1141 3584 1784 3584 
Q 2172 3584 2450 3431 
Q 2728 3278 2906 2969 
L 2906 3500 
L 3481 3500 
L 3481 434 
z
" transform="scale(0.015625)"/>
      </defs>
      <use xlink:href="#DejaVuSans-50"/>
      <use xlink:href="#DejaVuSans-61" x="55.802734"/>
      <use xlink:href="#DejaVuSans-63" x="117.082031"/>
      <use xlink:href="#DejaVuSans-6b" x="172.0625"/>
      <use xlink:href="#DejaVuSans-65" x="226.347656"/>
      <use xlink:href="#DejaVuSans-74" x="287.871094"/>
      <use xlink:href="#DejaVuSans-20" x="327.080078"/>
      <use xlink:href="#DejaVuSans-52" x="358.867188"/>
      <use xlink:href="#DejaVuSans-61" x="426.099609"/>
      <use xlink:href="#DejaVuSans-74" x="487.378906"/>
      <use xlink:href="#DejaVuSans-65" x="526.587891"/>
      <use xlink:href="#DejaVuSans-20" x="588.111328"/>
      <use xlink:href="#DejaVuSans-41" x="619.898438"/>
      <use xlink:href="#DejaVuSans-76" x="682.431641"/>
      <use xlink:href="#DejaVuSans-65" x="741.611328"/>
      <use xlink:href="#DejaVuSans-72" x="803.134766"/>
      <use xlink:href="#DejaVuSans-61" x="844.248047"/>
      <use xlink:href="#DejaVuSans-67" x="905.527344"/>
      <use xlink:href="#DejaVuSans-65" x="969.003906"/>
     </g>
    </g>
   </g>
  </g>
 </g>
 <defs>
  <clipPath id="pddb239f8ce">
   <rect x="63.77" y="46.08" width="731.384" height="612.76"/>
  </clipPath>
 </defs>
</svg>
