<?xml version="1.0" encoding="utf-8" standalone="no"?>
<!DOCTYPE svg PUBLIC "-//W3C//DTD SVG 1.1//EN"
  "http://www.w3.org/Graphics/SVG/1.1/DTD/svg11.dtd">
<svg xmlns:xlink="http://www.w3.org/1999/xlink" width="1008pt" height="720pt" viewBox="0 0 1008 720" xmlns="http://www.w3.org/2000/svg" version="1.1">
 <metadata>
  <rdf:RDF xmlns:dc="http://purl.org/dc/elements/1.1/" xmlns:cc="http://creativecommons.org/ns#" xmlns:rdf="http://www.w3.org/1999/02/22-rdf-syntax-ns#">
   <cc:Work>
    <dc:type rdf:resource="http://purl.org/dc/dcmitype/StillImage"/>
    <dc:date>2023-04-13T18:30:58.417262</dc:date>
    <dc:format>image/svg+xml</dc:format>
    <dc:creator>
     <cc:Agent>
      <dc:title>Matplotlib v3.6.2, https://matplotlib.org/</dc:title>
     </cc:Agent>
    </dc:creator>
   </cc:Work>
  </rdf:RDF>
 </metadata>
 <defs>
  <style type="text/css">*{stroke-linejoin: round; stroke-linecap: butt}</style>
 </defs>
 <g id="figure_1">
  <g id="patch_1">
   <path d="M 0 720 
L 1008 720 
L 1008 0 
L 0 0 
z
" style="fill: #ffffff"/>
  </g>
  <g id="axes_1">
   <g id="patch_2">
    <path d="M 93.32 639.64 
L 791.464 639.64 
L 791.464 60.96 
L 93.32 60.96 
z
" style="fill: #ffffff"/>
   </g>
   <g id="matplotlib.axis_1">
    <g id="xtick_1">
     <g id="line2d_1">
      <defs>
       <path id="m9b40fd039c" d="M 0 0 
L 0 3.5 
" style="stroke: #000000; stroke-width: 0.8"/>
      </defs>
      <g>
       <use xlink:href="#m9b40fd039c" x="93.32" y="639.64" style="stroke: #000000; stroke-width: 0.8"/>
      </g>
     </g>
     <g id="text_1">
      <!-- 0 -->
      <g transform="translate(88.86625 657.277812) scale(0.14 -0.14)">
       <defs>
        <path id="DejaVuSans-30" d="M 2034 4250 
Q 1547 4250 1301 3770 
Q 1056 3291 1056 2328 
Q 1056 1369 1301 889 
Q 1547 409 2034 409 
Q 2525 409 2770 889 
Q 3016 1369 3016 2328 
Q 3016 3291 2770 3770 
Q 2525 4250 2034 4250 
z
M 2034 4750 
Q 2819 4750 3233 4129 
Q 3647 3509 3647 2328 
Q 3647 1150 3233 529 
Q 2819 -91 2034 -91 
Q 1250 -91 836 529 
Q 422 1150 422 2328 
Q 422 3509 836 4129 
Q 1250 4750 2034 4750 
z
" transform="scale(0.015625)"/>
       </defs>
       <use xlink:href="#DejaVuSans-30"/>
      </g>
     </g>
    </g>
    <g id="xtick_2">
     <g id="line2d_2">
      <g>
       <use xlink:href="#m9b40fd039c" x="200.070378" y="639.64" style="stroke: #000000; stroke-width: 0.8"/>
      </g>
     </g>
     <g id="text_2">
      <!-- 10 -->
      <g transform="translate(191.162878 657.277812) scale(0.14 -0.14)">
       <defs>
        <path id="DejaVuSans-31" d="M 794 531 
L 1825 531 
L 1825 4091 
L 703 3866 
L 703 4441 
L 1819 4666 
L 2450 4666 
L 2450 531 
L 3481 531 
L 3481 0 
L 794 0 
L 794 531 
z
" transform="scale(0.015625)"/>
       </defs>
       <use xlink:href="#DejaVuSans-31"/>
       <use xlink:href="#DejaVuSans-30" x="63.623047"/>
      </g>
     </g>
    </g>
    <g id="xtick_3">
     <g id="line2d_3">
      <g>
       <use xlink:href="#m9b40fd039c" x="306.820756" y="639.64" style="stroke: #000000; stroke-width: 0.8"/>
      </g>
     </g>
     <g id="text_3">
      <!-- 20 -->
      <g transform="translate(297.913256 657.277812) scale(0.14 -0.14)">
       <defs>
        <path id="DejaVuSans-32" d="M 1228 531 
L 3431 531 
L 3431 0 
L 469 0 
L 469 531 
Q 828 903 1448 1529 
Q 2069 2156 2228 2338 
Q 2531 2678 2651 2914 
Q 2772 3150 2772 3378 
Q 2772 3750 2511 3984 
Q 2250 4219 1831 4219 
Q 1534 4219 1204 4116 
Q 875 4013 500 3803 
L 500 4441 
Q 881 4594 1212 4672 
Q 1544 4750 1819 4750 
Q 2544 4750 2975 4387 
Q 3406 4025 3406 3419 
Q 3406 3131 3298 2873 
Q 3191 2616 2906 2266 
Q 2828 2175 2409 1742 
Q 1991 1309 1228 531 
z
" transform="scale(0.015625)"/>
       </defs>
       <use xlink:href="#DejaVuSans-32"/>
       <use xlink:href="#DejaVuSans-30" x="63.623047"/>
      </g>
     </g>
    </g>
    <g id="xtick_4">
     <g id="line2d_4">
      <g>
       <use xlink:href="#m9b40fd039c" x="413.571135" y="639.64" style="stroke: #000000; stroke-width: 0.8"/>
      </g>
     </g>
     <g id="text_4">
      <!-- 30 -->
      <g transform="translate(404.663635 657.277812) scale(0.14 -0.14)">
       <defs>
        <path id="DejaVuSans-33" d="M 2597 2516 
Q 3050 2419 3304 2112 
Q 3559 1806 3559 1356 
Q 3559 666 3084 287 
Q 2609 -91 1734 -91 
Q 1441 -91 1130 -33 
Q 819 25 488 141 
L 488 750 
Q 750 597 1062 519 
Q 1375 441 1716 441 
Q 2309 441 2620 675 
Q 2931 909 2931 1356 
Q 2931 1769 2642 2001 
Q 2353 2234 1838 2234 
L 1294 2234 
L 1294 2753 
L 1863 2753 
Q 2328 2753 2575 2939 
Q 2822 3125 2822 3475 
Q 2822 3834 2567 4026 
Q 2313 4219 1838 4219 
Q 1578 4219 1281 4162 
Q 984 4106 628 3988 
L 628 4550 
Q 988 4650 1302 4700 
Q 1616 4750 1894 4750 
Q 2613 4750 3031 4423 
Q 3450 4097 3450 3541 
Q 3450 3153 3228 2886 
Q 3006 2619 2597 2516 
z
" transform="scale(0.015625)"/>
       </defs>
       <use xlink:href="#DejaVuSans-33"/>
       <use xlink:href="#DejaVuSans-30" x="63.623047"/>
      </g>
     </g>
    </g>
    <g id="xtick_5">
     <g id="line2d_5">
      <g>
       <use xlink:href="#m9b40fd039c" x="520.321513" y="639.64" style="stroke: #000000; stroke-width: 0.8"/>
      </g>
     </g>
     <g id="text_5">
      <!-- 40 -->
      <g transform="translate(511.414013 657.277812) scale(0.14 -0.14)">
       <defs>
        <path id="DejaVuSans-34" d="M 2419 4116 
L 825 1625 
L 2419 1625 
L 2419 4116 
z
M 2253 4666 
L 3047 4666 
L 3047 1625 
L 3713 1625 
L 3713 1100 
L 3047 1100 
L 3047 0 
L 2419 0 
L 2419 1100 
L 313 1100 
L 313 1709 
L 2253 4666 
z
" transform="scale(0.015625)"/>
       </defs>
       <use xlink:href="#DejaVuSans-34"/>
       <use xlink:href="#DejaVuSans-30" x="63.623047"/>
      </g>
     </g>
    </g>
    <g id="xtick_6">
     <g id="line2d_6">
      <g>
       <use xlink:href="#m9b40fd039c" x="627.071891" y="639.64" style="stroke: #000000; stroke-width: 0.8"/>
      </g>
     </g>
     <g id="text_6">
      <!-- 50 -->
      <g transform="translate(618.164391 657.277812) scale(0.14 -0.14)">
       <defs>
        <path id="DejaVuSans-35" d="M 691 4666 
L 3169 4666 
L 3169 4134 
L 1269 4134 
L 1269 2991 
Q 1406 3038 1543 3061 
Q 1681 3084 1819 3084 
Q 2600 3084 3056 2656 
Q 3513 2228 3513 1497 
Q 3513 744 3044 326 
Q 2575 -91 1722 -91 
Q 1428 -91 1123 -41 
Q 819 9 494 109 
L 494 744 
Q 775 591 1075 516 
Q 1375 441 1709 441 
Q 2250 441 2565 725 
Q 2881 1009 2881 1497 
Q 2881 1984 2565 2268 
Q 2250 2553 1709 2553 
Q 1456 2553 1204 2497 
Q 953 2441 691 2322 
L 691 4666 
z
" transform="scale(0.015625)"/>
       </defs>
       <use xlink:href="#DejaVuSans-35"/>
       <use xlink:href="#DejaVuSans-30" x="63.623047"/>
      </g>
     </g>
    </g>
    <g id="xtick_7">
     <g id="line2d_7">
      <g>
       <use xlink:href="#m9b40fd039c" x="733.822269" y="639.64" style="stroke: #000000; stroke-width: 0.8"/>
      </g>
     </g>
     <g id="text_7">
      <!-- 60 -->
      <g transform="translate(724.914769 657.277812) scale(0.14 -0.14)">
       <defs>
        <path id="DejaVuSans-36" d="M 2113 2584 
Q 1688 2584 1439 2293 
Q 1191 2003 1191 1497 
Q 1191 994 1439 701 
Q 1688 409 2113 409 
Q 2538 409 2786 701 
Q 3034 994 3034 1497 
Q 3034 2003 2786 2293 
Q 2538 2584 2113 2584 
z
M 3366 4563 
L 3366 3988 
Q 3128 4100 2886 4159 
Q 2644 4219 2406 4219 
Q 1781 4219 1451 3797 
Q 1122 3375 1075 2522 
Q 1259 2794 1537 2939 
Q 1816 3084 2150 3084 
Q 2853 3084 3261 2657 
Q 3669 2231 3669 1497 
Q 3669 778 3244 343 
Q 2819 -91 2113 -91 
Q 1303 -91 875 529 
Q 447 1150 447 2328 
Q 447 3434 972 4092 
Q 1497 4750 2381 4750 
Q 2619 4750 2861 4703 
Q 3103 4656 3366 4563 
z
" transform="scale(0.015625)"/>
       </defs>
       <use xlink:href="#DejaVuSans-36"/>
       <use xlink:href="#DejaVuSans-30" x="63.623047"/>
      </g>
     </g>
    </g>
    <g id="text_8">
     <!-- Time (s) -->
     <g transform="translate(413.931531 674.827188) scale(0.14 -0.14)">
      <defs>
       <path id="DejaVuSans-54" d="M -19 4666 
L 3928 4666 
L 3928 4134 
L 2272 4134 
L 2272 0 
L 1638 0 
L 1638 4134 
L -19 4134 
L -19 4666 
z
" transform="scale(0.015625)"/>
       <path id="DejaVuSans-69" d="M 603 3500 
L 1178 3500 
L 1178 0 
L 603 0 
L 603 3500 
z
M 603 4863 
L 1178 4863 
L 1178 4134 
L 603 4134 
L 603 4863 
z
" transform="scale(0.015625)"/>
       <path id="DejaVuSans-6d" d="M 3328 2828 
Q 3544 3216 3844 3400 
Q 4144 3584 4550 3584 
Q 5097 3584 5394 3201 
Q 5691 2819 5691 2113 
L 5691 0 
L 5113 0 
L 5113 2094 
Q 5113 2597 4934 2840 
Q 4756 3084 4391 3084 
Q 3944 3084 3684 2787 
Q 3425 2491 3425 1978 
L 3425 0 
L 2847 0 
L 2847 2094 
Q 2847 2600 2669 2842 
Q 2491 3084 2119 3084 
Q 1678 3084 1418 2786 
Q 1159 2488 1159 1978 
L 1159 0 
L 581 0 
L 581 3500 
L 1159 3500 
L 1159 2956 
Q 1356 3278 1631 3431 
Q 1906 3584 2284 3584 
Q 2666 3584 2933 3390 
Q 3200 3197 3328 2828 
z
" transform="scale(0.015625)"/>
       <path id="DejaVuSans-65" d="M 3597 1894 
L 3597 1613 
L 953 1613 
Q 991 1019 1311 708 
Q 1631 397 2203 397 
Q 2534 397 2845 478 
Q 3156 559 3463 722 
L 3463 178 
Q 3153 47 2828 -22 
Q 2503 -91 2169 -91 
Q 1331 -91 842 396 
Q 353 884 353 1716 
Q 353 2575 817 3079 
Q 1281 3584 2069 3584 
Q 2775 3584 3186 3129 
Q 3597 2675 3597 1894 
z
M 3022 2063 
Q 3016 2534 2758 2815 
Q 2500 3097 2075 3097 
Q 1594 3097 1305 2825 
Q 1016 2553 972 2059 
L 3022 2063 
z
" transform="scale(0.015625)"/>
       <path id="DejaVuSans-20" transform="scale(0.015625)"/>
       <path id="DejaVuSans-28" d="M 1984 4856 
Q 1566 4138 1362 3434 
Q 1159 2731 1159 2009 
Q 1159 1288 1364 580 
Q 1569 -128 1984 -844 
L 1484 -844 
Q 1016 -109 783 600 
Q 550 1309 550 2009 
Q 550 2706 781 3412 
Q 1013 4119 1484 4856 
L 1984 4856 
z
" transform="scale(0.015625)"/>
       <path id="DejaVuSans-73" d="M 2834 3397 
L 2834 2853 
Q 2591 2978 2328 3040 
Q 2066 3103 1784 3103 
Q 1356 3103 1142 2972 
Q 928 2841 928 2578 
Q 928 2378 1081 2264 
Q 1234 2150 1697 2047 
L 1894 2003 
Q 2506 1872 2764 1633 
Q 3022 1394 3022 966 
Q 3022 478 2636 193 
Q 2250 -91 1575 -91 
Q 1294 -91 989 -36 
Q 684 19 347 128 
L 347 722 
Q 666 556 975 473 
Q 1284 391 1588 391 
Q 1994 391 2212 530 
Q 2431 669 2431 922 
Q 2431 1156 2273 1281 
Q 2116 1406 1581 1522 
L 1381 1569 
Q 847 1681 609 1914 
Q 372 2147 372 2553 
Q 372 3047 722 3315 
Q 1072 3584 1716 3584 
Q 2034 3584 2315 3537 
Q 2597 3491 2834 3397 
z
" transform="scale(0.015625)"/>
       <path id="DejaVuSans-29" d="M 513 4856 
L 1013 4856 
Q 1481 4119 1714 3412 
Q 1947 2706 1947 2009 
Q 1947 1309 1714 600 
Q 1481 -109 1013 -844 
L 513 -844 
Q 928 -128 1133 580 
Q 1338 1288 1338 2009 
Q 1338 2731 1133 3434 
Q 928 4138 513 4856 
z
" transform="scale(0.015625)"/>
      </defs>
      <use xlink:href="#DejaVuSans-54"/>
      <use xlink:href="#DejaVuSans-69" x="57.958984"/>
      <use xlink:href="#DejaVuSans-6d" x="85.742188"/>
      <use xlink:href="#DejaVuSans-65" x="183.154297"/>
      <use xlink:href="#DejaVuSans-20" x="244.677734"/>
      <use xlink:href="#DejaVuSans-28" x="276.464844"/>
      <use xlink:href="#DejaVuSans-73" x="315.478516"/>
      <use xlink:href="#DejaVuSans-29" x="367.578125"/>
     </g>
    </g>
   </g>
   <g id="matplotlib.axis_2">
    <g id="ytick_1">
     <g id="line2d_8">
      <defs>
       <path id="m26392809b3" d="M 0 0 
L -3.5 0 
" style="stroke: #000000; stroke-width: 0.8"/>
      </defs>
      <g>
       <use xlink:href="#m26392809b3" x="93.32" y="639.64" style="stroke: #000000; stroke-width: 0.8"/>
      </g>
     </g>
     <g id="text_9">
      <!-- 0 -->
      <g transform="translate(77.4125 644.958906) scale(0.14 -0.14)">
       <use xlink:href="#DejaVuSans-30"/>
      </g>
     </g>
    </g>
    <g id="ytick_2">
     <g id="line2d_9">
      <g>
       <use xlink:href="#m26392809b3" x="93.32" y="570.158826" style="stroke: #000000; stroke-width: 0.8"/>
      </g>
     </g>
     <g id="text_10">
      <!-- 20 -->
      <g transform="translate(68.505 575.477732) scale(0.14 -0.14)">
       <use xlink:href="#DejaVuSans-32"/>
       <use xlink:href="#DejaVuSans-30" x="63.623047"/>
      </g>
     </g>
    </g>
    <g id="ytick_3">
     <g id="line2d_10">
      <g>
       <use xlink:href="#m26392809b3" x="93.32" y="500.677651" style="stroke: #000000; stroke-width: 0.8"/>
      </g>
     </g>
     <g id="text_11">
      <!-- 40 -->
      <g transform="translate(68.505 505.996558) scale(0.14 -0.14)">
       <use xlink:href="#DejaVuSans-34"/>
       <use xlink:href="#DejaVuSans-30" x="63.623047"/>
      </g>
     </g>
    </g>
    <g id="ytick_4">
     <g id="line2d_11">
      <g>
       <use xlink:href="#m26392809b3" x="93.32" y="431.196477" style="stroke: #000000; stroke-width: 0.8"/>
      </g>
     </g>
     <g id="text_12">
      <!-- 60 -->
      <g transform="translate(68.505 436.515383) scale(0.14 -0.14)">
       <use xlink:href="#DejaVuSans-36"/>
       <use xlink:href="#DejaVuSans-30" x="63.623047"/>
      </g>
     </g>
    </g>
    <g id="ytick_5">
     <g id="line2d_12">
      <g>
       <use xlink:href="#m26392809b3" x="93.32" y="361.715303" style="stroke: #000000; stroke-width: 0.8"/>
      </g>
     </g>
     <g id="text_13">
      <!-- 80 -->
      <g transform="translate(68.505 367.034209) scale(0.14 -0.14)">
       <defs>
        <path id="DejaVuSans-38" d="M 2034 2216 
Q 1584 2216 1326 1975 
Q 1069 1734 1069 1313 
Q 1069 891 1326 650 
Q 1584 409 2034 409 
Q 2484 409 2743 651 
Q 3003 894 3003 1313 
Q 3003 1734 2745 1975 
Q 2488 2216 2034 2216 
z
M 1403 2484 
Q 997 2584 770 2862 
Q 544 3141 544 3541 
Q 544 4100 942 4425 
Q 1341 4750 2034 4750 
Q 2731 4750 3128 4425 
Q 3525 4100 3525 3541 
Q 3525 3141 3298 2862 
Q 3072 2584 2669 2484 
Q 3125 2378 3379 2068 
Q 3634 1759 3634 1313 
Q 3634 634 3220 271 
Q 2806 -91 2034 -91 
Q 1263 -91 848 271 
Q 434 634 434 1313 
Q 434 1759 690 2068 
Q 947 2378 1403 2484 
z
M 1172 3481 
Q 1172 3119 1398 2916 
Q 1625 2713 2034 2713 
Q 2441 2713 2670 2916 
Q 2900 3119 2900 3481 
Q 2900 3844 2670 4047 
Q 2441 4250 2034 4250 
Q 1625 4250 1398 4047 
Q 1172 3844 1172 3481 
z
" transform="scale(0.015625)"/>
       </defs>
       <use xlink:href="#DejaVuSans-38"/>
       <use xlink:href="#DejaVuSans-30" x="63.623047"/>
      </g>
     </g>
    </g>
    <g id="ytick_6">
     <g id="line2d_13">
      <g>
       <use xlink:href="#m26392809b3" x="93.32" y="292.234129" style="stroke: #000000; stroke-width: 0.8"/>
      </g>
     </g>
     <g id="text_14">
      <!-- 100 -->
      <g transform="translate(59.5975 297.553035) scale(0.14 -0.14)">
       <use xlink:href="#DejaVuSans-31"/>
       <use xlink:href="#DejaVuSans-30" x="63.623047"/>
       <use xlink:href="#DejaVuSans-30" x="127.246094"/>
      </g>
     </g>
    </g>
    <g id="ytick_7">
     <g id="line2d_14">
      <g>
       <use xlink:href="#m26392809b3" x="93.32" y="222.752954" style="stroke: #000000; stroke-width: 0.8"/>
      </g>
     </g>
     <g id="text_15">
      <!-- 120 -->
      <g transform="translate(59.5975 228.071861) scale(0.14 -0.14)">
       <use xlink:href="#DejaVuSans-31"/>
       <use xlink:href="#DejaVuSans-32" x="63.623047"/>
       <use xlink:href="#DejaVuSans-30" x="127.246094"/>
      </g>
     </g>
    </g>
    <g id="ytick_8">
     <g id="line2d_15">
      <g>
       <use xlink:href="#m26392809b3" x="93.32" y="153.27178" style="stroke: #000000; stroke-width: 0.8"/>
      </g>
     </g>
     <g id="text_16">
      <!-- 140 -->
      <g transform="translate(59.5975 158.590686) scale(0.14 -0.14)">
       <use xlink:href="#DejaVuSans-31"/>
       <use xlink:href="#DejaVuSans-34" x="63.623047"/>
       <use xlink:href="#DejaVuSans-30" x="127.246094"/>
      </g>
     </g>
    </g>
    <g id="ytick_9">
     <g id="line2d_16">
      <g>
       <use xlink:href="#m26392809b3" x="93.32" y="83.790606" style="stroke: #000000; stroke-width: 0.8"/>
      </g>
     </g>
     <g id="text_17">
      <!-- 160 -->
      <g transform="translate(59.5975 89.109512) scale(0.14 -0.14)">
       <use xlink:href="#DejaVuSans-31"/>
       <use xlink:href="#DejaVuSans-36" x="63.623047"/>
       <use xlink:href="#DejaVuSans-30" x="127.246094"/>
      </g>
     </g>
    </g>
    <g id="text_18">
     <!-- Packets per Second -->
     <g transform="translate(52.685938 418.683438) rotate(-90) scale(0.14 -0.14)">
      <defs>
       <path id="DejaVuSans-50" d="M 1259 4147 
L 1259 2394 
L 2053 2394 
Q 2494 2394 2734 2622 
Q 2975 2850 2975 3272 
Q 2975 3691 2734 3919 
Q 2494 4147 2053 4147 
L 1259 4147 
z
M 628 4666 
L 2053 4666 
Q 2838 4666 3239 4311 
Q 3641 3956 3641 3272 
Q 3641 2581 3239 2228 
Q 2838 1875 2053 1875 
L 1259 1875 
L 1259 0 
L 628 0 
L 628 4666 
z
" transform="scale(0.015625)"/>
       <path id="DejaVuSans-61" d="M 2194 1759 
Q 1497 1759 1228 1600 
Q 959 1441 959 1056 
Q 959 750 1161 570 
Q 1363 391 1709 391 
Q 2188 391 2477 730 
Q 2766 1069 2766 1631 
L 2766 1759 
L 2194 1759 
z
M 3341 1997 
L 3341 0 
L 2766 0 
L 2766 531 
Q 2569 213 2275 61 
Q 1981 -91 1556 -91 
Q 1019 -91 701 211 
Q 384 513 384 1019 
Q 384 1609 779 1909 
Q 1175 2209 1959 2209 
L 2766 2209 
L 2766 2266 
Q 2766 2663 2505 2880 
Q 2244 3097 1772 3097 
Q 1472 3097 1187 3025 
Q 903 2953 641 2809 
L 641 3341 
Q 956 3463 1253 3523 
Q 1550 3584 1831 3584 
Q 2591 3584 2966 3190 
Q 3341 2797 3341 1997 
z
" transform="scale(0.015625)"/>
       <path id="DejaVuSans-63" d="M 3122 3366 
L 3122 2828 
Q 2878 2963 2633 3030 
Q 2388 3097 2138 3097 
Q 1578 3097 1268 2742 
Q 959 2388 959 1747 
Q 959 1106 1268 751 
Q 1578 397 2138 397 
Q 2388 397 2633 464 
Q 2878 531 3122 666 
L 3122 134 
Q 2881 22 2623 -34 
Q 2366 -91 2075 -91 
Q 1284 -91 818 406 
Q 353 903 353 1747 
Q 353 2603 823 3093 
Q 1294 3584 2113 3584 
Q 2378 3584 2631 3529 
Q 2884 3475 3122 3366 
z
" transform="scale(0.015625)"/>
       <path id="DejaVuSans-6b" d="M 581 4863 
L 1159 4863 
L 1159 1991 
L 2875 3500 
L 3609 3500 
L 1753 1863 
L 3688 0 
L 2938 0 
L 1159 1709 
L 1159 0 
L 581 0 
L 581 4863 
z
" transform="scale(0.015625)"/>
       <path id="DejaVuSans-74" d="M 1172 4494 
L 1172 3500 
L 2356 3500 
L 2356 3053 
L 1172 3053 
L 1172 1153 
Q 1172 725 1289 603 
Q 1406 481 1766 481 
L 2356 481 
L 2356 0 
L 1766 0 
Q 1100 0 847 248 
Q 594 497 594 1153 
L 594 3053 
L 172 3053 
L 172 3500 
L 594 3500 
L 594 4494 
L 1172 4494 
z
" transform="scale(0.015625)"/>
       <path id="DejaVuSans-70" d="M 1159 525 
L 1159 -1331 
L 581 -1331 
L 581 3500 
L 1159 3500 
L 1159 2969 
Q 1341 3281 1617 3432 
Q 1894 3584 2278 3584 
Q 2916 3584 3314 3078 
Q 3713 2572 3713 1747 
Q 3713 922 3314 415 
Q 2916 -91 2278 -91 
Q 1894 -91 1617 61 
Q 1341 213 1159 525 
z
M 3116 1747 
Q 3116 2381 2855 2742 
Q 2594 3103 2138 3103 
Q 1681 3103 1420 2742 
Q 1159 2381 1159 1747 
Q 1159 1113 1420 752 
Q 1681 391 2138 391 
Q 2594 391 2855 752 
Q 3116 1113 3116 1747 
z
" transform="scale(0.015625)"/>
       <path id="DejaVuSans-72" d="M 2631 2963 
Q 2534 3019 2420 3045 
Q 2306 3072 2169 3072 
Q 1681 3072 1420 2755 
Q 1159 2438 1159 1844 
L 1159 0 
L 581 0 
L 581 3500 
L 1159 3500 
L 1159 2956 
Q 1341 3275 1631 3429 
Q 1922 3584 2338 3584 
Q 2397 3584 2469 3576 
Q 2541 3569 2628 3553 
L 2631 2963 
z
" transform="scale(0.015625)"/>
       <path id="DejaVuSans-53" d="M 3425 4513 
L 3425 3897 
Q 3066 4069 2747 4153 
Q 2428 4238 2131 4238 
Q 1616 4238 1336 4038 
Q 1056 3838 1056 3469 
Q 1056 3159 1242 3001 
Q 1428 2844 1947 2747 
L 2328 2669 
Q 3034 2534 3370 2195 
Q 3706 1856 3706 1288 
Q 3706 609 3251 259 
Q 2797 -91 1919 -91 
Q 1588 -91 1214 -16 
Q 841 59 441 206 
L 441 856 
Q 825 641 1194 531 
Q 1563 422 1919 422 
Q 2459 422 2753 634 
Q 3047 847 3047 1241 
Q 3047 1584 2836 1778 
Q 2625 1972 2144 2069 
L 1759 2144 
Q 1053 2284 737 2584 
Q 422 2884 422 3419 
Q 422 4038 858 4394 
Q 1294 4750 2059 4750 
Q 2388 4750 2728 4690 
Q 3069 4631 3425 4513 
z
" transform="scale(0.015625)"/>
       <path id="DejaVuSans-6f" d="M 1959 3097 
Q 1497 3097 1228 2736 
Q 959 2375 959 1747 
Q 959 1119 1226 758 
Q 1494 397 1959 397 
Q 2419 397 2687 759 
Q 2956 1122 2956 1747 
Q 2956 2369 2687 2733 
Q 2419 3097 1959 3097 
z
M 1959 3584 
Q 2709 3584 3137 3096 
Q 3566 2609 3566 1747 
Q 3566 888 3137 398 
Q 2709 -91 1959 -91 
Q 1206 -91 779 398 
Q 353 888 353 1747 
Q 353 2609 779 3096 
Q 1206 3584 1959 3584 
z
" transform="scale(0.015625)"/>
       <path id="DejaVuSans-6e" d="M 3513 2113 
L 3513 0 
L 2938 0 
L 2938 2094 
Q 2938 2591 2744 2837 
Q 2550 3084 2163 3084 
Q 1697 3084 1428 2787 
Q 1159 2491 1159 1978 
L 1159 0 
L 581 0 
L 581 3500 
L 1159 3500 
L 1159 2956 
Q 1366 3272 1645 3428 
Q 1925 3584 2291 3584 
Q 2894 3584 3203 3211 
Q 3513 2838 3513 2113 
z
" transform="scale(0.015625)"/>
       <path id="DejaVuSans-64" d="M 2906 2969 
L 2906 4863 
L 3481 4863 
L 3481 0 
L 2906 0 
L 2906 525 
Q 2725 213 2448 61 
Q 2172 -91 1784 -91 
Q 1150 -91 751 415 
Q 353 922 353 1747 
Q 353 2572 751 3078 
Q 1150 3584 1784 3584 
Q 2172 3584 2448 3432 
Q 2725 3281 2906 2969 
z
M 947 1747 
Q 947 1113 1208 752 
Q 1469 391 1925 391 
Q 2381 391 2643 752 
Q 2906 1113 2906 1747 
Q 2906 2381 2643 2742 
Q 2381 3103 1925 3103 
Q 1469 3103 1208 2742 
Q 947 2381 947 1747 
z
" transform="scale(0.015625)"/>
      </defs>
      <use xlink:href="#DejaVuSans-50"/>
      <use xlink:href="#DejaVuSans-61" x="55.802734"/>
      <use xlink:href="#DejaVuSans-63" x="117.082031"/>
      <use xlink:href="#DejaVuSans-6b" x="172.0625"/>
      <use xlink:href="#DejaVuSans-65" x="226.347656"/>
      <use xlink:href="#DejaVuSans-74" x="287.871094"/>
      <use xlink:href="#DejaVuSans-73" x="327.080078"/>
      <use xlink:href="#DejaVuSans-20" x="379.179688"/>
      <use xlink:href="#DejaVuSans-70" x="410.966797"/>
      <use xlink:href="#DejaVuSans-65" x="474.443359"/>
      <use xlink:href="#DejaVuSans-72" x="535.966797"/>
      <use xlink:href="#DejaVuSans-20" x="577.080078"/>
      <use xlink:href="#DejaVuSans-53" x="608.867188"/>
      <use xlink:href="#DejaVuSans-65" x="672.34375"/>
      <use xlink:href="#DejaVuSans-63" x="733.867188"/>
      <use xlink:href="#DejaVuSans-6f" x="788.847656"/>
      <use xlink:href="#DejaVuSans-6e" x="850.029297"/>
      <use xlink:href="#DejaVuSans-64" x="913.408203"/>
     </g>
    </g>
   </g>
   <g id="line2d_17">
    <path d="M 108.6511 379.30849 
L 109.754143 269.805949 
L 110.948659 298.127208 
L 112.143733 298.28614 
L 113.229379 332.199852 
L 114.531732 269.452827 
L 115.727193 298.397038 
L 117.031574 326.891808 
L 118.336247 241.685974 
L 119.423256 298.467865 
L 120.508393 366.231546 
L 121.702544 391.191004 
L 122.897276 298.188545 
L 124.199735 354.903894 
L 125.285092 297.948838 
L 126.695912 297.913833 
L 127.781661 400.542217 
L 129.193341 271.851425 
L 130.278525 400.417896 
L 131.36494 298.281667 
L 132.559389 329.155954 
L 133.646075 332.494043 
L 134.731643 332.177446 
L 136.033422 354.755333 
L 137.119474 298.167191 
L 138.314205 360.270541 
L 139.401586 196.268211 
L 140.48726 400.525781 
L 141.573626 332.403478 
L 142.659899 332.377086 
L 143.853929 329.047338 
L 145.264931 350.524314 
L 146.350755 332.250062 
L 147.32749 221.980355 
L 148.522838 391.439681 
L 149.826926 269.945579 
L 150.91214 400.424497 
L 153.408859 245.242551 
L 154.820948 324.483797 
L 155.906263 400.446861 
L 156.991725 332.147623 
L 158.077248 332.164605 
L 159.488177 297.940158 
L 160.574495 366.52883 
L 161.98689 324.552215 
L 163.073392 264.175507 
L 164.268324 360.317514 
L 165.464026 267.44978 
L 166.659152 360.362961 
L 167.961086 297.818957 
L 169.156471 360.423301 
L 170.459187 354.960109 
L 171.544739 263.846973 
L 172.63065 366.42642 
L 173.71605 366.297827 
L 175.888572 298.170863 
L 177.084025 360.439097 
L 178.171419 298.588843 
L 179.366316 329.272601 
L 180.452087 263.922818 
L 181.538632 400.717728 
L 182.734283 329.468153 
L 183.821716 332.704902 
L 184.907263 332.17169 
L 185.992818 332.173761 
L 187.297372 298.505416 
L 188.275268 336.248184 
L 189.470452 329.347149 
L 190.555825 332.122406 
L 191.860225 326.896321 
L 192.947058 332.535418 
L 194.033031 298.142651 
L 195.119266 366.507833 
L 196.098068 298.64023 
L 197.292805 329.230788 
L 198.269366 259.882097 
L 199.463601 360.154332 
L 200.767785 326.84468 
L 201.852987 366.247804 
L 203.046867 297.945023 
L 204.349264 326.415375 
L 205.434633 297.952373 
L 206.628731 360.12244 
L 207.71512 332.410149 
L 208.80023 332.047658 
L 209.885474 332.085754 
L 210.970833 263.780328 
L 213.142864 332.132517 
L 214.228046 400.417447 
L 216.40082 263.953752 
L 217.486533 332.218536 
L 218.572326 332.241473 
L 219.765901 359.999891 
L 222.1548 298.158603 
L 223.240675 366.417449 
L 224.546 270.295769 
L 225.63124 332.08445 
L 226.824682 359.969005 
L 227.910893 366.501745 
L 230.082997 298.465048 
L 231.388384 298.722878 
L 232.47424 332.259264 
L 233.668327 360.119717 
L 234.96967 354.659902 
L 236.055438 298.07782 
L 237.141877 298.28911 
L 238.335904 360.105732 
L 239.637797 297.808195 
L 240.724705 400.797401 
L 241.701029 183.819437 
L 242.786625 332.185628 
L 244.197417 376.768431 
L 245.391455 329.049246 
L 246.693948 326.438505 
L 247.780161 264.075685 
L 248.973073 359.844498 
L 250.275245 297.881295 
L 251.687686 377.075433 
L 252.773652 263.990438 
L 253.859538 332.267625 
L 255.053081 359.992315 
L 256.030416 298.128287 
L 257.334971 326.933546 
L 258.41998 366.199255 
L 259.506225 298.228133 
L 260.91746 350.57199 
L 262.003355 263.965544 
L 263.142886 346.737605 
L 264.227288 331.847132 
L 265.530075 354.975497 
L 266.722789 328.704642 
L 267.866733 283.029043 
L 269.061286 329.18325 
L 270.146625 297.943232 
L 271.232351 332.222311 
L 272.426875 391.268485 
L 273.728772 326.295055 
L 274.813328 297.69633 
L 276.224978 350.65705 
L 277.310263 332.097364 
L 278.395716 297.97889 
L 279.591119 360.427608 
L 280.785108 297.97629 
L 281.871549 264.154452 
L 282.957822 366.517512 
L 284.04513 298.561691 
L 286.220418 366.868044 
L 287.414169 328.974563 
L 288.608595 360.199214 
L 289.694343 298.071826 
L 290.781167 264.286936 
L 291.974478 359.937942 
L 293.063301 333.096719 
L 294.257191 297.947889 
L 295.234426 260.143706 
L 296.319244 331.964922 
L 297.40434 332.044033 
L 298.81623 376.972862 
L 299.900789 331.891409 
L 300.986652 298.107994 
L 302.072938 298.240828 
L 303.267935 360.332699 
L 304.570617 354.952674 
L 305.655834 263.731151 
L 306.851078 360.390471 
L 308.153686 326.465931 
L 309.347832 329.077547 
L 310.432472 331.914558 
L 311.517638 332.06351 
L 312.711222 328.931369 
L 313.808128 301.545982 
L 315.110318 354.845249 
L 316.41289 354.928419 
L 317.498369 297.987142 
L 318.692649 360.165176 
L 319.779364 298.375474 
L 320.755934 297.860831 
L 321.841547 332.190202 
L 323.035855 360.171749 
L 324.123375 332.729288 
L 325.319591 329.614847 
L 326.405163 332.178665 
L 327.492323 332.627823 
L 328.577819 332.157324 
L 329.554653 222.022634 
L 330.750385 360.504343 
L 333.139253 297.878656 
L 334.224544 400.44172 
L 335.42088 329.645734 
L 336.618592 299.038304 
L 337.703748 332.060763 
L 338.790077 332.393083 
L 339.984177 329.065375 
L 341.289062 298.592044 
L 342.483636 329.188563 
L 343.568933 332.100903 
L 344.654065 332.054061 
L 345.632967 336.559741 
L 346.72034 366.79388 
L 347.914193 329.001042 
L 349.111862 299.026142 
L 350.304342 297.54396 
L 351.391318 366.694039 
L 352.480088 299.019734 
L 353.565078 332.01376 
L 354.867593 354.916122 
L 355.95232 263.561356 
L 357.147526 360.381619 
L 358.232615 332.04179 
L 359.319333 332.502822 
L 360.51693 268.038836 
L 361.712351 391.454926 
L 362.795348 331.447744 
L 364.099335 326.797223 
L 365.076122 297.936783 
L 366.161621 297.993177 
L 367.248831 298.531001 
L 368.443944 360.359966 
L 369.528062 365.974407 
L 370.618119 299.421933 
L 371.701962 331.688441 
L 373.004182 326.372636 
L 374.089904 366.378959 
L 375.285744 298.505081 
L 376.479338 328.9337 
L 377.563197 331.692687 
L 378.648767 298.015878 
L 379.843742 360.327525 
L 380.932267 298.943262 
L 382.017695 332.137849 
L 383.320449 354.968313 
L 384.405118 331.922887 
L 385.492263 332.623578 
L 386.576904 331.914658 
L 387.662386 263.822666 
L 389.725185 332.249521 
L 390.920022 360.295158 
L 392.222614 297.991548 
L 393.633323 324.175625 
L 394.828941 360.477895 
L 395.914348 332.131843 
L 397.0001 332.229647 
L 398.084973 366.165157 
L 399.389124 326.836626 
L 400.366743 222.357786 
L 401.347159 337.028027 
L 402.539854 359.793661 
L 403.628164 332.952265 
L 404.821739 328.928882 
L 405.804196 299.9086 
L 406.889596 332.130004 
L 407.980093 333.567163 
L 409.070428 367.535008 
L 410.373299 326.52949 
L 411.568378 298.287576 
L 412.87127 354.998655 
L 414.06623 329.288954 
L 415.154946 299.002901 
L 416.245221 367.51999 
L 417.330611 297.959074 
L 418.415698 332.041079 
L 419.50206 229.989709 
L 420.806867 383.838773 
L 422.110161 355.086224 
L 423.195207 263.671867 
L 424.49785 298.005013 
L 425.692597 391.314935 
L 427.105103 298.321724 
L 428.190305 400.421892 
L 429.386123 298.498699 
L 430.693662 327.647065 
L 431.779334 298.048108 
L 432.866957 298.660441 
L 433.952207 366.259902 
L 435.037233 297.844527 
L 436.122962 332.223036 
L 437.210003 332.594354 
L 438.403992 329.036525 
L 439.490016 264.010399 
L 440.685579 391.484323 
L 441.991255 270.395169 
L 443.401591 376.683518 
L 444.489011 332.70116 
L 445.684138 298.301577 
L 446.77417 333.436531 
L 447.966966 297.63462 
L 449.163808 329.777071 
L 450.466363 354.924795 
L 451.877942 324.370037 
L 453.071009 328.796457 
L 454.158565 298.639727 
L 455.243776 366.25013 
L 456.548174 326.895811 
L 457.742254 360.118325 
L 458.938019 298.483651 
L 460.023245 332.080723 
L 461.217957 329.224464 
L 462.629704 324.407503 
L 464.042795 324.707353 
L 466.323489 332.701582 
L 467.625521 326.327509 
L 468.711185 298.045354 
L 470.121614 350.406881 
L 471.209956 264.810454 
L 472.405662 360.49831 
L 473.382794 298.05741 
L 474.576644 360.064193 
L 475.884849 356.154672 
L 476.97132 298.29895 
L 478.057486 298.203094 
L 479.251998 391.266161 
L 480.341755 299.328167 
L 481.537085 329.384927 
L 482.625667 264.893264 
L 483.819887 360.150829 
L 484.910911 333.715373 
L 486.212965 354.815206 
L 487.191243 260.548509 
L 488.168121 335.931964 
L 489.361926 297.923344 
L 490.554761 390.917042 
L 491.859152 270.03129 
L 493.053013 360.066838 
L 494.355954 298.083214 
L 495.441562 332.188923 
L 496.637748 360.610174 
L 497.722312 331.89299 
L 499.025592 355.083383 
L 500.110681 297.864235 
L 501.197518 332.536616 
L 502.283484 298.140059 
L 503.48289 361.359569 
L 504.460786 298.323973 
L 505.764119 298.18591 
L 506.95823 360.125541 
L 509.34496 297.743438 
L 510.539078 360.127101 
L 511.626462 332.691132 
L 512.820529 297.998616 
L 513.906568 298.163241 
L 515.101062 391.262279 
L 516.186726 298.045313 
L 517.381231 360.217721 
L 518.470759 333.294879 
L 519.557516 298.388856 
L 520.643095 332.180748 
L 521.73051 332.699774 
L 522.924256 328.973396 
L 524.227543 326.629334 
L 525.314167 332.476463 
L 526.400473 264.10768 
L 527.593559 390.969239 
L 528.467871 257.887001 
L 529.880851 324.682551 
L 530.965717 331.978531 
L 532.05129 332.179013 
L 533.136875 332.182498 
L 534.222193 297.936269 
L 535.416847 360.25242 
L 536.506951 333.45711 
L 537.598255 367.776486 
L 538.690044 299.961784 
L 539.890028 330.588229 
L 540.976929 298.434045 
L 542.061618 366.118523 
L 543.042751 299.450223 
L 544.562213 297.940188 
L 545.649418 400.862671 
L 546.841895 297.542955 
L 547.928031 366.482996 
L 549.012371 331.829533 
L 550.206708 235.973134 
L 551.398972 359.692459 
L 552.708705 356.485267 
L 553.902268 297.854163 
L 554.992102 367.40995 
L 556.299085 270.764345 
L 557.495047 360.558011 
L 558.796985 354.79004 
L 559.882171 332.069289 
L 560.85943 298.1017 
L 561.949708 333.50596 
L 563.143191 328.904853 
L 564.234611 299.846841 
L 565.319698 332.041188 
L 566.622922 355.070994 
L 567.599103 297.72455 
L 568.690268 265.780361 
L 569.884007 360.038234 
L 571.19071 355.82861 
L 572.275986 263.751702 
L 573.470292 391.223137 
L 574.884436 324.941836 
L 575.860254 297.597324 
L 576.83877 336.440621 
L 578.032248 297.829694 
L 579.009448 298.081313 
L 580.0953 332.257964 
L 581.291615 360.640283 
L 582.377197 332.181691 
L 583.680252 355.034132 
L 584.765302 332.030859 
L 585.853394 264.724201 
L 586.831216 298.298347 
L 587.915378 400.192396 
L 589.10905 328.953996 
L 590.197288 298.85332 
L 591.281924 331.913471 
L 592.584937 298.101965 
L 593.778325 359.956201 
L 594.864569 366.510018 
L 595.954716 299.450164 
L 596.935511 299.332901 
L 598.12833 359.822678 
L 599.430596 297.906072 
L 600.411539 299.384311 
L 601.604887 359.946867 
L 602.908012 355.049387 
L 603.994871 264.299047 
L 605.188571 360.02913 
L 606.278977 367.552846 
L 607.259414 261.38274 
L 608.34846 333.159594 
L 609.542165 360.030418 
L 610.845114 355.011048 
L 611.823063 260.420639 
L 612.908509 332.142972 
L 613.99353 297.842923 
L 615.190526 360.799225 
L 616.383291 266.533415 
L 617.469559 400.656545 
L 619.643842 265.19042 
L 620.729391 332.172061 
L 621.815075 332.210504 
L 623.012921 360.997041 
L 624.311236 296.866053 
L 625.400455 333.208215 
L 626.595152 391.304411 
L 627.680284 297.877912 
L 628.764706 366.051177 
L 629.966371 300.15885 
L 631.160216 297.934781 
L 632.249959 333.355627 
L 633.555463 327.160747 
L 634.640407 332.000763 
L 635.833197 359.815907 
L 637.026947 328.974555 
L 638.115968 230.989697 
L 639.205535 333.306278 
L 640.290676 332.056397 
L 641.375552 331.98164 
L 642.568164 359.77399 
L 643.76233 266.971323 
L 644.848294 332.289597 
L 646.044966 391.714265 
L 647.345587 268.960202 
L 648.433593 401.038239 
L 649.626331 297.617941 
L 651.803539 366.964733 
L 652.89026 298.377472 
L 654.082223 359.621802 
L 655.279022 329.765778 
L 656.255964 260.030234 
L 657.345038 299.114604 
L 658.432167 332.619032 
L 659.623512 359.476553 
L 660.716303 368.146461 
L 661.796556 296.334406 
L 662.889712 368.237133 
L 663.752946 81.141909 
L 665.036034 379.508741 
L 666.341284 383.925555 
L 667.433924 334.167404 
L 668.679223 312.053802 
L 669.736835 288.985054 
L 670.823143 366.526146 
L 672.01741 235.949514 
L 673.159516 412.340738 
L 674.39247 308.773656 
L 675.545114 317.895421 
L 676.724657 356.673284 
L 677.847679 309.40863 
L 678.983387 313.097347 
L 680.289366 298.877584 
L 681.347774 394.366105 
L 682.315645 218.155411 
L 683.490148 355.459071 
L 684.523401 388.394705 
L 685.871647 282.053795 
L 687.051305 325.262978 
L 688.514443 335.479803 
L 689.700597 358.250386 
L 690.846508 348.368342 
L 692.02551 325.088353 
L 693.038859 310.265536 
L 694.3467 327.71904 
L 695.233542 263.280789 
L 696.409081 387.25722 
L 697.72592 273.525429 
L 698.797608 328.195361 
L 700.018079 366.162423 
L 701.344202 304.054053 
L 702.64543 383.134979 
L 703.733212 332.803354 
L 705.035682 354.906288 
L 706.120092 263.451576 
L 707.315868 391.528515 
L 708.411086 334.886596 
L 709.388597 298.189596 
L 710.688629 325.845682 
L 711.885383 298.765726 
L 712.98011 334.749794 
L 714.072358 334.058005 
L 715.169449 335.406946 
L 716.255832 366.54498 
L 717.45874 300.509739 
L 718.435458 259.94243 
L 719.629275 360.05667 
L 720.718498 333.209351 
L 721.752415 209.210382 
L 722.999617 342.288848 
L 724.331399 389.019763 
L 725.295345 293.384999 
L 726.505062 271.761659 
L 727.626211 341.935209 
L 728.745686 341.490213 
L 729.816199 327.853657 
L 730.876018 324.707482 
L 732.306805 328.602469 
L 733.504201 422.836116 
L 734.916407 324.510172 
L 736.002852 264.155744 
L 737.195819 359.857477 
L 738.285883 333.445826 
L 739.598898 357.192925 
L 740.793601 329.222192 
L 742.094508 269.041508 
L 743.184723 367.505007 
L 744.269081 297.633724 
L 745.68545 377.803538 
L 746.658952 220.593395 
L 747.742887 331.71452 
L 748.94255 361.419051 
L 750.026868 331.823075 
L 751.123073 368.992025 
L 752.208872 298.087727 
L 753.291139 331.239834 
L 754.490304 268.524724 
L 755.575637 400.450712 
L 756.769105 328.900923 
L 757.851736 297.088268 
L 758.9491 335.482674 
L 758.9491 335.482674 
" clip-path="url(#pd572a8817b)" style="fill: none; stroke: #1f77b4; stroke-width: 1.5; stroke-linecap: square"/>
   </g>
   <g id="line2d_18">
    <path d="M 108.6511 466.08566 
L 109.754143 471.533613 
L 110.948659 422.313678 
L 112.143733 453.446985 
L 113.229379 434.679901 
L 114.531732 440.308445 
L 115.727193 422.485388 
L 117.031574 440.618424 
L 118.336247 383.812412 
L 119.423256 434.936719 
L 120.508393 434.583659 
L 121.702544 484.359377 
L 122.897276 422.352711 
L 124.199735 440.324725 
L 125.285092 400.456187 
L 126.695912 429.346974 
L 127.781661 468.855869 
L 129.193341 403.204487 
L 130.278525 468.767069 
L 131.36494 400.689167 
L 132.559389 453.349572 
L 133.646075 434.876028 
L 134.731643 434.664964 
L 136.033422 440.220733 
L 137.119474 400.609034 
L 138.314205 453.393694 
L 139.401586 366.795822 
L 140.48726 468.84413 
L 141.573626 434.815652 
L 142.659899 434.798057 
L 143.853929 422.225137 
L 145.264931 455.657291 
L 146.350755 434.713375 
L 147.32749 373.85659 
L 148.522838 453.489761 
L 149.826926 412.135741 
L 150.91214 468.771783 
L 151.99839 434.793675 
L 153.408859 403.00153 
L 154.820948 429.535865 
L 155.906263 468.787758 
L 156.991725 434.645082 
L 158.077248 434.656403 
L 159.488177 403.078571 
L 160.574495 468.945519 
L 163.073392 400.70805 
L 164.268324 453.425009 
L 165.464026 391.513187 
L 166.659152 453.455308 
L 167.961086 411.759305 
L 169.156471 453.495534 
L 170.459187 440.364076 
L 171.544739 400.498983 
L 173.71605 468.801142 
L 175.888572 400.611604 
L 177.084025 453.506064 
L 178.171419 435.009306 
L 179.366316 422.382821 
L 180.452087 400.547248 
L 181.538632 468.981234 
L 182.734283 422.519707 
L 183.821716 435.016602 
L 184.907263 434.661126 
L 185.992818 434.662507 
L 187.297372 412.216944 
L 188.275268 450.020115 
L 189.470452 422.435004 
L 190.555825 434.628271 
L 191.860225 440.621295 
L 192.947058 434.903612 
L 194.033031 400.591856 
L 195.119266 468.932395 
L 196.098068 412.30682 
L 197.292805 422.353551 
L 198.269366 411.785258 
L 199.463601 453.316221 
L 200.767785 412.152495 
L 201.852987 468.769877 
L 203.046867 422.197742 
L 204.349264 411.840273 
L 205.434633 434.627424 
L 206.628731 453.29496 
L 207.71512 434.8201 
L 208.80023 434.578439 
L 209.885474 434.603836 
L 210.970833 366.287511 
L 212.057455 434.863862 
L 213.142864 434.635011 
L 214.228046 468.766748 
L 216.40082 400.566933 
L 217.486533 434.692357 
L 218.572326 434.707649 
L 219.765901 453.213261 
L 222.1548 411.985735 
L 223.240675 434.723087 
L 224.546 412.351242 
L 225.63124 434.602967 
L 226.824682 453.19267 
L 227.910893 434.786309 
L 228.995998 434.577521 
L 230.082997 434.935029 
L 231.388384 412.361919 
L 232.47424 434.719509 
L 233.668327 453.293144 
L 234.96967 440.153932 
L 236.055438 400.546474 
L 237.141877 434.829466 
L 238.335904 453.283821 
L 239.637797 411.75213 
L 240.724705 469.038144 
L 241.701029 373.744672 
L 242.786625 434.670418 
L 244.197417 455.629902 
L 245.391455 422.226472 
L 246.693948 440.329958 
L 247.780161 400.644527 
L 248.973073 453.109665 
L 250.275245 411.800864 
L 251.687686 455.844803 
L 252.773652 400.590279 
L 253.859538 434.725083 
L 255.053081 453.20821 
L 256.030416 411.965525 
L 257.334971 412.217124 
L 258.41998 468.739535 
L 259.506225 400.651693 
L 260.91746 455.68763 
L 262.003355 400.574437 
L 263.142886 444.371737 
L 264.227288 434.444755 
L 265.530075 440.374848 
L 266.722789 421.985249 
L 267.866733 412.705755 
L 269.061286 422.320275 
L 270.146625 434.621939 
L 271.232351 434.694874 
L 272.426875 453.361364 
L 273.728772 440.238671 
L 274.813328 400.279431 
L 276.224978 455.741759 
L 277.310263 434.611576 
L 278.395716 400.477223 
L 279.591119 453.498405 
L 280.785108 422.217639 
L 281.871549 400.694651 
L 282.957822 434.798134 
L 284.04513 434.993014 
L 286.220418 435.061033 
L 287.414169 453.240738 
L 288.608595 453.346142 
L 289.694343 400.542278 
L 290.781167 400.77896 
L 291.974478 453.171961 
L 293.063301 435.277813 
L 294.257191 391.136646 
L 296.319244 434.523282 
L 297.40434 434.576022 
L 298.81623 455.773003 
L 299.900789 434.474272 
L 300.986652 400.567596 
L 302.072938 434.800497 
L 303.267935 453.435133 
L 304.570617 440.358872 
L 305.655834 400.425278 
L 306.851078 453.473647 
L 308.153686 411.87704 
L 309.347832 453.302528 
L 310.432472 434.489706 
L 311.517638 434.589007 
L 312.711222 422.143958 
L 313.808128 402.974187 
L 315.110318 468.76315 
L 316.41289 440.341893 
L 317.498369 400.483 
L 318.692649 453.323451 
L 319.779364 434.881284 
L 320.755934 411.787221 
L 321.841547 434.673468 
L 323.035855 453.327833 
L 324.123375 435.032859 
L 325.319591 422.622393 
L 326.405163 434.665777 
L 327.492323 434.965215 
L 328.577819 434.651549 
L 329.554653 373.883494 
L 330.750385 453.549562 
L 333.139253 411.799104 
L 334.224544 468.784086 
L 335.42088 422.644014 
L 336.618592 422.893466 
L 337.703748 434.587175 
L 338.790077 434.808722 
L 339.984177 422.237763 
L 341.289062 412.274696 
L 342.483636 453.369138 
L 343.568933 434.613936 
L 344.654065 434.582707 
L 345.632967 412.329806 
L 346.72034 469.111175 
L 347.914193 422.192729 
L 349.111862 422.885727 
L 350.304342 421.94252 
L 351.391318 434.930529 
L 352.480088 435.26784 
L 353.565078 434.55584 
L 354.867593 440.333285 
L 355.95232 400.317227 
L 357.147526 453.467746 
L 358.232615 434.574527 
L 359.319333 434.881882 
L 360.51693 391.905891 
L 361.712351 453.501194 
L 362.795348 434.178496 
L 364.099335 440.558233 
L 365.076122 411.837855 
L 366.161621 400.487224 
L 367.248831 434.9746 
L 368.443944 453.45331 
L 369.528062 434.390805 
L 370.618119 435.50916 
L 371.701962 434.338961 
L 373.004182 411.80919 
L 374.089904 468.851849 
L 375.285744 422.554143 
L 376.479338 422.14559 
L 377.563197 434.341791 
L 378.648767 400.503114 
L 379.843742 453.431683 
L 380.932267 435.221957 
L 382.017695 434.638566 
L 383.320449 440.369819 
L 384.405118 434.495258 
L 385.492263 434.962386 
L 386.576904 434.489772 
L 387.662386 400.483515 
L 388.639363 411.882231 
L 389.725185 434.713014 
L 390.920022 453.410106 
L 392.222614 411.874366 
L 393.633323 429.330416 
L 394.828941 453.53193 
L 395.914348 434.634562 
L 397.0001 434.699764 
L 398.084973 434.533868 
L 399.389124 440.583307 
L 400.366743 374.096773 
L 401.347159 412.681021 
L 402.539854 453.075774 
L 403.628164 435.18151 
L 404.821739 453.213329 
L 405.804196 413.1524 
L 406.889596 434.633336 
L 407.980093 435.591442 
L 409.070428 435.561256 
L 410.373299 440.387857 
L 411.568378 422.41573 
L 412.87127 440.391059 
L 414.06623 422.394268 
L 415.154946 435.257741 
L 416.245221 435.549993 
L 417.330611 434.631445 
L 418.415698 434.574053 
L 419.50206 366.539806 
L 420.806867 469.105849 
L 422.110161 440.452357 
L 423.195207 400.387552 
L 424.49785 411.883342 
L 425.692597 453.396202 
L 427.105103 429.597984 
L 428.190305 468.769923 
L 429.386123 422.550081 
L 430.693662 441.099042 
L 431.779334 400.525676 
L 432.866957 435.052264 
L 433.952207 434.604927 
L 435.037233 434.562716 
L 436.122962 434.695358 
L 437.210003 434.942903 
L 438.403992 422.217567 
L 439.490016 400.602981 
L 440.685579 453.523243 
L 441.991255 412.412411 
L 443.401591 455.570463 
L 444.489011 435.014107 
L 445.684138 422.42464 
L 446.77417 435.504354 
L 447.966966 390.908815 
L 449.163808 453.722243 
L 450.466363 440.339357 
L 451.877942 429.460025 
L 453.071009 422.04952 
L 454.158565 435.039836 
L 455.243776 434.597597 
L 456.548174 440.620971 
L 457.742254 453.292216 
L 458.938019 422.540505 
L 460.023245 434.600482 
L 461.217957 422.349125 
L 462.629704 429.485002 
L 464.042795 429.684902 
L 465.236068 422.087106 
L 466.323489 435.014388 
L 467.625521 440.259324 
L 468.711185 400.523748 
L 470.121614 455.582561 
L 471.209956 401.112107 
L 472.405662 453.54554 
L 473.382794 411.918273 
L 474.576644 453.256128 
L 475.884849 441.200271 
L 476.97132 400.701265 
L 478.057486 434.777857 
L 479.251998 453.359621 
L 480.341755 435.4529 
L 481.537085 422.461449 
L 482.625667 401.164804 
L 483.819887 453.313886 
L 484.910911 435.690249 
L 486.212965 440.262644 
L 487.191243 374.275957 
L 488.168121 449.822477 
L 489.361926 422.183946 
L 490.554761 453.097782 
L 491.859152 412.188486 
L 493.053013 453.257892 
L 494.355954 411.935476 
L 495.441562 434.672615 
L 496.637748 453.620116 
L 497.722312 434.475327 
L 499.025592 440.450368 
L 500.110681 400.396964 
L 501.197518 434.904411 
L 502.283484 434.740036 
L 503.48289 454.119713 
L 504.460786 412.095982 
L 505.764119 412.00394 
L 506.95823 453.297028 
L 509.34496 411.708959 
L 510.539078 453.298067 
L 511.626462 435.007421 
L 512.820529 391.173539 
L 513.906568 434.753944 
L 515.101062 453.356709 
L 516.186726 434.683188 
L 517.381231 453.358481 
L 518.470759 435.409919 
L 519.557516 400.764199 
L 520.643095 434.667165 
L 521.73051 435.013183 
L 522.924256 422.173378 
L 524.227543 440.451394 
L 525.314167 434.864309 
L 526.400473 400.664887 
L 527.593559 453.13693 
L 528.467871 385.138001 
L 529.880851 429.668368 
L 530.965717 434.532354 
L 532.05129 434.666008 
L 534.222193 434.617761 
L 535.416847 453.381613 
L 536.506951 435.518073 
L 537.598255 435.742365 
L 538.690044 435.833071 
L 539.890028 423.30376 
L 540.976929 400.795832 
L 542.061618 468.689077 
L 543.042751 412.846815 
L 544.562213 419.975835 
L 545.649418 469.084765 
L 546.841895 421.941881 
L 547.928031 434.772247 
L 549.012371 434.433022 
L 550.206708 391.229621 
L 551.398972 453.008306 
L 552.708705 441.431687 
L 553.902268 422.139922 
L 554.992102 435.467462 
L 556.299085 412.639597 
L 557.495047 453.58534 
L 558.796985 440.245028 
L 559.882171 434.59286 
L 560.85943 411.9478 
L 561.949708 435.55064 
L 563.143191 422.125397 
L 564.234611 435.764105 
L 565.319698 434.574125 
L 566.622922 440.441696 
L 567.599103 411.696367 
L 568.690268 401.729321 
L 569.884007 453.238823 
L 571.19071 440.972027 
L 572.275986 400.438356 
L 573.470292 453.327353 
L 574.884436 429.841224 
L 575.860254 411.611549 
L 576.83877 450.140388 
L 578.032248 422.124351 
L 579.009448 411.934209 
L 580.0953 434.718643 
L 581.291615 453.640189 
L 582.377197 434.667794 
L 583.680252 440.415893 
L 584.765302 434.56724 
L 585.853394 401.057219 
L 586.831216 412.078898 
L 587.915378 468.605997 
L 589.10905 422.159797 
L 590.197288 435.167992 
L 591.281924 434.488981 
L 592.584937 411.947977 
L 593.778325 453.184134 
L 594.864569 434.792513 
L 595.954716 435.526098 
L 596.935511 412.7686 
L 598.12833 453.095119 
L 599.430596 411.817381 
L 600.411539 412.802874 
L 601.604887 453.177911 
L 602.908012 440.426571 
L 603.994871 400.786666 
L 605.188571 453.232753 
L 606.278977 435.574634 
L 607.259414 412.685644 
L 608.34846 435.31973 
L 609.542165 453.233612 
L 610.845114 440.399733 
L 611.823063 374.186447 
L 612.908509 434.641981 
L 613.99353 434.561754 
L 615.190526 453.74615 
L 616.383291 390.902277 
L 617.469559 468.937532 
L 619.643842 401.353904 
L 620.729391 434.661374 
L 621.815075 434.687003 
L 623.012921 453.878027 
L 624.311236 411.124035 
L 625.400455 435.352144 
L 626.595152 453.388308 
L 627.680284 434.582747 
L 628.764706 434.448383 
L 629.966371 423.606541 
L 631.160216 422.191224 
L 632.249959 435.450418 
L 633.555463 412.382362 
L 634.640407 434.547175 
L 635.833197 453.090604 
L 637.026947 453.240733 
L 638.115968 367.206465 
L 639.205535 435.417519 
L 640.290676 434.584264 
L 641.375552 434.534427 
L 642.568164 453.06266 
L 643.76233 391.194215 
L 644.848294 434.739731 
L 646.044966 453.695699 
L 647.345587 411.529355 
L 648.433593 469.210171 
L 649.626331 421.989599 
L 650.715484 435.339752 
L 652.89026 434.882483 
L 654.082223 452.961201 
L 655.279022 422.728045 
L 656.255964 373.913164 
L 657.345038 435.324763 
L 658.432167 434.959355 
L 659.623512 452.864369 
L 660.716303 436.019846 
L 661.796556 433.656643 
L 662.889712 436.08785 
L 663.752946 295.948867 
L 665.036034 466.219161 
L 666.341284 469.163703 
L 668.679223 401.395493 
L 669.736835 429.247033 
L 670.823143 434.80461 
L 672.01741 391.215086 
L 673.159516 477.283384 
L 674.39247 429.08869 
L 675.545114 414.418795 
L 676.724657 450.995522 
L 677.847679 408.478041 
L 678.983387 443.714408 
L 680.289366 412.465056 
L 681.347774 464.444361 
L 682.315645 371.422534 
L 683.490148 450.186047 
L 684.523401 460.179075 
L 685.871647 392.08032 
L 687.051305 451.013787 
L 688.514443 436.866535 
L 689.700597 452.046924 
L 690.846508 445.458895 
L 692.02551 419.453847 
L 693.038859 420.057024 
L 694.3467 441.144843 
L 695.233542 388.73386 
L 696.409081 450.352915 
L 697.72592 414.338726 
L 698.797608 432.01024 
L 700.018079 457.321615 
L 701.344202 415.916035 
L 702.64543 468.636653 
L 703.733212 435.082236 
L 705.035682 440.326402 
L 706.120092 400.247367 
L 707.315868 453.556386 
L 708.411086 436.471064 
L 709.388597 412.006398 
L 710.688629 439.952707 
L 711.885383 422.720007 
L 712.98011 436.379863 
L 714.072358 435.91867 
L 715.169449 436.817964 
L 716.255832 434.818735 
L 717.45874 423.829834 
L 718.435458 373.851701 
L 719.629275 453.251114 
L 720.718498 435.3529 
L 721.752415 352.686921 
L 722.999617 461.229309 
L 724.331399 472.559842 
L 725.295345 408.803333 
L 726.505062 394.387773 
L 727.626211 441.170139 
L 728.745686 440.873475 
L 729.816199 431.782438 
L 730.876018 429.684988 
L 732.306805 432.281646 
L 733.504201 484.780083 
L 734.916407 429.553448 
L 736.002852 400.695473 
L 737.195819 453.118318 
L 738.285883 435.510551 
L 739.598898 441.927048 
L 740.793601 422.347535 
L 742.094508 411.579389 
L 743.184723 435.538756 
L 744.269081 434.436234 
L 745.68545 456.354477 
L 746.658952 372.973979 
L 747.742887 434.356347 
L 748.94255 454.159367 
L 750.026868 434.428717 
L 751.123073 436.654019 
L 752.208872 434.708636 
L 753.291139 434.03989 
L 754.490304 392.229816 
L 755.575637 468.790509 
L 756.769105 422.122646 
L 757.851736 434.108961 
L 758.9491 436.86845 
L 758.9491 436.86845 
" clip-path="url(#pd572a8817b)" style="fill: none; stroke: #ff7f0e; stroke-width: 1.5; stroke-linecap: square"/>
   </g>
   <g id="line2d_19">
    <path d="M 93.32 325.775022 
L 791.464 325.775022 
" clip-path="url(#pd572a8817b)" style="fill: none; stroke-dasharray: 5.55,2.4; stroke-dashoffset: 0; stroke: #0000ff; stroke-width: 1.5"/>
   </g>
   <g id="line2d_20">
    <path d="M 93.32 430.982673 
L 791.464 430.982673 
" clip-path="url(#pd572a8817b)" style="fill: none; stroke-dasharray: 5.55,2.4; stroke-dashoffset: 0; stroke: #ffa500; stroke-width: 1.5"/>
   </g>
   <g id="patch_3">
    <path d="M 93.32 639.64 
L 93.32 60.96 
" style="fill: none; stroke: #000000; stroke-width: 0.8; stroke-linejoin: miter; stroke-linecap: square"/>
   </g>
   <g id="patch_4">
    <path d="M 791.464 639.64 
L 791.464 60.96 
" style="fill: none; stroke: #000000; stroke-width: 0.8; stroke-linejoin: miter; stroke-linecap: square"/>
   </g>
   <g id="patch_5">
    <path d="M 93.32 639.64 
L 791.464 639.64 
" style="fill: none; stroke: #000000; stroke-width: 0.8; stroke-linejoin: miter; stroke-linecap: square"/>
   </g>
   <g id="patch_6">
    <path d="M 93.32 60.96 
L 791.464 60.96 
" style="fill: none; stroke: #000000; stroke-width: 0.8; stroke-linejoin: miter; stroke-linecap: square"/>
   </g>
   <g id="text_19">
    <!-- Parsed and Filtered Packets (SelectionProcess: 16777218) -->
    <g transform="translate(199.394438 54.96) scale(0.168 -0.168)">
     <defs>
      <path id="DejaVuSans-46" d="M 628 4666 
L 3309 4666 
L 3309 4134 
L 1259 4134 
L 1259 2759 
L 3109 2759 
L 3109 2228 
L 1259 2228 
L 1259 0 
L 628 0 
L 628 4666 
z
" transform="scale(0.015625)"/>
      <path id="DejaVuSans-6c" d="M 603 4863 
L 1178 4863 
L 1178 0 
L 603 0 
L 603 4863 
z
" transform="scale(0.015625)"/>
      <path id="DejaVuSans-3a" d="M 750 794 
L 1409 794 
L 1409 0 
L 750 0 
L 750 794 
z
M 750 3309 
L 1409 3309 
L 1409 2516 
L 750 2516 
L 750 3309 
z
" transform="scale(0.015625)"/>
      <path id="DejaVuSans-37" d="M 525 4666 
L 3525 4666 
L 3525 4397 
L 1831 0 
L 1172 0 
L 2766 4134 
L 525 4134 
L 525 4666 
z
" transform="scale(0.015625)"/>
     </defs>
     <use xlink:href="#DejaVuSans-50"/>
     <use xlink:href="#DejaVuSans-61" x="55.802734"/>
     <use xlink:href="#DejaVuSans-72" x="117.082031"/>
     <use xlink:href="#DejaVuSans-73" x="158.195312"/>
     <use xlink:href="#DejaVuSans-65" x="210.294922"/>
     <use xlink:href="#DejaVuSans-64" x="271.818359"/>
     <use xlink:href="#DejaVuSans-20" x="335.294922"/>
     <use xlink:href="#DejaVuSans-61" x="367.082031"/>
     <use xlink:href="#DejaVuSans-6e" x="428.361328"/>
     <use xlink:href="#DejaVuSans-64" x="491.740234"/>
     <use xlink:href="#DejaVuSans-20" x="555.216797"/>
     <use xlink:href="#DejaVuSans-46" x="587.003906"/>
     <use xlink:href="#DejaVuSans-69" x="637.273438"/>
     <use xlink:href="#DejaVuSans-6c" x="665.056641"/>
     <use xlink:href="#DejaVuSans-74" x="692.839844"/>
     <use xlink:href="#DejaVuSans-65" x="732.048828"/>
     <use xlink:href="#DejaVuSans-72" x="793.572266"/>
     <use xlink:href="#DejaVuSans-65" x="832.435547"/>
     <use xlink:href="#DejaVuSans-64" x="893.958984"/>
     <use xlink:href="#DejaVuSans-20" x="957.435547"/>
     <use xlink:href="#DejaVuSans-50" x="989.222656"/>
     <use xlink:href="#DejaVuSans-61" x="1045.025391"/>
     <use xlink:href="#DejaVuSans-63" x="1106.304688"/>
     <use xlink:href="#DejaVuSans-6b" x="1161.285156"/>
     <use xlink:href="#DejaVuSans-65" x="1215.570312"/>
     <use xlink:href="#DejaVuSans-74" x="1277.09375"/>
     <use xlink:href="#DejaVuSans-73" x="1316.302734"/>
     <use xlink:href="#DejaVuSans-20" x="1368.402344"/>
     <use xlink:href="#DejaVuSans-28" x="1400.189453"/>
     <use xlink:href="#DejaVuSans-53" x="1439.203125"/>
     <use xlink:href="#DejaVuSans-65" x="1502.679688"/>
     <use xlink:href="#DejaVuSans-6c" x="1564.203125"/>
     <use xlink:href="#DejaVuSans-65" x="1591.986328"/>
     <use xlink:href="#DejaVuSans-63" x="1653.509766"/>
     <use xlink:href="#DejaVuSans-74" x="1708.490234"/>
     <use xlink:href="#DejaVuSans-69" x="1747.699219"/>
     <use xlink:href="#DejaVuSans-6f" x="1775.482422"/>
     <use xlink:href="#DejaVuSans-6e" x="1836.664062"/>
     <use xlink:href="#DejaVuSans-50" x="1900.042969"/>
     <use xlink:href="#DejaVuSans-72" x="1958.595703"/>
     <use xlink:href="#DejaVuSans-6f" x="1997.458984"/>
     <use xlink:href="#DejaVuSans-63" x="2058.640625"/>
     <use xlink:href="#DejaVuSans-65" x="2113.621094"/>
     <use xlink:href="#DejaVuSans-73" x="2175.144531"/>
     <use xlink:href="#DejaVuSans-73" x="2227.244141"/>
     <use xlink:href="#DejaVuSans-3a" x="2279.34375"/>
     <use xlink:href="#DejaVuSans-20" x="2313.035156"/>
     <use xlink:href="#DejaVuSans-31" x="2344.822266"/>
     <use xlink:href="#DejaVuSans-36" x="2408.445312"/>
     <use xlink:href="#DejaVuSans-37" x="2472.068359"/>
     <use xlink:href="#DejaVuSans-37" x="2535.691406"/>
     <use xlink:href="#DejaVuSans-37" x="2599.314453"/>
     <use xlink:href="#DejaVuSans-32" x="2662.9375"/>
     <use xlink:href="#DejaVuSans-31" x="2726.560547"/>
     <use xlink:href="#DejaVuSans-38" x="2790.183594"/>
     <use xlink:href="#DejaVuSans-29" x="2853.806641"/>
    </g>
   </g>
   <g id="legend_1">
    <g id="patch_7">
     <path d="M 801.264 393.49875 
L 1017.399938 393.49875 
Q 1020.199938 393.49875 1020.199938 390.69875 
L 1020.199938 309.90125 
Q 1020.199938 307.10125 1017.399938 307.10125 
L 801.264 307.10125 
Q 798.464 307.10125 798.464 309.90125 
L 798.464 390.69875 
Q 798.464 393.49875 801.264 393.49875 
z
" style="fill: #ffffff; opacity: 0.8; stroke: #cccccc; stroke-linejoin: miter"/>
    </g>
    <g id="line2d_21">
     <path d="M 804.064 318.439063 
L 818.064 318.439063 
L 832.064 318.439063 
" style="fill: none; stroke: #1f77b4; stroke-width: 1.5; stroke-linecap: square"/>
    </g>
    <g id="text_20">
     <!-- Parsed Packets -->
     <g transform="translate(843.264 323.339063) scale(0.14 -0.14)">
      <use xlink:href="#DejaVuSans-50"/>
      <use xlink:href="#DejaVuSans-61" x="55.802734"/>
      <use xlink:href="#DejaVuSans-72" x="117.082031"/>
      <use xlink:href="#DejaVuSans-73" x="158.195312"/>
      <use xlink:href="#DejaVuSans-65" x="210.294922"/>
      <use xlink:href="#DejaVuSans-64" x="271.818359"/>
      <use xlink:href="#DejaVuSans-20" x="335.294922"/>
      <use xlink:href="#DejaVuSans-50" x="367.082031"/>
      <use xlink:href="#DejaVuSans-61" x="422.884766"/>
      <use xlink:href="#DejaVuSans-63" x="484.164062"/>
      <use xlink:href="#DejaVuSans-6b" x="539.144531"/>
      <use xlink:href="#DejaVuSans-65" x="593.429688"/>
      <use xlink:href="#DejaVuSans-74" x="654.953125"/>
      <use xlink:href="#DejaVuSans-73" x="694.162109"/>
     </g>
    </g>
    <g id="line2d_22">
     <path d="M 804.064 338.988438 
L 818.064 338.988438 
L 832.064 338.988438 
" style="fill: none; stroke: #ff7f0e; stroke-width: 1.5; stroke-linecap: square"/>
    </g>
    <g id="text_21">
     <!-- Filtered Packets -->
     <g transform="translate(843.264 343.888438) scale(0.14 -0.14)">
      <use xlink:href="#DejaVuSans-46"/>
      <use xlink:href="#DejaVuSans-69" x="50.269531"/>
      <use xlink:href="#DejaVuSans-6c" x="78.052734"/>
      <use xlink:href="#DejaVuSans-74" x="105.835938"/>
      <use xlink:href="#DejaVuSans-65" x="145.044922"/>
      <use xlink:href="#DejaVuSans-72" x="206.568359"/>
      <use xlink:href="#DejaVuSans-65" x="245.431641"/>
      <use xlink:href="#DejaVuSans-64" x="306.955078"/>
      <use xlink:href="#DejaVuSans-20" x="370.431641"/>
      <use xlink:href="#DejaVuSans-50" x="402.21875"/>
      <use xlink:href="#DejaVuSans-61" x="458.021484"/>
      <use xlink:href="#DejaVuSans-63" x="519.300781"/>
      <use xlink:href="#DejaVuSans-6b" x="574.28125"/>
      <use xlink:href="#DejaVuSans-65" x="628.566406"/>
      <use xlink:href="#DejaVuSans-74" x="690.089844"/>
      <use xlink:href="#DejaVuSans-73" x="729.298828"/>
     </g>
    </g>
    <g id="line2d_23">
     <path d="M 804.064 359.537813 
L 818.064 359.537813 
L 832.064 359.537813 
" style="fill: none; stroke-dasharray: 5.55,2.4; stroke-dashoffset: 0; stroke: #0000ff; stroke-width: 1.5"/>
    </g>
    <g id="text_22">
     <!-- Parsed Packets Average -->
     <g transform="translate(843.264 364.437813) scale(0.14 -0.14)">
      <defs>
       <path id="DejaVuSans-41" d="M 2188 4044 
L 1331 1722 
L 3047 1722 
L 2188 4044 
z
M 1831 4666 
L 2547 4666 
L 4325 0 
L 3669 0 
L 3244 1197 
L 1141 1197 
L 716 0 
L 50 0 
L 1831 4666 
z
" transform="scale(0.015625)"/>
       <path id="DejaVuSans-76" d="M 191 3500 
L 800 3500 
L 1894 563 
L 2988 3500 
L 3597 3500 
L 2284 0 
L 1503 0 
L 191 3500 
z
" transform="scale(0.015625)"/>
       <path id="DejaVuSans-67" d="M 2906 1791 
Q 2906 2416 2648 2759 
Q 2391 3103 1925 3103 
Q 1463 3103 1205 2759 
Q 947 2416 947 1791 
Q 947 1169 1205 825 
Q 1463 481 1925 481 
Q 2391 481 2648 825 
Q 2906 1169 2906 1791 
z
M 3481 434 
Q 3481 -459 3084 -895 
Q 2688 -1331 1869 -1331 
Q 1566 -1331 1297 -1286 
Q 1028 -1241 775 -1147 
L 775 -588 
Q 1028 -725 1275 -790 
Q 1522 -856 1778 -856 
Q 2344 -856 2625 -561 
Q 2906 -266 2906 331 
L 2906 616 
Q 2728 306 2450 153 
Q 2172 0 1784 0 
Q 1141 0 747 490 
Q 353 981 353 1791 
Q 353 2603 747 3093 
Q 1141 3584 1784 3584 
Q 2172 3584 2450 3431 
Q 2728 3278 2906 2969 
L 2906 3500 
L 3481 3500 
L 3481 434 
z
" transform="scale(0.015625)"/>
      </defs>
      <use xlink:href="#DejaVuSans-50"/>
      <use xlink:href="#DejaVuSans-61" x="55.802734"/>
      <use xlink:href="#DejaVuSans-72" x="117.082031"/>
      <use xlink:href="#DejaVuSans-73" x="158.195312"/>
      <use xlink:href="#DejaVuSans-65" x="210.294922"/>
      <use xlink:href="#DejaVuSans-64" x="271.818359"/>
      <use xlink:href="#DejaVuSans-20" x="335.294922"/>
      <use xlink:href="#DejaVuSans-50" x="367.082031"/>
      <use xlink:href="#DejaVuSans-61" x="422.884766"/>
      <use xlink:href="#DejaVuSans-63" x="484.164062"/>
      <use xlink:href="#DejaVuSans-6b" x="539.144531"/>
      <use xlink:href="#DejaVuSans-65" x="593.429688"/>
      <use xlink:href="#DejaVuSans-74" x="654.953125"/>
      <use xlink:href="#DejaVuSans-73" x="694.162109"/>
      <use xlink:href="#DejaVuSans-20" x="746.261719"/>
      <use xlink:href="#DejaVuSans-41" x="778.048828"/>
      <use xlink:href="#DejaVuSans-76" x="840.582031"/>
      <use xlink:href="#DejaVuSans-65" x="899.761719"/>
      <use xlink:href="#DejaVuSans-72" x="961.285156"/>
      <use xlink:href="#DejaVuSans-61" x="1002.398438"/>
      <use xlink:href="#DejaVuSans-67" x="1063.677734"/>
      <use xlink:href="#DejaVuSans-65" x="1127.154297"/>
     </g>
    </g>
    <g id="line2d_24">
     <path d="M 804.064 380.087188 
L 818.064 380.087188 
L 832.064 380.087188 
" style="fill: none; stroke-dasharray: 5.55,2.4; stroke-dashoffset: 0; stroke: #ffa500; stroke-width: 1.5"/>
    </g>
    <g id="text_23">
     <!-- Filtered Packets Average -->
     <g transform="translate(843.264 384.987188) scale(0.14 -0.14)">
      <use xlink:href="#DejaVuSans-46"/>
      <use xlink:href="#DejaVuSans-69" x="50.269531"/>
      <use xlink:href="#DejaVuSans-6c" x="78.052734"/>
      <use xlink:href="#DejaVuSans-74" x="105.835938"/>
      <use xlink:href="#DejaVuSans-65" x="145.044922"/>
      <use xlink:href="#DejaVuSans-72" x="206.568359"/>
      <use xlink:href="#DejaVuSans-65" x="245.431641"/>
      <use xlink:href="#DejaVuSans-64" x="306.955078"/>
      <use xlink:href="#DejaVuSans-20" x="370.431641"/>
      <use xlink:href="#DejaVuSans-50" x="402.21875"/>
      <use xlink:href="#DejaVuSans-61" x="458.021484"/>
      <use xlink:href="#DejaVuSans-63" x="519.300781"/>
      <use xlink:href="#DejaVuSans-6b" x="574.28125"/>
      <use xlink:href="#DejaVuSans-65" x="628.566406"/>
      <use xlink:href="#DejaVuSans-74" x="690.089844"/>
      <use xlink:href="#DejaVuSans-73" x="729.298828"/>
      <use xlink:href="#DejaVuSans-20" x="781.398438"/>
      <use xlink:href="#DejaVuSans-41" x="813.185547"/>
      <use xlink:href="#DejaVuSans-76" x="875.71875"/>
      <use xlink:href="#DejaVuSans-65" x="934.898438"/>
      <use xlink:href="#DejaVuSans-72" x="996.421875"/>
      <use xlink:href="#DejaVuSans-61" x="1037.535156"/>
      <use xlink:href="#DejaVuSans-67" x="1098.814453"/>
      <use xlink:href="#DejaVuSans-65" x="1162.291016"/>
     </g>
    </g>
   </g>
  </g>
 </g>
 <defs>
  <clipPath id="pd572a8817b">
   <rect x="93.32" y="60.96" width="698.144" height="578.68"/>
  </clipPath>
 </defs>
</svg>
