<?xml version="1.0" encoding="utf-8" standalone="no"?>
<!DOCTYPE svg PUBLIC "-//W3C//DTD SVG 1.1//EN"
  "http://www.w3.org/Graphics/SVG/1.1/DTD/svg11.dtd">
<svg xmlns:xlink="http://www.w3.org/1999/xlink" width="1008pt" height="720pt" viewBox="0 0 1008 720" xmlns="http://www.w3.org/2000/svg" version="1.1">
 <metadata>
  <rdf:RDF xmlns:dc="http://purl.org/dc/elements/1.1/" xmlns:cc="http://creativecommons.org/ns#" xmlns:rdf="http://www.w3.org/1999/02/22-rdf-syntax-ns#">
   <cc:Work>
    <dc:type rdf:resource="http://purl.org/dc/dcmitype/StillImage"/>
    <dc:date>2023-04-13T18:30:58.209102</dc:date>
    <dc:format>image/svg+xml</dc:format>
    <dc:creator>
     <cc:Agent>
      <dc:title>Matplotlib v3.6.2, https://matplotlib.org/</dc:title>
     </cc:Agent>
    </dc:creator>
   </cc:Work>
  </rdf:RDF>
 </metadata>
 <defs>
  <style type="text/css">*{stroke-linejoin: round; stroke-linecap: butt}</style>
 </defs>
 <g id="figure_1">
  <g id="patch_1">
   <path d="M 0 720 
L 1008 720 
L 1008 0 
L 0 0 
z
" style="fill: #ffffff"/>
  </g>
  <g id="axes_1">
   <g id="patch_2">
    <path d="M 106.91 639.64 
L 794.182 639.64 
L 794.182 60.96 
L 106.91 60.96 
z
" style="fill: #ffffff"/>
   </g>
   <g id="matplotlib.axis_1">
    <g id="xtick_1">
     <g id="line2d_1">
      <defs>
       <path id="m0674a45a7d" d="M 0 0 
L 0 3.5 
" style="stroke: #000000; stroke-width: 0.8"/>
      </defs>
      <g>
       <use xlink:href="#m0674a45a7d" x="106.91" y="639.64" style="stroke: #000000; stroke-width: 0.8"/>
      </g>
     </g>
     <g id="text_1">
      <!-- 0 -->
      <g transform="translate(102.45625 657.277812) scale(0.14 -0.14)">
       <defs>
        <path id="DejaVuSans-30" d="M 2034 4250 
Q 1547 4250 1301 3770 
Q 1056 3291 1056 2328 
Q 1056 1369 1301 889 
Q 1547 409 2034 409 
Q 2525 409 2770 889 
Q 3016 1369 3016 2328 
Q 3016 3291 2770 3770 
Q 2525 4250 2034 4250 
z
M 2034 4750 
Q 2819 4750 3233 4129 
Q 3647 3509 3647 2328 
Q 3647 1150 3233 529 
Q 2819 -91 2034 -91 
Q 1250 -91 836 529 
Q 422 1150 422 2328 
Q 422 3509 836 4129 
Q 1250 4750 2034 4750 
z
" transform="scale(0.015625)"/>
       </defs>
       <use xlink:href="#DejaVuSans-30"/>
      </g>
     </g>
    </g>
    <g id="xtick_2">
     <g id="line2d_2">
      <g>
       <use xlink:href="#m0674a45a7d" x="214.240551" y="639.64" style="stroke: #000000; stroke-width: 0.8"/>
      </g>
     </g>
     <g id="text_2">
      <!-- 10 -->
      <g transform="translate(205.333051 657.277812) scale(0.14 -0.14)">
       <defs>
        <path id="DejaVuSans-31" d="M 794 531 
L 1825 531 
L 1825 4091 
L 703 3866 
L 703 4441 
L 1819 4666 
L 2450 4666 
L 2450 531 
L 3481 531 
L 3481 0 
L 794 0 
L 794 531 
z
" transform="scale(0.015625)"/>
       </defs>
       <use xlink:href="#DejaVuSans-31"/>
       <use xlink:href="#DejaVuSans-30" x="63.623047"/>
      </g>
     </g>
    </g>
    <g id="xtick_3">
     <g id="line2d_3">
      <g>
       <use xlink:href="#m0674a45a7d" x="321.571103" y="639.64" style="stroke: #000000; stroke-width: 0.8"/>
      </g>
     </g>
     <g id="text_3">
      <!-- 20 -->
      <g transform="translate(312.663603 657.277812) scale(0.14 -0.14)">
       <defs>
        <path id="DejaVuSans-32" d="M 1228 531 
L 3431 531 
L 3431 0 
L 469 0 
L 469 531 
Q 828 903 1448 1529 
Q 2069 2156 2228 2338 
Q 2531 2678 2651 2914 
Q 2772 3150 2772 3378 
Q 2772 3750 2511 3984 
Q 2250 4219 1831 4219 
Q 1534 4219 1204 4116 
Q 875 4013 500 3803 
L 500 4441 
Q 881 4594 1212 4672 
Q 1544 4750 1819 4750 
Q 2544 4750 2975 4387 
Q 3406 4025 3406 3419 
Q 3406 3131 3298 2873 
Q 3191 2616 2906 2266 
Q 2828 2175 2409 1742 
Q 1991 1309 1228 531 
z
" transform="scale(0.015625)"/>
       </defs>
       <use xlink:href="#DejaVuSans-32"/>
       <use xlink:href="#DejaVuSans-30" x="63.623047"/>
      </g>
     </g>
    </g>
    <g id="xtick_4">
     <g id="line2d_4">
      <g>
       <use xlink:href="#m0674a45a7d" x="428.901654" y="639.64" style="stroke: #000000; stroke-width: 0.8"/>
      </g>
     </g>
     <g id="text_4">
      <!-- 30 -->
      <g transform="translate(419.994154 657.277812) scale(0.14 -0.14)">
       <defs>
        <path id="DejaVuSans-33" d="M 2597 2516 
Q 3050 2419 3304 2112 
Q 3559 1806 3559 1356 
Q 3559 666 3084 287 
Q 2609 -91 1734 -91 
Q 1441 -91 1130 -33 
Q 819 25 488 141 
L 488 750 
Q 750 597 1062 519 
Q 1375 441 1716 441 
Q 2309 441 2620 675 
Q 2931 909 2931 1356 
Q 2931 1769 2642 2001 
Q 2353 2234 1838 2234 
L 1294 2234 
L 1294 2753 
L 1863 2753 
Q 2328 2753 2575 2939 
Q 2822 3125 2822 3475 
Q 2822 3834 2567 4026 
Q 2313 4219 1838 4219 
Q 1578 4219 1281 4162 
Q 984 4106 628 3988 
L 628 4550 
Q 988 4650 1302 4700 
Q 1616 4750 1894 4750 
Q 2613 4750 3031 4423 
Q 3450 4097 3450 3541 
Q 3450 3153 3228 2886 
Q 3006 2619 2597 2516 
z
" transform="scale(0.015625)"/>
       </defs>
       <use xlink:href="#DejaVuSans-33"/>
       <use xlink:href="#DejaVuSans-30" x="63.623047"/>
      </g>
     </g>
    </g>
    <g id="xtick_5">
     <g id="line2d_5">
      <g>
       <use xlink:href="#m0674a45a7d" x="536.232206" y="639.64" style="stroke: #000000; stroke-width: 0.8"/>
      </g>
     </g>
     <g id="text_5">
      <!-- 40 -->
      <g transform="translate(527.324706 657.277812) scale(0.14 -0.14)">
       <defs>
        <path id="DejaVuSans-34" d="M 2419 4116 
L 825 1625 
L 2419 1625 
L 2419 4116 
z
M 2253 4666 
L 3047 4666 
L 3047 1625 
L 3713 1625 
L 3713 1100 
L 3047 1100 
L 3047 0 
L 2419 0 
L 2419 1100 
L 313 1100 
L 313 1709 
L 2253 4666 
z
" transform="scale(0.015625)"/>
       </defs>
       <use xlink:href="#DejaVuSans-34"/>
       <use xlink:href="#DejaVuSans-30" x="63.623047"/>
      </g>
     </g>
    </g>
    <g id="xtick_6">
     <g id="line2d_6">
      <g>
       <use xlink:href="#m0674a45a7d" x="643.562757" y="639.64" style="stroke: #000000; stroke-width: 0.8"/>
      </g>
     </g>
     <g id="text_6">
      <!-- 50 -->
      <g transform="translate(634.655257 657.277812) scale(0.14 -0.14)">
       <defs>
        <path id="DejaVuSans-35" d="M 691 4666 
L 3169 4666 
L 3169 4134 
L 1269 4134 
L 1269 2991 
Q 1406 3038 1543 3061 
Q 1681 3084 1819 3084 
Q 2600 3084 3056 2656 
Q 3513 2228 3513 1497 
Q 3513 744 3044 326 
Q 2575 -91 1722 -91 
Q 1428 -91 1123 -41 
Q 819 9 494 109 
L 494 744 
Q 775 591 1075 516 
Q 1375 441 1709 441 
Q 2250 441 2565 725 
Q 2881 1009 2881 1497 
Q 2881 1984 2565 2268 
Q 2250 2553 1709 2553 
Q 1456 2553 1204 2497 
Q 953 2441 691 2322 
L 691 4666 
z
" transform="scale(0.015625)"/>
       </defs>
       <use xlink:href="#DejaVuSans-35"/>
       <use xlink:href="#DejaVuSans-30" x="63.623047"/>
      </g>
     </g>
    </g>
    <g id="xtick_7">
     <g id="line2d_7">
      <g>
       <use xlink:href="#m0674a45a7d" x="750.893308" y="639.64" style="stroke: #000000; stroke-width: 0.8"/>
      </g>
     </g>
     <g id="text_7">
      <!-- 60 -->
      <g transform="translate(741.985808 657.277812) scale(0.14 -0.14)">
       <defs>
        <path id="DejaVuSans-36" d="M 2113 2584 
Q 1688 2584 1439 2293 
Q 1191 2003 1191 1497 
Q 1191 994 1439 701 
Q 1688 409 2113 409 
Q 2538 409 2786 701 
Q 3034 994 3034 1497 
Q 3034 2003 2786 2293 
Q 2538 2584 2113 2584 
z
M 3366 4563 
L 3366 3988 
Q 3128 4100 2886 4159 
Q 2644 4219 2406 4219 
Q 1781 4219 1451 3797 
Q 1122 3375 1075 2522 
Q 1259 2794 1537 2939 
Q 1816 3084 2150 3084 
Q 2853 3084 3261 2657 
Q 3669 2231 3669 1497 
Q 3669 778 3244 343 
Q 2819 -91 2113 -91 
Q 1303 -91 875 529 
Q 447 1150 447 2328 
Q 447 3434 972 4092 
Q 1497 4750 2381 4750 
Q 2619 4750 2861 4703 
Q 3103 4656 3366 4563 
z
" transform="scale(0.015625)"/>
       </defs>
       <use xlink:href="#DejaVuSans-36"/>
       <use xlink:href="#DejaVuSans-30" x="63.623047"/>
      </g>
     </g>
    </g>
    <g id="text_8">
     <!-- Observed Time(s) -->
     <g transform="translate(388.405688 674.827188) scale(0.14 -0.14)">
      <defs>
       <path id="DejaVuSans-4f" d="M 2522 4238 
Q 1834 4238 1429 3725 
Q 1025 3213 1025 2328 
Q 1025 1447 1429 934 
Q 1834 422 2522 422 
Q 3209 422 3611 934 
Q 4013 1447 4013 2328 
Q 4013 3213 3611 3725 
Q 3209 4238 2522 4238 
z
M 2522 4750 
Q 3503 4750 4090 4092 
Q 4678 3434 4678 2328 
Q 4678 1225 4090 567 
Q 3503 -91 2522 -91 
Q 1538 -91 948 565 
Q 359 1222 359 2328 
Q 359 3434 948 4092 
Q 1538 4750 2522 4750 
z
" transform="scale(0.015625)"/>
       <path id="DejaVuSans-62" d="M 3116 1747 
Q 3116 2381 2855 2742 
Q 2594 3103 2138 3103 
Q 1681 3103 1420 2742 
Q 1159 2381 1159 1747 
Q 1159 1113 1420 752 
Q 1681 391 2138 391 
Q 2594 391 2855 752 
Q 3116 1113 3116 1747 
z
M 1159 2969 
Q 1341 3281 1617 3432 
Q 1894 3584 2278 3584 
Q 2916 3584 3314 3078 
Q 3713 2572 3713 1747 
Q 3713 922 3314 415 
Q 2916 -91 2278 -91 
Q 1894 -91 1617 61 
Q 1341 213 1159 525 
L 1159 0 
L 581 0 
L 581 4863 
L 1159 4863 
L 1159 2969 
z
" transform="scale(0.015625)"/>
       <path id="DejaVuSans-73" d="M 2834 3397 
L 2834 2853 
Q 2591 2978 2328 3040 
Q 2066 3103 1784 3103 
Q 1356 3103 1142 2972 
Q 928 2841 928 2578 
Q 928 2378 1081 2264 
Q 1234 2150 1697 2047 
L 1894 2003 
Q 2506 1872 2764 1633 
Q 3022 1394 3022 966 
Q 3022 478 2636 193 
Q 2250 -91 1575 -91 
Q 1294 -91 989 -36 
Q 684 19 347 128 
L 347 722 
Q 666 556 975 473 
Q 1284 391 1588 391 
Q 1994 391 2212 530 
Q 2431 669 2431 922 
Q 2431 1156 2273 1281 
Q 2116 1406 1581 1522 
L 1381 1569 
Q 847 1681 609 1914 
Q 372 2147 372 2553 
Q 372 3047 722 3315 
Q 1072 3584 1716 3584 
Q 2034 3584 2315 3537 
Q 2597 3491 2834 3397 
z
" transform="scale(0.015625)"/>
       <path id="DejaVuSans-65" d="M 3597 1894 
L 3597 1613 
L 953 1613 
Q 991 1019 1311 708 
Q 1631 397 2203 397 
Q 2534 397 2845 478 
Q 3156 559 3463 722 
L 3463 178 
Q 3153 47 2828 -22 
Q 2503 -91 2169 -91 
Q 1331 -91 842 396 
Q 353 884 353 1716 
Q 353 2575 817 3079 
Q 1281 3584 2069 3584 
Q 2775 3584 3186 3129 
Q 3597 2675 3597 1894 
z
M 3022 2063 
Q 3016 2534 2758 2815 
Q 2500 3097 2075 3097 
Q 1594 3097 1305 2825 
Q 1016 2553 972 2059 
L 3022 2063 
z
" transform="scale(0.015625)"/>
       <path id="DejaVuSans-72" d="M 2631 2963 
Q 2534 3019 2420 3045 
Q 2306 3072 2169 3072 
Q 1681 3072 1420 2755 
Q 1159 2438 1159 1844 
L 1159 0 
L 581 0 
L 581 3500 
L 1159 3500 
L 1159 2956 
Q 1341 3275 1631 3429 
Q 1922 3584 2338 3584 
Q 2397 3584 2469 3576 
Q 2541 3569 2628 3553 
L 2631 2963 
z
" transform="scale(0.015625)"/>
       <path id="DejaVuSans-76" d="M 191 3500 
L 800 3500 
L 1894 563 
L 2988 3500 
L 3597 3500 
L 2284 0 
L 1503 0 
L 191 3500 
z
" transform="scale(0.015625)"/>
       <path id="DejaVuSans-64" d="M 2906 2969 
L 2906 4863 
L 3481 4863 
L 3481 0 
L 2906 0 
L 2906 525 
Q 2725 213 2448 61 
Q 2172 -91 1784 -91 
Q 1150 -91 751 415 
Q 353 922 353 1747 
Q 353 2572 751 3078 
Q 1150 3584 1784 3584 
Q 2172 3584 2448 3432 
Q 2725 3281 2906 2969 
z
M 947 1747 
Q 947 1113 1208 752 
Q 1469 391 1925 391 
Q 2381 391 2643 752 
Q 2906 1113 2906 1747 
Q 2906 2381 2643 2742 
Q 2381 3103 1925 3103 
Q 1469 3103 1208 2742 
Q 947 2381 947 1747 
z
" transform="scale(0.015625)"/>
       <path id="DejaVuSans-20" transform="scale(0.015625)"/>
       <path id="DejaVuSans-54" d="M -19 4666 
L 3928 4666 
L 3928 4134 
L 2272 4134 
L 2272 0 
L 1638 0 
L 1638 4134 
L -19 4134 
L -19 4666 
z
" transform="scale(0.015625)"/>
       <path id="DejaVuSans-69" d="M 603 3500 
L 1178 3500 
L 1178 0 
L 603 0 
L 603 3500 
z
M 603 4863 
L 1178 4863 
L 1178 4134 
L 603 4134 
L 603 4863 
z
" transform="scale(0.015625)"/>
       <path id="DejaVuSans-6d" d="M 3328 2828 
Q 3544 3216 3844 3400 
Q 4144 3584 4550 3584 
Q 5097 3584 5394 3201 
Q 5691 2819 5691 2113 
L 5691 0 
L 5113 0 
L 5113 2094 
Q 5113 2597 4934 2840 
Q 4756 3084 4391 3084 
Q 3944 3084 3684 2787 
Q 3425 2491 3425 1978 
L 3425 0 
L 2847 0 
L 2847 2094 
Q 2847 2600 2669 2842 
Q 2491 3084 2119 3084 
Q 1678 3084 1418 2786 
Q 1159 2488 1159 1978 
L 1159 0 
L 581 0 
L 581 3500 
L 1159 3500 
L 1159 2956 
Q 1356 3278 1631 3431 
Q 1906 3584 2284 3584 
Q 2666 3584 2933 3390 
Q 3200 3197 3328 2828 
z
" transform="scale(0.015625)"/>
       <path id="DejaVuSans-28" d="M 1984 4856 
Q 1566 4138 1362 3434 
Q 1159 2731 1159 2009 
Q 1159 1288 1364 580 
Q 1569 -128 1984 -844 
L 1484 -844 
Q 1016 -109 783 600 
Q 550 1309 550 2009 
Q 550 2706 781 3412 
Q 1013 4119 1484 4856 
L 1984 4856 
z
" transform="scale(0.015625)"/>
       <path id="DejaVuSans-29" d="M 513 4856 
L 1013 4856 
Q 1481 4119 1714 3412 
Q 1947 2706 1947 2009 
Q 1947 1309 1714 600 
Q 1481 -109 1013 -844 
L 513 -844 
Q 928 -128 1133 580 
Q 1338 1288 1338 2009 
Q 1338 2731 1133 3434 
Q 928 4138 513 4856 
z
" transform="scale(0.015625)"/>
      </defs>
      <use xlink:href="#DejaVuSans-4f"/>
      <use xlink:href="#DejaVuSans-62" x="78.710938"/>
      <use xlink:href="#DejaVuSans-73" x="142.1875"/>
      <use xlink:href="#DejaVuSans-65" x="194.287109"/>
      <use xlink:href="#DejaVuSans-72" x="255.810547"/>
      <use xlink:href="#DejaVuSans-76" x="296.923828"/>
      <use xlink:href="#DejaVuSans-65" x="356.103516"/>
      <use xlink:href="#DejaVuSans-64" x="417.626953"/>
      <use xlink:href="#DejaVuSans-20" x="481.103516"/>
      <use xlink:href="#DejaVuSans-54" x="512.890625"/>
      <use xlink:href="#DejaVuSans-69" x="570.849609"/>
      <use xlink:href="#DejaVuSans-6d" x="598.632812"/>
      <use xlink:href="#DejaVuSans-65" x="696.044922"/>
      <use xlink:href="#DejaVuSans-28" x="757.568359"/>
      <use xlink:href="#DejaVuSans-73" x="796.582031"/>
      <use xlink:href="#DejaVuSans-29" x="848.681641"/>
     </g>
    </g>
   </g>
   <g id="matplotlib.axis_2">
    <g id="ytick_1">
     <g id="line2d_8">
      <defs>
       <path id="m604cd2bd38" d="M 0 0 
L -3.5 0 
" style="stroke: #000000; stroke-width: 0.8"/>
      </defs>
      <g>
       <use xlink:href="#m604cd2bd38" x="106.91" y="639.64" style="stroke: #000000; stroke-width: 0.8"/>
      </g>
     </g>
     <g id="text_9">
      <!-- 0 -->
      <g transform="translate(91.0025 644.958906) scale(0.14 -0.14)">
       <use xlink:href="#DejaVuSans-30"/>
      </g>
     </g>
    </g>
    <g id="ytick_2">
     <g id="line2d_9">
      <g>
       <use xlink:href="#m604cd2bd38" x="106.91" y="552.949927" style="stroke: #000000; stroke-width: 0.8"/>
      </g>
     </g>
     <g id="text_10">
      <!-- 5 -->
      <g transform="translate(91.0025 558.268833) scale(0.14 -0.14)">
       <use xlink:href="#DejaVuSans-35"/>
      </g>
     </g>
    </g>
    <g id="ytick_3">
     <g id="line2d_10">
      <g>
       <use xlink:href="#m604cd2bd38" x="106.91" y="466.259853" style="stroke: #000000; stroke-width: 0.8"/>
      </g>
     </g>
     <g id="text_11">
      <!-- 10 -->
      <g transform="translate(82.095 471.57876) scale(0.14 -0.14)">
       <use xlink:href="#DejaVuSans-31"/>
       <use xlink:href="#DejaVuSans-30" x="63.623047"/>
      </g>
     </g>
    </g>
    <g id="ytick_4">
     <g id="line2d_11">
      <g>
       <use xlink:href="#m604cd2bd38" x="106.91" y="379.56978" style="stroke: #000000; stroke-width: 0.8"/>
      </g>
     </g>
     <g id="text_12">
      <!-- 15 -->
      <g transform="translate(82.095 384.888686) scale(0.14 -0.14)">
       <use xlink:href="#DejaVuSans-31"/>
       <use xlink:href="#DejaVuSans-35" x="63.623047"/>
      </g>
     </g>
    </g>
    <g id="ytick_5">
     <g id="line2d_12">
      <g>
       <use xlink:href="#m604cd2bd38" x="106.91" y="292.879707" style="stroke: #000000; stroke-width: 0.8"/>
      </g>
     </g>
     <g id="text_13">
      <!-- 20 -->
      <g transform="translate(82.095 298.198613) scale(0.14 -0.14)">
       <use xlink:href="#DejaVuSans-32"/>
       <use xlink:href="#DejaVuSans-30" x="63.623047"/>
      </g>
     </g>
    </g>
    <g id="ytick_6">
     <g id="line2d_13">
      <g>
       <use xlink:href="#m604cd2bd38" x="106.91" y="206.189634" style="stroke: #000000; stroke-width: 0.8"/>
      </g>
     </g>
     <g id="text_14">
      <!-- 25 -->
      <g transform="translate(82.095 211.50854) scale(0.14 -0.14)">
       <use xlink:href="#DejaVuSans-32"/>
       <use xlink:href="#DejaVuSans-35" x="63.623047"/>
      </g>
     </g>
    </g>
    <g id="ytick_7">
     <g id="line2d_14">
      <g>
       <use xlink:href="#m604cd2bd38" x="106.91" y="119.49956" style="stroke: #000000; stroke-width: 0.8"/>
      </g>
     </g>
     <g id="text_15">
      <!-- 30 -->
      <g transform="translate(82.095 124.818467) scale(0.14 -0.14)">
       <use xlink:href="#DejaVuSans-33"/>
       <use xlink:href="#DejaVuSans-30" x="63.623047"/>
      </g>
     </g>
    </g>
    <g id="text_16">
     <!-- Interarrival Time (ms) -->
     <g transform="translate(75.183438 426.478594) rotate(-90) scale(0.14 -0.14)">
      <defs>
       <path id="DejaVuSans-49" d="M 628 4666 
L 1259 4666 
L 1259 0 
L 628 0 
L 628 4666 
z
" transform="scale(0.015625)"/>
       <path id="DejaVuSans-6e" d="M 3513 2113 
L 3513 0 
L 2938 0 
L 2938 2094 
Q 2938 2591 2744 2837 
Q 2550 3084 2163 3084 
Q 1697 3084 1428 2787 
Q 1159 2491 1159 1978 
L 1159 0 
L 581 0 
L 581 3500 
L 1159 3500 
L 1159 2956 
Q 1366 3272 1645 3428 
Q 1925 3584 2291 3584 
Q 2894 3584 3203 3211 
Q 3513 2838 3513 2113 
z
" transform="scale(0.015625)"/>
       <path id="DejaVuSans-74" d="M 1172 4494 
L 1172 3500 
L 2356 3500 
L 2356 3053 
L 1172 3053 
L 1172 1153 
Q 1172 725 1289 603 
Q 1406 481 1766 481 
L 2356 481 
L 2356 0 
L 1766 0 
Q 1100 0 847 248 
Q 594 497 594 1153 
L 594 3053 
L 172 3053 
L 172 3500 
L 594 3500 
L 594 4494 
L 1172 4494 
z
" transform="scale(0.015625)"/>
       <path id="DejaVuSans-61" d="M 2194 1759 
Q 1497 1759 1228 1600 
Q 959 1441 959 1056 
Q 959 750 1161 570 
Q 1363 391 1709 391 
Q 2188 391 2477 730 
Q 2766 1069 2766 1631 
L 2766 1759 
L 2194 1759 
z
M 3341 1997 
L 3341 0 
L 2766 0 
L 2766 531 
Q 2569 213 2275 61 
Q 1981 -91 1556 -91 
Q 1019 -91 701 211 
Q 384 513 384 1019 
Q 384 1609 779 1909 
Q 1175 2209 1959 2209 
L 2766 2209 
L 2766 2266 
Q 2766 2663 2505 2880 
Q 2244 3097 1772 3097 
Q 1472 3097 1187 3025 
Q 903 2953 641 2809 
L 641 3341 
Q 956 3463 1253 3523 
Q 1550 3584 1831 3584 
Q 2591 3584 2966 3190 
Q 3341 2797 3341 1997 
z
" transform="scale(0.015625)"/>
       <path id="DejaVuSans-6c" d="M 603 4863 
L 1178 4863 
L 1178 0 
L 603 0 
L 603 4863 
z
" transform="scale(0.015625)"/>
      </defs>
      <use xlink:href="#DejaVuSans-49"/>
      <use xlink:href="#DejaVuSans-6e" x="29.492188"/>
      <use xlink:href="#DejaVuSans-74" x="92.871094"/>
      <use xlink:href="#DejaVuSans-65" x="132.080078"/>
      <use xlink:href="#DejaVuSans-72" x="193.603516"/>
      <use xlink:href="#DejaVuSans-61" x="234.716797"/>
      <use xlink:href="#DejaVuSans-72" x="295.996094"/>
      <use xlink:href="#DejaVuSans-72" x="335.359375"/>
      <use xlink:href="#DejaVuSans-69" x="376.472656"/>
      <use xlink:href="#DejaVuSans-76" x="404.255859"/>
      <use xlink:href="#DejaVuSans-61" x="463.435547"/>
      <use xlink:href="#DejaVuSans-6c" x="524.714844"/>
      <use xlink:href="#DejaVuSans-20" x="552.498047"/>
      <use xlink:href="#DejaVuSans-54" x="584.285156"/>
      <use xlink:href="#DejaVuSans-69" x="642.244141"/>
      <use xlink:href="#DejaVuSans-6d" x="670.027344"/>
      <use xlink:href="#DejaVuSans-65" x="767.439453"/>
      <use xlink:href="#DejaVuSans-20" x="828.962891"/>
      <use xlink:href="#DejaVuSans-28" x="860.75"/>
      <use xlink:href="#DejaVuSans-6d" x="899.763672"/>
      <use xlink:href="#DejaVuSans-73" x="997.175781"/>
      <use xlink:href="#DejaVuSans-29" x="1049.275391"/>
     </g>
    </g>
   </g>
   <g id="line2d_15">
    <path d="M 106.91 61.242808 
L 107.626019 61.436006 
L 108.341871 61.566873 
L 108.699726 61.388725 
L 109.057691 61.781292 
L 109.415413 61.489199 
L 110.131228 61.484032 
L 110.489134 61.224569 
L 110.847201 61.483859 
L 111.205107 61.511755 
L 111.562996 61.760695 
L 112.278621 61.227273 
L 112.636686 61.720696 
L 112.994446 61.137618 
L 113.710457 61.870808 
L 114.068124 61.504664 
L 115.49972 61.50964 
L 116.215568 61.235544 
L 116.573628 61.471982 
L 116.931541 61.886985 
L 117.289198 61.524742 
L 118.362912 61.539791 
L 123.373381 61.456933 
L 123.731304 61.203676 
L 124.089383 61.490863 
L 124.447285 61.56611 
L 124.80514 61.763417 
L 125.162873 61.513212 
L 126.952336 61.493065 
L 129.457561 61.522002 
L 130.889116 61.438052 
L 131.604947 61.48235 
L 131.962854 61.507248 
L 132.320746 61.142109 
L 132.678864 61.874571 
L 133.036528 61.488713 
L 134.110208 61.503572 
L 134.468102 61.151645 
L 134.826213 61.596088 
L 135.18405 61.782055 
L 135.541772 61.137202 
L 135.899892 61.900127 
L 136.257541 61.469503 
L 137.331261 61.515743 
L 137.689148 61.123124 
L 138.047277 61.881367 
L 138.404937 61.51694 
L 139.478607 61.500208 
L 139.836503 61.251512 
L 140.194553 61.763763 
L 140.552285 61.499827 
L 141.983857 61.508444 
L 142.341748 61.206658 
L 142.699825 61.812085 
L 143.057528 61.171063 
L 143.773536 61.806571 
L 144.131242 61.515431 
L 144.847013 61.476455 
L 145.204924 61.181189 
L 145.563018 61.620916 
L 145.920839 61.775605 
L 146.278564 61.491193 
L 147.352245 61.501439 
L 147.71014 61.137168 
L 148.42618 61.792371 
L 148.783895 61.164978 
L 149.141999 61.878368 
L 149.49966 61.490135 
L 150.573348 61.558967 
L 150.931208 61.146201 
L 151.289323 61.862694 
L 151.646994 61.157592 
L 152.005102 61.878489 
L 152.362764 61.50704 
L 152.720656 61.521118 
L 153.078539 61.010097 
L 153.436739 62.012044 
L 153.794318 61.487812 
L 155.225886 61.508201 
L 155.583777 61.473889 
L 155.941689 61.236376 
L 156.299748 61.545148 
L 157.3734 61.398625 
L 157.731359 61.596192 
L 158.089196 61.630295 
L 158.804978 61.260961 
L 159.163022 61.866561 
L 159.520691 61.523424 
L 160.952239 61.503277 
L 161.310133 61.180357 
L 162.026126 61.861706 
L 162.383798 61.261551 
L 162.741842 61.793411 
L 163.457449 61.180617 
L 163.815543 61.448541 
L 164.173471 61.924088 
L 164.889005 61.157505 
L 165.247113 61.887765 
L 165.604769 61.523095 
L 166.320531 61.479767 
L 166.67844 61.291857 
L 167.036465 61.495926 
L 167.394364 61.514616 
L 167.752251 61.783737 
L 168.109971 61.48854 
L 168.825766 61.514269 
L 169.183653 61.27393 
L 169.54169 61.490794 
L 170.257482 61.547021 
L 170.615349 61.760556 
L 170.973084 61.524759 
L 171.688848 61.440236 
L 172.046781 61.382223 
L 172.404751 61.500503 
L 172.762646 61.766416 
L 173.120378 61.52091 
L 174.19403 61.483096 
L 174.551937 61.259661 
L 174.909982 61.501127 
L 175.62577 61.537381 
L 175.983643 61.761197 
L 176.341378 61.537034 
L 177.057138 61.503208 
L 177.415032 61.301965 
L 177.773051 61.517789 
L 178.130936 61.524516 
L 178.488817 61.763053 
L 178.84655 61.521916 
L 179.562322 61.52469 
L 179.920203 61.29236 
L 180.278228 61.471791 
L 180.994036 61.513264 
L 181.351924 61.800763 
L 181.709634 61.263752 
L 182.067676 61.757504 
L 182.783311 61.282859 
L 183.499213 61.740201 
L 183.85696 61.518985 
L 184.930622 61.530602 
L 185.2885 61.336919 
L 186.004414 61.520234 
L 186.362297 61.525452 
L 186.720178 61.769797 
L 187.077907 61.5185 
L 187.793682 61.519592 
L 188.151566 61.288164 
L 188.509593 61.53211 
L 188.86747 61.50456 
L 189.225363 61.772953 
L 189.58309 61.542686 
L 190.298849 61.496515 
L 190.656748 61.287454 
L 191.014775 61.50645 
L 191.730549 61.530082 
L 192.088426 61.763365 
L 192.446159 61.257129 
L 192.804206 61.750448 
L 193.161947 61.302642 
L 193.519965 61.543865 
L 194.235709 61.506277 
L 194.593601 61.791522 
L 194.951317 61.517668 
L 195.309202 61.515726 
L 195.667088 61.263319 
L 196.383026 61.767422 
L 196.740756 61.257043 
L 197.098803 61.575005 
L 197.456652 61.742507 
L 197.814398 61.52918 
L 198.172277 61.513333 
L 198.530164 61.267636 
L 199.246165 61.486477 
L 199.604069 61.819176 
L 199.961768 61.55999 
L 201.035405 61.516575 
L 201.39329 61.151957 
L 201.751402 61.587644 
L 202.109244 61.735451 
L 202.466994 61.240936 
L 202.825051 61.892256 
L 203.182704 61.173751 
L 203.540802 61.869907 
L 203.898469 61.536271 
L 204.256343 61.514772 
L 204.61423 61.25335 
L 204.972279 61.755597 
L 205.330017 61.551737 
L 206.403659 61.521413 
L 206.761541 61.148385 
L 207.119655 61.87842 
L 207.477317 61.167422 
L 208.193317 61.898844 
L 208.550966 61.506762 
L 209.624589 61.511634 
L 209.982478 61.275594 
L 210.340513 61.75936 
L 210.698249 61.5172 
L 211.771889 61.535751 
L 212.129763 61.152616 
L 212.487874 61.888788 
L 213.203401 61.151732 
L 213.561513 61.768011 
L 213.919243 61.498891 
L 214.992863 61.502063 
L 215.350758 61.167839 
L 215.70886 61.879061 
L 216.066522 61.528799 
L 217.140159 61.520494 
L 217.498043 61.219853 
L 217.856112 61.892325 
L 218.213766 61.519679 
L 219.645294 61.52892 
L 220.003173 61.277658 
L 220.361206 61.748367 
L 220.718949 61.176074 
L 221.077046 61.861082 
L 221.434718 61.382847 
L 221.792687 61.655175 
L 222.150487 61.510039 
L 223.224116 61.510126 
L 225.37139 61.554615 
L 225.729252 61.13722 
L 226.445258 61.853834 
L 226.802935 61.518933 
L 228.234481 61.59633 
L 228.592317 61.498492 
L 230.02385 61.536618 
L 230.381724 61.5297 
L 230.739602 61.140549 
L 231.455604 61.89789 
L 231.813254 61.497348 
L 232.88692 61.515813 
L 233.244806 61.522384 
L 233.602688 61.147987 
L 233.960802 61.904895 
L 234.318448 61.534399 
L 235.74995 61.539479 
L 236.107822 61.269301 
L 236.823806 61.539808 
L 237.181677 61.900873 
L 237.539325 61.54149 
L 238.612978 61.480564 
L 238.970887 61.178241 
L 239.328982 61.878472 
L 239.686644 61.535613 
L 241.476032 61.587401 
L 241.833874 61.212744 
L 242.191948 61.455164 
L 242.549872 61.898133 
L 242.907521 61.523372 
L 244.339032 61.535404 
L 244.696907 61.264654 
L 245.054948 61.732087 
L 245.770576 61.426331 
L 246.128518 61.633364 
L 246.844206 61.431186 
L 247.202144 61.638115 
L 247.917834 61.528365 
L 249.349347 61.557944 
L 249.707208 61.186772 
L 250.065298 61.880466 
L 250.422958 61.162048 
L 250.781064 61.917673 
L 251.138701 61.49062 
L 254.001742 61.558811 
L 254.359602 61.516003 
L 254.717488 61.197331 
L 255.433451 61.878871 
L 255.791113 61.537554 
L 257.938384 61.516575 
L 258.296269 61.269855 
L 258.654308 61.801214 
L 259.012018 61.530151 
L 259.727761 61.510195 
L 260.085651 61.299764 
L 260.443671 61.796584 
L 260.801383 61.512778 
L 261.875008 61.523025 
L 262.948644 61.569942 
L 263.306497 61.150015 
L 263.664609 61.866665 
L 264.022278 61.520095 
L 265.095918 61.529579 
L 265.453796 61.308727 
L 266.169686 61.777183 
L 266.527411 61.256783 
L 266.885457 61.785644 
L 267.243177 61.528279 
L 268.316807 61.50964 
L 268.674697 61.160106 
L 269.390671 61.901289 
L 269.748318 61.211964 
L 270.106393 61.785436 
L 270.821996 61.202549 
L 271.537949 61.889724 
L 271.895604 61.144155 
L 272.253721 61.890036 
L 272.611375 61.555794 
L 273.684998 61.574606 
L 274.042848 61.146149 
L 274.400964 61.878819 
L 274.758625 61.525539 
L 276.190143 61.570081 
L 276.547996 61.183425 
L 276.906088 61.908969 
L 277.263731 61.533012 
L 278.695232 61.5581 
L 279.053092 61.31561 
L 279.411103 61.78046 
L 279.768825 61.292534 
L 280.12685 61.794573 
L 280.484564 61.517061 
L 281.558198 61.487049 
L 281.916102 61.216888 
L 282.274173 61.896122 
L 282.631824 61.188748 
L 282.989913 61.868641 
L 283.347581 61.52332 
L 284.779055 61.519696 
L 285.136939 61.287766 
L 285.494967 61.760365 
L 285.852702 61.553141 
L 286.56843 61.518153 
L 286.926315 61.193638 
L 287.284401 61.905588 
L 287.999932 61.115114 
L 288.358066 61.869733 
L 288.715733 61.566925 
L 289.789337 61.524742 
L 291.220831 61.534954 
L 291.936583 61.534312 
L 292.294458 61.215848 
L 292.65253 61.61835 
L 293.010353 61.804369 
L 293.368061 61.271641 
L 293.726098 61.809692 
L 294.083803 61.528192 
L 294.799576 61.549587 
L 295.157441 61.573583 
L 295.515292 61.154818 
L 295.873402 61.799358 
L 296.588932 61.518985 
L 297.304695 61.517702 
L 297.66258 61.259383 
L 298.020625 61.620066 
L 298.378447 61.748783 
L 298.736189 61.541889 
L 299.809805 61.527325 
L 300.167684 61.197816 
L 300.883656 61.879737 
L 301.241317 61.208635 
L 301.599394 61.886361 
L 301.957051 61.567012 
L 302.672774 61.528989 
L 303.030652 61.15936 
L 303.388759 61.91242 
L 303.7464 61.52918 
L 305.177909 61.535959 
L 305.535783 61.166452 
L 305.893885 61.908328 
L 306.251529 61.147276 
L 306.609643 61.648899 
L 306.967447 61.765827 
L 307.683039 61.383263 
L 308.041007 61.682101 
L 308.398791 61.204526 
L 308.75687 61.900647 
L 309.472395 61.150466 
L 309.830508 61.911657 
L 310.188149 61.528279 
L 310.546028 61.543553 
L 310.903897 61.202081 
L 311.619882 61.899607 
L 311.977531 61.308953 
L 312.335545 61.758735 
L 312.693281 61.55087 
L 313.766898 61.578611 
L 314.124746 61.255083 
L 314.482793 61.81843 
L 314.840492 61.538681 
L 315.914099 61.549414 
L 316.271965 61.171601 
L 316.630064 61.89744 
L 316.987715 61.182819 
L 317.703699 61.862191 
L 318.061371 61.540797 
L 318.777107 61.533601 
L 319.134982 61.196394 
L 319.493066 61.665353 
L 319.85086 61.770976 
L 320.208589 61.541976 
L 321.282198 61.549604 
L 321.640064 61.182177 
L 321.998157 61.885095 
L 322.713686 61.281559 
L 323.071718 61.805097 
L 323.429425 61.541195 
L 324.145185 61.553401 
L 324.503048 61.332307 
L 324.861048 61.380576 
L 325.219018 61.921487 
L 325.576653 61.5426 
L 326.650273 61.539548 
L 327.008145 61.227083 
L 327.36621 61.887938 
L 327.723866 61.1449 
L 328.081982 61.90141 
L 328.439629 61.410571 
L 329.155465 61.576305 
L 329.513314 61.517702 
L 329.871199 61.225539 
L 330.229265 61.873132 
L 330.58693 61.245444 
L 330.944984 61.79251 
L 331.302699 61.565 
L 332.018436 61.542704 
L 332.376306 61.190551 
L 332.734393 61.886586 
L 333.44992 61.177149 
L 333.808016 61.896711 
L 334.165667 61.541005 
L 334.881394 61.535543 
L 335.239268 61.190863 
L 335.597355 61.883465 
L 335.955014 61.180027 
L 336.313108 61.846327 
L 336.67079 61.55269 
L 337.386538 61.544386 
L 337.744407 61.604861 
L 338.102238 61.511235 
L 338.460127 61.264203 
L 338.818169 61.473213 
L 339.176082 61.876599 
L 339.533745 61.544646 
L 340.24948 61.536011 
L 340.607354 61.203191 
L 340.965434 61.896417 
L 341.323085 61.543345 
L 343.828191 61.400966 
L 344.186148 61.320292 
L 344.544156 61.907565 
L 344.9018 61.551442 
L 348.122634 61.554008 
L 348.480496 61.201977 
L 348.838577 61.860059 
L 349.19625 61.168463 
L 349.554352 61.90245 
L 349.911999 61.528279 
L 350.985607 61.561151 
L 352.417084 61.528417 
L 353.4907 61.533064 
L 353.848576 61.2383 
L 354.206634 61.87282 
L 354.5643 61.258811 
L 354.922345 61.416812 
L 355.280293 61.885563 
L 355.63795 61.529666 
L 357.069439 61.549604 
L 358.858811 61.531122 
L 359.216688 61.225002 
L 359.574755 61.843865 
L 359.932438 61.157054 
L 360.290546 61.909923 
L 360.648189 61.535283 
L 361.721823 61.523961 
L 362.079704 61.538629 
L 362.437576 61.28976 
L 362.795603 61.783078 
L 363.153324 61.533047 
L 364.226949 61.536358 
L 364.584823 61.147432 
L 364.942937 61.93 
L 365.300567 61.547298 
L 366.732031 61.534087 
L 367.089906 61.208097 
L 367.447982 61.887696 
L 367.805639 61.191869 
L 368.163725 61.9003 
L 368.521374 61.529232 
L 369.237103 61.53511 
L 369.594978 61.540727 
L 369.952849 61.311813 
L 370.668746 61.774842 
L 371.026472 61.176508 
L 371.384569 61.908987 
L 371.742211 61.547333 
L 372.815803 61.527134 
L 373.173683 61.173942 
L 373.531781 61.877432 
L 373.889443 61.540485 
L 374.96306 61.5353 
L 375.320934 61.189546 
L 375.679023 61.903057 
L 376.036669 61.553072 
L 380.331118 61.544316 
L 380.688986 61.213992 
L 381.047059 61.632913 
L 381.404873 61.783078 
L 381.762594 61.544334 
L 383.551914 61.552136 
L 383.909778 61.184726 
L 384.26787 61.778587 
L 384.983457 61.244473 
L 385.341511 61.674369 
L 385.6993 61.517685 
L 386.057185 61.206866 
L 386.415262 61.627192 
L 386.77308 61.786476 
L 387.130799 61.556592 
L 388.920115 61.533445 
L 389.27799 61.195337 
L 389.636075 61.875576 
L 389.993738 61.556227 
L 390.3516 61.412773 
L 390.70955 61.666341 
L 391.4252 61.489563 
L 391.783103 61.502636 
L 392.140997 61.314605 
L 392.856885 61.719916 
L 393.214645 61.353875 
L 393.572632 61.551945 
L 393.930496 61.449807 
L 394.288423 61.651604 
L 395.004088 61.51557 
L 396.793461 61.573219 
L 398.224923 61.483113 
L 398.940692 61.55191 
L 400.01426 61.532076 
L 401.80361 61.587367 
L 402.51933 61.543051 
L 405.382289 61.556436 
L 406.813761 61.514842 
L 407.5295 61.540901 
L 411.108202 61.515622 
L 412.539698 61.583483 
L 414.686887 61.525002 
L 416.11834 61.549102 
L 420.054916 61.53237 
L 421.486394 61.567983 
L 421.844248 61.497868 
L 422.560011 61.55966 
L 422.91787 61.509935 
L 423.27576 61.594614 
L 423.991469 61.537034 
L 426.138666 61.589568 
L 427.212244 61.528625 
L 429.00158 61.538976 
L 430.433057 61.52736 
L 432.22239 61.554095 
L 432.580253 61.480322 
L 433.296032 61.554459 
L 433.653894 61.497677 
L 434.011792 61.594094 
L 434.727504 61.536098 
L 441.527031 61.547333 
L 441.884898 61.488141 
L 442.242801 61.596954 
L 442.600637 61.471132 
L 442.958551 61.834589 
L 443.31624 61.260909 
L 444.032206 61.691447 
L 444.389984 61.402145 
L 444.74794 61.60656 
L 445.10577 61.461042 
L 445.463691 61.62258 
L 446.179378 61.520702 
L 448.326607 61.574034 
L 449.758052 61.52651 
L 450.47377 61.555638 
L 451.189517 61.555655 
L 460.136193 61.530619 
L 460.49407 61.506329 
L 460.851962 61.605415 
L 461.567669 61.538733 
L 464.430579 61.553263 
L 465.146333 61.54983 
L 468.009273 61.545738 
L 472.661544 61.547905 
L 474.093 61.572057 
L 474.808737 61.542738 
L 475.524465 61.52443 
L 475.882346 61.40126 
L 476.240303 61.708299 
L 476.59807 61.54501 
L 477.313773 61.542825 
L 492.702035 61.523337 
L 493.417753 61.557094 
L 494.133495 61.401052 
L 494.491452 61.720679 
L 494.849212 61.540016 
L 495.207083 61.875871 
L 495.564746 61.28064 
L 495.922778 61.524204 
L 496.280659 61.632671 
L 496.638473 61.500642 
L 497.712104 61.58962 
L 498.069945 61.544316 
L 498.427813 61.625285 
L 499.143501 61.540467 
L 508.090081 61.521898 
L 508.805813 61.602919 
L 509.521514 61.572941 
L 510.952974 61.545807 
L 518.110214 61.576634 
L 519.183796 61.542218 
L 520.257363 61.567029 
L 520.97311 61.526562 
L 523.836025 61.536757 
L 528.846084 61.572751 
L 529.561805 61.558135 
L 529.919665 61.88858 
L 530.277321 61.343559 
L 530.635314 61.566457 
L 531.708895 61.553748 
L 532.066758 61.793446 
L 532.424472 61.56533 
L 532.782328 61.555083 
L 533.14019 61.319806 
L 533.498198 61.780703 
L 533.85592 61.390736 
L 534.213884 61.744536 
L 534.571629 61.560024 
L 535.287343 61.565833 
L 535.645199 61.297267 
L 536.00322 61.563405 
L 536.718944 61.564879 
L 537.0768 61.823476 
L 537.434496 61.569959 
L 537.792348 61.502254 
L 538.150243 61.576912 
L 538.508092 61.317362 
L 538.866101 61.54012 
L 539.223972 61.543172 
L 539.581842 61.836011 
L 539.93953 61.545617 
L 540.655256 61.571398 
L 541.013108 61.356268 
L 541.371093 61.539011 
L 542.086865 61.48502 
L 542.444771 61.870635 
L 542.802437 61.567827 
L 543.518158 61.575906 
L 543.876008 61.281784 
L 544.234039 61.832665 
L 544.591729 61.297891 
L 544.94975 61.841646 
L 545.307435 61.541178 
L 546.738864 61.562053 
L 547.096721 61.239791 
L 547.454779 61.860423 
L 547.812452 61.543224 
L 548.886038 61.551737 
L 549.243902 61.244056 
L 549.601956 61.519523 
L 550.31766 61.80111 
L 550.67537 61.560753 
L 551.748952 61.446374 
L 552.106881 61.702768 
L 552.464652 61.215466 
L 553.180588 61.900942 
L 553.538236 61.558551 
L 553.896096 61.56422 
L 554.253952 61.288182 
L 554.611979 61.576236 
L 555.327692 61.567705 
L 555.685546 61.826336 
L 556.401101 61.252968 
L 556.75915 61.672739 
L 557.11694 61.2667 
L 557.47498 61.557701 
L 558.190696 61.54605 
L 558.548564 61.798023 
L 558.906276 61.515275 
L 559.264162 61.541924 
L 559.622032 61.348986 
L 560.337902 61.578836 
L 560.69575 61.551286 
L 561.053614 61.818534 
L 561.411313 61.56533 
L 562.127041 61.559522 
L 562.4849 61.340074 
L 562.842895 61.539566 
L 563.55863 61.565278 
L 563.916486 61.779385 
L 564.274209 61.544368 
L 564.632078 61.546189 
L 564.989945 61.374005 
L 565.347919 61.431879 
L 565.705858 61.874831 
L 566.063522 61.245478 
L 566.421575 61.874415 
L 567.137104 61.247333 
L 567.495157 61.857025 
L 567.852832 61.588615 
L 568.210673 61.558239 
L 568.568534 61.237468 
L 568.926592 61.85061 
L 569.284271 61.583604 
L 569.999979 61.516523 
L 570.357865 61.359441 
L 570.715848 61.524551 
L 571.073729 61.83556 
L 571.431417 61.271086 
L 571.789455 61.84071 
L 572.14714 61.545582 
L 573.220723 61.589829 
L 573.578563 61.246831 
L 574.294497 61.880344 
L 574.652158 61.55276 
L 576.08376 61.502011 
L 576.441655 61.871433 
L 576.799321 61.29373 
L 577.157345 61.845824 
L 577.515027 61.543848 
L 578.230746 61.55758 
L 578.588607 61.238387 
L 578.946665 61.861377 
L 579.304337 61.556956 
L 580.735758 61.542877 
L 581.093628 61.336173 
L 581.451625 61.535873 
L 582.525245 61.558308 
L 605.78614 61.56826 
L 606.143994 61.823458 
L 606.50169 61.257337 
L 607.217596 61.852291 
L 607.575274 61.246536 
L 607.933327 61.620482 
L 608.649013 61.552864 
L 610.080452 61.564342 
L 615.090447 61.550991 
L 616.521898 61.562781 
L 624.394727 61.564255 
L 625.110467 61.573115 
L 630.478311 61.566318 
L 631.19405 61.552482 
L 633.699057 61.560735 
L 635.846194 61.548599 
L 636.20406 61.410588 
L 636.562012 61.547472 
L 643.719145 61.563978 
L 644.077001 61.861064 
L 644.434674 61.2426 
L 644.792729 61.573479 
L 646.224143 61.576842 
L 646.93985 61.562122 
L 647.297708 61.865226 
L 647.655378 61.211132 
L 648.013453 61.582668 
L 649.087034 61.577328 
L 650.160602 61.571554 
L 650.518453 61.812813 
L 650.876156 61.33007 
L 651.234157 61.572369 
L 653.023442 61.54709 
L 653.381309 61.616494 
L 654.097011 61.525244 
L 654.812734 61.537156 
L 655.528445 61.557667 
L 658.033416 61.507369 
L 658.749152 61.582391 
L 659.106997 61.525262 
L 659.822722 61.560735 
L 660.896319 61.559522 
L 662.327711 61.562608 
L 662.685568 61.745663 
L 663.043312 61.387667 
L 663.401278 61.544715 
L 663.759146 61.853141 
L 664.116824 61.303613 
L 664.474842 61.510472 
L 664.832731 61.451246 
L 665.190658 61.673363 
L 665.548447 61.559851 
L 669.484907 61.595897 
L 670.200612 61.557753 
L 670.558472 61.59392 
L 670.91631 61.862746 
L 671.273982 61.51824 
L 671.631867 61.593348 
L 671.989705 61.339034 
L 672.347701 61.534867 
L 672.705575 61.538768 
L 673.063447 61.829024 
L 673.42114 61.53726 
L 673.779013 61.577588 
L 674.136861 61.476733 
L 674.494772 61.54475 
L 674.85264 61.272057 
L 675.210677 61.867462 
L 675.568346 61.263406 
L 675.926389 61.616165 
L 676.284213 61.802861 
L 676.641921 61.590626 
L 677.357624 61.615281 
L 677.715449 61.289049 
L 678.073476 61.562469 
L 678.431333 61.556227 
L 678.789195 61.804889 
L 679.146902 61.574554 
L 679.862633 61.587262 
L 680.220475 61.264429 
L 680.578517 61.854823 
L 680.936193 61.241837 
L 681.652111 61.886274 
L 682.009768 61.542877 
L 682.367638 61.558724 
L 682.725498 61.289274 
L 683.083524 61.878593 
L 683.441186 61.22469 
L 683.799252 61.894423 
L 684.156904 61.572837 
L 685.230501 61.550905 
L 685.588366 61.313513 
L 685.946377 61.810039 
L 686.304082 61.288754 
L 686.662109 61.826284 
L 687.019803 61.557337 
L 687.735524 61.564896 
L 688.09338 61.285425 
L 688.451409 61.550367 
L 688.809274 61.572109 
L 689.167125 61.827463 
L 689.524818 61.576374 
L 690.598401 61.575906 
L 690.95625 61.247836 
L 691.314302 61.849257 
L 691.671982 61.578593 
L 693.819119 61.552656 
L 694.176982 61.233827 
L 694.535043 61.873461 
L 694.892708 61.555239 
L 695.966304 61.54794 
L 696.324171 61.26025 
L 696.682215 61.87568 
L 697.039879 61.250801 
L 697.397929 61.855655 
L 697.755605 61.554407 
L 698.82917 61.596365 
L 699.187007 61.239618 
L 699.902935 61.889291 
L 700.26059 61.575195 
L 701.334162 61.547975 
L 701.692028 61.250159 
L 702.050079 61.89125 
L 702.407733 61.325528 
L 702.765737 61.813385 
L 703.123439 61.54924 
L 703.839177 61.588667 
L 704.197018 61.340387 
L 704.555013 61.574536 
L 705.270721 61.529527 
L 705.628598 61.816246 
L 705.986299 61.325667 
L 706.344303 61.798561 
L 707.059877 61.362787 
L 707.417858 61.782385 
L 707.775579 61.304358 
L 708.133596 61.843293 
L 708.49128 61.550246 
L 708.849145 61.546345 
L 709.207012 61.306681 
L 709.565028 61.559574 
L 710.638618 61.549414 
L 710.996484 61.83667 
L 711.354171 61.558984 
L 712.069888 61.56878 
L 712.427741 61.358591 
L 713.501461 61.840866 
L 713.859146 61.532405 
L 714.574881 61.5581 
L 714.932741 61.308415 
L 715.290756 61.555569 
L 716.006478 61.528677 
L 716.364356 61.812154 
L 716.722059 61.568347 
L 717.079913 61.531209 
L 717.43779 61.365405 
L 717.795769 61.560753 
L 718.511505 61.568867 
L 718.869359 61.806346 
L 719.227065 61.567792 
L 720.30063 61.570167 
L 720.658483 61.334578 
L 721.374336 61.800225 
L 721.732047 61.56904 
L 722.805647 61.353234 
L 723.163634 61.560891 
L 723.879366 61.568919 
L 724.23722 61.823718 
L 724.594916 61.209537 
L 724.952992 61.540155 
L 726.384438 61.577657 
L 727.815865 61.552517 
L 728.53157 61.551668 
L 731.75232 61.570029 
L 732.110173 61.428412 
L 732.468114 61.542704 
L 732.825983 61.462169 
L 733.541772 61.601341 
L 734.615331 61.535092 
L 735.688931 61.565347 
L 736.762522 61.556453 
L 739.267496 61.572768 
L 740.698928 61.511513 
L 741.414679 61.700879 
L 741.772451 61.444761 
L 742.130381 61.573496 
L 744.277546 61.607912 
L 744.635375 61.399943 
L 744.993333 61.703653 
L 745.351103 61.537069 
L 746.424694 61.567202 
L 747.140429 61.548356 
L 747.498295 61.557216 
L 747.856156 61.418234 
L 748.214102 61.699509 
L 748.571875 61.574294 
L 754.655456 61.567896 
L 755.729003 61.567584 
L 761.454762 61.570913 
L 761.454762 61.570913 
" clip-path="url(#p1e9fab4386)" style="fill: none; stroke: #1f77b4; stroke-width: 1.5; stroke-linecap: square"/>
   </g>
   <g id="line2d_16">
    <path d="M 106.91 61.541771 
L 794.182 61.541771 
" clip-path="url(#p1e9fab4386)" style="fill: none; stroke-dasharray: 5.55,2.4; stroke-dashoffset: 0; stroke: #0000ff; stroke-width: 1.5"/>
   </g>
   <g id="patch_3">
    <path d="M 106.91 639.64 
L 106.91 60.96 
" style="fill: none; stroke: #000000; stroke-width: 0.8; stroke-linejoin: miter; stroke-linecap: square"/>
   </g>
   <g id="patch_4">
    <path d="M 794.182 639.64 
L 794.182 60.96 
" style="fill: none; stroke: #000000; stroke-width: 0.8; stroke-linejoin: miter; stroke-linecap: square"/>
   </g>
   <g id="patch_5">
    <path d="M 106.91 639.64 
L 794.182 639.64 
" style="fill: none; stroke: #000000; stroke-width: 0.8; stroke-linejoin: miter; stroke-linecap: square"/>
   </g>
   <g id="patch_6">
    <path d="M 106.91 60.96 
L 794.182 60.96 
" style="fill: none; stroke: #000000; stroke-width: 0.8; stroke-linejoin: miter; stroke-linecap: square"/>
   </g>
   <g id="text_17">
    <!-- Interarrival Time (SelectionProcess: 16777217) -->
    <g transform="translate(252.861188 54.96) scale(0.168 -0.168)">
     <defs>
      <path id="DejaVuSans-53" d="M 3425 4513 
L 3425 3897 
Q 3066 4069 2747 4153 
Q 2428 4238 2131 4238 
Q 1616 4238 1336 4038 
Q 1056 3838 1056 3469 
Q 1056 3159 1242 3001 
Q 1428 2844 1947 2747 
L 2328 2669 
Q 3034 2534 3370 2195 
Q 3706 1856 3706 1288 
Q 3706 609 3251 259 
Q 2797 -91 1919 -91 
Q 1588 -91 1214 -16 
Q 841 59 441 206 
L 441 856 
Q 825 641 1194 531 
Q 1563 422 1919 422 
Q 2459 422 2753 634 
Q 3047 847 3047 1241 
Q 3047 1584 2836 1778 
Q 2625 1972 2144 2069 
L 1759 2144 
Q 1053 2284 737 2584 
Q 422 2884 422 3419 
Q 422 4038 858 4394 
Q 1294 4750 2059 4750 
Q 2388 4750 2728 4690 
Q 3069 4631 3425 4513 
z
" transform="scale(0.015625)"/>
      <path id="DejaVuSans-63" d="M 3122 3366 
L 3122 2828 
Q 2878 2963 2633 3030 
Q 2388 3097 2138 3097 
Q 1578 3097 1268 2742 
Q 959 2388 959 1747 
Q 959 1106 1268 751 
Q 1578 397 2138 397 
Q 2388 397 2633 464 
Q 2878 531 3122 666 
L 3122 134 
Q 2881 22 2623 -34 
Q 2366 -91 2075 -91 
Q 1284 -91 818 406 
Q 353 903 353 1747 
Q 353 2603 823 3093 
Q 1294 3584 2113 3584 
Q 2378 3584 2631 3529 
Q 2884 3475 3122 3366 
z
" transform="scale(0.015625)"/>
      <path id="DejaVuSans-6f" d="M 1959 3097 
Q 1497 3097 1228 2736 
Q 959 2375 959 1747 
Q 959 1119 1226 758 
Q 1494 397 1959 397 
Q 2419 397 2687 759 
Q 2956 1122 2956 1747 
Q 2956 2369 2687 2733 
Q 2419 3097 1959 3097 
z
M 1959 3584 
Q 2709 3584 3137 3096 
Q 3566 2609 3566 1747 
Q 3566 888 3137 398 
Q 2709 -91 1959 -91 
Q 1206 -91 779 398 
Q 353 888 353 1747 
Q 353 2609 779 3096 
Q 1206 3584 1959 3584 
z
" transform="scale(0.015625)"/>
      <path id="DejaVuSans-50" d="M 1259 4147 
L 1259 2394 
L 2053 2394 
Q 2494 2394 2734 2622 
Q 2975 2850 2975 3272 
Q 2975 3691 2734 3919 
Q 2494 4147 2053 4147 
L 1259 4147 
z
M 628 4666 
L 2053 4666 
Q 2838 4666 3239 4311 
Q 3641 3956 3641 3272 
Q 3641 2581 3239 2228 
Q 2838 1875 2053 1875 
L 1259 1875 
L 1259 0 
L 628 0 
L 628 4666 
z
" transform="scale(0.015625)"/>
      <path id="DejaVuSans-3a" d="M 750 794 
L 1409 794 
L 1409 0 
L 750 0 
L 750 794 
z
M 750 3309 
L 1409 3309 
L 1409 2516 
L 750 2516 
L 750 3309 
z
" transform="scale(0.015625)"/>
      <path id="DejaVuSans-37" d="M 525 4666 
L 3525 4666 
L 3525 4397 
L 1831 0 
L 1172 0 
L 2766 4134 
L 525 4134 
L 525 4666 
z
" transform="scale(0.015625)"/>
     </defs>
     <use xlink:href="#DejaVuSans-49"/>
     <use xlink:href="#DejaVuSans-6e" x="29.492188"/>
     <use xlink:href="#DejaVuSans-74" x="92.871094"/>
     <use xlink:href="#DejaVuSans-65" x="132.080078"/>
     <use xlink:href="#DejaVuSans-72" x="193.603516"/>
     <use xlink:href="#DejaVuSans-61" x="234.716797"/>
     <use xlink:href="#DejaVuSans-72" x="295.996094"/>
     <use xlink:href="#DejaVuSans-72" x="335.359375"/>
     <use xlink:href="#DejaVuSans-69" x="376.472656"/>
     <use xlink:href="#DejaVuSans-76" x="404.255859"/>
     <use xlink:href="#DejaVuSans-61" x="463.435547"/>
     <use xlink:href="#DejaVuSans-6c" x="524.714844"/>
     <use xlink:href="#DejaVuSans-20" x="552.498047"/>
     <use xlink:href="#DejaVuSans-54" x="584.285156"/>
     <use xlink:href="#DejaVuSans-69" x="642.244141"/>
     <use xlink:href="#DejaVuSans-6d" x="670.027344"/>
     <use xlink:href="#DejaVuSans-65" x="767.439453"/>
     <use xlink:href="#DejaVuSans-20" x="828.962891"/>
     <use xlink:href="#DejaVuSans-28" x="860.75"/>
     <use xlink:href="#DejaVuSans-53" x="899.763672"/>
     <use xlink:href="#DejaVuSans-65" x="963.240234"/>
     <use xlink:href="#DejaVuSans-6c" x="1024.763672"/>
     <use xlink:href="#DejaVuSans-65" x="1052.546875"/>
     <use xlink:href="#DejaVuSans-63" x="1114.070312"/>
     <use xlink:href="#DejaVuSans-74" x="1169.050781"/>
     <use xlink:href="#DejaVuSans-69" x="1208.259766"/>
     <use xlink:href="#DejaVuSans-6f" x="1236.042969"/>
     <use xlink:href="#DejaVuSans-6e" x="1297.224609"/>
     <use xlink:href="#DejaVuSans-50" x="1360.603516"/>
     <use xlink:href="#DejaVuSans-72" x="1419.15625"/>
     <use xlink:href="#DejaVuSans-6f" x="1458.019531"/>
     <use xlink:href="#DejaVuSans-63" x="1519.201172"/>
     <use xlink:href="#DejaVuSans-65" x="1574.181641"/>
     <use xlink:href="#DejaVuSans-73" x="1635.705078"/>
     <use xlink:href="#DejaVuSans-73" x="1687.804688"/>
     <use xlink:href="#DejaVuSans-3a" x="1739.904297"/>
     <use xlink:href="#DejaVuSans-20" x="1773.595703"/>
     <use xlink:href="#DejaVuSans-31" x="1805.382812"/>
     <use xlink:href="#DejaVuSans-36" x="1869.005859"/>
     <use xlink:href="#DejaVuSans-37" x="1932.628906"/>
     <use xlink:href="#DejaVuSans-37" x="1996.251953"/>
     <use xlink:href="#DejaVuSans-37" x="2059.875"/>
     <use xlink:href="#DejaVuSans-32" x="2123.498047"/>
     <use xlink:href="#DejaVuSans-31" x="2187.121094"/>
     <use xlink:href="#DejaVuSans-37" x="2250.744141"/>
     <use xlink:href="#DejaVuSans-29" x="2314.367188"/>
    </g>
   </g>
   <g id="legend_1">
    <g id="patch_7">
     <path d="M 803.982 372.949375 
L 1026.776687 372.949375 
Q 1029.576687 372.949375 1029.576687 370.149375 
L 1029.576687 330.450625 
Q 1029.576687 327.650625 1026.776687 327.650625 
L 803.982 327.650625 
Q 801.182 327.650625 801.182 330.450625 
L 801.182 370.149375 
Q 801.182 372.949375 803.982 372.949375 
z
" style="fill: #ffffff; opacity: 0.8; stroke: #cccccc; stroke-linejoin: miter"/>
    </g>
    <g id="line2d_17">
     <path d="M 806.782 338.988438 
L 820.782 338.988438 
L 834.782 338.988438 
" style="fill: none; stroke: #1f77b4; stroke-width: 1.5; stroke-linecap: square"/>
    </g>
    <g id="text_18">
     <!-- Interarrival Times -->
     <g transform="translate(845.982 343.888438) scale(0.14 -0.14)">
      <use xlink:href="#DejaVuSans-49"/>
      <use xlink:href="#DejaVuSans-6e" x="29.492188"/>
      <use xlink:href="#DejaVuSans-74" x="92.871094"/>
      <use xlink:href="#DejaVuSans-65" x="132.080078"/>
      <use xlink:href="#DejaVuSans-72" x="193.603516"/>
      <use xlink:href="#DejaVuSans-61" x="234.716797"/>
      <use xlink:href="#DejaVuSans-72" x="295.996094"/>
      <use xlink:href="#DejaVuSans-72" x="335.359375"/>
      <use xlink:href="#DejaVuSans-69" x="376.472656"/>
      <use xlink:href="#DejaVuSans-76" x="404.255859"/>
      <use xlink:href="#DejaVuSans-61" x="463.435547"/>
      <use xlink:href="#DejaVuSans-6c" x="524.714844"/>
      <use xlink:href="#DejaVuSans-20" x="552.498047"/>
      <use xlink:href="#DejaVuSans-54" x="584.285156"/>
      <use xlink:href="#DejaVuSans-69" x="642.244141"/>
      <use xlink:href="#DejaVuSans-6d" x="670.027344"/>
      <use xlink:href="#DejaVuSans-65" x="767.439453"/>
      <use xlink:href="#DejaVuSans-73" x="828.962891"/>
     </g>
    </g>
    <g id="line2d_18">
     <path d="M 806.782 359.537813 
L 820.782 359.537813 
L 834.782 359.537813 
" style="fill: none; stroke-dasharray: 5.55,2.4; stroke-dashoffset: 0; stroke: #0000ff; stroke-width: 1.5"/>
    </g>
    <g id="text_19">
     <!-- Interarrival Time Average -->
     <g transform="translate(845.982 364.437813) scale(0.14 -0.14)">
      <defs>
       <path id="DejaVuSans-41" d="M 2188 4044 
L 1331 1722 
L 3047 1722 
L 2188 4044 
z
M 1831 4666 
L 2547 4666 
L 4325 0 
L 3669 0 
L 3244 1197 
L 1141 1197 
L 716 0 
L 50 0 
L 1831 4666 
z
" transform="scale(0.015625)"/>
       <path id="DejaVuSans-67" d="M 2906 1791 
Q 2906 2416 2648 2759 
Q 2391 3103 1925 3103 
Q 1463 3103 1205 2759 
Q 947 2416 947 1791 
Q 947 1169 1205 825 
Q 1463 481 1925 481 
Q 2391 481 2648 825 
Q 2906 1169 2906 1791 
z
M 3481 434 
Q 3481 -459 3084 -895 
Q 2688 -1331 1869 -1331 
Q 1566 -1331 1297 -1286 
Q 1028 -1241 775 -1147 
L 775 -588 
Q 1028 -725 1275 -790 
Q 1522 -856 1778 -856 
Q 2344 -856 2625 -561 
Q 2906 -266 2906 331 
L 2906 616 
Q 2728 306 2450 153 
Q 2172 0 1784 0 
Q 1141 0 747 490 
Q 353 981 353 1791 
Q 353 2603 747 3093 
Q 1141 3584 1784 3584 
Q 2172 3584 2450 3431 
Q 2728 3278 2906 2969 
L 2906 3500 
L 3481 3500 
L 3481 434 
z
" transform="scale(0.015625)"/>
      </defs>
      <use xlink:href="#DejaVuSans-49"/>
      <use xlink:href="#DejaVuSans-6e" x="29.492188"/>
      <use xlink:href="#DejaVuSans-74" x="92.871094"/>
      <use xlink:href="#DejaVuSans-65" x="132.080078"/>
      <use xlink:href="#DejaVuSans-72" x="193.603516"/>
      <use xlink:href="#DejaVuSans-61" x="234.716797"/>
      <use xlink:href="#DejaVuSans-72" x="295.996094"/>
      <use xlink:href="#DejaVuSans-72" x="335.359375"/>
      <use xlink:href="#DejaVuSans-69" x="376.472656"/>
      <use xlink:href="#DejaVuSans-76" x="404.255859"/>
      <use xlink:href="#DejaVuSans-61" x="463.435547"/>
      <use xlink:href="#DejaVuSans-6c" x="524.714844"/>
      <use xlink:href="#DejaVuSans-20" x="552.498047"/>
      <use xlink:href="#DejaVuSans-54" x="584.285156"/>
      <use xlink:href="#DejaVuSans-69" x="642.244141"/>
      <use xlink:href="#DejaVuSans-6d" x="670.027344"/>
      <use xlink:href="#DejaVuSans-65" x="767.439453"/>
      <use xlink:href="#DejaVuSans-20" x="828.962891"/>
      <use xlink:href="#DejaVuSans-41" x="860.75"/>
      <use xlink:href="#DejaVuSans-76" x="923.283203"/>
      <use xlink:href="#DejaVuSans-65" x="982.462891"/>
      <use xlink:href="#DejaVuSans-72" x="1043.986328"/>
      <use xlink:href="#DejaVuSans-61" x="1085.099609"/>
      <use xlink:href="#DejaVuSans-67" x="1146.378906"/>
      <use xlink:href="#DejaVuSans-65" x="1209.855469"/>
     </g>
    </g>
   </g>
  </g>
 </g>
 <defs>
  <clipPath id="p1e9fab4386">
   <rect x="106.91" y="60.96" width="687.272" height="578.68"/>
  </clipPath>
 </defs>
</svg>
