<?xml version="1.0" encoding="utf-8" standalone="no"?>
<!DOCTYPE svg PUBLIC "-//W3C//DTD SVG 1.1//EN"
  "http://www.w3.org/Graphics/SVG/1.1/DTD/svg11.dtd">
<svg xmlns:xlink="http://www.w3.org/1999/xlink" width="1080pt" height="720pt" viewBox="0 0 1080 720" xmlns="http://www.w3.org/2000/svg" version="1.1">
 <metadata>
  <rdf:RDF xmlns:dc="http://purl.org/dc/elements/1.1/" xmlns:cc="http://creativecommons.org/ns#" xmlns:rdf="http://www.w3.org/1999/02/22-rdf-syntax-ns#">
   <cc:Work>
    <dc:type rdf:resource="http://purl.org/dc/dcmitype/StillImage"/>
    <dc:date>2023-04-13T18:30:58.811435</dc:date>
    <dc:format>image/svg+xml</dc:format>
    <dc:creator>
     <cc:Agent>
      <dc:title>Matplotlib v3.6.2, https://matplotlib.org/</dc:title>
     </cc:Agent>
    </dc:creator>
   </cc:Work>
  </rdf:RDF>
 </metadata>
 <defs>
  <style type="text/css">*{stroke-linejoin: round; stroke-linecap: butt}</style>
 </defs>
 <g id="figure_1">
  <g id="patch_1">
   <path d="M 0 720 
L 1080 720 
L 1080 0 
L 0 0 
z
" style="fill: #ffffff"/>
  </g>
  <g id="axes_1">
   <g id="patch_2">
    <path d="M 79.95 652.92 
L 808.9875 652.92 
L 808.9875 46.96 
L 79.95 46.96 
z
" style="fill: #ffffff"/>
   </g>
   <g id="matplotlib.axis_1">
    <g id="xtick_1">
     <g id="line2d_1">
      <defs>
       <path id="m1490d8f3c0" d="M 0 0 
L 0 3.5 
" style="stroke: #000000; stroke-width: 0.8"/>
      </defs>
      <g>
       <use xlink:href="#m1490d8f3c0" x="79.95" y="652.92" style="stroke: #000000; stroke-width: 0.8"/>
      </g>
     </g>
     <g id="text_1">
      <!-- 0 -->
      <g transform="translate(75.49625 670.557812) scale(0.14 -0.14)">
       <defs>
        <path id="DejaVuSans-30" d="M 2034 4250 
Q 1547 4250 1301 3770 
Q 1056 3291 1056 2328 
Q 1056 1369 1301 889 
Q 1547 409 2034 409 
Q 2525 409 2770 889 
Q 3016 1369 3016 2328 
Q 3016 3291 2770 3770 
Q 2525 4250 2034 4250 
z
M 2034 4750 
Q 2819 4750 3233 4129 
Q 3647 3509 3647 2328 
Q 3647 1150 3233 529 
Q 2819 -91 2034 -91 
Q 1250 -91 836 529 
Q 422 1150 422 2328 
Q 422 3509 836 4129 
Q 1250 4750 2034 4750 
z
" transform="scale(0.015625)"/>
       </defs>
       <use xlink:href="#DejaVuSans-30"/>
      </g>
     </g>
    </g>
    <g id="xtick_2">
     <g id="line2d_2">
      <g>
       <use xlink:href="#m1490d8f3c0" x="194.505427" y="652.92" style="stroke: #000000; stroke-width: 0.8"/>
      </g>
     </g>
     <g id="text_2">
      <!-- 10 -->
      <g transform="translate(185.597927 670.557812) scale(0.14 -0.14)">
       <defs>
        <path id="DejaVuSans-31" d="M 794 531 
L 1825 531 
L 1825 4091 
L 703 3866 
L 703 4441 
L 1819 4666 
L 2450 4666 
L 2450 531 
L 3481 531 
L 3481 0 
L 794 0 
L 794 531 
z
" transform="scale(0.015625)"/>
       </defs>
       <use xlink:href="#DejaVuSans-31"/>
       <use xlink:href="#DejaVuSans-30" x="63.623047"/>
      </g>
     </g>
    </g>
    <g id="xtick_3">
     <g id="line2d_3">
      <g>
       <use xlink:href="#m1490d8f3c0" x="309.060853" y="652.92" style="stroke: #000000; stroke-width: 0.8"/>
      </g>
     </g>
     <g id="text_3">
      <!-- 20 -->
      <g transform="translate(300.153353 670.557812) scale(0.14 -0.14)">
       <defs>
        <path id="DejaVuSans-32" d="M 1228 531 
L 3431 531 
L 3431 0 
L 469 0 
L 469 531 
Q 828 903 1448 1529 
Q 2069 2156 2228 2338 
Q 2531 2678 2651 2914 
Q 2772 3150 2772 3378 
Q 2772 3750 2511 3984 
Q 2250 4219 1831 4219 
Q 1534 4219 1204 4116 
Q 875 4013 500 3803 
L 500 4441 
Q 881 4594 1212 4672 
Q 1544 4750 1819 4750 
Q 2544 4750 2975 4387 
Q 3406 4025 3406 3419 
Q 3406 3131 3298 2873 
Q 3191 2616 2906 2266 
Q 2828 2175 2409 1742 
Q 1991 1309 1228 531 
z
" transform="scale(0.015625)"/>
       </defs>
       <use xlink:href="#DejaVuSans-32"/>
       <use xlink:href="#DejaVuSans-30" x="63.623047"/>
      </g>
     </g>
    </g>
    <g id="xtick_4">
     <g id="line2d_4">
      <g>
       <use xlink:href="#m1490d8f3c0" x="423.61628" y="652.92" style="stroke: #000000; stroke-width: 0.8"/>
      </g>
     </g>
     <g id="text_4">
      <!-- 30 -->
      <g transform="translate(414.70878 670.557812) scale(0.14 -0.14)">
       <defs>
        <path id="DejaVuSans-33" d="M 2597 2516 
Q 3050 2419 3304 2112 
Q 3559 1806 3559 1356 
Q 3559 666 3084 287 
Q 2609 -91 1734 -91 
Q 1441 -91 1130 -33 
Q 819 25 488 141 
L 488 750 
Q 750 597 1062 519 
Q 1375 441 1716 441 
Q 2309 441 2620 675 
Q 2931 909 2931 1356 
Q 2931 1769 2642 2001 
Q 2353 2234 1838 2234 
L 1294 2234 
L 1294 2753 
L 1863 2753 
Q 2328 2753 2575 2939 
Q 2822 3125 2822 3475 
Q 2822 3834 2567 4026 
Q 2313 4219 1838 4219 
Q 1578 4219 1281 4162 
Q 984 4106 628 3988 
L 628 4550 
Q 988 4650 1302 4700 
Q 1616 4750 1894 4750 
Q 2613 4750 3031 4423 
Q 3450 4097 3450 3541 
Q 3450 3153 3228 2886 
Q 3006 2619 2597 2516 
z
" transform="scale(0.015625)"/>
       </defs>
       <use xlink:href="#DejaVuSans-33"/>
       <use xlink:href="#DejaVuSans-30" x="63.623047"/>
      </g>
     </g>
    </g>
    <g id="xtick_5">
     <g id="line2d_5">
      <g>
       <use xlink:href="#m1490d8f3c0" x="538.171707" y="652.92" style="stroke: #000000; stroke-width: 0.8"/>
      </g>
     </g>
     <g id="text_5">
      <!-- 40 -->
      <g transform="translate(529.264207 670.557812) scale(0.14 -0.14)">
       <defs>
        <path id="DejaVuSans-34" d="M 2419 4116 
L 825 1625 
L 2419 1625 
L 2419 4116 
z
M 2253 4666 
L 3047 4666 
L 3047 1625 
L 3713 1625 
L 3713 1100 
L 3047 1100 
L 3047 0 
L 2419 0 
L 2419 1100 
L 313 1100 
L 313 1709 
L 2253 4666 
z
" transform="scale(0.015625)"/>
       </defs>
       <use xlink:href="#DejaVuSans-34"/>
       <use xlink:href="#DejaVuSans-30" x="63.623047"/>
      </g>
     </g>
    </g>
    <g id="xtick_6">
     <g id="line2d_6">
      <g>
       <use xlink:href="#m1490d8f3c0" x="652.727134" y="652.92" style="stroke: #000000; stroke-width: 0.8"/>
      </g>
     </g>
     <g id="text_6">
      <!-- 50 -->
      <g transform="translate(643.819634 670.557812) scale(0.14 -0.14)">
       <defs>
        <path id="DejaVuSans-35" d="M 691 4666 
L 3169 4666 
L 3169 4134 
L 1269 4134 
L 1269 2991 
Q 1406 3038 1543 3061 
Q 1681 3084 1819 3084 
Q 2600 3084 3056 2656 
Q 3513 2228 3513 1497 
Q 3513 744 3044 326 
Q 2575 -91 1722 -91 
Q 1428 -91 1123 -41 
Q 819 9 494 109 
L 494 744 
Q 775 591 1075 516 
Q 1375 441 1709 441 
Q 2250 441 2565 725 
Q 2881 1009 2881 1497 
Q 2881 1984 2565 2268 
Q 2250 2553 1709 2553 
Q 1456 2553 1204 2497 
Q 953 2441 691 2322 
L 691 4666 
z
" transform="scale(0.015625)"/>
       </defs>
       <use xlink:href="#DejaVuSans-35"/>
       <use xlink:href="#DejaVuSans-30" x="63.623047"/>
      </g>
     </g>
    </g>
    <g id="xtick_7">
     <g id="line2d_7">
      <g>
       <use xlink:href="#m1490d8f3c0" x="767.28256" y="652.92" style="stroke: #000000; stroke-width: 0.8"/>
      </g>
     </g>
     <g id="text_7">
      <!-- 60 -->
      <g transform="translate(758.37506 670.557812) scale(0.14 -0.14)">
       <defs>
        <path id="DejaVuSans-36" d="M 2113 2584 
Q 1688 2584 1439 2293 
Q 1191 2003 1191 1497 
Q 1191 994 1439 701 
Q 1688 409 2113 409 
Q 2538 409 2786 701 
Q 3034 994 3034 1497 
Q 3034 2003 2786 2293 
Q 2538 2584 2113 2584 
z
M 3366 4563 
L 3366 3988 
Q 3128 4100 2886 4159 
Q 2644 4219 2406 4219 
Q 1781 4219 1451 3797 
Q 1122 3375 1075 2522 
Q 1259 2794 1537 2939 
Q 1816 3084 2150 3084 
Q 2853 3084 3261 2657 
Q 3669 2231 3669 1497 
Q 3669 778 3244 343 
Q 2819 -91 2113 -91 
Q 1303 -91 875 529 
Q 447 1150 447 2328 
Q 447 3434 972 4092 
Q 1497 4750 2381 4750 
Q 2619 4750 2861 4703 
Q 3103 4656 3366 4563 
z
" transform="scale(0.015625)"/>
       </defs>
       <use xlink:href="#DejaVuSans-36"/>
       <use xlink:href="#DejaVuSans-30" x="63.623047"/>
      </g>
     </g>
    </g>
    <g id="text_8">
     <!-- Time (s) -->
     <g transform="translate(413.975391 688.867031) scale(0.15 -0.15)">
      <defs>
       <path id="DejaVuSans-54" d="M -19 4666 
L 3928 4666 
L 3928 4134 
L 2272 4134 
L 2272 0 
L 1638 0 
L 1638 4134 
L -19 4134 
L -19 4666 
z
" transform="scale(0.015625)"/>
       <path id="DejaVuSans-69" d="M 603 3500 
L 1178 3500 
L 1178 0 
L 603 0 
L 603 3500 
z
M 603 4863 
L 1178 4863 
L 1178 4134 
L 603 4134 
L 603 4863 
z
" transform="scale(0.015625)"/>
       <path id="DejaVuSans-6d" d="M 3328 2828 
Q 3544 3216 3844 3400 
Q 4144 3584 4550 3584 
Q 5097 3584 5394 3201 
Q 5691 2819 5691 2113 
L 5691 0 
L 5113 0 
L 5113 2094 
Q 5113 2597 4934 2840 
Q 4756 3084 4391 3084 
Q 3944 3084 3684 2787 
Q 3425 2491 3425 1978 
L 3425 0 
L 2847 0 
L 2847 2094 
Q 2847 2600 2669 2842 
Q 2491 3084 2119 3084 
Q 1678 3084 1418 2786 
Q 1159 2488 1159 1978 
L 1159 0 
L 581 0 
L 581 3500 
L 1159 3500 
L 1159 2956 
Q 1356 3278 1631 3431 
Q 1906 3584 2284 3584 
Q 2666 3584 2933 3390 
Q 3200 3197 3328 2828 
z
" transform="scale(0.015625)"/>
       <path id="DejaVuSans-65" d="M 3597 1894 
L 3597 1613 
L 953 1613 
Q 991 1019 1311 708 
Q 1631 397 2203 397 
Q 2534 397 2845 478 
Q 3156 559 3463 722 
L 3463 178 
Q 3153 47 2828 -22 
Q 2503 -91 2169 -91 
Q 1331 -91 842 396 
Q 353 884 353 1716 
Q 353 2575 817 3079 
Q 1281 3584 2069 3584 
Q 2775 3584 3186 3129 
Q 3597 2675 3597 1894 
z
M 3022 2063 
Q 3016 2534 2758 2815 
Q 2500 3097 2075 3097 
Q 1594 3097 1305 2825 
Q 1016 2553 972 2059 
L 3022 2063 
z
" transform="scale(0.015625)"/>
       <path id="DejaVuSans-20" transform="scale(0.015625)"/>
       <path id="DejaVuSans-28" d="M 1984 4856 
Q 1566 4138 1362 3434 
Q 1159 2731 1159 2009 
Q 1159 1288 1364 580 
Q 1569 -128 1984 -844 
L 1484 -844 
Q 1016 -109 783 600 
Q 550 1309 550 2009 
Q 550 2706 781 3412 
Q 1013 4119 1484 4856 
L 1984 4856 
z
" transform="scale(0.015625)"/>
       <path id="DejaVuSans-73" d="M 2834 3397 
L 2834 2853 
Q 2591 2978 2328 3040 
Q 2066 3103 1784 3103 
Q 1356 3103 1142 2972 
Q 928 2841 928 2578 
Q 928 2378 1081 2264 
Q 1234 2150 1697 2047 
L 1894 2003 
Q 2506 1872 2764 1633 
Q 3022 1394 3022 966 
Q 3022 478 2636 193 
Q 2250 -91 1575 -91 
Q 1294 -91 989 -36 
Q 684 19 347 128 
L 347 722 
Q 666 556 975 473 
Q 1284 391 1588 391 
Q 1994 391 2212 530 
Q 2431 669 2431 922 
Q 2431 1156 2273 1281 
Q 2116 1406 1581 1522 
L 1381 1569 
Q 847 1681 609 1914 
Q 372 2147 372 2553 
Q 372 3047 722 3315 
Q 1072 3584 1716 3584 
Q 2034 3584 2315 3537 
Q 2597 3491 2834 3397 
z
" transform="scale(0.015625)"/>
       <path id="DejaVuSans-29" d="M 513 4856 
L 1013 4856 
Q 1481 4119 1714 3412 
Q 1947 2706 1947 2009 
Q 1947 1309 1714 600 
Q 1481 -109 1013 -844 
L 513 -844 
Q 928 -128 1133 580 
Q 1338 1288 1338 2009 
Q 1338 2731 1133 3434 
Q 928 4138 513 4856 
z
" transform="scale(0.015625)"/>
      </defs>
      <use xlink:href="#DejaVuSans-54"/>
      <use xlink:href="#DejaVuSans-69" x="57.958984"/>
      <use xlink:href="#DejaVuSans-6d" x="85.742188"/>
      <use xlink:href="#DejaVuSans-65" x="183.154297"/>
      <use xlink:href="#DejaVuSans-20" x="244.677734"/>
      <use xlink:href="#DejaVuSans-28" x="276.464844"/>
      <use xlink:href="#DejaVuSans-73" x="315.478516"/>
      <use xlink:href="#DejaVuSans-29" x="367.578125"/>
     </g>
    </g>
   </g>
   <g id="matplotlib.axis_2">
    <g id="ytick_1">
     <g id="line2d_8">
      <defs>
       <path id="mef236576bb" d="M 0 0 
L -3.5 0 
" style="stroke: #000000; stroke-width: 0.8"/>
      </defs>
      <g>
       <use xlink:href="#mef236576bb" x="79.95" y="652.92" style="stroke: #000000; stroke-width: 0.8"/>
      </g>
     </g>
     <g id="text_9">
      <!-- 0 -->
      <g transform="translate(64.0425 658.238906) scale(0.14 -0.14)">
       <use xlink:href="#DejaVuSans-30"/>
      </g>
     </g>
    </g>
    <g id="ytick_2">
     <g id="line2d_9">
      <g>
       <use xlink:href="#mef236576bb" x="79.95" y="535.239973" style="stroke: #000000; stroke-width: 0.8"/>
      </g>
     </g>
     <g id="text_10">
      <!-- 20 -->
      <g transform="translate(55.135 540.558879) scale(0.14 -0.14)">
       <use xlink:href="#DejaVuSans-32"/>
       <use xlink:href="#DejaVuSans-30" x="63.623047"/>
      </g>
     </g>
    </g>
    <g id="ytick_3">
     <g id="line2d_10">
      <g>
       <use xlink:href="#mef236576bb" x="79.95" y="417.559946" style="stroke: #000000; stroke-width: 0.8"/>
      </g>
     </g>
     <g id="text_11">
      <!-- 40 -->
      <g transform="translate(55.135 422.878852) scale(0.14 -0.14)">
       <use xlink:href="#DejaVuSans-34"/>
       <use xlink:href="#DejaVuSans-30" x="63.623047"/>
      </g>
     </g>
    </g>
    <g id="ytick_4">
     <g id="line2d_11">
      <g>
       <use xlink:href="#mef236576bb" x="79.95" y="299.879919" style="stroke: #000000; stroke-width: 0.8"/>
      </g>
     </g>
     <g id="text_12">
      <!-- 60 -->
      <g transform="translate(55.135 305.198825) scale(0.14 -0.14)">
       <use xlink:href="#DejaVuSans-36"/>
       <use xlink:href="#DejaVuSans-30" x="63.623047"/>
      </g>
     </g>
    </g>
    <g id="ytick_5">
     <g id="line2d_12">
      <g>
       <use xlink:href="#mef236576bb" x="79.95" y="182.199891" style="stroke: #000000; stroke-width: 0.8"/>
      </g>
     </g>
     <g id="text_13">
      <!-- 80 -->
      <g transform="translate(55.135 187.518798) scale(0.14 -0.14)">
       <defs>
        <path id="DejaVuSans-38" d="M 2034 2216 
Q 1584 2216 1326 1975 
Q 1069 1734 1069 1313 
Q 1069 891 1326 650 
Q 1584 409 2034 409 
Q 2484 409 2743 651 
Q 3003 894 3003 1313 
Q 3003 1734 2745 1975 
Q 2488 2216 2034 2216 
z
M 1403 2484 
Q 997 2584 770 2862 
Q 544 3141 544 3541 
Q 544 4100 942 4425 
Q 1341 4750 2034 4750 
Q 2731 4750 3128 4425 
Q 3525 4100 3525 3541 
Q 3525 3141 3298 2862 
Q 3072 2584 2669 2484 
Q 3125 2378 3379 2068 
Q 3634 1759 3634 1313 
Q 3634 634 3220 271 
Q 2806 -91 2034 -91 
Q 1263 -91 848 271 
Q 434 634 434 1313 
Q 434 1759 690 2068 
Q 947 2378 1403 2484 
z
M 1172 3481 
Q 1172 3119 1398 2916 
Q 1625 2713 2034 2713 
Q 2441 2713 2670 2916 
Q 2900 3119 2900 3481 
Q 2900 3844 2670 4047 
Q 2441 4250 2034 4250 
Q 1625 4250 1398 4047 
Q 1172 3844 1172 3481 
z
" transform="scale(0.015625)"/>
       </defs>
       <use xlink:href="#DejaVuSans-38"/>
       <use xlink:href="#DejaVuSans-30" x="63.623047"/>
      </g>
     </g>
    </g>
    <g id="ytick_6">
     <g id="line2d_13">
      <g>
       <use xlink:href="#mef236576bb" x="79.95" y="64.519864" style="stroke: #000000; stroke-width: 0.8"/>
      </g>
     </g>
     <g id="text_14">
      <!-- 100 -->
      <g transform="translate(46.2275 69.83877) scale(0.14 -0.14)">
       <use xlink:href="#DejaVuSans-31"/>
       <use xlink:href="#DejaVuSans-30" x="63.623047"/>
       <use xlink:href="#DejaVuSans-30" x="127.246094"/>
      </g>
     </g>
    </g>
    <g id="text_15">
     <!-- Packets per Second -->
     <g transform="translate(39.107969 423.207969) rotate(-90) scale(0.15 -0.15)">
      <defs>
       <path id="DejaVuSans-50" d="M 1259 4147 
L 1259 2394 
L 2053 2394 
Q 2494 2394 2734 2622 
Q 2975 2850 2975 3272 
Q 2975 3691 2734 3919 
Q 2494 4147 2053 4147 
L 1259 4147 
z
M 628 4666 
L 2053 4666 
Q 2838 4666 3239 4311 
Q 3641 3956 3641 3272 
Q 3641 2581 3239 2228 
Q 2838 1875 2053 1875 
L 1259 1875 
L 1259 0 
L 628 0 
L 628 4666 
z
" transform="scale(0.015625)"/>
       <path id="DejaVuSans-61" d="M 2194 1759 
Q 1497 1759 1228 1600 
Q 959 1441 959 1056 
Q 959 750 1161 570 
Q 1363 391 1709 391 
Q 2188 391 2477 730 
Q 2766 1069 2766 1631 
L 2766 1759 
L 2194 1759 
z
M 3341 1997 
L 3341 0 
L 2766 0 
L 2766 531 
Q 2569 213 2275 61 
Q 1981 -91 1556 -91 
Q 1019 -91 701 211 
Q 384 513 384 1019 
Q 384 1609 779 1909 
Q 1175 2209 1959 2209 
L 2766 2209 
L 2766 2266 
Q 2766 2663 2505 2880 
Q 2244 3097 1772 3097 
Q 1472 3097 1187 3025 
Q 903 2953 641 2809 
L 641 3341 
Q 956 3463 1253 3523 
Q 1550 3584 1831 3584 
Q 2591 3584 2966 3190 
Q 3341 2797 3341 1997 
z
" transform="scale(0.015625)"/>
       <path id="DejaVuSans-63" d="M 3122 3366 
L 3122 2828 
Q 2878 2963 2633 3030 
Q 2388 3097 2138 3097 
Q 1578 3097 1268 2742 
Q 959 2388 959 1747 
Q 959 1106 1268 751 
Q 1578 397 2138 397 
Q 2388 397 2633 464 
Q 2878 531 3122 666 
L 3122 134 
Q 2881 22 2623 -34 
Q 2366 -91 2075 -91 
Q 1284 -91 818 406 
Q 353 903 353 1747 
Q 353 2603 823 3093 
Q 1294 3584 2113 3584 
Q 2378 3584 2631 3529 
Q 2884 3475 3122 3366 
z
" transform="scale(0.015625)"/>
       <path id="DejaVuSans-6b" d="M 581 4863 
L 1159 4863 
L 1159 1991 
L 2875 3500 
L 3609 3500 
L 1753 1863 
L 3688 0 
L 2938 0 
L 1159 1709 
L 1159 0 
L 581 0 
L 581 4863 
z
" transform="scale(0.015625)"/>
       <path id="DejaVuSans-74" d="M 1172 4494 
L 1172 3500 
L 2356 3500 
L 2356 3053 
L 1172 3053 
L 1172 1153 
Q 1172 725 1289 603 
Q 1406 481 1766 481 
L 2356 481 
L 2356 0 
L 1766 0 
Q 1100 0 847 248 
Q 594 497 594 1153 
L 594 3053 
L 172 3053 
L 172 3500 
L 594 3500 
L 594 4494 
L 1172 4494 
z
" transform="scale(0.015625)"/>
       <path id="DejaVuSans-70" d="M 1159 525 
L 1159 -1331 
L 581 -1331 
L 581 3500 
L 1159 3500 
L 1159 2969 
Q 1341 3281 1617 3432 
Q 1894 3584 2278 3584 
Q 2916 3584 3314 3078 
Q 3713 2572 3713 1747 
Q 3713 922 3314 415 
Q 2916 -91 2278 -91 
Q 1894 -91 1617 61 
Q 1341 213 1159 525 
z
M 3116 1747 
Q 3116 2381 2855 2742 
Q 2594 3103 2138 3103 
Q 1681 3103 1420 2742 
Q 1159 2381 1159 1747 
Q 1159 1113 1420 752 
Q 1681 391 2138 391 
Q 2594 391 2855 752 
Q 3116 1113 3116 1747 
z
" transform="scale(0.015625)"/>
       <path id="DejaVuSans-72" d="M 2631 2963 
Q 2534 3019 2420 3045 
Q 2306 3072 2169 3072 
Q 1681 3072 1420 2755 
Q 1159 2438 1159 1844 
L 1159 0 
L 581 0 
L 581 3500 
L 1159 3500 
L 1159 2956 
Q 1341 3275 1631 3429 
Q 1922 3584 2338 3584 
Q 2397 3584 2469 3576 
Q 2541 3569 2628 3553 
L 2631 2963 
z
" transform="scale(0.015625)"/>
       <path id="DejaVuSans-53" d="M 3425 4513 
L 3425 3897 
Q 3066 4069 2747 4153 
Q 2428 4238 2131 4238 
Q 1616 4238 1336 4038 
Q 1056 3838 1056 3469 
Q 1056 3159 1242 3001 
Q 1428 2844 1947 2747 
L 2328 2669 
Q 3034 2534 3370 2195 
Q 3706 1856 3706 1288 
Q 3706 609 3251 259 
Q 2797 -91 1919 -91 
Q 1588 -91 1214 -16 
Q 841 59 441 206 
L 441 856 
Q 825 641 1194 531 
Q 1563 422 1919 422 
Q 2459 422 2753 634 
Q 3047 847 3047 1241 
Q 3047 1584 2836 1778 
Q 2625 1972 2144 2069 
L 1759 2144 
Q 1053 2284 737 2584 
Q 422 2884 422 3419 
Q 422 4038 858 4394 
Q 1294 4750 2059 4750 
Q 2388 4750 2728 4690 
Q 3069 4631 3425 4513 
z
" transform="scale(0.015625)"/>
       <path id="DejaVuSans-6f" d="M 1959 3097 
Q 1497 3097 1228 2736 
Q 959 2375 959 1747 
Q 959 1119 1226 758 
Q 1494 397 1959 397 
Q 2419 397 2687 759 
Q 2956 1122 2956 1747 
Q 2956 2369 2687 2733 
Q 2419 3097 1959 3097 
z
M 1959 3584 
Q 2709 3584 3137 3096 
Q 3566 2609 3566 1747 
Q 3566 888 3137 398 
Q 2709 -91 1959 -91 
Q 1206 -91 779 398 
Q 353 888 353 1747 
Q 353 2609 779 3096 
Q 1206 3584 1959 3584 
z
" transform="scale(0.015625)"/>
       <path id="DejaVuSans-6e" d="M 3513 2113 
L 3513 0 
L 2938 0 
L 2938 2094 
Q 2938 2591 2744 2837 
Q 2550 3084 2163 3084 
Q 1697 3084 1428 2787 
Q 1159 2491 1159 1978 
L 1159 0 
L 581 0 
L 581 3500 
L 1159 3500 
L 1159 2956 
Q 1366 3272 1645 3428 
Q 1925 3584 2291 3584 
Q 2894 3584 3203 3211 
Q 3513 2838 3513 2113 
z
" transform="scale(0.015625)"/>
       <path id="DejaVuSans-64" d="M 2906 2969 
L 2906 4863 
L 3481 4863 
L 3481 0 
L 2906 0 
L 2906 525 
Q 2725 213 2448 61 
Q 2172 -91 1784 -91 
Q 1150 -91 751 415 
Q 353 922 353 1747 
Q 353 2572 751 3078 
Q 1150 3584 1784 3584 
Q 2172 3584 2448 3432 
Q 2725 3281 2906 2969 
z
M 947 1747 
Q 947 1113 1208 752 
Q 1469 391 1925 391 
Q 2381 391 2643 752 
Q 2906 1113 2906 1747 
Q 2906 2381 2643 2742 
Q 2381 3103 1925 3103 
Q 1469 3103 1208 2742 
Q 947 2381 947 1747 
z
" transform="scale(0.015625)"/>
      </defs>
      <use xlink:href="#DejaVuSans-50"/>
      <use xlink:href="#DejaVuSans-61" x="55.802734"/>
      <use xlink:href="#DejaVuSans-63" x="117.082031"/>
      <use xlink:href="#DejaVuSans-6b" x="172.0625"/>
      <use xlink:href="#DejaVuSans-65" x="226.347656"/>
      <use xlink:href="#DejaVuSans-74" x="287.871094"/>
      <use xlink:href="#DejaVuSans-73" x="327.080078"/>
      <use xlink:href="#DejaVuSans-20" x="379.179688"/>
      <use xlink:href="#DejaVuSans-70" x="410.966797"/>
      <use xlink:href="#DejaVuSans-65" x="474.443359"/>
      <use xlink:href="#DejaVuSans-72" x="535.966797"/>
      <use xlink:href="#DejaVuSans-20" x="577.080078"/>
      <use xlink:href="#DejaVuSans-53" x="608.867188"/>
      <use xlink:href="#DejaVuSans-65" x="672.34375"/>
      <use xlink:href="#DejaVuSans-63" x="733.867188"/>
      <use xlink:href="#DejaVuSans-6f" x="788.847656"/>
      <use xlink:href="#DejaVuSans-6e" x="850.029297"/>
      <use xlink:href="#DejaVuSans-64" x="913.408203"/>
     </g>
    </g>
   </g>
   <g id="line2d_14">
    <path d="M 79.95 368.198788 
L 81.231854 284.835152 
L 82.514305 337.565528 
L 83.679328 305.779782 
L 85.076902 315.312828 
L 86.35977 285.125977 
L 87.759521 315.837837 
L 89.159585 219.625689 
L 90.32607 306.214754 
L 91.490547 305.616777 
L 92.772008 389.921741 
L 94.054093 284.901261 
L 95.451781 315.340402 
L 96.616494 247.815194 
L 98.130466 296.747422 
L 99.295599 363.663502 
L 100.810494 252.469981 
L 101.975021 363.513101 
L 103.14087 248.209791 
L 104.42265 337.40054 
L 105.58879 306.111962 
L 106.753729 305.754483 
L 108.150688 315.16427 
L 109.316146 248.074071 
L 110.59823 337.475268 
L 111.765115 190.80475 
L 112.930168 363.643619 
L 114.095963 306.009702 
L 115.261659 305.979903 
L 116.542991 284.68519 
L 118.057158 341.309115 
L 119.222372 305.836476 
L 120.270521 202.763547 
L 121.553266 337.637977 
L 122.952703 267.596815 
L 124.117262 363.521086 
L 125.282933 305.97248 
L 126.796529 252.126234 
L 128.311863 297.067345 
L 129.476531 363.548142 
L 130.641356 305.720809 
L 131.806246 305.739984 
L 133.320335 252.256718 
L 134.48608 363.815341 
L 137.167683 248.241773 
L 138.449983 337.528307 
L 139.733108 232.668465 
L 141.015616 337.579624 
L 142.412741 266.959247 
L 143.695527 337.647755 
L 145.093491 315.407049 
L 146.258413 247.887677 
L 148.588479 363.570811 
L 150.919845 248.078424 
L 152.202703 337.66559 
L 153.369602 306.337693 
L 154.651864 284.952259 
L 155.817021 247.969423 
L 156.983009 363.875833 
L 158.266079 285.184103 
L 159.43302 306.35005 
L 160.597937 305.747983 
L 161.762862 305.750322 
L 163.162798 267.734348 
L 164.212193 331.76145 
L 165.494763 285.040642 
L 166.659493 305.692336 
L 168.059264 315.8427 
L 169.225561 306.158681 
L 170.390935 248.044976 
L 171.55659 363.793114 
L 172.606958 267.886571 
L 173.889047 284.902685 
L 174.93701 267.003204 
L 176.218561 337.344053 
L 177.6181 267.625191 
L 178.782647 363.517858 
L 180.063817 284.638791 
L 181.461439 267.096381 
L 182.626164 305.690902 
L 183.907569 337.308044 
L 185.07339 306.017236 
L 186.237837 305.607935 
L 187.402428 305.65095 
L 188.567144 189.943825 
L 189.733214 306.091356 
L 190.897982 305.703752 
L 192.062507 363.512557 
L 194.394144 248.002765 
L 195.559238 305.800879 
L 196.72442 305.826778 
L 198.005262 337.169669 
L 200.568826 267.342751 
L 201.734095 305.852926 
L 203.134858 267.961809 
L 204.299445 305.649478 
L 205.580146 337.134795 
L 206.745775 305.960004 
L 207.910217 305.60638 
L 209.076693 306.21189 
L 210.477522 267.979891 
L 211.642771 305.846866 
L 212.924163 337.304968 
L 214.320655 315.051129 
L 215.485808 247.968113 
L 216.651682 306.033099 
L 217.93301 337.289178 
L 219.330091 266.947094 
L 220.496469 363.97222 
L 221.544176 202.573993 
L 222.709146 305.763721 
L 224.223088 341.262726 
L 225.504428 284.687452 
L 226.902153 315.349263 
L 228.067784 248.134185 
L 229.347915 336.994211 
L 230.745295 267.029634 
L 232.261007 341.626704 
L 233.426374 248.042305 
L 234.591655 305.856307 
L 235.872463 337.161115 
L 236.921256 267.30852 
L 238.321193 267.734654 
L 239.485533 363.466466 
L 240.651199 248.146322 
L 242.165616 341.3605 
L 243.330905 248.015475 
L 244.553753 322.19481 
L 245.717442 305.381515 
L 247.115481 315.425294 
L 248.395401 284.278893 
L 249.622984 268.562246 
L 250.904877 284.846326 
L 252.069571 305.681612 
L 253.23468 305.805141 
L 254.516541 337.420512 
L 255.913626 315.194651 
L 257.077479 247.515823 
L 258.592342 341.452178 
L 259.756978 305.66406 
L 260.921793 247.850823 
L 262.204598 337.652618 
L 263.485886 284.672492 
L 264.651762 248.219081 
L 265.817458 305.980032 
L 266.984264 306.310101 
L 269.318598 306.425304 
L 270.59963 337.216208 
L 271.881386 337.394731 
L 273.046519 247.961006 
L 274.212807 248.361873 
L 275.493366 337.099721 
L 276.661798 306.792463 
L 277.942979 232.03072 
L 280.155799 305.514516 
L 281.320232 305.603842 
L 282.835353 341.505096 
L 283.999209 305.431509 
L 285.164465 248.003887 
L 286.330174 305.984035 
L 287.612543 337.545454 
L 289.010471 315.398235 
L 290.175034 247.762844 
L 291.457668 337.610686 
L 292.855516 267.158655 
L 294.136972 337.320861 
L 295.300916 305.457648 
L 296.465423 305.625835 
L 297.746277 284.547698 
L 298.923382 252.079923 
L 300.320782 363.506463 
L 301.718591 315.369478 
L 302.883435 247.860607 
L 304.165035 337.356298 
L 305.331205 306.120864 
L 306.379177 267.006528 
L 307.544164 305.768886 
L 308.825794 337.363719 
L 309.992828 306.377585 
L 311.276505 285.358022 
L 312.441449 305.755859 
L 313.608096 306.263018 
L 314.772959 305.731762 
L 315.821214 202.809116 
L 317.104372 337.739262 
L 319.667901 267.026654 
L 320.832544 363.541923 
L 322.116349 285.39464 
L 323.401632 285.817137 
L 324.566129 305.622732 
L 325.731885 305.997965 
L 327.013292 284.706574 
L 328.413584 267.832163 
L 329.695498 337.433678 
L 330.860147 305.668056 
L 332.024619 305.615165 
L 333.075092 267.925502 
L 334.241969 364.095913 
L 335.52311 284.630302 
L 336.808347 285.804029 
L 338.088015 284.206523 
L 339.254465 306.20427 
L 340.422841 306.775572 
L 341.58716 305.56966 
L 342.984908 315.354899 
L 344.148945 247.579837 
L 345.431539 337.600691 
L 346.595964 305.60131 
L 347.762137 306.121876 
L 349.047296 233.333587 
L 350.33012 337.657342 
L 351.492301 304.930554 
L 352.891628 315.735892 
L 353.939833 267.092287 
L 355.104698 247.867761 
L 356.271399 306.278913 
L 357.553893 337.576241 
L 358.717276 305.290141 
L 359.887033 307.184294 
L 361.050121 305.202332 
L 362.447552 267.043736 
L 363.612657 363.656694 
L 364.895931 285.242426 
L 366.176795 284.550462 
L 367.3399 305.207127 
L 368.504841 247.894675 
L 369.787187 337.539611 
L 370.9553 306.69786 
L 372.120089 305.709773 
L 373.518093 315.416776 
L 374.682068 305.467052 
L 375.8487 306.258225 
L 377.012644 305.457761 
L 378.17749 247.861479 
L 379.225899 267.167446 
L 380.391111 305.835865 
L 381.673308 337.503065 
L 383.071139 267.154124 
L 384.584992 296.719378 
L 385.868028 337.709399 
L 387.032794 305.702991 
L 388.197931 305.813424 
L 389.362125 305.532446 
L 390.761629 315.77836 
L 391.810726 203.170345 
L 392.862825 268.520353 
L 394.142724 336.936809 
L 395.310606 306.629355 
L 396.591449 337.169785 
L 397.645738 269.318727 
L 398.810497 305.700915 
L 399.980725 307.323656 
L 401.15078 307.27253 
L 402.548911 315.447328 
L 403.831367 285.007998 
L 405.229521 315.45275 
L 406.51185 284.971647 
L 407.680168 306.758467 
L 408.850158 307.253453 
L 410.014907 305.697711 
L 411.179329 305.600507 
L 412.34512 190.371136 
L 413.745329 364.086892 
L 415.143912 315.556571 
L 416.308292 247.698947 
L 417.706178 267.169327 
L 418.988279 337.479516 
L 420.50406 297.172556 
L 421.668607 363.517935 
L 422.951856 285.235547 
L 424.354996 316.651858 
L 425.520048 247.932887 
L 426.687192 306.410452 
L 427.851789 305.652798 
L 429.016147 305.581306 
L 430.181259 305.80596 
L 431.347779 306.225227 
L 432.629067 284.67237 
L 433.794495 248.06382 
L 435.077471 337.694685 
L 436.478612 268.065411 
L 437.992065 341.162054 
L 439.158992 306.345825 
L 440.4415 285.023088 
L 441.611229 307.176154 
L 442.891237 231.644843 
L 444.175586 338.031731 
L 445.573377 315.365182 
L 447.088164 296.938895 
L 448.368461 284.387748 
L 449.535535 306.389402 
L 450.700091 305.640384 
L 452.099859 315.842151 
L 453.381245 337.303397 
L 454.664438 285.219328 
L 455.829011 305.645269 
L 457.111074 284.895188 
L 458.62604 296.981199 
L 460.142449 297.319769 
L 461.422968 284.451408 
L 462.589896 306.346301 
L 463.987126 315.229631 
L 465.152168 247.929622 
L 466.665721 341.182545 
L 467.833637 248.926124 
L 469.116767 337.732449 
L 470.165342 267.22849 
L 471.44648 337.242275 
L 472.850335 316.823309 
L 474.016243 248.230282 
L 475.181824 305.945689 
L 476.463673 337.41756 
L 477.633107 307.089008 
L 478.915833 285.085431 
L 480.084007 249.015377 
L 481.365542 337.340099 
L 482.536337 307.491004 
L 483.93359 315.235254 
L 484.983395 203.473828 
L 486.031698 331.426711 
L 487.312787 284.615426 
L 488.592837 336.974083 
L 489.992598 267.686149 
L 491.273748 337.245261 
L 492.671954 267.257627 
L 493.836936 305.767442 
L 495.12058 337.858758 
L 496.284442 305.433295 
L 497.683012 315.553202 
L 498.847437 247.714889 
L 500.013738 306.160033 
L 501.179104 305.881631 
L 502.466205 338.704924 
L 503.515599 267.529475 
L 504.914226 267.373584 
L 506.195644 337.311545 
L 508.756879 266.873976 
L 510.038305 337.313306 
L 511.205194 306.334502 
L 512.486565 232.093205 
L 513.65201 305.905189 
L 514.933839 337.412628 
L 516.098881 305.785349 
L 517.380723 337.415628 
L 518.549911 307.016211 
L 519.716126 248.336873 
L 520.881077 305.758211 
L 522.047998 306.34426 
L 523.329025 284.597526 
L 524.727602 315.55494 
L 525.893675 306.092112 
L 527.059406 248.168669 
L 528.339724 337.040388 
L 529.277962 221.870835 
L 530.794252 297.291765 
L 531.958437 305.529882 
L 533.123382 305.756252 
L 535.453011 305.674536 
L 536.735011 337.454807 
L 537.904819 307.199391 
L 539.075913 307.579273 
L 540.247529 307.732901 
L 541.535249 286.512051 
L 542.701619 248.39045 
L 543.865614 363.381006 
L 544.918483 268.801159 
L 546.54904 280.875556 
L 547.715736 364.051182 
L 548.995401 284.20544 
L 550.16095 305.936188 
L 551.324572 305.361644 
L 552.606233 232.18819 
L 553.885669 336.822539 
L 555.291163 317.215259 
L 556.571993 284.540862 
L 557.74151 307.113672 
L 559.144053 268.450194 
L 560.427458 337.79986 
L 561.824587 315.205418 
L 562.989116 305.63236 
L 564.037828 267.2785 
L 565.207822 307.254549 
L 566.488566 284.516262 
L 567.659785 307.616093 
L 568.824208 305.60063 
L 570.222717 315.538514 
L 571.270271 266.852648 
L 572.441218 249.971496 
L 573.722236 337.212964 
L 575.124478 316.436733 
L 576.289105 247.784994 
L 577.570732 337.362907 
L 579.088271 297.584531 
L 580.135436 266.708993 
L 581.185497 331.965156 
L 582.466235 284.514489 
L 583.514884 267.255481 
L 584.680128 305.845399 
L 585.96391 337.892756 
L 587.128865 305.759276 
L 588.527193 315.494811 
L 589.691577 305.588967 
L 590.859224 248.83316 
L 591.90854 267.500541 
L 593.07197 363.240294 
L 594.352917 284.574524 
L 595.520721 306.60646 
L 596.684661 305.456421 
L 598.082944 267.2788 
L 599.363586 337.120338 
L 600.529251 305.970513 
L 601.699104 307.212983 
L 602.751609 268.668687 
L 604.031641 336.969573 
L 605.429122 267.05761 
L 606.481787 268.726736 
L 607.762387 337.109798 
L 609.16079 315.512897 
L 610.327114 248.374926 
L 611.608091 337.202684 
L 612.778223 307.295188 
L 613.830344 268.528184 
L 614.999016 306.863457 
L 616.279998 337.204138 
L 617.678213 315.467442 
L 618.727664 203.322226 
L 619.892472 305.715557 
L 621.056825 305.579676 
L 622.341339 338.072223 
L 623.621313 231.633769 
L 624.787003 363.801814 
L 627.120259 249.335654 
L 628.285178 305.748403 
L 629.450242 305.79181 
L 630.735668 338.295582 
L 632.128909 265.883292 
L 633.297767 306.918357 
L 634.579813 337.466147 
L 635.744285 305.615233 
L 636.907994 305.38766 
L 638.19752 287.02487 
L 639.478652 284.627753 
L 640.648072 307.084803 
L 642.049027 268.014515 
L 643.213297 305.554984 
L 644.493297 336.961927 
L 645.774329 337.216199 
L 646.942973 191.500254 
L 648.112205 307.029083 
L 649.276685 305.617802 
L 650.440882 305.533392 
L 651.720691 336.914598 
L 653.00217 232.128224 
L 654.167533 305.881116 
L 655.451699 337.986773 
L 656.847416 266.569781 
L 658.014971 364.263582 
L 659.294916 284.286261 
L 660.463702 306.897368 
L 662.797487 306.122894 
L 664.0766 336.742758 
L 665.360903 285.536964 
L 666.409275 202.859367 
L 667.577976 306.871981 
L 668.74459 306.253092 
L 670.02304 336.578752 
L 671.195731 308.049241 
L 672.354967 304.046694 
L 673.528049 308.164419 
L 674.454397 70.811504 
L 675.831299 359.197718 
L 677.231982 364.184879 
L 678.40451 308.001406 
L 679.740859 249.406093 
L 680.875799 296.578151 
L 682.041532 305.991 
L 683.323118 232.163573 
L 684.548729 377.937155 
L 685.87183 296.309967 
L 687.10875 271.463615 
L 688.374535 333.413494 
L 689.579667 261.401781 
L 690.798412 321.081495 
L 692.199877 268.154575 
L 693.335671 356.191745 
L 694.374308 198.640996 
L 695.634685 332.042489 
L 696.743484 348.967645 
L 698.190307 233.629016 
L 699.456215 333.444428 
L 701.026331 309.483276 
L 702.29921 335.194249 
L 703.528904 324.036127 
L 704.794109 279.991466 
L 705.881549 281.013065 
L 707.285012 316.729432 
L 708.236696 227.961128 
L 709.498184 332.325112 
L 710.911305 271.328002 
L 712.061349 301.258187 
L 713.371054 344.127975 
L 714.794137 273.999486 
L 716.190504 363.292216 
L 717.357819 306.461215 
L 718.755519 315.34324 
L 719.919216 247.461516 
L 721.202421 337.75082 
L 722.377716 308.813468 
L 723.426697 267.377747 
L 724.821781 314.710315 
L 726.106036 285.523351 
L 727.280803 308.659001 
L 728.452911 307.877881 
L 729.630216 309.401011 
L 730.796029 306.014924 
L 732.086889 287.40306 
L 733.135019 202.755267 
L 734.416122 337.233781 
L 735.584983 306.919638 
L 736.694495 166.908552 
L 738.032887 350.746423 
L 739.462041 369.936908 
L 740.496467 261.952727 
L 741.794632 237.537142 
L 742.997753 316.772276 
L 744.199079 316.269817 
L 745.347863 300.872358 
L 746.48517 297.319914 
L 748.020569 301.717866 
L 749.305512 390.634288 
L 750.820972 297.097126 
L 751.986852 248.220472 
L 753.267043 337.008866 
L 754.436807 307.186651 
L 755.845823 318.054249 
L 757.127876 284.892495 
L 758.523899 266.654524 
L 759.693825 307.234421 
L 760.857466 305.367084 
L 762.377392 342.489937 
L 763.422072 201.268672 
L 764.58526 305.231779 
L 765.872636 338.772087 
L 767.036234 305.354352 
L 768.212588 309.123339 
L 769.377775 305.82845 
L 770.539172 304.695797 
L 771.826014 233.882218 
L 772.9907 363.552801 
L 774.271429 284.511602 
L 774.271429 284.511602 
" clip-path="url(#pb55c443962)" style="fill: none; stroke: #1f77b4; stroke-width: 1.5; stroke-linecap: square"/>
   </g>
   <g id="line2d_15">
    <path d="M 79.95 299.38485 
L 808.9875 299.38485 
" clip-path="url(#pb55c443962)" style="fill: none; stroke-dasharray: 5.55,2.4; stroke-dashoffset: 0; stroke: #0000ff; stroke-width: 1.5"/>
   </g>
   <g id="line2d_16">
    <path d="M 79.95 539.031223 
L 81.231829 495.166244 
L 82.514311 495.246657 
L 86.359708 442.752355 
L 87.759485 508.458984 
L 90.325972 421.763345 
L 91.490471 537.154508 
L 92.77191 495.118298 
L 94.054084 442.638188 
L 95.451771 508.242977 
L 96.616411 479.292616 
L 98.130461 430.323669 
L 99.295588 537.216792 
L 100.810411 430.43719 
L 101.975009 537.164255 
L 103.140682 479.446625 
L 104.42264 442.602912 
L 105.588781 479.516153 
L 106.753712 479.33604 
L 108.150675 508.168004 
L 109.316122 479.412879 
L 110.59814 495.189522 
L 111.764982 364.08746 
L 112.930144 537.220335 
L 114.09587 479.454402 
L 115.261627 479.459143 
L 116.542964 495.105653 
L 118.056946 474.834893 
L 119.222351 479.406577 
L 120.27049 395.685428 
L 121.553163 547.820077 
L 122.952676 412.106031 
L 124.117126 537.149625 
L 125.282896 479.460956 
L 126.796434 430.248345 
L 128.311825 475.000436 
L 129.476353 537.157281 
L 130.641318 479.341168 
L 131.806206 479.329649 
L 133.320296 474.84758 
L 134.485962 479.445573 
L 136.001699 475.041066 
L 137.167634 421.674011 
L 138.449864 495.215559 
L 139.733065 442.806606 
L 141.015565 495.24892 
L 142.412596 459.926571 
L 143.695477 495.295606 
L 145.093443 508.271776 
L 146.258357 421.471515 
L 147.423591 537.227436 
L 148.588339 479.308815 
L 149.754322 479.492692 
L 150.919791 479.416317 
L 152.202649 495.292805 
L 153.369464 421.84853 
L 154.651808 495.229577 
L 155.81696 421.518781 
L 156.982875 537.294974 
L 158.266018 495.327921 
L 159.432954 479.634289 
L 160.597779 479.320215 
L 161.762792 479.348413 
L 163.16273 460.32733 
L 164.212122 460.224386 
L 165.494601 495.24619 
L 168.059191 460.303949 
L 169.225411 479.527862 
L 170.390691 479.388102 
L 171.556518 479.469565 
L 172.606847 460.396197 
L 173.888572 495.153498 
L 174.936937 395.740618 
L 176.218484 495.131613 
L 177.61802 508.434063 
L 178.782494 479.267975 
L 180.063737 442.485479 
L 181.461357 508.23594 
L 182.626006 421.418825 
L 183.907488 495.123543 
L 185.072696 479.377392 
L 187.401906 479.293157 
L 188.567054 479.368395 
L 189.732469 421.570876 
L 192.062296 537.167787 
L 194.394047 421.625079 
L 195.558516 479.267222 
L 196.723697 479.373346 
L 198.004656 495.059076 
L 200.56799 460.045536 
L 201.733727 537.277381 
L 203.134629 412.344905 
L 204.298858 479.231388 
L 205.580045 495.087227 
L 206.744983 537.198133 
L 209.076584 421.879638 
L 210.476728 460.355741 
L 211.642075 479.397979 
L 212.923397 495.103847 
L 214.320537 508.186284 
L 215.484906 479.252331 
L 216.650865 421.678773 
L 217.932323 495.120597 
L 219.329973 460.012152 
L 220.495374 537.24407 
L 221.543702 395.731588 
L 222.708897 479.375528 
L 224.222331 519.307688 
L 225.504291 495.182494 
L 226.901266 459.918869 
L 228.066897 421.613766 
L 229.347182 494.976055 
L 230.745175 460.059449 
L 232.260879 519.507834 
L 233.425461 421.405453 
L 234.590858 479.405464 
L 235.871717 495.046864 
L 236.921115 460.225377 
L 238.32016 508.383416 
L 239.484519 479.250716 
L 240.650414 479.479634 
L 242.165474 474.9616 
L 243.329838 421.361985 
L 244.553003 487.600358 
L 245.717056 479.205104 
L 247.114691 508.237527 
L 248.395253 495.01025 
L 249.621975 433.132809 
L 250.903885 495.176213 
L 252.068729 421.457522 
L 254.515302 547.663718 
L 255.912976 460.015448 
L 257.077178 479.227419 
L 258.591504 474.875321 
L 259.755892 479.255058 
L 260.921534 479.441985 
L 262.20366 495.202871 
L 263.484807 442.469784 
L 264.651334 421.791352 
L 265.817131 537.283315 
L 266.983183 421.697381 
L 269.318009 537.459803 
L 270.599471 442.521496 
L 271.880308 495.044146 
L 273.046358 479.502596 
L 274.211525 421.521677 
L 275.492612 495.074944 
L 276.661495 479.922937 
L 277.942811 495.103181 
L 278.99062 395.604067 
L 280.155567 479.338489 
L 281.320049 479.269192 
L 282.834122 519.364129 
L 283.998417 479.241262 
L 285.163292 479.327838 
L 286.329177 421.664181 
L 287.611481 495.224628 
L 289.009294 508.256044 
L 290.174854 421.599668 
L 291.457289 495.24078 
L 292.85518 508.264044 
L 294.135892 442.398308 
L 295.300014 479.215438 
L 296.464152 479.217778 
L 297.745367 495.090745 
L 298.922079 481.073845 
L 300.320022 460.052644 
L 301.717463 508.217451 
L 302.883237 479.461567 
L 304.164849 495.139586 
L 305.329993 421.517072 
L 306.378881 460.131767 
L 307.54397 479.35954 
L 308.825594 495.141078 
L 309.991626 479.500027 
L 311.275487 495.415925 
L 312.440932 479.412637 
L 313.606902 479.490852 
L 314.771814 479.333249 
L 315.821013 395.945126 
L 317.103972 495.305167 
L 319.666752 460.002898 
L 320.832335 537.262094 
L 322.114727 495.235558 
L 323.400649 443.251249 
L 324.565908 479.384924 
L 325.730628 479.304597 
L 327.012055 495.116791 
L 328.413114 460.481558 
L 329.695283 442.637493 
L 330.859754 479.267386 
L 332.024394 479.292776 
L 333.074865 524.58819 
L 334.241585 479.602261 
L 335.522872 495.099528 
L 336.806763 442.919553 
L 338.087784 442.449006 
L 339.253166 537.242216 
L 340.422429 422.332116 
L 341.586929 479.27187 
L 342.98449 508.229888 
L 344.148709 421.333249 
L 345.431122 495.238112 
L 346.595724 479.287004 
L 347.760791 479.356345 
L 349.046863 443.275733 
L 350.328284 547.717387 
L 351.491891 479.138591 
L 352.891379 460.265356 
L 353.939415 459.975104 
L 355.104448 479.351191 
L 356.269842 421.566807 
L 357.552289 495.242284 
L 358.717024 537.177959 
L 359.885117 422.101179 
L 361.049638 479.275018 
L 362.4473 508.240291 
L 363.612405 479.362122 
L 364.89448 442.622071 
L 366.175366 495.050045 
L 367.3396 479.232223 
L 368.504598 479.346 
L 369.786949 495.230532 
L 370.953661 421.82805 
L 372.118631 479.341927 
L 373.516693 508.281776 
L 374.681814 479.364325 
L 377.011383 479.287523 
L 378.175759 421.364402 
L 379.224623 460.127337 
L 380.38937 479.308712 
L 381.671143 495.159291 
L 383.069153 460.061785 
L 384.583677 474.898653 
L 385.866249 495.257628 
L 387.031089 479.322586 
L 388.196424 479.396273 
L 389.36185 537.246459 
L 390.759915 460.069375 
L 391.809179 395.961208 
L 392.861286 524.787779 
L 394.142451 495.084536 
L 395.308616 479.519694 
L 396.589823 442.479579 
L 397.643883 461.077724 
L 398.808838 479.339672 
L 399.978858 480.091046 
L 401.149384 537.750508 
L 402.547357 460.056758 
L 403.829751 442.674326 
L 405.228282 508.330293 
L 406.511071 495.284355 
L 407.679687 422.204566 
L 408.848248 537.556878 
L 410.013262 421.491106 
L 411.177402 479.218239 
L 412.343679 421.741725 
L 413.74371 508.485181 
L 415.142238 508.329929 
L 416.307006 421.442294 
L 417.705584 460.14023 
L 418.987787 547.78151 
L 420.502087 430.360323 
L 421.667113 537.206781 
L 422.949857 495.278836 
L 424.353478 460.832739 
L 425.518381 479.331836 
L 426.685467 421.90223 
L 427.850452 537.202713 
L 429.015543 421.506686 
L 430.180753 479.377555 
L 431.345738 479.344172 
L 432.627503 495.158451 
L 433.792782 421.543806 
L 435.075718 547.841581 
L 436.477182 412.441419 
L 437.991738 519.406777 
L 439.156546 479.317705 
L 440.439325 442.737586 
L 441.609493 480.112845 
L 442.890914 495.116155 
L 444.173393 442.688164 
L 445.571573 508.293963 
L 447.086371 474.930744 
L 448.368112 495.155503 
L 449.5329 421.446365 
L 450.698387 537.25261 
L 452.097606 460.22846 
L 453.379507 495.175055 
L 454.662234 442.729009 
L 455.827302 479.356564 
L 457.10891 495.139053 
L 458.624365 475.007877 
L 460.140259 475.059477 
L 461.421273 495.066019 
L 463.985357 460.013538 
L 465.150342 479.344153 
L 466.665257 474.944532 
L 467.831452 421.725611 
L 469.114852 495.359402 
L 470.163493 460.086363 
L 471.446143 495.267262 
L 472.848119 508.685477 
L 474.01435 479.529578 
L 475.179668 421.551742 
L 476.461772 547.773379 
L 477.63243 422.607101 
L 478.915257 495.288983 
L 480.081715 421.777717 
L 481.363732 495.189452 
L 482.534042 480.133876 
L 483.931762 508.246349 
L 484.981449 460.278417 
L 486.029577 459.991949 
L 487.31117 442.543059 
L 488.592468 547.707299 
L 489.990282 411.813338 
L 491.271739 495.120501 
L 492.669995 460.095717 
L 493.836563 479.579679 
L 495.117844 495.098839 
L 496.282575 479.306272 
L 497.680598 508.277704 
L 498.845525 479.335396 
L 500.011301 479.461935 
L 501.176771 421.581804 
L 502.463709 495.792612 
L 503.513677 460.329955 
L 504.912173 460.128877 
L 506.193515 495.106324 
L 508.756112 460.026022 
L 510.037702 495.136886 
L 511.202689 479.344499 
L 512.484613 495.177977 
L 513.649515 421.468927 
L 514.931873 547.794253 
L 516.096791 421.472137 
L 517.378507 495.152459 
L 518.548107 480.028941 
L 520.880456 479.363057 
L 522.045446 479.344851 
L 523.326984 495.130532 
L 524.72544 460.123313 
L 525.891479 479.500978 
L 527.05761 421.712999 
L 528.338933 547.709311 
L 529.277103 437.379904 
L 530.791433 474.875743 
L 531.956315 479.328695 
L 534.286101 479.334123 
L 535.451163 421.500802 
L 536.733939 495.282684 
L 537.904046 480.10395 
L 539.073101 537.605654 
L 540.24538 422.925342 
L 541.532999 495.875768 
L 542.699087 479.50817 
L 543.863732 479.293518 
L 544.917607 461.044102 
L 546.54835 446.252085 
L 547.712923 537.161844 
L 548.993245 442.334144 
L 550.157936 537.173488 
L 551.322391 479.265129 
L 552.604004 389.952874 
L 553.885242 495.093551 
L 555.288469 508.814106 
L 556.569672 442.478967 
L 557.739236 537.6558 
L 559.143615 412.940435 
L 560.424714 495.076368 
L 561.822231 508.225354 
L 562.986827 479.286116 
L 564.037363 460.434281 
L 565.204524 479.667758 
L 566.486283 495.157587 
L 567.656985 422.61569 
L 568.821944 479.340263 
L 570.219896 508.270316 
L 571.267981 459.984137 
L 572.4388 422.638644 
L 573.719812 495.06569 
L 575.122444 508.75301 
L 576.28819 421.636516 
L 577.570004 547.749659 
L 579.085347 474.994702 
L 580.133109 459.924619 
L 581.182561 460.235301 
L 582.463666 442.462916 
L 584.679663 479.670834 
L 585.960969 495.10188 
L 587.126387 479.408687 
L 588.524522 508.289263 
L 589.691138 479.58677 
L 590.856078 421.476557 
L 591.906102 460.340366 
L 593.070969 537.191051 
L 594.35219 495.091352 
L 595.517257 421.501862 
L 596.682193 479.336825 
L 598.07993 460.024148 
L 599.361117 495.087123 
L 600.526665 537.258709 
L 601.696539 422.452731 
L 602.749437 460.865854 
L 604.030699 495.096576 
L 605.428311 460.006831 
L 606.478615 460.39155 
L 607.759866 495.095197 
L 609.158159 508.305629 
L 610.324395 421.7337 
L 611.605445 495.070328 
L 612.777701 537.920482 
L 613.829864 396.669076 
L 614.994987 479.364789 
L 616.277404 495.238542 
L 617.675543 508.289723 
L 618.724965 460.229784 
L 619.889795 479.32114 
L 621.055577 421.643668 
L 622.336851 495.097902 
L 623.617574 442.400098 
L 624.783607 537.306766 
L 627.116223 421.74831 
L 628.281748 479.424443 
L 629.446803 479.354538 
L 630.730974 495.45409 
L 632.127226 459.81891 
L 633.293631 479.555478 
L 634.575702 547.770702 
L 635.740545 421.45728 
L 636.906735 537.322285 
L 638.193576 443.401008 
L 639.475022 442.518757 
L 640.646787 480.348524 
L 642.044744 508.270848 
L 643.2094 479.295155 
L 644.492139 495.278187 
L 645.77315 442.44741 
L 646.941815 422.21427 
L 648.10752 479.451254 
L 650.437341 479.328191 
L 651.719049 495.151353 
L 653.000573 442.53159 
L 654.166326 479.45849 
L 655.44805 547.742247 
L 656.845935 411.825697 
L 658.011222 537.232758 
L 659.29336 442.63239 
L 660.462469 479.956406 
L 661.62707 537.164627 
L 662.793278 421.728191 
L 664.075144 495.170848 
L 665.357628 495.246811 
L 667.572977 421.472856 
L 668.739605 479.588609 
L 670.021324 495.152722 
L 671.190351 537.602872 
L 672.351265 420.673851 
L 673.526856 538.246768 
L 674.452212 288.71174 
L 675.829764 506.12822 
L 677.227659 508.264472 
L 678.400272 480.473174 
L 679.739646 501.944037 
L 680.87346 415.122868 
L 682.037252 537.084132 
L 683.318987 389.978008 
L 684.5475 543.186646 
L 685.866594 448.523844 
L 687.10488 489.619041 
L 688.370214 493.109778 
L 689.57578 485.186984 
L 690.797179 432.174907 
L 692.194787 460.006352 
L 693.331361 534.3101 
L 694.370393 393.430792 
L 695.633426 492.818688 
L 696.738378 530.915706 
L 698.186418 466.7251 
L 699.451621 439.817684 
L 701.022324 481.265762 
L 702.294473 493.965985 
L 703.524719 488.551819 
L 704.789528 493.043456 
L 705.877632 467.079941 
L 707.28051 460.730956 
L 708.232619 440.535528 
L 709.494642 546.100339 
L 710.910016 414.804758 
L 712.056023 476.469632 
L 713.366673 498.635242 
L 714.789981 463.489669 
L 716.189204 508.401746 
L 717.353364 479.221157 
L 718.751451 508.284246 
L 719.917934 421.782706 
L 721.197981 547.604501 
L 722.373229 480.859803 
L 723.422737 460.24565 
L 724.820445 460.020228 
L 726.101585 442.468488 
L 727.276688 480.838725 
L 729.625702 480.689113 
L 730.791225 537.256169 
L 732.082804 444.169581 
L 733.1331 460.390034 
L 734.414457 495.108207 
L 735.580813 479.548202 
L 736.689868 409.814093 
L 738.028893 451.566295 
L 739.460702 511.690772 
L 740.490757 456.606912 
L 741.790095 445.416026 
L 742.99371 484.915044 
L 744.197724 484.970715 
L 745.343269 476.39854 
L 746.480944 475.177401 
L 748.018961 477.617822 
L 749.300385 547.71764 
L 751.982697 421.776434 
L 753.265697 495.310253 
L 754.431089 479.404827 
L 755.841213 509.518918 
L 757.12366 495.242252 
L 758.522549 411.99879 
L 759.688286 537.277367 
L 760.853139 421.459185 
L 762.372698 519.84635 
L 763.417759 394.927678 
L 764.583903 479.51664 
L 765.86658 495.270558 
L 767.031731 479.368953 
L 768.207788 538.292194 
L 769.373254 421.580922 
L 770.537769 479.274116 
L 771.820362 442.707015 
L 772.9857 537.237759 
L 774.267031 495.105024 
L 774.267031 495.105024 
" clip-path="url(#pb55c443962)" style="fill: none; stroke: #ff7f0e; stroke-width: 1.5; stroke-linecap: square"/>
   </g>
   <g id="line2d_17">
    <path d="M 79.95 476.073972 
L 808.9875 476.073972 
" clip-path="url(#pb55c443962)" style="fill: none; stroke-dasharray: 5.55,2.4; stroke-dashoffset: 0; stroke: #ffa500; stroke-width: 1.5"/>
   </g>
   <g id="patch_3">
    <path d="M 79.95 652.92 
L 79.95 46.96 
" style="fill: none; stroke: #000000; stroke-width: 0.8; stroke-linejoin: miter; stroke-linecap: square"/>
   </g>
   <g id="patch_4">
    <path d="M 808.9875 652.92 
L 808.9875 46.96 
" style="fill: none; stroke: #000000; stroke-width: 0.8; stroke-linejoin: miter; stroke-linecap: square"/>
   </g>
   <g id="patch_5">
    <path d="M 79.95 652.92 
L 808.9875 652.92 
" style="fill: none; stroke: #000000; stroke-width: 0.8; stroke-linejoin: miter; stroke-linecap: square"/>
   </g>
   <g id="patch_6">
    <path d="M 79.95 46.96 
L 808.9875 46.96 
" style="fill: none; stroke: #000000; stroke-width: 0.8; stroke-linejoin: miter; stroke-linecap: square"/>
   </g>
   <g id="text_16">
    <!-- Observed and Filtered Packet Rates -->
    <g transform="translate(295.346437 40.96) scale(0.168 -0.168)">
     <defs>
      <path id="DejaVuSans-4f" d="M 2522 4238 
Q 1834 4238 1429 3725 
Q 1025 3213 1025 2328 
Q 1025 1447 1429 934 
Q 1834 422 2522 422 
Q 3209 422 3611 934 
Q 4013 1447 4013 2328 
Q 4013 3213 3611 3725 
Q 3209 4238 2522 4238 
z
M 2522 4750 
Q 3503 4750 4090 4092 
Q 4678 3434 4678 2328 
Q 4678 1225 4090 567 
Q 3503 -91 2522 -91 
Q 1538 -91 948 565 
Q 359 1222 359 2328 
Q 359 3434 948 4092 
Q 1538 4750 2522 4750 
z
" transform="scale(0.015625)"/>
      <path id="DejaVuSans-62" d="M 3116 1747 
Q 3116 2381 2855 2742 
Q 2594 3103 2138 3103 
Q 1681 3103 1420 2742 
Q 1159 2381 1159 1747 
Q 1159 1113 1420 752 
Q 1681 391 2138 391 
Q 2594 391 2855 752 
Q 3116 1113 3116 1747 
z
M 1159 2969 
Q 1341 3281 1617 3432 
Q 1894 3584 2278 3584 
Q 2916 3584 3314 3078 
Q 3713 2572 3713 1747 
Q 3713 922 3314 415 
Q 2916 -91 2278 -91 
Q 1894 -91 1617 61 
Q 1341 213 1159 525 
L 1159 0 
L 581 0 
L 581 4863 
L 1159 4863 
L 1159 2969 
z
" transform="scale(0.015625)"/>
      <path id="DejaVuSans-76" d="M 191 3500 
L 800 3500 
L 1894 563 
L 2988 3500 
L 3597 3500 
L 2284 0 
L 1503 0 
L 191 3500 
z
" transform="scale(0.015625)"/>
      <path id="DejaVuSans-46" d="M 628 4666 
L 3309 4666 
L 3309 4134 
L 1259 4134 
L 1259 2759 
L 3109 2759 
L 3109 2228 
L 1259 2228 
L 1259 0 
L 628 0 
L 628 4666 
z
" transform="scale(0.015625)"/>
      <path id="DejaVuSans-6c" d="M 603 4863 
L 1178 4863 
L 1178 0 
L 603 0 
L 603 4863 
z
" transform="scale(0.015625)"/>
      <path id="DejaVuSans-52" d="M 2841 2188 
Q 3044 2119 3236 1894 
Q 3428 1669 3622 1275 
L 4263 0 
L 3584 0 
L 2988 1197 
Q 2756 1666 2539 1819 
Q 2322 1972 1947 1972 
L 1259 1972 
L 1259 0 
L 628 0 
L 628 4666 
L 2053 4666 
Q 2853 4666 3247 4331 
Q 3641 3997 3641 3322 
Q 3641 2881 3436 2590 
Q 3231 2300 2841 2188 
z
M 1259 4147 
L 1259 2491 
L 2053 2491 
Q 2509 2491 2742 2702 
Q 2975 2913 2975 3322 
Q 2975 3731 2742 3939 
Q 2509 4147 2053 4147 
L 1259 4147 
z
" transform="scale(0.015625)"/>
     </defs>
     <use xlink:href="#DejaVuSans-4f"/>
     <use xlink:href="#DejaVuSans-62" x="78.710938"/>
     <use xlink:href="#DejaVuSans-73" x="142.1875"/>
     <use xlink:href="#DejaVuSans-65" x="194.287109"/>
     <use xlink:href="#DejaVuSans-72" x="255.810547"/>
     <use xlink:href="#DejaVuSans-76" x="296.923828"/>
     <use xlink:href="#DejaVuSans-65" x="356.103516"/>
     <use xlink:href="#DejaVuSans-64" x="417.626953"/>
     <use xlink:href="#DejaVuSans-20" x="481.103516"/>
     <use xlink:href="#DejaVuSans-61" x="512.890625"/>
     <use xlink:href="#DejaVuSans-6e" x="574.169922"/>
     <use xlink:href="#DejaVuSans-64" x="637.548828"/>
     <use xlink:href="#DejaVuSans-20" x="701.025391"/>
     <use xlink:href="#DejaVuSans-46" x="732.8125"/>
     <use xlink:href="#DejaVuSans-69" x="783.082031"/>
     <use xlink:href="#DejaVuSans-6c" x="810.865234"/>
     <use xlink:href="#DejaVuSans-74" x="838.648438"/>
     <use xlink:href="#DejaVuSans-65" x="877.857422"/>
     <use xlink:href="#DejaVuSans-72" x="939.380859"/>
     <use xlink:href="#DejaVuSans-65" x="978.244141"/>
     <use xlink:href="#DejaVuSans-64" x="1039.767578"/>
     <use xlink:href="#DejaVuSans-20" x="1103.244141"/>
     <use xlink:href="#DejaVuSans-50" x="1135.03125"/>
     <use xlink:href="#DejaVuSans-61" x="1190.833984"/>
     <use xlink:href="#DejaVuSans-63" x="1252.113281"/>
     <use xlink:href="#DejaVuSans-6b" x="1307.09375"/>
     <use xlink:href="#DejaVuSans-65" x="1361.378906"/>
     <use xlink:href="#DejaVuSans-74" x="1422.902344"/>
     <use xlink:href="#DejaVuSans-20" x="1462.111328"/>
     <use xlink:href="#DejaVuSans-52" x="1493.898438"/>
     <use xlink:href="#DejaVuSans-61" x="1561.130859"/>
     <use xlink:href="#DejaVuSans-74" x="1622.410156"/>
     <use xlink:href="#DejaVuSans-65" x="1661.619141"/>
     <use xlink:href="#DejaVuSans-73" x="1723.142578"/>
    </g>
   </g>
   <g id="legend_1">
    <g id="patch_7">
     <path d="M 818.7875 393.13875 
L 1085.623125 393.13875 
Q 1088.423125 393.13875 1088.423125 390.33875 
L 1088.423125 309.54125 
Q 1088.423125 306.74125 1085.623125 306.74125 
L 818.7875 306.74125 
Q 815.9875 306.74125 815.9875 309.54125 
L 815.9875 390.33875 
Q 815.9875 393.13875 818.7875 393.13875 
z
" style="fill: #ffffff; opacity: 0.8; stroke: #cccccc; stroke-linejoin: miter"/>
    </g>
    <g id="line2d_18">
     <path d="M 821.5875 318.079062 
L 835.5875 318.079062 
L 849.5875 318.079062 
" style="fill: none; stroke: #1f77b4; stroke-width: 1.5; stroke-linecap: square"/>
    </g>
    <g id="text_17">
     <!-- Filtered packets Cam 1 -->
     <g transform="translate(860.7875 322.979062) scale(0.14 -0.14)">
      <defs>
       <path id="DejaVuSans-43" d="M 4122 4306 
L 4122 3641 
Q 3803 3938 3442 4084 
Q 3081 4231 2675 4231 
Q 1875 4231 1450 3742 
Q 1025 3253 1025 2328 
Q 1025 1406 1450 917 
Q 1875 428 2675 428 
Q 3081 428 3442 575 
Q 3803 722 4122 1019 
L 4122 359 
Q 3791 134 3420 21 
Q 3050 -91 2638 -91 
Q 1578 -91 968 557 
Q 359 1206 359 2328 
Q 359 3453 968 4101 
Q 1578 4750 2638 4750 
Q 3056 4750 3426 4639 
Q 3797 4528 4122 4306 
z
" transform="scale(0.015625)"/>
      </defs>
      <use xlink:href="#DejaVuSans-46"/>
      <use xlink:href="#DejaVuSans-69" x="50.269531"/>
      <use xlink:href="#DejaVuSans-6c" x="78.052734"/>
      <use xlink:href="#DejaVuSans-74" x="105.835938"/>
      <use xlink:href="#DejaVuSans-65" x="145.044922"/>
      <use xlink:href="#DejaVuSans-72" x="206.568359"/>
      <use xlink:href="#DejaVuSans-65" x="245.431641"/>
      <use xlink:href="#DejaVuSans-64" x="306.955078"/>
      <use xlink:href="#DejaVuSans-20" x="370.431641"/>
      <use xlink:href="#DejaVuSans-70" x="402.21875"/>
      <use xlink:href="#DejaVuSans-61" x="465.695312"/>
      <use xlink:href="#DejaVuSans-63" x="526.974609"/>
      <use xlink:href="#DejaVuSans-6b" x="581.955078"/>
      <use xlink:href="#DejaVuSans-65" x="636.240234"/>
      <use xlink:href="#DejaVuSans-74" x="697.763672"/>
      <use xlink:href="#DejaVuSans-73" x="736.972656"/>
      <use xlink:href="#DejaVuSans-20" x="789.072266"/>
      <use xlink:href="#DejaVuSans-43" x="820.859375"/>
      <use xlink:href="#DejaVuSans-61" x="890.683594"/>
      <use xlink:href="#DejaVuSans-6d" x="951.962891"/>
      <use xlink:href="#DejaVuSans-20" x="1049.375"/>
      <use xlink:href="#DejaVuSans-31" x="1081.162109"/>
     </g>
    </g>
    <g id="line2d_19">
     <path d="M 821.5875 338.628437 
L 835.5875 338.628437 
L 849.5875 338.628437 
" style="fill: none; stroke-dasharray: 5.55,2.4; stroke-dashoffset: 0; stroke: #0000ff; stroke-width: 1.5"/>
    </g>
    <g id="text_18">
     <!-- Filtered packets Cam 1 average -->
     <g transform="translate(860.7875 343.528437) scale(0.14 -0.14)">
      <defs>
       <path id="DejaVuSans-67" d="M 2906 1791 
Q 2906 2416 2648 2759 
Q 2391 3103 1925 3103 
Q 1463 3103 1205 2759 
Q 947 2416 947 1791 
Q 947 1169 1205 825 
Q 1463 481 1925 481 
Q 2391 481 2648 825 
Q 2906 1169 2906 1791 
z
M 3481 434 
Q 3481 -459 3084 -895 
Q 2688 -1331 1869 -1331 
Q 1566 -1331 1297 -1286 
Q 1028 -1241 775 -1147 
L 775 -588 
Q 1028 -725 1275 -790 
Q 1522 -856 1778 -856 
Q 2344 -856 2625 -561 
Q 2906 -266 2906 331 
L 2906 616 
Q 2728 306 2450 153 
Q 2172 0 1784 0 
Q 1141 0 747 490 
Q 353 981 353 1791 
Q 353 2603 747 3093 
Q 1141 3584 1784 3584 
Q 2172 3584 2450 3431 
Q 2728 3278 2906 2969 
L 2906 3500 
L 3481 3500 
L 3481 434 
z
" transform="scale(0.015625)"/>
      </defs>
      <use xlink:href="#DejaVuSans-46"/>
      <use xlink:href="#DejaVuSans-69" x="50.269531"/>
      <use xlink:href="#DejaVuSans-6c" x="78.052734"/>
      <use xlink:href="#DejaVuSans-74" x="105.835938"/>
      <use xlink:href="#DejaVuSans-65" x="145.044922"/>
      <use xlink:href="#DejaVuSans-72" x="206.568359"/>
      <use xlink:href="#DejaVuSans-65" x="245.431641"/>
      <use xlink:href="#DejaVuSans-64" x="306.955078"/>
      <use xlink:href="#DejaVuSans-20" x="370.431641"/>
      <use xlink:href="#DejaVuSans-70" x="402.21875"/>
      <use xlink:href="#DejaVuSans-61" x="465.695312"/>
      <use xlink:href="#DejaVuSans-63" x="526.974609"/>
      <use xlink:href="#DejaVuSans-6b" x="581.955078"/>
      <use xlink:href="#DejaVuSans-65" x="636.240234"/>
      <use xlink:href="#DejaVuSans-74" x="697.763672"/>
      <use xlink:href="#DejaVuSans-73" x="736.972656"/>
      <use xlink:href="#DejaVuSans-20" x="789.072266"/>
      <use xlink:href="#DejaVuSans-43" x="820.859375"/>
      <use xlink:href="#DejaVuSans-61" x="890.683594"/>
      <use xlink:href="#DejaVuSans-6d" x="951.962891"/>
      <use xlink:href="#DejaVuSans-20" x="1049.375"/>
      <use xlink:href="#DejaVuSans-31" x="1081.162109"/>
      <use xlink:href="#DejaVuSans-20" x="1144.785156"/>
      <use xlink:href="#DejaVuSans-61" x="1176.572266"/>
      <use xlink:href="#DejaVuSans-76" x="1237.851562"/>
      <use xlink:href="#DejaVuSans-65" x="1297.03125"/>
      <use xlink:href="#DejaVuSans-72" x="1358.554688"/>
      <use xlink:href="#DejaVuSans-61" x="1399.667969"/>
      <use xlink:href="#DejaVuSans-67" x="1460.947266"/>
      <use xlink:href="#DejaVuSans-65" x="1524.423828"/>
     </g>
    </g>
    <g id="line2d_20">
     <path d="M 821.5875 359.177812 
L 835.5875 359.177812 
L 849.5875 359.177812 
" style="fill: none; stroke: #ff7f0e; stroke-width: 1.5; stroke-linecap: square"/>
    </g>
    <g id="text_19">
     <!-- Filtered packets Cam 2 -->
     <g transform="translate(860.7875 364.077812) scale(0.14 -0.14)">
      <use xlink:href="#DejaVuSans-46"/>
      <use xlink:href="#DejaVuSans-69" x="50.269531"/>
      <use xlink:href="#DejaVuSans-6c" x="78.052734"/>
      <use xlink:href="#DejaVuSans-74" x="105.835938"/>
      <use xlink:href="#DejaVuSans-65" x="145.044922"/>
      <use xlink:href="#DejaVuSans-72" x="206.568359"/>
      <use xlink:href="#DejaVuSans-65" x="245.431641"/>
      <use xlink:href="#DejaVuSans-64" x="306.955078"/>
      <use xlink:href="#DejaVuSans-20" x="370.431641"/>
      <use xlink:href="#DejaVuSans-70" x="402.21875"/>
      <use xlink:href="#DejaVuSans-61" x="465.695312"/>
      <use xlink:href="#DejaVuSans-63" x="526.974609"/>
      <use xlink:href="#DejaVuSans-6b" x="581.955078"/>
      <use xlink:href="#DejaVuSans-65" x="636.240234"/>
      <use xlink:href="#DejaVuSans-74" x="697.763672"/>
      <use xlink:href="#DejaVuSans-73" x="736.972656"/>
      <use xlink:href="#DejaVuSans-20" x="789.072266"/>
      <use xlink:href="#DejaVuSans-43" x="820.859375"/>
      <use xlink:href="#DejaVuSans-61" x="890.683594"/>
      <use xlink:href="#DejaVuSans-6d" x="951.962891"/>
      <use xlink:href="#DejaVuSans-20" x="1049.375"/>
      <use xlink:href="#DejaVuSans-32" x="1081.162109"/>
     </g>
    </g>
    <g id="line2d_21">
     <path d="M 821.5875 379.727187 
L 835.5875 379.727187 
L 849.5875 379.727187 
" style="fill: none; stroke-dasharray: 5.55,2.4; stroke-dashoffset: 0; stroke: #ffa500; stroke-width: 1.5"/>
    </g>
    <g id="text_20">
     <!-- Filtered packets Cam 2 average -->
     <g transform="translate(860.7875 384.627187) scale(0.14 -0.14)">
      <use xlink:href="#DejaVuSans-46"/>
      <use xlink:href="#DejaVuSans-69" x="50.269531"/>
      <use xlink:href="#DejaVuSans-6c" x="78.052734"/>
      <use xlink:href="#DejaVuSans-74" x="105.835938"/>
      <use xlink:href="#DejaVuSans-65" x="145.044922"/>
      <use xlink:href="#DejaVuSans-72" x="206.568359"/>
      <use xlink:href="#DejaVuSans-65" x="245.431641"/>
      <use xlink:href="#DejaVuSans-64" x="306.955078"/>
      <use xlink:href="#DejaVuSans-20" x="370.431641"/>
      <use xlink:href="#DejaVuSans-70" x="402.21875"/>
      <use xlink:href="#DejaVuSans-61" x="465.695312"/>
      <use xlink:href="#DejaVuSans-63" x="526.974609"/>
      <use xlink:href="#DejaVuSans-6b" x="581.955078"/>
      <use xlink:href="#DejaVuSans-65" x="636.240234"/>
      <use xlink:href="#DejaVuSans-74" x="697.763672"/>
      <use xlink:href="#DejaVuSans-73" x="736.972656"/>
      <use xlink:href="#DejaVuSans-20" x="789.072266"/>
      <use xlink:href="#DejaVuSans-43" x="820.859375"/>
      <use xlink:href="#DejaVuSans-61" x="890.683594"/>
      <use xlink:href="#DejaVuSans-6d" x="951.962891"/>
      <use xlink:href="#DejaVuSans-20" x="1049.375"/>
      <use xlink:href="#DejaVuSans-32" x="1081.162109"/>
      <use xlink:href="#DejaVuSans-20" x="1144.785156"/>
      <use xlink:href="#DejaVuSans-61" x="1176.572266"/>
      <use xlink:href="#DejaVuSans-76" x="1237.851562"/>
      <use xlink:href="#DejaVuSans-65" x="1297.03125"/>
      <use xlink:href="#DejaVuSans-72" x="1358.554688"/>
      <use xlink:href="#DejaVuSans-61" x="1399.667969"/>
      <use xlink:href="#DejaVuSans-67" x="1460.947266"/>
      <use xlink:href="#DejaVuSans-65" x="1524.423828"/>
     </g>
    </g>
   </g>
  </g>
 </g>
 <defs>
  <clipPath id="pb55c443962">
   <rect x="79.95" y="46.96" width="729.0375" height="605.96"/>
  </clipPath>
 </defs>
</svg>
