<?xml version="1.0" encoding="utf-8" standalone="no"?>
<!DOCTYPE svg PUBLIC "-//W3C//DTD SVG 1.1//EN"
  "http://www.w3.org/Graphics/SVG/1.1/DTD/svg11.dtd">
<svg xmlns:xlink="http://www.w3.org/1999/xlink" width="1008pt" height="720pt" viewBox="0 0 1008 720" xmlns="http://www.w3.org/2000/svg" version="1.1">
 <metadata>
  <rdf:RDF xmlns:dc="http://purl.org/dc/elements/1.1/" xmlns:cc="http://creativecommons.org/ns#" xmlns:rdf="http://www.w3.org/1999/02/22-rdf-syntax-ns#">
   <cc:Work>
    <dc:type rdf:resource="http://purl.org/dc/dcmitype/StillImage"/>
    <dc:date>2023-04-13T18:30:58.105140</dc:date>
    <dc:format>image/svg+xml</dc:format>
    <dc:creator>
     <cc:Agent>
      <dc:title>Matplotlib v3.6.2, https://matplotlib.org/</dc:title>
     </cc:Agent>
    </dc:creator>
   </cc:Work>
  </rdf:RDF>
 </metadata>
 <defs>
  <style type="text/css">*{stroke-linejoin: round; stroke-linecap: butt}</style>
 </defs>
 <g id="figure_1">
  <g id="patch_1">
   <path d="M 0 720 
L 1008 720 
L 1008 0 
L 0 0 
z
" style="fill: #ffffff"/>
  </g>
  <g id="axes_1">
   <g id="patch_2">
    <path d="M 84.59 639.64 
L 789.718 639.64 
L 789.718 60.96 
L 84.59 60.96 
z
" style="fill: #ffffff"/>
   </g>
   <g id="matplotlib.axis_1">
    <g id="xtick_1">
     <g id="line2d_1">
      <defs>
       <path id="m72fb7fe679" d="M 0 0 
L 0 3.5 
" style="stroke: #000000; stroke-width: 0.8"/>
      </defs>
      <g>
       <use xlink:href="#m72fb7fe679" x="84.59" y="639.64" style="stroke: #000000; stroke-width: 0.8"/>
      </g>
     </g>
     <g id="text_1">
      <!-- 0 -->
      <g transform="translate(80.13625 657.277812) scale(0.14 -0.14)">
       <defs>
        <path id="DejaVuSans-30" d="M 2034 4250 
Q 1547 4250 1301 3770 
Q 1056 3291 1056 2328 
Q 1056 1369 1301 889 
Q 1547 409 2034 409 
Q 2525 409 2770 889 
Q 3016 1369 3016 2328 
Q 3016 3291 2770 3770 
Q 2525 4250 2034 4250 
z
M 2034 4750 
Q 2819 4750 3233 4129 
Q 3647 3509 3647 2328 
Q 3647 1150 3233 529 
Q 2819 -91 2034 -91 
Q 1250 -91 836 529 
Q 422 1150 422 2328 
Q 422 3509 836 4129 
Q 1250 4750 2034 4750 
z
" transform="scale(0.015625)"/>
       </defs>
       <use xlink:href="#DejaVuSans-30"/>
      </g>
     </g>
    </g>
    <g id="xtick_2">
     <g id="line2d_2">
      <g>
       <use xlink:href="#m72fb7fe679" x="176.382028" y="639.64" style="stroke: #000000; stroke-width: 0.8"/>
      </g>
     </g>
     <g id="text_2">
      <!-- 250 -->
      <g transform="translate(163.020778 657.277812) scale(0.14 -0.14)">
       <defs>
        <path id="DejaVuSans-32" d="M 1228 531 
L 3431 531 
L 3431 0 
L 469 0 
L 469 531 
Q 828 903 1448 1529 
Q 2069 2156 2228 2338 
Q 2531 2678 2651 2914 
Q 2772 3150 2772 3378 
Q 2772 3750 2511 3984 
Q 2250 4219 1831 4219 
Q 1534 4219 1204 4116 
Q 875 4013 500 3803 
L 500 4441 
Q 881 4594 1212 4672 
Q 1544 4750 1819 4750 
Q 2544 4750 2975 4387 
Q 3406 4025 3406 3419 
Q 3406 3131 3298 2873 
Q 3191 2616 2906 2266 
Q 2828 2175 2409 1742 
Q 1991 1309 1228 531 
z
" transform="scale(0.015625)"/>
        <path id="DejaVuSans-35" d="M 691 4666 
L 3169 4666 
L 3169 4134 
L 1269 4134 
L 1269 2991 
Q 1406 3038 1543 3061 
Q 1681 3084 1819 3084 
Q 2600 3084 3056 2656 
Q 3513 2228 3513 1497 
Q 3513 744 3044 326 
Q 2575 -91 1722 -91 
Q 1428 -91 1123 -41 
Q 819 9 494 109 
L 494 744 
Q 775 591 1075 516 
Q 1375 441 1709 441 
Q 2250 441 2565 725 
Q 2881 1009 2881 1497 
Q 2881 1984 2565 2268 
Q 2250 2553 1709 2553 
Q 1456 2553 1204 2497 
Q 953 2441 691 2322 
L 691 4666 
z
" transform="scale(0.015625)"/>
       </defs>
       <use xlink:href="#DejaVuSans-32"/>
       <use xlink:href="#DejaVuSans-35" x="63.623047"/>
       <use xlink:href="#DejaVuSans-30" x="127.246094"/>
      </g>
     </g>
    </g>
    <g id="xtick_3">
     <g id="line2d_3">
      <g>
       <use xlink:href="#m72fb7fe679" x="268.174056" y="639.64" style="stroke: #000000; stroke-width: 0.8"/>
      </g>
     </g>
     <g id="text_3">
      <!-- 500 -->
      <g transform="translate(254.812806 657.277812) scale(0.14 -0.14)">
       <use xlink:href="#DejaVuSans-35"/>
       <use xlink:href="#DejaVuSans-30" x="63.623047"/>
       <use xlink:href="#DejaVuSans-30" x="127.246094"/>
      </g>
     </g>
    </g>
    <g id="xtick_4">
     <g id="line2d_4">
      <g>
       <use xlink:href="#m72fb7fe679" x="359.966084" y="639.64" style="stroke: #000000; stroke-width: 0.8"/>
      </g>
     </g>
     <g id="text_4">
      <!-- 750 -->
      <g transform="translate(346.604834 657.277812) scale(0.14 -0.14)">
       <defs>
        <path id="DejaVuSans-37" d="M 525 4666 
L 3525 4666 
L 3525 4397 
L 1831 0 
L 1172 0 
L 2766 4134 
L 525 4134 
L 525 4666 
z
" transform="scale(0.015625)"/>
       </defs>
       <use xlink:href="#DejaVuSans-37"/>
       <use xlink:href="#DejaVuSans-35" x="63.623047"/>
       <use xlink:href="#DejaVuSans-30" x="127.246094"/>
      </g>
     </g>
    </g>
    <g id="xtick_5">
     <g id="line2d_5">
      <g>
       <use xlink:href="#m72fb7fe679" x="451.758112" y="639.64" style="stroke: #000000; stroke-width: 0.8"/>
      </g>
     </g>
     <g id="text_5">
      <!-- 1000 -->
      <g transform="translate(433.943112 657.277812) scale(0.14 -0.14)">
       <defs>
        <path id="DejaVuSans-31" d="M 794 531 
L 1825 531 
L 1825 4091 
L 703 3866 
L 703 4441 
L 1819 4666 
L 2450 4666 
L 2450 531 
L 3481 531 
L 3481 0 
L 794 0 
L 794 531 
z
" transform="scale(0.015625)"/>
       </defs>
       <use xlink:href="#DejaVuSans-31"/>
       <use xlink:href="#DejaVuSans-30" x="63.623047"/>
       <use xlink:href="#DejaVuSans-30" x="127.246094"/>
       <use xlink:href="#DejaVuSans-30" x="190.869141"/>
      </g>
     </g>
    </g>
    <g id="xtick_6">
     <g id="line2d_6">
      <g>
       <use xlink:href="#m72fb7fe679" x="543.55014" y="639.64" style="stroke: #000000; stroke-width: 0.8"/>
      </g>
     </g>
     <g id="text_6">
      <!-- 1250 -->
      <g transform="translate(525.73514 657.277812) scale(0.14 -0.14)">
       <use xlink:href="#DejaVuSans-31"/>
       <use xlink:href="#DejaVuSans-32" x="63.623047"/>
       <use xlink:href="#DejaVuSans-35" x="127.246094"/>
       <use xlink:href="#DejaVuSans-30" x="190.869141"/>
      </g>
     </g>
    </g>
    <g id="xtick_7">
     <g id="line2d_7">
      <g>
       <use xlink:href="#m72fb7fe679" x="635.342167" y="639.64" style="stroke: #000000; stroke-width: 0.8"/>
      </g>
     </g>
     <g id="text_7">
      <!-- 1500 -->
      <g transform="translate(617.527167 657.277812) scale(0.14 -0.14)">
       <use xlink:href="#DejaVuSans-31"/>
       <use xlink:href="#DejaVuSans-35" x="63.623047"/>
       <use xlink:href="#DejaVuSans-30" x="127.246094"/>
       <use xlink:href="#DejaVuSans-30" x="190.869141"/>
      </g>
     </g>
    </g>
    <g id="xtick_8">
     <g id="line2d_8">
      <g>
       <use xlink:href="#m72fb7fe679" x="727.134195" y="639.64" style="stroke: #000000; stroke-width: 0.8"/>
      </g>
     </g>
     <g id="text_8">
      <!-- 1750 -->
      <g transform="translate(709.319195 657.277812) scale(0.14 -0.14)">
       <use xlink:href="#DejaVuSans-31"/>
       <use xlink:href="#DejaVuSans-37" x="63.623047"/>
       <use xlink:href="#DejaVuSans-35" x="127.246094"/>
       <use xlink:href="#DejaVuSans-30" x="190.869141"/>
      </g>
     </g>
    </g>
    <g id="text_9">
     <!-- Packet Number -->
     <g transform="translate(383.913531 674.827188) scale(0.14 -0.14)">
      <defs>
       <path id="DejaVuSans-50" d="M 1259 4147 
L 1259 2394 
L 2053 2394 
Q 2494 2394 2734 2622 
Q 2975 2850 2975 3272 
Q 2975 3691 2734 3919 
Q 2494 4147 2053 4147 
L 1259 4147 
z
M 628 4666 
L 2053 4666 
Q 2838 4666 3239 4311 
Q 3641 3956 3641 3272 
Q 3641 2581 3239 2228 
Q 2838 1875 2053 1875 
L 1259 1875 
L 1259 0 
L 628 0 
L 628 4666 
z
" transform="scale(0.015625)"/>
       <path id="DejaVuSans-61" d="M 2194 1759 
Q 1497 1759 1228 1600 
Q 959 1441 959 1056 
Q 959 750 1161 570 
Q 1363 391 1709 391 
Q 2188 391 2477 730 
Q 2766 1069 2766 1631 
L 2766 1759 
L 2194 1759 
z
M 3341 1997 
L 3341 0 
L 2766 0 
L 2766 531 
Q 2569 213 2275 61 
Q 1981 -91 1556 -91 
Q 1019 -91 701 211 
Q 384 513 384 1019 
Q 384 1609 779 1909 
Q 1175 2209 1959 2209 
L 2766 2209 
L 2766 2266 
Q 2766 2663 2505 2880 
Q 2244 3097 1772 3097 
Q 1472 3097 1187 3025 
Q 903 2953 641 2809 
L 641 3341 
Q 956 3463 1253 3523 
Q 1550 3584 1831 3584 
Q 2591 3584 2966 3190 
Q 3341 2797 3341 1997 
z
" transform="scale(0.015625)"/>
       <path id="DejaVuSans-63" d="M 3122 3366 
L 3122 2828 
Q 2878 2963 2633 3030 
Q 2388 3097 2138 3097 
Q 1578 3097 1268 2742 
Q 959 2388 959 1747 
Q 959 1106 1268 751 
Q 1578 397 2138 397 
Q 2388 397 2633 464 
Q 2878 531 3122 666 
L 3122 134 
Q 2881 22 2623 -34 
Q 2366 -91 2075 -91 
Q 1284 -91 818 406 
Q 353 903 353 1747 
Q 353 2603 823 3093 
Q 1294 3584 2113 3584 
Q 2378 3584 2631 3529 
Q 2884 3475 3122 3366 
z
" transform="scale(0.015625)"/>
       <path id="DejaVuSans-6b" d="M 581 4863 
L 1159 4863 
L 1159 1991 
L 2875 3500 
L 3609 3500 
L 1753 1863 
L 3688 0 
L 2938 0 
L 1159 1709 
L 1159 0 
L 581 0 
L 581 4863 
z
" transform="scale(0.015625)"/>
       <path id="DejaVuSans-65" d="M 3597 1894 
L 3597 1613 
L 953 1613 
Q 991 1019 1311 708 
Q 1631 397 2203 397 
Q 2534 397 2845 478 
Q 3156 559 3463 722 
L 3463 178 
Q 3153 47 2828 -22 
Q 2503 -91 2169 -91 
Q 1331 -91 842 396 
Q 353 884 353 1716 
Q 353 2575 817 3079 
Q 1281 3584 2069 3584 
Q 2775 3584 3186 3129 
Q 3597 2675 3597 1894 
z
M 3022 2063 
Q 3016 2534 2758 2815 
Q 2500 3097 2075 3097 
Q 1594 3097 1305 2825 
Q 1016 2553 972 2059 
L 3022 2063 
z
" transform="scale(0.015625)"/>
       <path id="DejaVuSans-74" d="M 1172 4494 
L 1172 3500 
L 2356 3500 
L 2356 3053 
L 1172 3053 
L 1172 1153 
Q 1172 725 1289 603 
Q 1406 481 1766 481 
L 2356 481 
L 2356 0 
L 1766 0 
Q 1100 0 847 248 
Q 594 497 594 1153 
L 594 3053 
L 172 3053 
L 172 3500 
L 594 3500 
L 594 4494 
L 1172 4494 
z
" transform="scale(0.015625)"/>
       <path id="DejaVuSans-20" transform="scale(0.015625)"/>
       <path id="DejaVuSans-4e" d="M 628 4666 
L 1478 4666 
L 3547 763 
L 3547 4666 
L 4159 4666 
L 4159 0 
L 3309 0 
L 1241 3903 
L 1241 0 
L 628 0 
L 628 4666 
z
" transform="scale(0.015625)"/>
       <path id="DejaVuSans-75" d="M 544 1381 
L 544 3500 
L 1119 3500 
L 1119 1403 
Q 1119 906 1312 657 
Q 1506 409 1894 409 
Q 2359 409 2629 706 
Q 2900 1003 2900 1516 
L 2900 3500 
L 3475 3500 
L 3475 0 
L 2900 0 
L 2900 538 
Q 2691 219 2414 64 
Q 2138 -91 1772 -91 
Q 1169 -91 856 284 
Q 544 659 544 1381 
z
M 1991 3584 
L 1991 3584 
z
" transform="scale(0.015625)"/>
       <path id="DejaVuSans-6d" d="M 3328 2828 
Q 3544 3216 3844 3400 
Q 4144 3584 4550 3584 
Q 5097 3584 5394 3201 
Q 5691 2819 5691 2113 
L 5691 0 
L 5113 0 
L 5113 2094 
Q 5113 2597 4934 2840 
Q 4756 3084 4391 3084 
Q 3944 3084 3684 2787 
Q 3425 2491 3425 1978 
L 3425 0 
L 2847 0 
L 2847 2094 
Q 2847 2600 2669 2842 
Q 2491 3084 2119 3084 
Q 1678 3084 1418 2786 
Q 1159 2488 1159 1978 
L 1159 0 
L 581 0 
L 581 3500 
L 1159 3500 
L 1159 2956 
Q 1356 3278 1631 3431 
Q 1906 3584 2284 3584 
Q 2666 3584 2933 3390 
Q 3200 3197 3328 2828 
z
" transform="scale(0.015625)"/>
       <path id="DejaVuSans-62" d="M 3116 1747 
Q 3116 2381 2855 2742 
Q 2594 3103 2138 3103 
Q 1681 3103 1420 2742 
Q 1159 2381 1159 1747 
Q 1159 1113 1420 752 
Q 1681 391 2138 391 
Q 2594 391 2855 752 
Q 3116 1113 3116 1747 
z
M 1159 2969 
Q 1341 3281 1617 3432 
Q 1894 3584 2278 3584 
Q 2916 3584 3314 3078 
Q 3713 2572 3713 1747 
Q 3713 922 3314 415 
Q 2916 -91 2278 -91 
Q 1894 -91 1617 61 
Q 1341 213 1159 525 
L 1159 0 
L 581 0 
L 581 4863 
L 1159 4863 
L 1159 2969 
z
" transform="scale(0.015625)"/>
       <path id="DejaVuSans-72" d="M 2631 2963 
Q 2534 3019 2420 3045 
Q 2306 3072 2169 3072 
Q 1681 3072 1420 2755 
Q 1159 2438 1159 1844 
L 1159 0 
L 581 0 
L 581 3500 
L 1159 3500 
L 1159 2956 
Q 1341 3275 1631 3429 
Q 1922 3584 2338 3584 
Q 2397 3584 2469 3576 
Q 2541 3569 2628 3553 
L 2631 2963 
z
" transform="scale(0.015625)"/>
      </defs>
      <use xlink:href="#DejaVuSans-50"/>
      <use xlink:href="#DejaVuSans-61" x="55.802734"/>
      <use xlink:href="#DejaVuSans-63" x="117.082031"/>
      <use xlink:href="#DejaVuSans-6b" x="172.0625"/>
      <use xlink:href="#DejaVuSans-65" x="226.347656"/>
      <use xlink:href="#DejaVuSans-74" x="287.871094"/>
      <use xlink:href="#DejaVuSans-20" x="327.080078"/>
      <use xlink:href="#DejaVuSans-4e" x="358.867188"/>
      <use xlink:href="#DejaVuSans-75" x="433.671875"/>
      <use xlink:href="#DejaVuSans-6d" x="497.050781"/>
      <use xlink:href="#DejaVuSans-62" x="594.462891"/>
      <use xlink:href="#DejaVuSans-65" x="657.939453"/>
      <use xlink:href="#DejaVuSans-72" x="719.462891"/>
     </g>
    </g>
   </g>
   <g id="matplotlib.axis_2">
    <g id="ytick_1">
     <g id="line2d_9">
      <defs>
       <path id="m84e227291a" d="M 0 0 
L -3.5 0 
" style="stroke: #000000; stroke-width: 0.8"/>
      </defs>
      <g>
       <use xlink:href="#m84e227291a" x="84.59" y="639.64" style="stroke: #000000; stroke-width: 0.8"/>
      </g>
     </g>
     <g id="text_10">
      <!-- 0 -->
      <g transform="translate(68.6825 644.958906) scale(0.14 -0.14)">
       <use xlink:href="#DejaVuSans-30"/>
      </g>
     </g>
    </g>
    <g id="ytick_2">
     <g id="line2d_10">
      <g>
       <use xlink:href="#m84e227291a" x="84.59" y="557.070877" style="stroke: #000000; stroke-width: 0.8"/>
      </g>
     </g>
     <g id="text_11">
      <!-- 5 -->
      <g transform="translate(68.6825 562.389784) scale(0.14 -0.14)">
       <use xlink:href="#DejaVuSans-35"/>
      </g>
     </g>
    </g>
    <g id="ytick_3">
     <g id="line2d_11">
      <g>
       <use xlink:href="#m84e227291a" x="84.59" y="474.501755" style="stroke: #000000; stroke-width: 0.8"/>
      </g>
     </g>
     <g id="text_12">
      <!-- 10 -->
      <g transform="translate(59.775 479.820661) scale(0.14 -0.14)">
       <use xlink:href="#DejaVuSans-31"/>
       <use xlink:href="#DejaVuSans-30" x="63.623047"/>
      </g>
     </g>
    </g>
    <g id="ytick_4">
     <g id="line2d_12">
      <g>
       <use xlink:href="#m84e227291a" x="84.59" y="391.932632" style="stroke: #000000; stroke-width: 0.8"/>
      </g>
     </g>
     <g id="text_13">
      <!-- 15 -->
      <g transform="translate(59.775 397.251538) scale(0.14 -0.14)">
       <use xlink:href="#DejaVuSans-31"/>
       <use xlink:href="#DejaVuSans-35" x="63.623047"/>
      </g>
     </g>
    </g>
    <g id="ytick_5">
     <g id="line2d_13">
      <g>
       <use xlink:href="#m84e227291a" x="84.59" y="309.363509" style="stroke: #000000; stroke-width: 0.8"/>
      </g>
     </g>
     <g id="text_14">
      <!-- 20 -->
      <g transform="translate(59.775 314.682415) scale(0.14 -0.14)">
       <use xlink:href="#DejaVuSans-32"/>
       <use xlink:href="#DejaVuSans-30" x="63.623047"/>
      </g>
     </g>
    </g>
    <g id="ytick_6">
     <g id="line2d_14">
      <g>
       <use xlink:href="#m84e227291a" x="84.59" y="226.794386" style="stroke: #000000; stroke-width: 0.8"/>
      </g>
     </g>
     <g id="text_15">
      <!-- 25 -->
      <g transform="translate(59.775 232.113293) scale(0.14 -0.14)">
       <use xlink:href="#DejaVuSans-32"/>
       <use xlink:href="#DejaVuSans-35" x="63.623047"/>
      </g>
     </g>
    </g>
    <g id="ytick_7">
     <g id="line2d_15">
      <g>
       <use xlink:href="#m84e227291a" x="84.59" y="144.225264" style="stroke: #000000; stroke-width: 0.8"/>
      </g>
     </g>
     <g id="text_16">
      <!-- 30 -->
      <g transform="translate(59.775 149.54417) scale(0.14 -0.14)">
       <defs>
        <path id="DejaVuSans-33" d="M 2597 2516 
Q 3050 2419 3304 2112 
Q 3559 1806 3559 1356 
Q 3559 666 3084 287 
Q 2609 -91 1734 -91 
Q 1441 -91 1130 -33 
Q 819 25 488 141 
L 488 750 
Q 750 597 1062 519 
Q 1375 441 1716 441 
Q 2309 441 2620 675 
Q 2931 909 2931 1356 
Q 2931 1769 2642 2001 
Q 2353 2234 1838 2234 
L 1294 2234 
L 1294 2753 
L 1863 2753 
Q 2328 2753 2575 2939 
Q 2822 3125 2822 3475 
Q 2822 3834 2567 4026 
Q 2313 4219 1838 4219 
Q 1578 4219 1281 4162 
Q 984 4106 628 3988 
L 628 4550 
Q 988 4650 1302 4700 
Q 1616 4750 1894 4750 
Q 2613 4750 3031 4423 
Q 3450 4097 3450 3541 
Q 3450 3153 3228 2886 
Q 3006 2619 2597 2516 
z
" transform="scale(0.015625)"/>
       </defs>
       <use xlink:href="#DejaVuSans-33"/>
       <use xlink:href="#DejaVuSans-30" x="63.623047"/>
      </g>
     </g>
    </g>
    <g id="ytick_8">
     <g id="line2d_16">
      <g>
       <use xlink:href="#m84e227291a" x="84.59" y="61.656141" style="stroke: #000000; stroke-width: 0.8"/>
      </g>
     </g>
     <g id="text_17">
      <!-- 35 -->
      <g transform="translate(59.775 66.975047) scale(0.14 -0.14)">
       <use xlink:href="#DejaVuSans-33"/>
       <use xlink:href="#DejaVuSans-35" x="63.623047"/>
      </g>
     </g>
    </g>
    <g id="text_18">
     <!-- Interarrival Time (ms) -->
     <g transform="translate(52.863438 426.478594) rotate(-90) scale(0.14 -0.14)">
      <defs>
       <path id="DejaVuSans-49" d="M 628 4666 
L 1259 4666 
L 1259 0 
L 628 0 
L 628 4666 
z
" transform="scale(0.015625)"/>
       <path id="DejaVuSans-6e" d="M 3513 2113 
L 3513 0 
L 2938 0 
L 2938 2094 
Q 2938 2591 2744 2837 
Q 2550 3084 2163 3084 
Q 1697 3084 1428 2787 
Q 1159 2491 1159 1978 
L 1159 0 
L 581 0 
L 581 3500 
L 1159 3500 
L 1159 2956 
Q 1366 3272 1645 3428 
Q 1925 3584 2291 3584 
Q 2894 3584 3203 3211 
Q 3513 2838 3513 2113 
z
" transform="scale(0.015625)"/>
       <path id="DejaVuSans-69" d="M 603 3500 
L 1178 3500 
L 1178 0 
L 603 0 
L 603 3500 
z
M 603 4863 
L 1178 4863 
L 1178 4134 
L 603 4134 
L 603 4863 
z
" transform="scale(0.015625)"/>
       <path id="DejaVuSans-76" d="M 191 3500 
L 800 3500 
L 1894 563 
L 2988 3500 
L 3597 3500 
L 2284 0 
L 1503 0 
L 191 3500 
z
" transform="scale(0.015625)"/>
       <path id="DejaVuSans-6c" d="M 603 4863 
L 1178 4863 
L 1178 0 
L 603 0 
L 603 4863 
z
" transform="scale(0.015625)"/>
       <path id="DejaVuSans-54" d="M -19 4666 
L 3928 4666 
L 3928 4134 
L 2272 4134 
L 2272 0 
L 1638 0 
L 1638 4134 
L -19 4134 
L -19 4666 
z
" transform="scale(0.015625)"/>
       <path id="DejaVuSans-28" d="M 1984 4856 
Q 1566 4138 1362 3434 
Q 1159 2731 1159 2009 
Q 1159 1288 1364 580 
Q 1569 -128 1984 -844 
L 1484 -844 
Q 1016 -109 783 600 
Q 550 1309 550 2009 
Q 550 2706 781 3412 
Q 1013 4119 1484 4856 
L 1984 4856 
z
" transform="scale(0.015625)"/>
       <path id="DejaVuSans-73" d="M 2834 3397 
L 2834 2853 
Q 2591 2978 2328 3040 
Q 2066 3103 1784 3103 
Q 1356 3103 1142 2972 
Q 928 2841 928 2578 
Q 928 2378 1081 2264 
Q 1234 2150 1697 2047 
L 1894 2003 
Q 2506 1872 2764 1633 
Q 3022 1394 3022 966 
Q 3022 478 2636 193 
Q 2250 -91 1575 -91 
Q 1294 -91 989 -36 
Q 684 19 347 128 
L 347 722 
Q 666 556 975 473 
Q 1284 391 1588 391 
Q 1994 391 2212 530 
Q 2431 669 2431 922 
Q 2431 1156 2273 1281 
Q 2116 1406 1581 1522 
L 1381 1569 
Q 847 1681 609 1914 
Q 372 2147 372 2553 
Q 372 3047 722 3315 
Q 1072 3584 1716 3584 
Q 2034 3584 2315 3537 
Q 2597 3491 2834 3397 
z
" transform="scale(0.015625)"/>
       <path id="DejaVuSans-29" d="M 513 4856 
L 1013 4856 
Q 1481 4119 1714 3412 
Q 1947 2706 1947 2009 
Q 1947 1309 1714 600 
Q 1481 -109 1013 -844 
L 513 -844 
Q 928 -128 1133 580 
Q 1338 1288 1338 2009 
Q 1338 2731 1133 3434 
Q 928 4138 513 4856 
z
" transform="scale(0.015625)"/>
      </defs>
      <use xlink:href="#DejaVuSans-49"/>
      <use xlink:href="#DejaVuSans-6e" x="29.492188"/>
      <use xlink:href="#DejaVuSans-74" x="92.871094"/>
      <use xlink:href="#DejaVuSans-65" x="132.080078"/>
      <use xlink:href="#DejaVuSans-72" x="193.603516"/>
      <use xlink:href="#DejaVuSans-61" x="234.716797"/>
      <use xlink:href="#DejaVuSans-72" x="295.996094"/>
      <use xlink:href="#DejaVuSans-72" x="335.359375"/>
      <use xlink:href="#DejaVuSans-69" x="376.472656"/>
      <use xlink:href="#DejaVuSans-76" x="404.255859"/>
      <use xlink:href="#DejaVuSans-61" x="463.435547"/>
      <use xlink:href="#DejaVuSans-6c" x="524.714844"/>
      <use xlink:href="#DejaVuSans-20" x="552.498047"/>
      <use xlink:href="#DejaVuSans-54" x="584.285156"/>
      <use xlink:href="#DejaVuSans-69" x="642.244141"/>
      <use xlink:href="#DejaVuSans-6d" x="670.027344"/>
      <use xlink:href="#DejaVuSans-65" x="767.439453"/>
      <use xlink:href="#DejaVuSans-20" x="828.962891"/>
      <use xlink:href="#DejaVuSans-28" x="860.75"/>
      <use xlink:href="#DejaVuSans-6d" x="899.763672"/>
      <use xlink:href="#DejaVuSans-73" x="997.175781"/>
      <use xlink:href="#DejaVuSans-29" x="1049.275391"/>
     </g>
    </g>
   </g>
   <g id="line2d_17">
    <path d="M 84.59 88.737839 
L 85.324336 88.921853 
L 86.058672 89.046499 
L 86.425841 88.876819 
L 86.793009 89.250725 
L 87.160177 88.972517 
L 87.894513 88.967596 
L 88.261681 88.720466 
L 88.628849 88.967431 
L 88.996017 88.994001 
L 89.363185 89.231107 
L 90.097522 88.723043 
L 90.46469 89.19301 
L 90.831858 88.63765 
L 91.566194 89.335986 
L 91.933362 88.987247 
L 93.402035 88.991987 
L 94.136371 88.73092 
L 94.503539 88.956119 
L 94.870707 89.351394 
L 95.237875 89.00637 
L 97.073716 88.9779 
L 101.479733 88.941785 
L 101.846901 88.700567 
L 102.214069 88.974102 
L 102.581237 89.045772 
L 102.948406 89.2337 
L 103.315574 88.995389 
L 105.518582 88.99377 
L 108.823095 89.016229 
L 109.190263 88.923801 
L 110.291768 88.989708 
L 110.658936 88.641927 
L 111.026104 89.33957 
L 111.393272 88.972055 
L 112.494776 88.986207 
L 112.861945 88.651009 
L 113.229113 89.074325 
L 113.596281 89.251452 
L 113.963449 88.637253 
L 114.330617 89.363911 
L 114.697785 88.953757 
L 115.799289 88.9978 
L 116.166458 88.623844 
L 116.533626 89.346043 
L 116.900794 88.998939 
L 118.002298 88.983003 
L 118.369466 88.746129 
L 118.736634 89.23403 
L 119.103802 88.98264 
L 120.572475 88.990847 
L 120.939643 88.703408 
L 121.306811 89.280054 
L 121.673979 88.669505 
L 122.408315 89.274803 
L 122.775484 88.997502 
L 123.50982 88.960379 
L 123.876988 88.679149 
L 124.244156 89.097973 
L 124.611324 89.245309 
L 124.978492 88.974416 
L 126.079997 88.984176 
L 126.447165 88.63722 
L 127.181501 89.261278 
L 127.548669 88.663708 
L 127.915837 89.343186 
L 128.283005 88.973409 
L 129.38451 89.038969 
L 129.751678 88.645824 
L 130.118846 89.328258 
L 130.486014 88.656674 
L 130.853182 89.343302 
L 131.22035 88.98951 
L 131.587518 89.002919 
L 131.954686 88.51619 
L 132.321855 89.470508 
L 132.689023 88.971196 
L 134.157695 88.990616 
L 134.524863 88.957935 
L 134.892031 88.731712 
L 135.259199 89.025807 
L 136.360704 88.886249 
L 136.727872 89.074424 
L 137.09504 89.106906 
L 137.829376 88.755129 
L 138.196544 89.33194 
L 138.563712 89.005115 
L 140.032385 88.985926 
L 140.399553 88.678356 
L 141.133889 89.327317 
L 141.501057 88.75569 
L 141.868225 89.262269 
L 142.602562 88.678604 
L 142.96973 88.933792 
L 143.336898 89.386733 
L 144.071234 88.656591 
L 144.438402 89.352137 
L 144.80557 89.004802 
L 145.539907 88.963533 
L 145.907075 88.784557 
L 146.274243 88.978924 
L 146.641411 88.996726 
L 147.008579 89.253054 
L 147.375747 88.971889 
L 148.110083 88.996396 
L 148.477251 88.767481 
L 148.84442 88.974036 
L 149.578756 89.027591 
L 149.945924 89.230975 
L 150.313092 89.006387 
L 151.047428 88.925882 
L 151.414596 88.870627 
L 151.781764 88.983284 
L 152.148933 89.236557 
L 152.516101 89.002721 
L 153.617605 88.966704 
L 153.984773 88.75389 
L 154.351941 88.983879 
L 155.086277 89.018409 
L 155.453446 89.231586 
L 155.820614 89.018079 
L 156.55495 88.98586 
L 156.922118 88.794184 
L 157.289286 88.999748 
L 157.656454 89.006156 
L 158.023622 89.233353 
L 158.39079 89.003679 
L 159.125127 89.006321 
L 159.492295 88.785036 
L 159.859463 88.955937 
L 160.593799 88.995438 
L 160.960967 89.26927 
L 161.328135 88.757788 
L 161.695303 89.228068 
L 162.42964 88.775986 
L 163.163976 89.211588 
L 163.531144 89.000888 
L 164.632648 89.011952 
L 164.999816 88.827476 
L 165.734153 89.002077 
L 166.101321 89.007047 
L 166.468489 89.239777 
L 166.835657 89.000425 
L 167.569993 89.001466 
L 167.937161 88.781039 
L 168.304329 89.013389 
L 168.671498 88.987148 
L 169.038666 89.242782 
L 169.405834 89.023462 
L 170.14017 88.979486 
L 170.507338 88.780362 
L 170.874506 88.988948 
L 171.608842 89.011457 
L 171.976011 89.23365 
L 172.343179 88.751479 
L 172.710347 89.221347 
L 173.077515 88.794828 
L 173.444683 89.024585 
L 174.179019 88.988783 
L 174.546187 89.260469 
L 174.913355 88.999633 
L 175.280524 88.997783 
L 175.647692 88.757375 
L 176.382028 89.237514 
L 176.749196 88.751397 
L 177.483532 89.213784 
L 177.8507 89.010598 
L 178.217868 88.995504 
L 178.585037 88.761487 
L 179.319373 88.969924 
L 179.686541 89.286808 
L 180.053709 89.039943 
L 181.155213 88.998592 
L 181.522381 88.651307 
L 181.88955 89.066282 
L 182.256718 89.207063 
L 182.623886 88.736056 
L 182.991054 89.356414 
L 183.358222 88.672064 
L 183.72539 89.335128 
L 184.092558 89.017352 
L 184.459726 88.996875 
L 184.826894 88.747879 
L 185.194063 89.226252 
L 185.561231 89.032082 
L 186.662735 89.0032 
L 187.029903 88.647905 
L 187.397071 89.343236 
L 187.764239 88.666037 
L 188.498576 89.362689 
L 188.865744 88.989245 
L 189.967248 88.993886 
L 190.334416 88.769067 
L 190.701584 89.229835 
L 191.068752 88.999187 
L 192.170257 89.016857 
L 192.537425 88.651934 
L 192.904593 89.353111 
L 193.638929 88.651092 
L 194.006097 89.238076 
L 194.373265 88.981748 
L 195.47477 88.98477 
L 195.841938 88.666433 
L 196.209106 89.343847 
L 196.576274 89.010235 
L 197.677778 89.002324 
L 198.044946 88.715975 
L 198.412115 89.35648 
L 198.779283 89.001548 
L 200.247955 89.01035 
L 200.615123 88.771032 
L 200.982291 89.219366 
L 201.34946 88.674277 
L 201.716628 89.326722 
L 202.083796 88.871221 
L 202.450964 89.130604 
L 202.818132 88.992367 
L 203.919636 88.992449 
L 206.122645 89.034824 
L 206.489813 88.63727 
L 207.224149 89.319819 
L 207.591317 89.000838 
L 209.05999 89.074556 
L 209.427158 88.981368 
L 210.89583 89.017682 
L 211.262999 89.011093 
L 211.630167 88.64044 
L 212.364503 89.361781 
L 212.731671 88.980278 
L 214.200343 89.004124 
L 214.567512 88.647525 
L 214.93468 89.368452 
L 215.301848 89.015569 
L 216.77052 89.020407 
L 217.137688 88.763072 
L 217.872025 89.020721 
L 218.239193 89.364621 
L 218.606361 89.022323 
L 219.707865 88.964293 
L 220.075033 88.676342 
L 220.442201 89.343285 
L 220.809369 89.016724 
L 222.64521 89.066051 
L 223.012378 88.709204 
L 223.379546 88.9401 
L 223.746714 89.362012 
L 224.113882 89.005066 
L 225.582555 89.016526 
L 225.949723 88.758646 
L 226.316891 89.203859 
L 227.051227 88.912638 
L 227.418395 89.109829 
L 228.152732 88.917262 
L 228.5199 89.114354 
L 229.254236 89.009822 
L 230.722908 89.037994 
L 231.090077 88.684466 
L 231.457245 89.345184 
L 231.824413 88.660918 
L 232.191581 89.380623 
L 232.558749 88.973871 
L 235.496094 89.03882 
L 235.863262 88.998047 
L 236.23043 88.694523 
L 236.964766 89.343665 
L 237.331934 89.018574 
L 239.534943 88.998592 
L 239.902111 88.763601 
L 240.269279 89.2697 
L 240.636447 89.011523 
L 241.370784 88.992515 
L 241.737952 88.792087 
L 242.10512 89.265291 
L 242.472288 88.994976 
L 243.573792 89.004735 
L 244.675297 89.049422 
L 245.042465 88.649457 
L 245.409633 89.332039 
L 245.776801 89.001945 
L 246.878305 89.010978 
L 247.245473 88.800625 
L 247.97981 89.246812 
L 248.346978 88.751149 
L 248.714146 89.25487 
L 249.081314 89.009739 
L 250.182818 88.991987 
L 250.549986 88.659068 
L 251.284323 89.365018 
L 251.651491 88.708461 
L 252.018659 89.254672 
L 252.752995 88.699494 
L 253.487331 89.354003 
L 253.854499 88.643875 
L 254.221668 89.3543 
L 254.588836 89.035947 
L 255.69034 89.053864 
L 256.057508 88.645774 
L 256.424676 89.343616 
L 256.791844 89.00713 
L 258.260517 89.049554 
L 258.627685 88.681279 
L 258.994853 89.372333 
L 259.362021 89.014247 
L 260.830694 89.038143 
L 261.197862 88.807181 
L 261.56503 89.249933 
L 261.932198 88.785201 
L 262.299366 89.263375 
L 262.666534 88.999055 
L 263.768038 88.970469 
L 264.135207 88.713151 
L 264.502375 89.360096 
L 264.869543 88.686349 
L 265.236711 89.333922 
L 265.603879 89.005016 
L 267.072551 89.001565 
L 267.43972 88.780659 
L 267.806888 89.230793 
L 268.174056 89.03342 
L 268.908392 89.000095 
L 269.27556 88.691006 
L 269.642728 89.369113 
L 270.377064 88.616215 
L 270.744233 89.334962 
L 271.111401 89.046548 
L 272.212905 89.00637 
L 273.681577 89.016097 
L 274.415914 89.015486 
L 274.783082 88.71216 
L 275.15025 89.095528 
L 275.517418 89.272705 
L 275.884586 88.765302 
L 276.251754 89.277775 
L 276.618922 89.009657 
L 277.353259 89.030035 
L 277.720427 89.05289 
L 278.087595 88.654031 
L 278.454763 89.267933 
L 279.189099 89.000888 
L 279.923435 88.999666 
L 280.290604 88.753626 
L 280.657772 89.097163 
L 281.02494 89.219762 
L 281.392108 89.022703 
L 282.493612 89.008831 
L 282.86078 88.694986 
L 283.595117 89.344491 
L 283.962285 88.70529 
L 284.329453 89.350799 
L 284.696621 89.046631 
L 285.430957 89.010416 
L 285.798125 88.658358 
L 286.165293 89.375619 
L 286.532461 89.010598 
L 288.001134 89.017055 
L 288.368302 88.665112 
L 288.73547 89.371722 
L 289.102638 88.646848 
L 289.469806 89.124626 
L 289.836974 89.235995 
L 290.571311 88.871618 
L 290.938479 89.15625 
L 291.305647 88.701377 
L 291.672815 89.364407 
L 292.407151 88.649886 
L 292.774319 89.374893 
L 293.141487 89.009739 
L 293.508656 89.024288 
L 293.875824 88.699048 
L 294.61016 89.363416 
L 294.977328 88.800839 
L 295.344496 89.229241 
L 295.711664 89.031257 
L 296.813169 89.057679 
L 297.180337 88.749531 
L 297.547505 89.286098 
L 297.914673 89.019647 
L 299.016177 89.02987 
L 299.383345 88.670017 
L 299.750513 89.361352 
L 300.117682 88.680701 
L 300.852018 89.327779 
L 301.219186 89.021662 
L 301.953522 89.014809 
L 302.32069 88.693632 
L 302.687858 89.140297 
L 303.055026 89.2409 
L 303.422195 89.022785 
L 304.523699 89.030051 
L 304.890867 88.68009 
L 305.258035 89.349594 
L 305.992371 88.774747 
L 306.359539 89.273399 
L 306.726708 89.022042 
L 307.461044 89.033668 
L 307.828212 88.823083 
L 308.19538 88.869058 
L 308.562548 89.384256 
L 308.929716 89.02338 
L 310.031221 89.020473 
L 310.398389 88.722861 
L 310.765557 89.352302 
L 311.132725 88.644585 
L 311.499893 89.365133 
L 311.867061 88.897627 
L 312.601397 89.055482 
L 312.968565 88.999666 
L 313.335734 88.721391 
L 313.702902 89.338199 
L 314.07007 88.740349 
L 314.437238 89.26141 
L 314.804406 89.044715 
L 315.538742 89.023479 
L 315.90591 88.688066 
L 316.273078 89.351014 
L 317.007415 88.675301 
L 317.374583 89.360658 
L 317.741751 89.02186 
L 318.476087 89.016658 
L 318.843255 88.688364 
L 319.210423 89.348041 
L 319.577591 88.678042 
L 319.94476 89.312669 
L 320.311928 89.032991 
L 321.046264 89.02508 
L 321.413432 89.082681 
L 321.7806 88.993506 
L 322.147768 88.758217 
L 322.514936 88.957291 
L 322.882104 89.341502 
L 323.249273 89.025328 
L 323.983609 89.017104 
L 324.350777 88.700105 
L 324.717945 89.360377 
L 325.085113 89.02409 
L 327.65529 88.888478 
L 328.022458 88.811639 
L 328.389626 89.370996 
L 328.756794 89.031802 
L 332.061307 89.034246 
L 332.428475 88.698949 
L 332.795643 89.325748 
L 333.162812 88.667028 
L 333.52998 89.366124 
L 333.897148 89.009739 
L 334.998652 89.041049 
L 336.467325 89.009871 
L 337.568829 89.014297 
L 337.935997 88.733545 
L 338.303165 89.337902 
L 338.670333 88.753081 
L 339.037501 88.903572 
L 339.404669 89.35004 
L 339.771838 89.01106 
L 341.24051 89.030051 
L 343.076351 89.012447 
L 343.443519 88.720879 
L 343.810687 89.310324 
L 344.177855 88.656162 
L 344.545023 89.373241 
L 344.912191 89.016411 
L 346.013695 89.005627 
L 346.380864 89.019598 
L 346.748032 88.782558 
L 347.1152 89.252426 
L 347.482368 89.01428 
L 348.583872 89.017435 
L 348.95104 88.646996 
L 349.318208 89.392364 
L 349.685377 89.027855 
L 351.154049 89.015271 
L 351.521217 88.704778 
L 351.888385 89.352071 
L 352.255553 88.689321 
L 352.622721 89.364076 
L 352.98989 89.010647 
L 353.724226 89.016246 
L 354.091394 89.021596 
L 354.458562 88.803564 
L 355.192898 89.244582 
L 355.560066 88.67469 
L 355.927235 89.37235 
L 356.294403 89.027888 
L 357.395907 89.008649 
L 357.763075 88.672246 
L 358.130243 89.342295 
L 358.497411 89.021365 
L 359.598916 89.016427 
L 359.966084 88.687109 
L 360.333252 89.366702 
L 360.70042 89.033354 
L 365.106437 89.025014 
L 365.473605 88.710393 
L 365.840774 89.1094 
L 366.207942 89.252426 
L 366.57511 89.025031 
L 368.41095 89.032462 
L 368.778118 88.682518 
L 369.145287 89.248149 
L 369.879623 88.739424 
L 370.246791 89.148885 
L 370.613959 88.999649 
L 370.981127 88.703606 
L 371.348295 89.103951 
L 371.715463 89.255663 
L 372.082631 89.036706 
L 373.918472 89.01466 
L 374.28564 88.692624 
L 374.652808 89.340528 
L 375.019976 89.036359 
L 375.387144 88.899724 
L 375.754313 89.141239 
L 376.488649 88.972864 
L 376.855817 88.985315 
L 377.222985 88.806223 
L 377.957321 89.192266 
L 378.324489 88.843627 
L 378.691657 89.032281 
L 379.058826 88.934998 
L 379.425994 89.127202 
L 380.16033 88.997635 
L 381.99617 89.052543 
L 383.464843 88.966721 
L 384.566347 89.059297 
L 386.769356 89.019499 
L 387.503692 89.010053 
L 390.808205 89.036558 
L 392.276878 88.996941 
L 393.011214 89.021761 
L 396.682895 88.997684 
L 398.518735 89.039712 
L 399.253072 89.029853 
L 402.190417 89.018904 
L 402.924753 89.030117 
L 406.963602 89.006618 
L 408.065106 89.030646 
L 412.103956 89.068116 
L 413.20546 89.010069 
L 415.0413 89.019928 
L 416.509973 89.008864 
L 418.345813 89.034328 
L 418.712982 88.964062 
L 419.447318 89.034675 
L 419.814486 88.980592 
L 420.181654 89.072426 
L 420.91599 89.017187 
L 427.892184 89.027888 
L 428.259352 88.97151 
L 428.626521 89.07515 
L 428.993689 88.95531 
L 429.360857 89.301489 
L 429.728025 88.755079 
L 430.462361 89.165151 
L 430.829529 88.889601 
L 431.196697 89.084299 
L 431.563866 88.945699 
L 431.931034 89.099558 
L 432.66537 89.002523 
L 434.868379 89.053319 
L 436.337051 89.008055 
L 437.071387 89.035798 
L 437.805723 89.035814 
L 446.984926 89.011969 
L 447.352094 88.988833 
L 447.719262 89.083209 
L 448.453599 89.019697 
L 451.390944 89.033536 
L 452.12528 89.030266 
L 455.062625 89.026369 
L 460.937314 89.034097 
L 462.405987 89.04204 
L 463.140323 88.888759 
L 463.507491 89.181202 
L 463.874659 89.025675 
L 464.608996 89.023594 
L 480.397224 89.005033 
L 481.131561 89.037185 
L 481.865897 88.888561 
L 482.233065 89.192993 
L 482.600233 89.020919 
L 482.967401 89.340808 
L 483.334569 88.773872 
L 484.068905 89.109169 
L 484.436074 88.983416 
L 486.271914 89.102134 
L 487.00625 89.021348 
L 496.185453 89.003662 
L 496.919789 89.080831 
L 497.654126 89.052279 
L 499.122798 89.026435 
L 506.46616 89.055796 
L 507.567665 89.023016 
L 508.669169 89.046648 
L 509.403505 89.008104 
L 512.708018 89.026864 
L 518.21554 89.038176 
L 518.582708 89.352913 
L 518.949876 88.833801 
L 519.317044 89.046103 
L 520.418549 89.033998 
L 520.785717 89.262302 
L 521.152885 89.045029 
L 521.520053 89.03527 
L 521.887221 88.811177 
L 522.254389 89.250164 
L 522.621557 88.878735 
L 522.988725 89.215716 
L 523.355893 89.039976 
L 524.09023 89.045508 
L 524.457398 88.789709 
L 524.824566 89.043196 
L 525.558902 89.0446 
L 525.92607 89.290904 
L 526.293238 89.049438 
L 526.660406 88.984952 
L 527.027575 89.05606 
L 527.394743 88.808848 
L 527.761911 89.021018 
L 528.129079 89.023925 
L 528.496247 89.302843 
L 528.863415 89.026253 
L 529.597751 89.050809 
L 529.964919 88.845905 
L 530.332088 89.019961 
L 531.066424 88.968537 
L 531.433592 89.335821 
L 531.80076 89.047407 
L 532.535096 89.055103 
L 532.902264 88.774962 
L 533.269432 89.299656 
L 533.636601 88.790303 
L 534.003769 89.30821 
L 534.370937 89.022025 
L 535.839609 89.041908 
L 536.206777 88.734966 
L 536.573945 89.326094 
L 536.941114 89.023974 
L 538.042618 89.032082 
L 538.409786 88.739028 
L 538.776954 89.0014 
L 539.51129 89.269601 
L 539.878458 89.04067 
L 540.979963 88.931728 
L 541.347131 89.175934 
L 541.714299 88.711797 
L 542.448635 89.364687 
L 542.815803 89.038572 
L 543.182971 89.043972 
L 543.55014 88.781056 
L 543.917308 89.055416 
L 544.651644 89.047292 
L 545.018812 89.293628 
L 545.753148 88.747516 
L 546.120316 89.147332 
L 546.487484 88.760595 
L 546.854653 89.037763 
L 547.588989 89.026666 
L 547.956157 89.266661 
L 548.323325 88.997354 
L 548.690493 89.022736 
L 549.057661 88.83897 
L 549.791997 89.057893 
L 550.159166 89.031653 
L 550.526334 89.286197 
L 550.893502 89.045029 
L 551.627838 89.039497 
L 551.995006 88.830482 
L 552.362174 89.02049 
L 553.09651 89.04498 
L 553.463679 89.248909 
L 553.830847 89.025064 
L 554.198015 89.026798 
L 554.565183 88.862799 
L 554.932351 88.917922 
L 555.299519 89.339817 
L 555.666687 88.740382 
L 556.033855 89.339421 
L 556.768192 88.742149 
L 557.13536 89.322858 
L 557.502528 89.067207 
L 557.869696 89.038275 
L 558.236864 88.732753 
L 558.604032 89.316748 
L 558.9712 89.062435 
L 559.705536 88.998543 
L 560.072705 88.848928 
L 560.439873 89.006189 
L 560.807041 89.302414 
L 561.174209 88.764773 
L 561.541377 89.307318 
L 561.908545 89.02622 
L 563.010049 89.068363 
L 563.377218 88.74167 
L 564.111554 89.345069 
L 564.478722 89.033057 
L 565.947394 88.984721 
L 566.314562 89.336581 
L 566.681731 88.78634 
L 567.048899 89.31219 
L 567.416067 89.024569 
L 568.150403 89.037648 
L 568.517571 88.733628 
L 568.884739 89.327003 
L 569.251907 89.037053 
L 570.72058 89.023644 
L 571.087748 88.826766 
L 571.454916 89.016972 
L 572.55642 89.038341 
L 596.422348 89.04782 
L 596.789516 89.290887 
L 597.156684 88.751678 
L 597.89102 89.31835 
L 598.258188 88.74139 
L 598.625356 89.09756 
L 599.359693 89.033156 
L 600.828365 89.044088 
L 608.171727 89.044352 
L 610.741904 89.035435 
L 612.210576 89.092539 
L 612.577745 89.013174 
L 613.312081 89.042899 
L 614.780753 89.044831 
L 615.515089 89.044005 
L 616.249426 89.052444 
L 621.756947 89.04597 
L 622.491284 89.032792 
L 625.06146 89.040653 
L 631.303318 89.024965 
L 632.037654 89.047804 
L 633.506327 89.008748 
L 634.240663 89.108607 
L 634.607831 89.009194 
L 635.342167 89.043741 
L 635.709336 89.326705 
L 636.076504 88.737641 
L 636.443672 89.052791 
L 638.279512 89.040719 
L 638.64668 89.041974 
L 639.013849 89.330669 
L 639.381017 88.707668 
L 639.748185 89.061543 
L 641.216857 89.044501 
L 641.951193 89.050958 
L 642.318362 89.280748 
L 642.68553 88.820953 
L 643.052698 89.051734 
L 645.990043 89.006849 
L 647.091547 89.072393 
L 647.825883 89.027541 
L 648.193051 89.099822 
L 648.927388 89.029209 
L 651.864732 89.040653 
L 652.966237 89.039497 
L 654.434909 89.042437 
L 654.802077 89.216789 
L 655.169245 88.875812 
L 655.536414 89.025394 
L 655.903582 89.319159 
L 656.27075 88.795753 
L 656.637918 88.992779 
L 657.005086 88.936368 
L 657.372254 89.147927 
L 657.739422 89.039811 
L 661.778271 89.074143 
L 662.512608 89.037813 
L 662.879776 89.07226 
L 663.246944 89.328307 
L 663.614112 89.000178 
L 663.98128 89.071716 
L 664.348448 88.829491 
L 664.715616 89.016014 
L 665.082785 89.01973 
L 665.449953 89.296188 
L 665.817121 89.018293 
L 666.184289 89.056704 
L 666.551457 88.960644 
L 666.918625 89.025427 
L 667.285793 88.765698 
L 667.652961 89.332799 
L 668.020129 88.757457 
L 668.387298 89.093448 
L 668.754466 89.271269 
L 669.121634 89.069123 
L 669.85597 89.092606 
L 670.223138 88.781881 
L 670.590306 89.042304 
L 670.957474 89.036359 
L 671.324642 89.273201 
L 671.691811 89.053815 
L 672.426147 89.065919 
L 672.793315 88.758432 
L 673.160483 89.320761 
L 673.527651 88.736914 
L 674.261987 89.350717 
L 674.629155 89.023644 
L 674.996324 89.038737 
L 675.363492 88.782096 
L 675.73066 89.343401 
L 676.097828 88.720582 
L 676.464996 89.358478 
L 676.832164 89.05218 
L 677.933668 89.03129 
L 678.300837 88.805182 
L 678.668005 89.278105 
L 679.035173 88.781601 
L 679.402341 89.293579 
L 679.769509 89.037416 
L 680.503845 89.044616 
L 680.871013 88.77843 
L 681.238181 89.030778 
L 681.60535 89.051486 
L 681.972518 89.294702 
L 682.339686 89.055548 
L 683.44119 89.055103 
L 683.808358 88.742628 
L 684.175526 89.31546 
L 684.542694 89.057662 
L 686.745703 89.032958 
L 687.112871 88.729285 
L 687.480039 89.338513 
L 687.847207 89.035418 
L 688.948712 89.028466 
L 689.31588 88.754452 
L 689.683048 89.340627 
L 690.050216 88.745452 
L 690.417384 89.321553 
L 690.784552 89.034625 
L 691.886057 89.074589 
L 692.253225 88.7348 
L 692.987561 89.35359 
L 693.354729 89.054426 
L 694.456233 89.028499 
L 694.823402 88.744841 
L 695.19057 89.355456 
L 695.557738 88.816626 
L 695.924906 89.281292 
L 696.292074 89.029704 
L 697.02641 89.067257 
L 697.393578 88.830779 
L 697.760746 89.053798 
L 698.495083 89.010928 
L 698.862251 89.284017 
L 699.229419 88.816759 
L 699.596587 89.267173 
L 700.330923 88.852115 
L 700.698091 89.251766 
L 701.065259 88.796463 
L 701.432428 89.309779 
L 701.799596 89.030662 
L 702.166764 89.026947 
L 702.533932 88.798676 
L 702.9011 89.039547 
L 704.002604 89.02987 
L 704.369772 89.303471 
L 704.736941 89.038985 
L 705.471277 89.048315 
L 705.838445 88.848118 
L 706.939949 89.307467 
L 707.307117 89.013669 
L 708.041454 89.038143 
L 708.408622 88.800327 
L 708.77579 89.035732 
L 709.510126 89.010119 
L 709.877294 89.28012 
L 710.244462 89.047903 
L 710.61163 89.01253 
L 710.978798 88.854608 
L 711.345967 89.04067 
L 712.080303 89.048398 
L 712.447471 89.274588 
L 712.814639 89.047374 
L 713.916143 89.049637 
L 714.283311 88.825247 
L 715.017648 89.268758 
L 715.384816 89.048563 
L 716.48632 88.843016 
L 716.853488 89.040802 
L 717.587824 89.048448 
L 717.954993 89.291135 
L 718.322161 88.706149 
L 718.689329 89.021051 
L 720.158001 89.056771 
L 721.626674 89.032825 
L 722.728178 89.031587 
L 725.665523 89.049504 
L 726.032691 88.91462 
L 726.399859 89.023479 
L 726.767027 88.946772 
L 727.501363 89.079328 
L 728.602868 89.016229 
L 729.704372 89.045046 
L 730.805876 89.036574 
L 733.376053 89.052114 
L 734.844726 88.99377 
L 735.579062 89.174134 
L 735.94623 88.930192 
L 736.313398 89.052807 
L 738.516407 89.085587 
L 738.883575 88.887504 
L 739.250743 89.176776 
L 739.617911 89.018112 
L 740.719416 89.046813 
L 742.188088 88.904926 
L 742.555256 89.17283 
L 743.289592 89.047671 
L 744.758265 89.025246 
L 745.859769 89.026038 
L 756.140476 89.050347 
L 756.140476 89.050347 
" clip-path="url(#p03380846c3)" style="fill: none; stroke: #1f77b4; stroke-width: 1.5; stroke-linecap: square"/>
   </g>
   <g id="line2d_18">
    <path d="M 84.59 89.02259 
L 789.718 89.02259 
" clip-path="url(#p03380846c3)" style="fill: none; stroke-dasharray: 5.55,2.4; stroke-dashoffset: 0; stroke: #0000ff; stroke-width: 1.5"/>
   </g>
   <g id="line2d_19">
    <path d="M 84.59 639.64 
L 789.718 639.64 
" clip-path="url(#p03380846c3)" style="fill: none; stroke: #000000; stroke-width: 1.5; stroke-linecap: square"/>
   </g>
   <g id="patch_3">
    <path d="M 84.59 639.64 
L 84.59 60.96 
" style="fill: none; stroke: #000000; stroke-width: 0.8; stroke-linejoin: miter; stroke-linecap: square"/>
   </g>
   <g id="patch_4">
    <path d="M 789.718 639.64 
L 789.718 60.96 
" style="fill: none; stroke: #000000; stroke-width: 0.8; stroke-linejoin: miter; stroke-linecap: square"/>
   </g>
   <g id="patch_5">
    <path d="M 84.59 639.64 
L 789.718 639.64 
" style="fill: none; stroke: #000000; stroke-width: 0.8; stroke-linejoin: miter; stroke-linecap: square"/>
   </g>
   <g id="patch_6">
    <path d="M 84.59 60.96 
L 789.718 60.96 
" style="fill: none; stroke: #000000; stroke-width: 0.8; stroke-linejoin: miter; stroke-linecap: square"/>
   </g>
   <g id="text_19">
    <!-- Interarrival Time (SelectionProcess: 16777217) -->
    <g transform="translate(239.469187 54.96) scale(0.168 -0.168)">
     <defs>
      <path id="DejaVuSans-53" d="M 3425 4513 
L 3425 3897 
Q 3066 4069 2747 4153 
Q 2428 4238 2131 4238 
Q 1616 4238 1336 4038 
Q 1056 3838 1056 3469 
Q 1056 3159 1242 3001 
Q 1428 2844 1947 2747 
L 2328 2669 
Q 3034 2534 3370 2195 
Q 3706 1856 3706 1288 
Q 3706 609 3251 259 
Q 2797 -91 1919 -91 
Q 1588 -91 1214 -16 
Q 841 59 441 206 
L 441 856 
Q 825 641 1194 531 
Q 1563 422 1919 422 
Q 2459 422 2753 634 
Q 3047 847 3047 1241 
Q 3047 1584 2836 1778 
Q 2625 1972 2144 2069 
L 1759 2144 
Q 1053 2284 737 2584 
Q 422 2884 422 3419 
Q 422 4038 858 4394 
Q 1294 4750 2059 4750 
Q 2388 4750 2728 4690 
Q 3069 4631 3425 4513 
z
" transform="scale(0.015625)"/>
      <path id="DejaVuSans-6f" d="M 1959 3097 
Q 1497 3097 1228 2736 
Q 959 2375 959 1747 
Q 959 1119 1226 758 
Q 1494 397 1959 397 
Q 2419 397 2687 759 
Q 2956 1122 2956 1747 
Q 2956 2369 2687 2733 
Q 2419 3097 1959 3097 
z
M 1959 3584 
Q 2709 3584 3137 3096 
Q 3566 2609 3566 1747 
Q 3566 888 3137 398 
Q 2709 -91 1959 -91 
Q 1206 -91 779 398 
Q 353 888 353 1747 
Q 353 2609 779 3096 
Q 1206 3584 1959 3584 
z
" transform="scale(0.015625)"/>
      <path id="DejaVuSans-3a" d="M 750 794 
L 1409 794 
L 1409 0 
L 750 0 
L 750 794 
z
M 750 3309 
L 1409 3309 
L 1409 2516 
L 750 2516 
L 750 3309 
z
" transform="scale(0.015625)"/>
      <path id="DejaVuSans-36" d="M 2113 2584 
Q 1688 2584 1439 2293 
Q 1191 2003 1191 1497 
Q 1191 994 1439 701 
Q 1688 409 2113 409 
Q 2538 409 2786 701 
Q 3034 994 3034 1497 
Q 3034 2003 2786 2293 
Q 2538 2584 2113 2584 
z
M 3366 4563 
L 3366 3988 
Q 3128 4100 2886 4159 
Q 2644 4219 2406 4219 
Q 1781 4219 1451 3797 
Q 1122 3375 1075 2522 
Q 1259 2794 1537 2939 
Q 1816 3084 2150 3084 
Q 2853 3084 3261 2657 
Q 3669 2231 3669 1497 
Q 3669 778 3244 343 
Q 2819 -91 2113 -91 
Q 1303 -91 875 529 
Q 447 1150 447 2328 
Q 447 3434 972 4092 
Q 1497 4750 2381 4750 
Q 2619 4750 2861 4703 
Q 3103 4656 3366 4563 
z
" transform="scale(0.015625)"/>
     </defs>
     <use xlink:href="#DejaVuSans-49"/>
     <use xlink:href="#DejaVuSans-6e" x="29.492188"/>
     <use xlink:href="#DejaVuSans-74" x="92.871094"/>
     <use xlink:href="#DejaVuSans-65" x="132.080078"/>
     <use xlink:href="#DejaVuSans-72" x="193.603516"/>
     <use xlink:href="#DejaVuSans-61" x="234.716797"/>
     <use xlink:href="#DejaVuSans-72" x="295.996094"/>
     <use xlink:href="#DejaVuSans-72" x="335.359375"/>
     <use xlink:href="#DejaVuSans-69" x="376.472656"/>
     <use xlink:href="#DejaVuSans-76" x="404.255859"/>
     <use xlink:href="#DejaVuSans-61" x="463.435547"/>
     <use xlink:href="#DejaVuSans-6c" x="524.714844"/>
     <use xlink:href="#DejaVuSans-20" x="552.498047"/>
     <use xlink:href="#DejaVuSans-54" x="584.285156"/>
     <use xlink:href="#DejaVuSans-69" x="642.244141"/>
     <use xlink:href="#DejaVuSans-6d" x="670.027344"/>
     <use xlink:href="#DejaVuSans-65" x="767.439453"/>
     <use xlink:href="#DejaVuSans-20" x="828.962891"/>
     <use xlink:href="#DejaVuSans-28" x="860.75"/>
     <use xlink:href="#DejaVuSans-53" x="899.763672"/>
     <use xlink:href="#DejaVuSans-65" x="963.240234"/>
     <use xlink:href="#DejaVuSans-6c" x="1024.763672"/>
     <use xlink:href="#DejaVuSans-65" x="1052.546875"/>
     <use xlink:href="#DejaVuSans-63" x="1114.070312"/>
     <use xlink:href="#DejaVuSans-74" x="1169.050781"/>
     <use xlink:href="#DejaVuSans-69" x="1208.259766"/>
     <use xlink:href="#DejaVuSans-6f" x="1236.042969"/>
     <use xlink:href="#DejaVuSans-6e" x="1297.224609"/>
     <use xlink:href="#DejaVuSans-50" x="1360.603516"/>
     <use xlink:href="#DejaVuSans-72" x="1419.15625"/>
     <use xlink:href="#DejaVuSans-6f" x="1458.019531"/>
     <use xlink:href="#DejaVuSans-63" x="1519.201172"/>
     <use xlink:href="#DejaVuSans-65" x="1574.181641"/>
     <use xlink:href="#DejaVuSans-73" x="1635.705078"/>
     <use xlink:href="#DejaVuSans-73" x="1687.804688"/>
     <use xlink:href="#DejaVuSans-3a" x="1739.904297"/>
     <use xlink:href="#DejaVuSans-20" x="1773.595703"/>
     <use xlink:href="#DejaVuSans-31" x="1805.382812"/>
     <use xlink:href="#DejaVuSans-36" x="1869.005859"/>
     <use xlink:href="#DejaVuSans-37" x="1932.628906"/>
     <use xlink:href="#DejaVuSans-37" x="1996.251953"/>
     <use xlink:href="#DejaVuSans-37" x="2059.875"/>
     <use xlink:href="#DejaVuSans-32" x="2123.498047"/>
     <use xlink:href="#DejaVuSans-31" x="2187.121094"/>
     <use xlink:href="#DejaVuSans-37" x="2250.744141"/>
     <use xlink:href="#DejaVuSans-29" x="2314.367188"/>
    </g>
   </g>
   <g id="legend_1">
    <g id="patch_7">
     <path d="M 799.518 372.949375 
L 1022.312688 372.949375 
Q 1025.112687 372.949375 1025.112687 370.149375 
L 1025.112687 330.450625 
Q 1025.112687 327.650625 1022.312688 327.650625 
L 799.518 327.650625 
Q 796.718 327.650625 796.718 330.450625 
L 796.718 370.149375 
Q 796.718 372.949375 799.518 372.949375 
z
" style="fill: #ffffff; opacity: 0.8; stroke: #cccccc; stroke-linejoin: miter"/>
    </g>
    <g id="line2d_20">
     <path d="M 802.318 338.988438 
L 816.318 338.988438 
L 830.318 338.988438 
" style="fill: none; stroke: #1f77b4; stroke-width: 1.5; stroke-linecap: square"/>
    </g>
    <g id="text_20">
     <!-- Interarrival Times -->
     <g transform="translate(841.518 343.888438) scale(0.14 -0.14)">
      <use xlink:href="#DejaVuSans-49"/>
      <use xlink:href="#DejaVuSans-6e" x="29.492188"/>
      <use xlink:href="#DejaVuSans-74" x="92.871094"/>
      <use xlink:href="#DejaVuSans-65" x="132.080078"/>
      <use xlink:href="#DejaVuSans-72" x="193.603516"/>
      <use xlink:href="#DejaVuSans-61" x="234.716797"/>
      <use xlink:href="#DejaVuSans-72" x="295.996094"/>
      <use xlink:href="#DejaVuSans-72" x="335.359375"/>
      <use xlink:href="#DejaVuSans-69" x="376.472656"/>
      <use xlink:href="#DejaVuSans-76" x="404.255859"/>
      <use xlink:href="#DejaVuSans-61" x="463.435547"/>
      <use xlink:href="#DejaVuSans-6c" x="524.714844"/>
      <use xlink:href="#DejaVuSans-20" x="552.498047"/>
      <use xlink:href="#DejaVuSans-54" x="584.285156"/>
      <use xlink:href="#DejaVuSans-69" x="642.244141"/>
      <use xlink:href="#DejaVuSans-6d" x="670.027344"/>
      <use xlink:href="#DejaVuSans-65" x="767.439453"/>
      <use xlink:href="#DejaVuSans-73" x="828.962891"/>
     </g>
    </g>
    <g id="line2d_21">
     <path d="M 802.318 359.537813 
L 816.318 359.537813 
L 830.318 359.537813 
" style="fill: none; stroke-dasharray: 5.55,2.4; stroke-dashoffset: 0; stroke: #0000ff; stroke-width: 1.5"/>
    </g>
    <g id="text_21">
     <!-- Interarrival Time Average -->
     <g transform="translate(841.518 364.437813) scale(0.14 -0.14)">
      <defs>
       <path id="DejaVuSans-41" d="M 2188 4044 
L 1331 1722 
L 3047 1722 
L 2188 4044 
z
M 1831 4666 
L 2547 4666 
L 4325 0 
L 3669 0 
L 3244 1197 
L 1141 1197 
L 716 0 
L 50 0 
L 1831 4666 
z
" transform="scale(0.015625)"/>
       <path id="DejaVuSans-67" d="M 2906 1791 
Q 2906 2416 2648 2759 
Q 2391 3103 1925 3103 
Q 1463 3103 1205 2759 
Q 947 2416 947 1791 
Q 947 1169 1205 825 
Q 1463 481 1925 481 
Q 2391 481 2648 825 
Q 2906 1169 2906 1791 
z
M 3481 434 
Q 3481 -459 3084 -895 
Q 2688 -1331 1869 -1331 
Q 1566 -1331 1297 -1286 
Q 1028 -1241 775 -1147 
L 775 -588 
Q 1028 -725 1275 -790 
Q 1522 -856 1778 -856 
Q 2344 -856 2625 -561 
Q 2906 -266 2906 331 
L 2906 616 
Q 2728 306 2450 153 
Q 2172 0 1784 0 
Q 1141 0 747 490 
Q 353 981 353 1791 
Q 353 2603 747 3093 
Q 1141 3584 1784 3584 
Q 2172 3584 2450 3431 
Q 2728 3278 2906 2969 
L 2906 3500 
L 3481 3500 
L 3481 434 
z
" transform="scale(0.015625)"/>
      </defs>
      <use xlink:href="#DejaVuSans-49"/>
      <use xlink:href="#DejaVuSans-6e" x="29.492188"/>
      <use xlink:href="#DejaVuSans-74" x="92.871094"/>
      <use xlink:href="#DejaVuSans-65" x="132.080078"/>
      <use xlink:href="#DejaVuSans-72" x="193.603516"/>
      <use xlink:href="#DejaVuSans-61" x="234.716797"/>
      <use xlink:href="#DejaVuSans-72" x="295.996094"/>
      <use xlink:href="#DejaVuSans-72" x="335.359375"/>
      <use xlink:href="#DejaVuSans-69" x="376.472656"/>
      <use xlink:href="#DejaVuSans-76" x="404.255859"/>
      <use xlink:href="#DejaVuSans-61" x="463.435547"/>
      <use xlink:href="#DejaVuSans-6c" x="524.714844"/>
      <use xlink:href="#DejaVuSans-20" x="552.498047"/>
      <use xlink:href="#DejaVuSans-54" x="584.285156"/>
      <use xlink:href="#DejaVuSans-69" x="642.244141"/>
      <use xlink:href="#DejaVuSans-6d" x="670.027344"/>
      <use xlink:href="#DejaVuSans-65" x="767.439453"/>
      <use xlink:href="#DejaVuSans-20" x="828.962891"/>
      <use xlink:href="#DejaVuSans-41" x="860.75"/>
      <use xlink:href="#DejaVuSans-76" x="923.283203"/>
      <use xlink:href="#DejaVuSans-65" x="982.462891"/>
      <use xlink:href="#DejaVuSans-72" x="1043.986328"/>
      <use xlink:href="#DejaVuSans-61" x="1085.099609"/>
      <use xlink:href="#DejaVuSans-67" x="1146.378906"/>
      <use xlink:href="#DejaVuSans-65" x="1209.855469"/>
     </g>
    </g>
   </g>
  </g>
 </g>
 <defs>
  <clipPath id="p03380846c3">
   <rect x="84.59" y="60.96" width="705.128" height="578.68"/>
  </clipPath>
 </defs>
</svg>
