<?xml version="1.0" encoding="utf-8" standalone="no"?>
<!DOCTYPE svg PUBLIC "-//W3C//DTD SVG 1.1//EN"
  "http://www.w3.org/Graphics/SVG/1.1/DTD/svg11.dtd">
<svg xmlns:xlink="http://www.w3.org/1999/xlink" width="1186.56pt" height="588.24pt" viewBox="0 0 1186.56 588.24" xmlns="http://www.w3.org/2000/svg" version="1.1">
 <metadata>
  <rdf:RDF xmlns:dc="http://purl.org/dc/elements/1.1/" xmlns:cc="http://creativecommons.org/ns#" xmlns:rdf="http://www.w3.org/1999/02/22-rdf-syntax-ns#">
   <cc:Work>
    <dc:type rdf:resource="http://purl.org/dc/dcmitype/StillImage"/>
    <dc:date>2023-04-14T13:14:10.548290</dc:date>
    <dc:format>image/svg+xml</dc:format>
    <dc:creator>
     <cc:Agent>
      <dc:title>Matplotlib v3.6.2, https://matplotlib.org/</dc:title>
     </cc:Agent>
    </dc:creator>
   </cc:Work>
  </rdf:RDF>
 </metadata>
 <defs>
  <style type="text/css">*{stroke-linejoin: round; stroke-linecap: butt}</style>
 </defs>
 <g id="figure_1">
  <g id="patch_1">
   <path d="M 0 588.24 
L 1186.56 588.24 
L 1186.56 0 
L 0 0 
z
" style="fill: #ffffff"/>
  </g>
  <g id="axes_1">
   <g id="patch_2">
    <path d="M 72.61088 536.37684 
L 869.968377 536.37684 
L 869.968377 38.36632 
L 72.61088 38.36632 
z
" style="fill: #ffffff"/>
   </g>
   <g id="matplotlib.axis_1">
    <g id="xtick_1">
     <g id="line2d_1">
      <defs>
       <path id="m7c25005c31" d="M 0 0 
L 0 3.5 
" style="stroke: #000000; stroke-width: 0.8"/>
      </defs>
      <g>
       <use xlink:href="#m7c25005c31" x="72.61088" y="536.37684" style="stroke: #000000; stroke-width: 0.8"/>
      </g>
     </g>
     <g id="text_1">
      <!-- 0 -->
      <g transform="translate(69.42963 550.975278) scale(0.1 -0.1)">
       <defs>
        <path id="DejaVuSans-30" d="M 2034 4250 
Q 1547 4250 1301 3770 
Q 1056 3291 1056 2328 
Q 1056 1369 1301 889 
Q 1547 409 2034 409 
Q 2525 409 2770 889 
Q 3016 1369 3016 2328 
Q 3016 3291 2770 3770 
Q 2525 4250 2034 4250 
z
M 2034 4750 
Q 2819 4750 3233 4129 
Q 3647 3509 3647 2328 
Q 3647 1150 3233 529 
Q 2819 -91 2034 -91 
Q 1250 -91 836 529 
Q 422 1150 422 2328 
Q 422 3509 836 4129 
Q 1250 4750 2034 4750 
z
" transform="scale(0.015625)"/>
       </defs>
       <use xlink:href="#DejaVuSans-30"/>
      </g>
     </g>
    </g>
    <g id="xtick_2">
     <g id="line2d_2">
      <g>
       <use xlink:href="#m7c25005c31" x="199.221218" y="536.37684" style="stroke: #000000; stroke-width: 0.8"/>
      </g>
     </g>
     <g id="text_2">
      <!-- 10 -->
      <g transform="translate(192.858718 550.975278) scale(0.1 -0.1)">
       <defs>
        <path id="DejaVuSans-31" d="M 794 531 
L 1825 531 
L 1825 4091 
L 703 3866 
L 703 4441 
L 1819 4666 
L 2450 4666 
L 2450 531 
L 3481 531 
L 3481 0 
L 794 0 
L 794 531 
z
" transform="scale(0.015625)"/>
       </defs>
       <use xlink:href="#DejaVuSans-31"/>
       <use xlink:href="#DejaVuSans-30" x="63.623047"/>
      </g>
     </g>
    </g>
    <g id="xtick_3">
     <g id="line2d_3">
      <g>
       <use xlink:href="#m7c25005c31" x="325.831556" y="536.37684" style="stroke: #000000; stroke-width: 0.8"/>
      </g>
     </g>
     <g id="text_3">
      <!-- 20 -->
      <g transform="translate(319.469056 550.975278) scale(0.1 -0.1)">
       <defs>
        <path id="DejaVuSans-32" d="M 1228 531 
L 3431 531 
L 3431 0 
L 469 0 
L 469 531 
Q 828 903 1448 1529 
Q 2069 2156 2228 2338 
Q 2531 2678 2651 2914 
Q 2772 3150 2772 3378 
Q 2772 3750 2511 3984 
Q 2250 4219 1831 4219 
Q 1534 4219 1204 4116 
Q 875 4013 500 3803 
L 500 4441 
Q 881 4594 1212 4672 
Q 1544 4750 1819 4750 
Q 2544 4750 2975 4387 
Q 3406 4025 3406 3419 
Q 3406 3131 3298 2873 
Q 3191 2616 2906 2266 
Q 2828 2175 2409 1742 
Q 1991 1309 1228 531 
z
" transform="scale(0.015625)"/>
       </defs>
       <use xlink:href="#DejaVuSans-32"/>
       <use xlink:href="#DejaVuSans-30" x="63.623047"/>
      </g>
     </g>
    </g>
    <g id="xtick_4">
     <g id="line2d_4">
      <g>
       <use xlink:href="#m7c25005c31" x="452.441894" y="536.37684" style="stroke: #000000; stroke-width: 0.8"/>
      </g>
     </g>
     <g id="text_4">
      <!-- 30 -->
      <g transform="translate(446.079394 550.975278) scale(0.1 -0.1)">
       <defs>
        <path id="DejaVuSans-33" d="M 2597 2516 
Q 3050 2419 3304 2112 
Q 3559 1806 3559 1356 
Q 3559 666 3084 287 
Q 2609 -91 1734 -91 
Q 1441 -91 1130 -33 
Q 819 25 488 141 
L 488 750 
Q 750 597 1062 519 
Q 1375 441 1716 441 
Q 2309 441 2620 675 
Q 2931 909 2931 1356 
Q 2931 1769 2642 2001 
Q 2353 2234 1838 2234 
L 1294 2234 
L 1294 2753 
L 1863 2753 
Q 2328 2753 2575 2939 
Q 2822 3125 2822 3475 
Q 2822 3834 2567 4026 
Q 2313 4219 1838 4219 
Q 1578 4219 1281 4162 
Q 984 4106 628 3988 
L 628 4550 
Q 988 4650 1302 4700 
Q 1616 4750 1894 4750 
Q 2613 4750 3031 4423 
Q 3450 4097 3450 3541 
Q 3450 3153 3228 2886 
Q 3006 2619 2597 2516 
z
" transform="scale(0.015625)"/>
       </defs>
       <use xlink:href="#DejaVuSans-33"/>
       <use xlink:href="#DejaVuSans-30" x="63.623047"/>
      </g>
     </g>
    </g>
    <g id="xtick_5">
     <g id="line2d_5">
      <g>
       <use xlink:href="#m7c25005c31" x="579.052232" y="536.37684" style="stroke: #000000; stroke-width: 0.8"/>
      </g>
     </g>
     <g id="text_5">
      <!-- 40 -->
      <g transform="translate(572.689732 550.975278) scale(0.1 -0.1)">
       <defs>
        <path id="DejaVuSans-34" d="M 2419 4116 
L 825 1625 
L 2419 1625 
L 2419 4116 
z
M 2253 4666 
L 3047 4666 
L 3047 1625 
L 3713 1625 
L 3713 1100 
L 3047 1100 
L 3047 0 
L 2419 0 
L 2419 1100 
L 313 1100 
L 313 1709 
L 2253 4666 
z
" transform="scale(0.015625)"/>
       </defs>
       <use xlink:href="#DejaVuSans-34"/>
       <use xlink:href="#DejaVuSans-30" x="63.623047"/>
      </g>
     </g>
    </g>
    <g id="xtick_6">
     <g id="line2d_6">
      <g>
       <use xlink:href="#m7c25005c31" x="705.66257" y="536.37684" style="stroke: #000000; stroke-width: 0.8"/>
      </g>
     </g>
     <g id="text_6">
      <!-- 50 -->
      <g transform="translate(699.30007 550.975278) scale(0.1 -0.1)">
       <defs>
        <path id="DejaVuSans-35" d="M 691 4666 
L 3169 4666 
L 3169 4134 
L 1269 4134 
L 1269 2991 
Q 1406 3038 1543 3061 
Q 1681 3084 1819 3084 
Q 2600 3084 3056 2656 
Q 3513 2228 3513 1497 
Q 3513 744 3044 326 
Q 2575 -91 1722 -91 
Q 1428 -91 1123 -41 
Q 819 9 494 109 
L 494 744 
Q 775 591 1075 516 
Q 1375 441 1709 441 
Q 2250 441 2565 725 
Q 2881 1009 2881 1497 
Q 2881 1984 2565 2268 
Q 2250 2553 1709 2553 
Q 1456 2553 1204 2497 
Q 953 2441 691 2322 
L 691 4666 
z
" transform="scale(0.015625)"/>
       </defs>
       <use xlink:href="#DejaVuSans-35"/>
       <use xlink:href="#DejaVuSans-30" x="63.623047"/>
      </g>
     </g>
    </g>
    <g id="xtick_7">
     <g id="line2d_7">
      <g>
       <use xlink:href="#m7c25005c31" x="832.272908" y="536.37684" style="stroke: #000000; stroke-width: 0.8"/>
      </g>
     </g>
     <g id="text_7">
      <!-- 60 -->
      <g transform="translate(825.910408 550.975278) scale(0.1 -0.1)">
       <defs>
        <path id="DejaVuSans-36" d="M 2113 2584 
Q 1688 2584 1439 2293 
Q 1191 2003 1191 1497 
Q 1191 994 1439 701 
Q 1688 409 2113 409 
Q 2538 409 2786 701 
Q 3034 994 3034 1497 
Q 3034 2003 2786 2293 
Q 2538 2584 2113 2584 
z
M 3366 4563 
L 3366 3988 
Q 3128 4100 2886 4159 
Q 2644 4219 2406 4219 
Q 1781 4219 1451 3797 
Q 1122 3375 1075 2522 
Q 1259 2794 1537 2939 
Q 1816 3084 2150 3084 
Q 2853 3084 3261 2657 
Q 3669 2231 3669 1497 
Q 3669 778 3244 343 
Q 2819 -91 2113 -91 
Q 1303 -91 875 529 
Q 447 1150 447 2328 
Q 447 3434 972 4092 
Q 1497 4750 2381 4750 
Q 2619 4750 2861 4703 
Q 3103 4656 3366 4563 
z
" transform="scale(0.015625)"/>
       </defs>
       <use xlink:href="#DejaVuSans-36"/>
       <use xlink:href="#DejaVuSans-30" x="63.623047"/>
      </g>
     </g>
    </g>
    <g id="text_8">
     <!-- Time (s) -->
     <g transform="translate(440.796269 568.452621) scale(0.15 -0.15)">
      <defs>
       <path id="DejaVuSans-54" d="M -19 4666 
L 3928 4666 
L 3928 4134 
L 2272 4134 
L 2272 0 
L 1638 0 
L 1638 4134 
L -19 4134 
L -19 4666 
z
" transform="scale(0.015625)"/>
       <path id="DejaVuSans-69" d="M 603 3500 
L 1178 3500 
L 1178 0 
L 603 0 
L 603 3500 
z
M 603 4863 
L 1178 4863 
L 1178 4134 
L 603 4134 
L 603 4863 
z
" transform="scale(0.015625)"/>
       <path id="DejaVuSans-6d" d="M 3328 2828 
Q 3544 3216 3844 3400 
Q 4144 3584 4550 3584 
Q 5097 3584 5394 3201 
Q 5691 2819 5691 2113 
L 5691 0 
L 5113 0 
L 5113 2094 
Q 5113 2597 4934 2840 
Q 4756 3084 4391 3084 
Q 3944 3084 3684 2787 
Q 3425 2491 3425 1978 
L 3425 0 
L 2847 0 
L 2847 2094 
Q 2847 2600 2669 2842 
Q 2491 3084 2119 3084 
Q 1678 3084 1418 2786 
Q 1159 2488 1159 1978 
L 1159 0 
L 581 0 
L 581 3500 
L 1159 3500 
L 1159 2956 
Q 1356 3278 1631 3431 
Q 1906 3584 2284 3584 
Q 2666 3584 2933 3390 
Q 3200 3197 3328 2828 
z
" transform="scale(0.015625)"/>
       <path id="DejaVuSans-65" d="M 3597 1894 
L 3597 1613 
L 953 1613 
Q 991 1019 1311 708 
Q 1631 397 2203 397 
Q 2534 397 2845 478 
Q 3156 559 3463 722 
L 3463 178 
Q 3153 47 2828 -22 
Q 2503 -91 2169 -91 
Q 1331 -91 842 396 
Q 353 884 353 1716 
Q 353 2575 817 3079 
Q 1281 3584 2069 3584 
Q 2775 3584 3186 3129 
Q 3597 2675 3597 1894 
z
M 3022 2063 
Q 3016 2534 2758 2815 
Q 2500 3097 2075 3097 
Q 1594 3097 1305 2825 
Q 1016 2553 972 2059 
L 3022 2063 
z
" transform="scale(0.015625)"/>
       <path id="DejaVuSans-20" transform="scale(0.015625)"/>
       <path id="DejaVuSans-28" d="M 1984 4856 
Q 1566 4138 1362 3434 
Q 1159 2731 1159 2009 
Q 1159 1288 1364 580 
Q 1569 -128 1984 -844 
L 1484 -844 
Q 1016 -109 783 600 
Q 550 1309 550 2009 
Q 550 2706 781 3412 
Q 1013 4119 1484 4856 
L 1984 4856 
z
" transform="scale(0.015625)"/>
       <path id="DejaVuSans-73" d="M 2834 3397 
L 2834 2853 
Q 2591 2978 2328 3040 
Q 2066 3103 1784 3103 
Q 1356 3103 1142 2972 
Q 928 2841 928 2578 
Q 928 2378 1081 2264 
Q 1234 2150 1697 2047 
L 1894 2003 
Q 2506 1872 2764 1633 
Q 3022 1394 3022 966 
Q 3022 478 2636 193 
Q 2250 -91 1575 -91 
Q 1294 -91 989 -36 
Q 684 19 347 128 
L 347 722 
Q 666 556 975 473 
Q 1284 391 1588 391 
Q 1994 391 2212 530 
Q 2431 669 2431 922 
Q 2431 1156 2273 1281 
Q 2116 1406 1581 1522 
L 1381 1569 
Q 847 1681 609 1914 
Q 372 2147 372 2553 
Q 372 3047 722 3315 
Q 1072 3584 1716 3584 
Q 2034 3584 2315 3537 
Q 2597 3491 2834 3397 
z
" transform="scale(0.015625)"/>
       <path id="DejaVuSans-29" d="M 513 4856 
L 1013 4856 
Q 1481 4119 1714 3412 
Q 1947 2706 1947 2009 
Q 1947 1309 1714 600 
Q 1481 -109 1013 -844 
L 513 -844 
Q 928 -128 1133 580 
Q 1338 1288 1338 2009 
Q 1338 2731 1133 3434 
Q 928 4138 513 4856 
z
" transform="scale(0.015625)"/>
      </defs>
      <use xlink:href="#DejaVuSans-54"/>
      <use xlink:href="#DejaVuSans-69" x="57.958984"/>
      <use xlink:href="#DejaVuSans-6d" x="85.742188"/>
      <use xlink:href="#DejaVuSans-65" x="183.154297"/>
      <use xlink:href="#DejaVuSans-20" x="244.677734"/>
      <use xlink:href="#DejaVuSans-28" x="276.464844"/>
      <use xlink:href="#DejaVuSans-73" x="315.478516"/>
      <use xlink:href="#DejaVuSans-29" x="367.578125"/>
     </g>
    </g>
   </g>
   <g id="matplotlib.axis_2">
    <g id="ytick_1">
     <g id="line2d_8">
      <defs>
       <path id="m3231e372f3" d="M 0 0 
L -3.5 0 
" style="stroke: #000000; stroke-width: 0.8"/>
      </defs>
      <g>
       <use xlink:href="#m3231e372f3" x="72.61088" y="536.37684" style="stroke: #000000; stroke-width: 0.8"/>
      </g>
     </g>
     <g id="text_9">
      <!-- 0 -->
      <g transform="translate(59.24838 540.176059) scale(0.1 -0.1)">
       <use xlink:href="#DejaVuSans-30"/>
      </g>
     </g>
    </g>
    <g id="ytick_2">
     <g id="line2d_9">
      <g>
       <use xlink:href="#m3231e372f3" x="72.61088" y="463.797109" style="stroke: #000000; stroke-width: 0.8"/>
      </g>
     </g>
     <g id="text_10">
      <!-- 10 -->
      <g transform="translate(52.88588 467.596327) scale(0.1 -0.1)">
       <use xlink:href="#DejaVuSans-31"/>
       <use xlink:href="#DejaVuSans-30" x="63.623047"/>
      </g>
     </g>
    </g>
    <g id="ytick_3">
     <g id="line2d_10">
      <g>
       <use xlink:href="#m3231e372f3" x="72.61088" y="391.217377" style="stroke: #000000; stroke-width: 0.8"/>
      </g>
     </g>
     <g id="text_11">
      <!-- 20 -->
      <g transform="translate(52.88588 395.016596) scale(0.1 -0.1)">
       <use xlink:href="#DejaVuSans-32"/>
       <use xlink:href="#DejaVuSans-30" x="63.623047"/>
      </g>
     </g>
    </g>
    <g id="ytick_4">
     <g id="line2d_11">
      <g>
       <use xlink:href="#m3231e372f3" x="72.61088" y="318.637646" style="stroke: #000000; stroke-width: 0.8"/>
      </g>
     </g>
     <g id="text_12">
      <!-- 30 -->
      <g transform="translate(52.88588 322.436864) scale(0.1 -0.1)">
       <use xlink:href="#DejaVuSans-33"/>
       <use xlink:href="#DejaVuSans-30" x="63.623047"/>
      </g>
     </g>
    </g>
    <g id="ytick_5">
     <g id="line2d_12">
      <g>
       <use xlink:href="#m3231e372f3" x="72.61088" y="246.057914" style="stroke: #000000; stroke-width: 0.8"/>
      </g>
     </g>
     <g id="text_13">
      <!-- 40 -->
      <g transform="translate(52.88588 249.857133) scale(0.1 -0.1)">
       <use xlink:href="#DejaVuSans-34"/>
       <use xlink:href="#DejaVuSans-30" x="63.623047"/>
      </g>
     </g>
    </g>
    <g id="ytick_6">
     <g id="line2d_13">
      <g>
       <use xlink:href="#m3231e372f3" x="72.61088" y="173.478183" style="stroke: #000000; stroke-width: 0.8"/>
      </g>
     </g>
     <g id="text_14">
      <!-- 50 -->
      <g transform="translate(52.88588 177.277401) scale(0.1 -0.1)">
       <use xlink:href="#DejaVuSans-35"/>
       <use xlink:href="#DejaVuSans-30" x="63.623047"/>
      </g>
     </g>
    </g>
    <g id="ytick_7">
     <g id="line2d_14">
      <g>
       <use xlink:href="#m3231e372f3" x="72.61088" y="100.898451" style="stroke: #000000; stroke-width: 0.8"/>
      </g>
     </g>
     <g id="text_15">
      <!-- 60 -->
      <g transform="translate(52.88588 104.69767) scale(0.1 -0.1)">
       <use xlink:href="#DejaVuSans-36"/>
       <use xlink:href="#DejaVuSans-30" x="63.623047"/>
      </g>
     </g>
    </g>
    <g id="text_16">
     <!-- Packets per Second -->
     <g transform="translate(45.766349 360.639549) rotate(-90) scale(0.15 -0.15)">
      <defs>
       <path id="DejaVuSans-50" d="M 1259 4147 
L 1259 2394 
L 2053 2394 
Q 2494 2394 2734 2622 
Q 2975 2850 2975 3272 
Q 2975 3691 2734 3919 
Q 2494 4147 2053 4147 
L 1259 4147 
z
M 628 4666 
L 2053 4666 
Q 2838 4666 3239 4311 
Q 3641 3956 3641 3272 
Q 3641 2581 3239 2228 
Q 2838 1875 2053 1875 
L 1259 1875 
L 1259 0 
L 628 0 
L 628 4666 
z
" transform="scale(0.015625)"/>
       <path id="DejaVuSans-61" d="M 2194 1759 
Q 1497 1759 1228 1600 
Q 959 1441 959 1056 
Q 959 750 1161 570 
Q 1363 391 1709 391 
Q 2188 391 2477 730 
Q 2766 1069 2766 1631 
L 2766 1759 
L 2194 1759 
z
M 3341 1997 
L 3341 0 
L 2766 0 
L 2766 531 
Q 2569 213 2275 61 
Q 1981 -91 1556 -91 
Q 1019 -91 701 211 
Q 384 513 384 1019 
Q 384 1609 779 1909 
Q 1175 2209 1959 2209 
L 2766 2209 
L 2766 2266 
Q 2766 2663 2505 2880 
Q 2244 3097 1772 3097 
Q 1472 3097 1187 3025 
Q 903 2953 641 2809 
L 641 3341 
Q 956 3463 1253 3523 
Q 1550 3584 1831 3584 
Q 2591 3584 2966 3190 
Q 3341 2797 3341 1997 
z
" transform="scale(0.015625)"/>
       <path id="DejaVuSans-63" d="M 3122 3366 
L 3122 2828 
Q 2878 2963 2633 3030 
Q 2388 3097 2138 3097 
Q 1578 3097 1268 2742 
Q 959 2388 959 1747 
Q 959 1106 1268 751 
Q 1578 397 2138 397 
Q 2388 397 2633 464 
Q 2878 531 3122 666 
L 3122 134 
Q 2881 22 2623 -34 
Q 2366 -91 2075 -91 
Q 1284 -91 818 406 
Q 353 903 353 1747 
Q 353 2603 823 3093 
Q 1294 3584 2113 3584 
Q 2378 3584 2631 3529 
Q 2884 3475 3122 3366 
z
" transform="scale(0.015625)"/>
       <path id="DejaVuSans-6b" d="M 581 4863 
L 1159 4863 
L 1159 1991 
L 2875 3500 
L 3609 3500 
L 1753 1863 
L 3688 0 
L 2938 0 
L 1159 1709 
L 1159 0 
L 581 0 
L 581 4863 
z
" transform="scale(0.015625)"/>
       <path id="DejaVuSans-74" d="M 1172 4494 
L 1172 3500 
L 2356 3500 
L 2356 3053 
L 1172 3053 
L 1172 1153 
Q 1172 725 1289 603 
Q 1406 481 1766 481 
L 2356 481 
L 2356 0 
L 1766 0 
Q 1100 0 847 248 
Q 594 497 594 1153 
L 594 3053 
L 172 3053 
L 172 3500 
L 594 3500 
L 594 4494 
L 1172 4494 
z
" transform="scale(0.015625)"/>
       <path id="DejaVuSans-70" d="M 1159 525 
L 1159 -1331 
L 581 -1331 
L 581 3500 
L 1159 3500 
L 1159 2969 
Q 1341 3281 1617 3432 
Q 1894 3584 2278 3584 
Q 2916 3584 3314 3078 
Q 3713 2572 3713 1747 
Q 3713 922 3314 415 
Q 2916 -91 2278 -91 
Q 1894 -91 1617 61 
Q 1341 213 1159 525 
z
M 3116 1747 
Q 3116 2381 2855 2742 
Q 2594 3103 2138 3103 
Q 1681 3103 1420 2742 
Q 1159 2381 1159 1747 
Q 1159 1113 1420 752 
Q 1681 391 2138 391 
Q 2594 391 2855 752 
Q 3116 1113 3116 1747 
z
" transform="scale(0.015625)"/>
       <path id="DejaVuSans-72" d="M 2631 2963 
Q 2534 3019 2420 3045 
Q 2306 3072 2169 3072 
Q 1681 3072 1420 2755 
Q 1159 2438 1159 1844 
L 1159 0 
L 581 0 
L 581 3500 
L 1159 3500 
L 1159 2956 
Q 1341 3275 1631 3429 
Q 1922 3584 2338 3584 
Q 2397 3584 2469 3576 
Q 2541 3569 2628 3553 
L 2631 2963 
z
" transform="scale(0.015625)"/>
       <path id="DejaVuSans-53" d="M 3425 4513 
L 3425 3897 
Q 3066 4069 2747 4153 
Q 2428 4238 2131 4238 
Q 1616 4238 1336 4038 
Q 1056 3838 1056 3469 
Q 1056 3159 1242 3001 
Q 1428 2844 1947 2747 
L 2328 2669 
Q 3034 2534 3370 2195 
Q 3706 1856 3706 1288 
Q 3706 609 3251 259 
Q 2797 -91 1919 -91 
Q 1588 -91 1214 -16 
Q 841 59 441 206 
L 441 856 
Q 825 641 1194 531 
Q 1563 422 1919 422 
Q 2459 422 2753 634 
Q 3047 847 3047 1241 
Q 3047 1584 2836 1778 
Q 2625 1972 2144 2069 
L 1759 2144 
Q 1053 2284 737 2584 
Q 422 2884 422 3419 
Q 422 4038 858 4394 
Q 1294 4750 2059 4750 
Q 2388 4750 2728 4690 
Q 3069 4631 3425 4513 
z
" transform="scale(0.015625)"/>
       <path id="DejaVuSans-6f" d="M 1959 3097 
Q 1497 3097 1228 2736 
Q 959 2375 959 1747 
Q 959 1119 1226 758 
Q 1494 397 1959 397 
Q 2419 397 2687 759 
Q 2956 1122 2956 1747 
Q 2956 2369 2687 2733 
Q 2419 3097 1959 3097 
z
M 1959 3584 
Q 2709 3584 3137 3096 
Q 3566 2609 3566 1747 
Q 3566 888 3137 398 
Q 2709 -91 1959 -91 
Q 1206 -91 779 398 
Q 353 888 353 1747 
Q 353 2609 779 3096 
Q 1206 3584 1959 3584 
z
" transform="scale(0.015625)"/>
       <path id="DejaVuSans-6e" d="M 3513 2113 
L 3513 0 
L 2938 0 
L 2938 2094 
Q 2938 2591 2744 2837 
Q 2550 3084 2163 3084 
Q 1697 3084 1428 2787 
Q 1159 2491 1159 1978 
L 1159 0 
L 581 0 
L 581 3500 
L 1159 3500 
L 1159 2956 
Q 1366 3272 1645 3428 
Q 1925 3584 2291 3584 
Q 2894 3584 3203 3211 
Q 3513 2838 3513 2113 
z
" transform="scale(0.015625)"/>
       <path id="DejaVuSans-64" d="M 2906 2969 
L 2906 4863 
L 3481 4863 
L 3481 0 
L 2906 0 
L 2906 525 
Q 2725 213 2448 61 
Q 2172 -91 1784 -91 
Q 1150 -91 751 415 
Q 353 922 353 1747 
Q 353 2572 751 3078 
Q 1150 3584 1784 3584 
Q 2172 3584 2448 3432 
Q 2725 3281 2906 2969 
z
M 947 1747 
Q 947 1113 1208 752 
Q 1469 391 1925 391 
Q 2381 391 2643 752 
Q 2906 1113 2906 1747 
Q 2906 2381 2643 2742 
Q 2381 3103 1925 3103 
Q 1469 3103 1208 2742 
Q 947 2381 947 1747 
z
" transform="scale(0.015625)"/>
      </defs>
      <use xlink:href="#DejaVuSans-50"/>
      <use xlink:href="#DejaVuSans-61" x="55.802734"/>
      <use xlink:href="#DejaVuSans-63" x="117.082031"/>
      <use xlink:href="#DejaVuSans-6b" x="172.0625"/>
      <use xlink:href="#DejaVuSans-65" x="226.347656"/>
      <use xlink:href="#DejaVuSans-74" x="287.871094"/>
      <use xlink:href="#DejaVuSans-73" x="327.080078"/>
      <use xlink:href="#DejaVuSans-20" x="379.179688"/>
      <use xlink:href="#DejaVuSans-70" x="410.966797"/>
      <use xlink:href="#DejaVuSans-65" x="474.443359"/>
      <use xlink:href="#DejaVuSans-72" x="535.966797"/>
      <use xlink:href="#DejaVuSans-20" x="577.080078"/>
      <use xlink:href="#DejaVuSans-53" x="608.867188"/>
      <use xlink:href="#DejaVuSans-65" x="672.34375"/>
      <use xlink:href="#DejaVuSans-63" x="733.867188"/>
      <use xlink:href="#DejaVuSans-6f" x="788.847656"/>
      <use xlink:href="#DejaVuSans-6e" x="850.029297"/>
      <use xlink:href="#DejaVuSans-64" x="913.408203"/>
     </g>
    </g>
   </g>
   <g id="line2d_15">
    <path d="M 72.61088 102.498514 
L 75.147297 101.621356 
L 77.688061 102.365074 
L 80.297825 113.840037 
L 83.19734 92.679201 
L 85.883181 125.808491 
L 88.332496 123.678526 
L 91.071102 100.164213 
L 93.547534 91.090387 
L 96.080212 100.979616 
L 98.856228 72.939927 
L 101.463796 113.48422 
L 104.127123 122.337698 
L 106.634031 96.503898 
L 109.215524 109.212582 
L 112.043282 81.419818 
L 114.571448 136.550442 
L 117.115351 66.777631 
L 120.012376 92.297633 
L 122.5498 101.793979 
L 125.110323 141.602795 
L 127.695384 74.254305 
L 130.233761 101.957065 
L 133.182648 131.269833 
L 135.919211 99.838415 
L 138.394971 90.969764 
L 140.928494 101.124641 
L 143.433774 96.218 
L 145.995774 105.962525 
L 148.837924 83.723701 
L 151.492905 121.03629 
L 154.029296 101.616781 
L 156.565714 101.621473 
L 159.107715 102.576346 
L 161.87909 72.163952 
L 164.468979 146.079033 
L 167.433586 71.424235 
L 170.392571 101.59658 
L 173.062874 123.419593 
L 175.596363 101.118857 
L 178.086139 93.477016 
L 180.656963 107.43982 
L 183.431643 72.716867 
L 185.965827 101.238146 
L 188.565116 112.137373 
L 191.092922 136.493321 
L 193.767575 89.73385 
L 196.299387 100.830599 
L 199.067931 71.689268 
L 201.662158 111.309334 
L 204.191712 136.769652 
L 206.726962 101.421337 
L 209.367439 83.952946 
L 212.165588 76.605647 
L 214.953904 140.897533 
L 217.380088 81.868301 
L 220.181481 109.940874 
L 222.854828 89.5157 
L 225.380005 99.686228 
L 227.923996 102.915639 
L 230.458755 101.336904 
L 232.989138 100.584556 
L 235.452683 126.062468 
L 237.997378 66.923803 
L 240.71206 130.170476 
L 243.409134 93.44688 
L 245.950804 66.365141 
L 248.629882 124.772069 
L 251.078692 86.067674 
L 253.738902 121.852742 
L 256.498144 70.12261 
L 259.092645 111.354301 
L 262.039928 131.049366 
L 264.710426 89.038985 
L 267.361091 120.35998 
L 270.068218 61.146854 
L 272.728221 121.820403 
L 275.260575 100.923751 
L 278.022247 70.53291 
L 280.609153 145.629067 
L 283.498644 91.139855 
L 286.094182 111.52403 
L 288.62687 100.981224 
L 291.169766 66.591703 
L 293.95435 140.367491 
L 296.491915 101.818017 
L 299.187471 59.106761 
L 301.719436 100.856876 
L 304.433943 130.144228 
L 307.206198 72.31123 
L 309.855983 120.221847 
L 312.492201 118.080141 
L 315.225802 65.749141 
L 317.940758 130.211384 
L 320.407466 89.335221 
L 323.004771 111.813176 
L 325.566209 105.868044 
L 328.109249 102.753615 
L 330.665837 105.051433 
L 333.197548 100.813224 
L 335.905593 61.307803 
L 338.491292 109.907503 
L 341.088893 111.861577 
L 343.501919 79.389947 
L 346.162684 121.939182 
L 348.62031 87.683101 
L 351.352288 132.742018 
L 353.97906 81.59257 
L 356.575241 111.629276 
L 359.465804 91.305046 
L 362.062119 111.65124 
L 364.665622 77.527917 
L 367.319907 120.927378 
L 369.916279 111.660578 
L 372.549462 82.699827 
L 375.151876 77.33581 
L 377.812592 121.931477 
L 380.472599 121.821053 
L 382.999912 100.055227 
L 385.633475 82.765162 
L 388.229219 111.557827 
L 390.761678 100.941907 
L 393.422515 87.414725 
L 395.919696 94.790506 
L 398.487767 106.980117 
L 401.118477 117.20425 
L 403.616841 94.999514 
L 406.219301 112.654123 
L 408.91086 92.539377 
L 411.577801 88.442432 
L 414.398035 112.789722 
L 416.931543 101.121994 
L 419.597005 88.193958 
L 422.353917 103.060499 
L 424.949336 111.504781 
L 427.611099 87.570857 
L 430.242593 117.329323 
L 432.968953 98.204735 
L 435.501466 100.951205 
L 438.161834 87.335617 
L 440.694129 100.913546 
L 443.522411 113.995186 
L 446.059152 65.45181 
L 448.5975 101.951916 
L 451.252841 121.092711 
L 453.919855 122.910082 
L 456.605491 91.560503 
L 459.241929 83.259972 
L 461.804464 106.052468 
L 464.633042 81.551636 
L 467.286299 120.766458 
L 470.122002 82.694623 
L 472.782969 121.970606 
L 475.378307 111.491288 
L 477.802958 81.580945 
L 480.36972 106.761116 
L 483.195912 113.682775 
L 485.729019 101.053217 
L 488.325585 76.301999 
L 490.887078 105.877373 
L 493.588416 128.163815 
L 496.116309 100.155265 
L 498.66063 102.97202 
L 501.346297 91.565578 
L 503.878489 100.895814 
L 506.41243 101.196558 
L 508.943604 100.720756 
L 511.604934 87.497931 
L 514.442644 83.015498 
L 517.098348 121.149323 
L 519.631003 100.975637 
L 522.456441 81.046242 
L 525.122324 122.734704 
L 527.650607 100.222698 
L 530.477038 81.206343 
L 533.008985 100.853769 
L 535.537081 136.539096 
L 538.49135 100.902564 
L 541.033452 66.445039 
L 543.694334 121.957286 
L 546.222915 100.274017 
L 548.749195 99.876906 
L 551.346607 111.830618 
L 554.107824 103.736186 
L 556.640251 100.936265 
L 559.301174 87.42929 
L 561.840613 102.138692 
L 564.670515 81.76468 
L 567.203286 100.995382 
L 569.735953 100.977554 
L 572.396836 121.957647 
L 574.929342 100.949816 
L 577.691887 70.680063 
L 580.214378 135.650777 
L 582.756999 66.540947 
L 585.354018 111.766369 
L 587.940731 110.074753 
L 590.838395 92.395675 
L 593.50328 122.579841 
L 596.318938 112.101325 
L 599.210204 91.413182 
L 601.806257 111.608447 
L 604.703182 60.561407 
L 607.299292 111.617785 
L 610.185279 122.440517 
L 612.78782 77.358316 
L 615.448539 121.931863 
L 618.279855 81.99165 
L 621.160789 121.714507 
L 623.75595 111.462476 
L 626.294822 65.847074 
L 628.949473 120.984607 
L 631.786803 82.954793 
L 634.667957 121.746141 
L 637.199929 100.858044 
L 639.73405 101.227454 
L 642.329493 111.508623 
L 645.230395 61.213741 
L 647.817079 145.59539 
L 650.708742 91.474305 
L 653.379038 89.005235 
L 655.91147 100.937136 
L 658.434667 99.343489 
L 661.03882 112.929636 
L 663.803779 71.086634 
L 666.454525 120.372753 
L 669.351836 92.341533 
L 671.888086 101.592762 
L 674.549264 122.003504 
L 677.081569 100.915188 
L 679.610946 100.411419 
L 682.376927 71.258475 
L 684.909686 100.993393 
L 687.571682 122.130821 
L 690.397797 81.155427 
L 692.924556 136.327671 
L 695.959033 82.129949 
L 698.897089 129.776377 
L 701.430047 101.027628 
L 703.905876 53.865869 
L 706.642102 133.368765 
L 709.386449 101.076635 
L 711.935947 67.808262 
L 714.469576 101.142815 
L 717.130636 121.985104 
L 719.597548 89.372037 
L 722.48854 91.371073 
L 725.08579 111.804161 
L 728.023993 129.796808 
L 730.994927 72.414403 
L 733.885958 91.377054 
L 736.482924 111.757815 
L 739.438263 101.060133 
L 741.97218 101.192372 
L 744.494073 99.117628 
L 747.154986 121.962076 
L 749.971586 112.243331 
L 752.504858 101.081588 
L 755.394485 91.160698 
L 757.937114 66.542358 
L 760.470064 101.02632 
L 763.066686 111.701444 
L 765.782407 130.325918 
L 768.554592 72.29938 
L 771.076966 135.632264 
L 773.615214 65.731416 
L 776.510713 92.063775 
L 779.161845 120.433167 
L 781.758624 111.727249 
L 784.301138 102.663811 
L 787.12848 81.352938 
L 789.779675 120.443126 
L 792.311037 100.753081 
L 794.9449 117.706151 
L 797.672143 98.346735 
L 800.204484 100.921443 
L 803.168869 71.389487 
L 805.784977 114.864653 
L 808.588435 77.476401 
L 811.179396 146.240504 
L 813.721987 66.535473 
L 816.373288 120.459785 
L 818.913504 102.271489 
L 821.737638 80.836084 
L 824.275113 101.802533 
L 826.93639 122.018903 
L 829.468713 100.918332 
L 831.998972 100.563341 
L 831.998972 100.563341 
" clip-path="url(#p6650648780)" style="fill: none; stroke: #1f77b4; stroke-width: 1.5; stroke-linecap: square"/>
   </g>
   <g id="line2d_16">
    <path d="M 72.61088 101.329605 
L 869.968377 101.329605 
" clip-path="url(#p6650648780)" style="fill: none; stroke-dasharray: 5.55,2.4; stroke-dashoffset: 0; stroke: #0000ff; stroke-width: 1.5"/>
   </g>
   <g id="line2d_17">
    <path d="M 72.61088 319.442566 
L 75.147285 355.227849 
L 77.688064 319.372298 
L 80.297819 289.896167 
L 83.197335 314.528039 
L 85.883138 331.089755 
L 88.332477 348.788614 
L 91.071041 301.489458 
L 93.547432 313.729937 
L 96.080095 318.676951 
L 98.856202 337.767484 
L 101.463802 289.692501 
L 104.127071 363.856857 
L 106.633968 316.439326 
L 109.215473 287.19888 
L 112.043278 308.902166 
L 114.571451 354.638014 
L 117.115355 319.638837 
L 120.012374 314.33682 
L 122.549803 319.085719 
L 125.110187 321.033927 
L 127.695322 287.548825 
L 130.233754 319.171575 
L 133.182637 349.404133 
L 135.919208 301.318425 
L 138.394971 313.673457 
L 140.92849 355.021539 
L 143.433776 279.618094 
L 145.995772 357.037252 
L 148.837922 277.717922 
L 151.492899 363.31803 
L 154.029294 282.767204 
L 159.107707 355.634058 
L 161.879078 271.111897 
L 164.468971 358.969051 
L 167.433582 319.399258 
L 170.392563 318.986453 
L 173.062861 295.484536 
L 175.596206 318.735519 
L 178.08613 314.940127 
L 180.656952 321.908163 
L 183.431506 337.656413 
L 185.965781 318.815282 
L 188.565095 324.259153 
L 191.092908 318.259172 
L 193.767568 295.877375 
L 196.299372 318.603084 
L 199.067923 304.033555 
L 201.662149 359.265379 
L 204.191705 318.409414 
L 206.726826 318.888022 
L 209.367404 327.573764 
L 212.165567 273.651845 
L 214.953871 338.63633 
L 217.380054 346.998198 
L 220.181462 306.758632 
L 222.854775 295.756296 
L 225.379969 318.032982 
L 227.923984 319.648312 
L 230.458748 318.857249 
L 232.989123 318.480034 
L 235.452666 349.870185 
L 237.997365 283.594847 
L 240.712055 333.274245 
L 243.409056 331.942058 
L 245.950681 283.289134 
L 248.629878 330.583605 
L 251.07869 311.222471 
L 253.738869 329.11233 
L 256.497999 336.545504 
L 259.092627 323.87602 
L 262.039879 318.121301 
L 264.710422 295.506627 
L 267.36108 328.367905 
L 270.068184 298.759799 
L 272.728213 329.100612 
L 275.260563 318.650011 
L 278.022211 303.452786 
L 280.609147 358.76626 
L 283.498632 313.757919 
L 286.094173 323.95076 
L 288.626857 318.678662 
L 291.169586 283.399003 
L 293.954342 338.384334 
L 296.4919 319.096849 
L 299.187455 297.741741 
L 301.719422 318.617031 
L 304.433934 333.260884 
L 307.206188 304.343938 
L 309.855966 362.978456 
L 312.492181 292.370167 
L 315.225673 301.053631 
L 317.940698 333.299275 
L 320.407448 312.859794 
L 323.004754 324.095069 
L 325.566009 321.107142 
L 328.109122 319.571458 
L 330.665754 320.717852 
L 333.197528 318.600379 
L 335.905459 298.832402 
L 338.49127 358.688962 
L 341.088699 324.105121 
L 343.501906 269.821189 
L 346.162604 329.152721 
L 348.620178 312.025291 
L 351.352231 334.564935 
L 353.979036 326.479028 
L 356.575221 324.003471 
L 359.4656 313.826742 
L 362.062091 324.028465 
L 364.665481 324.591175 
L 367.319835 294.037653 
L 369.916255 324.022576 
L 372.549433 326.987039 
L 375.151847 324.51177 
L 377.812566 329.154439 
L 380.472572 294.552479 
L 382.999893 318.216744 
L 385.633293 327.00465 
L 388.229178 323.978924 
L 390.76147 318.644979 
L 393.422372 329.16863 
L 395.919601 315.587831 
L 398.487736 285.901719 
L 401.118442 326.790279 
L 403.616813 315.688735 
L 406.21921 324.510385 
L 408.910831 331.533465 
L 411.5777 329.632309 
L 414.398 308.296759 
L 419.59698 329.528317 
L 422.35388 303.051691 
L 424.949304 323.941196 
L 427.611067 294.712124 
L 430.24256 326.852968 
L 432.96893 334.144305 
L 435.501422 318.662166 
L 438.161693 294.576635 
L 440.694092 318.65419 
L 443.522257 341.423344 
L 446.059119 319.037205 
L 448.597464 282.962099 
L 451.252802 363.341541 
L 453.919826 295.188891 
L 456.605347 331.068208 
L 459.241889 327.254123 
L 461.80436 321.209323 
L 464.63299 308.968468 
L 467.286259 328.572539 
L 470.121897 277.12393 
L 472.782814 329.169767 
L 475.378154 323.934288 
L 477.802735 346.873113 
L 480.369688 321.584981 
L 483.195874 308.771807 
L 485.728812 318.700464 
L 488.325544 324.048215 
L 490.887029 321.126467 
L 493.588308 298.247298 
L 496.116157 318.26234 
L 498.660589 319.683779 
L 501.346188 331.074151 
L 503.878447 318.642201 
L 506.41239 318.786773 
L 508.943559 318.548451 
L 511.604891 294.672951 
L 514.442522 309.689829 
L 517.098178 328.759384 
L 519.630841 318.676879 
L 522.456392 341.242933 
L 525.122278 295.085956 
L 527.650503 318.294747 
L 530.47688 341.300019 
L 533.008938 318.624821 
L 535.536856 318.268239 
L 538.491298 318.652426 
L 541.033292 283.325877 
L 543.694217 329.170404 
L 546.222865 318.331227 
L 548.749142 318.126603 
L 551.346485 324.098121 
L 554.107769 336.701377 
L 556.640088 318.647267 
L 559.300943 329.164987 
L 561.840444 319.26307 
L 564.670459 276.608801 
L 567.203163 318.680358 
L 569.735905 318.683681 
L 572.396653 329.156645 
L 574.929273 318.673203 
L 577.691758 303.523366 
L 580.21429 354.231617 
L 582.756928 283.389918 
L 585.35395 324.071874 
L 587.940661 323.225641 
L 590.838324 346.099108 
L 593.503132 294.98833 
L 596.318868 340.562779 
L 599.210132 313.894848 
L 601.806117 323.987088 
L 604.703114 314.335169 
L 607.299222 323.997143 
L 610.185131 313.482 
L 612.787749 324.528359 
L 615.448457 329.153612 
L 618.279666 276.718315 
L 621.160586 344.993273 
L 623.755873 323.929966 
L 626.294672 319.203008 
L 628.949398 328.68661 
L 631.786733 277.278906 
L 634.667883 345.008629 
L 637.199857 318.617571 
L 639.733975 318.801857 
L 642.329413 323.942315 
L 645.230309 282.956027 
L 647.817003 358.749617 
L 650.708665 313.925528 
L 653.378772 295.467362 
L 655.911401 318.673918 
L 658.434592 354.279145 
L 661.038678 324.647796 
L 663.803699 270.502698 
L 666.454445 363.04182 
L 669.351676 314.353051 
L 671.888012 282.76133 
L 674.54918 329.189396 
L 677.081299 318.630069 
L 679.610752 318.400669 
L 682.376845 303.82711 
L 684.909533 318.679003 
L 687.5716 329.259332 
L 690.397711 308.765824 
L 692.924326 354.525922 
L 695.958921 294.121261 
L 698.896943 348.712946 
L 701.429945 318.705966 
L 703.905752 276.560999 
L 706.641994 334.873958 
L 709.386349 335.469616 
L 711.935768 284.062812 
L 714.469476 318.766652 
L 717.130534 329.180842 
L 719.597374 312.867921 
L 722.488442 313.879798 
L 725.085689 324.090252 
L 728.023818 348.719815 
L 730.994824 288.936163 
L 733.885856 313.877069 
L 736.48275 324.061408 
L 739.438166 318.724163 
L 741.972031 318.780182 
L 744.493869 317.742394 
L 747.154904 329.179016 
L 749.971501 340.622638 
L 752.504594 318.713797 
L 755.394282 313.773578 
L 757.937041 283.401915 
L 760.469977 318.700343 
L 763.066613 324.040331 
L 765.782332 333.351215 
L 768.554501 304.336823 
L 771.076886 354.220944 
L 773.615132 319.155688 
L 776.510634 282.483888 
L 779.161696 363.062475 
L 781.758429 324.048259 
L 784.301053 283.388539 
L 787.128334 308.859991 
L 789.779604 328.415855 
L 792.310952 318.563809 
L 794.944631 327.026817 
L 797.672057 334.222616 
L 800.2044 318.649345 
L 803.168788 288.383835 
L 805.784823 325.614867 
L 808.588352 339.710239 
L 811.179306 323.574625 
L 813.721906 283.386145 
L 816.373086 328.408809 
L 818.913409 355.507228 
L 821.737433 308.597585 
L 824.275027 282.887092 
L 826.936076 329.180161 
L 829.468616 318.666242 
L 831.998122 318.405217 
L 831.998122 318.405217 
" clip-path="url(#p6650648780)" style="fill: none; stroke: #ff7f0e; stroke-width: 1.5; stroke-linecap: square"/>
   </g>
   <g id="line2d_18">
    <path d="M 72.61088 318.877228 
L 869.968377 318.877228 
" clip-path="url(#p6650648780)" style="fill: none; stroke-dasharray: 5.55,2.4; stroke-dashoffset: 0; stroke: #ffa500; stroke-width: 1.5"/>
   </g>
   <g id="patch_3">
    <path d="M 72.61088 536.37684 
L 72.61088 38.36632 
" style="fill: none; stroke: #000000; stroke-width: 0.8; stroke-linejoin: miter; stroke-linecap: square"/>
   </g>
   <g id="patch_4">
    <path d="M 869.968377 536.37684 
L 869.968377 38.36632 
" style="fill: none; stroke: #000000; stroke-width: 0.8; stroke-linejoin: miter; stroke-linecap: square"/>
   </g>
   <g id="patch_5">
    <path d="M 72.61088 536.37684 
L 869.968377 536.37684 
" style="fill: none; stroke: #000000; stroke-width: 0.8; stroke-linejoin: miter; stroke-linecap: square"/>
   </g>
   <g id="patch_6">
    <path d="M 72.61088 38.36632 
L 869.968377 38.36632 
" style="fill: none; stroke: #000000; stroke-width: 0.8; stroke-linejoin: miter; stroke-linecap: square"/>
   </g>
   <g id="text_17">
    <!-- Packet Rates for Camera Flows -->
    <g transform="translate(341.438753 32.36632) scale(0.168 -0.168)">
     <defs>
      <path id="DejaVuSans-52" d="M 2841 2188 
Q 3044 2119 3236 1894 
Q 3428 1669 3622 1275 
L 4263 0 
L 3584 0 
L 2988 1197 
Q 2756 1666 2539 1819 
Q 2322 1972 1947 1972 
L 1259 1972 
L 1259 0 
L 628 0 
L 628 4666 
L 2053 4666 
Q 2853 4666 3247 4331 
Q 3641 3997 3641 3322 
Q 3641 2881 3436 2590 
Q 3231 2300 2841 2188 
z
M 1259 4147 
L 1259 2491 
L 2053 2491 
Q 2509 2491 2742 2702 
Q 2975 2913 2975 3322 
Q 2975 3731 2742 3939 
Q 2509 4147 2053 4147 
L 1259 4147 
z
" transform="scale(0.015625)"/>
      <path id="DejaVuSans-66" d="M 2375 4863 
L 2375 4384 
L 1825 4384 
Q 1516 4384 1395 4259 
Q 1275 4134 1275 3809 
L 1275 3500 
L 2222 3500 
L 2222 3053 
L 1275 3053 
L 1275 0 
L 697 0 
L 697 3053 
L 147 3053 
L 147 3500 
L 697 3500 
L 697 3744 
Q 697 4328 969 4595 
Q 1241 4863 1831 4863 
L 2375 4863 
z
" transform="scale(0.015625)"/>
      <path id="DejaVuSans-43" d="M 4122 4306 
L 4122 3641 
Q 3803 3938 3442 4084 
Q 3081 4231 2675 4231 
Q 1875 4231 1450 3742 
Q 1025 3253 1025 2328 
Q 1025 1406 1450 917 
Q 1875 428 2675 428 
Q 3081 428 3442 575 
Q 3803 722 4122 1019 
L 4122 359 
Q 3791 134 3420 21 
Q 3050 -91 2638 -91 
Q 1578 -91 968 557 
Q 359 1206 359 2328 
Q 359 3453 968 4101 
Q 1578 4750 2638 4750 
Q 3056 4750 3426 4639 
Q 3797 4528 4122 4306 
z
" transform="scale(0.015625)"/>
      <path id="DejaVuSans-46" d="M 628 4666 
L 3309 4666 
L 3309 4134 
L 1259 4134 
L 1259 2759 
L 3109 2759 
L 3109 2228 
L 1259 2228 
L 1259 0 
L 628 0 
L 628 4666 
z
" transform="scale(0.015625)"/>
      <path id="DejaVuSans-6c" d="M 603 4863 
L 1178 4863 
L 1178 0 
L 603 0 
L 603 4863 
z
" transform="scale(0.015625)"/>
      <path id="DejaVuSans-77" d="M 269 3500 
L 844 3500 
L 1563 769 
L 2278 3500 
L 2956 3500 
L 3675 769 
L 4391 3500 
L 4966 3500 
L 4050 0 
L 3372 0 
L 2619 2869 
L 1863 0 
L 1184 0 
L 269 3500 
z
" transform="scale(0.015625)"/>
     </defs>
     <use xlink:href="#DejaVuSans-50"/>
     <use xlink:href="#DejaVuSans-61" x="55.802734"/>
     <use xlink:href="#DejaVuSans-63" x="117.082031"/>
     <use xlink:href="#DejaVuSans-6b" x="172.0625"/>
     <use xlink:href="#DejaVuSans-65" x="226.347656"/>
     <use xlink:href="#DejaVuSans-74" x="287.871094"/>
     <use xlink:href="#DejaVuSans-20" x="327.080078"/>
     <use xlink:href="#DejaVuSans-52" x="358.867188"/>
     <use xlink:href="#DejaVuSans-61" x="426.099609"/>
     <use xlink:href="#DejaVuSans-74" x="487.378906"/>
     <use xlink:href="#DejaVuSans-65" x="526.587891"/>
     <use xlink:href="#DejaVuSans-73" x="588.111328"/>
     <use xlink:href="#DejaVuSans-20" x="640.210938"/>
     <use xlink:href="#DejaVuSans-66" x="671.998047"/>
     <use xlink:href="#DejaVuSans-6f" x="707.203125"/>
     <use xlink:href="#DejaVuSans-72" x="768.384766"/>
     <use xlink:href="#DejaVuSans-20" x="809.498047"/>
     <use xlink:href="#DejaVuSans-43" x="841.285156"/>
     <use xlink:href="#DejaVuSans-61" x="911.109375"/>
     <use xlink:href="#DejaVuSans-6d" x="972.388672"/>
     <use xlink:href="#DejaVuSans-65" x="1069.800781"/>
     <use xlink:href="#DejaVuSans-72" x="1131.324219"/>
     <use xlink:href="#DejaVuSans-61" x="1172.4375"/>
     <use xlink:href="#DejaVuSans-20" x="1233.716797"/>
     <use xlink:href="#DejaVuSans-46" x="1265.503906"/>
     <use xlink:href="#DejaVuSans-6c" x="1323.023438"/>
     <use xlink:href="#DejaVuSans-6f" x="1350.806641"/>
     <use xlink:href="#DejaVuSans-77" x="1411.988281"/>
     <use xlink:href="#DejaVuSans-73" x="1493.775391"/>
    </g>
   </g>
   <g id="legend_1">
    <g id="patch_7">
     <path d="M 879.768377 330.57033 
L 1173.757439 330.57033 
Q 1176.557439 330.57033 1176.557439 327.77033 
L 1176.557439 246.97283 
Q 1176.557439 244.17283 1173.757439 244.17283 
L 879.768377 244.17283 
Q 876.968377 244.17283 876.968377 246.97283 
L 876.968377 327.77033 
Q 876.968377 330.57033 879.768377 330.57033 
z
" style="fill: #ffffff; opacity: 0.8; stroke: #cccccc; stroke-linejoin: miter"/>
    </g>
    <g id="line2d_19">
     <path d="M 882.568377 255.510642 
L 896.568377 255.510642 
L 910.568377 255.510642 
" style="fill: none; stroke: #1f77b4; stroke-width: 1.5; stroke-linecap: square"/>
    </g>
    <g id="text_18">
     <!-- Cam 1 (Mean Error Deviation: 2.06) -->
     <g transform="translate(921.768377 260.410642) scale(0.14 -0.14)">
      <defs>
       <path id="DejaVuSans-4d" d="M 628 4666 
L 1569 4666 
L 2759 1491 
L 3956 4666 
L 4897 4666 
L 4897 0 
L 4281 0 
L 4281 4097 
L 3078 897 
L 2444 897 
L 1241 4097 
L 1241 0 
L 628 0 
L 628 4666 
z
" transform="scale(0.015625)"/>
       <path id="DejaVuSans-45" d="M 628 4666 
L 3578 4666 
L 3578 4134 
L 1259 4134 
L 1259 2753 
L 3481 2753 
L 3481 2222 
L 1259 2222 
L 1259 531 
L 3634 531 
L 3634 0 
L 628 0 
L 628 4666 
z
" transform="scale(0.015625)"/>
       <path id="DejaVuSans-44" d="M 1259 4147 
L 1259 519 
L 2022 519 
Q 2988 519 3436 956 
Q 3884 1394 3884 2338 
Q 3884 3275 3436 3711 
Q 2988 4147 2022 4147 
L 1259 4147 
z
M 628 4666 
L 1925 4666 
Q 3281 4666 3915 4102 
Q 4550 3538 4550 2338 
Q 4550 1131 3912 565 
Q 3275 0 1925 0 
L 628 0 
L 628 4666 
z
" transform="scale(0.015625)"/>
       <path id="DejaVuSans-76" d="M 191 3500 
L 800 3500 
L 1894 563 
L 2988 3500 
L 3597 3500 
L 2284 0 
L 1503 0 
L 191 3500 
z
" transform="scale(0.015625)"/>
       <path id="DejaVuSans-3a" d="M 750 794 
L 1409 794 
L 1409 0 
L 750 0 
L 750 794 
z
M 750 3309 
L 1409 3309 
L 1409 2516 
L 750 2516 
L 750 3309 
z
" transform="scale(0.015625)"/>
       <path id="DejaVuSans-2e" d="M 684 794 
L 1344 794 
L 1344 0 
L 684 0 
L 684 794 
z
" transform="scale(0.015625)"/>
      </defs>
      <use xlink:href="#DejaVuSans-43"/>
      <use xlink:href="#DejaVuSans-61" x="69.824219"/>
      <use xlink:href="#DejaVuSans-6d" x="131.103516"/>
      <use xlink:href="#DejaVuSans-20" x="228.515625"/>
      <use xlink:href="#DejaVuSans-31" x="260.302734"/>
      <use xlink:href="#DejaVuSans-20" x="323.925781"/>
      <use xlink:href="#DejaVuSans-28" x="355.712891"/>
      <use xlink:href="#DejaVuSans-4d" x="394.726562"/>
      <use xlink:href="#DejaVuSans-65" x="481.005859"/>
      <use xlink:href="#DejaVuSans-61" x="542.529297"/>
      <use xlink:href="#DejaVuSans-6e" x="603.808594"/>
      <use xlink:href="#DejaVuSans-20" x="667.1875"/>
      <use xlink:href="#DejaVuSans-45" x="698.974609"/>
      <use xlink:href="#DejaVuSans-72" x="762.158203"/>
      <use xlink:href="#DejaVuSans-72" x="801.521484"/>
      <use xlink:href="#DejaVuSans-6f" x="840.384766"/>
      <use xlink:href="#DejaVuSans-72" x="901.566406"/>
      <use xlink:href="#DejaVuSans-20" x="942.679688"/>
      <use xlink:href="#DejaVuSans-44" x="974.466797"/>
      <use xlink:href="#DejaVuSans-65" x="1051.46875"/>
      <use xlink:href="#DejaVuSans-76" x="1112.992188"/>
      <use xlink:href="#DejaVuSans-69" x="1172.171875"/>
      <use xlink:href="#DejaVuSans-61" x="1199.955078"/>
      <use xlink:href="#DejaVuSans-74" x="1261.234375"/>
      <use xlink:href="#DejaVuSans-69" x="1300.443359"/>
      <use xlink:href="#DejaVuSans-6f" x="1328.226562"/>
      <use xlink:href="#DejaVuSans-6e" x="1389.408203"/>
      <use xlink:href="#DejaVuSans-3a" x="1452.787109"/>
      <use xlink:href="#DejaVuSans-20" x="1486.478516"/>
      <use xlink:href="#DejaVuSans-32" x="1518.265625"/>
      <use xlink:href="#DejaVuSans-2e" x="1581.888672"/>
      <use xlink:href="#DejaVuSans-30" x="1613.675781"/>
      <use xlink:href="#DejaVuSans-36" x="1677.298828"/>
      <use xlink:href="#DejaVuSans-29" x="1740.921875"/>
     </g>
    </g>
    <g id="line2d_20">
     <path d="M 882.568377 276.060018 
L 896.568377 276.060018 
L 910.568377 276.060018 
" style="fill: none; stroke-dasharray: 5.55,2.4; stroke-dashoffset: 0; stroke: #0000ff; stroke-width: 1.5"/>
    </g>
    <g id="text_19">
     <!-- Cam 1 Average -->
     <g transform="translate(921.768377 280.960017) scale(0.14 -0.14)">
      <defs>
       <path id="DejaVuSans-41" d="M 2188 4044 
L 1331 1722 
L 3047 1722 
L 2188 4044 
z
M 1831 4666 
L 2547 4666 
L 4325 0 
L 3669 0 
L 3244 1197 
L 1141 1197 
L 716 0 
L 50 0 
L 1831 4666 
z
" transform="scale(0.015625)"/>
       <path id="DejaVuSans-67" d="M 2906 1791 
Q 2906 2416 2648 2759 
Q 2391 3103 1925 3103 
Q 1463 3103 1205 2759 
Q 947 2416 947 1791 
Q 947 1169 1205 825 
Q 1463 481 1925 481 
Q 2391 481 2648 825 
Q 2906 1169 2906 1791 
z
M 3481 434 
Q 3481 -459 3084 -895 
Q 2688 -1331 1869 -1331 
Q 1566 -1331 1297 -1286 
Q 1028 -1241 775 -1147 
L 775 -588 
Q 1028 -725 1275 -790 
Q 1522 -856 1778 -856 
Q 2344 -856 2625 -561 
Q 2906 -266 2906 331 
L 2906 616 
Q 2728 306 2450 153 
Q 2172 0 1784 0 
Q 1141 0 747 490 
Q 353 981 353 1791 
Q 353 2603 747 3093 
Q 1141 3584 1784 3584 
Q 2172 3584 2450 3431 
Q 2728 3278 2906 2969 
L 2906 3500 
L 3481 3500 
L 3481 434 
z
" transform="scale(0.015625)"/>
      </defs>
      <use xlink:href="#DejaVuSans-43"/>
      <use xlink:href="#DejaVuSans-61" x="69.824219"/>
      <use xlink:href="#DejaVuSans-6d" x="131.103516"/>
      <use xlink:href="#DejaVuSans-20" x="228.515625"/>
      <use xlink:href="#DejaVuSans-31" x="260.302734"/>
      <use xlink:href="#DejaVuSans-20" x="323.925781"/>
      <use xlink:href="#DejaVuSans-41" x="355.712891"/>
      <use xlink:href="#DejaVuSans-76" x="418.246094"/>
      <use xlink:href="#DejaVuSans-65" x="477.425781"/>
      <use xlink:href="#DejaVuSans-72" x="538.949219"/>
      <use xlink:href="#DejaVuSans-61" x="580.0625"/>
      <use xlink:href="#DejaVuSans-67" x="641.341797"/>
      <use xlink:href="#DejaVuSans-65" x="704.818359"/>
     </g>
    </g>
    <g id="line2d_21">
     <path d="M 882.568377 296.609393 
L 896.568377 296.609393 
L 910.568377 296.609393 
" style="fill: none; stroke: #ff7f0e; stroke-width: 1.5; stroke-linecap: square"/>
    </g>
    <g id="text_20">
     <!-- Cam 2 (Mean Error Deviation: 1.96) -->
     <g transform="translate(921.768377 301.509392) scale(0.14 -0.14)">
      <defs>
       <path id="DejaVuSans-39" d="M 703 97 
L 703 672 
Q 941 559 1184 500 
Q 1428 441 1663 441 
Q 2288 441 2617 861 
Q 2947 1281 2994 2138 
Q 2813 1869 2534 1725 
Q 2256 1581 1919 1581 
Q 1219 1581 811 2004 
Q 403 2428 403 3163 
Q 403 3881 828 4315 
Q 1253 4750 1959 4750 
Q 2769 4750 3195 4129 
Q 3622 3509 3622 2328 
Q 3622 1225 3098 567 
Q 2575 -91 1691 -91 
Q 1453 -91 1209 -44 
Q 966 3 703 97 
z
M 1959 2075 
Q 2384 2075 2632 2365 
Q 2881 2656 2881 3163 
Q 2881 3666 2632 3958 
Q 2384 4250 1959 4250 
Q 1534 4250 1286 3958 
Q 1038 3666 1038 3163 
Q 1038 2656 1286 2365 
Q 1534 2075 1959 2075 
z
" transform="scale(0.015625)"/>
      </defs>
      <use xlink:href="#DejaVuSans-43"/>
      <use xlink:href="#DejaVuSans-61" x="69.824219"/>
      <use xlink:href="#DejaVuSans-6d" x="131.103516"/>
      <use xlink:href="#DejaVuSans-20" x="228.515625"/>
      <use xlink:href="#DejaVuSans-32" x="260.302734"/>
      <use xlink:href="#DejaVuSans-20" x="323.925781"/>
      <use xlink:href="#DejaVuSans-28" x="355.712891"/>
      <use xlink:href="#DejaVuSans-4d" x="394.726562"/>
      <use xlink:href="#DejaVuSans-65" x="481.005859"/>
      <use xlink:href="#DejaVuSans-61" x="542.529297"/>
      <use xlink:href="#DejaVuSans-6e" x="603.808594"/>
      <use xlink:href="#DejaVuSans-20" x="667.1875"/>
      <use xlink:href="#DejaVuSans-45" x="698.974609"/>
      <use xlink:href="#DejaVuSans-72" x="762.158203"/>
      <use xlink:href="#DejaVuSans-72" x="801.521484"/>
      <use xlink:href="#DejaVuSans-6f" x="840.384766"/>
      <use xlink:href="#DejaVuSans-72" x="901.566406"/>
      <use xlink:href="#DejaVuSans-20" x="942.679688"/>
      <use xlink:href="#DejaVuSans-44" x="974.466797"/>
      <use xlink:href="#DejaVuSans-65" x="1051.46875"/>
      <use xlink:href="#DejaVuSans-76" x="1112.992188"/>
      <use xlink:href="#DejaVuSans-69" x="1172.171875"/>
      <use xlink:href="#DejaVuSans-61" x="1199.955078"/>
      <use xlink:href="#DejaVuSans-74" x="1261.234375"/>
      <use xlink:href="#DejaVuSans-69" x="1300.443359"/>
      <use xlink:href="#DejaVuSans-6f" x="1328.226562"/>
      <use xlink:href="#DejaVuSans-6e" x="1389.408203"/>
      <use xlink:href="#DejaVuSans-3a" x="1452.787109"/>
      <use xlink:href="#DejaVuSans-20" x="1486.478516"/>
      <use xlink:href="#DejaVuSans-31" x="1518.265625"/>
      <use xlink:href="#DejaVuSans-2e" x="1581.888672"/>
      <use xlink:href="#DejaVuSans-39" x="1613.675781"/>
      <use xlink:href="#DejaVuSans-36" x="1677.298828"/>
      <use xlink:href="#DejaVuSans-29" x="1740.921875"/>
     </g>
    </g>
    <g id="line2d_22">
     <path d="M 882.568377 317.158768 
L 896.568377 317.158768 
L 910.568377 317.158768 
" style="fill: none; stroke-dasharray: 5.55,2.4; stroke-dashoffset: 0; stroke: #ffa500; stroke-width: 1.5"/>
    </g>
    <g id="text_21">
     <!-- Cam 2 Average -->
     <g transform="translate(921.768377 322.058767) scale(0.14 -0.14)">
      <use xlink:href="#DejaVuSans-43"/>
      <use xlink:href="#DejaVuSans-61" x="69.824219"/>
      <use xlink:href="#DejaVuSans-6d" x="131.103516"/>
      <use xlink:href="#DejaVuSans-20" x="228.515625"/>
      <use xlink:href="#DejaVuSans-32" x="260.302734"/>
      <use xlink:href="#DejaVuSans-20" x="323.925781"/>
      <use xlink:href="#DejaVuSans-41" x="355.712891"/>
      <use xlink:href="#DejaVuSans-76" x="418.246094"/>
      <use xlink:href="#DejaVuSans-65" x="477.425781"/>
      <use xlink:href="#DejaVuSans-72" x="538.949219"/>
      <use xlink:href="#DejaVuSans-61" x="580.0625"/>
      <use xlink:href="#DejaVuSans-67" x="641.341797"/>
      <use xlink:href="#DejaVuSans-65" x="704.818359"/>
     </g>
    </g>
   </g>
  </g>
 </g>
 <defs>
  <clipPath id="p6650648780">
   <rect x="72.61088" y="38.36632" width="797.357497" height="498.01052"/>
  </clipPath>
 </defs>
</svg>
