<?xml version="1.0" encoding="utf-8" standalone="no"?>
<!DOCTYPE svg PUBLIC "-//W3C//DTD SVG 1.1//EN"
  "http://www.w3.org/Graphics/SVG/1.1/DTD/svg11.dtd">
<svg xmlns:xlink="http://www.w3.org/1999/xlink" width="1008pt" height="720pt" viewBox="0 0 1008 720" xmlns="http://www.w3.org/2000/svg" version="1.1">
 <metadata>
  <rdf:RDF xmlns:dc="http://purl.org/dc/elements/1.1/" xmlns:cc="http://creativecommons.org/ns#" xmlns:rdf="http://www.w3.org/1999/02/22-rdf-syntax-ns#">
   <cc:Work>
    <dc:type rdf:resource="http://purl.org/dc/dcmitype/StillImage"/>
    <dc:date>2023-04-14T11:58:07.864858</dc:date>
    <dc:format>image/svg+xml</dc:format>
    <dc:creator>
     <cc:Agent>
      <dc:title>Matplotlib v3.6.2, https://matplotlib.org/</dc:title>
     </cc:Agent>
    </dc:creator>
   </cc:Work>
  </rdf:RDF>
 </metadata>
 <defs>
  <style type="text/css">*{stroke-linejoin: round; stroke-linecap: butt}</style>
 </defs>
 <g id="figure_1">
  <g id="patch_1">
   <path d="M 0 720 
L 1008 720 
L 1008 0 
L 0 0 
z
" style="fill: #ffffff"/>
  </g>
  <g id="axes_1">
   <g id="patch_2">
    <path d="M 93.23 639.64 
L 791.446 639.64 
L 791.446 60.96 
L 93.23 60.96 
z
" style="fill: #ffffff"/>
   </g>
   <g id="matplotlib.axis_1">
    <g id="xtick_1">
     <g id="line2d_1">
      <defs>
       <path id="m1e211c6426" d="M 0 0 
L 0 3.5 
" style="stroke: #000000; stroke-width: 0.8"/>
      </defs>
      <g>
       <use xlink:href="#m1e211c6426" x="93.23" y="639.64" style="stroke: #000000; stroke-width: 0.8"/>
      </g>
     </g>
     <g id="text_1">
      <!-- 0 -->
      <g transform="translate(88.77625 657.277812) scale(0.14 -0.14)">
       <defs>
        <path id="DejaVuSans-30" d="M 2034 4250 
Q 1547 4250 1301 3770 
Q 1056 3291 1056 2328 
Q 1056 1369 1301 889 
Q 1547 409 2034 409 
Q 2525 409 2770 889 
Q 3016 1369 3016 2328 
Q 3016 3291 2770 3770 
Q 2525 4250 2034 4250 
z
M 2034 4750 
Q 2819 4750 3233 4129 
Q 3647 3509 3647 2328 
Q 3647 1150 3233 529 
Q 2819 -91 2034 -91 
Q 1250 -91 836 529 
Q 422 1150 422 2328 
Q 422 3509 836 4129 
Q 1250 4750 2034 4750 
z
" transform="scale(0.015625)"/>
       </defs>
       <use xlink:href="#DejaVuSans-30"/>
      </g>
     </g>
    </g>
    <g id="xtick_2">
     <g id="line2d_2">
      <g>
       <use xlink:href="#m1e211c6426" x="200.385329" y="639.64" style="stroke: #000000; stroke-width: 0.8"/>
      </g>
     </g>
     <g id="text_2">
      <!-- 10 -->
      <g transform="translate(191.477829 657.277812) scale(0.14 -0.14)">
       <defs>
        <path id="DejaVuSans-31" d="M 794 531 
L 1825 531 
L 1825 4091 
L 703 3866 
L 703 4441 
L 1819 4666 
L 2450 4666 
L 2450 531 
L 3481 531 
L 3481 0 
L 794 0 
L 794 531 
z
" transform="scale(0.015625)"/>
       </defs>
       <use xlink:href="#DejaVuSans-31"/>
       <use xlink:href="#DejaVuSans-30" x="63.623047"/>
      </g>
     </g>
    </g>
    <g id="xtick_3">
     <g id="line2d_3">
      <g>
       <use xlink:href="#m1e211c6426" x="307.540658" y="639.64" style="stroke: #000000; stroke-width: 0.8"/>
      </g>
     </g>
     <g id="text_3">
      <!-- 20 -->
      <g transform="translate(298.633158 657.277812) scale(0.14 -0.14)">
       <defs>
        <path id="DejaVuSans-32" d="M 1228 531 
L 3431 531 
L 3431 0 
L 469 0 
L 469 531 
Q 828 903 1448 1529 
Q 2069 2156 2228 2338 
Q 2531 2678 2651 2914 
Q 2772 3150 2772 3378 
Q 2772 3750 2511 3984 
Q 2250 4219 1831 4219 
Q 1534 4219 1204 4116 
Q 875 4013 500 3803 
L 500 4441 
Q 881 4594 1212 4672 
Q 1544 4750 1819 4750 
Q 2544 4750 2975 4387 
Q 3406 4025 3406 3419 
Q 3406 3131 3298 2873 
Q 3191 2616 2906 2266 
Q 2828 2175 2409 1742 
Q 1991 1309 1228 531 
z
" transform="scale(0.015625)"/>
       </defs>
       <use xlink:href="#DejaVuSans-32"/>
       <use xlink:href="#DejaVuSans-30" x="63.623047"/>
      </g>
     </g>
    </g>
    <g id="xtick_4">
     <g id="line2d_4">
      <g>
       <use xlink:href="#m1e211c6426" x="414.695986" y="639.64" style="stroke: #000000; stroke-width: 0.8"/>
      </g>
     </g>
     <g id="text_4">
      <!-- 30 -->
      <g transform="translate(405.788486 657.277812) scale(0.14 -0.14)">
       <defs>
        <path id="DejaVuSans-33" d="M 2597 2516 
Q 3050 2419 3304 2112 
Q 3559 1806 3559 1356 
Q 3559 666 3084 287 
Q 2609 -91 1734 -91 
Q 1441 -91 1130 -33 
Q 819 25 488 141 
L 488 750 
Q 750 597 1062 519 
Q 1375 441 1716 441 
Q 2309 441 2620 675 
Q 2931 909 2931 1356 
Q 2931 1769 2642 2001 
Q 2353 2234 1838 2234 
L 1294 2234 
L 1294 2753 
L 1863 2753 
Q 2328 2753 2575 2939 
Q 2822 3125 2822 3475 
Q 2822 3834 2567 4026 
Q 2313 4219 1838 4219 
Q 1578 4219 1281 4162 
Q 984 4106 628 3988 
L 628 4550 
Q 988 4650 1302 4700 
Q 1616 4750 1894 4750 
Q 2613 4750 3031 4423 
Q 3450 4097 3450 3541 
Q 3450 3153 3228 2886 
Q 3006 2619 2597 2516 
z
" transform="scale(0.015625)"/>
       </defs>
       <use xlink:href="#DejaVuSans-33"/>
       <use xlink:href="#DejaVuSans-30" x="63.623047"/>
      </g>
     </g>
    </g>
    <g id="xtick_5">
     <g id="line2d_5">
      <g>
       <use xlink:href="#m1e211c6426" x="521.851315" y="639.64" style="stroke: #000000; stroke-width: 0.8"/>
      </g>
     </g>
     <g id="text_5">
      <!-- 40 -->
      <g transform="translate(512.943815 657.277812) scale(0.14 -0.14)">
       <defs>
        <path id="DejaVuSans-34" d="M 2419 4116 
L 825 1625 
L 2419 1625 
L 2419 4116 
z
M 2253 4666 
L 3047 4666 
L 3047 1625 
L 3713 1625 
L 3713 1100 
L 3047 1100 
L 3047 0 
L 2419 0 
L 2419 1100 
L 313 1100 
L 313 1709 
L 2253 4666 
z
" transform="scale(0.015625)"/>
       </defs>
       <use xlink:href="#DejaVuSans-34"/>
       <use xlink:href="#DejaVuSans-30" x="63.623047"/>
      </g>
     </g>
    </g>
    <g id="xtick_6">
     <g id="line2d_6">
      <g>
       <use xlink:href="#m1e211c6426" x="629.006644" y="639.64" style="stroke: #000000; stroke-width: 0.8"/>
      </g>
     </g>
     <g id="text_6">
      <!-- 50 -->
      <g transform="translate(620.099144 657.277812) scale(0.14 -0.14)">
       <defs>
        <path id="DejaVuSans-35" d="M 691 4666 
L 3169 4666 
L 3169 4134 
L 1269 4134 
L 1269 2991 
Q 1406 3038 1543 3061 
Q 1681 3084 1819 3084 
Q 2600 3084 3056 2656 
Q 3513 2228 3513 1497 
Q 3513 744 3044 326 
Q 2575 -91 1722 -91 
Q 1428 -91 1123 -41 
Q 819 9 494 109 
L 494 744 
Q 775 591 1075 516 
Q 1375 441 1709 441 
Q 2250 441 2565 725 
Q 2881 1009 2881 1497 
Q 2881 1984 2565 2268 
Q 2250 2553 1709 2553 
Q 1456 2553 1204 2497 
Q 953 2441 691 2322 
L 691 4666 
z
" transform="scale(0.015625)"/>
       </defs>
       <use xlink:href="#DejaVuSans-35"/>
       <use xlink:href="#DejaVuSans-30" x="63.623047"/>
      </g>
     </g>
    </g>
    <g id="xtick_7">
     <g id="line2d_7">
      <g>
       <use xlink:href="#m1e211c6426" x="736.161973" y="639.64" style="stroke: #000000; stroke-width: 0.8"/>
      </g>
     </g>
     <g id="text_7">
      <!-- 60 -->
      <g transform="translate(727.254473 657.277812) scale(0.14 -0.14)">
       <defs>
        <path id="DejaVuSans-36" d="M 2113 2584 
Q 1688 2584 1439 2293 
Q 1191 2003 1191 1497 
Q 1191 994 1439 701 
Q 1688 409 2113 409 
Q 2538 409 2786 701 
Q 3034 994 3034 1497 
Q 3034 2003 2786 2293 
Q 2538 2584 2113 2584 
z
M 3366 4563 
L 3366 3988 
Q 3128 4100 2886 4159 
Q 2644 4219 2406 4219 
Q 1781 4219 1451 3797 
Q 1122 3375 1075 2522 
Q 1259 2794 1537 2939 
Q 1816 3084 2150 3084 
Q 2853 3084 3261 2657 
Q 3669 2231 3669 1497 
Q 3669 778 3244 343 
Q 2819 -91 2113 -91 
Q 1303 -91 875 529 
Q 447 1150 447 2328 
Q 447 3434 972 4092 
Q 1497 4750 2381 4750 
Q 2619 4750 2861 4703 
Q 3103 4656 3366 4563 
z
" transform="scale(0.015625)"/>
       </defs>
       <use xlink:href="#DejaVuSans-36"/>
       <use xlink:href="#DejaVuSans-30" x="63.623047"/>
      </g>
     </g>
    </g>
    <g id="text_8">
     <!-- Time (s) -->
     <g transform="translate(413.877531 674.827188) scale(0.14 -0.14)">
      <defs>
       <path id="DejaVuSans-54" d="M -19 4666 
L 3928 4666 
L 3928 4134 
L 2272 4134 
L 2272 0 
L 1638 0 
L 1638 4134 
L -19 4134 
L -19 4666 
z
" transform="scale(0.015625)"/>
       <path id="DejaVuSans-69" d="M 603 3500 
L 1178 3500 
L 1178 0 
L 603 0 
L 603 3500 
z
M 603 4863 
L 1178 4863 
L 1178 4134 
L 603 4134 
L 603 4863 
z
" transform="scale(0.015625)"/>
       <path id="DejaVuSans-6d" d="M 3328 2828 
Q 3544 3216 3844 3400 
Q 4144 3584 4550 3584 
Q 5097 3584 5394 3201 
Q 5691 2819 5691 2113 
L 5691 0 
L 5113 0 
L 5113 2094 
Q 5113 2597 4934 2840 
Q 4756 3084 4391 3084 
Q 3944 3084 3684 2787 
Q 3425 2491 3425 1978 
L 3425 0 
L 2847 0 
L 2847 2094 
Q 2847 2600 2669 2842 
Q 2491 3084 2119 3084 
Q 1678 3084 1418 2786 
Q 1159 2488 1159 1978 
L 1159 0 
L 581 0 
L 581 3500 
L 1159 3500 
L 1159 2956 
Q 1356 3278 1631 3431 
Q 1906 3584 2284 3584 
Q 2666 3584 2933 3390 
Q 3200 3197 3328 2828 
z
" transform="scale(0.015625)"/>
       <path id="DejaVuSans-65" d="M 3597 1894 
L 3597 1613 
L 953 1613 
Q 991 1019 1311 708 
Q 1631 397 2203 397 
Q 2534 397 2845 478 
Q 3156 559 3463 722 
L 3463 178 
Q 3153 47 2828 -22 
Q 2503 -91 2169 -91 
Q 1331 -91 842 396 
Q 353 884 353 1716 
Q 353 2575 817 3079 
Q 1281 3584 2069 3584 
Q 2775 3584 3186 3129 
Q 3597 2675 3597 1894 
z
M 3022 2063 
Q 3016 2534 2758 2815 
Q 2500 3097 2075 3097 
Q 1594 3097 1305 2825 
Q 1016 2553 972 2059 
L 3022 2063 
z
" transform="scale(0.015625)"/>
       <path id="DejaVuSans-20" transform="scale(0.015625)"/>
       <path id="DejaVuSans-28" d="M 1984 4856 
Q 1566 4138 1362 3434 
Q 1159 2731 1159 2009 
Q 1159 1288 1364 580 
Q 1569 -128 1984 -844 
L 1484 -844 
Q 1016 -109 783 600 
Q 550 1309 550 2009 
Q 550 2706 781 3412 
Q 1013 4119 1484 4856 
L 1984 4856 
z
" transform="scale(0.015625)"/>
       <path id="DejaVuSans-73" d="M 2834 3397 
L 2834 2853 
Q 2591 2978 2328 3040 
Q 2066 3103 1784 3103 
Q 1356 3103 1142 2972 
Q 928 2841 928 2578 
Q 928 2378 1081 2264 
Q 1234 2150 1697 2047 
L 1894 2003 
Q 2506 1872 2764 1633 
Q 3022 1394 3022 966 
Q 3022 478 2636 193 
Q 2250 -91 1575 -91 
Q 1294 -91 989 -36 
Q 684 19 347 128 
L 347 722 
Q 666 556 975 473 
Q 1284 391 1588 391 
Q 1994 391 2212 530 
Q 2431 669 2431 922 
Q 2431 1156 2273 1281 
Q 2116 1406 1581 1522 
L 1381 1569 
Q 847 1681 609 1914 
Q 372 2147 372 2553 
Q 372 3047 722 3315 
Q 1072 3584 1716 3584 
Q 2034 3584 2315 3537 
Q 2597 3491 2834 3397 
z
" transform="scale(0.015625)"/>
       <path id="DejaVuSans-29" d="M 513 4856 
L 1013 4856 
Q 1481 4119 1714 3412 
Q 1947 2706 1947 2009 
Q 1947 1309 1714 600 
Q 1481 -109 1013 -844 
L 513 -844 
Q 928 -128 1133 580 
Q 1338 1288 1338 2009 
Q 1338 2731 1133 3434 
Q 928 4138 513 4856 
z
" transform="scale(0.015625)"/>
      </defs>
      <use xlink:href="#DejaVuSans-54"/>
      <use xlink:href="#DejaVuSans-69" x="57.958984"/>
      <use xlink:href="#DejaVuSans-6d" x="85.742188"/>
      <use xlink:href="#DejaVuSans-65" x="183.154297"/>
      <use xlink:href="#DejaVuSans-20" x="244.677734"/>
      <use xlink:href="#DejaVuSans-28" x="276.464844"/>
      <use xlink:href="#DejaVuSans-73" x="315.478516"/>
      <use xlink:href="#DejaVuSans-29" x="367.578125"/>
     </g>
    </g>
   </g>
   <g id="matplotlib.axis_2">
    <g id="ytick_1">
     <g id="line2d_8">
      <defs>
       <path id="ma16d9547d5" d="M 0 0 
L -3.5 0 
" style="stroke: #000000; stroke-width: 0.8"/>
      </defs>
      <g>
       <use xlink:href="#ma16d9547d5" x="93.23" y="639.64" style="stroke: #000000; stroke-width: 0.8"/>
      </g>
     </g>
     <g id="text_9">
      <!-- 0 -->
      <g transform="translate(77.3225 644.958906) scale(0.14 -0.14)">
       <use xlink:href="#DejaVuSans-30"/>
      </g>
     </g>
    </g>
    <g id="ytick_2">
     <g id="line2d_9">
      <g>
       <use xlink:href="#ma16d9547d5" x="93.23" y="538.537479" style="stroke: #000000; stroke-width: 0.8"/>
      </g>
     </g>
     <g id="text_10">
      <!-- 20 -->
      <g transform="translate(68.415 543.856385) scale(0.14 -0.14)">
       <use xlink:href="#DejaVuSans-32"/>
       <use xlink:href="#DejaVuSans-30" x="63.623047"/>
      </g>
     </g>
    </g>
    <g id="ytick_3">
     <g id="line2d_10">
      <g>
       <use xlink:href="#ma16d9547d5" x="93.23" y="437.434957" style="stroke: #000000; stroke-width: 0.8"/>
      </g>
     </g>
     <g id="text_11">
      <!-- 40 -->
      <g transform="translate(68.415 442.753864) scale(0.14 -0.14)">
       <use xlink:href="#DejaVuSans-34"/>
       <use xlink:href="#DejaVuSans-30" x="63.623047"/>
      </g>
     </g>
    </g>
    <g id="ytick_4">
     <g id="line2d_11">
      <g>
       <use xlink:href="#ma16d9547d5" x="93.23" y="336.332436" style="stroke: #000000; stroke-width: 0.8"/>
      </g>
     </g>
     <g id="text_12">
      <!-- 60 -->
      <g transform="translate(68.415 341.651342) scale(0.14 -0.14)">
       <use xlink:href="#DejaVuSans-36"/>
       <use xlink:href="#DejaVuSans-30" x="63.623047"/>
      </g>
     </g>
    </g>
    <g id="ytick_5">
     <g id="line2d_12">
      <g>
       <use xlink:href="#ma16d9547d5" x="93.23" y="235.229915" style="stroke: #000000; stroke-width: 0.8"/>
      </g>
     </g>
     <g id="text_13">
      <!-- 80 -->
      <g transform="translate(68.415 240.548821) scale(0.14 -0.14)">
       <defs>
        <path id="DejaVuSans-38" d="M 2034 2216 
Q 1584 2216 1326 1975 
Q 1069 1734 1069 1313 
Q 1069 891 1326 650 
Q 1584 409 2034 409 
Q 2484 409 2743 651 
Q 3003 894 3003 1313 
Q 3003 1734 2745 1975 
Q 2488 2216 2034 2216 
z
M 1403 2484 
Q 997 2584 770 2862 
Q 544 3141 544 3541 
Q 544 4100 942 4425 
Q 1341 4750 2034 4750 
Q 2731 4750 3128 4425 
Q 3525 4100 3525 3541 
Q 3525 3141 3298 2862 
Q 3072 2584 2669 2484 
Q 3125 2378 3379 2068 
Q 3634 1759 3634 1313 
Q 3634 634 3220 271 
Q 2806 -91 2034 -91 
Q 1263 -91 848 271 
Q 434 634 434 1313 
Q 434 1759 690 2068 
Q 947 2378 1403 2484 
z
M 1172 3481 
Q 1172 3119 1398 2916 
Q 1625 2713 2034 2713 
Q 2441 2713 2670 2916 
Q 2900 3119 2900 3481 
Q 2900 3844 2670 4047 
Q 2441 4250 2034 4250 
Q 1625 4250 1398 4047 
Q 1172 3844 1172 3481 
z
" transform="scale(0.015625)"/>
       </defs>
       <use xlink:href="#DejaVuSans-38"/>
       <use xlink:href="#DejaVuSans-30" x="63.623047"/>
      </g>
     </g>
    </g>
    <g id="ytick_6">
     <g id="line2d_13">
      <g>
       <use xlink:href="#ma16d9547d5" x="93.23" y="134.127394" style="stroke: #000000; stroke-width: 0.8"/>
      </g>
     </g>
     <g id="text_14">
      <!-- 100 -->
      <g transform="translate(59.5075 139.4463) scale(0.14 -0.14)">
       <use xlink:href="#DejaVuSans-31"/>
       <use xlink:href="#DejaVuSans-30" x="63.623047"/>
       <use xlink:href="#DejaVuSans-30" x="127.246094"/>
      </g>
     </g>
    </g>
    <g id="text_15">
     <!-- Packets per Second -->
     <g transform="translate(52.595938 418.683438) rotate(-90) scale(0.14 -0.14)">
      <defs>
       <path id="DejaVuSans-50" d="M 1259 4147 
L 1259 2394 
L 2053 2394 
Q 2494 2394 2734 2622 
Q 2975 2850 2975 3272 
Q 2975 3691 2734 3919 
Q 2494 4147 2053 4147 
L 1259 4147 
z
M 628 4666 
L 2053 4666 
Q 2838 4666 3239 4311 
Q 3641 3956 3641 3272 
Q 3641 2581 3239 2228 
Q 2838 1875 2053 1875 
L 1259 1875 
L 1259 0 
L 628 0 
L 628 4666 
z
" transform="scale(0.015625)"/>
       <path id="DejaVuSans-61" d="M 2194 1759 
Q 1497 1759 1228 1600 
Q 959 1441 959 1056 
Q 959 750 1161 570 
Q 1363 391 1709 391 
Q 2188 391 2477 730 
Q 2766 1069 2766 1631 
L 2766 1759 
L 2194 1759 
z
M 3341 1997 
L 3341 0 
L 2766 0 
L 2766 531 
Q 2569 213 2275 61 
Q 1981 -91 1556 -91 
Q 1019 -91 701 211 
Q 384 513 384 1019 
Q 384 1609 779 1909 
Q 1175 2209 1959 2209 
L 2766 2209 
L 2766 2266 
Q 2766 2663 2505 2880 
Q 2244 3097 1772 3097 
Q 1472 3097 1187 3025 
Q 903 2953 641 2809 
L 641 3341 
Q 956 3463 1253 3523 
Q 1550 3584 1831 3584 
Q 2591 3584 2966 3190 
Q 3341 2797 3341 1997 
z
" transform="scale(0.015625)"/>
       <path id="DejaVuSans-63" d="M 3122 3366 
L 3122 2828 
Q 2878 2963 2633 3030 
Q 2388 3097 2138 3097 
Q 1578 3097 1268 2742 
Q 959 2388 959 1747 
Q 959 1106 1268 751 
Q 1578 397 2138 397 
Q 2388 397 2633 464 
Q 2878 531 3122 666 
L 3122 134 
Q 2881 22 2623 -34 
Q 2366 -91 2075 -91 
Q 1284 -91 818 406 
Q 353 903 353 1747 
Q 353 2603 823 3093 
Q 1294 3584 2113 3584 
Q 2378 3584 2631 3529 
Q 2884 3475 3122 3366 
z
" transform="scale(0.015625)"/>
       <path id="DejaVuSans-6b" d="M 581 4863 
L 1159 4863 
L 1159 1991 
L 2875 3500 
L 3609 3500 
L 1753 1863 
L 3688 0 
L 2938 0 
L 1159 1709 
L 1159 0 
L 581 0 
L 581 4863 
z
" transform="scale(0.015625)"/>
       <path id="DejaVuSans-74" d="M 1172 4494 
L 1172 3500 
L 2356 3500 
L 2356 3053 
L 1172 3053 
L 1172 1153 
Q 1172 725 1289 603 
Q 1406 481 1766 481 
L 2356 481 
L 2356 0 
L 1766 0 
Q 1100 0 847 248 
Q 594 497 594 1153 
L 594 3053 
L 172 3053 
L 172 3500 
L 594 3500 
L 594 4494 
L 1172 4494 
z
" transform="scale(0.015625)"/>
       <path id="DejaVuSans-70" d="M 1159 525 
L 1159 -1331 
L 581 -1331 
L 581 3500 
L 1159 3500 
L 1159 2969 
Q 1341 3281 1617 3432 
Q 1894 3584 2278 3584 
Q 2916 3584 3314 3078 
Q 3713 2572 3713 1747 
Q 3713 922 3314 415 
Q 2916 -91 2278 -91 
Q 1894 -91 1617 61 
Q 1341 213 1159 525 
z
M 3116 1747 
Q 3116 2381 2855 2742 
Q 2594 3103 2138 3103 
Q 1681 3103 1420 2742 
Q 1159 2381 1159 1747 
Q 1159 1113 1420 752 
Q 1681 391 2138 391 
Q 2594 391 2855 752 
Q 3116 1113 3116 1747 
z
" transform="scale(0.015625)"/>
       <path id="DejaVuSans-72" d="M 2631 2963 
Q 2534 3019 2420 3045 
Q 2306 3072 2169 3072 
Q 1681 3072 1420 2755 
Q 1159 2438 1159 1844 
L 1159 0 
L 581 0 
L 581 3500 
L 1159 3500 
L 1159 2956 
Q 1341 3275 1631 3429 
Q 1922 3584 2338 3584 
Q 2397 3584 2469 3576 
Q 2541 3569 2628 3553 
L 2631 2963 
z
" transform="scale(0.015625)"/>
       <path id="DejaVuSans-53" d="M 3425 4513 
L 3425 3897 
Q 3066 4069 2747 4153 
Q 2428 4238 2131 4238 
Q 1616 4238 1336 4038 
Q 1056 3838 1056 3469 
Q 1056 3159 1242 3001 
Q 1428 2844 1947 2747 
L 2328 2669 
Q 3034 2534 3370 2195 
Q 3706 1856 3706 1288 
Q 3706 609 3251 259 
Q 2797 -91 1919 -91 
Q 1588 -91 1214 -16 
Q 841 59 441 206 
L 441 856 
Q 825 641 1194 531 
Q 1563 422 1919 422 
Q 2459 422 2753 634 
Q 3047 847 3047 1241 
Q 3047 1584 2836 1778 
Q 2625 1972 2144 2069 
L 1759 2144 
Q 1053 2284 737 2584 
Q 422 2884 422 3419 
Q 422 4038 858 4394 
Q 1294 4750 2059 4750 
Q 2388 4750 2728 4690 
Q 3069 4631 3425 4513 
z
" transform="scale(0.015625)"/>
       <path id="DejaVuSans-6f" d="M 1959 3097 
Q 1497 3097 1228 2736 
Q 959 2375 959 1747 
Q 959 1119 1226 758 
Q 1494 397 1959 397 
Q 2419 397 2687 759 
Q 2956 1122 2956 1747 
Q 2956 2369 2687 2733 
Q 2419 3097 1959 3097 
z
M 1959 3584 
Q 2709 3584 3137 3096 
Q 3566 2609 3566 1747 
Q 3566 888 3137 398 
Q 2709 -91 1959 -91 
Q 1206 -91 779 398 
Q 353 888 353 1747 
Q 353 2609 779 3096 
Q 1206 3584 1959 3584 
z
" transform="scale(0.015625)"/>
       <path id="DejaVuSans-6e" d="M 3513 2113 
L 3513 0 
L 2938 0 
L 2938 2094 
Q 2938 2591 2744 2837 
Q 2550 3084 2163 3084 
Q 1697 3084 1428 2787 
Q 1159 2491 1159 1978 
L 1159 0 
L 581 0 
L 581 3500 
L 1159 3500 
L 1159 2956 
Q 1366 3272 1645 3428 
Q 1925 3584 2291 3584 
Q 2894 3584 3203 3211 
Q 3513 2838 3513 2113 
z
" transform="scale(0.015625)"/>
       <path id="DejaVuSans-64" d="M 2906 2969 
L 2906 4863 
L 3481 4863 
L 3481 0 
L 2906 0 
L 2906 525 
Q 2725 213 2448 61 
Q 2172 -91 1784 -91 
Q 1150 -91 751 415 
Q 353 922 353 1747 
Q 353 2572 751 3078 
Q 1150 3584 1784 3584 
Q 2172 3584 2448 3432 
Q 2725 3281 2906 2969 
z
M 947 1747 
Q 947 1113 1208 752 
Q 1469 391 1925 391 
Q 2381 391 2643 752 
Q 2906 1113 2906 1747 
Q 2906 2381 2643 2742 
Q 2381 3103 1925 3103 
Q 1469 3103 1208 2742 
Q 947 2381 947 1747 
z
" transform="scale(0.015625)"/>
      </defs>
      <use xlink:href="#DejaVuSans-50"/>
      <use xlink:href="#DejaVuSans-61" x="55.802734"/>
      <use xlink:href="#DejaVuSans-63" x="117.082031"/>
      <use xlink:href="#DejaVuSans-6b" x="172.0625"/>
      <use xlink:href="#DejaVuSans-65" x="226.347656"/>
      <use xlink:href="#DejaVuSans-74" x="287.871094"/>
      <use xlink:href="#DejaVuSans-73" x="327.080078"/>
      <use xlink:href="#DejaVuSans-20" x="379.179688"/>
      <use xlink:href="#DejaVuSans-70" x="410.966797"/>
      <use xlink:href="#DejaVuSans-65" x="474.443359"/>
      <use xlink:href="#DejaVuSans-72" x="535.966797"/>
      <use xlink:href="#DejaVuSans-20" x="577.080078"/>
      <use xlink:href="#DejaVuSans-53" x="608.867188"/>
      <use xlink:href="#DejaVuSans-65" x="672.34375"/>
      <use xlink:href="#DejaVuSans-63" x="733.867188"/>
      <use xlink:href="#DejaVuSans-6f" x="788.847656"/>
      <use xlink:href="#DejaVuSans-6e" x="850.029297"/>
      <use xlink:href="#DejaVuSans-64" x="913.408203"/>
     </g>
    </g>
   </g>
   <g id="line2d_14">
    <path d="M 109.595105 155.39518 
L 111.746115 186.350303 
L 113.892785 84.499213 
L 116.043133 186.210893 
L 118.25188 75.576802 
L 120.705854 131.944222 
L 122.978987 210.703149 
L 125.051939 221.54341 
L 127.36973 172.226223 
L 129.465631 174.431785 
L 131.609137 184.76345 
L 133.958589 178.525036 
L 136.165477 173.282361 
L 138.419555 231.10835 
L 140.541251 180.087493 
L 142.72607 168.571683 
L 145.119313 164.328562 
L 147.259001 234.583696 
L 149.412006 161.611006 
L 151.863872 175.693042 
L 154.011395 185.614247 
L 156.178466 214.70602 
L 158.366305 144.463046 
L 160.514634 160.570442 
L 163.010394 227.260909 
L 165.326455 171.877121 
L 167.421789 174.305766 
L 169.566009 210.177466 
L 171.686327 154.241515 
L 173.854648 214.950997 
L 176.260072 144.216259 
L 178.507087 229.824252 
L 180.653735 160.195184 
L 184.951802 211.60986 
L 187.297326 131.564244 
L 189.489251 244.236926 
L 191.998315 164.680323 
L 194.502621 185.408017 
L 196.762604 184.238895 
L 198.906796 184.908921 
L 201.013992 176.92519 
L 203.189781 191.512679 
L 205.538103 178.303094 
L 207.682882 185.033547 
L 209.882764 196.420397 
L 212.022146 209.206193 
L 214.28581 161.049803 
L 216.428582 184.607767 
L 218.771711 154.162675 
L 220.967307 220.226683 
L 223.108168 209.503635 
L 225.253851 185.224934 
L 227.488591 179.094636 
L 229.856775 136.425629 
L 232.216637 226.467263 
L 234.270012 191.177271 
L 236.640942 182.702182 
L 238.903501 160.816049 
L 241.040658 183.412198 
L 243.193738 186.786089 
L 245.339004 185.136723 
L 247.480567 184.350716 
L 249.565563 223.958535 
L 251.719239 136.608213 
L 254.016782 191.683635 
L 256.299422 188.758996 
L 258.450538 136.009591 
L 260.717947 209.620359 
L 262.790471 169.18436 
L 265.041912 206.570423 
L 267.377168 175.721835 
L 269.572996 195.602291 
L 272.067398 205.32051 
L 274.327546 160.305236 
L 276.570908 205.010876 
L 278.862057 143.148602 
L 281.113323 206.536638 
L 283.256554 184.705086 
L 285.593866 152.954583 
L 287.783267 243.781073 
L 290.228757 174.483466 
L 292.425463 195.779614 
L 294.568977 184.765131 
L 296.72113 136.252359 
L 299.077834 225.913508 
L 303.506831 141.017237 
L 305.649733 184.63522 
L 307.947127 215.232864 
L 310.293396 154.812464 
L 312.536014 229.020643 
L 314.76715 178.350652 
L 317.080704 147.956792 
L 319.378478 215.303024 
L 321.466151 172.598095 
L 323.664353 196.081696 
L 325.832198 189.870583 
L 327.984474 186.616817 
L 330.148215 189.017438 
L 332.290902 184.589615 
L 334.582827 143.316752 
L 336.771207 218.843499 
L 338.969659 196.132262 
L 341.011898 135.68387 
L 343.263809 206.66073 
L 345.343795 170.87206 
L 347.655975 217.946877 
L 349.879117 176.691888 
L 352.076367 195.889567 
L 354.522764 174.656048 
L 356.720128 195.912514 
L 358.923576 172.554271 
L 361.170002 181.490529 
L 363.367414 195.922271 
L 365.595981 177.819022 
L 367.798507 172.358715 
L 370.050376 206.652681 
L 372.301645 182.476056 
L 374.44061 183.797705 
L 376.669498 177.885529 
L 378.866378 195.814922 
L 381.009699 184.724055 
L 383.26167 182.618557 
L 385.375133 178.297445 
L 387.548593 166.109765 
L 389.775066 201.713962 
L 391.889531 178.515803 
L 394.092095 196.960266 
L 396.370068 187.835202 
L 398.627206 183.664712 
L 401.014081 185.754802 
L 403.158288 184.912198 
L 405.414175 183.411779 
L 407.747458 175.329672 
L 409.944064 195.759503 
L 412.196818 158.732097 
L 414.423956 201.84463 
L 416.731382 193.602259 
L 418.874748 184.733768 
L 421.126322 158.48003 
L 423.269503 184.694425 
L 425.663191 209.676165 
L 427.810135 160.261385 
L 429.958438 160.564765 
L 432.205759 229.879923 
L 434.462957 183.677016 
L 436.735917 163.007112 
L 438.967239 178.389222 
L 441.136014 190.063257 
L 443.529951 164.466279 
L 445.775507 205.43554 
L 448.175475 143.089944 
L 450.427556 206.693561 
L 452.624093 195.745406 
L 454.676171 190.893738 
L 456.848523 190.80361 
L 459.240441 186.711732 
L 461.384309 184.840345 
L 463.581886 171.306347 
L 465.749778 189.88033 
L 468.036027 189.47073 
L 470.175483 183.902218 
L 472.328843 186.844993 
L 474.601829 186.843922 
L 476.744922 184.675899 
L 478.889497 184.990099 
L 481.031729 184.493009 
L 483.284118 158.653954 
L 485.685784 165.995632 
L 487.933411 205.835535 
L 490.076898 184.759293 
L 492.468177 186.590736 
L 494.724419 183.483613 
L 496.864205 183.972668 
L 499.256325 186.750035 
L 501.399212 184.631973 
L 503.538839 209.255465 
L 506.039153 184.682951 
L 508.190635 136.095204 
L 510.442644 206.679645 
L 512.582682 184.026284 
L 514.720773 183.611406 
L 516.919065 196.099918 
L 519.255992 199.233005 
L 521.399285 184.71816 
L 523.651329 182.633383 
L 525.800557 185.974382 
L 528.195615 142.072132 
L 530.339199 184.779922 
L 532.482695 184.761297 
L 534.734706 206.680022 
L 536.878065 184.732317 
L 539.216116 153.10832 
L 541.351 233.672263 
L 543.50292 136.197973 
L 545.70088 196.032794 
L 547.890118 194.265496 
L 550.342525 197.883306 
L 552.597922 183.312833 
L 554.980925 207.748306 
L 557.427917 174.769022 
L 559.625059 195.867807 
L 562.076842 153.583697 
L 564.274032 195.877563 
L 566.716557 196.095892 
L 568.91919 172.381625 
L 571.171061 206.653084 
L 573.567316 142.320549 
L 576.005564 217.534055 
L 578.201952 195.715306 
L 580.350699 160.663745 
L 582.597435 205.663449 
L 584.99878 143.374698 
L 587.437214 217.566257 
L 589.580122 184.636439 
L 591.724849 185.022377 
L 593.921475 195.763517 
L 596.376623 132.186893 
L 598.565835 243.746956 
L 601.013164 174.832879 
L 603.273141 160.269072 
L 607.551919 208.420006 
L 609.755917 197.248105 
L 612.096011 130.385132 
L 614.339442 229.169542 
L 616.79155 175.738906 
L 618.938079 160.168696 
L 621.190339 206.727931 
L 623.333528 184.69614 
L 625.474241 184.169833 
L 627.815199 153.712609 
L 629.958773 184.777844 
L 632.211726 206.860944 
L 634.603579 164.052343 
L 636.742075 234.358012 
L 639.310272 154.524475 
L 641.796865 225.740644 
L 643.940607 184.81361 
L 646.035999 122.616279 
L 648.351776 218.601665 
L 650.674425 196.525712 
L 652.832166 137.555935 
L 654.976476 184.933951 
L 657.228636 206.708707 
L 659.31648 172.636557 
L 661.763241 174.725029 
L 663.961396 196.072277 
L 666.448114 225.761442 
L 668.962532 144.148703 
L 671.409326 174.731277 
L 673.607241 196.023858 
L 676.108461 184.847569 
L 678.253015 184.985726 
L 680.387393 182.818158 
L 682.639428 206.684649 
L 685.023229 207.892862 
L 687.167237 184.869985 
L 689.612842 174.505241 
L 691.764769 136.199484 
L 693.908505 184.812244 
L 696.106129 195.964964 
L 698.404551 215.422682 
L 700.75076 154.800083 
L 702.885545 233.653508 
L 705.033765 160.54601 
L 707.48434 153.344375 
L 709.728097 229.229152 
L 711.925854 195.991924 
L 714.077684 161.349828 
L 716.470575 164.258691 
L 718.714386 205.097743 
L 720.856778 184.526781 
L 723.08592 202.238318 
L 725.394094 193.746808 
L 727.537314 184.702675 
L 730.04619 143.054138 
L 732.260305 199.269693 
L 734.632983 183.038781 
L 736.825815 219.69804 
L 738.977711 136.192106 
L 741.221611 205.115147 
L 743.371496 211.309059 
L 745.761673 163.718713 
L 747.909238 160.400028 
L 750.161582 206.744018 
L 752.304786 184.699425 
L 754.446245 184.328552 
L 756.832752 208.382542 
L 758.97691 184.901692 
L 758.97691 184.901692 
" clip-path="url(#p5e7853522f)" style="fill: none; stroke: #1f77b4; stroke-width: 1.5; stroke-linecap: square"/>
   </g>
   <g id="line2d_15">
    <path d="M 109.595105 323.828161 
L 111.746115 337.446869 
L 113.892785 336.835934 
L 116.043133 337.353929 
L 118.25188 345.346158 
L 120.705854 330.607788 
L 122.978987 353.6821 
L 125.051939 352.198594 
L 127.36973 335.821045 
L 129.465631 329.50119 
L 131.609137 336.388967 
L 133.958589 316.859525 
L 136.165477 345.098333 
L 138.419555 351.264717 
L 140.541251 333.271662 
L 142.72607 342.123168 
L 145.119313 322.765708 
L 147.259001 361.163791 
L 149.412006 312.567531 
L 151.863872 330.342028 
L 154.011395 336.956165 
L 156.178466 364.682719 
L 158.366305 317.77498 
L 160.514634 337.069753 
L 163.010394 357.485885 
L 165.326455 335.594129 
L 167.421789 329.417177 
L 169.566009 336.489976 
L 171.686327 333.072536 
L 173.854648 339.859527 
L 176.260072 324.370347 
L 178.507087 350.358296 
L 180.653735 336.832748 
L 182.800406 336.836016 
L 184.951802 337.501078 
L 187.297326 316.319064 
L 189.489251 367.800387 
L 191.998315 315.803857 
L 194.502621 336.818678 
L 196.762604 352.018249 
L 198.906796 336.485947 
L 201.013992 331.16346 
L 203.189781 340.888453 
L 205.538103 316.704166 
L 207.682882 336.569032 
L 209.882764 344.160265 
L 212.022146 361.124007 
L 214.28581 328.556372 
L 216.428582 336.285178 
L 218.771711 315.98845 
L 220.967307 343.583541 
L 223.108168 361.31647 
L 225.253851 336.696623 
L 227.488591 324.530014 
L 229.856775 319.412673 
L 232.216637 364.191509 
L 234.270012 323.078074 
L 236.640942 342.630418 
L 238.903501 328.404432 
L 241.040658 335.488132 
L 243.193738 337.737393 
L 245.339004 336.637815 
L 247.480567 336.113811 
L 249.565563 353.858993 
L 251.719239 312.669339 
L 254.016782 356.720191 
L 256.299422 331.142471 
L 258.450538 312.280234 
L 260.717947 352.960239 
L 262.790471 326.002907 
L 265.041912 350.926949 
L 267.377168 314.897284 
L 269.572996 343.61486 
L 272.067398 357.332332 
L 274.327546 328.072403 
L 276.570908 349.887251 
L 278.862057 308.645735 
L 281.113323 350.904425 
L 283.256554 336.350057 
L 285.593866 315.183055 
L 287.783267 367.486988 
L 290.228757 329.535644 
L 292.425463 343.733076 
L 294.568977 336.390087 
L 296.72113 312.438033 
L 299.077834 363.822339 
L 303.506831 307.224825 
L 305.649733 336.30348 
L 307.947127 356.701909 
L 310.293396 316.421642 
L 312.536014 349.791042 
L 314.76715 348.299359 
L 317.080704 311.851194 
L 319.378478 356.748683 
L 321.466151 328.27873 
L 323.664353 343.934464 
L 325.832198 339.793722 
L 327.984474 337.624544 
L 330.148215 339.224958 
L 332.290902 336.273076 
L 334.582827 308.757835 
L 336.771207 342.607176 
L 338.969659 343.968174 
L 341.011898 321.351918 
L 343.263809 350.987154 
L 345.343795 327.12804 
L 347.655975 358.511251 
L 349.879117 322.886029 
L 352.076367 343.806378 
L 354.522764 329.650699 
L 356.720128 343.821676 
L 358.923576 320.055028 
L 361.170002 350.282439 
L 363.367414 343.828181 
L 365.595981 323.657226 
L 367.798507 319.921226 
L 370.050376 350.981787 
L 372.301645 350.904878 
L 374.44061 335.745137 
L 376.669498 323.702731 
L 378.866378 343.756615 
L 381.009699 336.362703 
L 383.26167 326.941118 
L 385.375133 332.078297 
L 387.548593 340.568273 
L 389.775066 347.689308 
L 391.889531 332.223869 
L 394.092095 344.520177 
L 396.370068 330.510401 
L 398.627206 327.656908 
L 401.014081 344.614621 
L 403.158288 336.488132 
L 405.414175 327.483849 
L 407.747458 337.838287 
L 409.944064 343.719669 
L 412.196818 327.049863 
L 414.423956 347.77642 
L 416.731382 334.456282 
L 418.874748 336.369179 
L 421.126322 326.88602 
L 423.269503 336.34295 
L 425.663191 345.454218 
L 427.810135 311.644105 
L 429.958438 337.066167 
L 432.205759 350.397593 
L 434.462957 351.663378 
L 436.735917 329.828623 
L 438.967239 324.047363 
L 441.136014 339.922172 
L 443.529951 322.857519 
L 445.775507 350.17036 
L 448.175475 323.653601 
L 450.427556 351.009041 
L 452.624093 343.710271 
L 454.676171 322.877933 
L 456.848523 340.41574 
L 459.240441 345.236625 
L 461.384309 336.44023 
L 463.581886 319.201185 
L 465.749778 339.80022 
L 468.036027 355.322566 
L 470.175483 335.814812 
L 472.328843 337.776662 
L 474.601829 329.832157 
L 476.744922 336.3306 
L 478.889497 336.540066 
L 481.031729 336.208673 
L 483.284118 326.99907 
L 485.685784 323.877088 
L 487.933411 350.437023 
L 490.076898 336.386196 
L 492.468177 322.505515 
L 494.724419 351.541229 
L 496.864205 335.861779 
L 499.256325 322.617025 
L 501.399212 336.301315 
L 503.538839 361.155889 
L 506.039153 336.335301 
L 508.190635 312.335883 
L 510.442644 350.999763 
L 512.582682 335.897523 
L 514.720773 335.620937 
L 516.919065 343.946612 
L 519.255992 338.308898 
L 521.399285 336.358773 
L 523.651329 326.951262 
L 525.800557 337.196255 
L 528.195615 323.005902 
L 530.339199 336.399948 
L 532.482695 336.387531 
L 534.734706 351.000015 
L 536.878065 336.368212 
L 539.216116 315.285546 
L 541.351 360.537181 
L 543.50292 312.402682 
L 545.70088 343.901863 
L 547.890118 342.723664 
L 550.342525 330.410314 
L 552.597922 351.433369 
L 554.980925 344.135157 
L 557.427917 329.726015 
L 559.625059 343.791871 
L 562.076842 308.237975 
L 564.274032 343.798375 
L 566.716557 351.33633 
L 568.91919 319.936902 
L 571.171061 350.982056 
L 573.567316 323.163985 
L 576.005564 350.830669 
L 578.201952 343.690204 
L 580.350699 311.919404 
L 582.597435 350.3223 
L 584.99878 323.834808 
L 587.437214 350.852702 
L 589.580122 336.304293 
L 591.724849 336.561585 
L 593.921475 343.722345 
L 596.376623 308.692322 
L 598.565835 367.463532 
L 601.013164 329.768586 
L 603.273141 328.048897 
L 605.416438 336.35938 
L 607.551919 335.249416 
L 609.755917 344.71207 
L 612.096011 315.56872 
L 614.339442 349.896147 
L 616.79155 330.372604 
L 618.938079 336.816019 
L 621.190339 351.031954 
L 623.333528 336.344093 
L 625.474241 335.993222 
L 627.815199 315.688406 
L 629.958773 336.398563 
L 632.211726 351.120629 
L 634.603579 322.581562 
L 636.742075 361.008633 
L 639.310272 323.260309 
L 641.796865 356.445704 
L 643.940607 336.422407 
L 646.035999 303.574582 
L 648.351776 358.947776 
L 650.674425 336.45654 
L 652.832166 313.285358 
L 654.976476 336.502634 
L 657.228636 351.019138 
L 659.31648 328.304371 
L 661.763241 329.696686 
L 663.961396 343.928185 
L 666.448114 356.459934 
L 668.962532 316.493502 
L 671.409326 329.700852 
L 673.607241 343.895905 
L 676.108461 336.445046 
L 678.253015 336.53715 
L 680.387393 335.092106 
L 682.639428 351.003099 
L 685.023229 344.234064 
L 687.167237 336.45999 
L 689.612842 329.550161 
L 691.764769 312.403665 
L 693.908505 336.421496 
L 696.106129 343.856643 
L 698.404551 356.828455 
L 700.75076 316.413389 
L 702.885545 360.524287 
L 705.033765 311.838849 
L 707.48434 330.179148 
L 709.728097 349.938225 
L 711.925854 343.874616 
L 714.077684 337.561996 
L 716.470575 322.719127 
L 718.714386 349.945162 
L 720.856778 336.231187 
L 723.08592 348.038878 
L 725.394094 334.555184 
L 727.537314 336.34845 
L 730.04619 315.779655 
L 732.260305 346.059795 
L 734.632983 320.019147 
L 736.825815 367.91285 
L 738.977711 312.398869 
L 741.221611 349.956765 
L 743.371496 337.288748 
L 745.761673 322.359142 
L 747.909238 336.962123 
L 750.161582 351.042679 
L 752.304786 336.346283 
L 754.446245 336.099034 
L 756.832752 344.569108 
L 758.97691 336.481128 
L 758.97691 336.481128 
" clip-path="url(#p5e7853522f)" style="fill: none; stroke: #ff7f0e; stroke-width: 1.5; stroke-linecap: square"/>
   </g>
   <g id="line2d_16">
    <path d="M 93.23 183.950804 
L 791.446 183.950804 
" clip-path="url(#p5e7853522f)" style="fill: none; stroke-dasharray: 5.55,2.4; stroke-dashoffset: 0; stroke: #0000ff; stroke-width: 1.5"/>
   </g>
   <g id="line2d_17">
    <path d="M 93.23 336.615481 
L 791.446 336.615481 
" clip-path="url(#p5e7853522f)" style="fill: none; stroke-dasharray: 5.55,2.4; stroke-dashoffset: 0; stroke: #ffa500; stroke-width: 1.5"/>
   </g>
   <g id="patch_3">
    <path d="M 93.23 639.64 
L 93.23 60.96 
" style="fill: none; stroke: #000000; stroke-width: 0.8; stroke-linejoin: miter; stroke-linecap: square"/>
   </g>
   <g id="patch_4">
    <path d="M 791.446 639.64 
L 791.446 60.96 
" style="fill: none; stroke: #000000; stroke-width: 0.8; stroke-linejoin: miter; stroke-linecap: square"/>
   </g>
   <g id="patch_5">
    <path d="M 93.23 639.64 
L 791.446 639.64 
" style="fill: none; stroke: #000000; stroke-width: 0.8; stroke-linejoin: miter; stroke-linecap: square"/>
   </g>
   <g id="patch_6">
    <path d="M 93.23 60.96 
L 791.446 60.96 
" style="fill: none; stroke: #000000; stroke-width: 0.8; stroke-linejoin: miter; stroke-linecap: square"/>
   </g>
   <g id="text_16">
    <!-- Parsed and Filtered Packets (SelectionProcess: 16777218) -->
    <g transform="translate(199.340438 54.96) scale(0.168 -0.168)">
     <defs>
      <path id="DejaVuSans-46" d="M 628 4666 
L 3309 4666 
L 3309 4134 
L 1259 4134 
L 1259 2759 
L 3109 2759 
L 3109 2228 
L 1259 2228 
L 1259 0 
L 628 0 
L 628 4666 
z
" transform="scale(0.015625)"/>
      <path id="DejaVuSans-6c" d="M 603 4863 
L 1178 4863 
L 1178 0 
L 603 0 
L 603 4863 
z
" transform="scale(0.015625)"/>
      <path id="DejaVuSans-3a" d="M 750 794 
L 1409 794 
L 1409 0 
L 750 0 
L 750 794 
z
M 750 3309 
L 1409 3309 
L 1409 2516 
L 750 2516 
L 750 3309 
z
" transform="scale(0.015625)"/>
      <path id="DejaVuSans-37" d="M 525 4666 
L 3525 4666 
L 3525 4397 
L 1831 0 
L 1172 0 
L 2766 4134 
L 525 4134 
L 525 4666 
z
" transform="scale(0.015625)"/>
     </defs>
     <use xlink:href="#DejaVuSans-50"/>
     <use xlink:href="#DejaVuSans-61" x="55.802734"/>
     <use xlink:href="#DejaVuSans-72" x="117.082031"/>
     <use xlink:href="#DejaVuSans-73" x="158.195312"/>
     <use xlink:href="#DejaVuSans-65" x="210.294922"/>
     <use xlink:href="#DejaVuSans-64" x="271.818359"/>
     <use xlink:href="#DejaVuSans-20" x="335.294922"/>
     <use xlink:href="#DejaVuSans-61" x="367.082031"/>
     <use xlink:href="#DejaVuSans-6e" x="428.361328"/>
     <use xlink:href="#DejaVuSans-64" x="491.740234"/>
     <use xlink:href="#DejaVuSans-20" x="555.216797"/>
     <use xlink:href="#DejaVuSans-46" x="587.003906"/>
     <use xlink:href="#DejaVuSans-69" x="637.273438"/>
     <use xlink:href="#DejaVuSans-6c" x="665.056641"/>
     <use xlink:href="#DejaVuSans-74" x="692.839844"/>
     <use xlink:href="#DejaVuSans-65" x="732.048828"/>
     <use xlink:href="#DejaVuSans-72" x="793.572266"/>
     <use xlink:href="#DejaVuSans-65" x="832.435547"/>
     <use xlink:href="#DejaVuSans-64" x="893.958984"/>
     <use xlink:href="#DejaVuSans-20" x="957.435547"/>
     <use xlink:href="#DejaVuSans-50" x="989.222656"/>
     <use xlink:href="#DejaVuSans-61" x="1045.025391"/>
     <use xlink:href="#DejaVuSans-63" x="1106.304688"/>
     <use xlink:href="#DejaVuSans-6b" x="1161.285156"/>
     <use xlink:href="#DejaVuSans-65" x="1215.570312"/>
     <use xlink:href="#DejaVuSans-74" x="1277.09375"/>
     <use xlink:href="#DejaVuSans-73" x="1316.302734"/>
     <use xlink:href="#DejaVuSans-20" x="1368.402344"/>
     <use xlink:href="#DejaVuSans-28" x="1400.189453"/>
     <use xlink:href="#DejaVuSans-53" x="1439.203125"/>
     <use xlink:href="#DejaVuSans-65" x="1502.679688"/>
     <use xlink:href="#DejaVuSans-6c" x="1564.203125"/>
     <use xlink:href="#DejaVuSans-65" x="1591.986328"/>
     <use xlink:href="#DejaVuSans-63" x="1653.509766"/>
     <use xlink:href="#DejaVuSans-74" x="1708.490234"/>
     <use xlink:href="#DejaVuSans-69" x="1747.699219"/>
     <use xlink:href="#DejaVuSans-6f" x="1775.482422"/>
     <use xlink:href="#DejaVuSans-6e" x="1836.664062"/>
     <use xlink:href="#DejaVuSans-50" x="1900.042969"/>
     <use xlink:href="#DejaVuSans-72" x="1958.595703"/>
     <use xlink:href="#DejaVuSans-6f" x="1997.458984"/>
     <use xlink:href="#DejaVuSans-63" x="2058.640625"/>
     <use xlink:href="#DejaVuSans-65" x="2113.621094"/>
     <use xlink:href="#DejaVuSans-73" x="2175.144531"/>
     <use xlink:href="#DejaVuSans-73" x="2227.244141"/>
     <use xlink:href="#DejaVuSans-3a" x="2279.34375"/>
     <use xlink:href="#DejaVuSans-20" x="2313.035156"/>
     <use xlink:href="#DejaVuSans-31" x="2344.822266"/>
     <use xlink:href="#DejaVuSans-36" x="2408.445312"/>
     <use xlink:href="#DejaVuSans-37" x="2472.068359"/>
     <use xlink:href="#DejaVuSans-37" x="2535.691406"/>
     <use xlink:href="#DejaVuSans-37" x="2599.314453"/>
     <use xlink:href="#DejaVuSans-32" x="2662.9375"/>
     <use xlink:href="#DejaVuSans-31" x="2726.560547"/>
     <use xlink:href="#DejaVuSans-38" x="2790.183594"/>
     <use xlink:href="#DejaVuSans-29" x="2853.806641"/>
    </g>
   </g>
   <g id="legend_1">
    <g id="patch_7">
     <path d="M 801.246 393.49875 
L 1017.381938 393.49875 
Q 1020.181938 393.49875 1020.181938 390.69875 
L 1020.181938 309.90125 
Q 1020.181938 307.10125 1017.381938 307.10125 
L 801.246 307.10125 
Q 798.446 307.10125 798.446 309.90125 
L 798.446 390.69875 
Q 798.446 393.49875 801.246 393.49875 
z
" style="fill: #ffffff; opacity: 0.8; stroke: #cccccc; stroke-linejoin: miter"/>
    </g>
    <g id="line2d_18">
     <path d="M 804.046 318.439063 
L 818.046 318.439063 
L 832.046 318.439063 
" style="fill: none; stroke: #1f77b4; stroke-width: 1.5; stroke-linecap: square"/>
    </g>
    <g id="text_17">
     <!-- Parsed Packets -->
     <g transform="translate(843.246 323.339063) scale(0.14 -0.14)">
      <use xlink:href="#DejaVuSans-50"/>
      <use xlink:href="#DejaVuSans-61" x="55.802734"/>
      <use xlink:href="#DejaVuSans-72" x="117.082031"/>
      <use xlink:href="#DejaVuSans-73" x="158.195312"/>
      <use xlink:href="#DejaVuSans-65" x="210.294922"/>
      <use xlink:href="#DejaVuSans-64" x="271.818359"/>
      <use xlink:href="#DejaVuSans-20" x="335.294922"/>
      <use xlink:href="#DejaVuSans-50" x="367.082031"/>
      <use xlink:href="#DejaVuSans-61" x="422.884766"/>
      <use xlink:href="#DejaVuSans-63" x="484.164062"/>
      <use xlink:href="#DejaVuSans-6b" x="539.144531"/>
      <use xlink:href="#DejaVuSans-65" x="593.429688"/>
      <use xlink:href="#DejaVuSans-74" x="654.953125"/>
      <use xlink:href="#DejaVuSans-73" x="694.162109"/>
     </g>
    </g>
    <g id="line2d_19">
     <path d="M 804.046 338.988438 
L 818.046 338.988438 
L 832.046 338.988438 
" style="fill: none; stroke: #ff7f0e; stroke-width: 1.5; stroke-linecap: square"/>
    </g>
    <g id="text_18">
     <!-- Filtered Packets -->
     <g transform="translate(843.246 343.888438) scale(0.14 -0.14)">
      <use xlink:href="#DejaVuSans-46"/>
      <use xlink:href="#DejaVuSans-69" x="50.269531"/>
      <use xlink:href="#DejaVuSans-6c" x="78.052734"/>
      <use xlink:href="#DejaVuSans-74" x="105.835938"/>
      <use xlink:href="#DejaVuSans-65" x="145.044922"/>
      <use xlink:href="#DejaVuSans-72" x="206.568359"/>
      <use xlink:href="#DejaVuSans-65" x="245.431641"/>
      <use xlink:href="#DejaVuSans-64" x="306.955078"/>
      <use xlink:href="#DejaVuSans-20" x="370.431641"/>
      <use xlink:href="#DejaVuSans-50" x="402.21875"/>
      <use xlink:href="#DejaVuSans-61" x="458.021484"/>
      <use xlink:href="#DejaVuSans-63" x="519.300781"/>
      <use xlink:href="#DejaVuSans-6b" x="574.28125"/>
      <use xlink:href="#DejaVuSans-65" x="628.566406"/>
      <use xlink:href="#DejaVuSans-74" x="690.089844"/>
      <use xlink:href="#DejaVuSans-73" x="729.298828"/>
     </g>
    </g>
    <g id="line2d_20">
     <path d="M 804.046 359.537813 
L 818.046 359.537813 
L 832.046 359.537813 
" style="fill: none; stroke-dasharray: 5.55,2.4; stroke-dashoffset: 0; stroke: #0000ff; stroke-width: 1.5"/>
    </g>
    <g id="text_19">
     <!-- Parsed Packets Average -->
     <g transform="translate(843.246 364.437813) scale(0.14 -0.14)">
      <defs>
       <path id="DejaVuSans-41" d="M 2188 4044 
L 1331 1722 
L 3047 1722 
L 2188 4044 
z
M 1831 4666 
L 2547 4666 
L 4325 0 
L 3669 0 
L 3244 1197 
L 1141 1197 
L 716 0 
L 50 0 
L 1831 4666 
z
" transform="scale(0.015625)"/>
       <path id="DejaVuSans-76" d="M 191 3500 
L 800 3500 
L 1894 563 
L 2988 3500 
L 3597 3500 
L 2284 0 
L 1503 0 
L 191 3500 
z
" transform="scale(0.015625)"/>
       <path id="DejaVuSans-67" d="M 2906 1791 
Q 2906 2416 2648 2759 
Q 2391 3103 1925 3103 
Q 1463 3103 1205 2759 
Q 947 2416 947 1791 
Q 947 1169 1205 825 
Q 1463 481 1925 481 
Q 2391 481 2648 825 
Q 2906 1169 2906 1791 
z
M 3481 434 
Q 3481 -459 3084 -895 
Q 2688 -1331 1869 -1331 
Q 1566 -1331 1297 -1286 
Q 1028 -1241 775 -1147 
L 775 -588 
Q 1028 -725 1275 -790 
Q 1522 -856 1778 -856 
Q 2344 -856 2625 -561 
Q 2906 -266 2906 331 
L 2906 616 
Q 2728 306 2450 153 
Q 2172 0 1784 0 
Q 1141 0 747 490 
Q 353 981 353 1791 
Q 353 2603 747 3093 
Q 1141 3584 1784 3584 
Q 2172 3584 2450 3431 
Q 2728 3278 2906 2969 
L 2906 3500 
L 3481 3500 
L 3481 434 
z
" transform="scale(0.015625)"/>
      </defs>
      <use xlink:href="#DejaVuSans-50"/>
      <use xlink:href="#DejaVuSans-61" x="55.802734"/>
      <use xlink:href="#DejaVuSans-72" x="117.082031"/>
      <use xlink:href="#DejaVuSans-73" x="158.195312"/>
      <use xlink:href="#DejaVuSans-65" x="210.294922"/>
      <use xlink:href="#DejaVuSans-64" x="271.818359"/>
      <use xlink:href="#DejaVuSans-20" x="335.294922"/>
      <use xlink:href="#DejaVuSans-50" x="367.082031"/>
      <use xlink:href="#DejaVuSans-61" x="422.884766"/>
      <use xlink:href="#DejaVuSans-63" x="484.164062"/>
      <use xlink:href="#DejaVuSans-6b" x="539.144531"/>
      <use xlink:href="#DejaVuSans-65" x="593.429688"/>
      <use xlink:href="#DejaVuSans-74" x="654.953125"/>
      <use xlink:href="#DejaVuSans-73" x="694.162109"/>
      <use xlink:href="#DejaVuSans-20" x="746.261719"/>
      <use xlink:href="#DejaVuSans-41" x="778.048828"/>
      <use xlink:href="#DejaVuSans-76" x="840.582031"/>
      <use xlink:href="#DejaVuSans-65" x="899.761719"/>
      <use xlink:href="#DejaVuSans-72" x="961.285156"/>
      <use xlink:href="#DejaVuSans-61" x="1002.398438"/>
      <use xlink:href="#DejaVuSans-67" x="1063.677734"/>
      <use xlink:href="#DejaVuSans-65" x="1127.154297"/>
     </g>
    </g>
    <g id="line2d_21">
     <path d="M 804.046 380.087188 
L 818.046 380.087188 
L 832.046 380.087188 
" style="fill: none; stroke-dasharray: 5.55,2.4; stroke-dashoffset: 0; stroke: #ffa500; stroke-width: 1.5"/>
    </g>
    <g id="text_20">
     <!-- Filtered Packets Average -->
     <g transform="translate(843.246 384.987188) scale(0.14 -0.14)">
      <use xlink:href="#DejaVuSans-46"/>
      <use xlink:href="#DejaVuSans-69" x="50.269531"/>
      <use xlink:href="#DejaVuSans-6c" x="78.052734"/>
      <use xlink:href="#DejaVuSans-74" x="105.835938"/>
      <use xlink:href="#DejaVuSans-65" x="145.044922"/>
      <use xlink:href="#DejaVuSans-72" x="206.568359"/>
      <use xlink:href="#DejaVuSans-65" x="245.431641"/>
      <use xlink:href="#DejaVuSans-64" x="306.955078"/>
      <use xlink:href="#DejaVuSans-20" x="370.431641"/>
      <use xlink:href="#DejaVuSans-50" x="402.21875"/>
      <use xlink:href="#DejaVuSans-61" x="458.021484"/>
      <use xlink:href="#DejaVuSans-63" x="519.300781"/>
      <use xlink:href="#DejaVuSans-6b" x="574.28125"/>
      <use xlink:href="#DejaVuSans-65" x="628.566406"/>
      <use xlink:href="#DejaVuSans-74" x="690.089844"/>
      <use xlink:href="#DejaVuSans-73" x="729.298828"/>
      <use xlink:href="#DejaVuSans-20" x="781.398438"/>
      <use xlink:href="#DejaVuSans-41" x="813.185547"/>
      <use xlink:href="#DejaVuSans-76" x="875.71875"/>
      <use xlink:href="#DejaVuSans-65" x="934.898438"/>
      <use xlink:href="#DejaVuSans-72" x="996.421875"/>
      <use xlink:href="#DejaVuSans-61" x="1037.535156"/>
      <use xlink:href="#DejaVuSans-67" x="1098.814453"/>
      <use xlink:href="#DejaVuSans-65" x="1162.291016"/>
     </g>
    </g>
   </g>
  </g>
 </g>
 <defs>
  <clipPath id="p5e7853522f">
   <rect x="93.23" y="60.96" width="698.216" height="578.68"/>
  </clipPath>
 </defs>
</svg>
