<?xml version="1.0" encoding="utf-8" standalone="no"?>
<!DOCTYPE svg PUBLIC "-//W3C//DTD SVG 1.1//EN"
  "http://www.w3.org/Graphics/SVG/1.1/DTD/svg11.dtd">
<svg xmlns:xlink="http://www.w3.org/1999/xlink" width="792pt" height="576pt" viewBox="0 0 792 576" xmlns="http://www.w3.org/2000/svg" version="1.1">
 <metadata>
  <rdf:RDF xmlns:dc="http://purl.org/dc/elements/1.1/" xmlns:cc="http://creativecommons.org/ns#" xmlns:rdf="http://www.w3.org/1999/02/22-rdf-syntax-ns#">
   <cc:Work>
    <dc:type rdf:resource="http://purl.org/dc/dcmitype/StillImage"/>
    <dc:date>2023-05-07T21:51:32.740809</dc:date>
    <dc:format>image/svg+xml</dc:format>
    <dc:creator>
     <cc:Agent>
      <dc:title>Matplotlib v3.6.2, https://matplotlib.org/</dc:title>
     </cc:Agent>
    </dc:creator>
   </cc:Work>
  </rdf:RDF>
 </metadata>
 <defs>
  <style type="text/css">*{stroke-linejoin: round; stroke-linecap: butt}</style>
 </defs>
 <g id="figure_1">
  <g id="patch_1">
   <path d="M 0 576 
L 792 576 
L 792 0 
L 0 0 
z
" style="fill: #ffffff"/>
  </g>
  <g id="axes_1">
   <g id="patch_2">
    <path d="M 57.53 414.72 
L 767.79 414.72 
L 767.79 15.66 
L 57.53 15.66 
z
" style="fill: #ffffff"/>
   </g>
   <g id="matplotlib.axis_1">
    <g id="xtick_1">
     <g id="line2d_1">
      <path d="M 57.53 414.72 
L 57.53 15.66 
" clip-path="url(#p2c0a3b0d97)" style="fill: none; stroke: #b0b0b0; stroke-width: 0.8; stroke-linecap: square"/>
     </g>
     <g id="line2d_2">
      <defs>
       <path id="mbd84030a2f" d="M 0 0 
L 0 3.5 
" style="stroke: #000000; stroke-width: 0.8"/>
      </defs>
      <g>
       <use xlink:href="#mbd84030a2f" x="57.53" y="414.72" style="stroke: #000000; stroke-width: 0.8"/>
      </g>
     </g>
     <g id="text_1">
      <!-- 0 -->
      <g transform="translate(53.235313 431.977891) scale(0.135 -0.135)">
       <defs>
        <path id="DejaVuSans-30" d="M 2034 4250 
Q 1547 4250 1301 3770 
Q 1056 3291 1056 2328 
Q 1056 1369 1301 889 
Q 1547 409 2034 409 
Q 2525 409 2770 889 
Q 3016 1369 3016 2328 
Q 3016 3291 2770 3770 
Q 2525 4250 2034 4250 
z
M 2034 4750 
Q 2819 4750 3233 4129 
Q 3647 3509 3647 2328 
Q 3647 1150 3233 529 
Q 2819 -91 2034 -91 
Q 1250 -91 836 529 
Q 422 1150 422 2328 
Q 422 3509 836 4129 
Q 1250 4750 2034 4750 
z
" transform="scale(0.015625)"/>
       </defs>
       <use xlink:href="#DejaVuSans-30"/>
      </g>
     </g>
    </g>
    <g id="xtick_2">
     <g id="line2d_3">
      <path d="M 175.906667 414.72 
L 175.906667 15.66 
" clip-path="url(#p2c0a3b0d97)" style="fill: none; stroke: #b0b0b0; stroke-width: 0.8; stroke-linecap: square"/>
     </g>
     <g id="line2d_4">
      <g>
       <use xlink:href="#mbd84030a2f" x="175.906667" y="414.72" style="stroke: #000000; stroke-width: 0.8"/>
      </g>
     </g>
     <g id="text_2">
      <!-- 10 -->
      <g transform="translate(167.317292 431.977891) scale(0.135 -0.135)">
       <defs>
        <path id="DejaVuSans-31" d="M 794 531 
L 1825 531 
L 1825 4091 
L 703 3866 
L 703 4441 
L 1819 4666 
L 2450 4666 
L 2450 531 
L 3481 531 
L 3481 0 
L 794 0 
L 794 531 
z
" transform="scale(0.015625)"/>
       </defs>
       <use xlink:href="#DejaVuSans-31"/>
       <use xlink:href="#DejaVuSans-30" x="63.623047"/>
      </g>
     </g>
    </g>
    <g id="xtick_3">
     <g id="line2d_5">
      <path d="M 294.283333 414.72 
L 294.283333 15.66 
" clip-path="url(#p2c0a3b0d97)" style="fill: none; stroke: #b0b0b0; stroke-width: 0.8; stroke-linecap: square"/>
     </g>
     <g id="line2d_6">
      <g>
       <use xlink:href="#mbd84030a2f" x="294.283333" y="414.72" style="stroke: #000000; stroke-width: 0.8"/>
      </g>
     </g>
     <g id="text_3">
      <!-- 20 -->
      <g transform="translate(285.693958 431.977891) scale(0.135 -0.135)">
       <defs>
        <path id="DejaVuSans-32" d="M 1228 531 
L 3431 531 
L 3431 0 
L 469 0 
L 469 531 
Q 828 903 1448 1529 
Q 2069 2156 2228 2338 
Q 2531 2678 2651 2914 
Q 2772 3150 2772 3378 
Q 2772 3750 2511 3984 
Q 2250 4219 1831 4219 
Q 1534 4219 1204 4116 
Q 875 4013 500 3803 
L 500 4441 
Q 881 4594 1212 4672 
Q 1544 4750 1819 4750 
Q 2544 4750 2975 4387 
Q 3406 4025 3406 3419 
Q 3406 3131 3298 2873 
Q 3191 2616 2906 2266 
Q 2828 2175 2409 1742 
Q 1991 1309 1228 531 
z
" transform="scale(0.015625)"/>
       </defs>
       <use xlink:href="#DejaVuSans-32"/>
       <use xlink:href="#DejaVuSans-30" x="63.623047"/>
      </g>
     </g>
    </g>
    <g id="xtick_4">
     <g id="line2d_7">
      <path d="M 412.66 414.72 
L 412.66 15.66 
" clip-path="url(#p2c0a3b0d97)" style="fill: none; stroke: #b0b0b0; stroke-width: 0.8; stroke-linecap: square"/>
     </g>
     <g id="line2d_8">
      <g>
       <use xlink:href="#mbd84030a2f" x="412.66" y="414.72" style="stroke: #000000; stroke-width: 0.8"/>
      </g>
     </g>
     <g id="text_4">
      <!-- 30 -->
      <g transform="translate(404.070625 431.977891) scale(0.135 -0.135)">
       <defs>
        <path id="DejaVuSans-33" d="M 2597 2516 
Q 3050 2419 3304 2112 
Q 3559 1806 3559 1356 
Q 3559 666 3084 287 
Q 2609 -91 1734 -91 
Q 1441 -91 1130 -33 
Q 819 25 488 141 
L 488 750 
Q 750 597 1062 519 
Q 1375 441 1716 441 
Q 2309 441 2620 675 
Q 2931 909 2931 1356 
Q 2931 1769 2642 2001 
Q 2353 2234 1838 2234 
L 1294 2234 
L 1294 2753 
L 1863 2753 
Q 2328 2753 2575 2939 
Q 2822 3125 2822 3475 
Q 2822 3834 2567 4026 
Q 2313 4219 1838 4219 
Q 1578 4219 1281 4162 
Q 984 4106 628 3988 
L 628 4550 
Q 988 4650 1302 4700 
Q 1616 4750 1894 4750 
Q 2613 4750 3031 4423 
Q 3450 4097 3450 3541 
Q 3450 3153 3228 2886 
Q 3006 2619 2597 2516 
z
" transform="scale(0.015625)"/>
       </defs>
       <use xlink:href="#DejaVuSans-33"/>
       <use xlink:href="#DejaVuSans-30" x="63.623047"/>
      </g>
     </g>
    </g>
    <g id="xtick_5">
     <g id="line2d_9">
      <path d="M 531.036667 414.72 
L 531.036667 15.66 
" clip-path="url(#p2c0a3b0d97)" style="fill: none; stroke: #b0b0b0; stroke-width: 0.8; stroke-linecap: square"/>
     </g>
     <g id="line2d_10">
      <g>
       <use xlink:href="#mbd84030a2f" x="531.036667" y="414.72" style="stroke: #000000; stroke-width: 0.8"/>
      </g>
     </g>
     <g id="text_5">
      <!-- 40 -->
      <g transform="translate(522.447292 431.977891) scale(0.135 -0.135)">
       <defs>
        <path id="DejaVuSans-34" d="M 2419 4116 
L 825 1625 
L 2419 1625 
L 2419 4116 
z
M 2253 4666 
L 3047 4666 
L 3047 1625 
L 3713 1625 
L 3713 1100 
L 3047 1100 
L 3047 0 
L 2419 0 
L 2419 1100 
L 313 1100 
L 313 1709 
L 2253 4666 
z
" transform="scale(0.015625)"/>
       </defs>
       <use xlink:href="#DejaVuSans-34"/>
       <use xlink:href="#DejaVuSans-30" x="63.623047"/>
      </g>
     </g>
    </g>
    <g id="xtick_6">
     <g id="line2d_11">
      <path d="M 649.413333 414.72 
L 649.413333 15.66 
" clip-path="url(#p2c0a3b0d97)" style="fill: none; stroke: #b0b0b0; stroke-width: 0.8; stroke-linecap: square"/>
     </g>
     <g id="line2d_12">
      <g>
       <use xlink:href="#mbd84030a2f" x="649.413333" y="414.72" style="stroke: #000000; stroke-width: 0.8"/>
      </g>
     </g>
     <g id="text_6">
      <!-- 50 -->
      <g transform="translate(640.823958 431.977891) scale(0.135 -0.135)">
       <defs>
        <path id="DejaVuSans-35" d="M 691 4666 
L 3169 4666 
L 3169 4134 
L 1269 4134 
L 1269 2991 
Q 1406 3038 1543 3061 
Q 1681 3084 1819 3084 
Q 2600 3084 3056 2656 
Q 3513 2228 3513 1497 
Q 3513 744 3044 326 
Q 2575 -91 1722 -91 
Q 1428 -91 1123 -41 
Q 819 9 494 109 
L 494 744 
Q 775 591 1075 516 
Q 1375 441 1709 441 
Q 2250 441 2565 725 
Q 2881 1009 2881 1497 
Q 2881 1984 2565 2268 
Q 2250 2553 1709 2553 
Q 1456 2553 1204 2497 
Q 953 2441 691 2322 
L 691 4666 
z
" transform="scale(0.015625)"/>
       </defs>
       <use xlink:href="#DejaVuSans-35"/>
       <use xlink:href="#DejaVuSans-30" x="63.623047"/>
      </g>
     </g>
    </g>
    <g id="xtick_7">
     <g id="line2d_13">
      <path d="M 767.79 414.72 
L 767.79 15.66 
" clip-path="url(#p2c0a3b0d97)" style="fill: none; stroke: #b0b0b0; stroke-width: 0.8; stroke-linecap: square"/>
     </g>
     <g id="line2d_14">
      <g>
       <use xlink:href="#mbd84030a2f" x="767.79" y="414.72" style="stroke: #000000; stroke-width: 0.8"/>
      </g>
     </g>
     <g id="text_7">
      <!-- 60 -->
      <g transform="translate(759.200625 431.977891) scale(0.135 -0.135)">
       <defs>
        <path id="DejaVuSans-36" d="M 2113 2584 
Q 1688 2584 1439 2293 
Q 1191 2003 1191 1497 
Q 1191 994 1439 701 
Q 1688 409 2113 409 
Q 2538 409 2786 701 
Q 3034 994 3034 1497 
Q 3034 2003 2786 2293 
Q 2538 2584 2113 2584 
z
M 3366 4563 
L 3366 3988 
Q 3128 4100 2886 4159 
Q 2644 4219 2406 4219 
Q 1781 4219 1451 3797 
Q 1122 3375 1075 2522 
Q 1259 2794 1537 2939 
Q 1816 3084 2150 3084 
Q 2853 3084 3261 2657 
Q 3669 2231 3669 1497 
Q 3669 778 3244 343 
Q 2819 -91 2113 -91 
Q 1303 -91 875 529 
Q 447 1150 447 2328 
Q 447 3434 972 4092 
Q 1497 4750 2381 4750 
Q 2619 4750 2861 4703 
Q 3103 4656 3366 4563 
z
" transform="scale(0.015625)"/>
       </defs>
       <use xlink:href="#DejaVuSans-36"/>
       <use xlink:href="#DejaVuSans-30" x="63.623047"/>
      </g>
     </g>
    </g>
    <g id="text_8">
     <!-- Time (s) -->
     <g transform="translate(383.183086 449.803203) scale(0.145 -0.145)">
      <defs>
       <path id="DejaVuSans-54" d="M -19 4666 
L 3928 4666 
L 3928 4134 
L 2272 4134 
L 2272 0 
L 1638 0 
L 1638 4134 
L -19 4134 
L -19 4666 
z
" transform="scale(0.015625)"/>
       <path id="DejaVuSans-69" d="M 603 3500 
L 1178 3500 
L 1178 0 
L 603 0 
L 603 3500 
z
M 603 4863 
L 1178 4863 
L 1178 4134 
L 603 4134 
L 603 4863 
z
" transform="scale(0.015625)"/>
       <path id="DejaVuSans-6d" d="M 3328 2828 
Q 3544 3216 3844 3400 
Q 4144 3584 4550 3584 
Q 5097 3584 5394 3201 
Q 5691 2819 5691 2113 
L 5691 0 
L 5113 0 
L 5113 2094 
Q 5113 2597 4934 2840 
Q 4756 3084 4391 3084 
Q 3944 3084 3684 2787 
Q 3425 2491 3425 1978 
L 3425 0 
L 2847 0 
L 2847 2094 
Q 2847 2600 2669 2842 
Q 2491 3084 2119 3084 
Q 1678 3084 1418 2786 
Q 1159 2488 1159 1978 
L 1159 0 
L 581 0 
L 581 3500 
L 1159 3500 
L 1159 2956 
Q 1356 3278 1631 3431 
Q 1906 3584 2284 3584 
Q 2666 3584 2933 3390 
Q 3200 3197 3328 2828 
z
" transform="scale(0.015625)"/>
       <path id="DejaVuSans-65" d="M 3597 1894 
L 3597 1613 
L 953 1613 
Q 991 1019 1311 708 
Q 1631 397 2203 397 
Q 2534 397 2845 478 
Q 3156 559 3463 722 
L 3463 178 
Q 3153 47 2828 -22 
Q 2503 -91 2169 -91 
Q 1331 -91 842 396 
Q 353 884 353 1716 
Q 353 2575 817 3079 
Q 1281 3584 2069 3584 
Q 2775 3584 3186 3129 
Q 3597 2675 3597 1894 
z
M 3022 2063 
Q 3016 2534 2758 2815 
Q 2500 3097 2075 3097 
Q 1594 3097 1305 2825 
Q 1016 2553 972 2059 
L 3022 2063 
z
" transform="scale(0.015625)"/>
       <path id="DejaVuSans-20" transform="scale(0.015625)"/>
       <path id="DejaVuSans-28" d="M 1984 4856 
Q 1566 4138 1362 3434 
Q 1159 2731 1159 2009 
Q 1159 1288 1364 580 
Q 1569 -128 1984 -844 
L 1484 -844 
Q 1016 -109 783 600 
Q 550 1309 550 2009 
Q 550 2706 781 3412 
Q 1013 4119 1484 4856 
L 1984 4856 
z
" transform="scale(0.015625)"/>
       <path id="DejaVuSans-73" d="M 2834 3397 
L 2834 2853 
Q 2591 2978 2328 3040 
Q 2066 3103 1784 3103 
Q 1356 3103 1142 2972 
Q 928 2841 928 2578 
Q 928 2378 1081 2264 
Q 1234 2150 1697 2047 
L 1894 2003 
Q 2506 1872 2764 1633 
Q 3022 1394 3022 966 
Q 3022 478 2636 193 
Q 2250 -91 1575 -91 
Q 1294 -91 989 -36 
Q 684 19 347 128 
L 347 722 
Q 666 556 975 473 
Q 1284 391 1588 391 
Q 1994 391 2212 530 
Q 2431 669 2431 922 
Q 2431 1156 2273 1281 
Q 2116 1406 1581 1522 
L 1381 1569 
Q 847 1681 609 1914 
Q 372 2147 372 2553 
Q 372 3047 722 3315 
Q 1072 3584 1716 3584 
Q 2034 3584 2315 3537 
Q 2597 3491 2834 3397 
z
" transform="scale(0.015625)"/>
       <path id="DejaVuSans-29" d="M 513 4856 
L 1013 4856 
Q 1481 4119 1714 3412 
Q 1947 2706 1947 2009 
Q 1947 1309 1714 600 
Q 1481 -109 1013 -844 
L 513 -844 
Q 928 -128 1133 580 
Q 1338 1288 1338 2009 
Q 1338 2731 1133 3434 
Q 928 4138 513 4856 
z
" transform="scale(0.015625)"/>
      </defs>
      <use xlink:href="#DejaVuSans-54"/>
      <use xlink:href="#DejaVuSans-69" x="57.958984"/>
      <use xlink:href="#DejaVuSans-6d" x="85.742188"/>
      <use xlink:href="#DejaVuSans-65" x="183.154297"/>
      <use xlink:href="#DejaVuSans-20" x="244.677734"/>
      <use xlink:href="#DejaVuSans-28" x="276.464844"/>
      <use xlink:href="#DejaVuSans-73" x="315.478516"/>
      <use xlink:href="#DejaVuSans-29" x="367.578125"/>
     </g>
    </g>
   </g>
   <g id="matplotlib.axis_2">
    <g id="ytick_1">
     <g id="line2d_15">
      <path d="M 57.53 414.72 
L 767.79 414.72 
" clip-path="url(#p2c0a3b0d97)" style="fill: none; stroke: #b0b0b0; stroke-width: 0.8; stroke-linecap: square"/>
     </g>
     <g id="line2d_16">
      <defs>
       <path id="mf132cb537a" d="M 0 0 
L -3.5 0 
" style="stroke: #000000; stroke-width: 0.8"/>
      </defs>
      <g>
       <use xlink:href="#mf132cb537a" x="57.53" y="414.72" style="stroke: #000000; stroke-width: 0.8"/>
      </g>
     </g>
     <g id="text_9">
      <!-- 0 -->
      <g transform="translate(41.940625 419.848945) scale(0.135 -0.135)">
       <use xlink:href="#DejaVuSans-30"/>
      </g>
     </g>
    </g>
    <g id="ytick_2">
     <g id="line2d_17">
      <path d="M 57.53 356.561253 
L 767.79 356.561253 
" clip-path="url(#p2c0a3b0d97)" style="fill: none; stroke: #b0b0b0; stroke-width: 0.8; stroke-linecap: square"/>
     </g>
     <g id="line2d_18">
      <g>
       <use xlink:href="#mf132cb537a" x="57.53" y="356.561253" style="stroke: #000000; stroke-width: 0.8"/>
      </g>
     </g>
     <g id="text_10">
      <!-- 10 -->
      <g transform="translate(33.35125 361.690199) scale(0.135 -0.135)">
       <use xlink:href="#DejaVuSans-31"/>
       <use xlink:href="#DejaVuSans-30" x="63.623047"/>
      </g>
     </g>
    </g>
    <g id="ytick_3">
     <g id="line2d_19">
      <path d="M 57.53 298.402507 
L 767.79 298.402507 
" clip-path="url(#p2c0a3b0d97)" style="fill: none; stroke: #b0b0b0; stroke-width: 0.8; stroke-linecap: square"/>
     </g>
     <g id="line2d_20">
      <g>
       <use xlink:href="#mf132cb537a" x="57.53" y="298.402507" style="stroke: #000000; stroke-width: 0.8"/>
      </g>
     </g>
     <g id="text_11">
      <!-- 20 -->
      <g transform="translate(33.35125 303.531452) scale(0.135 -0.135)">
       <use xlink:href="#DejaVuSans-32"/>
       <use xlink:href="#DejaVuSans-30" x="63.623047"/>
      </g>
     </g>
    </g>
    <g id="ytick_4">
     <g id="line2d_21">
      <path d="M 57.53 240.24376 
L 767.79 240.24376 
" clip-path="url(#p2c0a3b0d97)" style="fill: none; stroke: #b0b0b0; stroke-width: 0.8; stroke-linecap: square"/>
     </g>
     <g id="line2d_22">
      <g>
       <use xlink:href="#mf132cb537a" x="57.53" y="240.24376" style="stroke: #000000; stroke-width: 0.8"/>
      </g>
     </g>
     <g id="text_12">
      <!-- 30 -->
      <g transform="translate(33.35125 245.372705) scale(0.135 -0.135)">
       <use xlink:href="#DejaVuSans-33"/>
       <use xlink:href="#DejaVuSans-30" x="63.623047"/>
      </g>
     </g>
    </g>
    <g id="ytick_5">
     <g id="line2d_23">
      <path d="M 57.53 182.085013 
L 767.79 182.085013 
" clip-path="url(#p2c0a3b0d97)" style="fill: none; stroke: #b0b0b0; stroke-width: 0.8; stroke-linecap: square"/>
     </g>
     <g id="line2d_24">
      <g>
       <use xlink:href="#mf132cb537a" x="57.53" y="182.085013" style="stroke: #000000; stroke-width: 0.8"/>
      </g>
     </g>
     <g id="text_13">
      <!-- 40 -->
      <g transform="translate(33.35125 187.213959) scale(0.135 -0.135)">
       <use xlink:href="#DejaVuSans-34"/>
       <use xlink:href="#DejaVuSans-30" x="63.623047"/>
      </g>
     </g>
    </g>
    <g id="ytick_6">
     <g id="line2d_25">
      <path d="M 57.53 123.926267 
L 767.79 123.926267 
" clip-path="url(#p2c0a3b0d97)" style="fill: none; stroke: #b0b0b0; stroke-width: 0.8; stroke-linecap: square"/>
     </g>
     <g id="line2d_26">
      <g>
       <use xlink:href="#mf132cb537a" x="57.53" y="123.926267" style="stroke: #000000; stroke-width: 0.8"/>
      </g>
     </g>
     <g id="text_14">
      <!-- 50 -->
      <g transform="translate(33.35125 129.055212) scale(0.135 -0.135)">
       <use xlink:href="#DejaVuSans-35"/>
       <use xlink:href="#DejaVuSans-30" x="63.623047"/>
      </g>
     </g>
    </g>
    <g id="ytick_7">
     <g id="line2d_27">
      <path d="M 57.53 65.76752 
L 767.79 65.76752 
" clip-path="url(#p2c0a3b0d97)" style="fill: none; stroke: #b0b0b0; stroke-width: 0.8; stroke-linecap: square"/>
     </g>
     <g id="line2d_28">
      <g>
       <use xlink:href="#mf132cb537a" x="57.53" y="65.76752" style="stroke: #000000; stroke-width: 0.8"/>
      </g>
     </g>
     <g id="text_15">
      <!-- 60 -->
      <g transform="translate(33.35125 70.896466) scale(0.135 -0.135)">
       <use xlink:href="#DejaVuSans-36"/>
       <use xlink:href="#DejaVuSans-30" x="63.623047"/>
      </g>
     </g>
    </g>
    <g id="text_16">
     <!-- Packet Rate (pps) -->
     <g transform="translate(26.335703 278.771367) rotate(-90) scale(0.145 -0.145)">
      <defs>
       <path id="DejaVuSans-50" d="M 1259 4147 
L 1259 2394 
L 2053 2394 
Q 2494 2394 2734 2622 
Q 2975 2850 2975 3272 
Q 2975 3691 2734 3919 
Q 2494 4147 2053 4147 
L 1259 4147 
z
M 628 4666 
L 2053 4666 
Q 2838 4666 3239 4311 
Q 3641 3956 3641 3272 
Q 3641 2581 3239 2228 
Q 2838 1875 2053 1875 
L 1259 1875 
L 1259 0 
L 628 0 
L 628 4666 
z
" transform="scale(0.015625)"/>
       <path id="DejaVuSans-61" d="M 2194 1759 
Q 1497 1759 1228 1600 
Q 959 1441 959 1056 
Q 959 750 1161 570 
Q 1363 391 1709 391 
Q 2188 391 2477 730 
Q 2766 1069 2766 1631 
L 2766 1759 
L 2194 1759 
z
M 3341 1997 
L 3341 0 
L 2766 0 
L 2766 531 
Q 2569 213 2275 61 
Q 1981 -91 1556 -91 
Q 1019 -91 701 211 
Q 384 513 384 1019 
Q 384 1609 779 1909 
Q 1175 2209 1959 2209 
L 2766 2209 
L 2766 2266 
Q 2766 2663 2505 2880 
Q 2244 3097 1772 3097 
Q 1472 3097 1187 3025 
Q 903 2953 641 2809 
L 641 3341 
Q 956 3463 1253 3523 
Q 1550 3584 1831 3584 
Q 2591 3584 2966 3190 
Q 3341 2797 3341 1997 
z
" transform="scale(0.015625)"/>
       <path id="DejaVuSans-63" d="M 3122 3366 
L 3122 2828 
Q 2878 2963 2633 3030 
Q 2388 3097 2138 3097 
Q 1578 3097 1268 2742 
Q 959 2388 959 1747 
Q 959 1106 1268 751 
Q 1578 397 2138 397 
Q 2388 397 2633 464 
Q 2878 531 3122 666 
L 3122 134 
Q 2881 22 2623 -34 
Q 2366 -91 2075 -91 
Q 1284 -91 818 406 
Q 353 903 353 1747 
Q 353 2603 823 3093 
Q 1294 3584 2113 3584 
Q 2378 3584 2631 3529 
Q 2884 3475 3122 3366 
z
" transform="scale(0.015625)"/>
       <path id="DejaVuSans-6b" d="M 581 4863 
L 1159 4863 
L 1159 1991 
L 2875 3500 
L 3609 3500 
L 1753 1863 
L 3688 0 
L 2938 0 
L 1159 1709 
L 1159 0 
L 581 0 
L 581 4863 
z
" transform="scale(0.015625)"/>
       <path id="DejaVuSans-74" d="M 1172 4494 
L 1172 3500 
L 2356 3500 
L 2356 3053 
L 1172 3053 
L 1172 1153 
Q 1172 725 1289 603 
Q 1406 481 1766 481 
L 2356 481 
L 2356 0 
L 1766 0 
Q 1100 0 847 248 
Q 594 497 594 1153 
L 594 3053 
L 172 3053 
L 172 3500 
L 594 3500 
L 594 4494 
L 1172 4494 
z
" transform="scale(0.015625)"/>
       <path id="DejaVuSans-52" d="M 2841 2188 
Q 3044 2119 3236 1894 
Q 3428 1669 3622 1275 
L 4263 0 
L 3584 0 
L 2988 1197 
Q 2756 1666 2539 1819 
Q 2322 1972 1947 1972 
L 1259 1972 
L 1259 0 
L 628 0 
L 628 4666 
L 2053 4666 
Q 2853 4666 3247 4331 
Q 3641 3997 3641 3322 
Q 3641 2881 3436 2590 
Q 3231 2300 2841 2188 
z
M 1259 4147 
L 1259 2491 
L 2053 2491 
Q 2509 2491 2742 2702 
Q 2975 2913 2975 3322 
Q 2975 3731 2742 3939 
Q 2509 4147 2053 4147 
L 1259 4147 
z
" transform="scale(0.015625)"/>
       <path id="DejaVuSans-70" d="M 1159 525 
L 1159 -1331 
L 581 -1331 
L 581 3500 
L 1159 3500 
L 1159 2969 
Q 1341 3281 1617 3432 
Q 1894 3584 2278 3584 
Q 2916 3584 3314 3078 
Q 3713 2572 3713 1747 
Q 3713 922 3314 415 
Q 2916 -91 2278 -91 
Q 1894 -91 1617 61 
Q 1341 213 1159 525 
z
M 3116 1747 
Q 3116 2381 2855 2742 
Q 2594 3103 2138 3103 
Q 1681 3103 1420 2742 
Q 1159 2381 1159 1747 
Q 1159 1113 1420 752 
Q 1681 391 2138 391 
Q 2594 391 2855 752 
Q 3116 1113 3116 1747 
z
" transform="scale(0.015625)"/>
      </defs>
      <use xlink:href="#DejaVuSans-50"/>
      <use xlink:href="#DejaVuSans-61" x="55.802734"/>
      <use xlink:href="#DejaVuSans-63" x="117.082031"/>
      <use xlink:href="#DejaVuSans-6b" x="172.0625"/>
      <use xlink:href="#DejaVuSans-65" x="226.347656"/>
      <use xlink:href="#DejaVuSans-74" x="287.871094"/>
      <use xlink:href="#DejaVuSans-20" x="327.080078"/>
      <use xlink:href="#DejaVuSans-52" x="358.867188"/>
      <use xlink:href="#DejaVuSans-61" x="426.099609"/>
      <use xlink:href="#DejaVuSans-74" x="487.378906"/>
      <use xlink:href="#DejaVuSans-65" x="526.587891"/>
      <use xlink:href="#DejaVuSans-20" x="588.111328"/>
      <use xlink:href="#DejaVuSans-28" x="619.898438"/>
      <use xlink:href="#DejaVuSans-70" x="658.912109"/>
      <use xlink:href="#DejaVuSans-70" x="722.388672"/>
      <use xlink:href="#DejaVuSans-73" x="785.865234"/>
      <use xlink:href="#DejaVuSans-29" x="837.964844"/>
     </g>
    </g>
   </g>
   <g id="line2d_29">
    <path d="M 57.53 67.049664 
L 59.90147 66.34679 
L 62.277004 66.942738 
L 64.717051 76.137722 
L 67.428006 59.181366 
L 69.939183 85.728144 
L 72.229214 84.021385 
L 74.789725 65.179169 
L 77.10511 57.908236 
L 79.473085 65.832558 
L 82.068572 43.364121 
L 84.506565 75.852602 
L 86.996691 82.946968 
L 89.340572 62.246128 
L 91.754186 72.429703 
L 94.39805 50.159128 
L 96.761806 94.335759 
L 99.140275 38.426222 
L 101.848901 58.875613 
L 104.221313 66.485114 
L 106.615321 98.384252 
L 109.032271 44.417343 
L 111.405573 66.615796 
L 114.16269 90.104363 
L 116.721289 64.918104 
L 119.036047 57.81158 
L 121.404811 65.948768 
L 123.747169 62.017036 
L 126.142558 69.825405 
L 128.799878 52.00525 
L 131.282202 81.904139 
L 133.653647 66.343124 
L 136.025118 66.346884 
L 138.401808 67.112031 
L 140.992957 42.742325 
L 143.414421 101.971099 
L 146.186235 42.149584 
L 148.952792 66.326937 
L 151.449442 83.8139 
L 153.818174 65.944133 
L 156.146036 59.820662 
L 158.549675 71.009174 
L 161.143913 43.185381 
L 163.513295 66.039721 
L 165.943548 74.773363 
L 168.306967 94.289988 
L 170.807683 56.821232 
L 173.174847 65.71315 
L 175.763349 42.361957 
L 178.188868 74.109848 
L 180.553921 94.511414 
L 182.924301 66.186513 
L 185.393063 52.188945 
L 188.009244 46.301493 
L 190.616231 97.819119 
L 192.884637 50.518502 
L 195.503851 73.013289 
L 198.003345 56.646427 
L 200.364307 64.796156 
L 202.742858 67.38391 
L 205.112777 66.118856 
L 207.478605 65.515994 
L 209.781942 85.931658 
L 212.161151 38.54335 
L 214.699294 89.223439 
L 217.220972 59.796514 
L 219.597354 38.09569 
L 222.102207 84.89765 
L 224.391767 53.883494 
L 226.878979 82.558369 
L 229.458783 41.106581 
L 231.88456 74.14588 
L 234.640176 89.927701 
L 237.137007 56.264431 
L 239.615295 81.362206 
L 242.146374 33.914232 
L 244.633393 82.532456 
L 247.001064 65.787793 
L 249.58314 41.435358 
L 252.001815 101.610537 
L 254.703398 57.947875 
L 257.130144 74.281886 
L 259.498127 65.833847 
L 261.875654 38.277236 
L 264.479153 97.394393 
L 269.371956 32.279489 
L 271.739263 65.734206 
L 274.277241 89.202406 
L 276.869212 42.86034 
L 279.346678 81.251519 
L 281.811458 79.535352 
L 284.367288 37.602083 
L 286.905687 89.256219 
L 289.211981 56.501807 
L 291.640379 74.513581 
L 294.035242 69.749697 
L 296.412904 67.254078 
L 298.803233 69.09534 
L 301.170303 65.699227 
L 303.70224 34.043203 
L 306.119787 72.986549 
L 308.548462 74.552365 
L 310.804565 48.532576 
L 313.292296 82.627634 
L 315.590099 55.17795 
L 318.144412 91.284037 
L 320.600361 50.297556 
L 323.027708 74.36622 
L 325.730293 58.080245 
L 328.157765 74.38382 
L 330.591959 47.040516 
L 333.073631 81.816867 
L 335.501157 74.391303 
L 337.9631 51.184811 
L 340.396275 46.886579 
L 342.88396 82.62146 
L 345.370983 82.532976 
L 347.733941 65.091838 
L 350.196239 51.237164 
L 352.623177 74.308967 
L 354.990947 65.802342 
L 357.478745 54.962898 
L 359.813531 60.873173 
L 362.214596 70.64081 
L 364.674226 78.833494 
L 367.010118 61.040652 
L 369.443336 75.187439 
L 371.959858 59.069324 
L 374.453364 55.786408 
L 377.090194 75.296095 
L 379.458943 65.946647 
L 381.951067 55.587304 
L 384.528692 67.499987 
L 386.955327 74.266461 
L 389.443991 55.088008 
L 391.904355 78.933716 
L 394.453415 63.609023 
L 396.821236 65.809792 
L 399.308595 54.899508 
L 401.676211 65.779616 
L 404.320566 76.262044 
L 406.692338 37.36383 
L 409.065613 66.611671 
L 411.548274 81.94935 
L 414.041847 83.405624 
L 416.552832 58.284944 
L 419.017818 51.633659 
L 421.413708 69.897477 
L 424.058338 50.264756 
L 426.53905 81.687921 
L 429.190343 51.18064 
L 431.678263 82.652815 
L 434.104821 74.255649 
L 436.371794 50.288241 
L 438.771635 70.465323 
L 441.414036 76.011706 
L 443.782411 65.891536 
L 446.210118 46.058177 
L 448.605033 69.757172 
L 451.130699 87.615485 
L 453.494198 65.171999 
L 455.873059 67.429088 
L 458.384072 58.289011 
L 460.751591 65.765407 
L 463.120746 66.006396 
L 465.487314 65.625131 
L 467.975573 55.029571 
L 470.628743 51.43776 
L 473.111742 81.994714 
L 475.479695 65.82937 
L 478.12139 49.859779 
L 480.613906 83.265093 
L 482.977771 65.226034 
L 485.620395 49.988069 
L 487.987686 65.731716 
L 490.351375 94.326668 
L 493.113523 65.770816 
L 495.490309 38.159713 
L 497.978149 82.642141 
L 500.342292 65.267156 
L 502.704285 64.948948 
L 505.132783 74.527557 
L 507.714433 68.041421 
L 510.082172 65.797821 
L 512.570051 54.974568 
L 514.944346 66.761335 
L 517.590216 50.435469 
L 519.958276 65.845192 
L 522.32624 65.830906 
L 524.814082 82.64243 
L 527.181895 65.80868 
L 529.764787 41.553273 
L 532.123236 93.61485 
L 534.500507 38.236565 
L 536.928637 74.476074 
L 539.347133 73.120568 
L 542.056357 58.954175 
L 544.54794 83.141 
L 547.180491 74.744477 
L 549.883734 58.166895 
L 552.310961 74.349529 
L 555.019495 33.445109 
L 557.446776 74.357012 
L 560.145082 83.029358 
L 562.578376 46.904613 
L 565.066064 82.621769 
L 567.713255 50.617342 
L 570.406837 82.4476 
L 572.833231 74.232562 
L 575.206996 37.680558 
L 577.689011 81.862726 
L 580.341825 51.389117 
L 583.035613 82.472949 
L 585.402927 65.735141 
L 587.77225 66.031153 
L 590.198907 74.26954 
L 592.911159 33.96783 
L 595.329626 101.583551 
L 598.03324 58.215873 
L 600.529883 56.237387 
L 602.897626 65.798518 
L 605.256736 64.521516 
L 607.691537 75.40821 
L 610.276686 41.879062 
L 612.75505 81.372441 
L 615.463944 58.91079 
L 617.835258 66.323877 
L 620.323376 82.679176 
L 622.691 65.780932 
L 625.055888 65.377257 
L 627.641993 42.016759 
L 630.010042 65.843598 
L 632.498925 82.781196 
L 635.141253 49.94727 
L 637.503693 94.157251 
L 640.340833 50.728162 
L 643.087822 88.907644 
L 645.456058 65.871031 
L 647.77088 28.079919 
L 650.329165 91.786255 
L 652.895043 65.9103 
L 655.278743 39.252075 
L 657.647606 65.963331 
L 660.135613 82.664432 
L 662.442097 56.531308 
L 665.145084 58.133152 
L 667.57343 74.506357 
L 670.320558 88.924016 
L 673.098287 42.943014 
L 675.80131 58.137945 
L 678.229391 74.46922 
L 680.992539 65.897077 
L 683.361672 66.003042 
L 685.719563 64.340532 
L 688.207432 82.645979 
L 690.840864 74.858268 
L 693.209394 65.91427 
L 695.911103 57.964577 
L 698.288381 38.237695 
L 700.656609 65.869983 
L 703.084369 74.424049 
L 705.623483 89.347996 
L 708.215387 42.850845 
L 710.573728 93.600015 
L 712.946909 37.58788 
L 715.65411 58.68822 
L 718.132834 81.420851 
L 720.560741 74.444727 
L 722.937911 67.182118 
L 725.581386 50.105537 
L 728.060169 81.428832 
L 730.426913 65.651034 
L 732.889492 79.235671 
L 735.439378 63.722809 
L 737.807037 65.785944 
L 740.578643 42.12174 
L 743.024621 76.958754 
L 745.645766 46.999235 
L 748.068232 102.100487 
L 750.445475 38.232178 
L 752.924358 81.442181 
L 755.29938 66.867747 
L 757.939856 49.691378 
L 760.312315 66.491969 
L 762.800525 82.691515 
L 765.168166 65.783451 
L 765.168166 65.783451 
" clip-path="url(#p2c0a3b0d97)" style="fill: none; stroke: #ff7f0e; stroke-width: 1.5; stroke-linecap: square"/>
   </g>
   <g id="line2d_30">
    <path d="M 57.53 66.115147 
L 767.79 66.115147 
" clip-path="url(#p2c0a3b0d97)" style="fill: none; stroke-dasharray: 5.55,2.4; stroke-dashoffset: 0; stroke: #ffa500; stroke-width: 1.5"/>
   </g>
   <g id="line2d_31">
    <path d="M 57.53 240.88875 
L 59.901459 269.563797 
L 62.277007 240.832443 
L 64.717045 217.212972 
L 67.428001 236.950698 
L 69.939142 250.221739 
L 72.229197 264.403984 
L 74.789668 226.502774 
L 77.105014 236.311172 
L 79.472975 240.275256 
L 82.068547 255.57266 
L 84.50657 217.049774 
L 86.996643 276.478293 
L 89.340513 238.482228 
L 91.754138 215.051614 
L 94.398047 232.442639 
L 96.761809 269.091157 
L 99.140279 241.046024 
L 101.8489 236.797473 
L 104.221315 240.602805 
L 106.615194 242.16392 
L 109.032214 215.332028 
L 111.405567 240.671602 
L 114.162679 264.897204 
L 116.721287 226.365724 
L 119.036047 236.265914 
L 121.404808 269.398478 
L 123.747171 208.977067 
L 126.142556 271.013687 
L 128.799877 207.454443 
L 131.282197 276.046526 
L 133.653645 211.500475 
L 138.401801 269.889295 
L 140.992945 202.16098 
L 143.414413 272.561653 
L 146.186231 240.854047 
L 148.952785 240.523263 
L 151.449429 221.690979 
L 153.818027 240.322187 
L 156.146027 237.280908 
L 158.549664 242.864453 
L 161.143785 255.483657 
L 163.513251 240.386102 
L 165.943529 244.748321 
L 168.306954 239.940486 
L 170.807676 222.005765 
L 173.174833 240.216065 
L 175.763341 228.54138 
L 178.18886 272.799103 
L 180.553915 240.060876 
L 182.924174 240.444389 
L 185.39303 247.404346 
L 188.009225 204.196262 
L 190.616201 256.268873 
L 192.884605 262.969308 
L 195.503832 230.725007 
L 198.003296 221.908743 
L 200.364273 239.759238 
L 202.742847 241.053616 
L 205.11277 240.41973 
L 207.478591 240.117465 
L 209.781926 265.270655 
L 212.161139 212.163672 
L 214.699289 251.97219 
L 217.220899 250.904697 
L 219.597238 211.918702 
L 222.102203 249.816158 
L 224.391765 234.301919 
L 226.878948 248.637212 
L 229.458647 254.593477 
L 231.884543 244.441314 
L 234.640131 239.830009 
L 237.137003 221.708681 
L 239.615285 248.040699 
L 242.146342 224.315475 
L 244.633385 248.627823 
L 247.001053 240.253669 
L 249.583106 228.076005 
L 252.001809 272.399155 
L 254.703387 236.333595 
L 257.130136 244.501203 
L 259.498115 240.276627 
L 261.875487 212.00674 
L 264.479145 256.066947 
L 269.371941 223.499697 
L 271.73925 240.227242 
L 274.277233 251.961484 
L 276.869203 228.790093 
L 279.346661 275.774423 
L 281.811439 219.19541 
L 284.367168 226.153542 
L 286.905631 251.992247 
L 289.211964 235.613919 
L 291.640363 244.616839 
L 294.035055 242.222588 
L 296.412786 240.992032 
L 298.803156 241.910647 
L 301.170284 240.213898 
L 303.702115 224.373652 
L 306.119766 272.337215 
L 308.54828 244.624894 
L 310.804553 201.126725 
L 313.292221 248.669578 
L 315.589975 234.945225 
L 318.144358 253.00643 
L 320.600338 246.527126 
L 323.027689 244.543441 
L 325.730102 236.388743 
L 328.157739 244.563469 
L 330.591827 245.014373 
L 333.073564 220.53158 
L 335.501134 244.55875 
L 337.963072 246.934199 
L 340.396248 244.950745 
L 342.883936 248.670955 
L 345.370957 220.944114 
L 347.733923 239.906488 
L 350.196068 246.948311 
L 352.623139 244.523771 
L 354.990752 240.249636 
L 357.478611 248.682326 
L 359.813441 237.799918 
L 362.214567 214.012188 
L 364.674194 246.776533 
L 367.010092 237.880773 
L 369.443251 244.949635 
L 371.959831 250.577288 
L 374.45327 249.053876 
L 377.090161 231.957521 
L 381.951043 248.970547 
L 384.528657 227.754604 
L 386.955297 244.493539 
L 389.443961 221.072039 
L 391.904324 246.826767 
L 394.453394 252.669377 
L 396.821193 240.263408 
L 399.308463 220.963471 
L 401.676176 240.257018 
L 404.320421 258.502131 
L 406.692307 240.56393 
L 409.06558 211.656646 
L 411.548237 276.065366 
L 414.04182 221.454077 
L 416.552698 250.204474 
L 419.01778 247.148215 
L 421.41361 242.304467 
L 424.05829 232.495767 
L 426.539012 248.204673 
L 429.190245 206.978472 
L 431.678117 248.683237 
L 434.104678 244.488004 
L 436.371585 262.869077 
L 438.771606 242.605485 
L 441.414 232.338181 
L 443.782217 240.294097 
L 446.21008 244.579295 
L 448.604987 242.238074 
L 451.130597 223.904804 
L 453.494057 239.943025 
L 455.87302 241.082036 
L 458.38397 250.209236 
L 460.751553 240.24741 
L 463.120709 240.363257 
L 465.487273 240.172288 
L 467.975533 221.04065 
L 470.628629 233.073799 
L 473.111584 248.354394 
L 475.479544 240.275199 
L 478.121344 258.357566 
L 480.613863 221.371594 
L 482.977674 239.968993 
L 485.620248 258.40331 
L 487.987641 240.233484 
L 490.351165 239.947752 
L 493.113475 240.255604 
L 495.490159 211.948145 
L 497.978039 248.683748 
L 500.342246 239.998224 
L 502.704235 239.834257 
L 505.132669 244.619285 
L 507.714382 254.71838 
L 510.08202 240.25147 
L 512.569835 248.679407 
L 514.944189 240.744918 
L 517.590164 206.565695 
L 519.958162 240.277986 
L 522.326196 240.280649 
L 524.813911 248.672723 
L 527.181831 240.272253 
L 529.764666 228.132562 
L 532.123154 268.765508 
L 534.50044 211.999461 
L 536.928574 244.598253 
L 539.347067 243.920159 
L 542.05629 262.24886 
L 544.547802 221.293366 
L 547.180426 257.812554 
L 549.883666 236.443316 
L 552.31083 244.530313 
L 555.019431 236.79615 
L 557.44671 244.53837 
L 560.144944 236.112498 
L 562.578309 244.964039 
L 565.065988 248.670292 
L 567.713079 206.653449 
L 570.406648 261.362745 
L 572.833159 244.484541 
L 575.206856 240.69679 
L 577.688941 248.296079 
L 580.341759 207.102655 
L 583.035544 261.37505 
L 585.402859 240.227675 
L 587.772179 240.375344 
L 590.198832 244.494436 
L 592.911079 211.651781 
L 595.329555 272.385818 
L 598.033168 236.467901 
L 600.529634 221.677218 
L 602.897562 240.272826 
L 605.256666 268.803592 
L 607.691404 245.059744 
L 610.276611 201.672823 
L 612.754975 275.825197 
L 615.463794 236.810478 
L 617.835188 211.495768 
L 620.323297 248.698966 
L 622.690748 240.237689 
L 625.055707 240.053869 
L 627.641916 228.375954 
L 630.009899 240.2769 
L 632.498848 248.755007 
L 635.141173 232.333387 
L 637.503478 269.001336 
L 640.340728 220.598576 
L 643.087686 264.343351 
L 645.455962 240.298506 
L 647.770765 206.527391 
L 650.329065 253.254053 
L 652.894949 253.731359 
L 655.278575 212.538657 
L 657.647512 240.347134 
L 660.135518 248.692112 
L 662.441935 235.620432 
L 665.144992 236.431257 
L 667.573336 244.612979 
L 670.320394 264.348854 
L 673.09819 216.443713 
L 675.801215 236.42907 
L 678.229228 244.589866 
L 680.992449 240.313087 
L 683.361533 240.357976 
L 685.719372 239.526388 
L 688.207355 248.690649 
L 690.840784 257.860519 
L 693.209146 240.304781 
L 695.910914 236.346142 
L 698.288312 212.009074 
L 700.656528 240.294 
L 703.0843 244.572978 
L 705.623412 252.033867 
L 708.215303 228.784392 
L 710.573653 268.756955 
L 712.946832 240.658872 
L 715.654035 211.273451 
L 718.132695 275.841748 
L 720.560558 244.57933 
L 722.937831 211.998356 
L 725.58125 232.408843 
L 728.060103 248.079121 
L 730.426834 240.184594 
L 732.88924 246.966073 
L 735.439297 252.732128 
L 737.806958 240.253135 
L 740.578567 216.001128 
L 743.024477 245.834666 
L 745.645689 257.129406 
L 748.068149 244.199803 
L 750.445399 211.996437 
L 752.924169 248.073475 
L 755.29929 269.787665 
L 757.939664 232.198576 
L 760.312234 211.596542 
L 762.800231 248.691566 
L 765.168076 240.266675 
L 767.533084 240.057513 
L 767.533084 240.057513 
" clip-path="url(#p2c0a3b0d97)" style="fill: none; stroke: #1f77b4; stroke-width: 1.5; stroke-linecap: square"/>
   </g>
   <g id="line2d_32">
    <path d="M 57.53 240.435739 
L 767.79 240.435739 
" clip-path="url(#p2c0a3b0d97)" style="fill: none; stroke-dasharray: 5.55,2.4; stroke-dashoffset: 0; stroke: #0000ff; stroke-width: 1.5"/>
   </g>
   <g id="patch_3">
    <path d="M 57.53 414.72 
L 57.53 15.66 
" style="fill: none; stroke: #000000; stroke-width: 0.8; stroke-linejoin: miter; stroke-linecap: square"/>
   </g>
   <g id="patch_4">
    <path d="M 767.79 414.72 
L 767.79 15.66 
" style="fill: none; stroke: #000000; stroke-width: 0.8; stroke-linejoin: miter; stroke-linecap: square"/>
   </g>
   <g id="patch_5">
    <path d="M 57.53 414.72 
L 767.79 414.72 
" style="fill: none; stroke: #000000; stroke-width: 0.8; stroke-linejoin: miter; stroke-linecap: square"/>
   </g>
   <g id="patch_6">
    <path d="M 57.53 15.66 
L 767.79 15.66 
" style="fill: none; stroke: #000000; stroke-width: 0.8; stroke-linejoin: miter; stroke-linecap: square"/>
   </g>
   <g id="legend_1">
    <g id="patch_7">
     <path d="M 234.276016 559.340325 
L 591.043984 559.340325 
Q 593.943984 559.340325 593.943984 556.440325 
L 593.943984 472.7572 
Q 593.943984 469.8572 591.043984 469.8572 
L 234.276016 469.8572 
Q 231.376016 469.8572 231.376016 472.7572 
L 231.376016 556.440325 
Q 231.376016 559.340325 234.276016 559.340325 
z
" style="fill: #ffffff; opacity: 0.8; stroke: #cccccc; stroke-linejoin: miter"/>
    </g>
    <g id="line2d_33">
     <path d="M 237.176016 481.599934 
L 251.676016 481.599934 
L 266.176016 481.599934 
" style="fill: none; stroke: #ff7f0e; stroke-width: 1.5; stroke-linecap: square"/>
    </g>
    <g id="text_17">
     <!-- Camera 1 - mean error deviation: 2.06 pps -->
     <g transform="translate(277.776016 486.674934) scale(0.145 -0.145)">
      <defs>
       <path id="DejaVuSans-43" d="M 4122 4306 
L 4122 3641 
Q 3803 3938 3442 4084 
Q 3081 4231 2675 4231 
Q 1875 4231 1450 3742 
Q 1025 3253 1025 2328 
Q 1025 1406 1450 917 
Q 1875 428 2675 428 
Q 3081 428 3442 575 
Q 3803 722 4122 1019 
L 4122 359 
Q 3791 134 3420 21 
Q 3050 -91 2638 -91 
Q 1578 -91 968 557 
Q 359 1206 359 2328 
Q 359 3453 968 4101 
Q 1578 4750 2638 4750 
Q 3056 4750 3426 4639 
Q 3797 4528 4122 4306 
z
" transform="scale(0.015625)"/>
       <path id="DejaVuSans-72" d="M 2631 2963 
Q 2534 3019 2420 3045 
Q 2306 3072 2169 3072 
Q 1681 3072 1420 2755 
Q 1159 2438 1159 1844 
L 1159 0 
L 581 0 
L 581 3500 
L 1159 3500 
L 1159 2956 
Q 1341 3275 1631 3429 
Q 1922 3584 2338 3584 
Q 2397 3584 2469 3576 
Q 2541 3569 2628 3553 
L 2631 2963 
z
" transform="scale(0.015625)"/>
       <path id="DejaVuSans-2d" d="M 313 2009 
L 1997 2009 
L 1997 1497 
L 313 1497 
L 313 2009 
z
" transform="scale(0.015625)"/>
       <path id="DejaVuSans-6e" d="M 3513 2113 
L 3513 0 
L 2938 0 
L 2938 2094 
Q 2938 2591 2744 2837 
Q 2550 3084 2163 3084 
Q 1697 3084 1428 2787 
Q 1159 2491 1159 1978 
L 1159 0 
L 581 0 
L 581 3500 
L 1159 3500 
L 1159 2956 
Q 1366 3272 1645 3428 
Q 1925 3584 2291 3584 
Q 2894 3584 3203 3211 
Q 3513 2838 3513 2113 
z
" transform="scale(0.015625)"/>
       <path id="DejaVuSans-6f" d="M 1959 3097 
Q 1497 3097 1228 2736 
Q 959 2375 959 1747 
Q 959 1119 1226 758 
Q 1494 397 1959 397 
Q 2419 397 2687 759 
Q 2956 1122 2956 1747 
Q 2956 2369 2687 2733 
Q 2419 3097 1959 3097 
z
M 1959 3584 
Q 2709 3584 3137 3096 
Q 3566 2609 3566 1747 
Q 3566 888 3137 398 
Q 2709 -91 1959 -91 
Q 1206 -91 779 398 
Q 353 888 353 1747 
Q 353 2609 779 3096 
Q 1206 3584 1959 3584 
z
" transform="scale(0.015625)"/>
       <path id="DejaVuSans-64" d="M 2906 2969 
L 2906 4863 
L 3481 4863 
L 3481 0 
L 2906 0 
L 2906 525 
Q 2725 213 2448 61 
Q 2172 -91 1784 -91 
Q 1150 -91 751 415 
Q 353 922 353 1747 
Q 353 2572 751 3078 
Q 1150 3584 1784 3584 
Q 2172 3584 2448 3432 
Q 2725 3281 2906 2969 
z
M 947 1747 
Q 947 1113 1208 752 
Q 1469 391 1925 391 
Q 2381 391 2643 752 
Q 2906 1113 2906 1747 
Q 2906 2381 2643 2742 
Q 2381 3103 1925 3103 
Q 1469 3103 1208 2742 
Q 947 2381 947 1747 
z
" transform="scale(0.015625)"/>
       <path id="DejaVuSans-76" d="M 191 3500 
L 800 3500 
L 1894 563 
L 2988 3500 
L 3597 3500 
L 2284 0 
L 1503 0 
L 191 3500 
z
" transform="scale(0.015625)"/>
       <path id="DejaVuSans-3a" d="M 750 794 
L 1409 794 
L 1409 0 
L 750 0 
L 750 794 
z
M 750 3309 
L 1409 3309 
L 1409 2516 
L 750 2516 
L 750 3309 
z
" transform="scale(0.015625)"/>
       <path id="DejaVuSans-2e" d="M 684 794 
L 1344 794 
L 1344 0 
L 684 0 
L 684 794 
z
" transform="scale(0.015625)"/>
      </defs>
      <use xlink:href="#DejaVuSans-43"/>
      <use xlink:href="#DejaVuSans-61" x="69.824219"/>
      <use xlink:href="#DejaVuSans-6d" x="131.103516"/>
      <use xlink:href="#DejaVuSans-65" x="228.515625"/>
      <use xlink:href="#DejaVuSans-72" x="290.039062"/>
      <use xlink:href="#DejaVuSans-61" x="331.152344"/>
      <use xlink:href="#DejaVuSans-20" x="392.431641"/>
      <use xlink:href="#DejaVuSans-31" x="424.21875"/>
      <use xlink:href="#DejaVuSans-20" x="487.841797"/>
      <use xlink:href="#DejaVuSans-2d" x="519.628906"/>
      <use xlink:href="#DejaVuSans-20" x="555.712891"/>
      <use xlink:href="#DejaVuSans-6d" x="587.5"/>
      <use xlink:href="#DejaVuSans-65" x="684.912109"/>
      <use xlink:href="#DejaVuSans-61" x="746.435547"/>
      <use xlink:href="#DejaVuSans-6e" x="807.714844"/>
      <use xlink:href="#DejaVuSans-20" x="871.09375"/>
      <use xlink:href="#DejaVuSans-65" x="902.880859"/>
      <use xlink:href="#DejaVuSans-72" x="964.404297"/>
      <use xlink:href="#DejaVuSans-72" x="1003.767578"/>
      <use xlink:href="#DejaVuSans-6f" x="1042.630859"/>
      <use xlink:href="#DejaVuSans-72" x="1103.8125"/>
      <use xlink:href="#DejaVuSans-20" x="1144.925781"/>
      <use xlink:href="#DejaVuSans-64" x="1176.712891"/>
      <use xlink:href="#DejaVuSans-65" x="1240.189453"/>
      <use xlink:href="#DejaVuSans-76" x="1301.712891"/>
      <use xlink:href="#DejaVuSans-69" x="1360.892578"/>
      <use xlink:href="#DejaVuSans-61" x="1388.675781"/>
      <use xlink:href="#DejaVuSans-74" x="1449.955078"/>
      <use xlink:href="#DejaVuSans-69" x="1489.164062"/>
      <use xlink:href="#DejaVuSans-6f" x="1516.947266"/>
      <use xlink:href="#DejaVuSans-6e" x="1578.128906"/>
      <use xlink:href="#DejaVuSans-3a" x="1641.507812"/>
      <use xlink:href="#DejaVuSans-20" x="1675.199219"/>
      <use xlink:href="#DejaVuSans-32" x="1706.986328"/>
      <use xlink:href="#DejaVuSans-2e" x="1770.609375"/>
      <use xlink:href="#DejaVuSans-30" x="1802.396484"/>
      <use xlink:href="#DejaVuSans-36" x="1866.019531"/>
      <use xlink:href="#DejaVuSans-20" x="1929.642578"/>
      <use xlink:href="#DejaVuSans-70" x="1961.429688"/>
      <use xlink:href="#DejaVuSans-70" x="2024.90625"/>
      <use xlink:href="#DejaVuSans-73" x="2088.382812"/>
     </g>
    </g>
    <g id="line2d_34">
     <path d="M 237.176016 502.883216 
L 251.676016 502.883216 
L 266.176016 502.883216 
" style="fill: none; stroke-dasharray: 5.55,2.4; stroke-dashoffset: 0; stroke: #ffa500; stroke-width: 1.5"/>
    </g>
    <g id="text_18">
     <!-- Camera 1 - average: 59.94 pps -->
     <g transform="translate(277.776016 507.958216) scale(0.145 -0.145)">
      <defs>
       <path id="DejaVuSans-67" d="M 2906 1791 
Q 2906 2416 2648 2759 
Q 2391 3103 1925 3103 
Q 1463 3103 1205 2759 
Q 947 2416 947 1791 
Q 947 1169 1205 825 
Q 1463 481 1925 481 
Q 2391 481 2648 825 
Q 2906 1169 2906 1791 
z
M 3481 434 
Q 3481 -459 3084 -895 
Q 2688 -1331 1869 -1331 
Q 1566 -1331 1297 -1286 
Q 1028 -1241 775 -1147 
L 775 -588 
Q 1028 -725 1275 -790 
Q 1522 -856 1778 -856 
Q 2344 -856 2625 -561 
Q 2906 -266 2906 331 
L 2906 616 
Q 2728 306 2450 153 
Q 2172 0 1784 0 
Q 1141 0 747 490 
Q 353 981 353 1791 
Q 353 2603 747 3093 
Q 1141 3584 1784 3584 
Q 2172 3584 2450 3431 
Q 2728 3278 2906 2969 
L 2906 3500 
L 3481 3500 
L 3481 434 
z
" transform="scale(0.015625)"/>
       <path id="DejaVuSans-39" d="M 703 97 
L 703 672 
Q 941 559 1184 500 
Q 1428 441 1663 441 
Q 2288 441 2617 861 
Q 2947 1281 2994 2138 
Q 2813 1869 2534 1725 
Q 2256 1581 1919 1581 
Q 1219 1581 811 2004 
Q 403 2428 403 3163 
Q 403 3881 828 4315 
Q 1253 4750 1959 4750 
Q 2769 4750 3195 4129 
Q 3622 3509 3622 2328 
Q 3622 1225 3098 567 
Q 2575 -91 1691 -91 
Q 1453 -91 1209 -44 
Q 966 3 703 97 
z
M 1959 2075 
Q 2384 2075 2632 2365 
Q 2881 2656 2881 3163 
Q 2881 3666 2632 3958 
Q 2384 4250 1959 4250 
Q 1534 4250 1286 3958 
Q 1038 3666 1038 3163 
Q 1038 2656 1286 2365 
Q 1534 2075 1959 2075 
z
" transform="scale(0.015625)"/>
      </defs>
      <use xlink:href="#DejaVuSans-43"/>
      <use xlink:href="#DejaVuSans-61" x="69.824219"/>
      <use xlink:href="#DejaVuSans-6d" x="131.103516"/>
      <use xlink:href="#DejaVuSans-65" x="228.515625"/>
      <use xlink:href="#DejaVuSans-72" x="290.039062"/>
      <use xlink:href="#DejaVuSans-61" x="331.152344"/>
      <use xlink:href="#DejaVuSans-20" x="392.431641"/>
      <use xlink:href="#DejaVuSans-31" x="424.21875"/>
      <use xlink:href="#DejaVuSans-20" x="487.841797"/>
      <use xlink:href="#DejaVuSans-2d" x="519.628906"/>
      <use xlink:href="#DejaVuSans-20" x="555.712891"/>
      <use xlink:href="#DejaVuSans-61" x="587.5"/>
      <use xlink:href="#DejaVuSans-76" x="648.779297"/>
      <use xlink:href="#DejaVuSans-65" x="707.958984"/>
      <use xlink:href="#DejaVuSans-72" x="769.482422"/>
      <use xlink:href="#DejaVuSans-61" x="810.595703"/>
      <use xlink:href="#DejaVuSans-67" x="871.875"/>
      <use xlink:href="#DejaVuSans-65" x="935.351562"/>
      <use xlink:href="#DejaVuSans-3a" x="996.875"/>
      <use xlink:href="#DejaVuSans-20" x="1030.566406"/>
      <use xlink:href="#DejaVuSans-35" x="1062.353516"/>
      <use xlink:href="#DejaVuSans-39" x="1125.976562"/>
      <use xlink:href="#DejaVuSans-2e" x="1189.599609"/>
      <use xlink:href="#DejaVuSans-39" x="1221.386719"/>
      <use xlink:href="#DejaVuSans-34" x="1285.009766"/>
      <use xlink:href="#DejaVuSans-20" x="1348.632812"/>
      <use xlink:href="#DejaVuSans-70" x="1380.419922"/>
      <use xlink:href="#DejaVuSans-70" x="1443.896484"/>
      <use xlink:href="#DejaVuSans-73" x="1507.373047"/>
     </g>
    </g>
    <g id="line2d_35">
     <path d="M 237.176016 524.166497 
L 251.676016 524.166497 
L 266.176016 524.166497 
" style="fill: none; stroke: #1f77b4; stroke-width: 1.5; stroke-linecap: square"/>
    </g>
    <g id="text_19">
     <!-- Camera 2 - mean error deviation: 1.96 pps -->
     <g transform="translate(277.776016 529.241497) scale(0.145 -0.145)">
      <use xlink:href="#DejaVuSans-43"/>
      <use xlink:href="#DejaVuSans-61" x="69.824219"/>
      <use xlink:href="#DejaVuSans-6d" x="131.103516"/>
      <use xlink:href="#DejaVuSans-65" x="228.515625"/>
      <use xlink:href="#DejaVuSans-72" x="290.039062"/>
      <use xlink:href="#DejaVuSans-61" x="331.152344"/>
      <use xlink:href="#DejaVuSans-20" x="392.431641"/>
      <use xlink:href="#DejaVuSans-32" x="424.21875"/>
      <use xlink:href="#DejaVuSans-20" x="487.841797"/>
      <use xlink:href="#DejaVuSans-2d" x="519.628906"/>
      <use xlink:href="#DejaVuSans-20" x="555.712891"/>
      <use xlink:href="#DejaVuSans-6d" x="587.5"/>
      <use xlink:href="#DejaVuSans-65" x="684.912109"/>
      <use xlink:href="#DejaVuSans-61" x="746.435547"/>
      <use xlink:href="#DejaVuSans-6e" x="807.714844"/>
      <use xlink:href="#DejaVuSans-20" x="871.09375"/>
      <use xlink:href="#DejaVuSans-65" x="902.880859"/>
      <use xlink:href="#DejaVuSans-72" x="964.404297"/>
      <use xlink:href="#DejaVuSans-72" x="1003.767578"/>
      <use xlink:href="#DejaVuSans-6f" x="1042.630859"/>
      <use xlink:href="#DejaVuSans-72" x="1103.8125"/>
      <use xlink:href="#DejaVuSans-20" x="1144.925781"/>
      <use xlink:href="#DejaVuSans-64" x="1176.712891"/>
      <use xlink:href="#DejaVuSans-65" x="1240.189453"/>
      <use xlink:href="#DejaVuSans-76" x="1301.712891"/>
      <use xlink:href="#DejaVuSans-69" x="1360.892578"/>
      <use xlink:href="#DejaVuSans-61" x="1388.675781"/>
      <use xlink:href="#DejaVuSans-74" x="1449.955078"/>
      <use xlink:href="#DejaVuSans-69" x="1489.164062"/>
      <use xlink:href="#DejaVuSans-6f" x="1516.947266"/>
      <use xlink:href="#DejaVuSans-6e" x="1578.128906"/>
      <use xlink:href="#DejaVuSans-3a" x="1641.507812"/>
      <use xlink:href="#DejaVuSans-20" x="1675.199219"/>
      <use xlink:href="#DejaVuSans-31" x="1706.986328"/>
      <use xlink:href="#DejaVuSans-2e" x="1770.609375"/>
      <use xlink:href="#DejaVuSans-39" x="1802.396484"/>
      <use xlink:href="#DejaVuSans-36" x="1866.019531"/>
      <use xlink:href="#DejaVuSans-20" x="1929.642578"/>
      <use xlink:href="#DejaVuSans-70" x="1961.429688"/>
      <use xlink:href="#DejaVuSans-70" x="2024.90625"/>
      <use xlink:href="#DejaVuSans-73" x="2088.382812"/>
     </g>
    </g>
    <g id="line2d_36">
     <path d="M 237.176016 545.449778 
L 251.676016 545.449778 
L 266.176016 545.449778 
" style="fill: none; stroke-dasharray: 5.55,2.4; stroke-dashoffset: 0; stroke: #0000ff; stroke-width: 1.5"/>
    </g>
    <g id="text_20">
     <!-- Camera 2 - average: 29.97 pps -->
     <g transform="translate(277.776016 550.524778) scale(0.145 -0.145)">
      <defs>
       <path id="DejaVuSans-37" d="M 525 4666 
L 3525 4666 
L 3525 4397 
L 1831 0 
L 1172 0 
L 2766 4134 
L 525 4134 
L 525 4666 
z
" transform="scale(0.015625)"/>
      </defs>
      <use xlink:href="#DejaVuSans-43"/>
      <use xlink:href="#DejaVuSans-61" x="69.824219"/>
      <use xlink:href="#DejaVuSans-6d" x="131.103516"/>
      <use xlink:href="#DejaVuSans-65" x="228.515625"/>
      <use xlink:href="#DejaVuSans-72" x="290.039062"/>
      <use xlink:href="#DejaVuSans-61" x="331.152344"/>
      <use xlink:href="#DejaVuSans-20" x="392.431641"/>
      <use xlink:href="#DejaVuSans-32" x="424.21875"/>
      <use xlink:href="#DejaVuSans-20" x="487.841797"/>
      <use xlink:href="#DejaVuSans-2d" x="519.628906"/>
      <use xlink:href="#DejaVuSans-20" x="555.712891"/>
      <use xlink:href="#DejaVuSans-61" x="587.5"/>
      <use xlink:href="#DejaVuSans-76" x="648.779297"/>
      <use xlink:href="#DejaVuSans-65" x="707.958984"/>
      <use xlink:href="#DejaVuSans-72" x="769.482422"/>
      <use xlink:href="#DejaVuSans-61" x="810.595703"/>
      <use xlink:href="#DejaVuSans-67" x="871.875"/>
      <use xlink:href="#DejaVuSans-65" x="935.351562"/>
      <use xlink:href="#DejaVuSans-3a" x="996.875"/>
      <use xlink:href="#DejaVuSans-20" x="1030.566406"/>
      <use xlink:href="#DejaVuSans-32" x="1062.353516"/>
      <use xlink:href="#DejaVuSans-39" x="1125.976562"/>
      <use xlink:href="#DejaVuSans-2e" x="1189.599609"/>
      <use xlink:href="#DejaVuSans-39" x="1221.386719"/>
      <use xlink:href="#DejaVuSans-37" x="1285.009766"/>
      <use xlink:href="#DejaVuSans-20" x="1348.632812"/>
      <use xlink:href="#DejaVuSans-70" x="1380.419922"/>
      <use xlink:href="#DejaVuSans-70" x="1443.896484"/>
      <use xlink:href="#DejaVuSans-73" x="1507.373047"/>
     </g>
    </g>
   </g>
  </g>
 </g>
 <defs>
  <clipPath id="p2c0a3b0d97">
   <rect x="57.53" y="15.66" width="710.26" height="399.06"/>
  </clipPath>
 </defs>
</svg>
