<?xml version="1.0" encoding="utf-8" standalone="no"?>
<!DOCTYPE svg PUBLIC "-//W3C//DTD SVG 1.1//EN"
  "http://www.w3.org/Graphics/SVG/1.1/DTD/svg11.dtd">
<svg xmlns:xlink="http://www.w3.org/1999/xlink" width="792pt" height="576pt" viewBox="0 0 792 576" xmlns="http://www.w3.org/2000/svg" version="1.1">
 <metadata>
  <rdf:RDF xmlns:dc="http://purl.org/dc/elements/1.1/" xmlns:cc="http://creativecommons.org/ns#" xmlns:rdf="http://www.w3.org/1999/02/22-rdf-syntax-ns#">
   <cc:Work>
    <dc:type rdf:resource="http://purl.org/dc/dcmitype/StillImage"/>
    <dc:date>2023-05-07T21:39:41.676116</dc:date>
    <dc:format>image/svg+xml</dc:format>
    <dc:creator>
     <cc:Agent>
      <dc:title>Matplotlib v3.6.2, https://matplotlib.org/</dc:title>
     </cc:Agent>
    </dc:creator>
   </cc:Work>
  </rdf:RDF>
 </metadata>
 <defs>
  <style type="text/css">*{stroke-linejoin: round; stroke-linecap: butt}</style>
 </defs>
 <g id="figure_1">
  <g id="patch_1">
   <path d="M 0 576 
L 792 576 
L 792 0 
L 0 0 
z
" style="fill: #ffffff"/>
  </g>
  <g id="axes_1">
   <g id="patch_2">
    <path d="M 57.53 414.72 
L 767.79 414.72 
L 767.79 21.06 
L 57.53 21.06 
z
" style="fill: #ffffff"/>
   </g>
   <g id="matplotlib.axis_1">
    <g id="xtick_1">
     <g id="line2d_1">
      <path d="M 57.53 414.72 
L 57.53 21.06 
" clip-path="url(#p855407c383)" style="fill: none; stroke: #b0b0b0; stroke-width: 0.8; stroke-linecap: square"/>
     </g>
     <g id="line2d_2">
      <defs>
       <path id="m64e9749175" d="M 0 0 
L 0 3.5 
" style="stroke: #000000; stroke-width: 0.8"/>
      </defs>
      <g>
       <use xlink:href="#m64e9749175" x="57.53" y="414.72" style="stroke: #000000; stroke-width: 0.8"/>
      </g>
     </g>
     <g id="text_1">
      <!-- 0 -->
      <g transform="translate(53.235313 431.977891) scale(0.135 -0.135)">
       <defs>
        <path id="DejaVuSans-30" d="M 2034 4250 
Q 1547 4250 1301 3770 
Q 1056 3291 1056 2328 
Q 1056 1369 1301 889 
Q 1547 409 2034 409 
Q 2525 409 2770 889 
Q 3016 1369 3016 2328 
Q 3016 3291 2770 3770 
Q 2525 4250 2034 4250 
z
M 2034 4750 
Q 2819 4750 3233 4129 
Q 3647 3509 3647 2328 
Q 3647 1150 3233 529 
Q 2819 -91 2034 -91 
Q 1250 -91 836 529 
Q 422 1150 422 2328 
Q 422 3509 836 4129 
Q 1250 4750 2034 4750 
z
" transform="scale(0.015625)"/>
       </defs>
       <use xlink:href="#DejaVuSans-30"/>
      </g>
     </g>
    </g>
    <g id="xtick_2">
     <g id="line2d_3">
      <path d="M 175.906667 414.72 
L 175.906667 21.06 
" clip-path="url(#p855407c383)" style="fill: none; stroke: #b0b0b0; stroke-width: 0.8; stroke-linecap: square"/>
     </g>
     <g id="line2d_4">
      <g>
       <use xlink:href="#m64e9749175" x="175.906667" y="414.72" style="stroke: #000000; stroke-width: 0.8"/>
      </g>
     </g>
     <g id="text_2">
      <!-- 10 -->
      <g transform="translate(167.317292 431.977891) scale(0.135 -0.135)">
       <defs>
        <path id="DejaVuSans-31" d="M 794 531 
L 1825 531 
L 1825 4091 
L 703 3866 
L 703 4441 
L 1819 4666 
L 2450 4666 
L 2450 531 
L 3481 531 
L 3481 0 
L 794 0 
L 794 531 
z
" transform="scale(0.015625)"/>
       </defs>
       <use xlink:href="#DejaVuSans-31"/>
       <use xlink:href="#DejaVuSans-30" x="63.623047"/>
      </g>
     </g>
    </g>
    <g id="xtick_3">
     <g id="line2d_5">
      <path d="M 294.283333 414.72 
L 294.283333 21.06 
" clip-path="url(#p855407c383)" style="fill: none; stroke: #b0b0b0; stroke-width: 0.8; stroke-linecap: square"/>
     </g>
     <g id="line2d_6">
      <g>
       <use xlink:href="#m64e9749175" x="294.283333" y="414.72" style="stroke: #000000; stroke-width: 0.8"/>
      </g>
     </g>
     <g id="text_3">
      <!-- 20 -->
      <g transform="translate(285.693958 431.977891) scale(0.135 -0.135)">
       <defs>
        <path id="DejaVuSans-32" d="M 1228 531 
L 3431 531 
L 3431 0 
L 469 0 
L 469 531 
Q 828 903 1448 1529 
Q 2069 2156 2228 2338 
Q 2531 2678 2651 2914 
Q 2772 3150 2772 3378 
Q 2772 3750 2511 3984 
Q 2250 4219 1831 4219 
Q 1534 4219 1204 4116 
Q 875 4013 500 3803 
L 500 4441 
Q 881 4594 1212 4672 
Q 1544 4750 1819 4750 
Q 2544 4750 2975 4387 
Q 3406 4025 3406 3419 
Q 3406 3131 3298 2873 
Q 3191 2616 2906 2266 
Q 2828 2175 2409 1742 
Q 1991 1309 1228 531 
z
" transform="scale(0.015625)"/>
       </defs>
       <use xlink:href="#DejaVuSans-32"/>
       <use xlink:href="#DejaVuSans-30" x="63.623047"/>
      </g>
     </g>
    </g>
    <g id="xtick_4">
     <g id="line2d_7">
      <path d="M 412.66 414.72 
L 412.66 21.06 
" clip-path="url(#p855407c383)" style="fill: none; stroke: #b0b0b0; stroke-width: 0.8; stroke-linecap: square"/>
     </g>
     <g id="line2d_8">
      <g>
       <use xlink:href="#m64e9749175" x="412.66" y="414.72" style="stroke: #000000; stroke-width: 0.8"/>
      </g>
     </g>
     <g id="text_4">
      <!-- 30 -->
      <g transform="translate(404.070625 431.977891) scale(0.135 -0.135)">
       <defs>
        <path id="DejaVuSans-33" d="M 2597 2516 
Q 3050 2419 3304 2112 
Q 3559 1806 3559 1356 
Q 3559 666 3084 287 
Q 2609 -91 1734 -91 
Q 1441 -91 1130 -33 
Q 819 25 488 141 
L 488 750 
Q 750 597 1062 519 
Q 1375 441 1716 441 
Q 2309 441 2620 675 
Q 2931 909 2931 1356 
Q 2931 1769 2642 2001 
Q 2353 2234 1838 2234 
L 1294 2234 
L 1294 2753 
L 1863 2753 
Q 2328 2753 2575 2939 
Q 2822 3125 2822 3475 
Q 2822 3834 2567 4026 
Q 2313 4219 1838 4219 
Q 1578 4219 1281 4162 
Q 984 4106 628 3988 
L 628 4550 
Q 988 4650 1302 4700 
Q 1616 4750 1894 4750 
Q 2613 4750 3031 4423 
Q 3450 4097 3450 3541 
Q 3450 3153 3228 2886 
Q 3006 2619 2597 2516 
z
" transform="scale(0.015625)"/>
       </defs>
       <use xlink:href="#DejaVuSans-33"/>
       <use xlink:href="#DejaVuSans-30" x="63.623047"/>
      </g>
     </g>
    </g>
    <g id="xtick_5">
     <g id="line2d_9">
      <path d="M 531.036667 414.72 
L 531.036667 21.06 
" clip-path="url(#p855407c383)" style="fill: none; stroke: #b0b0b0; stroke-width: 0.8; stroke-linecap: square"/>
     </g>
     <g id="line2d_10">
      <g>
       <use xlink:href="#m64e9749175" x="531.036667" y="414.72" style="stroke: #000000; stroke-width: 0.8"/>
      </g>
     </g>
     <g id="text_5">
      <!-- 40 -->
      <g transform="translate(522.447292 431.977891) scale(0.135 -0.135)">
       <defs>
        <path id="DejaVuSans-34" d="M 2419 4116 
L 825 1625 
L 2419 1625 
L 2419 4116 
z
M 2253 4666 
L 3047 4666 
L 3047 1625 
L 3713 1625 
L 3713 1100 
L 3047 1100 
L 3047 0 
L 2419 0 
L 2419 1100 
L 313 1100 
L 313 1709 
L 2253 4666 
z
" transform="scale(0.015625)"/>
       </defs>
       <use xlink:href="#DejaVuSans-34"/>
       <use xlink:href="#DejaVuSans-30" x="63.623047"/>
      </g>
     </g>
    </g>
    <g id="xtick_6">
     <g id="line2d_11">
      <path d="M 649.413333 414.72 
L 649.413333 21.06 
" clip-path="url(#p855407c383)" style="fill: none; stroke: #b0b0b0; stroke-width: 0.8; stroke-linecap: square"/>
     </g>
     <g id="line2d_12">
      <g>
       <use xlink:href="#m64e9749175" x="649.413333" y="414.72" style="stroke: #000000; stroke-width: 0.8"/>
      </g>
     </g>
     <g id="text_6">
      <!-- 50 -->
      <g transform="translate(640.823958 431.977891) scale(0.135 -0.135)">
       <defs>
        <path id="DejaVuSans-35" d="M 691 4666 
L 3169 4666 
L 3169 4134 
L 1269 4134 
L 1269 2991 
Q 1406 3038 1543 3061 
Q 1681 3084 1819 3084 
Q 2600 3084 3056 2656 
Q 3513 2228 3513 1497 
Q 3513 744 3044 326 
Q 2575 -91 1722 -91 
Q 1428 -91 1123 -41 
Q 819 9 494 109 
L 494 744 
Q 775 591 1075 516 
Q 1375 441 1709 441 
Q 2250 441 2565 725 
Q 2881 1009 2881 1497 
Q 2881 1984 2565 2268 
Q 2250 2553 1709 2553 
Q 1456 2553 1204 2497 
Q 953 2441 691 2322 
L 691 4666 
z
" transform="scale(0.015625)"/>
       </defs>
       <use xlink:href="#DejaVuSans-35"/>
       <use xlink:href="#DejaVuSans-30" x="63.623047"/>
      </g>
     </g>
    </g>
    <g id="xtick_7">
     <g id="line2d_13">
      <path d="M 767.79 414.72 
L 767.79 21.06 
" clip-path="url(#p855407c383)" style="fill: none; stroke: #b0b0b0; stroke-width: 0.8; stroke-linecap: square"/>
     </g>
     <g id="line2d_14">
      <g>
       <use xlink:href="#m64e9749175" x="767.79" y="414.72" style="stroke: #000000; stroke-width: 0.8"/>
      </g>
     </g>
     <g id="text_7">
      <!-- 60 -->
      <g transform="translate(759.200625 431.977891) scale(0.135 -0.135)">
       <defs>
        <path id="DejaVuSans-36" d="M 2113 2584 
Q 1688 2584 1439 2293 
Q 1191 2003 1191 1497 
Q 1191 994 1439 701 
Q 1688 409 2113 409 
Q 2538 409 2786 701 
Q 3034 994 3034 1497 
Q 3034 2003 2786 2293 
Q 2538 2584 2113 2584 
z
M 3366 4563 
L 3366 3988 
Q 3128 4100 2886 4159 
Q 2644 4219 2406 4219 
Q 1781 4219 1451 3797 
Q 1122 3375 1075 2522 
Q 1259 2794 1537 2939 
Q 1816 3084 2150 3084 
Q 2853 3084 3261 2657 
Q 3669 2231 3669 1497 
Q 3669 778 3244 343 
Q 2819 -91 2113 -91 
Q 1303 -91 875 529 
Q 447 1150 447 2328 
Q 447 3434 972 4092 
Q 1497 4750 2381 4750 
Q 2619 4750 2861 4703 
Q 3103 4656 3366 4563 
z
" transform="scale(0.015625)"/>
       </defs>
       <use xlink:href="#DejaVuSans-36"/>
       <use xlink:href="#DejaVuSans-30" x="63.623047"/>
      </g>
     </g>
    </g>
    <g id="text_8">
     <!-- Time (s) -->
     <g transform="translate(383.183086 449.803203) scale(0.145 -0.145)">
      <defs>
       <path id="DejaVuSans-54" d="M -19 4666 
L 3928 4666 
L 3928 4134 
L 2272 4134 
L 2272 0 
L 1638 0 
L 1638 4134 
L -19 4134 
L -19 4666 
z
" transform="scale(0.015625)"/>
       <path id="DejaVuSans-69" d="M 603 3500 
L 1178 3500 
L 1178 0 
L 603 0 
L 603 3500 
z
M 603 4863 
L 1178 4863 
L 1178 4134 
L 603 4134 
L 603 4863 
z
" transform="scale(0.015625)"/>
       <path id="DejaVuSans-6d" d="M 3328 2828 
Q 3544 3216 3844 3400 
Q 4144 3584 4550 3584 
Q 5097 3584 5394 3201 
Q 5691 2819 5691 2113 
L 5691 0 
L 5113 0 
L 5113 2094 
Q 5113 2597 4934 2840 
Q 4756 3084 4391 3084 
Q 3944 3084 3684 2787 
Q 3425 2491 3425 1978 
L 3425 0 
L 2847 0 
L 2847 2094 
Q 2847 2600 2669 2842 
Q 2491 3084 2119 3084 
Q 1678 3084 1418 2786 
Q 1159 2488 1159 1978 
L 1159 0 
L 581 0 
L 581 3500 
L 1159 3500 
L 1159 2956 
Q 1356 3278 1631 3431 
Q 1906 3584 2284 3584 
Q 2666 3584 2933 3390 
Q 3200 3197 3328 2828 
z
" transform="scale(0.015625)"/>
       <path id="DejaVuSans-65" d="M 3597 1894 
L 3597 1613 
L 953 1613 
Q 991 1019 1311 708 
Q 1631 397 2203 397 
Q 2534 397 2845 478 
Q 3156 559 3463 722 
L 3463 178 
Q 3153 47 2828 -22 
Q 2503 -91 2169 -91 
Q 1331 -91 842 396 
Q 353 884 353 1716 
Q 353 2575 817 3079 
Q 1281 3584 2069 3584 
Q 2775 3584 3186 3129 
Q 3597 2675 3597 1894 
z
M 3022 2063 
Q 3016 2534 2758 2815 
Q 2500 3097 2075 3097 
Q 1594 3097 1305 2825 
Q 1016 2553 972 2059 
L 3022 2063 
z
" transform="scale(0.015625)"/>
       <path id="DejaVuSans-20" transform="scale(0.015625)"/>
       <path id="DejaVuSans-28" d="M 1984 4856 
Q 1566 4138 1362 3434 
Q 1159 2731 1159 2009 
Q 1159 1288 1364 580 
Q 1569 -128 1984 -844 
L 1484 -844 
Q 1016 -109 783 600 
Q 550 1309 550 2009 
Q 550 2706 781 3412 
Q 1013 4119 1484 4856 
L 1984 4856 
z
" transform="scale(0.015625)"/>
       <path id="DejaVuSans-73" d="M 2834 3397 
L 2834 2853 
Q 2591 2978 2328 3040 
Q 2066 3103 1784 3103 
Q 1356 3103 1142 2972 
Q 928 2841 928 2578 
Q 928 2378 1081 2264 
Q 1234 2150 1697 2047 
L 1894 2003 
Q 2506 1872 2764 1633 
Q 3022 1394 3022 966 
Q 3022 478 2636 193 
Q 2250 -91 1575 -91 
Q 1294 -91 989 -36 
Q 684 19 347 128 
L 347 722 
Q 666 556 975 473 
Q 1284 391 1588 391 
Q 1994 391 2212 530 
Q 2431 669 2431 922 
Q 2431 1156 2273 1281 
Q 2116 1406 1581 1522 
L 1381 1569 
Q 847 1681 609 1914 
Q 372 2147 372 2553 
Q 372 3047 722 3315 
Q 1072 3584 1716 3584 
Q 2034 3584 2315 3537 
Q 2597 3491 2834 3397 
z
" transform="scale(0.015625)"/>
       <path id="DejaVuSans-29" d="M 513 4856 
L 1013 4856 
Q 1481 4119 1714 3412 
Q 1947 2706 1947 2009 
Q 1947 1309 1714 600 
Q 1481 -109 1013 -844 
L 513 -844 
Q 928 -128 1133 580 
Q 1338 1288 1338 2009 
Q 1338 2731 1133 3434 
Q 928 4138 513 4856 
z
" transform="scale(0.015625)"/>
      </defs>
      <use xlink:href="#DejaVuSans-54"/>
      <use xlink:href="#DejaVuSans-69" x="57.958984"/>
      <use xlink:href="#DejaVuSans-6d" x="85.742188"/>
      <use xlink:href="#DejaVuSans-65" x="183.154297"/>
      <use xlink:href="#DejaVuSans-20" x="244.677734"/>
      <use xlink:href="#DejaVuSans-28" x="276.464844"/>
      <use xlink:href="#DejaVuSans-73" x="315.478516"/>
      <use xlink:href="#DejaVuSans-29" x="367.578125"/>
     </g>
    </g>
   </g>
   <g id="matplotlib.axis_2">
    <g id="ytick_1">
     <g id="line2d_15">
      <path d="M 57.53 414.72 
L 767.79 414.72 
" clip-path="url(#p855407c383)" style="fill: none; stroke: #b0b0b0; stroke-width: 0.8; stroke-linecap: square"/>
     </g>
     <g id="line2d_16">
      <defs>
       <path id="m33270a7ccb" d="M 0 0 
L -3.5 0 
" style="stroke: #000000; stroke-width: 0.8"/>
      </defs>
      <g>
       <use xlink:href="#m33270a7ccb" x="57.53" y="414.72" style="stroke: #000000; stroke-width: 0.8"/>
      </g>
     </g>
     <g id="text_9">
      <!-- 0 -->
      <g transform="translate(41.940625 419.848945) scale(0.135 -0.135)">
       <use xlink:href="#DejaVuSans-30"/>
      </g>
     </g>
    </g>
    <g id="ytick_2">
     <g id="line2d_17">
      <path d="M 57.53 358.482857 
L 767.79 358.482857 
" clip-path="url(#p855407c383)" style="fill: none; stroke: #b0b0b0; stroke-width: 0.8; stroke-linecap: square"/>
     </g>
     <g id="line2d_18">
      <g>
       <use xlink:href="#m33270a7ccb" x="57.53" y="358.482857" style="stroke: #000000; stroke-width: 0.8"/>
      </g>
     </g>
     <g id="text_10">
      <!-- 10 -->
      <g transform="translate(33.35125 363.611802) scale(0.135 -0.135)">
       <use xlink:href="#DejaVuSans-31"/>
       <use xlink:href="#DejaVuSans-30" x="63.623047"/>
      </g>
     </g>
    </g>
    <g id="ytick_3">
     <g id="line2d_19">
      <path d="M 57.53 302.245714 
L 767.79 302.245714 
" clip-path="url(#p855407c383)" style="fill: none; stroke: #b0b0b0; stroke-width: 0.8; stroke-linecap: square"/>
     </g>
     <g id="line2d_20">
      <g>
       <use xlink:href="#m33270a7ccb" x="57.53" y="302.245714" style="stroke: #000000; stroke-width: 0.8"/>
      </g>
     </g>
     <g id="text_11">
      <!-- 20 -->
      <g transform="translate(33.35125 307.37466) scale(0.135 -0.135)">
       <use xlink:href="#DejaVuSans-32"/>
       <use xlink:href="#DejaVuSans-30" x="63.623047"/>
      </g>
     </g>
    </g>
    <g id="ytick_4">
     <g id="line2d_21">
      <path d="M 57.53 246.008571 
L 767.79 246.008571 
" clip-path="url(#p855407c383)" style="fill: none; stroke: #b0b0b0; stroke-width: 0.8; stroke-linecap: square"/>
     </g>
     <g id="line2d_22">
      <g>
       <use xlink:href="#m33270a7ccb" x="57.53" y="246.008571" style="stroke: #000000; stroke-width: 0.8"/>
      </g>
     </g>
     <g id="text_12">
      <!-- 30 -->
      <g transform="translate(33.35125 251.137517) scale(0.135 -0.135)">
       <use xlink:href="#DejaVuSans-33"/>
       <use xlink:href="#DejaVuSans-30" x="63.623047"/>
      </g>
     </g>
    </g>
    <g id="ytick_5">
     <g id="line2d_23">
      <path d="M 57.53 189.771429 
L 767.79 189.771429 
" clip-path="url(#p855407c383)" style="fill: none; stroke: #b0b0b0; stroke-width: 0.8; stroke-linecap: square"/>
     </g>
     <g id="line2d_24">
      <g>
       <use xlink:href="#m33270a7ccb" x="57.53" y="189.771429" style="stroke: #000000; stroke-width: 0.8"/>
      </g>
     </g>
     <g id="text_13">
      <!-- 40 -->
      <g transform="translate(33.35125 194.900374) scale(0.135 -0.135)">
       <use xlink:href="#DejaVuSans-34"/>
       <use xlink:href="#DejaVuSans-30" x="63.623047"/>
      </g>
     </g>
    </g>
    <g id="ytick_6">
     <g id="line2d_25">
      <path d="M 57.53 133.534286 
L 767.79 133.534286 
" clip-path="url(#p855407c383)" style="fill: none; stroke: #b0b0b0; stroke-width: 0.8; stroke-linecap: square"/>
     </g>
     <g id="line2d_26">
      <g>
       <use xlink:href="#m33270a7ccb" x="57.53" y="133.534286" style="stroke: #000000; stroke-width: 0.8"/>
      </g>
     </g>
     <g id="text_14">
      <!-- 50 -->
      <g transform="translate(33.35125 138.663231) scale(0.135 -0.135)">
       <use xlink:href="#DejaVuSans-35"/>
       <use xlink:href="#DejaVuSans-30" x="63.623047"/>
      </g>
     </g>
    </g>
    <g id="ytick_7">
     <g id="line2d_27">
      <path d="M 57.53 77.297143 
L 767.79 77.297143 
" clip-path="url(#p855407c383)" style="fill: none; stroke: #b0b0b0; stroke-width: 0.8; stroke-linecap: square"/>
     </g>
     <g id="line2d_28">
      <g>
       <use xlink:href="#m33270a7ccb" x="57.53" y="77.297143" style="stroke: #000000; stroke-width: 0.8"/>
      </g>
     </g>
     <g id="text_15">
      <!-- 60 -->
      <g transform="translate(33.35125 82.426088) scale(0.135 -0.135)">
       <use xlink:href="#DejaVuSans-36"/>
       <use xlink:href="#DejaVuSans-30" x="63.623047"/>
      </g>
     </g>
    </g>
    <g id="ytick_8">
     <g id="line2d_29">
      <path d="M 57.53 21.06 
L 767.79 21.06 
" clip-path="url(#p855407c383)" style="fill: none; stroke: #b0b0b0; stroke-width: 0.8; stroke-linecap: square"/>
     </g>
     <g id="line2d_30">
      <g>
       <use xlink:href="#m33270a7ccb" x="57.53" y="21.06" style="stroke: #000000; stroke-width: 0.8"/>
      </g>
     </g>
     <g id="text_16">
      <!-- 70 -->
      <g transform="translate(33.35125 26.188945) scale(0.135 -0.135)">
       <defs>
        <path id="DejaVuSans-37" d="M 525 4666 
L 3525 4666 
L 3525 4397 
L 1831 0 
L 1172 0 
L 2766 4134 
L 525 4134 
L 525 4666 
z
" transform="scale(0.015625)"/>
       </defs>
       <use xlink:href="#DejaVuSans-37"/>
       <use xlink:href="#DejaVuSans-30" x="63.623047"/>
      </g>
     </g>
    </g>
    <g id="text_17">
     <!-- Packet Rate (pps) -->
     <g transform="translate(26.335703 281.471367) rotate(-90) scale(0.145 -0.145)">
      <defs>
       <path id="DejaVuSans-50" d="M 1259 4147 
L 1259 2394 
L 2053 2394 
Q 2494 2394 2734 2622 
Q 2975 2850 2975 3272 
Q 2975 3691 2734 3919 
Q 2494 4147 2053 4147 
L 1259 4147 
z
M 628 4666 
L 2053 4666 
Q 2838 4666 3239 4311 
Q 3641 3956 3641 3272 
Q 3641 2581 3239 2228 
Q 2838 1875 2053 1875 
L 1259 1875 
L 1259 0 
L 628 0 
L 628 4666 
z
" transform="scale(0.015625)"/>
       <path id="DejaVuSans-61" d="M 2194 1759 
Q 1497 1759 1228 1600 
Q 959 1441 959 1056 
Q 959 750 1161 570 
Q 1363 391 1709 391 
Q 2188 391 2477 730 
Q 2766 1069 2766 1631 
L 2766 1759 
L 2194 1759 
z
M 3341 1997 
L 3341 0 
L 2766 0 
L 2766 531 
Q 2569 213 2275 61 
Q 1981 -91 1556 -91 
Q 1019 -91 701 211 
Q 384 513 384 1019 
Q 384 1609 779 1909 
Q 1175 2209 1959 2209 
L 2766 2209 
L 2766 2266 
Q 2766 2663 2505 2880 
Q 2244 3097 1772 3097 
Q 1472 3097 1187 3025 
Q 903 2953 641 2809 
L 641 3341 
Q 956 3463 1253 3523 
Q 1550 3584 1831 3584 
Q 2591 3584 2966 3190 
Q 3341 2797 3341 1997 
z
" transform="scale(0.015625)"/>
       <path id="DejaVuSans-63" d="M 3122 3366 
L 3122 2828 
Q 2878 2963 2633 3030 
Q 2388 3097 2138 3097 
Q 1578 3097 1268 2742 
Q 959 2388 959 1747 
Q 959 1106 1268 751 
Q 1578 397 2138 397 
Q 2388 397 2633 464 
Q 2878 531 3122 666 
L 3122 134 
Q 2881 22 2623 -34 
Q 2366 -91 2075 -91 
Q 1284 -91 818 406 
Q 353 903 353 1747 
Q 353 2603 823 3093 
Q 1294 3584 2113 3584 
Q 2378 3584 2631 3529 
Q 2884 3475 3122 3366 
z
" transform="scale(0.015625)"/>
       <path id="DejaVuSans-6b" d="M 581 4863 
L 1159 4863 
L 1159 1991 
L 2875 3500 
L 3609 3500 
L 1753 1863 
L 3688 0 
L 2938 0 
L 1159 1709 
L 1159 0 
L 581 0 
L 581 4863 
z
" transform="scale(0.015625)"/>
       <path id="DejaVuSans-74" d="M 1172 4494 
L 1172 3500 
L 2356 3500 
L 2356 3053 
L 1172 3053 
L 1172 1153 
Q 1172 725 1289 603 
Q 1406 481 1766 481 
L 2356 481 
L 2356 0 
L 1766 0 
Q 1100 0 847 248 
Q 594 497 594 1153 
L 594 3053 
L 172 3053 
L 172 3500 
L 594 3500 
L 594 4494 
L 1172 4494 
z
" transform="scale(0.015625)"/>
       <path id="DejaVuSans-52" d="M 2841 2188 
Q 3044 2119 3236 1894 
Q 3428 1669 3622 1275 
L 4263 0 
L 3584 0 
L 2988 1197 
Q 2756 1666 2539 1819 
Q 2322 1972 1947 1972 
L 1259 1972 
L 1259 0 
L 628 0 
L 628 4666 
L 2053 4666 
Q 2853 4666 3247 4331 
Q 3641 3997 3641 3322 
Q 3641 2881 3436 2590 
Q 3231 2300 2841 2188 
z
M 1259 4147 
L 1259 2491 
L 2053 2491 
Q 2509 2491 2742 2702 
Q 2975 2913 2975 3322 
Q 2975 3731 2742 3939 
Q 2509 4147 2053 4147 
L 1259 4147 
z
" transform="scale(0.015625)"/>
       <path id="DejaVuSans-70" d="M 1159 525 
L 1159 -1331 
L 581 -1331 
L 581 3500 
L 1159 3500 
L 1159 2969 
Q 1341 3281 1617 3432 
Q 1894 3584 2278 3584 
Q 2916 3584 3314 3078 
Q 3713 2572 3713 1747 
Q 3713 922 3314 415 
Q 2916 -91 2278 -91 
Q 1894 -91 1617 61 
Q 1341 213 1159 525 
z
M 3116 1747 
Q 3116 2381 2855 2742 
Q 2594 3103 2138 3103 
Q 1681 3103 1420 2742 
Q 1159 2381 1159 1747 
Q 1159 1113 1420 752 
Q 1681 391 2138 391 
Q 2594 391 2855 752 
Q 3116 1113 3116 1747 
z
" transform="scale(0.015625)"/>
      </defs>
      <use xlink:href="#DejaVuSans-50"/>
      <use xlink:href="#DejaVuSans-61" x="55.802734"/>
      <use xlink:href="#DejaVuSans-63" x="117.082031"/>
      <use xlink:href="#DejaVuSans-6b" x="172.0625"/>
      <use xlink:href="#DejaVuSans-65" x="226.347656"/>
      <use xlink:href="#DejaVuSans-74" x="287.871094"/>
      <use xlink:href="#DejaVuSans-20" x="327.080078"/>
      <use xlink:href="#DejaVuSans-52" x="358.867188"/>
      <use xlink:href="#DejaVuSans-61" x="426.099609"/>
      <use xlink:href="#DejaVuSans-74" x="487.378906"/>
      <use xlink:href="#DejaVuSans-65" x="526.587891"/>
      <use xlink:href="#DejaVuSans-20" x="588.111328"/>
      <use xlink:href="#DejaVuSans-28" x="619.898438"/>
      <use xlink:href="#DejaVuSans-70" x="658.912109"/>
      <use xlink:href="#DejaVuSans-70" x="722.388672"/>
      <use xlink:href="#DejaVuSans-73" x="785.865234"/>
      <use xlink:href="#DejaVuSans-29" x="837.964844"/>
     </g>
    </g>
   </g>
   <g id="line2d_31">
    <path d="M 57.53 78.536924 
L 59.90147 77.857273 
L 62.277004 78.433531 
L 64.717051 87.324706 
L 67.428006 70.9286 
L 69.939183 96.598254 
L 72.229214 94.947888 
L 74.789725 76.728231 
L 77.10511 69.697535 
L 79.473085 77.360032 
L 82.068572 55.633967 
L 84.506565 87.049007 
L 86.996691 93.908971 
L 89.340572 73.8921 
L 91.754186 83.739203 
L 94.39805 62.204463 
L 96.761806 104.921468 
L 99.140275 50.859219 
L 101.848901 70.632948 
L 104.221313 77.991027 
L 106.615321 108.836196 
L 109.032271 56.65239 
L 111.405573 78.117391 
L 114.16269 100.82988 
L 116.721289 76.475792 
L 119.036047 69.604072 
L 121.404811 77.472402 
L 123.747169 73.670577 
L 126.142558 81.220953 
L 128.799878 63.989587 
L 131.282202 92.900597 
L 133.653647 77.853728 
L 136.025118 77.857364 
L 138.401808 78.59723 
L 140.992957 55.032716 
L 143.414421 112.304532 
L 146.186235 54.459559 
L 148.952792 77.838076 
L 151.449442 94.747258 
L 153.818174 77.467921 
L 156.146036 71.546773 
L 158.549675 82.365609 
L 161.143913 55.461133 
L 163.513295 77.56035 
L 165.943548 86.005426 
L 168.306967 104.877209 
L 170.807683 68.646446 
L 173.174847 77.244569 
L 175.763349 54.664915 
L 178.188868 85.363835 
L 180.553921 105.091319 
L 182.924301 77.702292 
L 185.393063 64.167213 
L 188.009244 58.474286 
L 190.616231 108.289736 
L 192.884637 62.551962 
L 195.503851 84.303507 
L 198.003345 68.477416 
L 200.364307 76.357873 
L 202.742858 78.860126 
L 205.112777 77.63687 
L 207.478605 77.053927 
L 209.781942 96.795044 
L 212.161151 50.972478 
L 214.699294 99.978062 
L 217.220972 71.523423 
L 219.597354 50.539608 
L 222.102207 95.795201 
L 224.391767 65.805773 
L 226.878979 93.533211 
L 229.458783 53.451018 
L 231.88456 85.398676 
L 234.640176 100.659055 
L 237.137007 68.108042 
L 239.615295 92.37657 
L 242.146374 46.496309 
L 244.633393 93.508154 
L 247.001064 77.316746 
L 249.58314 53.768931 
L 252.001815 111.955882 
L 254.703398 69.735864 
L 257.130144 85.530188 
L 259.498127 77.361278 
L 261.875654 50.715156 
L 264.479153 107.879042 
L 269.371956 44.915578 
L 271.739263 77.264929 
L 274.277241 99.957724 
L 276.869212 55.146832 
L 279.346678 92.26954 
L 281.811458 90.610076 
L 284.367288 50.062311 
L 286.905687 100.009759 
L 289.211981 68.337575 
L 291.640379 85.754228 
L 294.035242 81.147746 
L 296.412904 78.734584 
L 298.803233 80.515009 
L 301.170303 77.231106 
L 303.70224 46.621018 
L 306.119787 84.27765 
L 308.548462 85.79173 
L 310.804565 60.631653 
L 313.292296 93.600187 
L 315.590099 67.057459 
L 318.144412 101.970577 
L 320.600361 62.338316 
L 323.027708 85.611736 
L 325.730293 69.86386 
L 328.157765 85.628754 
L 330.591959 59.188891 
L 333.073631 92.816208 
L 335.501157 85.63599 
L 337.9631 63.196256 
L 340.396275 59.04004 
L 342.88396 93.594217 
L 345.370983 93.508657 
L 347.733941 76.643785 
L 350.196239 63.246879 
L 352.623177 85.556375 
L 354.990947 77.330814 
L 357.478745 66.849512 
L 359.813531 72.564508 
L 362.214596 82.009416 
L 364.674226 89.931408 
L 367.010118 72.726454 
L 369.443336 86.405821 
L 371.959858 70.820259 
L 374.453364 67.645813 
L 377.090194 86.510888 
L 379.458943 77.470351 
L 381.951067 67.453288 
L 384.528692 78.972368 
L 386.955327 85.515273 
L 389.443991 66.970488 
L 391.904355 90.028318 
L 394.453415 75.209964 
L 396.821236 77.338018 
L 399.308595 66.788217 
L 401.676211 77.308839 
L 404.320566 87.44492 
L 406.692338 49.831929 
L 409.065613 78.113402 
L 411.548274 92.944314 
L 414.041847 94.352472 
L 416.552832 70.061796 
L 419.017818 63.630274 
L 421.413708 81.290643 
L 424.058338 62.3066 
L 426.53905 92.691523 
L 429.190343 63.192223 
L 431.678263 93.624536 
L 434.104821 85.504818 
L 436.371794 62.32931 
L 438.771635 81.839727 
L 441.414036 87.202854 
L 443.782411 77.417061 
L 446.210118 58.23901 
L 448.605033 81.154974 
L 451.130699 98.423236 
L 453.494198 76.721298 
L 455.873059 78.903812 
L 458.384072 70.065728 
L 460.751591 77.2951 
L 463.120746 77.528126 
L 465.487314 77.159459 
L 467.975573 66.913983 
L 470.628743 63.440848 
L 473.111742 92.988179 
L 475.479695 77.356949 
L 478.12139 61.915004 
L 480.613906 94.216584 
L 482.977771 76.773547 
L 485.620395 62.039055 
L 487.987686 77.262521 
L 490.351375 104.912677 
L 493.113523 77.30033 
L 495.490309 50.601516 
L 497.978149 93.614215 
L 500.342292 76.813311 
L 502.704285 76.505616 
L 505.132783 85.767742 
L 507.714433 79.495913 
L 510.082172 77.326442 
L 512.570051 66.860797 
L 514.944346 78.258122 
L 517.590216 62.471673 
L 519.958276 77.372248 
L 522.32624 77.358435 
L 524.814082 93.614495 
L 527.181895 77.336942 
L 529.764787 53.88295 
L 532.123236 104.224378 
L 534.500507 50.675829 
L 536.928637 85.71796 
L 539.347133 84.407241 
L 542.056357 70.708915 
L 544.54794 94.096591 
L 547.180491 85.977495 
L 549.883734 69.947647 
L 552.310961 85.595597 
L 555.019495 46.042686 
L 557.446776 85.602833 
L 560.145082 93.988638 
L 562.578376 59.057479 
L 565.066064 93.594516 
L 567.713255 62.647537 
L 570.406837 93.426102 
L 572.833231 85.482494 
L 575.206996 50.138193 
L 577.689011 92.860552 
L 580.341825 63.393811 
L 583.035613 93.450613 
L 585.402927 77.265834 
L 587.77225 77.552065 
L 590.198907 85.51825 
L 592.911159 46.548136 
L 595.329626 111.929788 
L 598.03324 69.995007 
L 600.529883 68.081891 
L 602.897626 77.327117 
L 605.256736 76.092307 
L 607.691537 86.619298 
L 610.276686 54.197975 
L 612.75505 92.386467 
L 615.463944 70.666964 
L 617.835258 77.835118 
L 620.323376 93.650026 
L 622.691 77.310111 
L 625.055888 76.919774 
L 627.641993 54.331123 
L 630.010042 77.370707 
L 632.498925 93.748676 
L 635.141253 61.999604 
L 637.503693 104.748858 
L 640.340833 62.754695 
L 643.087822 99.672702 
L 645.456058 77.397233 
L 647.77088 40.854765 
L 650.329165 102.456201 
L 652.895043 77.435205 
L 655.278743 51.657785 
L 657.647606 77.486484 
L 660.135613 93.635769 
L 662.442097 68.366101 
L 665.145084 69.915019 
L 667.57343 85.747242 
L 670.320558 99.688532 
L 673.098287 55.226774 
L 675.80131 69.919654 
L 678.229391 85.711332 
L 680.992539 77.422419 
L 683.361672 77.524883 
L 685.719563 75.917303 
L 688.207432 93.617926 
L 690.840864 86.087526 
L 693.209394 77.439044 
L 695.911103 69.752014 
L 698.288381 50.676922 
L 700.656609 77.39622 
L 703.084369 85.667654 
L 705.623483 100.098504 
L 708.215387 55.13765 
L 710.573728 104.210034 
L 712.946909 50.048577 
L 715.65411 70.451748 
L 718.132834 92.433278 
L 720.560741 85.687649 
L 722.937911 78.665001 
L 725.581386 62.152642 
L 728.060169 92.440995 
L 730.426913 77.184506 
L 732.889492 90.320297 
L 735.439378 75.31999 
L 737.807037 77.314958 
L 740.578643 54.432635 
L 743.024621 88.118611 
L 745.645766 59.148974 
L 748.068232 112.429644 
L 750.445475 50.671587 
L 752.924358 92.453902 
L 755.29938 78.361018 
L 757.939856 61.752167 
L 760.312315 77.997655 
L 762.800525 93.661958 
L 765.168166 77.312547 
L 767.533879 77.037489 
L 767.533879 77.037489 
" clip-path="url(#p855407c383)" style="fill: none; stroke: #ff7f0e; stroke-width: 1.5; stroke-linecap: square"/>
   </g>
   <g id="line2d_32">
    <path d="M 57.53 246.63225 
L 59.901459 274.359854 
L 62.277007 246.577804 
L 64.717045 223.738736 
L 67.428001 242.824314 
L 69.939142 255.656872 
L 72.229197 269.370525 
L 74.789668 232.721597 
L 77.105014 242.205919 
L 79.472975 246.039027 
L 82.068547 260.830994 
L 84.50657 223.58093 
L 86.996643 281.045891 
L 89.340513 244.305242 
L 91.754138 221.64879 
L 94.398047 238.465204 
L 96.761809 273.902831 
L 99.140279 246.784328 
L 101.8489 242.676152 
L 104.221315 246.355754 
L 106.615194 247.865288 
L 109.032214 221.91994 
L 111.405567 246.422278 
L 114.162679 269.847449 
L 116.721287 232.589075 
L 119.036047 242.162156 
L 121.404808 274.199998 
L 123.747171 215.774951 
L 126.142556 275.761839 
L 128.799877 214.302635 
L 131.282197 280.62839 
L 133.653645 218.214984 
L 138.401801 274.674599 
L 140.992945 209.184072 
L 143.414413 277.25866 
L 146.186231 246.598694 
L 148.952785 246.278839 
L 151.449429 228.068787 
L 153.818027 246.084407 
L 156.146027 243.143614 
L 158.549664 248.542675 
L 161.143785 260.744932 
L 163.513251 246.14621 
L 165.943529 250.364299 
L 168.306954 245.715318 
L 170.807676 228.373172 
L 173.174833 245.981792 
L 175.763341 234.692846 
L 178.18886 277.488264 
L 180.553915 245.83173 
L 182.924174 246.202571 
L 185.39303 252.932567 
L 188.009225 211.152106 
L 190.616201 261.504204 
L 192.884605 267.983252 
L 195.503832 236.804324 
L 198.003296 228.279356 
L 200.364273 245.540058 
L 202.742847 246.791669 
L 205.11277 246.178727 
L 207.478591 245.886449 
L 209.781926 270.208561 
L 212.161139 218.856268 
L 214.699289 257.349486 
L 217.220899 256.317264 
L 219.597238 218.619392 
L 222.102203 255.264691 
L 224.391765 240.263053 
L 226.878948 254.124698 
L 229.458647 259.884164 
L 231.884543 250.067435 
L 234.640131 245.608491 
L 237.137003 228.085904 
L 239.615285 253.547894 
L 242.146342 230.606567 
L 244.633385 254.115619 
L 247.001053 246.018153 
L 249.583106 234.242847 
L 252.001809 277.101531 
L 254.703387 242.2276 
L 257.130136 250.125345 
L 259.498115 246.040352 
L 261.875487 218.704522 
L 264.479145 261.30895 
L 269.371941 229.817743 
L 271.73925 245.992599 
L 274.277233 257.339134 
L 276.869203 234.933341 
L 279.346661 280.365278 
L 281.811439 225.655673 
L 284.367168 232.383904 
L 286.905631 257.36888 
L 289.211964 241.531703 
L 291.640363 250.237161 
L 294.035055 247.922018 
L 296.412786 246.73212 
L 298.803156 247.620383 
L 301.170284 245.979696 
L 303.702115 230.662823 
L 306.119766 277.041638 
L 308.54828 250.24495 
L 310.804553 208.183989 
L 313.292221 254.155994 
L 315.589975 240.885103 
L 318.144358 258.349555 
L 320.600338 252.08433 
L 323.027689 250.166188 
L 325.730102 242.280927 
L 328.157739 250.185554 
L 330.591827 250.62156 
L 333.073564 226.947695 
L 335.501134 250.180991 
L 337.963072 252.477954 
L 340.396248 250.560035 
L 342.883936 254.157326 
L 345.370957 227.346599 
L 347.733923 245.682443 
L 350.196068 252.4916 
L 352.623139 250.147168 
L 354.990752 246.014253 
L 357.478611 254.168321 
L 359.813441 243.645475 
L 362.214567 220.643708 
L 364.674194 252.325498 
L 367.010092 243.723659 
L 369.443251 250.558961 
L 371.959831 256.000673 
L 374.45327 254.527595 
L 377.090161 237.996115 
L 381.951043 254.447019 
L 384.528657 233.932066 
L 386.955297 250.117935 
L 389.443961 227.470297 
L 391.904324 252.374071 
L 394.453394 258.023637 
L 396.821193 246.02757 
L 399.308463 227.365316 
L 401.676176 246.021391 
L 404.320421 263.663674 
L 406.692307 246.318163 
L 409.06558 218.365995 
L 411.548237 280.646608 
L 414.04182 227.839712 
L 416.552698 255.640176 
L 419.01778 252.684899 
L 421.41361 248.001191 
L 424.05829 238.516577 
L 426.539012 253.706451 
L 429.190245 213.842391 
L 431.678117 254.169202 
L 434.104678 250.112582 
L 436.371585 267.886332 
L 438.771606 248.292263 
L 441.414 238.364198 
L 443.782217 246.057245 
L 446.21008 250.200857 
L 448.604987 247.936992 
L 451.130597 230.209465 
L 453.494057 245.717773 
L 455.87302 246.81915 
L 458.38397 255.644781 
L 460.751553 246.012101 
L 463.120709 246.12412 
L 465.487273 245.939461 
L 467.975533 227.439945 
L 470.628629 239.075511 
L 473.111584 253.851224 
L 475.479544 246.038971 
L 478.121344 263.523885 
L 480.613863 227.759955 
L 482.977674 245.742883 
L 485.620248 263.568118 
L 487.987641 245.998635 
L 490.351165 245.722343 
L 493.113475 246.020024 
L 495.490159 218.647862 
L 497.978039 254.169697 
L 500.342246 245.771148 
L 502.704235 245.612599 
L 505.132669 250.239526 
L 507.714382 260.00494 
L 510.08202 246.016026 
L 512.569835 254.165499 
L 514.944189 246.493171 
L 517.590164 213.443252 
L 519.958162 246.041666 
L 522.326196 246.044241 
L 524.813911 254.159035 
L 527.181831 246.036123 
L 529.764666 234.297535 
L 532.123154 273.587941 
L 534.50044 218.697482 
L 536.928574 250.219188 
L 539.347067 249.5635 
L 542.05629 267.286608 
L 544.547802 227.684311 
L 547.180426 262.99688 
L 549.883666 242.333697 
L 552.31083 250.153494 
L 555.019431 242.674873 
L 557.44671 250.161285 
L 560.144944 242.013809 
L 562.578309 250.572889 
L 565.065988 254.156685 
L 567.713079 213.528107 
L 570.406648 266.429771 
L 572.833159 250.109234 
L 575.206856 246.446632 
L 577.688941 253.794836 
L 580.341759 213.962471 
L 583.035544 266.441669 
L 585.402859 245.993017 
L 587.772179 246.135808 
L 590.198832 250.118802 
L 592.911079 218.36129 
L 595.329555 277.088635 
L 598.033168 242.357469 
L 600.529634 228.05548 
L 602.897562 246.036677 
L 605.256666 273.624768 
L 607.691404 250.665432 
L 610.276611 208.712044 
L 612.754975 280.414374 
L 615.463794 242.688728 
L 617.835188 218.210432 
L 620.323297 254.184412 
L 622.690748 246.002701 
L 625.055707 245.824955 
L 627.641916 234.532886 
L 630.009899 246.040616 
L 632.498848 254.238601 
L 635.141173 238.359563 
L 637.503478 273.815978 
L 640.340728 227.012477 
L 643.087686 269.311895 
L 645.455962 246.061508 
L 647.770765 213.406214 
L 650.329065 258.588996 
L 652.894949 259.050531 
L 655.278575 219.218863 
L 657.647512 246.10853 
L 660.135518 254.177784 
L 662.441935 241.538001 
L 665.144992 242.322036 
L 667.573336 250.233429 
L 670.320394 269.317217 
L 673.09819 222.994894 
L 675.801215 242.319921 
L 678.229228 250.211079 
L 680.992449 246.075608 
L 683.361533 246.119014 
L 685.719372 245.314902 
L 688.207355 254.176369 
L 690.840784 263.043261 
L 693.209146 246.067576 
L 695.910914 242.239733 
L 698.288312 218.706778 
L 700.656528 246.057151 
L 703.0843 250.194749 
L 705.623412 257.409125 
L 708.215303 234.927828 
L 710.573653 273.579672 
L 712.946832 246.409967 
L 715.654035 217.995461 
L 718.132695 280.430378 
L 720.560558 250.200891 
L 722.937831 218.696415 
L 725.58125 238.432526 
L 728.060103 253.585047 
L 730.426834 245.951361 
L 732.88924 252.508775 
L 735.439297 258.084315 
L 737.806958 246.017637 
L 740.578567 222.566932 
L 743.024477 251.41475 
L 745.645689 262.336304 
L 748.068149 249.833904 
L 750.445399 218.694559 
L 752.924169 253.579588 
L 755.29929 274.576326 
L 757.939664 238.229205 
L 760.312234 218.307877 
L 762.800231 254.177256 
L 765.168076 246.030729 
L 767.533084 245.828478 
L 767.533084 245.828478 
" clip-path="url(#p855407c383)" style="fill: none; stroke: #1f77b4; stroke-width: 1.5; stroke-linecap: square"/>
   </g>
   <g id="line2d_33">
    <path d="M 57.53 77.788145 
L 60.173896 62.208718 
L 62.524314 74.840044 
L 65.222296 69.275445 
L 67.645143 85.00059 
L 70.17091 98.435853 
L 72.816347 62.414114 
L 75.22246 82.707447 
L 77.628728 82.728765 
L 79.853712 85.599287 
L 82.623297 54.169601 
L 85.02795 110.190369 
L 87.734406 45.759657 
L 90.260445 98.470095 
L 92.475232 54.026115 
L 95.240951 77.736033 
L 97.766094 98.357683 
L 100.411186 87.53615 
L 103.176632 53.630071 
L 105.581579 110.227459 
L 108.242938 39.507667 
L 110.889888 112.916048 
L 113.116288 55.907661 
L 115.763295 62.622983 
L 118.098739 72.660976 
L 120.865483 101.922139 
L 123.392162 72.202585 
L 125.798643 82.758257 
L 128.445964 87.811558 
L 130.733323 65.470054 
L 133.259641 72.153658 
L 135.666451 82.803528 
L 138.074015 82.907505 
L 140.599993 45.752805 
L 142.932415 100.759539 
L 145.459658 72.279038 
L 147.86651 82.80937 
L 150.51438 62.737747 
L 153.042414 98.719544 
L 155.449614 82.85736 
L 157.976973 45.954253 
L 160.384208 82.862158 
L 162.782579 81.635678 
L 165.070336 65.530895 
L 167.598747 98.766629 
L 170.126985 98.745143 
L 172.655463 46.117428 
L 174.942358 94.509422 
L 177.35049 82.985742 
L 179.75953 83.110757 
L 182.166518 82.828095 
L 184.455941 36.707039 
L 186.866217 83.280911 
L 189.395093 98.824703 
L 191.803354 83.003486 
L 194.215257 55.903091 
L 196.623442 82.993065 
L 199.152988 72.590852 
L 201.562451 83.169041 
L 203.855148 66.283166 
L 206.504647 88.080431 
L 208.912706 82.975608 
L 211.212332 67.333166 
L 213.80185 80.514319 
L 216.346329 74.598754 
L 218.75504 83.065533 
L 221.163812 55.436598 
L 223.81361 88.117188 
L 226.224255 55.715889 
L 228.633262 110.740774 
L 231.358931 48.360371 
L 233.842729 93.091739 
L 236.127366 65.053881 
L 238.472029 74.005882 
L 241.220807 75.659114 
L 243.991846 78.382982 
L 246.399624 110.585493 
L 248.928215 72.461599 
L 251.478951 75.432968 
L 253.886502 82.905762 
L 256.414835 72.426605 
L 258.708605 66.446312 
L 261.117583 83.102257 
L 263.405329 65.529231 
L 265.814927 83.187587 
L 268.178243 76.694906 
L 270.82819 88.135657 
L 273.155419 71.45344 
L 275.523807 49.310355 
L 277.876182 75.122843 
L 280.296077 112.108553 
L 283.007313 46.410145 
L 285.427303 112.120267 
L 287.80534 50.793258 
L 290.570643 77.685154 
L 293.053879 93.018867 
L 295.637746 54.019086 
L 298.071624 86.494885 
L 300.840819 102.199032 
L 303.201963 48.189417 
L 305.69062 93.719634 
L 308.176101 93.309491 
L 310.702024 45.744688 
L 313.060103 104.175624 
L 315.435485 50.386308 
L 318.142409 70.416561 
L 320.562219 112.097886 
L 322.930222 77.364052 
L 325.308867 50.886184 
L 327.788068 92.495201 
L 330.438373 63.061213 
L 333.088581 113.287107 
L 335.567151 38.695446 
L 337.939112 77.92707 
L 340.467655 98.783153 
L 342.787717 70.392931 
L 345.161369 78.167023 
L 347.764894 56.742616 
L 350.175139 83.276513 
L 352.582155 82.83197 
L 355.022996 87.431265 
L 357.433613 83.327701 
L 359.759977 71.325759 
L 362.409591 62.969509 
L 364.8172 82.913597 
L 367.149858 72.252383 
L 369.920373 78.319295 
L 372.272802 103.42977 
L 375.04351 54.315791 
L 377.413303 77.618913 
L 380.172335 76.919258 
L 382.544278 77.924438 
L 384.913763 77.575026 
L 387.443183 98.892722 
L 390.092956 62.99051 
L 392.401498 97.511884 
L 395.112591 46.390858 
L 397.520337 82.932549 
L 399.929698 83.154962 
L 402.277257 74.426165 
L 404.649404 77.95338 
L 407.137358 93.628901 
L 409.779712 62.00297 
L 412.190203 110.927894 
L 414.59981 55.561193 
L 419.649089 77.422526 
L 422.008239 104.316585 
L 424.376981 77.469255 
L 426.830443 61.981077 
L 429.517877 67.919671 
L 431.926363 110.674997 
L 434.255534 43.157902 
L 437.007097 100.196346 
L 439.782042 54.866165 
L 442.148126 77.090368 
L 444.713379 103.304432 
L 447.280546 51.672613 
L 449.810609 98.972976 
L 452.101979 66.081435 
L 454.625714 98.181288 
L 456.865986 58.129435 
L 459.357853 94.133203 
L 461.849684 40.696498 
L 464.260272 83.323774 
L 466.621012 76.326195 
L 469.107026 93.378365 
L 471.355913 59.495381 
L 474.007746 113.471856 
L 476.488956 39.095517 
L 479.054968 103.396513 
L 481.346099 66.045068 
L 483.717075 77.787119 
L 486.353433 61.200785 
L 488.721352 77.352055 
L 491.492967 78.452795 
L 493.939122 88.142273 
L 496.335745 81.39262 
L 498.7025 77.186309 
L 501.356768 63.586133 
L 504.118696 77.27338 
L 508.857559 77.656727 
L 511.384586 98.593668 
L 513.715368 71.976743 
L 516.243968 98.790276 
L 518.772316 46.098599 
L 521.181618 83.146789 
L 523.592126 83.312836 
L 526.221339 60.240077 
L 528.753636 99.251548 
L 531.189992 86.828735 
L 533.59848 83.03471 
L 536.129496 46.487137 
L 538.85375 72.606939 
L 541.332188 92.396043 
L 543.980045 87.87769 
L 546.509033 72.515369 
L 548.841929 72.28727 
L 551.297803 89.434714 
L 553.781443 66.267051 
L 556.20984 85.754136 
L 558.584416 50.262719 
L 560.9924 82.965306 
L 563.661605 65.551143 
L 566.089571 85.695713 
L 568.454207 76.883748 
L 570.861427 110.515114 
L 573.195447 43.929872 
L 575.68225 93.480218 
L 578.265643 53.952973 
L 580.691354 85.389813 
L 583.053547 104.716478 
L 585.460461 82.817818 
L 587.991196 72.751551 
L 590.407133 84.05743 
L 592.645503 57.826481 
L 595.17433 98.818695 
L 597.501657 71.46787 
L 600.028653 72.245525 
L 602.785966 76.708595 
L 605.196155 55.647953 
L 607.724578 98.768261 
L 610.011473 65.399138 
L 612.508857 94.841341 
L 615.030322 45.092392 
L 617.728585 93.983512 
L 620.165631 59.604978 
L 622.644164 92.408463 
L 625.291606 62.680843 
L 627.940289 113.113512 
L 630.468395 46.063393 
L 632.789888 70.605287 
L 635.158106 77.394706 
L 637.532865 78.323775 
L 640.059312 98.521049 
L 642.472394 83.666292 
L 644.872915 81.93397 
L 647.399635 45.861045 
L 650.158126 76.853059 
L 652.525527 77.278283 
L 654.899302 78.184254 
L 657.502317 107.822093 
L 659.908992 82.785016 
L 662.337858 31.000421 
L 664.76696 85.849546 
L 667.131604 76.884878 
L 669.895173 77.473854 
L 672.263657 77.432474 
L 674.625326 104.647743 
L 677.003434 50.804067 
L 679.566538 103.043268 
L 682.124018 76.327634 
L 684.531129 55.188758 
L 687.205228 66.190226 
L 689.63314 85.688446 
L 692.000869 77.324926 
L 694.529495 98.793623 
L 696.846576 69.949952 
L 699.189003 73.68067 
L 701.715518 98.529609 
L 704.234363 44.707895 
L 706.726606 94.181401 
L 709.083676 75.799293 
L 711.489273 82.636272 
L 714.1409 63.23639 
L 716.470434 71.793167 
L 718.839773 77.55426 
L 721.536183 93.763054 
L 723.969484 59.058465 
L 726.727467 100.928532 
L 729.255798 72.426441 
L 731.802972 48.823094 
L 734.213801 83.356816 
L 736.604878 80.619523 
L 738.972717 77.340764 
L 741.330279 104.107487 
L 743.696406 77.096559 
L 746.471596 54.897901 
L 749.223077 100.186985 
L 751.604912 79.323214 
L 754.079175 64.946519 
L 756.730294 63.169234 
L 759.496853 77.838216 
L 761.969152 91.595705 
L 764.618161 88.019873 
L 767.382333 77.54745 
L 769.758235 50.466034 
L 769.758235 50.466034 
" clip-path="url(#p855407c383)" style="fill: none; stroke: #d62728; stroke-width: 1.5; stroke-linecap: square"/>
   </g>
   <g id="line2d_34">
    <path d="M 57.53 218.176371 
L 60.173864 238.462242 
L 62.524262 273.102122 
L 65.222187 241.994085 
L 67.645084 249.863661 
L 70.170901 256.581125 
L 72.816239 238.560454 
L 75.222359 221.04652 
L 77.628598 248.722406 
L 79.853699 265.127513 
L 82.623104 222.413991 
L 85.027872 276.304049 
L 87.734252 242.533723 
L 90.260424 230.250476 
L 92.475207 234.372836 
L 95.240927 270.298307 
L 97.766067 230.175138 
L 100.411071 263.707033 
L 103.176601 222.144569 
L 105.58155 276.314405 
L 108.242903 214.606314 
L 110.889753 263.812359 
L 113.116252 235.321731 
L 115.763245 263.82051 
L 118.098693 215.185861 
L 120.865434 270.351637 
L 123.392116 256.63521 
L 125.798594 221.075359 
L 128.445913 263.83906 
L 130.733067 240.079463 
L 133.259587 256.625069 
L 135.666387 221.101244 
L 138.073864 248.807803 
L 140.599939 256.597209 
L 142.932353 243.468317 
L 145.459591 256.669986 
L 147.866449 221.105907 
L 150.514317 238.728742 
L 153.042343 256.719335 
L 155.449449 248.782129 
L 157.976889 230.343101 
L 160.384133 248.791668 
L 162.782503 248.177772 
L 165.070255 240.125072 
L 167.598668 256.743429 
L 170.126904 256.732456 
L 172.655376 230.418337 
L 174.94217 269.163254 
L 177.350402 248.859728 
L 179.759451 248.916006 
L 182.166434 248.773744 
L 184.455217 211.117623 
L 186.865664 249.012174 
L 189.395003 256.801318 
L 191.802617 248.817143 
L 194.214615 249.118761 
L 196.623327 248.892829 
L 199.152196 256.771948 
L 201.561642 221.313847 
L 203.854209 269.529821 
L 206.503564 238.827526 
L 208.911887 248.866053 
L 211.212212 241.079353 
L 213.800991 234.711748 
L 216.34548 257.741522 
L 218.754919 248.942842 
L 221.162895 221.195795 
L 223.812734 263.982565 
L 226.223375 221.409784 
L 228.63247 276.552636 
L 231.3588 243.793715 
L 233.842597 227.103351 
L 236.127112 239.877695 
L 238.47108 244.312396 
L 241.219855 269.408037 
L 243.990877 222.526211 
L 246.39877 276.483662 
L 248.928076 230.479131 
L 251.477915 258.070915 
L 253.885496 248.814906 
L 256.41469 256.792215 
L 258.707548 211.479548 
L 261.116561 248.913554 
L 263.405185 240.191546 
L 265.814778 248.953467 
L 268.177132 245.638631 
L 270.827123 263.991246 
L 273.155175 243.14738 
L 275.523651 246.0757 
L 277.875189 216.551175 
L 280.295097 277.170017 
L 283.007152 218.34743 
L 285.427142 277.174683 
L 287.804302 218.687088 
L 290.569469 246.194351 
L 293.053695 253.933513 
L 295.6367 260.082348 
L 298.070577 250.607323 
L 300.840641 246.492299 
L 303.200889 217.282484 
L 305.689373 254.208595 
L 308.174998 254.024038 
L 310.700963 230.2354 
L 313.059921 273.616115 
L 315.434222 246.489395 
L 318.141339 217.989255 
L 320.5609 277.150289 
L 322.928942 246.044797 
L 325.307272 218.783598 
L 327.786959 253.639213 
L 330.438167 238.950471 
L 333.087196 263.936432 
L 335.565955 253.578961 
L 337.937974 218.262183 
L 340.467444 256.809447 
L 342.786181 242.458201 
L 345.16038 274.52184 
L 347.763396 210.121448 
L 350.173703 249.002607 
L 352.580952 248.791995 
L 355.022778 278.404681 
L 357.432182 221.310549 
L 359.758675 271.646993 
L 362.408362 238.849614 
L 364.816985 221.247792 
L 367.148383 243.393604 
L 369.919033 246.527866 
L 372.27153 273.228537 
L 375.043282 222.576838 
L 377.41178 246.077238 
L 380.171023 269.959316 
L 382.544055 218.346067 
L 384.912217 246.053359 
L 387.441776 283.132549 
L 390.091623 213.73738 
L 392.401245 270.601888 
L 395.110781 242.734289 
L 397.518953 248.855581 
L 399.92807 248.920743 
L 402.275633 244.573326 
L 404.647943 218.286298 
L 407.135961 254.178626 
L 409.779451 238.437307 
L 412.188284 276.537605 
L 414.598341 221.362934 
L 417.27896 240.878945 
L 419.647397 246.072967 
L 422.006689 273.636033 
L 424.375502 246.099647 
L 426.829979 224.862275 
L 429.515759 241.212966 
L 431.925016 276.561983 
L 434.253769 214.612199 
L 437.005325 269.554898 
L 439.780277 222.798341 
L 442.146576 245.92059 
L 444.713097 259.089116 
L 447.27869 233.084972 
L 449.808955 256.859065 
L 452.101457 240.486877 
L 454.623499 256.344374 
L 456.864136 236.453773 
L 459.35624 254.441758 
L 461.849399 227.807953 
L 464.258343 276.543955 
L 466.619286 217.34061 
L 469.105366 254.053396 
L 471.355604 237.214382 
L 474.005396 263.979898 
L 476.487417 226.969128 
L 479.05302 259.033447 
L 481.344146 240.382148 
L 483.715285 246.265171 
L 486.351667 263.213104 
L 488.721016 246.137882 
L 491.490507 222.419938 
L 493.93744 251.483035 
L 496.333717 248.032312 
L 498.702177 274.182135 
L 501.354531 213.927355 
L 504.117031 246.031614 
L 508.855498 246.189344 
L 511.382761 256.671536 
L 513.713135 243.318353 
L 516.241713 256.753797 
L 518.770323 230.428417 
L 521.181013 276.644035 
L 523.589992 221.276399 
L 526.221016 237.602029 
L 528.751406 256.8669 
L 531.18809 250.796462 
L 533.59812 248.983466 
L 536.126758 230.430434 
L 538.851884 243.718196 
L 541.329971 280.399332 
L 543.979461 238.836463 
L 546.508664 230.471601 
L 548.839495 243.351993 
L 551.295514 252.086925 
L 553.780875 254.006941 
L 558.583799 246.508098 
L 560.992031 248.859818 
L 563.659073 215.033078 
L 566.087193 250.218295 
L 568.451889 273.958427 
L 570.86107 248.925112 
L 573.193059 214.889941 
L 575.679868 254.100527 
L 578.263257 234.336178 
L 580.690975 250.191001 
L 583.050975 273.67836 
L 585.460066 248.918914 
L 587.988558 230.419825 
L 590.404854 249.41329 
L 592.643074 236.261252 
L 595.172106 256.782121 
L 597.499401 243.091569 
L 600.028221 256.768914 
L 602.785355 245.703345 
L 605.193384 248.845764 
L 607.722612 230.473429 
L 610.010789 240.157515 
L 612.508431 254.797196 
L 615.0275 256.157465 
L 617.726284 242.049027 
L 620.162227 223.417717 
L 622.641551 253.615579 
L 625.289179 263.856684 
L 627.93987 238.91623 
L 630.467936 230.388761 
L 632.788958 271.309777 
L 635.157406 246.07369 
L 637.530454 218.347378 
L 640.058862 256.743153 
L 642.469445 249.021518 
L 644.870483 248.362831 
L 647.399182 230.434865 
L 650.155642 269.813195 
L 652.524937 246.134015 
L 654.896552 218.228732 
L 657.49959 261.272399 
L 659.908536 248.908888 
L 662.337382 222.858726 
L 664.763939 250.112289 
L 667.12874 273.964724 
L 669.894723 222.176052 
L 672.260492 274.022302 
L 674.62243 245.608921 
L 677.000645 218.774004 
L 679.563983 258.895904 
L 682.120815 258.499349 
L 684.530562 221.33806 
L 687.202462 240.311676 
L 689.629901 250.17209 
L 691.999555 246.159562 
L 694.528681 256.788028 
L 696.845775 242.335963 
L 699.186294 272.504413 
L 701.715017 230.436653 
L 704.231052 255.966283 
L 706.723537 227.757316 
L 709.080973 273.525003 
L 711.488723 248.826517 
L 714.137523 238.790672 
L 716.466645 243.226267 
L 718.83864 218.26023 
L 721.532553 266.448687 
L 723.965918 250.572908 
L 726.723357 245.721973 
L 729.251849 230.419865 
L 731.801722 258.072991 
L 734.209427 248.823449 
L 736.600876 219.858392 
L 738.96877 274.148592 
L 741.326551 245.31073 
L 743.695237 246.090674 
L 746.470405 222.813305 
L 749.22124 269.516863 
L 751.600792 246.860694 
L 754.07798 253.476671 
L 756.726222 238.753605 
L 759.495625 222.413905 
L 761.964661 279.90691 
L 764.613918 238.821022 
L 767.377846 246.118824 
L 769.754573 218.651408 
L 769.754573 218.651408 
" clip-path="url(#p855407c383)" style="fill: none; stroke: #2ca02c; stroke-width: 1.5; stroke-linecap: square"/>
   </g>
   <g id="patch_3">
    <path d="M 57.53 414.72 
L 57.53 21.06 
" style="fill: none; stroke: #000000; stroke-width: 0.8; stroke-linejoin: miter; stroke-linecap: square"/>
   </g>
   <g id="patch_4">
    <path d="M 767.79 414.72 
L 767.79 21.06 
" style="fill: none; stroke: #000000; stroke-width: 0.8; stroke-linejoin: miter; stroke-linecap: square"/>
   </g>
   <g id="patch_5">
    <path d="M 57.53 414.72 
L 767.79 414.72 
" style="fill: none; stroke: #000000; stroke-width: 0.8; stroke-linejoin: miter; stroke-linecap: square"/>
   </g>
   <g id="patch_6">
    <path d="M 57.53 21.06 
L 767.79 21.06 
" style="fill: none; stroke: #000000; stroke-width: 0.8; stroke-linejoin: miter; stroke-linecap: square"/>
   </g>
   <g id="legend_1">
    <g id="patch_7">
     <path d="M 115.308047 548.599419 
L 710.011953 548.599419 
Q 712.911953 548.599419 712.911953 545.699419 
L 712.911953 472.1092 
Q 712.911953 469.2092 710.011953 469.2092 
L 115.308047 469.2092 
Q 112.408047 469.2092 112.408047 472.1092 
L 112.408047 545.699419 
Q 112.408047 548.599419 115.308047 548.599419 
z
" style="fill: #ffffff; opacity: 0.8; stroke: #cccccc; stroke-linejoin: miter"/>
    </g>
    <g id="line2d_35">
     <path d="M 118.208047 490.578122 
L 132.708047 490.578122 
L 147.208047 490.578122 
" style="fill: none; stroke: #ff7f0e; stroke-width: 1.5; stroke-linecap: square"/>
    </g>
    <g id="text_18">
     <!-- Camera 1 (standard) -->
     <g transform="translate(158.808047 486.026934) scale(0.145 -0.145)">
      <defs>
       <path id="DejaVuSans-43" d="M 4122 4306 
L 4122 3641 
Q 3803 3938 3442 4084 
Q 3081 4231 2675 4231 
Q 1875 4231 1450 3742 
Q 1025 3253 1025 2328 
Q 1025 1406 1450 917 
Q 1875 428 2675 428 
Q 3081 428 3442 575 
Q 3803 722 4122 1019 
L 4122 359 
Q 3791 134 3420 21 
Q 3050 -91 2638 -91 
Q 1578 -91 968 557 
Q 359 1206 359 2328 
Q 359 3453 968 4101 
Q 1578 4750 2638 4750 
Q 3056 4750 3426 4639 
Q 3797 4528 4122 4306 
z
" transform="scale(0.015625)"/>
       <path id="DejaVuSans-72" d="M 2631 2963 
Q 2534 3019 2420 3045 
Q 2306 3072 2169 3072 
Q 1681 3072 1420 2755 
Q 1159 2438 1159 1844 
L 1159 0 
L 581 0 
L 581 3500 
L 1159 3500 
L 1159 2956 
Q 1341 3275 1631 3429 
Q 1922 3584 2338 3584 
Q 2397 3584 2469 3576 
Q 2541 3569 2628 3553 
L 2631 2963 
z
" transform="scale(0.015625)"/>
       <path id="DejaVuSans-6e" d="M 3513 2113 
L 3513 0 
L 2938 0 
L 2938 2094 
Q 2938 2591 2744 2837 
Q 2550 3084 2163 3084 
Q 1697 3084 1428 2787 
Q 1159 2491 1159 1978 
L 1159 0 
L 581 0 
L 581 3500 
L 1159 3500 
L 1159 2956 
Q 1366 3272 1645 3428 
Q 1925 3584 2291 3584 
Q 2894 3584 3203 3211 
Q 3513 2838 3513 2113 
z
" transform="scale(0.015625)"/>
       <path id="DejaVuSans-64" d="M 2906 2969 
L 2906 4863 
L 3481 4863 
L 3481 0 
L 2906 0 
L 2906 525 
Q 2725 213 2448 61 
Q 2172 -91 1784 -91 
Q 1150 -91 751 415 
Q 353 922 353 1747 
Q 353 2572 751 3078 
Q 1150 3584 1784 3584 
Q 2172 3584 2448 3432 
Q 2725 3281 2906 2969 
z
M 947 1747 
Q 947 1113 1208 752 
Q 1469 391 1925 391 
Q 2381 391 2643 752 
Q 2906 1113 2906 1747 
Q 2906 2381 2643 2742 
Q 2381 3103 1925 3103 
Q 1469 3103 1208 2742 
Q 947 2381 947 1747 
z
" transform="scale(0.015625)"/>
      </defs>
      <use xlink:href="#DejaVuSans-43"/>
      <use xlink:href="#DejaVuSans-61" x="69.824219"/>
      <use xlink:href="#DejaVuSans-6d" x="131.103516"/>
      <use xlink:href="#DejaVuSans-65" x="228.515625"/>
      <use xlink:href="#DejaVuSans-72" x="290.039062"/>
      <use xlink:href="#DejaVuSans-61" x="331.152344"/>
      <use xlink:href="#DejaVuSans-20" x="392.431641"/>
      <use xlink:href="#DejaVuSans-31" x="424.21875"/>
      <use xlink:href="#DejaVuSans-20" x="487.841797"/>
      <use xlink:href="#DejaVuSans-28" x="519.628906"/>
      <use xlink:href="#DejaVuSans-73" x="558.642578"/>
      <use xlink:href="#DejaVuSans-74" x="610.742188"/>
      <use xlink:href="#DejaVuSans-61" x="649.951172"/>
      <use xlink:href="#DejaVuSans-6e" x="711.230469"/>
      <use xlink:href="#DejaVuSans-64" x="774.609375"/>
      <use xlink:href="#DejaVuSans-61" x="838.085938"/>
      <use xlink:href="#DejaVuSans-72" x="899.365234"/>
      <use xlink:href="#DejaVuSans-64" x="938.728516"/>
      <use xlink:href="#DejaVuSans-29" x="1002.205078"/>
     </g>
     <!-- (mean error deviation: 2.06) -->
     <g transform="translate(158.808047 502.263762) scale(0.145 -0.145)">
      <defs>
       <path id="DejaVuSans-6f" d="M 1959 3097 
Q 1497 3097 1228 2736 
Q 959 2375 959 1747 
Q 959 1119 1226 758 
Q 1494 397 1959 397 
Q 2419 397 2687 759 
Q 2956 1122 2956 1747 
Q 2956 2369 2687 2733 
Q 2419 3097 1959 3097 
z
M 1959 3584 
Q 2709 3584 3137 3096 
Q 3566 2609 3566 1747 
Q 3566 888 3137 398 
Q 2709 -91 1959 -91 
Q 1206 -91 779 398 
Q 353 888 353 1747 
Q 353 2609 779 3096 
Q 1206 3584 1959 3584 
z
" transform="scale(0.015625)"/>
       <path id="DejaVuSans-76" d="M 191 3500 
L 800 3500 
L 1894 563 
L 2988 3500 
L 3597 3500 
L 2284 0 
L 1503 0 
L 191 3500 
z
" transform="scale(0.015625)"/>
       <path id="DejaVuSans-3a" d="M 750 794 
L 1409 794 
L 1409 0 
L 750 0 
L 750 794 
z
M 750 3309 
L 1409 3309 
L 1409 2516 
L 750 2516 
L 750 3309 
z
" transform="scale(0.015625)"/>
       <path id="DejaVuSans-2e" d="M 684 794 
L 1344 794 
L 1344 0 
L 684 0 
L 684 794 
z
" transform="scale(0.015625)"/>
      </defs>
      <use xlink:href="#DejaVuSans-28"/>
      <use xlink:href="#DejaVuSans-6d" x="39.013672"/>
      <use xlink:href="#DejaVuSans-65" x="136.425781"/>
      <use xlink:href="#DejaVuSans-61" x="197.949219"/>
      <use xlink:href="#DejaVuSans-6e" x="259.228516"/>
      <use xlink:href="#DejaVuSans-20" x="322.607422"/>
      <use xlink:href="#DejaVuSans-65" x="354.394531"/>
      <use xlink:href="#DejaVuSans-72" x="415.917969"/>
      <use xlink:href="#DejaVuSans-72" x="455.28125"/>
      <use xlink:href="#DejaVuSans-6f" x="494.144531"/>
      <use xlink:href="#DejaVuSans-72" x="555.326172"/>
      <use xlink:href="#DejaVuSans-20" x="596.439453"/>
      <use xlink:href="#DejaVuSans-64" x="628.226562"/>
      <use xlink:href="#DejaVuSans-65" x="691.703125"/>
      <use xlink:href="#DejaVuSans-76" x="753.226562"/>
      <use xlink:href="#DejaVuSans-69" x="812.40625"/>
      <use xlink:href="#DejaVuSans-61" x="840.189453"/>
      <use xlink:href="#DejaVuSans-74" x="901.46875"/>
      <use xlink:href="#DejaVuSans-69" x="940.677734"/>
      <use xlink:href="#DejaVuSans-6f" x="968.460938"/>
      <use xlink:href="#DejaVuSans-6e" x="1029.642578"/>
      <use xlink:href="#DejaVuSans-3a" x="1093.021484"/>
      <use xlink:href="#DejaVuSans-20" x="1126.712891"/>
      <use xlink:href="#DejaVuSans-32" x="1158.5"/>
      <use xlink:href="#DejaVuSans-2e" x="1222.123047"/>
      <use xlink:href="#DejaVuSans-30" x="1253.910156"/>
      <use xlink:href="#DejaVuSans-36" x="1317.533203"/>
      <use xlink:href="#DejaVuSans-29" x="1381.15625"/>
     </g>
    </g>
    <g id="line2d_36">
     <path d="M 118.208047 528.098231 
L 132.708047 528.098231 
L 147.208047 528.098231 
" style="fill: none; stroke: #1f77b4; stroke-width: 1.5; stroke-linecap: square"/>
    </g>
    <g id="text_19">
     <!-- Camera 2 (standard) -->
     <g transform="translate(158.808047 523.547044) scale(0.145 -0.145)">
      <use xlink:href="#DejaVuSans-43"/>
      <use xlink:href="#DejaVuSans-61" x="69.824219"/>
      <use xlink:href="#DejaVuSans-6d" x="131.103516"/>
      <use xlink:href="#DejaVuSans-65" x="228.515625"/>
      <use xlink:href="#DejaVuSans-72" x="290.039062"/>
      <use xlink:href="#DejaVuSans-61" x="331.152344"/>
      <use xlink:href="#DejaVuSans-20" x="392.431641"/>
      <use xlink:href="#DejaVuSans-32" x="424.21875"/>
      <use xlink:href="#DejaVuSans-20" x="487.841797"/>
      <use xlink:href="#DejaVuSans-28" x="519.628906"/>
      <use xlink:href="#DejaVuSans-73" x="558.642578"/>
      <use xlink:href="#DejaVuSans-74" x="610.742188"/>
      <use xlink:href="#DejaVuSans-61" x="649.951172"/>
      <use xlink:href="#DejaVuSans-6e" x="711.230469"/>
      <use xlink:href="#DejaVuSans-64" x="774.609375"/>
      <use xlink:href="#DejaVuSans-61" x="838.085938"/>
      <use xlink:href="#DejaVuSans-72" x="899.365234"/>
      <use xlink:href="#DejaVuSans-64" x="938.728516"/>
      <use xlink:href="#DejaVuSans-29" x="1002.205078"/>
     </g>
     <!-- (mean error deviation: 1.96) -->
     <g transform="translate(158.808047 539.783872) scale(0.145 -0.145)">
      <defs>
       <path id="DejaVuSans-39" d="M 703 97 
L 703 672 
Q 941 559 1184 500 
Q 1428 441 1663 441 
Q 2288 441 2617 861 
Q 2947 1281 2994 2138 
Q 2813 1869 2534 1725 
Q 2256 1581 1919 1581 
Q 1219 1581 811 2004 
Q 403 2428 403 3163 
Q 403 3881 828 4315 
Q 1253 4750 1959 4750 
Q 2769 4750 3195 4129 
Q 3622 3509 3622 2328 
Q 3622 1225 3098 567 
Q 2575 -91 1691 -91 
Q 1453 -91 1209 -44 
Q 966 3 703 97 
z
M 1959 2075 
Q 2384 2075 2632 2365 
Q 2881 2656 2881 3163 
Q 2881 3666 2632 3958 
Q 2384 4250 1959 4250 
Q 1534 4250 1286 3958 
Q 1038 3666 1038 3163 
Q 1038 2656 1286 2365 
Q 1534 2075 1959 2075 
z
" transform="scale(0.015625)"/>
      </defs>
      <use xlink:href="#DejaVuSans-28"/>
      <use xlink:href="#DejaVuSans-6d" x="39.013672"/>
      <use xlink:href="#DejaVuSans-65" x="136.425781"/>
      <use xlink:href="#DejaVuSans-61" x="197.949219"/>
      <use xlink:href="#DejaVuSans-6e" x="259.228516"/>
      <use xlink:href="#DejaVuSans-20" x="322.607422"/>
      <use xlink:href="#DejaVuSans-65" x="354.394531"/>
      <use xlink:href="#DejaVuSans-72" x="415.917969"/>
      <use xlink:href="#DejaVuSans-72" x="455.28125"/>
      <use xlink:href="#DejaVuSans-6f" x="494.144531"/>
      <use xlink:href="#DejaVuSans-72" x="555.326172"/>
      <use xlink:href="#DejaVuSans-20" x="596.439453"/>
      <use xlink:href="#DejaVuSans-64" x="628.226562"/>
      <use xlink:href="#DejaVuSans-65" x="691.703125"/>
      <use xlink:href="#DejaVuSans-76" x="753.226562"/>
      <use xlink:href="#DejaVuSans-69" x="812.40625"/>
      <use xlink:href="#DejaVuSans-61" x="840.189453"/>
      <use xlink:href="#DejaVuSans-74" x="901.46875"/>
      <use xlink:href="#DejaVuSans-69" x="940.677734"/>
      <use xlink:href="#DejaVuSans-6f" x="968.460938"/>
      <use xlink:href="#DejaVuSans-6e" x="1029.642578"/>
      <use xlink:href="#DejaVuSans-3a" x="1093.021484"/>
      <use xlink:href="#DejaVuSans-20" x="1126.712891"/>
      <use xlink:href="#DejaVuSans-31" x="1158.5"/>
      <use xlink:href="#DejaVuSans-2e" x="1222.123047"/>
      <use xlink:href="#DejaVuSans-39" x="1253.910156"/>
      <use xlink:href="#DejaVuSans-36" x="1317.533203"/>
      <use xlink:href="#DejaVuSans-29" x="1381.15625"/>
     </g>
    </g>
    <g id="line2d_37">
     <path d="M 393.732969 490.578122 
L 408.232969 490.578122 
L 422.732969 490.578122 
" style="fill: none; stroke: #d62728; stroke-width: 1.5; stroke-linecap: square"/>
    </g>
    <g id="text_20">
     <!-- Camera 1 (incl. Packet Report export) -->
     <g transform="translate(434.332969 486.026934) scale(0.145 -0.145)">
      <defs>
       <path id="DejaVuSans-6c" d="M 603 4863 
L 1178 4863 
L 1178 0 
L 603 0 
L 603 4863 
z
" transform="scale(0.015625)"/>
       <path id="DejaVuSans-78" d="M 3513 3500 
L 2247 1797 
L 3578 0 
L 2900 0 
L 1881 1375 
L 863 0 
L 184 0 
L 1544 1831 
L 300 3500 
L 978 3500 
L 1906 2253 
L 2834 3500 
L 3513 3500 
z
" transform="scale(0.015625)"/>
      </defs>
      <use xlink:href="#DejaVuSans-43"/>
      <use xlink:href="#DejaVuSans-61" x="69.824219"/>
      <use xlink:href="#DejaVuSans-6d" x="131.103516"/>
      <use xlink:href="#DejaVuSans-65" x="228.515625"/>
      <use xlink:href="#DejaVuSans-72" x="290.039062"/>
      <use xlink:href="#DejaVuSans-61" x="331.152344"/>
      <use xlink:href="#DejaVuSans-20" x="392.431641"/>
      <use xlink:href="#DejaVuSans-31" x="424.21875"/>
      <use xlink:href="#DejaVuSans-20" x="487.841797"/>
      <use xlink:href="#DejaVuSans-28" x="519.628906"/>
      <use xlink:href="#DejaVuSans-69" x="558.642578"/>
      <use xlink:href="#DejaVuSans-6e" x="586.425781"/>
      <use xlink:href="#DejaVuSans-63" x="649.804688"/>
      <use xlink:href="#DejaVuSans-6c" x="704.785156"/>
      <use xlink:href="#DejaVuSans-2e" x="732.568359"/>
      <use xlink:href="#DejaVuSans-20" x="764.355469"/>
      <use xlink:href="#DejaVuSans-50" x="796.142578"/>
      <use xlink:href="#DejaVuSans-61" x="851.945312"/>
      <use xlink:href="#DejaVuSans-63" x="913.224609"/>
      <use xlink:href="#DejaVuSans-6b" x="968.205078"/>
      <use xlink:href="#DejaVuSans-65" x="1022.490234"/>
      <use xlink:href="#DejaVuSans-74" x="1084.013672"/>
      <use xlink:href="#DejaVuSans-20" x="1123.222656"/>
      <use xlink:href="#DejaVuSans-52" x="1155.009766"/>
      <use xlink:href="#DejaVuSans-65" x="1219.992188"/>
      <use xlink:href="#DejaVuSans-70" x="1281.515625"/>
      <use xlink:href="#DejaVuSans-6f" x="1344.992188"/>
      <use xlink:href="#DejaVuSans-72" x="1406.173828"/>
      <use xlink:href="#DejaVuSans-74" x="1447.287109"/>
      <use xlink:href="#DejaVuSans-20" x="1486.496094"/>
      <use xlink:href="#DejaVuSans-65" x="1518.283203"/>
      <use xlink:href="#DejaVuSans-78" x="1578.056641"/>
      <use xlink:href="#DejaVuSans-70" x="1637.236328"/>
      <use xlink:href="#DejaVuSans-6f" x="1700.712891"/>
      <use xlink:href="#DejaVuSans-72" x="1761.894531"/>
      <use xlink:href="#DejaVuSans-74" x="1803.007812"/>
      <use xlink:href="#DejaVuSans-29" x="1842.216797"/>
     </g>
     <!-- (mean error deviation: 2.50) -->
     <g transform="translate(434.332969 502.263762) scale(0.145 -0.145)">
      <use xlink:href="#DejaVuSans-28"/>
      <use xlink:href="#DejaVuSans-6d" x="39.013672"/>
      <use xlink:href="#DejaVuSans-65" x="136.425781"/>
      <use xlink:href="#DejaVuSans-61" x="197.949219"/>
      <use xlink:href="#DejaVuSans-6e" x="259.228516"/>
      <use xlink:href="#DejaVuSans-20" x="322.607422"/>
      <use xlink:href="#DejaVuSans-65" x="354.394531"/>
      <use xlink:href="#DejaVuSans-72" x="415.917969"/>
      <use xlink:href="#DejaVuSans-72" x="455.28125"/>
      <use xlink:href="#DejaVuSans-6f" x="494.144531"/>
      <use xlink:href="#DejaVuSans-72" x="555.326172"/>
      <use xlink:href="#DejaVuSans-20" x="596.439453"/>
      <use xlink:href="#DejaVuSans-64" x="628.226562"/>
      <use xlink:href="#DejaVuSans-65" x="691.703125"/>
      <use xlink:href="#DejaVuSans-76" x="753.226562"/>
      <use xlink:href="#DejaVuSans-69" x="812.40625"/>
      <use xlink:href="#DejaVuSans-61" x="840.189453"/>
      <use xlink:href="#DejaVuSans-74" x="901.46875"/>
      <use xlink:href="#DejaVuSans-69" x="940.677734"/>
      <use xlink:href="#DejaVuSans-6f" x="968.460938"/>
      <use xlink:href="#DejaVuSans-6e" x="1029.642578"/>
      <use xlink:href="#DejaVuSans-3a" x="1093.021484"/>
      <use xlink:href="#DejaVuSans-20" x="1126.712891"/>
      <use xlink:href="#DejaVuSans-32" x="1158.5"/>
      <use xlink:href="#DejaVuSans-2e" x="1222.123047"/>
      <use xlink:href="#DejaVuSans-35" x="1253.910156"/>
      <use xlink:href="#DejaVuSans-30" x="1317.533203"/>
      <use xlink:href="#DejaVuSans-29" x="1381.15625"/>
     </g>
    </g>
    <g id="line2d_38">
     <path d="M 393.732969 528.098231 
L 408.232969 528.098231 
L 422.732969 528.098231 
" style="fill: none; stroke: #2ca02c; stroke-width: 1.5; stroke-linecap: square"/>
    </g>
    <g id="text_21">
     <!-- Camera 2 (incl. Packet Report export) -->
     <g transform="translate(434.332969 523.547044) scale(0.145 -0.145)">
      <use xlink:href="#DejaVuSans-43"/>
      <use xlink:href="#DejaVuSans-61" x="69.824219"/>
      <use xlink:href="#DejaVuSans-6d" x="131.103516"/>
      <use xlink:href="#DejaVuSans-65" x="228.515625"/>
      <use xlink:href="#DejaVuSans-72" x="290.039062"/>
      <use xlink:href="#DejaVuSans-61" x="331.152344"/>
      <use xlink:href="#DejaVuSans-20" x="392.431641"/>
      <use xlink:href="#DejaVuSans-32" x="424.21875"/>
      <use xlink:href="#DejaVuSans-20" x="487.841797"/>
      <use xlink:href="#DejaVuSans-28" x="519.628906"/>
      <use xlink:href="#DejaVuSans-69" x="558.642578"/>
      <use xlink:href="#DejaVuSans-6e" x="586.425781"/>
      <use xlink:href="#DejaVuSans-63" x="649.804688"/>
      <use xlink:href="#DejaVuSans-6c" x="704.785156"/>
      <use xlink:href="#DejaVuSans-2e" x="732.568359"/>
      <use xlink:href="#DejaVuSans-20" x="764.355469"/>
      <use xlink:href="#DejaVuSans-50" x="796.142578"/>
      <use xlink:href="#DejaVuSans-61" x="851.945312"/>
      <use xlink:href="#DejaVuSans-63" x="913.224609"/>
      <use xlink:href="#DejaVuSans-6b" x="968.205078"/>
      <use xlink:href="#DejaVuSans-65" x="1022.490234"/>
      <use xlink:href="#DejaVuSans-74" x="1084.013672"/>
      <use xlink:href="#DejaVuSans-20" x="1123.222656"/>
      <use xlink:href="#DejaVuSans-52" x="1155.009766"/>
      <use xlink:href="#DejaVuSans-65" x="1219.992188"/>
      <use xlink:href="#DejaVuSans-70" x="1281.515625"/>
      <use xlink:href="#DejaVuSans-6f" x="1344.992188"/>
      <use xlink:href="#DejaVuSans-72" x="1406.173828"/>
      <use xlink:href="#DejaVuSans-74" x="1447.287109"/>
      <use xlink:href="#DejaVuSans-20" x="1486.496094"/>
      <use xlink:href="#DejaVuSans-65" x="1518.283203"/>
      <use xlink:href="#DejaVuSans-78" x="1578.056641"/>
      <use xlink:href="#DejaVuSans-70" x="1637.236328"/>
      <use xlink:href="#DejaVuSans-6f" x="1700.712891"/>
      <use xlink:href="#DejaVuSans-72" x="1761.894531"/>
      <use xlink:href="#DejaVuSans-74" x="1803.007812"/>
      <use xlink:href="#DejaVuSans-29" x="1842.216797"/>
     </g>
     <!-- (mean error deviation: 2.43) -->
     <g transform="translate(434.332969 539.783872) scale(0.145 -0.145)">
      <use xlink:href="#DejaVuSans-28"/>
      <use xlink:href="#DejaVuSans-6d" x="39.013672"/>
      <use xlink:href="#DejaVuSans-65" x="136.425781"/>
      <use xlink:href="#DejaVuSans-61" x="197.949219"/>
      <use xlink:href="#DejaVuSans-6e" x="259.228516"/>
      <use xlink:href="#DejaVuSans-20" x="322.607422"/>
      <use xlink:href="#DejaVuSans-65" x="354.394531"/>
      <use xlink:href="#DejaVuSans-72" x="415.917969"/>
      <use xlink:href="#DejaVuSans-72" x="455.28125"/>
      <use xlink:href="#DejaVuSans-6f" x="494.144531"/>
      <use xlink:href="#DejaVuSans-72" x="555.326172"/>
      <use xlink:href="#DejaVuSans-20" x="596.439453"/>
      <use xlink:href="#DejaVuSans-64" x="628.226562"/>
      <use xlink:href="#DejaVuSans-65" x="691.703125"/>
      <use xlink:href="#DejaVuSans-76" x="753.226562"/>
      <use xlink:href="#DejaVuSans-69" x="812.40625"/>
      <use xlink:href="#DejaVuSans-61" x="840.189453"/>
      <use xlink:href="#DejaVuSans-74" x="901.46875"/>
      <use xlink:href="#DejaVuSans-69" x="940.677734"/>
      <use xlink:href="#DejaVuSans-6f" x="968.460938"/>
      <use xlink:href="#DejaVuSans-6e" x="1029.642578"/>
      <use xlink:href="#DejaVuSans-3a" x="1093.021484"/>
      <use xlink:href="#DejaVuSans-20" x="1126.712891"/>
      <use xlink:href="#DejaVuSans-32" x="1158.5"/>
      <use xlink:href="#DejaVuSans-2e" x="1222.123047"/>
      <use xlink:href="#DejaVuSans-34" x="1253.910156"/>
      <use xlink:href="#DejaVuSans-33" x="1317.533203"/>
      <use xlink:href="#DejaVuSans-29" x="1381.15625"/>
     </g>
    </g>
   </g>
  </g>
 </g>
 <defs>
  <clipPath id="p855407c383">
   <rect x="57.53" y="21.06" width="710.26" height="393.66"/>
  </clipPath>
 </defs>
</svg>
