<?xml version="1.0" encoding="utf-8" standalone="no"?>
<!DOCTYPE svg PUBLIC "-//W3C//DTD SVG 1.1//EN"
  "http://www.w3.org/Graphics/SVG/1.1/DTD/svg11.dtd">
<svg xmlns:xlink="http://www.w3.org/1999/xlink" width="1008pt" height="720pt" viewBox="0 0 1008 720" xmlns="http://www.w3.org/2000/svg" version="1.1">
 <metadata>
  <rdf:RDF xmlns:dc="http://purl.org/dc/elements/1.1/" xmlns:cc="http://creativecommons.org/ns#" xmlns:rdf="http://www.w3.org/1999/02/22-rdf-syntax-ns#">
   <cc:Work>
    <dc:type rdf:resource="http://purl.org/dc/dcmitype/StillImage"/>
    <dc:date>2023-03-20T17:56:44.360874</dc:date>
    <dc:format>image/svg+xml</dc:format>
    <dc:creator>
     <cc:Agent>
      <dc:title>Matplotlib v3.6.2, https://matplotlib.org/</dc:title>
     </cc:Agent>
    </dc:creator>
   </cc:Work>
  </rdf:RDF>
 </metadata>
 <defs>
  <style type="text/css">*{stroke-linejoin: round; stroke-linecap: butt}</style>
 </defs>
 <g id="figure_1">
  <g id="patch_1">
   <path d="M 0 720 
L 1008 720 
L 1008 0 
L 0 0 
z
" style="fill: #ffffff"/>
  </g>
  <g id="axes_1">
   <g id="patch_2">
    <path d="M 126 640.8 
L 907.2 640.8 
L 907.2 86.4 
L 126 86.4 
z
" style="fill: #ffffff"/>
   </g>
   <g id="matplotlib.axis_1">
    <g id="xtick_1">
     <g id="line2d_1">
      <defs>
       <path id="m57c4269ade" d="M 0 0 
L 0 3.5 
" style="stroke: #000000; stroke-width: 0.8"/>
      </defs>
      <g>
       <use xlink:href="#m57c4269ade" x="161.509055" y="640.8" style="stroke: #000000; stroke-width: 0.8"/>
      </g>
     </g>
     <g id="text_1">
      <!-- 0.0 -->
      <g transform="translate(153.557493 655.398438) scale(0.1 -0.1)">
       <defs>
        <path id="DejaVuSans-30" d="M 2034 4250 
Q 1547 4250 1301 3770 
Q 1056 3291 1056 2328 
Q 1056 1369 1301 889 
Q 1547 409 2034 409 
Q 2525 409 2770 889 
Q 3016 1369 3016 2328 
Q 3016 3291 2770 3770 
Q 2525 4250 2034 4250 
z
M 2034 4750 
Q 2819 4750 3233 4129 
Q 3647 3509 3647 2328 
Q 3647 1150 3233 529 
Q 2819 -91 2034 -91 
Q 1250 -91 836 529 
Q 422 1150 422 2328 
Q 422 3509 836 4129 
Q 1250 4750 2034 4750 
z
" transform="scale(0.015625)"/>
        <path id="DejaVuSans-2e" d="M 684 794 
L 1344 794 
L 1344 0 
L 684 0 
L 684 794 
z
" transform="scale(0.015625)"/>
       </defs>
       <use xlink:href="#DejaVuSans-30"/>
       <use xlink:href="#DejaVuSans-2e" x="63.623047"/>
       <use xlink:href="#DejaVuSans-30" x="95.410156"/>
      </g>
     </g>
    </g>
    <g id="xtick_2">
     <g id="line2d_2">
      <g>
       <use xlink:href="#m57c4269ade" x="250.355819" y="640.8" style="stroke: #000000; stroke-width: 0.8"/>
      </g>
     </g>
     <g id="text_2">
      <!-- 2.5 -->
      <g transform="translate(242.404256 655.398438) scale(0.1 -0.1)">
       <defs>
        <path id="DejaVuSans-32" d="M 1228 531 
L 3431 531 
L 3431 0 
L 469 0 
L 469 531 
Q 828 903 1448 1529 
Q 2069 2156 2228 2338 
Q 2531 2678 2651 2914 
Q 2772 3150 2772 3378 
Q 2772 3750 2511 3984 
Q 2250 4219 1831 4219 
Q 1534 4219 1204 4116 
Q 875 4013 500 3803 
L 500 4441 
Q 881 4594 1212 4672 
Q 1544 4750 1819 4750 
Q 2544 4750 2975 4387 
Q 3406 4025 3406 3419 
Q 3406 3131 3298 2873 
Q 3191 2616 2906 2266 
Q 2828 2175 2409 1742 
Q 1991 1309 1228 531 
z
" transform="scale(0.015625)"/>
        <path id="DejaVuSans-35" d="M 691 4666 
L 3169 4666 
L 3169 4134 
L 1269 4134 
L 1269 2991 
Q 1406 3038 1543 3061 
Q 1681 3084 1819 3084 
Q 2600 3084 3056 2656 
Q 3513 2228 3513 1497 
Q 3513 744 3044 326 
Q 2575 -91 1722 -91 
Q 1428 -91 1123 -41 
Q 819 9 494 109 
L 494 744 
Q 775 591 1075 516 
Q 1375 441 1709 441 
Q 2250 441 2565 725 
Q 2881 1009 2881 1497 
Q 2881 1984 2565 2268 
Q 2250 2553 1709 2553 
Q 1456 2553 1204 2497 
Q 953 2441 691 2322 
L 691 4666 
z
" transform="scale(0.015625)"/>
       </defs>
       <use xlink:href="#DejaVuSans-32"/>
       <use xlink:href="#DejaVuSans-2e" x="63.623047"/>
       <use xlink:href="#DejaVuSans-35" x="95.410156"/>
      </g>
     </g>
    </g>
    <g id="xtick_3">
     <g id="line2d_3">
      <g>
       <use xlink:href="#m57c4269ade" x="339.202582" y="640.8" style="stroke: #000000; stroke-width: 0.8"/>
      </g>
     </g>
     <g id="text_3">
      <!-- 5.0 -->
      <g transform="translate(331.251019 655.398438) scale(0.1 -0.1)">
       <use xlink:href="#DejaVuSans-35"/>
       <use xlink:href="#DejaVuSans-2e" x="63.623047"/>
       <use xlink:href="#DejaVuSans-30" x="95.410156"/>
      </g>
     </g>
    </g>
    <g id="xtick_4">
     <g id="line2d_4">
      <g>
       <use xlink:href="#m57c4269ade" x="428.049345" y="640.8" style="stroke: #000000; stroke-width: 0.8"/>
      </g>
     </g>
     <g id="text_4">
      <!-- 7.5 -->
      <g transform="translate(420.097783 655.398438) scale(0.1 -0.1)">
       <defs>
        <path id="DejaVuSans-37" d="M 525 4666 
L 3525 4666 
L 3525 4397 
L 1831 0 
L 1172 0 
L 2766 4134 
L 525 4134 
L 525 4666 
z
" transform="scale(0.015625)"/>
       </defs>
       <use xlink:href="#DejaVuSans-37"/>
       <use xlink:href="#DejaVuSans-2e" x="63.623047"/>
       <use xlink:href="#DejaVuSans-35" x="95.410156"/>
      </g>
     </g>
    </g>
    <g id="xtick_5">
     <g id="line2d_5">
      <g>
       <use xlink:href="#m57c4269ade" x="516.896108" y="640.8" style="stroke: #000000; stroke-width: 0.8"/>
      </g>
     </g>
     <g id="text_5">
      <!-- 10.0 -->
      <g transform="translate(505.763296 655.398438) scale(0.1 -0.1)">
       <defs>
        <path id="DejaVuSans-31" d="M 794 531 
L 1825 531 
L 1825 4091 
L 703 3866 
L 703 4441 
L 1819 4666 
L 2450 4666 
L 2450 531 
L 3481 531 
L 3481 0 
L 794 0 
L 794 531 
z
" transform="scale(0.015625)"/>
       </defs>
       <use xlink:href="#DejaVuSans-31"/>
       <use xlink:href="#DejaVuSans-30" x="63.623047"/>
       <use xlink:href="#DejaVuSans-2e" x="127.246094"/>
       <use xlink:href="#DejaVuSans-30" x="159.033203"/>
      </g>
     </g>
    </g>
    <g id="xtick_6">
     <g id="line2d_6">
      <g>
       <use xlink:href="#m57c4269ade" x="605.742872" y="640.8" style="stroke: #000000; stroke-width: 0.8"/>
      </g>
     </g>
     <g id="text_6">
      <!-- 12.5 -->
      <g transform="translate(594.610059 655.398438) scale(0.1 -0.1)">
       <use xlink:href="#DejaVuSans-31"/>
       <use xlink:href="#DejaVuSans-32" x="63.623047"/>
       <use xlink:href="#DejaVuSans-2e" x="127.246094"/>
       <use xlink:href="#DejaVuSans-35" x="159.033203"/>
      </g>
     </g>
    </g>
    <g id="xtick_7">
     <g id="line2d_7">
      <g>
       <use xlink:href="#m57c4269ade" x="694.589635" y="640.8" style="stroke: #000000; stroke-width: 0.8"/>
      </g>
     </g>
     <g id="text_7">
      <!-- 15.0 -->
      <g transform="translate(683.456823 655.398438) scale(0.1 -0.1)">
       <use xlink:href="#DejaVuSans-31"/>
       <use xlink:href="#DejaVuSans-35" x="63.623047"/>
       <use xlink:href="#DejaVuSans-2e" x="127.246094"/>
       <use xlink:href="#DejaVuSans-30" x="159.033203"/>
      </g>
     </g>
    </g>
    <g id="xtick_8">
     <g id="line2d_8">
      <g>
       <use xlink:href="#m57c4269ade" x="783.436398" y="640.8" style="stroke: #000000; stroke-width: 0.8"/>
      </g>
     </g>
     <g id="text_8">
      <!-- 17.5 -->
      <g transform="translate(772.303586 655.398438) scale(0.1 -0.1)">
       <use xlink:href="#DejaVuSans-31"/>
       <use xlink:href="#DejaVuSans-37" x="63.623047"/>
       <use xlink:href="#DejaVuSans-2e" x="127.246094"/>
       <use xlink:href="#DejaVuSans-35" x="159.033203"/>
      </g>
     </g>
    </g>
    <g id="xtick_9">
     <g id="line2d_9">
      <g>
       <use xlink:href="#m57c4269ade" x="872.283162" y="640.8" style="stroke: #000000; stroke-width: 0.8"/>
      </g>
     </g>
     <g id="text_9">
      <!-- 20.0 -->
      <g transform="translate(861.150349 655.398438) scale(0.1 -0.1)">
       <use xlink:href="#DejaVuSans-32"/>
       <use xlink:href="#DejaVuSans-30" x="63.623047"/>
       <use xlink:href="#DejaVuSans-2e" x="127.246094"/>
       <use xlink:href="#DejaVuSans-30" x="159.033203"/>
      </g>
     </g>
    </g>
    <g id="text_10">
     <!-- Time (s) -->
     <g transform="translate(496.271094 669.076563) scale(0.1 -0.1)">
      <defs>
       <path id="DejaVuSans-54" d="M -19 4666 
L 3928 4666 
L 3928 4134 
L 2272 4134 
L 2272 0 
L 1638 0 
L 1638 4134 
L -19 4134 
L -19 4666 
z
" transform="scale(0.015625)"/>
       <path id="DejaVuSans-69" d="M 603 3500 
L 1178 3500 
L 1178 0 
L 603 0 
L 603 3500 
z
M 603 4863 
L 1178 4863 
L 1178 4134 
L 603 4134 
L 603 4863 
z
" transform="scale(0.015625)"/>
       <path id="DejaVuSans-6d" d="M 3328 2828 
Q 3544 3216 3844 3400 
Q 4144 3584 4550 3584 
Q 5097 3584 5394 3201 
Q 5691 2819 5691 2113 
L 5691 0 
L 5113 0 
L 5113 2094 
Q 5113 2597 4934 2840 
Q 4756 3084 4391 3084 
Q 3944 3084 3684 2787 
Q 3425 2491 3425 1978 
L 3425 0 
L 2847 0 
L 2847 2094 
Q 2847 2600 2669 2842 
Q 2491 3084 2119 3084 
Q 1678 3084 1418 2786 
Q 1159 2488 1159 1978 
L 1159 0 
L 581 0 
L 581 3500 
L 1159 3500 
L 1159 2956 
Q 1356 3278 1631 3431 
Q 1906 3584 2284 3584 
Q 2666 3584 2933 3390 
Q 3200 3197 3328 2828 
z
" transform="scale(0.015625)"/>
       <path id="DejaVuSans-65" d="M 3597 1894 
L 3597 1613 
L 953 1613 
Q 991 1019 1311 708 
Q 1631 397 2203 397 
Q 2534 397 2845 478 
Q 3156 559 3463 722 
L 3463 178 
Q 3153 47 2828 -22 
Q 2503 -91 2169 -91 
Q 1331 -91 842 396 
Q 353 884 353 1716 
Q 353 2575 817 3079 
Q 1281 3584 2069 3584 
Q 2775 3584 3186 3129 
Q 3597 2675 3597 1894 
z
M 3022 2063 
Q 3016 2534 2758 2815 
Q 2500 3097 2075 3097 
Q 1594 3097 1305 2825 
Q 1016 2553 972 2059 
L 3022 2063 
z
" transform="scale(0.015625)"/>
       <path id="DejaVuSans-20" transform="scale(0.015625)"/>
       <path id="DejaVuSans-28" d="M 1984 4856 
Q 1566 4138 1362 3434 
Q 1159 2731 1159 2009 
Q 1159 1288 1364 580 
Q 1569 -128 1984 -844 
L 1484 -844 
Q 1016 -109 783 600 
Q 550 1309 550 2009 
Q 550 2706 781 3412 
Q 1013 4119 1484 4856 
L 1984 4856 
z
" transform="scale(0.015625)"/>
       <path id="DejaVuSans-73" d="M 2834 3397 
L 2834 2853 
Q 2591 2978 2328 3040 
Q 2066 3103 1784 3103 
Q 1356 3103 1142 2972 
Q 928 2841 928 2578 
Q 928 2378 1081 2264 
Q 1234 2150 1697 2047 
L 1894 2003 
Q 2506 1872 2764 1633 
Q 3022 1394 3022 966 
Q 3022 478 2636 193 
Q 2250 -91 1575 -91 
Q 1294 -91 989 -36 
Q 684 19 347 128 
L 347 722 
Q 666 556 975 473 
Q 1284 391 1588 391 
Q 1994 391 2212 530 
Q 2431 669 2431 922 
Q 2431 1156 2273 1281 
Q 2116 1406 1581 1522 
L 1381 1569 
Q 847 1681 609 1914 
Q 372 2147 372 2553 
Q 372 3047 722 3315 
Q 1072 3584 1716 3584 
Q 2034 3584 2315 3537 
Q 2597 3491 2834 3397 
z
" transform="scale(0.015625)"/>
       <path id="DejaVuSans-29" d="M 513 4856 
L 1013 4856 
Q 1481 4119 1714 3412 
Q 1947 2706 1947 2009 
Q 1947 1309 1714 600 
Q 1481 -109 1013 -844 
L 513 -844 
Q 928 -128 1133 580 
Q 1338 1288 1338 2009 
Q 1338 2731 1133 3434 
Q 928 4138 513 4856 
z
" transform="scale(0.015625)"/>
      </defs>
      <use xlink:href="#DejaVuSans-54"/>
      <use xlink:href="#DejaVuSans-69" x="57.958984"/>
      <use xlink:href="#DejaVuSans-6d" x="85.742188"/>
      <use xlink:href="#DejaVuSans-65" x="183.154297"/>
      <use xlink:href="#DejaVuSans-20" x="244.677734"/>
      <use xlink:href="#DejaVuSans-28" x="276.464844"/>
      <use xlink:href="#DejaVuSans-73" x="315.478516"/>
      <use xlink:href="#DejaVuSans-29" x="367.578125"/>
     </g>
    </g>
   </g>
   <g id="matplotlib.axis_2">
    <g id="ytick_1">
     <g id="line2d_10">
      <defs>
       <path id="m8c9eb86203" d="M 0 0 
L -3.5 0 
" style="stroke: #000000; stroke-width: 0.8"/>
      </defs>
      <g>
       <use xlink:href="#m8c9eb86203" x="126" y="615.630241" style="stroke: #000000; stroke-width: 0.8"/>
      </g>
     </g>
     <g id="text_11">
      <!-- 0.0 -->
      <g transform="translate(103.096875 619.42946) scale(0.1 -0.1)">
       <use xlink:href="#DejaVuSans-30"/>
       <use xlink:href="#DejaVuSans-2e" x="63.623047"/>
       <use xlink:href="#DejaVuSans-30" x="95.410156"/>
      </g>
     </g>
    </g>
    <g id="ytick_2">
     <g id="line2d_11">
      <g>
       <use xlink:href="#m8c9eb86203" x="126" y="514.824193" style="stroke: #000000; stroke-width: 0.8"/>
      </g>
     </g>
     <g id="text_12">
      <!-- 0.2 -->
      <g transform="translate(103.096875 518.623412) scale(0.1 -0.1)">
       <use xlink:href="#DejaVuSans-30"/>
       <use xlink:href="#DejaVuSans-2e" x="63.623047"/>
       <use xlink:href="#DejaVuSans-32" x="95.410156"/>
      </g>
     </g>
    </g>
    <g id="ytick_3">
     <g id="line2d_12">
      <g>
       <use xlink:href="#m8c9eb86203" x="126" y="414.018145" style="stroke: #000000; stroke-width: 0.8"/>
      </g>
     </g>
     <g id="text_13">
      <!-- 0.4 -->
      <g transform="translate(103.096875 417.817363) scale(0.1 -0.1)">
       <defs>
        <path id="DejaVuSans-34" d="M 2419 4116 
L 825 1625 
L 2419 1625 
L 2419 4116 
z
M 2253 4666 
L 3047 4666 
L 3047 1625 
L 3713 1625 
L 3713 1100 
L 3047 1100 
L 3047 0 
L 2419 0 
L 2419 1100 
L 313 1100 
L 313 1709 
L 2253 4666 
z
" transform="scale(0.015625)"/>
       </defs>
       <use xlink:href="#DejaVuSans-30"/>
       <use xlink:href="#DejaVuSans-2e" x="63.623047"/>
       <use xlink:href="#DejaVuSans-34" x="95.410156"/>
      </g>
     </g>
    </g>
    <g id="ytick_4">
     <g id="line2d_13">
      <g>
       <use xlink:href="#m8c9eb86203" x="126" y="313.212096" style="stroke: #000000; stroke-width: 0.8"/>
      </g>
     </g>
     <g id="text_14">
      <!-- 0.6 -->
      <g transform="translate(103.096875 317.011315) scale(0.1 -0.1)">
       <defs>
        <path id="DejaVuSans-36" d="M 2113 2584 
Q 1688 2584 1439 2293 
Q 1191 2003 1191 1497 
Q 1191 994 1439 701 
Q 1688 409 2113 409 
Q 2538 409 2786 701 
Q 3034 994 3034 1497 
Q 3034 2003 2786 2293 
Q 2538 2584 2113 2584 
z
M 3366 4563 
L 3366 3988 
Q 3128 4100 2886 4159 
Q 2644 4219 2406 4219 
Q 1781 4219 1451 3797 
Q 1122 3375 1075 2522 
Q 1259 2794 1537 2939 
Q 1816 3084 2150 3084 
Q 2853 3084 3261 2657 
Q 3669 2231 3669 1497 
Q 3669 778 3244 343 
Q 2819 -91 2113 -91 
Q 1303 -91 875 529 
Q 447 1150 447 2328 
Q 447 3434 972 4092 
Q 1497 4750 2381 4750 
Q 2619 4750 2861 4703 
Q 3103 4656 3366 4563 
z
" transform="scale(0.015625)"/>
       </defs>
       <use xlink:href="#DejaVuSans-30"/>
       <use xlink:href="#DejaVuSans-2e" x="63.623047"/>
       <use xlink:href="#DejaVuSans-36" x="95.410156"/>
      </g>
     </g>
    </g>
    <g id="ytick_5">
     <g id="line2d_14">
      <g>
       <use xlink:href="#m8c9eb86203" x="126" y="212.406048" style="stroke: #000000; stroke-width: 0.8"/>
      </g>
     </g>
     <g id="text_15">
      <!-- 0.8 -->
      <g transform="translate(103.096875 216.205267) scale(0.1 -0.1)">
       <defs>
        <path id="DejaVuSans-38" d="M 2034 2216 
Q 1584 2216 1326 1975 
Q 1069 1734 1069 1313 
Q 1069 891 1326 650 
Q 1584 409 2034 409 
Q 2484 409 2743 651 
Q 3003 894 3003 1313 
Q 3003 1734 2745 1975 
Q 2488 2216 2034 2216 
z
M 1403 2484 
Q 997 2584 770 2862 
Q 544 3141 544 3541 
Q 544 4100 942 4425 
Q 1341 4750 2034 4750 
Q 2731 4750 3128 4425 
Q 3525 4100 3525 3541 
Q 3525 3141 3298 2862 
Q 3072 2584 2669 2484 
Q 3125 2378 3379 2068 
Q 3634 1759 3634 1313 
Q 3634 634 3220 271 
Q 2806 -91 2034 -91 
Q 1263 -91 848 271 
Q 434 634 434 1313 
Q 434 1759 690 2068 
Q 947 2378 1403 2484 
z
M 1172 3481 
Q 1172 3119 1398 2916 
Q 1625 2713 2034 2713 
Q 2441 2713 2670 2916 
Q 2900 3119 2900 3481 
Q 2900 3844 2670 4047 
Q 2441 4250 2034 4250 
Q 1625 4250 1398 4047 
Q 1172 3844 1172 3481 
z
" transform="scale(0.015625)"/>
       </defs>
       <use xlink:href="#DejaVuSans-30"/>
       <use xlink:href="#DejaVuSans-2e" x="63.623047"/>
       <use xlink:href="#DejaVuSans-38" x="95.410156"/>
      </g>
     </g>
    </g>
    <g id="ytick_6">
     <g id="line2d_15">
      <g>
       <use xlink:href="#m8c9eb86203" x="126" y="111.6" style="stroke: #000000; stroke-width: 0.8"/>
      </g>
     </g>
     <g id="text_16">
      <!-- 1.0 -->
      <g transform="translate(103.096875 115.399219) scale(0.1 -0.1)">
       <use xlink:href="#DejaVuSans-31"/>
       <use xlink:href="#DejaVuSans-2e" x="63.623047"/>
       <use xlink:href="#DejaVuSans-30" x="95.410156"/>
      </g>
     </g>
    </g>
    <g id="text_17">
     <!-- Packets per Second -->
     <g transform="translate(97.017187 412.445312) rotate(-90) scale(0.1 -0.1)">
      <defs>
       <path id="DejaVuSans-50" d="M 1259 4147 
L 1259 2394 
L 2053 2394 
Q 2494 2394 2734 2622 
Q 2975 2850 2975 3272 
Q 2975 3691 2734 3919 
Q 2494 4147 2053 4147 
L 1259 4147 
z
M 628 4666 
L 2053 4666 
Q 2838 4666 3239 4311 
Q 3641 3956 3641 3272 
Q 3641 2581 3239 2228 
Q 2838 1875 2053 1875 
L 1259 1875 
L 1259 0 
L 628 0 
L 628 4666 
z
" transform="scale(0.015625)"/>
       <path id="DejaVuSans-61" d="M 2194 1759 
Q 1497 1759 1228 1600 
Q 959 1441 959 1056 
Q 959 750 1161 570 
Q 1363 391 1709 391 
Q 2188 391 2477 730 
Q 2766 1069 2766 1631 
L 2766 1759 
L 2194 1759 
z
M 3341 1997 
L 3341 0 
L 2766 0 
L 2766 531 
Q 2569 213 2275 61 
Q 1981 -91 1556 -91 
Q 1019 -91 701 211 
Q 384 513 384 1019 
Q 384 1609 779 1909 
Q 1175 2209 1959 2209 
L 2766 2209 
L 2766 2266 
Q 2766 2663 2505 2880 
Q 2244 3097 1772 3097 
Q 1472 3097 1187 3025 
Q 903 2953 641 2809 
L 641 3341 
Q 956 3463 1253 3523 
Q 1550 3584 1831 3584 
Q 2591 3584 2966 3190 
Q 3341 2797 3341 1997 
z
" transform="scale(0.015625)"/>
       <path id="DejaVuSans-63" d="M 3122 3366 
L 3122 2828 
Q 2878 2963 2633 3030 
Q 2388 3097 2138 3097 
Q 1578 3097 1268 2742 
Q 959 2388 959 1747 
Q 959 1106 1268 751 
Q 1578 397 2138 397 
Q 2388 397 2633 464 
Q 2878 531 3122 666 
L 3122 134 
Q 2881 22 2623 -34 
Q 2366 -91 2075 -91 
Q 1284 -91 818 406 
Q 353 903 353 1747 
Q 353 2603 823 3093 
Q 1294 3584 2113 3584 
Q 2378 3584 2631 3529 
Q 2884 3475 3122 3366 
z
" transform="scale(0.015625)"/>
       <path id="DejaVuSans-6b" d="M 581 4863 
L 1159 4863 
L 1159 1991 
L 2875 3500 
L 3609 3500 
L 1753 1863 
L 3688 0 
L 2938 0 
L 1159 1709 
L 1159 0 
L 581 0 
L 581 4863 
z
" transform="scale(0.015625)"/>
       <path id="DejaVuSans-74" d="M 1172 4494 
L 1172 3500 
L 2356 3500 
L 2356 3053 
L 1172 3053 
L 1172 1153 
Q 1172 725 1289 603 
Q 1406 481 1766 481 
L 2356 481 
L 2356 0 
L 1766 0 
Q 1100 0 847 248 
Q 594 497 594 1153 
L 594 3053 
L 172 3053 
L 172 3500 
L 594 3500 
L 594 4494 
L 1172 4494 
z
" transform="scale(0.015625)"/>
       <path id="DejaVuSans-70" d="M 1159 525 
L 1159 -1331 
L 581 -1331 
L 581 3500 
L 1159 3500 
L 1159 2969 
Q 1341 3281 1617 3432 
Q 1894 3584 2278 3584 
Q 2916 3584 3314 3078 
Q 3713 2572 3713 1747 
Q 3713 922 3314 415 
Q 2916 -91 2278 -91 
Q 1894 -91 1617 61 
Q 1341 213 1159 525 
z
M 3116 1747 
Q 3116 2381 2855 2742 
Q 2594 3103 2138 3103 
Q 1681 3103 1420 2742 
Q 1159 2381 1159 1747 
Q 1159 1113 1420 752 
Q 1681 391 2138 391 
Q 2594 391 2855 752 
Q 3116 1113 3116 1747 
z
" transform="scale(0.015625)"/>
       <path id="DejaVuSans-72" d="M 2631 2963 
Q 2534 3019 2420 3045 
Q 2306 3072 2169 3072 
Q 1681 3072 1420 2755 
Q 1159 2438 1159 1844 
L 1159 0 
L 581 0 
L 581 3500 
L 1159 3500 
L 1159 2956 
Q 1341 3275 1631 3429 
Q 1922 3584 2338 3584 
Q 2397 3584 2469 3576 
Q 2541 3569 2628 3553 
L 2631 2963 
z
" transform="scale(0.015625)"/>
       <path id="DejaVuSans-53" d="M 3425 4513 
L 3425 3897 
Q 3066 4069 2747 4153 
Q 2428 4238 2131 4238 
Q 1616 4238 1336 4038 
Q 1056 3838 1056 3469 
Q 1056 3159 1242 3001 
Q 1428 2844 1947 2747 
L 2328 2669 
Q 3034 2534 3370 2195 
Q 3706 1856 3706 1288 
Q 3706 609 3251 259 
Q 2797 -91 1919 -91 
Q 1588 -91 1214 -16 
Q 841 59 441 206 
L 441 856 
Q 825 641 1194 531 
Q 1563 422 1919 422 
Q 2459 422 2753 634 
Q 3047 847 3047 1241 
Q 3047 1584 2836 1778 
Q 2625 1972 2144 2069 
L 1759 2144 
Q 1053 2284 737 2584 
Q 422 2884 422 3419 
Q 422 4038 858 4394 
Q 1294 4750 2059 4750 
Q 2388 4750 2728 4690 
Q 3069 4631 3425 4513 
z
" transform="scale(0.015625)"/>
       <path id="DejaVuSans-6f" d="M 1959 3097 
Q 1497 3097 1228 2736 
Q 959 2375 959 1747 
Q 959 1119 1226 758 
Q 1494 397 1959 397 
Q 2419 397 2687 759 
Q 2956 1122 2956 1747 
Q 2956 2369 2687 2733 
Q 2419 3097 1959 3097 
z
M 1959 3584 
Q 2709 3584 3137 3096 
Q 3566 2609 3566 1747 
Q 3566 888 3137 398 
Q 2709 -91 1959 -91 
Q 1206 -91 779 398 
Q 353 888 353 1747 
Q 353 2609 779 3096 
Q 1206 3584 1959 3584 
z
" transform="scale(0.015625)"/>
       <path id="DejaVuSans-6e" d="M 3513 2113 
L 3513 0 
L 2938 0 
L 2938 2094 
Q 2938 2591 2744 2837 
Q 2550 3084 2163 3084 
Q 1697 3084 1428 2787 
Q 1159 2491 1159 1978 
L 1159 0 
L 581 0 
L 581 3500 
L 1159 3500 
L 1159 2956 
Q 1366 3272 1645 3428 
Q 1925 3584 2291 3584 
Q 2894 3584 3203 3211 
Q 3513 2838 3513 2113 
z
" transform="scale(0.015625)"/>
       <path id="DejaVuSans-64" d="M 2906 2969 
L 2906 4863 
L 3481 4863 
L 3481 0 
L 2906 0 
L 2906 525 
Q 2725 213 2448 61 
Q 2172 -91 1784 -91 
Q 1150 -91 751 415 
Q 353 922 353 1747 
Q 353 2572 751 3078 
Q 1150 3584 1784 3584 
Q 2172 3584 2448 3432 
Q 2725 3281 2906 2969 
z
M 947 1747 
Q 947 1113 1208 752 
Q 1469 391 1925 391 
Q 2381 391 2643 752 
Q 2906 1113 2906 1747 
Q 2906 2381 2643 2742 
Q 2381 3103 1925 3103 
Q 1469 3103 1208 2742 
Q 947 2381 947 1747 
z
" transform="scale(0.015625)"/>
      </defs>
      <use xlink:href="#DejaVuSans-50"/>
      <use xlink:href="#DejaVuSans-61" x="55.802734"/>
      <use xlink:href="#DejaVuSans-63" x="117.082031"/>
      <use xlink:href="#DejaVuSans-6b" x="172.0625"/>
      <use xlink:href="#DejaVuSans-65" x="226.347656"/>
      <use xlink:href="#DejaVuSans-74" x="287.871094"/>
      <use xlink:href="#DejaVuSans-73" x="327.080078"/>
      <use xlink:href="#DejaVuSans-20" x="379.179688"/>
      <use xlink:href="#DejaVuSans-70" x="410.966797"/>
      <use xlink:href="#DejaVuSans-65" x="474.443359"/>
      <use xlink:href="#DejaVuSans-72" x="535.966797"/>
      <use xlink:href="#DejaVuSans-20" x="577.080078"/>
      <use xlink:href="#DejaVuSans-53" x="608.867188"/>
      <use xlink:href="#DejaVuSans-65" x="672.34375"/>
      <use xlink:href="#DejaVuSans-63" x="733.867188"/>
      <use xlink:href="#DejaVuSans-6f" x="788.847656"/>
      <use xlink:href="#DejaVuSans-6e" x="850.029297"/>
      <use xlink:href="#DejaVuSans-64" x="913.408203"/>
     </g>
    </g>
    <g id="text_18">
     <!-- 1e6 -->
     <g transform="translate(126 83.4) scale(0.1 -0.1)">
      <use xlink:href="#DejaVuSans-31"/>
      <use xlink:href="#DejaVuSans-65" x="63.623047"/>
      <use xlink:href="#DejaVuSans-36" x="125.146484"/>
     </g>
    </g>
   </g>
   <g id="line2d_16">
    <path d="M 161.509091 111.6 
L 162.101379 615.599998 
L 162.101415 111.6 
L 162.693667 615.599996 
L 162.693738 363.615121 
L 163.285991 615.599996 
L 163.286026 111.6 
L 163.878314 615.599998 
L 163.87835 111.6 
L 164.470602 615.599996 
L 164.470673 363.615121 
L 165.062926 615.599996 
L 165.062961 111.6 
L 165.65525 615.599998 
L 165.655285 111.6 
L 166.247538 615.599996 
L 166.247609 363.615121 
L 166.839861 615.599996 
L 166.839897 111.6 
L 167.432185 615.599998 
L 167.43222 111.6 
L 168.024473 615.599996 
L 168.024544 363.615121 
L 168.616796 615.599996 
L 168.616832 111.6 
L 169.20912 615.599998 
L 169.209156 111.6 
L 169.801408 615.599996 
L 169.801479 363.615121 
L 170.393732 615.599996 
L 170.393767 111.6 
L 170.986055 615.599998 
L 170.986091 111.6 
L 171.578343 615.599996 
L 171.578414 363.615121 
L 172.170667 615.599996 
L 172.170703 111.6 
L 172.762991 615.599998 
L 172.763026 111.6 
L 173.355279 615.599996 
L 173.35535 363.615121 
L 173.947602 615.599996 
L 173.947638 111.6 
L 174.539926 615.599998 
L 174.539961 111.6 
L 175.132214 615.599996 
L 175.132285 363.615121 
L 175.724537 615.599996 
L 175.724573 111.6 
L 176.316861 615.599998 
L 176.316897 111.6 
L 176.909149 615.599996 
L 176.90922 363.615121 
L 177.501473 615.599996 
L 177.501508 111.6 
L 178.093796 615.599998 
L 178.093832 111.6 
L 178.686084 615.599996 
L 178.686156 363.615121 
L 179.278408 615.599996 
L 179.278444 111.6 
L 179.870732 615.599998 
L 179.870767 111.6 
L 180.46302 615.599996 
L 180.463091 363.615121 
L 181.055343 615.599996 
L 181.055379 111.6 
L 181.647702 615.6 
L 181.647738 111.6 
L 182.239955 615.599995 
L 182.240026 363.615121 
L 182.832314 615.599998 
L 182.83235 111.6 
L 183.424602 615.599996 
L 183.424638 111.6 
L 184.016961 615.6 
L 184.016997 111.6 
L 184.609214 615.599995 
L 184.609249 111.6 
L 185.201573 615.6 
L 185.201609 111.6 
L 185.793825 615.599995 
L 185.793897 363.615121 
L 186.386185 615.599998 
L 186.38622 111.6 
L 186.978473 615.599996 
L 186.978508 111.6 
L 187.570832 615.6 
L 187.570867 111.6 
L 188.163084 615.599995 
L 188.16312 111.6 
L 188.755443 615.6 
L 188.755479 111.6 
L 189.347696 615.599995 
L 189.347767 363.615121 
L 189.940055 615.599998 
L 189.940091 111.6 
L 190.532343 615.599996 
L 190.532379 111.6 
L 191.124702 615.6 
L 191.124738 111.6 
L 191.716955 615.599995 
L 191.71699 111.6 
L 192.309314 615.6 
L 192.30935 111.6 
L 192.901567 615.599995 
L 192.901638 363.615121 
L 193.493926 615.599998 
L 193.493961 111.6 
L 194.086214 615.599996 
L 194.086249 111.6 
L 194.678573 615.6 
L 194.678608 111.6 
L 195.270825 615.599995 
L 195.270861 111.6 
L 195.863185 615.6 
L 195.86322 111.6 
L 196.455437 615.599995 
L 196.455508 363.615121 
L 197.047796 615.599998 
L 197.047832 111.6 
L 197.640084 615.599996 
L 197.64012 111.6 
L 198.232443 615.6 
L 198.232479 111.6 
L 198.824696 615.599995 
L 198.824731 111.6 
L 199.417055 615.6 
L 199.417091 111.6 
L 200.009308 615.599995 
L 200.009379 363.615121 
L 200.601667 615.599998 
L 200.601702 111.6 
L 201.193955 615.599996 
L 201.19399 111.6 
L 201.786314 615.6 
L 201.786349 111.6 
L 202.378566 615.599995 
L 202.378602 111.6 
L 202.970926 615.6 
L 202.970961 111.6 
L 203.563178 615.599995 
L 203.563249 363.615121 
L 204.155537 615.599998 
L 204.155573 111.6 
L 204.747825 615.599996 
L 204.747861 111.6 
L 205.340113 615.599996 
L 205.340184 363.615121 
L 205.932437 615.599996 
L 205.932473 111.6 
L 206.524761 615.599998 
L 206.524796 111.6 
L 207.117049 615.599996 
L 207.11712 363.615121 
L 207.709372 615.599996 
L 207.709408 111.6 
L 208.301696 615.599998 
L 208.301731 111.6 
L 208.893984 615.599996 
L 208.894055 363.615121 
L 209.486308 615.599996 
L 209.486343 111.6 
L 210.078631 615.599998 
L 210.078667 111.6 
L 210.670919 615.599996 
L 210.67099 363.615121 
L 211.263243 615.599996 
L 211.263278 111.6 
L 211.855566 615.599998 
L 211.855602 111.6 
L 212.447854 615.599996 
L 212.447926 363.615121 
L 213.040178 615.599996 
L 213.040214 111.6 
L 213.632502 615.599998 
L 213.632537 111.6 
L 214.22479 615.599996 
L 214.224861 363.615121 
L 214.817113 615.599996 
L 214.817149 111.6 
L 215.409437 615.599998 
L 215.409472 111.6 
L 216.001725 615.599996 
L 216.001796 363.615121 
L 216.594049 615.599996 
L 216.594084 111.6 
L 217.186372 615.599998 
L 217.186408 111.6 
L 217.77866 615.599996 
L 217.778731 363.615121 
L 218.370984 615.599996 
L 218.371019 111.6 
L 218.963307 615.599998 
L 218.963343 111.6 
L 219.555596 615.599996 
L 219.555667 363.615121 
L 220.147919 615.599996 
L 220.147955 111.6 
L 220.740243 615.599998 
L 220.740278 111.6 
L 221.332531 615.599996 
L 221.332602 363.615121 
L 221.924854 615.599996 
L 221.92489 111.6 
L 222.517178 615.599998 
L 222.517214 111.6 
L 223.109466 615.599996 
L 223.109537 363.615121 
L 223.70179 615.599996 
L 223.701825 111.6 
L 224.294113 615.599998 
L 224.294149 111.6 
L 224.886401 615.599996 
L 224.886472 363.615121 
L 225.478725 615.599996 
L 225.47876 111.6 
L 226.071049 615.599998 
L 226.071084 111.6 
L 226.663337 615.599996 
L 226.663408 363.615121 
L 227.25566 615.599996 
L 227.255696 111.6 
L 227.847984 615.599998 
L 227.848019 111.6 
L 228.440272 615.599996 
L 228.440343 363.615121 
L 229.032595 615.599996 
L 229.032631 111.6 
L 229.624919 615.599998 
L 229.624955 111.6 
L 230.217207 615.599996 
L 230.217278 363.615121 
L 230.809531 615.599996 
L 230.809566 111.6 
L 231.401854 615.599998 
L 231.40189 111.6 
L 231.994142 615.599996 
L 231.994213 363.615121 
L 232.586466 615.599996 
L 232.586502 111.6 
L 233.17879 615.599998 
L 233.178825 111.6 
L 233.771078 615.599996 
L 233.771149 363.615121 
L 234.363401 615.599996 
L 234.363437 111.6 
L 234.955725 615.599998 
L 234.95576 111.6 
L 235.548013 615.599996 
L 235.548084 363.615121 
L 236.140337 615.599996 
L 236.140372 111.6 
L 236.73266 615.599998 
L 236.732696 111.6 
L 237.324948 615.599996 
L 237.325019 363.615121 
L 237.917272 615.599996 
L 237.917307 111.6 
L 238.509595 615.599998 
L 238.509631 111.6 
L 239.101883 615.599996 
L 239.101955 363.615121 
L 239.694207 615.599996 
L 239.694243 111.6 
L 240.286531 615.599998 
L 240.286566 111.6 
L 240.878819 615.599996 
L 240.87889 363.615121 
L 241.471142 615.599996 
L 241.471178 111.6 
L 242.063466 615.599998 
L 242.063501 111.6 
L 242.655754 615.599996 
L 242.655825 363.615121 
L 243.248078 615.599996 
L 243.248113 111.6 
L 243.840401 615.599998 
L 243.840437 111.6 
L 244.432689 615.599996 
L 244.43276 363.615121 
L 245.025013 615.599996 
L 245.025048 111.6 
L 245.617336 615.599998 
L 245.617372 111.6 
L 246.209625 615.599996 
L 246.209696 363.615121 
L 246.801948 615.599996 
L 246.801984 111.6 
L 247.394272 615.599998 
L 247.394307 111.6 
L 247.98656 615.599996 
L 247.986631 363.615121 
L 248.578883 615.599996 
L 248.578919 111.6 
L 249.171207 615.599998 
L 249.171243 111.6 
L 249.763495 615.599996 
L 249.763566 363.615121 
L 250.355819 615.599996 
L 250.355854 111.6 
L 250.948142 615.599998 
L 250.948178 111.6 
L 251.54043 615.599996 
L 251.540501 363.615121 
L 252.132754 615.599996 
L 252.132789 111.6 
L 252.725078 615.599998 
L 252.725113 111.6 
L 253.317366 615.599996 
L 253.317437 363.615121 
L 253.909689 615.599996 
L 253.909725 111.6 
L 254.502013 615.599998 
L 254.502048 111.6 
L 255.094301 615.599996 
L 255.094372 363.615121 
L 255.686624 615.599996 
L 255.68666 111.6 
L 256.278948 615.599998 
L 256.278984 111.6 
L 256.871236 615.599996 
L 256.871307 363.615121 
L 257.46356 615.599996 
L 257.463595 111.6 
L 258.055883 615.599998 
L 258.055919 111.6 
L 258.648171 615.599996 
L 258.648242 363.615121 
L 259.240495 615.599996 
L 259.240531 111.6 
L 259.832819 615.599998 
L 259.832854 111.6 
L 260.425107 615.599996 
L 260.425178 363.615121 
L 261.01743 615.599996 
L 261.017466 111.6 
L 261.609754 615.599998 
L 261.609789 111.6 
L 262.202042 615.599996 
L 262.202113 363.615121 
L 262.794366 615.599996 
L 262.794401 111.6 
L 263.386689 615.599998 
L 263.386725 111.6 
L 263.978977 615.599996 
L 263.979048 363.615121 
L 264.571301 615.599996 
L 264.571336 111.6 
L 265.163624 615.599998 
L 265.16366 111.6 
L 265.755912 615.599996 
L 265.755984 363.615121 
L 266.348236 615.599996 
L 266.348272 111.6 
L 266.94056 615.599998 
L 266.940595 111.6 
L 267.532848 615.599996 
L 267.532919 363.615121 
L 268.125171 615.599996 
L 268.125207 111.6 
L 268.717495 615.599998 
L 268.71753 111.6 
L 269.309783 615.599996 
L 269.309854 363.615121 
L 269.902107 615.599996 
L 269.902142 111.6 
L 270.49443 615.599998 
L 270.494466 111.6 
L 271.086718 615.599996 
L 271.086789 363.615121 
L 271.679042 615.599996 
L 271.679077 111.6 
L 272.271365 615.599998 
L 272.271401 111.6 
L 272.863654 615.599996 
L 272.863725 363.615121 
L 273.455977 615.599996 
L 273.456013 111.6 
L 274.048301 615.599998 
L 274.048336 111.6 
L 274.640589 615.599996 
L 274.64066 363.615121 
L 275.232912 615.599996 
L 275.232948 111.6 
L 275.825236 615.599998 
L 275.825272 111.6 
L 276.417524 615.599996 
L 276.417595 363.615121 
L 277.009848 615.599996 
L 277.009883 111.6 
L 277.602171 615.599998 
L 277.602207 111.6 
L 278.194459 615.599996 
L 278.19453 363.615121 
L 278.786783 615.599996 
L 278.786818 111.6 
L 279.379107 615.599998 
L 279.379142 111.6 
L 279.971395 615.599996 
L 279.971466 363.615121 
L 280.563718 615.599996 
L 280.563754 111.6 
L 281.156042 615.599998 
L 281.156077 111.6 
L 281.74833 615.599996 
L 281.748401 363.615121 
L 282.340653 615.599996 
L 282.340689 111.6 
L 282.932977 615.599998 
L 282.933013 111.6 
L 283.525265 615.599996 
L 283.525336 363.615121 
L 284.117589 615.599996 
L 284.117624 111.6 
L 284.709912 615.599998 
L 284.709948 111.6 
L 285.3022 615.599996 
L 285.302271 363.615121 
L 285.894524 615.599996 
L 285.89456 111.6 
L 286.486848 615.599998 
L 286.486883 111.6 
L 287.079136 615.599996 
L 287.079207 363.615121 
L 287.671459 615.599996 
L 287.671495 111.6 
L 288.263783 615.599998 
L 288.263818 111.6 
L 288.856071 615.599996 
L 288.856142 363.615121 
L 289.448394 615.599996 
L 289.44843 111.6 
L 290.040718 615.599998 
L 290.040754 111.6 
L 290.633006 615.599996 
L 290.633077 363.615121 
L 291.22533 615.599996 
L 291.225365 111.6 
L 291.817653 615.599998 
L 291.817689 111.6 
L 292.409941 615.599996 
L 292.410013 363.615121 
L 293.002265 615.599996 
L 293.002301 111.6 
L 293.594589 615.599998 
L 293.594624 111.6 
L 294.186877 615.599996 
L 294.186948 363.615121 
L 294.7792 615.599996 
L 294.779236 111.6 
L 295.371524 615.599998 
L 295.371559 111.6 
L 295.963812 615.599996 
L 295.963883 363.615121 
L 296.556136 615.599996 
L 296.556171 111.6 
L 297.148459 615.599998 
L 297.148495 111.6 
L 297.740747 615.599996 
L 297.740818 363.615121 
L 298.333071 615.599996 
L 298.333106 111.6 
L 298.925394 615.599998 
L 298.92543 111.6 
L 299.517682 615.599996 
L 299.517754 363.615121 
L 300.110006 615.599996 
L 300.110042 111.6 
L 300.70233 615.599998 
L 300.702365 111.6 
L 301.294618 615.599996 
L 301.294689 363.615121 
L 301.886941 615.599996 
L 301.886977 111.6 
L 302.479265 615.599998 
L 302.4793 111.6 
L 303.071553 615.599996 
L 303.071624 363.615121 
L 303.663877 615.599996 
L 303.663912 111.6 
L 304.2562 615.599998 
L 304.256236 111.6 
L 304.848488 615.599996 
L 304.848559 363.615121 
L 305.440812 615.599996 
L 305.440847 111.6 
L 306.033135 615.599998 
L 306.033171 111.6 
L 306.625424 615.599996 
L 306.625495 363.615121 
L 307.217747 615.599996 
L 307.217783 111.6 
L 307.810071 615.599998 
L 307.810106 111.6 
L 308.402359 615.599996 
L 308.40243 363.615121 
L 308.994682 615.599996 
L 308.994718 111.6 
L 309.587006 615.599998 
L 309.587042 111.6 
L 310.179294 615.599996 
L 310.179365 363.615121 
L 310.771618 615.599996 
L 310.771653 111.6 
L 311.363941 615.599998 
L 311.363977 111.6 
L 311.956229 615.599996 
L 311.9563 363.615121 
L 312.548553 615.599996 
L 312.548588 111.6 
L 313.140877 615.599998 
L 313.140912 111.6 
L 313.733165 615.599996 
L 313.733236 363.615121 
L 314.325488 615.599996 
L 314.325524 111.6 
L 314.917812 615.599998 
L 314.917847 111.6 
L 315.5101 615.599996 
L 315.510171 363.615121 
L 316.102423 615.599996 
L 316.102459 111.6 
L 316.694747 615.599998 
L 316.694783 111.6 
L 317.287035 615.599996 
L 317.287106 363.615121 
L 317.879359 615.599996 
L 317.879394 111.6 
L 318.471682 615.599998 
L 318.471718 111.6 
L 319.06397 615.599996 
L 319.064041 363.615121 
L 319.656294 615.599996 
L 319.65633 111.6 
L 320.248618 615.599998 
L 320.248653 111.6 
L 320.840906 615.599996 
L 320.840977 363.615121 
L 321.433229 615.599996 
L 321.433265 111.6 
L 322.025553 615.599998 
L 322.025588 111.6 
L 322.617841 615.599996 
L 322.617912 363.615121 
L 323.210165 615.599996 
L 323.2102 111.6 
L 323.802488 615.599998 
L 323.802524 111.6 
L 324.394776 615.599996 
L 324.394847 363.615121 
L 324.9871 615.599996 
L 324.987135 111.6 
L 325.579423 615.599998 
L 325.579459 111.6 
L 326.171711 615.599996 
L 326.171783 363.615121 
L 326.764035 615.599996 
L 326.764071 111.6 
L 327.356359 615.599998 
L 327.356394 111.6 
L 327.948647 615.599996 
L 327.948718 363.615121 
L 328.54097 615.599996 
L 328.541006 111.6 
L 329.133294 615.599998 
L 329.133329 111.6 
L 329.725582 615.599996 
L 329.725653 363.615121 
L 330.317906 615.599996 
L 330.317941 111.6 
L 330.910229 615.599998 
L 330.910265 111.6 
L 331.502517 615.599996 
L 331.502588 363.615121 
L 332.094841 615.599996 
L 332.094876 111.6 
L 332.687164 615.599998 
L 332.6872 111.6 
L 333.279453 615.599996 
L 333.279524 363.615121 
L 333.871776 615.599996 
L 333.871812 111.6 
L 334.4641 615.599998 
L 334.464135 111.6 
L 335.056388 615.599996 
L 335.056459 363.615121 
L 335.648711 615.599996 
L 335.648747 111.6 
L 336.241035 615.599998 
L 336.241071 111.6 
L 336.833323 615.599996 
L 336.833394 363.615121 
L 337.425647 615.599996 
L 337.425682 111.6 
L 338.01797 615.599998 
L 338.018006 111.6 
L 338.610258 615.599996 
L 338.610329 363.615121 
L 339.202582 615.599996 
L 339.202617 111.6 
L 339.794906 615.599998 
L 339.794941 111.6 
L 340.387194 615.599996 
L 340.387265 363.615121 
L 340.979517 615.599996 
L 340.979553 111.6 
L 341.571841 615.599998 
L 341.571876 111.6 
L 342.164129 615.599996 
L 342.1642 363.615121 
L 342.756452 615.599996 
L 342.756488 111.6 
L 343.348776 615.599998 
L 343.348812 111.6 
L 343.941064 615.599996 
L 343.941135 363.615121 
L 344.533388 615.599996 
L 344.533423 111.6 
L 345.125711 615.599998 
L 345.125747 111.6 
L 345.717999 615.599996 
L 345.71807 363.615121 
L 346.310323 615.599996 
L 346.310359 111.6 
L 346.902647 615.599998 
L 346.902682 111.6 
L 347.494935 615.599996 
L 347.495006 363.615121 
L 348.087258 615.599996 
L 348.087294 111.6 
L 348.679582 615.599998 
L 348.679617 111.6 
L 349.27187 615.599996 
L 349.271941 363.615121 
L 349.864194 615.599996 
L 349.864229 111.6 
L 350.456517 615.599998 
L 350.456553 111.6 
L 351.048805 615.599996 
L 351.048876 363.615121 
L 351.641129 615.599996 
L 351.641164 111.6 
L 352.233452 615.599998 
L 352.233488 111.6 
L 352.82574 615.599996 
L 352.825812 363.615121 
L 353.418064 615.599996 
L 353.4181 111.6 
L 354.010388 615.599998 
L 354.010423 111.6 
L 354.602676 615.599996 
L 354.602747 363.615121 
L 355.194999 615.599996 
L 355.195035 111.6 
L 355.787323 615.599998 
L 355.787358 111.6 
L 356.379611 615.599996 
L 356.379682 363.615121 
L 356.971935 615.599996 
L 356.97197 111.6 
L 357.564258 615.599998 
L 357.564294 111.6 
L 358.156546 615.599996 
L 358.156617 363.615121 
L 358.74887 615.599996 
L 358.748905 111.6 
L 359.341193 615.599998 
L 359.341229 111.6 
L 359.933482 615.599996 
L 359.933553 363.615121 
L 360.525805 615.599996 
L 360.525841 111.6 
L 361.118129 615.599998 
L 361.118164 111.6 
L 361.710417 615.599996 
L 361.710488 363.615121 
L 362.30274 615.599996 
L 362.302776 111.6 
L 362.895064 615.599998 
L 362.8951 111.6 
L 363.487352 615.599996 
L 363.487423 363.615121 
L 364.079676 615.599996 
L 364.079711 111.6 
L 364.671999 615.599998 
L 364.672035 111.6 
L 365.264287 615.599996 
L 365.264358 363.615121 
L 365.856611 615.599996 
L 365.856646 111.6 
L 366.448935 615.599998 
L 366.44897 111.6 
L 367.041223 615.599996 
L 367.041294 363.615121 
L 367.633546 615.599996 
L 367.633582 111.6 
L 368.22587 615.599998 
L 368.225905 111.6 
L 368.818158 615.599996 
L 368.818229 363.615121 
L 369.410481 615.599996 
L 369.410517 111.6 
L 370.002805 615.599998 
L 370.002841 111.6 
L 370.595093 615.599996 
L 370.595164 363.615121 
L 371.187417 615.599996 
L 371.187452 111.6 
L 371.77974 615.599998 
L 371.779776 111.6 
L 372.372028 615.599996 
L 372.372099 363.615121 
L 372.964352 615.599996 
L 372.964388 111.6 
L 373.556676 615.599998 
L 373.556711 111.6 
L 374.148964 615.599996 
L 374.149035 363.615121 
L 374.741287 615.599996 
L 374.741323 111.6 
L 375.333611 615.599998 
L 375.333646 111.6 
L 375.925899 615.599996 
L 375.92597 363.615121 
L 376.518223 615.599996 
L 376.518258 111.6 
L 377.110546 615.599998 
L 377.110582 111.6 
L 377.702834 615.599996 
L 377.702905 363.615121 
L 378.295158 615.599996 
L 378.295193 111.6 
L 378.887481 615.599998 
L 378.887517 111.6 
L 379.479769 615.599996 
L 379.479841 363.615121 
L 380.072093 615.599996 
L 380.072129 111.6 
L 380.664417 615.599998 
L 380.664452 111.6 
L 381.256705 615.599996 
L 381.256776 363.615121 
L 381.849028 615.599996 
L 381.849064 111.6 
L 382.441352 615.599998 
L 382.441387 111.6 
L 383.03364 615.599996 
L 383.033711 363.615121 
L 383.625964 615.599996 
L 383.625999 111.6 
L 384.218287 615.599998 
L 384.218323 111.6 
L 384.810575 615.599996 
L 384.810646 363.615121 
L 385.402899 615.599996 
L 385.402934 111.6 
L 385.995222 615.599998 
L 385.995258 111.6 
L 386.587511 615.599996 
L 386.587582 363.615121 
L 387.179834 615.599996 
L 387.17987 111.6 
L 387.772158 615.599998 
L 387.772193 111.6 
L 388.364446 615.599996 
L 388.364517 363.615121 
L 388.956769 615.599996 
L 388.956805 111.6 
L 389.549093 615.599998 
L 389.549129 111.6 
L 390.141381 615.599996 
L 390.141452 363.615121 
L 390.733705 615.599996 
L 390.73374 111.6 
L 391.326028 615.599998 
L 391.326064 111.6 
L 391.918316 615.599996 
L 391.918387 363.615121 
L 392.51064 615.599996 
L 392.510675 111.6 
L 393.102964 615.599998 
L 393.102999 111.6 
L 393.695252 615.599996 
L 393.695323 363.615121 
L 394.287575 615.599996 
L 394.287611 111.6 
L 394.879899 615.599998 
L 394.879934 111.6 
L 395.472187 615.599996 
L 395.472258 363.615121 
L 396.06451 615.599996 
L 396.064546 111.6 
L 396.656834 615.599998 
L 396.65687 111.6 
L 397.249122 615.599996 
L 397.249193 363.615121 
L 397.841446 615.599996 
L 397.841481 111.6 
L 398.433769 615.599998 
L 398.433805 111.6 
L 399.026057 615.599996 
L 399.026128 363.615121 
L 399.618381 615.599996 
L 399.618417 111.6 
L 400.210705 615.599998 
L 400.21074 111.6 
L 400.802993 615.599996 
L 400.803064 363.615121 
L 401.395316 615.599996 
L 401.395352 111.6 
L 401.98764 615.599998 
L 401.987675 111.6 
L 402.579928 615.599996 
L 402.579999 363.615121 
L 403.172251 615.599996 
L 403.172287 111.6 
L 403.764575 615.599998 
L 403.764611 111.6 
L 404.356863 615.599996 
L 404.356934 363.615121 
L 404.949187 615.599996 
L 404.949222 111.6 
L 405.54151 615.599998 
L 405.541546 111.6 
L 406.133798 615.599996 
L 406.13387 363.615121 
L 406.726122 615.599996 
L 406.726158 111.6 
L 407.318446 615.599998 
L 407.318481 111.6 
L 407.910734 615.599996 
L 407.910805 363.615121 
L 408.503057 615.599996 
L 408.503093 111.6 
L 409.095381 615.599998 
L 409.095416 111.6 
L 409.687669 615.599996 
L 409.68774 363.615121 
L 410.279993 615.599996 
L 410.280028 111.6 
L 410.872316 615.599998 
L 410.872352 111.6 
L 411.464604 615.599996 
L 411.464675 363.615121 
L 412.056928 615.599996 
L 412.056963 111.6 
L 412.649251 615.599998 
L 412.649287 111.6 
L 413.241539 615.599996 
L 413.241611 363.615121 
L 413.833863 615.599996 
L 413.833899 111.6 
L 414.426187 615.599998 
L 414.426222 111.6 
L 415.018475 615.599996 
L 415.018546 363.615121 
L 415.610798 615.599996 
L 415.610834 111.6 
L 416.203122 615.599998 
L 416.203157 111.6 
L 416.79541 615.599996 
L 416.795481 363.615121 
L 417.387734 615.599996 
L 417.387769 111.6 
L 417.980057 615.599998 
L 417.980093 111.6 
L 418.572345 615.599996 
L 418.572416 363.615121 
L 419.164669 615.599996 
L 419.164704 111.6 
L 419.756992 615.599998 
L 419.757028 111.6 
L 420.349281 615.599996 
L 420.349352 363.615121 
L 420.941604 615.599996 
L 420.94164 111.6 
L 421.533928 615.599998 
L 421.533963 111.6 
L 422.126216 615.599996 
L 422.126287 363.615121 
L 422.718539 615.599996 
L 422.718575 111.6 
L 423.310863 615.599998 
L 423.310899 111.6 
L 423.903151 615.599996 
L 423.903222 363.615121 
L 424.495475 615.599996 
L 424.49551 111.6 
L 425.087798 615.599998 
L 425.087834 111.6 
L 425.680086 615.599996 
L 425.680157 363.615121 
L 426.27241 615.599996 
L 426.272445 111.6 
L 426.864734 615.599998 
L 426.864769 111.6 
L 427.457022 615.599996 
L 427.457093 363.615121 
L 428.049345 615.599996 
L 428.049381 111.6 
L 428.641669 615.599998 
L 428.641704 111.6 
L 429.233957 615.599996 
L 429.234028 363.615121 
L 429.82628 615.599996 
L 429.826316 111.6 
L 430.418604 615.599998 
L 430.41864 111.6 
L 431.010892 615.599996 
L 431.010963 363.615121 
L 431.603216 615.599996 
L 431.603251 111.6 
L 432.195539 615.599998 
L 432.195575 111.6 
L 432.787827 615.599996 
L 432.787898 363.615121 
L 433.380151 615.599996 
L 433.380187 111.6 
L 433.972475 615.599998 
L 433.97251 111.6 
L 434.564763 615.599996 
L 434.564834 363.615121 
L 435.157086 615.599996 
L 435.157122 111.6 
L 435.74941 615.599998 
L 435.749445 111.6 
L 436.341698 615.599996 
L 436.341769 363.615121 
L 436.934022 615.599996 
L 436.934057 111.6 
L 437.526345 615.599998 
L 437.526381 111.6 
L 438.118633 615.599996 
L 438.118704 363.615121 
L 438.710957 615.599996 
L 438.710992 111.6 
L 439.30328 615.599998 
L 439.303316 111.6 
L 439.895568 615.599996 
L 439.89564 363.615121 
L 440.487892 615.599996 
L 440.487928 111.6 
L 441.080216 615.599998 
L 441.080251 111.6 
L 441.672504 615.599996 
L 441.672575 363.615121 
L 442.264827 615.599996 
L 442.264863 111.6 
L 442.857151 615.599998 
L 442.857186 111.6 
L 443.449439 615.599996 
L 443.44951 363.615121 
L 444.041763 615.599996 
L 444.041798 111.6 
L 444.634086 615.599998 
L 444.634122 111.6 
L 445.226374 615.599996 
L 445.226445 363.615121 
L 445.818698 615.599996 
L 445.818733 111.6 
L 446.411021 615.599998 
L 446.411057 111.6 
L 447.00331 615.599996 
L 447.003381 363.615121 
L 447.595633 615.599996 
L 447.595669 111.6 
L 448.187957 615.599998 
L 448.187992 111.6 
L 448.780245 615.599996 
L 448.780316 363.615121 
L 449.372568 615.599996 
L 449.372604 111.6 
L 449.964892 615.599998 
L 449.964928 111.6 
L 450.557251 615.6 
L 450.557287 111.6 
L 451.149504 615.599995 
L 451.149539 111.6 
L 451.741863 615.6 
L 451.741898 111.6 
L 452.334115 615.599995 
L 452.334186 363.615121 
L 452.926474 615.599998 
L 452.92651 111.6 
L 453.518763 615.599996 
L 453.518798 111.6 
L 454.111122 615.6 
L 454.111157 111.6 
L 454.703374 615.599995 
L 454.70341 111.6 
L 455.295733 615.6 
L 455.295769 111.6 
L 455.887986 615.599995 
L 455.888057 363.615121 
L 456.480345 615.599998 
L 456.480381 111.6 
L 457.072633 615.599996 
L 457.072669 111.6 
L 457.664992 615.6 
L 457.665028 111.6 
L 458.257245 615.599995 
L 458.25728 111.6 
L 458.849604 615.6 
L 458.849639 111.6 
L 459.441856 615.599995 
L 459.441927 363.615121 
L 460.034216 615.599998 
L 460.034251 111.6 
L 460.626504 615.599996 
L 460.626539 111.6 
L 461.218863 615.6 
L 461.218898 111.6 
L 461.811115 615.599995 
L 461.811151 111.6 
L 462.403474 615.6 
L 462.40351 111.6 
L 462.995727 615.599995 
L 462.995798 363.615121 
L 463.588086 615.599998 
L 463.588122 111.6 
L 464.180374 615.599996 
L 464.18041 111.6 
L 464.772733 615.6 
L 464.772769 111.6 
L 465.364986 615.599995 
L 465.365021 111.6 
L 465.957345 615.6 
L 465.95738 111.6 
L 466.549597 615.599995 
L 466.549669 363.615121 
L 467.141957 615.599998 
L 467.141992 111.6 
L 467.734245 615.599996 
L 467.73428 111.6 
L 468.326604 615.6 
L 468.326639 111.6 
L 468.918856 615.599995 
L 468.918892 111.6 
L 469.511215 615.6 
L 469.511251 111.6 
L 470.103468 615.599995 
L 470.103539 363.615121 
L 470.695827 615.599998 
L 470.695863 111.6 
L 471.288115 615.599996 
L 471.288151 111.6 
L 471.880474 615.6 
L 471.88051 111.6 
L 472.472727 615.599995 
L 472.472762 111.6 
L 473.065086 615.6 
L 473.065122 111.6 
L 473.657339 615.599995 
L 473.65741 363.615121 
L 474.249698 615.599998 
L 474.249733 111.6 
L 474.841986 615.599996 
L 474.842021 111.6 
L 475.434345 615.6 
L 475.43438 111.6 
L 476.026597 615.599995 
L 476.026633 111.6 
L 476.618957 615.6 
L 476.618992 111.6 
L 477.211209 615.599995 
L 477.21128 363.615121 
L 477.803568 615.599998 
L 477.803604 111.6 
L 478.395856 615.599996 
L 478.395892 111.6 
L 478.988215 615.6 
L 478.988251 111.6 
L 479.580468 615.599995 
L 479.580503 111.6 
L 480.172827 615.6 
L 480.172863 111.6 
L 480.76508 615.599995 
L 480.765151 363.615121 
L 481.357439 615.599998 
L 481.357474 111.6 
L 481.949727 615.599996 
L 481.949762 111.6 
L 482.542086 615.6 
L 482.542121 111.6 
L 483.134338 615.599995 
L 483.134374 111.6 
L 483.726698 615.6 
L 483.726733 111.6 
L 484.31895 615.599995 
L 484.319021 363.615121 
L 484.911309 615.599998 
L 484.911345 111.6 
L 485.503597 615.599996 
L 485.503633 111.6 
L 486.095956 615.6 
L 486.095992 111.6 
L 486.688209 615.599995 
L 486.688245 111.6 
L 487.280568 615.6 
L 487.280604 111.6 
L 487.872821 615.599995 
L 487.872892 363.615121 
L 488.46518 615.599998 
L 488.465215 111.6 
L 489.057468 615.599996 
L 489.057503 111.6 
L 489.649827 615.6 
L 489.649863 111.6 
L 490.24208 615.599995 
L 490.242115 111.6 
L 490.834439 615.6 
L 490.834474 111.6 
L 491.426691 615.599995 
L 491.426762 363.615121 
L 492.01905 615.599998 
L 492.019086 111.6 
L 492.611338 615.599996 
L 492.611374 111.6 
L 493.203698 615.6 
L 493.203733 111.6 
L 493.79595 615.599995 
L 493.795986 111.6 
L 494.388309 615.6 
L 494.388345 111.6 
L 494.980562 615.599995 
L 494.980633 363.615121 
L 495.572921 615.599998 
L 495.572956 111.6 
L 496.165209 615.599996 
L 496.165244 111.6 
L 496.757568 615.6 
L 496.757604 111.6 
L 497.349821 615.599995 
L 497.349856 111.6 
L 497.94218 615.6 
L 497.942215 111.6 
L 498.534432 615.599995 
L 498.534503 363.615121 
L 499.126791 615.599998 
L 499.126827 111.6 
L 499.719079 615.599996 
L 499.719115 111.6 
L 500.311439 615.6 
L 500.311474 111.6 
L 500.903691 615.599995 
L 500.903727 111.6 
L 501.49605 615.6 
L 501.496086 111.6 
L 502.088303 615.599995 
L 502.088374 363.615121 
L 502.680662 615.599998 
L 502.680697 111.6 
L 503.27295 615.599996 
L 503.272986 111.6 
L 503.865309 615.6 
L 503.865345 111.6 
L 504.457562 615.599995 
L 504.457597 111.6 
L 505.049921 615.6 
L 505.049956 111.6 
L 505.642173 615.599995 
L 505.642244 363.615121 
L 506.234532 615.599998 
L 506.234568 111.6 
L 506.826821 615.599996 
L 506.826856 111.6 
L 507.41918 615.6 
L 507.419215 111.6 
L 508.011432 615.599995 
L 508.011468 111.6 
L 508.603791 615.6 
L 508.603827 111.6 
L 509.196044 615.599995 
L 509.196115 363.615121 
L 509.788403 615.599998 
L 509.788439 111.6 
L 510.380691 615.599996 
L 510.380727 111.6 
L 510.97305 615.6 
L 510.973086 111.6 
L 511.565303 615.599995 
L 511.565338 111.6 
L 512.157662 615.6 
L 512.157697 111.6 
L 512.749914 615.599995 
L 512.749985 363.615121 
L 513.342274 615.599998 
L 513.342309 111.6 
L 513.934562 615.599996 
L 513.934597 111.6 
L 514.526921 615.6 
L 514.526956 111.6 
L 515.119173 615.599995 
L 515.119209 111.6 
L 515.711532 615.6 
L 515.711568 111.6 
L 516.303785 615.599995 
L 516.303856 363.615121 
L 516.896144 615.599998 
L 516.89618 111.6 
L 517.488432 615.599996 
L 517.488468 111.6 
L 518.080791 615.6 
L 518.080827 111.6 
L 518.673044 615.599995 
L 518.673079 111.6 
L 519.265403 615.6 
L 519.265438 111.6 
L 519.857655 615.599995 
L 519.857726 363.615121 
L 520.450015 615.599998 
L 520.45005 111.6 
L 521.042303 615.599996 
L 521.042338 111.6 
L 521.634662 615.6 
L 521.634697 111.6 
L 522.226914 615.599995 
L 522.22695 111.6 
L 522.819273 615.6 
L 522.819309 111.6 
L 523.411526 615.599995 
L 523.411597 363.615121 
L 524.003885 615.599998 
L 524.003921 111.6 
L 524.596173 615.599996 
L 524.596209 111.6 
L 525.188532 615.6 
L 525.188568 111.6 
L 525.780785 615.599995 
L 525.78082 111.6 
L 526.373144 615.6 
L 526.373179 111.6 
L 526.965396 615.599995 
L 526.965468 363.615121 
L 527.557756 615.599998 
L 527.557791 111.6 
L 528.150044 615.599996 
L 528.150079 111.6 
L 528.742403 615.6 
L 528.742438 111.6 
L 529.334655 615.599995 
L 529.334691 111.6 
L 529.927014 615.6 
L 529.92705 111.6 
L 530.519267 615.599995 
L 530.519338 363.615121 
L 531.111626 615.599998 
L 531.111662 111.6 
L 531.703914 615.599996 
L 531.70395 111.6 
L 532.296273 615.6 
L 532.296309 111.6 
L 532.888526 615.599995 
L 532.888561 111.6 
L 533.480885 615.6 
L 533.480921 111.6 
L 534.073138 615.599995 
L 534.073209 363.615121 
L 534.665497 615.599998 
L 534.665532 111.6 
L 535.257785 615.599996 
L 535.25782 111.6 
L 535.850144 615.6 
L 535.850179 111.6 
L 536.442396 615.599995 
L 536.442432 111.6 
L 537.034756 615.6 
L 537.034791 111.6 
L 537.627008 615.599995 
L 537.627079 363.615121 
L 538.219367 615.599998 
L 538.219403 111.6 
L 538.811655 615.599996 
L 538.811691 111.6 
L 539.404014 615.6 
L 539.40405 111.6 
L 539.996267 615.599995 
L 539.996302 111.6 
L 540.588626 615.6 
L 540.588662 111.6 
L 541.180879 615.599995 
L 541.18095 363.615121 
L 541.773238 615.599998 
L 541.773273 111.6 
L 542.365526 615.599996 
L 542.365561 111.6 
L 542.957885 615.6 
L 542.95792 111.6 
L 543.550137 615.599995 
L 543.550173 111.6 
L 544.142497 615.6 
L 544.142532 111.6 
L 544.734749 615.599995 
L 544.73482 363.615121 
L 545.327108 615.599998 
L 545.327144 111.6 
L 545.919396 615.599996 
L 545.919432 111.6 
L 546.511755 615.6 
L 546.511791 111.6 
L 547.104008 615.599995 
L 547.104044 111.6 
L 547.696367 615.6 
L 547.696403 111.6 
L 548.28862 615.599995 
L 548.288691 363.615121 
L 548.880979 615.599998 
L 548.881014 111.6 
L 549.473267 615.599996 
L 549.473302 111.6 
L 550.065626 615.6 
L 550.065662 111.6 
L 550.657879 615.599995 
L 550.657914 111.6 
L 551.250238 615.6 
L 551.250273 111.6 
L 551.84249 615.599995 
L 551.842561 363.615121 
L 552.434849 615.599998 
L 552.434885 111.6 
L 553.027137 615.599996 
L 553.027173 111.6 
L 553.619497 615.6 
L 553.619532 111.6 
L 554.211749 615.599995 
L 554.211785 111.6 
L 554.804108 615.6 
L 554.804144 111.6 
L 555.396361 615.599995 
L 555.396432 363.615121 
L 555.98872 615.599998 
L 555.988755 111.6 
L 556.581008 615.599996 
L 556.581043 111.6 
L 557.173367 615.6 
L 557.173403 111.6 
L 557.76562 615.599995 
L 557.765655 111.6 
L 558.357979 615.6 
L 558.358014 111.6 
L 558.950231 615.599995 
L 558.950302 363.615121 
L 559.54259 615.599998 
L 559.542626 111.6 
L 560.134878 615.599996 
L 560.134914 111.6 
L 560.727238 615.6 
L 560.727273 111.6 
L 561.31949 615.599995 
L 561.319526 111.6 
L 561.911849 615.6 
L 561.911885 111.6 
L 562.504102 615.599995 
L 562.504173 363.615121 
L 563.096461 615.599998 
L 563.096496 111.6 
L 563.688749 615.599996 
L 563.688785 111.6 
L 564.281108 615.6 
L 564.281144 111.6 
L 564.873361 615.599995 
L 564.873396 111.6 
L 565.46572 615.6 
L 565.465755 111.6 
L 566.057972 615.599995 
L 566.058043 363.615121 
L 566.650331 615.599998 
L 566.650367 111.6 
L 567.24262 615.599996 
L 567.242655 111.6 
L 567.834979 615.6 
L 567.835014 111.6 
L 568.427231 615.599995 
L 568.427267 111.6 
L 569.01959 615.6 
L 569.019626 111.6 
L 569.611843 615.599995 
L 569.611914 363.615121 
L 570.204202 615.599998 
L 570.204238 111.6 
L 570.79649 615.599996 
L 570.796526 111.6 
L 571.388849 615.6 
L 571.388885 111.6 
L 571.981102 615.599995 
L 571.981137 111.6 
L 572.573461 615.6 
L 572.573496 111.6 
L 573.165713 615.599995 
L 573.165784 363.615121 
L 573.758073 615.599998 
L 573.758108 111.6 
L 574.350361 615.599996 
L 574.350396 111.6 
L 574.94272 615.6 
L 574.942755 111.6 
L 575.534972 615.599995 
L 575.535008 111.6 
L 576.127331 615.6 
L 576.127367 111.6 
L 576.719584 615.599995 
L 576.719655 363.615121 
L 577.311943 615.599998 
L 577.311979 111.6 
L 577.904231 615.599996 
L 577.904267 111.6 
L 578.49659 615.6 
L 578.496626 111.6 
L 579.088843 615.599995 
L 579.088878 111.6 
L 579.681202 615.6 
L 579.681237 111.6 
L 580.273454 615.599995 
L 580.273526 363.615121 
L 580.865814 615.599998 
L 580.865849 111.6 
L 581.458102 615.599996 
L 581.458137 111.6 
L 582.050461 615.6 
L 582.050496 111.6 
L 582.642713 615.599995 
L 582.642749 111.6 
L 583.235072 615.6 
L 583.235108 111.6 
L 583.827325 615.599995 
L 583.827396 363.615121 
L 584.419684 615.599998 
L 584.41972 111.6 
L 585.011972 615.599996 
L 585.012008 111.6 
L 585.604331 615.6 
L 585.604367 111.6 
L 586.196584 615.599995 
L 586.196619 111.6 
L 586.788943 615.6 
L 586.788979 111.6 
L 587.381196 615.599995 
L 587.381267 363.615121 
L 587.973555 615.599998 
L 587.97359 111.6 
L 588.565843 615.599996 
L 588.565878 111.6 
L 589.158202 615.6 
L 589.158237 111.6 
L 589.750454 615.599995 
L 589.75049 111.6 
L 590.342814 615.6 
L 590.342849 111.6 
L 590.935066 615.599995 
L 590.935137 363.615121 
L 591.527425 615.599998 
L 591.527461 111.6 
L 592.119713 615.599996 
L 592.119749 111.6 
L 592.712072 615.6 
L 592.712108 111.6 
L 593.304325 615.599995 
L 593.30436 111.6 
L 593.896684 615.6 
L 593.89672 111.6 
L 594.488937 615.599995 
L 594.489008 363.615121 
L 595.081296 615.599998 
L 595.081331 111.6 
L 595.673584 615.599996 
L 595.673619 111.6 
L 596.265943 615.6 
L 596.265978 111.6 
L 596.858195 615.599995 
L 596.858231 111.6 
L 597.450555 615.6 
L 597.45059 111.6 
L 598.042807 615.599995 
L 598.042878 363.615121 
L 598.635166 615.599998 
L 598.635202 111.6 
L 599.227454 615.599996 
L 599.22749 111.6 
L 599.819813 615.6 
L 599.819849 111.6 
L 600.412066 615.599995 
L 600.412102 111.6 
L 601.004425 615.6 
L 601.004461 111.6 
L 601.596678 615.599995 
L 601.596749 363.615121 
L 602.189037 615.599998 
L 602.189072 111.6 
L 602.781325 615.599996 
L 602.78136 111.6 
L 603.373684 615.6 
L 603.37372 111.6 
L 603.965937 615.599995 
L 603.965972 111.6 
L 604.558296 615.6 
L 604.558331 111.6 
L 605.150548 615.599995 
L 605.150619 363.615121 
L 605.742907 615.599998 
L 605.742943 111.6 
L 606.335195 615.599996 
L 606.335231 111.6 
L 606.927555 615.6 
L 606.92759 111.6 
L 607.519807 615.599995 
L 607.519843 111.6 
L 608.112166 615.6 
L 608.112202 111.6 
L 608.704419 615.599995 
L 608.70449 363.615121 
L 609.296778 615.599998 
L 609.296813 111.6 
L 609.889066 615.599996 
L 609.889101 111.6 
L 610.481425 615.6 
L 610.481461 111.6 
L 611.073678 615.599995 
L 611.073713 111.6 
L 611.666037 615.6 
L 611.666072 111.6 
L 612.258289 615.599995 
L 612.25836 363.615121 
L 612.850648 615.599998 
L 612.850684 111.6 
L 613.442936 615.599996 
L 613.442972 111.6 
L 614.035296 615.6 
L 614.035331 111.6 
L 614.627548 615.599995 
L 614.627584 111.6 
L 615.219907 615.6 
L 615.219943 111.6 
L 615.81216 615.599995 
L 615.812231 363.615121 
L 616.404519 615.599998 
L 616.404554 111.6 
L 616.996807 615.599996 
L 616.996843 111.6 
L 617.589166 615.6 
L 617.589202 111.6 
L 618.181419 615.599995 
L 618.181454 111.6 
L 618.773778 615.6 
L 618.773813 111.6 
L 619.36603 615.599995 
L 619.366101 363.615121 
L 619.958389 615.599998 
L 619.958425 111.6 
L 620.550677 615.599996 
L 620.550713 111.6 
L 621.143037 615.6 
L 621.143072 111.6 
L 621.735289 615.599995 
L 621.735325 111.6 
L 622.327648 615.6 
L 622.327684 111.6 
L 622.919901 615.599995 
L 622.919972 363.615121 
L 623.51226 615.599998 
L 623.512296 111.6 
L 624.104548 615.599996 
L 624.104584 111.6 
L 624.696907 615.6 
L 624.696943 111.6 
L 625.28916 615.599995 
L 625.289195 111.6 
L 625.881519 615.6 
L 625.881554 111.6 
L 626.473771 615.599995 
L 626.473842 363.615121 
L 627.06613 615.599998 
L 627.066166 111.6 
L 627.658419 615.599996 
L 627.658454 111.6 
L 628.250778 615.6 
L 628.250813 111.6 
L 628.84303 615.599995 
L 628.843066 111.6 
L 629.435389 615.6 
L 629.435425 111.6 
L 630.027642 615.599995 
L 630.027713 363.615121 
L 630.620001 615.599998 
L 630.620037 111.6 
L 631.212289 615.599996 
L 631.212325 111.6 
L 631.804648 615.6 
L 631.804684 111.6 
L 632.396901 615.599995 
L 632.396936 111.6 
L 632.98926 615.6 
L 632.989295 111.6 
L 633.581512 615.599995 
L 633.581583 363.615121 
L 634.173872 615.599998 
L 634.173907 111.6 
L 634.76616 615.599996 
L 634.766195 111.6 
L 635.358519 615.6 
L 635.358554 111.6 
L 635.950771 615.599995 
L 635.950807 111.6 
L 636.54313 615.6 
L 636.543166 111.6 
L 637.135383 615.599995 
L 637.135454 363.615121 
L 637.727742 615.599998 
L 637.727778 111.6 
L 638.32003 615.599996 
L 638.320066 111.6 
L 638.912389 615.6 
L 638.912425 111.6 
L 639.504642 615.599995 
L 639.504677 111.6 
L 640.097001 615.6 
L 640.097036 111.6 
L 640.689253 615.599995 
L 640.689325 363.615121 
L 641.281613 615.599998 
L 641.281648 111.6 
L 641.873901 615.599996 
L 641.873936 111.6 
L 642.46626 615.6 
L 642.466295 111.6 
L 643.058512 615.599995 
L 643.058548 111.6 
L 643.650871 615.6 
L 643.650907 111.6 
L 644.243124 615.599995 
L 644.243195 363.615121 
L 644.835483 615.599998 
L 644.835519 111.6 
L 645.427771 615.599996 
L 645.427807 111.6 
L 646.02013 615.6 
L 646.020166 111.6 
L 646.612383 615.599995 
L 646.612418 111.6 
L 647.204742 615.6 
L 647.204778 111.6 
L 647.796995 615.599995 
L 647.797066 363.615121 
L 648.389354 615.599998 
L 648.389389 111.6 
L 648.981642 615.599996 
L 648.981677 111.6 
L 649.574001 615.6 
L 649.574036 111.6 
L 650.166253 615.599995 
L 650.166289 111.6 
L 650.758613 615.6 
L 650.758648 111.6 
L 651.350865 615.599995 
L 651.350936 363.615121 
L 651.943224 615.599998 
L 651.94326 111.6 
L 652.535512 615.599996 
L 652.535548 111.6 
L 653.127871 615.6 
L 653.127907 111.6 
L 653.720124 615.599995 
L 653.720159 111.6 
L 654.312483 615.6 
L 654.312519 111.6 
L 654.904736 615.599995 
L 654.904807 363.615121 
L 655.497095 615.599998 
L 655.49713 111.6 
L 656.089383 615.599996 
L 656.089418 111.6 
L 656.681742 615.6 
L 656.681777 111.6 
L 657.273994 615.599995 
L 657.27403 111.6 
L 657.866354 615.6 
L 657.866389 111.6 
L 658.458606 615.599995 
L 658.458677 363.615121 
L 659.050965 615.599998 
L 659.051001 111.6 
L 659.643253 615.599996 
L 659.643289 111.6 
L 660.235612 615.6 
L 660.235648 111.6 
L 660.827865 615.599995 
L 660.827901 111.6 
L 661.420224 615.6 
L 661.42026 111.6 
L 662.012477 615.599995 
L 662.012548 363.615121 
L 662.604836 615.599998 
L 662.604871 111.6 
L 663.197124 615.599996 
L 663.197159 111.6 
L 663.789483 615.6 
L 663.789519 111.6 
L 664.381736 615.599995 
L 664.381771 111.6 
L 664.974095 615.6 
L 664.97413 111.6 
L 665.566347 615.599995 
L 665.566418 363.615121 
L 666.158706 615.599998 
L 666.158742 111.6 
L 666.750994 615.599996 
L 666.75103 111.6 
L 667.343354 615.6 
L 667.343389 111.6 
L 667.935606 615.599995 
L 667.935642 111.6 
L 668.527965 615.6 
L 668.528001 111.6 
L 669.120218 615.599995 
L 669.120289 363.615121 
L 669.712577 615.599998 
L 669.712612 111.6 
L 670.304865 615.599996 
L 670.3049 111.6 
L 670.897224 615.6 
L 670.89726 111.6 
L 671.489477 615.599995 
L 671.489512 111.6 
L 672.081836 615.6 
L 672.081871 111.6 
L 672.674088 615.599995 
L 672.674159 363.615121 
L 673.266447 615.599998 
L 673.266483 111.6 
L 673.858735 615.599996 
L 673.858771 111.6 
L 674.451095 615.6 
L 674.45113 111.6 
L 675.043347 615.599995 
L 675.043383 111.6 
L 675.635706 615.6 
L 675.635742 111.6 
L 676.227959 615.599995 
L 676.22803 363.615121 
L 676.820318 615.599998 
L 676.820353 111.6 
L 677.412606 615.599996 
L 677.412642 111.6 
L 678.004965 615.6 
L 678.005001 111.6 
L 678.597218 615.599995 
L 678.597253 111.6 
L 679.189577 615.6 
L 679.189612 111.6 
L 679.781829 615.599995 
L 679.7819 363.615121 
L 680.374188 615.599998 
L 680.374224 111.6 
L 680.966477 615.599996 
L 680.966512 111.6 
L 681.558836 615.6 
L 681.558871 111.6 
L 682.151088 615.599995 
L 682.151124 111.6 
L 682.743447 615.6 
L 682.743483 111.6 
L 683.3357 615.599995 
L 683.335771 363.615121 
L 683.928059 615.599998 
L 683.928095 111.6 
L 684.520347 615.599996 
L 684.520383 111.6 
L 685.112706 615.6 
L 685.112742 111.6 
L 685.704959 615.599995 
L 685.704994 111.6 
L 686.297318 615.6 
L 686.297353 111.6 
L 686.88957 615.599995 
L 686.889641 363.615121 
L 687.48193 615.599998 
L 687.481965 111.6 
L 688.074218 615.599996 
L 688.074253 111.6 
L 688.666577 615.6 
L 688.666612 111.6 
L 689.258829 615.599995 
L 689.258865 111.6 
L 689.851188 615.6 
L 689.851224 111.6 
L 690.443441 615.599995 
L 690.443512 363.615121 
L 691.0358 615.599998 
L 691.035836 111.6 
L 691.628088 615.599996 
L 691.628124 111.6 
L 692.220447 615.6 
L 692.220483 111.6 
L 692.8127 615.599995 
L 692.812735 111.6 
L 693.405059 615.6 
L 693.405094 111.6 
L 693.997311 615.599995 
L 693.997383 363.615121 
L 694.589671 615.599998 
L 694.589706 111.6 
L 695.181959 615.599996 
L 695.181994 111.6 
L 695.774318 615.6 
L 695.774353 111.6 
L 696.36657 615.599995 
L 696.366606 111.6 
L 696.958929 615.6 
L 696.958965 111.6 
L 697.551182 615.599995 
L 697.551253 363.615121 
L 698.143541 615.599998 
L 698.143577 111.6 
L 698.735829 615.599996 
L 698.735865 111.6 
L 699.328188 615.6 
L 699.328224 111.6 
L 699.920441 615.599995 
L 699.920476 111.6 
L 700.5128 615.6 
L 700.512836 111.6 
L 701.105053 615.599995 
L 701.105124 363.615121 
L 701.697412 615.599998 
L 701.697447 111.6 
L 702.2897 615.599996 
L 702.289735 111.6 
L 702.882059 615.6 
L 702.882094 111.6 
L 703.474311 615.599995 
L 703.474347 111.6 
L 704.066671 615.6 
L 704.066706 111.6 
L 704.658923 615.599995 
L 704.658994 363.615121 
L 705.251282 615.599998 
L 705.251318 111.6 
L 705.84357 615.599996 
L 705.843606 111.6 
L 706.435929 615.6 
L 706.435965 111.6 
L 707.028182 615.599995 
L 707.028217 111.6 
L 707.620541 615.6 
L 707.620577 111.6 
L 708.212794 615.599995 
L 708.212865 363.615121 
L 708.805153 615.599998 
L 708.805188 111.6 
L 709.397441 615.599996 
L 709.397476 111.6 
L 709.9898 615.6 
L 709.989835 111.6 
L 710.582052 615.599995 
L 710.582088 111.6 
L 711.174412 615.6 
L 711.174447 111.6 
L 711.766664 615.599995 
L 711.766735 363.615121 
L 712.359023 615.599998 
L 712.359059 111.6 
L 712.951311 615.599996 
L 712.951347 111.6 
L 713.54367 615.6 
L 713.543706 111.6 
L 714.135923 615.599995 
L 714.135959 111.6 
L 714.728282 615.6 
L 714.728318 111.6 
L 715.320535 615.599995 
L 715.320606 363.615121 
L 715.912894 615.599998 
L 715.912929 111.6 
L 716.505182 615.599996 
L 716.505217 111.6 
L 717.097541 615.6 
L 717.097577 111.6 
L 717.689794 615.599995 
L 717.689829 111.6 
L 718.282153 615.6 
L 718.282188 111.6 
L 718.874405 615.599995 
L 718.874476 363.615121 
L 719.466764 615.599998 
L 719.4668 111.6 
L 720.059052 615.599996 
L 720.059088 111.6 
L 720.651412 615.6 
L 720.651447 111.6 
L 721.243664 615.599995 
L 721.2437 111.6 
L 721.836023 615.6 
L 721.836059 111.6 
L 722.428276 615.599995 
L 722.428347 363.615121 
L 723.020635 615.599998 
L 723.02067 111.6 
L 723.612923 615.599996 
L 723.612958 111.6 
L 724.205282 615.6 
L 724.205318 111.6 
L 724.797535 615.599995 
L 724.79757 111.6 
L 725.389894 615.6 
L 725.389929 111.6 
L 725.982146 615.599995 
L 725.982217 363.615121 
L 726.574505 615.599998 
L 726.574541 111.6 
L 727.166793 615.599996 
L 727.166829 111.6 
L 727.759153 615.6 
L 727.759188 111.6 
L 728.351405 615.599995 
L 728.351441 111.6 
L 728.943764 615.6 
L 728.9438 111.6 
L 729.536017 615.599995 
L 729.536088 363.615121 
L 730.128376 615.599998 
L 730.128411 111.6 
L 730.720664 615.599996 
L 730.7207 111.6 
L 731.313023 615.6 
L 731.313059 111.6 
L 731.905276 615.599995 
L 731.905311 111.6 
L 732.497635 615.6 
L 732.49767 111.6 
L 733.089887 615.599995 
L 733.089958 363.615121 
L 733.682246 615.599998 
L 733.682282 111.6 
L 734.274534 615.599996 
L 734.27457 111.6 
L 734.866894 615.6 
L 734.866929 111.6 
L 735.459146 615.599995 
L 735.459182 111.6 
L 736.051505 615.6 
L 736.051541 111.6 
L 736.643758 615.599995 
L 736.643829 363.615121 
L 737.236117 615.599998 
L 737.236153 111.6 
L 737.828405 615.599996 
L 737.828441 111.6 
L 738.420764 615.6 
L 738.4208 111.6 
L 739.013017 615.599995 
L 739.013052 111.6 
L 739.605376 615.6 
L 739.605411 111.6 
L 740.197628 615.599995 
L 740.197699 363.615121 
L 740.789987 615.599998 
L 740.790023 111.6 
L 741.382276 615.599996 
L 741.382311 111.6 
L 741.974635 615.6 
L 741.97467 111.6 
L 742.566887 615.599995 
L 742.566923 111.6 
L 743.159246 615.6 
L 743.159282 111.6 
L 743.751499 615.599995 
L 743.75157 363.615121 
L 744.343858 615.599998 
L 744.343894 111.6 
L 744.936146 615.599996 
L 744.936182 111.6 
L 745.528505 615.6 
L 745.528541 111.6 
L 746.120758 615.599995 
L 746.120793 111.6 
L 746.713117 615.6 
L 746.713152 111.6 
L 747.305369 615.599995 
L 747.30544 363.615121 
L 747.897729 615.599998 
L 747.897764 111.6 
L 748.490017 615.599996 
L 748.490052 111.6 
L 749.082376 615.6 
L 749.082411 111.6 
L 749.674628 615.599995 
L 749.674664 111.6 
L 750.266987 615.6 
L 750.267023 111.6 
L 750.85924 615.599995 
L 750.859311 363.615121 
L 751.451599 615.599998 
L 751.451635 111.6 
L 752.043887 615.599996 
L 752.043923 111.6 
L 752.636246 615.6 
L 752.636282 111.6 
L 753.228499 615.599995 
L 753.228534 111.6 
L 753.820858 615.6 
L 753.820893 111.6 
L 754.41311 615.599995 
L 754.413182 363.615121 
L 755.00547 615.599998 
L 755.005505 111.6 
L 755.597758 615.599996 
L 755.597793 111.6 
L 756.190117 615.6 
L 756.190152 111.6 
L 756.782369 615.599995 
L 756.782405 111.6 
L 757.374728 615.6 
L 757.374764 111.6 
L 757.966981 615.599995 
L 757.967052 363.615121 
L 758.55934 615.599998 
L 758.559376 111.6 
L 759.151628 615.599996 
L 759.151664 111.6 
L 759.743987 615.6 
L 759.744023 111.6 
L 760.33624 615.599995 
L 760.336275 111.6 
L 760.928599 615.6 
L 760.928635 111.6 
L 761.520852 615.599995 
L 761.520923 363.615121 
L 762.113211 615.599998 
L 762.113246 111.6 
L 762.705499 615.599996 
L 762.705534 111.6 
L 763.297858 615.6 
L 763.297893 111.6 
L 763.89011 615.599995 
L 763.890146 111.6 
L 764.48247 615.6 
L 764.482505 111.6 
L 765.074722 615.599995 
L 765.074793 363.615121 
L 765.667081 615.599998 
L 765.667117 111.6 
L 766.259369 615.599996 
L 766.259405 111.6 
L 766.851728 615.6 
L 766.851764 111.6 
L 767.443981 615.599995 
L 767.444016 111.6 
L 768.03634 615.6 
L 768.036376 111.6 
L 768.628593 615.599995 
L 768.628664 363.615121 
L 769.220952 615.599998 
L 769.220987 111.6 
L 769.81324 615.599996 
L 769.813275 111.6 
L 770.405599 615.6 
L 770.405634 111.6 
L 770.997851 615.599995 
L 770.997887 111.6 
L 771.590211 615.6 
L 771.590246 111.6 
L 772.182463 615.599995 
L 772.182534 363.615121 
L 772.774822 615.599998 
L 772.774858 111.6 
L 773.36711 615.599996 
L 773.367146 111.6 
L 773.959469 615.6 
L 773.959505 111.6 
L 774.551722 615.599995 
L 774.551758 111.6 
L 775.144081 615.6 
L 775.144117 111.6 
L 775.736334 615.599995 
L 775.736405 363.615121 
L 776.328693 615.599998 
L 776.328728 111.6 
L 776.920981 615.599996 
L 776.921016 111.6 
L 777.51334 615.6 
L 777.513376 111.6 
L 778.105593 615.599995 
L 778.105628 111.6 
L 778.697952 615.6 
L 778.697987 111.6 
L 779.290204 615.599995 
L 779.290275 363.615121 
L 779.882563 615.599998 
L 779.882599 111.6 
L 780.474851 615.599996 
L 780.474887 111.6 
L 781.067211 615.6 
L 781.067246 111.6 
L 781.659463 615.599995 
L 781.659499 111.6 
L 782.251822 615.6 
L 782.251858 111.6 
L 782.844075 615.599995 
L 782.844146 363.615121 
L 783.436434 615.599998 
L 783.436469 111.6 
L 784.028722 615.599996 
L 784.028757 111.6 
L 784.621081 615.6 
L 784.621117 111.6 
L 785.213334 615.599995 
L 785.213369 111.6 
L 785.805693 615.6 
L 785.805728 111.6 
L 786.397945 615.599995 
L 786.398016 363.615121 
L 786.990304 615.599998 
L 786.99034 111.6 
L 787.582592 615.599996 
L 787.582628 111.6 
L 788.174952 615.6 
L 788.174987 111.6 
L 788.767204 615.599995 
L 788.76724 111.6 
L 789.359563 615.6 
L 789.359599 111.6 
L 789.951816 615.599995 
L 789.951887 363.615121 
L 790.544175 615.599998 
L 790.54421 111.6 
L 791.136463 615.599996 
L 791.136499 111.6 
L 791.728822 615.6 
L 791.728858 111.6 
L 792.321075 615.599995 
L 792.32111 111.6 
L 792.913434 615.6 
L 792.913469 111.6 
L 793.505686 615.599995 
L 793.505757 363.615121 
L 794.098045 615.599998 
L 794.098081 111.6 
L 794.690334 615.599996 
L 794.690369 111.6 
L 795.282693 615.6 
L 795.282728 111.6 
L 795.874945 615.599995 
L 795.874981 111.6 
L 796.467304 615.6 
L 796.46734 111.6 
L 797.059557 615.599995 
L 797.059628 363.615121 
L 797.651916 615.599998 
L 797.651952 111.6 
L 798.244204 615.599996 
L 798.24424 111.6 
L 798.836563 615.6 
L 798.836599 111.6 
L 799.428816 615.599995 
L 799.428851 111.6 
L 800.021175 615.6 
L 800.02121 111.6 
L 800.613427 615.599995 
L 800.613498 363.615121 
L 801.205787 615.599998 
L 801.205822 111.6 
L 801.798075 615.599996 
L 801.79811 111.6 
L 802.390434 615.6 
L 802.390469 111.6 
L 802.982686 615.599995 
L 802.982722 111.6 
L 803.575045 615.6 
L 803.575081 111.6 
L 804.167298 615.599995 
L 804.167369 363.615121 
L 804.759657 615.599998 
L 804.759693 111.6 
L 805.351945 615.599996 
L 805.351981 111.6 
L 805.944304 615.6 
L 805.94434 111.6 
L 806.536557 615.599995 
L 806.536592 111.6 
L 807.128916 615.6 
L 807.128951 111.6 
L 807.721168 615.599995 
L 807.72124 363.615121 
L 808.313528 615.599998 
L 808.313563 111.6 
L 808.905816 615.599996 
L 808.905851 111.6 
L 809.498175 615.6 
L 809.49821 111.6 
L 810.090427 615.599995 
L 810.090463 111.6 
L 810.682786 615.6 
L 810.682822 111.6 
L 811.275039 615.599995 
L 811.27511 363.615121 
L 811.867398 615.599998 
L 811.867434 111.6 
L 812.459686 615.599996 
L 812.459722 111.6 
L 813.052045 615.6 
L 813.052081 111.6 
L 813.644298 615.599995 
L 813.644333 111.6 
L 814.236657 615.6 
L 814.236693 111.6 
L 814.82891 615.599995 
L 814.828981 363.615121 
L 815.421269 615.599998 
L 815.421304 111.6 
L 816.013557 615.599996 
L 816.013592 111.6 
L 816.605916 615.6 
L 816.605951 111.6 
L 817.198168 615.599995 
L 817.198204 111.6 
L 817.790528 615.6 
L 817.790563 111.6 
L 818.38278 615.599995 
L 818.382851 363.615121 
L 818.975139 615.599998 
L 818.975175 111.6 
L 819.567427 615.599996 
L 819.567463 111.6 
L 820.159786 615.6 
L 820.159822 111.6 
L 820.752039 615.599995 
L 820.752074 111.6 
L 821.344398 615.6 
L 821.344434 111.6 
L 821.936651 615.599995 
L 821.936722 363.615121 
L 822.52901 615.599998 
L 822.529045 111.6 
L 823.121298 615.599996 
L 823.121333 111.6 
L 823.713657 615.6 
L 823.713692 111.6 
L 824.305909 615.599995 
L 824.305945 111.6 
L 824.898269 615.6 
L 824.898304 111.6 
L 825.490521 615.599995 
L 825.490592 363.615121 
L 826.08288 615.599998 
L 826.082916 111.6 
L 826.675168 615.599996 
L 826.675204 111.6 
L 827.267527 615.6 
L 827.267563 111.6 
L 827.85978 615.599995 
L 827.859816 111.6 
L 828.452139 615.6 
L 828.452175 111.6 
L 829.044392 615.599995 
L 829.044463 363.615121 
L 829.636751 615.599998 
L 829.636786 111.6 
L 830.229039 615.599996 
L 830.229074 111.6 
L 830.821398 615.6 
L 830.821434 111.6 
L 831.413651 615.599995 
L 831.413686 111.6 
L 832.00601 615.6 
L 832.006045 111.6 
L 832.598262 615.599995 
L 832.598333 363.615121 
L 833.190621 615.599998 
L 833.190657 111.6 
L 833.782909 615.599996 
L 833.782945 111.6 
L 834.375269 615.6 
L 834.375304 111.6 
L 834.967521 615.599995 
L 834.967557 111.6 
L 835.55988 615.6 
L 835.559916 111.6 
L 836.152133 615.599995 
L 836.152204 363.615121 
L 836.744492 615.599998 
L 836.744527 111.6 
L 837.33678 615.599996 
L 837.336815 111.6 
L 837.929139 615.6 
L 837.929175 111.6 
L 838.521392 615.599995 
L 838.521427 111.6 
L 839.113751 615.6 
L 839.113786 111.6 
L 839.706003 615.599995 
L 839.706074 363.615121 
L 840.298362 615.599998 
L 840.298398 111.6 
L 840.89065 615.599996 
L 840.890686 111.6 
L 841.48301 615.6 
L 841.483045 111.6 
L 842.075262 615.599995 
L 842.075298 111.6 
L 842.667621 615.6 
L 842.667657 111.6 
L 843.259874 615.599995 
L 843.259945 363.615121 
L 843.852233 615.599998 
L 843.852268 111.6 
L 844.444521 615.599996 
L 844.444557 111.6 
L 845.03688 615.6 
L 845.036916 111.6 
L 845.629133 615.599995 
L 845.629168 111.6 
L 846.221492 615.6 
L 846.221527 111.6 
L 846.813744 615.599995 
L 846.813815 363.615121 
L 847.406103 615.599998 
L 847.406139 111.6 
L 847.998391 615.599996 
L 847.998427 111.6 
L 848.590751 615.6 
L 848.590786 111.6 
L 849.183003 615.599995 
L 849.183039 111.6 
L 849.775362 615.6 
L 849.775398 111.6 
L 850.367615 615.599995 
L 850.367686 363.615121 
L 850.959974 615.599998 
L 850.96001 111.6 
L 851.552262 615.599996 
L 851.552298 111.6 
L 852.144621 615.6 
L 852.144657 111.6 
L 852.736874 615.599995 
L 852.736909 111.6 
L 853.329233 615.6 
L 853.329268 111.6 
L 853.921485 615.599995 
L 853.921556 363.615121 
L 854.513844 615.599998 
L 854.51388 111.6 
L 855.106133 615.599996 
L 855.106168 111.6 
L 855.698492 615.6 
L 855.698527 111.6 
L 856.290744 615.599995 
L 856.29078 111.6 
L 856.883103 615.6 
L 856.883139 111.6 
L 857.475356 615.599995 
L 857.475427 363.615121 
L 858.067715 615.599998 
L 858.067751 111.6 
L 858.660003 615.599996 
L 858.660039 111.6 
L 859.252362 615.6 
L 859.252398 111.6 
L 859.844615 615.599995 
L 859.84465 111.6 
L 860.436974 615.6 
L 860.437009 111.6 
L 861.029226 615.599995 
L 861.029297 363.615121 
L 861.621586 615.599998 
L 861.621621 111.6 
L 862.213874 615.599996 
L 862.213909 111.6 
L 862.806233 615.6 
L 862.806268 111.6 
L 863.398485 615.599995 
L 863.398521 111.6 
L 863.990844 615.6 
L 863.99088 111.6 
L 864.583097 615.599995 
L 864.583168 363.615121 
L 865.175456 615.599998 
L 865.175492 111.6 
L 865.767744 615.599996 
L 865.76778 111.6 
L 866.360103 615.6 
L 866.360139 111.6 
L 866.952356 615.599995 
L 866.952391 111.6 
L 867.544715 615.6 
L 867.54475 111.6 
L 868.136967 615.599995 
L 868.137039 363.615121 
L 868.729327 615.599998 
L 868.729362 111.6 
L 869.321615 615.599996 
L 869.32165 111.6 
L 869.913903 615.599996 
L 869.913974 363.615121 
L 870.506226 615.599996 
L 870.506262 111.6 
L 871.09855 615.599998 
L 871.098585 111.6 
L 871.690838 615.599996 
L 871.690909 363.615121 
L 871.690909 363.615121 
" clip-path="url(#p697e4ee6af)" style="fill: none; stroke: #1f77b4; stroke-width: 1.5; stroke-linecap: square"/>
   </g>
   <g id="line2d_17">
    <path d="M 126 392.488774 
L 907.2 392.488774 
" clip-path="url(#p697e4ee6af)" style="fill: none; stroke-dasharray: 5.55,2.4; stroke-dashoffset: 0; stroke: #0000ff; stroke-width: 1.5"/>
   </g>
   <g id="patch_3">
    <path d="M 126 640.8 
L 126 86.4 
" style="fill: none; stroke: #000000; stroke-width: 0.8; stroke-linejoin: miter; stroke-linecap: square"/>
   </g>
   <g id="patch_4">
    <path d="M 907.2 640.8 
L 907.2 86.4 
" style="fill: none; stroke: #000000; stroke-width: 0.8; stroke-linejoin: miter; stroke-linecap: square"/>
   </g>
   <g id="patch_5">
    <path d="M 126 640.8 
L 907.2 640.8 
" style="fill: none; stroke: #000000; stroke-width: 0.8; stroke-linejoin: miter; stroke-linecap: square"/>
   </g>
   <g id="patch_6">
    <path d="M 126 86.4 
L 907.2 86.4 
" style="fill: none; stroke: #000000; stroke-width: 0.8; stroke-linejoin: miter; stroke-linecap: square"/>
   </g>
   <g id="text_19">
    <!-- Packet Rate from Timestamps (SelectionProcess: 16777218) -->
    <g transform="translate(335.46 80.4) scale(0.12 -0.12)">
     <defs>
      <path id="DejaVuSans-52" d="M 2841 2188 
Q 3044 2119 3236 1894 
Q 3428 1669 3622 1275 
L 4263 0 
L 3584 0 
L 2988 1197 
Q 2756 1666 2539 1819 
Q 2322 1972 1947 1972 
L 1259 1972 
L 1259 0 
L 628 0 
L 628 4666 
L 2053 4666 
Q 2853 4666 3247 4331 
Q 3641 3997 3641 3322 
Q 3641 2881 3436 2590 
Q 3231 2300 2841 2188 
z
M 1259 4147 
L 1259 2491 
L 2053 2491 
Q 2509 2491 2742 2702 
Q 2975 2913 2975 3322 
Q 2975 3731 2742 3939 
Q 2509 4147 2053 4147 
L 1259 4147 
z
" transform="scale(0.015625)"/>
      <path id="DejaVuSans-66" d="M 2375 4863 
L 2375 4384 
L 1825 4384 
Q 1516 4384 1395 4259 
Q 1275 4134 1275 3809 
L 1275 3500 
L 2222 3500 
L 2222 3053 
L 1275 3053 
L 1275 0 
L 697 0 
L 697 3053 
L 147 3053 
L 147 3500 
L 697 3500 
L 697 3744 
Q 697 4328 969 4595 
Q 1241 4863 1831 4863 
L 2375 4863 
z
" transform="scale(0.015625)"/>
      <path id="DejaVuSans-6c" d="M 603 4863 
L 1178 4863 
L 1178 0 
L 603 0 
L 603 4863 
z
" transform="scale(0.015625)"/>
      <path id="DejaVuSans-3a" d="M 750 794 
L 1409 794 
L 1409 0 
L 750 0 
L 750 794 
z
M 750 3309 
L 1409 3309 
L 1409 2516 
L 750 2516 
L 750 3309 
z
" transform="scale(0.015625)"/>
     </defs>
     <use xlink:href="#DejaVuSans-50"/>
     <use xlink:href="#DejaVuSans-61" x="55.802734"/>
     <use xlink:href="#DejaVuSans-63" x="117.082031"/>
     <use xlink:href="#DejaVuSans-6b" x="172.0625"/>
     <use xlink:href="#DejaVuSans-65" x="226.347656"/>
     <use xlink:href="#DejaVuSans-74" x="287.871094"/>
     <use xlink:href="#DejaVuSans-20" x="327.080078"/>
     <use xlink:href="#DejaVuSans-52" x="358.867188"/>
     <use xlink:href="#DejaVuSans-61" x="426.099609"/>
     <use xlink:href="#DejaVuSans-74" x="487.378906"/>
     <use xlink:href="#DejaVuSans-65" x="526.587891"/>
     <use xlink:href="#DejaVuSans-20" x="588.111328"/>
     <use xlink:href="#DejaVuSans-66" x="619.898438"/>
     <use xlink:href="#DejaVuSans-72" x="655.103516"/>
     <use xlink:href="#DejaVuSans-6f" x="693.966797"/>
     <use xlink:href="#DejaVuSans-6d" x="755.148438"/>
     <use xlink:href="#DejaVuSans-20" x="852.560547"/>
     <use xlink:href="#DejaVuSans-54" x="884.347656"/>
     <use xlink:href="#DejaVuSans-69" x="942.306641"/>
     <use xlink:href="#DejaVuSans-6d" x="970.089844"/>
     <use xlink:href="#DejaVuSans-65" x="1067.501953"/>
     <use xlink:href="#DejaVuSans-73" x="1129.025391"/>
     <use xlink:href="#DejaVuSans-74" x="1181.125"/>
     <use xlink:href="#DejaVuSans-61" x="1220.333984"/>
     <use xlink:href="#DejaVuSans-6d" x="1281.613281"/>
     <use xlink:href="#DejaVuSans-70" x="1379.025391"/>
     <use xlink:href="#DejaVuSans-73" x="1442.501953"/>
     <use xlink:href="#DejaVuSans-20" x="1494.601562"/>
     <use xlink:href="#DejaVuSans-28" x="1526.388672"/>
     <use xlink:href="#DejaVuSans-53" x="1565.402344"/>
     <use xlink:href="#DejaVuSans-65" x="1628.878906"/>
     <use xlink:href="#DejaVuSans-6c" x="1690.402344"/>
     <use xlink:href="#DejaVuSans-65" x="1718.185547"/>
     <use xlink:href="#DejaVuSans-63" x="1779.708984"/>
     <use xlink:href="#DejaVuSans-74" x="1834.689453"/>
     <use xlink:href="#DejaVuSans-69" x="1873.898438"/>
     <use xlink:href="#DejaVuSans-6f" x="1901.681641"/>
     <use xlink:href="#DejaVuSans-6e" x="1962.863281"/>
     <use xlink:href="#DejaVuSans-50" x="2026.242188"/>
     <use xlink:href="#DejaVuSans-72" x="2084.794922"/>
     <use xlink:href="#DejaVuSans-6f" x="2123.658203"/>
     <use xlink:href="#DejaVuSans-63" x="2184.839844"/>
     <use xlink:href="#DejaVuSans-65" x="2239.820312"/>
     <use xlink:href="#DejaVuSans-73" x="2301.34375"/>
     <use xlink:href="#DejaVuSans-73" x="2353.443359"/>
     <use xlink:href="#DejaVuSans-3a" x="2405.542969"/>
     <use xlink:href="#DejaVuSans-20" x="2439.234375"/>
     <use xlink:href="#DejaVuSans-31" x="2471.021484"/>
     <use xlink:href="#DejaVuSans-36" x="2534.644531"/>
     <use xlink:href="#DejaVuSans-37" x="2598.267578"/>
     <use xlink:href="#DejaVuSans-37" x="2661.890625"/>
     <use xlink:href="#DejaVuSans-37" x="2725.513672"/>
     <use xlink:href="#DejaVuSans-32" x="2789.136719"/>
     <use xlink:href="#DejaVuSans-31" x="2852.759766"/>
     <use xlink:href="#DejaVuSans-38" x="2916.382812"/>
     <use xlink:href="#DejaVuSans-29" x="2980.005859"/>
    </g>
   </g>
   <g id="legend_1">
    <g id="patch_7">
     <path d="M 718.74375 379.778125 
L 900.2 379.778125 
Q 902.2 379.778125 902.2 377.778125 
L 902.2 349.421875 
Q 902.2 347.421875 900.2 347.421875 
L 718.74375 347.421875 
Q 716.74375 347.421875 716.74375 349.421875 
L 716.74375 377.778125 
Q 716.74375 379.778125 718.74375 379.778125 
z
" style="fill: #ffffff; opacity: 0.8; stroke: #cccccc; stroke-linejoin: miter"/>
    </g>
    <g id="line2d_18">
     <path d="M 720.74375 355.520312 
L 730.74375 355.520312 
L 740.74375 355.520312 
" style="fill: none; stroke: #1f77b4; stroke-width: 1.5; stroke-linecap: square"/>
    </g>
    <g id="text_20">
     <!-- Packet Rate from Timestamps -->
     <g transform="translate(748.74375 359.020312) scale(0.1 -0.1)">
      <use xlink:href="#DejaVuSans-50"/>
      <use xlink:href="#DejaVuSans-61" x="55.802734"/>
      <use xlink:href="#DejaVuSans-63" x="117.082031"/>
      <use xlink:href="#DejaVuSans-6b" x="172.0625"/>
      <use xlink:href="#DejaVuSans-65" x="226.347656"/>
      <use xlink:href="#DejaVuSans-74" x="287.871094"/>
      <use xlink:href="#DejaVuSans-20" x="327.080078"/>
      <use xlink:href="#DejaVuSans-52" x="358.867188"/>
      <use xlink:href="#DejaVuSans-61" x="426.099609"/>
      <use xlink:href="#DejaVuSans-74" x="487.378906"/>
      <use xlink:href="#DejaVuSans-65" x="526.587891"/>
      <use xlink:href="#DejaVuSans-20" x="588.111328"/>
      <use xlink:href="#DejaVuSans-66" x="619.898438"/>
      <use xlink:href="#DejaVuSans-72" x="655.103516"/>
      <use xlink:href="#DejaVuSans-6f" x="693.966797"/>
      <use xlink:href="#DejaVuSans-6d" x="755.148438"/>
      <use xlink:href="#DejaVuSans-20" x="852.560547"/>
      <use xlink:href="#DejaVuSans-54" x="884.347656"/>
      <use xlink:href="#DejaVuSans-69" x="942.306641"/>
      <use xlink:href="#DejaVuSans-6d" x="970.089844"/>
      <use xlink:href="#DejaVuSans-65" x="1067.501953"/>
      <use xlink:href="#DejaVuSans-73" x="1129.025391"/>
      <use xlink:href="#DejaVuSans-74" x="1181.125"/>
      <use xlink:href="#DejaVuSans-61" x="1220.333984"/>
      <use xlink:href="#DejaVuSans-6d" x="1281.613281"/>
      <use xlink:href="#DejaVuSans-70" x="1379.025391"/>
      <use xlink:href="#DejaVuSans-73" x="1442.501953"/>
     </g>
    </g>
    <g id="line2d_19">
     <path d="M 720.74375 370.198438 
L 730.74375 370.198438 
L 740.74375 370.198438 
" style="fill: none; stroke-dasharray: 5.55,2.4; stroke-dashoffset: 0; stroke: #0000ff; stroke-width: 1.5"/>
    </g>
    <g id="text_21">
     <!-- Packet Rate Average -->
     <g transform="translate(748.74375 373.698438) scale(0.1 -0.1)">
      <defs>
       <path id="DejaVuSans-41" d="M 2188 4044 
L 1331 1722 
L 3047 1722 
L 2188 4044 
z
M 1831 4666 
L 2547 4666 
L 4325 0 
L 3669 0 
L 3244 1197 
L 1141 1197 
L 716 0 
L 50 0 
L 1831 4666 
z
" transform="scale(0.015625)"/>
       <path id="DejaVuSans-76" d="M 191 3500 
L 800 3500 
L 1894 563 
L 2988 3500 
L 3597 3500 
L 2284 0 
L 1503 0 
L 191 3500 
z
" transform="scale(0.015625)"/>
       <path id="DejaVuSans-67" d="M 2906 1791 
Q 2906 2416 2648 2759 
Q 2391 3103 1925 3103 
Q 1463 3103 1205 2759 
Q 947 2416 947 1791 
Q 947 1169 1205 825 
Q 1463 481 1925 481 
Q 2391 481 2648 825 
Q 2906 1169 2906 1791 
z
M 3481 434 
Q 3481 -459 3084 -895 
Q 2688 -1331 1869 -1331 
Q 1566 -1331 1297 -1286 
Q 1028 -1241 775 -1147 
L 775 -588 
Q 1028 -725 1275 -790 
Q 1522 -856 1778 -856 
Q 2344 -856 2625 -561 
Q 2906 -266 2906 331 
L 2906 616 
Q 2728 306 2450 153 
Q 2172 0 1784 0 
Q 1141 0 747 490 
Q 353 981 353 1791 
Q 353 2603 747 3093 
Q 1141 3584 1784 3584 
Q 2172 3584 2450 3431 
Q 2728 3278 2906 2969 
L 2906 3500 
L 3481 3500 
L 3481 434 
z
" transform="scale(0.015625)"/>
      </defs>
      <use xlink:href="#DejaVuSans-50"/>
      <use xlink:href="#DejaVuSans-61" x="55.802734"/>
      <use xlink:href="#DejaVuSans-63" x="117.082031"/>
      <use xlink:href="#DejaVuSans-6b" x="172.0625"/>
      <use xlink:href="#DejaVuSans-65" x="226.347656"/>
      <use xlink:href="#DejaVuSans-74" x="287.871094"/>
      <use xlink:href="#DejaVuSans-20" x="327.080078"/>
      <use xlink:href="#DejaVuSans-52" x="358.867188"/>
      <use xlink:href="#DejaVuSans-61" x="426.099609"/>
      <use xlink:href="#DejaVuSans-74" x="487.378906"/>
      <use xlink:href="#DejaVuSans-65" x="526.587891"/>
      <use xlink:href="#DejaVuSans-20" x="588.111328"/>
      <use xlink:href="#DejaVuSans-41" x="619.898438"/>
      <use xlink:href="#DejaVuSans-76" x="682.431641"/>
      <use xlink:href="#DejaVuSans-65" x="741.611328"/>
      <use xlink:href="#DejaVuSans-72" x="803.134766"/>
      <use xlink:href="#DejaVuSans-61" x="844.248047"/>
      <use xlink:href="#DejaVuSans-67" x="905.527344"/>
      <use xlink:href="#DejaVuSans-65" x="969.003906"/>
     </g>
    </g>
   </g>
  </g>
 </g>
 <defs>
  <clipPath id="p697e4ee6af">
   <rect x="126" y="86.4" width="781.2" height="554.4"/>
  </clipPath>
 </defs>
</svg>
