<?xml version="1.0" encoding="utf-8" standalone="no"?>
<!DOCTYPE svg PUBLIC "-//W3C//DTD SVG 1.1//EN"
  "http://www.w3.org/Graphics/SVG/1.1/DTD/svg11.dtd">
<svg xmlns:xlink="http://www.w3.org/1999/xlink" width="1008pt" height="720pt" viewBox="0 0 1008 720" xmlns="http://www.w3.org/2000/svg" version="1.1">
 <metadata>
  <rdf:RDF xmlns:dc="http://purl.org/dc/elements/1.1/" xmlns:cc="http://creativecommons.org/ns#" xmlns:rdf="http://www.w3.org/1999/02/22-rdf-syntax-ns#">
   <cc:Work>
    <dc:type rdf:resource="http://purl.org/dc/dcmitype/StillImage"/>
    <dc:date>2023-03-21T15:09:54.871703</dc:date>
    <dc:format>image/svg+xml</dc:format>
    <dc:creator>
     <cc:Agent>
      <dc:title>Matplotlib v3.6.2, https://matplotlib.org/</dc:title>
     </cc:Agent>
    </dc:creator>
   </cc:Work>
  </rdf:RDF>
 </metadata>
 <defs>
  <style type="text/css">*{stroke-linejoin: round; stroke-linecap: butt}</style>
 </defs>
 <g id="figure_1">
  <g id="patch_1">
   <path d="M 0 720 
L 1008 720 
L 1008 0 
L 0 0 
z
" style="fill: #ffffff"/>
  </g>
  <g id="axes_1">
   <g id="patch_2">
    <path d="M 126 640.8 
L 907.2 640.8 
L 907.2 86.4 
L 126 86.4 
z
" style="fill: #ffffff"/>
   </g>
   <g id="matplotlib.axis_1">
    <g id="xtick_1">
     <g id="line2d_1">
      <defs>
       <path id="m05ef4b1009" d="M 0 0 
L 0 3.5 
" style="stroke: #000000; stroke-width: 0.8"/>
      </defs>
      <g>
       <use xlink:href="#m05ef4b1009" x="161.120415" y="640.8" style="stroke: #000000; stroke-width: 0.8"/>
      </g>
     </g>
     <g id="text_1">
      <!-- 0 -->
      <g transform="translate(157.939165 655.398438) scale(0.1 -0.1)">
       <defs>
        <path id="DejaVuSans-30" d="M 2034 4250 
Q 1547 4250 1301 3770 
Q 1056 3291 1056 2328 
Q 1056 1369 1301 889 
Q 1547 409 2034 409 
Q 2525 409 2770 889 
Q 3016 1369 3016 2328 
Q 3016 3291 2770 3770 
Q 2525 4250 2034 4250 
z
M 2034 4750 
Q 2819 4750 3233 4129 
Q 3647 3509 3647 2328 
Q 3647 1150 3233 529 
Q 2819 -91 2034 -91 
Q 1250 -91 836 529 
Q 422 1150 422 2328 
Q 422 3509 836 4129 
Q 1250 4750 2034 4750 
z
" transform="scale(0.015625)"/>
       </defs>
       <use xlink:href="#DejaVuSans-30"/>
      </g>
     </g>
    </g>
    <g id="xtick_2">
     <g id="line2d_2">
      <g>
       <use xlink:href="#m05ef4b1009" x="277.557826" y="640.8" style="stroke: #000000; stroke-width: 0.8"/>
      </g>
     </g>
     <g id="text_2">
      <!-- 10 -->
      <g transform="translate(271.195326 655.398438) scale(0.1 -0.1)">
       <defs>
        <path id="DejaVuSans-31" d="M 794 531 
L 1825 531 
L 1825 4091 
L 703 3866 
L 703 4441 
L 1819 4666 
L 2450 4666 
L 2450 531 
L 3481 531 
L 3481 0 
L 794 0 
L 794 531 
z
" transform="scale(0.015625)"/>
       </defs>
       <use xlink:href="#DejaVuSans-31"/>
       <use xlink:href="#DejaVuSans-30" x="63.623047"/>
      </g>
     </g>
    </g>
    <g id="xtick_3">
     <g id="line2d_3">
      <g>
       <use xlink:href="#m05ef4b1009" x="393.995238" y="640.8" style="stroke: #000000; stroke-width: 0.8"/>
      </g>
     </g>
     <g id="text_3">
      <!-- 20 -->
      <g transform="translate(387.632738 655.398438) scale(0.1 -0.1)">
       <defs>
        <path id="DejaVuSans-32" d="M 1228 531 
L 3431 531 
L 3431 0 
L 469 0 
L 469 531 
Q 828 903 1448 1529 
Q 2069 2156 2228 2338 
Q 2531 2678 2651 2914 
Q 2772 3150 2772 3378 
Q 2772 3750 2511 3984 
Q 2250 4219 1831 4219 
Q 1534 4219 1204 4116 
Q 875 4013 500 3803 
L 500 4441 
Q 881 4594 1212 4672 
Q 1544 4750 1819 4750 
Q 2544 4750 2975 4387 
Q 3406 4025 3406 3419 
Q 3406 3131 3298 2873 
Q 3191 2616 2906 2266 
Q 2828 2175 2409 1742 
Q 1991 1309 1228 531 
z
" transform="scale(0.015625)"/>
       </defs>
       <use xlink:href="#DejaVuSans-32"/>
       <use xlink:href="#DejaVuSans-30" x="63.623047"/>
      </g>
     </g>
    </g>
    <g id="xtick_4">
     <g id="line2d_4">
      <g>
       <use xlink:href="#m05ef4b1009" x="510.432649" y="640.8" style="stroke: #000000; stroke-width: 0.8"/>
      </g>
     </g>
     <g id="text_4">
      <!-- 30 -->
      <g transform="translate(504.070149 655.398438) scale(0.1 -0.1)">
       <defs>
        <path id="DejaVuSans-33" d="M 2597 2516 
Q 3050 2419 3304 2112 
Q 3559 1806 3559 1356 
Q 3559 666 3084 287 
Q 2609 -91 1734 -91 
Q 1441 -91 1130 -33 
Q 819 25 488 141 
L 488 750 
Q 750 597 1062 519 
Q 1375 441 1716 441 
Q 2309 441 2620 675 
Q 2931 909 2931 1356 
Q 2931 1769 2642 2001 
Q 2353 2234 1838 2234 
L 1294 2234 
L 1294 2753 
L 1863 2753 
Q 2328 2753 2575 2939 
Q 2822 3125 2822 3475 
Q 2822 3834 2567 4026 
Q 2313 4219 1838 4219 
Q 1578 4219 1281 4162 
Q 984 4106 628 3988 
L 628 4550 
Q 988 4650 1302 4700 
Q 1616 4750 1894 4750 
Q 2613 4750 3031 4423 
Q 3450 4097 3450 3541 
Q 3450 3153 3228 2886 
Q 3006 2619 2597 2516 
z
" transform="scale(0.015625)"/>
       </defs>
       <use xlink:href="#DejaVuSans-33"/>
       <use xlink:href="#DejaVuSans-30" x="63.623047"/>
      </g>
     </g>
    </g>
    <g id="xtick_5">
     <g id="line2d_5">
      <g>
       <use xlink:href="#m05ef4b1009" x="626.870061" y="640.8" style="stroke: #000000; stroke-width: 0.8"/>
      </g>
     </g>
     <g id="text_5">
      <!-- 40 -->
      <g transform="translate(620.507561 655.398438) scale(0.1 -0.1)">
       <defs>
        <path id="DejaVuSans-34" d="M 2419 4116 
L 825 1625 
L 2419 1625 
L 2419 4116 
z
M 2253 4666 
L 3047 4666 
L 3047 1625 
L 3713 1625 
L 3713 1100 
L 3047 1100 
L 3047 0 
L 2419 0 
L 2419 1100 
L 313 1100 
L 313 1709 
L 2253 4666 
z
" transform="scale(0.015625)"/>
       </defs>
       <use xlink:href="#DejaVuSans-34"/>
       <use xlink:href="#DejaVuSans-30" x="63.623047"/>
      </g>
     </g>
    </g>
    <g id="xtick_6">
     <g id="line2d_6">
      <g>
       <use xlink:href="#m05ef4b1009" x="743.307473" y="640.8" style="stroke: #000000; stroke-width: 0.8"/>
      </g>
     </g>
     <g id="text_6">
      <!-- 50 -->
      <g transform="translate(736.944973 655.398438) scale(0.1 -0.1)">
       <defs>
        <path id="DejaVuSans-35" d="M 691 4666 
L 3169 4666 
L 3169 4134 
L 1269 4134 
L 1269 2991 
Q 1406 3038 1543 3061 
Q 1681 3084 1819 3084 
Q 2600 3084 3056 2656 
Q 3513 2228 3513 1497 
Q 3513 744 3044 326 
Q 2575 -91 1722 -91 
Q 1428 -91 1123 -41 
Q 819 9 494 109 
L 494 744 
Q 775 591 1075 516 
Q 1375 441 1709 441 
Q 2250 441 2565 725 
Q 2881 1009 2881 1497 
Q 2881 1984 2565 2268 
Q 2250 2553 1709 2553 
Q 1456 2553 1204 2497 
Q 953 2441 691 2322 
L 691 4666 
z
" transform="scale(0.015625)"/>
       </defs>
       <use xlink:href="#DejaVuSans-35"/>
       <use xlink:href="#DejaVuSans-30" x="63.623047"/>
      </g>
     </g>
    </g>
    <g id="xtick_7">
     <g id="line2d_7">
      <g>
       <use xlink:href="#m05ef4b1009" x="859.744884" y="640.8" style="stroke: #000000; stroke-width: 0.8"/>
      </g>
     </g>
     <g id="text_7">
      <!-- 60 -->
      <g transform="translate(853.382384 655.398438) scale(0.1 -0.1)">
       <defs>
        <path id="DejaVuSans-36" d="M 2113 2584 
Q 1688 2584 1439 2293 
Q 1191 2003 1191 1497 
Q 1191 994 1439 701 
Q 1688 409 2113 409 
Q 2538 409 2786 701 
Q 3034 994 3034 1497 
Q 3034 2003 2786 2293 
Q 2538 2584 2113 2584 
z
M 3366 4563 
L 3366 3988 
Q 3128 4100 2886 4159 
Q 2644 4219 2406 4219 
Q 1781 4219 1451 3797 
Q 1122 3375 1075 2522 
Q 1259 2794 1537 2939 
Q 1816 3084 2150 3084 
Q 2853 3084 3261 2657 
Q 3669 2231 3669 1497 
Q 3669 778 3244 343 
Q 2819 -91 2113 -91 
Q 1303 -91 875 529 
Q 447 1150 447 2328 
Q 447 3434 972 4092 
Q 1497 4750 2381 4750 
Q 2619 4750 2861 4703 
Q 3103 4656 3366 4563 
z
" transform="scale(0.015625)"/>
       </defs>
       <use xlink:href="#DejaVuSans-36"/>
       <use xlink:href="#DejaVuSans-30" x="63.623047"/>
      </g>
     </g>
    </g>
    <g id="text_8">
     <!-- Time (s) -->
     <g transform="translate(496.271094 669.076563) scale(0.1 -0.1)">
      <defs>
       <path id="DejaVuSans-54" d="M -19 4666 
L 3928 4666 
L 3928 4134 
L 2272 4134 
L 2272 0 
L 1638 0 
L 1638 4134 
L -19 4134 
L -19 4666 
z
" transform="scale(0.015625)"/>
       <path id="DejaVuSans-69" d="M 603 3500 
L 1178 3500 
L 1178 0 
L 603 0 
L 603 3500 
z
M 603 4863 
L 1178 4863 
L 1178 4134 
L 603 4134 
L 603 4863 
z
" transform="scale(0.015625)"/>
       <path id="DejaVuSans-6d" d="M 3328 2828 
Q 3544 3216 3844 3400 
Q 4144 3584 4550 3584 
Q 5097 3584 5394 3201 
Q 5691 2819 5691 2113 
L 5691 0 
L 5113 0 
L 5113 2094 
Q 5113 2597 4934 2840 
Q 4756 3084 4391 3084 
Q 3944 3084 3684 2787 
Q 3425 2491 3425 1978 
L 3425 0 
L 2847 0 
L 2847 2094 
Q 2847 2600 2669 2842 
Q 2491 3084 2119 3084 
Q 1678 3084 1418 2786 
Q 1159 2488 1159 1978 
L 1159 0 
L 581 0 
L 581 3500 
L 1159 3500 
L 1159 2956 
Q 1356 3278 1631 3431 
Q 1906 3584 2284 3584 
Q 2666 3584 2933 3390 
Q 3200 3197 3328 2828 
z
" transform="scale(0.015625)"/>
       <path id="DejaVuSans-65" d="M 3597 1894 
L 3597 1613 
L 953 1613 
Q 991 1019 1311 708 
Q 1631 397 2203 397 
Q 2534 397 2845 478 
Q 3156 559 3463 722 
L 3463 178 
Q 3153 47 2828 -22 
Q 2503 -91 2169 -91 
Q 1331 -91 842 396 
Q 353 884 353 1716 
Q 353 2575 817 3079 
Q 1281 3584 2069 3584 
Q 2775 3584 3186 3129 
Q 3597 2675 3597 1894 
z
M 3022 2063 
Q 3016 2534 2758 2815 
Q 2500 3097 2075 3097 
Q 1594 3097 1305 2825 
Q 1016 2553 972 2059 
L 3022 2063 
z
" transform="scale(0.015625)"/>
       <path id="DejaVuSans-20" transform="scale(0.015625)"/>
       <path id="DejaVuSans-28" d="M 1984 4856 
Q 1566 4138 1362 3434 
Q 1159 2731 1159 2009 
Q 1159 1288 1364 580 
Q 1569 -128 1984 -844 
L 1484 -844 
Q 1016 -109 783 600 
Q 550 1309 550 2009 
Q 550 2706 781 3412 
Q 1013 4119 1484 4856 
L 1984 4856 
z
" transform="scale(0.015625)"/>
       <path id="DejaVuSans-73" d="M 2834 3397 
L 2834 2853 
Q 2591 2978 2328 3040 
Q 2066 3103 1784 3103 
Q 1356 3103 1142 2972 
Q 928 2841 928 2578 
Q 928 2378 1081 2264 
Q 1234 2150 1697 2047 
L 1894 2003 
Q 2506 1872 2764 1633 
Q 3022 1394 3022 966 
Q 3022 478 2636 193 
Q 2250 -91 1575 -91 
Q 1294 -91 989 -36 
Q 684 19 347 128 
L 347 722 
Q 666 556 975 473 
Q 1284 391 1588 391 
Q 1994 391 2212 530 
Q 2431 669 2431 922 
Q 2431 1156 2273 1281 
Q 2116 1406 1581 1522 
L 1381 1569 
Q 847 1681 609 1914 
Q 372 2147 372 2553 
Q 372 3047 722 3315 
Q 1072 3584 1716 3584 
Q 2034 3584 2315 3537 
Q 2597 3491 2834 3397 
z
" transform="scale(0.015625)"/>
       <path id="DejaVuSans-29" d="M 513 4856 
L 1013 4856 
Q 1481 4119 1714 3412 
Q 1947 2706 1947 2009 
Q 1947 1309 1714 600 
Q 1481 -109 1013 -844 
L 513 -844 
Q 928 -128 1133 580 
Q 1338 1288 1338 2009 
Q 1338 2731 1133 3434 
Q 928 4138 513 4856 
z
" transform="scale(0.015625)"/>
      </defs>
      <use xlink:href="#DejaVuSans-54"/>
      <use xlink:href="#DejaVuSans-69" x="57.958984"/>
      <use xlink:href="#DejaVuSans-6d" x="85.742188"/>
      <use xlink:href="#DejaVuSans-65" x="183.154297"/>
      <use xlink:href="#DejaVuSans-20" x="244.677734"/>
      <use xlink:href="#DejaVuSans-28" x="276.464844"/>
      <use xlink:href="#DejaVuSans-73" x="315.478516"/>
      <use xlink:href="#DejaVuSans-29" x="367.578125"/>
     </g>
    </g>
   </g>
   <g id="matplotlib.axis_2">
    <g id="ytick_1">
     <g id="line2d_8">
      <defs>
       <path id="m4ff742f5cb" d="M 0 0 
L -3.5 0 
" style="stroke: #000000; stroke-width: 0.8"/>
      </defs>
      <g>
       <use xlink:href="#m4ff742f5cb" x="126" y="590.828981" style="stroke: #000000; stroke-width: 0.8"/>
      </g>
     </g>
     <g id="text_9">
      <!-- 29.96 -->
      <g transform="translate(90.371875 594.6282) scale(0.1 -0.1)">
       <defs>
        <path id="DejaVuSans-39" d="M 703 97 
L 703 672 
Q 941 559 1184 500 
Q 1428 441 1663 441 
Q 2288 441 2617 861 
Q 2947 1281 2994 2138 
Q 2813 1869 2534 1725 
Q 2256 1581 1919 1581 
Q 1219 1581 811 2004 
Q 403 2428 403 3163 
Q 403 3881 828 4315 
Q 1253 4750 1959 4750 
Q 2769 4750 3195 4129 
Q 3622 3509 3622 2328 
Q 3622 1225 3098 567 
Q 2575 -91 1691 -91 
Q 1453 -91 1209 -44 
Q 966 3 703 97 
z
M 1959 2075 
Q 2384 2075 2632 2365 
Q 2881 2656 2881 3163 
Q 2881 3666 2632 3958 
Q 2384 4250 1959 4250 
Q 1534 4250 1286 3958 
Q 1038 3666 1038 3163 
Q 1038 2656 1286 2365 
Q 1534 2075 1959 2075 
z
" transform="scale(0.015625)"/>
        <path id="DejaVuSans-2e" d="M 684 794 
L 1344 794 
L 1344 0 
L 684 0 
L 684 794 
z
" transform="scale(0.015625)"/>
       </defs>
       <use xlink:href="#DejaVuSans-32"/>
       <use xlink:href="#DejaVuSans-39" x="63.623047"/>
       <use xlink:href="#DejaVuSans-2e" x="127.246094"/>
       <use xlink:href="#DejaVuSans-39" x="159.033203"/>
       <use xlink:href="#DejaVuSans-36" x="222.65625"/>
      </g>
     </g>
    </g>
    <g id="ytick_2">
     <g id="line2d_9">
      <g>
       <use xlink:href="#m4ff742f5cb" x="126" y="494.693881" style="stroke: #000000; stroke-width: 0.8"/>
      </g>
     </g>
     <g id="text_10">
      <!-- 29.97 -->
      <g transform="translate(90.371875 498.4931) scale(0.1 -0.1)">
       <defs>
        <path id="DejaVuSans-37" d="M 525 4666 
L 3525 4666 
L 3525 4397 
L 1831 0 
L 1172 0 
L 2766 4134 
L 525 4134 
L 525 4666 
z
" transform="scale(0.015625)"/>
       </defs>
       <use xlink:href="#DejaVuSans-32"/>
       <use xlink:href="#DejaVuSans-39" x="63.623047"/>
       <use xlink:href="#DejaVuSans-2e" x="127.246094"/>
       <use xlink:href="#DejaVuSans-39" x="159.033203"/>
       <use xlink:href="#DejaVuSans-37" x="222.65625"/>
      </g>
     </g>
    </g>
    <g id="ytick_3">
     <g id="line2d_10">
      <g>
       <use xlink:href="#m4ff742f5cb" x="126" y="398.558781" style="stroke: #000000; stroke-width: 0.8"/>
      </g>
     </g>
     <g id="text_11">
      <!-- 29.98 -->
      <g transform="translate(90.371875 402.358) scale(0.1 -0.1)">
       <defs>
        <path id="DejaVuSans-38" d="M 2034 2216 
Q 1584 2216 1326 1975 
Q 1069 1734 1069 1313 
Q 1069 891 1326 650 
Q 1584 409 2034 409 
Q 2484 409 2743 651 
Q 3003 894 3003 1313 
Q 3003 1734 2745 1975 
Q 2488 2216 2034 2216 
z
M 1403 2484 
Q 997 2584 770 2862 
Q 544 3141 544 3541 
Q 544 4100 942 4425 
Q 1341 4750 2034 4750 
Q 2731 4750 3128 4425 
Q 3525 4100 3525 3541 
Q 3525 3141 3298 2862 
Q 3072 2584 2669 2484 
Q 3125 2378 3379 2068 
Q 3634 1759 3634 1313 
Q 3634 634 3220 271 
Q 2806 -91 2034 -91 
Q 1263 -91 848 271 
Q 434 634 434 1313 
Q 434 1759 690 2068 
Q 947 2378 1403 2484 
z
M 1172 3481 
Q 1172 3119 1398 2916 
Q 1625 2713 2034 2713 
Q 2441 2713 2670 2916 
Q 2900 3119 2900 3481 
Q 2900 3844 2670 4047 
Q 2441 4250 2034 4250 
Q 1625 4250 1398 4047 
Q 1172 3844 1172 3481 
z
" transform="scale(0.015625)"/>
       </defs>
       <use xlink:href="#DejaVuSans-32"/>
       <use xlink:href="#DejaVuSans-39" x="63.623047"/>
       <use xlink:href="#DejaVuSans-2e" x="127.246094"/>
       <use xlink:href="#DejaVuSans-39" x="159.033203"/>
       <use xlink:href="#DejaVuSans-38" x="222.65625"/>
      </g>
     </g>
    </g>
    <g id="ytick_4">
     <g id="line2d_11">
      <g>
       <use xlink:href="#m4ff742f5cb" x="126" y="302.423681" style="stroke: #000000; stroke-width: 0.8"/>
      </g>
     </g>
     <g id="text_12">
      <!-- 29.99 -->
      <g transform="translate(90.371875 306.2229) scale(0.1 -0.1)">
       <use xlink:href="#DejaVuSans-32"/>
       <use xlink:href="#DejaVuSans-39" x="63.623047"/>
       <use xlink:href="#DejaVuSans-2e" x="127.246094"/>
       <use xlink:href="#DejaVuSans-39" x="159.033203"/>
       <use xlink:href="#DejaVuSans-39" x="222.65625"/>
      </g>
     </g>
    </g>
    <g id="ytick_5">
     <g id="line2d_12">
      <g>
       <use xlink:href="#m4ff742f5cb" x="126" y="206.288581" style="stroke: #000000; stroke-width: 0.8"/>
      </g>
     </g>
     <g id="text_13">
      <!-- 30.00 -->
      <g transform="translate(90.371875 210.0878) scale(0.1 -0.1)">
       <use xlink:href="#DejaVuSans-33"/>
       <use xlink:href="#DejaVuSans-30" x="63.623047"/>
       <use xlink:href="#DejaVuSans-2e" x="127.246094"/>
       <use xlink:href="#DejaVuSans-30" x="159.033203"/>
       <use xlink:href="#DejaVuSans-30" x="222.65625"/>
      </g>
     </g>
    </g>
    <g id="ytick_6">
     <g id="line2d_13">
      <g>
       <use xlink:href="#m4ff742f5cb" x="126" y="110.153481" style="stroke: #000000; stroke-width: 0.8"/>
      </g>
     </g>
     <g id="text_14">
      <!-- 30.01 -->
      <g transform="translate(90.371875 113.9527) scale(0.1 -0.1)">
       <use xlink:href="#DejaVuSans-33"/>
       <use xlink:href="#DejaVuSans-30" x="63.623047"/>
       <use xlink:href="#DejaVuSans-2e" x="127.246094"/>
       <use xlink:href="#DejaVuSans-30" x="159.033203"/>
       <use xlink:href="#DejaVuSans-31" x="222.65625"/>
      </g>
     </g>
    </g>
    <g id="text_15">
     <!-- Packets per Second -->
     <g transform="translate(84.292187 412.445312) rotate(-90) scale(0.1 -0.1)">
      <defs>
       <path id="DejaVuSans-50" d="M 1259 4147 
L 1259 2394 
L 2053 2394 
Q 2494 2394 2734 2622 
Q 2975 2850 2975 3272 
Q 2975 3691 2734 3919 
Q 2494 4147 2053 4147 
L 1259 4147 
z
M 628 4666 
L 2053 4666 
Q 2838 4666 3239 4311 
Q 3641 3956 3641 3272 
Q 3641 2581 3239 2228 
Q 2838 1875 2053 1875 
L 1259 1875 
L 1259 0 
L 628 0 
L 628 4666 
z
" transform="scale(0.015625)"/>
       <path id="DejaVuSans-61" d="M 2194 1759 
Q 1497 1759 1228 1600 
Q 959 1441 959 1056 
Q 959 750 1161 570 
Q 1363 391 1709 391 
Q 2188 391 2477 730 
Q 2766 1069 2766 1631 
L 2766 1759 
L 2194 1759 
z
M 3341 1997 
L 3341 0 
L 2766 0 
L 2766 531 
Q 2569 213 2275 61 
Q 1981 -91 1556 -91 
Q 1019 -91 701 211 
Q 384 513 384 1019 
Q 384 1609 779 1909 
Q 1175 2209 1959 2209 
L 2766 2209 
L 2766 2266 
Q 2766 2663 2505 2880 
Q 2244 3097 1772 3097 
Q 1472 3097 1187 3025 
Q 903 2953 641 2809 
L 641 3341 
Q 956 3463 1253 3523 
Q 1550 3584 1831 3584 
Q 2591 3584 2966 3190 
Q 3341 2797 3341 1997 
z
" transform="scale(0.015625)"/>
       <path id="DejaVuSans-63" d="M 3122 3366 
L 3122 2828 
Q 2878 2963 2633 3030 
Q 2388 3097 2138 3097 
Q 1578 3097 1268 2742 
Q 959 2388 959 1747 
Q 959 1106 1268 751 
Q 1578 397 2138 397 
Q 2388 397 2633 464 
Q 2878 531 3122 666 
L 3122 134 
Q 2881 22 2623 -34 
Q 2366 -91 2075 -91 
Q 1284 -91 818 406 
Q 353 903 353 1747 
Q 353 2603 823 3093 
Q 1294 3584 2113 3584 
Q 2378 3584 2631 3529 
Q 2884 3475 3122 3366 
z
" transform="scale(0.015625)"/>
       <path id="DejaVuSans-6b" d="M 581 4863 
L 1159 4863 
L 1159 1991 
L 2875 3500 
L 3609 3500 
L 1753 1863 
L 3688 0 
L 2938 0 
L 1159 1709 
L 1159 0 
L 581 0 
L 581 4863 
z
" transform="scale(0.015625)"/>
       <path id="DejaVuSans-74" d="M 1172 4494 
L 1172 3500 
L 2356 3500 
L 2356 3053 
L 1172 3053 
L 1172 1153 
Q 1172 725 1289 603 
Q 1406 481 1766 481 
L 2356 481 
L 2356 0 
L 1766 0 
Q 1100 0 847 248 
Q 594 497 594 1153 
L 594 3053 
L 172 3053 
L 172 3500 
L 594 3500 
L 594 4494 
L 1172 4494 
z
" transform="scale(0.015625)"/>
       <path id="DejaVuSans-70" d="M 1159 525 
L 1159 -1331 
L 581 -1331 
L 581 3500 
L 1159 3500 
L 1159 2969 
Q 1341 3281 1617 3432 
Q 1894 3584 2278 3584 
Q 2916 3584 3314 3078 
Q 3713 2572 3713 1747 
Q 3713 922 3314 415 
Q 2916 -91 2278 -91 
Q 1894 -91 1617 61 
Q 1341 213 1159 525 
z
M 3116 1747 
Q 3116 2381 2855 2742 
Q 2594 3103 2138 3103 
Q 1681 3103 1420 2742 
Q 1159 2381 1159 1747 
Q 1159 1113 1420 752 
Q 1681 391 2138 391 
Q 2594 391 2855 752 
Q 3116 1113 3116 1747 
z
" transform="scale(0.015625)"/>
       <path id="DejaVuSans-72" d="M 2631 2963 
Q 2534 3019 2420 3045 
Q 2306 3072 2169 3072 
Q 1681 3072 1420 2755 
Q 1159 2438 1159 1844 
L 1159 0 
L 581 0 
L 581 3500 
L 1159 3500 
L 1159 2956 
Q 1341 3275 1631 3429 
Q 1922 3584 2338 3584 
Q 2397 3584 2469 3576 
Q 2541 3569 2628 3553 
L 2631 2963 
z
" transform="scale(0.015625)"/>
       <path id="DejaVuSans-53" d="M 3425 4513 
L 3425 3897 
Q 3066 4069 2747 4153 
Q 2428 4238 2131 4238 
Q 1616 4238 1336 4038 
Q 1056 3838 1056 3469 
Q 1056 3159 1242 3001 
Q 1428 2844 1947 2747 
L 2328 2669 
Q 3034 2534 3370 2195 
Q 3706 1856 3706 1288 
Q 3706 609 3251 259 
Q 2797 -91 1919 -91 
Q 1588 -91 1214 -16 
Q 841 59 441 206 
L 441 856 
Q 825 641 1194 531 
Q 1563 422 1919 422 
Q 2459 422 2753 634 
Q 3047 847 3047 1241 
Q 3047 1584 2836 1778 
Q 2625 1972 2144 2069 
L 1759 2144 
Q 1053 2284 737 2584 
Q 422 2884 422 3419 
Q 422 4038 858 4394 
Q 1294 4750 2059 4750 
Q 2388 4750 2728 4690 
Q 3069 4631 3425 4513 
z
" transform="scale(0.015625)"/>
       <path id="DejaVuSans-6f" d="M 1959 3097 
Q 1497 3097 1228 2736 
Q 959 2375 959 1747 
Q 959 1119 1226 758 
Q 1494 397 1959 397 
Q 2419 397 2687 759 
Q 2956 1122 2956 1747 
Q 2956 2369 2687 2733 
Q 2419 3097 1959 3097 
z
M 1959 3584 
Q 2709 3584 3137 3096 
Q 3566 2609 3566 1747 
Q 3566 888 3137 398 
Q 2709 -91 1959 -91 
Q 1206 -91 779 398 
Q 353 888 353 1747 
Q 353 2609 779 3096 
Q 1206 3584 1959 3584 
z
" transform="scale(0.015625)"/>
       <path id="DejaVuSans-6e" d="M 3513 2113 
L 3513 0 
L 2938 0 
L 2938 2094 
Q 2938 2591 2744 2837 
Q 2550 3084 2163 3084 
Q 1697 3084 1428 2787 
Q 1159 2491 1159 1978 
L 1159 0 
L 581 0 
L 581 3500 
L 1159 3500 
L 1159 2956 
Q 1366 3272 1645 3428 
Q 1925 3584 2291 3584 
Q 2894 3584 3203 3211 
Q 3513 2838 3513 2113 
z
" transform="scale(0.015625)"/>
       <path id="DejaVuSans-64" d="M 2906 2969 
L 2906 4863 
L 3481 4863 
L 3481 0 
L 2906 0 
L 2906 525 
Q 2725 213 2448 61 
Q 2172 -91 1784 -91 
Q 1150 -91 751 415 
Q 353 922 353 1747 
Q 353 2572 751 3078 
Q 1150 3584 1784 3584 
Q 2172 3584 2448 3432 
Q 2725 3281 2906 2969 
z
M 947 1747 
Q 947 1113 1208 752 
Q 1469 391 1925 391 
Q 2381 391 2643 752 
Q 2906 1113 2906 1747 
Q 2906 2381 2643 2742 
Q 2381 3103 1925 3103 
Q 1469 3103 1208 2742 
Q 947 2381 947 1747 
z
" transform="scale(0.015625)"/>
      </defs>
      <use xlink:href="#DejaVuSans-50"/>
      <use xlink:href="#DejaVuSans-61" x="55.802734"/>
      <use xlink:href="#DejaVuSans-63" x="117.082031"/>
      <use xlink:href="#DejaVuSans-6b" x="172.0625"/>
      <use xlink:href="#DejaVuSans-65" x="226.347656"/>
      <use xlink:href="#DejaVuSans-74" x="287.871094"/>
      <use xlink:href="#DejaVuSans-73" x="327.080078"/>
      <use xlink:href="#DejaVuSans-20" x="379.179688"/>
      <use xlink:href="#DejaVuSans-70" x="410.966797"/>
      <use xlink:href="#DejaVuSans-65" x="474.443359"/>
      <use xlink:href="#DejaVuSans-72" x="535.966797"/>
      <use xlink:href="#DejaVuSans-20" x="577.080078"/>
      <use xlink:href="#DejaVuSans-53" x="608.867188"/>
      <use xlink:href="#DejaVuSans-65" x="672.34375"/>
      <use xlink:href="#DejaVuSans-63" x="733.867188"/>
      <use xlink:href="#DejaVuSans-6f" x="788.847656"/>
      <use xlink:href="#DejaVuSans-6e" x="850.029297"/>
      <use xlink:href="#DejaVuSans-64" x="913.408203"/>
     </g>
    </g>
   </g>
   <g id="line2d_14">
    <path d="M 161.509091 615.6 
L 162.28605 415.230941 
L 162.674633 546.467563 
L 163.063138 488.087771 
L 163.451619 471.153032 
L 163.84009 463.026069 
L 164.228593 487.664643 
L 164.617074 470.453492 
L 165.005579 488.605886 
L 165.394031 449.033836 
L 165.782506 466.463459 
L 166.170975 462.13648 
L 166.559447 463.950199 
L 166.947923 467.266656 
L 167.336399 466.998924 
L 167.724878 469.304858 
L 168.113313 436.612431 
L 168.50177 452.877517 
L 168.890259 477.103303 
L 169.278742 471.973476 
L 169.667195 450.415845 
L 170.05565 451.037745 
L 170.444111 456.436069 
L 170.832564 449.819855 
L 171.221022 453.628966 
L 171.609495 464.718864 
L 171.99797 466.86074 
L 172.386447 467.931666 
L 172.774931 472.327561 
L 173.163402 463.717008 
L 173.551877 466.316638 
L 173.940329 448.98201 
L 174.328818 477.146482 
L 174.717287 461.626907 
L 175.105758 463.241988 
L 175.494227 461.963743 
L 175.882719 479.115457 
L 176.659642 447.859117 
L 177.436559 455.814192 
L 177.82499 433.925881 
L 178.213446 451.806479 
L 178.601902 452.765231 
L 178.990376 465.401159 
L 179.378854 468.691673 
L 179.767249 406.470092 
L 180.155708 454.579068 
L 180.544163 451.884216 
L 180.93266 482.673362 
L 181.321098 438.996594 
L 181.709559 455.986936 
L 182.098001 441.812621 
L 182.486442 441.069748 
L 182.874896 450.26037 
L 183.263333 438.772001 
L 183.651788 450.994558 
L 184.040265 468.147578 
L 184.428703 438.979318 
L 184.817165 456.703821 
L 185.205618 449.750755 
L 185.59402 412.397115 
L 186.370937 468.449853 
L 186.759377 440.629205 
L 187.14782 442.650508 
L 187.536277 452.730681 
L 187.924742 459.096289 
L 188.313197 451.581905 
L 188.701623 429.459704 
L 189.090067 443.85982 
L 189.478492 429.364677 
L 189.86697 468.544854 
L 190.255391 426.315156 
L 190.64384 446.399343 
L 191.032286 445.259155 
L 191.420671 399.531883 
L 191.809116 444.308991 
L 192.197562 444.775436 
L 192.586008 444.956831 
L 192.974452 443.15151 
L 193.362897 444.274439 
L 193.751318 426.012792 
L 194.139784 459.882253 
L 194.528209 428.759961 
L 194.916651 442.322264 
L 195.305096 443.833906 
L 195.693559 457.204774 
L 196.081983 428.811794 
L 196.470425 441.648498 
L 196.858903 468.6744 
L 197.247294 404.016268 
L 197.635748 450.960008 
L 198.024243 481.023956 
L 198.412676 435.221651 
L 198.801085 417.840084 
L 199.189542 452.860242 
L 199.966506 478.631852 
L 200.354953 445.4751 
L 200.743376 427.783772 
L 201.131785 417.615458 
L 201.52021 429.252373 
L 201.908642 433.856772 
L 202.297055 420.362788 
L 202.6855 444.490386 
L 203.073888 401.856177 
L 203.462301 420.172722 
L 203.850752 448.809258 
L 204.239187 436.180513 
L 204.627591 414.055946 
L 205.016012 425.865929 
L 205.404418 415.343256 
L 205.792825 415.818434 
L 206.181255 432.958365 
L 206.569658 412.924142 
L 206.958084 429.822532 
L 207.346494 418.522601 
L 207.734924 433.234798 
L 208.123307 397.855603 
L 208.511888 545.138266 
L 208.900257 387.279036 
L 209.288682 429.520175 
L 209.677111 432.293194 
L 210.06556 446.813955 
L 210.45397 418.367091 
L 210.842418 446.382068 
L 211.230825 415.930749 
L 211.619234 417.468587 
L 212.007651 423.248291 
L 212.396053 412.1552 
L 212.784212 231.582392 
L 213.172852 588.63617 
L 213.561271 424.932915 
L 213.949673 411.973764 
L 214.338095 426.807576 
L 214.726498 413.416607 
L 215.11482 352.99491 
L 215.503323 486.939277 
L 215.891725 411.973764 
L 216.280128 412.906862 
L 216.668554 430.064417 
L 217.056954 410.755544 
L 217.445319 384.9113 
L 217.833744 428.803155 
L 218.222166 427.455494 
L 218.610549 398.123464 
L 218.998976 430.893733 
L 219.387376 410.340829 
L 219.775783 416.10354 
L 220.164203 425.451257 
L 220.552588 399.540524 
L 220.941006 424.094925 
L 221.329424 424.207233 
L 221.717826 411.947845 
L 222.10623 413.94363 
L 222.494651 425.736344 
L 222.88307 425.192086 
L 223.271437 385.939628 
L 223.659864 430.962842 
L 224.048252 401.406874 
L 224.436637 399.661492 
L 224.825041 414.125064 
L 225.213449 416.224494 
L 225.601851 412.371196 
L 225.990251 410.954262 
L 226.378638 400.534186 
L 226.767068 433.22616 
L 227.155472 413.701718 
L 227.543873 411.498573 
L 227.932256 397.959291 
L 228.320704 446.364792 
L 228.709042 365.121032 
L 229.097443 411.481294 
L 229.485868 428.811794 
L 229.874254 400.26633 
L 230.262639 399.989833 
L 230.651043 413.477086 
L 231.039427 399.004807 
L 231.427849 426.617519 
L 231.816245 408.059872 
L 232.204581 363.072714 
L 232.592983 411.826887 
L 232.981397 421.209438 
L 233.369727 358.682128 
L 233.758175 446.537548 
L 234.146575 410.496347 
L 234.534978 413.148775 
L 234.923352 391.720598 
L 235.311744 404.621088 
L 235.700038 331.834414 
L 236.088523 474.262058 
L 236.476914 403.869383 
L 236.865283 387.149417 
L 237.253732 447.764103 
L 237.642062 358.777201 
L 238.030429 385.784083 
L 238.80723 418.583077 
L 239.583989 389.603528 
L 239.972372 397.509976 
L 240.360754 397.976572 
L 240.749138 398.183948 
L 241.137543 414.703922 
L 241.525915 389.784992 
L 242.302654 387.460504 
L 242.691083 432.414134 
L 243.079452 387.50371 
L 243.467847 407.360025 
L 243.856195 372.104109 
L 244.24458 399.64421 
L 244.632976 407.705629 
L 245.021367 404.145873 
L 245.409737 388.60115 
L 245.798134 407.921631 
L 246.186507 391.098442 
L 246.574879 389.681299 
L 246.963264 399.834303 
L 247.351629 384.764395 
L 247.739994 384.643415 
L 248.128379 399.436837 
L 248.516746 386.380338 
L 248.905111 384.26319 
L 249.293532 426.833492 
L 249.681857 355.155733 
L 250.070225 386.440828 
L 250.458611 400.119441 
L 250.846973 382.68179 
L 251.235356 398.356761 
L 251.623721 384.453303 
L 252.012089 387.330884 
L 252.400452 383.303982 
L 252.78884 401.553762 
L 253.177222 397.414928 
L 253.565585 383.044736 
L 253.95395 384.919941 
L 254.342308 379.449803 
L 254.730688 395.617653 
L 255.11905 382.776847 
L 255.507423 390.752798 
L 255.895782 380.547304 
L 256.284167 399.315869 
L 256.672552 399.868865 
L 257.060909 378.620191 
L 257.449291 396.956971 
L 257.837673 397.579101 
L 258.226034 381.480605 
L 258.614383 373.106603 
L 259.002759 392.887133 
L 259.391111 374.809097 
L 259.779466 377.496749 
L 260.167845 395.081922 
L 260.556215 388.411043 
L 260.944566 374.852307 
L 261.332961 406.91938 
L 261.721316 377.410331 
L 262.109712 407.385946 
L 262.49807 379.795474 
L 262.886484 420.803392 
L 263.274835 374.463414 
L 263.663208 390.787363 
L 264.051538 358.984633 
L 264.439935 407.990751 
L 264.828301 385.490276 
L 265.216588 327.304558 
L 265.605008 424.855164 
L 265.993368 381.134939 
L 266.381728 380.944822 
L 266.770082 376.762187 
L 267.158435 375.872065 
L 267.54679 377.712797 
L 267.935185 406.763857 
L 268.323581 407.740189 
L 268.711938 378.784385 
L 269.100325 400.923008 
L 269.48872 407.126742 
L 269.877071 374.083163 
L 270.265445 391.807008 
L 270.653833 401.864818 
L 271.042192 380.089293 
L 271.430555 383.528662 
L 271.818919 384.012587 
L 272.207282 382.889188 
L 272.595628 370.280591 
L 272.983991 383.805191 
L 273.372355 383.563228 
L 273.760746 404.024909 
L 274.1491 377.073296 
L 274.537468 386.821047 
L 274.925845 393.362385 
L 275.314182 363.94563 
L 275.70254 380.037443 
L 276.0909 380.633721 
L 276.479278 394.321526 
L 276.867661 398.555496 
L 277.256039 394.252399 
L 277.644382 367.973072 
L 278.032739 379.251042 
L 278.421096 378.680683 
L 278.809439 368.258273 
L 279.197797 379.268326 
L 279.586178 396.680467 
L 280.362881 366.970544 
L 280.751264 398.745589 
L 281.139622 379.294251 
L 281.527962 366.002578 
L 281.916335 390.415795 
L 282.693023 362.001008 
L 283.081399 392.792082 
L 283.469731 360.341578 
L 283.858086 377.125148 
L 284.246437 374.999222 
L 284.634793 378.032546 
L 285.023127 361.473796 
L 285.411497 388.203653 
L 285.79983 361.283653 
L 286.576558 390.614541 
L 286.964933 392.489648 
L 287.35325 348.647235 
L 287.741604 376.883174 
L 288.129958 376.744903 
L 288.906695 391.124365 
L 289.29504 369.6497 
L 289.683416 393.293258 
L 290.071755 365.207459 
L 290.460114 379.942383 
L 290.848449 362.683789 
L 291.236834 399.549164 
L 292.013482 341.109801 
L 292.40191 431.835347 
L 292.790274 384.012587 
L 293.178611 363.971558 
L 293.566946 362.173865 
L 293.955295 372.97697 
L 294.343651 378.248592 
L 294.731982 359.001919 
L 295.12033 372.45844 
L 295.508689 380.192994 
L 295.89702 359.667428 
L 296.28535 358.733986 
L 296.673704 376.563422 
L 297.062062 379.078207 
L 297.450392 359.269852 
L 298.227112 387.538275 
L 298.615442 359.183422 
L 299.003774 360.28972 
L 299.392126 374.679466 
L 299.780484 379.994234 
L 300.168814 358.872274 
L 300.557167 375.854781 
L 300.945523 377.842425 
L 301.333878 377.289344 
L 301.722214 363.349282 
L 302.110567 375.863423 
L 302.498896 358.0339 
L 302.887252 377.91156 
L 303.275625 390.251614 
L 303.663821 259.73748 
L 304.052338 497.404915 
L 304.440687 372.631283 
L 304.829001 347.221031 
L 305.217365 383.511379 
L 305.605692 357.022659 
L 305.99404 372.216458 
L 306.382387 370.937406 
L 306.770698 345.008225 
L 307.159048 373.607847 
L 307.547376 356.953514 
L 307.935709 361.058938 
L 308.324038 357.705463 
L 308.712399 381.739855 
L 309.48907 357.69682 
L 309.877443 390.554053 
L 310.26581 385.922345 
L 310.654098 327.615774 
L 311.042448 373.495499 
L 311.430779 359.295781 
L 311.819085 341.032005 
L 312.595765 372.925117 
L 312.984099 362.018294 
L 313.372392 331.108264 
L 313.760725 361.09351 
L 314.14906 362.415863 
L 314.537391 359.304424 
L 314.925704 346.529532 
L 315.314059 376.986877 
L 315.702393 361.983723 
L 316.09069 334.246245 
L 316.479036 370.980617 
L 316.867366 358.103044 
L 317.25569 354.896436 
L 317.644019 357.619033 
L 318.032344 355.181663 
L 318.420649 340.271324 
L 319.197316 369.131158 
L 319.585641 354.619852 
L 319.97396 350.885915 
L 320.362285 354.896436 
L 320.7506 347.78287 
L 321.138898 335.214424 
L 321.527241 368.275558 
L 321.915524 323.319204 
L 322.303868 369.433641 
L 322.692169 337.142118 
L 323.080514 370.150956 
L 323.468863 372.760916 
L 323.857203 366.019863 
L 324.245548 369.805262 
L 324.633875 357.014016 
L 325.022196 351.663826 
L 325.410517 352.095998 
L 325.798815 335.361379 
L 326.187138 352.96898 
L 326.575468 359.027848 
L 326.963786 349.978346 
L 327.352104 349.86598 
L 327.740385 322.238558 
L 328.128726 366.797693 
L 328.517049 353.470294 
L 328.905308 306.088413 
L 329.293679 389.119622 
L 329.681995 348.61266 
L 330.070332 364.07527 
L 330.458651 350.496958 
L 330.846991 366.192715 
L 331.235326 362.692432 
L 331.62362 332.128331 
L 332.011954 361.473796 
L 332.400272 350.030207 
L 332.788568 333.390439 
L 333.176882 346.538176 
L 333.565181 335.983776 
L 333.953492 344.437731 
L 334.341809 349.485663 
L 334.73013 351.923129 
L 335.118424 332.327157 
L 335.506763 364.85311 
L 335.895059 334.090644 
L 336.283389 358.284548 
L 336.671663 317.509554 
L 337.060015 375.258483 
L 337.448306 329.664596 
L 337.83664 361.724438 
L 338.224953 346.183782 
L 338.613271 349.693109 
L 339.001611 366.106289 
L 339.389884 316.454801 
L 339.778198 346.745626 
L 340.166508 344.178414 
L 340.554822 347.004938 
L 340.943129 341.360479 
L 341.331437 342.147086 
L 341.719766 358.180832 
L 342.108078 345.44906 
L 342.496389 344.774841 
L 342.884701 345.682443 
L 343.272995 331.80848 
L 343.661304 343.08928 
L 344.049633 358.405551 
L 344.437923 328.428391 
L 344.826252 358.509267 
L 345.214562 343.737575 
L 345.602869 341.844546 
L 345.991198 357.558531 
L 346.767795 327.382362 
L 347.156127 360.324292 
L 347.544431 339.86505 
L 347.93274 343.115212 
L 348.321052 344.97365 
L 348.709359 342.345898 
L 349.097647 327.174884 
L 349.485974 356.953514 
L 349.874224 298.946498 
L 350.262591 386.155663 
L 351.03919 322.662172 
L 351.427493 338.13621 
L 351.815784 330.261083 
L 352.204105 352.199719 
L 352.592397 330.589582 
L 352.980721 354.153115 
L 353.36901 328.238204 
L 353.757311 337.047031 
L 354.145598 327.105725 
L 354.533919 351.897199 
L 354.922221 338.110277 
L 355.31054 350.514245 
L 355.698839 335.42189 
L 356.087133 332.136976 
L 356.475503 389.007287 
L 356.863748 294.917126 
L 357.252068 351.983633 
L 357.640388 351.136576 
L 358.028701 345.708374 
L 358.417002 337.219917 
L 358.805301 336.26904 
L 359.193622 351.862625 
L 359.581898 318.88418 
L 359.970209 344.619252 
L 360.358507 335.006958 
L 360.746807 336.052931 
L 361.135125 350.194434 
L 361.523416 329.751044 
L 361.911737 352.363943 
L 362.300052 347.584066 
L 362.68833 320.180985 
L 363.076645 347.074087 
L 363.464938 331.246578 
L 363.853232 332.111042 
L 364.241535 338.784527 
L 364.62983 332.914989 
L 365.406448 346.676476 
L 365.79474 330.338886 
L 366.183029 328.791473 
L 366.571321 330.088189 
L 366.959618 334.280823 
L 367.347917 335.776311 
L 367.736199 323.630429 
L 368.124537 364.377764 
L 368.512811 317.483618 
L 368.901153 367.065611 
L 369.677771 336.372772 
L 370.06607 336.096153 
L 370.454384 346.520889 
L 370.842695 344.869924 
L 371.230953 304.964406 
L 371.619272 350.97235 
L 372.007586 346.417164 
L 372.395874 328.151756 
L 372.784188 346.373945 
L 373.172468 322.221267 
L 373.56076 330.546359 
L 373.949079 350.056138 
L 374.337339 306.918443 
L 375.113969 362.666504 
L 375.502264 332.586495 
L 375.890557 331.652877 
L 376.278856 335.318157 
L 376.667147 330.390754 
L 377.055418 314.449019 
L 377.44373 345.907181 
L 377.832024 331.601009 
L 378.220335 344.809417 
L 378.608611 318.745853 
L 378.996905 331.998662 
L 379.385201 333.139747 
L 379.773515 347.558135 
L 380.161815 336.260396 
L 380.550089 316.76604 
L 380.938422 361.473796 
L 381.32672 334.540157 
L 381.715011 329.776978 
L 382.103427 422.764498 
L 382.491723 333.98691 
L 382.88002 333.857243 
L 383.268378 379.691773 
L 383.656674 333.381794 
L 384.044949 318.149319 
L 384.433304 377.004161 
L 384.821604 336.727191 
L 385.209875 314.820782 
L 385.59819 347.653215 
L 385.986466 318.745853 
L 386.374776 343.81537 
L 386.763101 354.974225 
L 387.539692 327.027921 
L 387.927999 341.395056 
L 388.31631 345.207033 
L 388.704599 327.89241 
L 389.092906 341.801326 
L 389.481197 329.448477 
L 389.86948 324.192361 
L 390.257764 324.961771 
L 390.646038 316.636357 
L 391.034324 325.981882 
L 391.422633 343.201652 
L 391.810882 299.179956 
L 392.199187 340.184883 
L 392.587475 327.503391 
L 392.975789 346.624614 
L 393.364078 328.376522 
L 393.752364 325.860853 
L 394.140639 318.270355 
L 394.52891 315.175254 
L 394.917203 330.995883 
L 395.305509 340.643021 
L 395.6938 329.72511 
L 396.082089 328.532128 
L 396.470365 319.186769 
L 396.858647 322.471978 
L 397.246945 335.525623 
L 397.635231 326.215297 
L 398.023515 324.002169 
L 398.411814 336.148019 
L 398.800098 324.218296 
L 399.188376 320.397118 
L 399.576672 333.338572 
L 399.964951 321.157903 
L 400.353194 294.294552 
L 400.741488 331.56643 
L 401.129798 344.359936 
L 401.518082 324.209651 
L 401.906374 330.520425 
L 402.294686 345.786168 
L 402.682938 300.433706 
L 403.071227 328.350587 
L 403.459513 326.275811 
L 403.847801 327.451521 
L 404.236068 312.322168 
L 405.012666 344.161126 
L 405.400954 327.313203 
L 405.789263 343.556053 
L 406.177549 325.869498 
L 406.565838 328.419746 
L 407.342422 331.186066 
L 407.730711 327.926989 
L 408.119001 329.578149 
L 408.507289 327.019276 
L 408.895582 331.384893 
L 409.283856 317.397163 
L 409.672142 326.275811 
L 410.060448 340.444206 
L 410.837001 311.639149 
L 411.22529 328.316008 
L 411.61358 328.635866 
L 412.001844 310.221224 
L 412.390154 343.625204 
L 412.778439 325.229767 
L 413.166706 312.140607 
L 413.555012 341.386411 
L 413.943281 313.039768 
L 414.33157 328.782828 
L 414.719864 332.015951 
L 415.108141 318.78908 
L 415.496418 319.999433 
L 415.884711 331.056396 
L 416.273005 331.670166 
L 416.661279 317.717046 
L 417.049553 316.601775 
L 417.437843 329.664596 
L 417.826114 314.457665 
L 418.602708 341.334547 
L 418.990998 329.119975 
L 419.379307 342.726234 
L 420.155862 313.160808 
L 420.544152 329.215068 
L 420.932401 298.410408 
L 421.320669 313.039768 
L 421.708978 342.665726 
L 422.09724 308.578489 
L 422.485508 312.512376 
L 422.873792 324.979061 
L 423.262074 322.714043 
L 423.65032 296.776185 
L 424.038615 332.491404 
L 424.81516 310.921542 
L 425.203465 339.839117 
L 425.591749 325.074157 
L 425.980031 323.025269 
L 426.36829 305.950074 
L 426.75655 306.598536 
L 427.144832 323.69959 
L 427.533095 309.045374 
L 427.921374 320.656477 
L 428.309639 310.765916 
L 428.697923 324.235586 
L 429.086207 324.564099 
L 429.474473 311.276023 
L 429.862742 313.1781 
L 430.251028 326.388196 
L 430.639314 326.249876 
L 431.027601 326.405486 
L 431.415909 342.821317 
L 431.804214 340.331833 
L 432.192482 312.564251 
L 432.580767 325.497763 
L 432.969054 326.578385 
L 433.357321 312.296231 
L 433.745583 307.981912 
L 434.133869 325.938657 
L 434.522128 306.520721 
L 434.910412 324.296102 
L 435.298676 310.117473 
L 435.686961 324.82345 
L 436.075246 325.497763 
L 436.463505 305.880905 
L 436.851807 338.386893 
L 437.24007 309.036728 
L 437.628337 311.959044 
L 438.016603 310.817792 
L 438.40486 305.128685 
L 438.793141 322.32501 
L 439.181422 321.780361 
L 439.569689 312.131961 
L 439.957971 322.930172 
L 440.346261 329.223713 
L 440.73451 298.955145 
L 441.511072 329.560859 
L 441.89932 297.649502 
L 442.287611 330.209215 
L 442.675863 300.874677 
L 443.064151 327.321848 
L 443.452417 311.172273 
L 443.840689 315.572952 
L 444.228976 326.984696 
L 444.617247 314.691098 
L 445.005529 323.198172 
L 445.393835 341.369123 
L 445.78212 324.849386 
L 446.170405 325.523698 
L 446.558693 327.823251 
L 446.946897 265.212163 
L 447.335181 324.659194 
L 447.723469 327.14895 
L 448.111736 312.469147 
L 448.500034 335.024247 
L 448.8883 311.120397 
L 449.27658 321.590166 
L 449.664839 305.768504 
L 450.0531 307.696592 
L 450.441377 319.498002 
L 450.829659 323.05985 
L 451.217933 317.34529 
L 451.606192 305.509118 
L 451.99451 349.978346 
L 452.382768 305.526411 
L 452.77103 308.552551 
L 453.159306 318.244418 
L 453.547569 309.443089 
L 453.935843 316.92166 
L 454.324116 316.195434 
L 454.7124 324.451713 
L 455.100657 304.791482 
L 455.488912 303.408075 
L 455.877187 317.518199 
L 456.26546 316.610421 
L 456.653761 337.582977 
L 457.042041 321.443197 
L 457.818595 318.58159 
L 458.206868 316.809268 
L 458.595121 301.237829 
L 458.983446 354.810004 
L 459.371693 297.10476 
L 459.759961 312.693937 
L 460.148265 339.726743 
L 460.536535 314.483602 
L 460.924798 308.414215 
L 461.313071 317.085924 
L 461.701348 319.325095 
L 462.08959 293.109925 
L 462.477868 319.895689 
L 462.866143 318.5643 
L 463.254408 310.307683 
L 463.642699 329.802912 
L 464.030961 308.016497 
L 464.419205 295.332174 
L 464.807483 320.094531 
L 465.195768 324.883966 
L 465.584025 305.0941 
L 465.972303 319.627683 
L 466.360563 306.745521 
L 466.748822 306.356444 
L 467.1371 320.129113 
L 467.525355 303.304319 
L 467.91365 332.793965 
L 468.69018 302.880648 
L 469.078455 318.538363 
L 469.466745 328.687735 
L 470.243269 301.894959 
L 470.631533 309.209647 
L 471.019788 303.122746 
L 471.408071 324.036749 
L 471.796345 317.388517 
L 472.184603 305.301609 
L 472.572901 334.998313 
L 472.961135 287.169347 
L 473.349415 321.935975 
L 473.737659 295.116003 
L 474.125913 301.894959 
L 474.51421 334.557446 
L 474.90249 321.36539 
L 475.290725 288.310787 
L 475.679062 364.196268 
L 476.067257 258.474728 
L 476.455533 318.253064 
L 476.843813 321.693909 
L 477.232054 292.617048 
L 477.620351 334.479646 
L 478.008609 305.223793 
L 478.396869 307.246996 
L 478.785128 305.984659 
L 479.173388 306.287275 
L 479.561663 318.261709 
L 479.949939 318.875534 
L 480.338192 301.142718 
L 480.726444 300.840091 
L 481.114737 331.367604 
L 481.502968 285.379344 
L 481.891245 319.100315 
L 482.279515 314.319334 
L 482.667772 304.393753 
L 483.056044 315.927421 
L 483.444316 315.875548 
L 483.832574 305.076807 
L 484.22084 311.492169 
L 484.609093 301.462637 
L 484.997366 316.299181 
L 485.385596 284.246528 
L 485.773872 319.143542 
L 486.16213 305.137331 
L 486.550382 301.004374 
L 486.938659 318.99657 
L 487.326897 291.017347 
L 487.715151 302.059241 
L 488.103452 337.617554 
L 488.491724 315.547015 
L 488.879958 287.013696 
L 489.268248 329.301516 
L 489.656496 297.908902 
L 490.044749 301.730677 
L 490.43298 285.180453 
L 490.821255 317.500908 
L 491.209505 299.923561 
L 491.597795 328.471615 
L 491.986048 302.171644 
L 492.374296 297.606269 
L 492.762562 311.34519 
L 493.150791 283.51149 
L 493.539062 315.06286 
L 493.927334 315.996586 
L 494.315595 307.074073 
L 494.703866 315.503787 
L 495.09216 331.773902 
L 495.480403 294.043792 
L 495.868657 302.70772 
L 496.256905 297.822436 
L 496.645158 301.505869 
L 497.033392 287.152053 
L 497.421688 333.329927 
L 497.809955 312.399981 
L 498.198315 381.031239 
L 498.586571 303.408075 
L 498.9748 284.315708 
L 499.363073 315.901484 
L 499.751331 305.829028 
L 500.139668 363.772775 
L 500.527877 268.956969 
L 500.916205 357.558531 
L 501.30446 302.984404 
L 501.692737 318.797726 
L 502.080997 307.12595 
L 502.46925 301.609626 
L 502.857504 302.18029 
L 503.245798 332.422248 
L 503.634029 284.95562 
L 504.022278 298.894619 
L 504.410532 302.007362 
L 504.798767 288.077312 
L 505.187016 298.73898 
L 505.575312 333.589263 
L 505.963545 286.442972 
L 506.351799 302.794184 
L 506.740057 305.068161 
L 507.128331 317.077279 
L 507.516583 301.445344 
L 507.904793 269.631542 
L 508.293077 324.451713 
L 508.681328 299.992733 
L 509.069597 313.506638 
L 509.457843 296.127679 
L 509.846111 312.918727 
L 510.234378 311.751545 
L 510.622608 284.903735 
L 511.010873 310.454664 
L 512.175658 306.849274 
L 512.563904 296.361141 
L 512.952175 314.907239 
L 513.340442 312.028211 
L 513.728675 286.503503 
L 514.116945 314.241523 
L 514.505214 313.636324 
L 514.893484 313.999444 
L 515.281752 312.572896 
L 515.669985 287.100169 
L 516.058237 300.520171 
L 516.446448 271.041218 
L 516.834716 312.711229 
L 517.222964 297.805142 
L 517.61121 296.188206 
L 517.999455 295.703987 
L 518.38772 310.437372 
L 518.775946 281.522545 
L 519.16421 309.875387 
L 519.552416 266.794853 
L 519.940669 301.678798 
L 520.328915 295.954743 
L 520.717184 313.766009 
L 521.10542 289.089037 
L 521.493733 345.63058 
L 521.881984 300.649868 
L 522.270199 272.718973 
L 523.046744 329.171844 
L 523.434979 288.379965 
L 523.823206 282.612145 
L 524.211475 313.204037 
L 524.599758 324.1232 
L 525.376252 289.573279 
L 525.764525 316.895723 
L 526.152766 292.78134 
L 526.54104 316.791977 
L 526.929271 285.595529 
L 527.317531 306.32186 
L 527.705783 301.220536 
L 528.094018 288.155137 
L 528.870547 317.794855 
L 529.258785 290.550405 
L 529.647027 292.95428 
L 530.035282 303.589648 
L 530.423517 288.241609 
L 530.811754 289.244686 
L 531.200007 301.566394 
L 531.588244 289.875929 
L 532.364772 315.106089 
L 532.753027 303.070868 
L 533.141302 317.864019 
L 533.529556 302.405097 
L 533.917769 272.347101 
L 534.306001 285.353401 
L 534.694275 317.734336 
L 535.082552 319.376967 
L 535.47079 290.040225 
L 536.247321 318.002346 
L 537.023814 289.175509 
L 537.412084 314.613287 
L 537.800334 299.032964 
L 538.188581 296.983706 
L 538.576831 299.309655 
L 538.965061 284.540542 
L 539.353312 300.105138 
L 539.741523 270.963383 
L 540.129777 302.232169 
L 540.518022 295.392702 
L 540.906276 302.214876 
L 541.29451 287.359588 
L 541.682778 313.082997 
L 542.071036 305.215147 
L 542.459261 281.107458 
L 542.847536 317.405808 
L 543.235794 305.898197 
L 543.624029 287.783305 
L 544.012312 324.278811 
L 544.400541 283.070466 
L 544.788806 311.180919 
L 545.177072 311.111752 
L 545.565317 295.773161 
L 545.953315 111.6 
L 546.341819 487.958242 
L 546.730067 297.632209 
L 547.118296 284.099521 
L 547.506566 313.912987 
L 547.894803 289.9624 
L 548.283063 306.81469 
L 548.671336 316.584484 
L 549.059587 299.854388 
L 549.447859 315.780446 
L 549.836133 317.353935 
L 550.224366 286.685097 
L 550.612593 281.963575 
L 551.000862 313.861112 
L 551.389075 271.897395 
L 551.777328 301.747969 
L 552.165584 303.338904 
L 552.553815 285.751182 
L 552.942071 303.174624 
L 553.330329 305.431303 
L 553.718565 289.504101 
L 554.106761 258.89853 
L 554.495041 321.330809 
L 554.883271 284.54919 
L 555.271504 286.909928 
L 555.659784 321.979201 
L 556.048031 296.793479 
L 556.436286 303.399429 
L 556.82456 317.137798 
L 557.212754 257.575226 
L 557.601006 301.134071 
L 557.989278 315.711281 
L 558.377614 362.666504 
L 558.765845 285.154511 
L 559.154181 363.530779 
L 559.542418 289.936459 
L 559.930654 288.61344 
L 560.318928 317.284771 
L 560.707203 318.304937 
L 561.095451 297.329575 
L 561.483726 318.408682 
L 561.871978 300.234836 
L 562.260229 300.476938 
L 562.648501 315.650762 
L 563.036709 267.884563 
L 563.813188 299.06755 
L 564.201437 298.375821 
L 564.589665 283.44231 
L 564.977932 311.65644 
L 565.366154 278.720681 
L 565.754379 281.046924 
L 566.14263 299.681457 
L 566.530878 297.761909 
L 566.919104 281.928984 
L 567.307366 308.492029 
L 567.695614 297.303635 
L 568.083857 294.095674 
L 568.472143 326.621609 
L 568.860374 285.29287 
L 569.248616 292.833222 
L 569.636848 286.339203 
L 570.025098 299.214543 
L 570.413347 298.63522 
L 570.801604 304.367815 
L 571.189854 299.984086 
L 571.578065 270.06396 
L 571.966338 316.480737 
L 572.354589 300.321301 
L 572.742838 298.323942 
L 573.13111 315.486496 
L 573.519295 251.53804 
L 573.907615 350.980993 
L 574.295848 287.022343 
L 574.684057 268.489954 
L 575.072322 311.180919 
L 575.460602 321.495068 
L 576.237073 279.230901 
L 576.625335 308.241294 
L 577.013558 279.135775 
L 577.401799 292.729458 
L 577.790045 296.335201 
L 578.178312 312.192481 
L 578.566534 278.219107 
L 578.954798 310.108827 
L 579.343067 313.290495 
L 579.731314 297.191228 
L 580.119555 292.478696 
L 580.507798 294.259965 
L 580.896024 281.436069 
L 581.284293 313.895695 
L 581.672518 280.761551 
L 582.060753 288.181079 
L 582.449007 302.024655 
L 583.225454 271.387149 
L 583.613726 315.149317 
L 584.001978 300.978435 
L 584.39023 301.246476 
L 584.778481 300.252129 
L 585.166734 300.91791 
L 585.55496 282.050051 
L 585.943208 297.649502 
L 586.331437 284.004398 
L 587.107954 311.466232 
L 587.496169 273.799991 
L 587.884411 293.308804 
L 588.660912 301.626919 
L 589.049146 287.610359 
L 589.437395 298.816799 
L 589.825645 299.275069 
L 590.21386 273.635677 
L 590.60212 306.615829 
L 590.990348 283.105056 
L 591.378604 303.900915 
L 591.766872 312.114669 
L 592.155078 267.348358 
L 592.543312 286.797513 
L 592.931559 297.355515 
L 593.319812 301.886312 
L 593.708069 304.186243 
L 594.096339 314.72568 
L 594.484575 288.751796 
L 594.872793 275.62473 
L 595.261051 305.48318 
L 595.649303 300.615282 
L 596.037554 300.217543 
L 596.425788 287.549828 
L 596.814045 304.445631 
L 597.202282 289.41763 
L 597.590516 287.316351 
L 597.978771 303.321612 
L 598.366994 279.19631 
L 598.755259 310.428726 
L 599.143507 297.900256 
L 599.531794 327.001986 
L 599.919991 260.005598 
L 600.308235 295.28894 
L 600.696463 283.035875 
L 601.084712 298.367175 
L 601.472938 281.781974 
L 601.861166 282.66403 
L 602.249389 279.213606 
L 602.637634 295.842335 
L 603.025861 282.223003 
L 603.414109 298.099129 
L 603.802362 301.160011 
L 604.190588 281.730089 
L 604.578834 296.049858 
L 604.967083 298.834092 
L 605.355312 284.177348 
L 605.743539 282.318127 
L 606.131813 316.817913 
L 606.520019 267.011066 
L 606.908287 312.668 
L 607.296557 314.025381 
L 607.684805 297.926196 
L 608.073052 296.819419 
L 608.461299 297.441982 
L 608.849526 282.240298 
L 609.237778 300.952495 
L 609.626013 287.887072 
L 610.014251 290.446639 
L 610.402511 307.074073 
L 610.790746 288.224315 
L 611.179001 303.312965 
L 611.567189 252.757607 
L 611.955481 330.563648 
L 612.343688 267.452139 
L 612.73194 300.736333 
L 613.120173 286.979106 
L 613.508399 281.781974 
L 613.896671 315.676699 
L 614.284887 274.07673 
L 614.673118 284.765376 
L 615.06131 256.796807 
L 615.449567 304.575325 
L 615.837808 292.374932 
L 616.226058 299.551759 
L 616.614293 288.319435 
L 617.002527 287.454708 
L 617.390803 318.270355 
L 617.779038 288.665324 
L 618.167269 284.92103 
L 618.555544 317.941828 
L 618.943792 298.038602 
L 619.332022 284.609722 
L 619.720294 315.417331 
L 620.108549 303.287026 
L 620.4968 300.044612 
L 620.885027 281.972222 
L 621.273259 286.572682 
L 621.66149 284.860498 
L 622.049759 313.938924 
L 622.826259 295.31488 
L 623.214506 296.810772 
L 623.990942 269.242366 
L 624.379175 286.693745 
L 624.767412 290.135343 
L 625.155642 284.27247 
L 625.543895 301.298354 
L 625.93215 303.60694 
L 626.708596 272.658436 
L 627.485077 299.517173 
L 627.873353 318.719917 
L 628.261584 284.95562 
L 628.649799 273.592436 
L 629.038054 303.434014 
L 629.426289 287.938956 
L 629.814428 217.057233 
L 630.202749 351.793478 
L 630.590991 293.308804 
L 630.979232 293.06669 
L 631.367469 289.348452 
L 631.755707 290.835759 
L 632.143943 288.405907 
L 632.532157 272.848696 
L 632.920396 291.21623 
L 633.308634 290.602287 
L 633.696869 287.843836 
L 634.085145 319.255932 
L 634.473361 274.137267 
L 634.861619 304.95576 
L 635.249859 292.06364 
L 635.638058 261.060764 
L 636.026313 303.261087 
L 636.414551 290.446639 
L 636.802763 271.456335 
L 637.191002 290.827112 
L 637.579253 300.278068 
L 637.967506 301.618273 
L 638.355716 269.735323 
L 638.743934 275.417178 
L 639.132172 290.420698 
L 639.520423 300.234836 
L 639.908656 286.93587 
L 640.296864 268.048884 
L 640.685159 333.044657 
L 641.073394 288.094606 
L 641.461609 273.341641 
L 641.849878 313.273203 
L 642.238082 265.056488 
L 642.626315 287.264468 
L 643.014564 298.462288 
L 643.402798 287.281762 
L 643.791049 300.269422 
L 644.17928 284.843203 
L 644.567529 298.522814 
L 644.955766 289.971048 
L 645.344039 316.619066 
L 645.732273 287.437414 
L 646.120524 299.992733 
L 646.508755 285.362049 
L 646.896988 286.745629 
L 647.285221 286.711039 
L 647.673494 316.670939 
L 648.061728 287.177995 
L 648.449941 271.612003 
L 648.838196 303.27838 
L 649.226412 274.2151 
L 649.614653 292.738105 
L 650.00285 259.564501 
L 650.391102 301.116779 
L 650.779336 287.809247 
L 651.167571 288.284846 
L 651.555813 293.386627 
L 651.944046 286.736981 
L 652.332282 288.795032 
L 652.720498 274.232396 
L 653.108731 286.494856 
L 653.49697 291.250818 
L 653.885208 290.59364 
L 654.273483 317.388517 
L 654.661716 287.446061 
L 655.049953 289.547337 
L 655.43821 304.575325 
L 655.82643 277.215954 
L 656.214666 288.933387 
L 656.602905 290.844406 
L 656.991142 290.057519 
L 657.379396 302.370511 
L 657.767615 275.962002 
L 658.155863 297.735969 
L 658.544058 258.742847 
L 658.932299 292.262521 
L 659.320553 302.578025 
L 660.097009 277.293785 
L 660.485243 287.601712 
L 660.873481 290.584993 
L 661.26174 306.192167 
L 661.649937 259.555852 
L 662.038173 289.305216 
L 662.426383 269.423982 
L 662.814641 305.422656 
L 663.202895 302.690428 
L 663.591118 278.919581 
L 663.979369 300.234836 
L 664.367566 259.676938 
L 664.7558 288.068664 
L 665.14406 306.641767 
L 665.532292 286.062488 
L 665.920517 280.484824 
L 666.308776 306.25269 
L 666.696964 253.155477 
L 667.085193 283.917923 
L 667.473406 272.01847 
L 667.861659 301.45399 
L 668.249891 286.278672 
L 668.63812 283.485548 
L 669.026349 283.943866 
L 669.414559 269.233717 
L 669.802808 298.63522 
L 670.190977 239.090953 
L 670.579204 282.41325 
L 670.967457 301.739323 
L 671.355681 280.398347 
L 671.743903 278.314233 
L 672.13211 267.426194 
L 672.520356 296.153619 
L 672.90857 272.840048 
L 673.296791 277.847249 
L 673.685009 275.849578 
L 674.461483 294.043792 
L 674.849724 292.651636 
L 675.237948 280.04379 
L 675.62616 271.421742 
L 676.014365 265.964592 
L 676.402573 267.668352 
L 676.790799 281.643612 
L 677.179029 284.497305 
L 677.567296 311.993628 
L 677.955531 288.016781 
L 678.343782 300.502878 
L 678.732015 286.624566 
L 679.120261 296.456256 
L 679.508513 300.909263 
L 679.896747 287.619007 
L 680.285001 302.39645 
L 680.67326 305.751212 
L 681.061509 298.808152 
L 681.449782 316.160852 
L 681.837989 267.192685 
L 682.226237 298.522814 
L 682.614506 313.195391 
L 683.002754 297.735969 
L 683.390999 296.136326 
L 683.77925 299.828449 
L 684.167494 294.675014 
L 684.55576 311.544044 
L 684.944013 301.402112 
L 685.332264 300.157017 
L 685.720498 287.809247 
L 686.108754 303.736635 
L 686.497007 301.410758 
L 686.885268 307.359395 
L 687.273522 302.361865 
L 687.6616 171.681561 
L 688.050045 444.317629 
L 688.438319 317.068633 
L 688.826575 303.572355 
L 689.214841 311.397065 
L 689.603077 288.950682 
L 689.991356 320.777511 
L 690.37961 302.240815 
L 690.76785 291.899347 
L 691.156112 308.768702 
L 691.544369 304.315937 
L 691.932624 303.295673 
L 692.320888 309.382567 
L 692.709148 307.074073 
L 693.097411 308.993498 
L 693.485652 292.755399 
L 693.873896 294.528018 
L 694.262158 308.716826 
L 695.038644 289.953753 
L 695.426902 305.050869 
L 695.815143 293.109925 
L 696.203406 308.96756 
L 696.591648 292.971573 
L 696.979891 294.545311 
L 697.368149 305.171916 
L 697.756428 320.984998 
L 698.144666 290.178579 
L 698.532928 308.466091 
L 699.309388 278.072093 
L 699.697629 292.824575 
L 700.085901 315.374103 
L 700.474181 321.719845 
L 700.862438 304.583971 
L 701.250698 307.030843 
L 701.638938 291.994464 
L 702.027197 305.465887 
L 702.415456 306.538013 
L 702.803718 308.215356 
L 703.191956 290.014283 
L 703.580214 305.73392 
L 703.968453 290.731994 
L 704.356712 306.36509 
L 704.744984 316.005231 
L 705.133183 260.93968 
L 705.521444 307.912744 
L 705.909725 322.255848 
L 706.297958 286.615919 
L 706.686198 291.856111 
L 707.074461 309.235585 
L 707.462723 308.224002 
L 707.850962 290.878994 
L 708.239205 294.787423 
L 708.627451 295.712633 
L 709.015694 294.649074 
L 709.403956 308.466091 
L 709.792204 297.614916 
L 710.180427 279.066593 
L 710.568689 308.224002 
L 710.956913 280.467529 
L 711.345179 311.025293 
L 711.733445 311.440294 
L 712.121701 303.356197 
L 712.509983 323.293269 
L 712.898251 312.83227 
L 713.286498 296.802125 
L 713.67474 293.611447 
L 714.063008 312.83227 
L 714.451269 307.895452 
L 714.839528 305.388072 
L 715.22777 293.948676 
L 715.616032 307.930036 
L 716.004296 310.255808 
L 716.780737 265.955943 
L 717.168983 296.084445 
L 717.557245 308.29317 
L 717.945493 298.064542 
L 718.333757 309.555486 
L 718.721997 291.959876 
L 719.110278 322.765914 
L 719.498504 280.960447 
L 719.88677 311.569982 
L 720.275009 291.441054 
L 720.66325 292.470049 
L 721.051491 292.798634 
L 721.43975 305.509118 
L 721.827995 295.894216 
L 722.216261 310.973418 
L 722.604458 260.524533 
L 722.992718 306.408321 
L 723.38096 293.914089 
L 723.769228 312.166544 
L 724.157484 304.143011 
L 724.545736 300.909263 
L 724.933972 288.795032 
L 725.322209 289.815399 
L 725.710461 300.459645 
L 726.098763 338.48198 
L 726.486997 287.333646 
L 726.875273 318.953343 
L 727.263535 307.662008 
L 727.651771 289.47816 
L 728.039999 283.01858 
L 728.428227 283.044523 
L 728.816468 292.617048 
L 729.204733 309.979138 
L 729.592979 296.352495 
L 729.981223 295.487816 
L 730.369514 329.284226 
L 730.757756 293.542272 
L 731.145964 268.628329 
L 731.534212 297.943489 
L 731.922459 296.447609 
L 732.310706 297.381455 
L 732.698968 308.198064 
L 733.087294 356.279349 
L 733.475539 295.003594 
L 733.863865 355.734829 
L 734.252069 265.79162 
L 734.640337 312.590188 
L 735.028607 314.034026 
L 735.416869 308.457445 
L 735.80513 307.229703 
L 736.193385 303.226502 
L 736.58163 295.574285 
L 736.969848 275.979298 
L 737.358094 295.954743 
L 738.134584 295.842335 
L 738.522853 312.918727 
L 738.911096 294.545311 
L 739.299384 327.840541 
L 739.687652 312.711229 
L 740.075869 274.863705 
L 740.464117 297.857022 
L 740.852382 310.324975 
L 741.240646 309.278815 
L 741.628913 312.080086 
L 742.017182 313.515284 
L 742.405446 309.987784 
L 742.793638 256.416244 
L 743.181926 327.356427 
L 743.570159 286.858044 
L 744.346676 312.44321 
L 744.734907 285.327459 
L 745.123151 295.090063 
L 745.511399 297.208521 
L 745.899606 267.642406 
L 746.28787 309.944554 
L 746.676162 330.183281 
L 747.064409 297.692736 
L 747.452657 297.346868 
L 747.840909 301.082193 
L 748.229152 294.519371 
L 748.61738 282.785096 
L 749.005631 300.278068 
L 749.393878 296.57731 
L 749.782105 282.499726 
L 750.170373 312.598834 
L 750.558588 273.237863 
L 750.946883 332.802609 
L 751.335111 283.355835 
L 751.723323 271.136349 
L 752.111573 299.257775 
L 752.499845 316.048459 
L 752.888133 327.702223 
L 753.276363 283.943866 
L 753.664627 309.616008 
L 754.052893 311.327898 
L 754.441122 284.30706 
L 754.829389 311.716961 
L 755.605856 278.954172 
L 755.994119 308.543905 
L 756.382364 296.25738 
L 756.770609 295.176531 
L 757.158851 293.654682 
L 757.547074 279.291436 
L 757.93532 296.240087 
L 758.323604 324.780225 
L 758.711845 292.824575 
L 759.488394 324.036749 
L 759.876644 299.534466 
L 760.264881 290.074813 
L 760.653114 286.425677 
L 761.041378 309.365275 
L 761.429622 295.12465 
L 761.81786 290.437992 
L 762.206102 293.922736 
L 762.594362 306.581244 
L 762.982622 306.572598 
L 763.370824 264.035946 
L 764.147343 321.356744 
L 764.535583 291.97717 
L 765.312122 321.209775 
L 766.088596 279.914074 
L 766.476889 331.514563 
L 766.865139 299.076197 
L 767.253364 281.271763 
L 767.641611 296.871299 
L 768.029854 294.21673 
L 768.418098 294.605839 
L 768.806348 299.681457 
L 769.194591 293.775738 
L 769.582815 280.320518 
L 769.971074 306.192167 
L 770.359334 306.32186 
L 770.747595 308.077019 
L 771.135855 306.261337 
L 771.52408 281.444717 
L 771.912334 302.154351 
L 772.300586 301.047607 
L 772.68881 279.628699 
L 773.077078 312.737166 
L 773.465325 297.277695 
L 773.853574 298.228829 
L 774.241832 305.811735 
L 774.630034 263.664051 
L 775.0183 311.189564 
L 775.406546 296.585957 
L 775.794789 294.052439 
L 776.183038 298.522814 
L 776.571318 321.235711 
L 776.959587 314.008089 
L 777.347824 289.694339 
L 777.736051 282.283536 
L 778.124316 310.342267 
L 778.90078 277.838601 
L 779.289041 307.843575 
L 779.677324 323.621784 
L 780.065571 297.416042 
L 780.453808 289.521396 
L 780.842052 295.003594 
L 781.230298 296.240087 
L 781.618544 296.784832 
L 782.006813 312.979248 
L 782.395034 277.942376 
L 782.783298 309.503611 
L 783.171544 296.776185 
L 783.55979 296.456256 
L 783.948041 299.958147 
L 784.336284 294.026499 
L 784.724526 293.870854 
L 785.501018 296.810772 
L 785.889246 283.450957 
L 786.277493 296.931826 
L 786.665737 294.63178 
L 787.054006 313.774655 
L 787.442291 325.247057 
L 787.830511 277.267841 
L 788.218774 308.829224 
L 788.607012 290.394757 
L 788.995257 295.894216 
L 789.383483 281.107458 
L 789.771748 310.567061 
L 790.159988 291.882053 
L 790.548251 309.261523 
L 790.936522 314.864011 
L 791.324762 292.132816 
L 791.713007 295.262999 
L 792.101251 295.211118 
L 792.489479 282.897514 
L 792.87772 292.435461 
L 793.265988 312.858207 
L 793.65423 293.455802 
L 794.042473 294.182143 
L 794.43074 312.374043 
L 795.207203 278.028854 
L 795.595449 296.144972 
L 795.983692 294.32914 
L 796.371918 281.557136 
L 796.760185 311.768836 
L 797.14841 280.804789 
L 797.536637 282.750506 
L 797.92488 293.983264 
L 798.313128 297.658149 
L 798.701357 284.108168 
L 799.089643 325.601503 
L 799.477881 290.904935 
L 799.866152 315.149317 
L 800.254394 293.369333 
L 800.642634 291.795582 
L 801.030852 275.590138 
L 801.419089 289.530043 
L 801.807351 308.180772 
L 802.195584 286.771571 
L 802.583842 305.638812 
L 803.360298 275.140442 
L 804.136805 309.659238 
L 804.525042 289.884576 
L 804.913303 307.28158 
L 805.301541 290.766582 
L 805.689783 293.196394 
L 806.078043 306.667706 
L 806.466289 296.620544 
L 806.854528 290.956818 
L 807.242789 307.87816 
L 807.631016 282.223003 
L 808.019298 322.895592 
L 808.407538 292.314403 
L 808.795787 298.099129 
L 809.184011 280.190802 
L 809.572253 293.793032 
L 809.960494 292.124169 
L 810.348754 306.918443 
L 810.736986 286.494856 
L 811.125227 292.608401 
L 811.513461 287.299057 
L 811.9017 291.233524 
L 812.289955 302.595317 
L 812.678169 273.116789 
L 813.066426 304.436985 
L 813.454666 292.15011 
L 813.842901 288.232962 
L 814.231145 294.726895 
L 814.619387 293.101278 
L 815.007629 293.291511 
L 815.395842 272.217378 
L 816.172313 293.611447 
L 816.560578 310.8005 
L 816.948819 292.720811 
L 817.337085 310.679457 
L 817.725346 307.930036 
L 818.113591 295.842335 
L 818.501837 295.833688 
L 818.890082 296.067151 
L 819.278346 309.443089 
L 819.666576 284.799966 
L 820.054816 291.717759 
L 820.443045 284.220586 
L 820.831273 283.009933 
L 821.219521 297.182581 
L 821.607774 301.834434 
L 821.995997 279.637346 
L 822.384224 281.790622 
L 822.772468 295.513757 
L 823.160714 295.876922 
L 823.548959 295.902863 
L 823.937161 263.369995 
L 824.325408 297.467922 
L 824.713633 281.090162 
L 825.101942 342.942333 
L 825.49013 252.965192 
L 825.878371 293.118572 
L 826.266619 297.744616 
L 826.654844 280.9518 
L 827.043088 294.458843 
L 827.431333 295.946097 
L 827.819557 279.879483 
L 828.207823 311.224148 
L 828.59607 297.122054 
L 828.984311 292.850516 
L 829.372575 309.875387 
L 829.760802 282.292184 
L 830.149042 292.011758 
L 830.537305 308.872454 
L 830.925568 308.742764 
L 831.313808 292.245227 
L 831.702076 312.702583 
L 832.090343 312.17519 
L 832.866808 278.201811 
L 833.255054 296.170913 
L 833.643279 280.752903 
L 834.031546 311.90717 
L 834.419782 288.933387 
L 834.808028 296.387082 
L 835.196295 312.045503 
L 835.584479 250.344412 
L 835.972729 299.162663 
L 836.360976 296.97506 
L 836.749228 300.822798 
L 837.137458 285.163158 
L 837.525705 297.070174 
L 837.913937 285.984661 
L 838.302162 280.208097 
L 838.690408 297.087467 
L 839.078659 299.577699 
L 839.46691 300.243482 
L 839.855157 297.139347 
L 840.243406 298.946498 
L 840.63165 294.588546 
L 841.019913 309.244231 
L 841.408127 272.165489 
L 841.796377 299.49988 
L 842.184648 315.26171 
L 842.57289 292.911045 
L 842.961137 297.320928 
L 843.737621 292.098228 
L 844.125844 279.403857 
L 844.514045 263.032694 
L 844.902293 297.831082 
L 845.290521 282.715916 
L 845.678787 311.673732 
L 846.067019 285.69065 
L 846.45527 300.37318 
L 846.843517 296.94912 
L 847.231718 263.257561 
L 848.008188 295.946097 
L 848.396438 299.716044 
L 848.784661 278.68609 
L 849.172903 293.533625 
L 849.561131 283.001285 
L 849.949413 323.639074 
L 850.337642 283.675793 
L 851.114157 311.120397 
L 851.502481 354.308694 
L 851.890641 232.681019 
L 852.278888 297.234461 
L 852.667136 297.787849 
L 853.055347 270.262871 
L 853.443591 294.969007 
L 853.83184 298.151009 
L 854.220112 316.28189 
L 854.608343 284.644312 
L 854.996594 300.278068 
L 855.384853 305.880905 
L 856.161293 269.008859 
L 856.549547 302.223522 
L 856.937775 282.906162 
L 857.32602 295.686693 
L 857.714238 276.065778 
L 858.102472 287.056932 
L 858.490762 329.016238 
L 858.878955 257.05628 
L 859.267207 300.623929 
L 859.655461 302.387804 
L 860.043698 289.702986 
L 860.43191 271.456335 
L 860.820159 298.462288 
L 861.208383 280.208097 
L 861.596634 300.433706 
L 861.984843 268.775352 
L 862.3731 304.480216 
L 862.761335 288.319435 
L 863.149598 308.682241 
L 863.537845 297.243108 
L 863.926112 311.933107 
L 864.314361 298.704393 
L 864.702572 270.530969 
L 865.090818 296.585957 
L 865.479078 306.192167 
L 865.867345 312.227065 
L 866.255592 297.217168 
L 866.643836 294.692308 
L 867.032065 283.840096 
L 867.420306 292.478696 
L 867.808517 270.894197 
L 868.196756 291.268112 
L 868.584982 281.185287 
L 868.973246 309.979138 
L 869.36147 280.061086 
L 869.749709 291.095171 
L 870.137976 311.587274 
L 870.526175 261.536451 
L 870.914416 293.239629 
L 871.690909 297.735969 
L 871.690909 297.735969 
" clip-path="url(#p0b29160456)" style="fill: none; stroke: #1f77b4; stroke-width: 1.5; stroke-linecap: square"/>
   </g>
   <g id="line2d_15">
    <path d="M 126 328.970047 
L 907.2 328.970047 
" clip-path="url(#p0b29160456)" style="fill: none; stroke-dasharray: 5.55,2.4; stroke-dashoffset: 0; stroke: #0000ff; stroke-width: 1.5"/>
   </g>
   <g id="patch_3">
    <path d="M 126 640.8 
L 126 86.4 
" style="fill: none; stroke: #000000; stroke-width: 0.8; stroke-linejoin: miter; stroke-linecap: square"/>
   </g>
   <g id="patch_4">
    <path d="M 907.2 640.8 
L 907.2 86.4 
" style="fill: none; stroke: #000000; stroke-width: 0.8; stroke-linejoin: miter; stroke-linecap: square"/>
   </g>
   <g id="patch_5">
    <path d="M 126 640.8 
L 907.2 640.8 
" style="fill: none; stroke: #000000; stroke-width: 0.8; stroke-linejoin: miter; stroke-linecap: square"/>
   </g>
   <g id="patch_6">
    <path d="M 126 86.4 
L 907.2 86.4 
" style="fill: none; stroke: #000000; stroke-width: 0.8; stroke-linejoin: miter; stroke-linecap: square"/>
   </g>
   <g id="text_16">
    <!-- Packet Rate from Timestamps (SelectionProcess: 16777217) -->
    <g transform="translate(335.46 80.4) scale(0.12 -0.12)">
     <defs>
      <path id="DejaVuSans-52" d="M 2841 2188 
Q 3044 2119 3236 1894 
Q 3428 1669 3622 1275 
L 4263 0 
L 3584 0 
L 2988 1197 
Q 2756 1666 2539 1819 
Q 2322 1972 1947 1972 
L 1259 1972 
L 1259 0 
L 628 0 
L 628 4666 
L 2053 4666 
Q 2853 4666 3247 4331 
Q 3641 3997 3641 3322 
Q 3641 2881 3436 2590 
Q 3231 2300 2841 2188 
z
M 1259 4147 
L 1259 2491 
L 2053 2491 
Q 2509 2491 2742 2702 
Q 2975 2913 2975 3322 
Q 2975 3731 2742 3939 
Q 2509 4147 2053 4147 
L 1259 4147 
z
" transform="scale(0.015625)"/>
      <path id="DejaVuSans-66" d="M 2375 4863 
L 2375 4384 
L 1825 4384 
Q 1516 4384 1395 4259 
Q 1275 4134 1275 3809 
L 1275 3500 
L 2222 3500 
L 2222 3053 
L 1275 3053 
L 1275 0 
L 697 0 
L 697 3053 
L 147 3053 
L 147 3500 
L 697 3500 
L 697 3744 
Q 697 4328 969 4595 
Q 1241 4863 1831 4863 
L 2375 4863 
z
" transform="scale(0.015625)"/>
      <path id="DejaVuSans-6c" d="M 603 4863 
L 1178 4863 
L 1178 0 
L 603 0 
L 603 4863 
z
" transform="scale(0.015625)"/>
      <path id="DejaVuSans-3a" d="M 750 794 
L 1409 794 
L 1409 0 
L 750 0 
L 750 794 
z
M 750 3309 
L 1409 3309 
L 1409 2516 
L 750 2516 
L 750 3309 
z
" transform="scale(0.015625)"/>
     </defs>
     <use xlink:href="#DejaVuSans-50"/>
     <use xlink:href="#DejaVuSans-61" x="55.802734"/>
     <use xlink:href="#DejaVuSans-63" x="117.082031"/>
     <use xlink:href="#DejaVuSans-6b" x="172.0625"/>
     <use xlink:href="#DejaVuSans-65" x="226.347656"/>
     <use xlink:href="#DejaVuSans-74" x="287.871094"/>
     <use xlink:href="#DejaVuSans-20" x="327.080078"/>
     <use xlink:href="#DejaVuSans-52" x="358.867188"/>
     <use xlink:href="#DejaVuSans-61" x="426.099609"/>
     <use xlink:href="#DejaVuSans-74" x="487.378906"/>
     <use xlink:href="#DejaVuSans-65" x="526.587891"/>
     <use xlink:href="#DejaVuSans-20" x="588.111328"/>
     <use xlink:href="#DejaVuSans-66" x="619.898438"/>
     <use xlink:href="#DejaVuSans-72" x="655.103516"/>
     <use xlink:href="#DejaVuSans-6f" x="693.966797"/>
     <use xlink:href="#DejaVuSans-6d" x="755.148438"/>
     <use xlink:href="#DejaVuSans-20" x="852.560547"/>
     <use xlink:href="#DejaVuSans-54" x="884.347656"/>
     <use xlink:href="#DejaVuSans-69" x="942.306641"/>
     <use xlink:href="#DejaVuSans-6d" x="970.089844"/>
     <use xlink:href="#DejaVuSans-65" x="1067.501953"/>
     <use xlink:href="#DejaVuSans-73" x="1129.025391"/>
     <use xlink:href="#DejaVuSans-74" x="1181.125"/>
     <use xlink:href="#DejaVuSans-61" x="1220.333984"/>
     <use xlink:href="#DejaVuSans-6d" x="1281.613281"/>
     <use xlink:href="#DejaVuSans-70" x="1379.025391"/>
     <use xlink:href="#DejaVuSans-73" x="1442.501953"/>
     <use xlink:href="#DejaVuSans-20" x="1494.601562"/>
     <use xlink:href="#DejaVuSans-28" x="1526.388672"/>
     <use xlink:href="#DejaVuSans-53" x="1565.402344"/>
     <use xlink:href="#DejaVuSans-65" x="1628.878906"/>
     <use xlink:href="#DejaVuSans-6c" x="1690.402344"/>
     <use xlink:href="#DejaVuSans-65" x="1718.185547"/>
     <use xlink:href="#DejaVuSans-63" x="1779.708984"/>
     <use xlink:href="#DejaVuSans-74" x="1834.689453"/>
     <use xlink:href="#DejaVuSans-69" x="1873.898438"/>
     <use xlink:href="#DejaVuSans-6f" x="1901.681641"/>
     <use xlink:href="#DejaVuSans-6e" x="1962.863281"/>
     <use xlink:href="#DejaVuSans-50" x="2026.242188"/>
     <use xlink:href="#DejaVuSans-72" x="2084.794922"/>
     <use xlink:href="#DejaVuSans-6f" x="2123.658203"/>
     <use xlink:href="#DejaVuSans-63" x="2184.839844"/>
     <use xlink:href="#DejaVuSans-65" x="2239.820312"/>
     <use xlink:href="#DejaVuSans-73" x="2301.34375"/>
     <use xlink:href="#DejaVuSans-73" x="2353.443359"/>
     <use xlink:href="#DejaVuSans-3a" x="2405.542969"/>
     <use xlink:href="#DejaVuSans-20" x="2439.234375"/>
     <use xlink:href="#DejaVuSans-31" x="2471.021484"/>
     <use xlink:href="#DejaVuSans-36" x="2534.644531"/>
     <use xlink:href="#DejaVuSans-37" x="2598.267578"/>
     <use xlink:href="#DejaVuSans-37" x="2661.890625"/>
     <use xlink:href="#DejaVuSans-37" x="2725.513672"/>
     <use xlink:href="#DejaVuSans-32" x="2789.136719"/>
     <use xlink:href="#DejaVuSans-31" x="2852.759766"/>
     <use xlink:href="#DejaVuSans-37" x="2916.382812"/>
     <use xlink:href="#DejaVuSans-29" x="2980.005859"/>
    </g>
   </g>
   <g id="legend_1">
    <g id="patch_7">
     <path d="M 718.74375 123.75625 
L 900.2 123.75625 
Q 902.2 123.75625 902.2 121.75625 
L 902.2 93.4 
Q 902.2 91.4 900.2 91.4 
L 718.74375 91.4 
Q 716.74375 91.4 716.74375 93.4 
L 716.74375 121.75625 
Q 716.74375 123.75625 718.74375 123.75625 
z
" style="fill: #ffffff; opacity: 0.8; stroke: #cccccc; stroke-linejoin: miter"/>
    </g>
    <g id="line2d_16">
     <path d="M 720.74375 99.498437 
L 730.74375 99.498437 
L 740.74375 99.498437 
" style="fill: none; stroke: #1f77b4; stroke-width: 1.5; stroke-linecap: square"/>
    </g>
    <g id="text_17">
     <!-- Packet Rate from Timestamps -->
     <g transform="translate(748.74375 102.998437) scale(0.1 -0.1)">
      <use xlink:href="#DejaVuSans-50"/>
      <use xlink:href="#DejaVuSans-61" x="55.802734"/>
      <use xlink:href="#DejaVuSans-63" x="117.082031"/>
      <use xlink:href="#DejaVuSans-6b" x="172.0625"/>
      <use xlink:href="#DejaVuSans-65" x="226.347656"/>
      <use xlink:href="#DejaVuSans-74" x="287.871094"/>
      <use xlink:href="#DejaVuSans-20" x="327.080078"/>
      <use xlink:href="#DejaVuSans-52" x="358.867188"/>
      <use xlink:href="#DejaVuSans-61" x="426.099609"/>
      <use xlink:href="#DejaVuSans-74" x="487.378906"/>
      <use xlink:href="#DejaVuSans-65" x="526.587891"/>
      <use xlink:href="#DejaVuSans-20" x="588.111328"/>
      <use xlink:href="#DejaVuSans-66" x="619.898438"/>
      <use xlink:href="#DejaVuSans-72" x="655.103516"/>
      <use xlink:href="#DejaVuSans-6f" x="693.966797"/>
      <use xlink:href="#DejaVuSans-6d" x="755.148438"/>
      <use xlink:href="#DejaVuSans-20" x="852.560547"/>
      <use xlink:href="#DejaVuSans-54" x="884.347656"/>
      <use xlink:href="#DejaVuSans-69" x="942.306641"/>
      <use xlink:href="#DejaVuSans-6d" x="970.089844"/>
      <use xlink:href="#DejaVuSans-65" x="1067.501953"/>
      <use xlink:href="#DejaVuSans-73" x="1129.025391"/>
      <use xlink:href="#DejaVuSans-74" x="1181.125"/>
      <use xlink:href="#DejaVuSans-61" x="1220.333984"/>
      <use xlink:href="#DejaVuSans-6d" x="1281.613281"/>
      <use xlink:href="#DejaVuSans-70" x="1379.025391"/>
      <use xlink:href="#DejaVuSans-73" x="1442.501953"/>
     </g>
    </g>
    <g id="line2d_17">
     <path d="M 720.74375 114.176562 
L 730.74375 114.176562 
L 740.74375 114.176562 
" style="fill: none; stroke-dasharray: 5.55,2.4; stroke-dashoffset: 0; stroke: #0000ff; stroke-width: 1.5"/>
    </g>
    <g id="text_18">
     <!-- Packet Rate Average -->
     <g transform="translate(748.74375 117.676562) scale(0.1 -0.1)">
      <defs>
       <path id="DejaVuSans-41" d="M 2188 4044 
L 1331 1722 
L 3047 1722 
L 2188 4044 
z
M 1831 4666 
L 2547 4666 
L 4325 0 
L 3669 0 
L 3244 1197 
L 1141 1197 
L 716 0 
L 50 0 
L 1831 4666 
z
" transform="scale(0.015625)"/>
       <path id="DejaVuSans-76" d="M 191 3500 
L 800 3500 
L 1894 563 
L 2988 3500 
L 3597 3500 
L 2284 0 
L 1503 0 
L 191 3500 
z
" transform="scale(0.015625)"/>
       <path id="DejaVuSans-67" d="M 2906 1791 
Q 2906 2416 2648 2759 
Q 2391 3103 1925 3103 
Q 1463 3103 1205 2759 
Q 947 2416 947 1791 
Q 947 1169 1205 825 
Q 1463 481 1925 481 
Q 2391 481 2648 825 
Q 2906 1169 2906 1791 
z
M 3481 434 
Q 3481 -459 3084 -895 
Q 2688 -1331 1869 -1331 
Q 1566 -1331 1297 -1286 
Q 1028 -1241 775 -1147 
L 775 -588 
Q 1028 -725 1275 -790 
Q 1522 -856 1778 -856 
Q 2344 -856 2625 -561 
Q 2906 -266 2906 331 
L 2906 616 
Q 2728 306 2450 153 
Q 2172 0 1784 0 
Q 1141 0 747 490 
Q 353 981 353 1791 
Q 353 2603 747 3093 
Q 1141 3584 1784 3584 
Q 2172 3584 2450 3431 
Q 2728 3278 2906 2969 
L 2906 3500 
L 3481 3500 
L 3481 434 
z
" transform="scale(0.015625)"/>
      </defs>
      <use xlink:href="#DejaVuSans-50"/>
      <use xlink:href="#DejaVuSans-61" x="55.802734"/>
      <use xlink:href="#DejaVuSans-63" x="117.082031"/>
      <use xlink:href="#DejaVuSans-6b" x="172.0625"/>
      <use xlink:href="#DejaVuSans-65" x="226.347656"/>
      <use xlink:href="#DejaVuSans-74" x="287.871094"/>
      <use xlink:href="#DejaVuSans-20" x="327.080078"/>
      <use xlink:href="#DejaVuSans-52" x="358.867188"/>
      <use xlink:href="#DejaVuSans-61" x="426.099609"/>
      <use xlink:href="#DejaVuSans-74" x="487.378906"/>
      <use xlink:href="#DejaVuSans-65" x="526.587891"/>
      <use xlink:href="#DejaVuSans-20" x="588.111328"/>
      <use xlink:href="#DejaVuSans-41" x="619.898438"/>
      <use xlink:href="#DejaVuSans-76" x="682.431641"/>
      <use xlink:href="#DejaVuSans-65" x="741.611328"/>
      <use xlink:href="#DejaVuSans-72" x="803.134766"/>
      <use xlink:href="#DejaVuSans-61" x="844.248047"/>
      <use xlink:href="#DejaVuSans-67" x="905.527344"/>
      <use xlink:href="#DejaVuSans-65" x="969.003906"/>
     </g>
    </g>
   </g>
  </g>
 </g>
 <defs>
  <clipPath id="p0b29160456">
   <rect x="126" y="86.4" width="781.2" height="554.4"/>
  </clipPath>
 </defs>
</svg>
