<?xml version="1.0" encoding="utf-8" standalone="no"?>
<!DOCTYPE svg PUBLIC "-//W3C//DTD SVG 1.1//EN"
  "http://www.w3.org/Graphics/SVG/1.1/DTD/svg11.dtd">
<svg xmlns:xlink="http://www.w3.org/1999/xlink" width="1008pt" height="720pt" viewBox="0 0 1008 720" xmlns="http://www.w3.org/2000/svg" version="1.1">
 <metadata>
  <rdf:RDF xmlns:dc="http://purl.org/dc/elements/1.1/" xmlns:cc="http://creativecommons.org/ns#" xmlns:rdf="http://www.w3.org/1999/02/22-rdf-syntax-ns#">
   <cc:Work>
    <dc:type rdf:resource="http://purl.org/dc/dcmitype/StillImage"/>
    <dc:date>2023-03-21T15:09:55.345898</dc:date>
    <dc:format>image/svg+xml</dc:format>
    <dc:creator>
     <cc:Agent>
      <dc:title>Matplotlib v3.6.2, https://matplotlib.org/</dc:title>
     </cc:Agent>
    </dc:creator>
   </cc:Work>
  </rdf:RDF>
 </metadata>
 <defs>
  <style type="text/css">*{stroke-linejoin: round; stroke-linecap: butt}</style>
 </defs>
 <g id="figure_1">
  <g id="patch_1">
   <path d="M 0 720 
L 1008 720 
L 1008 0 
L 0 0 
z
" style="fill: #ffffff"/>
  </g>
  <g id="axes_1">
   <g id="patch_2">
    <path d="M 126 640.8 
L 907.2 640.8 
L 907.2 86.4 
L 126 86.4 
z
" style="fill: #ffffff"/>
   </g>
   <g id="matplotlib.axis_1">
    <g id="xtick_1">
     <g id="line2d_1">
      <defs>
       <path id="m93cec2461d" d="M 0 0 
L 0 3.5 
" style="stroke: #000000; stroke-width: 0.8"/>
      </defs>
      <g>
       <use xlink:href="#m93cec2461d" x="144.728069" y="640.8" style="stroke: #000000; stroke-width: 0.8"/>
      </g>
     </g>
     <g id="text_1">
      <!-- 0 -->
      <g transform="translate(141.546819 655.398438) scale(0.1 -0.1)">
       <defs>
        <path id="DejaVuSans-30" d="M 2034 4250 
Q 1547 4250 1301 3770 
Q 1056 3291 1056 2328 
Q 1056 1369 1301 889 
Q 1547 409 2034 409 
Q 2525 409 2770 889 
Q 3016 1369 3016 2328 
Q 3016 3291 2770 3770 
Q 2525 4250 2034 4250 
z
M 2034 4750 
Q 2819 4750 3233 4129 
Q 3647 3509 3647 2328 
Q 3647 1150 3233 529 
Q 2819 -91 2034 -91 
Q 1250 -91 836 529 
Q 422 1150 422 2328 
Q 422 3509 836 4129 
Q 1250 4750 2034 4750 
z
" transform="scale(0.015625)"/>
       </defs>
       <use xlink:href="#DejaVuSans-30"/>
      </g>
     </g>
    </g>
    <g id="xtick_2">
     <g id="line2d_2">
      <g>
       <use xlink:href="#m93cec2461d" x="260.753687" y="640.8" style="stroke: #000000; stroke-width: 0.8"/>
      </g>
     </g>
     <g id="text_2">
      <!-- 10 -->
      <g transform="translate(254.391187 655.398438) scale(0.1 -0.1)">
       <defs>
        <path id="DejaVuSans-31" d="M 794 531 
L 1825 531 
L 1825 4091 
L 703 3866 
L 703 4441 
L 1819 4666 
L 2450 4666 
L 2450 531 
L 3481 531 
L 3481 0 
L 794 0 
L 794 531 
z
" transform="scale(0.015625)"/>
       </defs>
       <use xlink:href="#DejaVuSans-31"/>
       <use xlink:href="#DejaVuSans-30" x="63.623047"/>
      </g>
     </g>
    </g>
    <g id="xtick_3">
     <g id="line2d_3">
      <g>
       <use xlink:href="#m93cec2461d" x="376.779306" y="640.8" style="stroke: #000000; stroke-width: 0.8"/>
      </g>
     </g>
     <g id="text_3">
      <!-- 20 -->
      <g transform="translate(370.416806 655.398438) scale(0.1 -0.1)">
       <defs>
        <path id="DejaVuSans-32" d="M 1228 531 
L 3431 531 
L 3431 0 
L 469 0 
L 469 531 
Q 828 903 1448 1529 
Q 2069 2156 2228 2338 
Q 2531 2678 2651 2914 
Q 2772 3150 2772 3378 
Q 2772 3750 2511 3984 
Q 2250 4219 1831 4219 
Q 1534 4219 1204 4116 
Q 875 4013 500 3803 
L 500 4441 
Q 881 4594 1212 4672 
Q 1544 4750 1819 4750 
Q 2544 4750 2975 4387 
Q 3406 4025 3406 3419 
Q 3406 3131 3298 2873 
Q 3191 2616 2906 2266 
Q 2828 2175 2409 1742 
Q 1991 1309 1228 531 
z
" transform="scale(0.015625)"/>
       </defs>
       <use xlink:href="#DejaVuSans-32"/>
       <use xlink:href="#DejaVuSans-30" x="63.623047"/>
      </g>
     </g>
    </g>
    <g id="xtick_4">
     <g id="line2d_4">
      <g>
       <use xlink:href="#m93cec2461d" x="492.804925" y="640.8" style="stroke: #000000; stroke-width: 0.8"/>
      </g>
     </g>
     <g id="text_4">
      <!-- 30 -->
      <g transform="translate(486.442425 655.398438) scale(0.1 -0.1)">
       <defs>
        <path id="DejaVuSans-33" d="M 2597 2516 
Q 3050 2419 3304 2112 
Q 3559 1806 3559 1356 
Q 3559 666 3084 287 
Q 2609 -91 1734 -91 
Q 1441 -91 1130 -33 
Q 819 25 488 141 
L 488 750 
Q 750 597 1062 519 
Q 1375 441 1716 441 
Q 2309 441 2620 675 
Q 2931 909 2931 1356 
Q 2931 1769 2642 2001 
Q 2353 2234 1838 2234 
L 1294 2234 
L 1294 2753 
L 1863 2753 
Q 2328 2753 2575 2939 
Q 2822 3125 2822 3475 
Q 2822 3834 2567 4026 
Q 2313 4219 1838 4219 
Q 1578 4219 1281 4162 
Q 984 4106 628 3988 
L 628 4550 
Q 988 4650 1302 4700 
Q 1616 4750 1894 4750 
Q 2613 4750 3031 4423 
Q 3450 4097 3450 3541 
Q 3450 3153 3228 2886 
Q 3006 2619 2597 2516 
z
" transform="scale(0.015625)"/>
       </defs>
       <use xlink:href="#DejaVuSans-33"/>
       <use xlink:href="#DejaVuSans-30" x="63.623047"/>
      </g>
     </g>
    </g>
    <g id="xtick_5">
     <g id="line2d_5">
      <g>
       <use xlink:href="#m93cec2461d" x="608.830544" y="640.8" style="stroke: #000000; stroke-width: 0.8"/>
      </g>
     </g>
     <g id="text_5">
      <!-- 40 -->
      <g transform="translate(602.468044 655.398438) scale(0.1 -0.1)">
       <defs>
        <path id="DejaVuSans-34" d="M 2419 4116 
L 825 1625 
L 2419 1625 
L 2419 4116 
z
M 2253 4666 
L 3047 4666 
L 3047 1625 
L 3713 1625 
L 3713 1100 
L 3047 1100 
L 3047 0 
L 2419 0 
L 2419 1100 
L 313 1100 
L 313 1709 
L 2253 4666 
z
" transform="scale(0.015625)"/>
       </defs>
       <use xlink:href="#DejaVuSans-34"/>
       <use xlink:href="#DejaVuSans-30" x="63.623047"/>
      </g>
     </g>
    </g>
    <g id="xtick_6">
     <g id="line2d_6">
      <g>
       <use xlink:href="#m93cec2461d" x="724.856162" y="640.8" style="stroke: #000000; stroke-width: 0.8"/>
      </g>
     </g>
     <g id="text_6">
      <!-- 50 -->
      <g transform="translate(718.493662 655.398438) scale(0.1 -0.1)">
       <defs>
        <path id="DejaVuSans-35" d="M 691 4666 
L 3169 4666 
L 3169 4134 
L 1269 4134 
L 1269 2991 
Q 1406 3038 1543 3061 
Q 1681 3084 1819 3084 
Q 2600 3084 3056 2656 
Q 3513 2228 3513 1497 
Q 3513 744 3044 326 
Q 2575 -91 1722 -91 
Q 1428 -91 1123 -41 
Q 819 9 494 109 
L 494 744 
Q 775 591 1075 516 
Q 1375 441 1709 441 
Q 2250 441 2565 725 
Q 2881 1009 2881 1497 
Q 2881 1984 2565 2268 
Q 2250 2553 1709 2553 
Q 1456 2553 1204 2497 
Q 953 2441 691 2322 
L 691 4666 
z
" transform="scale(0.015625)"/>
       </defs>
       <use xlink:href="#DejaVuSans-35"/>
       <use xlink:href="#DejaVuSans-30" x="63.623047"/>
      </g>
     </g>
    </g>
    <g id="xtick_7">
     <g id="line2d_7">
      <g>
       <use xlink:href="#m93cec2461d" x="840.881781" y="640.8" style="stroke: #000000; stroke-width: 0.8"/>
      </g>
     </g>
     <g id="text_7">
      <!-- 60 -->
      <g transform="translate(834.519281 655.398438) scale(0.1 -0.1)">
       <defs>
        <path id="DejaVuSans-36" d="M 2113 2584 
Q 1688 2584 1439 2293 
Q 1191 2003 1191 1497 
Q 1191 994 1439 701 
Q 1688 409 2113 409 
Q 2538 409 2786 701 
Q 3034 994 3034 1497 
Q 3034 2003 2786 2293 
Q 2538 2584 2113 2584 
z
M 3366 4563 
L 3366 3988 
Q 3128 4100 2886 4159 
Q 2644 4219 2406 4219 
Q 1781 4219 1451 3797 
Q 1122 3375 1075 2522 
Q 1259 2794 1537 2939 
Q 1816 3084 2150 3084 
Q 2853 3084 3261 2657 
Q 3669 2231 3669 1497 
Q 3669 778 3244 343 
Q 2819 -91 2113 -91 
Q 1303 -91 875 529 
Q 447 1150 447 2328 
Q 447 3434 972 4092 
Q 1497 4750 2381 4750 
Q 2619 4750 2861 4703 
Q 3103 4656 3366 4563 
z
" transform="scale(0.015625)"/>
       </defs>
       <use xlink:href="#DejaVuSans-36"/>
       <use xlink:href="#DejaVuSans-30" x="63.623047"/>
      </g>
     </g>
    </g>
    <g id="text_8">
     <!-- Time (s) -->
     <g transform="translate(496.271094 669.076563) scale(0.1 -0.1)">
      <defs>
       <path id="DejaVuSans-54" d="M -19 4666 
L 3928 4666 
L 3928 4134 
L 2272 4134 
L 2272 0 
L 1638 0 
L 1638 4134 
L -19 4134 
L -19 4666 
z
" transform="scale(0.015625)"/>
       <path id="DejaVuSans-69" d="M 603 3500 
L 1178 3500 
L 1178 0 
L 603 0 
L 603 3500 
z
M 603 4863 
L 1178 4863 
L 1178 4134 
L 603 4134 
L 603 4863 
z
" transform="scale(0.015625)"/>
       <path id="DejaVuSans-6d" d="M 3328 2828 
Q 3544 3216 3844 3400 
Q 4144 3584 4550 3584 
Q 5097 3584 5394 3201 
Q 5691 2819 5691 2113 
L 5691 0 
L 5113 0 
L 5113 2094 
Q 5113 2597 4934 2840 
Q 4756 3084 4391 3084 
Q 3944 3084 3684 2787 
Q 3425 2491 3425 1978 
L 3425 0 
L 2847 0 
L 2847 2094 
Q 2847 2600 2669 2842 
Q 2491 3084 2119 3084 
Q 1678 3084 1418 2786 
Q 1159 2488 1159 1978 
L 1159 0 
L 581 0 
L 581 3500 
L 1159 3500 
L 1159 2956 
Q 1356 3278 1631 3431 
Q 1906 3584 2284 3584 
Q 2666 3584 2933 3390 
Q 3200 3197 3328 2828 
z
" transform="scale(0.015625)"/>
       <path id="DejaVuSans-65" d="M 3597 1894 
L 3597 1613 
L 953 1613 
Q 991 1019 1311 708 
Q 1631 397 2203 397 
Q 2534 397 2845 478 
Q 3156 559 3463 722 
L 3463 178 
Q 3153 47 2828 -22 
Q 2503 -91 2169 -91 
Q 1331 -91 842 396 
Q 353 884 353 1716 
Q 353 2575 817 3079 
Q 1281 3584 2069 3584 
Q 2775 3584 3186 3129 
Q 3597 2675 3597 1894 
z
M 3022 2063 
Q 3016 2534 2758 2815 
Q 2500 3097 2075 3097 
Q 1594 3097 1305 2825 
Q 1016 2553 972 2059 
L 3022 2063 
z
" transform="scale(0.015625)"/>
       <path id="DejaVuSans-20" transform="scale(0.015625)"/>
       <path id="DejaVuSans-28" d="M 1984 4856 
Q 1566 4138 1362 3434 
Q 1159 2731 1159 2009 
Q 1159 1288 1364 580 
Q 1569 -128 1984 -844 
L 1484 -844 
Q 1016 -109 783 600 
Q 550 1309 550 2009 
Q 550 2706 781 3412 
Q 1013 4119 1484 4856 
L 1984 4856 
z
" transform="scale(0.015625)"/>
       <path id="DejaVuSans-73" d="M 2834 3397 
L 2834 2853 
Q 2591 2978 2328 3040 
Q 2066 3103 1784 3103 
Q 1356 3103 1142 2972 
Q 928 2841 928 2578 
Q 928 2378 1081 2264 
Q 1234 2150 1697 2047 
L 1894 2003 
Q 2506 1872 2764 1633 
Q 3022 1394 3022 966 
Q 3022 478 2636 193 
Q 2250 -91 1575 -91 
Q 1294 -91 989 -36 
Q 684 19 347 128 
L 347 722 
Q 666 556 975 473 
Q 1284 391 1588 391 
Q 1994 391 2212 530 
Q 2431 669 2431 922 
Q 2431 1156 2273 1281 
Q 2116 1406 1581 1522 
L 1381 1569 
Q 847 1681 609 1914 
Q 372 2147 372 2553 
Q 372 3047 722 3315 
Q 1072 3584 1716 3584 
Q 2034 3584 2315 3537 
Q 2597 3491 2834 3397 
z
" transform="scale(0.015625)"/>
       <path id="DejaVuSans-29" d="M 513 4856 
L 1013 4856 
Q 1481 4119 1714 3412 
Q 1947 2706 1947 2009 
Q 1947 1309 1714 600 
Q 1481 -109 1013 -844 
L 513 -844 
Q 928 -128 1133 580 
Q 1338 1288 1338 2009 
Q 1338 2731 1133 3434 
Q 928 4138 513 4856 
z
" transform="scale(0.015625)"/>
      </defs>
      <use xlink:href="#DejaVuSans-54"/>
      <use xlink:href="#DejaVuSans-69" x="57.958984"/>
      <use xlink:href="#DejaVuSans-6d" x="85.742188"/>
      <use xlink:href="#DejaVuSans-65" x="183.154297"/>
      <use xlink:href="#DejaVuSans-20" x="244.677734"/>
      <use xlink:href="#DejaVuSans-28" x="276.464844"/>
      <use xlink:href="#DejaVuSans-73" x="315.478516"/>
      <use xlink:href="#DejaVuSans-29" x="367.578125"/>
     </g>
    </g>
   </g>
   <g id="matplotlib.axis_2">
    <g id="ytick_1">
     <g id="line2d_8">
      <defs>
       <path id="mb815811b23" d="M 0 0 
L -3.5 0 
" style="stroke: #000000; stroke-width: 0.8"/>
      </defs>
      <g>
       <use xlink:href="#mb815811b23" x="126" y="615.6" style="stroke: #000000; stroke-width: 0.8"/>
      </g>
     </g>
     <g id="text_9">
      <!-- 0 -->
      <g transform="translate(112.6375 619.399219) scale(0.1 -0.1)">
       <use xlink:href="#DejaVuSans-30"/>
      </g>
     </g>
    </g>
    <g id="ytick_2">
     <g id="line2d_9">
      <g>
       <use xlink:href="#mb815811b23" x="126" y="519.617004" style="stroke: #000000; stroke-width: 0.8"/>
      </g>
     </g>
     <g id="text_10">
      <!-- 20 -->
      <g transform="translate(106.275 523.416223) scale(0.1 -0.1)">
       <use xlink:href="#DejaVuSans-32"/>
       <use xlink:href="#DejaVuSans-30" x="63.623047"/>
      </g>
     </g>
    </g>
    <g id="ytick_3">
     <g id="line2d_10">
      <g>
       <use xlink:href="#mb815811b23" x="126" y="423.634009" style="stroke: #000000; stroke-width: 0.8"/>
      </g>
     </g>
     <g id="text_11">
      <!-- 40 -->
      <g transform="translate(106.275 427.433228) scale(0.1 -0.1)">
       <use xlink:href="#DejaVuSans-34"/>
       <use xlink:href="#DejaVuSans-30" x="63.623047"/>
      </g>
     </g>
    </g>
    <g id="ytick_4">
     <g id="line2d_11">
      <g>
       <use xlink:href="#mb815811b23" x="126" y="327.651013" style="stroke: #000000; stroke-width: 0.8"/>
      </g>
     </g>
     <g id="text_12">
      <!-- 60 -->
      <g transform="translate(106.275 331.450232) scale(0.1 -0.1)">
       <use xlink:href="#DejaVuSans-36"/>
       <use xlink:href="#DejaVuSans-30" x="63.623047"/>
      </g>
     </g>
    </g>
    <g id="ytick_5">
     <g id="line2d_12">
      <g>
       <use xlink:href="#mb815811b23" x="126" y="231.668018" style="stroke: #000000; stroke-width: 0.8"/>
      </g>
     </g>
     <g id="text_13">
      <!-- 80 -->
      <g transform="translate(106.275 235.467237) scale(0.1 -0.1)">
       <defs>
        <path id="DejaVuSans-38" d="M 2034 2216 
Q 1584 2216 1326 1975 
Q 1069 1734 1069 1313 
Q 1069 891 1326 650 
Q 1584 409 2034 409 
Q 2484 409 2743 651 
Q 3003 894 3003 1313 
Q 3003 1734 2745 1975 
Q 2488 2216 2034 2216 
z
M 1403 2484 
Q 997 2584 770 2862 
Q 544 3141 544 3541 
Q 544 4100 942 4425 
Q 1341 4750 2034 4750 
Q 2731 4750 3128 4425 
Q 3525 4100 3525 3541 
Q 3525 3141 3298 2862 
Q 3072 2584 2669 2484 
Q 3125 2378 3379 2068 
Q 3634 1759 3634 1313 
Q 3634 634 3220 271 
Q 2806 -91 2034 -91 
Q 1263 -91 848 271 
Q 434 634 434 1313 
Q 434 1759 690 2068 
Q 947 2378 1403 2484 
z
M 1172 3481 
Q 1172 3119 1398 2916 
Q 1625 2713 2034 2713 
Q 2441 2713 2670 2916 
Q 2900 3119 2900 3481 
Q 2900 3844 2670 4047 
Q 2441 4250 2034 4250 
Q 1625 4250 1398 4047 
Q 1172 3844 1172 3481 
z
" transform="scale(0.015625)"/>
       </defs>
       <use xlink:href="#DejaVuSans-38"/>
       <use xlink:href="#DejaVuSans-30" x="63.623047"/>
      </g>
     </g>
    </g>
    <g id="ytick_6">
     <g id="line2d_13">
      <g>
       <use xlink:href="#mb815811b23" x="126" y="135.685022" style="stroke: #000000; stroke-width: 0.8"/>
      </g>
     </g>
     <g id="text_14">
      <!-- 100 -->
      <g transform="translate(99.9125 139.484241) scale(0.1 -0.1)">
       <use xlink:href="#DejaVuSans-31"/>
       <use xlink:href="#DejaVuSans-30" x="63.623047"/>
       <use xlink:href="#DejaVuSans-30" x="127.246094"/>
      </g>
     </g>
    </g>
    <g id="text_15">
     <!-- Packets per Second -->
     <g transform="translate(93.832812 412.445312) rotate(-90) scale(0.1 -0.1)">
      <defs>
       <path id="DejaVuSans-50" d="M 1259 4147 
L 1259 2394 
L 2053 2394 
Q 2494 2394 2734 2622 
Q 2975 2850 2975 3272 
Q 2975 3691 2734 3919 
Q 2494 4147 2053 4147 
L 1259 4147 
z
M 628 4666 
L 2053 4666 
Q 2838 4666 3239 4311 
Q 3641 3956 3641 3272 
Q 3641 2581 3239 2228 
Q 2838 1875 2053 1875 
L 1259 1875 
L 1259 0 
L 628 0 
L 628 4666 
z
" transform="scale(0.015625)"/>
       <path id="DejaVuSans-61" d="M 2194 1759 
Q 1497 1759 1228 1600 
Q 959 1441 959 1056 
Q 959 750 1161 570 
Q 1363 391 1709 391 
Q 2188 391 2477 730 
Q 2766 1069 2766 1631 
L 2766 1759 
L 2194 1759 
z
M 3341 1997 
L 3341 0 
L 2766 0 
L 2766 531 
Q 2569 213 2275 61 
Q 1981 -91 1556 -91 
Q 1019 -91 701 211 
Q 384 513 384 1019 
Q 384 1609 779 1909 
Q 1175 2209 1959 2209 
L 2766 2209 
L 2766 2266 
Q 2766 2663 2505 2880 
Q 2244 3097 1772 3097 
Q 1472 3097 1187 3025 
Q 903 2953 641 2809 
L 641 3341 
Q 956 3463 1253 3523 
Q 1550 3584 1831 3584 
Q 2591 3584 2966 3190 
Q 3341 2797 3341 1997 
z
" transform="scale(0.015625)"/>
       <path id="DejaVuSans-63" d="M 3122 3366 
L 3122 2828 
Q 2878 2963 2633 3030 
Q 2388 3097 2138 3097 
Q 1578 3097 1268 2742 
Q 959 2388 959 1747 
Q 959 1106 1268 751 
Q 1578 397 2138 397 
Q 2388 397 2633 464 
Q 2878 531 3122 666 
L 3122 134 
Q 2881 22 2623 -34 
Q 2366 -91 2075 -91 
Q 1284 -91 818 406 
Q 353 903 353 1747 
Q 353 2603 823 3093 
Q 1294 3584 2113 3584 
Q 2378 3584 2631 3529 
Q 2884 3475 3122 3366 
z
" transform="scale(0.015625)"/>
       <path id="DejaVuSans-6b" d="M 581 4863 
L 1159 4863 
L 1159 1991 
L 2875 3500 
L 3609 3500 
L 1753 1863 
L 3688 0 
L 2938 0 
L 1159 1709 
L 1159 0 
L 581 0 
L 581 4863 
z
" transform="scale(0.015625)"/>
       <path id="DejaVuSans-74" d="M 1172 4494 
L 1172 3500 
L 2356 3500 
L 2356 3053 
L 1172 3053 
L 1172 1153 
Q 1172 725 1289 603 
Q 1406 481 1766 481 
L 2356 481 
L 2356 0 
L 1766 0 
Q 1100 0 847 248 
Q 594 497 594 1153 
L 594 3053 
L 172 3053 
L 172 3500 
L 594 3500 
L 594 4494 
L 1172 4494 
z
" transform="scale(0.015625)"/>
       <path id="DejaVuSans-70" d="M 1159 525 
L 1159 -1331 
L 581 -1331 
L 581 3500 
L 1159 3500 
L 1159 2969 
Q 1341 3281 1617 3432 
Q 1894 3584 2278 3584 
Q 2916 3584 3314 3078 
Q 3713 2572 3713 1747 
Q 3713 922 3314 415 
Q 2916 -91 2278 -91 
Q 1894 -91 1617 61 
Q 1341 213 1159 525 
z
M 3116 1747 
Q 3116 2381 2855 2742 
Q 2594 3103 2138 3103 
Q 1681 3103 1420 2742 
Q 1159 2381 1159 1747 
Q 1159 1113 1420 752 
Q 1681 391 2138 391 
Q 2594 391 2855 752 
Q 3116 1113 3116 1747 
z
" transform="scale(0.015625)"/>
       <path id="DejaVuSans-72" d="M 2631 2963 
Q 2534 3019 2420 3045 
Q 2306 3072 2169 3072 
Q 1681 3072 1420 2755 
Q 1159 2438 1159 1844 
L 1159 0 
L 581 0 
L 581 3500 
L 1159 3500 
L 1159 2956 
Q 1341 3275 1631 3429 
Q 1922 3584 2338 3584 
Q 2397 3584 2469 3576 
Q 2541 3569 2628 3553 
L 2631 2963 
z
" transform="scale(0.015625)"/>
       <path id="DejaVuSans-53" d="M 3425 4513 
L 3425 3897 
Q 3066 4069 2747 4153 
Q 2428 4238 2131 4238 
Q 1616 4238 1336 4038 
Q 1056 3838 1056 3469 
Q 1056 3159 1242 3001 
Q 1428 2844 1947 2747 
L 2328 2669 
Q 3034 2534 3370 2195 
Q 3706 1856 3706 1288 
Q 3706 609 3251 259 
Q 2797 -91 1919 -91 
Q 1588 -91 1214 -16 
Q 841 59 441 206 
L 441 856 
Q 825 641 1194 531 
Q 1563 422 1919 422 
Q 2459 422 2753 634 
Q 3047 847 3047 1241 
Q 3047 1584 2836 1778 
Q 2625 1972 2144 2069 
L 1759 2144 
Q 1053 2284 737 2584 
Q 422 2884 422 3419 
Q 422 4038 858 4394 
Q 1294 4750 2059 4750 
Q 2388 4750 2728 4690 
Q 3069 4631 3425 4513 
z
" transform="scale(0.015625)"/>
       <path id="DejaVuSans-6f" d="M 1959 3097 
Q 1497 3097 1228 2736 
Q 959 2375 959 1747 
Q 959 1119 1226 758 
Q 1494 397 1959 397 
Q 2419 397 2687 759 
Q 2956 1122 2956 1747 
Q 2956 2369 2687 2733 
Q 2419 3097 1959 3097 
z
M 1959 3584 
Q 2709 3584 3137 3096 
Q 3566 2609 3566 1747 
Q 3566 888 3137 398 
Q 2709 -91 1959 -91 
Q 1206 -91 779 398 
Q 353 888 353 1747 
Q 353 2609 779 3096 
Q 1206 3584 1959 3584 
z
" transform="scale(0.015625)"/>
       <path id="DejaVuSans-6e" d="M 3513 2113 
L 3513 0 
L 2938 0 
L 2938 2094 
Q 2938 2591 2744 2837 
Q 2550 3084 2163 3084 
Q 1697 3084 1428 2787 
Q 1159 2491 1159 1978 
L 1159 0 
L 581 0 
L 581 3500 
L 1159 3500 
L 1159 2956 
Q 1366 3272 1645 3428 
Q 1925 3584 2291 3584 
Q 2894 3584 3203 3211 
Q 3513 2838 3513 2113 
z
" transform="scale(0.015625)"/>
       <path id="DejaVuSans-64" d="M 2906 2969 
L 2906 4863 
L 3481 4863 
L 3481 0 
L 2906 0 
L 2906 525 
Q 2725 213 2448 61 
Q 2172 -91 1784 -91 
Q 1150 -91 751 415 
Q 353 922 353 1747 
Q 353 2572 751 3078 
Q 1150 3584 1784 3584 
Q 2172 3584 2448 3432 
Q 2725 3281 2906 2969 
z
M 947 1747 
Q 947 1113 1208 752 
Q 1469 391 1925 391 
Q 2381 391 2643 752 
Q 2906 1113 2906 1747 
Q 2906 2381 2643 2742 
Q 2381 3103 1925 3103 
Q 1469 3103 1208 2742 
Q 947 2381 947 1747 
z
" transform="scale(0.015625)"/>
      </defs>
      <use xlink:href="#DejaVuSans-50"/>
      <use xlink:href="#DejaVuSans-61" x="55.802734"/>
      <use xlink:href="#DejaVuSans-63" x="117.082031"/>
      <use xlink:href="#DejaVuSans-6b" x="172.0625"/>
      <use xlink:href="#DejaVuSans-65" x="226.347656"/>
      <use xlink:href="#DejaVuSans-74" x="287.871094"/>
      <use xlink:href="#DejaVuSans-73" x="327.080078"/>
      <use xlink:href="#DejaVuSans-20" x="379.179688"/>
      <use xlink:href="#DejaVuSans-70" x="410.966797"/>
      <use xlink:href="#DejaVuSans-65" x="474.443359"/>
      <use xlink:href="#DejaVuSans-72" x="535.966797"/>
      <use xlink:href="#DejaVuSans-20" x="577.080078"/>
      <use xlink:href="#DejaVuSans-53" x="608.867188"/>
      <use xlink:href="#DejaVuSans-65" x="672.34375"/>
      <use xlink:href="#DejaVuSans-63" x="733.867188"/>
      <use xlink:href="#DejaVuSans-6f" x="788.847656"/>
      <use xlink:href="#DejaVuSans-6e" x="850.029297"/>
      <use xlink:href="#DejaVuSans-64" x="913.408203"/>
     </g>
    </g>
   </g>
   <g id="line2d_14">
    <path d="M 161.509091 111.701259 
L 163.829604 159.680922 
L 166.150142 135.690258 
L 168.471719 159.889915 
L 170.79182 111.6 
L 173.112356 159.685358 
L 175.438148 184.656972 
L 177.753503 206.763563 
L 180.073961 159.670217 
L 184.715071 207.703269 
L 187.035427 159.649976 
L 191.676618 207.678243 
L 196.317504 159.648282 
L 198.638115 183.694844 
L 207.920319 183.652683 
L 210.241109 183.728194 
L 212.561371 183.630034 
L 214.881941 183.687147 
L 217.2022 159.630932 
L 219.522973 207.718229 
L 221.843358 159.655642 
L 226.484553 207.722538 
L 228.804933 159.654703 
L 231.125431 207.669748 
L 235.766792 159.717848 
L 238.086976 207.614527 
L 240.407503 159.683805 
L 245.048543 207.652841 
L 247.369219 183.706891 
L 254.331166 183.763384 
L 256.651363 159.618819 
L 258.971759 207.651733 
L 261.292511 183.72112 
L 263.613189 183.707312 
L 265.933048 159.552421 
L 268.253696 183.701819 
L 270.574252 183.68464 
L 272.89543 183.800384 
L 275.215744 207.637394 
L 277.536024 183.633164 
L 279.857049 183.771859 
L 282.177004 183.572767 
L 286.818654 183.822271 
L 289.138707 183.591121 
L 291.459561 183.739993 
L 293.779943 183.652217 
L 296.100485 159.686675 
L 298.420524 183.588396 
L 300.741828 183.82378 
L 303.06159 159.533336 
L 307.702973 207.639016 
L 310.023775 183.730575 
L 312.343561 183.54115 
L 314.664912 183.832602 
L 316.985154 183.626137 
L 319.305201 159.589382 
L 323.946371 207.70434 
L 326.267576 183.805385 
L 328.587626 183.590442 
L 330.907785 159.611475 
L 335.549194 207.620635 
L 337.869327 159.606339 
L 340.190651 207.814857 
L 342.510717 183.593456 
L 344.841977 161.782552 
L 347.162357 207.649073 
L 349.487484 160.585495 
L 351.807931 207.660784 
L 354.129525 159.893217 
L 356.449302 207.542954 
L 358.770095 159.735929 
L 361.090561 183.667888 
L 365.731586 183.70959 
L 368.052131 207.678129 
L 370.372477 159.647988 
L 372.693294 207.72576 
L 375.01355 159.630507 
L 379.654877 207.728568 
L 381.975149 159.633483 
L 384.295635 183.671605 
L 386.616327 183.71005 
L 388.936805 207.666136 
L 391.257349 183.682515 
L 393.577292 183.570394 
L 400.540067 183.837375 
L 402.860896 183.735414 
L 405.182125 183.809887 
L 407.503018 183.747424 
L 409.823386 159.652427 
L 412.147074 208.229771 
L 416.788367 159.662445 
L 419.110956 208.037056 
L 423.758888 160.641684 
L 426.074884 182.8341 
L 428.395568 207.702484 
L 433.038391 159.56763 
L 437.681963 208.178429 
L 440.004136 183.985336 
L 444.646399 183.763408 
L 446.967797 159.854711 
L 449.288183 183.653014 
L 451.608513 183.642618 
L 453.932582 208.296409 
L 456.252076 183.487019 
L 460.893919 183.80715 
L 463.213551 183.512642 
L 465.53511 159.886264 
L 467.855349 207.624291 
L 470.174946 183.506072 
L 472.496849 183.935189 
L 474.817375 183.679075 
L 477.142617 184.554958 
L 479.458178 158.705857 
L 481.777366 159.420548 
L 484.099326 207.926531 
L 488.752709 161.167941 
L 491.065714 206.348326 
L 493.381253 158.701563 
L 495.71579 210.122761 
L 498.020973 204.95957 
L 500.342936 135.984794 
L 502.668021 184.526085 
L 504.984085 206.88871 
L 507.309332 184.556065 
L 509.623552 158.441139 
L 511.94406 183.675637 
L 514.266177 183.97503 
L 516.586211 207.588129 
L 518.912178 160.750035 
L 521.227599 182.726603 
L 523.54786 183.629798 
L 525.872237 208.350547 
L 528.19413 183.933276 
L 530.514206 183.595301 
L 532.835148 183.756472 
L 535.15075 158.713971 
L 537.476018 208.506562 
L 539.795479 183.48074 
L 542.112477 207.053587 
L 544.43724 160.514374 
L 546.758359 183.789337 
L 549.073927 158.707249 
L 551.392872 183.384591 
L 553.721203 185.126971 
L 556.040853 183.516012 
L 558.359786 183.382264 
L 563.002628 184.011912 
L 565.322417 183.541807 
L 567.6436 183.801312 
L 569.963818 183.621724 
L 572.284298 183.670521 
L 574.606957 184.075704 
L 576.93248 208.551061 
L 581.569653 158.802889 
L 583.890219 183.686487 
L 588.530125 183.539287 
L 590.850524 183.655407 
L 593.172338 207.901062 
L 595.492818 159.674427 
L 597.817731 208.444265 
L 600.137979 183.627344 
L 602.4776 163.404531 
L 604.789122 181.996558 
L 607.106791 183.146561 
L 609.427288 183.673717 
L 611.747857 207.68232 
L 614.067965 159.601314 
L 616.392596 208.395007 
L 618.716511 160.348157 
L 621.039198 208.054266 
L 623.354782 158.710429 
L 625.675387 231.683261 
L 627.995513 183.604684 
L 630.320063 160.472629 
L 632.635518 158.68498 
L 634.962245 208.761812 
L 637.277971 158.738428 
L 641.923552 208.464711 
L 646.558664 158.677044 
L 648.880572 183.936203 
L 651.201132 183.68532 
L 655.841786 183.606928 
L 658.161446 183.517706 
L 660.486889 184.592312 
L 662.808651 207.891877 
L 665.124273 158.717984 
L 667.444817 183.682316 
L 669.78026 186.43785 
L 672.085551 180.824521 
L 674.410862 184.567873 
L 676.732684 207.902416 
L 679.053192 183.675725 
L 681.373758 183.686536 
L 683.68908 206.75767 
L 686.013442 160.435989 
L 688.333865 183.659795 
L 690.655636 183.910627 
L 692.97634 183.712248 
L 695.302245 160.737835 
L 697.626176 208.272287 
L 699.954905 161.289571 
L 702.261142 181.002973 
L 704.588158 208.812269 
L 706.908681 183.678444 
L 709.229192 183.676395 
L 711.544447 158.645385 
L 713.863939 183.486524 
L 716.184233 183.635933 
L 718.506416 183.987318 
L 720.826912 183.673315 
L 725.467591 183.608134 
L 727.78708 183.485893 
L 730.107371 183.63533 
L 732.429612 183.998012 
L 734.754878 208.5063 
L 737.070597 158.736936 
L 739.395678 208.473894 
L 744.030457 158.68835 
L 746.353187 232.034601 
L 748.689793 138.990483 
L 751.012861 232.090442 
L 753.332848 183.578672 
L 755.653853 183.768069 
L 757.974232 183.651733 
L 760.305471 137.893251 
L 762.623632 207.258558 
L 764.947951 160.427341 
L 767.268284 207.640738 
L 769.60603 163.041774 
L 771.907786 180.157035 
L 774.247069 187.14221 
L 778.869183 180.133425 
L 781.187252 183.221253 
L 783.510547 184.193856 
L 785.830653 183.60094 
L 788.166397 210.332413 
L 790.490548 160.394468 
L 792.811218 183.70585 
L 795.115989 204.886186 
L 797.435292 159.442983 
L 799.755655 207.646123 
L 804.394888 159.338456 
L 806.713416 183.30678 
L 809.036306 184.118694 
L 811.358167 207.909207 
L 813.677719 183.497721 
L 815.997392 207.52457 
L 818.315795 183.283514 
L 820.639275 184.228335 
L 822.959008 183.531384 
L 825.280323 135.850963 
L 827.601397 207.770949 
L 829.922607 207.794808 
L 832.239544 183.010094 
L 834.560466 183.75272 
L 836.883039 184.059683 
L 839.204747 159.915663 
L 841.524664 207.56746 
L 843.844474 183.545828 
L 846.165787 183.825545 
L 848.486046 183.629286 
L 850.806226 183.61469 
L 853.124217 159.18468 
L 855.448183 208.278526 
L 857.76747 183.448314 
L 860.088962 183.858892 
L 862.40886 183.562008 
L 864.72709 135.212607 
L 867.050687 208.213791 
L 869.370086 519.570926 
L 871.690909 591.607466 
L 871.690909 591.607466 
" clip-path="url(#p2d5071bf77)" style="fill: none; stroke: #1f77b4; stroke-width: 1.5; stroke-linecap: square"/>
   </g>
   <g id="line2d_15">
    <path d="M 161.509091 615.6 
L 163.829604 327.651108 
L 166.150142 327.654155 
L 168.471719 327.783104 
L 170.79182 327.6 
L 173.112356 327.65391 
L 175.438148 328.304648 
L 177.753503 327.009574 
L 180.073961 327.644347 
L 217.2022 327.619536 
L 219.522973 327.683456 
L 224.163754 327.63664 
L 228.804933 327.634549 
L 249.68989 327.670678 
L 252.010187 327.624354 
L 254.331166 327.708923 
L 256.651363 327.611886 
L 263.613189 327.671541 
L 265.933048 327.56995 
L 270.574252 327.656427 
L 272.89543 327.733589 
L 277.536024 327.622109 
L 279.857049 327.714573 
L 282.177004 327.581844 
L 286.818654 327.748181 
L 289.138707 327.59408 
L 291.459561 327.693329 
L 298.420524 327.592264 
L 300.741828 327.749186 
L 303.06159 327.557897 
L 305.382649 327.718853 
L 307.702973 327.627541 
L 310.023775 327.68705 
L 312.343561 327.560766 
L 314.664912 327.755068 
L 316.985154 327.617425 
L 321.625676 327.646382 
L 326.267576 327.736923 
L 328.587626 327.593628 
L 330.907785 327.607247 
L 333.228975 327.735018 
L 337.869327 327.604004 
L 340.190651 327.751664 
L 342.510717 327.595637 
L 344.841977 328.978454 
L 347.162357 327.63464 
L 349.487484 328.222418 
L 351.807931 327.642906 
L 354.129525 327.78519 
L 356.449302 327.559732 
L 358.770095 327.68585 
L 365.731586 327.67306 
L 377.334044 327.648759 
L 379.654877 327.690754 
L 384.295635 327.647737 
L 391.257349 327.65501 
L 393.577292 327.580263 
L 400.540067 327.75825 
L 402.860896 327.690276 
L 407.503018 327.698283 
L 409.823386 327.633112 
L 412.147074 328.044545 
L 414.467948 327.695833 
L 416.788367 327.639439 
L 419.110956 327.90851 
L 421.433475 327.899722 
L 423.758888 328.257906 
L 426.074884 327.0894 
L 428.395568 327.672342 
L 430.718455 327.94535 
L 433.038391 327.579556 
L 435.358568 327.609337 
L 437.681963 328.008303 
L 442.32542 327.746717 
L 451.608513 327.628412 
L 453.932582 328.091583 
L 456.252076 327.524679 
L 460.893919 327.7381 
L 463.213551 327.541762 
L 465.53511 327.780798 
L 470.174946 327.537381 
L 472.496849 327.823459 
L 474.817375 327.652717 
L 477.142617 328.236638 
L 479.458178 327.035278 
L 484.099326 327.830492 
L 488.752709 328.590279 
L 491.065714 326.716465 
L 493.381253 327.032566 
L 495.71579 329.380772 
L 498.020973 349.891487 
L 500.342936 303.850116 
L 502.668021 328.21739 
L 504.984085 327.097913 
L 507.309332 328.237377 
L 509.623552 326.868088 
L 511.94406 327.650425 
L 514.266177 327.85002 
L 516.586211 327.59162 
L 518.912178 328.326338 
L 521.227599 327.017736 
L 525.872237 328.129798 
L 530.514206 327.596867 
L 532.835148 327.704314 
L 535.15075 327.040403 
L 537.476018 328.239926 
L 539.795479 327.520493 
L 542.112477 351.246439 
L 544.43724 304.225625 
L 546.758359 327.726225 
L 549.073927 327.036157 
L 551.392872 327.456394 
L 553.721203 328.617981 
L 556.040853 327.544008 
L 558.359786 327.454843 
L 563.002628 327.874608 
L 565.322417 327.561204 
L 567.6436 327.734208 
L 569.963818 327.614482 
L 572.284298 327.647014 
L 576.93248 328.271337 
L 581.569653 327.096562 
L 583.890219 327.657658 
L 588.530125 327.559525 
L 593.172338 327.812514 
L 595.492818 327.647007 
L 597.817731 328.195952 
L 600.137979 327.61823 
L 602.4776 330.002862 
L 604.789122 326.531039 
L 607.106791 327.297708 
L 609.427288 327.649145 
L 614.067965 327.60083 
L 616.392596 328.161181 
L 621.039198 327.920658 
L 623.354782 327.038166 
L 625.675387 351.657242 
L 630.320063 304.197062 
L 632.635518 327.022093 
L 634.962245 328.420103 
L 637.277971 327.055849 
L 641.923552 328.210384 
L 644.243249 327.549798 
L 646.558664 327.01708 
L 648.880572 327.824135 
L 651.201132 327.65688 
L 658.161446 327.545137 
L 660.486889 328.261542 
L 662.808651 327.806031 
L 665.124273 327.042937 
L 667.444817 327.654878 
L 669.78026 329.4919 
L 672.085551 325.749681 
L 674.410862 328.245249 
L 676.732684 327.81347 
L 679.053192 327.650484 
L 681.373758 327.657691 
L 683.68908 351.054963 
L 686.013442 304.171992 
L 688.333865 327.639864 
L 690.655636 327.807085 
L 692.97634 327.674832 
L 695.302245 328.318632 
L 697.626176 328.074556 
L 699.954905 328.667097 
L 702.261142 325.868648 
L 704.588158 328.455719 
L 706.908681 327.652296 
L 709.229192 327.65093 
L 711.544447 326.997085 
L 713.863939 327.524349 
L 716.184233 327.623955 
L 718.506416 327.858212 
L 720.826912 327.648877 
L 725.467591 327.605422 
L 727.78708 327.523929 
L 730.107371 327.623553 
L 732.429612 327.865341 
L 734.754878 328.239741 
L 737.070597 327.054907 
L 739.395678 328.216867 
L 741.714985 327.501306 
L 744.030457 327.024221 
L 746.353187 351.898788 
L 748.689793 305.803814 
L 751.012861 351.937179 
L 753.332848 327.585781 
L 755.653853 327.712046 
L 757.974232 327.634489 
L 760.305471 305.090613 
L 762.623632 327.358982 
L 764.947951 328.122531 
L 767.268284 327.628756 
L 769.60603 329.773752 
L 771.907786 325.30469 
L 774.247069 329.961473 
L 778.869183 325.28895 
L 781.187252 327.347502 
L 783.510547 327.995904 
L 785.830653 327.600627 
L 788.166397 329.528762 
L 790.490548 328.101769 
L 792.811218 327.670567 
L 795.115989 325.684366 
L 797.435292 327.500832 
L 799.755655 327.632558 
L 802.076117 327.644678 
L 804.394888 327.434815 
L 806.713416 327.40452 
L 809.036306 327.945796 
L 811.358167 327.818264 
L 813.677719 327.531814 
L 815.997392 351.551192 
L 818.315795 327.389009 
L 820.639275 328.01889 
L 822.959008 327.554256 
L 825.280323 303.763126 
L 829.922607 351.726052 
L 832.239544 327.206729 
L 834.560466 327.701813 
L 836.883039 327.906455 
L 839.204747 303.81598 
L 841.524664 351.578945 
L 843.844474 327.563885 
L 846.165787 327.750363 
L 848.486046 327.619524 
L 850.806226 327.609793 
L 853.124217 303.315834 
L 855.448183 352.039046 
L 857.76747 327.498876 
L 860.088962 327.772595 
L 862.40886 327.574672 
L 864.72709 303.348195 
L 867.050687 328.033264 
L 869.370086 567.585463 
L 871.690909 615.6 
L 871.690909 615.6 
" clip-path="url(#p2d5071bf77)" style="fill: none; stroke: #ff7f0e; stroke-width: 1.5; stroke-linecap: square"/>
   </g>
   <g id="line2d_16">
    <path d="M 126 185.146857 
L 907.2 185.146857 
" clip-path="url(#p2d5071bf77)" style="fill: none; stroke-dasharray: 5.55,2.4; stroke-dashoffset: 0; stroke: #0000ff; stroke-width: 1.5"/>
   </g>
   <g id="line2d_17">
    <path d="M 126 330.352095 
L 907.2 330.352095 
" clip-path="url(#p2d5071bf77)" style="fill: none; stroke-dasharray: 5.55,2.4; stroke-dashoffset: 0; stroke: #ffa500; stroke-width: 1.5"/>
   </g>
   <g id="patch_3">
    <path d="M 126 640.8 
L 126 86.4 
" style="fill: none; stroke: #000000; stroke-width: 0.8; stroke-linejoin: miter; stroke-linecap: square"/>
   </g>
   <g id="patch_4">
    <path d="M 907.2 640.8 
L 907.2 86.4 
" style="fill: none; stroke: #000000; stroke-width: 0.8; stroke-linejoin: miter; stroke-linecap: square"/>
   </g>
   <g id="patch_5">
    <path d="M 126 640.8 
L 907.2 640.8 
" style="fill: none; stroke: #000000; stroke-width: 0.8; stroke-linejoin: miter; stroke-linecap: square"/>
   </g>
   <g id="patch_6">
    <path d="M 126 86.4 
L 907.2 86.4 
" style="fill: none; stroke: #000000; stroke-width: 0.8; stroke-linejoin: miter; stroke-linecap: square"/>
   </g>
   <g id="text_16">
    <!-- Parsed and Filtered Packets (SelectionProcess: 16777218) -->
    <g transform="translate(343.030313 80.4) scale(0.12 -0.12)">
     <defs>
      <path id="DejaVuSans-46" d="M 628 4666 
L 3309 4666 
L 3309 4134 
L 1259 4134 
L 1259 2759 
L 3109 2759 
L 3109 2228 
L 1259 2228 
L 1259 0 
L 628 0 
L 628 4666 
z
" transform="scale(0.015625)"/>
      <path id="DejaVuSans-6c" d="M 603 4863 
L 1178 4863 
L 1178 0 
L 603 0 
L 603 4863 
z
" transform="scale(0.015625)"/>
      <path id="DejaVuSans-3a" d="M 750 794 
L 1409 794 
L 1409 0 
L 750 0 
L 750 794 
z
M 750 3309 
L 1409 3309 
L 1409 2516 
L 750 2516 
L 750 3309 
z
" transform="scale(0.015625)"/>
      <path id="DejaVuSans-37" d="M 525 4666 
L 3525 4666 
L 3525 4397 
L 1831 0 
L 1172 0 
L 2766 4134 
L 525 4134 
L 525 4666 
z
" transform="scale(0.015625)"/>
     </defs>
     <use xlink:href="#DejaVuSans-50"/>
     <use xlink:href="#DejaVuSans-61" x="55.802734"/>
     <use xlink:href="#DejaVuSans-72" x="117.082031"/>
     <use xlink:href="#DejaVuSans-73" x="158.195312"/>
     <use xlink:href="#DejaVuSans-65" x="210.294922"/>
     <use xlink:href="#DejaVuSans-64" x="271.818359"/>
     <use xlink:href="#DejaVuSans-20" x="335.294922"/>
     <use xlink:href="#DejaVuSans-61" x="367.082031"/>
     <use xlink:href="#DejaVuSans-6e" x="428.361328"/>
     <use xlink:href="#DejaVuSans-64" x="491.740234"/>
     <use xlink:href="#DejaVuSans-20" x="555.216797"/>
     <use xlink:href="#DejaVuSans-46" x="587.003906"/>
     <use xlink:href="#DejaVuSans-69" x="637.273438"/>
     <use xlink:href="#DejaVuSans-6c" x="665.056641"/>
     <use xlink:href="#DejaVuSans-74" x="692.839844"/>
     <use xlink:href="#DejaVuSans-65" x="732.048828"/>
     <use xlink:href="#DejaVuSans-72" x="793.572266"/>
     <use xlink:href="#DejaVuSans-65" x="832.435547"/>
     <use xlink:href="#DejaVuSans-64" x="893.958984"/>
     <use xlink:href="#DejaVuSans-20" x="957.435547"/>
     <use xlink:href="#DejaVuSans-50" x="989.222656"/>
     <use xlink:href="#DejaVuSans-61" x="1045.025391"/>
     <use xlink:href="#DejaVuSans-63" x="1106.304688"/>
     <use xlink:href="#DejaVuSans-6b" x="1161.285156"/>
     <use xlink:href="#DejaVuSans-65" x="1215.570312"/>
     <use xlink:href="#DejaVuSans-74" x="1277.09375"/>
     <use xlink:href="#DejaVuSans-73" x="1316.302734"/>
     <use xlink:href="#DejaVuSans-20" x="1368.402344"/>
     <use xlink:href="#DejaVuSans-28" x="1400.189453"/>
     <use xlink:href="#DejaVuSans-53" x="1439.203125"/>
     <use xlink:href="#DejaVuSans-65" x="1502.679688"/>
     <use xlink:href="#DejaVuSans-6c" x="1564.203125"/>
     <use xlink:href="#DejaVuSans-65" x="1591.986328"/>
     <use xlink:href="#DejaVuSans-63" x="1653.509766"/>
     <use xlink:href="#DejaVuSans-74" x="1708.490234"/>
     <use xlink:href="#DejaVuSans-69" x="1747.699219"/>
     <use xlink:href="#DejaVuSans-6f" x="1775.482422"/>
     <use xlink:href="#DejaVuSans-6e" x="1836.664062"/>
     <use xlink:href="#DejaVuSans-50" x="1900.042969"/>
     <use xlink:href="#DejaVuSans-72" x="1958.595703"/>
     <use xlink:href="#DejaVuSans-6f" x="1997.458984"/>
     <use xlink:href="#DejaVuSans-63" x="2058.640625"/>
     <use xlink:href="#DejaVuSans-65" x="2113.621094"/>
     <use xlink:href="#DejaVuSans-73" x="2175.144531"/>
     <use xlink:href="#DejaVuSans-73" x="2227.244141"/>
     <use xlink:href="#DejaVuSans-3a" x="2279.34375"/>
     <use xlink:href="#DejaVuSans-20" x="2313.035156"/>
     <use xlink:href="#DejaVuSans-31" x="2344.822266"/>
     <use xlink:href="#DejaVuSans-36" x="2408.445312"/>
     <use xlink:href="#DejaVuSans-37" x="2472.068359"/>
     <use xlink:href="#DejaVuSans-37" x="2535.691406"/>
     <use xlink:href="#DejaVuSans-37" x="2599.314453"/>
     <use xlink:href="#DejaVuSans-32" x="2662.9375"/>
     <use xlink:href="#DejaVuSans-31" x="2726.560547"/>
     <use xlink:href="#DejaVuSans-38" x="2790.183594"/>
     <use xlink:href="#DejaVuSans-29" x="2853.806641"/>
    </g>
   </g>
   <g id="legend_1">
    <g id="patch_7">
     <path d="M 439.408594 635.8 
L 593.791406 635.8 
Q 595.791406 635.8 595.791406 633.8 
L 595.791406 576.0875 
Q 595.791406 574.0875 593.791406 574.0875 
L 439.408594 574.0875 
Q 437.408594 574.0875 437.408594 576.0875 
L 437.408594 633.8 
Q 437.408594 635.8 439.408594 635.8 
z
" style="fill: #ffffff; opacity: 0.8; stroke: #cccccc; stroke-linejoin: miter"/>
    </g>
    <g id="line2d_18">
     <path d="M 441.408594 582.185938 
L 451.408594 582.185938 
L 461.408594 582.185938 
" style="fill: none; stroke: #1f77b4; stroke-width: 1.5; stroke-linecap: square"/>
    </g>
    <g id="text_17">
     <!-- Parsed Packets -->
     <g transform="translate(469.408594 585.685938) scale(0.1 -0.1)">
      <use xlink:href="#DejaVuSans-50"/>
      <use xlink:href="#DejaVuSans-61" x="55.802734"/>
      <use xlink:href="#DejaVuSans-72" x="117.082031"/>
      <use xlink:href="#DejaVuSans-73" x="158.195312"/>
      <use xlink:href="#DejaVuSans-65" x="210.294922"/>
      <use xlink:href="#DejaVuSans-64" x="271.818359"/>
      <use xlink:href="#DejaVuSans-20" x="335.294922"/>
      <use xlink:href="#DejaVuSans-50" x="367.082031"/>
      <use xlink:href="#DejaVuSans-61" x="422.884766"/>
      <use xlink:href="#DejaVuSans-63" x="484.164062"/>
      <use xlink:href="#DejaVuSans-6b" x="539.144531"/>
      <use xlink:href="#DejaVuSans-65" x="593.429688"/>
      <use xlink:href="#DejaVuSans-74" x="654.953125"/>
      <use xlink:href="#DejaVuSans-73" x="694.162109"/>
     </g>
    </g>
    <g id="line2d_19">
     <path d="M 441.408594 596.864063 
L 451.408594 596.864063 
L 461.408594 596.864063 
" style="fill: none; stroke: #ff7f0e; stroke-width: 1.5; stroke-linecap: square"/>
    </g>
    <g id="text_18">
     <!-- Filtered Packets -->
     <g transform="translate(469.408594 600.364063) scale(0.1 -0.1)">
      <use xlink:href="#DejaVuSans-46"/>
      <use xlink:href="#DejaVuSans-69" x="50.269531"/>
      <use xlink:href="#DejaVuSans-6c" x="78.052734"/>
      <use xlink:href="#DejaVuSans-74" x="105.835938"/>
      <use xlink:href="#DejaVuSans-65" x="145.044922"/>
      <use xlink:href="#DejaVuSans-72" x="206.568359"/>
      <use xlink:href="#DejaVuSans-65" x="245.431641"/>
      <use xlink:href="#DejaVuSans-64" x="306.955078"/>
      <use xlink:href="#DejaVuSans-20" x="370.431641"/>
      <use xlink:href="#DejaVuSans-50" x="402.21875"/>
      <use xlink:href="#DejaVuSans-61" x="458.021484"/>
      <use xlink:href="#DejaVuSans-63" x="519.300781"/>
      <use xlink:href="#DejaVuSans-6b" x="574.28125"/>
      <use xlink:href="#DejaVuSans-65" x="628.566406"/>
      <use xlink:href="#DejaVuSans-74" x="690.089844"/>
      <use xlink:href="#DejaVuSans-73" x="729.298828"/>
     </g>
    </g>
    <g id="line2d_20">
     <path d="M 441.408594 611.542188 
L 451.408594 611.542188 
L 461.408594 611.542188 
" style="fill: none; stroke-dasharray: 5.55,2.4; stroke-dashoffset: 0; stroke: #0000ff; stroke-width: 1.5"/>
    </g>
    <g id="text_19">
     <!-- Parsed Packets Average -->
     <g transform="translate(469.408594 615.042188) scale(0.1 -0.1)">
      <defs>
       <path id="DejaVuSans-41" d="M 2188 4044 
L 1331 1722 
L 3047 1722 
L 2188 4044 
z
M 1831 4666 
L 2547 4666 
L 4325 0 
L 3669 0 
L 3244 1197 
L 1141 1197 
L 716 0 
L 50 0 
L 1831 4666 
z
" transform="scale(0.015625)"/>
       <path id="DejaVuSans-76" d="M 191 3500 
L 800 3500 
L 1894 563 
L 2988 3500 
L 3597 3500 
L 2284 0 
L 1503 0 
L 191 3500 
z
" transform="scale(0.015625)"/>
       <path id="DejaVuSans-67" d="M 2906 1791 
Q 2906 2416 2648 2759 
Q 2391 3103 1925 3103 
Q 1463 3103 1205 2759 
Q 947 2416 947 1791 
Q 947 1169 1205 825 
Q 1463 481 1925 481 
Q 2391 481 2648 825 
Q 2906 1169 2906 1791 
z
M 3481 434 
Q 3481 -459 3084 -895 
Q 2688 -1331 1869 -1331 
Q 1566 -1331 1297 -1286 
Q 1028 -1241 775 -1147 
L 775 -588 
Q 1028 -725 1275 -790 
Q 1522 -856 1778 -856 
Q 2344 -856 2625 -561 
Q 2906 -266 2906 331 
L 2906 616 
Q 2728 306 2450 153 
Q 2172 0 1784 0 
Q 1141 0 747 490 
Q 353 981 353 1791 
Q 353 2603 747 3093 
Q 1141 3584 1784 3584 
Q 2172 3584 2450 3431 
Q 2728 3278 2906 2969 
L 2906 3500 
L 3481 3500 
L 3481 434 
z
" transform="scale(0.015625)"/>
      </defs>
      <use xlink:href="#DejaVuSans-50"/>
      <use xlink:href="#DejaVuSans-61" x="55.802734"/>
      <use xlink:href="#DejaVuSans-72" x="117.082031"/>
      <use xlink:href="#DejaVuSans-73" x="158.195312"/>
      <use xlink:href="#DejaVuSans-65" x="210.294922"/>
      <use xlink:href="#DejaVuSans-64" x="271.818359"/>
      <use xlink:href="#DejaVuSans-20" x="335.294922"/>
      <use xlink:href="#DejaVuSans-50" x="367.082031"/>
      <use xlink:href="#DejaVuSans-61" x="422.884766"/>
      <use xlink:href="#DejaVuSans-63" x="484.164062"/>
      <use xlink:href="#DejaVuSans-6b" x="539.144531"/>
      <use xlink:href="#DejaVuSans-65" x="593.429688"/>
      <use xlink:href="#DejaVuSans-74" x="654.953125"/>
      <use xlink:href="#DejaVuSans-73" x="694.162109"/>
      <use xlink:href="#DejaVuSans-20" x="746.261719"/>
      <use xlink:href="#DejaVuSans-41" x="778.048828"/>
      <use xlink:href="#DejaVuSans-76" x="840.582031"/>
      <use xlink:href="#DejaVuSans-65" x="899.761719"/>
      <use xlink:href="#DejaVuSans-72" x="961.285156"/>
      <use xlink:href="#DejaVuSans-61" x="1002.398438"/>
      <use xlink:href="#DejaVuSans-67" x="1063.677734"/>
      <use xlink:href="#DejaVuSans-65" x="1127.154297"/>
     </g>
    </g>
    <g id="line2d_21">
     <path d="M 441.408594 626.220313 
L 451.408594 626.220313 
L 461.408594 626.220313 
" style="fill: none; stroke-dasharray: 5.55,2.4; stroke-dashoffset: 0; stroke: #ffa500; stroke-width: 1.5"/>
    </g>
    <g id="text_20">
     <!-- Filtered Packets Average -->
     <g transform="translate(469.408594 629.720313) scale(0.1 -0.1)">
      <use xlink:href="#DejaVuSans-46"/>
      <use xlink:href="#DejaVuSans-69" x="50.269531"/>
      <use xlink:href="#DejaVuSans-6c" x="78.052734"/>
      <use xlink:href="#DejaVuSans-74" x="105.835938"/>
      <use xlink:href="#DejaVuSans-65" x="145.044922"/>
      <use xlink:href="#DejaVuSans-72" x="206.568359"/>
      <use xlink:href="#DejaVuSans-65" x="245.431641"/>
      <use xlink:href="#DejaVuSans-64" x="306.955078"/>
      <use xlink:href="#DejaVuSans-20" x="370.431641"/>
      <use xlink:href="#DejaVuSans-50" x="402.21875"/>
      <use xlink:href="#DejaVuSans-61" x="458.021484"/>
      <use xlink:href="#DejaVuSans-63" x="519.300781"/>
      <use xlink:href="#DejaVuSans-6b" x="574.28125"/>
      <use xlink:href="#DejaVuSans-65" x="628.566406"/>
      <use xlink:href="#DejaVuSans-74" x="690.089844"/>
      <use xlink:href="#DejaVuSans-73" x="729.298828"/>
      <use xlink:href="#DejaVuSans-20" x="781.398438"/>
      <use xlink:href="#DejaVuSans-41" x="813.185547"/>
      <use xlink:href="#DejaVuSans-76" x="875.71875"/>
      <use xlink:href="#DejaVuSans-65" x="934.898438"/>
      <use xlink:href="#DejaVuSans-72" x="996.421875"/>
      <use xlink:href="#DejaVuSans-61" x="1037.535156"/>
      <use xlink:href="#DejaVuSans-67" x="1098.814453"/>
      <use xlink:href="#DejaVuSans-65" x="1162.291016"/>
     </g>
    </g>
   </g>
  </g>
 </g>
 <defs>
  <clipPath id="p2d5071bf77">
   <rect x="126" y="86.4" width="781.2" height="554.4"/>
  </clipPath>
 </defs>
</svg>
