<?xml version="1.0" encoding="utf-8" standalone="no"?>
<!DOCTYPE svg PUBLIC "-//W3C//DTD SVG 1.1//EN"
  "http://www.w3.org/Graphics/SVG/1.1/DTD/svg11.dtd">
<svg xmlns:xlink="http://www.w3.org/1999/xlink" width="1186.56pt" height="588.24pt" viewBox="0 0 1186.56 588.24" xmlns="http://www.w3.org/2000/svg" version="1.1">
 <metadata>
  <rdf:RDF xmlns:dc="http://purl.org/dc/elements/1.1/" xmlns:cc="http://creativecommons.org/ns#" xmlns:rdf="http://www.w3.org/1999/02/22-rdf-syntax-ns#">
   <cc:Work>
    <dc:type rdf:resource="http://purl.org/dc/dcmitype/StillImage"/>
    <dc:date>2023-04-14T15:35:30.884455</dc:date>
    <dc:format>image/svg+xml</dc:format>
    <dc:creator>
     <cc:Agent>
      <dc:title>Matplotlib v3.6.2, https://matplotlib.org/</dc:title>
     </cc:Agent>
    </dc:creator>
   </cc:Work>
  </rdf:RDF>
 </metadata>
 <defs>
  <style type="text/css">*{stroke-linejoin: round; stroke-linecap: butt}</style>
 </defs>
 <g id="figure_1">
  <g id="patch_1">
   <path d="M 0 588.24 
L 1186.56 588.24 
L 1186.56 0 
L 0 0 
z
" style="fill: #ffffff"/>
  </g>
  <g id="axes_1">
   <g id="patch_2">
    <path d="M 78.24704 533.43564 
L 846.001624 533.43564 
L 846.001624 38.36632 
L 78.24704 38.36632 
z
" style="fill: #ffffff"/>
   </g>
   <g id="matplotlib.axis_1">
    <g id="xtick_1">
     <g id="line2d_1">
      <defs>
       <path id="mbe78a7ec7f" d="M 0 0 
L 0 3.5 
" style="stroke: #000000; stroke-width: 0.8"/>
      </defs>
      <g>
       <use xlink:href="#mbe78a7ec7f" x="78.24704" y="533.43564" style="stroke: #000000; stroke-width: 0.8"/>
      </g>
     </g>
     <g id="text_1">
      <!-- 0 -->
      <g transform="translate(73.79329 551.073453) scale(0.14 -0.14)">
       <defs>
        <path id="DejaVuSans-30" d="M 2034 4250 
Q 1547 4250 1301 3770 
Q 1056 3291 1056 2328 
Q 1056 1369 1301 889 
Q 1547 409 2034 409 
Q 2525 409 2770 889 
Q 3016 1369 3016 2328 
Q 3016 3291 2770 3770 
Q 2525 4250 2034 4250 
z
M 2034 4750 
Q 2819 4750 3233 4129 
Q 3647 3509 3647 2328 
Q 3647 1150 3233 529 
Q 2819 -91 2034 -91 
Q 1250 -91 836 529 
Q 422 1150 422 2328 
Q 422 3509 836 4129 
Q 1250 4750 2034 4750 
z
" transform="scale(0.015625)"/>
       </defs>
       <use xlink:href="#DejaVuSans-30"/>
      </g>
     </g>
    </g>
    <g id="xtick_2">
     <g id="line2d_2">
      <g>
       <use xlink:href="#mbe78a7ec7f" x="199.776072" y="533.43564" style="stroke: #000000; stroke-width: 0.8"/>
      </g>
     </g>
     <g id="text_2">
      <!-- 10 -->
      <g transform="translate(190.868572 551.073453) scale(0.14 -0.14)">
       <defs>
        <path id="DejaVuSans-31" d="M 794 531 
L 1825 531 
L 1825 4091 
L 703 3866 
L 703 4441 
L 1819 4666 
L 2450 4666 
L 2450 531 
L 3481 531 
L 3481 0 
L 794 0 
L 794 531 
z
" transform="scale(0.015625)"/>
       </defs>
       <use xlink:href="#DejaVuSans-31"/>
       <use xlink:href="#DejaVuSans-30" x="63.623047"/>
      </g>
     </g>
    </g>
    <g id="xtick_3">
     <g id="line2d_3">
      <g>
       <use xlink:href="#mbe78a7ec7f" x="321.305104" y="533.43564" style="stroke: #000000; stroke-width: 0.8"/>
      </g>
     </g>
     <g id="text_3">
      <!-- 20 -->
      <g transform="translate(312.397604 551.073453) scale(0.14 -0.14)">
       <defs>
        <path id="DejaVuSans-32" d="M 1228 531 
L 3431 531 
L 3431 0 
L 469 0 
L 469 531 
Q 828 903 1448 1529 
Q 2069 2156 2228 2338 
Q 2531 2678 2651 2914 
Q 2772 3150 2772 3378 
Q 2772 3750 2511 3984 
Q 2250 4219 1831 4219 
Q 1534 4219 1204 4116 
Q 875 4013 500 3803 
L 500 4441 
Q 881 4594 1212 4672 
Q 1544 4750 1819 4750 
Q 2544 4750 2975 4387 
Q 3406 4025 3406 3419 
Q 3406 3131 3298 2873 
Q 3191 2616 2906 2266 
Q 2828 2175 2409 1742 
Q 1991 1309 1228 531 
z
" transform="scale(0.015625)"/>
       </defs>
       <use xlink:href="#DejaVuSans-32"/>
       <use xlink:href="#DejaVuSans-30" x="63.623047"/>
      </g>
     </g>
    </g>
    <g id="xtick_4">
     <g id="line2d_4">
      <g>
       <use xlink:href="#mbe78a7ec7f" x="442.834136" y="533.43564" style="stroke: #000000; stroke-width: 0.8"/>
      </g>
     </g>
     <g id="text_4">
      <!-- 30 -->
      <g transform="translate(433.926636 551.073453) scale(0.14 -0.14)">
       <defs>
        <path id="DejaVuSans-33" d="M 2597 2516 
Q 3050 2419 3304 2112 
Q 3559 1806 3559 1356 
Q 3559 666 3084 287 
Q 2609 -91 1734 -91 
Q 1441 -91 1130 -33 
Q 819 25 488 141 
L 488 750 
Q 750 597 1062 519 
Q 1375 441 1716 441 
Q 2309 441 2620 675 
Q 2931 909 2931 1356 
Q 2931 1769 2642 2001 
Q 2353 2234 1838 2234 
L 1294 2234 
L 1294 2753 
L 1863 2753 
Q 2328 2753 2575 2939 
Q 2822 3125 2822 3475 
Q 2822 3834 2567 4026 
Q 2313 4219 1838 4219 
Q 1578 4219 1281 4162 
Q 984 4106 628 3988 
L 628 4550 
Q 988 4650 1302 4700 
Q 1616 4750 1894 4750 
Q 2613 4750 3031 4423 
Q 3450 4097 3450 3541 
Q 3450 3153 3228 2886 
Q 3006 2619 2597 2516 
z
" transform="scale(0.015625)"/>
       </defs>
       <use xlink:href="#DejaVuSans-33"/>
       <use xlink:href="#DejaVuSans-30" x="63.623047"/>
      </g>
     </g>
    </g>
    <g id="xtick_5">
     <g id="line2d_5">
      <g>
       <use xlink:href="#mbe78a7ec7f" x="564.363169" y="533.43564" style="stroke: #000000; stroke-width: 0.8"/>
      </g>
     </g>
     <g id="text_5">
      <!-- 40 -->
      <g transform="translate(555.455669 551.073453) scale(0.14 -0.14)">
       <defs>
        <path id="DejaVuSans-34" d="M 2419 4116 
L 825 1625 
L 2419 1625 
L 2419 4116 
z
M 2253 4666 
L 3047 4666 
L 3047 1625 
L 3713 1625 
L 3713 1100 
L 3047 1100 
L 3047 0 
L 2419 0 
L 2419 1100 
L 313 1100 
L 313 1709 
L 2253 4666 
z
" transform="scale(0.015625)"/>
       </defs>
       <use xlink:href="#DejaVuSans-34"/>
       <use xlink:href="#DejaVuSans-30" x="63.623047"/>
      </g>
     </g>
    </g>
    <g id="xtick_6">
     <g id="line2d_6">
      <g>
       <use xlink:href="#mbe78a7ec7f" x="685.892201" y="533.43564" style="stroke: #000000; stroke-width: 0.8"/>
      </g>
     </g>
     <g id="text_6">
      <!-- 50 -->
      <g transform="translate(676.984701 551.073453) scale(0.14 -0.14)">
       <defs>
        <path id="DejaVuSans-35" d="M 691 4666 
L 3169 4666 
L 3169 4134 
L 1269 4134 
L 1269 2991 
Q 1406 3038 1543 3061 
Q 1681 3084 1819 3084 
Q 2600 3084 3056 2656 
Q 3513 2228 3513 1497 
Q 3513 744 3044 326 
Q 2575 -91 1722 -91 
Q 1428 -91 1123 -41 
Q 819 9 494 109 
L 494 744 
Q 775 591 1075 516 
Q 1375 441 1709 441 
Q 2250 441 2565 725 
Q 2881 1009 2881 1497 
Q 2881 1984 2565 2268 
Q 2250 2553 1709 2553 
Q 1456 2553 1204 2497 
Q 953 2441 691 2322 
L 691 4666 
z
" transform="scale(0.015625)"/>
       </defs>
       <use xlink:href="#DejaVuSans-35"/>
       <use xlink:href="#DejaVuSans-30" x="63.623047"/>
      </g>
     </g>
    </g>
    <g id="xtick_7">
     <g id="line2d_7">
      <g>
       <use xlink:href="#mbe78a7ec7f" x="807.421233" y="533.43564" style="stroke: #000000; stroke-width: 0.8"/>
      </g>
     </g>
     <g id="text_7">
      <!-- 60 -->
      <g transform="translate(798.513733 551.073453) scale(0.14 -0.14)">
       <defs>
        <path id="DejaVuSans-36" d="M 2113 2584 
Q 1688 2584 1439 2293 
Q 1191 2003 1191 1497 
Q 1191 994 1439 701 
Q 1688 409 2113 409 
Q 2538 409 2786 701 
Q 3034 994 3034 1497 
Q 3034 2003 2786 2293 
Q 2538 2584 2113 2584 
z
M 3366 4563 
L 3366 3988 
Q 3128 4100 2886 4159 
Q 2644 4219 2406 4219 
Q 1781 4219 1451 3797 
Q 1122 3375 1075 2522 
Q 1259 2794 1537 2939 
Q 1816 3084 2150 3084 
Q 2853 3084 3261 2657 
Q 3669 2231 3669 1497 
Q 3669 778 3244 343 
Q 2819 -91 2113 -91 
Q 1303 -91 875 529 
Q 447 1150 447 2328 
Q 447 3434 972 4092 
Q 1497 4750 2381 4750 
Q 2619 4750 2861 4703 
Q 3103 4656 3366 4563 
z
" transform="scale(0.015625)"/>
       </defs>
       <use xlink:href="#DejaVuSans-36"/>
       <use xlink:href="#DejaVuSans-30" x="63.623047"/>
      </g>
     </g>
    </g>
    <g id="text_8">
     <!-- Time (s) -->
     <g transform="translate(431.630973 569.382671) scale(0.15 -0.15)">
      <defs>
       <path id="DejaVuSans-54" d="M -19 4666 
L 3928 4666 
L 3928 4134 
L 2272 4134 
L 2272 0 
L 1638 0 
L 1638 4134 
L -19 4134 
L -19 4666 
z
" transform="scale(0.015625)"/>
       <path id="DejaVuSans-69" d="M 603 3500 
L 1178 3500 
L 1178 0 
L 603 0 
L 603 3500 
z
M 603 4863 
L 1178 4863 
L 1178 4134 
L 603 4134 
L 603 4863 
z
" transform="scale(0.015625)"/>
       <path id="DejaVuSans-6d" d="M 3328 2828 
Q 3544 3216 3844 3400 
Q 4144 3584 4550 3584 
Q 5097 3584 5394 3201 
Q 5691 2819 5691 2113 
L 5691 0 
L 5113 0 
L 5113 2094 
Q 5113 2597 4934 2840 
Q 4756 3084 4391 3084 
Q 3944 3084 3684 2787 
Q 3425 2491 3425 1978 
L 3425 0 
L 2847 0 
L 2847 2094 
Q 2847 2600 2669 2842 
Q 2491 3084 2119 3084 
Q 1678 3084 1418 2786 
Q 1159 2488 1159 1978 
L 1159 0 
L 581 0 
L 581 3500 
L 1159 3500 
L 1159 2956 
Q 1356 3278 1631 3431 
Q 1906 3584 2284 3584 
Q 2666 3584 2933 3390 
Q 3200 3197 3328 2828 
z
" transform="scale(0.015625)"/>
       <path id="DejaVuSans-65" d="M 3597 1894 
L 3597 1613 
L 953 1613 
Q 991 1019 1311 708 
Q 1631 397 2203 397 
Q 2534 397 2845 478 
Q 3156 559 3463 722 
L 3463 178 
Q 3153 47 2828 -22 
Q 2503 -91 2169 -91 
Q 1331 -91 842 396 
Q 353 884 353 1716 
Q 353 2575 817 3079 
Q 1281 3584 2069 3584 
Q 2775 3584 3186 3129 
Q 3597 2675 3597 1894 
z
M 3022 2063 
Q 3016 2534 2758 2815 
Q 2500 3097 2075 3097 
Q 1594 3097 1305 2825 
Q 1016 2553 972 2059 
L 3022 2063 
z
" transform="scale(0.015625)"/>
       <path id="DejaVuSans-20" transform="scale(0.015625)"/>
       <path id="DejaVuSans-28" d="M 1984 4856 
Q 1566 4138 1362 3434 
Q 1159 2731 1159 2009 
Q 1159 1288 1364 580 
Q 1569 -128 1984 -844 
L 1484 -844 
Q 1016 -109 783 600 
Q 550 1309 550 2009 
Q 550 2706 781 3412 
Q 1013 4119 1484 4856 
L 1984 4856 
z
" transform="scale(0.015625)"/>
       <path id="DejaVuSans-73" d="M 2834 3397 
L 2834 2853 
Q 2591 2978 2328 3040 
Q 2066 3103 1784 3103 
Q 1356 3103 1142 2972 
Q 928 2841 928 2578 
Q 928 2378 1081 2264 
Q 1234 2150 1697 2047 
L 1894 2003 
Q 2506 1872 2764 1633 
Q 3022 1394 3022 966 
Q 3022 478 2636 193 
Q 2250 -91 1575 -91 
Q 1294 -91 989 -36 
Q 684 19 347 128 
L 347 722 
Q 666 556 975 473 
Q 1284 391 1588 391 
Q 1994 391 2212 530 
Q 2431 669 2431 922 
Q 2431 1156 2273 1281 
Q 2116 1406 1581 1522 
L 1381 1569 
Q 847 1681 609 1914 
Q 372 2147 372 2553 
Q 372 3047 722 3315 
Q 1072 3584 1716 3584 
Q 2034 3584 2315 3537 
Q 2597 3491 2834 3397 
z
" transform="scale(0.015625)"/>
       <path id="DejaVuSans-29" d="M 513 4856 
L 1013 4856 
Q 1481 4119 1714 3412 
Q 1947 2706 1947 2009 
Q 1947 1309 1714 600 
Q 1481 -109 1013 -844 
L 513 -844 
Q 928 -128 1133 580 
Q 1338 1288 1338 2009 
Q 1338 2731 1133 3434 
Q 928 4138 513 4856 
z
" transform="scale(0.015625)"/>
      </defs>
      <use xlink:href="#DejaVuSans-54"/>
      <use xlink:href="#DejaVuSans-69" x="57.958984"/>
      <use xlink:href="#DejaVuSans-6d" x="85.742188"/>
      <use xlink:href="#DejaVuSans-65" x="183.154297"/>
      <use xlink:href="#DejaVuSans-20" x="244.677734"/>
      <use xlink:href="#DejaVuSans-28" x="276.464844"/>
      <use xlink:href="#DejaVuSans-73" x="315.478516"/>
      <use xlink:href="#DejaVuSans-29" x="367.578125"/>
     </g>
    </g>
   </g>
   <g id="matplotlib.axis_2">
    <g id="ytick_1">
     <g id="line2d_8">
      <defs>
       <path id="me277fa16b3" d="M 0 0 
L -3.5 0 
" style="stroke: #000000; stroke-width: 0.8"/>
      </defs>
      <g>
       <use xlink:href="#me277fa16b3" x="78.24704" y="533.43564" style="stroke: #000000; stroke-width: 0.8"/>
      </g>
     </g>
     <g id="text_9">
      <!-- 0 -->
      <g transform="translate(62.33954 538.754546) scale(0.14 -0.14)">
       <use xlink:href="#DejaVuSans-30"/>
      </g>
     </g>
    </g>
    <g id="ytick_2">
     <g id="line2d_9">
      <g>
       <use xlink:href="#me277fa16b3" x="78.24704" y="463.187231" style="stroke: #000000; stroke-width: 0.8"/>
      </g>
     </g>
     <g id="text_10">
      <!-- 10 -->
      <g transform="translate(53.43204 468.506137) scale(0.14 -0.14)">
       <use xlink:href="#DejaVuSans-31"/>
       <use xlink:href="#DejaVuSans-30" x="63.623047"/>
      </g>
     </g>
    </g>
    <g id="ytick_3">
     <g id="line2d_10">
      <g>
       <use xlink:href="#me277fa16b3" x="78.24704" y="392.938822" style="stroke: #000000; stroke-width: 0.8"/>
      </g>
     </g>
     <g id="text_11">
      <!-- 20 -->
      <g transform="translate(53.43204 398.257728) scale(0.14 -0.14)">
       <use xlink:href="#DejaVuSans-32"/>
       <use xlink:href="#DejaVuSans-30" x="63.623047"/>
      </g>
     </g>
    </g>
    <g id="ytick_4">
     <g id="line2d_11">
      <g>
       <use xlink:href="#me277fa16b3" x="78.24704" y="322.690412" style="stroke: #000000; stroke-width: 0.8"/>
      </g>
     </g>
     <g id="text_12">
      <!-- 30 -->
      <g transform="translate(53.43204 328.009319) scale(0.14 -0.14)">
       <use xlink:href="#DejaVuSans-33"/>
       <use xlink:href="#DejaVuSans-30" x="63.623047"/>
      </g>
     </g>
    </g>
    <g id="ytick_5">
     <g id="line2d_12">
      <g>
       <use xlink:href="#me277fa16b3" x="78.24704" y="252.442003" style="stroke: #000000; stroke-width: 0.8"/>
      </g>
     </g>
     <g id="text_13">
      <!-- 40 -->
      <g transform="translate(53.43204 257.760909) scale(0.14 -0.14)">
       <use xlink:href="#DejaVuSans-34"/>
       <use xlink:href="#DejaVuSans-30" x="63.623047"/>
      </g>
     </g>
    </g>
    <g id="ytick_6">
     <g id="line2d_13">
      <g>
       <use xlink:href="#me277fa16b3" x="78.24704" y="182.193594" style="stroke: #000000; stroke-width: 0.8"/>
      </g>
     </g>
     <g id="text_14">
      <!-- 50 -->
      <g transform="translate(53.43204 187.5125) scale(0.14 -0.14)">
       <use xlink:href="#DejaVuSans-35"/>
       <use xlink:href="#DejaVuSans-30" x="63.623047"/>
      </g>
     </g>
    </g>
    <g id="ytick_7">
     <g id="line2d_14">
      <g>
       <use xlink:href="#me277fa16b3" x="78.24704" y="111.945185" style="stroke: #000000; stroke-width: 0.8"/>
      </g>
     </g>
     <g id="text_15">
      <!-- 60 -->
      <g transform="translate(53.43204 117.264091) scale(0.14 -0.14)">
       <use xlink:href="#DejaVuSans-36"/>
       <use xlink:href="#DejaVuSans-30" x="63.623047"/>
      </g>
     </g>
    </g>
    <g id="ytick_8">
     <g id="line2d_15">
      <g>
       <use xlink:href="#me277fa16b3" x="78.24704" y="41.696776" style="stroke: #000000; stroke-width: 0.8"/>
      </g>
     </g>
     <g id="text_16">
      <!-- 70 -->
      <g transform="translate(53.43204 47.015682) scale(0.14 -0.14)">
       <defs>
        <path id="DejaVuSans-37" d="M 525 4666 
L 3525 4666 
L 3525 4397 
L 1831 0 
L 1172 0 
L 2766 4134 
L 525 4134 
L 525 4666 
z
" transform="scale(0.015625)"/>
       </defs>
       <use xlink:href="#DejaVuSans-37"/>
       <use xlink:href="#DejaVuSans-30" x="63.623047"/>
      </g>
     </g>
    </g>
    <g id="text_17">
     <!-- Packets per Second -->
     <g transform="translate(46.312509 359.168949) rotate(-90) scale(0.15 -0.15)">
      <defs>
       <path id="DejaVuSans-50" d="M 1259 4147 
L 1259 2394 
L 2053 2394 
Q 2494 2394 2734 2622 
Q 2975 2850 2975 3272 
Q 2975 3691 2734 3919 
Q 2494 4147 2053 4147 
L 1259 4147 
z
M 628 4666 
L 2053 4666 
Q 2838 4666 3239 4311 
Q 3641 3956 3641 3272 
Q 3641 2581 3239 2228 
Q 2838 1875 2053 1875 
L 1259 1875 
L 1259 0 
L 628 0 
L 628 4666 
z
" transform="scale(0.015625)"/>
       <path id="DejaVuSans-61" d="M 2194 1759 
Q 1497 1759 1228 1600 
Q 959 1441 959 1056 
Q 959 750 1161 570 
Q 1363 391 1709 391 
Q 2188 391 2477 730 
Q 2766 1069 2766 1631 
L 2766 1759 
L 2194 1759 
z
M 3341 1997 
L 3341 0 
L 2766 0 
L 2766 531 
Q 2569 213 2275 61 
Q 1981 -91 1556 -91 
Q 1019 -91 701 211 
Q 384 513 384 1019 
Q 384 1609 779 1909 
Q 1175 2209 1959 2209 
L 2766 2209 
L 2766 2266 
Q 2766 2663 2505 2880 
Q 2244 3097 1772 3097 
Q 1472 3097 1187 3025 
Q 903 2953 641 2809 
L 641 3341 
Q 956 3463 1253 3523 
Q 1550 3584 1831 3584 
Q 2591 3584 2966 3190 
Q 3341 2797 3341 1997 
z
" transform="scale(0.015625)"/>
       <path id="DejaVuSans-63" d="M 3122 3366 
L 3122 2828 
Q 2878 2963 2633 3030 
Q 2388 3097 2138 3097 
Q 1578 3097 1268 2742 
Q 959 2388 959 1747 
Q 959 1106 1268 751 
Q 1578 397 2138 397 
Q 2388 397 2633 464 
Q 2878 531 3122 666 
L 3122 134 
Q 2881 22 2623 -34 
Q 2366 -91 2075 -91 
Q 1284 -91 818 406 
Q 353 903 353 1747 
Q 353 2603 823 3093 
Q 1294 3584 2113 3584 
Q 2378 3584 2631 3529 
Q 2884 3475 3122 3366 
z
" transform="scale(0.015625)"/>
       <path id="DejaVuSans-6b" d="M 581 4863 
L 1159 4863 
L 1159 1991 
L 2875 3500 
L 3609 3500 
L 1753 1863 
L 3688 0 
L 2938 0 
L 1159 1709 
L 1159 0 
L 581 0 
L 581 4863 
z
" transform="scale(0.015625)"/>
       <path id="DejaVuSans-74" d="M 1172 4494 
L 1172 3500 
L 2356 3500 
L 2356 3053 
L 1172 3053 
L 1172 1153 
Q 1172 725 1289 603 
Q 1406 481 1766 481 
L 2356 481 
L 2356 0 
L 1766 0 
Q 1100 0 847 248 
Q 594 497 594 1153 
L 594 3053 
L 172 3053 
L 172 3500 
L 594 3500 
L 594 4494 
L 1172 4494 
z
" transform="scale(0.015625)"/>
       <path id="DejaVuSans-70" d="M 1159 525 
L 1159 -1331 
L 581 -1331 
L 581 3500 
L 1159 3500 
L 1159 2969 
Q 1341 3281 1617 3432 
Q 1894 3584 2278 3584 
Q 2916 3584 3314 3078 
Q 3713 2572 3713 1747 
Q 3713 922 3314 415 
Q 2916 -91 2278 -91 
Q 1894 -91 1617 61 
Q 1341 213 1159 525 
z
M 3116 1747 
Q 3116 2381 2855 2742 
Q 2594 3103 2138 3103 
Q 1681 3103 1420 2742 
Q 1159 2381 1159 1747 
Q 1159 1113 1420 752 
Q 1681 391 2138 391 
Q 2594 391 2855 752 
Q 3116 1113 3116 1747 
z
" transform="scale(0.015625)"/>
       <path id="DejaVuSans-72" d="M 2631 2963 
Q 2534 3019 2420 3045 
Q 2306 3072 2169 3072 
Q 1681 3072 1420 2755 
Q 1159 2438 1159 1844 
L 1159 0 
L 581 0 
L 581 3500 
L 1159 3500 
L 1159 2956 
Q 1341 3275 1631 3429 
Q 1922 3584 2338 3584 
Q 2397 3584 2469 3576 
Q 2541 3569 2628 3553 
L 2631 2963 
z
" transform="scale(0.015625)"/>
       <path id="DejaVuSans-53" d="M 3425 4513 
L 3425 3897 
Q 3066 4069 2747 4153 
Q 2428 4238 2131 4238 
Q 1616 4238 1336 4038 
Q 1056 3838 1056 3469 
Q 1056 3159 1242 3001 
Q 1428 2844 1947 2747 
L 2328 2669 
Q 3034 2534 3370 2195 
Q 3706 1856 3706 1288 
Q 3706 609 3251 259 
Q 2797 -91 1919 -91 
Q 1588 -91 1214 -16 
Q 841 59 441 206 
L 441 856 
Q 825 641 1194 531 
Q 1563 422 1919 422 
Q 2459 422 2753 634 
Q 3047 847 3047 1241 
Q 3047 1584 2836 1778 
Q 2625 1972 2144 2069 
L 1759 2144 
Q 1053 2284 737 2584 
Q 422 2884 422 3419 
Q 422 4038 858 4394 
Q 1294 4750 2059 4750 
Q 2388 4750 2728 4690 
Q 3069 4631 3425 4513 
z
" transform="scale(0.015625)"/>
       <path id="DejaVuSans-6f" d="M 1959 3097 
Q 1497 3097 1228 2736 
Q 959 2375 959 1747 
Q 959 1119 1226 758 
Q 1494 397 1959 397 
Q 2419 397 2687 759 
Q 2956 1122 2956 1747 
Q 2956 2369 2687 2733 
Q 2419 3097 1959 3097 
z
M 1959 3584 
Q 2709 3584 3137 3096 
Q 3566 2609 3566 1747 
Q 3566 888 3137 398 
Q 2709 -91 1959 -91 
Q 1206 -91 779 398 
Q 353 888 353 1747 
Q 353 2609 779 3096 
Q 1206 3584 1959 3584 
z
" transform="scale(0.015625)"/>
       <path id="DejaVuSans-6e" d="M 3513 2113 
L 3513 0 
L 2938 0 
L 2938 2094 
Q 2938 2591 2744 2837 
Q 2550 3084 2163 3084 
Q 1697 3084 1428 2787 
Q 1159 2491 1159 1978 
L 1159 0 
L 581 0 
L 581 3500 
L 1159 3500 
L 1159 2956 
Q 1366 3272 1645 3428 
Q 1925 3584 2291 3584 
Q 2894 3584 3203 3211 
Q 3513 2838 3513 2113 
z
" transform="scale(0.015625)"/>
       <path id="DejaVuSans-64" d="M 2906 2969 
L 2906 4863 
L 3481 4863 
L 3481 0 
L 2906 0 
L 2906 525 
Q 2725 213 2448 61 
Q 2172 -91 1784 -91 
Q 1150 -91 751 415 
Q 353 922 353 1747 
Q 353 2572 751 3078 
Q 1150 3584 1784 3584 
Q 2172 3584 2448 3432 
Q 2725 3281 2906 2969 
z
M 947 1747 
Q 947 1113 1208 752 
Q 1469 391 1925 391 
Q 2381 391 2643 752 
Q 2906 1113 2906 1747 
Q 2906 2381 2643 2742 
Q 2381 3103 1925 3103 
Q 1469 3103 1208 2742 
Q 947 2381 947 1747 
z
" transform="scale(0.015625)"/>
      </defs>
      <use xlink:href="#DejaVuSans-50"/>
      <use xlink:href="#DejaVuSans-61" x="55.802734"/>
      <use xlink:href="#DejaVuSans-63" x="117.082031"/>
      <use xlink:href="#DejaVuSans-6b" x="172.0625"/>
      <use xlink:href="#DejaVuSans-65" x="226.347656"/>
      <use xlink:href="#DejaVuSans-74" x="287.871094"/>
      <use xlink:href="#DejaVuSans-73" x="327.080078"/>
      <use xlink:href="#DejaVuSans-20" x="379.179688"/>
      <use xlink:href="#DejaVuSans-70" x="410.966797"/>
      <use xlink:href="#DejaVuSans-65" x="474.443359"/>
      <use xlink:href="#DejaVuSans-72" x="535.966797"/>
      <use xlink:href="#DejaVuSans-20" x="577.080078"/>
      <use xlink:href="#DejaVuSans-53" x="608.867188"/>
      <use xlink:href="#DejaVuSans-65" x="672.34375"/>
      <use xlink:href="#DejaVuSans-63" x="733.867188"/>
      <use xlink:href="#DejaVuSans-6f" x="788.847656"/>
      <use xlink:href="#DejaVuSans-6e" x="850.029297"/>
      <use xlink:href="#DejaVuSans-64" x="913.408203"/>
     </g>
    </g>
   </g>
   <g id="line2d_16">
    <path d="M 78.24704 113.493852 
L 80.681662 112.644869 
L 83.120456 113.364699 
L 85.625482 124.471076 
L 88.40863 103.989944 
L 90.986679 136.055093 
L 93.337694 133.993544 
L 95.96639 111.234531 
L 98.343434 102.452164 
L 100.774468 112.023742 
L 103.439073 84.884712 
L 105.94199 124.126688 
L 108.498428 132.695785 
L 110.904726 107.691789 
L 113.382614 119.992259 
L 116.096884 93.092222 
L 118.523587 146.452003 
L 120.965395 78.920354 
L 123.746151 103.620632 
L 126.181741 112.811947 
L 128.639501 151.34207 
L 131.120814 86.156871 
L 133.557318 112.969795 
L 136.387856 141.341012 
L 139.014591 110.919198 
L 141.390991 102.335415 
L 143.822834 112.164109 
L 146.227569 107.415074 
L 148.686747 116.846596 
L 151.414832 95.322103 
L 153.96326 131.436179 
L 156.397856 112.640442 
L 158.832479 112.644983 
L 161.272461 113.569184 
L 163.932612 84.133662 
L 166.418559 155.674529 
L 169.264186 83.417705 
L 172.104417 112.620889 
L 174.667552 133.742928 
L 177.099364 112.158511 
L 179.489217 104.762132 
L 181.956864 118.276439 
L 184.620187 84.668817 
L 187.052665 112.273969 
L 189.547636 122.823103 
L 191.973993 146.396718 
L 194.541302 101.1392 
L 196.971504 111.879513 
L 199.628938 83.674225 
L 202.119049 122.021661 
L 204.547083 146.664173 
L 206.980586 112.451275 
L 209.515091 95.543984 
L 212.20094 88.432686 
L 214.877352 150.659462 
L 217.206165 93.526299 
L 219.895128 120.697157 
L 222.461184 100.928057 
L 224.885018 110.7719 
L 227.32691 113.897579 
L 229.75994 112.369554 
L 232.18877 111.641373 
L 234.553444 136.300912 
L 236.996012 79.061831 
L 239.601745 140.276967 
L 242.190576 104.732965 
L 244.63024 78.521114 
L 247.201798 135.051962 
L 249.552328 97.590785 
L 252.105775 132.226406 
L 254.754279 82.15789 
L 257.244654 122.065184 
L 260.073652 141.127627 
L 262.636974 100.466655 
L 265.181259 130.781593 
L 267.77974 73.470442 
L 270.332988 132.195106 
L 272.76371 111.969672 
L 275.414547 82.55501 
L 277.897631 155.239015 
L 280.671157 102.500043 
L 283.162527 122.229462 
L 285.593569 112.025299 
L 288.03441 78.740399 
L 290.70724 150.146446 
L 295.730338 71.495879 
L 298.160686 111.904945 
L 300.766251 140.251562 
L 303.427246 84.276209 
L 305.970686 130.647897 
L 308.501104 128.574984 
L 311.124996 77.9249 
L 313.730991 140.316561 
L 316.098702 100.753376 
L 318.591768 122.50932 
L 321.050406 116.755151 
L 323.491386 113.740759 
L 325.945369 115.96477 
L 328.375474 111.862696 
L 330.974836 73.626222 
L 333.456762 120.664858 
L 335.950112 122.556166 
L 338.266295 91.127552 
L 340.820275 132.310069 
L 343.179268 99.154323 
L 345.801602 142.765909 
L 348.322953 93.259425 
L 350.81494 122.331326 
L 353.589495 102.659928 
L 356.081611 122.352585 
L 358.580627 89.325332 
L 361.128386 131.330765 
L 363.620557 122.361624 
L 366.148062 94.331116 
L 368.646032 89.139396 
L 371.199964 132.302612 
L 373.753216 132.195735 
L 376.179099 111.129046 
L 378.706968 94.394352 
L 381.198536 122.262173 
L 383.629359 111.987245 
L 386.183407 98.894567 
L 388.580368 106.033432 
L 391.045374 117.831503 
L 393.570504 127.727228 
L 395.9686 106.235726 
L 398.466614 123.323255 
L 401.050152 103.854611 
L 403.61006 99.889263 
L 406.317108 123.454498 
L 408.748937 112.161547 
L 411.307426 99.648771 
L 413.953693 114.037786 
L 416.444949 122.21083 
L 418.999886 99.045684 
L 421.52577 127.848283 
L 424.142711 109.337993 
L 426.573586 111.996244 
L 429.127184 98.818 
L 431.557849 111.959795 
L 434.272623 124.621242 
L 436.707556 77.637119 
L 439.144031 112.964812 
L 441.692805 131.490788 
L 444.252782 133.249783 
L 446.830634 102.90718 
L 449.361263 94.873269 
L 451.820955 116.93365 
L 454.536012 93.219806 
L 457.082785 131.175015 
L 459.804682 94.326079 
L 462.358855 132.340484 
L 464.850033 122.19777 
L 467.177374 93.248174 
L 469.641123 117.619536 
L 472.353891 124.318865 
L 474.785336 112.09498 
L 477.277693 88.138792 
L 479.736384 116.76418 
L 482.329308 138.334763 
L 484.755748 111.22587 
L 487.197957 113.952149 
L 489.775839 102.912091 
L 492.206405 111.942633 
L 494.63865 112.233716 
L 497.06824 111.773197 
L 499.622761 98.975101 
L 502.346584 94.636648 
L 504.895706 131.545582 
L 507.326717 112.019891 
L 510.038761 92.730645 
L 512.597652 133.080039 
L 515.024467 111.291137 
L 517.737464 92.885604 
L 520.167795 111.901937 
L 522.594429 146.441022 
L 525.430134 111.949165 
L 527.870213 78.598445 
L 530.424304 132.327592 
L 532.851404 111.340808 
L 535.276297 110.956452 
L 537.769465 122.526201 
L 540.419865 114.69177 
L 542.850657 111.981784 
L 545.404788 98.908664 
L 547.842311 113.145588 
L 550.55864 93.426006 
L 552.989761 112.039002 
L 555.420784 112.021747 
L 557.974877 132.327942 
L 560.405744 111.9949 
L 563.057419 82.697437 
L 565.478674 145.581237 
L 567.919251 78.691273 
L 570.412042 122.464016 
L 572.894942 120.826736 
L 575.676313 103.715525 
L 578.234247 132.93015 
L 580.936903 122.788213 
L 583.712132 102.764591 
L 586.203997 122.311166 
L 588.984658 72.903801 
L 591.476578 122.320205 
L 594.24674 132.795301 
L 596.744833 89.161179 
L 599.298767 132.302986 
L 602.016453 93.645686 
L 604.781765 132.092612 
L 607.272774 122.169885 
L 609.709752 78.019687 
L 612.257863 131.386157 
L 614.981321 94.577892 
L 617.746845 132.123229 
L 620.1772 111.906075 
L 622.609618 112.26362 
L 625.100897 122.214549 
L 627.885376 73.535181 
L 630.368247 155.20642 
L 633.143858 102.82375 
L 635.706986 100.433989 
L 638.137783 111.982627 
L 640.559715 110.440169 
L 643.059355 123.589918 
L 645.713346 83.090949 
L 648.257709 130.793955 
L 651.038741 103.663122 
L 653.473203 112.617194 
L 656.027579 132.372326 
L 658.458253 111.961384 
L 660.886118 111.473796 
L 663.54109 83.25727 
L 665.972201 112.037077 
L 668.527362 132.495553 
L 671.240056 92.836323 
L 673.665407 146.236388 
L 676.5781 93.779543 
L 679.398242 139.895527 
L 681.829543 112.070212 
L 684.206009 66.423329 
L 686.832421 143.372525 
L 689.466628 112.117645 
L 691.913806 79.917881 
L 694.345752 112.1817 
L 696.900014 132.354517 
L 699.26792 100.789008 
L 702.042887 102.723834 
L 704.535901 122.500594 
L 707.356184 139.915302 
L 710.207884 84.376069 
L 712.982888 102.729623 
L 715.475629 122.455737 
L 718.31236 112.101673 
L 720.744582 112.229665 
L 723.165263 110.221563 
L 725.719384 132.332228 
L 728.422945 122.925658 
L 730.854548 112.12244 
L 733.628204 102.520216 
L 736.068788 78.692639 
L 738.500083 112.068946 
L 740.992493 122.401176 
L 743.599224 140.427416 
L 746.260151 84.26474 
L 748.681294 145.563318 
L 751.117673 77.907744 
L 753.896966 103.394286 
L 756.441699 130.852429 
L 758.93426 122.426153 
L 761.374734 113.653839 
L 764.088605 93.02749 
L 766.633399 130.862069 
L 769.063168 111.804484 
L 771.591326 128.213007 
L 774.209116 109.475432 
L 776.639825 111.967438 
L 779.485239 83.384073 
L 781.996353 125.46278 
L 784.687299 89.27547 
L 787.174276 155.830813 
L 789.614824 78.685974 
L 792.15972 130.878192 
L 794.597988 113.27412 
L 797.30878 92.527238 
L 799.744417 112.820227 
L 802.298888 132.38723 
L 804.72958 111.964427 
L 807.158292 111.620839 
L 807.158292 111.620839 
" clip-path="url(#p0b87abb33a)" style="fill: none; stroke: #1f77b4; stroke-width: 1.5; stroke-linecap: square"/>
   </g>
   <g id="line2d_17">
    <path d="M 78.24704 323.469478 
L 80.68165 358.105308 
L 83.12046 323.401467 
L 85.625476 294.872134 
L 88.408624 318.71281 
L 90.986637 334.742549 
L 93.337676 351.872907 
L 95.966332 306.093039 
L 98.343336 317.940343 
L 100.774356 322.728456 
L 103.439047 341.205784 
L 105.941995 294.675011 
L 108.498379 366.457144 
L 110.904665 320.562705 
L 113.382565 292.261486 
L 116.096881 313.267644 
L 118.52359 357.534419 
L 120.965399 323.659445 
L 123.74615 318.527733 
L 126.181743 323.124094 
L 128.63937 325.009723 
L 131.120755 292.600191 
L 133.557311 323.207192 
L 136.387845 352.468654 
L 139.014588 305.9275 
L 141.39099 317.885678 
L 143.822831 357.905624 
L 146.227571 284.924202 
L 148.686745 359.856591 
L 151.41483 283.085065 
L 153.963254 365.935625 
L 156.397855 287.97216 
L 161.272453 358.498469 
L 163.9326 276.691231 
L 166.418552 361.726339 
L 169.264183 323.427561 
L 172.10441 323.028016 
L 174.667539 300.281 
L 177.099213 322.785142 
L 179.489208 319.111662 
L 181.956854 325.855878 
L 184.620056 341.098281 
L 187.052621 322.862343 
L 189.547616 328.131353 
L 191.973979 322.324096 
L 194.541295 300.661221 
L 196.97149 322.656961 
L 199.628929 308.555418 
L 202.119041 362.013149 
L 204.547076 322.469512 
L 206.980455 322.932746 
L 209.515057 331.339495 
L 212.200921 279.149594 
L 214.877321 342.046722 
L 217.206132 350.14 
L 219.89511 311.192962 
L 222.461134 300.544031 
L 224.884983 322.105171 
L 227.326898 323.668616 
L 229.759933 322.902962 
L 232.188755 322.537864 
L 234.553428 352.919736 
L 236.996 288.773218 
L 239.60174 336.856872 
L 242.190501 335.567476 
L 244.630122 288.477325 
L 247.201794 334.252658 
L 249.552326 315.51342 
L 252.105743 332.828641 
L 254.75414 340.023055 
L 257.244637 327.760526 
L 260.073606 322.190653 
L 262.63697 300.302381 
L 265.181249 332.108128 
L 267.779708 303.451059 
L 270.33298 332.817299 
L 272.763699 322.702381 
L 275.414512 307.993303 
L 277.897625 361.530062 
L 280.671146 317.967427 
L 283.162519 327.832865 
L 285.593558 322.730111 
L 288.034238 288.583664 
L 290.707232 341.802821 
L 295.730323 302.465702 
L 298.160673 322.67046 
L 300.766242 336.84394 
L 303.427236 308.855831 
L 305.970669 365.606959 
L 308.501084 297.266668 
L 311.124872 305.671211 
L 313.730934 336.881098 
L 316.098684 317.09815 
L 318.591751 327.972539 
L 321.050215 325.080587 
L 323.491264 323.59423 
L 325.94529 324.703801 
L 328.375455 322.654342 
L 330.974708 303.52133 
L 333.456741 361.455247 
L 335.949926 327.982268 
L 338.266283 275.441982 
L 340.820198 332.867734 
L 343.179141 316.290452 
L 345.801547 338.106104 
L 348.32293 330.279923 
L 350.814921 327.883883 
L 353.589299 318.034039 
L 356.081584 327.908074 
L 358.580491 328.452709 
L 361.128317 298.880592 
L 363.620533 327.902374 
L 366.148033 330.771616 
L 368.646003 328.375855 
L 371.199939 332.869398 
L 373.753189 299.378882 
L 376.179081 322.28303 
L 378.706793 330.788662 
L 381.198497 327.860125 
L 383.629159 322.69751 
L 386.18327 332.883133 
L 388.580276 319.73856 
L 391.045344 291.005991 
L 393.570471 330.581176 
L 395.968573 319.836223 
L 398.466527 328.374514 
L 401.050124 335.172007 
L 403.609963 333.331918 
L 406.317074 312.681683 
L 411.307401 333.231267 
L 413.953657 307.605092 
L 416.444918 327.823608 
L 418.999855 299.533398 
L 421.525738 330.641851 
L 424.142689 337.698985 
L 426.573543 322.714145 
L 429.127049 299.402262 
L 431.557814 322.706426 
L 434.272475 344.744215 
L 436.707524 323.077138 
L 439.143997 288.160794 
L 441.692767 365.958381 
L 444.252755 299.994852 
L 446.830496 334.721694 
L 449.361224 331.030121 
L 451.820855 325.179486 
L 454.535962 313.331817 
L 457.082746 332.306188 
L 459.804581 282.510152 
L 462.358706 332.884233 
L 464.849886 327.816922 
L 467.17716 350.018933 
L 469.641093 325.543077 
L 472.353854 313.141473 
L 474.785136 322.751213 
L 477.277653 327.92719 
L 479.736337 325.099291 
L 482.329204 302.95502 
L 484.755602 322.327162 
L 487.197917 323.702943 
L 489.775734 334.727446 
L 492.206365 322.694821 
L 494.638612 322.83475 
L 497.068197 322.604083 
L 499.62272 299.495484 
L 502.346467 314.030007 
L 504.895543 332.487032 
L 507.326562 322.728386 
L 510.038713 344.569599 
L 512.597608 299.895223 
L 515.024367 322.358528 
L 517.737312 344.624851 
L 520.16775 322.678 
L 522.594214 322.332872 
L 525.430084 322.704718 
L 527.870059 288.512888 
L 530.424191 332.88485 
L 532.851356 322.393836 
L 535.276246 322.195785 
L 537.769349 327.975493 
L 540.419813 340.173922 
L 542.850501 322.699725 
L 545.404566 332.879606 
L 547.842149 323.295748 
L 550.558586 282.011569 
L 552.989643 322.731752 
L 555.420738 322.734969 
L 557.974701 332.871533 
L 560.405678 322.724828 
L 563.057295 308.061617 
L 565.47859 357.141076 
L 567.919183 288.574871 
L 570.411977 327.950088 
L 572.894875 327.131037 
L 575.676245 349.26979 
L 578.234105 299.800733 
L 580.936836 343.911292 
L 583.712063 318.099957 
L 586.203862 327.868026 
L 588.984593 318.526135 
L 591.476511 327.877758 
L 594.246598 317.70037 
L 596.744764 328.391912 
L 599.298689 332.868597 
L 602.016272 282.117566 
L 604.781571 348.199475 
L 607.2727 327.812739 
L 609.709608 323.237615 
L 612.257791 332.416595 
L 614.981254 282.66015 
L 617.746774 348.214338 
L 620.17713 322.670983 
L 622.609546 322.849349 
L 625.10082 327.824691 
L 627.885293 288.154918 
L 630.368174 361.513953 
L 633.143784 318.129652 
L 635.706731 300.264378 
L 638.137717 322.72552 
L 640.559643 357.187077 
L 643.059218 328.507511 
L 645.713269 276.1016 
L 648.257632 365.668287 
L 651.038587 318.543442 
L 653.473131 287.966475 
L 656.027498 332.903232 
L 658.457994 322.683079 
L 660.885932 322.461048 
L 663.541012 308.355604 
L 665.972054 322.730441 
L 668.527283 332.970922 
L 671.239973 313.135683 
L 673.665186 357.425927 
L 676.577993 298.961515 
L 679.398102 351.799669 
L 681.829445 322.756538 
L 684.205891 281.965303 
L 686.832318 338.405201 
L 689.466532 338.981725 
L 691.913634 289.226152 
L 694.345656 322.815275 
L 696.899917 332.894952 
L 699.267754 317.106017 
L 702.042793 318.085391 
L 704.535804 327.967877 
L 707.356016 351.806317 
L 710.207785 293.942966 
L 712.98279 318.082749 
L 715.475462 327.939959 
L 718.312267 322.774151 
L 720.744439 322.828371 
L 723.165067 321.823917 
L 725.719306 332.893185 
L 728.422863 343.969229 
L 730.854294 322.764118 
L 733.62801 317.982583 
L 736.068718 288.586483 
L 738.499999 322.751096 
L 740.992423 327.919559 
L 743.599152 336.93137 
L 746.260064 308.848945 
L 748.681217 357.130745 
L 751.117594 323.191814 
L 753.89689 287.697944 
L 756.441556 365.688279 
L 758.934073 327.927232 
L 761.374653 288.573537 
L 764.088466 313.226824 
L 766.633331 332.154537 
L 769.063088 322.618948 
L 771.591068 330.810117 
L 774.209032 337.774781 
L 776.639744 322.701736 
L 779.485161 293.40838 
L 781.996205 329.44352 
L 784.68722 343.086136 
L 787.17419 327.468812 
L 789.614746 288.571219 
L 792.159525 332.147718 
L 794.597896 358.375713 
L 797.308583 312.972847 
L 799.744334 288.088197 
L 802.298587 332.894293 
L 804.729487 322.71809 
L 807.157476 322.46545 
L 807.157476 322.46545 
" clip-path="url(#p0b87abb33a)" style="fill: none; stroke: #ff7f0e; stroke-width: 1.5; stroke-linecap: square"/>
   </g>
   <g id="line2d_18">
    <path d="M 78.24704 112.558518 
L 80.961343 93.097537 
L 83.374352 108.875909 
L 86.144181 101.924911 
L 88.631549 121.567916 
L 91.224576 138.350523 
L 93.940462 93.354107 
L 96.41065 118.703445 
L 98.880997 118.730075 
L 101.165231 122.315776 
L 104.00857 83.055506 
L 106.477259 153.033631 
L 109.255788 72.550256 
L 111.849096 138.393295 
L 114.122862 82.87627 
L 116.962232 112.493422 
L 119.554619 138.252877 
L 122.27015 124.735201 
L 125.10924 82.381554 
L 127.57823 153.079962 
L 130.310461 64.740608 
L 133.027899 156.438402 
L 135.313588 85.226597 
L 138.031085 93.615014 
L 140.428722 106.153935 
L 143.269144 142.705403 
L 145.863108 105.581338 
L 148.333674 118.766914 
L 151.051493 125.079226 
L 153.399764 97.171422 
L 155.993358 105.520221 
L 158.464261 118.823464 
L 160.935938 118.953347 
L 163.529184 72.541697 
L 165.923718 141.253146 
L 168.518261 105.676838 
L 170.989208 118.830762 
L 173.70759 93.758372 
L 176.302945 138.704894 
L 178.774249 118.890709 
L 181.368911 72.793335 
L 183.840251 118.896702 
L 186.302491 117.364649 
L 188.651171 97.247421 
L 191.246913 138.763711 
L 193.842478 138.736871 
L 196.438289 72.997164 
L 198.786084 133.445837 
L 201.258345 119.051076 
L 203.731537 119.207238 
L 206.202623 118.854152 
L 208.553013 61.242214 
L 211.027475 119.419786 
L 213.623695 138.836253 
L 216.096087 119.073241 
L 218.572219 85.220888 
L 221.044534 119.060224 
L 223.641442 106.06634 
L 226.115069 119.280044 
L 228.46882 98.187118 
L 231.188876 125.415088 
L 233.661061 119.038418 
L 236.021926 99.498722 
L 238.680402 115.963908 
L 241.292641 108.574502 
L 243.765496 119.150747 
L 246.238413 84.63817 
L 248.958775 125.461002 
L 251.433616 84.987045 
L 253.906775 153.721167 
L 256.705028 75.798928 
L 259.25497 131.674943 
L 261.600446 96.651561 
L 264.007547 107.833919 
L 266.829525 109.899047 
L 269.674357 113.301557 
L 272.146254 153.527198 
L 274.742181 105.904884 
L 277.360843 109.616558 
L 279.832507 118.95117 
L 282.428169 105.861171 
L 284.783022 98.390912 
L 287.256151 119.196621 
L 289.60482 97.245343 
L 292.078586 119.30321 
L 294.504836 111.192902 
L 297.225352 125.484072 
L 299.614555 104.645546 
L 302.046012 76.985597 
L 304.461031 109.229167 
L 306.945368 155.429724 
L 309.728804 73.362811 
L 312.213238 155.444355 
L 314.654603 78.83796 
L 317.493545 112.429867 
L 320.042909 131.583916 
L 322.695585 82.86749 
L 325.194277 123.434509 
L 328.037215 143.051283 
L 330.461236 75.585382 
L 333.016166 132.459276 
L 335.567836 131.946948 
L 338.161024 72.531558 
L 340.581899 145.520335 
L 343.020537 78.32962 
L 345.799546 103.350332 
L 348.283796 155.416398 
L 350.714859 112.028764 
L 353.156847 78.954037 
L 355.702068 130.92978 
L 358.422951 94.162428 
L 361.143734 156.90191 
L 363.688308 63.726025 
L 366.123435 112.732056 
L 368.719313 138.784351 
L 371.101157 103.320815 
L 373.53802 113.031792 
L 376.210877 86.269578 
L 378.685306 119.414291 
L 381.156421 118.858992 
L 383.662262 124.604185 
L 386.137074 119.478233 
L 388.525388 104.486054 
L 391.245562 94.047877 
L 393.717284 118.960956 
L 396.112061 105.643542 
L 398.956355 113.222003 
L 401.371429 144.588654 
L 404.215921 83.238118 
L 406.648822 112.347122 
L 409.481327 111.473151 
L 411.916434 112.728768 
L 414.349018 112.292302 
L 416.945797 138.921219 
L 419.666133 94.074109 
L 422.036151 137.19635 
L 424.819441 73.338719 
L 427.291305 118.984631 
L 429.764827 119.262457 
L 432.174902 108.358914 
L 434.610219 112.764921 
L 437.164427 132.345937 
L 439.877146 92.840527 
L 442.351829 153.954908 
L 444.825603 84.793808 
L 450.009345 112.101807 
L 452.431319 145.696416 
L 454.86314 112.160178 
L 457.381937 92.813181 
L 460.140938 100.231352 
L 462.613562 153.639001 
L 465.004759 69.300284 
L 467.829595 140.549636 
L 470.678438 83.925616 
L 473.10753 111.686893 
L 475.741096 144.432089 
L 478.376626 79.936403 
L 480.974064 139.021467 
L 483.326453 97.935127 
L 485.917395 138.032533 
L 488.217326 88.001917 
L 490.775552 132.975883 
L 493.333739 66.22563 
L 495.808522 119.473327 
L 498.232128 110.732328 
L 500.784345 132.032981 
L 503.093119 89.708183 
L 505.815571 157.132688 
L 508.362855 64.225772 
L 510.9972 144.547112 
L 513.349343 97.889699 
L 515.783459 112.557237 
L 518.490023 91.838481 
L 520.920999 112.013777 
L 523.766422 113.388763 
L 526.277718 125.492337 
L 528.738162 117.061034 
L 531.167945 111.806737 
L 533.892895 94.81813 
L 536.728373 111.915501 
L 541.593432 112.394358 
L 544.187754 138.547657 
L 546.580605 105.299227 
L 549.176541 138.793249 
L 551.772219 72.973645 
L 554.24568 119.252247 
L 556.72038 119.459664 
L 559.419609 90.638417 
L 562.019341 139.369445 
L 564.520577 123.851537 
L 566.993203 119.112244 
L 569.591619 73.458985 
L 572.388421 106.086435 
L 574.932859 130.805917 
L 577.651228 125.161834 
L 580.247563 105.97205 
L 582.642584 105.687121 
L 585.163858 127.106785 
L 587.713637 98.166988 
L 590.206703 122.509205 
L 592.644514 78.175239 
L 595.116622 119.025549 
L 597.856907 97.272714 
L 600.34953 122.436226 
L 602.777137 111.428794 
L 605.248461 153.439285 
L 607.644636 70.264588 
L 610.197662 132.160211 
L 612.849851 82.784906 
L 615.340158 122.054112 
L 617.765257 146.195941 
L 620.236266 118.841315 
L 622.834395 106.267076 
L 625.314668 120.389771 
L 627.612646 87.623483 
L 630.208816 138.828748 
L 632.598119 104.663572 
L 635.192408 105.634976 
L 638.023148 111.210003 
L 640.497521 84.902183 
L 643.093276 138.765749 
L 645.44107 97.082838 
L 648.004959 133.860451 
L 650.593571 71.716745 
L 653.363689 132.788898 
L 655.865633 89.845085 
L 658.41017 130.821432 
L 661.128113 93.687291 
L 663.84733 156.685064 
L 666.44276 72.929667 
L 668.826074 103.586079 
L 671.257357 112.067055 
L 673.695356 113.227599 
L 676.289082 138.456945 
L 678.766425 119.901182 
L 681.230871 117.73726 
L 683.824877 72.676905 
L 686.656828 111.390459 
L 689.087273 111.921626 
L 691.52426 113.053317 
L 694.196593 150.075307 
L 696.667359 118.80034 
L 699.160905 54.113814 
L 701.654693 122.628386 
L 704.082308 111.430205 
L 706.919471 112.165923 
L 709.351027 112.114234 
L 711.775588 146.110081 
L 714.217025 78.851462 
L 716.848384 144.105857 
L 719.473969 110.734126 
L 721.945181 84.328582 
L 724.690492 98.071023 
L 727.18306 122.427149 
L 729.61384 111.97989 
L 732.209804 138.79743 
L 734.588588 102.767469 
L 736.993394 107.427681 
L 739.587191 138.467638 
L 742.173112 71.236453 
L 744.731723 133.036091 
L 747.151562 110.074151 
L 749.621221 118.614537 
L 752.343459 94.38125 
L 754.735029 105.069915 
L 757.167463 112.266362 
L 759.935679 132.513514 
L 762.433778 89.162411 
L 765.265206 141.464243 
L 767.860867 105.860967 
L 770.475872 76.376937 
L 772.950901 119.514602 
L 775.405652 116.095323 
L 777.836547 111.999674 
L 780.256891 145.435223 
L 782.686027 111.694626 
L 785.535121 83.965258 
L 788.359873 140.537942 
L 790.805137 114.476044 
L 793.345289 96.517451 
L 796.067008 94.297362 
L 798.90724 112.621064 
L 801.445376 129.806178 
L 804.164928 125.339441 
L 807.00271 112.257854 
L 809.441882 78.429209 
L 809.441882 78.429209 
" clip-path="url(#p0b87abb33a)" style="fill: none; stroke: #2ca02c; stroke-width: 1.5; stroke-linecap: square"/>
   </g>
   <g id="line2d_19">
    <path d="M 78.24704 287.923927 
L 80.96131 313.263944 
L 83.374298 356.534216 
L 86.144069 317.675732 
L 88.631488 327.505983 
L 91.224568 335.897077 
L 93.940351 313.386625 
L 96.410546 291.509163 
L 98.880863 326.080388 
L 101.165218 346.572764 
L 104.008372 293.217334 
L 106.477179 360.533891 
L 109.25563 318.34982 
L 111.849073 303.006249 
L 114.122836 308.155678 
L 116.962207 353.031842 
L 119.554591 302.91214 
L 122.270032 344.798377 
L 125.109209 292.880786 
L 127.5782 360.546826 
L 130.310425 283.464405 
L 133.027761 344.929945 
L 135.313551 309.340987 
L 138.031034 344.940127 
L 140.428674 284.188344 
L 143.269094 353.098459 
L 145.863061 335.964636 
L 148.333624 291.545187 
L 151.05144 344.963298 
L 153.399502 315.28409 
L 155.993302 335.951969 
L 158.464195 291.57752 
L 160.935784 326.187062 
L 163.529128 335.917168 
L 165.923654 319.517264 
L 168.518192 336.008077 
L 170.989144 291.583345 
L 173.707525 313.596842 
L 176.302873 336.069722 
L 178.774079 326.154991 
L 181.368825 303.12195 
L 183.840174 326.166907 
L 186.302413 325.400061 
L 188.651087 315.341062 
L 191.246831 336.099818 
L 193.842395 336.086112 
L 196.4382 303.215931 
L 198.785891 351.613994 
L 201.258254 326.251923 
L 203.731456 326.322223 
L 206.202537 326.144517 
L 208.55227 279.106519 
L 211.026907 326.442351 
L 213.623603 336.17213 
L 216.095331 326.198729 
L 218.57156 326.575493 
L 221.044417 326.293272 
L 223.640629 336.135442 
L 226.114238 291.843093 
L 228.467857 352.07189 
L 231.187764 313.720237 
L 233.660221 326.259825 
L 236.021803 316.533098 
L 238.679521 308.579029 
L 241.291769 337.346582 
L 243.765371 326.355745 
L 246.237471 291.695629 
L 248.957876 345.142557 
L 251.432712 291.962932 
L 253.905961 360.844412 
L 256.704894 319.923733 
L 259.254834 299.075029 
L 261.600186 315.032052 
L 264.006573 320.571642 
L 266.828548 351.919764 
L 269.673363 293.357513 
L 272.145377 360.758254 
L 274.742039 303.291872 
L 277.35978 337.758042 
L 279.831475 326.195934 
L 282.42802 336.160759 
L 284.781938 279.558617 
L 287.255103 326.31916 
L 289.604672 315.424097 
L 292.078433 326.369017 
L 294.503696 322.228302 
L 297.224256 345.1534 
L 299.614304 319.116366 
L 302.045852 322.774266 
L 304.460012 285.89382 
L 306.944362 361.615612 
L 309.728639 288.137605 
L 312.213073 361.62144 
L 314.653536 288.561888 
L 317.49234 322.922478 
L 320.04272 332.589823 
L 322.694511 340.270615 
L 325.193202 328.434925 
L 328.037033 323.294659 
L 330.460135 286.807331 
L 333.014886 332.93344 
L 335.566703 332.702901 
L 338.159934 302.987417 
L 340.581712 357.176268 
L 343.01924 323.291031 
L 345.798448 287.690192 
L 348.282441 361.590968 
L 350.713544 322.735663 
L 353.15521 288.682443 
L 355.70093 332.222199 
L 358.42274 313.873814 
L 361.142312 345.08493 
L 363.687081 332.146935 
L 366.122266 288.031119 
L 368.719095 336.182284 
L 371.099581 318.25548 
L 373.537004 358.307651 
L 376.209338 277.862151 
L 378.683833 326.430401 
L 381.155186 326.167315 
L 383.662038 363.157888 
L 386.135604 291.838973 
L 388.524051 354.716547 
L 391.2443 313.747828 
L 393.717064 291.760581 
L 396.110547 319.423936 
L 398.954979 323.339087 
L 401.370123 356.692127 
L 404.215687 293.420753 
L 406.647258 322.776187 
L 409.479979 352.608392 
L 411.916205 288.135902 
L 414.347431 322.746359 
L 416.944352 369.063685 
L 419.664765 282.378979 
L 422.035891 353.411058 
L 424.817583 318.600355 
L 427.289884 326.246743 
L 429.763156 326.328141 
L 432.173234 320.897582 
L 434.608718 288.061242 
L 437.162993 332.896004 
L 439.876879 313.232797 
L 442.349859 360.825636 
L 444.824096 291.904409 
L 447.576099 316.28276 
L 450.007608 322.770852 
L 452.429728 357.201149 
L 454.861621 322.804179 
L 457.381462 296.275598 
L 460.138763 316.700001 
L 462.612179 360.856088 
L 465.002947 283.471756 
L 467.827777 352.103215 
L 470.676625 293.697443 
L 473.105939 322.58051 
L 475.740806 339.029924 
L 478.374721 306.546949 
L 480.972366 336.244265 
L 483.325918 315.793009 
L 485.915122 335.60134 
L 488.215427 310.755072 
L 490.773895 333.224694 
L 493.333447 299.955181 
L 495.806541 360.833569 
L 498.230356 286.87994 
L 500.78264 332.739573 
L 503.092802 311.705185 
L 505.813158 345.139225 
L 508.361275 298.907365 
L 510.9952 338.960385 
L 513.347338 315.662187 
L 515.781621 323.010943 
L 518.488209 344.181387 
L 520.920654 322.851941 
L 523.763896 293.224762 
L 526.275991 329.528817 
L 528.736081 325.218361 
L 531.167613 357.883311 
L 533.890599 282.616285 
L 536.726664 322.719196 
L 541.591317 322.916224 
L 544.18588 336.010014 
L 546.578312 319.329937 
L 549.174226 336.112769 
L 551.770173 303.228523 
L 554.245059 360.958583 
L 556.718189 291.796316 
L 559.419277 312.189413 
L 562.017051 336.254052 
L 564.518625 328.671188 
L 566.992833 326.40649 
L 569.588809 303.231042 
L 572.386505 319.829399 
L 574.930583 365.649497 
L 577.650629 313.731401 
L 580.247184 303.282466 
L 582.640086 319.371958 
L 585.161508 330.283164 
L 587.713054 332.681545 
L 592.64388 323.314394 
L 595.116243 326.252036 
L 597.854308 283.997495 
L 600.347089 327.948972 
L 602.774756 357.603867 
L 605.248094 326.333597 
L 607.642184 283.818696 
L 610.195217 332.798447 
L 612.847401 308.109887 
L 615.339769 327.914878 
L 617.762615 357.254022 
L 620.235861 326.325856 
L 622.831687 303.21779 
L 625.312328 326.943403 
L 627.610152 310.514586 
L 630.206532 336.148151 
L 632.595802 319.04665 
L 635.191965 336.131653 
L 638.022522 322.30914 
L 640.494676 326.23448 
L 643.091257 303.284749 
L 645.440369 315.381588 
L 648.004523 333.668688 
L 650.590674 335.367863 
L 653.361326 317.744363 
L 655.862139 294.471134 
L 658.407487 332.192676 
L 661.125621 344.985313 
L 663.8469 313.831042 
L 666.442289 303.178987 
L 668.82512 354.295316 
L 671.256639 322.771755 
L 673.69288 288.13754 
L 676.28862 336.099473 
L 678.763397 326.454023 
L 681.228374 325.631227 
L 683.824412 303.236577 
L 686.654277 352.425865 
L 689.086667 322.84711 
L 691.521437 287.989334 
L 694.193794 341.757163 
L 696.66689 326.313332 
L 699.160416 293.772873 
L 701.651592 327.816555 
L 704.079368 357.611732 
L 706.919009 292.920113 
L 709.347778 357.683655 
L 711.772615 322.19119 
L 714.214161 288.670459 
L 716.845761 338.788573 
L 719.470681 338.293219 
L 721.9446 291.873338 
L 724.687653 315.574158 
L 727.179734 327.891256 
L 729.612492 322.879022 
L 732.208969 336.155529 
L 734.587766 318.102788 
L 736.990613 355.78759 
L 739.586676 303.238811 
L 742.169713 335.129049 
L 744.728572 299.891928 
L 747.148788 357.062457 
L 749.620655 326.210438 
L 752.339992 313.674201 
L 754.73114 319.214907 
L 757.166301 288.02868 
L 759.931952 348.223103 
L 762.430118 328.391936 
L 765.260987 322.332408 
L 767.856813 303.21784 
L 770.474589 337.760635 
L 772.946411 326.206605 
L 775.401544 290.025017 
L 777.832495 357.84141 
L 780.253064 321.818706 
L 782.684828 322.79297 
L 785.533898 293.716136 
L 788.357988 352.055703 
L 790.800907 323.754838 
L 793.344062 332.019161 
L 796.062827 313.627899 
L 798.90598 293.217227 
L 801.440765 365.03439 
L 804.160572 313.712112 
L 806.998103 322.828134 
L 809.438123 288.517317 
L 809.438123 288.517317 
" clip-path="url(#p0b87abb33a)" style="fill: none; stroke: #d62728; stroke-width: 1.5; stroke-linecap: square"/>
   </g>
   <g id="patch_3">
    <path d="M 78.24704 533.43564 
L 78.24704 38.36632 
" style="fill: none; stroke: #000000; stroke-width: 0.8; stroke-linejoin: miter; stroke-linecap: square"/>
   </g>
   <g id="patch_4">
    <path d="M 846.001624 533.43564 
L 846.001624 38.36632 
" style="fill: none; stroke: #000000; stroke-width: 0.8; stroke-linejoin: miter; stroke-linecap: square"/>
   </g>
   <g id="patch_5">
    <path d="M 78.24704 533.43564 
L 846.001624 533.43564 
" style="fill: none; stroke: #000000; stroke-width: 0.8; stroke-linejoin: miter; stroke-linecap: square"/>
   </g>
   <g id="patch_6">
    <path d="M 78.24704 38.36632 
L 846.001624 38.36632 
" style="fill: none; stroke: #000000; stroke-width: 0.8; stroke-linejoin: miter; stroke-linecap: square"/>
   </g>
   <g id="text_18">
    <!-- Packet Rates for Camera Flows -->
    <g transform="translate(332.273457 32.36632) scale(0.168 -0.168)">
     <defs>
      <path id="DejaVuSans-52" d="M 2841 2188 
Q 3044 2119 3236 1894 
Q 3428 1669 3622 1275 
L 4263 0 
L 3584 0 
L 2988 1197 
Q 2756 1666 2539 1819 
Q 2322 1972 1947 1972 
L 1259 1972 
L 1259 0 
L 628 0 
L 628 4666 
L 2053 4666 
Q 2853 4666 3247 4331 
Q 3641 3997 3641 3322 
Q 3641 2881 3436 2590 
Q 3231 2300 2841 2188 
z
M 1259 4147 
L 1259 2491 
L 2053 2491 
Q 2509 2491 2742 2702 
Q 2975 2913 2975 3322 
Q 2975 3731 2742 3939 
Q 2509 4147 2053 4147 
L 1259 4147 
z
" transform="scale(0.015625)"/>
      <path id="DejaVuSans-66" d="M 2375 4863 
L 2375 4384 
L 1825 4384 
Q 1516 4384 1395 4259 
Q 1275 4134 1275 3809 
L 1275 3500 
L 2222 3500 
L 2222 3053 
L 1275 3053 
L 1275 0 
L 697 0 
L 697 3053 
L 147 3053 
L 147 3500 
L 697 3500 
L 697 3744 
Q 697 4328 969 4595 
Q 1241 4863 1831 4863 
L 2375 4863 
z
" transform="scale(0.015625)"/>
      <path id="DejaVuSans-43" d="M 4122 4306 
L 4122 3641 
Q 3803 3938 3442 4084 
Q 3081 4231 2675 4231 
Q 1875 4231 1450 3742 
Q 1025 3253 1025 2328 
Q 1025 1406 1450 917 
Q 1875 428 2675 428 
Q 3081 428 3442 575 
Q 3803 722 4122 1019 
L 4122 359 
Q 3791 134 3420 21 
Q 3050 -91 2638 -91 
Q 1578 -91 968 557 
Q 359 1206 359 2328 
Q 359 3453 968 4101 
Q 1578 4750 2638 4750 
Q 3056 4750 3426 4639 
Q 3797 4528 4122 4306 
z
" transform="scale(0.015625)"/>
      <path id="DejaVuSans-46" d="M 628 4666 
L 3309 4666 
L 3309 4134 
L 1259 4134 
L 1259 2759 
L 3109 2759 
L 3109 2228 
L 1259 2228 
L 1259 0 
L 628 0 
L 628 4666 
z
" transform="scale(0.015625)"/>
      <path id="DejaVuSans-6c" d="M 603 4863 
L 1178 4863 
L 1178 0 
L 603 0 
L 603 4863 
z
" transform="scale(0.015625)"/>
      <path id="DejaVuSans-77" d="M 269 3500 
L 844 3500 
L 1563 769 
L 2278 3500 
L 2956 3500 
L 3675 769 
L 4391 3500 
L 4966 3500 
L 4050 0 
L 3372 0 
L 2619 2869 
L 1863 0 
L 1184 0 
L 269 3500 
z
" transform="scale(0.015625)"/>
     </defs>
     <use xlink:href="#DejaVuSans-50"/>
     <use xlink:href="#DejaVuSans-61" x="55.802734"/>
     <use xlink:href="#DejaVuSans-63" x="117.082031"/>
     <use xlink:href="#DejaVuSans-6b" x="172.0625"/>
     <use xlink:href="#DejaVuSans-65" x="226.347656"/>
     <use xlink:href="#DejaVuSans-74" x="287.871094"/>
     <use xlink:href="#DejaVuSans-20" x="327.080078"/>
     <use xlink:href="#DejaVuSans-52" x="358.867188"/>
     <use xlink:href="#DejaVuSans-61" x="426.099609"/>
     <use xlink:href="#DejaVuSans-74" x="487.378906"/>
     <use xlink:href="#DejaVuSans-65" x="526.587891"/>
     <use xlink:href="#DejaVuSans-73" x="588.111328"/>
     <use xlink:href="#DejaVuSans-20" x="640.210938"/>
     <use xlink:href="#DejaVuSans-66" x="671.998047"/>
     <use xlink:href="#DejaVuSans-6f" x="707.203125"/>
     <use xlink:href="#DejaVuSans-72" x="768.384766"/>
     <use xlink:href="#DejaVuSans-20" x="809.498047"/>
     <use xlink:href="#DejaVuSans-43" x="841.285156"/>
     <use xlink:href="#DejaVuSans-61" x="911.109375"/>
     <use xlink:href="#DejaVuSans-6d" x="972.388672"/>
     <use xlink:href="#DejaVuSans-65" x="1069.800781"/>
     <use xlink:href="#DejaVuSans-72" x="1131.324219"/>
     <use xlink:href="#DejaVuSans-61" x="1172.4375"/>
     <use xlink:href="#DejaVuSans-20" x="1233.716797"/>
     <use xlink:href="#DejaVuSans-46" x="1265.503906"/>
     <use xlink:href="#DejaVuSans-6c" x="1323.023438"/>
     <use xlink:href="#DejaVuSans-6f" x="1350.806641"/>
     <use xlink:href="#DejaVuSans-77" x="1411.988281"/>
     <use xlink:href="#DejaVuSans-73" x="1493.775391"/>
    </g>
   </g>
   <g id="legend_1">
    <g id="patch_7">
     <path d="M 855.801624 344.776667 
L 1149.790686 344.776667 
Q 1152.590686 344.776667 1152.590686 341.976667 
L 1152.590686 229.825292 
Q 1152.590686 227.025292 1149.790686 227.025292 
L 855.801624 227.025292 
Q 853.001624 227.025292 853.001624 229.825292 
L 853.001624 341.976667 
Q 853.001624 344.776667 855.801624 344.776667 
z
" style="fill: #ffffff; opacity: 0.8; stroke: #cccccc; stroke-linejoin: miter"/>
    </g>
    <g id="line2d_20">
     <path d="M 858.601624 238.363105 
L 872.601624 238.363105 
L 886.601624 238.363105 
" style="fill: none; stroke: #1f77b4; stroke-width: 1.5; stroke-linecap: square"/>
    </g>
    <g id="text_19">
     <!-- Cam 1 (Mean Error Deviation: 2.06) -->
     <g transform="translate(897.801624 243.263105) scale(0.14 -0.14)">
      <defs>
       <path id="DejaVuSans-4d" d="M 628 4666 
L 1569 4666 
L 2759 1491 
L 3956 4666 
L 4897 4666 
L 4897 0 
L 4281 0 
L 4281 4097 
L 3078 897 
L 2444 897 
L 1241 4097 
L 1241 0 
L 628 0 
L 628 4666 
z
" transform="scale(0.015625)"/>
       <path id="DejaVuSans-45" d="M 628 4666 
L 3578 4666 
L 3578 4134 
L 1259 4134 
L 1259 2753 
L 3481 2753 
L 3481 2222 
L 1259 2222 
L 1259 531 
L 3634 531 
L 3634 0 
L 628 0 
L 628 4666 
z
" transform="scale(0.015625)"/>
       <path id="DejaVuSans-44" d="M 1259 4147 
L 1259 519 
L 2022 519 
Q 2988 519 3436 956 
Q 3884 1394 3884 2338 
Q 3884 3275 3436 3711 
Q 2988 4147 2022 4147 
L 1259 4147 
z
M 628 4666 
L 1925 4666 
Q 3281 4666 3915 4102 
Q 4550 3538 4550 2338 
Q 4550 1131 3912 565 
Q 3275 0 1925 0 
L 628 0 
L 628 4666 
z
" transform="scale(0.015625)"/>
       <path id="DejaVuSans-76" d="M 191 3500 
L 800 3500 
L 1894 563 
L 2988 3500 
L 3597 3500 
L 2284 0 
L 1503 0 
L 191 3500 
z
" transform="scale(0.015625)"/>
       <path id="DejaVuSans-3a" d="M 750 794 
L 1409 794 
L 1409 0 
L 750 0 
L 750 794 
z
M 750 3309 
L 1409 3309 
L 1409 2516 
L 750 2516 
L 750 3309 
z
" transform="scale(0.015625)"/>
       <path id="DejaVuSans-2e" d="M 684 794 
L 1344 794 
L 1344 0 
L 684 0 
L 684 794 
z
" transform="scale(0.015625)"/>
      </defs>
      <use xlink:href="#DejaVuSans-43"/>
      <use xlink:href="#DejaVuSans-61" x="69.824219"/>
      <use xlink:href="#DejaVuSans-6d" x="131.103516"/>
      <use xlink:href="#DejaVuSans-20" x="228.515625"/>
      <use xlink:href="#DejaVuSans-31" x="260.302734"/>
      <use xlink:href="#DejaVuSans-20" x="323.925781"/>
      <use xlink:href="#DejaVuSans-28" x="355.712891"/>
      <use xlink:href="#DejaVuSans-4d" x="394.726562"/>
      <use xlink:href="#DejaVuSans-65" x="481.005859"/>
      <use xlink:href="#DejaVuSans-61" x="542.529297"/>
      <use xlink:href="#DejaVuSans-6e" x="603.808594"/>
      <use xlink:href="#DejaVuSans-20" x="667.1875"/>
      <use xlink:href="#DejaVuSans-45" x="698.974609"/>
      <use xlink:href="#DejaVuSans-72" x="762.158203"/>
      <use xlink:href="#DejaVuSans-72" x="801.521484"/>
      <use xlink:href="#DejaVuSans-6f" x="840.384766"/>
      <use xlink:href="#DejaVuSans-72" x="901.566406"/>
      <use xlink:href="#DejaVuSans-20" x="942.679688"/>
      <use xlink:href="#DejaVuSans-44" x="974.466797"/>
      <use xlink:href="#DejaVuSans-65" x="1051.46875"/>
      <use xlink:href="#DejaVuSans-76" x="1112.992188"/>
      <use xlink:href="#DejaVuSans-69" x="1172.171875"/>
      <use xlink:href="#DejaVuSans-61" x="1199.955078"/>
      <use xlink:href="#DejaVuSans-74" x="1261.234375"/>
      <use xlink:href="#DejaVuSans-69" x="1300.443359"/>
      <use xlink:href="#DejaVuSans-6f" x="1328.226562"/>
      <use xlink:href="#DejaVuSans-6e" x="1389.408203"/>
      <use xlink:href="#DejaVuSans-3a" x="1452.787109"/>
      <use xlink:href="#DejaVuSans-20" x="1486.478516"/>
      <use xlink:href="#DejaVuSans-32" x="1518.265625"/>
      <use xlink:href="#DejaVuSans-2e" x="1581.888672"/>
      <use xlink:href="#DejaVuSans-30" x="1613.675781"/>
      <use xlink:href="#DejaVuSans-36" x="1677.298828"/>
      <use xlink:href="#DejaVuSans-29" x="1740.921875"/>
     </g>
    </g>
    <g id="line2d_21">
     <path d="M 858.601624 258.91248 
L 872.601624 258.91248 
L 886.601624 258.91248 
" style="fill: none; stroke: #ff7f0e; stroke-width: 1.5; stroke-linecap: square"/>
    </g>
    <g id="text_20">
     <!-- Cam 2 (Mean Error Deviation: 1.96) -->
     <g transform="translate(897.801624 263.81248) scale(0.14 -0.14)">
      <defs>
       <path id="DejaVuSans-39" d="M 703 97 
L 703 672 
Q 941 559 1184 500 
Q 1428 441 1663 441 
Q 2288 441 2617 861 
Q 2947 1281 2994 2138 
Q 2813 1869 2534 1725 
Q 2256 1581 1919 1581 
Q 1219 1581 811 2004 
Q 403 2428 403 3163 
Q 403 3881 828 4315 
Q 1253 4750 1959 4750 
Q 2769 4750 3195 4129 
Q 3622 3509 3622 2328 
Q 3622 1225 3098 567 
Q 2575 -91 1691 -91 
Q 1453 -91 1209 -44 
Q 966 3 703 97 
z
M 1959 2075 
Q 2384 2075 2632 2365 
Q 2881 2656 2881 3163 
Q 2881 3666 2632 3958 
Q 2384 4250 1959 4250 
Q 1534 4250 1286 3958 
Q 1038 3666 1038 3163 
Q 1038 2656 1286 2365 
Q 1534 2075 1959 2075 
z
" transform="scale(0.015625)"/>
      </defs>
      <use xlink:href="#DejaVuSans-43"/>
      <use xlink:href="#DejaVuSans-61" x="69.824219"/>
      <use xlink:href="#DejaVuSans-6d" x="131.103516"/>
      <use xlink:href="#DejaVuSans-20" x="228.515625"/>
      <use xlink:href="#DejaVuSans-32" x="260.302734"/>
      <use xlink:href="#DejaVuSans-20" x="323.925781"/>
      <use xlink:href="#DejaVuSans-28" x="355.712891"/>
      <use xlink:href="#DejaVuSans-4d" x="394.726562"/>
      <use xlink:href="#DejaVuSans-65" x="481.005859"/>
      <use xlink:href="#DejaVuSans-61" x="542.529297"/>
      <use xlink:href="#DejaVuSans-6e" x="603.808594"/>
      <use xlink:href="#DejaVuSans-20" x="667.1875"/>
      <use xlink:href="#DejaVuSans-45" x="698.974609"/>
      <use xlink:href="#DejaVuSans-72" x="762.158203"/>
      <use xlink:href="#DejaVuSans-72" x="801.521484"/>
      <use xlink:href="#DejaVuSans-6f" x="840.384766"/>
      <use xlink:href="#DejaVuSans-72" x="901.566406"/>
      <use xlink:href="#DejaVuSans-20" x="942.679688"/>
      <use xlink:href="#DejaVuSans-44" x="974.466797"/>
      <use xlink:href="#DejaVuSans-65" x="1051.46875"/>
      <use xlink:href="#DejaVuSans-76" x="1112.992188"/>
      <use xlink:href="#DejaVuSans-69" x="1172.171875"/>
      <use xlink:href="#DejaVuSans-61" x="1199.955078"/>
      <use xlink:href="#DejaVuSans-74" x="1261.234375"/>
      <use xlink:href="#DejaVuSans-69" x="1300.443359"/>
      <use xlink:href="#DejaVuSans-6f" x="1328.226562"/>
      <use xlink:href="#DejaVuSans-6e" x="1389.408203"/>
      <use xlink:href="#DejaVuSans-3a" x="1452.787109"/>
      <use xlink:href="#DejaVuSans-20" x="1486.478516"/>
      <use xlink:href="#DejaVuSans-31" x="1518.265625"/>
      <use xlink:href="#DejaVuSans-2e" x="1581.888672"/>
      <use xlink:href="#DejaVuSans-39" x="1613.675781"/>
      <use xlink:href="#DejaVuSans-36" x="1677.298828"/>
      <use xlink:href="#DejaVuSans-29" x="1740.921875"/>
     </g>
    </g>
    <g id="line2d_22">
     <path d="M 858.601624 288.756105 
L 872.601624 288.756105 
L 886.601624 288.756105 
" style="fill: none; stroke: #2ca02c; stroke-width: 1.5; stroke-linecap: square"/>
    </g>
    <g id="text_21">
     <!-- Cam 1 including packet reports -->
     <g transform="translate(897.801624 284.361855) scale(0.14 -0.14)">
      <defs>
       <path id="DejaVuSans-75" d="M 544 1381 
L 544 3500 
L 1119 3500 
L 1119 1403 
Q 1119 906 1312 657 
Q 1506 409 1894 409 
Q 2359 409 2629 706 
Q 2900 1003 2900 1516 
L 2900 3500 
L 3475 3500 
L 3475 0 
L 2900 0 
L 2900 538 
Q 2691 219 2414 64 
Q 2138 -91 1772 -91 
Q 1169 -91 856 284 
Q 544 659 544 1381 
z
M 1991 3584 
L 1991 3584 
z
" transform="scale(0.015625)"/>
       <path id="DejaVuSans-67" d="M 2906 1791 
Q 2906 2416 2648 2759 
Q 2391 3103 1925 3103 
Q 1463 3103 1205 2759 
Q 947 2416 947 1791 
Q 947 1169 1205 825 
Q 1463 481 1925 481 
Q 2391 481 2648 825 
Q 2906 1169 2906 1791 
z
M 3481 434 
Q 3481 -459 3084 -895 
Q 2688 -1331 1869 -1331 
Q 1566 -1331 1297 -1286 
Q 1028 -1241 775 -1147 
L 775 -588 
Q 1028 -725 1275 -790 
Q 1522 -856 1778 -856 
Q 2344 -856 2625 -561 
Q 2906 -266 2906 331 
L 2906 616 
Q 2728 306 2450 153 
Q 2172 0 1784 0 
Q 1141 0 747 490 
Q 353 981 353 1791 
Q 353 2603 747 3093 
Q 1141 3584 1784 3584 
Q 2172 3584 2450 3431 
Q 2728 3278 2906 2969 
L 2906 3500 
L 3481 3500 
L 3481 434 
z
" transform="scale(0.015625)"/>
      </defs>
      <use xlink:href="#DejaVuSans-43"/>
      <use xlink:href="#DejaVuSans-61" x="69.824219"/>
      <use xlink:href="#DejaVuSans-6d" x="131.103516"/>
      <use xlink:href="#DejaVuSans-20" x="228.515625"/>
      <use xlink:href="#DejaVuSans-31" x="260.302734"/>
      <use xlink:href="#DejaVuSans-20" x="323.925781"/>
      <use xlink:href="#DejaVuSans-69" x="355.712891"/>
      <use xlink:href="#DejaVuSans-6e" x="383.496094"/>
      <use xlink:href="#DejaVuSans-63" x="446.875"/>
      <use xlink:href="#DejaVuSans-6c" x="501.855469"/>
      <use xlink:href="#DejaVuSans-75" x="529.638672"/>
      <use xlink:href="#DejaVuSans-64" x="593.017578"/>
      <use xlink:href="#DejaVuSans-69" x="656.494141"/>
      <use xlink:href="#DejaVuSans-6e" x="684.277344"/>
      <use xlink:href="#DejaVuSans-67" x="747.65625"/>
      <use xlink:href="#DejaVuSans-20" x="811.132812"/>
      <use xlink:href="#DejaVuSans-70" x="842.919922"/>
      <use xlink:href="#DejaVuSans-61" x="906.396484"/>
      <use xlink:href="#DejaVuSans-63" x="967.675781"/>
      <use xlink:href="#DejaVuSans-6b" x="1022.65625"/>
      <use xlink:href="#DejaVuSans-65" x="1076.941406"/>
      <use xlink:href="#DejaVuSans-74" x="1138.464844"/>
      <use xlink:href="#DejaVuSans-20" x="1177.673828"/>
      <use xlink:href="#DejaVuSans-72" x="1209.460938"/>
      <use xlink:href="#DejaVuSans-65" x="1248.324219"/>
      <use xlink:href="#DejaVuSans-70" x="1309.847656"/>
      <use xlink:href="#DejaVuSans-6f" x="1373.324219"/>
      <use xlink:href="#DejaVuSans-72" x="1434.505859"/>
      <use xlink:href="#DejaVuSans-74" x="1475.619141"/>
      <use xlink:href="#DejaVuSans-73" x="1514.828125"/>
     </g>
     <!--  (Mean Error Deviation: 2.50) -->
     <g transform="translate(897.801624 300.038792) scale(0.14 -0.14)">
      <use xlink:href="#DejaVuSans-20"/>
      <use xlink:href="#DejaVuSans-28" x="31.787109"/>
      <use xlink:href="#DejaVuSans-4d" x="70.800781"/>
      <use xlink:href="#DejaVuSans-65" x="157.080078"/>
      <use xlink:href="#DejaVuSans-61" x="218.603516"/>
      <use xlink:href="#DejaVuSans-6e" x="279.882812"/>
      <use xlink:href="#DejaVuSans-20" x="343.261719"/>
      <use xlink:href="#DejaVuSans-45" x="375.048828"/>
      <use xlink:href="#DejaVuSans-72" x="438.232422"/>
      <use xlink:href="#DejaVuSans-72" x="477.595703"/>
      <use xlink:href="#DejaVuSans-6f" x="516.458984"/>
      <use xlink:href="#DejaVuSans-72" x="577.640625"/>
      <use xlink:href="#DejaVuSans-20" x="618.753906"/>
      <use xlink:href="#DejaVuSans-44" x="650.541016"/>
      <use xlink:href="#DejaVuSans-65" x="727.542969"/>
      <use xlink:href="#DejaVuSans-76" x="789.066406"/>
      <use xlink:href="#DejaVuSans-69" x="848.246094"/>
      <use xlink:href="#DejaVuSans-61" x="876.029297"/>
      <use xlink:href="#DejaVuSans-74" x="937.308594"/>
      <use xlink:href="#DejaVuSans-69" x="976.517578"/>
      <use xlink:href="#DejaVuSans-6f" x="1004.300781"/>
      <use xlink:href="#DejaVuSans-6e" x="1065.482422"/>
      <use xlink:href="#DejaVuSans-3a" x="1128.861328"/>
      <use xlink:href="#DejaVuSans-20" x="1162.552734"/>
      <use xlink:href="#DejaVuSans-32" x="1194.339844"/>
      <use xlink:href="#DejaVuSans-2e" x="1257.962891"/>
      <use xlink:href="#DejaVuSans-35" x="1289.75"/>
      <use xlink:href="#DejaVuSans-30" x="1353.373047"/>
      <use xlink:href="#DejaVuSans-29" x="1416.996094"/>
     </g>
    </g>
    <g id="line2d_23">
     <path d="M 858.601624 324.982417 
L 872.601624 324.982417 
L 886.601624 324.982417 
" style="fill: none; stroke: #d62728; stroke-width: 1.5; stroke-linecap: square"/>
    </g>
    <g id="text_22">
     <!-- Cam 2 including packet reports -->
     <g transform="translate(897.801624 320.588167) scale(0.14 -0.14)">
      <use xlink:href="#DejaVuSans-43"/>
      <use xlink:href="#DejaVuSans-61" x="69.824219"/>
      <use xlink:href="#DejaVuSans-6d" x="131.103516"/>
      <use xlink:href="#DejaVuSans-20" x="228.515625"/>
      <use xlink:href="#DejaVuSans-32" x="260.302734"/>
      <use xlink:href="#DejaVuSans-20" x="323.925781"/>
      <use xlink:href="#DejaVuSans-69" x="355.712891"/>
      <use xlink:href="#DejaVuSans-6e" x="383.496094"/>
      <use xlink:href="#DejaVuSans-63" x="446.875"/>
      <use xlink:href="#DejaVuSans-6c" x="501.855469"/>
      <use xlink:href="#DejaVuSans-75" x="529.638672"/>
      <use xlink:href="#DejaVuSans-64" x="593.017578"/>
      <use xlink:href="#DejaVuSans-69" x="656.494141"/>
      <use xlink:href="#DejaVuSans-6e" x="684.277344"/>
      <use xlink:href="#DejaVuSans-67" x="747.65625"/>
      <use xlink:href="#DejaVuSans-20" x="811.132812"/>
      <use xlink:href="#DejaVuSans-70" x="842.919922"/>
      <use xlink:href="#DejaVuSans-61" x="906.396484"/>
      <use xlink:href="#DejaVuSans-63" x="967.675781"/>
      <use xlink:href="#DejaVuSans-6b" x="1022.65625"/>
      <use xlink:href="#DejaVuSans-65" x="1076.941406"/>
      <use xlink:href="#DejaVuSans-74" x="1138.464844"/>
      <use xlink:href="#DejaVuSans-20" x="1177.673828"/>
      <use xlink:href="#DejaVuSans-72" x="1209.460938"/>
      <use xlink:href="#DejaVuSans-65" x="1248.324219"/>
      <use xlink:href="#DejaVuSans-70" x="1309.847656"/>
      <use xlink:href="#DejaVuSans-6f" x="1373.324219"/>
      <use xlink:href="#DejaVuSans-72" x="1434.505859"/>
      <use xlink:href="#DejaVuSans-74" x="1475.619141"/>
      <use xlink:href="#DejaVuSans-73" x="1514.828125"/>
     </g>
     <!--  (Mean Error Deviation: 2.43) -->
     <g transform="translate(897.801624 336.265105) scale(0.14 -0.14)">
      <use xlink:href="#DejaVuSans-20"/>
      <use xlink:href="#DejaVuSans-28" x="31.787109"/>
      <use xlink:href="#DejaVuSans-4d" x="70.800781"/>
      <use xlink:href="#DejaVuSans-65" x="157.080078"/>
      <use xlink:href="#DejaVuSans-61" x="218.603516"/>
      <use xlink:href="#DejaVuSans-6e" x="279.882812"/>
      <use xlink:href="#DejaVuSans-20" x="343.261719"/>
      <use xlink:href="#DejaVuSans-45" x="375.048828"/>
      <use xlink:href="#DejaVuSans-72" x="438.232422"/>
      <use xlink:href="#DejaVuSans-72" x="477.595703"/>
      <use xlink:href="#DejaVuSans-6f" x="516.458984"/>
      <use xlink:href="#DejaVuSans-72" x="577.640625"/>
      <use xlink:href="#DejaVuSans-20" x="618.753906"/>
      <use xlink:href="#DejaVuSans-44" x="650.541016"/>
      <use xlink:href="#DejaVuSans-65" x="727.542969"/>
      <use xlink:href="#DejaVuSans-76" x="789.066406"/>
      <use xlink:href="#DejaVuSans-69" x="848.246094"/>
      <use xlink:href="#DejaVuSans-61" x="876.029297"/>
      <use xlink:href="#DejaVuSans-74" x="937.308594"/>
      <use xlink:href="#DejaVuSans-69" x="976.517578"/>
      <use xlink:href="#DejaVuSans-6f" x="1004.300781"/>
      <use xlink:href="#DejaVuSans-6e" x="1065.482422"/>
      <use xlink:href="#DejaVuSans-3a" x="1128.861328"/>
      <use xlink:href="#DejaVuSans-20" x="1162.552734"/>
      <use xlink:href="#DejaVuSans-32" x="1194.339844"/>
      <use xlink:href="#DejaVuSans-2e" x="1257.962891"/>
      <use xlink:href="#DejaVuSans-34" x="1289.75"/>
      <use xlink:href="#DejaVuSans-33" x="1353.373047"/>
      <use xlink:href="#DejaVuSans-29" x="1416.996094"/>
     </g>
    </g>
   </g>
  </g>
 </g>
 <defs>
  <clipPath id="p0b87abb33a">
   <rect x="78.24704" y="38.36632" width="767.754584" height="495.06932"/>
  </clipPath>
 </defs>
</svg>
