<?xml version="1.0" encoding="utf-8" standalone="no"?>
<!DOCTYPE svg PUBLIC "-//W3C//DTD SVG 1.1//EN"
  "http://www.w3.org/Graphics/SVG/1.1/DTD/svg11.dtd">
<svg xmlns:xlink="http://www.w3.org/1999/xlink" width="1186.56pt" height="588.24pt" viewBox="0 0 1186.56 588.24" xmlns="http://www.w3.org/2000/svg" version="1.1">
 <metadata>
  <rdf:RDF xmlns:dc="http://purl.org/dc/elements/1.1/" xmlns:cc="http://creativecommons.org/ns#" xmlns:rdf="http://www.w3.org/1999/02/22-rdf-syntax-ns#">
   <cc:Work>
    <dc:type rdf:resource="http://purl.org/dc/dcmitype/StillImage"/>
    <dc:date>2023-04-14T12:11:03.710963</dc:date>
    <dc:format>image/svg+xml</dc:format>
    <dc:creator>
     <cc:Agent>
      <dc:title>Matplotlib v3.6.2, https://matplotlib.org/</dc:title>
     </cc:Agent>
    </dc:creator>
   </cc:Work>
  </rdf:RDF>
 </metadata>
 <defs>
  <style type="text/css">*{stroke-linejoin: round; stroke-linecap: butt}</style>
 </defs>
 <g id="figure_1">
  <g id="patch_1">
   <path d="M 0 588.24 
L 1186.56 588.24 
L 1186.56 0 
L 0 0 
z
" style="fill: #ffffff"/>
  </g>
  <g id="axes_1">
   <g id="patch_2">
    <path d="M 78.24704 533.43564 
L 886.40976 533.43564 
L 886.40976 38.36632 
L 78.24704 38.36632 
z
" style="fill: #ffffff"/>
   </g>
   <g id="matplotlib.axis_1">
    <g id="xtick_1">
     <g id="line2d_1">
      <defs>
       <path id="me439da8207" d="M 0 0 
L 0 3.5 
" style="stroke: #000000; stroke-width: 0.8"/>
      </defs>
      <g>
       <use xlink:href="#me439da8207" x="78.24704" y="533.43564" style="stroke: #000000; stroke-width: 0.8"/>
      </g>
     </g>
     <g id="text_1">
      <!-- 0 -->
      <g transform="translate(73.79329 551.073453) scale(0.14 -0.14)">
       <defs>
        <path id="DejaVuSans-30" d="M 2034 4250 
Q 1547 4250 1301 3770 
Q 1056 3291 1056 2328 
Q 1056 1369 1301 889 
Q 1547 409 2034 409 
Q 2525 409 2770 889 
Q 3016 1369 3016 2328 
Q 3016 3291 2770 3770 
Q 2525 4250 2034 4250 
z
M 2034 4750 
Q 2819 4750 3233 4129 
Q 3647 3509 3647 2328 
Q 3647 1150 3233 529 
Q 2819 -91 2034 -91 
Q 1250 -91 836 529 
Q 422 1150 422 2328 
Q 422 3509 836 4129 
Q 1250 4750 2034 4750 
z
" transform="scale(0.015625)"/>
       </defs>
       <use xlink:href="#DejaVuSans-30"/>
      </g>
     </g>
    </g>
    <g id="xtick_2">
     <g id="line2d_2">
      <g>
       <use xlink:href="#me439da8207" x="206.131262" y="533.43564" style="stroke: #000000; stroke-width: 0.8"/>
      </g>
     </g>
     <g id="text_2">
      <!-- 10 -->
      <g transform="translate(197.223762 551.073453) scale(0.14 -0.14)">
       <defs>
        <path id="DejaVuSans-31" d="M 794 531 
L 1825 531 
L 1825 4091 
L 703 3866 
L 703 4441 
L 1819 4666 
L 2450 4666 
L 2450 531 
L 3481 531 
L 3481 0 
L 794 0 
L 794 531 
z
" transform="scale(0.015625)"/>
       </defs>
       <use xlink:href="#DejaVuSans-31"/>
       <use xlink:href="#DejaVuSans-30" x="63.623047"/>
      </g>
     </g>
    </g>
    <g id="xtick_3">
     <g id="line2d_3">
      <g>
       <use xlink:href="#me439da8207" x="334.015484" y="533.43564" style="stroke: #000000; stroke-width: 0.8"/>
      </g>
     </g>
     <g id="text_3">
      <!-- 20 -->
      <g transform="translate(325.107984 551.073453) scale(0.14 -0.14)">
       <defs>
        <path id="DejaVuSans-32" d="M 1228 531 
L 3431 531 
L 3431 0 
L 469 0 
L 469 531 
Q 828 903 1448 1529 
Q 2069 2156 2228 2338 
Q 2531 2678 2651 2914 
Q 2772 3150 2772 3378 
Q 2772 3750 2511 3984 
Q 2250 4219 1831 4219 
Q 1534 4219 1204 4116 
Q 875 4013 500 3803 
L 500 4441 
Q 881 4594 1212 4672 
Q 1544 4750 1819 4750 
Q 2544 4750 2975 4387 
Q 3406 4025 3406 3419 
Q 3406 3131 3298 2873 
Q 3191 2616 2906 2266 
Q 2828 2175 2409 1742 
Q 1991 1309 1228 531 
z
" transform="scale(0.015625)"/>
       </defs>
       <use xlink:href="#DejaVuSans-32"/>
       <use xlink:href="#DejaVuSans-30" x="63.623047"/>
      </g>
     </g>
    </g>
    <g id="xtick_4">
     <g id="line2d_4">
      <g>
       <use xlink:href="#me439da8207" x="461.899706" y="533.43564" style="stroke: #000000; stroke-width: 0.8"/>
      </g>
     </g>
     <g id="text_4">
      <!-- 30 -->
      <g transform="translate(452.992206 551.073453) scale(0.14 -0.14)">
       <defs>
        <path id="DejaVuSans-33" d="M 2597 2516 
Q 3050 2419 3304 2112 
Q 3559 1806 3559 1356 
Q 3559 666 3084 287 
Q 2609 -91 1734 -91 
Q 1441 -91 1130 -33 
Q 819 25 488 141 
L 488 750 
Q 750 597 1062 519 
Q 1375 441 1716 441 
Q 2309 441 2620 675 
Q 2931 909 2931 1356 
Q 2931 1769 2642 2001 
Q 2353 2234 1838 2234 
L 1294 2234 
L 1294 2753 
L 1863 2753 
Q 2328 2753 2575 2939 
Q 2822 3125 2822 3475 
Q 2822 3834 2567 4026 
Q 2313 4219 1838 4219 
Q 1578 4219 1281 4162 
Q 984 4106 628 3988 
L 628 4550 
Q 988 4650 1302 4700 
Q 1616 4750 1894 4750 
Q 2613 4750 3031 4423 
Q 3450 4097 3450 3541 
Q 3450 3153 3228 2886 
Q 3006 2619 2597 2516 
z
" transform="scale(0.015625)"/>
       </defs>
       <use xlink:href="#DejaVuSans-33"/>
       <use xlink:href="#DejaVuSans-30" x="63.623047"/>
      </g>
     </g>
    </g>
    <g id="xtick_5">
     <g id="line2d_5">
      <g>
       <use xlink:href="#me439da8207" x="589.783928" y="533.43564" style="stroke: #000000; stroke-width: 0.8"/>
      </g>
     </g>
     <g id="text_5">
      <!-- 40 -->
      <g transform="translate(580.876428 551.073453) scale(0.14 -0.14)">
       <defs>
        <path id="DejaVuSans-34" d="M 2419 4116 
L 825 1625 
L 2419 1625 
L 2419 4116 
z
M 2253 4666 
L 3047 4666 
L 3047 1625 
L 3713 1625 
L 3713 1100 
L 3047 1100 
L 3047 0 
L 2419 0 
L 2419 1100 
L 313 1100 
L 313 1709 
L 2253 4666 
z
" transform="scale(0.015625)"/>
       </defs>
       <use xlink:href="#DejaVuSans-34"/>
       <use xlink:href="#DejaVuSans-30" x="63.623047"/>
      </g>
     </g>
    </g>
    <g id="xtick_6">
     <g id="line2d_6">
      <g>
       <use xlink:href="#me439da8207" x="717.66815" y="533.43564" style="stroke: #000000; stroke-width: 0.8"/>
      </g>
     </g>
     <g id="text_6">
      <!-- 50 -->
      <g transform="translate(708.76065 551.073453) scale(0.14 -0.14)">
       <defs>
        <path id="DejaVuSans-35" d="M 691 4666 
L 3169 4666 
L 3169 4134 
L 1269 4134 
L 1269 2991 
Q 1406 3038 1543 3061 
Q 1681 3084 1819 3084 
Q 2600 3084 3056 2656 
Q 3513 2228 3513 1497 
Q 3513 744 3044 326 
Q 2575 -91 1722 -91 
Q 1428 -91 1123 -41 
Q 819 9 494 109 
L 494 744 
Q 775 591 1075 516 
Q 1375 441 1709 441 
Q 2250 441 2565 725 
Q 2881 1009 2881 1497 
Q 2881 1984 2565 2268 
Q 2250 2553 1709 2553 
Q 1456 2553 1204 2497 
Q 953 2441 691 2322 
L 691 4666 
z
" transform="scale(0.015625)"/>
       </defs>
       <use xlink:href="#DejaVuSans-35"/>
       <use xlink:href="#DejaVuSans-30" x="63.623047"/>
      </g>
     </g>
    </g>
    <g id="xtick_7">
     <g id="line2d_7">
      <g>
       <use xlink:href="#me439da8207" x="845.552373" y="533.43564" style="stroke: #000000; stroke-width: 0.8"/>
      </g>
     </g>
     <g id="text_7">
      <!-- 60 -->
      <g transform="translate(836.644873 551.073453) scale(0.14 -0.14)">
       <defs>
        <path id="DejaVuSans-36" d="M 2113 2584 
Q 1688 2584 1439 2293 
Q 1191 2003 1191 1497 
Q 1191 994 1439 701 
Q 1688 409 2113 409 
Q 2538 409 2786 701 
Q 3034 994 3034 1497 
Q 3034 2003 2786 2293 
Q 2538 2584 2113 2584 
z
M 3366 4563 
L 3366 3988 
Q 3128 4100 2886 4159 
Q 2644 4219 2406 4219 
Q 1781 4219 1451 3797 
Q 1122 3375 1075 2522 
Q 1259 2794 1537 2939 
Q 1816 3084 2150 3084 
Q 2853 3084 3261 2657 
Q 3669 2231 3669 1497 
Q 3669 778 3244 343 
Q 2819 -91 2113 -91 
Q 1303 -91 875 529 
Q 447 1150 447 2328 
Q 447 3434 972 4092 
Q 1497 4750 2381 4750 
Q 2619 4750 2861 4703 
Q 3103 4656 3366 4563 
z
" transform="scale(0.015625)"/>
       </defs>
       <use xlink:href="#DejaVuSans-36"/>
       <use xlink:href="#DejaVuSans-30" x="63.623047"/>
      </g>
     </g>
    </g>
    <g id="text_8">
     <!-- Time (s) -->
     <g transform="translate(451.835041 569.382671) scale(0.15 -0.15)">
      <defs>
       <path id="DejaVuSans-54" d="M -19 4666 
L 3928 4666 
L 3928 4134 
L 2272 4134 
L 2272 0 
L 1638 0 
L 1638 4134 
L -19 4134 
L -19 4666 
z
" transform="scale(0.015625)"/>
       <path id="DejaVuSans-69" d="M 603 3500 
L 1178 3500 
L 1178 0 
L 603 0 
L 603 3500 
z
M 603 4863 
L 1178 4863 
L 1178 4134 
L 603 4134 
L 603 4863 
z
" transform="scale(0.015625)"/>
       <path id="DejaVuSans-6d" d="M 3328 2828 
Q 3544 3216 3844 3400 
Q 4144 3584 4550 3584 
Q 5097 3584 5394 3201 
Q 5691 2819 5691 2113 
L 5691 0 
L 5113 0 
L 5113 2094 
Q 5113 2597 4934 2840 
Q 4756 3084 4391 3084 
Q 3944 3084 3684 2787 
Q 3425 2491 3425 1978 
L 3425 0 
L 2847 0 
L 2847 2094 
Q 2847 2600 2669 2842 
Q 2491 3084 2119 3084 
Q 1678 3084 1418 2786 
Q 1159 2488 1159 1978 
L 1159 0 
L 581 0 
L 581 3500 
L 1159 3500 
L 1159 2956 
Q 1356 3278 1631 3431 
Q 1906 3584 2284 3584 
Q 2666 3584 2933 3390 
Q 3200 3197 3328 2828 
z
" transform="scale(0.015625)"/>
       <path id="DejaVuSans-65" d="M 3597 1894 
L 3597 1613 
L 953 1613 
Q 991 1019 1311 708 
Q 1631 397 2203 397 
Q 2534 397 2845 478 
Q 3156 559 3463 722 
L 3463 178 
Q 3153 47 2828 -22 
Q 2503 -91 2169 -91 
Q 1331 -91 842 396 
Q 353 884 353 1716 
Q 353 2575 817 3079 
Q 1281 3584 2069 3584 
Q 2775 3584 3186 3129 
Q 3597 2675 3597 1894 
z
M 3022 2063 
Q 3016 2534 2758 2815 
Q 2500 3097 2075 3097 
Q 1594 3097 1305 2825 
Q 1016 2553 972 2059 
L 3022 2063 
z
" transform="scale(0.015625)"/>
       <path id="DejaVuSans-20" transform="scale(0.015625)"/>
       <path id="DejaVuSans-28" d="M 1984 4856 
Q 1566 4138 1362 3434 
Q 1159 2731 1159 2009 
Q 1159 1288 1364 580 
Q 1569 -128 1984 -844 
L 1484 -844 
Q 1016 -109 783 600 
Q 550 1309 550 2009 
Q 550 2706 781 3412 
Q 1013 4119 1484 4856 
L 1984 4856 
z
" transform="scale(0.015625)"/>
       <path id="DejaVuSans-73" d="M 2834 3397 
L 2834 2853 
Q 2591 2978 2328 3040 
Q 2066 3103 1784 3103 
Q 1356 3103 1142 2972 
Q 928 2841 928 2578 
Q 928 2378 1081 2264 
Q 1234 2150 1697 2047 
L 1894 2003 
Q 2506 1872 2764 1633 
Q 3022 1394 3022 966 
Q 3022 478 2636 193 
Q 2250 -91 1575 -91 
Q 1294 -91 989 -36 
Q 684 19 347 128 
L 347 722 
Q 666 556 975 473 
Q 1284 391 1588 391 
Q 1994 391 2212 530 
Q 2431 669 2431 922 
Q 2431 1156 2273 1281 
Q 2116 1406 1581 1522 
L 1381 1569 
Q 847 1681 609 1914 
Q 372 2147 372 2553 
Q 372 3047 722 3315 
Q 1072 3584 1716 3584 
Q 2034 3584 2315 3537 
Q 2597 3491 2834 3397 
z
" transform="scale(0.015625)"/>
       <path id="DejaVuSans-29" d="M 513 4856 
L 1013 4856 
Q 1481 4119 1714 3412 
Q 1947 2706 1947 2009 
Q 1947 1309 1714 600 
Q 1481 -109 1013 -844 
L 513 -844 
Q 928 -128 1133 580 
Q 1338 1288 1338 2009 
Q 1338 2731 1133 3434 
Q 928 4138 513 4856 
z
" transform="scale(0.015625)"/>
      </defs>
      <use xlink:href="#DejaVuSans-54"/>
      <use xlink:href="#DejaVuSans-69" x="57.958984"/>
      <use xlink:href="#DejaVuSans-6d" x="85.742188"/>
      <use xlink:href="#DejaVuSans-65" x="183.154297"/>
      <use xlink:href="#DejaVuSans-20" x="244.677734"/>
      <use xlink:href="#DejaVuSans-28" x="276.464844"/>
      <use xlink:href="#DejaVuSans-73" x="315.478516"/>
      <use xlink:href="#DejaVuSans-29" x="367.578125"/>
     </g>
    </g>
   </g>
   <g id="matplotlib.axis_2">
    <g id="ytick_1">
     <g id="line2d_8">
      <defs>
       <path id="m5e130a93d4" d="M 0 0 
L -3.5 0 
" style="stroke: #000000; stroke-width: 0.8"/>
      </defs>
      <g>
       <use xlink:href="#m5e130a93d4" x="78.24704" y="533.43564" style="stroke: #000000; stroke-width: 0.8"/>
      </g>
     </g>
     <g id="text_9">
      <!-- 0 -->
      <g transform="translate(62.33954 538.754546) scale(0.14 -0.14)">
       <use xlink:href="#DejaVuSans-30"/>
      </g>
     </g>
    </g>
    <g id="ytick_2">
     <g id="line2d_9">
      <g>
       <use xlink:href="#m5e130a93d4" x="78.24704" y="462.183016" style="stroke: #000000; stroke-width: 0.8"/>
      </g>
     </g>
     <g id="text_10">
      <!-- 10 -->
      <g transform="translate(53.43204 467.501922) scale(0.14 -0.14)">
       <use xlink:href="#DejaVuSans-31"/>
       <use xlink:href="#DejaVuSans-30" x="63.623047"/>
      </g>
     </g>
    </g>
    <g id="ytick_3">
     <g id="line2d_10">
      <g>
       <use xlink:href="#m5e130a93d4" x="78.24704" y="390.930392" style="stroke: #000000; stroke-width: 0.8"/>
      </g>
     </g>
     <g id="text_11">
      <!-- 20 -->
      <g transform="translate(53.43204 396.249298) scale(0.14 -0.14)">
       <use xlink:href="#DejaVuSans-32"/>
       <use xlink:href="#DejaVuSans-30" x="63.623047"/>
      </g>
     </g>
    </g>
    <g id="ytick_4">
     <g id="line2d_11">
      <g>
       <use xlink:href="#m5e130a93d4" x="78.24704" y="319.677768" style="stroke: #000000; stroke-width: 0.8"/>
      </g>
     </g>
     <g id="text_12">
      <!-- 30 -->
      <g transform="translate(53.43204 324.996674) scale(0.14 -0.14)">
       <use xlink:href="#DejaVuSans-33"/>
       <use xlink:href="#DejaVuSans-30" x="63.623047"/>
      </g>
     </g>
    </g>
    <g id="ytick_5">
     <g id="line2d_12">
      <g>
       <use xlink:href="#m5e130a93d4" x="78.24704" y="248.425143" style="stroke: #000000; stroke-width: 0.8"/>
      </g>
     </g>
     <g id="text_13">
      <!-- 40 -->
      <g transform="translate(53.43204 253.74405) scale(0.14 -0.14)">
       <use xlink:href="#DejaVuSans-34"/>
       <use xlink:href="#DejaVuSans-30" x="63.623047"/>
      </g>
     </g>
    </g>
    <g id="ytick_6">
     <g id="line2d_13">
      <g>
       <use xlink:href="#m5e130a93d4" x="78.24704" y="177.172519" style="stroke: #000000; stroke-width: 0.8"/>
      </g>
     </g>
     <g id="text_14">
      <!-- 50 -->
      <g transform="translate(53.43204 182.491426) scale(0.14 -0.14)">
       <use xlink:href="#DejaVuSans-35"/>
       <use xlink:href="#DejaVuSans-30" x="63.623047"/>
      </g>
     </g>
    </g>
    <g id="ytick_7">
     <g id="line2d_14">
      <g>
       <use xlink:href="#m5e130a93d4" x="78.24704" y="105.919895" style="stroke: #000000; stroke-width: 0.8"/>
      </g>
     </g>
     <g id="text_15">
      <!-- 60 -->
      <g transform="translate(53.43204 111.238801) scale(0.14 -0.14)">
       <use xlink:href="#DejaVuSans-36"/>
       <use xlink:href="#DejaVuSans-30" x="63.623047"/>
      </g>
     </g>
    </g>
    <g id="text_16">
     <!-- Packets per Second -->
     <g transform="translate(46.312509 359.168949) rotate(-90) scale(0.15 -0.15)">
      <defs>
       <path id="DejaVuSans-50" d="M 1259 4147 
L 1259 2394 
L 2053 2394 
Q 2494 2394 2734 2622 
Q 2975 2850 2975 3272 
Q 2975 3691 2734 3919 
Q 2494 4147 2053 4147 
L 1259 4147 
z
M 628 4666 
L 2053 4666 
Q 2838 4666 3239 4311 
Q 3641 3956 3641 3272 
Q 3641 2581 3239 2228 
Q 2838 1875 2053 1875 
L 1259 1875 
L 1259 0 
L 628 0 
L 628 4666 
z
" transform="scale(0.015625)"/>
       <path id="DejaVuSans-61" d="M 2194 1759 
Q 1497 1759 1228 1600 
Q 959 1441 959 1056 
Q 959 750 1161 570 
Q 1363 391 1709 391 
Q 2188 391 2477 730 
Q 2766 1069 2766 1631 
L 2766 1759 
L 2194 1759 
z
M 3341 1997 
L 3341 0 
L 2766 0 
L 2766 531 
Q 2569 213 2275 61 
Q 1981 -91 1556 -91 
Q 1019 -91 701 211 
Q 384 513 384 1019 
Q 384 1609 779 1909 
Q 1175 2209 1959 2209 
L 2766 2209 
L 2766 2266 
Q 2766 2663 2505 2880 
Q 2244 3097 1772 3097 
Q 1472 3097 1187 3025 
Q 903 2953 641 2809 
L 641 3341 
Q 956 3463 1253 3523 
Q 1550 3584 1831 3584 
Q 2591 3584 2966 3190 
Q 3341 2797 3341 1997 
z
" transform="scale(0.015625)"/>
       <path id="DejaVuSans-63" d="M 3122 3366 
L 3122 2828 
Q 2878 2963 2633 3030 
Q 2388 3097 2138 3097 
Q 1578 3097 1268 2742 
Q 959 2388 959 1747 
Q 959 1106 1268 751 
Q 1578 397 2138 397 
Q 2388 397 2633 464 
Q 2878 531 3122 666 
L 3122 134 
Q 2881 22 2623 -34 
Q 2366 -91 2075 -91 
Q 1284 -91 818 406 
Q 353 903 353 1747 
Q 353 2603 823 3093 
Q 1294 3584 2113 3584 
Q 2378 3584 2631 3529 
Q 2884 3475 3122 3366 
z
" transform="scale(0.015625)"/>
       <path id="DejaVuSans-6b" d="M 581 4863 
L 1159 4863 
L 1159 1991 
L 2875 3500 
L 3609 3500 
L 1753 1863 
L 3688 0 
L 2938 0 
L 1159 1709 
L 1159 0 
L 581 0 
L 581 4863 
z
" transform="scale(0.015625)"/>
       <path id="DejaVuSans-74" d="M 1172 4494 
L 1172 3500 
L 2356 3500 
L 2356 3053 
L 1172 3053 
L 1172 1153 
Q 1172 725 1289 603 
Q 1406 481 1766 481 
L 2356 481 
L 2356 0 
L 1766 0 
Q 1100 0 847 248 
Q 594 497 594 1153 
L 594 3053 
L 172 3053 
L 172 3500 
L 594 3500 
L 594 4494 
L 1172 4494 
z
" transform="scale(0.015625)"/>
       <path id="DejaVuSans-70" d="M 1159 525 
L 1159 -1331 
L 581 -1331 
L 581 3500 
L 1159 3500 
L 1159 2969 
Q 1341 3281 1617 3432 
Q 1894 3584 2278 3584 
Q 2916 3584 3314 3078 
Q 3713 2572 3713 1747 
Q 3713 922 3314 415 
Q 2916 -91 2278 -91 
Q 1894 -91 1617 61 
Q 1341 213 1159 525 
z
M 3116 1747 
Q 3116 2381 2855 2742 
Q 2594 3103 2138 3103 
Q 1681 3103 1420 2742 
Q 1159 2381 1159 1747 
Q 1159 1113 1420 752 
Q 1681 391 2138 391 
Q 2594 391 2855 752 
Q 3116 1113 3116 1747 
z
" transform="scale(0.015625)"/>
       <path id="DejaVuSans-72" d="M 2631 2963 
Q 2534 3019 2420 3045 
Q 2306 3072 2169 3072 
Q 1681 3072 1420 2755 
Q 1159 2438 1159 1844 
L 1159 0 
L 581 0 
L 581 3500 
L 1159 3500 
L 1159 2956 
Q 1341 3275 1631 3429 
Q 1922 3584 2338 3584 
Q 2397 3584 2469 3576 
Q 2541 3569 2628 3553 
L 2631 2963 
z
" transform="scale(0.015625)"/>
       <path id="DejaVuSans-53" d="M 3425 4513 
L 3425 3897 
Q 3066 4069 2747 4153 
Q 2428 4238 2131 4238 
Q 1616 4238 1336 4038 
Q 1056 3838 1056 3469 
Q 1056 3159 1242 3001 
Q 1428 2844 1947 2747 
L 2328 2669 
Q 3034 2534 3370 2195 
Q 3706 1856 3706 1288 
Q 3706 609 3251 259 
Q 2797 -91 1919 -91 
Q 1588 -91 1214 -16 
Q 841 59 441 206 
L 441 856 
Q 825 641 1194 531 
Q 1563 422 1919 422 
Q 2459 422 2753 634 
Q 3047 847 3047 1241 
Q 3047 1584 2836 1778 
Q 2625 1972 2144 2069 
L 1759 2144 
Q 1053 2284 737 2584 
Q 422 2884 422 3419 
Q 422 4038 858 4394 
Q 1294 4750 2059 4750 
Q 2388 4750 2728 4690 
Q 3069 4631 3425 4513 
z
" transform="scale(0.015625)"/>
       <path id="DejaVuSans-6f" d="M 1959 3097 
Q 1497 3097 1228 2736 
Q 959 2375 959 1747 
Q 959 1119 1226 758 
Q 1494 397 1959 397 
Q 2419 397 2687 759 
Q 2956 1122 2956 1747 
Q 2956 2369 2687 2733 
Q 2419 3097 1959 3097 
z
M 1959 3584 
Q 2709 3584 3137 3096 
Q 3566 2609 3566 1747 
Q 3566 888 3137 398 
Q 2709 -91 1959 -91 
Q 1206 -91 779 398 
Q 353 888 353 1747 
Q 353 2609 779 3096 
Q 1206 3584 1959 3584 
z
" transform="scale(0.015625)"/>
       <path id="DejaVuSans-6e" d="M 3513 2113 
L 3513 0 
L 2938 0 
L 2938 2094 
Q 2938 2591 2744 2837 
Q 2550 3084 2163 3084 
Q 1697 3084 1428 2787 
Q 1159 2491 1159 1978 
L 1159 0 
L 581 0 
L 581 3500 
L 1159 3500 
L 1159 2956 
Q 1366 3272 1645 3428 
Q 1925 3584 2291 3584 
Q 2894 3584 3203 3211 
Q 3513 2838 3513 2113 
z
" transform="scale(0.015625)"/>
       <path id="DejaVuSans-64" d="M 2906 2969 
L 2906 4863 
L 3481 4863 
L 3481 0 
L 2906 0 
L 2906 525 
Q 2725 213 2448 61 
Q 2172 -91 1784 -91 
Q 1150 -91 751 415 
Q 353 922 353 1747 
Q 353 2572 751 3078 
Q 1150 3584 1784 3584 
Q 2172 3584 2448 3432 
Q 2725 3281 2906 2969 
z
M 947 1747 
Q 947 1113 1208 752 
Q 1469 391 1925 391 
Q 2381 391 2643 752 
Q 2906 1113 2906 1747 
Q 2906 2381 2643 2742 
Q 2381 3103 1925 3103 
Q 1469 3103 1208 2742 
Q 947 2381 947 1747 
z
" transform="scale(0.015625)"/>
      </defs>
      <use xlink:href="#DejaVuSans-50"/>
      <use xlink:href="#DejaVuSans-61" x="55.802734"/>
      <use xlink:href="#DejaVuSans-63" x="117.082031"/>
      <use xlink:href="#DejaVuSans-6b" x="172.0625"/>
      <use xlink:href="#DejaVuSans-65" x="226.347656"/>
      <use xlink:href="#DejaVuSans-74" x="287.871094"/>
      <use xlink:href="#DejaVuSans-73" x="327.080078"/>
      <use xlink:href="#DejaVuSans-20" x="379.179688"/>
      <use xlink:href="#DejaVuSans-70" x="410.966797"/>
      <use xlink:href="#DejaVuSans-65" x="474.443359"/>
      <use xlink:href="#DejaVuSans-72" x="535.966797"/>
      <use xlink:href="#DejaVuSans-20" x="577.080078"/>
      <use xlink:href="#DejaVuSans-53" x="608.867188"/>
      <use xlink:href="#DejaVuSans-65" x="672.34375"/>
      <use xlink:href="#DejaVuSans-63" x="733.867188"/>
      <use xlink:href="#DejaVuSans-6f" x="788.847656"/>
      <use xlink:href="#DejaVuSans-6e" x="850.029297"/>
      <use xlink:href="#DejaVuSans-64" x="913.408203"/>
     </g>
    </g>
   </g>
   <g id="line2d_15">
    <path d="M 78.24704 126.210859 
L 80.735742 130.683668 
L 83.496213 104.31648 
L 86.032104 102.245708 
L 88.840972 111.710236 
L 91.535578 93.827376 
L 94.334301 77.623366 
L 96.958002 116.67683 
L 99.517604 106.240294 
L 102.493125 135.330157 
L 105.488806 77.174309 
L 108.042951 105.327556 
L 110.609861 107.456436 
L 113.519049 126.252802 
L 116.088649 72.441243 
L 118.712251 116.661161 
L 121.390954 125.234248 
L 124.257348 88.384435 
L 127.243544 106.239203 
L 129.798918 105.533354 
L 132.3619 106.803585 
L 134.921002 106.156708 
L 137.479783 106.103161 
L 140.158892 125.296082 
L 142.950719 109.136008 
L 145.648785 94.391048 
L 148.227221 109.36063 
L 151.054456 114.449841 
L 153.680194 117.000238 
L 156.380981 94.833334 
L 158.932173 104.831897 
L 161.79922 88.48583 
L 164.448008 120.62406 
L 167.039261 111.458076 
L 169.666621 117.257428 
L 172.468288 78.102341 
L 175.158004 126.905511 
L 177.714282 105.684786 
L 180.276594 106.692036 
L 183.12537 117.618017 
L 185.696172 72.656651 
L 188.381966 126.311926 
L 191.073477 127.176802 
L 193.793026 97.859277 
L 196.786065 76.771728 
L 199.479624 127.485599 
L 201.909949 83.516192 
L 204.599151 126.82798 
L 207.287282 126.665792 
L 212.571558 71.579971 
L 215.126399 141.110035 
L 217.887439 104.404873 
L 220.375477 93.952614 
L 223.241499 88.326724 
L 225.933593 127.264733 
L 228.787301 86.405987 
L 231.475795 126.720706 
L 234.321577 117.180535 
L 236.879563 105.970306 
L 239.448266 72.280385 
L 242.365069 96.075952 
L 244.982123 150.436343 
L 247.547708 71.719957 
L 250.110132 106.710499 
L 252.788354 125.161009 
L 255.653296 88.158894 
L 258.331374 125.138865 
L 261.197126 88.284764 
L 264.012008 144.982283 
L 266.66665 87.209213 
L 269.38281 97.315935 
L 272.280772 93.232426 
L 274.843429 106.749492 
L 277.401973 106.0634 
L 280.044751 119.685273 
L 282.649153 113.588712 
L 285.198068 104.449033 
L 288.059218 87.568735 
L 290.611153 140.663241 
L 293.262754 86.697596 
L 295.739782 91.999147 
L 298.554074 144.900849 
L 300.975867 81.931272 
L 303.841223 88.223112 
L 306.395987 105.431225 
L 308.948954 140.822104 
L 311.506785 105.944352 
L 314.206875 94.720224 
L 317.051285 116.979774 
L 319.619143 72.128492 
L 322.178608 106.217273 
L 324.863511 126.176824 
L 327.721762 87.116506 
L 330.421347 128.391727 
L 332.979658 106.02472 
L 335.539367 106.258023 
L 338.096943 105.901667 
L 340.942403 85.110194 
L 343.629075 126.445032 
L 346.183924 105.44544 
L 348.978425 76.934771 
L 351.603777 116.938973 
L 354.286902 125.906927 
L 357.144828 87.065749 
L 359.823766 125.270046 
L 362.453498 117.632654 
L 364.946382 94.807002 
L 367.564434 115.777753 
L 370.289093 98.676127 
L 372.926399 84.276125 
L 375.907765 105.547135 
L 378.550399 119.662743 
L 381.447626 93.120684 
L 384.361806 126.950407 
L 386.926627 71.582292 
L 389.50801 145.143964 
L 392.102921 112.053047 
L 394.670777 72.128154 
L 397.3552 126.103989 
L 400.209704 86.530617 
L 403.134231 97.231037 
L 405.747716 149.913495 
L 408.306349 106.078357 
L 411.003728 94.279347 
L 413.854951 86.016322 
L 416.608595 136.343447 
L 419.402499 76.837378 
L 422.090435 126.636286 
L 424.5193 83.245817 
L 427.435515 95.987763 
L 430.063016 117.279637 
L 432.751729 126.753985 
L 435.180631 83.252567 
L 437.738495 105.949945 
L 440.482257 134.913294 
L 443.111365 117.533932 
L 445.765749 87.16594 
L 448.398546 83.506777 
L 450.946788 140.094112 
L 453.644796 94.381629 
L 456.203639 106.113519 
L 458.754159 104.719047 
L 461.309805 105.578803 
L 464.005945 127.874297 
L 466.724209 97.653369 
L 469.28194 105.927612 
L 471.850864 72.319853 
L 474.528254 125.034159 
L 477.384952 118.771124 
L 479.954311 72.397985 
L 482.601236 120.33354 
L 485.188888 110.870833 
L 488.054281 88.229028 
L 490.739769 126.265495 
L 493.598336 87.165967 
L 496.57309 135.227463 
L 499.195357 81.699996 
L 501.819404 116.731925 
L 504.383372 106.967654 
L 507.242394 87.236839 
L 509.801381 106.137456 
L 512.359268 105.953711 
L 514.91772 106.048278 
L 517.596558 125.254669 
L 520.160501 106.963579 
L 522.713037 105.0576 
L 525.578201 88.193277 
L 528.559006 105.466718 
L 531.111545 140.75625 
L 533.680918 72.400406 
L 536.367893 126.490903 
L 539.157765 76.177396 
L 541.77068 149.829713 
L 544.336656 71.790194 
L 546.981176 119.957801 
L 549.511576 101.310099 
L 552.140738 117.542592 
L 554.989725 117.648861 
L 557.652284 88.536091 
L 560.171627 99.413599 
L 562.899465 132.586912 
L 565.658431 71.05512 
L 568.207879 140.28016 
L 571.129685 96.824786 
L 573.752002 116.457032 
L 576.309342 105.862168 
L 578.997947 92.846152 
L 581.66398 123.294358 
L 584.418016 70.227406 
L 586.977615 106.239666 
L 589.534518 105.789189 
L 592.524598 106.794189 
L 595.211057 126.412712 
L 598.067019 86.758772 
L 600.625067 105.980656 
L 603.185223 106.332682 
L 606.103312 96.268745 
L 608.715784 149.764692 
L 611.281098 71.670981 
L 614.035714 136.483704 
L 616.657565 116.382804 
L 619.216432 106.117344 
L 621.876497 53.863911 
L 624.431865 141.191004 
L 627.05863 82.473621 
L 629.70277 119.898397 
L 632.308823 113.854545 
L 635.101165 76.581825 
L 637.711677 149.476714 
L 640.707876 77.253324 
L 643.626801 96.393819 
L 646.185589 106.104278 
L 648.738961 105.197899 
L 651.292496 140.909498 
L 653.925696 83.575527 
L 656.485295 106.239696 
L 659.468226 105.771692 
L 662.211867 134.895759 
L 664.935981 98.58931 
L 667.570246 83.757417 
L 670.554417 105.949464 
L 673.102289 140.036903 
L 678.591415 66.974521 
L 681.214633 116.600054 
L 683.898801 126.065365 
L 686.759046 87.427618 
L 689.733639 135.205942 
L 692.291563 105.960033 
L 694.859354 72.116474 
L 697.769738 126.420166 
L 700.403248 83.628634 
L 703.087144 126.023982 
L 705.60421 99.021048 
L 708.429929 114.225058 
L 711.058387 82.76404 
L 713.751719 127.451455 
L 716.309161 105.879433 
L 721.425659 106.039478 
L 723.983702 105.979822 
L 726.829878 117.238133 
L 729.386721 105.779111 
L 732.010291 81.924501 
L 734.514032 96.709085 
L 737.199983 126.335673 
L 740.05822 87.114354 
L 743.042168 105.91746 
L 745.85641 144.893864 
L 748.576046 97.87334 
L 751.143758 72.102181 
L 754.119384 135.344195 
L 756.687197 72.120385 
L 759.364383 125.002949 
L 762.053203 126.770097 
L 764.788387 67.034779 
L 767.338375 140.363396 
L 769.896057 105.919483 
L 772.593513 94.291776 
L 775.142126 104.398325 
L 778.007336 88.200549 
L 783.244114 125.194307 
L 785.909262 123.158141 
L 788.366048 88.362183 
L 791.225139 87.247612 
L 793.913414 126.687685 
L 796.425409 98.143971 
L 799.275251 85.799571 
L 802.323524 114.938953 
L 805.010146 126.437378 
L 807.5694 106.18222 
L 810.128294 106.12185 
L 812.982066 86.416053 
L 815.671566 126.872965 
L 818.52636 86.575967 
L 823.772936 126.822288 
L 826.331253 106.025527 
L 829.122059 76.330385 
L 831.745178 116.584417 
L 834.652835 94.700303 
L 837.212218 106.203507 
L 839.830243 115.773412 
L 842.392058 106.609109 
L 844.950365 106.024006 
L 847.925821 135.321448 
L 847.925821 135.321448 
" clip-path="url(#paa5c97b712)" style="fill: none; stroke: #1f77b4; stroke-width: 1.5; stroke-linecap: square"/>
   </g>
   <g id="line2d_16">
    <path d="M 78.24704 106.294484 
L 886.40976 106.294484 
" clip-path="url(#paa5c97b712)" style="fill: none; stroke-dasharray: 5.55,2.4; stroke-dashoffset: 0; stroke: #0000ff; stroke-width: 1.5"/>
   </g>
   <g id="line2d_17">
    <path d="M 78.24704 329.827464 
L 80.735761 350.368013 
L 83.496248 302.372749 
L 86.032054 317.833456 
L 88.841012 338.79939 
L 91.535588 330.537208 
L 94.334331 272.973419 
L 96.957978 325.051976 
L 99.517587 319.838487 
L 102.493164 349.698099 
L 105.488828 290.094944 
L 108.042875 355.050395 
L 110.609845 284.95354 
L 113.519047 345.506018 
L 116.088635 285.20673 
L 118.712297 325.053201 
L 121.390999 363.351612 
L 124.257398 279.121133 
L 129.798962 355.143156 
L 132.36194 284.566534 
L 134.921044 319.796298 
L 137.47982 319.769005 
L 140.158925 363.377175 
L 142.950762 304.967476 
L 145.648826 297.026834 
L 148.227258 321.397752 
L 151.054496 340.057829 
L 153.68024 325.218367 
L 156.381013 297.263969 
L 158.932216 354.851573 
L 161.799144 279.168042 
L 164.448047 361.438254 
L 167.039287 322.445855 
L 169.666666 290.666659 
L 172.468325 305.768388 
L 175.158007 330.168053 
L 177.714199 355.20007 
L 180.276638 320.074418 
L 183.125353 309.529059 
L 185.696216 285.329787 
L 188.381888 329.864528 
L 191.073367 330.303822 
L 193.792959 332.403514 
L 196.786099 320.332996 
L 199.479599 296.626292 
L 201.90987 308.47094 
L 204.599071 330.131725 
L 207.287324 330.059984 
L 210.006668 332.385261 
L 212.571482 320.271929 
L 215.126436 319.449373 
L 217.887366 302.409781 
L 220.37551 313.703516 
L 223.241526 310.880715 
L 225.933506 330.341577 
L 228.787335 309.930247 
L 231.475715 330.069604 
L 234.321583 341.323741 
L 236.879601 319.705623 
L 239.4483 285.120855 
L 242.364896 345.98243 
L 244.982036 324.533886 
L 247.547628 320.336599 
L 250.110161 284.523304 
L 252.788384 329.298376 
L 255.65333 310.797519 
L 258.331403 363.311734 
L 261.197097 279.058539 
L 264.012002 339.210567 
L 266.666666 327.486687 
L 269.382818 332.148983 
L 272.280792 313.334956 
L 274.843451 284.53553 
L 277.401993 319.749445 
L 280.044549 326.543083 
L 282.649098 323.52396 
L 285.197968 318.938593 
L 288.059208 342.355805 
L 290.611033 319.186918 
L 293.262779 292.897559 
L 295.73959 312.698047 
L 298.55407 339.18121 
L 300.975883 345.310377 
L 303.841245 279.029057 
L 306.395981 355.098479 
L 308.948977 319.285203 
L 311.506664 319.678011 
L 314.206898 297.216814 
L 317.051302 341.224865 
L 319.619162 285.039642 
L 322.178591 319.823468 
L 324.863497 363.744677 
L 327.721769 278.398046 
L 330.421344 330.912896 
L 332.979657 319.730341 
L 335.539362 319.846469 
L 338.096937 319.668619 
L 340.942145 309.253052 
L 343.628936 329.949367 
L 346.183881 319.44858 
L 348.978319 305.180064 
L 351.603623 325.183457 
L 354.286906 329.683298 
L 357.144801 310.248308 
L 359.823664 329.3471 
L 362.45351 325.543176 
L 364.946233 314.107157 
L 367.564447 324.619574 
L 370.289106 332.77739 
L 372.926296 291.569893 
L 375.90778 319.4999 
L 378.550289 326.539363 
L 381.447633 344.736872 
L 384.361819 314.559459 
L 386.926515 320.26216 
L 389.508021 321.650275 
L 392.102929 322.744051 
L 394.670751 285.036001 
L 397.355209 329.772536 
L 400.209712 341.904849 
L 403.134239 284.175871 
L 405.747677 359.104237 
L 408.30624 319.751153 
L 411.003578 296.963219 
L 413.854916 341.692248 
L 416.608596 301.801616 
L 419.402346 305.123873 
L 422.09045 330.048669 
L 424.51926 308.335598 
L 427.435519 345.960824 
L 430.063021 290.678049 
L 432.75157 330.082403 
L 435.180523 308.348825 
L 437.738351 319.68982 
L 440.482214 334.181827 
L 443.111367 325.48837 
L 445.765704 327.461341 
L 448.398427 291.159458 
L 450.946741 354.649069 
L 453.644677 297.0156 
L 456.203519 319.774466 
L 458.753987 319.072935 
L 461.309806 355.174114 
L 464.005769 296.84255 
L 466.724155 332.314457 
L 469.281932 319.685468 
L 471.850701 285.127589 
L 474.528256 329.247407 
L 477.384905 342.048756 
L 479.954194 285.177795 
L 482.601106 326.883596 
L 485.188837 322.159765 
L 488.054276 310.835818 
L 490.739606 363.771474 
L 493.598282 278.43402 
L 496.572967 349.643008 
L 499.1953 324.947587 
L 501.819275 290.351711 
L 504.383309 355.745264 
L 507.24239 278.470137 
L 509.801368 319.785855 
L 512.359212 319.691072 
L 514.917722 319.746721 
L 517.596404 329.333316 
L 520.160443 320.207583 
L 522.713029 319.250821 
L 525.57814 310.810354 
L 528.559002 350.023875 
L 531.111363 319.231899 
L 533.680908 285.20264 
L 536.367758 329.953755 
L 539.157693 304.811711 
L 541.770665 359.073114 
L 544.336481 320.355231 
L 546.981102 326.704619 
L 549.511565 317.37825 
L 552.140554 325.475405 
L 554.989721 309.564563 
L 557.652095 328.083178 
L 560.171618 316.44009 
L 562.899455 299.60712 
L 565.658307 335.264414 
L 568.207537 318.968851 
L 571.12908 315.110532 
L 573.751743 324.973845 
L 576.309261 319.663801 
L 578.997937 296.201374 
L 581.663626 328.338522 
L 584.417936 334.937599 
L 586.977595 319.842692 
L 589.53449 319.611727 
L 592.52452 289.636429 
L 595.211042 329.92898 
L 598.066819 310.082746 
L 600.624929 319.713288 
L 603.185203 319.894006 
L 606.103229 314.84744 
L 608.71577 359.044363 
L 611.280899 320.298155 
L 614.03562 301.889122 
L 616.657432 324.906153 
L 619.216418 319.786424 
L 621.876215 327.884179 
L 624.431591 319.484659 
L 627.058248 325.290787 
L 629.702627 292.227406 
L 632.308805 323.655193 
L 635.10102 304.998331 
L 637.711538 358.909272 
L 640.707778 290.141664 
L 643.626775 314.920194 
L 646.185562 319.769906 
L 648.738936 355.003357 
L 651.292394 319.323966 
L 653.925485 291.193312 
L 656.485147 319.842895 
L 659.468084 319.604115 
L 662.211835 334.173654 
L 664.935841 332.729347 
L 667.570092 291.299987 
L 670.554393 319.701825 
L 673.101813 354.586304 
L 675.6612 319.820029 
L 678.591267 284.64715 
L 681.214529 325.021359 
L 683.898756 363.701754 
L 686.758384 278.51895 
L 689.733536 349.671836 
L 692.291529 319.703551 
L 694.859236 285.024898 
L 697.769701 345.587584 
L 700.402559 291.171875 
L 703.086992 329.770607 
L 705.60417 352.437605 
L 708.429701 307.691851 
L 711.058235 325.439372 
L 713.751186 296.577959 
L 716.309049 319.692729 
L 723.983667 319.723884 
L 726.829362 341.312069 
L 729.386686 319.647663 
L 732.010252 325.04555 
L 734.51392 278.670946 
L 737.199951 363.815732 
L 740.057664 278.348176 
L 743.042043 319.707347 
L 745.856369 339.170623 
L 748.575802 332.391836 
L 751.143726 285.045878 
L 754.118741 349.663393 
L 756.68716 285.093687 
L 759.364329 329.218042 
L 762.053081 330.097713 
L 764.78834 300.241651 
L 767.337802 354.729566 
L 769.895934 319.715123 
L 772.593346 296.969696 
L 775.141996 318.920094 
L 778.007291 310.824695 
L 780.565121 319.689931 
L 783.244075 363.367609 
L 785.909212 294.106115 
L 788.365912 347.981841 
L 791.225092 278.479024 
L 793.913358 330.060965 
L 796.425246 315.780569 
L 799.274966 309.608042 
L 802.322882 324.162798 
L 805.01007 329.979385 
L 807.569311 319.807763 
L 810.127965 319.75876 
L 812.981992 309.945811 
L 815.671351 330.143656 
L 818.526281 310.016414 
L 823.772852 330.152036 
L 826.331055 319.721095 
L 829.121724 304.871756 
L 831.745101 325.030514 
L 834.652122 314.019936 
L 837.212075 319.867252 
L 839.830178 359.414834 
L 842.391904 284.444952 
L 844.950306 319.737709 
L 847.925758 349.690342 
L 847.925758 349.690342 
" clip-path="url(#paa5c97b712)" style="fill: none; stroke: #ff7f0e; stroke-width: 1.5; stroke-linecap: square"/>
   </g>
   <g id="line2d_18">
    <path d="M 78.24704 319.955954 
L 886.40976 319.955954 
" clip-path="url(#paa5c97b712)" style="fill: none; stroke-dasharray: 5.55,2.4; stroke-dashoffset: 0; stroke: #ffa500; stroke-width: 1.5"/>
   </g>
   <g id="patch_3">
    <path d="M 78.24704 533.43564 
L 78.24704 38.36632 
" style="fill: none; stroke: #000000; stroke-width: 0.8; stroke-linejoin: miter; stroke-linecap: square"/>
   </g>
   <g id="patch_4">
    <path d="M 886.40976 533.43564 
L 886.40976 38.36632 
" style="fill: none; stroke: #000000; stroke-width: 0.8; stroke-linejoin: miter; stroke-linecap: square"/>
   </g>
   <g id="patch_5">
    <path d="M 78.24704 533.43564 
L 886.40976 533.43564 
" style="fill: none; stroke: #000000; stroke-width: 0.8; stroke-linejoin: miter; stroke-linecap: square"/>
   </g>
   <g id="patch_6">
    <path d="M 78.24704 38.36632 
L 886.40976 38.36632 
" style="fill: none; stroke: #000000; stroke-width: 0.8; stroke-linejoin: miter; stroke-linecap: square"/>
   </g>
   <g id="text_17">
    <!-- Observed and Filtered Packet Rates -->
    <g transform="translate(333.206087 32.36632) scale(0.168 -0.168)">
     <defs>
      <path id="DejaVuSans-4f" d="M 2522 4238 
Q 1834 4238 1429 3725 
Q 1025 3213 1025 2328 
Q 1025 1447 1429 934 
Q 1834 422 2522 422 
Q 3209 422 3611 934 
Q 4013 1447 4013 2328 
Q 4013 3213 3611 3725 
Q 3209 4238 2522 4238 
z
M 2522 4750 
Q 3503 4750 4090 4092 
Q 4678 3434 4678 2328 
Q 4678 1225 4090 567 
Q 3503 -91 2522 -91 
Q 1538 -91 948 565 
Q 359 1222 359 2328 
Q 359 3434 948 4092 
Q 1538 4750 2522 4750 
z
" transform="scale(0.015625)"/>
      <path id="DejaVuSans-62" d="M 3116 1747 
Q 3116 2381 2855 2742 
Q 2594 3103 2138 3103 
Q 1681 3103 1420 2742 
Q 1159 2381 1159 1747 
Q 1159 1113 1420 752 
Q 1681 391 2138 391 
Q 2594 391 2855 752 
Q 3116 1113 3116 1747 
z
M 1159 2969 
Q 1341 3281 1617 3432 
Q 1894 3584 2278 3584 
Q 2916 3584 3314 3078 
Q 3713 2572 3713 1747 
Q 3713 922 3314 415 
Q 2916 -91 2278 -91 
Q 1894 -91 1617 61 
Q 1341 213 1159 525 
L 1159 0 
L 581 0 
L 581 4863 
L 1159 4863 
L 1159 2969 
z
" transform="scale(0.015625)"/>
      <path id="DejaVuSans-76" d="M 191 3500 
L 800 3500 
L 1894 563 
L 2988 3500 
L 3597 3500 
L 2284 0 
L 1503 0 
L 191 3500 
z
" transform="scale(0.015625)"/>
      <path id="DejaVuSans-46" d="M 628 4666 
L 3309 4666 
L 3309 4134 
L 1259 4134 
L 1259 2759 
L 3109 2759 
L 3109 2228 
L 1259 2228 
L 1259 0 
L 628 0 
L 628 4666 
z
" transform="scale(0.015625)"/>
      <path id="DejaVuSans-6c" d="M 603 4863 
L 1178 4863 
L 1178 0 
L 603 0 
L 603 4863 
z
" transform="scale(0.015625)"/>
      <path id="DejaVuSans-52" d="M 2841 2188 
Q 3044 2119 3236 1894 
Q 3428 1669 3622 1275 
L 4263 0 
L 3584 0 
L 2988 1197 
Q 2756 1666 2539 1819 
Q 2322 1972 1947 1972 
L 1259 1972 
L 1259 0 
L 628 0 
L 628 4666 
L 2053 4666 
Q 2853 4666 3247 4331 
Q 3641 3997 3641 3322 
Q 3641 2881 3436 2590 
Q 3231 2300 2841 2188 
z
M 1259 4147 
L 1259 2491 
L 2053 2491 
Q 2509 2491 2742 2702 
Q 2975 2913 2975 3322 
Q 2975 3731 2742 3939 
Q 2509 4147 2053 4147 
L 1259 4147 
z
" transform="scale(0.015625)"/>
     </defs>
     <use xlink:href="#DejaVuSans-4f"/>
     <use xlink:href="#DejaVuSans-62" x="78.710938"/>
     <use xlink:href="#DejaVuSans-73" x="142.1875"/>
     <use xlink:href="#DejaVuSans-65" x="194.287109"/>
     <use xlink:href="#DejaVuSans-72" x="255.810547"/>
     <use xlink:href="#DejaVuSans-76" x="296.923828"/>
     <use xlink:href="#DejaVuSans-65" x="356.103516"/>
     <use xlink:href="#DejaVuSans-64" x="417.626953"/>
     <use xlink:href="#DejaVuSans-20" x="481.103516"/>
     <use xlink:href="#DejaVuSans-61" x="512.890625"/>
     <use xlink:href="#DejaVuSans-6e" x="574.169922"/>
     <use xlink:href="#DejaVuSans-64" x="637.548828"/>
     <use xlink:href="#DejaVuSans-20" x="701.025391"/>
     <use xlink:href="#DejaVuSans-46" x="732.8125"/>
     <use xlink:href="#DejaVuSans-69" x="783.082031"/>
     <use xlink:href="#DejaVuSans-6c" x="810.865234"/>
     <use xlink:href="#DejaVuSans-74" x="838.648438"/>
     <use xlink:href="#DejaVuSans-65" x="877.857422"/>
     <use xlink:href="#DejaVuSans-72" x="939.380859"/>
     <use xlink:href="#DejaVuSans-65" x="978.244141"/>
     <use xlink:href="#DejaVuSans-64" x="1039.767578"/>
     <use xlink:href="#DejaVuSans-20" x="1103.244141"/>
     <use xlink:href="#DejaVuSans-50" x="1135.03125"/>
     <use xlink:href="#DejaVuSans-61" x="1190.833984"/>
     <use xlink:href="#DejaVuSans-63" x="1252.113281"/>
     <use xlink:href="#DejaVuSans-6b" x="1307.09375"/>
     <use xlink:href="#DejaVuSans-65" x="1361.378906"/>
     <use xlink:href="#DejaVuSans-74" x="1422.902344"/>
     <use xlink:href="#DejaVuSans-20" x="1462.111328"/>
     <use xlink:href="#DejaVuSans-52" x="1493.898438"/>
     <use xlink:href="#DejaVuSans-61" x="1561.130859"/>
     <use xlink:href="#DejaVuSans-74" x="1622.410156"/>
     <use xlink:href="#DejaVuSans-65" x="1661.619141"/>
     <use xlink:href="#DejaVuSans-73" x="1723.142578"/>
    </g>
   </g>
   <g id="legend_1">
    <g id="patch_7">
     <path d="M 896.20976 329.09973 
L 1163.045385 329.09973 
Q 1165.845385 329.09973 1165.845385 326.29973 
L 1165.845385 245.50223 
Q 1165.845385 242.70223 1163.045385 242.70223 
L 896.20976 242.70223 
Q 893.40976 242.70223 893.40976 245.50223 
L 893.40976 326.29973 
Q 893.40976 329.09973 896.20976 329.09973 
z
" style="fill: #ffffff; opacity: 0.8; stroke: #cccccc; stroke-linejoin: miter"/>
    </g>
    <g id="line2d_19">
     <path d="M 899.00976 254.040042 
L 913.00976 254.040042 
L 927.00976 254.040042 
" style="fill: none; stroke: #1f77b4; stroke-width: 1.5; stroke-linecap: square"/>
    </g>
    <g id="text_18">
     <!-- Filtered packets Cam 1 -->
     <g transform="translate(938.20976 258.940042) scale(0.14 -0.14)">
      <defs>
       <path id="DejaVuSans-43" d="M 4122 4306 
L 4122 3641 
Q 3803 3938 3442 4084 
Q 3081 4231 2675 4231 
Q 1875 4231 1450 3742 
Q 1025 3253 1025 2328 
Q 1025 1406 1450 917 
Q 1875 428 2675 428 
Q 3081 428 3442 575 
Q 3803 722 4122 1019 
L 4122 359 
Q 3791 134 3420 21 
Q 3050 -91 2638 -91 
Q 1578 -91 968 557 
Q 359 1206 359 2328 
Q 359 3453 968 4101 
Q 1578 4750 2638 4750 
Q 3056 4750 3426 4639 
Q 3797 4528 4122 4306 
z
" transform="scale(0.015625)"/>
      </defs>
      <use xlink:href="#DejaVuSans-46"/>
      <use xlink:href="#DejaVuSans-69" x="50.269531"/>
      <use xlink:href="#DejaVuSans-6c" x="78.052734"/>
      <use xlink:href="#DejaVuSans-74" x="105.835938"/>
      <use xlink:href="#DejaVuSans-65" x="145.044922"/>
      <use xlink:href="#DejaVuSans-72" x="206.568359"/>
      <use xlink:href="#DejaVuSans-65" x="245.431641"/>
      <use xlink:href="#DejaVuSans-64" x="306.955078"/>
      <use xlink:href="#DejaVuSans-20" x="370.431641"/>
      <use xlink:href="#DejaVuSans-70" x="402.21875"/>
      <use xlink:href="#DejaVuSans-61" x="465.695312"/>
      <use xlink:href="#DejaVuSans-63" x="526.974609"/>
      <use xlink:href="#DejaVuSans-6b" x="581.955078"/>
      <use xlink:href="#DejaVuSans-65" x="636.240234"/>
      <use xlink:href="#DejaVuSans-74" x="697.763672"/>
      <use xlink:href="#DejaVuSans-73" x="736.972656"/>
      <use xlink:href="#DejaVuSans-20" x="789.072266"/>
      <use xlink:href="#DejaVuSans-43" x="820.859375"/>
      <use xlink:href="#DejaVuSans-61" x="890.683594"/>
      <use xlink:href="#DejaVuSans-6d" x="951.962891"/>
      <use xlink:href="#DejaVuSans-20" x="1049.375"/>
      <use xlink:href="#DejaVuSans-31" x="1081.162109"/>
     </g>
    </g>
    <g id="line2d_20">
     <path d="M 899.00976 274.589417 
L 913.00976 274.589417 
L 927.00976 274.589417 
" style="fill: none; stroke-dasharray: 5.55,2.4; stroke-dashoffset: 0; stroke: #0000ff; stroke-width: 1.5"/>
    </g>
    <g id="text_19">
     <!-- Filtered packets Cam 1 average -->
     <g transform="translate(938.20976 279.489417) scale(0.14 -0.14)">
      <defs>
       <path id="DejaVuSans-67" d="M 2906 1791 
Q 2906 2416 2648 2759 
Q 2391 3103 1925 3103 
Q 1463 3103 1205 2759 
Q 947 2416 947 1791 
Q 947 1169 1205 825 
Q 1463 481 1925 481 
Q 2391 481 2648 825 
Q 2906 1169 2906 1791 
z
M 3481 434 
Q 3481 -459 3084 -895 
Q 2688 -1331 1869 -1331 
Q 1566 -1331 1297 -1286 
Q 1028 -1241 775 -1147 
L 775 -588 
Q 1028 -725 1275 -790 
Q 1522 -856 1778 -856 
Q 2344 -856 2625 -561 
Q 2906 -266 2906 331 
L 2906 616 
Q 2728 306 2450 153 
Q 2172 0 1784 0 
Q 1141 0 747 490 
Q 353 981 353 1791 
Q 353 2603 747 3093 
Q 1141 3584 1784 3584 
Q 2172 3584 2450 3431 
Q 2728 3278 2906 2969 
L 2906 3500 
L 3481 3500 
L 3481 434 
z
" transform="scale(0.015625)"/>
      </defs>
      <use xlink:href="#DejaVuSans-46"/>
      <use xlink:href="#DejaVuSans-69" x="50.269531"/>
      <use xlink:href="#DejaVuSans-6c" x="78.052734"/>
      <use xlink:href="#DejaVuSans-74" x="105.835938"/>
      <use xlink:href="#DejaVuSans-65" x="145.044922"/>
      <use xlink:href="#DejaVuSans-72" x="206.568359"/>
      <use xlink:href="#DejaVuSans-65" x="245.431641"/>
      <use xlink:href="#DejaVuSans-64" x="306.955078"/>
      <use xlink:href="#DejaVuSans-20" x="370.431641"/>
      <use xlink:href="#DejaVuSans-70" x="402.21875"/>
      <use xlink:href="#DejaVuSans-61" x="465.695312"/>
      <use xlink:href="#DejaVuSans-63" x="526.974609"/>
      <use xlink:href="#DejaVuSans-6b" x="581.955078"/>
      <use xlink:href="#DejaVuSans-65" x="636.240234"/>
      <use xlink:href="#DejaVuSans-74" x="697.763672"/>
      <use xlink:href="#DejaVuSans-73" x="736.972656"/>
      <use xlink:href="#DejaVuSans-20" x="789.072266"/>
      <use xlink:href="#DejaVuSans-43" x="820.859375"/>
      <use xlink:href="#DejaVuSans-61" x="890.683594"/>
      <use xlink:href="#DejaVuSans-6d" x="951.962891"/>
      <use xlink:href="#DejaVuSans-20" x="1049.375"/>
      <use xlink:href="#DejaVuSans-31" x="1081.162109"/>
      <use xlink:href="#DejaVuSans-20" x="1144.785156"/>
      <use xlink:href="#DejaVuSans-61" x="1176.572266"/>
      <use xlink:href="#DejaVuSans-76" x="1237.851562"/>
      <use xlink:href="#DejaVuSans-65" x="1297.03125"/>
      <use xlink:href="#DejaVuSans-72" x="1358.554688"/>
      <use xlink:href="#DejaVuSans-61" x="1399.667969"/>
      <use xlink:href="#DejaVuSans-67" x="1460.947266"/>
      <use xlink:href="#DejaVuSans-65" x="1524.423828"/>
     </g>
    </g>
    <g id="line2d_21">
     <path d="M 899.00976 295.138792 
L 913.00976 295.138792 
L 927.00976 295.138792 
" style="fill: none; stroke: #ff7f0e; stroke-width: 1.5; stroke-linecap: square"/>
    </g>
    <g id="text_20">
     <!-- Filtered packets Cam 2 -->
     <g transform="translate(938.20976 300.038792) scale(0.14 -0.14)">
      <use xlink:href="#DejaVuSans-46"/>
      <use xlink:href="#DejaVuSans-69" x="50.269531"/>
      <use xlink:href="#DejaVuSans-6c" x="78.052734"/>
      <use xlink:href="#DejaVuSans-74" x="105.835938"/>
      <use xlink:href="#DejaVuSans-65" x="145.044922"/>
      <use xlink:href="#DejaVuSans-72" x="206.568359"/>
      <use xlink:href="#DejaVuSans-65" x="245.431641"/>
      <use xlink:href="#DejaVuSans-64" x="306.955078"/>
      <use xlink:href="#DejaVuSans-20" x="370.431641"/>
      <use xlink:href="#DejaVuSans-70" x="402.21875"/>
      <use xlink:href="#DejaVuSans-61" x="465.695312"/>
      <use xlink:href="#DejaVuSans-63" x="526.974609"/>
      <use xlink:href="#DejaVuSans-6b" x="581.955078"/>
      <use xlink:href="#DejaVuSans-65" x="636.240234"/>
      <use xlink:href="#DejaVuSans-74" x="697.763672"/>
      <use xlink:href="#DejaVuSans-73" x="736.972656"/>
      <use xlink:href="#DejaVuSans-20" x="789.072266"/>
      <use xlink:href="#DejaVuSans-43" x="820.859375"/>
      <use xlink:href="#DejaVuSans-61" x="890.683594"/>
      <use xlink:href="#DejaVuSans-6d" x="951.962891"/>
      <use xlink:href="#DejaVuSans-20" x="1049.375"/>
      <use xlink:href="#DejaVuSans-32" x="1081.162109"/>
     </g>
    </g>
    <g id="line2d_22">
     <path d="M 899.00976 315.688167 
L 913.00976 315.688167 
L 927.00976 315.688167 
" style="fill: none; stroke-dasharray: 5.55,2.4; stroke-dashoffset: 0; stroke: #ffa500; stroke-width: 1.5"/>
    </g>
    <g id="text_21">
     <!-- Filtered packets Cam 2 average -->
     <g transform="translate(938.20976 320.588167) scale(0.14 -0.14)">
      <use xlink:href="#DejaVuSans-46"/>
      <use xlink:href="#DejaVuSans-69" x="50.269531"/>
      <use xlink:href="#DejaVuSans-6c" x="78.052734"/>
      <use xlink:href="#DejaVuSans-74" x="105.835938"/>
      <use xlink:href="#DejaVuSans-65" x="145.044922"/>
      <use xlink:href="#DejaVuSans-72" x="206.568359"/>
      <use xlink:href="#DejaVuSans-65" x="245.431641"/>
      <use xlink:href="#DejaVuSans-64" x="306.955078"/>
      <use xlink:href="#DejaVuSans-20" x="370.431641"/>
      <use xlink:href="#DejaVuSans-70" x="402.21875"/>
      <use xlink:href="#DejaVuSans-61" x="465.695312"/>
      <use xlink:href="#DejaVuSans-63" x="526.974609"/>
      <use xlink:href="#DejaVuSans-6b" x="581.955078"/>
      <use xlink:href="#DejaVuSans-65" x="636.240234"/>
      <use xlink:href="#DejaVuSans-74" x="697.763672"/>
      <use xlink:href="#DejaVuSans-73" x="736.972656"/>
      <use xlink:href="#DejaVuSans-20" x="789.072266"/>
      <use xlink:href="#DejaVuSans-43" x="820.859375"/>
      <use xlink:href="#DejaVuSans-61" x="890.683594"/>
      <use xlink:href="#DejaVuSans-6d" x="951.962891"/>
      <use xlink:href="#DejaVuSans-20" x="1049.375"/>
      <use xlink:href="#DejaVuSans-32" x="1081.162109"/>
      <use xlink:href="#DejaVuSans-20" x="1144.785156"/>
      <use xlink:href="#DejaVuSans-61" x="1176.572266"/>
      <use xlink:href="#DejaVuSans-76" x="1237.851562"/>
      <use xlink:href="#DejaVuSans-65" x="1297.03125"/>
      <use xlink:href="#DejaVuSans-72" x="1358.554688"/>
      <use xlink:href="#DejaVuSans-61" x="1399.667969"/>
      <use xlink:href="#DejaVuSans-67" x="1460.947266"/>
      <use xlink:href="#DejaVuSans-65" x="1524.423828"/>
     </g>
    </g>
   </g>
  </g>
 </g>
 <defs>
  <clipPath id="paa5c97b712">
   <rect x="78.24704" y="38.36632" width="808.16272" height="495.06932"/>
  </clipPath>
 </defs>
</svg>
