<?xml version="1.0" encoding="utf-8" standalone="no"?>
<!DOCTYPE svg PUBLIC "-//W3C//DTD SVG 1.1//EN"
  "http://www.w3.org/Graphics/SVG/1.1/DTD/svg11.dtd">
<svg xmlns:xlink="http://www.w3.org/1999/xlink" width="1080pt" height="720pt" viewBox="0 0 1080 720" xmlns="http://www.w3.org/2000/svg" version="1.1">
 <metadata>
  <rdf:RDF xmlns:dc="http://purl.org/dc/elements/1.1/" xmlns:cc="http://creativecommons.org/ns#" xmlns:rdf="http://www.w3.org/1999/02/22-rdf-syntax-ns#">
   <cc:Work>
    <dc:type rdf:resource="http://purl.org/dc/dcmitype/StillImage"/>
    <dc:date>2023-04-14T13:07:32.762638</dc:date>
    <dc:format>image/svg+xml</dc:format>
    <dc:creator>
     <cc:Agent>
      <dc:title>Matplotlib v3.6.2, https://matplotlib.org/</dc:title>
     </cc:Agent>
    </dc:creator>
   </cc:Work>
  </rdf:RDF>
 </metadata>
 <defs>
  <style type="text/css">*{stroke-linejoin: round; stroke-linecap: butt}</style>
 </defs>
 <g id="figure_1">
  <g id="patch_1">
   <path d="M 0 720 
L 1080 720 
L 1080 0 
L 0 0 
z
" style="fill: #ffffff"/>
  </g>
  <g id="axes_1">
   <g id="patch_2">
    <path d="M 71.22 652.92 
L 806.805 652.92 
L 806.805 46.96 
L 71.22 46.96 
z
" style="fill: #ffffff"/>
   </g>
   <g id="matplotlib.axis_1">
    <g id="xtick_1">
     <g id="line2d_1">
      <defs>
       <path id="mefb4e82d6b" d="M 0 0 
L 0 3.5 
" style="stroke: #000000; stroke-width: 0.8"/>
      </defs>
      <g>
       <use xlink:href="#mefb4e82d6b" x="71.22" y="652.92" style="stroke: #000000; stroke-width: 0.8"/>
      </g>
     </g>
     <g id="text_1">
      <!-- 0 -->
      <g transform="translate(66.76625 670.557812) scale(0.14 -0.14)">
       <defs>
        <path id="DejaVuSans-30" d="M 2034 4250 
Q 1547 4250 1301 3770 
Q 1056 3291 1056 2328 
Q 1056 1369 1301 889 
Q 1547 409 2034 409 
Q 2525 409 2770 889 
Q 3016 1369 3016 2328 
Q 3016 3291 2770 3770 
Q 2525 4250 2034 4250 
z
M 2034 4750 
Q 2819 4750 3233 4129 
Q 3647 3509 3647 2328 
Q 3647 1150 3233 529 
Q 2819 -91 2034 -91 
Q 1250 -91 836 529 
Q 422 1150 422 2328 
Q 422 3509 836 4129 
Q 1250 4750 2034 4750 
z
" transform="scale(0.015625)"/>
       </defs>
       <use xlink:href="#DejaVuSans-30"/>
      </g>
     </g>
    </g>
    <g id="xtick_2">
     <g id="line2d_2">
      <g>
       <use xlink:href="#mefb4e82d6b" x="187.65686" y="652.92" style="stroke: #000000; stroke-width: 0.8"/>
      </g>
     </g>
     <g id="text_2">
      <!-- 10 -->
      <g transform="translate(178.74936 670.557812) scale(0.14 -0.14)">
       <defs>
        <path id="DejaVuSans-31" d="M 794 531 
L 1825 531 
L 1825 4091 
L 703 3866 
L 703 4441 
L 1819 4666 
L 2450 4666 
L 2450 531 
L 3481 531 
L 3481 0 
L 794 0 
L 794 531 
z
" transform="scale(0.015625)"/>
       </defs>
       <use xlink:href="#DejaVuSans-31"/>
       <use xlink:href="#DejaVuSans-30" x="63.623047"/>
      </g>
     </g>
    </g>
    <g id="xtick_3">
     <g id="line2d_3">
      <g>
       <use xlink:href="#mefb4e82d6b" x="304.09372" y="652.92" style="stroke: #000000; stroke-width: 0.8"/>
      </g>
     </g>
     <g id="text_3">
      <!-- 20 -->
      <g transform="translate(295.18622 670.557812) scale(0.14 -0.14)">
       <defs>
        <path id="DejaVuSans-32" d="M 1228 531 
L 3431 531 
L 3431 0 
L 469 0 
L 469 531 
Q 828 903 1448 1529 
Q 2069 2156 2228 2338 
Q 2531 2678 2651 2914 
Q 2772 3150 2772 3378 
Q 2772 3750 2511 3984 
Q 2250 4219 1831 4219 
Q 1534 4219 1204 4116 
Q 875 4013 500 3803 
L 500 4441 
Q 881 4594 1212 4672 
Q 1544 4750 1819 4750 
Q 2544 4750 2975 4387 
Q 3406 4025 3406 3419 
Q 3406 3131 3298 2873 
Q 3191 2616 2906 2266 
Q 2828 2175 2409 1742 
Q 1991 1309 1228 531 
z
" transform="scale(0.015625)"/>
       </defs>
       <use xlink:href="#DejaVuSans-32"/>
       <use xlink:href="#DejaVuSans-30" x="63.623047"/>
      </g>
     </g>
    </g>
    <g id="xtick_4">
     <g id="line2d_4">
      <g>
       <use xlink:href="#mefb4e82d6b" x="420.53058" y="652.92" style="stroke: #000000; stroke-width: 0.8"/>
      </g>
     </g>
     <g id="text_4">
      <!-- 30 -->
      <g transform="translate(411.62308 670.557812) scale(0.14 -0.14)">
       <defs>
        <path id="DejaVuSans-33" d="M 2597 2516 
Q 3050 2419 3304 2112 
Q 3559 1806 3559 1356 
Q 3559 666 3084 287 
Q 2609 -91 1734 -91 
Q 1441 -91 1130 -33 
Q 819 25 488 141 
L 488 750 
Q 750 597 1062 519 
Q 1375 441 1716 441 
Q 2309 441 2620 675 
Q 2931 909 2931 1356 
Q 2931 1769 2642 2001 
Q 2353 2234 1838 2234 
L 1294 2234 
L 1294 2753 
L 1863 2753 
Q 2328 2753 2575 2939 
Q 2822 3125 2822 3475 
Q 2822 3834 2567 4026 
Q 2313 4219 1838 4219 
Q 1578 4219 1281 4162 
Q 984 4106 628 3988 
L 628 4550 
Q 988 4650 1302 4700 
Q 1616 4750 1894 4750 
Q 2613 4750 3031 4423 
Q 3450 4097 3450 3541 
Q 3450 3153 3228 2886 
Q 3006 2619 2597 2516 
z
" transform="scale(0.015625)"/>
       </defs>
       <use xlink:href="#DejaVuSans-33"/>
       <use xlink:href="#DejaVuSans-30" x="63.623047"/>
      </g>
     </g>
    </g>
    <g id="xtick_5">
     <g id="line2d_5">
      <g>
       <use xlink:href="#mefb4e82d6b" x="536.967441" y="652.92" style="stroke: #000000; stroke-width: 0.8"/>
      </g>
     </g>
     <g id="text_5">
      <!-- 40 -->
      <g transform="translate(528.059941 670.557812) scale(0.14 -0.14)">
       <defs>
        <path id="DejaVuSans-34" d="M 2419 4116 
L 825 1625 
L 2419 1625 
L 2419 4116 
z
M 2253 4666 
L 3047 4666 
L 3047 1625 
L 3713 1625 
L 3713 1100 
L 3047 1100 
L 3047 0 
L 2419 0 
L 2419 1100 
L 313 1100 
L 313 1709 
L 2253 4666 
z
" transform="scale(0.015625)"/>
       </defs>
       <use xlink:href="#DejaVuSans-34"/>
       <use xlink:href="#DejaVuSans-30" x="63.623047"/>
      </g>
     </g>
    </g>
    <g id="xtick_6">
     <g id="line2d_6">
      <g>
       <use xlink:href="#mefb4e82d6b" x="653.404301" y="652.92" style="stroke: #000000; stroke-width: 0.8"/>
      </g>
     </g>
     <g id="text_6">
      <!-- 50 -->
      <g transform="translate(644.496801 670.557812) scale(0.14 -0.14)">
       <defs>
        <path id="DejaVuSans-35" d="M 691 4666 
L 3169 4666 
L 3169 4134 
L 1269 4134 
L 1269 2991 
Q 1406 3038 1543 3061 
Q 1681 3084 1819 3084 
Q 2600 3084 3056 2656 
Q 3513 2228 3513 1497 
Q 3513 744 3044 326 
Q 2575 -91 1722 -91 
Q 1428 -91 1123 -41 
Q 819 9 494 109 
L 494 744 
Q 775 591 1075 516 
Q 1375 441 1709 441 
Q 2250 441 2565 725 
Q 2881 1009 2881 1497 
Q 2881 1984 2565 2268 
Q 2250 2553 1709 2553 
Q 1456 2553 1204 2497 
Q 953 2441 691 2322 
L 691 4666 
z
" transform="scale(0.015625)"/>
       </defs>
       <use xlink:href="#DejaVuSans-35"/>
       <use xlink:href="#DejaVuSans-30" x="63.623047"/>
      </g>
     </g>
    </g>
    <g id="xtick_7">
     <g id="line2d_7">
      <g>
       <use xlink:href="#mefb4e82d6b" x="769.841161" y="652.92" style="stroke: #000000; stroke-width: 0.8"/>
      </g>
     </g>
     <g id="text_7">
      <!-- 60 -->
      <g transform="translate(760.933661 670.557812) scale(0.14 -0.14)">
       <defs>
        <path id="DejaVuSans-36" d="M 2113 2584 
Q 1688 2584 1439 2293 
Q 1191 2003 1191 1497 
Q 1191 994 1439 701 
Q 1688 409 2113 409 
Q 2538 409 2786 701 
Q 3034 994 3034 1497 
Q 3034 2003 2786 2293 
Q 2538 2584 2113 2584 
z
M 3366 4563 
L 3366 3988 
Q 3128 4100 2886 4159 
Q 2644 4219 2406 4219 
Q 1781 4219 1451 3797 
Q 1122 3375 1075 2522 
Q 1259 2794 1537 2939 
Q 1816 3084 2150 3084 
Q 2853 3084 3261 2657 
Q 3669 2231 3669 1497 
Q 3669 778 3244 343 
Q 2819 -91 2113 -91 
Q 1303 -91 875 529 
Q 447 1150 447 2328 
Q 447 3434 972 4092 
Q 1497 4750 2381 4750 
Q 2619 4750 2861 4703 
Q 3103 4656 3366 4563 
z
" transform="scale(0.015625)"/>
       </defs>
       <use xlink:href="#DejaVuSans-36"/>
       <use xlink:href="#DejaVuSans-30" x="63.623047"/>
      </g>
     </g>
    </g>
    <g id="text_8">
     <!-- Time (s) -->
     <g transform="translate(408.519141 688.867031) scale(0.15 -0.15)">
      <defs>
       <path id="DejaVuSans-54" d="M -19 4666 
L 3928 4666 
L 3928 4134 
L 2272 4134 
L 2272 0 
L 1638 0 
L 1638 4134 
L -19 4134 
L -19 4666 
z
" transform="scale(0.015625)"/>
       <path id="DejaVuSans-69" d="M 603 3500 
L 1178 3500 
L 1178 0 
L 603 0 
L 603 3500 
z
M 603 4863 
L 1178 4863 
L 1178 4134 
L 603 4134 
L 603 4863 
z
" transform="scale(0.015625)"/>
       <path id="DejaVuSans-6d" d="M 3328 2828 
Q 3544 3216 3844 3400 
Q 4144 3584 4550 3584 
Q 5097 3584 5394 3201 
Q 5691 2819 5691 2113 
L 5691 0 
L 5113 0 
L 5113 2094 
Q 5113 2597 4934 2840 
Q 4756 3084 4391 3084 
Q 3944 3084 3684 2787 
Q 3425 2491 3425 1978 
L 3425 0 
L 2847 0 
L 2847 2094 
Q 2847 2600 2669 2842 
Q 2491 3084 2119 3084 
Q 1678 3084 1418 2786 
Q 1159 2488 1159 1978 
L 1159 0 
L 581 0 
L 581 3500 
L 1159 3500 
L 1159 2956 
Q 1356 3278 1631 3431 
Q 1906 3584 2284 3584 
Q 2666 3584 2933 3390 
Q 3200 3197 3328 2828 
z
" transform="scale(0.015625)"/>
       <path id="DejaVuSans-65" d="M 3597 1894 
L 3597 1613 
L 953 1613 
Q 991 1019 1311 708 
Q 1631 397 2203 397 
Q 2534 397 2845 478 
Q 3156 559 3463 722 
L 3463 178 
Q 3153 47 2828 -22 
Q 2503 -91 2169 -91 
Q 1331 -91 842 396 
Q 353 884 353 1716 
Q 353 2575 817 3079 
Q 1281 3584 2069 3584 
Q 2775 3584 3186 3129 
Q 3597 2675 3597 1894 
z
M 3022 2063 
Q 3016 2534 2758 2815 
Q 2500 3097 2075 3097 
Q 1594 3097 1305 2825 
Q 1016 2553 972 2059 
L 3022 2063 
z
" transform="scale(0.015625)"/>
       <path id="DejaVuSans-20" transform="scale(0.015625)"/>
       <path id="DejaVuSans-28" d="M 1984 4856 
Q 1566 4138 1362 3434 
Q 1159 2731 1159 2009 
Q 1159 1288 1364 580 
Q 1569 -128 1984 -844 
L 1484 -844 
Q 1016 -109 783 600 
Q 550 1309 550 2009 
Q 550 2706 781 3412 
Q 1013 4119 1484 4856 
L 1984 4856 
z
" transform="scale(0.015625)"/>
       <path id="DejaVuSans-73" d="M 2834 3397 
L 2834 2853 
Q 2591 2978 2328 3040 
Q 2066 3103 1784 3103 
Q 1356 3103 1142 2972 
Q 928 2841 928 2578 
Q 928 2378 1081 2264 
Q 1234 2150 1697 2047 
L 1894 2003 
Q 2506 1872 2764 1633 
Q 3022 1394 3022 966 
Q 3022 478 2636 193 
Q 2250 -91 1575 -91 
Q 1294 -91 989 -36 
Q 684 19 347 128 
L 347 722 
Q 666 556 975 473 
Q 1284 391 1588 391 
Q 1994 391 2212 530 
Q 2431 669 2431 922 
Q 2431 1156 2273 1281 
Q 2116 1406 1581 1522 
L 1381 1569 
Q 847 1681 609 1914 
Q 372 2147 372 2553 
Q 372 3047 722 3315 
Q 1072 3584 1716 3584 
Q 2034 3584 2315 3537 
Q 2597 3491 2834 3397 
z
" transform="scale(0.015625)"/>
       <path id="DejaVuSans-29" d="M 513 4856 
L 1013 4856 
Q 1481 4119 1714 3412 
Q 1947 2706 1947 2009 
Q 1947 1309 1714 600 
Q 1481 -109 1013 -844 
L 513 -844 
Q 928 -128 1133 580 
Q 1338 1288 1338 2009 
Q 1338 2731 1133 3434 
Q 928 4138 513 4856 
z
" transform="scale(0.015625)"/>
      </defs>
      <use xlink:href="#DejaVuSans-54"/>
      <use xlink:href="#DejaVuSans-69" x="57.958984"/>
      <use xlink:href="#DejaVuSans-6d" x="85.742188"/>
      <use xlink:href="#DejaVuSans-65" x="183.154297"/>
      <use xlink:href="#DejaVuSans-20" x="244.677734"/>
      <use xlink:href="#DejaVuSans-28" x="276.464844"/>
      <use xlink:href="#DejaVuSans-73" x="315.478516"/>
      <use xlink:href="#DejaVuSans-29" x="367.578125"/>
     </g>
    </g>
   </g>
   <g id="matplotlib.axis_2">
    <g id="ytick_1">
     <g id="line2d_8">
      <defs>
       <path id="m24170183ee" d="M 0 0 
L -3.5 0 
" style="stroke: #000000; stroke-width: 0.8"/>
      </defs>
      <g>
       <use xlink:href="#m24170183ee" x="71.22" y="652.92" style="stroke: #000000; stroke-width: 0.8"/>
      </g>
     </g>
     <g id="text_9">
      <!-- 0 -->
      <g transform="translate(55.3125 658.238906) scale(0.14 -0.14)">
       <use xlink:href="#DejaVuSans-30"/>
      </g>
     </g>
    </g>
    <g id="ytick_2">
     <g id="line2d_9">
      <g>
       <use xlink:href="#m24170183ee" x="71.22" y="566.936635" style="stroke: #000000; stroke-width: 0.8"/>
      </g>
     </g>
     <g id="text_10">
      <!-- 10 -->
      <g transform="translate(46.405 572.255541) scale(0.14 -0.14)">
       <use xlink:href="#DejaVuSans-31"/>
       <use xlink:href="#DejaVuSans-30" x="63.623047"/>
      </g>
     </g>
    </g>
    <g id="ytick_3">
     <g id="line2d_10">
      <g>
       <use xlink:href="#m24170183ee" x="71.22" y="480.95327" style="stroke: #000000; stroke-width: 0.8"/>
      </g>
     </g>
     <g id="text_11">
      <!-- 20 -->
      <g transform="translate(46.405 486.272176) scale(0.14 -0.14)">
       <use xlink:href="#DejaVuSans-32"/>
       <use xlink:href="#DejaVuSans-30" x="63.623047"/>
      </g>
     </g>
    </g>
    <g id="ytick_4">
     <g id="line2d_11">
      <g>
       <use xlink:href="#m24170183ee" x="71.22" y="394.969905" style="stroke: #000000; stroke-width: 0.8"/>
      </g>
     </g>
     <g id="text_12">
      <!-- 30 -->
      <g transform="translate(46.405 400.288811) scale(0.14 -0.14)">
       <use xlink:href="#DejaVuSans-33"/>
       <use xlink:href="#DejaVuSans-30" x="63.623047"/>
      </g>
     </g>
    </g>
    <g id="ytick_5">
     <g id="line2d_12">
      <g>
       <use xlink:href="#m24170183ee" x="71.22" y="308.98654" style="stroke: #000000; stroke-width: 0.8"/>
      </g>
     </g>
     <g id="text_13">
      <!-- 40 -->
      <g transform="translate(46.405 314.305446) scale(0.14 -0.14)">
       <use xlink:href="#DejaVuSans-34"/>
       <use xlink:href="#DejaVuSans-30" x="63.623047"/>
      </g>
     </g>
    </g>
    <g id="ytick_6">
     <g id="line2d_13">
      <g>
       <use xlink:href="#m24170183ee" x="71.22" y="223.003175" style="stroke: #000000; stroke-width: 0.8"/>
      </g>
     </g>
     <g id="text_14">
      <!-- 50 -->
      <g transform="translate(46.405 228.322081) scale(0.14 -0.14)">
       <use xlink:href="#DejaVuSans-35"/>
       <use xlink:href="#DejaVuSans-30" x="63.623047"/>
      </g>
     </g>
    </g>
    <g id="ytick_7">
     <g id="line2d_14">
      <g>
       <use xlink:href="#m24170183ee" x="71.22" y="137.01981" style="stroke: #000000; stroke-width: 0.8"/>
      </g>
     </g>
     <g id="text_15">
      <!-- 60 -->
      <g transform="translate(46.405 142.338716) scale(0.14 -0.14)">
       <use xlink:href="#DejaVuSans-36"/>
       <use xlink:href="#DejaVuSans-30" x="63.623047"/>
      </g>
     </g>
    </g>
    <g id="ytick_8">
     <g id="line2d_15">
      <g>
       <use xlink:href="#m24170183ee" x="71.22" y="51.036445" style="stroke: #000000; stroke-width: 0.8"/>
      </g>
     </g>
     <g id="text_16">
      <!-- 70 -->
      <g transform="translate(46.405 56.355351) scale(0.14 -0.14)">
       <defs>
        <path id="DejaVuSans-37" d="M 525 4666 
L 3525 4666 
L 3525 4397 
L 1831 0 
L 1172 0 
L 2766 4134 
L 525 4134 
L 525 4666 
z
" transform="scale(0.015625)"/>
       </defs>
       <use xlink:href="#DejaVuSans-37"/>
       <use xlink:href="#DejaVuSans-30" x="63.623047"/>
      </g>
     </g>
    </g>
    <g id="text_17">
     <!-- Packets per Second -->
     <g transform="translate(39.285469 423.207969) rotate(-90) scale(0.15 -0.15)">
      <defs>
       <path id="DejaVuSans-50" d="M 1259 4147 
L 1259 2394 
L 2053 2394 
Q 2494 2394 2734 2622 
Q 2975 2850 2975 3272 
Q 2975 3691 2734 3919 
Q 2494 4147 2053 4147 
L 1259 4147 
z
M 628 4666 
L 2053 4666 
Q 2838 4666 3239 4311 
Q 3641 3956 3641 3272 
Q 3641 2581 3239 2228 
Q 2838 1875 2053 1875 
L 1259 1875 
L 1259 0 
L 628 0 
L 628 4666 
z
" transform="scale(0.015625)"/>
       <path id="DejaVuSans-61" d="M 2194 1759 
Q 1497 1759 1228 1600 
Q 959 1441 959 1056 
Q 959 750 1161 570 
Q 1363 391 1709 391 
Q 2188 391 2477 730 
Q 2766 1069 2766 1631 
L 2766 1759 
L 2194 1759 
z
M 3341 1997 
L 3341 0 
L 2766 0 
L 2766 531 
Q 2569 213 2275 61 
Q 1981 -91 1556 -91 
Q 1019 -91 701 211 
Q 384 513 384 1019 
Q 384 1609 779 1909 
Q 1175 2209 1959 2209 
L 2766 2209 
L 2766 2266 
Q 2766 2663 2505 2880 
Q 2244 3097 1772 3097 
Q 1472 3097 1187 3025 
Q 903 2953 641 2809 
L 641 3341 
Q 956 3463 1253 3523 
Q 1550 3584 1831 3584 
Q 2591 3584 2966 3190 
Q 3341 2797 3341 1997 
z
" transform="scale(0.015625)"/>
       <path id="DejaVuSans-63" d="M 3122 3366 
L 3122 2828 
Q 2878 2963 2633 3030 
Q 2388 3097 2138 3097 
Q 1578 3097 1268 2742 
Q 959 2388 959 1747 
Q 959 1106 1268 751 
Q 1578 397 2138 397 
Q 2388 397 2633 464 
Q 2878 531 3122 666 
L 3122 134 
Q 2881 22 2623 -34 
Q 2366 -91 2075 -91 
Q 1284 -91 818 406 
Q 353 903 353 1747 
Q 353 2603 823 3093 
Q 1294 3584 2113 3584 
Q 2378 3584 2631 3529 
Q 2884 3475 3122 3366 
z
" transform="scale(0.015625)"/>
       <path id="DejaVuSans-6b" d="M 581 4863 
L 1159 4863 
L 1159 1991 
L 2875 3500 
L 3609 3500 
L 1753 1863 
L 3688 0 
L 2938 0 
L 1159 1709 
L 1159 0 
L 581 0 
L 581 4863 
z
" transform="scale(0.015625)"/>
       <path id="DejaVuSans-74" d="M 1172 4494 
L 1172 3500 
L 2356 3500 
L 2356 3053 
L 1172 3053 
L 1172 1153 
Q 1172 725 1289 603 
Q 1406 481 1766 481 
L 2356 481 
L 2356 0 
L 1766 0 
Q 1100 0 847 248 
Q 594 497 594 1153 
L 594 3053 
L 172 3053 
L 172 3500 
L 594 3500 
L 594 4494 
L 1172 4494 
z
" transform="scale(0.015625)"/>
       <path id="DejaVuSans-70" d="M 1159 525 
L 1159 -1331 
L 581 -1331 
L 581 3500 
L 1159 3500 
L 1159 2969 
Q 1341 3281 1617 3432 
Q 1894 3584 2278 3584 
Q 2916 3584 3314 3078 
Q 3713 2572 3713 1747 
Q 3713 922 3314 415 
Q 2916 -91 2278 -91 
Q 1894 -91 1617 61 
Q 1341 213 1159 525 
z
M 3116 1747 
Q 3116 2381 2855 2742 
Q 2594 3103 2138 3103 
Q 1681 3103 1420 2742 
Q 1159 2381 1159 1747 
Q 1159 1113 1420 752 
Q 1681 391 2138 391 
Q 2594 391 2855 752 
Q 3116 1113 3116 1747 
z
" transform="scale(0.015625)"/>
       <path id="DejaVuSans-72" d="M 2631 2963 
Q 2534 3019 2420 3045 
Q 2306 3072 2169 3072 
Q 1681 3072 1420 2755 
Q 1159 2438 1159 1844 
L 1159 0 
L 581 0 
L 581 3500 
L 1159 3500 
L 1159 2956 
Q 1341 3275 1631 3429 
Q 1922 3584 2338 3584 
Q 2397 3584 2469 3576 
Q 2541 3569 2628 3553 
L 2631 2963 
z
" transform="scale(0.015625)"/>
       <path id="DejaVuSans-53" d="M 3425 4513 
L 3425 3897 
Q 3066 4069 2747 4153 
Q 2428 4238 2131 4238 
Q 1616 4238 1336 4038 
Q 1056 3838 1056 3469 
Q 1056 3159 1242 3001 
Q 1428 2844 1947 2747 
L 2328 2669 
Q 3034 2534 3370 2195 
Q 3706 1856 3706 1288 
Q 3706 609 3251 259 
Q 2797 -91 1919 -91 
Q 1588 -91 1214 -16 
Q 841 59 441 206 
L 441 856 
Q 825 641 1194 531 
Q 1563 422 1919 422 
Q 2459 422 2753 634 
Q 3047 847 3047 1241 
Q 3047 1584 2836 1778 
Q 2625 1972 2144 2069 
L 1759 2144 
Q 1053 2284 737 2584 
Q 422 2884 422 3419 
Q 422 4038 858 4394 
Q 1294 4750 2059 4750 
Q 2388 4750 2728 4690 
Q 3069 4631 3425 4513 
z
" transform="scale(0.015625)"/>
       <path id="DejaVuSans-6f" d="M 1959 3097 
Q 1497 3097 1228 2736 
Q 959 2375 959 1747 
Q 959 1119 1226 758 
Q 1494 397 1959 397 
Q 2419 397 2687 759 
Q 2956 1122 2956 1747 
Q 2956 2369 2687 2733 
Q 2419 3097 1959 3097 
z
M 1959 3584 
Q 2709 3584 3137 3096 
Q 3566 2609 3566 1747 
Q 3566 888 3137 398 
Q 2709 -91 1959 -91 
Q 1206 -91 779 398 
Q 353 888 353 1747 
Q 353 2609 779 3096 
Q 1206 3584 1959 3584 
z
" transform="scale(0.015625)"/>
       <path id="DejaVuSans-6e" d="M 3513 2113 
L 3513 0 
L 2938 0 
L 2938 2094 
Q 2938 2591 2744 2837 
Q 2550 3084 2163 3084 
Q 1697 3084 1428 2787 
Q 1159 2491 1159 1978 
L 1159 0 
L 581 0 
L 581 3500 
L 1159 3500 
L 1159 2956 
Q 1366 3272 1645 3428 
Q 1925 3584 2291 3584 
Q 2894 3584 3203 3211 
Q 3513 2838 3513 2113 
z
" transform="scale(0.015625)"/>
       <path id="DejaVuSans-64" d="M 2906 2969 
L 2906 4863 
L 3481 4863 
L 3481 0 
L 2906 0 
L 2906 525 
Q 2725 213 2448 61 
Q 2172 -91 1784 -91 
Q 1150 -91 751 415 
Q 353 922 353 1747 
Q 353 2572 751 3078 
Q 1150 3584 1784 3584 
Q 2172 3584 2448 3432 
Q 2725 3281 2906 2969 
z
M 947 1747 
Q 947 1113 1208 752 
Q 1469 391 1925 391 
Q 2381 391 2643 752 
Q 2906 1113 2906 1747 
Q 2906 2381 2643 2742 
Q 2381 3103 1925 3103 
Q 1469 3103 1208 2742 
Q 947 2381 947 1747 
z
" transform="scale(0.015625)"/>
      </defs>
      <use xlink:href="#DejaVuSans-50"/>
      <use xlink:href="#DejaVuSans-61" x="55.802734"/>
      <use xlink:href="#DejaVuSans-63" x="117.082031"/>
      <use xlink:href="#DejaVuSans-6b" x="172.0625"/>
      <use xlink:href="#DejaVuSans-65" x="226.347656"/>
      <use xlink:href="#DejaVuSans-74" x="287.871094"/>
      <use xlink:href="#DejaVuSans-73" x="327.080078"/>
      <use xlink:href="#DejaVuSans-20" x="379.179688"/>
      <use xlink:href="#DejaVuSans-70" x="410.966797"/>
      <use xlink:href="#DejaVuSans-65" x="474.443359"/>
      <use xlink:href="#DejaVuSans-72" x="535.966797"/>
      <use xlink:href="#DejaVuSans-20" x="577.080078"/>
      <use xlink:href="#DejaVuSans-53" x="608.867188"/>
      <use xlink:href="#DejaVuSans-65" x="672.34375"/>
      <use xlink:href="#DejaVuSans-63" x="733.867188"/>
      <use xlink:href="#DejaVuSans-6f" x="788.847656"/>
      <use xlink:href="#DejaVuSans-6e" x="850.029297"/>
      <use xlink:href="#DejaVuSans-64" x="913.408203"/>
     </g>
    </g>
   </g>
   <g id="line2d_16">
    <path d="M 71.22 395.923474 
L 73.552598 438.31739 
L 75.889219 395.840229 
L 78.289273 360.920605 
L 80.955805 390.101358 
L 83.425797 409.721602 
L 85.678325 430.688992 
L 88.196838 374.654883 
L 90.474244 389.155867 
L 92.803402 395.016469 
L 95.35644 417.632539 
L 97.754513 360.679328 
L 100.203781 448.539956 
L 102.509242 392.365612 
L 104.883316 357.725197 
L 107.4839 383.436529 
L 109.808928 437.618627 
L 112.148422 396.155992 
L 114.812658 389.874826 
L 117.146197 395.500727 
L 119.500848 397.808718 
L 121.878261 358.139769 
L 124.212722 395.602438 
L 126.924655 431.418181 
L 129.441335 374.452265 
L 131.718164 389.088957 
L 134.048108 438.072979 
L 136.352088 348.744433 
L 138.70822 440.460944 
L 141.321996 346.493348 
L 143.763639 447.901622 
L 146.096228 352.475104 
L 150.766576 438.798616 
L 153.31526 338.667358 
L 155.697049 442.749497 
L 158.423445 395.872168 
L 161.144665 395.383129 
L 163.600396 367.541004 
L 165.930181 395.085853 
L 168.220033 390.589549 
L 170.584282 398.844404 
L 173.135894 417.500955 
L 175.466532 395.180347 
L 177.856986 401.629563 
L 180.181682 394.521537 
L 182.641425 368.006391 
L 184.969793 394.928961 
L 187.515883 377.66881 
L 189.901656 443.100549 
L 192.227955 394.699525 
L 194.559373 395.26652 
L 196.987773 405.556297 
L 199.561097 341.67637 
L 202.125353 418.661838 
L 204.356586 428.567932 
L 206.932892 380.897139 
L 209.391398 367.862951 
L 211.713686 394.253575 
L 214.053283 396.167216 
L 216.384371 395.230064 
L 218.711424 394.783187 
L 220.977015 431.970301 
L 223.317241 353.455591 
L 225.813798 412.309513 
L 228.294087 410.731304 
L 230.631486 353.093421 
L 233.095403 409.12198 
L 235.347446 386.185336 
L 237.793872 407.378997 
L 240.331299 416.18489 
L 242.717442 401.175674 
L 245.427875 394.358205 
L 247.883832 367.567174 
L 250.321503 406.497097 
L 252.811084 371.421125 
L 255.257372 407.365115 
L 257.586242 394.984554 
L 260.125983 376.980788 
L 262.505052 442.509256 
L 265.16236 389.189017 
L 267.549342 401.264216 
L 269.878518 395.018496 
L 272.216932 353.223579 
L 274.777925 418.363305 
L 279.590544 370.215058 
L 281.919061 394.945484 
L 284.415454 412.293685 
L 286.96495 378.036513 
L 289.401812 447.499338 
L 291.8262 363.85149 
L 294.340048 374.13857 
L 296.836914 412.339165 
L 299.105454 388.12503 
L 301.494059 401.435176 
L 303.849511 397.895455 
L 306.188278 396.076169 
L 308.539478 397.434273 
L 310.867817 394.925756 
L 313.358159 371.507136 
L 315.736193 442.417683 
L 318.124911 401.447084 
L 320.344211 337.138288 
L 322.791114 407.426847 
L 325.051216 387.136416 
L 327.563741 413.83856 
L 329.979475 404.259392 
L 332.36705 401.326662 
L 335.025179 389.27055 
L 337.413036 401.356272 
L 339.807236 402.0229 
L 342.248306 365.826918 
L 344.636096 401.349295 
L 347.057691 404.861219 
L 349.450995 401.928831 
L 351.897918 407.428884 
L 354.344185 366.436819 
L 356.668429 394.471273 
L 359.090228 404.882083 
L 361.477527 401.297582 
L 363.806343 394.978592 
L 366.253434 407.445695 
L 368.550004 391.356867 
L 370.911783 356.188484 
L 373.331105 404.628123 
L 375.628725 391.476405 
L 378.022012 401.92719 
L 380.497354 410.247255 
L 382.949934 407.995004 
L 385.543614 382.719319 
L 390.324842 407.871807 
L 392.860218 376.50562 
L 395.247093 401.252886 
L 397.694976 366.625947 
L 400.115022 404.702388 
L 402.622321 413.340251 
L 404.95132 394.998953 
L 407.397831 366.465437 
L 409.726746 394.989505 
L 412.32766 421.963544 
L 414.660678 395.443253 
L 416.995061 352.705991 
L 419.437035 447.929475 
L 421.889757 367.190761 
L 424.359489 409.696076 
L 426.784178 405.177627 
L 429.140748 398.016506 
L 431.74209 383.515075 
L 434.182161 406.73952 
L 436.789949 345.78966 
L 439.237053 407.447041 
L 441.623851 401.244702 
L 443.853611 428.419746 
L 446.214302 398.461538 
L 448.813396 383.282096 
L 451.142806 395.044324 
L 453.530884 401.37967 
L 455.886547 397.918349 
L 458.37077 370.813978 
L 460.6955 394.52529 
L 463.03548 396.209233 
L 465.505284 409.703117 
L 467.83407 394.975301 
L 470.164403 395.146573 
L 472.492187 394.864239 
L 474.939673 366.57954 
L 477.549293 384.369653 
L 479.99156 406.960871 
L 482.320717 395.016384 
L 484.919227 421.749815 
L 487.370902 367.068817 
L 489.695978 394.563682 
L 492.295248 421.817444 
L 494.623848 394.954712 
L 496.948641 394.532279 
L 499.665686 394.987415 
L 502.003424 353.13695 
L 504.450536 407.447797 
L 506.776001 394.606899 
L 509.099285 394.364486 
L 511.487925 401.438791 
L 514.027332 416.369549 
L 516.356172 394.981303 
L 518.80322 407.441379 
L 521.138666 395.710829 
L 523.741282 345.1794 
L 526.070476 395.020505 
L 528.399706 395.024442 
L 530.846655 407.431497 
L 533.175773 395.012029 
L 535.716284 377.064402 
L 538.036124 437.13718 
L 540.374454 353.212817 
L 542.762799 401.407697 
L 545.141661 400.405187 
L 547.806489 427.502802 
L 550.257173 366.953162 
L 552.846657 420.944054 
L 555.505599 389.351233 
L 557.89299 401.307254 
L 560.557206 389.872871 
L 562.94471 401.319165 
L 565.598728 388.862142 
L 567.992219 401.948484 
L 570.439133 407.427903 
L 573.042846 345.309138 
L 575.692276 426.192747 
L 578.079025 401.239583 
L 580.413825 395.639675 
L 582.855237 406.874658 
L 585.464584 345.973256 
L 588.114226 426.210939 
L 590.442749 394.946124 
L 592.773244 395.164442 
L 595.160131 401.254212 
L 597.827933 352.698798 
L 600.206779 442.489539 
L 602.866089 389.387579 
L 605.321646 367.520658 
L 607.650771 395.012876 
L 609.971216 437.193485 
L 612.366057 402.089977 
L 614.908901 337.945655 
L 617.346653 447.574403 
L 620.011084 389.894054 
L 622.343618 352.468145 
L 624.790955 407.470296 
L 627.119611 394.960929 
L 629.445816 394.689165 
L 631.989646 377.42424 
L 634.318826 395.0189 
L 636.766988 407.553148 
L 639.366014 383.275009 
L 641.689609 437.485835 
L 644.480366 365.925967 
L 647.18231 430.59935 
L 649.511778 395.050842 
L 651.788648 345.12277 
L 654.305026 414.204652 
L 656.828864 414.910313 
L 659.173431 354.009978 
L 661.503548 395.122736 
L 663.950784 407.460162 
L 666.219406 388.134659 
L 668.878169 389.333404 
L 671.26672 401.429469 
L 673.968763 430.607487 
L 676.70104 359.783313 
L 679.359771 389.330171 
L 681.747998 401.395298 
L 684.465938 395.0724 
L 686.7962 395.138765 
L 689.115402 393.909324 
L 691.562616 407.457999 
L 694.152891 421.014968 
L 696.482443 395.06012 
L 699.139938 389.207568 
L 701.478379 353.22703 
L 703.807787 395.044181 
L 706.195776 401.37033 
L 708.69328 412.400697 
L 711.242698 378.028084 
L 713.562402 437.124535 
L 715.896693 395.583616 
L 718.559534 352.139466 
L 720.997577 447.598873 
L 723.385655 401.379721 
L 725.723973 353.211184 
L 728.324074 383.386565 
L 730.762307 406.553901 
L 733.090255 394.882433 
L 735.51231 404.908343 
L 738.02058 413.433024 
L 740.349443 394.983765 
L 743.075634 359.128984 
L 745.481464 403.235642 
L 748.059723 419.934071 
L 750.442486 400.818619 
L 752.780781 353.208347 
L 755.218932 406.545555 
L 757.555133 438.648363 
L 760.152239 383.0757 
L 762.485931 352.617132 
L 764.933158 407.459355 
L 767.262201 395.003782 
L 769.588455 394.694553 
L 769.588455 394.694553 
" clip-path="url(#p7691357c9f)" style="fill: none; stroke: #1f77b4; stroke-width: 1.5; stroke-linecap: square"/>
   </g>
   <g id="line2d_17">
    <path d="M 71.22 138.915364 
L 73.552609 137.876217 
L 75.889216 138.757281 
L 78.289278 152.351378 
L 80.95581 127.282673 
L 83.425837 166.530102 
L 85.678342 164.006786 
L 88.196894 136.149977 
L 90.474338 125.400445 
L 92.803509 137.115964 
L 95.356465 103.898057 
L 97.754508 151.92985 
L 100.203829 162.418341 
L 102.509301 131.813695 
L 104.883363 146.86935 
L 107.483903 113.943968 
L 109.808925 179.255818 
L 112.148419 96.597741 
L 114.812659 126.830639 
L 117.146195 138.080719 
L 119.500973 185.241212 
L 121.878317 105.455167 
L 124.212729 138.273923 
L 126.924665 173.000014 
L 129.441338 135.764012 
L 131.718164 125.257546 
L 134.048112 137.287771 
L 136.352086 131.474998 
L 138.708222 143.01909 
L 141.321998 116.67332 
L 143.763644 160.876596 
L 146.096229 137.870797 
L 148.428839 137.876356 
L 150.766584 139.007569 
L 153.315272 102.978778 
L 155.697056 190.544099 
L 158.423449 102.102455 
L 161.144671 137.846866 
L 163.600409 163.700035 
L 165.930326 137.280919 
L 168.220041 128.227824 
L 170.584292 144.769204 
L 173.13602 103.633803 
L 175.466575 137.422238 
L 177.857005 150.334276 
L 180.181695 179.188149 
L 182.641432 123.793391 
L 184.969806 136.939428 
L 187.515891 102.416432 
L 189.901664 149.353319 
L 192.227961 179.515511 
L 194.559498 137.63926 
L 196.987806 116.944901 
L 199.561116 108.240741 
L 202.125383 184.405706 
L 204.356617 114.475275 
L 206.93291 147.732138 
L 209.391447 123.534954 
L 211.713719 135.583721 
L 214.053294 139.409521 
L 216.384378 137.539234 
L 218.711438 136.647947 
L 220.97703 166.830982 
L 223.317252 96.770907 
L 225.813803 171.697634 
L 228.294159 128.192123 
L 230.6316 96.109075 
L 233.095407 165.302279 
L 235.347448 119.450165 
L 237.793903 161.843826 
L 240.331433 100.560452 
L 242.717458 149.40659 
L 245.427919 172.738834 
L 247.883836 122.970202 
L 250.321513 160.075389 
L 252.811115 89.927102 
L 255.25738 161.805516 
L 257.586252 137.049782 
L 260.126017 101.046524 
L 262.505058 190.011034 
L 265.162371 125.459049 
L 267.54935 149.607664 
L 269.87853 137.117869 
L 272.217097 96.377477 
L 274.777933 183.77778 
L 279.590559 87.510256 
L 281.919073 136.970557 
L 284.415463 171.666539 
L 286.96496 103.153255 
L 289.401827 159.911746 
L 291.826218 157.374521 
L 294.340167 95.379314 
L 296.836969 171.746097 
L 299.105471 123.321145 
L 301.494075 149.950208 
L 303.849694 142.907161 
L 306.188395 139.217575 
L 308.539554 141.939742 
L 310.867835 136.918844 
L 313.358282 90.117775 
L 315.736213 147.692605 
L 318.12509 150.007547 
L 320.344223 111.539231 
L 322.791188 161.946229 
L 325.051338 121.363921 
L 327.563793 174.744075 
L 329.979498 114.148623 
L 332.367068 149.732345 
L 335.025367 125.654747 
L 337.413061 149.758366 
L 339.807366 109.333332 
L 342.248372 160.747571 
L 344.636119 149.769429 
L 347.057719 115.460362 
L 349.451022 109.105747 
L 351.897942 161.937101 
L 354.34421 161.806285 
L 356.668447 136.020864 
L 359.090396 115.537762 
L 361.477565 149.647702 
L 363.806534 137.071292 
L 366.253566 121.045982 
L 368.550092 129.783883 
L 370.911812 144.224605 
L 373.331137 156.336876 
L 375.628751 130.031489 
L 378.022096 150.946456 
L 380.497381 127.117027 
L 382.950027 122.26348 
L 385.543647 151.107097 
L 387.87358 137.284635 
L 390.324866 121.96912 
L 392.860252 139.581133 
L 395.247123 149.58486 
L 397.695006 121.230948 
L 400.115053 156.485047 
L 402.622342 133.828633 
L 404.951362 137.082306 
L 407.397962 120.952265 
L 409.72678 137.037693 
L 412.327802 152.53518 
L 414.660709 95.027074 
L 416.995094 138.267823 
L 419.437072 160.943437 
L 421.889783 163.09643 
L 424.359621 125.95738 
L 426.784215 116.123952 
L 429.140843 143.125642 
L 431.742137 114.10013 
L 434.182198 160.556933 
L 436.790045 115.454197 
L 439.237196 161.983457 
L 441.623991 149.568874 
L 443.853815 114.134852 
L 446.214331 143.96516 
L 448.813431 152.165073 
L 451.142997 137.203158 
L 453.530922 107.881018 
L 455.886592 142.918213 
L 458.37087 169.320395 
L 460.69564 136.139376 
L 463.035519 139.476315 
L 465.505385 125.963392 
L 467.834108 137.016686 
L 470.16444 137.37297 
L 472.492228 136.809299 
L 474.939712 121.144554 
L 477.549405 115.83433 
L 479.991716 161.010504 
L 482.320866 137.11125 
L 484.919272 113.501402 
L 487.370944 162.888665 
L 489.696073 136.219262 
L 492.295393 113.691069 
L 494.623892 136.966876 
L 496.948848 179.242377 
L 499.665733 137.024682 
L 502.003571 96.203727 
L 504.450644 161.967677 
L 506.776047 136.280059 
L 509.099334 135.809611 
L 511.488037 149.970871 
L 514.027382 140.381603 
L 516.356322 137.064607 
L 518.803432 121.063236 
L 521.138821 138.489092 
L 523.741333 114.352517 
L 526.070589 137.134642 
L 528.399749 137.113522 
L 530.846824 161.968105 
L 533.175836 137.080661 
L 535.716403 101.220853 
L 538.036205 178.190008 
L 540.37452 96.317348 
L 542.762861 149.894756 
L 545.141725 147.890742 
L 547.806554 126.946787 
L 550.257308 162.705203 
L 552.846721 150.29157 
L 555.505666 125.782853 
L 557.893119 149.70767 
L 560.557268 89.233538 
L 562.944774 149.718733 
L 565.598864 162.540148 
L 567.992285 109.13241 
L 570.439207 161.937559 
L 573.04302 114.621403 
L 575.692463 161.680063 
L 578.079096 149.534743 
L 580.413963 95.495333 
L 582.855305 160.815369 
L 585.464649 115.762414 
L 588.114294 161.717538 
L 590.442815 136.97194 
L 592.773313 137.409572 
L 595.160206 149.589412 
L 597.828013 90.006342 
L 600.206849 189.971138 
L 602.866159 125.855263 
L 605.32189 122.930219 
L 607.650834 137.065638 
L 609.971286 135.177685 
L 612.366188 151.27285 
L 614.908975 101.702508 
L 617.346727 160.090521 
L 620.011231 126.882646 
L 622.343687 137.842343 
L 624.791032 162.022431 
L 627.119859 137.039638 
L 629.445995 136.442835 
L 631.989721 101.906083 
L 634.318966 137.132285 
L 636.767064 162.17326 
L 639.366093 113.63075 
L 641.689821 178.991907 
L 644.480469 114.785242 
L 647.182444 171.230756 
L 649.511872 137.172842 
L 651.788762 81.301505 
L 654.305125 175.486567 
L 656.828957 137.2309 
L 659.173596 97.818703 
L 661.503641 137.309302 
L 663.950877 162.000632 
L 666.219566 123.364759 
L 668.878259 125.732967 
L 671.266813 149.939527 
L 673.968924 171.25496 
L 676.701135 103.275482 
L 679.359864 125.740052 
L 681.748158 149.884623 
L 684.466027 137.21135 
L 686.796337 137.368011 
L 689.11559 134.910114 
L 691.56269 161.973352 
L 694.15297 150.459802 
L 696.482687 137.236768 
L 699.140124 125.483741 
L 701.478446 96.319019 
L 703.807867 137.171293 
L 706.195843 149.817841 
L 708.693349 171.881782 
L 711.242781 103.139217 
L 713.562476 178.168076 
L 715.896769 95.358316 
L 718.559607 126.553594 
L 720.997713 160.162092 
L 723.385835 149.848412 
L 725.724051 139.111187 
L 728.324208 113.864737 
L 730.762372 160.173891 
L 733.090332 136.847594 
L 735.512558 156.931466 
L 738.02066 133.996857 
L 740.34952 137.047048 
L 743.075709 102.061289 
L 745.481606 153.565214 
L 748.059799 109.272302 
L 750.442569 190.735389 
L 752.780856 96.310862 
L 755.219118 160.193626 
L 757.555221 138.646414 
L 760.152429 113.252433 
L 762.48601 138.090853 
L 764.933447 162.040673 
L 767.26229 137.043362 
L 769.589237 136.622814 
L 769.589237 136.622814 
" clip-path="url(#p7691357c9f)" style="fill: none; stroke: #ff7f0e; stroke-width: 1.5; stroke-linecap: square"/>
   </g>
   <g id="line2d_18">
    <path d="M 71.22 352.416067 
L 73.82054 383.432 
L 76.132422 436.394389 
L 78.786137 388.831985 
L 81.169331 400.864116 
L 83.653758 411.134733 
L 86.255748 383.58216 
L 88.622439 356.804361 
L 90.989248 399.119202 
L 93.177886 424.20167 
L 95.90191 358.895145 
L 98.267272 441.289952 
L 100.929303 389.657062 
L 103.414079 370.876682 
L 105.592569 377.179533 
L 108.312968 432.107517 
L 110.796729 370.761493 
L 113.39839 422.029837 
L 116.118603 358.483214 
L 118.484142 441.305785 
L 121.101884 346.957656 
L 123.705361 422.190875 
L 125.895375 378.63034 
L 128.498992 422.203338 
L 130.79617 347.84375 
L 133.517573 432.189056 
L 136.002851 411.217425 
L 138.369895 356.848454 
L 140.973833 422.231699 
L 143.223508 385.904639 
L 145.708626 411.201921 
L 148.075987 356.88803 
L 150.444014 399.249769 
L 152.928694 411.159324 
L 155.222888 391.086002 
L 157.708712 411.270596 
L 160.07613 356.89516 
L 162.680608 383.839464 
L 165.167208 411.346049 
L 167.534869 399.210516 
L 170.020893 371.018299 
L 172.38869 399.2251 
L 174.747759 398.286489 
L 176.998022 385.974373 
L 179.485002 411.382886 
L 181.971809 411.36611 
L 184.458848 371.133331 
L 186.708169 430.372086 
L 189.076937 399.329159 
L 191.44651 399.415205 
L 193.814051 399.197695 
L 196.065328 341.623647 
L 198.436275 399.562241 
L 200.924167 411.471395 
L 203.292327 399.26405 
L 205.664801 399.725206 
L 208.034042 399.37977 
L 210.521472 411.42649 
L 212.891434 357.213088 
L 215.146434 430.932546 
L 217.752374 383.990498 
L 220.121233 399.338831 
L 222.383864 387.433412 
L 224.930221 377.69771 
L 227.433014 412.908913 
L 229.80297 399.456236 
L 232.171486 357.032593 
L 234.777903 422.45111 
L 237.149042 357.35977 
L 239.51866 441.670027 
L 242.200315 391.583517 
L 244.64341 366.064907 
L 246.89049 385.596147 
L 249.196047 392.376551 
L 251.899779 430.746345 
L 254.625393 359.066723 
L 256.993829 441.56457 
L 259.481688 371.226281 
L 261.989743 413.412537 
L 264.357872 399.260629 
L 266.84562 411.457478 
L 269.100906 342.177009 
L 271.470443 399.411457 
L 273.721564 386.076007 
L 276.091672 399.472481 
L 278.415314 394.404287 
L 281.021881 422.464382 
L 283.311783 390.595308 
L 285.641448 395.072541 
L 287.954452 349.931236 
L 290.334705 442.613968 
L 293.002319 352.677607 
L 295.382653 442.621101 
L 297.720859 353.196925 
L 300.440714 395.253952 
L 302.884231 407.086686 
L 305.42491 416.487901 
L 307.818903 402.001132 
L 310.543575 395.709497 
L 312.865147 351.049365 
L 315.312852 407.507271 
L 317.757746 407.225093 
L 320.242318 370.853631 
L 322.562622 437.180255 
L 324.898015 395.705056 
L 327.560771 352.129978 
L 329.940683 442.583804 
L 332.269921 395.025292 
L 334.609278 353.344483 
L 337.048331 406.636718 
L 339.656095 384.178475 
L 342.261714 422.380576 
L 344.699855 406.544596 
L 347.033004 352.54727 
L 349.521024 411.483824 
L 351.801765 389.541592 
L 354.137058 438.565057 
L 356.697419 340.100552 
L 359.06823 399.547614 
L 361.436031 399.225599 
L 363.837844 444.501699 
L 366.207766 357.208045 
L 368.496135 434.169581 
L 371.102403 384.024269 
L 373.471556 357.112094 
L 375.76475 390.971769 
L 378.489998 395.763877 
L 380.803946 436.587671 
L 383.530278 359.144128 
L 385.859963 395.074892 
L 388.573991 431.589219 
L 390.908137 352.675522 
L 393.237493 395.038383 
L 395.725601 451.730336 
L 398.332026 345.629105 
L 400.6038 432.571675 
L 403.268936 389.963715 
L 405.637645 399.322819 
L 408.007286 399.422449 
L 410.316379 392.775498 
L 412.649814 352.58414 
L 415.097063 407.461449 
L 417.697235 383.393876 
L 420.066595 441.647046 
L 422.437159 357.288139 
L 425.073851 387.127001 
L 427.403477 395.068362 
L 429.724108 437.210709 
L 432.054103 395.109154 
L 434.46836 362.638431 
L 437.110128 387.6377 
L 439.479906 441.684319 
L 441.770498 346.966653 
L 444.476965 430.970888 
L 447.206444 359.482794 
L 449.533968 394.835386 
L 452.058432 414.969307 
L 454.581983 375.210464 
L 457.070785 411.559688 
L 459.325721 386.527551 
L 461.806435 410.772754 
L 464.010355 380.361166 
L 466.461621 407.863763 
L 468.913926 367.142204 
L 471.283395 441.656755 
L 473.60565 351.138237 
L 476.050991 407.26998 
L 478.264355 381.524094 
L 480.870726 422.447032 
L 483.312075 365.859688 
L 485.835636 414.884192 
L 488.089218 386.367426 
L 490.421502 395.362231 
L 493.014682 421.274648 
L 495.345205 395.167614 
L 498.069313 358.904238 
L 500.476149 403.340045 
L 502.833159 398.064089 
L 505.162807 438.045668 
L 507.771698 345.919566 
L 510.488929 395.005135 
L 512.818514 395.063734 
L 515.149749 395.246296 
L 517.635598 411.272966 
L 519.927785 390.856716 
L 522.414928 411.398738 
L 524.902103 371.148743 
L 527.273289 441.809771 
L 529.642792 357.155833 
L 532.230702 382.116784 
L 534.719628 411.571667 
L 537.116383 402.290316 
L 539.48692 399.518348 
L 541.974122 371.151827 
L 544.654592 391.468053 
L 547.092071 447.551404 
L 549.698145 384.004163 
L 552.185902 371.214768 
L 554.478539 390.908149 
L 556.894312 404.263359 
L 559.338946 407.198954 
L 564.063165 395.733652 
L 566.431935 399.329298 
L 569.055272 347.610153 
L 571.443603 401.406331 
L 573.769549 437.703631 
L 576.139252 399.429128 
L 578.433028 347.391305 
L 580.879086 407.34204 
L 583.420142 377.123484 
L 585.808077 401.364599 
L 588.129404 437.275425 
L 590.499018 399.419652 
L 592.986077 371.135606 
L 595.362778 400.175524 
L 597.56432 380.066813 
L 600.05191 411.442045 
L 602.341068 390.509975 
L 604.828449 411.421852 
L 607.540403 394.503232 
L 609.908972 399.30781 
L 612.396754 371.217564 
L 614.647436 386.023976 
L 617.104149 408.407207 
L 619.581939 410.486981 
L 622.236498 388.915989 
L 624.632525 360.429784 
L 627.07122 406.600583 
L 629.675462 422.258645 
L 632.282717 384.126122 
L 634.769357 371.088111 
L 637.052345 433.653997 
L 639.381981 395.069468 
L 641.716142 352.677528 
L 644.203118 411.382464 
L 646.5742 399.576528 
L 648.935893 398.569434 
L 651.423154 371.158601 
L 654.134446 431.365808 
L 656.464916 395.161702 
L 658.797667 352.496125 
L 661.35805 418.307421 
L 663.727521 399.404323 
L 666.116567 359.57512 
L 668.50336 401.244253 
L 670.82941 437.713258 
L 673.550067 358.53135 
L 675.877069 437.801292 
L 678.200303 394.358862 
L 680.539546 353.329815 
L 683.06088 414.673896 
L 685.575814 414.067587 
L 687.946073 357.250108 
L 690.574189 386.259679 
L 692.96185 401.335686 
L 695.292673 395.200761 
L 697.780356 411.451075 
L 700.05948 389.354698 
L 702.361645 435.480526 
L 704.848931 371.161336 
L 707.323736 410.194675 
L 709.775377 367.064783 
L 712.094183 437.040951 
L 714.462477 399.278382 
L 717.067872 383.93415 
L 719.358828 390.71592 
L 721.691954 352.544284 
L 724.341722 426.221669 
L 726.735213 401.948514 
L 729.447465 394.531712 
L 731.934525 371.135667 
L 734.442613 413.41571 
L 736.810864 399.273691 
L 739.163125 354.98778 
L 741.492217 437.994382 
L 743.811362 393.902945 
L 746.141233 395.095435 
L 748.870924 359.505674 
L 751.576683 430.912734 
L 753.917241 396.272752 
L 756.353836 406.388201 
L 758.958682 383.877478 
L 761.682704 358.895014 
L 764.11128 446.798519 
L 766.717124 383.980554 
L 769.435761 395.138475 
L 771.773541 353.142371 
L 771.773541 353.142371 
" clip-path="url(#p7691357c9f)" style="fill: none; stroke: #2ca02c; stroke-width: 1.5; stroke-linecap: square"/>
   </g>
   <g id="line2d_19">
    <path d="M 71.22 137.770524 
L 73.820571 113.950474 
L 76.132473 133.263046 
L 78.786244 124.755093 
L 81.169389 148.797939 
L 83.653766 169.339685 
L 86.255854 114.264513 
L 88.622539 145.291854 
L 90.989376 145.324449 
L 93.177899 149.713312 
L 95.902099 101.659126 
L 98.267348 187.311665 
L 100.929454 88.800803 
L 103.414101 169.392038 
L 105.592594 101.439743 
L 108.312992 137.690847 
L 110.796756 169.220167 
L 113.398504 152.674665 
L 116.118633 100.834215 
L 118.48417 187.368374 
L 121.101919 79.24187 
L 123.705494 191.479073 
L 125.89541 104.31652 
L 128.499041 114.583861 
L 130.796215 129.931376 
L 133.517621 174.670016 
L 136.002896 129.230524 
L 138.369943 145.36954 
L 140.973883 153.095748 
L 143.22376 118.936869 
L 145.70868 129.155717 
L 148.07605 145.438756 
L 150.444162 145.597732 
L 152.928748 88.790327 
L 155.222949 172.892468 
L 157.708778 129.347415 
L 160.07619 145.447689 
L 162.68067 114.759329 
L 165.167278 169.773432 
L 167.535032 145.521063 
L 170.020975 89.098329 
L 172.388764 145.528399 
L 174.747833 143.653181 
L 176.998102 119.029892 
L 179.48508 169.845423 
L 181.971889 169.812572 
L 184.458933 89.347814 
L 186.708354 163.336397 
L 189.077024 145.717351 
L 191.446588 145.908492 
L 193.814133 145.476318 
L 196.06604 74.95987 
L 198.43682 146.168648 
L 200.924255 169.934214 
L 203.293052 145.744482 
L 205.665432 104.309532 
L 208.034155 145.728548 
L 210.52225 129.824162 
L 212.89223 145.997606 
L 215.147357 120.180071 
L 217.75344 153.506839 
L 220.122038 145.701858 
L 222.383981 121.785461 
L 224.931065 141.938688 
L 227.433849 132.894128 
L 229.803089 145.839347 
L 232.172389 103.596292 
L 234.778765 153.563038 
L 237.149908 104.023311 
L 239.519439 188.153203 
L 242.200443 92.777146 
L 244.64354 161.168841 
L 246.890739 118.300565 
L 249.196981 131.987661 
L 251.900715 134.515357 
L 254.626346 138.679996 
L 256.994668 187.915788 
L 259.481824 129.626541 
L 261.990761 134.169594 
L 264.358861 145.595067 
L 266.845762 129.573037 
L 269.101945 120.429512 
L 271.471448 145.895497 
L 273.721706 119.027347 
L 276.091818 146.025961 
L 278.416407 136.099024 
L 281.022931 153.591276 
L 283.312024 128.085123 
L 285.641601 94.229616 
L 287.955428 133.695431 
L 290.33567 190.24446 
L 293.002477 89.795362 
L 295.382811 190.262369 
L 297.721881 96.496891 
L 300.441868 137.613056 
L 302.884412 161.057424 
L 305.425938 101.428996 
L 307.819933 151.08263 
L 310.54375 175.09337 
L 312.866202 92.515767 
L 315.314079 162.128857 
L 317.758831 161.501772 
L 320.243362 88.777917 
L 322.5628 178.115465 
L 324.899257 95.874688 
L 327.561823 126.499795 
L 329.941981 190.22815 
L 332.27118 137.122111 
L 334.610847 96.638969 
L 337.049422 160.256769 
L 339.656297 115.25389 
L 342.263077 192.046401 
L 344.701031 78.000031 
L 347.034124 137.982933 
L 349.521232 169.870687 
L 351.803275 126.463666 
L 354.138031 138.349807 
L 356.698893 105.593118 
L 359.069642 146.161923 
L 361.437215 145.482243 
L 363.838059 152.514302 
L 366.209174 146.240187 
L 368.497416 127.889907 
L 371.103612 115.11368 
L 373.471767 145.607046 
L 375.766201 129.306661 
L 378.491316 138.582623 
L 380.805196 176.975097 
L 383.530502 101.882642 
L 385.861462 137.511777 
L 388.575282 136.442045 
L 390.908357 137.978908 
L 393.239014 137.444678 
L 395.726985 170.038212 
L 398.333336 115.145789 
L 400.604049 167.92699 
L 403.270716 89.765874 
L 405.639007 145.636023 
L 408.008887 145.976079 
L 410.317977 132.63025 
L 412.651252 138.023159 
L 415.098436 161.990131 
L 417.697491 113.635897 
L 420.068482 188.4393 
L 422.438603 103.78679 
L 427.405141 137.211514 
L 429.725633 178.330987 
L 432.055558 137.28296 
L 434.468816 113.602424 
L 437.112212 122.682193 
L 439.481231 188.052633 
L 441.772234 84.822869 
L 444.478708 172.031378 
L 447.208181 102.724132 
L 449.535492 136.703664 
L 452.058709 176.783463 
L 454.583809 97.841374 
L 457.072412 170.160915 
L 459.326234 119.871636 
L 461.808613 168.950469 
L 464.012175 107.713485 
L 466.463209 162.761179 
L 468.914206 81.059523 
L 471.285293 146.234183 
L 473.607348 135.535286 
L 476.052625 161.607076 
L 478.264659 109.801937 
L 480.873038 192.328871 
L 483.313589 78.611716 
L 485.837552 176.92425 
L 488.091139 119.816033 
L 490.423263 137.768955 
L 493.016419 112.409402 
L 495.345536 137.103767 
L 498.071733 138.786736 
L 500.477804 153.601392 
L 502.835153 143.281559 
L 505.163126 136.850351 
L 507.773898 116.056463 
L 510.490567 136.983478 
L 515.151776 137.569594 
L 517.637393 169.580975 
L 519.929981 128.885223 
L 522.417146 169.881578 
L 524.904062 89.319027 
L 527.273883 145.963583 
L 529.644892 146.217459 
L 532.231021 110.940535 
L 534.721822 170.586836 
L 537.118254 151.593068 
L 539.487274 145.79222 
L 541.976815 89.913078 
L 544.656428 129.848758 
L 547.094252 160.105162 
L 549.698719 153.196859 
L 552.186265 129.708751 
L 554.480933 129.360002 
L 556.896563 155.57746 
L 559.339504 120.155432 
L 561.728108 149.950068 
L 564.063773 95.685727 
L 566.432297 145.686106 
L 569.057762 119.06085 
L 571.445942 149.860742 
L 573.77183 136.387753 
L 576.139604 187.808183 
L 578.435377 86.003167 
L 580.881429 161.762804 
L 583.422489 101.327914 
L 585.80845 149.393038 
L 588.131935 178.9424 
L 590.499407 145.460605 
L 592.988671 130.069861 
L 595.365019 147.355901 
L 597.56671 107.250286 
L 600.054098 169.925028 
L 602.343287 128.107187 
L 604.828874 129.296177 
L 607.541003 136.119955 
L 609.911697 103.91944 
L 612.398688 169.847918 
L 614.648108 118.828443 
L 617.104568 163.843882 
L 619.584714 87.780594 
L 622.238762 162.532311 
L 624.635872 109.969504 
L 627.073791 160.124152 
L 629.67785 114.672326 
L 632.283129 191.780984 
L 634.769808 89.265199 
L 637.053259 126.788346 
L 639.38267 137.168978 
L 641.718514 138.589472 
L 644.203561 169.469945 
L 646.577101 146.757873 
L 648.938285 144.109253 
L 651.4236 88.95582 
L 654.136889 136.340832 
L 656.465496 136.990975 
L 658.800372 138.376153 
L 661.360732 183.690707 
L 663.72797 145.410453 
L 666.117034 66.234778 
L 668.506331 150.095943 
L 670.832227 136.38948 
L 673.55051 137.289991 
L 675.880182 137.226724 
L 678.203151 178.837308 
L 680.54229 96.513418 
L 683.063393 176.384158 
L 685.578964 135.537486 
L 687.94663 103.217358 
L 690.57691 120.037972 
L 692.965037 149.849631 
L 695.293966 137.062288 
L 697.781156 169.886695 
L 700.060267 125.786376 
L 702.36431 131.49043 
L 704.849424 169.483033 
L 707.326993 87.19272 
L 709.778396 162.834873 
L 712.096841 134.729683 
L 714.463019 145.183032 
L 717.071194 115.521726 
L 719.362555 128.604547 
L 721.693068 137.412928 
L 724.345293 162.195243 
L 726.73872 109.133918 
L 729.451508 173.150848 
L 731.938408 129.572787 
L 734.443843 93.484622 
L 736.815166 146.284703 
L 739.167061 142.099539 
L 741.496099 137.086505 
L 743.815028 178.011289 
L 746.142382 136.713129 
L 748.872096 102.772654 
L 751.578489 172.017065 
L 753.921293 140.117557 
L 756.355011 118.136415 
L 758.962688 115.419048 
L 761.683911 137.84708 
L 764.115697 158.881491 
L 766.721298 153.414249 
L 769.440175 137.402515 
L 771.777143 95.996584 
L 771.777143 95.996584 
" clip-path="url(#p7691357c9f)" style="fill: none; stroke: #d62728; stroke-width: 1.5; stroke-linecap: square"/>
   </g>
   <g id="patch_3">
    <path d="M 71.22 652.92 
L 71.22 46.96 
" style="fill: none; stroke: #000000; stroke-width: 0.8; stroke-linejoin: miter; stroke-linecap: square"/>
   </g>
   <g id="patch_4">
    <path d="M 806.805 652.92 
L 806.805 46.96 
" style="fill: none; stroke: #000000; stroke-width: 0.8; stroke-linejoin: miter; stroke-linecap: square"/>
   </g>
   <g id="patch_5">
    <path d="M 71.22 652.92 
L 806.805 652.92 
" style="fill: none; stroke: #000000; stroke-width: 0.8; stroke-linejoin: miter; stroke-linecap: square"/>
   </g>
   <g id="patch_6">
    <path d="M 71.22 46.96 
L 806.805 46.96 
" style="fill: none; stroke: #000000; stroke-width: 0.8; stroke-linejoin: miter; stroke-linecap: square"/>
   </g>
   <g id="text_18">
    <!-- Packet Rates for Camera Flows -->
    <g transform="translate(309.161625 40.96) scale(0.168 -0.168)">
     <defs>
      <path id="DejaVuSans-52" d="M 2841 2188 
Q 3044 2119 3236 1894 
Q 3428 1669 3622 1275 
L 4263 0 
L 3584 0 
L 2988 1197 
Q 2756 1666 2539 1819 
Q 2322 1972 1947 1972 
L 1259 1972 
L 1259 0 
L 628 0 
L 628 4666 
L 2053 4666 
Q 2853 4666 3247 4331 
Q 3641 3997 3641 3322 
Q 3641 2881 3436 2590 
Q 3231 2300 2841 2188 
z
M 1259 4147 
L 1259 2491 
L 2053 2491 
Q 2509 2491 2742 2702 
Q 2975 2913 2975 3322 
Q 2975 3731 2742 3939 
Q 2509 4147 2053 4147 
L 1259 4147 
z
" transform="scale(0.015625)"/>
      <path id="DejaVuSans-66" d="M 2375 4863 
L 2375 4384 
L 1825 4384 
Q 1516 4384 1395 4259 
Q 1275 4134 1275 3809 
L 1275 3500 
L 2222 3500 
L 2222 3053 
L 1275 3053 
L 1275 0 
L 697 0 
L 697 3053 
L 147 3053 
L 147 3500 
L 697 3500 
L 697 3744 
Q 697 4328 969 4595 
Q 1241 4863 1831 4863 
L 2375 4863 
z
" transform="scale(0.015625)"/>
      <path id="DejaVuSans-43" d="M 4122 4306 
L 4122 3641 
Q 3803 3938 3442 4084 
Q 3081 4231 2675 4231 
Q 1875 4231 1450 3742 
Q 1025 3253 1025 2328 
Q 1025 1406 1450 917 
Q 1875 428 2675 428 
Q 3081 428 3442 575 
Q 3803 722 4122 1019 
L 4122 359 
Q 3791 134 3420 21 
Q 3050 -91 2638 -91 
Q 1578 -91 968 557 
Q 359 1206 359 2328 
Q 359 3453 968 4101 
Q 1578 4750 2638 4750 
Q 3056 4750 3426 4639 
Q 3797 4528 4122 4306 
z
" transform="scale(0.015625)"/>
      <path id="DejaVuSans-46" d="M 628 4666 
L 3309 4666 
L 3309 4134 
L 1259 4134 
L 1259 2759 
L 3109 2759 
L 3109 2228 
L 1259 2228 
L 1259 0 
L 628 0 
L 628 4666 
z
" transform="scale(0.015625)"/>
      <path id="DejaVuSans-6c" d="M 603 4863 
L 1178 4863 
L 1178 0 
L 603 0 
L 603 4863 
z
" transform="scale(0.015625)"/>
      <path id="DejaVuSans-77" d="M 269 3500 
L 844 3500 
L 1563 769 
L 2278 3500 
L 2956 3500 
L 3675 769 
L 4391 3500 
L 4966 3500 
L 4050 0 
L 3372 0 
L 2619 2869 
L 1863 0 
L 1184 0 
L 269 3500 
z
" transform="scale(0.015625)"/>
     </defs>
     <use xlink:href="#DejaVuSans-50"/>
     <use xlink:href="#DejaVuSans-61" x="55.802734"/>
     <use xlink:href="#DejaVuSans-63" x="117.082031"/>
     <use xlink:href="#DejaVuSans-6b" x="172.0625"/>
     <use xlink:href="#DejaVuSans-65" x="226.347656"/>
     <use xlink:href="#DejaVuSans-74" x="287.871094"/>
     <use xlink:href="#DejaVuSans-20" x="327.080078"/>
     <use xlink:href="#DejaVuSans-52" x="358.867188"/>
     <use xlink:href="#DejaVuSans-61" x="426.099609"/>
     <use xlink:href="#DejaVuSans-74" x="487.378906"/>
     <use xlink:href="#DejaVuSans-65" x="526.587891"/>
     <use xlink:href="#DejaVuSans-73" x="588.111328"/>
     <use xlink:href="#DejaVuSans-20" x="640.210938"/>
     <use xlink:href="#DejaVuSans-66" x="671.998047"/>
     <use xlink:href="#DejaVuSans-6f" x="707.203125"/>
     <use xlink:href="#DejaVuSans-72" x="768.384766"/>
     <use xlink:href="#DejaVuSans-20" x="809.498047"/>
     <use xlink:href="#DejaVuSans-43" x="841.285156"/>
     <use xlink:href="#DejaVuSans-61" x="911.109375"/>
     <use xlink:href="#DejaVuSans-6d" x="972.388672"/>
     <use xlink:href="#DejaVuSans-65" x="1069.800781"/>
     <use xlink:href="#DejaVuSans-72" x="1131.324219"/>
     <use xlink:href="#DejaVuSans-61" x="1172.4375"/>
     <use xlink:href="#DejaVuSans-20" x="1233.716797"/>
     <use xlink:href="#DejaVuSans-46" x="1265.503906"/>
     <use xlink:href="#DejaVuSans-6c" x="1323.023438"/>
     <use xlink:href="#DejaVuSans-6f" x="1350.806641"/>
     <use xlink:href="#DejaVuSans-77" x="1411.988281"/>
     <use xlink:href="#DejaVuSans-73" x="1493.775391"/>
    </g>
   </g>
   <g id="legend_1">
    <g id="patch_7">
     <path d="M 816.605 408.815687 
L 1110.594063 408.815687 
Q 1113.394063 408.815687 1113.394063 406.015687 
L 1113.394063 293.864312 
Q 1113.394063 291.064312 1110.594063 291.064312 
L 816.605 291.064312 
Q 813.805 291.064312 813.805 293.864312 
L 813.805 406.015687 
Q 813.805 408.815687 816.605 408.815687 
z
" style="fill: #ffffff; opacity: 0.8; stroke: #cccccc; stroke-linejoin: miter"/>
    </g>
    <g id="line2d_20">
     <path d="M 819.405 302.402125 
L 833.405 302.402125 
L 847.405 302.402125 
" style="fill: none; stroke: #1f77b4; stroke-width: 1.5; stroke-linecap: square"/>
    </g>
    <g id="text_19">
     <!-- Cam 1 (Mean Error Deviation: 1.96) -->
     <g transform="translate(858.605 307.302125) scale(0.14 -0.14)">
      <defs>
       <path id="DejaVuSans-4d" d="M 628 4666 
L 1569 4666 
L 2759 1491 
L 3956 4666 
L 4897 4666 
L 4897 0 
L 4281 0 
L 4281 4097 
L 3078 897 
L 2444 897 
L 1241 4097 
L 1241 0 
L 628 0 
L 628 4666 
z
" transform="scale(0.015625)"/>
       <path id="DejaVuSans-45" d="M 628 4666 
L 3578 4666 
L 3578 4134 
L 1259 4134 
L 1259 2753 
L 3481 2753 
L 3481 2222 
L 1259 2222 
L 1259 531 
L 3634 531 
L 3634 0 
L 628 0 
L 628 4666 
z
" transform="scale(0.015625)"/>
       <path id="DejaVuSans-44" d="M 1259 4147 
L 1259 519 
L 2022 519 
Q 2988 519 3436 956 
Q 3884 1394 3884 2338 
Q 3884 3275 3436 3711 
Q 2988 4147 2022 4147 
L 1259 4147 
z
M 628 4666 
L 1925 4666 
Q 3281 4666 3915 4102 
Q 4550 3538 4550 2338 
Q 4550 1131 3912 565 
Q 3275 0 1925 0 
L 628 0 
L 628 4666 
z
" transform="scale(0.015625)"/>
       <path id="DejaVuSans-76" d="M 191 3500 
L 800 3500 
L 1894 563 
L 2988 3500 
L 3597 3500 
L 2284 0 
L 1503 0 
L 191 3500 
z
" transform="scale(0.015625)"/>
       <path id="DejaVuSans-3a" d="M 750 794 
L 1409 794 
L 1409 0 
L 750 0 
L 750 794 
z
M 750 3309 
L 1409 3309 
L 1409 2516 
L 750 2516 
L 750 3309 
z
" transform="scale(0.015625)"/>
       <path id="DejaVuSans-2e" d="M 684 794 
L 1344 794 
L 1344 0 
L 684 0 
L 684 794 
z
" transform="scale(0.015625)"/>
       <path id="DejaVuSans-39" d="M 703 97 
L 703 672 
Q 941 559 1184 500 
Q 1428 441 1663 441 
Q 2288 441 2617 861 
Q 2947 1281 2994 2138 
Q 2813 1869 2534 1725 
Q 2256 1581 1919 1581 
Q 1219 1581 811 2004 
Q 403 2428 403 3163 
Q 403 3881 828 4315 
Q 1253 4750 1959 4750 
Q 2769 4750 3195 4129 
Q 3622 3509 3622 2328 
Q 3622 1225 3098 567 
Q 2575 -91 1691 -91 
Q 1453 -91 1209 -44 
Q 966 3 703 97 
z
M 1959 2075 
Q 2384 2075 2632 2365 
Q 2881 2656 2881 3163 
Q 2881 3666 2632 3958 
Q 2384 4250 1959 4250 
Q 1534 4250 1286 3958 
Q 1038 3666 1038 3163 
Q 1038 2656 1286 2365 
Q 1534 2075 1959 2075 
z
" transform="scale(0.015625)"/>
      </defs>
      <use xlink:href="#DejaVuSans-43"/>
      <use xlink:href="#DejaVuSans-61" x="69.824219"/>
      <use xlink:href="#DejaVuSans-6d" x="131.103516"/>
      <use xlink:href="#DejaVuSans-20" x="228.515625"/>
      <use xlink:href="#DejaVuSans-31" x="260.302734"/>
      <use xlink:href="#DejaVuSans-20" x="323.925781"/>
      <use xlink:href="#DejaVuSans-28" x="355.712891"/>
      <use xlink:href="#DejaVuSans-4d" x="394.726562"/>
      <use xlink:href="#DejaVuSans-65" x="481.005859"/>
      <use xlink:href="#DejaVuSans-61" x="542.529297"/>
      <use xlink:href="#DejaVuSans-6e" x="603.808594"/>
      <use xlink:href="#DejaVuSans-20" x="667.1875"/>
      <use xlink:href="#DejaVuSans-45" x="698.974609"/>
      <use xlink:href="#DejaVuSans-72" x="762.158203"/>
      <use xlink:href="#DejaVuSans-72" x="801.521484"/>
      <use xlink:href="#DejaVuSans-6f" x="840.384766"/>
      <use xlink:href="#DejaVuSans-72" x="901.566406"/>
      <use xlink:href="#DejaVuSans-20" x="942.679688"/>
      <use xlink:href="#DejaVuSans-44" x="974.466797"/>
      <use xlink:href="#DejaVuSans-65" x="1051.46875"/>
      <use xlink:href="#DejaVuSans-76" x="1112.992188"/>
      <use xlink:href="#DejaVuSans-69" x="1172.171875"/>
      <use xlink:href="#DejaVuSans-61" x="1199.955078"/>
      <use xlink:href="#DejaVuSans-74" x="1261.234375"/>
      <use xlink:href="#DejaVuSans-69" x="1300.443359"/>
      <use xlink:href="#DejaVuSans-6f" x="1328.226562"/>
      <use xlink:href="#DejaVuSans-6e" x="1389.408203"/>
      <use xlink:href="#DejaVuSans-3a" x="1452.787109"/>
      <use xlink:href="#DejaVuSans-20" x="1486.478516"/>
      <use xlink:href="#DejaVuSans-31" x="1518.265625"/>
      <use xlink:href="#DejaVuSans-2e" x="1581.888672"/>
      <use xlink:href="#DejaVuSans-39" x="1613.675781"/>
      <use xlink:href="#DejaVuSans-36" x="1677.298828"/>
      <use xlink:href="#DejaVuSans-29" x="1740.921875"/>
     </g>
    </g>
    <g id="line2d_21">
     <path d="M 819.405 322.9515 
L 833.405 322.9515 
L 847.405 322.9515 
" style="fill: none; stroke: #ff7f0e; stroke-width: 1.5; stroke-linecap: square"/>
    </g>
    <g id="text_20">
     <!-- Cam 2 (Mean Error Deviation: 2.06) -->
     <g transform="translate(858.605 327.8515) scale(0.14 -0.14)">
      <use xlink:href="#DejaVuSans-43"/>
      <use xlink:href="#DejaVuSans-61" x="69.824219"/>
      <use xlink:href="#DejaVuSans-6d" x="131.103516"/>
      <use xlink:href="#DejaVuSans-20" x="228.515625"/>
      <use xlink:href="#DejaVuSans-32" x="260.302734"/>
      <use xlink:href="#DejaVuSans-20" x="323.925781"/>
      <use xlink:href="#DejaVuSans-28" x="355.712891"/>
      <use xlink:href="#DejaVuSans-4d" x="394.726562"/>
      <use xlink:href="#DejaVuSans-65" x="481.005859"/>
      <use xlink:href="#DejaVuSans-61" x="542.529297"/>
      <use xlink:href="#DejaVuSans-6e" x="603.808594"/>
      <use xlink:href="#DejaVuSans-20" x="667.1875"/>
      <use xlink:href="#DejaVuSans-45" x="698.974609"/>
      <use xlink:href="#DejaVuSans-72" x="762.158203"/>
      <use xlink:href="#DejaVuSans-72" x="801.521484"/>
      <use xlink:href="#DejaVuSans-6f" x="840.384766"/>
      <use xlink:href="#DejaVuSans-72" x="901.566406"/>
      <use xlink:href="#DejaVuSans-20" x="942.679688"/>
      <use xlink:href="#DejaVuSans-44" x="974.466797"/>
      <use xlink:href="#DejaVuSans-65" x="1051.46875"/>
      <use xlink:href="#DejaVuSans-76" x="1112.992188"/>
      <use xlink:href="#DejaVuSans-69" x="1172.171875"/>
      <use xlink:href="#DejaVuSans-61" x="1199.955078"/>
      <use xlink:href="#DejaVuSans-74" x="1261.234375"/>
      <use xlink:href="#DejaVuSans-69" x="1300.443359"/>
      <use xlink:href="#DejaVuSans-6f" x="1328.226562"/>
      <use xlink:href="#DejaVuSans-6e" x="1389.408203"/>
      <use xlink:href="#DejaVuSans-3a" x="1452.787109"/>
      <use xlink:href="#DejaVuSans-20" x="1486.478516"/>
      <use xlink:href="#DejaVuSans-32" x="1518.265625"/>
      <use xlink:href="#DejaVuSans-2e" x="1581.888672"/>
      <use xlink:href="#DejaVuSans-30" x="1613.675781"/>
      <use xlink:href="#DejaVuSans-36" x="1677.298828"/>
      <use xlink:href="#DejaVuSans-29" x="1740.921875"/>
     </g>
    </g>
    <g id="line2d_22">
     <path d="M 819.405 352.795125 
L 833.405 352.795125 
L 847.405 352.795125 
" style="fill: none; stroke: #2ca02c; stroke-width: 1.5; stroke-linecap: square"/>
    </g>
    <g id="text_21">
     <!-- Cam 1 including packet reports -->
     <g transform="translate(858.605 348.400875) scale(0.14 -0.14)">
      <defs>
       <path id="DejaVuSans-75" d="M 544 1381 
L 544 3500 
L 1119 3500 
L 1119 1403 
Q 1119 906 1312 657 
Q 1506 409 1894 409 
Q 2359 409 2629 706 
Q 2900 1003 2900 1516 
L 2900 3500 
L 3475 3500 
L 3475 0 
L 2900 0 
L 2900 538 
Q 2691 219 2414 64 
Q 2138 -91 1772 -91 
Q 1169 -91 856 284 
Q 544 659 544 1381 
z
M 1991 3584 
L 1991 3584 
z
" transform="scale(0.015625)"/>
       <path id="DejaVuSans-67" d="M 2906 1791 
Q 2906 2416 2648 2759 
Q 2391 3103 1925 3103 
Q 1463 3103 1205 2759 
Q 947 2416 947 1791 
Q 947 1169 1205 825 
Q 1463 481 1925 481 
Q 2391 481 2648 825 
Q 2906 1169 2906 1791 
z
M 3481 434 
Q 3481 -459 3084 -895 
Q 2688 -1331 1869 -1331 
Q 1566 -1331 1297 -1286 
Q 1028 -1241 775 -1147 
L 775 -588 
Q 1028 -725 1275 -790 
Q 1522 -856 1778 -856 
Q 2344 -856 2625 -561 
Q 2906 -266 2906 331 
L 2906 616 
Q 2728 306 2450 153 
Q 2172 0 1784 0 
Q 1141 0 747 490 
Q 353 981 353 1791 
Q 353 2603 747 3093 
Q 1141 3584 1784 3584 
Q 2172 3584 2450 3431 
Q 2728 3278 2906 2969 
L 2906 3500 
L 3481 3500 
L 3481 434 
z
" transform="scale(0.015625)"/>
      </defs>
      <use xlink:href="#DejaVuSans-43"/>
      <use xlink:href="#DejaVuSans-61" x="69.824219"/>
      <use xlink:href="#DejaVuSans-6d" x="131.103516"/>
      <use xlink:href="#DejaVuSans-20" x="228.515625"/>
      <use xlink:href="#DejaVuSans-31" x="260.302734"/>
      <use xlink:href="#DejaVuSans-20" x="323.925781"/>
      <use xlink:href="#DejaVuSans-69" x="355.712891"/>
      <use xlink:href="#DejaVuSans-6e" x="383.496094"/>
      <use xlink:href="#DejaVuSans-63" x="446.875"/>
      <use xlink:href="#DejaVuSans-6c" x="501.855469"/>
      <use xlink:href="#DejaVuSans-75" x="529.638672"/>
      <use xlink:href="#DejaVuSans-64" x="593.017578"/>
      <use xlink:href="#DejaVuSans-69" x="656.494141"/>
      <use xlink:href="#DejaVuSans-6e" x="684.277344"/>
      <use xlink:href="#DejaVuSans-67" x="747.65625"/>
      <use xlink:href="#DejaVuSans-20" x="811.132812"/>
      <use xlink:href="#DejaVuSans-70" x="842.919922"/>
      <use xlink:href="#DejaVuSans-61" x="906.396484"/>
      <use xlink:href="#DejaVuSans-63" x="967.675781"/>
      <use xlink:href="#DejaVuSans-6b" x="1022.65625"/>
      <use xlink:href="#DejaVuSans-65" x="1076.941406"/>
      <use xlink:href="#DejaVuSans-74" x="1138.464844"/>
      <use xlink:href="#DejaVuSans-20" x="1177.673828"/>
      <use xlink:href="#DejaVuSans-72" x="1209.460938"/>
      <use xlink:href="#DejaVuSans-65" x="1248.324219"/>
      <use xlink:href="#DejaVuSans-70" x="1309.847656"/>
      <use xlink:href="#DejaVuSans-6f" x="1373.324219"/>
      <use xlink:href="#DejaVuSans-72" x="1434.505859"/>
      <use xlink:href="#DejaVuSans-74" x="1475.619141"/>
      <use xlink:href="#DejaVuSans-73" x="1514.828125"/>
     </g>
     <!--  (Mean Error Deviation: 2.43) -->
     <g transform="translate(858.605 364.077812) scale(0.14 -0.14)">
      <use xlink:href="#DejaVuSans-20"/>
      <use xlink:href="#DejaVuSans-28" x="31.787109"/>
      <use xlink:href="#DejaVuSans-4d" x="70.800781"/>
      <use xlink:href="#DejaVuSans-65" x="157.080078"/>
      <use xlink:href="#DejaVuSans-61" x="218.603516"/>
      <use xlink:href="#DejaVuSans-6e" x="279.882812"/>
      <use xlink:href="#DejaVuSans-20" x="343.261719"/>
      <use xlink:href="#DejaVuSans-45" x="375.048828"/>
      <use xlink:href="#DejaVuSans-72" x="438.232422"/>
      <use xlink:href="#DejaVuSans-72" x="477.595703"/>
      <use xlink:href="#DejaVuSans-6f" x="516.458984"/>
      <use xlink:href="#DejaVuSans-72" x="577.640625"/>
      <use xlink:href="#DejaVuSans-20" x="618.753906"/>
      <use xlink:href="#DejaVuSans-44" x="650.541016"/>
      <use xlink:href="#DejaVuSans-65" x="727.542969"/>
      <use xlink:href="#DejaVuSans-76" x="789.066406"/>
      <use xlink:href="#DejaVuSans-69" x="848.246094"/>
      <use xlink:href="#DejaVuSans-61" x="876.029297"/>
      <use xlink:href="#DejaVuSans-74" x="937.308594"/>
      <use xlink:href="#DejaVuSans-69" x="976.517578"/>
      <use xlink:href="#DejaVuSans-6f" x="1004.300781"/>
      <use xlink:href="#DejaVuSans-6e" x="1065.482422"/>
      <use xlink:href="#DejaVuSans-3a" x="1128.861328"/>
      <use xlink:href="#DejaVuSans-20" x="1162.552734"/>
      <use xlink:href="#DejaVuSans-32" x="1194.339844"/>
      <use xlink:href="#DejaVuSans-2e" x="1257.962891"/>
      <use xlink:href="#DejaVuSans-34" x="1289.75"/>
      <use xlink:href="#DejaVuSans-33" x="1353.373047"/>
      <use xlink:href="#DejaVuSans-29" x="1416.996094"/>
     </g>
    </g>
    <g id="line2d_23">
     <path d="M 819.405 389.021437 
L 833.405 389.021437 
L 847.405 389.021437 
" style="fill: none; stroke: #d62728; stroke-width: 1.5; stroke-linecap: square"/>
    </g>
    <g id="text_22">
     <!-- Cam 2 including packet reports -->
     <g transform="translate(858.605 384.627187) scale(0.14 -0.14)">
      <use xlink:href="#DejaVuSans-43"/>
      <use xlink:href="#DejaVuSans-61" x="69.824219"/>
      <use xlink:href="#DejaVuSans-6d" x="131.103516"/>
      <use xlink:href="#DejaVuSans-20" x="228.515625"/>
      <use xlink:href="#DejaVuSans-32" x="260.302734"/>
      <use xlink:href="#DejaVuSans-20" x="323.925781"/>
      <use xlink:href="#DejaVuSans-69" x="355.712891"/>
      <use xlink:href="#DejaVuSans-6e" x="383.496094"/>
      <use xlink:href="#DejaVuSans-63" x="446.875"/>
      <use xlink:href="#DejaVuSans-6c" x="501.855469"/>
      <use xlink:href="#DejaVuSans-75" x="529.638672"/>
      <use xlink:href="#DejaVuSans-64" x="593.017578"/>
      <use xlink:href="#DejaVuSans-69" x="656.494141"/>
      <use xlink:href="#DejaVuSans-6e" x="684.277344"/>
      <use xlink:href="#DejaVuSans-67" x="747.65625"/>
      <use xlink:href="#DejaVuSans-20" x="811.132812"/>
      <use xlink:href="#DejaVuSans-70" x="842.919922"/>
      <use xlink:href="#DejaVuSans-61" x="906.396484"/>
      <use xlink:href="#DejaVuSans-63" x="967.675781"/>
      <use xlink:href="#DejaVuSans-6b" x="1022.65625"/>
      <use xlink:href="#DejaVuSans-65" x="1076.941406"/>
      <use xlink:href="#DejaVuSans-74" x="1138.464844"/>
      <use xlink:href="#DejaVuSans-20" x="1177.673828"/>
      <use xlink:href="#DejaVuSans-72" x="1209.460938"/>
      <use xlink:href="#DejaVuSans-65" x="1248.324219"/>
      <use xlink:href="#DejaVuSans-70" x="1309.847656"/>
      <use xlink:href="#DejaVuSans-6f" x="1373.324219"/>
      <use xlink:href="#DejaVuSans-72" x="1434.505859"/>
      <use xlink:href="#DejaVuSans-74" x="1475.619141"/>
      <use xlink:href="#DejaVuSans-73" x="1514.828125"/>
     </g>
     <!--  (Mean Error Deviation: 2.50) -->
     <g transform="translate(858.605 400.304125) scale(0.14 -0.14)">
      <use xlink:href="#DejaVuSans-20"/>
      <use xlink:href="#DejaVuSans-28" x="31.787109"/>
      <use xlink:href="#DejaVuSans-4d" x="70.800781"/>
      <use xlink:href="#DejaVuSans-65" x="157.080078"/>
      <use xlink:href="#DejaVuSans-61" x="218.603516"/>
      <use xlink:href="#DejaVuSans-6e" x="279.882812"/>
      <use xlink:href="#DejaVuSans-20" x="343.261719"/>
      <use xlink:href="#DejaVuSans-45" x="375.048828"/>
      <use xlink:href="#DejaVuSans-72" x="438.232422"/>
      <use xlink:href="#DejaVuSans-72" x="477.595703"/>
      <use xlink:href="#DejaVuSans-6f" x="516.458984"/>
      <use xlink:href="#DejaVuSans-72" x="577.640625"/>
      <use xlink:href="#DejaVuSans-20" x="618.753906"/>
      <use xlink:href="#DejaVuSans-44" x="650.541016"/>
      <use xlink:href="#DejaVuSans-65" x="727.542969"/>
      <use xlink:href="#DejaVuSans-76" x="789.066406"/>
      <use xlink:href="#DejaVuSans-69" x="848.246094"/>
      <use xlink:href="#DejaVuSans-61" x="876.029297"/>
      <use xlink:href="#DejaVuSans-74" x="937.308594"/>
      <use xlink:href="#DejaVuSans-69" x="976.517578"/>
      <use xlink:href="#DejaVuSans-6f" x="1004.300781"/>
      <use xlink:href="#DejaVuSans-6e" x="1065.482422"/>
      <use xlink:href="#DejaVuSans-3a" x="1128.861328"/>
      <use xlink:href="#DejaVuSans-20" x="1162.552734"/>
      <use xlink:href="#DejaVuSans-32" x="1194.339844"/>
      <use xlink:href="#DejaVuSans-2e" x="1257.962891"/>
      <use xlink:href="#DejaVuSans-35" x="1289.75"/>
      <use xlink:href="#DejaVuSans-30" x="1353.373047"/>
      <use xlink:href="#DejaVuSans-29" x="1416.996094"/>
     </g>
    </g>
   </g>
  </g>
 </g>
 <defs>
  <clipPath id="p7691357c9f">
   <rect x="71.22" y="46.96" width="735.585" height="605.96"/>
  </clipPath>
 </defs>
</svg>
