<?xml version="1.0" encoding="utf-8" standalone="no"?>
<!DOCTYPE svg PUBLIC "-//W3C//DTD SVG 1.1//EN"
  "http://www.w3.org/Graphics/SVG/1.1/DTD/svg11.dtd">
<svg xmlns:xlink="http://www.w3.org/1999/xlink" width="1186.56pt" height="588.24pt" viewBox="0 0 1186.56 588.24" xmlns="http://www.w3.org/2000/svg" version="1.1">
 <metadata>
  <rdf:RDF xmlns:dc="http://purl.org/dc/elements/1.1/" xmlns:cc="http://creativecommons.org/ns#" xmlns:rdf="http://www.w3.org/1999/02/22-rdf-syntax-ns#">
   <cc:Work>
    <dc:type rdf:resource="http://purl.org/dc/dcmitype/StillImage"/>
    <dc:date>2023-04-14T13:06:37.385803</dc:date>
    <dc:format>image/svg+xml</dc:format>
    <dc:creator>
     <cc:Agent>
      <dc:title>Matplotlib v3.6.2, https://matplotlib.org/</dc:title>
     </cc:Agent>
    </dc:creator>
   </cc:Work>
  </rdf:RDF>
 </metadata>
 <defs>
  <style type="text/css">*{stroke-linejoin: round; stroke-linecap: butt}</style>
 </defs>
 <g id="figure_1">
  <g id="patch_1">
   <path d="M 0 588.24 
L 1186.56 588.24 
L 1186.56 0 
L 0 0 
z
" style="fill: #ffffff"/>
  </g>
  <g id="axes_1">
   <g id="patch_2">
    <path d="M 72.61088 536.37684 
L 885.00072 536.37684 
L 885.00072 38.36632 
L 72.61088 38.36632 
z
" style="fill: #ffffff"/>
   </g>
   <g id="matplotlib.axis_1">
    <g id="xtick_1">
     <g id="line2d_1">
      <defs>
       <path id="m6b402a313e" d="M 0 0 
L 0 3.5 
" style="stroke: #000000; stroke-width: 0.8"/>
      </defs>
      <g>
       <use xlink:href="#m6b402a313e" x="72.61088" y="536.37684" style="stroke: #000000; stroke-width: 0.8"/>
      </g>
     </g>
     <g id="text_1">
      <!-- 0 -->
      <g transform="translate(69.42963 550.975278) scale(0.1 -0.1)">
       <defs>
        <path id="DejaVuSans-30" d="M 2034 4250 
Q 1547 4250 1301 3770 
Q 1056 3291 1056 2328 
Q 1056 1369 1301 889 
Q 1547 409 2034 409 
Q 2525 409 2770 889 
Q 3016 1369 3016 2328 
Q 3016 3291 2770 3770 
Q 2525 4250 2034 4250 
z
M 2034 4750 
Q 2819 4750 3233 4129 
Q 3647 3509 3647 2328 
Q 3647 1150 3233 529 
Q 2819 -91 2034 -91 
Q 1250 -91 836 529 
Q 422 1150 422 2328 
Q 422 3509 836 4129 
Q 1250 4750 2034 4750 
z
" transform="scale(0.015625)"/>
       </defs>
       <use xlink:href="#DejaVuSans-30"/>
      </g>
     </g>
    </g>
    <g id="xtick_2">
     <g id="line2d_2">
      <g>
       <use xlink:href="#m6b402a313e" x="200.326459" y="536.37684" style="stroke: #000000; stroke-width: 0.8"/>
      </g>
     </g>
     <g id="text_2">
      <!-- 10 -->
      <g transform="translate(193.963959 550.975278) scale(0.1 -0.1)">
       <defs>
        <path id="DejaVuSans-31" d="M 794 531 
L 1825 531 
L 1825 4091 
L 703 3866 
L 703 4441 
L 1819 4666 
L 2450 4666 
L 2450 531 
L 3481 531 
L 3481 0 
L 794 0 
L 794 531 
z
" transform="scale(0.015625)"/>
       </defs>
       <use xlink:href="#DejaVuSans-31"/>
       <use xlink:href="#DejaVuSans-30" x="63.623047"/>
      </g>
     </g>
    </g>
    <g id="xtick_3">
     <g id="line2d_3">
      <g>
       <use xlink:href="#m6b402a313e" x="328.042037" y="536.37684" style="stroke: #000000; stroke-width: 0.8"/>
      </g>
     </g>
     <g id="text_3">
      <!-- 20 -->
      <g transform="translate(321.679537 550.975278) scale(0.1 -0.1)">
       <defs>
        <path id="DejaVuSans-32" d="M 1228 531 
L 3431 531 
L 3431 0 
L 469 0 
L 469 531 
Q 828 903 1448 1529 
Q 2069 2156 2228 2338 
Q 2531 2678 2651 2914 
Q 2772 3150 2772 3378 
Q 2772 3750 2511 3984 
Q 2250 4219 1831 4219 
Q 1534 4219 1204 4116 
Q 875 4013 500 3803 
L 500 4441 
Q 881 4594 1212 4672 
Q 1544 4750 1819 4750 
Q 2544 4750 2975 4387 
Q 3406 4025 3406 3419 
Q 3406 3131 3298 2873 
Q 3191 2616 2906 2266 
Q 2828 2175 2409 1742 
Q 1991 1309 1228 531 
z
" transform="scale(0.015625)"/>
       </defs>
       <use xlink:href="#DejaVuSans-32"/>
       <use xlink:href="#DejaVuSans-30" x="63.623047"/>
      </g>
     </g>
    </g>
    <g id="xtick_4">
     <g id="line2d_4">
      <g>
       <use xlink:href="#m6b402a313e" x="455.757616" y="536.37684" style="stroke: #000000; stroke-width: 0.8"/>
      </g>
     </g>
     <g id="text_4">
      <!-- 30 -->
      <g transform="translate(449.395116 550.975278) scale(0.1 -0.1)">
       <defs>
        <path id="DejaVuSans-33" d="M 2597 2516 
Q 3050 2419 3304 2112 
Q 3559 1806 3559 1356 
Q 3559 666 3084 287 
Q 2609 -91 1734 -91 
Q 1441 -91 1130 -33 
Q 819 25 488 141 
L 488 750 
Q 750 597 1062 519 
Q 1375 441 1716 441 
Q 2309 441 2620 675 
Q 2931 909 2931 1356 
Q 2931 1769 2642 2001 
Q 2353 2234 1838 2234 
L 1294 2234 
L 1294 2753 
L 1863 2753 
Q 2328 2753 2575 2939 
Q 2822 3125 2822 3475 
Q 2822 3834 2567 4026 
Q 2313 4219 1838 4219 
Q 1578 4219 1281 4162 
Q 984 4106 628 3988 
L 628 4550 
Q 988 4650 1302 4700 
Q 1616 4750 1894 4750 
Q 2613 4750 3031 4423 
Q 3450 4097 3450 3541 
Q 3450 3153 3228 2886 
Q 3006 2619 2597 2516 
z
" transform="scale(0.015625)"/>
       </defs>
       <use xlink:href="#DejaVuSans-33"/>
       <use xlink:href="#DejaVuSans-30" x="63.623047"/>
      </g>
     </g>
    </g>
    <g id="xtick_5">
     <g id="line2d_5">
      <g>
       <use xlink:href="#m6b402a313e" x="583.473195" y="536.37684" style="stroke: #000000; stroke-width: 0.8"/>
      </g>
     </g>
     <g id="text_5">
      <!-- 40 -->
      <g transform="translate(577.110695 550.975278) scale(0.1 -0.1)">
       <defs>
        <path id="DejaVuSans-34" d="M 2419 4116 
L 825 1625 
L 2419 1625 
L 2419 4116 
z
M 2253 4666 
L 3047 4666 
L 3047 1625 
L 3713 1625 
L 3713 1100 
L 3047 1100 
L 3047 0 
L 2419 0 
L 2419 1100 
L 313 1100 
L 313 1709 
L 2253 4666 
z
" transform="scale(0.015625)"/>
       </defs>
       <use xlink:href="#DejaVuSans-34"/>
       <use xlink:href="#DejaVuSans-30" x="63.623047"/>
      </g>
     </g>
    </g>
    <g id="xtick_6">
     <g id="line2d_6">
      <g>
       <use xlink:href="#m6b402a313e" x="711.188774" y="536.37684" style="stroke: #000000; stroke-width: 0.8"/>
      </g>
     </g>
     <g id="text_6">
      <!-- 50 -->
      <g transform="translate(704.826274 550.975278) scale(0.1 -0.1)">
       <defs>
        <path id="DejaVuSans-35" d="M 691 4666 
L 3169 4666 
L 3169 4134 
L 1269 4134 
L 1269 2991 
Q 1406 3038 1543 3061 
Q 1681 3084 1819 3084 
Q 2600 3084 3056 2656 
Q 3513 2228 3513 1497 
Q 3513 744 3044 326 
Q 2575 -91 1722 -91 
Q 1428 -91 1123 -41 
Q 819 9 494 109 
L 494 744 
Q 775 591 1075 516 
Q 1375 441 1709 441 
Q 2250 441 2565 725 
Q 2881 1009 2881 1497 
Q 2881 1984 2565 2268 
Q 2250 2553 1709 2553 
Q 1456 2553 1204 2497 
Q 953 2441 691 2322 
L 691 4666 
z
" transform="scale(0.015625)"/>
       </defs>
       <use xlink:href="#DejaVuSans-35"/>
       <use xlink:href="#DejaVuSans-30" x="63.623047"/>
      </g>
     </g>
    </g>
    <g id="xtick_7">
     <g id="line2d_7">
      <g>
       <use xlink:href="#m6b402a313e" x="838.904352" y="536.37684" style="stroke: #000000; stroke-width: 0.8"/>
      </g>
     </g>
     <g id="text_7">
      <!-- 60 -->
      <g transform="translate(832.541852 550.975278) scale(0.1 -0.1)">
       <defs>
        <path id="DejaVuSans-36" d="M 2113 2584 
Q 1688 2584 1439 2293 
Q 1191 2003 1191 1497 
Q 1191 994 1439 701 
Q 1688 409 2113 409 
Q 2538 409 2786 701 
Q 3034 994 3034 1497 
Q 3034 2003 2786 2293 
Q 2538 2584 2113 2584 
z
M 3366 4563 
L 3366 3988 
Q 3128 4100 2886 4159 
Q 2644 4219 2406 4219 
Q 1781 4219 1451 3797 
Q 1122 3375 1075 2522 
Q 1259 2794 1537 2939 
Q 1816 3084 2150 3084 
Q 2853 3084 3261 2657 
Q 3669 2231 3669 1497 
Q 3669 778 3244 343 
Q 2819 -91 2113 -91 
Q 1303 -91 875 529 
Q 447 1150 447 2328 
Q 447 3434 972 4092 
Q 1497 4750 2381 4750 
Q 2619 4750 2861 4703 
Q 3103 4656 3366 4563 
z
" transform="scale(0.015625)"/>
       </defs>
       <use xlink:href="#DejaVuSans-36"/>
       <use xlink:href="#DejaVuSans-30" x="63.623047"/>
      </g>
     </g>
    </g>
    <g id="text_8">
     <!-- Time (s) -->
     <g transform="translate(448.312441 568.452621) scale(0.15 -0.15)">
      <defs>
       <path id="DejaVuSans-54" d="M -19 4666 
L 3928 4666 
L 3928 4134 
L 2272 4134 
L 2272 0 
L 1638 0 
L 1638 4134 
L -19 4134 
L -19 4666 
z
" transform="scale(0.015625)"/>
       <path id="DejaVuSans-69" d="M 603 3500 
L 1178 3500 
L 1178 0 
L 603 0 
L 603 3500 
z
M 603 4863 
L 1178 4863 
L 1178 4134 
L 603 4134 
L 603 4863 
z
" transform="scale(0.015625)"/>
       <path id="DejaVuSans-6d" d="M 3328 2828 
Q 3544 3216 3844 3400 
Q 4144 3584 4550 3584 
Q 5097 3584 5394 3201 
Q 5691 2819 5691 2113 
L 5691 0 
L 5113 0 
L 5113 2094 
Q 5113 2597 4934 2840 
Q 4756 3084 4391 3084 
Q 3944 3084 3684 2787 
Q 3425 2491 3425 1978 
L 3425 0 
L 2847 0 
L 2847 2094 
Q 2847 2600 2669 2842 
Q 2491 3084 2119 3084 
Q 1678 3084 1418 2786 
Q 1159 2488 1159 1978 
L 1159 0 
L 581 0 
L 581 3500 
L 1159 3500 
L 1159 2956 
Q 1356 3278 1631 3431 
Q 1906 3584 2284 3584 
Q 2666 3584 2933 3390 
Q 3200 3197 3328 2828 
z
" transform="scale(0.015625)"/>
       <path id="DejaVuSans-65" d="M 3597 1894 
L 3597 1613 
L 953 1613 
Q 991 1019 1311 708 
Q 1631 397 2203 397 
Q 2534 397 2845 478 
Q 3156 559 3463 722 
L 3463 178 
Q 3153 47 2828 -22 
Q 2503 -91 2169 -91 
Q 1331 -91 842 396 
Q 353 884 353 1716 
Q 353 2575 817 3079 
Q 1281 3584 2069 3584 
Q 2775 3584 3186 3129 
Q 3597 2675 3597 1894 
z
M 3022 2063 
Q 3016 2534 2758 2815 
Q 2500 3097 2075 3097 
Q 1594 3097 1305 2825 
Q 1016 2553 972 2059 
L 3022 2063 
z
" transform="scale(0.015625)"/>
       <path id="DejaVuSans-20" transform="scale(0.015625)"/>
       <path id="DejaVuSans-28" d="M 1984 4856 
Q 1566 4138 1362 3434 
Q 1159 2731 1159 2009 
Q 1159 1288 1364 580 
Q 1569 -128 1984 -844 
L 1484 -844 
Q 1016 -109 783 600 
Q 550 1309 550 2009 
Q 550 2706 781 3412 
Q 1013 4119 1484 4856 
L 1984 4856 
z
" transform="scale(0.015625)"/>
       <path id="DejaVuSans-73" d="M 2834 3397 
L 2834 2853 
Q 2591 2978 2328 3040 
Q 2066 3103 1784 3103 
Q 1356 3103 1142 2972 
Q 928 2841 928 2578 
Q 928 2378 1081 2264 
Q 1234 2150 1697 2047 
L 1894 2003 
Q 2506 1872 2764 1633 
Q 3022 1394 3022 966 
Q 3022 478 2636 193 
Q 2250 -91 1575 -91 
Q 1294 -91 989 -36 
Q 684 19 347 128 
L 347 722 
Q 666 556 975 473 
Q 1284 391 1588 391 
Q 1994 391 2212 530 
Q 2431 669 2431 922 
Q 2431 1156 2273 1281 
Q 2116 1406 1581 1522 
L 1381 1569 
Q 847 1681 609 1914 
Q 372 2147 372 2553 
Q 372 3047 722 3315 
Q 1072 3584 1716 3584 
Q 2034 3584 2315 3537 
Q 2597 3491 2834 3397 
z
" transform="scale(0.015625)"/>
       <path id="DejaVuSans-29" d="M 513 4856 
L 1013 4856 
Q 1481 4119 1714 3412 
Q 1947 2706 1947 2009 
Q 1947 1309 1714 600 
Q 1481 -109 1013 -844 
L 513 -844 
Q 928 -128 1133 580 
Q 1338 1288 1338 2009 
Q 1338 2731 1133 3434 
Q 928 4138 513 4856 
z
" transform="scale(0.015625)"/>
      </defs>
      <use xlink:href="#DejaVuSans-54"/>
      <use xlink:href="#DejaVuSans-69" x="57.958984"/>
      <use xlink:href="#DejaVuSans-6d" x="85.742188"/>
      <use xlink:href="#DejaVuSans-65" x="183.154297"/>
      <use xlink:href="#DejaVuSans-20" x="244.677734"/>
      <use xlink:href="#DejaVuSans-28" x="276.464844"/>
      <use xlink:href="#DejaVuSans-73" x="315.478516"/>
      <use xlink:href="#DejaVuSans-29" x="367.578125"/>
     </g>
    </g>
   </g>
   <g id="matplotlib.axis_2">
    <g id="ytick_1">
     <g id="line2d_8">
      <defs>
       <path id="m17df2bd76c" d="M 0 0 
L -3.5 0 
" style="stroke: #000000; stroke-width: 0.8"/>
      </defs>
      <g>
       <use xlink:href="#m17df2bd76c" x="72.61088" y="536.37684" style="stroke: #000000; stroke-width: 0.8"/>
      </g>
     </g>
     <g id="text_9">
      <!-- 0 -->
      <g transform="translate(59.24838 540.176059) scale(0.1 -0.1)">
       <use xlink:href="#DejaVuSans-30"/>
      </g>
     </g>
    </g>
    <g id="ytick_2">
     <g id="line2d_9">
      <g>
       <use xlink:href="#m17df2bd76c" x="72.61088" y="472.410301" style="stroke: #000000; stroke-width: 0.8"/>
      </g>
     </g>
     <g id="text_10">
      <!-- 10 -->
      <g transform="translate(52.88588 476.20952) scale(0.1 -0.1)">
       <use xlink:href="#DejaVuSans-31"/>
       <use xlink:href="#DejaVuSans-30" x="63.623047"/>
      </g>
     </g>
    </g>
    <g id="ytick_3">
     <g id="line2d_10">
      <g>
       <use xlink:href="#m17df2bd76c" x="72.61088" y="408.443762" style="stroke: #000000; stroke-width: 0.8"/>
      </g>
     </g>
     <g id="text_11">
      <!-- 20 -->
      <g transform="translate(52.88588 412.242981) scale(0.1 -0.1)">
       <use xlink:href="#DejaVuSans-32"/>
       <use xlink:href="#DejaVuSans-30" x="63.623047"/>
      </g>
     </g>
    </g>
    <g id="ytick_4">
     <g id="line2d_11">
      <g>
       <use xlink:href="#m17df2bd76c" x="72.61088" y="344.477223" style="stroke: #000000; stroke-width: 0.8"/>
      </g>
     </g>
     <g id="text_12">
      <!-- 30 -->
      <g transform="translate(52.88588 348.276442) scale(0.1 -0.1)">
       <use xlink:href="#DejaVuSans-33"/>
       <use xlink:href="#DejaVuSans-30" x="63.623047"/>
      </g>
     </g>
    </g>
    <g id="ytick_5">
     <g id="line2d_12">
      <g>
       <use xlink:href="#m17df2bd76c" x="72.61088" y="280.510684" style="stroke: #000000; stroke-width: 0.8"/>
      </g>
     </g>
     <g id="text_13">
      <!-- 40 -->
      <g transform="translate(52.88588 284.309902) scale(0.1 -0.1)">
       <use xlink:href="#DejaVuSans-34"/>
       <use xlink:href="#DejaVuSans-30" x="63.623047"/>
      </g>
     </g>
    </g>
    <g id="ytick_6">
     <g id="line2d_13">
      <g>
       <use xlink:href="#m17df2bd76c" x="72.61088" y="216.544145" style="stroke: #000000; stroke-width: 0.8"/>
      </g>
     </g>
     <g id="text_14">
      <!-- 50 -->
      <g transform="translate(52.88588 220.343363) scale(0.1 -0.1)">
       <use xlink:href="#DejaVuSans-35"/>
       <use xlink:href="#DejaVuSans-30" x="63.623047"/>
      </g>
     </g>
    </g>
    <g id="ytick_7">
     <g id="line2d_14">
      <g>
       <use xlink:href="#m17df2bd76c" x="72.61088" y="152.577606" style="stroke: #000000; stroke-width: 0.8"/>
      </g>
     </g>
     <g id="text_15">
      <!-- 60 -->
      <g transform="translate(52.88588 156.376824) scale(0.1 -0.1)">
       <use xlink:href="#DejaVuSans-36"/>
       <use xlink:href="#DejaVuSans-30" x="63.623047"/>
      </g>
     </g>
    </g>
    <g id="ytick_8">
     <g id="line2d_15">
      <g>
       <use xlink:href="#m17df2bd76c" x="72.61088" y="88.611066" style="stroke: #000000; stroke-width: 0.8"/>
      </g>
     </g>
     <g id="text_16">
      <!-- 70 -->
      <g transform="translate(52.88588 92.410285) scale(0.1 -0.1)">
       <defs>
        <path id="DejaVuSans-37" d="M 525 4666 
L 3525 4666 
L 3525 4397 
L 1831 0 
L 1172 0 
L 2766 4134 
L 525 4134 
L 525 4666 
z
" transform="scale(0.015625)"/>
       </defs>
       <use xlink:href="#DejaVuSans-37"/>
       <use xlink:href="#DejaVuSans-30" x="63.623047"/>
      </g>
     </g>
    </g>
    <g id="text_17">
     <!-- Packets per Second -->
     <g transform="translate(45.766349 360.639549) rotate(-90) scale(0.15 -0.15)">
      <defs>
       <path id="DejaVuSans-50" d="M 1259 4147 
L 1259 2394 
L 2053 2394 
Q 2494 2394 2734 2622 
Q 2975 2850 2975 3272 
Q 2975 3691 2734 3919 
Q 2494 4147 2053 4147 
L 1259 4147 
z
M 628 4666 
L 2053 4666 
Q 2838 4666 3239 4311 
Q 3641 3956 3641 3272 
Q 3641 2581 3239 2228 
Q 2838 1875 2053 1875 
L 1259 1875 
L 1259 0 
L 628 0 
L 628 4666 
z
" transform="scale(0.015625)"/>
       <path id="DejaVuSans-61" d="M 2194 1759 
Q 1497 1759 1228 1600 
Q 959 1441 959 1056 
Q 959 750 1161 570 
Q 1363 391 1709 391 
Q 2188 391 2477 730 
Q 2766 1069 2766 1631 
L 2766 1759 
L 2194 1759 
z
M 3341 1997 
L 3341 0 
L 2766 0 
L 2766 531 
Q 2569 213 2275 61 
Q 1981 -91 1556 -91 
Q 1019 -91 701 211 
Q 384 513 384 1019 
Q 384 1609 779 1909 
Q 1175 2209 1959 2209 
L 2766 2209 
L 2766 2266 
Q 2766 2663 2505 2880 
Q 2244 3097 1772 3097 
Q 1472 3097 1187 3025 
Q 903 2953 641 2809 
L 641 3341 
Q 956 3463 1253 3523 
Q 1550 3584 1831 3584 
Q 2591 3584 2966 3190 
Q 3341 2797 3341 1997 
z
" transform="scale(0.015625)"/>
       <path id="DejaVuSans-63" d="M 3122 3366 
L 3122 2828 
Q 2878 2963 2633 3030 
Q 2388 3097 2138 3097 
Q 1578 3097 1268 2742 
Q 959 2388 959 1747 
Q 959 1106 1268 751 
Q 1578 397 2138 397 
Q 2388 397 2633 464 
Q 2878 531 3122 666 
L 3122 134 
Q 2881 22 2623 -34 
Q 2366 -91 2075 -91 
Q 1284 -91 818 406 
Q 353 903 353 1747 
Q 353 2603 823 3093 
Q 1294 3584 2113 3584 
Q 2378 3584 2631 3529 
Q 2884 3475 3122 3366 
z
" transform="scale(0.015625)"/>
       <path id="DejaVuSans-6b" d="M 581 4863 
L 1159 4863 
L 1159 1991 
L 2875 3500 
L 3609 3500 
L 1753 1863 
L 3688 0 
L 2938 0 
L 1159 1709 
L 1159 0 
L 581 0 
L 581 4863 
z
" transform="scale(0.015625)"/>
       <path id="DejaVuSans-74" d="M 1172 4494 
L 1172 3500 
L 2356 3500 
L 2356 3053 
L 1172 3053 
L 1172 1153 
Q 1172 725 1289 603 
Q 1406 481 1766 481 
L 2356 481 
L 2356 0 
L 1766 0 
Q 1100 0 847 248 
Q 594 497 594 1153 
L 594 3053 
L 172 3053 
L 172 3500 
L 594 3500 
L 594 4494 
L 1172 4494 
z
" transform="scale(0.015625)"/>
       <path id="DejaVuSans-70" d="M 1159 525 
L 1159 -1331 
L 581 -1331 
L 581 3500 
L 1159 3500 
L 1159 2969 
Q 1341 3281 1617 3432 
Q 1894 3584 2278 3584 
Q 2916 3584 3314 3078 
Q 3713 2572 3713 1747 
Q 3713 922 3314 415 
Q 2916 -91 2278 -91 
Q 1894 -91 1617 61 
Q 1341 213 1159 525 
z
M 3116 1747 
Q 3116 2381 2855 2742 
Q 2594 3103 2138 3103 
Q 1681 3103 1420 2742 
Q 1159 2381 1159 1747 
Q 1159 1113 1420 752 
Q 1681 391 2138 391 
Q 2594 391 2855 752 
Q 3116 1113 3116 1747 
z
" transform="scale(0.015625)"/>
       <path id="DejaVuSans-72" d="M 2631 2963 
Q 2534 3019 2420 3045 
Q 2306 3072 2169 3072 
Q 1681 3072 1420 2755 
Q 1159 2438 1159 1844 
L 1159 0 
L 581 0 
L 581 3500 
L 1159 3500 
L 1159 2956 
Q 1341 3275 1631 3429 
Q 1922 3584 2338 3584 
Q 2397 3584 2469 3576 
Q 2541 3569 2628 3553 
L 2631 2963 
z
" transform="scale(0.015625)"/>
       <path id="DejaVuSans-53" d="M 3425 4513 
L 3425 3897 
Q 3066 4069 2747 4153 
Q 2428 4238 2131 4238 
Q 1616 4238 1336 4038 
Q 1056 3838 1056 3469 
Q 1056 3159 1242 3001 
Q 1428 2844 1947 2747 
L 2328 2669 
Q 3034 2534 3370 2195 
Q 3706 1856 3706 1288 
Q 3706 609 3251 259 
Q 2797 -91 1919 -91 
Q 1588 -91 1214 -16 
Q 841 59 441 206 
L 441 856 
Q 825 641 1194 531 
Q 1563 422 1919 422 
Q 2459 422 2753 634 
Q 3047 847 3047 1241 
Q 3047 1584 2836 1778 
Q 2625 1972 2144 2069 
L 1759 2144 
Q 1053 2284 737 2584 
Q 422 2884 422 3419 
Q 422 4038 858 4394 
Q 1294 4750 2059 4750 
Q 2388 4750 2728 4690 
Q 3069 4631 3425 4513 
z
" transform="scale(0.015625)"/>
       <path id="DejaVuSans-6f" d="M 1959 3097 
Q 1497 3097 1228 2736 
Q 959 2375 959 1747 
Q 959 1119 1226 758 
Q 1494 397 1959 397 
Q 2419 397 2687 759 
Q 2956 1122 2956 1747 
Q 2956 2369 2687 2733 
Q 2419 3097 1959 3097 
z
M 1959 3584 
Q 2709 3584 3137 3096 
Q 3566 2609 3566 1747 
Q 3566 888 3137 398 
Q 2709 -91 1959 -91 
Q 1206 -91 779 398 
Q 353 888 353 1747 
Q 353 2609 779 3096 
Q 1206 3584 1959 3584 
z
" transform="scale(0.015625)"/>
       <path id="DejaVuSans-6e" d="M 3513 2113 
L 3513 0 
L 2938 0 
L 2938 2094 
Q 2938 2591 2744 2837 
Q 2550 3084 2163 3084 
Q 1697 3084 1428 2787 
Q 1159 2491 1159 1978 
L 1159 0 
L 581 0 
L 581 3500 
L 1159 3500 
L 1159 2956 
Q 1366 3272 1645 3428 
Q 1925 3584 2291 3584 
Q 2894 3584 3203 3211 
Q 3513 2838 3513 2113 
z
" transform="scale(0.015625)"/>
       <path id="DejaVuSans-64" d="M 2906 2969 
L 2906 4863 
L 3481 4863 
L 3481 0 
L 2906 0 
L 2906 525 
Q 2725 213 2448 61 
Q 2172 -91 1784 -91 
Q 1150 -91 751 415 
Q 353 922 353 1747 
Q 353 2572 751 3078 
Q 1150 3584 1784 3584 
Q 2172 3584 2448 3432 
Q 2725 3281 2906 2969 
z
M 947 1747 
Q 947 1113 1208 752 
Q 1469 391 1925 391 
Q 2381 391 2643 752 
Q 2906 1113 2906 1747 
Q 2906 2381 2643 2742 
Q 2381 3103 1925 3103 
Q 1469 3103 1208 2742 
Q 947 2381 947 1747 
z
" transform="scale(0.015625)"/>
      </defs>
      <use xlink:href="#DejaVuSans-50"/>
      <use xlink:href="#DejaVuSans-61" x="55.802734"/>
      <use xlink:href="#DejaVuSans-63" x="117.082031"/>
      <use xlink:href="#DejaVuSans-6b" x="172.0625"/>
      <use xlink:href="#DejaVuSans-65" x="226.347656"/>
      <use xlink:href="#DejaVuSans-74" x="287.871094"/>
      <use xlink:href="#DejaVuSans-73" x="327.080078"/>
      <use xlink:href="#DejaVuSans-20" x="379.179688"/>
      <use xlink:href="#DejaVuSans-70" x="410.966797"/>
      <use xlink:href="#DejaVuSans-65" x="474.443359"/>
      <use xlink:href="#DejaVuSans-72" x="535.966797"/>
      <use xlink:href="#DejaVuSans-20" x="577.080078"/>
      <use xlink:href="#DejaVuSans-53" x="608.867188"/>
      <use xlink:href="#DejaVuSans-65" x="672.34375"/>
      <use xlink:href="#DejaVuSans-63" x="733.867188"/>
      <use xlink:href="#DejaVuSans-6f" x="788.847656"/>
      <use xlink:href="#DejaVuSans-6e" x="850.029297"/>
      <use xlink:href="#DejaVuSans-64" x="913.408203"/>
     </g>
    </g>
   </g>
   <g id="line2d_16">
    <path d="M 72.61088 361.775668 
L 73.88537 408.176214 
L 75.390249 319.229121 
L 76.729226 353.337359 
L 78.145185 305.592536 
L 79.543698 361.129553 
L 80.97712 365.397426 
L 82.387647 362.622069 
L 83.961794 276.886442 
L 85.490313 376.03484 
L 86.925709 365.632527 
L 88.210576 282.046321 
L 89.604222 360.517428 
L 90.886947 408.999197 
L 92.283543 302.393036 
L 93.506638 335.995248 
L 94.845611 353.336714 
L 96.284294 309.238012 
L 97.813456 376.102256 
L 99.249611 365.722783 
L 100.748056 318.296846 
L 102.160197 362.82074 
L 103.499535 353.38667 
L 104.911016 362.739548 
L 106.315109 303.642179 
L 107.750413 365.621676 
L 109.16105 362.635656 
L 110.589098 307.546319 
L 112.011637 306.660206 
L 113.41209 419.707048 
L 114.912844 318.632456 
L 116.263011 294.346704 
L 117.65734 419.194721 
L 119.027368 297.855531 
L 120.503686 370.365341 
L 121.916372 362.887692 
L 123.415552 318.403695 
L 124.756213 353.567261 
L 126.167562 362.723343 
L 127.595355 307.505408 
L 129.023454 364.760056 
L 130.413413 360.051094 
L 131.689455 344.309713 
L 133.095192 303.914463 
L 134.536946 366.385507 
L 135.94269 303.915633 
L 137.217969 408.255454 
L 138.515911 347.550431 
L 140.007229 317.25466 
L 141.304897 284.555035 
L 142.68225 417.750451 
L 144.029344 354.440261 
L 145.31175 281.558065 
L 146.870455 379.140117 
L 148.298577 364.762802 
L 149.558742 341.889989 
L 151.131427 328.591352 
L 152.530632 361.216237 
L 154.101758 328.385209 
L 155.512218 362.613949 
L 156.809631 347.473439 
L 158.0664 341.364304 
L 159.631941 327.643325 
L 161.038028 303.972275 
L 162.320272 408.951434 
L 163.73261 305.000918 
L 165.099813 357.116269 
L 166.375793 344.300282 
L 167.715265 353.40505 
L 168.997288 345.205701 
L 170.411034 305.231458 
L 171.809539 361.128473 
L 173.181745 357.769702 
L 174.523491 353.715101 
L 175.937821 363.089378 
L 177.446622 265.647775 
L 178.777718 413.627979 
L 180.205874 307.563733 
L 181.467636 406.882949 
L 182.978431 266.005099 
L 184.407475 364.873584 
L 185.780687 357.900623 
L 187.003648 335.973389 
L 188.280428 344.420701 
L 189.781687 373.123402 
L 191.117577 352.914365 
L 192.470833 294.899163 
L 193.899878 364.873734 
L 195.219426 350.64223 
L 196.585015 356.90429 
L 197.92658 353.69053 
L 199.338549 362.799582 
L 200.635737 347.440681 
L 202.146773 320.113949 
L 203.530123 359.208617 
L 204.871036 353.601494 
L 206.283728 305.059069 
L 207.650074 357.003746 
L 208.991257 353.638309 
L 210.404348 362.937447 
L 211.810511 303.984909 
L 213.247207 365.786959 
L 214.525336 344.623358 
L 215.937146 362.780103 
L 217.36466 307.460679 
L 218.749228 359.364416 
L 220.150691 361.498405 
L 221.695384 324.826042 
L 223.036515 353.631374 
L 224.378549 353.754241 
L 225.724925 293.665353 
L 227.30401 329.433554 
L 228.835031 376.297004 
L 230.106643 343.640547 
L 231.54942 366.506068 
L 232.961055 362.758432 
L 234.232954 343.684157 
L 235.639113 303.984225 
L 236.915665 344.386413 
L 238.198985 345.399017 
L 239.583928 300.424195 
L 241.273809 391.34552 
L 242.615158 353.660989 
L 244.042074 364.617803 
L 245.595473 326.011774 
L 247.013322 305.900225 
L 248.407494 360.583829 
L 249.796064 301.040546 
L 251.127609 413.669399 
L 252.4972 357.428798 
L 253.810357 349.738269 
L 255.152009 292.810784 
L 256.660342 373.88898 
L 258.072163 362.781411 
L 259.574646 318.882882 
L 260.916107 353.676304 
L 262.327544 304.853298 
L 263.734813 362.219867 
L 265.118415 300.195459 
L 266.449655 413.641306 
L 267.825611 358.256488 
L 269.145545 288.80326 
L 270.573248 364.712471 
L 271.982608 362.478174 
L 273.324232 353.698521 
L 274.672744 354.63161 
L 276.019519 293.737095 
L 277.527853 319.726618 
L 279.160643 386.274443 
L 280.59989 366.089373 
L 282.198105 331.91063 
L 283.5398 353.70817 
L 284.887812 354.564137 
L 286.294594 304.087062 
L 287.570752 344.327186 
L 289.009152 365.98917 
L 290.436868 364.713994 
L 291.698248 342.07722 
L 293.270169 328.490525 
L 294.634646 356.757973 
L 296.062074 307.446995 
L 297.520823 368.366011 
L 298.870939 354.847426 
L 300.299 307.548453 
L 301.77805 370.671997 
L 303.194977 305.750265 
L 304.469032 344.01023 
L 305.979369 320.013953 
L 307.210033 403.6107 
L 308.58779 358.489366 
L 309.994226 362.116724 
L 311.502783 319.75861 
L 312.844308 353.685013 
L 314.262832 306.009911 
L 315.769803 319.530568 
L 317.108212 414.298789 
L 318.47749 357.387799 
L 319.665878 261.398472 
L 321.061908 419.337487 
L 322.645177 278.381331 
L 324.176216 376.298801 
L 325.448042 343.673054 
L 326.724685 344.400179 
L 328.168194 366.592133 
L 329.806521 336.916757 
L 331.14805 353.685511 
L 332.424813 344.418184 
L 333.901239 315.044349 
L 335.410332 373.970912 
L 336.810972 361.395605 
L 338.223636 305.054333 
L 339.625787 303.319965 
L 340.884291 341.633208 
L 342.313077 422.020659 
L 343.91799 332.764008 
L 345.324341 362.106199 
L 346.688407 296.812841 
L 348.008179 350.673842 
L 349.452062 366.63615 
L 350.739816 282.616501 
L 352.266588 375.851369 
L 353.650928 359.335322 
L 354.985866 352.783457 
L 356.413413 307.466106 
L 357.900639 371.582962 
L 359.178378 344.564775 
L 360.519492 353.62898 
L 362.222047 344.441283 
L 363.519841 347.528957 
L 364.912207 360.355781 
L 366.31848 304.003005 
L 367.756708 365.968702 
L 369.162721 303.960242 
L 370.534675 357.736843 
L 371.948616 363.04176 
L 373.290798 353.774308 
L 374.703175 362.849765 
L 376.115758 305.041079 
L 377.547414 365.18648 
L 378.959896 362.862607 
L 380.237414 344.531619 
L 381.649753 305.001161 
L 383.077737 364.74633 
L 384.365294 346.027468 
L 385.770983 362.024102 
L 387.273757 318.924951 
L 388.679725 303.952672 
L 390.023101 414.750119 
L 391.596275 328.65601 
L 393.015227 306.079513 
L 394.4433 364.756977 
L 395.815525 357.772106 
L 397.129913 349.913147 
L 398.536195 304.004516 
L 399.813289 408.437628 
L 401.322222 319.812601 
L 402.66436 353.768347 
L 404.076747 362.850934 
L 405.353837 344.467387 
L 406.766332 305.026701 
L 408.06358 347.449436 
L 409.321501 341.542962 
L 410.752036 365.052266 
L 412.093822 353.720532 
L 413.570054 315.015341 
L 414.867757 347.515663 
L 416.229732 356.428075 
L 417.634674 361.931362 
L 419.099934 313.357784 
L 420.543422 366.5897 
L 421.956143 362.891978 
L 423.239092 281.665996 
L 424.801489 379.511742 
L 426.08823 282.416529 
L 427.494412 362.085226 
L 428.76784 408.069336 
L 430.168306 303.039534 
L 431.557765 301.190983 
L 432.996463 422.808584 
L 434.301534 348.581911 
L 435.728424 307.360633 
L 437.081592 355.256948 
L 438.423447 353.729826 
L 439.700577 344.473461 
L 441.127665 364.63844 
L 442.680499 325.935219 
L 443.968283 282.622282 
L 445.498674 376.231085 
L 446.641775 393.440625 
L 448.048293 304.043578 
L 449.491784 366.59002 
L 450.797434 348.665188 
L 452.15155 355.383742 
L 453.459381 348.978274 
L 454.736415 344.458946 
L 456.163647 307.415418 
L 457.42732 342.429751 
L 458.79392 357.037162 
L 460.135297 353.664763 
L 461.848618 297.964932 
L 463.126133 344.531189 
L 464.52869 361.634704 
L 465.798847 407.738815 
L 467.205843 304.122614 
L 468.489273 345.415373 
L 469.78631 347.4187 
L 471.149772 296.706779 
L 472.481153 413.654259 
L 473.758539 344.511891 
L 475.056293 347.522975 
L 476.442534 359.578137 
L 477.812764 297.890553 
L 479.2929 370.793671 
L 480.571613 344.710831 
L 481.912199 292.61721 
L 483.196852 409.190302 
L 484.537313 353.53994 
L 485.964768 307.451348 
L 487.38855 364.23977 
L 488.665895 344.505547 
L 490.071788 362.049442 
L 491.498472 307.327575 
L 492.87933 358.888857 
L 494.193374 349.864289 
L 495.620741 364.672107 
L 496.942485 289.142072 
L 498.386787 366.685466 
L 499.728797 353.750909 
L 501.141042 362.833592 
L 502.418312 344.494398 
L 503.845125 307.348249 
L 505.272545 364.678441 
L 506.539757 342.971374 
L 507.837012 347.450381 
L 509.094439 341.466351 
L 510.511415 305.75828 
L 511.790267 344.731802 
L 513.287058 372.636035 
L 514.604693 350.372713 
L 515.905884 348.021903 
L 517.609197 344.526622 
L 519.015944 304.081352 
L 520.299675 409.099027 
L 521.802113 318.876385 
L 523.079319 344.484789 
L 524.513367 365.472032 
L 525.710621 263.434837 
L 526.975382 407.189987 
L 528.329439 295.042146 
L 529.890976 379.425209 
L 531.232694 353.711281 
L 532.509868 344.479986 
L 533.787476 344.54511 
L 535.064706 344.488402 
L 536.703058 336.919697 
L 538.044715 353.70303 
L 539.52319 315.351109 
L 541.029257 373.644559 
L 542.663612 336.432013 
L 544.005044 353.672229 
L 545.282275 344.488609 
L 546.985436 344.509515 
L 548.699215 298.028522 
L 550.225259 375.774889 
L 551.502555 344.498251 
L 552.888003 359.476888 
L 554.193302 348.61477 
L 555.501996 349.101796 
L 556.77734 344.204628 
L 558.416602 337.030407 
L 559.693587 344.451549 
L 560.970686 344.468729 
L 562.31213 353.673906 
L 563.58999 344.582947 
L 564.866924 344.443886 
L 566.272906 303.955121 
L 567.847216 380.698612 
L 569.129893 345.303207 
L 570.401842 343.691777 
L 571.808244 304.024406 
L 573.085197 344.446729 
L 574.604871 321.343285 
L 576.001573 419.393778 
L 577.343129 292.793268 
L 578.63209 346.234722 
L 580.033387 361.477713 
L 581.317022 345.445823 
L 582.596758 344.864126 
L 584.026327 364.936527 
L 585.303762 344.519226 
L 586.709889 303.978868 
L 587.987501 408.489525 
L 589.399697 304.977716 
L 590.842975 366.564892 
L 592.248932 362.057452 
L 593.546549 284.545146 
L 595.095436 378.143446 
L 596.372478 344.460144 
L 598.92694 344.514872 
L 600.333739 304.089966 
L 601.622597 346.21965 
L 602.894937 407.95946 
L 604.472747 277.488911 
L 605.879454 362.150216 
L 607.276974 361.005053 
L 608.661623 359.374746 
L 609.997202 352.871604 
L 611.366996 357.4553 
L 612.693275 289.987545 
L 614.035851 353.827961 
L 615.531746 372.538022 
L 616.808907 344.477908 
L 618.086167 344.493013 
L 619.790394 344.629532 
L 621.201717 362.72003 
L 622.473512 343.668433 
L 623.880806 304.171555 
L 625.295046 363.078364 
L 626.564632 278.985089 
L 627.907398 414.694835 
L 629.299259 301.596923 
L 630.858696 379.213876 
L 632.201134 292.953395 
L 633.549571 415.206575 
L 635.11838 328.0781 
L 636.523794 361.989989 
L 637.807697 345.485742 
L 639.320851 266.426618 
L 640.744949 421.644264 
L 642.064775 350.681336 
L 643.63269 327.959366 
L 644.987056 295.097242 
L 646.323408 414.110786 
L 647.729736 304.012149 
L 649.142854 362.940767 
L 650.445401 348.21801 
L 651.729448 345.506996 
L 653.129392 302.952535 
L 654.537053 362.268458 
L 655.690896 394.771367 
L 657.258185 327.876101 
L 658.53574 344.537088 
L 659.813594 344.58214 
L 661.183634 357.487371 
L 662.439813 341.272704 
L 663.781262 353.674671 
L 665.181879 303.064617 
L 666.472403 346.465065 
L 667.871896 361.252167 
L 669.12592 275.791079 
L 670.52253 360.890677 
L 671.874382 415.5127 
L 673.439449 327.579978 
L 676.128971 362.906572 
L 677.696602 327.921603 
L 679.068566 357.73821 
L 680.380739 349.598418 
L 681.670005 282.913953 
L 683.077739 362.277446 
L 684.509169 365.15941 
L 685.786871 344.5593 
L 687.135189 354.605324 
L 688.536135 303.119595 
L 690.051598 374.653536 
L 691.456521 361.928975 
L 692.735839 280.943215 
L 694.250152 320.582015 
L 695.579924 413.505779 
L 696.994488 363.117967 
L 698.276479 281.475691 
L 699.68422 362.278269 
L 701.116954 365.315373 
L 702.532959 305.600047 
L 703.869794 353.044089 
L 705.089345 335.412842 
L 706.356019 407.385109 
L 707.784229 307.572374 
L 709.20598 363.993811 
L 710.576547 357.556205 
L 711.954942 299.30324 
L 713.399266 366.688027 
L 714.715634 288.132423 
L 716.111373 419.313095 
L 717.431474 350.719979 
L 719.000521 328.109777 
L 720.406286 362.033501 
L 721.683685 280.559361 
L 722.96745 409.10248 
L 724.504406 323.76106 
L 725.811692 348.900209 
L 727.089216 344.532405 
L 728.366447 344.488598 
L 729.671907 348.637868 
L 731.283321 333.585377 
L 732.624387 353.622539 
L 733.966589 353.777064 
L 735.320747 295.060113 
L 736.882729 379.469956 
L 738.259141 298.961907 
L 739.573961 412.108454 
L 741.00138 307.445582 
L 742.264354 342.322329 
L 743.541277 344.442321 
L 744.819048 344.569505 
L 746.187237 357.24539 
L 747.490754 285.685106 
L 748.804948 412.049374 
L 750.282005 315.138867 
L 751.496021 401.790103 
L 752.837517 292.782497 
L 754.276272 366.031126 
L 755.61792 353.701679 
L 756.915177 347.450835 
L 758.250484 291.653371 
L 759.886608 336.64814 
L 761.153731 407.430747 
L 762.566441 362.890667 
L 763.967493 303.137183 
L 765.256954 346.308559 
L 766.68402 307.388774 
L 767.930444 405.289434 
L 769.243912 349.782548 
L 770.88279 336.983778 
L 772.224396 353.695893 
L 773.637437 362.931296 
L 775.064932 307.457789 
L 776.482524 363.487989 
L 777.760321 344.573606 
L 779.166854 362.128772 
L 780.740632 328.7357 
L 782.153567 362.918232 
L 783.721069 327.904517 
L 784.998857 344.572043 
L 786.286631 282.620586 
L 787.68315 419.378377 
L 789.256747 328.711896 
L 790.534291 344.535581 
L 791.832393 347.573696 
L 793.095377 342.324048 
L 794.495477 361.328115 
L 795.773177 344.558862 
L 797.050429 344.491777 
L 798.421721 298.07533 
L 799.612662 399.182378 
L 801.114411 318.776587 
L 802.457113 353.845159 
L 803.80496 354.54186 
L 805.08281 344.581454 
L 806.721856 337.004167 
L 808.228487 319.481775 
L 809.639871 304.844503 
L 810.972309 413.75166 
L 812.251418 344.770203 
L 813.952941 344.324875 
L 815.230381 344.519909 
L 819.062544 344.552165 
L 820.404666 353.766237 
L 821.702644 347.555719 
L 823.038536 291.760496 
L 824.436971 361.119726 
L 825.714477 344.529862 
L 827.15293 365.995346 
L 828.431211 344.646231 
L 829.847479 305.642896 
L 831.114909 407.462102 
L 832.412282 347.467575 
L 833.911197 263.862365 
L 835.243223 413.713658 
L 838.077055 307.39493 
L 839.500737 364.227529 
L 840.919427 306.037021 
L 842.197006 344.540726 
L 843.769386 328.551152 
L 845.041657 407.952561 
L 846.315127 343.921936 
L 846.315127 343.921936 
" clip-path="url(#pd4144d7d99)" style="fill: none; stroke: #1f77b4; stroke-width: 1.5; stroke-linecap: square"/>
   </g>
   <g id="line2d_17">
    <path d="M 72.61088 344.813511 
L 885.00072 344.813511 
" clip-path="url(#pd4144d7d99)" style="fill: none; stroke-dasharray: 5.55,2.4; stroke-dashoffset: 0; stroke: #0000ff; stroke-width: 1.5"/>
   </g>
   <g id="line2d_18">
    <path d="M 72.61088 187.163487 
L 73.885399 151.783698 
L 75.390252 156.361885 
L 76.729253 170.304292 
L 78.145177 132.494604 
L 79.543749 185.896851 
L 80.977152 137.419382 
L 82.387686 130.951327 
L 83.961826 121.19004 
L 85.490319 215.687573 
L 86.925707 137.971146 
L 88.210571 91.29753 
L 89.604227 184.660566 
L 90.886937 154.23949 
L 92.283537 185.402084 
L 93.50664 135.616105 
L 94.845654 170.307954 
L 96.28429 82.084146 
L 97.813455 215.828352 
L 99.249677 138.202746 
L 100.748134 154.739765 
L 102.160216 131.395689 
L 103.499584 170.404611 
L 104.911033 131.213967 
L 106.315122 187.274227 
L 107.750428 137.948358 
L 109.161062 130.979793 
L 110.589104 193.129858 
L 112.011655 76.947284 
L 113.412103 186.366236 
L 114.912859 155.324482 
L 116.263016 112.821234 
L 117.657355 184.832875 
L 119.027376 178.592936 
L 120.503698 149.017813 
L 121.916387 131.569914 
L 123.415556 154.921097 
L 124.756225 170.759556 
L 126.167677 131.215133 
L 127.595375 193.046791 
L 129.023464 135.935103 
L 130.413452 124.958208 
L 131.689458 152.232006 
L 133.095232 187.692307 
L 134.536969 139.725702 
L 135.942744 129.578724 
L 137.217977 151.998971 
L 138.515931 158.727567 
L 140.007251 98.132941 
L 141.304982 158.662657 
L 142.682275 180.481973 
L 144.029374 172.50512 
L 145.311855 154.17128 
L 146.870477 169.471527 
L 148.298602 135.944983 
L 149.558827 147.421379 
L 151.131446 120.788598 
L 152.530653 186.055932 
L 154.101844 172.40678 
L 155.512233 130.909475 
L 156.809651 158.571443 
L 158.06648 146.370368 
L 159.631965 171.080047 
L 161.038062 129.671955 
L 162.320352 154.11435 
L 163.732631 189.298516 
L 165.099831 118.101162 
L 166.375886 152.246381 
L 167.715279 170.41159 
L 168.997314 90.315249 
L 170.411052 189.656716 
L 171.809562 185.88127 
L 173.181762 119.625032 
L 174.523517 171.055737 
L 175.937956 132.070734 
L 177.446656 103.181452 
L 178.777737 229.501263 
L 180.2059 135.955797 
L 181.467738 147.918522 
L 182.978459 103.760829 
L 184.407812 193.444533 
L 185.780745 179.351905 
L 187.003696 135.566464 
L 188.280487 152.467719 
L 189.781715 101.025519 
L 191.117631 230.611883 
L 192.470864 113.784132 
L 193.899905 193.369457 
L 195.219485 164.916633 
L 196.585036 117.5961 
L 197.926639 171.014387 
L 199.338613 131.364571 
L 200.635772 158.496057 
L 202.146829 157.922292 
L 203.530282 123.014942 
L 204.871091 170.797934 
L 206.283767 189.395962 
L 207.650136 117.846847 
L 208.991289 170.891673 
L 210.404376 131.683761 
L 211.810572 187.797105 
L 213.247238 138.325615 
L 214.525365 152.869252 
L 215.937187 131.320957 
L 217.364725 193.008537 
L 218.749274 123.342097 
L 220.150858 128.362322 
L 221.695463 166.142079 
L 223.036545 170.872258 
L 224.378628 110.273236 
L 225.724991 172.305948 
L 227.304051 122.483948 
L 228.835072 216.216912 
L 230.10671 150.912395 
L 231.549463 140.004933 
L 232.961086 131.264117 
L 234.233037 151.006872 
L 235.63915 187.776563 
L 236.915817 152.430881 
L 238.199052 154.395831 
L 239.583973 64.463956 
L 241.273846 197.968761 
L 242.615243 170.958214 
L 244.042116 135.593689 
L 245.595524 168.240067 
L 247.013415 133.054742 
L 248.40757 184.786685 
L 249.79611 65.693798 
L 251.127683 229.614814 
L 252.497246 118.822657 
L 253.810399 163.098595 
L 255.152053 171.028198 
L 256.660385 157.238387 
L 258.07221 131.322038 
L 259.574688 155.761122 
L 260.916158 170.978089 
L 262.32758 131.206495 
L 263.734862 188.065982 
L 265.118453 64.010669 
L 266.449705 229.540637 
L 267.825655 120.761004 
L 269.145591 165.016958 
L 270.573307 193.051136 
L 271.982658 130.610996 
L 273.324285 110.128038 
L 274.67279 172.884408 
L 276.019577 172.420722 
L 277.527899 103.072852 
L 279.160705 136.107699 
L 280.599939 195.798783 
L 282.19816 178.562514 
L 283.539928 110.172761 
L 284.88786 172.729894 
L 286.29465 187.944369 
L 287.570794 152.273238 
L 289.009206 138.808848 
L 290.436916 135.828545 
L 291.698298 147.778336 
L 293.270217 120.603531 
L 294.634696 177.139779 
L 296.062205 193.001456 
L 297.520884 144.332559 
L 298.870992 112.80584 
L 300.299053 193.13434 
L 301.778104 149.732333 
L 303.195027 132.77942 
L 304.469097 151.647958 
L 305.979424 103.648147 
L 307.210092 204.462633 
L 308.587934 180.623851 
L 309.994285 129.745314 
L 311.502835 157.293291 
L 312.844368 170.995194 
L 314.262881 133.231811 
L 315.769861 102.687041 
L 317.108258 170.139132 
L 318.477552 178.402868 
L 319.665937 123.908463 
L 321.061965 185.258069 
L 322.645289 123.598717 
L 324.176287 216.212059 
L 325.448107 150.967392 
L 326.72474 152.420633 
L 328.168251 140.213097 
L 329.806577 137.456169 
L 331.148112 170.995938 
L 332.424867 152.457212 
L 333.901301 149.047195 
L 335.410433 103.305486 
L 336.811037 186.405337 
L 338.223696 189.391862 
L 339.625848 70.263357 
L 340.884346 146.88758 
L 342.313146 193.311754 
L 343.918058 180.054168 
L 345.324401 129.742939 
L 346.688481 177.034812 
L 348.008291 164.981382 
L 349.452138 140.305221 
L 350.739883 92.293006 
L 352.266658 215.326629 
L 353.650985 64.261823 
L 354.985931 230.389822 
L 356.413471 135.780852 
L 357.900704 151.859643 
L 359.178444 152.752979 
L 360.519594 170.891091 
L 362.222116 152.498136 
L 363.519903 95.729474 
L 364.912279 184.337161 
L 366.318541 187.813523 
L 367.756778 138.760262 
L 369.162783 129.645334 
L 370.534747 179.099785 
L 371.949097 132.044853 
L 373.290886 171.065223 
L 374.70331 131.493559 
L 376.115833 189.358412 
L 377.547483 136.931142 
L 378.960095 131.547651 
L 380.237501 152.652647 
L 381.649885 189.324418 
L 383.077812 135.889523 
L 384.365365 92.22686 
L 385.771061 187.673106 
L 387.273824 155.833409 
L 388.679808 129.639068 
L 390.023606 171.611242 
L 391.596604 172.824693 
L 393.015382 133.306983 
L 394.443373 193.117526 
L 395.8156 60.098413 
L 397.13006 225.620997 
L 398.536279 129.707009 
L 399.813362 152.555927 
L 401.32238 157.410788 
L 402.664434 171.136949 
L 404.076827 131.484838 
L 405.353985 152.578262 
L 406.766411 189.334771 
L 408.063652 158.51992 
L 409.321655 146.734427 
L 410.752114 136.598328 
L 412.093906 110.180647 
L 413.570257 204.361428 
L 414.867842 158.620119 
L 416.23027 56.673094 
L 417.634758 187.373018 
L 419.100023 201.849408 
L 420.543633 140.240372 
L 421.956421 131.598074 
L 423.23917 154.251125 
L 424.801667 170.381333 
L 426.088313 91.913871 
L 427.494627 187.826413 
L 428.767918 151.412658 
L 430.16848 186.39493 
L 431.557842 65.972533 
L 432.996681 195.705343 
L 434.301616 160.747705 
L 435.728602 192.875736 
L 437.081681 113.735696 
L 438.423663 171.117463 
L 439.700665 152.531437 
L 441.127847 135.680687 
L 442.680588 168.081712 
L 443.968498 92.350091 
L 445.498772 216.06074 
L 446.641857 107.562451 
L 448.048387 187.879852 
L 450.797533 98.38218 
L 452.151638 174.38779 
L 453.459482 161.5832 
L 454.736501 152.536654 
L 456.163743 192.937092 
L 457.427406 148.479658 
L 458.794015 117.920306 
L 460.135387 170.951293 
L 461.848715 107.237175 
L 463.126226 152.684376 
L 464.528914 186.925232 
L 465.798937 150.422056 
L 467.205945 187.998332 
L 468.489846 154.594037 
L 469.786405 158.321145 
L 471.149862 57.035227 
L 472.481254 229.572882 
L 473.758632 152.644551 
L 475.056393 95.720224 
L 476.442636 182.779914 
L 477.812852 178.643949 
L 479.293176 150.064835 
L 480.571707 152.990451 
L 481.912303 109.80067 
L 483.196946 154.814276 
L 484.53741 170.703893 
L 485.964855 192.986254 
L 487.388654 77.349994 
L 488.665996 152.633513 
L 490.072025 187.755703 
L 491.498569 192.769291 
L 492.879438 122.241472 
L 494.193467 163.347496 
L 495.620843 135.73485 
L 496.942577 165.521961 
L 498.386893 140.434099 
L 499.728894 171.122535 
L 501.141154 131.446893 
L 502.418418 152.610034 
L 503.845234 192.834631 
L 505.272661 135.749174 
L 506.539868 149.564644 
L 507.837122 158.523747 
L 510.511523 132.797241 
L 511.790367 153.084203 
L 513.287172 154.318581 
L 514.604799 164.366318 
L 515.905992 159.667553 
L 517.609301 152.675541 
L 519.016063 129.864083 
L 520.299783 154.540006 
L 521.802226 155.752302 
L 523.079425 152.590731 
L 524.513476 137.599609 
L 525.710728 126.963097 
L 526.975494 213.411102 
L 528.329546 114.039611 
L 529.891086 170.157276 
L 531.232807 171.046428 
L 532.509977 152.581735 
L 533.787583 152.712885 
L 535.064823 152.602996 
L 536.703173 137.462031 
L 538.044818 171.025861 
L 539.523307 149.585459 
L 541.029615 156.729042 
L 542.663736 136.429882 
L 544.005334 171.013034 
L 545.28321 152.793674 
L 546.985772 152.507279 
L 548.699796 107.411237 
L 550.225379 215.075963 
L 551.502693 152.625141 
L 552.888195 64.661829 
L 554.193426 160.833053 
L 555.502116 224.250899 
L 556.777523 152.051272 
L 558.417274 137.802929 
L 559.693809 152.390931 
L 560.970813 152.532066 
L 562.312244 170.967652 
L 563.590111 152.791167 
L 564.867044 152.510483 
L 566.273026 129.638813 
L 567.847345 173.129718 
L 569.130136 90.578131 
L 570.40266 215.380079 
L 571.808603 129.627311 
L 573.085874 152.612133 
L 574.604991 106.151975 
L 576.001706 185.430885 
L 578.632214 156.073427 
L 580.03351 186.578418 
L 581.317214 154.535322 
L 582.597449 153.500567 
L 584.02658 136.226893 
L 585.303881 152.621407 
L 586.710027 129.685896 
L 587.987622 152.709545 
L 589.399825 189.27984 
L 590.843096 83.542979 
L 592.249074 187.743092 
L 593.546672 158.624105 
L 595.095705 167.200131 
L 596.372756 152.546247 
L 597.650233 152.67403 
L 598.92706 152.478928 
L 600.33387 129.877907 
L 601.622795 156.082169 
L 602.89508 151.108094 
L 604.472895 122.157404 
L 605.879662 187.938548 
L 607.277254 185.651256 
L 608.662471 64.56489 
L 609.997882 230.496249 
L 611.367129 118.72634 
L 612.693407 166.792624 
L 614.035973 171.276469 
L 615.531883 154.09006 
L 616.809035 152.576615 
L 618.086301 152.610686 
L 619.790675 152.915266 
L 621.202588 131.347176 
L 622.473945 150.827036 
L 623.881459 188.123418 
L 625.295188 131.867664 
L 626.56477 85.939804 
L 627.907617 171.352741 
L 629.299398 184.186718 
L 630.858837 169.663888 
L 632.201333 110.404153 
L 633.550364 173.026192 
L 635.118687 171.740974 
L 636.523941 129.427902 
L 637.807827 154.589537 
L 639.320991 104.459289 
L 640.745084 192.178005 
L 642.064923 164.989288 
L 643.632837 171.646065 
L 644.987357 114.185425 
L 646.324331 169.749544 
L 647.730188 187.712919 
L 649.143621 131.782866 
L 650.445535 159.876206 
L 651.729604 91.021689 
L 653.12959 186.250882 
L 654.5372 188.147265 
L 655.69103 111.555648 
L 657.258398 171.518847 
L 658.53653 152.871007 
L 659.813931 152.651039 
L 661.183766 118.905757 
L 662.439964 146.174439 
L 663.781403 170.96966 
L 665.182028 186.410628 
L 666.472548 156.552329 
L 667.872043 127.753202 
L 669.126058 80.348146 
L 670.522826 185.444327 
L 671.875105 173.898693 
L 673.440278 171.007328 
L 676.129127 131.616343 
L 677.696815 171.593234 
L 679.068839 119.571737 
L 680.380892 162.785827 
L 681.670212 156.198391 
L 683.078136 188.224989 
L 684.510122 137.024812 
L 685.787637 152.685565 
L 687.135336 112.048643 
L 688.536301 186.495498 
L 690.051746 105.10951 
L 691.456672 187.482042 
L 692.735982 153.223992 
L 694.250302 104.789149 
L 695.580244 229.238421 
L 696.995476 132.296995 
L 698.277015 153.890296 
L 699.684976 188.234178 
L 701.117108 137.065369 
L 702.533119 132.519244 
L 703.870007 169.725976 
L 705.089504 134.431077 
L 706.356179 149.402141 
L 707.784452 193.18505 
L 709.206135 134.130595 
L 710.576714 119.132386 
L 711.955921 180.975758 
L 714.715796 101.74401 
L 716.111686 185.22356 
L 717.431794 165.065249 
L 719.001313 172.018828 
L 720.407622 129.733187 
L 721.684023 152.350719 
L 722.96761 154.500521 
L 724.50539 164.498733 
L 725.812467 161.363581 
L 727.089383 152.505587 
L 728.366768 152.646378 
L 729.672224 98.317991 
L 731.284243 181.625004 
L 732.625752 170.988824 
L 733.966921 109.982537 
L 735.320919 174.358914 
L 736.88374 170.457375 
L 738.259998 120.85399 
L 739.574121 163.374371 
L 741.001713 193.021328 
L 742.264699 148.271554 
L 743.54211 152.654415 
L 744.819507 152.649927 
L 746.187411 118.31646 
L 747.491776 97.951589 
L 748.805244 225.386275 
L 750.282838 149.351286 
L 751.496191 132.395919 
L 752.837965 171.060908 
L 754.277293 139.061723 
L 755.619272 171.116844 
L 756.915349 158.180632 
L 758.250663 108.11297 
L 759.886942 136.957119 
L 761.154778 214.193109 
L 762.56702 131.441477 
L 763.968557 186.638366 
L 765.257295 156.027175 
L 766.684197 78.348198 
L 767.931021 143.240749 
L 769.244086 225.290844 
L 770.883142 137.633874 
L 772.225485 171.215798 
L 773.637741 131.445552 
L 775.065104 192.966436 
L 776.483021 133.062302 
L 777.760512 152.678161 
L 779.167267 129.862108 
L 780.741658 173.146502 
L 782.153759 131.401179 
L 783.721413 171.58543 
L 785.00005 153.022113 
L 786.286943 91.99895 
L 787.68355 185.403972 
L 789.257789 173.111243 
L 790.534468 152.434391 
L 791.832739 158.819846 
L 793.096419 83.83611 
L 794.495768 186.091371 
L 795.773356 152.70755 
L 797.051383 152.839163 
L 798.422469 178.870812 
L 799.612834 124.594416 
L 801.114744 155.617334 
L 802.457584 171.350869 
L 803.806155 112.323032 
L 805.083301 152.574727 
L 806.722053 137.560078 
L 808.22883 211.065473 
L 809.640044 73.256618 
L 810.973452 230.036929 
L 812.252331 153.094841 
L 813.953564 152.207283 
L 815.230712 152.575237 
L 817.785676 152.695929 
L 819.062725 152.545552 
L 820.405786 110.583271 
L 821.702985 158.507788 
L 823.038875 169.451893 
L 824.43738 185.879955 
L 825.715569 152.887917 
L 827.153119 138.570386 
L 828.431388 152.91178 
L 829.84784 132.645164 
L 831.115532 149.712414 
L 832.412632 158.47889 
L 833.911394 100.308911 
L 835.244582 229.986341 
L 836.650825 129.714281 
L 838.077403 192.777175 
L 839.501859 134.913856 
L 840.919608 133.014304 
L 842.197515 152.803247 
L 843.76957 120.639613 
L 845.041849 151.106396 
L 846.31549 215.66142 
L 846.31549 215.66142 
" clip-path="url(#pd4144d7d99)" style="fill: none; stroke: #ff7f0e; stroke-width: 1.5; stroke-linecap: square"/>
   </g>
   <g id="line2d_19">
    <path d="M 72.61088 152.563126 
L 885.00072 152.563126 
" clip-path="url(#pd4144d7d99)" style="fill: none; stroke-dasharray: 5.55,2.4; stroke-dashoffset: 0; stroke: #ffa500; stroke-width: 1.5"/>
   </g>
   <g id="patch_3">
    <path d="M 72.61088 536.37684 
L 72.61088 38.36632 
" style="fill: none; stroke: #000000; stroke-width: 0.8; stroke-linejoin: miter; stroke-linecap: square"/>
   </g>
   <g id="patch_4">
    <path d="M 885.00072 536.37684 
L 885.00072 38.36632 
" style="fill: none; stroke: #000000; stroke-width: 0.8; stroke-linejoin: miter; stroke-linecap: square"/>
   </g>
   <g id="patch_5">
    <path d="M 72.61088 536.37684 
L 885.00072 536.37684 
" style="fill: none; stroke: #000000; stroke-width: 0.8; stroke-linejoin: miter; stroke-linecap: square"/>
   </g>
   <g id="patch_6">
    <path d="M 72.61088 38.36632 
L 885.00072 38.36632 
" style="fill: none; stroke: #000000; stroke-width: 0.8; stroke-linejoin: miter; stroke-linecap: square"/>
   </g>
   <g id="text_18">
    <!-- Observed and Filtered Packet Rates -->
    <g transform="translate(329.683488 32.36632) scale(0.168 -0.168)">
     <defs>
      <path id="DejaVuSans-4f" d="M 2522 4238 
Q 1834 4238 1429 3725 
Q 1025 3213 1025 2328 
Q 1025 1447 1429 934 
Q 1834 422 2522 422 
Q 3209 422 3611 934 
Q 4013 1447 4013 2328 
Q 4013 3213 3611 3725 
Q 3209 4238 2522 4238 
z
M 2522 4750 
Q 3503 4750 4090 4092 
Q 4678 3434 4678 2328 
Q 4678 1225 4090 567 
Q 3503 -91 2522 -91 
Q 1538 -91 948 565 
Q 359 1222 359 2328 
Q 359 3434 948 4092 
Q 1538 4750 2522 4750 
z
" transform="scale(0.015625)"/>
      <path id="DejaVuSans-62" d="M 3116 1747 
Q 3116 2381 2855 2742 
Q 2594 3103 2138 3103 
Q 1681 3103 1420 2742 
Q 1159 2381 1159 1747 
Q 1159 1113 1420 752 
Q 1681 391 2138 391 
Q 2594 391 2855 752 
Q 3116 1113 3116 1747 
z
M 1159 2969 
Q 1341 3281 1617 3432 
Q 1894 3584 2278 3584 
Q 2916 3584 3314 3078 
Q 3713 2572 3713 1747 
Q 3713 922 3314 415 
Q 2916 -91 2278 -91 
Q 1894 -91 1617 61 
Q 1341 213 1159 525 
L 1159 0 
L 581 0 
L 581 4863 
L 1159 4863 
L 1159 2969 
z
" transform="scale(0.015625)"/>
      <path id="DejaVuSans-76" d="M 191 3500 
L 800 3500 
L 1894 563 
L 2988 3500 
L 3597 3500 
L 2284 0 
L 1503 0 
L 191 3500 
z
" transform="scale(0.015625)"/>
      <path id="DejaVuSans-46" d="M 628 4666 
L 3309 4666 
L 3309 4134 
L 1259 4134 
L 1259 2759 
L 3109 2759 
L 3109 2228 
L 1259 2228 
L 1259 0 
L 628 0 
L 628 4666 
z
" transform="scale(0.015625)"/>
      <path id="DejaVuSans-6c" d="M 603 4863 
L 1178 4863 
L 1178 0 
L 603 0 
L 603 4863 
z
" transform="scale(0.015625)"/>
      <path id="DejaVuSans-52" d="M 2841 2188 
Q 3044 2119 3236 1894 
Q 3428 1669 3622 1275 
L 4263 0 
L 3584 0 
L 2988 1197 
Q 2756 1666 2539 1819 
Q 2322 1972 1947 1972 
L 1259 1972 
L 1259 0 
L 628 0 
L 628 4666 
L 2053 4666 
Q 2853 4666 3247 4331 
Q 3641 3997 3641 3322 
Q 3641 2881 3436 2590 
Q 3231 2300 2841 2188 
z
M 1259 4147 
L 1259 2491 
L 2053 2491 
Q 2509 2491 2742 2702 
Q 2975 2913 2975 3322 
Q 2975 3731 2742 3939 
Q 2509 4147 2053 4147 
L 1259 4147 
z
" transform="scale(0.015625)"/>
     </defs>
     <use xlink:href="#DejaVuSans-4f"/>
     <use xlink:href="#DejaVuSans-62" x="78.710938"/>
     <use xlink:href="#DejaVuSans-73" x="142.1875"/>
     <use xlink:href="#DejaVuSans-65" x="194.287109"/>
     <use xlink:href="#DejaVuSans-72" x="255.810547"/>
     <use xlink:href="#DejaVuSans-76" x="296.923828"/>
     <use xlink:href="#DejaVuSans-65" x="356.103516"/>
     <use xlink:href="#DejaVuSans-64" x="417.626953"/>
     <use xlink:href="#DejaVuSans-20" x="481.103516"/>
     <use xlink:href="#DejaVuSans-61" x="512.890625"/>
     <use xlink:href="#DejaVuSans-6e" x="574.169922"/>
     <use xlink:href="#DejaVuSans-64" x="637.548828"/>
     <use xlink:href="#DejaVuSans-20" x="701.025391"/>
     <use xlink:href="#DejaVuSans-46" x="732.8125"/>
     <use xlink:href="#DejaVuSans-69" x="783.082031"/>
     <use xlink:href="#DejaVuSans-6c" x="810.865234"/>
     <use xlink:href="#DejaVuSans-74" x="838.648438"/>
     <use xlink:href="#DejaVuSans-65" x="877.857422"/>
     <use xlink:href="#DejaVuSans-72" x="939.380859"/>
     <use xlink:href="#DejaVuSans-65" x="978.244141"/>
     <use xlink:href="#DejaVuSans-64" x="1039.767578"/>
     <use xlink:href="#DejaVuSans-20" x="1103.244141"/>
     <use xlink:href="#DejaVuSans-50" x="1135.03125"/>
     <use xlink:href="#DejaVuSans-61" x="1190.833984"/>
     <use xlink:href="#DejaVuSans-63" x="1252.113281"/>
     <use xlink:href="#DejaVuSans-6b" x="1307.09375"/>
     <use xlink:href="#DejaVuSans-65" x="1361.378906"/>
     <use xlink:href="#DejaVuSans-74" x="1422.902344"/>
     <use xlink:href="#DejaVuSans-20" x="1462.111328"/>
     <use xlink:href="#DejaVuSans-52" x="1493.898438"/>
     <use xlink:href="#DejaVuSans-61" x="1561.130859"/>
     <use xlink:href="#DejaVuSans-74" x="1622.410156"/>
     <use xlink:href="#DejaVuSans-65" x="1661.619141"/>
     <use xlink:href="#DejaVuSans-73" x="1723.142578"/>
    </g>
   </g>
   <g id="legend_1">
    <g id="patch_7">
     <path d="M 894.80072 330.57033 
L 1188.789783 330.57033 
Q 1191.589782 330.57033 1191.589782 327.77033 
L 1191.589782 246.97283 
Q 1191.589782 244.17283 1188.789783 244.17283 
L 894.80072 244.17283 
Q 892.00072 244.17283 892.00072 246.97283 
L 892.00072 327.77033 
Q 892.00072 330.57033 894.80072 330.57033 
z
" style="fill: #ffffff; opacity: 0.8; stroke: #cccccc; stroke-linejoin: miter"/>
    </g>
    <g id="line2d_20">
     <path d="M 897.60072 255.510642 
L 911.60072 255.510642 
L 925.60072 255.510642 
" style="fill: none; stroke: #1f77b4; stroke-width: 1.5; stroke-linecap: square"/>
    </g>
    <g id="text_19">
     <!-- Cam 1 (Mean Error Deviation: 3.89) -->
     <g transform="translate(936.80072 260.410642) scale(0.14 -0.14)">
      <defs>
       <path id="DejaVuSans-43" d="M 4122 4306 
L 4122 3641 
Q 3803 3938 3442 4084 
Q 3081 4231 2675 4231 
Q 1875 4231 1450 3742 
Q 1025 3253 1025 2328 
Q 1025 1406 1450 917 
Q 1875 428 2675 428 
Q 3081 428 3442 575 
Q 3803 722 4122 1019 
L 4122 359 
Q 3791 134 3420 21 
Q 3050 -91 2638 -91 
Q 1578 -91 968 557 
Q 359 1206 359 2328 
Q 359 3453 968 4101 
Q 1578 4750 2638 4750 
Q 3056 4750 3426 4639 
Q 3797 4528 4122 4306 
z
" transform="scale(0.015625)"/>
       <path id="DejaVuSans-4d" d="M 628 4666 
L 1569 4666 
L 2759 1491 
L 3956 4666 
L 4897 4666 
L 4897 0 
L 4281 0 
L 4281 4097 
L 3078 897 
L 2444 897 
L 1241 4097 
L 1241 0 
L 628 0 
L 628 4666 
z
" transform="scale(0.015625)"/>
       <path id="DejaVuSans-45" d="M 628 4666 
L 3578 4666 
L 3578 4134 
L 1259 4134 
L 1259 2753 
L 3481 2753 
L 3481 2222 
L 1259 2222 
L 1259 531 
L 3634 531 
L 3634 0 
L 628 0 
L 628 4666 
z
" transform="scale(0.015625)"/>
       <path id="DejaVuSans-44" d="M 1259 4147 
L 1259 519 
L 2022 519 
Q 2988 519 3436 956 
Q 3884 1394 3884 2338 
Q 3884 3275 3436 3711 
Q 2988 4147 2022 4147 
L 1259 4147 
z
M 628 4666 
L 1925 4666 
Q 3281 4666 3915 4102 
Q 4550 3538 4550 2338 
Q 4550 1131 3912 565 
Q 3275 0 1925 0 
L 628 0 
L 628 4666 
z
" transform="scale(0.015625)"/>
       <path id="DejaVuSans-3a" d="M 750 794 
L 1409 794 
L 1409 0 
L 750 0 
L 750 794 
z
M 750 3309 
L 1409 3309 
L 1409 2516 
L 750 2516 
L 750 3309 
z
" transform="scale(0.015625)"/>
       <path id="DejaVuSans-2e" d="M 684 794 
L 1344 794 
L 1344 0 
L 684 0 
L 684 794 
z
" transform="scale(0.015625)"/>
       <path id="DejaVuSans-38" d="M 2034 2216 
Q 1584 2216 1326 1975 
Q 1069 1734 1069 1313 
Q 1069 891 1326 650 
Q 1584 409 2034 409 
Q 2484 409 2743 651 
Q 3003 894 3003 1313 
Q 3003 1734 2745 1975 
Q 2488 2216 2034 2216 
z
M 1403 2484 
Q 997 2584 770 2862 
Q 544 3141 544 3541 
Q 544 4100 942 4425 
Q 1341 4750 2034 4750 
Q 2731 4750 3128 4425 
Q 3525 4100 3525 3541 
Q 3525 3141 3298 2862 
Q 3072 2584 2669 2484 
Q 3125 2378 3379 2068 
Q 3634 1759 3634 1313 
Q 3634 634 3220 271 
Q 2806 -91 2034 -91 
Q 1263 -91 848 271 
Q 434 634 434 1313 
Q 434 1759 690 2068 
Q 947 2378 1403 2484 
z
M 1172 3481 
Q 1172 3119 1398 2916 
Q 1625 2713 2034 2713 
Q 2441 2713 2670 2916 
Q 2900 3119 2900 3481 
Q 2900 3844 2670 4047 
Q 2441 4250 2034 4250 
Q 1625 4250 1398 4047 
Q 1172 3844 1172 3481 
z
" transform="scale(0.015625)"/>
       <path id="DejaVuSans-39" d="M 703 97 
L 703 672 
Q 941 559 1184 500 
Q 1428 441 1663 441 
Q 2288 441 2617 861 
Q 2947 1281 2994 2138 
Q 2813 1869 2534 1725 
Q 2256 1581 1919 1581 
Q 1219 1581 811 2004 
Q 403 2428 403 3163 
Q 403 3881 828 4315 
Q 1253 4750 1959 4750 
Q 2769 4750 3195 4129 
Q 3622 3509 3622 2328 
Q 3622 1225 3098 567 
Q 2575 -91 1691 -91 
Q 1453 -91 1209 -44 
Q 966 3 703 97 
z
M 1959 2075 
Q 2384 2075 2632 2365 
Q 2881 2656 2881 3163 
Q 2881 3666 2632 3958 
Q 2384 4250 1959 4250 
Q 1534 4250 1286 3958 
Q 1038 3666 1038 3163 
Q 1038 2656 1286 2365 
Q 1534 2075 1959 2075 
z
" transform="scale(0.015625)"/>
      </defs>
      <use xlink:href="#DejaVuSans-43"/>
      <use xlink:href="#DejaVuSans-61" x="69.824219"/>
      <use xlink:href="#DejaVuSans-6d" x="131.103516"/>
      <use xlink:href="#DejaVuSans-20" x="228.515625"/>
      <use xlink:href="#DejaVuSans-31" x="260.302734"/>
      <use xlink:href="#DejaVuSans-20" x="323.925781"/>
      <use xlink:href="#DejaVuSans-28" x="355.712891"/>
      <use xlink:href="#DejaVuSans-4d" x="394.726562"/>
      <use xlink:href="#DejaVuSans-65" x="481.005859"/>
      <use xlink:href="#DejaVuSans-61" x="542.529297"/>
      <use xlink:href="#DejaVuSans-6e" x="603.808594"/>
      <use xlink:href="#DejaVuSans-20" x="667.1875"/>
      <use xlink:href="#DejaVuSans-45" x="698.974609"/>
      <use xlink:href="#DejaVuSans-72" x="762.158203"/>
      <use xlink:href="#DejaVuSans-72" x="801.521484"/>
      <use xlink:href="#DejaVuSans-6f" x="840.384766"/>
      <use xlink:href="#DejaVuSans-72" x="901.566406"/>
      <use xlink:href="#DejaVuSans-20" x="942.679688"/>
      <use xlink:href="#DejaVuSans-44" x="974.466797"/>
      <use xlink:href="#DejaVuSans-65" x="1051.46875"/>
      <use xlink:href="#DejaVuSans-76" x="1112.992188"/>
      <use xlink:href="#DejaVuSans-69" x="1172.171875"/>
      <use xlink:href="#DejaVuSans-61" x="1199.955078"/>
      <use xlink:href="#DejaVuSans-74" x="1261.234375"/>
      <use xlink:href="#DejaVuSans-69" x="1300.443359"/>
      <use xlink:href="#DejaVuSans-6f" x="1328.226562"/>
      <use xlink:href="#DejaVuSans-6e" x="1389.408203"/>
      <use xlink:href="#DejaVuSans-3a" x="1452.787109"/>
      <use xlink:href="#DejaVuSans-20" x="1486.478516"/>
      <use xlink:href="#DejaVuSans-33" x="1518.265625"/>
      <use xlink:href="#DejaVuSans-2e" x="1581.888672"/>
      <use xlink:href="#DejaVuSans-38" x="1613.675781"/>
      <use xlink:href="#DejaVuSans-39" x="1677.298828"/>
      <use xlink:href="#DejaVuSans-29" x="1740.921875"/>
     </g>
    </g>
    <g id="line2d_21">
     <path d="M 897.60072 276.060018 
L 911.60072 276.060018 
L 925.60072 276.060018 
" style="fill: none; stroke-dasharray: 5.55,2.4; stroke-dashoffset: 0; stroke: #0000ff; stroke-width: 1.5"/>
    </g>
    <g id="text_20">
     <!-- Cam 1 average -->
     <g transform="translate(936.80072 280.960017) scale(0.14 -0.14)">
      <defs>
       <path id="DejaVuSans-67" d="M 2906 1791 
Q 2906 2416 2648 2759 
Q 2391 3103 1925 3103 
Q 1463 3103 1205 2759 
Q 947 2416 947 1791 
Q 947 1169 1205 825 
Q 1463 481 1925 481 
Q 2391 481 2648 825 
Q 2906 1169 2906 1791 
z
M 3481 434 
Q 3481 -459 3084 -895 
Q 2688 -1331 1869 -1331 
Q 1566 -1331 1297 -1286 
Q 1028 -1241 775 -1147 
L 775 -588 
Q 1028 -725 1275 -790 
Q 1522 -856 1778 -856 
Q 2344 -856 2625 -561 
Q 2906 -266 2906 331 
L 2906 616 
Q 2728 306 2450 153 
Q 2172 0 1784 0 
Q 1141 0 747 490 
Q 353 981 353 1791 
Q 353 2603 747 3093 
Q 1141 3584 1784 3584 
Q 2172 3584 2450 3431 
Q 2728 3278 2906 2969 
L 2906 3500 
L 3481 3500 
L 3481 434 
z
" transform="scale(0.015625)"/>
      </defs>
      <use xlink:href="#DejaVuSans-43"/>
      <use xlink:href="#DejaVuSans-61" x="69.824219"/>
      <use xlink:href="#DejaVuSans-6d" x="131.103516"/>
      <use xlink:href="#DejaVuSans-20" x="228.515625"/>
      <use xlink:href="#DejaVuSans-31" x="260.302734"/>
      <use xlink:href="#DejaVuSans-20" x="323.925781"/>
      <use xlink:href="#DejaVuSans-61" x="355.712891"/>
      <use xlink:href="#DejaVuSans-76" x="416.992188"/>
      <use xlink:href="#DejaVuSans-65" x="476.171875"/>
      <use xlink:href="#DejaVuSans-72" x="537.695312"/>
      <use xlink:href="#DejaVuSans-61" x="578.808594"/>
      <use xlink:href="#DejaVuSans-67" x="640.087891"/>
      <use xlink:href="#DejaVuSans-65" x="703.564453"/>
     </g>
    </g>
    <g id="line2d_22">
     <path d="M 897.60072 296.609393 
L 911.60072 296.609393 
L 925.60072 296.609393 
" style="fill: none; stroke: #ff7f0e; stroke-width: 1.5; stroke-linecap: square"/>
    </g>
    <g id="text_21">
     <!-- Cam 2 (Mean Error Deviation: 3.88) -->
     <g transform="translate(936.80072 301.509392) scale(0.14 -0.14)">
      <use xlink:href="#DejaVuSans-43"/>
      <use xlink:href="#DejaVuSans-61" x="69.824219"/>
      <use xlink:href="#DejaVuSans-6d" x="131.103516"/>
      <use xlink:href="#DejaVuSans-20" x="228.515625"/>
      <use xlink:href="#DejaVuSans-32" x="260.302734"/>
      <use xlink:href="#DejaVuSans-20" x="323.925781"/>
      <use xlink:href="#DejaVuSans-28" x="355.712891"/>
      <use xlink:href="#DejaVuSans-4d" x="394.726562"/>
      <use xlink:href="#DejaVuSans-65" x="481.005859"/>
      <use xlink:href="#DejaVuSans-61" x="542.529297"/>
      <use xlink:href="#DejaVuSans-6e" x="603.808594"/>
      <use xlink:href="#DejaVuSans-20" x="667.1875"/>
      <use xlink:href="#DejaVuSans-45" x="698.974609"/>
      <use xlink:href="#DejaVuSans-72" x="762.158203"/>
      <use xlink:href="#DejaVuSans-72" x="801.521484"/>
      <use xlink:href="#DejaVuSans-6f" x="840.384766"/>
      <use xlink:href="#DejaVuSans-72" x="901.566406"/>
      <use xlink:href="#DejaVuSans-20" x="942.679688"/>
      <use xlink:href="#DejaVuSans-44" x="974.466797"/>
      <use xlink:href="#DejaVuSans-65" x="1051.46875"/>
      <use xlink:href="#DejaVuSans-76" x="1112.992188"/>
      <use xlink:href="#DejaVuSans-69" x="1172.171875"/>
      <use xlink:href="#DejaVuSans-61" x="1199.955078"/>
      <use xlink:href="#DejaVuSans-74" x="1261.234375"/>
      <use xlink:href="#DejaVuSans-69" x="1300.443359"/>
      <use xlink:href="#DejaVuSans-6f" x="1328.226562"/>
      <use xlink:href="#DejaVuSans-6e" x="1389.408203"/>
      <use xlink:href="#DejaVuSans-3a" x="1452.787109"/>
      <use xlink:href="#DejaVuSans-20" x="1486.478516"/>
      <use xlink:href="#DejaVuSans-33" x="1518.265625"/>
      <use xlink:href="#DejaVuSans-2e" x="1581.888672"/>
      <use xlink:href="#DejaVuSans-38" x="1613.675781"/>
      <use xlink:href="#DejaVuSans-38" x="1677.298828"/>
      <use xlink:href="#DejaVuSans-29" x="1740.921875"/>
     </g>
    </g>
    <g id="line2d_23">
     <path d="M 897.60072 317.158768 
L 911.60072 317.158768 
L 925.60072 317.158768 
" style="fill: none; stroke-dasharray: 5.55,2.4; stroke-dashoffset: 0; stroke: #ffa500; stroke-width: 1.5"/>
    </g>
    <g id="text_22">
     <!-- Cam 2 average -->
     <g transform="translate(936.80072 322.058767) scale(0.14 -0.14)">
      <use xlink:href="#DejaVuSans-43"/>
      <use xlink:href="#DejaVuSans-61" x="69.824219"/>
      <use xlink:href="#DejaVuSans-6d" x="131.103516"/>
      <use xlink:href="#DejaVuSans-20" x="228.515625"/>
      <use xlink:href="#DejaVuSans-32" x="260.302734"/>
      <use xlink:href="#DejaVuSans-20" x="323.925781"/>
      <use xlink:href="#DejaVuSans-61" x="355.712891"/>
      <use xlink:href="#DejaVuSans-76" x="416.992188"/>
      <use xlink:href="#DejaVuSans-65" x="476.171875"/>
      <use xlink:href="#DejaVuSans-72" x="537.695312"/>
      <use xlink:href="#DejaVuSans-61" x="578.808594"/>
      <use xlink:href="#DejaVuSans-67" x="640.087891"/>
      <use xlink:href="#DejaVuSans-65" x="703.564453"/>
     </g>
    </g>
   </g>
  </g>
 </g>
 <defs>
  <clipPath id="pd4144d7d99">
   <rect x="72.61088" y="38.36632" width="812.38984" height="498.01052"/>
  </clipPath>
 </defs>
</svg>
