<?xml version="1.0" encoding="utf-8" standalone="no"?>
<!DOCTYPE svg PUBLIC "-//W3C//DTD SVG 1.1//EN"
  "http://www.w3.org/Graphics/SVG/1.1/DTD/svg11.dtd">
<svg xmlns:xlink="http://www.w3.org/1999/xlink" width="1186.56pt" height="588.24pt" viewBox="0 0 1186.56 588.24" xmlns="http://www.w3.org/2000/svg" version="1.1">
 <metadata>
  <rdf:RDF xmlns:dc="http://purl.org/dc/elements/1.1/" xmlns:cc="http://creativecommons.org/ns#" xmlns:rdf="http://www.w3.org/1999/02/22-rdf-syntax-ns#">
   <cc:Work>
    <dc:type rdf:resource="http://purl.org/dc/dcmitype/StillImage"/>
    <dc:date>2023-04-13T17:57:01.608538</dc:date>
    <dc:format>image/svg+xml</dc:format>
    <dc:creator>
     <cc:Agent>
      <dc:title>Matplotlib v3.6.2, https://matplotlib.org/</dc:title>
     </cc:Agent>
    </dc:creator>
   </cc:Work>
  </rdf:RDF>
 </metadata>
 <defs>
  <style type="text/css">*{stroke-linejoin: round; stroke-linecap: butt}</style>
 </defs>
 <g id="figure_1">
  <g id="patch_1">
   <path d="M 0 588.24 
L 1186.56 588.24 
L 1186.56 0 
L 0 0 
z
" style="fill: #ffffff"/>
  </g>
  <g id="axes_1">
   <g id="patch_2">
    <path d="M 78.24704 533.43564 
L 886.40976 533.43564 
L 886.40976 38.36632 
L 78.24704 38.36632 
z
" style="fill: #ffffff"/>
   </g>
   <g id="matplotlib.axis_1">
    <g id="xtick_1">
     <g id="line2d_1">
      <defs>
       <path id="md88341f88d" d="M 0 0 
L 0 3.5 
" style="stroke: #000000; stroke-width: 0.8"/>
      </defs>
      <g>
       <use xlink:href="#md88341f88d" x="78.24704" y="533.43564" style="stroke: #000000; stroke-width: 0.8"/>
      </g>
     </g>
     <g id="text_1">
      <!-- 0 -->
      <g transform="translate(73.79329 551.073453) scale(0.14 -0.14)">
       <defs>
        <path id="DejaVuSans-30" d="M 2034 4250 
Q 1547 4250 1301 3770 
Q 1056 3291 1056 2328 
Q 1056 1369 1301 889 
Q 1547 409 2034 409 
Q 2525 409 2770 889 
Q 3016 1369 3016 2328 
Q 3016 3291 2770 3770 
Q 2525 4250 2034 4250 
z
M 2034 4750 
Q 2819 4750 3233 4129 
Q 3647 3509 3647 2328 
Q 3647 1150 3233 529 
Q 2819 -91 2034 -91 
Q 1250 -91 836 529 
Q 422 1150 422 2328 
Q 422 3509 836 4129 
Q 1250 4750 2034 4750 
z
" transform="scale(0.015625)"/>
       </defs>
       <use xlink:href="#DejaVuSans-30"/>
      </g>
     </g>
    </g>
    <g id="xtick_2">
     <g id="line2d_2">
      <g>
       <use xlink:href="#md88341f88d" x="206.054368" y="533.43564" style="stroke: #000000; stroke-width: 0.8"/>
      </g>
     </g>
     <g id="text_2">
      <!-- 10 -->
      <g transform="translate(197.146868 551.073453) scale(0.14 -0.14)">
       <defs>
        <path id="DejaVuSans-31" d="M 794 531 
L 1825 531 
L 1825 4091 
L 703 3866 
L 703 4441 
L 1819 4666 
L 2450 4666 
L 2450 531 
L 3481 531 
L 3481 0 
L 794 0 
L 794 531 
z
" transform="scale(0.015625)"/>
       </defs>
       <use xlink:href="#DejaVuSans-31"/>
       <use xlink:href="#DejaVuSans-30" x="63.623047"/>
      </g>
     </g>
    </g>
    <g id="xtick_3">
     <g id="line2d_3">
      <g>
       <use xlink:href="#md88341f88d" x="333.861696" y="533.43564" style="stroke: #000000; stroke-width: 0.8"/>
      </g>
     </g>
     <g id="text_3">
      <!-- 20 -->
      <g transform="translate(324.954196 551.073453) scale(0.14 -0.14)">
       <defs>
        <path id="DejaVuSans-32" d="M 1228 531 
L 3431 531 
L 3431 0 
L 469 0 
L 469 531 
Q 828 903 1448 1529 
Q 2069 2156 2228 2338 
Q 2531 2678 2651 2914 
Q 2772 3150 2772 3378 
Q 2772 3750 2511 3984 
Q 2250 4219 1831 4219 
Q 1534 4219 1204 4116 
Q 875 4013 500 3803 
L 500 4441 
Q 881 4594 1212 4672 
Q 1544 4750 1819 4750 
Q 2544 4750 2975 4387 
Q 3406 4025 3406 3419 
Q 3406 3131 3298 2873 
Q 3191 2616 2906 2266 
Q 2828 2175 2409 1742 
Q 1991 1309 1228 531 
z
" transform="scale(0.015625)"/>
       </defs>
       <use xlink:href="#DejaVuSans-32"/>
       <use xlink:href="#DejaVuSans-30" x="63.623047"/>
      </g>
     </g>
    </g>
    <g id="xtick_4">
     <g id="line2d_4">
      <g>
       <use xlink:href="#md88341f88d" x="461.669024" y="533.43564" style="stroke: #000000; stroke-width: 0.8"/>
      </g>
     </g>
     <g id="text_4">
      <!-- 30 -->
      <g transform="translate(452.761524 551.073453) scale(0.14 -0.14)">
       <defs>
        <path id="DejaVuSans-33" d="M 2597 2516 
Q 3050 2419 3304 2112 
Q 3559 1806 3559 1356 
Q 3559 666 3084 287 
Q 2609 -91 1734 -91 
Q 1441 -91 1130 -33 
Q 819 25 488 141 
L 488 750 
Q 750 597 1062 519 
Q 1375 441 1716 441 
Q 2309 441 2620 675 
Q 2931 909 2931 1356 
Q 2931 1769 2642 2001 
Q 2353 2234 1838 2234 
L 1294 2234 
L 1294 2753 
L 1863 2753 
Q 2328 2753 2575 2939 
Q 2822 3125 2822 3475 
Q 2822 3834 2567 4026 
Q 2313 4219 1838 4219 
Q 1578 4219 1281 4162 
Q 984 4106 628 3988 
L 628 4550 
Q 988 4650 1302 4700 
Q 1616 4750 1894 4750 
Q 2613 4750 3031 4423 
Q 3450 4097 3450 3541 
Q 3450 3153 3228 2886 
Q 3006 2619 2597 2516 
z
" transform="scale(0.015625)"/>
       </defs>
       <use xlink:href="#DejaVuSans-33"/>
       <use xlink:href="#DejaVuSans-30" x="63.623047"/>
      </g>
     </g>
    </g>
    <g id="xtick_5">
     <g id="line2d_5">
      <g>
       <use xlink:href="#md88341f88d" x="589.476352" y="533.43564" style="stroke: #000000; stroke-width: 0.8"/>
      </g>
     </g>
     <g id="text_5">
      <!-- 40 -->
      <g transform="translate(580.568852 551.073453) scale(0.14 -0.14)">
       <defs>
        <path id="DejaVuSans-34" d="M 2419 4116 
L 825 1625 
L 2419 1625 
L 2419 4116 
z
M 2253 4666 
L 3047 4666 
L 3047 1625 
L 3713 1625 
L 3713 1100 
L 3047 1100 
L 3047 0 
L 2419 0 
L 2419 1100 
L 313 1100 
L 313 1709 
L 2253 4666 
z
" transform="scale(0.015625)"/>
       </defs>
       <use xlink:href="#DejaVuSans-34"/>
       <use xlink:href="#DejaVuSans-30" x="63.623047"/>
      </g>
     </g>
    </g>
    <g id="xtick_6">
     <g id="line2d_6">
      <g>
       <use xlink:href="#md88341f88d" x="717.28368" y="533.43564" style="stroke: #000000; stroke-width: 0.8"/>
      </g>
     </g>
     <g id="text_6">
      <!-- 50 -->
      <g transform="translate(708.37618 551.073453) scale(0.14 -0.14)">
       <defs>
        <path id="DejaVuSans-35" d="M 691 4666 
L 3169 4666 
L 3169 4134 
L 1269 4134 
L 1269 2991 
Q 1406 3038 1543 3061 
Q 1681 3084 1819 3084 
Q 2600 3084 3056 2656 
Q 3513 2228 3513 1497 
Q 3513 744 3044 326 
Q 2575 -91 1722 -91 
Q 1428 -91 1123 -41 
Q 819 9 494 109 
L 494 744 
Q 775 591 1075 516 
Q 1375 441 1709 441 
Q 2250 441 2565 725 
Q 2881 1009 2881 1497 
Q 2881 1984 2565 2268 
Q 2250 2553 1709 2553 
Q 1456 2553 1204 2497 
Q 953 2441 691 2322 
L 691 4666 
z
" transform="scale(0.015625)"/>
       </defs>
       <use xlink:href="#DejaVuSans-35"/>
       <use xlink:href="#DejaVuSans-30" x="63.623047"/>
      </g>
     </g>
    </g>
    <g id="xtick_7">
     <g id="line2d_7">
      <g>
       <use xlink:href="#md88341f88d" x="845.091008" y="533.43564" style="stroke: #000000; stroke-width: 0.8"/>
      </g>
     </g>
     <g id="text_7">
      <!-- 60 -->
      <g transform="translate(836.183508 551.073453) scale(0.14 -0.14)">
       <defs>
        <path id="DejaVuSans-36" d="M 2113 2584 
Q 1688 2584 1439 2293 
Q 1191 2003 1191 1497 
Q 1191 994 1439 701 
Q 1688 409 2113 409 
Q 2538 409 2786 701 
Q 3034 994 3034 1497 
Q 3034 2003 2786 2293 
Q 2538 2584 2113 2584 
z
M 3366 4563 
L 3366 3988 
Q 3128 4100 2886 4159 
Q 2644 4219 2406 4219 
Q 1781 4219 1451 3797 
Q 1122 3375 1075 2522 
Q 1259 2794 1537 2939 
Q 1816 3084 2150 3084 
Q 2853 3084 3261 2657 
Q 3669 2231 3669 1497 
Q 3669 778 3244 343 
Q 2819 -91 2113 -91 
Q 1303 -91 875 529 
Q 447 1150 447 2328 
Q 447 3434 972 4092 
Q 1497 4750 2381 4750 
Q 2619 4750 2861 4703 
Q 3103 4656 3366 4563 
z
" transform="scale(0.015625)"/>
       </defs>
       <use xlink:href="#DejaVuSans-36"/>
       <use xlink:href="#DejaVuSans-30" x="63.623047"/>
      </g>
     </g>
    </g>
    <g id="text_8">
     <!-- Time (s) -->
     <g transform="translate(451.835041 569.382671) scale(0.15 -0.15)">
      <defs>
       <path id="DejaVuSans-54" d="M -19 4666 
L 3928 4666 
L 3928 4134 
L 2272 4134 
L 2272 0 
L 1638 0 
L 1638 4134 
L -19 4134 
L -19 4666 
z
" transform="scale(0.015625)"/>
       <path id="DejaVuSans-69" d="M 603 3500 
L 1178 3500 
L 1178 0 
L 603 0 
L 603 3500 
z
M 603 4863 
L 1178 4863 
L 1178 4134 
L 603 4134 
L 603 4863 
z
" transform="scale(0.015625)"/>
       <path id="DejaVuSans-6d" d="M 3328 2828 
Q 3544 3216 3844 3400 
Q 4144 3584 4550 3584 
Q 5097 3584 5394 3201 
Q 5691 2819 5691 2113 
L 5691 0 
L 5113 0 
L 5113 2094 
Q 5113 2597 4934 2840 
Q 4756 3084 4391 3084 
Q 3944 3084 3684 2787 
Q 3425 2491 3425 1978 
L 3425 0 
L 2847 0 
L 2847 2094 
Q 2847 2600 2669 2842 
Q 2491 3084 2119 3084 
Q 1678 3084 1418 2786 
Q 1159 2488 1159 1978 
L 1159 0 
L 581 0 
L 581 3500 
L 1159 3500 
L 1159 2956 
Q 1356 3278 1631 3431 
Q 1906 3584 2284 3584 
Q 2666 3584 2933 3390 
Q 3200 3197 3328 2828 
z
" transform="scale(0.015625)"/>
       <path id="DejaVuSans-65" d="M 3597 1894 
L 3597 1613 
L 953 1613 
Q 991 1019 1311 708 
Q 1631 397 2203 397 
Q 2534 397 2845 478 
Q 3156 559 3463 722 
L 3463 178 
Q 3153 47 2828 -22 
Q 2503 -91 2169 -91 
Q 1331 -91 842 396 
Q 353 884 353 1716 
Q 353 2575 817 3079 
Q 1281 3584 2069 3584 
Q 2775 3584 3186 3129 
Q 3597 2675 3597 1894 
z
M 3022 2063 
Q 3016 2534 2758 2815 
Q 2500 3097 2075 3097 
Q 1594 3097 1305 2825 
Q 1016 2553 972 2059 
L 3022 2063 
z
" transform="scale(0.015625)"/>
       <path id="DejaVuSans-20" transform="scale(0.015625)"/>
       <path id="DejaVuSans-28" d="M 1984 4856 
Q 1566 4138 1362 3434 
Q 1159 2731 1159 2009 
Q 1159 1288 1364 580 
Q 1569 -128 1984 -844 
L 1484 -844 
Q 1016 -109 783 600 
Q 550 1309 550 2009 
Q 550 2706 781 3412 
Q 1013 4119 1484 4856 
L 1984 4856 
z
" transform="scale(0.015625)"/>
       <path id="DejaVuSans-73" d="M 2834 3397 
L 2834 2853 
Q 2591 2978 2328 3040 
Q 2066 3103 1784 3103 
Q 1356 3103 1142 2972 
Q 928 2841 928 2578 
Q 928 2378 1081 2264 
Q 1234 2150 1697 2047 
L 1894 2003 
Q 2506 1872 2764 1633 
Q 3022 1394 3022 966 
Q 3022 478 2636 193 
Q 2250 -91 1575 -91 
Q 1294 -91 989 -36 
Q 684 19 347 128 
L 347 722 
Q 666 556 975 473 
Q 1284 391 1588 391 
Q 1994 391 2212 530 
Q 2431 669 2431 922 
Q 2431 1156 2273 1281 
Q 2116 1406 1581 1522 
L 1381 1569 
Q 847 1681 609 1914 
Q 372 2147 372 2553 
Q 372 3047 722 3315 
Q 1072 3584 1716 3584 
Q 2034 3584 2315 3537 
Q 2597 3491 2834 3397 
z
" transform="scale(0.015625)"/>
       <path id="DejaVuSans-29" d="M 513 4856 
L 1013 4856 
Q 1481 4119 1714 3412 
Q 1947 2706 1947 2009 
Q 1947 1309 1714 600 
Q 1481 -109 1013 -844 
L 513 -844 
Q 928 -128 1133 580 
Q 1338 1288 1338 2009 
Q 1338 2731 1133 3434 
Q 928 4138 513 4856 
z
" transform="scale(0.015625)"/>
      </defs>
      <use xlink:href="#DejaVuSans-54"/>
      <use xlink:href="#DejaVuSans-69" x="57.958984"/>
      <use xlink:href="#DejaVuSans-6d" x="85.742188"/>
      <use xlink:href="#DejaVuSans-65" x="183.154297"/>
      <use xlink:href="#DejaVuSans-20" x="244.677734"/>
      <use xlink:href="#DejaVuSans-28" x="276.464844"/>
      <use xlink:href="#DejaVuSans-73" x="315.478516"/>
      <use xlink:href="#DejaVuSans-29" x="367.578125"/>
     </g>
    </g>
   </g>
   <g id="matplotlib.axis_2">
    <g id="ytick_1">
     <g id="line2d_8">
      <defs>
       <path id="m4fef07310d" d="M 0 0 
L -3.5 0 
" style="stroke: #000000; stroke-width: 0.8"/>
      </defs>
      <g>
       <use xlink:href="#m4fef07310d" x="78.24704" y="533.43564" style="stroke: #000000; stroke-width: 0.8"/>
      </g>
     </g>
     <g id="text_9">
      <!-- 0 -->
      <g transform="translate(62.33954 538.754546) scale(0.14 -0.14)">
       <use xlink:href="#DejaVuSans-30"/>
      </g>
     </g>
    </g>
    <g id="ytick_2">
     <g id="line2d_9">
      <g>
       <use xlink:href="#m4fef07310d" x="78.24704" y="462.623454" style="stroke: #000000; stroke-width: 0.8"/>
      </g>
     </g>
     <g id="text_10">
      <!-- 10 -->
      <g transform="translate(53.43204 467.94236) scale(0.14 -0.14)">
       <use xlink:href="#DejaVuSans-31"/>
       <use xlink:href="#DejaVuSans-30" x="63.623047"/>
      </g>
     </g>
    </g>
    <g id="ytick_3">
     <g id="line2d_10">
      <g>
       <use xlink:href="#m4fef07310d" x="78.24704" y="391.811267" style="stroke: #000000; stroke-width: 0.8"/>
      </g>
     </g>
     <g id="text_11">
      <!-- 20 -->
      <g transform="translate(53.43204 397.130174) scale(0.14 -0.14)">
       <use xlink:href="#DejaVuSans-32"/>
       <use xlink:href="#DejaVuSans-30" x="63.623047"/>
      </g>
     </g>
    </g>
    <g id="ytick_4">
     <g id="line2d_11">
      <g>
       <use xlink:href="#m4fef07310d" x="78.24704" y="320.999081" style="stroke: #000000; stroke-width: 0.8"/>
      </g>
     </g>
     <g id="text_12">
      <!-- 30 -->
      <g transform="translate(53.43204 326.317987) scale(0.14 -0.14)">
       <use xlink:href="#DejaVuSans-33"/>
       <use xlink:href="#DejaVuSans-30" x="63.623047"/>
      </g>
     </g>
    </g>
    <g id="ytick_5">
     <g id="line2d_12">
      <g>
       <use xlink:href="#m4fef07310d" x="78.24704" y="250.186895" style="stroke: #000000; stroke-width: 0.8"/>
      </g>
     </g>
     <g id="text_13">
      <!-- 40 -->
      <g transform="translate(53.43204 255.505801) scale(0.14 -0.14)">
       <use xlink:href="#DejaVuSans-34"/>
       <use xlink:href="#DejaVuSans-30" x="63.623047"/>
      </g>
     </g>
    </g>
    <g id="ytick_6">
     <g id="line2d_13">
      <g>
       <use xlink:href="#m4fef07310d" x="78.24704" y="179.374709" style="stroke: #000000; stroke-width: 0.8"/>
      </g>
     </g>
     <g id="text_14">
      <!-- 50 -->
      <g transform="translate(53.43204 184.693615) scale(0.14 -0.14)">
       <use xlink:href="#DejaVuSans-35"/>
       <use xlink:href="#DejaVuSans-30" x="63.623047"/>
      </g>
     </g>
    </g>
    <g id="ytick_7">
     <g id="line2d_14">
      <g>
       <use xlink:href="#m4fef07310d" x="78.24704" y="108.562522" style="stroke: #000000; stroke-width: 0.8"/>
      </g>
     </g>
     <g id="text_15">
      <!-- 60 -->
      <g transform="translate(53.43204 113.881429) scale(0.14 -0.14)">
       <use xlink:href="#DejaVuSans-36"/>
       <use xlink:href="#DejaVuSans-30" x="63.623047"/>
      </g>
     </g>
    </g>
    <g id="text_16">
     <!-- Packets per Second -->
     <g transform="translate(46.312509 359.168949) rotate(-90) scale(0.15 -0.15)">
      <defs>
       <path id="DejaVuSans-50" d="M 1259 4147 
L 1259 2394 
L 2053 2394 
Q 2494 2394 2734 2622 
Q 2975 2850 2975 3272 
Q 2975 3691 2734 3919 
Q 2494 4147 2053 4147 
L 1259 4147 
z
M 628 4666 
L 2053 4666 
Q 2838 4666 3239 4311 
Q 3641 3956 3641 3272 
Q 3641 2581 3239 2228 
Q 2838 1875 2053 1875 
L 1259 1875 
L 1259 0 
L 628 0 
L 628 4666 
z
" transform="scale(0.015625)"/>
       <path id="DejaVuSans-61" d="M 2194 1759 
Q 1497 1759 1228 1600 
Q 959 1441 959 1056 
Q 959 750 1161 570 
Q 1363 391 1709 391 
Q 2188 391 2477 730 
Q 2766 1069 2766 1631 
L 2766 1759 
L 2194 1759 
z
M 3341 1997 
L 3341 0 
L 2766 0 
L 2766 531 
Q 2569 213 2275 61 
Q 1981 -91 1556 -91 
Q 1019 -91 701 211 
Q 384 513 384 1019 
Q 384 1609 779 1909 
Q 1175 2209 1959 2209 
L 2766 2209 
L 2766 2266 
Q 2766 2663 2505 2880 
Q 2244 3097 1772 3097 
Q 1472 3097 1187 3025 
Q 903 2953 641 2809 
L 641 3341 
Q 956 3463 1253 3523 
Q 1550 3584 1831 3584 
Q 2591 3584 2966 3190 
Q 3341 2797 3341 1997 
z
" transform="scale(0.015625)"/>
       <path id="DejaVuSans-63" d="M 3122 3366 
L 3122 2828 
Q 2878 2963 2633 3030 
Q 2388 3097 2138 3097 
Q 1578 3097 1268 2742 
Q 959 2388 959 1747 
Q 959 1106 1268 751 
Q 1578 397 2138 397 
Q 2388 397 2633 464 
Q 2878 531 3122 666 
L 3122 134 
Q 2881 22 2623 -34 
Q 2366 -91 2075 -91 
Q 1284 -91 818 406 
Q 353 903 353 1747 
Q 353 2603 823 3093 
Q 1294 3584 2113 3584 
Q 2378 3584 2631 3529 
Q 2884 3475 3122 3366 
z
" transform="scale(0.015625)"/>
       <path id="DejaVuSans-6b" d="M 581 4863 
L 1159 4863 
L 1159 1991 
L 2875 3500 
L 3609 3500 
L 1753 1863 
L 3688 0 
L 2938 0 
L 1159 1709 
L 1159 0 
L 581 0 
L 581 4863 
z
" transform="scale(0.015625)"/>
       <path id="DejaVuSans-74" d="M 1172 4494 
L 1172 3500 
L 2356 3500 
L 2356 3053 
L 1172 3053 
L 1172 1153 
Q 1172 725 1289 603 
Q 1406 481 1766 481 
L 2356 481 
L 2356 0 
L 1766 0 
Q 1100 0 847 248 
Q 594 497 594 1153 
L 594 3053 
L 172 3053 
L 172 3500 
L 594 3500 
L 594 4494 
L 1172 4494 
z
" transform="scale(0.015625)"/>
       <path id="DejaVuSans-70" d="M 1159 525 
L 1159 -1331 
L 581 -1331 
L 581 3500 
L 1159 3500 
L 1159 2969 
Q 1341 3281 1617 3432 
Q 1894 3584 2278 3584 
Q 2916 3584 3314 3078 
Q 3713 2572 3713 1747 
Q 3713 922 3314 415 
Q 2916 -91 2278 -91 
Q 1894 -91 1617 61 
Q 1341 213 1159 525 
z
M 3116 1747 
Q 3116 2381 2855 2742 
Q 2594 3103 2138 3103 
Q 1681 3103 1420 2742 
Q 1159 2381 1159 1747 
Q 1159 1113 1420 752 
Q 1681 391 2138 391 
Q 2594 391 2855 752 
Q 3116 1113 3116 1747 
z
" transform="scale(0.015625)"/>
       <path id="DejaVuSans-72" d="M 2631 2963 
Q 2534 3019 2420 3045 
Q 2306 3072 2169 3072 
Q 1681 3072 1420 2755 
Q 1159 2438 1159 1844 
L 1159 0 
L 581 0 
L 581 3500 
L 1159 3500 
L 1159 2956 
Q 1341 3275 1631 3429 
Q 1922 3584 2338 3584 
Q 2397 3584 2469 3576 
Q 2541 3569 2628 3553 
L 2631 2963 
z
" transform="scale(0.015625)"/>
       <path id="DejaVuSans-53" d="M 3425 4513 
L 3425 3897 
Q 3066 4069 2747 4153 
Q 2428 4238 2131 4238 
Q 1616 4238 1336 4038 
Q 1056 3838 1056 3469 
Q 1056 3159 1242 3001 
Q 1428 2844 1947 2747 
L 2328 2669 
Q 3034 2534 3370 2195 
Q 3706 1856 3706 1288 
Q 3706 609 3251 259 
Q 2797 -91 1919 -91 
Q 1588 -91 1214 -16 
Q 841 59 441 206 
L 441 856 
Q 825 641 1194 531 
Q 1563 422 1919 422 
Q 2459 422 2753 634 
Q 3047 847 3047 1241 
Q 3047 1584 2836 1778 
Q 2625 1972 2144 2069 
L 1759 2144 
Q 1053 2284 737 2584 
Q 422 2884 422 3419 
Q 422 4038 858 4394 
Q 1294 4750 2059 4750 
Q 2388 4750 2728 4690 
Q 3069 4631 3425 4513 
z
" transform="scale(0.015625)"/>
       <path id="DejaVuSans-6f" d="M 1959 3097 
Q 1497 3097 1228 2736 
Q 959 2375 959 1747 
Q 959 1119 1226 758 
Q 1494 397 1959 397 
Q 2419 397 2687 759 
Q 2956 1122 2956 1747 
Q 2956 2369 2687 2733 
Q 2419 3097 1959 3097 
z
M 1959 3584 
Q 2709 3584 3137 3096 
Q 3566 2609 3566 1747 
Q 3566 888 3137 398 
Q 2709 -91 1959 -91 
Q 1206 -91 779 398 
Q 353 888 353 1747 
Q 353 2609 779 3096 
Q 1206 3584 1959 3584 
z
" transform="scale(0.015625)"/>
       <path id="DejaVuSans-6e" d="M 3513 2113 
L 3513 0 
L 2938 0 
L 2938 2094 
Q 2938 2591 2744 2837 
Q 2550 3084 2163 3084 
Q 1697 3084 1428 2787 
Q 1159 2491 1159 1978 
L 1159 0 
L 581 0 
L 581 3500 
L 1159 3500 
L 1159 2956 
Q 1366 3272 1645 3428 
Q 1925 3584 2291 3584 
Q 2894 3584 3203 3211 
Q 3513 2838 3513 2113 
z
" transform="scale(0.015625)"/>
       <path id="DejaVuSans-64" d="M 2906 2969 
L 2906 4863 
L 3481 4863 
L 3481 0 
L 2906 0 
L 2906 525 
Q 2725 213 2448 61 
Q 2172 -91 1784 -91 
Q 1150 -91 751 415 
Q 353 922 353 1747 
Q 353 2572 751 3078 
Q 1150 3584 1784 3584 
Q 2172 3584 2448 3432 
Q 2725 3281 2906 2969 
z
M 947 1747 
Q 947 1113 1208 752 
Q 1469 391 1925 391 
Q 2381 391 2643 752 
Q 2906 1113 2906 1747 
Q 2906 2381 2643 2742 
Q 2381 3103 1925 3103 
Q 1469 3103 1208 2742 
Q 947 2381 947 1747 
z
" transform="scale(0.015625)"/>
      </defs>
      <use xlink:href="#DejaVuSans-50"/>
      <use xlink:href="#DejaVuSans-61" x="55.802734"/>
      <use xlink:href="#DejaVuSans-63" x="117.082031"/>
      <use xlink:href="#DejaVuSans-6b" x="172.0625"/>
      <use xlink:href="#DejaVuSans-65" x="226.347656"/>
      <use xlink:href="#DejaVuSans-74" x="287.871094"/>
      <use xlink:href="#DejaVuSans-73" x="327.080078"/>
      <use xlink:href="#DejaVuSans-20" x="379.179688"/>
      <use xlink:href="#DejaVuSans-70" x="410.966797"/>
      <use xlink:href="#DejaVuSans-65" x="474.443359"/>
      <use xlink:href="#DejaVuSans-72" x="535.966797"/>
      <use xlink:href="#DejaVuSans-20" x="577.080078"/>
      <use xlink:href="#DejaVuSans-53" x="608.867188"/>
      <use xlink:href="#DejaVuSans-65" x="672.34375"/>
      <use xlink:href="#DejaVuSans-63" x="733.867188"/>
      <use xlink:href="#DejaVuSans-6f" x="788.847656"/>
      <use xlink:href="#DejaVuSans-6e" x="850.029297"/>
      <use xlink:href="#DejaVuSans-64" x="913.408203"/>
     </g>
    </g>
   </g>
   <g id="line2d_15">
    <path d="M 78.24704 81.303451 
L 80.849336 150.875494 
L 83.451373 81.274026 
L 86.315315 122.623836 
L 88.917304 116.048138 
L 91.519225 116.037136 
L 94.512047 79.834473 
L 96.983825 94.060448 
L 99.715904 135.922246 
L 102.577536 90.665853 
L 105.309952 135.971184 
L 107.784294 94.515817 
L 110.645326 122.206032 
L 113.376717 102.687638 
L 116.238475 90.685299 
L 118.850275 117.615993 
L 121.452701 116.118016 
L 124.31458 90.70404 
L 126.915951 150.739475 
L 132.11911 81.208916 
L 134.590326 130.583434 
L 137.58188 79.642271 
L 140.476883 95.769759 
L 143.468544 109.910251 
L 146.459249 109.774939 
L 149.060419 115.916543 
L 152.052182 109.924743 
L 154.535817 132.597889 
L 157.527827 109.959565 
L 160.129562 81.221641 
L 162.860328 135.731213 
L 165.331305 93.917879 
L 168.19286 90.653911 
L 170.7933 115.799499 
L 173.292711 135.127829 
L 175.893084 115.788597 
L 178.884822 109.921297 
L 181.876388 79.644 
L 184.477082 115.840145 
L 186.94813 93.930657 
L 189.808595 153.763903 
L 192.539284 102.576806 
L 195.139914 81.029593 
L 197.610465 93.842152 
L 200.210888 115.796644 
L 202.714753 99.691053 
L 205.445456 135.722036 
L 208.17612 135.716169 
L 210.906889 69.447572 
L 213.377211 130.437593 
L 215.917809 105.962363 
L 218.518493 115.838522 
L 221.12004 81.188912 
L 223.724869 116.503205 
L 226.379809 124.372583 
L 229.093002 99.798475 
L 231.695007 116.050696 
L 234.295799 115.855832 
L 236.894584 80.708366 
L 239.756515 122.335098 
L 242.356065 80.841509 
L 245.087205 135.785554 
L 247.947829 90.509891 
L 250.678351 135.695621 
L 253.148003 93.682185 
L 255.879906 135.896581 
L 258.349745 93.715577 
L 261.104474 73.483178 
L 264.095517 109.822765 
L 266.645713 107.571108 
L 269.45911 147.411912 
L 272.189799 69.434075 
L 274.79026 115.802773 
L 277.521551 135.807578 
L 280.124843 116.256909 
L 285.32573 115.671395 
L 288.056137 69.386101 
L 290.656628 115.80765 
L 293.257848 115.924576 
L 295.989377 135.842179 
L 298.719879 69.402158 
L 301.191577 94.046255 
L 303.724644 104.691378 
L 306.495837 141.533039 
L 309.265642 75.986596 
L 312.23924 137.7732 
L 314.971765 102.866404 
L 317.48353 101.055266 
L 320.342875 121.963382 
L 323.032785 96.045225 
L 325.589949 108.731555 
L 328.274322 128.857673 
L 331.0016 68.853737 
L 333.554721 108.059011 
L 336.244581 129.683087 
L 338.672145 86.05779 
L 341.348809 127.692576 
L 344.209451 122.149988 
L 346.809309 80.895097 
L 349.540098 135.734504 
L 352.268946 102.286231 
L 354.867936 80.74399 
L 357.673426 146.323955 
L 360.103761 86.568039 
L 362.787106 128.702784 
L 365.446345 91.000415 
L 368.164785 100.635477 
L 370.624928 128.770252 
L 373.193895 75.453416 
L 375.750797 108.687963 
L 378.308676 108.850334 
L 381.040572 135.895647 
L 383.678642 121.756723 
L 386.368041 62.310121 
L 389.099345 135.8095 
L 391.519411 84.671777 
L 394.333091 147.450768 
L 397.063476 69.382415 
L 399.662883 150.450168 
L 402.172192 64.565192 
L 404.731949 109.16172 
L 407.416211 128.841085 
L 410.273702 90.024118 
L 412.947773 127.299061 
L 415.503504 108.493561 
L 418.363274 122.024484 
L 420.913772 107.62152 
L 423.517613 81.587369 
L 426.400598 93.945267 
L 429.021105 118.997499 
L 431.752491 135.821406 
L 434.395225 122.483221 
L 436.948849 108.142814 
L 439.677196 69.03561 
L 442.354466 127.784384 
L 445.214588 90.432053 
L 447.772131 108.794576 
L 450.503675 135.844369 
L 453.362917 90.295719 
L 456.090681 135.2934 
L 458.560538 93.71879 
L 461.115024 108.286284 
L 463.543724 86.267177 
L 466.227058 128.70113 
L 468.911 128.792872 
L 471.510261 115.609844 
L 474.01849 100.44579 
L 476.61985 115.947003 
L 479.30196 94.773226 
L 481.899967 80.572736 
L 484.628811 135.450899 
L 487.10137 94.199344 
L 489.961044 90.362649 
L 492.94969 109.482951 
L 495.681931 135.945871 
L 498.062504 77.227058 
L 500.871927 146.865873 
L 503.599957 68.981625 
L 506.287529 129.339409 
L 508.834153 106.973773 
L 511.56562 135.833188 
L 514.251377 61.67124 
L 516.941612 129.739384 
L 519.493988 107.934939 
L 522.353033 90.265137 
L 525.344412 140.124966 
L 528.074024 102.40692 
L 530.875517 81.161076 
L 533.421088 142.350483 
L 535.990226 75.483946 
L 538.643394 124.099423 
L 541.357463 133.284423 
L 543.95695 115.646291 
L 546.466088 100.602522 
L 549.195552 102.3836 
L 551.751221 73.070445 
L 554.504398 138.968509 
L 556.99383 97.176255 
L 559.853037 121.943582 
L 562.401174 107.227008 
L 565.134288 102.959192 
L 567.949996 83.444177 
L 570.762495 147.288729 
L 573.479471 100.402349 
L 576.047058 75.207317 
L 581.415217 147.068131 
L 584.147087 69.634655 
L 586.877089 135.619707 
L 589.347846 93.878917 
L 591.935659 113.761604 
L 594.798136 90.796601 
L 597.345045 142.55591 
L 599.944914 80.897083 
L 602.677619 136.0133 
L 605.147611 93.742748 
L 608.006609 121.913421 
L 610.555055 107.278832 
L 613.155261 80.955653 
L 616.014002 153.534856 
L 618.745182 69.51733 
L 621.218481 130.922725 
L 626.331186 77.68905 
L 629.06328 135.924422 
L 631.704487 122.24571 
L 634.43262 102.173222 
L 637.030584 80.565081 
L 639.663034 120.877865 
L 642.522977 122.049387 
L 645.071834 107.347515 
L 647.640907 75.472334 
L 650.317124 127.624704 
L 653.178917 90.690703 
L 655.86729 129.459747 
L 658.729556 90.76393 
L 661.722547 110.098517 
L 664.214342 133.910453 
L 666.77509 73.983556 
L 669.364211 148.928768 
L 671.96325 80.752473 
L 674.704969 137.31987 
L 677.164225 91.823304 
L 680.022554 121.817091 
L 682.572089 107.460745 
L 685.307623 103.340074 
L 687.820321 101.215803 
L 690.673461 89.347936 
L 693.189047 137.688999 
L 695.791521 81.349889 
L 698.351633 109.22065 
L 700.906221 108.303298 
L 703.586179 128.191331 
L 706.451315 91.207245 
L 709.17844 135.200243 
L 712.036981 121.847623 
L 714.512064 94.647178 
L 717.110274 115.440906 
L 719.71378 116.291216 
L 722.205473 97.572166 
L 724.938893 103.007511 
L 727.448598 100.700334 
L 730.180278 135.864158 
L 732.692256 101.091917 
L 735.420443 102.181758 
L 738.02116 115.843917 
L 740.624722 81.538926 
L 743.22459 115.707427 
L 746.086127 122.278643 
L 748.684638 115.489365 
L 751.285193 115.817836 
L 753.758469 94.326619 
L 756.423465 91.956103 
L 758.991332 110.501824 
L 761.591376 115.735832 
L 764.450701 121.960399 
L 767.05126 115.818587 
L 769.527809 58.362885 
L 772.122451 114.866096 
L 774.888791 140.84546 
L 777.578221 62.315627 
L 780.176899 150.342864 
L 782.78082 116.35777 
L 785.511325 102.547826 
L 787.992959 95.805413 
L 793.318845 135.302172 
L 795.922372 116.294533 
L 798.651813 102.380018 
L 801.250425 80.67807 
L 803.728653 95.204024 
L 806.330338 115.999272 
L 809.059335 135.473327 
L 811.702415 54.053928 
L 814.303382 150.679982 
L 816.807525 99.739172 
L 819.412623 116.546091 
L 822.012902 115.773606 
L 824.482905 57.103764 
L 827.086407 116.290565 
L 829.734474 123.310832 
L 832.291267 108.669937 
L 834.841378 107.556931 
L 837.52731 129.092548 
L 840.258508 69.520587 
L 842.857497 115.566176 
L 845.367356 100.72681 
L 847.925821 108.947595 
L 847.925821 108.947595 
" clip-path="url(#p8aa99dad81)" style="fill: none; stroke: #1f77b4; stroke-width: 1.5; stroke-linecap: square"/>
   </g>
   <g id="line2d_16">
    <path d="M 78.24704 108.445766 
L 886.40976 108.445766 
" clip-path="url(#p8aa99dad81)" style="fill: none; stroke-dasharray: 5.55,2.4; stroke-dashoffset: 0; stroke: #0000ff; stroke-width: 1.5"/>
   </g>
   <g id="line2d_17">
    <path d="M 78.24704 324.759195 
L 83.451341 324.74761 
L 86.315238 312.225801 
L 88.917301 324.747801 
L 91.519141 324.72986 
L 94.511932 291.512545 
L 96.983673 313.744789 
L 99.715769 367.806098 
L 102.577407 280.424821 
L 105.309841 334.704741 
L 107.784158 313.973513 
L 110.645183 343.636907 
L 113.376692 301.504446 
L 116.238285 312.047658 
L 118.850136 325.529877 
L 121.452561 324.776803 
L 124.314416 343.691913 
L 126.915916 324.70262 
L 129.5173 324.693296 
L 132.118965 289.92923 
L 134.590127 350.317002 
L 137.581842 291.425482 
L 140.476838 314.60215 
L 143.468316 321.659993 
L 146.459191 351.877099 
L 149.060369 324.676787 
L 152.05213 291.429244 
L 154.535764 351.236522 
L 157.52777 321.697418 
L 160.129505 289.935704 
L 162.860166 367.719081 
L 165.331234 277.059776 
L 168.192791 343.672211 
L 170.793227 324.617188 
L 173.292644 316.177347 
L 175.89301 324.611583 
L 178.884742 321.677992 
L 181.876307 291.413386 
L 184.477007 324.638412 
L 186.948054 313.683086 
L 189.808515 343.599435 
L 192.539196 334.577224 
L 195.139719 289.822276 
L 197.610378 313.648475 
L 200.210807 324.616663 
L 202.714667 316.562906 
L 205.445365 334.578439 
L 208.17602 334.575283 
L 210.906799 301.442477 
L 213.377117 350.254406 
L 215.917028 319.64118 
L 218.51839 324.691512 
L 221.119244 289.853274 
L 223.724665 325.0168 
L 226.379581 328.902198 
L 229.092897 333.304518 
L 231.694116 324.680098 
L 234.294955 324.649532 
L 236.894406 289.721846 
L 239.755649 343.65135 
L 242.35595 289.801434 
L 245.087078 334.609759 
L 247.946864 311.907834 
L 250.677441 334.569641 
L 253.147873 313.628342 
L 255.878927 334.604364 
L 258.349228 313.616654 
L 261.10418 303.478028 
L 264.09538 321.640307 
L 266.644839 320.441878 
L 269.458132 340.416612 
L 272.188808 301.433758 
L 274.789998 324.677706 
L 277.521258 334.619317 
L 280.124702 324.858475 
L 282.725039 324.609259 
L 285.325583 324.625913 
L 288.055989 301.410751 
L 290.656323 359.413473 
L 293.25762 289.894744 
L 295.988195 334.569428 
L 298.718761 334.568824 
L 301.190413 277.120421 
L 303.724481 319.148215 
L 306.494648 337.411688 
L 309.264474 304.71293 
L 312.239065 350.883129 
L 314.97052 334.633579 
L 317.482339 281.219188 
L 320.342688 343.591977 
L 323.032599 297.917773 
L 325.589764 321.083737 
L 328.272974 331.059021 
L 331.000347 301.152697 
L 333.55365 356.208009 
L 336.24417 297.971116 
L 338.671777 309.750764 
L 341.347727 364.330873 
L 344.20795 311.941649 
L 346.807765 324.567335 
L 349.538625 301.449327 
L 352.268131 334.491623 
L 354.867724 289.735109 
L 357.671893 339.788618 
L 360.103556 310.123865 
L 362.785642 330.974181 
L 365.444947 329.239838 
L 368.164571 300.490864 
L 370.623432 349.400957 
L 373.19246 286.835668 
L 375.749276 321.054722 
L 378.30768 321.186551 
L 381.039133 334.633394 
L 383.677174 327.593877 
L 386.367818 331.618126 
L 389.099114 334.621965 
L 391.517793 271.506692 
L 394.33157 340.449839 
L 397.062129 334.568307 
L 399.662633 324.622665 
L 402.171948 280.967513 
L 404.730485 321.197536 
L 407.415648 331.206237 
L 410.272282 311.663362 
L 412.946147 330.351777 
L 415.503251 356.471421 
L 418.362818 311.89089 
L 420.913325 320.529332 
L 423.515825 290.007348 
L 426.399185 313.718967 
L 429.020648 326.292197 
L 431.750803 334.538883 
L 434.394918 328.066754 
L 436.948366 320.774563 
L 439.676736 301.237611 
L 442.352666 330.508444 
L 445.21328 343.609594 
L 447.771646 285.807965 
L 450.502081 367.705373 
L 453.361346 311.867477 
L 456.090326 301.289517 
L 458.560253 313.583398 
L 461.113187 320.731761 
L 463.542144 309.875019 
L 466.22676 331.165051 
L 468.909158 330.997712 
L 471.508666 324.542687 
L 474.018195 317.052834 
L 476.617974 324.564373 
L 479.300107 330.977783 
L 481.89833 289.606673 
L 484.628514 334.540977 
L 487.099442 350.299647 
L 489.959368 311.918704 
L 492.949372 321.555563 
L 495.679976 334.571602 
L 498.060502 267.308729 
L 500.870201 340.169718 
L 503.599643 334.486948 
L 506.285146 297.531132 
L 508.83245 320.261686 
L 511.563614 334.612379 
L 514.249551 331.264422 
L 516.939798 297.947233 
L 519.492232 356.147655 
L 522.352713 280.32249 
L 525.342293 351.798461 
L 528.072151 301.364153 
L 530.873705 307.303228 
L 533.420743 355.772127 
L 535.987413 286.609099 
L 538.63969 328.698766 
L 541.356864 333.58866 
L 543.956597 324.560751 
L 546.463546 316.830103 
L 549.193723 334.540512 
L 551.750532 321.054098 
L 554.502142 303.198715 
L 556.993485 351.800349 
L 559.852673 311.861535 
L 562.398723 320.15664 
L 565.131882 301.644464 
L 567.947961 308.469573 
L 570.762131 340.476829 
L 573.477029 333.421136 
L 576.04477 321.958298 
L 578.602274 285.724566 
L 581.41484 340.366764 
L 584.143944 334.462272 
L 586.875133 334.614128 
L 589.347197 277.163124 
L 591.933466 323.473334 
L 594.796 312.120517 
L 597.344576 355.879295 
L 599.94421 289.738967 
L 602.67448 334.547268 
L 605.145584 350.31272 
L 608.005944 311.952245 
L 610.552817 320.225589 
L 613.152909 289.78187 
L 616.013517 343.609211 
L 618.744789 301.484321 
L 621.215822 350.307512 
L 623.945996 301.391018 
L 626.330778 305.733911 
L 629.06061 334.515312 
L 631.701943 327.850475 
L 634.430352 334.41157 
L 637.030155 289.754863 
L 639.659784 326.935377 
L 642.520724 343.631245 
L 645.071107 320.518998 
L 647.638503 286.679002 
L 650.314753 330.532719 
L 653.178368 312.20398 
L 655.866863 331.456835 
L 658.726689 311.910987 
L 661.719875 321.780822 
L 664.211951 351.853765 
L 666.774608 286.222637 
L 669.360793 358.461413 
L 671.960774 324.5806 
L 674.704183 302.510469 
L 677.161686 312.471934 
L 680.022022 343.591197 
L 682.571633 320.454513 
L 685.303352 301.522255 
L 687.81732 317.434921 
L 690.67094 343.144376 
L 693.188575 317.749473 
L 695.788435 324.570951 
L 698.349026 286.023158 
L 700.905736 321.045899 
L 703.58305 330.613343 
L 706.448353 312.334421 
L 709.175858 367.527275 
L 712.03649 311.973362 
L 714.508542 313.772363 
L 717.109794 324.682699 
L 719.710549 324.642848 
L 722.202444 315.521533 
L 724.935963 334.783682 
L 727.445981 317.094943 
L 730.177023 301.464779 
L 735.419634 334.55812 
L 738.020677 324.665929 
L 740.620752 289.780304 
L 743.221502 359.441282 
L 746.082885 312.031426 
L 748.68409 324.678963 
L 751.284355 324.603505 
L 753.755713 313.710693 
L 756.422937 295.914431 
L 758.987153 356.962317 
L 761.588648 324.70218 
L 764.449787 312.012568 
L 767.050381 324.629916 
L 769.524537 313.959158 
L 772.12192 289.527813 
L 774.884944 336.904982 
L 777.574969 297.927723 
L 780.176384 359.485759 
L 782.777064 324.636795 
L 785.508048 334.599237 
L 787.987363 314.415881 
L 790.587408 324.585789 
L 793.317587 301.391535 
L 795.917989 324.614462 
L 798.648192 334.542369 
L 801.248847 324.634799 
L 803.724796 314.11807 
L 806.325945 324.674512 
L 809.058046 301.554687 
L 811.697601 327.711963 
L 814.298673 324.668259 
L 816.805915 316.855384 
L 819.40728 324.691772 
L 822.008572 324.685941 
L 824.481587 313.857944 
L 827.081803 289.793551 
L 829.729719 328.361536 
L 832.28689 321.084131 
L 834.840013 320.747545 
L 837.525969 331.265886 
L 840.253708 301.1839 
L 842.853499 359.377117 
L 845.362738 317.027789 
L 847.924518 286.138027 
L 847.924518 286.138027 
" clip-path="url(#p8aa99dad81)" style="fill: none; stroke: #ff7f0e; stroke-width: 1.5; stroke-linecap: square"/>
   </g>
   <g id="line2d_18">
    <path d="M 78.24704 320.858689 
L 886.40976 320.858689 
" clip-path="url(#p8aa99dad81)" style="fill: none; stroke-dasharray: 5.55,2.4; stroke-dashoffset: 0; stroke: #ffa500; stroke-width: 1.5"/>
   </g>
   <g id="patch_3">
    <path d="M 78.24704 533.43564 
L 78.24704 38.36632 
" style="fill: none; stroke: #000000; stroke-width: 0.8; stroke-linejoin: miter; stroke-linecap: square"/>
   </g>
   <g id="patch_4">
    <path d="M 886.40976 533.43564 
L 886.40976 38.36632 
" style="fill: none; stroke: #000000; stroke-width: 0.8; stroke-linejoin: miter; stroke-linecap: square"/>
   </g>
   <g id="patch_5">
    <path d="M 78.24704 533.43564 
L 886.40976 533.43564 
" style="fill: none; stroke: #000000; stroke-width: 0.8; stroke-linejoin: miter; stroke-linecap: square"/>
   </g>
   <g id="patch_6">
    <path d="M 78.24704 38.36632 
L 886.40976 38.36632 
" style="fill: none; stroke: #000000; stroke-width: 0.8; stroke-linejoin: miter; stroke-linecap: square"/>
   </g>
   <g id="text_17">
    <!-- Observed and Filtered Packet Rates -->
    <g transform="translate(333.206087 32.36632) scale(0.168 -0.168)">
     <defs>
      <path id="DejaVuSans-4f" d="M 2522 4238 
Q 1834 4238 1429 3725 
Q 1025 3213 1025 2328 
Q 1025 1447 1429 934 
Q 1834 422 2522 422 
Q 3209 422 3611 934 
Q 4013 1447 4013 2328 
Q 4013 3213 3611 3725 
Q 3209 4238 2522 4238 
z
M 2522 4750 
Q 3503 4750 4090 4092 
Q 4678 3434 4678 2328 
Q 4678 1225 4090 567 
Q 3503 -91 2522 -91 
Q 1538 -91 948 565 
Q 359 1222 359 2328 
Q 359 3434 948 4092 
Q 1538 4750 2522 4750 
z
" transform="scale(0.015625)"/>
      <path id="DejaVuSans-62" d="M 3116 1747 
Q 3116 2381 2855 2742 
Q 2594 3103 2138 3103 
Q 1681 3103 1420 2742 
Q 1159 2381 1159 1747 
Q 1159 1113 1420 752 
Q 1681 391 2138 391 
Q 2594 391 2855 752 
Q 3116 1113 3116 1747 
z
M 1159 2969 
Q 1341 3281 1617 3432 
Q 1894 3584 2278 3584 
Q 2916 3584 3314 3078 
Q 3713 2572 3713 1747 
Q 3713 922 3314 415 
Q 2916 -91 2278 -91 
Q 1894 -91 1617 61 
Q 1341 213 1159 525 
L 1159 0 
L 581 0 
L 581 4863 
L 1159 4863 
L 1159 2969 
z
" transform="scale(0.015625)"/>
      <path id="DejaVuSans-76" d="M 191 3500 
L 800 3500 
L 1894 563 
L 2988 3500 
L 3597 3500 
L 2284 0 
L 1503 0 
L 191 3500 
z
" transform="scale(0.015625)"/>
      <path id="DejaVuSans-46" d="M 628 4666 
L 3309 4666 
L 3309 4134 
L 1259 4134 
L 1259 2759 
L 3109 2759 
L 3109 2228 
L 1259 2228 
L 1259 0 
L 628 0 
L 628 4666 
z
" transform="scale(0.015625)"/>
      <path id="DejaVuSans-6c" d="M 603 4863 
L 1178 4863 
L 1178 0 
L 603 0 
L 603 4863 
z
" transform="scale(0.015625)"/>
      <path id="DejaVuSans-52" d="M 2841 2188 
Q 3044 2119 3236 1894 
Q 3428 1669 3622 1275 
L 4263 0 
L 3584 0 
L 2988 1197 
Q 2756 1666 2539 1819 
Q 2322 1972 1947 1972 
L 1259 1972 
L 1259 0 
L 628 0 
L 628 4666 
L 2053 4666 
Q 2853 4666 3247 4331 
Q 3641 3997 3641 3322 
Q 3641 2881 3436 2590 
Q 3231 2300 2841 2188 
z
M 1259 4147 
L 1259 2491 
L 2053 2491 
Q 2509 2491 2742 2702 
Q 2975 2913 2975 3322 
Q 2975 3731 2742 3939 
Q 2509 4147 2053 4147 
L 1259 4147 
z
" transform="scale(0.015625)"/>
     </defs>
     <use xlink:href="#DejaVuSans-4f"/>
     <use xlink:href="#DejaVuSans-62" x="78.710938"/>
     <use xlink:href="#DejaVuSans-73" x="142.1875"/>
     <use xlink:href="#DejaVuSans-65" x="194.287109"/>
     <use xlink:href="#DejaVuSans-72" x="255.810547"/>
     <use xlink:href="#DejaVuSans-76" x="296.923828"/>
     <use xlink:href="#DejaVuSans-65" x="356.103516"/>
     <use xlink:href="#DejaVuSans-64" x="417.626953"/>
     <use xlink:href="#DejaVuSans-20" x="481.103516"/>
     <use xlink:href="#DejaVuSans-61" x="512.890625"/>
     <use xlink:href="#DejaVuSans-6e" x="574.169922"/>
     <use xlink:href="#DejaVuSans-64" x="637.548828"/>
     <use xlink:href="#DejaVuSans-20" x="701.025391"/>
     <use xlink:href="#DejaVuSans-46" x="732.8125"/>
     <use xlink:href="#DejaVuSans-69" x="783.082031"/>
     <use xlink:href="#DejaVuSans-6c" x="810.865234"/>
     <use xlink:href="#DejaVuSans-74" x="838.648438"/>
     <use xlink:href="#DejaVuSans-65" x="877.857422"/>
     <use xlink:href="#DejaVuSans-72" x="939.380859"/>
     <use xlink:href="#DejaVuSans-65" x="978.244141"/>
     <use xlink:href="#DejaVuSans-64" x="1039.767578"/>
     <use xlink:href="#DejaVuSans-20" x="1103.244141"/>
     <use xlink:href="#DejaVuSans-50" x="1135.03125"/>
     <use xlink:href="#DejaVuSans-61" x="1190.833984"/>
     <use xlink:href="#DejaVuSans-63" x="1252.113281"/>
     <use xlink:href="#DejaVuSans-6b" x="1307.09375"/>
     <use xlink:href="#DejaVuSans-65" x="1361.378906"/>
     <use xlink:href="#DejaVuSans-74" x="1422.902344"/>
     <use xlink:href="#DejaVuSans-20" x="1462.111328"/>
     <use xlink:href="#DejaVuSans-52" x="1493.898438"/>
     <use xlink:href="#DejaVuSans-61" x="1561.130859"/>
     <use xlink:href="#DejaVuSans-74" x="1622.410156"/>
     <use xlink:href="#DejaVuSans-65" x="1661.619141"/>
     <use xlink:href="#DejaVuSans-73" x="1723.142578"/>
    </g>
   </g>
   <g id="legend_1">
    <g id="patch_7">
     <path d="M 896.20976 329.09973 
L 1163.045385 329.09973 
Q 1165.845385 329.09973 1165.845385 326.29973 
L 1165.845385 245.50223 
Q 1165.845385 242.70223 1163.045385 242.70223 
L 896.20976 242.70223 
Q 893.40976 242.70223 893.40976 245.50223 
L 893.40976 326.29973 
Q 893.40976 329.09973 896.20976 329.09973 
z
" style="fill: #ffffff; opacity: 0.8; stroke: #cccccc; stroke-linejoin: miter"/>
    </g>
    <g id="line2d_19">
     <path d="M 899.00976 254.040042 
L 913.00976 254.040042 
L 927.00976 254.040042 
" style="fill: none; stroke: #1f77b4; stroke-width: 1.5; stroke-linecap: square"/>
    </g>
    <g id="text_18">
     <!-- Filtered packets Cam 1 -->
     <g transform="translate(938.20976 258.940042) scale(0.14 -0.14)">
      <defs>
       <path id="DejaVuSans-43" d="M 4122 4306 
L 4122 3641 
Q 3803 3938 3442 4084 
Q 3081 4231 2675 4231 
Q 1875 4231 1450 3742 
Q 1025 3253 1025 2328 
Q 1025 1406 1450 917 
Q 1875 428 2675 428 
Q 3081 428 3442 575 
Q 3803 722 4122 1019 
L 4122 359 
Q 3791 134 3420 21 
Q 3050 -91 2638 -91 
Q 1578 -91 968 557 
Q 359 1206 359 2328 
Q 359 3453 968 4101 
Q 1578 4750 2638 4750 
Q 3056 4750 3426 4639 
Q 3797 4528 4122 4306 
z
" transform="scale(0.015625)"/>
      </defs>
      <use xlink:href="#DejaVuSans-46"/>
      <use xlink:href="#DejaVuSans-69" x="50.269531"/>
      <use xlink:href="#DejaVuSans-6c" x="78.052734"/>
      <use xlink:href="#DejaVuSans-74" x="105.835938"/>
      <use xlink:href="#DejaVuSans-65" x="145.044922"/>
      <use xlink:href="#DejaVuSans-72" x="206.568359"/>
      <use xlink:href="#DejaVuSans-65" x="245.431641"/>
      <use xlink:href="#DejaVuSans-64" x="306.955078"/>
      <use xlink:href="#DejaVuSans-20" x="370.431641"/>
      <use xlink:href="#DejaVuSans-70" x="402.21875"/>
      <use xlink:href="#DejaVuSans-61" x="465.695312"/>
      <use xlink:href="#DejaVuSans-63" x="526.974609"/>
      <use xlink:href="#DejaVuSans-6b" x="581.955078"/>
      <use xlink:href="#DejaVuSans-65" x="636.240234"/>
      <use xlink:href="#DejaVuSans-74" x="697.763672"/>
      <use xlink:href="#DejaVuSans-73" x="736.972656"/>
      <use xlink:href="#DejaVuSans-20" x="789.072266"/>
      <use xlink:href="#DejaVuSans-43" x="820.859375"/>
      <use xlink:href="#DejaVuSans-61" x="890.683594"/>
      <use xlink:href="#DejaVuSans-6d" x="951.962891"/>
      <use xlink:href="#DejaVuSans-20" x="1049.375"/>
      <use xlink:href="#DejaVuSans-31" x="1081.162109"/>
     </g>
    </g>
    <g id="line2d_20">
     <path d="M 899.00976 274.589417 
L 913.00976 274.589417 
L 927.00976 274.589417 
" style="fill: none; stroke-dasharray: 5.55,2.4; stroke-dashoffset: 0; stroke: #0000ff; stroke-width: 1.5"/>
    </g>
    <g id="text_19">
     <!-- Filtered packets Cam 1 average -->
     <g transform="translate(938.20976 279.489417) scale(0.14 -0.14)">
      <defs>
       <path id="DejaVuSans-67" d="M 2906 1791 
Q 2906 2416 2648 2759 
Q 2391 3103 1925 3103 
Q 1463 3103 1205 2759 
Q 947 2416 947 1791 
Q 947 1169 1205 825 
Q 1463 481 1925 481 
Q 2391 481 2648 825 
Q 2906 1169 2906 1791 
z
M 3481 434 
Q 3481 -459 3084 -895 
Q 2688 -1331 1869 -1331 
Q 1566 -1331 1297 -1286 
Q 1028 -1241 775 -1147 
L 775 -588 
Q 1028 -725 1275 -790 
Q 1522 -856 1778 -856 
Q 2344 -856 2625 -561 
Q 2906 -266 2906 331 
L 2906 616 
Q 2728 306 2450 153 
Q 2172 0 1784 0 
Q 1141 0 747 490 
Q 353 981 353 1791 
Q 353 2603 747 3093 
Q 1141 3584 1784 3584 
Q 2172 3584 2450 3431 
Q 2728 3278 2906 2969 
L 2906 3500 
L 3481 3500 
L 3481 434 
z
" transform="scale(0.015625)"/>
      </defs>
      <use xlink:href="#DejaVuSans-46"/>
      <use xlink:href="#DejaVuSans-69" x="50.269531"/>
      <use xlink:href="#DejaVuSans-6c" x="78.052734"/>
      <use xlink:href="#DejaVuSans-74" x="105.835938"/>
      <use xlink:href="#DejaVuSans-65" x="145.044922"/>
      <use xlink:href="#DejaVuSans-72" x="206.568359"/>
      <use xlink:href="#DejaVuSans-65" x="245.431641"/>
      <use xlink:href="#DejaVuSans-64" x="306.955078"/>
      <use xlink:href="#DejaVuSans-20" x="370.431641"/>
      <use xlink:href="#DejaVuSans-70" x="402.21875"/>
      <use xlink:href="#DejaVuSans-61" x="465.695312"/>
      <use xlink:href="#DejaVuSans-63" x="526.974609"/>
      <use xlink:href="#DejaVuSans-6b" x="581.955078"/>
      <use xlink:href="#DejaVuSans-65" x="636.240234"/>
      <use xlink:href="#DejaVuSans-74" x="697.763672"/>
      <use xlink:href="#DejaVuSans-73" x="736.972656"/>
      <use xlink:href="#DejaVuSans-20" x="789.072266"/>
      <use xlink:href="#DejaVuSans-43" x="820.859375"/>
      <use xlink:href="#DejaVuSans-61" x="890.683594"/>
      <use xlink:href="#DejaVuSans-6d" x="951.962891"/>
      <use xlink:href="#DejaVuSans-20" x="1049.375"/>
      <use xlink:href="#DejaVuSans-31" x="1081.162109"/>
      <use xlink:href="#DejaVuSans-20" x="1144.785156"/>
      <use xlink:href="#DejaVuSans-61" x="1176.572266"/>
      <use xlink:href="#DejaVuSans-76" x="1237.851562"/>
      <use xlink:href="#DejaVuSans-65" x="1297.03125"/>
      <use xlink:href="#DejaVuSans-72" x="1358.554688"/>
      <use xlink:href="#DejaVuSans-61" x="1399.667969"/>
      <use xlink:href="#DejaVuSans-67" x="1460.947266"/>
      <use xlink:href="#DejaVuSans-65" x="1524.423828"/>
     </g>
    </g>
    <g id="line2d_21">
     <path d="M 899.00976 295.138792 
L 913.00976 295.138792 
L 927.00976 295.138792 
" style="fill: none; stroke: #ff7f0e; stroke-width: 1.5; stroke-linecap: square"/>
    </g>
    <g id="text_20">
     <!-- Filtered packets Cam 2 -->
     <g transform="translate(938.20976 300.038792) scale(0.14 -0.14)">
      <use xlink:href="#DejaVuSans-46"/>
      <use xlink:href="#DejaVuSans-69" x="50.269531"/>
      <use xlink:href="#DejaVuSans-6c" x="78.052734"/>
      <use xlink:href="#DejaVuSans-74" x="105.835938"/>
      <use xlink:href="#DejaVuSans-65" x="145.044922"/>
      <use xlink:href="#DejaVuSans-72" x="206.568359"/>
      <use xlink:href="#DejaVuSans-65" x="245.431641"/>
      <use xlink:href="#DejaVuSans-64" x="306.955078"/>
      <use xlink:href="#DejaVuSans-20" x="370.431641"/>
      <use xlink:href="#DejaVuSans-70" x="402.21875"/>
      <use xlink:href="#DejaVuSans-61" x="465.695312"/>
      <use xlink:href="#DejaVuSans-63" x="526.974609"/>
      <use xlink:href="#DejaVuSans-6b" x="581.955078"/>
      <use xlink:href="#DejaVuSans-65" x="636.240234"/>
      <use xlink:href="#DejaVuSans-74" x="697.763672"/>
      <use xlink:href="#DejaVuSans-73" x="736.972656"/>
      <use xlink:href="#DejaVuSans-20" x="789.072266"/>
      <use xlink:href="#DejaVuSans-43" x="820.859375"/>
      <use xlink:href="#DejaVuSans-61" x="890.683594"/>
      <use xlink:href="#DejaVuSans-6d" x="951.962891"/>
      <use xlink:href="#DejaVuSans-20" x="1049.375"/>
      <use xlink:href="#DejaVuSans-32" x="1081.162109"/>
     </g>
    </g>
    <g id="line2d_22">
     <path d="M 899.00976 315.688167 
L 913.00976 315.688167 
L 927.00976 315.688167 
" style="fill: none; stroke-dasharray: 5.55,2.4; stroke-dashoffset: 0; stroke: #ffa500; stroke-width: 1.5"/>
    </g>
    <g id="text_21">
     <!-- Filtered packets Cam 2 average -->
     <g transform="translate(938.20976 320.588167) scale(0.14 -0.14)">
      <use xlink:href="#DejaVuSans-46"/>
      <use xlink:href="#DejaVuSans-69" x="50.269531"/>
      <use xlink:href="#DejaVuSans-6c" x="78.052734"/>
      <use xlink:href="#DejaVuSans-74" x="105.835938"/>
      <use xlink:href="#DejaVuSans-65" x="145.044922"/>
      <use xlink:href="#DejaVuSans-72" x="206.568359"/>
      <use xlink:href="#DejaVuSans-65" x="245.431641"/>
      <use xlink:href="#DejaVuSans-64" x="306.955078"/>
      <use xlink:href="#DejaVuSans-20" x="370.431641"/>
      <use xlink:href="#DejaVuSans-70" x="402.21875"/>
      <use xlink:href="#DejaVuSans-61" x="465.695312"/>
      <use xlink:href="#DejaVuSans-63" x="526.974609"/>
      <use xlink:href="#DejaVuSans-6b" x="581.955078"/>
      <use xlink:href="#DejaVuSans-65" x="636.240234"/>
      <use xlink:href="#DejaVuSans-74" x="697.763672"/>
      <use xlink:href="#DejaVuSans-73" x="736.972656"/>
      <use xlink:href="#DejaVuSans-20" x="789.072266"/>
      <use xlink:href="#DejaVuSans-43" x="820.859375"/>
      <use xlink:href="#DejaVuSans-61" x="890.683594"/>
      <use xlink:href="#DejaVuSans-6d" x="951.962891"/>
      <use xlink:href="#DejaVuSans-20" x="1049.375"/>
      <use xlink:href="#DejaVuSans-32" x="1081.162109"/>
      <use xlink:href="#DejaVuSans-20" x="1144.785156"/>
      <use xlink:href="#DejaVuSans-61" x="1176.572266"/>
      <use xlink:href="#DejaVuSans-76" x="1237.851562"/>
      <use xlink:href="#DejaVuSans-65" x="1297.03125"/>
      <use xlink:href="#DejaVuSans-72" x="1358.554688"/>
      <use xlink:href="#DejaVuSans-61" x="1399.667969"/>
      <use xlink:href="#DejaVuSans-67" x="1460.947266"/>
      <use xlink:href="#DejaVuSans-65" x="1524.423828"/>
     </g>
    </g>
   </g>
  </g>
 </g>
 <defs>
  <clipPath id="p8aa99dad81">
   <rect x="78.24704" y="38.36632" width="808.16272" height="495.06932"/>
  </clipPath>
 </defs>
</svg>
