<?xml version="1.0" encoding="utf-8" standalone="no"?>
<!DOCTYPE svg PUBLIC "-//W3C//DTD SVG 1.1//EN"
  "http://www.w3.org/Graphics/SVG/1.1/DTD/svg11.dtd">
<svg xmlns:xlink="http://www.w3.org/1999/xlink" width="1186.56pt" height="588.24pt" viewBox="0 0 1186.56 588.24" xmlns="http://www.w3.org/2000/svg" version="1.1">
 <metadata>
  <rdf:RDF xmlns:dc="http://purl.org/dc/elements/1.1/" xmlns:cc="http://creativecommons.org/ns#" xmlns:rdf="http://www.w3.org/1999/02/22-rdf-syntax-ns#">
   <cc:Work>
    <dc:type rdf:resource="http://purl.org/dc/dcmitype/StillImage"/>
    <dc:date>2023-04-13T17:57:21.925031</dc:date>
    <dc:format>image/svg+xml</dc:format>
    <dc:creator>
     <cc:Agent>
      <dc:title>Matplotlib v3.6.2, https://matplotlib.org/</dc:title>
     </cc:Agent>
    </dc:creator>
   </cc:Work>
  </rdf:RDF>
 </metadata>
 <defs>
  <style type="text/css">*{stroke-linejoin: round; stroke-linecap: butt}</style>
 </defs>
 <g id="figure_1">
  <g id="patch_1">
   <path d="M 0 588.24 
L 1186.56 588.24 
L 1186.56 0 
L 0 0 
z
" style="fill: #ffffff"/>
  </g>
  <g id="axes_1">
   <g id="patch_2">
    <path d="M 75.0664 538.27228 
L 936.009851 538.27228 
L 936.009851 37.64736 
L 75.0664 37.64736 
z
" style="fill: #ffffff"/>
   </g>
   <g id="matplotlib.axis_1">
    <g id="xtick_1">
     <g id="line2d_1">
      <defs>
       <path id="mb83b50db4e" d="M 0 0 
L 0 3.5 
" style="stroke: #000000; stroke-width: 0.8"/>
      </defs>
      <g>
       <use xlink:href="#mb83b50db4e" x="75.0664" y="538.27228" style="stroke: #000000; stroke-width: 0.8"/>
      </g>
     </g>
     <g id="text_1">
      <!-- 0 -->
      <g transform="translate(71.88515 552.870717) scale(0.1 -0.1)">
       <defs>
        <path id="DejaVuSans-30" d="M 2034 4250 
Q 1547 4250 1301 3770 
Q 1056 3291 1056 2328 
Q 1056 1369 1301 889 
Q 1547 409 2034 409 
Q 2525 409 2770 889 
Q 3016 1369 3016 2328 
Q 3016 3291 2770 3770 
Q 2525 4250 2034 4250 
z
M 2034 4750 
Q 2819 4750 3233 4129 
Q 3647 3509 3647 2328 
Q 3647 1150 3233 529 
Q 2819 -91 2034 -91 
Q 1250 -91 836 529 
Q 422 1150 422 2328 
Q 422 3509 836 4129 
Q 1250 4750 2034 4750 
z
" transform="scale(0.015625)"/>
       </defs>
       <use xlink:href="#DejaVuSans-30"/>
      </g>
     </g>
    </g>
    <g id="xtick_2">
     <g id="line2d_2">
      <g>
       <use xlink:href="#mb83b50db4e" x="209.432304" y="538.27228" style="stroke: #000000; stroke-width: 0.8"/>
      </g>
     </g>
     <g id="text_2">
      <!-- 10 -->
      <g transform="translate(203.069804 552.870717) scale(0.1 -0.1)">
       <defs>
        <path id="DejaVuSans-31" d="M 794 531 
L 1825 531 
L 1825 4091 
L 703 3866 
L 703 4441 
L 1819 4666 
L 2450 4666 
L 2450 531 
L 3481 531 
L 3481 0 
L 794 0 
L 794 531 
z
" transform="scale(0.015625)"/>
       </defs>
       <use xlink:href="#DejaVuSans-31"/>
       <use xlink:href="#DejaVuSans-30" x="63.623047"/>
      </g>
     </g>
    </g>
    <g id="xtick_3">
     <g id="line2d_3">
      <g>
       <use xlink:href="#mb83b50db4e" x="343.798208" y="538.27228" style="stroke: #000000; stroke-width: 0.8"/>
      </g>
     </g>
     <g id="text_3">
      <!-- 20 -->
      <g transform="translate(337.435708 552.870717) scale(0.1 -0.1)">
       <defs>
        <path id="DejaVuSans-32" d="M 1228 531 
L 3431 531 
L 3431 0 
L 469 0 
L 469 531 
Q 828 903 1448 1529 
Q 2069 2156 2228 2338 
Q 2531 2678 2651 2914 
Q 2772 3150 2772 3378 
Q 2772 3750 2511 3984 
Q 2250 4219 1831 4219 
Q 1534 4219 1204 4116 
Q 875 4013 500 3803 
L 500 4441 
Q 881 4594 1212 4672 
Q 1544 4750 1819 4750 
Q 2544 4750 2975 4387 
Q 3406 4025 3406 3419 
Q 3406 3131 3298 2873 
Q 3191 2616 2906 2266 
Q 2828 2175 2409 1742 
Q 1991 1309 1228 531 
z
" transform="scale(0.015625)"/>
       </defs>
       <use xlink:href="#DejaVuSans-32"/>
       <use xlink:href="#DejaVuSans-30" x="63.623047"/>
      </g>
     </g>
    </g>
    <g id="xtick_4">
     <g id="line2d_4">
      <g>
       <use xlink:href="#mb83b50db4e" x="478.164113" y="538.27228" style="stroke: #000000; stroke-width: 0.8"/>
      </g>
     </g>
     <g id="text_4">
      <!-- 30 -->
      <g transform="translate(471.801613 552.870717) scale(0.1 -0.1)">
       <defs>
        <path id="DejaVuSans-33" d="M 2597 2516 
Q 3050 2419 3304 2112 
Q 3559 1806 3559 1356 
Q 3559 666 3084 287 
Q 2609 -91 1734 -91 
Q 1441 -91 1130 -33 
Q 819 25 488 141 
L 488 750 
Q 750 597 1062 519 
Q 1375 441 1716 441 
Q 2309 441 2620 675 
Q 2931 909 2931 1356 
Q 2931 1769 2642 2001 
Q 2353 2234 1838 2234 
L 1294 2234 
L 1294 2753 
L 1863 2753 
Q 2328 2753 2575 2939 
Q 2822 3125 2822 3475 
Q 2822 3834 2567 4026 
Q 2313 4219 1838 4219 
Q 1578 4219 1281 4162 
Q 984 4106 628 3988 
L 628 4550 
Q 988 4650 1302 4700 
Q 1616 4750 1894 4750 
Q 2613 4750 3031 4423 
Q 3450 4097 3450 3541 
Q 3450 3153 3228 2886 
Q 3006 2619 2597 2516 
z
" transform="scale(0.015625)"/>
       </defs>
       <use xlink:href="#DejaVuSans-33"/>
       <use xlink:href="#DejaVuSans-30" x="63.623047"/>
      </g>
     </g>
    </g>
    <g id="xtick_5">
     <g id="line2d_5">
      <g>
       <use xlink:href="#mb83b50db4e" x="612.530017" y="538.27228" style="stroke: #000000; stroke-width: 0.8"/>
      </g>
     </g>
     <g id="text_5">
      <!-- 40 -->
      <g transform="translate(606.167517 552.870717) scale(0.1 -0.1)">
       <defs>
        <path id="DejaVuSans-34" d="M 2419 4116 
L 825 1625 
L 2419 1625 
L 2419 4116 
z
M 2253 4666 
L 3047 4666 
L 3047 1625 
L 3713 1625 
L 3713 1100 
L 3047 1100 
L 3047 0 
L 2419 0 
L 2419 1100 
L 313 1100 
L 313 1709 
L 2253 4666 
z
" transform="scale(0.015625)"/>
       </defs>
       <use xlink:href="#DejaVuSans-34"/>
       <use xlink:href="#DejaVuSans-30" x="63.623047"/>
      </g>
     </g>
    </g>
    <g id="xtick_6">
     <g id="line2d_6">
      <g>
       <use xlink:href="#mb83b50db4e" x="746.895921" y="538.27228" style="stroke: #000000; stroke-width: 0.8"/>
      </g>
     </g>
     <g id="text_6">
      <!-- 50 -->
      <g transform="translate(740.533421 552.870717) scale(0.1 -0.1)">
       <defs>
        <path id="DejaVuSans-35" d="M 691 4666 
L 3169 4666 
L 3169 4134 
L 1269 4134 
L 1269 2991 
Q 1406 3038 1543 3061 
Q 1681 3084 1819 3084 
Q 2600 3084 3056 2656 
Q 3513 2228 3513 1497 
Q 3513 744 3044 326 
Q 2575 -91 1722 -91 
Q 1428 -91 1123 -41 
Q 819 9 494 109 
L 494 744 
Q 775 591 1075 516 
Q 1375 441 1709 441 
Q 2250 441 2565 725 
Q 2881 1009 2881 1497 
Q 2881 1984 2565 2268 
Q 2250 2553 1709 2553 
Q 1456 2553 1204 2497 
Q 953 2441 691 2322 
L 691 4666 
z
" transform="scale(0.015625)"/>
       </defs>
       <use xlink:href="#DejaVuSans-35"/>
       <use xlink:href="#DejaVuSans-30" x="63.623047"/>
      </g>
     </g>
    </g>
    <g id="xtick_7">
     <g id="line2d_7">
      <g>
       <use xlink:href="#mb83b50db4e" x="881.261825" y="538.27228" style="stroke: #000000; stroke-width: 0.8"/>
      </g>
     </g>
     <g id="text_7">
      <!-- 60 -->
      <g transform="translate(874.899325 552.870717) scale(0.1 -0.1)">
       <defs>
        <path id="DejaVuSans-36" d="M 2113 2584 
Q 1688 2584 1439 2293 
Q 1191 2003 1191 1497 
Q 1191 994 1439 701 
Q 1688 409 2113 409 
Q 2538 409 2786 701 
Q 3034 994 3034 1497 
Q 3034 2003 2786 2293 
Q 2538 2584 2113 2584 
z
M 3366 4563 
L 3366 3988 
Q 3128 4100 2886 4159 
Q 2644 4219 2406 4219 
Q 1781 4219 1451 3797 
Q 1122 3375 1075 2522 
Q 1259 2794 1537 2939 
Q 1816 3084 2150 3084 
Q 2853 3084 3261 2657 
Q 3669 2231 3669 1497 
Q 3669 778 3244 343 
Q 2819 -91 2113 -91 
Q 1303 -91 875 529 
Q 447 1150 447 2328 
Q 447 3434 972 4092 
Q 1497 4750 2381 4750 
Q 2619 4750 2861 4703 
Q 3103 4656 3366 4563 
z
" transform="scale(0.015625)"/>
       </defs>
       <use xlink:href="#DejaVuSans-36"/>
       <use xlink:href="#DejaVuSans-30" x="63.623047"/>
      </g>
     </g>
    </g>
    <g id="text_8">
     <!-- Time (s) -->
     <g transform="translate(485.209219 566.548842) scale(0.1 -0.1)">
      <defs>
       <path id="DejaVuSans-54" d="M -19 4666 
L 3928 4666 
L 3928 4134 
L 2272 4134 
L 2272 0 
L 1638 0 
L 1638 4134 
L -19 4134 
L -19 4666 
z
" transform="scale(0.015625)"/>
       <path id="DejaVuSans-69" d="M 603 3500 
L 1178 3500 
L 1178 0 
L 603 0 
L 603 3500 
z
M 603 4863 
L 1178 4863 
L 1178 4134 
L 603 4134 
L 603 4863 
z
" transform="scale(0.015625)"/>
       <path id="DejaVuSans-6d" d="M 3328 2828 
Q 3544 3216 3844 3400 
Q 4144 3584 4550 3584 
Q 5097 3584 5394 3201 
Q 5691 2819 5691 2113 
L 5691 0 
L 5113 0 
L 5113 2094 
Q 5113 2597 4934 2840 
Q 4756 3084 4391 3084 
Q 3944 3084 3684 2787 
Q 3425 2491 3425 1978 
L 3425 0 
L 2847 0 
L 2847 2094 
Q 2847 2600 2669 2842 
Q 2491 3084 2119 3084 
Q 1678 3084 1418 2786 
Q 1159 2488 1159 1978 
L 1159 0 
L 581 0 
L 581 3500 
L 1159 3500 
L 1159 2956 
Q 1356 3278 1631 3431 
Q 1906 3584 2284 3584 
Q 2666 3584 2933 3390 
Q 3200 3197 3328 2828 
z
" transform="scale(0.015625)"/>
       <path id="DejaVuSans-65" d="M 3597 1894 
L 3597 1613 
L 953 1613 
Q 991 1019 1311 708 
Q 1631 397 2203 397 
Q 2534 397 2845 478 
Q 3156 559 3463 722 
L 3463 178 
Q 3153 47 2828 -22 
Q 2503 -91 2169 -91 
Q 1331 -91 842 396 
Q 353 884 353 1716 
Q 353 2575 817 3079 
Q 1281 3584 2069 3584 
Q 2775 3584 3186 3129 
Q 3597 2675 3597 1894 
z
M 3022 2063 
Q 3016 2534 2758 2815 
Q 2500 3097 2075 3097 
Q 1594 3097 1305 2825 
Q 1016 2553 972 2059 
L 3022 2063 
z
" transform="scale(0.015625)"/>
       <path id="DejaVuSans-20" transform="scale(0.015625)"/>
       <path id="DejaVuSans-28" d="M 1984 4856 
Q 1566 4138 1362 3434 
Q 1159 2731 1159 2009 
Q 1159 1288 1364 580 
Q 1569 -128 1984 -844 
L 1484 -844 
Q 1016 -109 783 600 
Q 550 1309 550 2009 
Q 550 2706 781 3412 
Q 1013 4119 1484 4856 
L 1984 4856 
z
" transform="scale(0.015625)"/>
       <path id="DejaVuSans-73" d="M 2834 3397 
L 2834 2853 
Q 2591 2978 2328 3040 
Q 2066 3103 1784 3103 
Q 1356 3103 1142 2972 
Q 928 2841 928 2578 
Q 928 2378 1081 2264 
Q 1234 2150 1697 2047 
L 1894 2003 
Q 2506 1872 2764 1633 
Q 3022 1394 3022 966 
Q 3022 478 2636 193 
Q 2250 -91 1575 -91 
Q 1294 -91 989 -36 
Q 684 19 347 128 
L 347 722 
Q 666 556 975 473 
Q 1284 391 1588 391 
Q 1994 391 2212 530 
Q 2431 669 2431 922 
Q 2431 1156 2273 1281 
Q 2116 1406 1581 1522 
L 1381 1569 
Q 847 1681 609 1914 
Q 372 2147 372 2553 
Q 372 3047 722 3315 
Q 1072 3584 1716 3584 
Q 2034 3584 2315 3537 
Q 2597 3491 2834 3397 
z
" transform="scale(0.015625)"/>
       <path id="DejaVuSans-29" d="M 513 4856 
L 1013 4856 
Q 1481 4119 1714 3412 
Q 1947 2706 1947 2009 
Q 1947 1309 1714 600 
Q 1481 -109 1013 -844 
L 513 -844 
Q 928 -128 1133 580 
Q 1338 1288 1338 2009 
Q 1338 2731 1133 3434 
Q 928 4138 513 4856 
z
" transform="scale(0.015625)"/>
      </defs>
      <use xlink:href="#DejaVuSans-54"/>
      <use xlink:href="#DejaVuSans-69" x="57.958984"/>
      <use xlink:href="#DejaVuSans-6d" x="85.742188"/>
      <use xlink:href="#DejaVuSans-65" x="183.154297"/>
      <use xlink:href="#DejaVuSans-20" x="244.677734"/>
      <use xlink:href="#DejaVuSans-28" x="276.464844"/>
      <use xlink:href="#DejaVuSans-73" x="315.478516"/>
      <use xlink:href="#DejaVuSans-29" x="367.578125"/>
     </g>
    </g>
   </g>
   <g id="matplotlib.axis_2">
    <g id="ytick_1">
     <g id="line2d_8">
      <defs>
       <path id="m6fe9ec380c" d="M 0 0 
L -3.5 0 
" style="stroke: #000000; stroke-width: 0.8"/>
      </defs>
      <g>
       <use xlink:href="#m6fe9ec380c" x="75.0664" y="538.27228" style="stroke: #000000; stroke-width: 0.8"/>
      </g>
     </g>
     <g id="text_9">
      <!-- 0 -->
      <g transform="translate(61.7039 542.071499) scale(0.1 -0.1)">
       <use xlink:href="#DejaVuSans-30"/>
      </g>
     </g>
    </g>
    <g id="ytick_2">
     <g id="line2d_9">
      <g>
       <use xlink:href="#m6fe9ec380c" x="75.0664" y="454.882777" style="stroke: #000000; stroke-width: 0.8"/>
      </g>
     </g>
     <g id="text_10">
      <!-- 5 -->
      <g transform="translate(61.7039 458.681995) scale(0.1 -0.1)">
       <use xlink:href="#DejaVuSans-35"/>
      </g>
     </g>
    </g>
    <g id="ytick_3">
     <g id="line2d_10">
      <g>
       <use xlink:href="#m6fe9ec380c" x="75.0664" y="371.493273" style="stroke: #000000; stroke-width: 0.8"/>
      </g>
     </g>
     <g id="text_11">
      <!-- 10 -->
      <g transform="translate(55.3414 375.292492) scale(0.1 -0.1)">
       <use xlink:href="#DejaVuSans-31"/>
       <use xlink:href="#DejaVuSans-30" x="63.623047"/>
      </g>
     </g>
    </g>
    <g id="ytick_4">
     <g id="line2d_11">
      <g>
       <use xlink:href="#m6fe9ec380c" x="75.0664" y="288.10377" style="stroke: #000000; stroke-width: 0.8"/>
      </g>
     </g>
     <g id="text_12">
      <!-- 15 -->
      <g transform="translate(55.3414 291.902988) scale(0.1 -0.1)">
       <use xlink:href="#DejaVuSans-31"/>
       <use xlink:href="#DejaVuSans-35" x="63.623047"/>
      </g>
     </g>
    </g>
    <g id="ytick_5">
     <g id="line2d_12">
      <g>
       <use xlink:href="#m6fe9ec380c" x="75.0664" y="204.714266" style="stroke: #000000; stroke-width: 0.8"/>
      </g>
     </g>
     <g id="text_13">
      <!-- 20 -->
      <g transform="translate(55.3414 208.513485) scale(0.1 -0.1)">
       <use xlink:href="#DejaVuSans-32"/>
       <use xlink:href="#DejaVuSans-30" x="63.623047"/>
      </g>
     </g>
    </g>
    <g id="ytick_6">
     <g id="line2d_13">
      <g>
       <use xlink:href="#m6fe9ec380c" x="75.0664" y="121.324763" style="stroke: #000000; stroke-width: 0.8"/>
      </g>
     </g>
     <g id="text_14">
      <!-- 25 -->
      <g transform="translate(55.3414 125.123982) scale(0.1 -0.1)">
       <use xlink:href="#DejaVuSans-32"/>
       <use xlink:href="#DejaVuSans-35" x="63.623047"/>
      </g>
     </g>
    </g>
    <g id="ytick_7">
     <g id="line2d_14">
      <g>
       <use xlink:href="#m6fe9ec380c" x="75.0664" y="37.935259" style="stroke: #000000; stroke-width: 0.8"/>
      </g>
     </g>
     <g id="text_15">
      <!-- 30 -->
      <g transform="translate(55.3414 41.734478) scale(0.1 -0.1)">
       <use xlink:href="#DejaVuSans-33"/>
       <use xlink:href="#DejaVuSans-30" x="63.623047"/>
      </g>
     </g>
    </g>
    <g id="text_16">
     <!-- Packets per Second -->
     <g transform="translate(49.261712 336.805133) rotate(-90) scale(0.1 -0.1)">
      <defs>
       <path id="DejaVuSans-50" d="M 1259 4147 
L 1259 2394 
L 2053 2394 
Q 2494 2394 2734 2622 
Q 2975 2850 2975 3272 
Q 2975 3691 2734 3919 
Q 2494 4147 2053 4147 
L 1259 4147 
z
M 628 4666 
L 2053 4666 
Q 2838 4666 3239 4311 
Q 3641 3956 3641 3272 
Q 3641 2581 3239 2228 
Q 2838 1875 2053 1875 
L 1259 1875 
L 1259 0 
L 628 0 
L 628 4666 
z
" transform="scale(0.015625)"/>
       <path id="DejaVuSans-61" d="M 2194 1759 
Q 1497 1759 1228 1600 
Q 959 1441 959 1056 
Q 959 750 1161 570 
Q 1363 391 1709 391 
Q 2188 391 2477 730 
Q 2766 1069 2766 1631 
L 2766 1759 
L 2194 1759 
z
M 3341 1997 
L 3341 0 
L 2766 0 
L 2766 531 
Q 2569 213 2275 61 
Q 1981 -91 1556 -91 
Q 1019 -91 701 211 
Q 384 513 384 1019 
Q 384 1609 779 1909 
Q 1175 2209 1959 2209 
L 2766 2209 
L 2766 2266 
Q 2766 2663 2505 2880 
Q 2244 3097 1772 3097 
Q 1472 3097 1187 3025 
Q 903 2953 641 2809 
L 641 3341 
Q 956 3463 1253 3523 
Q 1550 3584 1831 3584 
Q 2591 3584 2966 3190 
Q 3341 2797 3341 1997 
z
" transform="scale(0.015625)"/>
       <path id="DejaVuSans-63" d="M 3122 3366 
L 3122 2828 
Q 2878 2963 2633 3030 
Q 2388 3097 2138 3097 
Q 1578 3097 1268 2742 
Q 959 2388 959 1747 
Q 959 1106 1268 751 
Q 1578 397 2138 397 
Q 2388 397 2633 464 
Q 2878 531 3122 666 
L 3122 134 
Q 2881 22 2623 -34 
Q 2366 -91 2075 -91 
Q 1284 -91 818 406 
Q 353 903 353 1747 
Q 353 2603 823 3093 
Q 1294 3584 2113 3584 
Q 2378 3584 2631 3529 
Q 2884 3475 3122 3366 
z
" transform="scale(0.015625)"/>
       <path id="DejaVuSans-6b" d="M 581 4863 
L 1159 4863 
L 1159 1991 
L 2875 3500 
L 3609 3500 
L 1753 1863 
L 3688 0 
L 2938 0 
L 1159 1709 
L 1159 0 
L 581 0 
L 581 4863 
z
" transform="scale(0.015625)"/>
       <path id="DejaVuSans-74" d="M 1172 4494 
L 1172 3500 
L 2356 3500 
L 2356 3053 
L 1172 3053 
L 1172 1153 
Q 1172 725 1289 603 
Q 1406 481 1766 481 
L 2356 481 
L 2356 0 
L 1766 0 
Q 1100 0 847 248 
Q 594 497 594 1153 
L 594 3053 
L 172 3053 
L 172 3500 
L 594 3500 
L 594 4494 
L 1172 4494 
z
" transform="scale(0.015625)"/>
       <path id="DejaVuSans-70" d="M 1159 525 
L 1159 -1331 
L 581 -1331 
L 581 3500 
L 1159 3500 
L 1159 2969 
Q 1341 3281 1617 3432 
Q 1894 3584 2278 3584 
Q 2916 3584 3314 3078 
Q 3713 2572 3713 1747 
Q 3713 922 3314 415 
Q 2916 -91 2278 -91 
Q 1894 -91 1617 61 
Q 1341 213 1159 525 
z
M 3116 1747 
Q 3116 2381 2855 2742 
Q 2594 3103 2138 3103 
Q 1681 3103 1420 2742 
Q 1159 2381 1159 1747 
Q 1159 1113 1420 752 
Q 1681 391 2138 391 
Q 2594 391 2855 752 
Q 3116 1113 3116 1747 
z
" transform="scale(0.015625)"/>
       <path id="DejaVuSans-72" d="M 2631 2963 
Q 2534 3019 2420 3045 
Q 2306 3072 2169 3072 
Q 1681 3072 1420 2755 
Q 1159 2438 1159 1844 
L 1159 0 
L 581 0 
L 581 3500 
L 1159 3500 
L 1159 2956 
Q 1341 3275 1631 3429 
Q 1922 3584 2338 3584 
Q 2397 3584 2469 3576 
Q 2541 3569 2628 3553 
L 2631 2963 
z
" transform="scale(0.015625)"/>
       <path id="DejaVuSans-53" d="M 3425 4513 
L 3425 3897 
Q 3066 4069 2747 4153 
Q 2428 4238 2131 4238 
Q 1616 4238 1336 4038 
Q 1056 3838 1056 3469 
Q 1056 3159 1242 3001 
Q 1428 2844 1947 2747 
L 2328 2669 
Q 3034 2534 3370 2195 
Q 3706 1856 3706 1288 
Q 3706 609 3251 259 
Q 2797 -91 1919 -91 
Q 1588 -91 1214 -16 
Q 841 59 441 206 
L 441 856 
Q 825 641 1194 531 
Q 1563 422 1919 422 
Q 2459 422 2753 634 
Q 3047 847 3047 1241 
Q 3047 1584 2836 1778 
Q 2625 1972 2144 2069 
L 1759 2144 
Q 1053 2284 737 2584 
Q 422 2884 422 3419 
Q 422 4038 858 4394 
Q 1294 4750 2059 4750 
Q 2388 4750 2728 4690 
Q 3069 4631 3425 4513 
z
" transform="scale(0.015625)"/>
       <path id="DejaVuSans-6f" d="M 1959 3097 
Q 1497 3097 1228 2736 
Q 959 2375 959 1747 
Q 959 1119 1226 758 
Q 1494 397 1959 397 
Q 2419 397 2687 759 
Q 2956 1122 2956 1747 
Q 2956 2369 2687 2733 
Q 2419 3097 1959 3097 
z
M 1959 3584 
Q 2709 3584 3137 3096 
Q 3566 2609 3566 1747 
Q 3566 888 3137 398 
Q 2709 -91 1959 -91 
Q 1206 -91 779 398 
Q 353 888 353 1747 
Q 353 2609 779 3096 
Q 1206 3584 1959 3584 
z
" transform="scale(0.015625)"/>
       <path id="DejaVuSans-6e" d="M 3513 2113 
L 3513 0 
L 2938 0 
L 2938 2094 
Q 2938 2591 2744 2837 
Q 2550 3084 2163 3084 
Q 1697 3084 1428 2787 
Q 1159 2491 1159 1978 
L 1159 0 
L 581 0 
L 581 3500 
L 1159 3500 
L 1159 2956 
Q 1366 3272 1645 3428 
Q 1925 3584 2291 3584 
Q 2894 3584 3203 3211 
Q 3513 2838 3513 2113 
z
" transform="scale(0.015625)"/>
       <path id="DejaVuSans-64" d="M 2906 2969 
L 2906 4863 
L 3481 4863 
L 3481 0 
L 2906 0 
L 2906 525 
Q 2725 213 2448 61 
Q 2172 -91 1784 -91 
Q 1150 -91 751 415 
Q 353 922 353 1747 
Q 353 2572 751 3078 
Q 1150 3584 1784 3584 
Q 2172 3584 2448 3432 
Q 2725 3281 2906 2969 
z
M 947 1747 
Q 947 1113 1208 752 
Q 1469 391 1925 391 
Q 2381 391 2643 752 
Q 2906 1113 2906 1747 
Q 2906 2381 2643 2742 
Q 2381 3103 1925 3103 
Q 1469 3103 1208 2742 
Q 947 2381 947 1747 
z
" transform="scale(0.015625)"/>
      </defs>
      <use xlink:href="#DejaVuSans-50"/>
      <use xlink:href="#DejaVuSans-61" x="55.802734"/>
      <use xlink:href="#DejaVuSans-63" x="117.082031"/>
      <use xlink:href="#DejaVuSans-6b" x="172.0625"/>
      <use xlink:href="#DejaVuSans-65" x="226.347656"/>
      <use xlink:href="#DejaVuSans-74" x="287.871094"/>
      <use xlink:href="#DejaVuSans-73" x="327.080078"/>
      <use xlink:href="#DejaVuSans-20" x="379.179688"/>
      <use xlink:href="#DejaVuSans-70" x="410.966797"/>
      <use xlink:href="#DejaVuSans-65" x="474.443359"/>
      <use xlink:href="#DejaVuSans-72" x="535.966797"/>
      <use xlink:href="#DejaVuSans-20" x="577.080078"/>
      <use xlink:href="#DejaVuSans-53" x="608.867188"/>
      <use xlink:href="#DejaVuSans-65" x="672.34375"/>
      <use xlink:href="#DejaVuSans-63" x="733.867188"/>
      <use xlink:href="#DejaVuSans-6f" x="788.847656"/>
      <use xlink:href="#DejaVuSans-6e" x="850.029297"/>
      <use xlink:href="#DejaVuSans-64" x="913.408203"/>
     </g>
    </g>
   </g>
   <g id="line2d_15">
    <path d="M 75.514996 38.726834 
L 82.242383 38.602778 
L 84.484777 38.601625 
L 85.381624 38.525221 
L 88.520587 38.563194 
L 90.314185 38.505109 
L 90.762683 38.617493 
L 91.211043 38.464296 
L 92.556267 38.514199 
L 100.627405 38.478301 
L 102.420841 38.467307 
L 104.214293 38.503477 
L 106.007756 38.457945 
L 109.146315 38.477387 
L 110.491348 38.462559 
L 111.388114 38.473028 
L 114.974638 38.403087 
L 116.319595 38.42099 
L 116.767864 38.362318 
L 117.664567 38.464206 
L 119.009514 38.431536 
L 129.768613 38.374694 
L 130.665116 38.368476 
L 131.56172 38.393918 
L 132.009882 38.243432 
L 132.458251 38.474077 
L 133.354763 38.325498 
L 134.699606 38.38776 
L 135.596228 38.389423 
L 139.182409 38.349535 
L 140.078847 38.300694 
L 140.975343 38.326337 
L 144.113045 38.347797 
L 145.00957 38.331642 
L 146.802478 38.28563 
L 147.698959 38.310256 
L 149.940212 38.353761 
L 150.388418 38.291731 
L 151.284963 38.36972 
L 153.526014 38.25541 
L 154.42243 38.278615 
L 163.386659 38.316806 
L 164.283023 38.273429 
L 165.179483 38.313778 
L 166.075836 38.278345 
L 166.972103 38.201857 
L 168.316565 38.232248 
L 175.039083 38.346284 
L 175.487125 38.108951 
L 176.38352 38.322366 
L 176.831608 38.16017 
L 178.624175 38.233388 
L 180.4167 38.194075 
L 182.657402 38.194015 
L 185.346219 38.23922 
L 185.794323 38.17839 
L 186.69059 38.191616 
L 194.308823 38.216686 
L 195.205031 38.185963 
L 198.341867 38.193655 
L 200.582414 38.155041 
L 201.478805 38.343152 
L 201.926779 38.033401 
L 202.374889 38.184508 
L 209.096574 38.179245 
L 209.544872 38.394098 
L 209.992765 37.94327 
L 210.440871 38.180714 
L 217.162351 38.162629 
L 219.40285 38.157156 
L 235.085871 38.273833 
L 235.53381 37.993607 
L 235.981889 38.150482 
L 239.118341 38.131915 
L 243.15099 38.147872 
L 244.943253 38.136624 
L 247.631856 38.309417 
L 248.079758 37.952125 
L 248.527823 38.135334 
L 263.762556 38.288598 
L 264.210476 37.973212 
L 264.65856 38.155431 
L 266.899039 38.156961 
L 267.795169 38.152611 
L 283.926032 38.150497 
L 284.822148 38.149462 
L 289.750916 38.148472 
L 300.056453 38.118956 
L 301.400632 38.140914 
L 320.667604 38.186038 
L 321.115583 38.039238 
L 322.011719 38.148382 
L 325.5963 38.138019 
L 327.38861 38.151187 
L 327.836629 38.082955 
L 329.180805 38.118011 
L 332.317205 38.127205 
L 332.765359 38.233762 
L 333.21334 38.041038 
L 333.661412 38.141933 
L 337.245796 38.044399 
L 337.693932 38.214602 
L 339.038135 38.08336 
L 339.934271 38.118896 
L 348.447285 38.12356 
L 350.687777 38.301443 
L 351.135629 37.896976 
L 351.583718 38.16179 
L 352.479822 38.135799 
L 354.72008 38.106926 
L 364.129248 38.140119 
L 365.473397 38.116466 
L 380.707133 38.12872 
L 383.395421 38.089211 
L 383.843508 38.159105 
L 384.291512 38.066904 
L 386.979803 38.137314 
L 388.771923 38.094116 
L 390.564157 38.139789 
L 392.804354 38.102591 
L 395.044618 38.135229 
L 398.180917 38.109941 
L 399.077025 38.092361 
L 402.661356 38.155026 
L 403.109183 37.868976 
L 403.557447 38.356563 
L 404.005495 38.115221 
L 412.070196 38.12413 
L 412.518053 37.902605 
L 412.966267 38.300904 
L 413.414309 38.109476 
L 413.862347 38.104796 
L 414.310143 37.834246 
L 414.75838 38.326427 
L 415.206419 38.105411 
L 432.680086 38.111471 
L 433.12792 37.876723 
L 433.576185 38.358362 
L 434.024245 38.1292 
L 434.920269 38.065568 
L 435.368313 38.111711 
L 435.816136 37.864592 
L 436.264367 38.320043 
L 436.712418 38.118881 
L 437.160619 38.286095 
L 437.608496 37.924687 
L 438.056531 38.101631 
L 441.192895 38.13286 
L 441.640714 37.860508 
L 442.088964 38.340349 
L 442.536973 38.072739 
L 443.433068 38.112206 
L 446.569325 38.080465 
L 447.913419 38.092346 
L 448.80944 38.100206 
L 450.601585 38.092976 
L 457.770188 38.117531 
L 458.21817 38.041398 
L 460.010414 38.186758 
L 460.458358 37.999895 
L 461.35443 38.102186 
L 461.802416 38.046335 
L 462.698484 38.094146 
L 478.379658 38.062748 
L 478.827519 37.906674 
L 479.275723 38.289572 
L 479.723763 38.106896 
L 480.619868 38.117831 
L 481.067655 37.824005 
L 481.515905 38.341893 
L 481.963945 38.106596 
L 484.652249 38.137449 
L 485.100233 38.044309 
L 485.996301 38.092361 
L 489.132538 38.115596 
L 489.580646 38.182889 
L 490.476716 38.096696 
L 491.820641 37.934159 
L 492.268798 38.237765 
L 492.716811 38.077255 
L 494.508923 38.107256 
L 496.749093 38.132545 
L 497.196887 37.831949 
L 497.645155 38.361374 
L 498.09322 38.134314 
L 498.989239 38.08393 
L 500.781346 38.084095 
L 501.229173 37.869802 
L 501.677433 38.352248 
L 502.125413 38.039778 
L 503.021469 38.07982 
L 506.605631 38.066919 
L 507.053424 37.830792 
L 507.501693 38.361823 
L 507.949742 38.116871 
L 509.741813 38.075305 
L 511.085919 38.095106 
L 518.254308 38.102966 
L 519.150222 37.995138 
L 519.598336 38.189307 
L 520.494376 38.069289 
L 522.286485 38.113721 
L 523.182525 38.087291 
L 523.630314 37.826708 
L 524.078595 38.375623 
L 524.526651 38.12485 
L 525.870697 38.099321 
L 528.558815 38.067789 
L 529.454878 38.071239 
L 531.694998 38.107796 
L 532.142976 38.037242 
L 532.591031 38.124205 
L 533.487075 38.089526 
L 533.934857 37.818884 
L 534.383134 38.370469 
L 534.831187 38.122301 
L 535.727243 38.111936 
L 540.207578 38.119061 
L 540.65542 37.885701 
L 541.103626 38.2923 
L 541.551659 38.099021 
L 542.895713 38.069244 
L 547.375933 38.071839 
L 547.824171 38.327941 
L 548.272034 37.908535 
L 549.168169 38.190566 
L 549.616119 38.006302 
L 550.512173 38.107301 
L 554.544376 38.095151 
L 560.816637 38.08009 
L 563.056794 38.099501 
L 568.433135 38.092931 
L 568.881111 38.034572 
L 569.777173 38.085656 
L 571.569277 38.078605 
L 573.361331 38.110136 
L 576.049468 38.107676 
L 576.945508 38.058202 
L 577.393309 37.839682 
L 577.841556 38.337187 
L 578.289579 38.088176 
L 580.081393 37.82438 
L 580.529662 38.362363 
L 581.425697 37.99991 
L 582.321676 38.029935 
L 582.769494 37.859157 
L 583.217731 38.326562 
L 583.665728 38.058682 
L 584.56179 38.087531 
L 589.041995 38.035322 
L 589.93804 38.077315 
L 591.730103 38.07685 
L 593.074113 38.07769 
L 595.314248 38.079535 
L 596.658278 38.068389 
L 600.690464 38.092196 
L 601.138387 37.976244 
L 601.586511 38.200253 
L 602.482536 38.060708 
L 603.378619 38.093576 
L 605.170701 38.067789 
L 605.61857 37.915185 
L 606.066758 38.272574 
L 606.514768 38.072484 
L 607.858907 38.154171 
L 608.754616 37.801854 
L 609.202983 38.471141 
L 609.650879 37.945806 
L 610.098919 38.107436 
L 611.890988 38.072169 
L 615.475189 38.07982 
L 616.371211 38.101706 
L 629.363712 38.061128 
L 629.811861 38.228515 
L 630.259878 38.082145 
L 630.70797 38.163919 
L 632.500034 38.040588 
L 633.84409 38.089781 
L 635.18812 38.092631 
L 637.428156 38.071479 
L 640.564234 38.086826 
L 641.012142 37.95957 
L 641.460264 38.198513 
L 642.356262 38.043064 
L 643.700328 38.088671 
L 644.596359 38.105936 
L 645.044124 37.800022 
L 645.492381 38.348382 
L 645.940383 38.065118 
L 648.628513 38.098196 
L 649.524498 38.061503 
L 650.868546 38.08351 
L 656.244648 38.077855 
L 656.692737 38.161055 
L 657.140676 37.994192 
L 658.036719 38.102981 
L 659.380754 38.087426 
L 667.444978 38.109266 
L 667.893149 38.253222 
L 668.340996 37.890625 
L 668.789022 38.091266 
L 669.236835 37.853676 
L 669.685044 38.295388 
L 670.133076 38.097701 
L 670.581168 38.164864 
L 671.029101 37.987499 
L 671.925138 38.080345 
L 674.613239 38.089631 
L 675.061227 38.049515 
L 675.50902 37.830462 
L 675.957258 38.327986 
L 676.405275 38.080555 
L 676.853294 38.083405 
L 677.301206 37.964628 
L 677.749304 38.171102 
L 679.541355 38.038983 
L 680.885398 38.085641 
L 685.365496 38.086316 
L 685.813544 38.116466 
L 686.261516 38.031046 
L 687.605574 38.093891 
L 689.8456 38.08099 
L 696.565713 38.062298 
L 697.013899 38.270476 
L 697.461735 37.879095 
L 697.909741 38.068524 
L 699.253773 38.052036 
L 700.149771 38.088176 
L 700.597951 38.263235 
L 701.04579 37.882188 
L 701.493826 38.102921 
L 705.077881 38.07547 
L 709.109993 38.120396 
L 709.557964 38.02968 
L 710.902035 38.100056 
L 711.798053 38.098826 
L 716.27812 38.018967 
L 716.726169 38.116481 
L 718.070172 38.057992 
L 718.518264 38.164309 
L 718.966221 38.01481 
L 720.310252 38.064713 
L 721.654271 38.060918 
L 722.102044 37.809093 
L 722.998336 38.347887 
L 723.894111 37.795471 
L 724.342337 38.314737 
L 724.790152 37.855974 
L 725.238165 38.076415 
L 725.686187 38.086871 
L 726.134467 38.374485 
L 726.582203 37.766499 
L 727.030502 38.395851 
L 727.478258 37.789599 
L 727.926241 38.043289 
L 729.270294 38.085851 
L 730.166284 38.072064 
L 732.406365 38.093861 
L 732.854649 38.379145 
L 733.302401 37.784928 
L 734.198703 38.386007 
L 734.646451 37.780452 
L 735.09445 38.061548 
L 735.990497 38.098421 
L 736.438752 38.346793 
L 737.334535 37.800442 
L 737.782547 38.075275 
L 739.126591 38.089076 
L 739.574854 38.355574 
L 740.022821 38.025854 
L 740.470622 37.839952 
L 740.91889 38.361239 
L 741.366631 37.771966 
L 741.814657 38.091566 
L 742.710682 38.089991 
L 743.158961 38.372956 
L 743.606668 37.735315 
L 744.05469 38.085941 
L 746.742725 38.077765 
L 747.190907 38.265664 
L 748.086748 37.873135 
L 748.982963 38.295553 
L 749.43078 37.858736 
L 749.87896 38.262921 
L 750.327 38.106401 
L 751.223075 38.086976 
L 751.670879 37.843241 
L 752.118892 38.07649 
L 752.566919 38.092256 
L 753.015089 38.252277 
L 753.911153 38.071839 
L 754.359164 38.07436 
L 754.806949 37.821167 
L 755.254972 38.088911 
L 756.15104 38.096891 
L 756.599239 38.283801 
L 757.495065 37.853256 
L 757.943067 38.064413 
L 759.287085 38.065163 
L 759.735286 38.286485 
L 760.183102 37.856094 
L 760.631319 38.305055 
L 761.527123 37.840703 
L 761.975122 38.061068 
L 762.871128 38.066814 
L 763.319327 38.284536 
L 763.767261 37.988175 
L 764.215143 37.930376 
L 764.663157 38.077765 
L 766.007205 38.07685 
L 766.45539 38.269052 
L 766.903213 37.864126 
L 767.351419 38.29209 
L 768.24724 37.863856 
L 769.143471 38.321347 
L 769.591272 37.839712 
L 770.039462 38.274688 
L 770.935276 37.859562 
L 771.831486 38.297921 
L 772.279305 37.859877 
L 773.175529 38.277326 
L 773.623322 37.831153 
L 774.071533 38.297156 
L 774.967368 37.880477 
L 775.415366 38.060438 
L 775.863359 38.054106 
L 776.311556 38.282303 
L 776.759557 38.063183 
L 777.655658 38.129395 
L 778.103404 37.77829 
L 778.551407 38.065013 
L 778.999417 38.073039 
L 779.447626 38.295718 
L 779.895644 38.082925 
L 780.343838 38.27872 
L 781.239754 37.933123 
L 782.583673 38.058862 
L 783.031899 38.314078 
L 783.479918 38.08276 
L 784.375957 38.095511 
L 784.823765 37.847445 
L 785.271758 38.055277 
L 786.167763 38.048885 
L 786.615977 38.300859 
L 787.06379 37.853421 
L 787.960003 38.300709 
L 788.407802 37.837114 
L 788.855796 38.055532 
L 789.303811 38.079325 
L 789.75202 38.295328 
L 790.200021 38.062988 
L 790.648027 38.069379 
L 791.095847 37.860973 
L 791.543879 38.097716 
L 791.991904 38.090021 
L 792.440188 38.37901 
L 792.888242 38.122391 
L 793.336242 38.063168 
L 793.784051 37.84779 
L 794.232274 38.311245 
L 795.128074 37.827218 
L 795.576071 38.059042 
L 796.024064 38.054811 
L 796.472246 38.264824 
L 796.920279 38.098676 
L 797.36832 38.108036 
L 797.816207 37.936861 
L 798.264077 37.915966 
L 798.712079 38.065193 
L 799.608105 38.072604 
L 800.056319 38.300679 
L 800.50434 38.085506 
L 800.952342 38.064323 
L 801.400162 37.861139 
L 801.84817 38.071494 
L 802.296176 38.068404 
L 802.744374 38.283921 
L 803.19241 38.102186 
L 804.088401 38.050146 
L 804.536213 37.85267 
L 804.984442 38.317 
L 805.43224 37.836258 
L 805.880264 38.089391 
L 806.328254 38.051451 
L 806.776453 38.284056 
L 807.224462 38.072034 
L 807.672492 38.096036 
L 808.120315 37.864652 
L 808.568326 38.07463 
L 809.464322 38.062268 
L 809.912513 38.274898 
L 810.360534 38.086136 
L 811.256558 38.087246 
L 811.704362 37.843841 
L 812.152361 38.060693 
L 813.048379 38.065478 
L 813.496531 38.231828 
L 813.944538 38.070324 
L 814.392571 38.098721 
L 814.840359 37.825627 
L 815.288374 38.079265 
L 816.184401 38.060092 
L 816.632611 38.296932 
L 817.080628 38.08081 
L 817.528637 38.072034 
L 817.976429 37.830447 
L 818.872634 38.287534 
L 819.320453 37.859997 
L 819.768666 38.300364 
L 820.216682 38.080465 
L 821.112685 38.075155 
L 821.560492 37.846739 
L 822.008496 38.066453 
L 822.904496 38.063738 
L 823.352701 38.290936 
L 823.800718 38.081965 
L 824.248741 38.086886 
L 824.696545 37.843751 
L 825.144549 38.066919 
L 826.488558 38.060903 
L 826.936751 38.277926 
L 827.832594 37.861424 
L 828.280593 38.061293 
L 829.624602 38.057812 
L 830.072799 38.282318 
L 830.520817 38.08183 
L 830.968814 38.059147 
L 831.416655 37.885056 
L 831.864642 38.046785 
L 834.104857 38.084396 
L 835.000891 38.086886 
L 835.448695 37.843331 
L 835.89691 38.302193 
L 836.344719 37.848241 
L 836.792917 38.283307 
L 837.240933 38.079565 
L 837.68893 38.059117 
L 838.136755 37.866814 
L 838.584765 38.072994 
L 839.480812 38.085236 
L 839.928975 38.244062 
L 840.376973 38.059462 
L 841.272978 38.059957 
L 841.720775 37.835703 
L 842.168784 38.071899 
L 842.616795 38.074165 
L 843.064987 38.276981 
L 843.512994 38.069424 
L 844.409022 38.064098 
L 844.856828 37.845163 
L 845.753086 38.348891 
L 846.201014 37.982277 
L 846.649189 38.257434 
L 847.097223 38.100146 
L 847.993384 38.195499 
L 848.441059 37.698764 
L 848.889089 38.096126 
L 849.337108 38.082655 
L 849.785312 38.290352 
L 850.233319 38.070564 
L 851.129335 38.062943 
L 851.577132 37.836168 
L 852.025141 38.071494 
L 852.921139 38.07451 
L 853.369325 38.268947 
L 853.817318 38.054391 
L 854.713354 38.090096 
L 855.161161 37.846229 
L 855.609171 38.073879 
L 856.057246 38.146238 
L 856.505183 37.991476 
L 856.95341 38.315127 
L 857.401401 38.052681 
L 857.849323 37.974638 
L 858.297435 38.187192 
L 858.74521 37.811105 
L 859.193429 38.306659 
L 859.641234 37.844247 
L 860.089405 38.253342 
L 860.985244 37.859922 
L 861.433472 38.316146 
L 861.881259 37.825116 
L 862.777561 38.353537 
L 863.225304 37.77503 
L 863.673512 38.293784 
L 864.569542 38.036552 
L 865.017558 38.079715 
L 865.465408 37.895099 
L 866.809638 38.358601 
L 867.257346 37.736051 
L 867.705355 38.072424 
L 873.081432 38.094866 
L 873.529594 38.243837 
L 873.977693 38.172257 
L 874.425439 37.77841 
L 874.873454 38.07925 
L 877.113414 38.016341 
L 877.561523 38.184298 
L 878.009472 38.005117 
L 879.353475 38.063363 
L 879.801484 38.072184 
L 880.249641 38.23808 
L 880.697687 38.113061 
L 881.145486 37.837429 
L 881.593486 38.062478 
L 884.281517 38.076955 
L 884.729746 38.317495 
L 885.177526 37.816526 
L 885.625549 38.087591 
L 886.96953 38.030716 
L 887.417826 38.392614 
L 887.865565 37.771095 
L 888.31358 38.07823 
L 891.449575 38.057977 
L 893.689822 38.283142 
L 894.585639 37.861829 
L 895.033906 38.360579 
L 895.033906 38.360579 
" clip-path="url(#p52d1f0ed38)" style="fill: none; stroke: #1f77b4; stroke-width: 1.5; stroke-linecap: square"/>
   </g>
   <g id="line2d_16">
    <path d="M 75.0664 38.139935 
L 936.009851 38.139935 
" clip-path="url(#p52d1f0ed38)" style="fill: none; stroke-dasharray: 5.55,2.4; stroke-dashoffset: 0; stroke: #0000ff; stroke-width: 1.5"/>
   </g>
   <g id="patch_3">
    <path d="M 75.0664 538.27228 
L 75.0664 37.64736 
" style="fill: none; stroke: #000000; stroke-width: 0.8; stroke-linejoin: miter; stroke-linecap: square"/>
   </g>
   <g id="patch_4">
    <path d="M 936.009851 538.27228 
L 936.009851 37.64736 
" style="fill: none; stroke: #000000; stroke-width: 0.8; stroke-linejoin: miter; stroke-linecap: square"/>
   </g>
   <g id="patch_5">
    <path d="M 75.0664 538.27228 
L 936.009851 538.27228 
" style="fill: none; stroke: #000000; stroke-width: 0.8; stroke-linejoin: miter; stroke-linecap: square"/>
   </g>
   <g id="patch_6">
    <path d="M 75.0664 37.64736 
L 936.009851 37.64736 
" style="fill: none; stroke: #000000; stroke-width: 0.8; stroke-linejoin: miter; stroke-linecap: square"/>
   </g>
   <g id="text_17">
    <!-- Packet Rate from Timestamps (SelectionProcess: 16777217) -->
    <g transform="translate(324.398126 31.64736) scale(0.12 -0.12)">
     <defs>
      <path id="DejaVuSans-52" d="M 2841 2188 
Q 3044 2119 3236 1894 
Q 3428 1669 3622 1275 
L 4263 0 
L 3584 0 
L 2988 1197 
Q 2756 1666 2539 1819 
Q 2322 1972 1947 1972 
L 1259 1972 
L 1259 0 
L 628 0 
L 628 4666 
L 2053 4666 
Q 2853 4666 3247 4331 
Q 3641 3997 3641 3322 
Q 3641 2881 3436 2590 
Q 3231 2300 2841 2188 
z
M 1259 4147 
L 1259 2491 
L 2053 2491 
Q 2509 2491 2742 2702 
Q 2975 2913 2975 3322 
Q 2975 3731 2742 3939 
Q 2509 4147 2053 4147 
L 1259 4147 
z
" transform="scale(0.015625)"/>
      <path id="DejaVuSans-66" d="M 2375 4863 
L 2375 4384 
L 1825 4384 
Q 1516 4384 1395 4259 
Q 1275 4134 1275 3809 
L 1275 3500 
L 2222 3500 
L 2222 3053 
L 1275 3053 
L 1275 0 
L 697 0 
L 697 3053 
L 147 3053 
L 147 3500 
L 697 3500 
L 697 3744 
Q 697 4328 969 4595 
Q 1241 4863 1831 4863 
L 2375 4863 
z
" transform="scale(0.015625)"/>
      <path id="DejaVuSans-6c" d="M 603 4863 
L 1178 4863 
L 1178 0 
L 603 0 
L 603 4863 
z
" transform="scale(0.015625)"/>
      <path id="DejaVuSans-3a" d="M 750 794 
L 1409 794 
L 1409 0 
L 750 0 
L 750 794 
z
M 750 3309 
L 1409 3309 
L 1409 2516 
L 750 2516 
L 750 3309 
z
" transform="scale(0.015625)"/>
      <path id="DejaVuSans-37" d="M 525 4666 
L 3525 4666 
L 3525 4397 
L 1831 0 
L 1172 0 
L 2766 4134 
L 525 4134 
L 525 4666 
z
" transform="scale(0.015625)"/>
     </defs>
     <use xlink:href="#DejaVuSans-50"/>
     <use xlink:href="#DejaVuSans-61" x="55.802734"/>
     <use xlink:href="#DejaVuSans-63" x="117.082031"/>
     <use xlink:href="#DejaVuSans-6b" x="172.0625"/>
     <use xlink:href="#DejaVuSans-65" x="226.347656"/>
     <use xlink:href="#DejaVuSans-74" x="287.871094"/>
     <use xlink:href="#DejaVuSans-20" x="327.080078"/>
     <use xlink:href="#DejaVuSans-52" x="358.867188"/>
     <use xlink:href="#DejaVuSans-61" x="426.099609"/>
     <use xlink:href="#DejaVuSans-74" x="487.378906"/>
     <use xlink:href="#DejaVuSans-65" x="526.587891"/>
     <use xlink:href="#DejaVuSans-20" x="588.111328"/>
     <use xlink:href="#DejaVuSans-66" x="619.898438"/>
     <use xlink:href="#DejaVuSans-72" x="655.103516"/>
     <use xlink:href="#DejaVuSans-6f" x="693.966797"/>
     <use xlink:href="#DejaVuSans-6d" x="755.148438"/>
     <use xlink:href="#DejaVuSans-20" x="852.560547"/>
     <use xlink:href="#DejaVuSans-54" x="884.347656"/>
     <use xlink:href="#DejaVuSans-69" x="942.306641"/>
     <use xlink:href="#DejaVuSans-6d" x="970.089844"/>
     <use xlink:href="#DejaVuSans-65" x="1067.501953"/>
     <use xlink:href="#DejaVuSans-73" x="1129.025391"/>
     <use xlink:href="#DejaVuSans-74" x="1181.125"/>
     <use xlink:href="#DejaVuSans-61" x="1220.333984"/>
     <use xlink:href="#DejaVuSans-6d" x="1281.613281"/>
     <use xlink:href="#DejaVuSans-70" x="1379.025391"/>
     <use xlink:href="#DejaVuSans-73" x="1442.501953"/>
     <use xlink:href="#DejaVuSans-20" x="1494.601562"/>
     <use xlink:href="#DejaVuSans-28" x="1526.388672"/>
     <use xlink:href="#DejaVuSans-53" x="1565.402344"/>
     <use xlink:href="#DejaVuSans-65" x="1628.878906"/>
     <use xlink:href="#DejaVuSans-6c" x="1690.402344"/>
     <use xlink:href="#DejaVuSans-65" x="1718.185547"/>
     <use xlink:href="#DejaVuSans-63" x="1779.708984"/>
     <use xlink:href="#DejaVuSans-74" x="1834.689453"/>
     <use xlink:href="#DejaVuSans-69" x="1873.898438"/>
     <use xlink:href="#DejaVuSans-6f" x="1901.681641"/>
     <use xlink:href="#DejaVuSans-6e" x="1962.863281"/>
     <use xlink:href="#DejaVuSans-50" x="2026.242188"/>
     <use xlink:href="#DejaVuSans-72" x="2084.794922"/>
     <use xlink:href="#DejaVuSans-6f" x="2123.658203"/>
     <use xlink:href="#DejaVuSans-63" x="2184.839844"/>
     <use xlink:href="#DejaVuSans-65" x="2239.820312"/>
     <use xlink:href="#DejaVuSans-73" x="2301.34375"/>
     <use xlink:href="#DejaVuSans-73" x="2353.443359"/>
     <use xlink:href="#DejaVuSans-3a" x="2405.542969"/>
     <use xlink:href="#DejaVuSans-20" x="2439.234375"/>
     <use xlink:href="#DejaVuSans-31" x="2471.021484"/>
     <use xlink:href="#DejaVuSans-36" x="2534.644531"/>
     <use xlink:href="#DejaVuSans-37" x="2598.267578"/>
     <use xlink:href="#DejaVuSans-37" x="2661.890625"/>
     <use xlink:href="#DejaVuSans-37" x="2725.513672"/>
     <use xlink:href="#DejaVuSans-32" x="2789.136719"/>
     <use xlink:href="#DejaVuSans-31" x="2852.759766"/>
     <use xlink:href="#DejaVuSans-37" x="2916.382812"/>
     <use xlink:href="#DejaVuSans-29" x="2980.005859"/>
    </g>
   </g>
   <g id="legend_1">
    <g id="patch_7">
     <path d="M 943.009851 304.137945 
L 1124.466101 304.137945 
Q 1126.466101 304.137945 1126.466101 302.137945 
L 1126.466101 273.781695 
Q 1126.466101 271.781695 1124.466101 271.781695 
L 943.009851 271.781695 
Q 941.009851 271.781695 941.009851 273.781695 
L 941.009851 302.137945 
Q 941.009851 304.137945 943.009851 304.137945 
z
" style="fill: #ffffff; opacity: 0.8; stroke: #cccccc; stroke-linejoin: miter"/>
    </g>
    <g id="line2d_17">
     <path d="M 945.009851 279.880133 
L 955.009851 279.880133 
L 965.009851 279.880133 
" style="fill: none; stroke: #1f77b4; stroke-width: 1.5; stroke-linecap: square"/>
    </g>
    <g id="text_18">
     <!-- Packet Rate from Timestamps -->
     <g transform="translate(973.009851 283.380133) scale(0.1 -0.1)">
      <use xlink:href="#DejaVuSans-50"/>
      <use xlink:href="#DejaVuSans-61" x="55.802734"/>
      <use xlink:href="#DejaVuSans-63" x="117.082031"/>
      <use xlink:href="#DejaVuSans-6b" x="172.0625"/>
      <use xlink:href="#DejaVuSans-65" x="226.347656"/>
      <use xlink:href="#DejaVuSans-74" x="287.871094"/>
      <use xlink:href="#DejaVuSans-20" x="327.080078"/>
      <use xlink:href="#DejaVuSans-52" x="358.867188"/>
      <use xlink:href="#DejaVuSans-61" x="426.099609"/>
      <use xlink:href="#DejaVuSans-74" x="487.378906"/>
      <use xlink:href="#DejaVuSans-65" x="526.587891"/>
      <use xlink:href="#DejaVuSans-20" x="588.111328"/>
      <use xlink:href="#DejaVuSans-66" x="619.898438"/>
      <use xlink:href="#DejaVuSans-72" x="655.103516"/>
      <use xlink:href="#DejaVuSans-6f" x="693.966797"/>
      <use xlink:href="#DejaVuSans-6d" x="755.148438"/>
      <use xlink:href="#DejaVuSans-20" x="852.560547"/>
      <use xlink:href="#DejaVuSans-54" x="884.347656"/>
      <use xlink:href="#DejaVuSans-69" x="942.306641"/>
      <use xlink:href="#DejaVuSans-6d" x="970.089844"/>
      <use xlink:href="#DejaVuSans-65" x="1067.501953"/>
      <use xlink:href="#DejaVuSans-73" x="1129.025391"/>
      <use xlink:href="#DejaVuSans-74" x="1181.125"/>
      <use xlink:href="#DejaVuSans-61" x="1220.333984"/>
      <use xlink:href="#DejaVuSans-6d" x="1281.613281"/>
      <use xlink:href="#DejaVuSans-70" x="1379.025391"/>
      <use xlink:href="#DejaVuSans-73" x="1442.501953"/>
     </g>
    </g>
    <g id="line2d_18">
     <path d="M 945.009851 294.558258 
L 955.009851 294.558258 
L 965.009851 294.558258 
" style="fill: none; stroke-dasharray: 5.55,2.4; stroke-dashoffset: 0; stroke: #0000ff; stroke-width: 1.5"/>
    </g>
    <g id="text_19">
     <!-- Packet Rate Average -->
     <g transform="translate(973.009851 298.058258) scale(0.1 -0.1)">
      <defs>
       <path id="DejaVuSans-41" d="M 2188 4044 
L 1331 1722 
L 3047 1722 
L 2188 4044 
z
M 1831 4666 
L 2547 4666 
L 4325 0 
L 3669 0 
L 3244 1197 
L 1141 1197 
L 716 0 
L 50 0 
L 1831 4666 
z
" transform="scale(0.015625)"/>
       <path id="DejaVuSans-76" d="M 191 3500 
L 800 3500 
L 1894 563 
L 2988 3500 
L 3597 3500 
L 2284 0 
L 1503 0 
L 191 3500 
z
" transform="scale(0.015625)"/>
       <path id="DejaVuSans-67" d="M 2906 1791 
Q 2906 2416 2648 2759 
Q 2391 3103 1925 3103 
Q 1463 3103 1205 2759 
Q 947 2416 947 1791 
Q 947 1169 1205 825 
Q 1463 481 1925 481 
Q 2391 481 2648 825 
Q 2906 1169 2906 1791 
z
M 3481 434 
Q 3481 -459 3084 -895 
Q 2688 -1331 1869 -1331 
Q 1566 -1331 1297 -1286 
Q 1028 -1241 775 -1147 
L 775 -588 
Q 1028 -725 1275 -790 
Q 1522 -856 1778 -856 
Q 2344 -856 2625 -561 
Q 2906 -266 2906 331 
L 2906 616 
Q 2728 306 2450 153 
Q 2172 0 1784 0 
Q 1141 0 747 490 
Q 353 981 353 1791 
Q 353 2603 747 3093 
Q 1141 3584 1784 3584 
Q 2172 3584 2450 3431 
Q 2728 3278 2906 2969 
L 2906 3500 
L 3481 3500 
L 3481 434 
z
" transform="scale(0.015625)"/>
      </defs>
      <use xlink:href="#DejaVuSans-50"/>
      <use xlink:href="#DejaVuSans-61" x="55.802734"/>
      <use xlink:href="#DejaVuSans-63" x="117.082031"/>
      <use xlink:href="#DejaVuSans-6b" x="172.0625"/>
      <use xlink:href="#DejaVuSans-65" x="226.347656"/>
      <use xlink:href="#DejaVuSans-74" x="287.871094"/>
      <use xlink:href="#DejaVuSans-20" x="327.080078"/>
      <use xlink:href="#DejaVuSans-52" x="358.867188"/>
      <use xlink:href="#DejaVuSans-61" x="426.099609"/>
      <use xlink:href="#DejaVuSans-74" x="487.378906"/>
      <use xlink:href="#DejaVuSans-65" x="526.587891"/>
      <use xlink:href="#DejaVuSans-20" x="588.111328"/>
      <use xlink:href="#DejaVuSans-41" x="619.898438"/>
      <use xlink:href="#DejaVuSans-76" x="682.431641"/>
      <use xlink:href="#DejaVuSans-65" x="741.611328"/>
      <use xlink:href="#DejaVuSans-72" x="803.134766"/>
      <use xlink:href="#DejaVuSans-61" x="844.248047"/>
      <use xlink:href="#DejaVuSans-67" x="905.527344"/>
      <use xlink:href="#DejaVuSans-65" x="969.003906"/>
     </g>
    </g>
   </g>
  </g>
 </g>
 <defs>
  <clipPath id="p52d1f0ed38">
   <rect x="75.0664" y="37.64736" width="860.943451" height="500.62492"/>
  </clipPath>
 </defs>
</svg>
