<?xml version="1.0" encoding="utf-8" standalone="no"?>
<!DOCTYPE svg PUBLIC "-//W3C//DTD SVG 1.1//EN"
  "http://www.w3.org/Graphics/SVG/1.1/DTD/svg11.dtd">
<svg xmlns:xlink="http://www.w3.org/1999/xlink" width="1080pt" height="720pt" viewBox="0 0 1080 720" xmlns="http://www.w3.org/2000/svg" version="1.1">
 <metadata>
  <rdf:RDF xmlns:dc="http://purl.org/dc/elements/1.1/" xmlns:cc="http://creativecommons.org/ns#" xmlns:rdf="http://www.w3.org/1999/02/22-rdf-syntax-ns#">
   <cc:Work>
    <dc:type rdf:resource="http://purl.org/dc/dcmitype/StillImage"/>
    <dc:date>2023-04-14T12:10:24.342199</dc:date>
    <dc:format>image/svg+xml</dc:format>
    <dc:creator>
     <cc:Agent>
      <dc:title>Matplotlib v3.6.2, https://matplotlib.org/</dc:title>
     </cc:Agent>
    </dc:creator>
   </cc:Work>
  </rdf:RDF>
 </metadata>
 <defs>
  <style type="text/css">*{stroke-linejoin: round; stroke-linecap: butt}</style>
 </defs>
 <g id="figure_1">
  <g id="patch_1">
   <path d="M 0 720 
L 1080 720 
L 1080 0 
L 0 0 
z
" style="fill: #ffffff"/>
  </g>
  <g id="axes_1">
   <g id="patch_2">
    <path d="M 71.22 652.92 
L 806.805 652.92 
L 806.805 46.96 
L 71.22 46.96 
z
" style="fill: #ffffff"/>
   </g>
   <g id="matplotlib.axis_1">
    <g id="xtick_1">
     <g id="line2d_1">
      <defs>
       <path id="m4402790544" d="M 0 0 
L 0 3.5 
" style="stroke: #000000; stroke-width: 0.8"/>
      </defs>
      <g>
       <use xlink:href="#m4402790544" x="71.22" y="652.92" style="stroke: #000000; stroke-width: 0.8"/>
      </g>
     </g>
     <g id="text_1">
      <!-- 0 -->
      <g transform="translate(66.76625 670.557812) scale(0.14 -0.14)">
       <defs>
        <path id="DejaVuSans-30" d="M 2034 4250 
Q 1547 4250 1301 3770 
Q 1056 3291 1056 2328 
Q 1056 1369 1301 889 
Q 1547 409 2034 409 
Q 2525 409 2770 889 
Q 3016 1369 3016 2328 
Q 3016 3291 2770 3770 
Q 2525 4250 2034 4250 
z
M 2034 4750 
Q 2819 4750 3233 4129 
Q 3647 3509 3647 2328 
Q 3647 1150 3233 529 
Q 2819 -91 2034 -91 
Q 1250 -91 836 529 
Q 422 1150 422 2328 
Q 422 3509 836 4129 
Q 1250 4750 2034 4750 
z
" transform="scale(0.015625)"/>
       </defs>
       <use xlink:href="#DejaVuSans-30"/>
      </g>
     </g>
    </g>
    <g id="xtick_2">
     <g id="line2d_2">
      <g>
       <use xlink:href="#m4402790544" x="187.619474" y="652.92" style="stroke: #000000; stroke-width: 0.8"/>
      </g>
     </g>
     <g id="text_2">
      <!-- 10 -->
      <g transform="translate(178.711974 670.557812) scale(0.14 -0.14)">
       <defs>
        <path id="DejaVuSans-31" d="M 794 531 
L 1825 531 
L 1825 4091 
L 703 3866 
L 703 4441 
L 1819 4666 
L 2450 4666 
L 2450 531 
L 3481 531 
L 3481 0 
L 794 0 
L 794 531 
z
" transform="scale(0.015625)"/>
       </defs>
       <use xlink:href="#DejaVuSans-31"/>
       <use xlink:href="#DejaVuSans-30" x="63.623047"/>
      </g>
     </g>
    </g>
    <g id="xtick_3">
     <g id="line2d_3">
      <g>
       <use xlink:href="#m4402790544" x="304.018948" y="652.92" style="stroke: #000000; stroke-width: 0.8"/>
      </g>
     </g>
     <g id="text_3">
      <!-- 20 -->
      <g transform="translate(295.111448 670.557812) scale(0.14 -0.14)">
       <defs>
        <path id="DejaVuSans-32" d="M 1228 531 
L 3431 531 
L 3431 0 
L 469 0 
L 469 531 
Q 828 903 1448 1529 
Q 2069 2156 2228 2338 
Q 2531 2678 2651 2914 
Q 2772 3150 2772 3378 
Q 2772 3750 2511 3984 
Q 2250 4219 1831 4219 
Q 1534 4219 1204 4116 
Q 875 4013 500 3803 
L 500 4441 
Q 881 4594 1212 4672 
Q 1544 4750 1819 4750 
Q 2544 4750 2975 4387 
Q 3406 4025 3406 3419 
Q 3406 3131 3298 2873 
Q 3191 2616 2906 2266 
Q 2828 2175 2409 1742 
Q 1991 1309 1228 531 
z
" transform="scale(0.015625)"/>
       </defs>
       <use xlink:href="#DejaVuSans-32"/>
       <use xlink:href="#DejaVuSans-30" x="63.623047"/>
      </g>
     </g>
    </g>
    <g id="xtick_4">
     <g id="line2d_4">
      <g>
       <use xlink:href="#m4402790544" x="420.418422" y="652.92" style="stroke: #000000; stroke-width: 0.8"/>
      </g>
     </g>
     <g id="text_4">
      <!-- 30 -->
      <g transform="translate(411.510922 670.557812) scale(0.14 -0.14)">
       <defs>
        <path id="DejaVuSans-33" d="M 2597 2516 
Q 3050 2419 3304 2112 
Q 3559 1806 3559 1356 
Q 3559 666 3084 287 
Q 2609 -91 1734 -91 
Q 1441 -91 1130 -33 
Q 819 25 488 141 
L 488 750 
Q 750 597 1062 519 
Q 1375 441 1716 441 
Q 2309 441 2620 675 
Q 2931 909 2931 1356 
Q 2931 1769 2642 2001 
Q 2353 2234 1838 2234 
L 1294 2234 
L 1294 2753 
L 1863 2753 
Q 2328 2753 2575 2939 
Q 2822 3125 2822 3475 
Q 2822 3834 2567 4026 
Q 2313 4219 1838 4219 
Q 1578 4219 1281 4162 
Q 984 4106 628 3988 
L 628 4550 
Q 988 4650 1302 4700 
Q 1616 4750 1894 4750 
Q 2613 4750 3031 4423 
Q 3450 4097 3450 3541 
Q 3450 3153 3228 2886 
Q 3006 2619 2597 2516 
z
" transform="scale(0.015625)"/>
       </defs>
       <use xlink:href="#DejaVuSans-33"/>
       <use xlink:href="#DejaVuSans-30" x="63.623047"/>
      </g>
     </g>
    </g>
    <g id="xtick_5">
     <g id="line2d_5">
      <g>
       <use xlink:href="#m4402790544" x="536.817896" y="652.92" style="stroke: #000000; stroke-width: 0.8"/>
      </g>
     </g>
     <g id="text_5">
      <!-- 40 -->
      <g transform="translate(527.910396 670.557812) scale(0.14 -0.14)">
       <defs>
        <path id="DejaVuSans-34" d="M 2419 4116 
L 825 1625 
L 2419 1625 
L 2419 4116 
z
M 2253 4666 
L 3047 4666 
L 3047 1625 
L 3713 1625 
L 3713 1100 
L 3047 1100 
L 3047 0 
L 2419 0 
L 2419 1100 
L 313 1100 
L 313 1709 
L 2253 4666 
z
" transform="scale(0.015625)"/>
       </defs>
       <use xlink:href="#DejaVuSans-34"/>
       <use xlink:href="#DejaVuSans-30" x="63.623047"/>
      </g>
     </g>
    </g>
    <g id="xtick_6">
     <g id="line2d_6">
      <g>
       <use xlink:href="#m4402790544" x="653.21737" y="652.92" style="stroke: #000000; stroke-width: 0.8"/>
      </g>
     </g>
     <g id="text_6">
      <!-- 50 -->
      <g transform="translate(644.30987 670.557812) scale(0.14 -0.14)">
       <defs>
        <path id="DejaVuSans-35" d="M 691 4666 
L 3169 4666 
L 3169 4134 
L 1269 4134 
L 1269 2991 
Q 1406 3038 1543 3061 
Q 1681 3084 1819 3084 
Q 2600 3084 3056 2656 
Q 3513 2228 3513 1497 
Q 3513 744 3044 326 
Q 2575 -91 1722 -91 
Q 1428 -91 1123 -41 
Q 819 9 494 109 
L 494 744 
Q 775 591 1075 516 
Q 1375 441 1709 441 
Q 2250 441 2565 725 
Q 2881 1009 2881 1497 
Q 2881 1984 2565 2268 
Q 2250 2553 1709 2553 
Q 1456 2553 1204 2497 
Q 953 2441 691 2322 
L 691 4666 
z
" transform="scale(0.015625)"/>
       </defs>
       <use xlink:href="#DejaVuSans-35"/>
       <use xlink:href="#DejaVuSans-30" x="63.623047"/>
      </g>
     </g>
    </g>
    <g id="xtick_7">
     <g id="line2d_7">
      <g>
       <use xlink:href="#m4402790544" x="769.616844" y="652.92" style="stroke: #000000; stroke-width: 0.8"/>
      </g>
     </g>
     <g id="text_7">
      <!-- 60 -->
      <g transform="translate(760.709344 670.557812) scale(0.14 -0.14)">
       <defs>
        <path id="DejaVuSans-36" d="M 2113 2584 
Q 1688 2584 1439 2293 
Q 1191 2003 1191 1497 
Q 1191 994 1439 701 
Q 1688 409 2113 409 
Q 2538 409 2786 701 
Q 3034 994 3034 1497 
Q 3034 2003 2786 2293 
Q 2538 2584 2113 2584 
z
M 3366 4563 
L 3366 3988 
Q 3128 4100 2886 4159 
Q 2644 4219 2406 4219 
Q 1781 4219 1451 3797 
Q 1122 3375 1075 2522 
Q 1259 2794 1537 2939 
Q 1816 3084 2150 3084 
Q 2853 3084 3261 2657 
Q 3669 2231 3669 1497 
Q 3669 778 3244 343 
Q 2819 -91 2113 -91 
Q 1303 -91 875 529 
Q 447 1150 447 2328 
Q 447 3434 972 4092 
Q 1497 4750 2381 4750 
Q 2619 4750 2861 4703 
Q 3103 4656 3366 4563 
z
" transform="scale(0.015625)"/>
       </defs>
       <use xlink:href="#DejaVuSans-36"/>
       <use xlink:href="#DejaVuSans-30" x="63.623047"/>
      </g>
     </g>
    </g>
    <g id="text_8">
     <!-- Time (s) -->
     <g transform="translate(408.519141 688.867031) scale(0.15 -0.15)">
      <defs>
       <path id="DejaVuSans-54" d="M -19 4666 
L 3928 4666 
L 3928 4134 
L 2272 4134 
L 2272 0 
L 1638 0 
L 1638 4134 
L -19 4134 
L -19 4666 
z
" transform="scale(0.015625)"/>
       <path id="DejaVuSans-69" d="M 603 3500 
L 1178 3500 
L 1178 0 
L 603 0 
L 603 3500 
z
M 603 4863 
L 1178 4863 
L 1178 4134 
L 603 4134 
L 603 4863 
z
" transform="scale(0.015625)"/>
       <path id="DejaVuSans-6d" d="M 3328 2828 
Q 3544 3216 3844 3400 
Q 4144 3584 4550 3584 
Q 5097 3584 5394 3201 
Q 5691 2819 5691 2113 
L 5691 0 
L 5113 0 
L 5113 2094 
Q 5113 2597 4934 2840 
Q 4756 3084 4391 3084 
Q 3944 3084 3684 2787 
Q 3425 2491 3425 1978 
L 3425 0 
L 2847 0 
L 2847 2094 
Q 2847 2600 2669 2842 
Q 2491 3084 2119 3084 
Q 1678 3084 1418 2786 
Q 1159 2488 1159 1978 
L 1159 0 
L 581 0 
L 581 3500 
L 1159 3500 
L 1159 2956 
Q 1356 3278 1631 3431 
Q 1906 3584 2284 3584 
Q 2666 3584 2933 3390 
Q 3200 3197 3328 2828 
z
" transform="scale(0.015625)"/>
       <path id="DejaVuSans-65" d="M 3597 1894 
L 3597 1613 
L 953 1613 
Q 991 1019 1311 708 
Q 1631 397 2203 397 
Q 2534 397 2845 478 
Q 3156 559 3463 722 
L 3463 178 
Q 3153 47 2828 -22 
Q 2503 -91 2169 -91 
Q 1331 -91 842 396 
Q 353 884 353 1716 
Q 353 2575 817 3079 
Q 1281 3584 2069 3584 
Q 2775 3584 3186 3129 
Q 3597 2675 3597 1894 
z
M 3022 2063 
Q 3016 2534 2758 2815 
Q 2500 3097 2075 3097 
Q 1594 3097 1305 2825 
Q 1016 2553 972 2059 
L 3022 2063 
z
" transform="scale(0.015625)"/>
       <path id="DejaVuSans-20" transform="scale(0.015625)"/>
       <path id="DejaVuSans-28" d="M 1984 4856 
Q 1566 4138 1362 3434 
Q 1159 2731 1159 2009 
Q 1159 1288 1364 580 
Q 1569 -128 1984 -844 
L 1484 -844 
Q 1016 -109 783 600 
Q 550 1309 550 2009 
Q 550 2706 781 3412 
Q 1013 4119 1484 4856 
L 1984 4856 
z
" transform="scale(0.015625)"/>
       <path id="DejaVuSans-73" d="M 2834 3397 
L 2834 2853 
Q 2591 2978 2328 3040 
Q 2066 3103 1784 3103 
Q 1356 3103 1142 2972 
Q 928 2841 928 2578 
Q 928 2378 1081 2264 
Q 1234 2150 1697 2047 
L 1894 2003 
Q 2506 1872 2764 1633 
Q 3022 1394 3022 966 
Q 3022 478 2636 193 
Q 2250 -91 1575 -91 
Q 1294 -91 989 -36 
Q 684 19 347 128 
L 347 722 
Q 666 556 975 473 
Q 1284 391 1588 391 
Q 1994 391 2212 530 
Q 2431 669 2431 922 
Q 2431 1156 2273 1281 
Q 2116 1406 1581 1522 
L 1381 1569 
Q 847 1681 609 1914 
Q 372 2147 372 2553 
Q 372 3047 722 3315 
Q 1072 3584 1716 3584 
Q 2034 3584 2315 3537 
Q 2597 3491 2834 3397 
z
" transform="scale(0.015625)"/>
       <path id="DejaVuSans-29" d="M 513 4856 
L 1013 4856 
Q 1481 4119 1714 3412 
Q 1947 2706 1947 2009 
Q 1947 1309 1714 600 
Q 1481 -109 1013 -844 
L 513 -844 
Q 928 -128 1133 580 
Q 1338 1288 1338 2009 
Q 1338 2731 1133 3434 
Q 928 4138 513 4856 
z
" transform="scale(0.015625)"/>
      </defs>
      <use xlink:href="#DejaVuSans-54"/>
      <use xlink:href="#DejaVuSans-69" x="57.958984"/>
      <use xlink:href="#DejaVuSans-6d" x="85.742188"/>
      <use xlink:href="#DejaVuSans-65" x="183.154297"/>
      <use xlink:href="#DejaVuSans-20" x="244.677734"/>
      <use xlink:href="#DejaVuSans-28" x="276.464844"/>
      <use xlink:href="#DejaVuSans-73" x="315.478516"/>
      <use xlink:href="#DejaVuSans-29" x="367.578125"/>
     </g>
    </g>
   </g>
   <g id="matplotlib.axis_2">
    <g id="ytick_1">
     <g id="line2d_8">
      <defs>
       <path id="mdae8801b01" d="M 0 0 
L -3.5 0 
" style="stroke: #000000; stroke-width: 0.8"/>
      </defs>
      <g>
       <use xlink:href="#mdae8801b01" x="71.22" y="652.92" style="stroke: #000000; stroke-width: 0.8"/>
      </g>
     </g>
     <g id="text_9">
      <!-- 0 -->
      <g transform="translate(55.3125 658.238906) scale(0.14 -0.14)">
       <use xlink:href="#DejaVuSans-30"/>
      </g>
     </g>
    </g>
    <g id="ytick_2">
     <g id="line2d_9">
      <g>
       <use xlink:href="#mdae8801b01" x="71.22" y="565.707486" style="stroke: #000000; stroke-width: 0.8"/>
      </g>
     </g>
     <g id="text_10">
      <!-- 10 -->
      <g transform="translate(46.405 571.026392) scale(0.14 -0.14)">
       <use xlink:href="#DejaVuSans-31"/>
       <use xlink:href="#DejaVuSans-30" x="63.623047"/>
      </g>
     </g>
    </g>
    <g id="ytick_3">
     <g id="line2d_10">
      <g>
       <use xlink:href="#mdae8801b01" x="71.22" y="478.494971" style="stroke: #000000; stroke-width: 0.8"/>
      </g>
     </g>
     <g id="text_11">
      <!-- 20 -->
      <g transform="translate(46.405 483.813878) scale(0.14 -0.14)">
       <use xlink:href="#DejaVuSans-32"/>
       <use xlink:href="#DejaVuSans-30" x="63.623047"/>
      </g>
     </g>
    </g>
    <g id="ytick_4">
     <g id="line2d_11">
      <g>
       <use xlink:href="#mdae8801b01" x="71.22" y="391.282457" style="stroke: #000000; stroke-width: 0.8"/>
      </g>
     </g>
     <g id="text_12">
      <!-- 30 -->
      <g transform="translate(46.405 396.601363) scale(0.14 -0.14)">
       <use xlink:href="#DejaVuSans-33"/>
       <use xlink:href="#DejaVuSans-30" x="63.623047"/>
      </g>
     </g>
    </g>
    <g id="ytick_5">
     <g id="line2d_12">
      <g>
       <use xlink:href="#mdae8801b01" x="71.22" y="304.069943" style="stroke: #000000; stroke-width: 0.8"/>
      </g>
     </g>
     <g id="text_13">
      <!-- 40 -->
      <g transform="translate(46.405 309.388849) scale(0.14 -0.14)">
       <use xlink:href="#DejaVuSans-34"/>
       <use xlink:href="#DejaVuSans-30" x="63.623047"/>
      </g>
     </g>
    </g>
    <g id="ytick_6">
     <g id="line2d_13">
      <g>
       <use xlink:href="#mdae8801b01" x="71.22" y="216.857429" style="stroke: #000000; stroke-width: 0.8"/>
      </g>
     </g>
     <g id="text_14">
      <!-- 50 -->
      <g transform="translate(46.405 222.176335) scale(0.14 -0.14)">
       <use xlink:href="#DejaVuSans-35"/>
       <use xlink:href="#DejaVuSans-30" x="63.623047"/>
      </g>
     </g>
    </g>
    <g id="ytick_7">
     <g id="line2d_14">
      <g>
       <use xlink:href="#mdae8801b01" x="71.22" y="129.644914" style="stroke: #000000; stroke-width: 0.8"/>
      </g>
     </g>
     <g id="text_15">
      <!-- 60 -->
      <g transform="translate(46.405 134.963821) scale(0.14 -0.14)">
       <use xlink:href="#DejaVuSans-36"/>
       <use xlink:href="#DejaVuSans-30" x="63.623047"/>
      </g>
     </g>
    </g>
    <g id="text_16">
     <!-- Packets per Second -->
     <g transform="translate(39.285469 423.207969) rotate(-90) scale(0.15 -0.15)">
      <defs>
       <path id="DejaVuSans-50" d="M 1259 4147 
L 1259 2394 
L 2053 2394 
Q 2494 2394 2734 2622 
Q 2975 2850 2975 3272 
Q 2975 3691 2734 3919 
Q 2494 4147 2053 4147 
L 1259 4147 
z
M 628 4666 
L 2053 4666 
Q 2838 4666 3239 4311 
Q 3641 3956 3641 3272 
Q 3641 2581 3239 2228 
Q 2838 1875 2053 1875 
L 1259 1875 
L 1259 0 
L 628 0 
L 628 4666 
z
" transform="scale(0.015625)"/>
       <path id="DejaVuSans-61" d="M 2194 1759 
Q 1497 1759 1228 1600 
Q 959 1441 959 1056 
Q 959 750 1161 570 
Q 1363 391 1709 391 
Q 2188 391 2477 730 
Q 2766 1069 2766 1631 
L 2766 1759 
L 2194 1759 
z
M 3341 1997 
L 3341 0 
L 2766 0 
L 2766 531 
Q 2569 213 2275 61 
Q 1981 -91 1556 -91 
Q 1019 -91 701 211 
Q 384 513 384 1019 
Q 384 1609 779 1909 
Q 1175 2209 1959 2209 
L 2766 2209 
L 2766 2266 
Q 2766 2663 2505 2880 
Q 2244 3097 1772 3097 
Q 1472 3097 1187 3025 
Q 903 2953 641 2809 
L 641 3341 
Q 956 3463 1253 3523 
Q 1550 3584 1831 3584 
Q 2591 3584 2966 3190 
Q 3341 2797 3341 1997 
z
" transform="scale(0.015625)"/>
       <path id="DejaVuSans-63" d="M 3122 3366 
L 3122 2828 
Q 2878 2963 2633 3030 
Q 2388 3097 2138 3097 
Q 1578 3097 1268 2742 
Q 959 2388 959 1747 
Q 959 1106 1268 751 
Q 1578 397 2138 397 
Q 2388 397 2633 464 
Q 2878 531 3122 666 
L 3122 134 
Q 2881 22 2623 -34 
Q 2366 -91 2075 -91 
Q 1284 -91 818 406 
Q 353 903 353 1747 
Q 353 2603 823 3093 
Q 1294 3584 2113 3584 
Q 2378 3584 2631 3529 
Q 2884 3475 3122 3366 
z
" transform="scale(0.015625)"/>
       <path id="DejaVuSans-6b" d="M 581 4863 
L 1159 4863 
L 1159 1991 
L 2875 3500 
L 3609 3500 
L 1753 1863 
L 3688 0 
L 2938 0 
L 1159 1709 
L 1159 0 
L 581 0 
L 581 4863 
z
" transform="scale(0.015625)"/>
       <path id="DejaVuSans-74" d="M 1172 4494 
L 1172 3500 
L 2356 3500 
L 2356 3053 
L 1172 3053 
L 1172 1153 
Q 1172 725 1289 603 
Q 1406 481 1766 481 
L 2356 481 
L 2356 0 
L 1766 0 
Q 1100 0 847 248 
Q 594 497 594 1153 
L 594 3053 
L 172 3053 
L 172 3500 
L 594 3500 
L 594 4494 
L 1172 4494 
z
" transform="scale(0.015625)"/>
       <path id="DejaVuSans-70" d="M 1159 525 
L 1159 -1331 
L 581 -1331 
L 581 3500 
L 1159 3500 
L 1159 2969 
Q 1341 3281 1617 3432 
Q 1894 3584 2278 3584 
Q 2916 3584 3314 3078 
Q 3713 2572 3713 1747 
Q 3713 922 3314 415 
Q 2916 -91 2278 -91 
Q 1894 -91 1617 61 
Q 1341 213 1159 525 
z
M 3116 1747 
Q 3116 2381 2855 2742 
Q 2594 3103 2138 3103 
Q 1681 3103 1420 2742 
Q 1159 2381 1159 1747 
Q 1159 1113 1420 752 
Q 1681 391 2138 391 
Q 2594 391 2855 752 
Q 3116 1113 3116 1747 
z
" transform="scale(0.015625)"/>
       <path id="DejaVuSans-72" d="M 2631 2963 
Q 2534 3019 2420 3045 
Q 2306 3072 2169 3072 
Q 1681 3072 1420 2755 
Q 1159 2438 1159 1844 
L 1159 0 
L 581 0 
L 581 3500 
L 1159 3500 
L 1159 2956 
Q 1341 3275 1631 3429 
Q 1922 3584 2338 3584 
Q 2397 3584 2469 3576 
Q 2541 3569 2628 3553 
L 2631 2963 
z
" transform="scale(0.015625)"/>
       <path id="DejaVuSans-53" d="M 3425 4513 
L 3425 3897 
Q 3066 4069 2747 4153 
Q 2428 4238 2131 4238 
Q 1616 4238 1336 4038 
Q 1056 3838 1056 3469 
Q 1056 3159 1242 3001 
Q 1428 2844 1947 2747 
L 2328 2669 
Q 3034 2534 3370 2195 
Q 3706 1856 3706 1288 
Q 3706 609 3251 259 
Q 2797 -91 1919 -91 
Q 1588 -91 1214 -16 
Q 841 59 441 206 
L 441 856 
Q 825 641 1194 531 
Q 1563 422 1919 422 
Q 2459 422 2753 634 
Q 3047 847 3047 1241 
Q 3047 1584 2836 1778 
Q 2625 1972 2144 2069 
L 1759 2144 
Q 1053 2284 737 2584 
Q 422 2884 422 3419 
Q 422 4038 858 4394 
Q 1294 4750 2059 4750 
Q 2388 4750 2728 4690 
Q 3069 4631 3425 4513 
z
" transform="scale(0.015625)"/>
       <path id="DejaVuSans-6f" d="M 1959 3097 
Q 1497 3097 1228 2736 
Q 959 2375 959 1747 
Q 959 1119 1226 758 
Q 1494 397 1959 397 
Q 2419 397 2687 759 
Q 2956 1122 2956 1747 
Q 2956 2369 2687 2733 
Q 2419 3097 1959 3097 
z
M 1959 3584 
Q 2709 3584 3137 3096 
Q 3566 2609 3566 1747 
Q 3566 888 3137 398 
Q 2709 -91 1959 -91 
Q 1206 -91 779 398 
Q 353 888 353 1747 
Q 353 2609 779 3096 
Q 1206 3584 1959 3584 
z
" transform="scale(0.015625)"/>
       <path id="DejaVuSans-6e" d="M 3513 2113 
L 3513 0 
L 2938 0 
L 2938 2094 
Q 2938 2591 2744 2837 
Q 2550 3084 2163 3084 
Q 1697 3084 1428 2787 
Q 1159 2491 1159 1978 
L 1159 0 
L 581 0 
L 581 3500 
L 1159 3500 
L 1159 2956 
Q 1366 3272 1645 3428 
Q 1925 3584 2291 3584 
Q 2894 3584 3203 3211 
Q 3513 2838 3513 2113 
z
" transform="scale(0.015625)"/>
       <path id="DejaVuSans-64" d="M 2906 2969 
L 2906 4863 
L 3481 4863 
L 3481 0 
L 2906 0 
L 2906 525 
Q 2725 213 2448 61 
Q 2172 -91 1784 -91 
Q 1150 -91 751 415 
Q 353 922 353 1747 
Q 353 2572 751 3078 
Q 1150 3584 1784 3584 
Q 2172 3584 2448 3432 
Q 2725 3281 2906 2969 
z
M 947 1747 
Q 947 1113 1208 752 
Q 1469 391 1925 391 
Q 2381 391 2643 752 
Q 2906 1113 2906 1747 
Q 2906 2381 2643 2742 
Q 2381 3103 1925 3103 
Q 1469 3103 1208 2742 
Q 947 2381 947 1747 
z
" transform="scale(0.015625)"/>
      </defs>
      <use xlink:href="#DejaVuSans-50"/>
      <use xlink:href="#DejaVuSans-61" x="55.802734"/>
      <use xlink:href="#DejaVuSans-63" x="117.082031"/>
      <use xlink:href="#DejaVuSans-6b" x="172.0625"/>
      <use xlink:href="#DejaVuSans-65" x="226.347656"/>
      <use xlink:href="#DejaVuSans-74" x="287.871094"/>
      <use xlink:href="#DejaVuSans-73" x="327.080078"/>
      <use xlink:href="#DejaVuSans-20" x="379.179688"/>
      <use xlink:href="#DejaVuSans-70" x="410.966797"/>
      <use xlink:href="#DejaVuSans-65" x="474.443359"/>
      <use xlink:href="#DejaVuSans-72" x="535.966797"/>
      <use xlink:href="#DejaVuSans-20" x="577.080078"/>
      <use xlink:href="#DejaVuSans-53" x="608.867188"/>
      <use xlink:href="#DejaVuSans-65" x="672.34375"/>
      <use xlink:href="#DejaVuSans-63" x="733.867188"/>
      <use xlink:href="#DejaVuSans-6f" x="788.847656"/>
      <use xlink:href="#DejaVuSans-6e" x="850.029297"/>
      <use xlink:href="#DejaVuSans-64" x="913.408203"/>
     </g>
    </g>
   </g>
   <g id="line2d_15">
    <path d="M 71.22 154.480856 
L 73.485202 159.95553 
L 75.997767 127.68235 
L 78.305919 125.147746 
L 80.862535 136.732234 
L 83.31515 114.84379 
L 85.862531 95.01024 
L 88.250608 142.811297 
L 90.580344 130.037079 
L 93.288646 165.642787 
L 96.015296 94.460598 
L 98.340065 128.919897 
L 100.676451 131.525626 
L 103.324377 154.532193 
L 105.663212 88.667372 
L 108.051199 142.792119 
L 110.489339 153.285493 
L 113.098314 108.181683 
L 115.816332 130.035744 
L 118.142219 129.171792 
L 120.47503 130.726542 
L 122.80431 129.934771 
L 125.133298 129.86923 
L 127.571807 153.361177 
L 130.112912 133.581405 
L 132.568676 115.533719 
L 134.915553 133.85634 
L 137.488886 140.085484 
L 139.878818 143.207145 
L 142.337058 116.075072 
L 144.659138 128.313216 
L 147.268708 108.30579 
L 149.679619 147.642668 
L 152.038162 136.423594 
L 154.42957 143.521944 
L 156.979631 95.5965 
L 159.427794 155.331103 
L 161.754504 129.357143 
L 164.086706 130.590008 
L 166.679645 143.963302 
L 169.019574 88.93103 
L 171.464168 154.604561 
L 173.913966 155.66316 
L 176.389283 119.778797 
L 179.11353 93.967843 
L 181.565192 156.041125 
L 183.777259 102.223002 
L 186.224956 155.236206 
L 188.671676 155.037689 
L 193.481394 87.613184 
L 195.806795 172.717301 
L 198.319878 127.790543 
L 200.584475 114.99708 
L 203.193112 108.111046 
L 205.643441 155.770787 
L 208.240869 105.760082 
L 210.68792 155.104903 
L 213.278134 143.427828 
L 215.606398 129.706617 
L 217.944417 88.470484 
L 220.599274 117.596024 
L 222.981301 184.132611 
L 225.316482 87.784525 
L 227.648785 130.612606 
L 230.086488 153.195849 
L 232.694141 107.905623 
L 235.131712 153.168746 
L 237.740103 108.059686 
L 240.302192 177.456895 
L 242.718431 106.743222 
L 245.190665 119.113752 
L 247.828373 114.115577 
L 250.160888 130.660334 
L 252.48966 129.820563 
L 254.895101 146.493602 
L 257.265613 139.031471 
L 259.58562 127.844594 
L 262.189822 107.183274 
L 264.512578 172.17043 
L 266.926051 106.117009 
L 269.180627 112.606055 
L 271.742179 177.35722 
L 273.946481 100.283074 
L 276.554511 107.984226 
L 278.879843 129.046787 
L 281.203538 172.364877 
L 283.531661 129.674849 
L 285.989268 115.936627 
L 288.578233 143.182098 
L 290.915482 88.284568 
L 293.245092 130.008902 
L 295.688875 154.439198 
L 298.290439 106.629751 
L 300.747585 157.150217 
L 303.076145 129.773219 
L 305.405978 130.05878 
L 307.733868 129.622604 
L 310.323789 104.174044 
L 312.769182 154.767481 
L 315.094591 129.064186 
L 317.638129 94.167406 
L 320.02771 143.132157 
L 322.469874 154.108846 
L 325.071142 106.567624 
L 327.509496 153.32931 
L 329.903062 143.981216 
L 332.172071 116.042842 
L 334.555007 141.710836 
L 337.034975 120.778614 
L 339.435436 103.153152 
L 342.149058 129.188659 
L 344.554368 146.466026 
L 347.191407 113.978806 
L 349.843877 155.386056 
L 352.178362 87.616025 
L 354.527922 177.654791 
L 356.889795 137.151832 
L 359.227042 88.284155 
L 361.670388 154.350048 
L 364.268541 105.912628 
L 366.930428 119.009837 
L 369.309207 183.492649 
L 371.63806 129.83887 
L 374.093199 115.396997 
L 376.688366 105.283136 
L 379.194716 166.883044 
L 381.737712 94.048199 
L 384.184255 155.001575 
L 386.394994 101.892065 
L 389.049316 117.488082 
L 391.440852 143.549127 
L 393.888103 155.145636 
L 396.098875 101.900327 
L 398.427028 129.681696 
L 400.924384 165.132551 
L 403.317383 143.860381 
L 405.733388 106.690257 
L 408.129744 102.211477 
L 410.449139 171.473822 
L 412.904851 115.52219 
L 415.233895 129.881908 
L 417.555364 128.175088 
L 419.881497 129.227422 
L 422.335509 156.516888 
L 424.809657 119.526767 
L 427.137688 129.654359 
L 429.475907 88.518791 
L 431.912853 153.040586 
L 434.513003 145.374693 
L 436.851618 88.614425 
L 439.260834 147.287074 
L 441.616099 135.704814 
L 444.224164 107.991466 
L 446.668479 154.54773 
L 449.270331 106.69029 
L 451.977934 165.517091 
L 454.364706 99.999995 
L 456.753098 142.878733 
L 459.086807 130.927362 
L 461.689072 106.777036 
L 464.018247 129.911207 
L 466.346421 129.686305 
L 468.67511 129.802054 
L 471.113372 153.310488 
L 473.447058 130.922373 
L 475.770362 128.589474 
L 478.378217 107.947708 
L 481.091328 129.09023 
L 483.414635 172.284272 
L 485.753263 88.617388 
L 488.198932 154.823626 
L 490.738257 93.240387 
L 493.116517 183.390102 
L 495.452053 87.870494 
L 497.85908 146.827173 
L 500.162235 124.002569 
L 502.555283 143.870982 
L 505.148415 144.001054 
L 507.57186 108.367308 
L 509.864952 121.681271 
L 512.347814 162.285082 
L 514.859009 86.970771 
L 517.179502 171.701542 
L 519.838912 118.51259 
L 522.22573 142.542267 
L 524.553406 129.574258 
L 527.000558 113.642781 
L 529.427166 150.911086 
L 531.933874 85.957657 
L 534.263606 130.036311 
L 536.590884 129.484932 
L 539.312437 130.715042 
L 541.757637 154.727922 
L 544.357116 106.191887 
L 546.685437 129.719285 
L 549.015676 130.150161 
L 551.671704 117.832001 
L 554.049561 183.310517 
L 556.384494 87.724579 
L 558.89173 167.054717 
L 561.278124 142.451413 
L 563.607189 129.88659 
L 566.028365 65.9289 
L 568.354246 172.816407 
L 570.745112 100.946904 
L 573.151793 146.754464 
L 575.523807 139.356848 
L 578.065381 93.735403 
L 580.441454 182.958034 
L 583.168576 94.557312 
L 585.825365 117.98509 
L 588.154358 129.870597 
L 590.478423 128.761198 
L 592.802636 172.471846 
L 595.199359 102.295627 
L 597.529091 130.036348 
L 600.244138 129.463516 
L 602.741384 165.111088 
L 605.220857 120.67235 
L 607.618549 102.518258 
L 610.334724 129.681107 
L 612.653782 171.403799 
L 617.649953 81.976158 
L 620.03759 142.717325 
L 622.480705 154.302773 
L 625.084083 107.010549 
L 627.79154 165.490749 
L 630.119748 129.694043 
L 632.456937 88.269858 
L 635.105951 154.737046 
L 637.502956 102.360629 
L 639.945822 154.25212 
L 642.236842 121.200793 
L 644.808794 139.810352 
L 647.201201 101.302375 
L 649.652657 155.999333 
L 651.980426 129.59539 
L 656.637433 129.791283 
L 658.965749 129.718265 
L 661.556321 143.498327 
L 663.883544 129.472596 
L 666.271503 100.274787 
L 668.550394 118.370974 
L 670.99513 154.633627 
L 673.596681 106.627116 
L 676.312653 129.641933 
L 678.874159 177.348671 
L 681.349557 119.79601 
L 683.686673 88.252363 
L 686.39507 165.65997 
L 688.732279 88.274645 
L 691.169038 153.002385 
L 693.616386 155.165357 
L 696.105934 82.049914 
L 698.426919 171.803422 
L 700.754906 129.64441 
L 703.210115 115.412211 
L 705.529848 127.782528 
L 708.137745 107.956608 
L 712.90423 153.236606 
L 715.330032 150.744359 
L 717.566185 108.154447 
L 720.168513 106.790223 
L 722.615365 155.064486 
L 724.901768 120.127259 
L 727.495678 105.017835 
L 730.270198 140.684153 
L 732.715545 154.758112 
L 735.044964 129.965998 
L 737.374054 129.892105 
L 739.971541 105.772403 
L 742.419508 155.291266 
L 745.017924 105.968136 
L 749.793328 155.229238 
L 752.121893 129.774207 
L 754.662068 93.427644 
L 757.049616 142.698185 
L 759.696149 115.912243 
L 762.025684 129.992052 
L 764.408595 141.705522 
L 766.740344 130.488506 
L 769.0689 129.772345 
L 771.777143 165.632127 
L 771.777143 165.632127 
" clip-path="url(#p5162d31411)" style="fill: none; stroke: #1f77b4; stroke-width: 1.5; stroke-linecap: square"/>
   </g>
   <g id="line2d_16">
    <path d="M 71.22 130.103408 
L 806.805 130.103408 
" clip-path="url(#p5162d31411)" style="fill: none; stroke-dasharray: 5.55,2.4; stroke-dashoffset: 0; stroke: #0000ff; stroke-width: 1.5"/>
   </g>
   <g id="line2d_17">
    <path d="M 71.22 403.705586 
L 73.48522 428.847018 
L 75.997799 370.101284 
L 78.305874 389.025038 
L 80.862572 414.687136 
L 83.315159 404.574306 
L 85.862559 334.116792 
L 88.250587 397.860436 
L 90.580328 391.479176 
L 93.288681 428.027049 
L 96.015317 355.073371 
L 98.339996 434.578207 
L 100.676437 348.780343 
L 103.324375 422.895983 
L 105.663199 349.090245 
L 108.051241 397.861935 
L 110.48938 444.738815 
L 113.09836 341.641534 
L 118.142259 434.691746 
L 120.475067 348.306651 
L 122.804348 391.427537 
L 125.133332 391.394131 
L 127.571837 444.770104 
L 130.112951 373.277204 
L 132.568713 363.557937 
L 134.915586 393.387701 
L 137.488922 416.227453 
L 139.878859 398.064096 
L 142.337087 363.848187 
L 144.659177 434.33485 
L 147.268639 341.69895 
L 149.679654 442.396883 
L 152.038186 394.67057 
L 154.429611 355.773144 
L 156.979665 374.257512 
L 159.427798 404.122464 
L 161.754429 434.761408 
L 164.086746 391.767953 
L 166.67963 378.860537 
L 169.019614 349.240866 
L 171.464097 403.750952 
L 173.913866 404.288644 
L 176.389222 406.858647 
L 179.113561 392.08445 
L 181.565169 363.067677 
L 183.777187 377.565409 
L 186.224883 404.077999 
L 188.671715 403.990188 
L 191.146846 406.836305 
L 193.481325 392.009706 
L 195.806829 391.002904 
L 198.319811 370.146611 
L 200.584505 383.970032 
L 203.193137 380.514952 
L 205.643361 404.334855 
L 208.240899 379.351587 
L 210.687847 404.001964 
L 213.27814 417.776916 
L 215.606433 391.316552 
L 217.944448 348.985135 
L 220.599116 423.479106 
L 222.981222 397.226299 
L 225.316409 392.088861 
L 227.648812 348.253738 
L 230.086515 403.057988 
L 232.694171 380.413121 
L 235.131738 444.690004 
L 237.740076 341.564919 
L 240.302187 415.190412 
L 242.718446 400.840498 
L 245.190672 406.547102 
L 247.828391 383.518918 
L 250.160908 348.268703 
L 252.489678 391.37019 
L 254.894917 399.685536 
L 257.265562 395.99016 
L 259.585529 390.377714 
L 262.189813 419.040152 
L 264.512469 390.681663 
L 266.926073 358.503744 
L 269.180452 382.739348 
L 271.742175 415.154479 
L 273.946496 422.65652 
L 276.554531 341.528834 
L 278.879837 434.637061 
L 281.203559 390.801962 
L 283.531551 391.282756 
L 285.989288 363.79047 
L 288.578248 417.655894 
L 290.915499 348.885731 
L 293.245077 391.460793 
L 295.688863 445.219923 
L 298.290445 340.756483 
L 300.747582 405.034144 
L 303.076144 391.346807 
L 305.405973 391.488946 
L 307.733862 391.27126 
L 310.323554 378.522708 
L 312.769056 403.854794 
L 315.094552 391.001934 
L 317.638033 373.53741 
L 320.027569 398.021367 
L 322.469878 403.529129 
L 325.071117 379.740892 
L 327.509403 403.117625 
L 329.903073 398.46166 
L 332.171935 384.464085 
L 334.555019 397.33118 
L 337.034987 407.316267 
L 339.435342 356.878694 
L 342.149072 391.06475 
L 344.554268 399.680982 
L 347.191413 421.954555 
L 349.843889 385.017698 
L 352.17826 391.997748 
L 354.527932 393.696787 
L 356.889802 395.035558 
L 359.227018 348.881274 
L 361.670397 403.638355 
L 364.268549 418.488187 
L 366.930436 347.828484 
L 369.309172 439.54007 
L 371.637961 391.372281 
L 374.093063 363.480072 
L 376.688334 418.227966 
L 379.194717 369.402223 
L 381.737573 373.468632 
L 384.184269 403.976339 
L 386.394957 377.399752 
L 389.049319 423.452661 
L 391.440856 355.787086 
L 393.887958 404.017629 
L 396.098777 377.415943 
L 398.426897 391.297209 
L 400.924346 409.035284 
L 403.317385 398.394577 
L 405.733347 400.809474 
L 408.129636 356.376326 
L 410.449097 434.086988 
L 412.904742 363.544187 
L 415.233785 391.400816 
L 417.555206 390.542148 
L 419.881498 434.729637 
L 422.335348 363.332374 
L 424.809608 406.749641 
L 427.137681 391.291882 
L 429.47576 348.993377 
L 431.912854 402.995603 
L 434.51296 418.664329 
L 436.851511 349.054829 
L 439.260716 400.102321 
L 441.616054 394.320397 
L 444.224159 380.459998 
L 446.668331 445.252723 
L 449.270281 340.800514 
L 451.977822 427.959618 
L 454.364654 397.732664 
L 456.75298 355.387651 
L 459.08675 435.428719 
L 461.689069 340.844721 
L 464.018236 391.414755 
L 466.34637 391.298742 
L 468.675111 391.366855 
L 471.113231 403.100754 
L 473.447005 391.930946 
L 475.770354 390.759879 
L 478.378161 380.42883 
L 481.091325 428.425796 
L 483.414468 390.736719 
L 485.753254 349.085238 
L 488.198809 403.860166 
L 490.738192 373.086549 
L 493.116503 439.501975 
L 495.451894 392.111666 
L 497.859013 399.883255 
L 500.162225 388.467871 
L 502.555116 398.378708 
L 505.148411 378.903994 
L 507.571689 401.570597 
L 509.864944 387.319571 
L 512.347805 366.716181 
L 514.858896 410.36036 
L 517.179191 390.41475 
L 519.838361 385.692205 
L 522.225495 397.764804 
L 524.553332 391.265362 
L 527.000549 362.547581 
L 529.426844 401.883135 
L 531.933801 409.960342 
L 534.263588 391.484323 
L 536.590859 391.201624 
L 539.312366 354.512153 
L 541.757623 403.829841 
L 544.356935 379.538245 
L 546.685311 391.325934 
L 549.015658 391.547131 
L 551.671628 385.370183 
L 554.049548 439.466784 
L 556.384313 392.041806 
L 558.891644 369.509329 
L 561.278003 397.68195 
L 563.607176 391.415452 
L 566.028108 401.327025 
L 568.353996 391.046094 
L 570.744764 398.152738 
L 573.151663 357.683484 
L 575.523791 396.150787 
L 578.065249 373.314971 
L 580.441327 439.301434 
L 583.168487 355.130556 
L 585.825341 385.459234 
L 588.154335 391.395233 
L 590.478401 434.520633 
L 592.802543 390.849408 
L 595.199167 356.417762 
L 597.528957 391.484572 
L 600.244009 391.192308 
L 602.741355 409.02528 
L 605.220729 407.257462 
L 607.618409 356.548332 
L 610.334702 391.311903 
L 612.653349 434.010165 
L 614.982889 391.456584 
L 617.649819 348.405325 
L 620.037496 397.82296 
L 622.480664 445.167386 
L 625.083481 340.904467 
L 627.791446 427.994904 
L 630.119717 391.314016 
L 632.456829 348.867684 
L 635.105917 422.995819 
L 637.502329 356.391523 
L 639.945685 403.635994 
L 642.236806 431.380177 
L 644.808587 376.611812 
L 647.201063 398.334605 
L 649.652171 363.008518 
L 651.980324 391.300769 
L 658.965716 391.338904 
L 661.555851 417.76263 
L 663.883513 391.24561 
L 666.271468 397.852571 
L 668.550291 341.090509 
L 670.995101 445.306894 
L 673.596175 340.695442 
L 676.312539 391.318662 
L 678.874122 415.141522 
L 681.349335 406.844353 
L 683.686644 348.893363 
L 686.394485 427.984569 
L 688.732245 348.951881 
L 691.168989 402.95966 
L 693.616275 404.036368 
L 696.105892 367.492841 
L 698.426398 434.185515 
L 700.754794 391.32818 
L 703.209963 363.488 
L 705.52973 390.355073 
L 708.137705 380.446383 
L 710.465827 391.297345 
L 712.904194 444.758395 
L 715.329987 359.983005 
L 717.566061 425.926366 
L 720.16847 340.855598 
L 722.615314 403.991389 
L 724.90162 386.512324 
L 727.495418 378.957212 
L 730.269614 396.77209 
L 732.715477 403.891537 
L 735.044883 391.441571 
L 737.373755 391.381591 
L 739.971473 379.370637 
L 742.419313 404.092602 
L 745.017852 379.457055 
L 749.793252 404.102859 
L 752.121713 391.33549 
L 754.661763 373.160044 
L 757.049546 397.834166 
L 759.695499 384.357327 
L 762.025554 391.514384 
L 764.408536 439.920237 
L 766.740204 348.157836 
L 769.068847 391.355825 
L 771.777085 428.017555 
L 771.777085 428.017555 
" clip-path="url(#p5162d31411)" style="fill: none; stroke: #ff7f0e; stroke-width: 1.5; stroke-linecap: square"/>
   </g>
   <g id="line2d_18">
    <path d="M 71.22 391.622954 
L 806.805 391.622954 
" clip-path="url(#p5162d31411)" style="fill: none; stroke-dasharray: 5.55,2.4; stroke-dashoffset: 0; stroke: #ffa500; stroke-width: 1.5"/>
   </g>
   <g id="patch_3">
    <path d="M 71.22 652.92 
L 71.22 46.96 
" style="fill: none; stroke: #000000; stroke-width: 0.8; stroke-linejoin: miter; stroke-linecap: square"/>
   </g>
   <g id="patch_4">
    <path d="M 806.805 652.92 
L 806.805 46.96 
" style="fill: none; stroke: #000000; stroke-width: 0.8; stroke-linejoin: miter; stroke-linecap: square"/>
   </g>
   <g id="patch_5">
    <path d="M 71.22 652.92 
L 806.805 652.92 
" style="fill: none; stroke: #000000; stroke-width: 0.8; stroke-linejoin: miter; stroke-linecap: square"/>
   </g>
   <g id="patch_6">
    <path d="M 71.22 46.96 
L 806.805 46.96 
" style="fill: none; stroke: #000000; stroke-width: 0.8; stroke-linejoin: miter; stroke-linecap: square"/>
   </g>
   <g id="text_17">
    <!-- Observed and Filtered Packet Rates -->
    <g transform="translate(289.890188 40.96) scale(0.168 -0.168)">
     <defs>
      <path id="DejaVuSans-4f" d="M 2522 4238 
Q 1834 4238 1429 3725 
Q 1025 3213 1025 2328 
Q 1025 1447 1429 934 
Q 1834 422 2522 422 
Q 3209 422 3611 934 
Q 4013 1447 4013 2328 
Q 4013 3213 3611 3725 
Q 3209 4238 2522 4238 
z
M 2522 4750 
Q 3503 4750 4090 4092 
Q 4678 3434 4678 2328 
Q 4678 1225 4090 567 
Q 3503 -91 2522 -91 
Q 1538 -91 948 565 
Q 359 1222 359 2328 
Q 359 3434 948 4092 
Q 1538 4750 2522 4750 
z
" transform="scale(0.015625)"/>
      <path id="DejaVuSans-62" d="M 3116 1747 
Q 3116 2381 2855 2742 
Q 2594 3103 2138 3103 
Q 1681 3103 1420 2742 
Q 1159 2381 1159 1747 
Q 1159 1113 1420 752 
Q 1681 391 2138 391 
Q 2594 391 2855 752 
Q 3116 1113 3116 1747 
z
M 1159 2969 
Q 1341 3281 1617 3432 
Q 1894 3584 2278 3584 
Q 2916 3584 3314 3078 
Q 3713 2572 3713 1747 
Q 3713 922 3314 415 
Q 2916 -91 2278 -91 
Q 1894 -91 1617 61 
Q 1341 213 1159 525 
L 1159 0 
L 581 0 
L 581 4863 
L 1159 4863 
L 1159 2969 
z
" transform="scale(0.015625)"/>
      <path id="DejaVuSans-76" d="M 191 3500 
L 800 3500 
L 1894 563 
L 2988 3500 
L 3597 3500 
L 2284 0 
L 1503 0 
L 191 3500 
z
" transform="scale(0.015625)"/>
      <path id="DejaVuSans-46" d="M 628 4666 
L 3309 4666 
L 3309 4134 
L 1259 4134 
L 1259 2759 
L 3109 2759 
L 3109 2228 
L 1259 2228 
L 1259 0 
L 628 0 
L 628 4666 
z
" transform="scale(0.015625)"/>
      <path id="DejaVuSans-6c" d="M 603 4863 
L 1178 4863 
L 1178 0 
L 603 0 
L 603 4863 
z
" transform="scale(0.015625)"/>
      <path id="DejaVuSans-52" d="M 2841 2188 
Q 3044 2119 3236 1894 
Q 3428 1669 3622 1275 
L 4263 0 
L 3584 0 
L 2988 1197 
Q 2756 1666 2539 1819 
Q 2322 1972 1947 1972 
L 1259 1972 
L 1259 0 
L 628 0 
L 628 4666 
L 2053 4666 
Q 2853 4666 3247 4331 
Q 3641 3997 3641 3322 
Q 3641 2881 3436 2590 
Q 3231 2300 2841 2188 
z
M 1259 4147 
L 1259 2491 
L 2053 2491 
Q 2509 2491 2742 2702 
Q 2975 2913 2975 3322 
Q 2975 3731 2742 3939 
Q 2509 4147 2053 4147 
L 1259 4147 
z
" transform="scale(0.015625)"/>
     </defs>
     <use xlink:href="#DejaVuSans-4f"/>
     <use xlink:href="#DejaVuSans-62" x="78.710938"/>
     <use xlink:href="#DejaVuSans-73" x="142.1875"/>
     <use xlink:href="#DejaVuSans-65" x="194.287109"/>
     <use xlink:href="#DejaVuSans-72" x="255.810547"/>
     <use xlink:href="#DejaVuSans-76" x="296.923828"/>
     <use xlink:href="#DejaVuSans-65" x="356.103516"/>
     <use xlink:href="#DejaVuSans-64" x="417.626953"/>
     <use xlink:href="#DejaVuSans-20" x="481.103516"/>
     <use xlink:href="#DejaVuSans-61" x="512.890625"/>
     <use xlink:href="#DejaVuSans-6e" x="574.169922"/>
     <use xlink:href="#DejaVuSans-64" x="637.548828"/>
     <use xlink:href="#DejaVuSans-20" x="701.025391"/>
     <use xlink:href="#DejaVuSans-46" x="732.8125"/>
     <use xlink:href="#DejaVuSans-69" x="783.082031"/>
     <use xlink:href="#DejaVuSans-6c" x="810.865234"/>
     <use xlink:href="#DejaVuSans-74" x="838.648438"/>
     <use xlink:href="#DejaVuSans-65" x="877.857422"/>
     <use xlink:href="#DejaVuSans-72" x="939.380859"/>
     <use xlink:href="#DejaVuSans-65" x="978.244141"/>
     <use xlink:href="#DejaVuSans-64" x="1039.767578"/>
     <use xlink:href="#DejaVuSans-20" x="1103.244141"/>
     <use xlink:href="#DejaVuSans-50" x="1135.03125"/>
     <use xlink:href="#DejaVuSans-61" x="1190.833984"/>
     <use xlink:href="#DejaVuSans-63" x="1252.113281"/>
     <use xlink:href="#DejaVuSans-6b" x="1307.09375"/>
     <use xlink:href="#DejaVuSans-65" x="1361.378906"/>
     <use xlink:href="#DejaVuSans-74" x="1422.902344"/>
     <use xlink:href="#DejaVuSans-20" x="1462.111328"/>
     <use xlink:href="#DejaVuSans-52" x="1493.898438"/>
     <use xlink:href="#DejaVuSans-61" x="1561.130859"/>
     <use xlink:href="#DejaVuSans-74" x="1622.410156"/>
     <use xlink:href="#DejaVuSans-65" x="1661.619141"/>
     <use xlink:href="#DejaVuSans-73" x="1723.142578"/>
    </g>
   </g>
   <g id="legend_1">
    <g id="patch_7">
     <path d="M 816.605 393.13875 
L 1083.440625 393.13875 
Q 1086.240625 393.13875 1086.240625 390.33875 
L 1086.240625 309.54125 
Q 1086.240625 306.74125 1083.440625 306.74125 
L 816.605 306.74125 
Q 813.805 306.74125 813.805 309.54125 
L 813.805 390.33875 
Q 813.805 393.13875 816.605 393.13875 
z
" style="fill: #ffffff; opacity: 0.8; stroke: #cccccc; stroke-linejoin: miter"/>
    </g>
    <g id="line2d_19">
     <path d="M 819.405 318.079062 
L 833.405 318.079062 
L 847.405 318.079062 
" style="fill: none; stroke: #1f77b4; stroke-width: 1.5; stroke-linecap: square"/>
    </g>
    <g id="text_18">
     <!-- Filtered packets Cam 1 -->
     <g transform="translate(858.605 322.979062) scale(0.14 -0.14)">
      <defs>
       <path id="DejaVuSans-43" d="M 4122 4306 
L 4122 3641 
Q 3803 3938 3442 4084 
Q 3081 4231 2675 4231 
Q 1875 4231 1450 3742 
Q 1025 3253 1025 2328 
Q 1025 1406 1450 917 
Q 1875 428 2675 428 
Q 3081 428 3442 575 
Q 3803 722 4122 1019 
L 4122 359 
Q 3791 134 3420 21 
Q 3050 -91 2638 -91 
Q 1578 -91 968 557 
Q 359 1206 359 2328 
Q 359 3453 968 4101 
Q 1578 4750 2638 4750 
Q 3056 4750 3426 4639 
Q 3797 4528 4122 4306 
z
" transform="scale(0.015625)"/>
      </defs>
      <use xlink:href="#DejaVuSans-46"/>
      <use xlink:href="#DejaVuSans-69" x="50.269531"/>
      <use xlink:href="#DejaVuSans-6c" x="78.052734"/>
      <use xlink:href="#DejaVuSans-74" x="105.835938"/>
      <use xlink:href="#DejaVuSans-65" x="145.044922"/>
      <use xlink:href="#DejaVuSans-72" x="206.568359"/>
      <use xlink:href="#DejaVuSans-65" x="245.431641"/>
      <use xlink:href="#DejaVuSans-64" x="306.955078"/>
      <use xlink:href="#DejaVuSans-20" x="370.431641"/>
      <use xlink:href="#DejaVuSans-70" x="402.21875"/>
      <use xlink:href="#DejaVuSans-61" x="465.695312"/>
      <use xlink:href="#DejaVuSans-63" x="526.974609"/>
      <use xlink:href="#DejaVuSans-6b" x="581.955078"/>
      <use xlink:href="#DejaVuSans-65" x="636.240234"/>
      <use xlink:href="#DejaVuSans-74" x="697.763672"/>
      <use xlink:href="#DejaVuSans-73" x="736.972656"/>
      <use xlink:href="#DejaVuSans-20" x="789.072266"/>
      <use xlink:href="#DejaVuSans-43" x="820.859375"/>
      <use xlink:href="#DejaVuSans-61" x="890.683594"/>
      <use xlink:href="#DejaVuSans-6d" x="951.962891"/>
      <use xlink:href="#DejaVuSans-20" x="1049.375"/>
      <use xlink:href="#DejaVuSans-31" x="1081.162109"/>
     </g>
    </g>
    <g id="line2d_20">
     <path d="M 819.405 338.628437 
L 833.405 338.628437 
L 847.405 338.628437 
" style="fill: none; stroke-dasharray: 5.55,2.4; stroke-dashoffset: 0; stroke: #0000ff; stroke-width: 1.5"/>
    </g>
    <g id="text_19">
     <!-- Filtered packets Cam 1 average -->
     <g transform="translate(858.605 343.528437) scale(0.14 -0.14)">
      <defs>
       <path id="DejaVuSans-67" d="M 2906 1791 
Q 2906 2416 2648 2759 
Q 2391 3103 1925 3103 
Q 1463 3103 1205 2759 
Q 947 2416 947 1791 
Q 947 1169 1205 825 
Q 1463 481 1925 481 
Q 2391 481 2648 825 
Q 2906 1169 2906 1791 
z
M 3481 434 
Q 3481 -459 3084 -895 
Q 2688 -1331 1869 -1331 
Q 1566 -1331 1297 -1286 
Q 1028 -1241 775 -1147 
L 775 -588 
Q 1028 -725 1275 -790 
Q 1522 -856 1778 -856 
Q 2344 -856 2625 -561 
Q 2906 -266 2906 331 
L 2906 616 
Q 2728 306 2450 153 
Q 2172 0 1784 0 
Q 1141 0 747 490 
Q 353 981 353 1791 
Q 353 2603 747 3093 
Q 1141 3584 1784 3584 
Q 2172 3584 2450 3431 
Q 2728 3278 2906 2969 
L 2906 3500 
L 3481 3500 
L 3481 434 
z
" transform="scale(0.015625)"/>
      </defs>
      <use xlink:href="#DejaVuSans-46"/>
      <use xlink:href="#DejaVuSans-69" x="50.269531"/>
      <use xlink:href="#DejaVuSans-6c" x="78.052734"/>
      <use xlink:href="#DejaVuSans-74" x="105.835938"/>
      <use xlink:href="#DejaVuSans-65" x="145.044922"/>
      <use xlink:href="#DejaVuSans-72" x="206.568359"/>
      <use xlink:href="#DejaVuSans-65" x="245.431641"/>
      <use xlink:href="#DejaVuSans-64" x="306.955078"/>
      <use xlink:href="#DejaVuSans-20" x="370.431641"/>
      <use xlink:href="#DejaVuSans-70" x="402.21875"/>
      <use xlink:href="#DejaVuSans-61" x="465.695312"/>
      <use xlink:href="#DejaVuSans-63" x="526.974609"/>
      <use xlink:href="#DejaVuSans-6b" x="581.955078"/>
      <use xlink:href="#DejaVuSans-65" x="636.240234"/>
      <use xlink:href="#DejaVuSans-74" x="697.763672"/>
      <use xlink:href="#DejaVuSans-73" x="736.972656"/>
      <use xlink:href="#DejaVuSans-20" x="789.072266"/>
      <use xlink:href="#DejaVuSans-43" x="820.859375"/>
      <use xlink:href="#DejaVuSans-61" x="890.683594"/>
      <use xlink:href="#DejaVuSans-6d" x="951.962891"/>
      <use xlink:href="#DejaVuSans-20" x="1049.375"/>
      <use xlink:href="#DejaVuSans-31" x="1081.162109"/>
      <use xlink:href="#DejaVuSans-20" x="1144.785156"/>
      <use xlink:href="#DejaVuSans-61" x="1176.572266"/>
      <use xlink:href="#DejaVuSans-76" x="1237.851562"/>
      <use xlink:href="#DejaVuSans-65" x="1297.03125"/>
      <use xlink:href="#DejaVuSans-72" x="1358.554688"/>
      <use xlink:href="#DejaVuSans-61" x="1399.667969"/>
      <use xlink:href="#DejaVuSans-67" x="1460.947266"/>
      <use xlink:href="#DejaVuSans-65" x="1524.423828"/>
     </g>
    </g>
    <g id="line2d_21">
     <path d="M 819.405 359.177812 
L 833.405 359.177812 
L 847.405 359.177812 
" style="fill: none; stroke: #ff7f0e; stroke-width: 1.5; stroke-linecap: square"/>
    </g>
    <g id="text_20">
     <!-- Filtered packets Cam 2 -->
     <g transform="translate(858.605 364.077812) scale(0.14 -0.14)">
      <use xlink:href="#DejaVuSans-46"/>
      <use xlink:href="#DejaVuSans-69" x="50.269531"/>
      <use xlink:href="#DejaVuSans-6c" x="78.052734"/>
      <use xlink:href="#DejaVuSans-74" x="105.835938"/>
      <use xlink:href="#DejaVuSans-65" x="145.044922"/>
      <use xlink:href="#DejaVuSans-72" x="206.568359"/>
      <use xlink:href="#DejaVuSans-65" x="245.431641"/>
      <use xlink:href="#DejaVuSans-64" x="306.955078"/>
      <use xlink:href="#DejaVuSans-20" x="370.431641"/>
      <use xlink:href="#DejaVuSans-70" x="402.21875"/>
      <use xlink:href="#DejaVuSans-61" x="465.695312"/>
      <use xlink:href="#DejaVuSans-63" x="526.974609"/>
      <use xlink:href="#DejaVuSans-6b" x="581.955078"/>
      <use xlink:href="#DejaVuSans-65" x="636.240234"/>
      <use xlink:href="#DejaVuSans-74" x="697.763672"/>
      <use xlink:href="#DejaVuSans-73" x="736.972656"/>
      <use xlink:href="#DejaVuSans-20" x="789.072266"/>
      <use xlink:href="#DejaVuSans-43" x="820.859375"/>
      <use xlink:href="#DejaVuSans-61" x="890.683594"/>
      <use xlink:href="#DejaVuSans-6d" x="951.962891"/>
      <use xlink:href="#DejaVuSans-20" x="1049.375"/>
      <use xlink:href="#DejaVuSans-32" x="1081.162109"/>
     </g>
    </g>
    <g id="line2d_22">
     <path d="M 819.405 379.727187 
L 833.405 379.727187 
L 847.405 379.727187 
" style="fill: none; stroke-dasharray: 5.55,2.4; stroke-dashoffset: 0; stroke: #ffa500; stroke-width: 1.5"/>
    </g>
    <g id="text_21">
     <!-- Filtered packets Cam 2 average -->
     <g transform="translate(858.605 384.627187) scale(0.14 -0.14)">
      <use xlink:href="#DejaVuSans-46"/>
      <use xlink:href="#DejaVuSans-69" x="50.269531"/>
      <use xlink:href="#DejaVuSans-6c" x="78.052734"/>
      <use xlink:href="#DejaVuSans-74" x="105.835938"/>
      <use xlink:href="#DejaVuSans-65" x="145.044922"/>
      <use xlink:href="#DejaVuSans-72" x="206.568359"/>
      <use xlink:href="#DejaVuSans-65" x="245.431641"/>
      <use xlink:href="#DejaVuSans-64" x="306.955078"/>
      <use xlink:href="#DejaVuSans-20" x="370.431641"/>
      <use xlink:href="#DejaVuSans-70" x="402.21875"/>
      <use xlink:href="#DejaVuSans-61" x="465.695312"/>
      <use xlink:href="#DejaVuSans-63" x="526.974609"/>
      <use xlink:href="#DejaVuSans-6b" x="581.955078"/>
      <use xlink:href="#DejaVuSans-65" x="636.240234"/>
      <use xlink:href="#DejaVuSans-74" x="697.763672"/>
      <use xlink:href="#DejaVuSans-73" x="736.972656"/>
      <use xlink:href="#DejaVuSans-20" x="789.072266"/>
      <use xlink:href="#DejaVuSans-43" x="820.859375"/>
      <use xlink:href="#DejaVuSans-61" x="890.683594"/>
      <use xlink:href="#DejaVuSans-6d" x="951.962891"/>
      <use xlink:href="#DejaVuSans-20" x="1049.375"/>
      <use xlink:href="#DejaVuSans-32" x="1081.162109"/>
      <use xlink:href="#DejaVuSans-20" x="1144.785156"/>
      <use xlink:href="#DejaVuSans-61" x="1176.572266"/>
      <use xlink:href="#DejaVuSans-76" x="1237.851562"/>
      <use xlink:href="#DejaVuSans-65" x="1297.03125"/>
      <use xlink:href="#DejaVuSans-72" x="1358.554688"/>
      <use xlink:href="#DejaVuSans-61" x="1399.667969"/>
      <use xlink:href="#DejaVuSans-67" x="1460.947266"/>
      <use xlink:href="#DejaVuSans-65" x="1524.423828"/>
     </g>
    </g>
   </g>
  </g>
 </g>
 <defs>
  <clipPath id="p5162d31411">
   <rect x="71.22" y="46.96" width="735.585" height="605.96"/>
  </clipPath>
 </defs>
</svg>
