<?xml version="1.0" encoding="utf-8" standalone="no"?>
<!DOCTYPE svg PUBLIC "-//W3C//DTD SVG 1.1//EN"
  "http://www.w3.org/Graphics/SVG/1.1/DTD/svg11.dtd">
<svg xmlns:xlink="http://www.w3.org/1999/xlink" width="1008pt" height="720pt" viewBox="0 0 1008 720" xmlns="http://www.w3.org/2000/svg" version="1.1">
 <metadata>
  <rdf:RDF xmlns:dc="http://purl.org/dc/elements/1.1/" xmlns:cc="http://creativecommons.org/ns#" xmlns:rdf="http://www.w3.org/1999/02/22-rdf-syntax-ns#">
   <cc:Work>
    <dc:type rdf:resource="http://purl.org/dc/dcmitype/StillImage"/>
    <dc:date>2023-04-13T17:46:50.271204</dc:date>
    <dc:format>image/svg+xml</dc:format>
    <dc:creator>
     <cc:Agent>
      <dc:title>Matplotlib v3.6.2, https://matplotlib.org/</dc:title>
     </cc:Agent>
    </dc:creator>
   </cc:Work>
  </rdf:RDF>
 </metadata>
 <defs>
  <style type="text/css">*{stroke-linejoin: round; stroke-linecap: butt}</style>
 </defs>
 <g id="figure_1">
  <g id="patch_1">
   <path d="M 0 720 
L 1008 720 
L 1008 0 
L 0 0 
z
" style="fill: #ffffff"/>
  </g>
  <g id="axes_1">
   <g id="patch_2">
    <path d="M 63.77 658.84 
L 795.154 658.84 
L 795.154 46.08 
L 63.77 46.08 
z
" style="fill: #ffffff"/>
   </g>
   <g id="matplotlib.axis_1">
    <g id="xtick_1">
     <g id="line2d_1">
      <defs>
       <path id="m1c0a4299e1" d="M 0 0 
L 0 3.5 
" style="stroke: #000000; stroke-width: 0.8"/>
      </defs>
      <g>
       <use xlink:href="#m1c0a4299e1" x="63.77" y="658.84" style="stroke: #000000; stroke-width: 0.8"/>
      </g>
     </g>
     <g id="text_1">
      <!-- 0 -->
      <g transform="translate(60.58875 673.438437) scale(0.1 -0.1)">
       <defs>
        <path id="DejaVuSans-30" d="M 2034 4250 
Q 1547 4250 1301 3770 
Q 1056 3291 1056 2328 
Q 1056 1369 1301 889 
Q 1547 409 2034 409 
Q 2525 409 2770 889 
Q 3016 1369 3016 2328 
Q 3016 3291 2770 3770 
Q 2525 4250 2034 4250 
z
M 2034 4750 
Q 2819 4750 3233 4129 
Q 3647 3509 3647 2328 
Q 3647 1150 3233 529 
Q 2819 -91 2034 -91 
Q 1250 -91 836 529 
Q 422 1150 422 2328 
Q 422 3509 836 4129 
Q 1250 4750 2034 4750 
z
" transform="scale(0.015625)"/>
       </defs>
       <use xlink:href="#DejaVuSans-30"/>
      </g>
     </g>
    </g>
    <g id="xtick_2">
     <g id="line2d_2">
      <g>
       <use xlink:href="#m1c0a4299e1" x="177.945535" y="658.84" style="stroke: #000000; stroke-width: 0.8"/>
      </g>
     </g>
     <g id="text_2">
      <!-- 10 -->
      <g transform="translate(171.583035 673.438437) scale(0.1 -0.1)">
       <defs>
        <path id="DejaVuSans-31" d="M 794 531 
L 1825 531 
L 1825 4091 
L 703 3866 
L 703 4441 
L 1819 4666 
L 2450 4666 
L 2450 531 
L 3481 531 
L 3481 0 
L 794 0 
L 794 531 
z
" transform="scale(0.015625)"/>
       </defs>
       <use xlink:href="#DejaVuSans-31"/>
       <use xlink:href="#DejaVuSans-30" x="63.623047"/>
      </g>
     </g>
    </g>
    <g id="xtick_3">
     <g id="line2d_3">
      <g>
       <use xlink:href="#m1c0a4299e1" x="292.12107" y="658.84" style="stroke: #000000; stroke-width: 0.8"/>
      </g>
     </g>
     <g id="text_3">
      <!-- 20 -->
      <g transform="translate(285.75857 673.438437) scale(0.1 -0.1)">
       <defs>
        <path id="DejaVuSans-32" d="M 1228 531 
L 3431 531 
L 3431 0 
L 469 0 
L 469 531 
Q 828 903 1448 1529 
Q 2069 2156 2228 2338 
Q 2531 2678 2651 2914 
Q 2772 3150 2772 3378 
Q 2772 3750 2511 3984 
Q 2250 4219 1831 4219 
Q 1534 4219 1204 4116 
Q 875 4013 500 3803 
L 500 4441 
Q 881 4594 1212 4672 
Q 1544 4750 1819 4750 
Q 2544 4750 2975 4387 
Q 3406 4025 3406 3419 
Q 3406 3131 3298 2873 
Q 3191 2616 2906 2266 
Q 2828 2175 2409 1742 
Q 1991 1309 1228 531 
z
" transform="scale(0.015625)"/>
       </defs>
       <use xlink:href="#DejaVuSans-32"/>
       <use xlink:href="#DejaVuSans-30" x="63.623047"/>
      </g>
     </g>
    </g>
    <g id="xtick_4">
     <g id="line2d_4">
      <g>
       <use xlink:href="#m1c0a4299e1" x="406.296604" y="658.84" style="stroke: #000000; stroke-width: 0.8"/>
      </g>
     </g>
     <g id="text_4">
      <!-- 30 -->
      <g transform="translate(399.934104 673.438437) scale(0.1 -0.1)">
       <defs>
        <path id="DejaVuSans-33" d="M 2597 2516 
Q 3050 2419 3304 2112 
Q 3559 1806 3559 1356 
Q 3559 666 3084 287 
Q 2609 -91 1734 -91 
Q 1441 -91 1130 -33 
Q 819 25 488 141 
L 488 750 
Q 750 597 1062 519 
Q 1375 441 1716 441 
Q 2309 441 2620 675 
Q 2931 909 2931 1356 
Q 2931 1769 2642 2001 
Q 2353 2234 1838 2234 
L 1294 2234 
L 1294 2753 
L 1863 2753 
Q 2328 2753 2575 2939 
Q 2822 3125 2822 3475 
Q 2822 3834 2567 4026 
Q 2313 4219 1838 4219 
Q 1578 4219 1281 4162 
Q 984 4106 628 3988 
L 628 4550 
Q 988 4650 1302 4700 
Q 1616 4750 1894 4750 
Q 2613 4750 3031 4423 
Q 3450 4097 3450 3541 
Q 3450 3153 3228 2886 
Q 3006 2619 2597 2516 
z
" transform="scale(0.015625)"/>
       </defs>
       <use xlink:href="#DejaVuSans-33"/>
       <use xlink:href="#DejaVuSans-30" x="63.623047"/>
      </g>
     </g>
    </g>
    <g id="xtick_5">
     <g id="line2d_5">
      <g>
       <use xlink:href="#m1c0a4299e1" x="520.472139" y="658.84" style="stroke: #000000; stroke-width: 0.8"/>
      </g>
     </g>
     <g id="text_5">
      <!-- 40 -->
      <g transform="translate(514.109639 673.438437) scale(0.1 -0.1)">
       <defs>
        <path id="DejaVuSans-34" d="M 2419 4116 
L 825 1625 
L 2419 1625 
L 2419 4116 
z
M 2253 4666 
L 3047 4666 
L 3047 1625 
L 3713 1625 
L 3713 1100 
L 3047 1100 
L 3047 0 
L 2419 0 
L 2419 1100 
L 313 1100 
L 313 1709 
L 2253 4666 
z
" transform="scale(0.015625)"/>
       </defs>
       <use xlink:href="#DejaVuSans-34"/>
       <use xlink:href="#DejaVuSans-30" x="63.623047"/>
      </g>
     </g>
    </g>
    <g id="xtick_6">
     <g id="line2d_6">
      <g>
       <use xlink:href="#m1c0a4299e1" x="634.647674" y="658.84" style="stroke: #000000; stroke-width: 0.8"/>
      </g>
     </g>
     <g id="text_6">
      <!-- 50 -->
      <g transform="translate(628.285174 673.438437) scale(0.1 -0.1)">
       <defs>
        <path id="DejaVuSans-35" d="M 691 4666 
L 3169 4666 
L 3169 4134 
L 1269 4134 
L 1269 2991 
Q 1406 3038 1543 3061 
Q 1681 3084 1819 3084 
Q 2600 3084 3056 2656 
Q 3513 2228 3513 1497 
Q 3513 744 3044 326 
Q 2575 -91 1722 -91 
Q 1428 -91 1123 -41 
Q 819 9 494 109 
L 494 744 
Q 775 591 1075 516 
Q 1375 441 1709 441 
Q 2250 441 2565 725 
Q 2881 1009 2881 1497 
Q 2881 1984 2565 2268 
Q 2250 2553 1709 2553 
Q 1456 2553 1204 2497 
Q 953 2441 691 2322 
L 691 4666 
z
" transform="scale(0.015625)"/>
       </defs>
       <use xlink:href="#DejaVuSans-35"/>
       <use xlink:href="#DejaVuSans-30" x="63.623047"/>
      </g>
     </g>
    </g>
    <g id="xtick_7">
     <g id="line2d_7">
      <g>
       <use xlink:href="#m1c0a4299e1" x="748.823209" y="658.84" style="stroke: #000000; stroke-width: 0.8"/>
      </g>
     </g>
     <g id="text_7">
      <!-- 60 -->
      <g transform="translate(742.460709 673.438437) scale(0.1 -0.1)">
       <defs>
        <path id="DejaVuSans-36" d="M 2113 2584 
Q 1688 2584 1439 2293 
Q 1191 2003 1191 1497 
Q 1191 994 1439 701 
Q 1688 409 2113 409 
Q 2538 409 2786 701 
Q 3034 994 3034 1497 
Q 3034 2003 2786 2293 
Q 2538 2584 2113 2584 
z
M 3366 4563 
L 3366 3988 
Q 3128 4100 2886 4159 
Q 2644 4219 2406 4219 
Q 1781 4219 1451 3797 
Q 1122 3375 1075 2522 
Q 1259 2794 1537 2939 
Q 1816 3084 2150 3084 
Q 2853 3084 3261 2657 
Q 3669 2231 3669 1497 
Q 3669 778 3244 343 
Q 2819 -91 2113 -91 
Q 1303 -91 875 529 
Q 447 1150 447 2328 
Q 447 3434 972 4092 
Q 1497 4750 2381 4750 
Q 2619 4750 2861 4703 
Q 3103 4656 3366 4563 
z
" transform="scale(0.015625)"/>
       </defs>
       <use xlink:href="#DejaVuSans-36"/>
       <use xlink:href="#DejaVuSans-30" x="63.623047"/>
      </g>
     </g>
    </g>
    <g id="text_8">
     <!-- Time (s) -->
     <g transform="translate(409.133094 687.116562) scale(0.1 -0.1)">
      <defs>
       <path id="DejaVuSans-54" d="M -19 4666 
L 3928 4666 
L 3928 4134 
L 2272 4134 
L 2272 0 
L 1638 0 
L 1638 4134 
L -19 4134 
L -19 4666 
z
" transform="scale(0.015625)"/>
       <path id="DejaVuSans-69" d="M 603 3500 
L 1178 3500 
L 1178 0 
L 603 0 
L 603 3500 
z
M 603 4863 
L 1178 4863 
L 1178 4134 
L 603 4134 
L 603 4863 
z
" transform="scale(0.015625)"/>
       <path id="DejaVuSans-6d" d="M 3328 2828 
Q 3544 3216 3844 3400 
Q 4144 3584 4550 3584 
Q 5097 3584 5394 3201 
Q 5691 2819 5691 2113 
L 5691 0 
L 5113 0 
L 5113 2094 
Q 5113 2597 4934 2840 
Q 4756 3084 4391 3084 
Q 3944 3084 3684 2787 
Q 3425 2491 3425 1978 
L 3425 0 
L 2847 0 
L 2847 2094 
Q 2847 2600 2669 2842 
Q 2491 3084 2119 3084 
Q 1678 3084 1418 2786 
Q 1159 2488 1159 1978 
L 1159 0 
L 581 0 
L 581 3500 
L 1159 3500 
L 1159 2956 
Q 1356 3278 1631 3431 
Q 1906 3584 2284 3584 
Q 2666 3584 2933 3390 
Q 3200 3197 3328 2828 
z
" transform="scale(0.015625)"/>
       <path id="DejaVuSans-65" d="M 3597 1894 
L 3597 1613 
L 953 1613 
Q 991 1019 1311 708 
Q 1631 397 2203 397 
Q 2534 397 2845 478 
Q 3156 559 3463 722 
L 3463 178 
Q 3153 47 2828 -22 
Q 2503 -91 2169 -91 
Q 1331 -91 842 396 
Q 353 884 353 1716 
Q 353 2575 817 3079 
Q 1281 3584 2069 3584 
Q 2775 3584 3186 3129 
Q 3597 2675 3597 1894 
z
M 3022 2063 
Q 3016 2534 2758 2815 
Q 2500 3097 2075 3097 
Q 1594 3097 1305 2825 
Q 1016 2553 972 2059 
L 3022 2063 
z
" transform="scale(0.015625)"/>
       <path id="DejaVuSans-20" transform="scale(0.015625)"/>
       <path id="DejaVuSans-28" d="M 1984 4856 
Q 1566 4138 1362 3434 
Q 1159 2731 1159 2009 
Q 1159 1288 1364 580 
Q 1569 -128 1984 -844 
L 1484 -844 
Q 1016 -109 783 600 
Q 550 1309 550 2009 
Q 550 2706 781 3412 
Q 1013 4119 1484 4856 
L 1984 4856 
z
" transform="scale(0.015625)"/>
       <path id="DejaVuSans-73" d="M 2834 3397 
L 2834 2853 
Q 2591 2978 2328 3040 
Q 2066 3103 1784 3103 
Q 1356 3103 1142 2972 
Q 928 2841 928 2578 
Q 928 2378 1081 2264 
Q 1234 2150 1697 2047 
L 1894 2003 
Q 2506 1872 2764 1633 
Q 3022 1394 3022 966 
Q 3022 478 2636 193 
Q 2250 -91 1575 -91 
Q 1294 -91 989 -36 
Q 684 19 347 128 
L 347 722 
Q 666 556 975 473 
Q 1284 391 1588 391 
Q 1994 391 2212 530 
Q 2431 669 2431 922 
Q 2431 1156 2273 1281 
Q 2116 1406 1581 1522 
L 1381 1569 
Q 847 1681 609 1914 
Q 372 2147 372 2553 
Q 372 3047 722 3315 
Q 1072 3584 1716 3584 
Q 2034 3584 2315 3537 
Q 2597 3491 2834 3397 
z
" transform="scale(0.015625)"/>
       <path id="DejaVuSans-29" d="M 513 4856 
L 1013 4856 
Q 1481 4119 1714 3412 
Q 1947 2706 1947 2009 
Q 1947 1309 1714 600 
Q 1481 -109 1013 -844 
L 513 -844 
Q 928 -128 1133 580 
Q 1338 1288 1338 2009 
Q 1338 2731 1133 3434 
Q 928 4138 513 4856 
z
" transform="scale(0.015625)"/>
      </defs>
      <use xlink:href="#DejaVuSans-54"/>
      <use xlink:href="#DejaVuSans-69" x="57.958984"/>
      <use xlink:href="#DejaVuSans-6d" x="85.742188"/>
      <use xlink:href="#DejaVuSans-65" x="183.154297"/>
      <use xlink:href="#DejaVuSans-20" x="244.677734"/>
      <use xlink:href="#DejaVuSans-28" x="276.464844"/>
      <use xlink:href="#DejaVuSans-73" x="315.478516"/>
      <use xlink:href="#DejaVuSans-29" x="367.578125"/>
     </g>
    </g>
   </g>
   <g id="matplotlib.axis_2">
    <g id="ytick_1">
     <g id="line2d_8">
      <defs>
       <path id="m0e9cf20663" d="M 0 0 
L -3.5 0 
" style="stroke: #000000; stroke-width: 0.8"/>
      </defs>
      <g>
       <use xlink:href="#m0e9cf20663" x="63.77" y="658.84" style="stroke: #000000; stroke-width: 0.8"/>
      </g>
     </g>
     <g id="text_9">
      <!-- 0 -->
      <g transform="translate(50.4075 662.639219) scale(0.1 -0.1)">
       <use xlink:href="#DejaVuSans-30"/>
      </g>
     </g>
    </g>
    <g id="ytick_2">
     <g id="line2d_9">
      <g>
       <use xlink:href="#m0e9cf20663" x="63.77" y="556.966788" style="stroke: #000000; stroke-width: 0.8"/>
      </g>
     </g>
     <g id="text_10">
      <!-- 5 -->
      <g transform="translate(50.4075 560.766007) scale(0.1 -0.1)">
       <use xlink:href="#DejaVuSans-35"/>
      </g>
     </g>
    </g>
    <g id="ytick_3">
     <g id="line2d_10">
      <g>
       <use xlink:href="#m0e9cf20663" x="63.77" y="455.093576" style="stroke: #000000; stroke-width: 0.8"/>
      </g>
     </g>
     <g id="text_11">
      <!-- 10 -->
      <g transform="translate(44.045 458.892795) scale(0.1 -0.1)">
       <use xlink:href="#DejaVuSans-31"/>
       <use xlink:href="#DejaVuSans-30" x="63.623047"/>
      </g>
     </g>
    </g>
    <g id="ytick_4">
     <g id="line2d_11">
      <g>
       <use xlink:href="#m0e9cf20663" x="63.77" y="353.220364" style="stroke: #000000; stroke-width: 0.8"/>
      </g>
     </g>
     <g id="text_12">
      <!-- 15 -->
      <g transform="translate(44.045 357.019582) scale(0.1 -0.1)">
       <use xlink:href="#DejaVuSans-31"/>
       <use xlink:href="#DejaVuSans-35" x="63.623047"/>
      </g>
     </g>
    </g>
    <g id="ytick_5">
     <g id="line2d_12">
      <g>
       <use xlink:href="#m0e9cf20663" x="63.77" y="251.347152" style="stroke: #000000; stroke-width: 0.8"/>
      </g>
     </g>
     <g id="text_13">
      <!-- 20 -->
      <g transform="translate(44.045 255.14637) scale(0.1 -0.1)">
       <use xlink:href="#DejaVuSans-32"/>
       <use xlink:href="#DejaVuSans-30" x="63.623047"/>
      </g>
     </g>
    </g>
    <g id="ytick_6">
     <g id="line2d_13">
      <g>
       <use xlink:href="#m0e9cf20663" x="63.77" y="149.47394" style="stroke: #000000; stroke-width: 0.8"/>
      </g>
     </g>
     <g id="text_14">
      <!-- 25 -->
      <g transform="translate(44.045 153.273158) scale(0.1 -0.1)">
       <use xlink:href="#DejaVuSans-32"/>
       <use xlink:href="#DejaVuSans-35" x="63.623047"/>
      </g>
     </g>
    </g>
    <g id="ytick_7">
     <g id="line2d_14">
      <g>
       <use xlink:href="#m0e9cf20663" x="63.77" y="47.600727" style="stroke: #000000; stroke-width: 0.8"/>
      </g>
     </g>
     <g id="text_15">
      <!-- 30 -->
      <g transform="translate(44.045 51.399946) scale(0.1 -0.1)">
       <use xlink:href="#DejaVuSans-33"/>
       <use xlink:href="#DejaVuSans-30" x="63.623047"/>
      </g>
     </g>
    </g>
    <g id="text_16">
     <!-- Packets per Second -->
     <g transform="translate(37.965312 401.305313) rotate(-90) scale(0.1 -0.1)">
      <defs>
       <path id="DejaVuSans-50" d="M 1259 4147 
L 1259 2394 
L 2053 2394 
Q 2494 2394 2734 2622 
Q 2975 2850 2975 3272 
Q 2975 3691 2734 3919 
Q 2494 4147 2053 4147 
L 1259 4147 
z
M 628 4666 
L 2053 4666 
Q 2838 4666 3239 4311 
Q 3641 3956 3641 3272 
Q 3641 2581 3239 2228 
Q 2838 1875 2053 1875 
L 1259 1875 
L 1259 0 
L 628 0 
L 628 4666 
z
" transform="scale(0.015625)"/>
       <path id="DejaVuSans-61" d="M 2194 1759 
Q 1497 1759 1228 1600 
Q 959 1441 959 1056 
Q 959 750 1161 570 
Q 1363 391 1709 391 
Q 2188 391 2477 730 
Q 2766 1069 2766 1631 
L 2766 1759 
L 2194 1759 
z
M 3341 1997 
L 3341 0 
L 2766 0 
L 2766 531 
Q 2569 213 2275 61 
Q 1981 -91 1556 -91 
Q 1019 -91 701 211 
Q 384 513 384 1019 
Q 384 1609 779 1909 
Q 1175 2209 1959 2209 
L 2766 2209 
L 2766 2266 
Q 2766 2663 2505 2880 
Q 2244 3097 1772 3097 
Q 1472 3097 1187 3025 
Q 903 2953 641 2809 
L 641 3341 
Q 956 3463 1253 3523 
Q 1550 3584 1831 3584 
Q 2591 3584 2966 3190 
Q 3341 2797 3341 1997 
z
" transform="scale(0.015625)"/>
       <path id="DejaVuSans-63" d="M 3122 3366 
L 3122 2828 
Q 2878 2963 2633 3030 
Q 2388 3097 2138 3097 
Q 1578 3097 1268 2742 
Q 959 2388 959 1747 
Q 959 1106 1268 751 
Q 1578 397 2138 397 
Q 2388 397 2633 464 
Q 2878 531 3122 666 
L 3122 134 
Q 2881 22 2623 -34 
Q 2366 -91 2075 -91 
Q 1284 -91 818 406 
Q 353 903 353 1747 
Q 353 2603 823 3093 
Q 1294 3584 2113 3584 
Q 2378 3584 2631 3529 
Q 2884 3475 3122 3366 
z
" transform="scale(0.015625)"/>
       <path id="DejaVuSans-6b" d="M 581 4863 
L 1159 4863 
L 1159 1991 
L 2875 3500 
L 3609 3500 
L 1753 1863 
L 3688 0 
L 2938 0 
L 1159 1709 
L 1159 0 
L 581 0 
L 581 4863 
z
" transform="scale(0.015625)"/>
       <path id="DejaVuSans-74" d="M 1172 4494 
L 1172 3500 
L 2356 3500 
L 2356 3053 
L 1172 3053 
L 1172 1153 
Q 1172 725 1289 603 
Q 1406 481 1766 481 
L 2356 481 
L 2356 0 
L 1766 0 
Q 1100 0 847 248 
Q 594 497 594 1153 
L 594 3053 
L 172 3053 
L 172 3500 
L 594 3500 
L 594 4494 
L 1172 4494 
z
" transform="scale(0.015625)"/>
       <path id="DejaVuSans-70" d="M 1159 525 
L 1159 -1331 
L 581 -1331 
L 581 3500 
L 1159 3500 
L 1159 2969 
Q 1341 3281 1617 3432 
Q 1894 3584 2278 3584 
Q 2916 3584 3314 3078 
Q 3713 2572 3713 1747 
Q 3713 922 3314 415 
Q 2916 -91 2278 -91 
Q 1894 -91 1617 61 
Q 1341 213 1159 525 
z
M 3116 1747 
Q 3116 2381 2855 2742 
Q 2594 3103 2138 3103 
Q 1681 3103 1420 2742 
Q 1159 2381 1159 1747 
Q 1159 1113 1420 752 
Q 1681 391 2138 391 
Q 2594 391 2855 752 
Q 3116 1113 3116 1747 
z
" transform="scale(0.015625)"/>
       <path id="DejaVuSans-72" d="M 2631 2963 
Q 2534 3019 2420 3045 
Q 2306 3072 2169 3072 
Q 1681 3072 1420 2755 
Q 1159 2438 1159 1844 
L 1159 0 
L 581 0 
L 581 3500 
L 1159 3500 
L 1159 2956 
Q 1341 3275 1631 3429 
Q 1922 3584 2338 3584 
Q 2397 3584 2469 3576 
Q 2541 3569 2628 3553 
L 2631 2963 
z
" transform="scale(0.015625)"/>
       <path id="DejaVuSans-53" d="M 3425 4513 
L 3425 3897 
Q 3066 4069 2747 4153 
Q 2428 4238 2131 4238 
Q 1616 4238 1336 4038 
Q 1056 3838 1056 3469 
Q 1056 3159 1242 3001 
Q 1428 2844 1947 2747 
L 2328 2669 
Q 3034 2534 3370 2195 
Q 3706 1856 3706 1288 
Q 3706 609 3251 259 
Q 2797 -91 1919 -91 
Q 1588 -91 1214 -16 
Q 841 59 441 206 
L 441 856 
Q 825 641 1194 531 
Q 1563 422 1919 422 
Q 2459 422 2753 634 
Q 3047 847 3047 1241 
Q 3047 1584 2836 1778 
Q 2625 1972 2144 2069 
L 1759 2144 
Q 1053 2284 737 2584 
Q 422 2884 422 3419 
Q 422 4038 858 4394 
Q 1294 4750 2059 4750 
Q 2388 4750 2728 4690 
Q 3069 4631 3425 4513 
z
" transform="scale(0.015625)"/>
       <path id="DejaVuSans-6f" d="M 1959 3097 
Q 1497 3097 1228 2736 
Q 959 2375 959 1747 
Q 959 1119 1226 758 
Q 1494 397 1959 397 
Q 2419 397 2687 759 
Q 2956 1122 2956 1747 
Q 2956 2369 2687 2733 
Q 2419 3097 1959 3097 
z
M 1959 3584 
Q 2709 3584 3137 3096 
Q 3566 2609 3566 1747 
Q 3566 888 3137 398 
Q 2709 -91 1959 -91 
Q 1206 -91 779 398 
Q 353 888 353 1747 
Q 353 2609 779 3096 
Q 1206 3584 1959 3584 
z
" transform="scale(0.015625)"/>
       <path id="DejaVuSans-6e" d="M 3513 2113 
L 3513 0 
L 2938 0 
L 2938 2094 
Q 2938 2591 2744 2837 
Q 2550 3084 2163 3084 
Q 1697 3084 1428 2787 
Q 1159 2491 1159 1978 
L 1159 0 
L 581 0 
L 581 3500 
L 1159 3500 
L 1159 2956 
Q 1366 3272 1645 3428 
Q 1925 3584 2291 3584 
Q 2894 3584 3203 3211 
Q 3513 2838 3513 2113 
z
" transform="scale(0.015625)"/>
       <path id="DejaVuSans-64" d="M 2906 2969 
L 2906 4863 
L 3481 4863 
L 3481 0 
L 2906 0 
L 2906 525 
Q 2725 213 2448 61 
Q 2172 -91 1784 -91 
Q 1150 -91 751 415 
Q 353 922 353 1747 
Q 353 2572 751 3078 
Q 1150 3584 1784 3584 
Q 2172 3584 2448 3432 
Q 2725 3281 2906 2969 
z
M 947 1747 
Q 947 1113 1208 752 
Q 1469 391 1925 391 
Q 2381 391 2643 752 
Q 2906 1113 2906 1747 
Q 2906 2381 2643 2742 
Q 2381 3103 1925 3103 
Q 1469 3103 1208 2742 
Q 947 2381 947 1747 
z
" transform="scale(0.015625)"/>
      </defs>
      <use xlink:href="#DejaVuSans-50"/>
      <use xlink:href="#DejaVuSans-61" x="55.802734"/>
      <use xlink:href="#DejaVuSans-63" x="117.082031"/>
      <use xlink:href="#DejaVuSans-6b" x="172.0625"/>
      <use xlink:href="#DejaVuSans-65" x="226.347656"/>
      <use xlink:href="#DejaVuSans-74" x="287.871094"/>
      <use xlink:href="#DejaVuSans-73" x="327.080078"/>
      <use xlink:href="#DejaVuSans-20" x="379.179688"/>
      <use xlink:href="#DejaVuSans-70" x="410.966797"/>
      <use xlink:href="#DejaVuSans-65" x="474.443359"/>
      <use xlink:href="#DejaVuSans-72" x="535.966797"/>
      <use xlink:href="#DejaVuSans-20" x="577.080078"/>
      <use xlink:href="#DejaVuSans-53" x="608.867188"/>
      <use xlink:href="#DejaVuSans-65" x="672.34375"/>
      <use xlink:href="#DejaVuSans-63" x="733.867188"/>
      <use xlink:href="#DejaVuSans-6f" x="788.847656"/>
      <use xlink:href="#DejaVuSans-6e" x="850.029297"/>
      <use xlink:href="#DejaVuSans-64" x="913.408203"/>
     </g>
    </g>
   </g>
   <g id="line2d_15">
    <path d="M 64.149972 46.615107 
L 64.529679 46.186116 
L 64.909646 46.607454 
L 65.28948 46.391251 
L 66.049169 46.384145 
L 66.428907 46.238228 
L 66.808764 46.428345 
L 67.188864 46.821021 
L 67.56865 46.315228 
L 67.948737 46.798151 
L 68.32863 46.487851 
L 68.70862 46.643068 
L 69.088394 46.295156 
L 69.468505 46.839092 
L 70.228239 46.297826 
L 70.608269 46.706964 
L 71.368193 46.582985 
L 71.748157 46.601051 
L 72.127927 46.288213 
L 72.507866 46.561458 
L 73.26774 46.547493 
L 73.64781 46.771638 
L 74.027754 46.569075 
L 74.407696 46.566628 
L 74.787481 46.313699 
L 75.167467 46.635655 
L 75.927341 46.54775 
L 76.307462 46.85435 
L 76.68738 46.527141 
L 77.067377 46.655558 
L 77.447199 46.372362 
L 77.827027 46.382746 
L 78.207284 47.072411 
L 78.587111 46.381292 
L 78.967327 47.007599 
L 79.727319 46.522945 
L 80.107241 46.532809 
L 80.48727 46.707203 
L 81.627316 46.696316 
L 82.007477 46.918147 
L 82.387539 46.759723 
L 83.147641 46.742273 
L 83.527428 46.316535 
L 83.907461 46.713088 
L 85.047537 46.697566 
L 85.427714 46.945401 
L 85.807812 46.818062 
L 86.187617 46.344376 
L 86.567659 46.728095 
L 87.32771 46.720058 
L 87.70793 47.012357 
L 88.087946 46.68666 
L 88.847997 46.669334 
L 89.227782 46.312189 
L 89.607865 46.792948 
L 90.748144 46.779894 
L 91.128475 47.192098 
L 91.508548 46.776841 
L 91.888546 46.656919 
L 93.028772 46.820782 
L 93.409077 47.150028 
L 93.789172 46.812785 
L 94.549342 46.767004 
L 94.929257 46.522025 
L 95.309382 46.860471 
L 96.069587 46.809899 
L 96.449848 47.079942 
L 97.210084 46.753361 
L 97.59002 46.556343 
L 97.970307 47.122113 
L 98.730393 46.584751 
L 99.110639 47.055162 
L 99.490744 46.829441 
L 100.250945 46.818117 
L 100.6309 46.588155 
L 101.011037 46.8799 
L 101.391215 46.946613 
L 101.771567 47.225679 
L 102.531977 46.941027 
L 102.912138 46.918864 
L 103.292147 46.674797 
L 103.672489 47.209835 
L 104.432723 46.714909 
L 104.81304 47.170045 
L 105.193212 46.936764 
L 106.333738 46.915243 
L 106.713761 46.696592 
L 107.094127 47.248665 
L 107.474287 46.915703 
L 108.234668 46.966073 
L 108.614835 46.929174 
L 108.994868 46.711911 
L 109.755378 47.205336 
L 110.135412 46.71456 
L 110.515746 47.197312 
L 110.895947 46.98206 
L 111.656308 46.960598 
L 112.036337 46.7077 
L 112.416531 46.971696 
L 112.796764 47.034367 
L 113.177148 47.277541 
L 113.557405 47.073752 
L 114.317855 47.019835 
L 114.697943 46.802655 
L 115.078332 47.284774 
L 115.838658 46.789252 
L 116.219037 47.270309 
L 116.599268 47.030674 
L 117.359747 47.045316 
L 117.739832 46.796092 
L 118.500491 47.323943 
L 118.880722 47.030858 
L 119.641222 47.036479 
L 120.021446 47.020772 
L 120.401549 46.825599 
L 120.781955 47.312417 
L 121.542301 46.814789 
L 121.922671 47.25487 
L 122.682989 46.774525 
L 123.063248 47.075883 
L 123.443462 47.004586 
L 124.584516 47.378265 
L 124.964807 47.128413 
L 125.72539 47.11271 
L 126.105527 46.880359 
L 126.485821 47.132637 
L 127.246409 47.12799 
L 127.626935 47.504931 
L 128.007143 46.995142 
L 128.387442 47.139817 
L 128.767748 47.153352 
L 129.14787 46.855122 
L 129.908639 47.424744 
L 130.288915 47.103508 
L 131.04953 47.139671 
L 131.429837 47.152746 
L 131.809976 46.883374 
L 132.190442 47.409698 
L 132.570585 46.890726 
L 133.331298 47.343177 
L 133.711575 47.106428 
L 134.472187 47.131902 
L 134.852476 47.125456 
L 135.232637 46.918257 
L 135.993456 47.425533 
L 136.373808 47.225679 
L 137.134477 47.181099 
L 137.514678 46.98296 
L 138.275542 47.481672 
L 138.655728 46.959569 
L 139.036224 47.457364 
L 139.416524 47.142021 
L 139.796924 47.303074 
L 140.177097 46.938895 
L 140.557603 47.473912 
L 140.937786 46.953137 
L 141.69862 47.456575 
L 142.078979 47.237631 
L 142.839629 47.140001 
L 143.219835 46.992018 
L 143.60035 47.487909 
L 144.360911 46.983291 
L 144.741377 47.409129 
L 145.121712 47.19902 
L 145.502057 47.215178 
L 145.88222 46.92197 
L 146.262731 47.4818 
L 146.642937 46.991136 
L 147.023503 47.56874 
L 147.403862 47.237484 
L 148.164653 47.291106 
L 148.545024 47.257293 
L 148.925237 47.0033 
L 149.305616 47.268289 
L 150.066402 47.313536 
L 150.446946 47.53404 
L 150.827283 47.202913 
L 151.207697 47.324879 
L 151.587931 47.036222 
L 151.968302 47.257018 
L 152.348688 47.281359 
L 152.729241 47.549281 
L 153.109611 47.254264 
L 154.250801 47.290776 
L 154.631028 47.026008 
L 155.011575 47.539139 
L 155.391799 47.020019 
L 155.772338 47.526704 
L 156.152719 47.27253 
L 156.913477 47.268069 
L 157.293704 47.024354 
L 157.674076 47.25834 
L 158.434896 47.330459 
L 158.815449 47.550253 
L 159.195708 47.075699 
L 159.576279 47.578973 
L 160.336942 47.066735 
L 161.09796 47.611797 
L 161.478378 47.332221 
L 162.619667 47.362465 
L 162.999904 47.040374 
L 163.38041 47.473618 
L 163.760779 47.253291 
L 164.141215 47.36175 
L 164.521796 47.593093 
L 164.902256 47.400267 
L 165.663122 47.344792 
L 166.043404 47.112985 
L 166.424003 47.623037 
L 166.80444 47.362245 
L 168.326187 47.393331 
L 168.706444 47.072154 
L 169.086912 47.413735 
L 169.467501 47.605892 
L 170.229315 48.258373 
L 170.609927 47.644452 
L 170.990954 48.308431 
L 171.752337 47.574113 
L 172.133127 47.928671 
L 175.560268 47.949644 
L 175.941272 48.272443 
L 176.321852 47.592671 
L 176.702829 48.229168 
L 177.083703 48.065527 
L 177.464292 47.606718 
L 177.845084 47.93195 
L 178.225877 47.935668 
L 178.606881 48.271327 
L 178.98768 47.945229 
L 179.368494 47.967428 
L 179.749056 47.564118 
L 180.12985 47.934917 
L 181.272249 47.946109 
L 181.653255 48.275664 
L 182.033844 47.607048 
L 182.414816 48.221885 
L 182.795423 47.635908 
L 183.176221 47.941346 
L 183.937838 47.967575 
L 184.318829 48.252627 
L 184.699638 47.959259 
L 185.08043 47.933195 
L 185.460986 47.553976 
L 185.841792 47.956073 
L 186.984164 47.93847 
L 187.365177 48.286843 
L 187.745753 47.585758 
L 188.126773 48.29932 
L 188.507326 47.548181 
L 188.888149 47.982263 
L 189.649753 47.942793 
L 190.030739 48.243295 
L 190.41158 48.011198 
L 190.792372 47.933964 
L 191.172933 47.561331 
L 191.553728 47.937829 
L 192.696077 47.891594 
L 193.07706 48.239654 
L 193.457841 47.913852 
L 193.838638 47.941035 
L 194.219172 47.518193 
L 194.599948 47.907239 
L 195.361483 47.888388 
L 195.74243 48.181366 
L 196.12299 47.560432 
L 196.503969 48.232261 
L 196.884539 47.577139 
L 197.265306 47.892638 
L 198.407608 47.903666 
L 198.78854 48.157371 
L 199.169131 47.609046 
L 199.550131 48.266552 
L 199.930683 47.547557 
L 200.311473 47.930741 
L 201.073012 47.89077 
L 201.453985 48.222891 
L 201.834716 47.835824 
L 202.215532 47.970468 
L 202.596083 47.546879 
L 202.976847 47.887362 
L 203.738395 47.873365 
L 204.119167 47.900076 
L 204.500084 48.133136 
L 205.642237 47.632883 
L 206.023 47.886501 
L 206.784527 47.879741 
L 207.165509 48.237622 
L 207.546285 47.906524 
L 207.926991 47.795547 
L 208.307811 47.978087 
L 208.688453 47.691404 
L 209.069122 47.73602 
L 209.449897 47.90526 
L 209.830685 47.925264 
L 210.211639 48.193976 
L 210.592415 47.906469 
L 211.353933 47.861475 
L 211.734507 47.583429 
L 212.115272 47.888608 
L 212.496038 47.891777 
L 212.877027 48.249334 
L 213.257775 47.861731 
L 213.638578 47.95023 
L 214.019153 47.584676 
L 214.39989 47.844032 
L 215.161433 47.896943 
L 215.542205 47.899746 
L 215.923139 48.160354 
L 216.303917 47.910939 
L 216.684711 47.936566 
L 217.065248 47.522265 
L 217.446009 47.883533 
L 218.588271 47.862244 
L 218.969167 48.100422 
L 219.730775 47.897273 
L 220.111295 47.496824 
L 220.492264 48.215974 
L 220.872927 47.725169 
L 221.253778 48.028814 
L 221.634542 47.886739 
L 222.01507 47.510141 
L 222.396068 48.261813 
L 222.776593 47.5055 
L 223.157407 47.967373 
L 223.538156 47.864058 
L 223.918921 47.889432 
L 224.2999 48.233102 
L 224.680638 47.845113 
L 225.061435 47.941859 
L 225.441994 47.557479 
L 225.822763 47.89643 
L 226.584286 47.889102 
L 226.965231 48.179261 
L 227.726508 47.492825 
L 228.107478 48.218024 
L 228.488008 47.511113 
L 229.249724 48.196685 
L 229.630295 47.576827 
L 230.39199 48.211911 
L 231.153308 47.545503 
L 231.5341 47.933067 
L 232.295622 47.871515 
L 232.676622 48.266625 
L 233.4379 47.510049 
L 233.818869 48.217493 
L 234.199413 47.534279 
L 234.58016 47.86087 
L 235.341686 47.896339 
L 235.722546 48.042475 
L 236.103402 48.034601 
L 236.484169 47.89284 
L 237.245692 47.881701 
L 237.626264 47.579743 
L 238.388005 48.216468 
L 238.768519 47.487175 
L 239.149513 48.256159 
L 239.910788 47.496328 
L 240.291541 47.870471 
L 243.718353 47.886996 
L 244.099326 48.222233 
L 244.479831 47.473251 
L 244.860597 47.890128 
L 246.002839 47.873347 
L 246.764346 47.873127 
L 247.145328 48.237952 
L 247.525858 47.512048 
L 247.906613 47.872632 
L 249.429661 47.920043 
L 249.810389 47.830803 
L 250.95263 47.857719 
L 252.856318 47.824756 
L 253.237306 48.246918 
L 253.998568 47.501996 
L 254.760284 48.187534 
L 255.141038 47.872834 
L 255.521738 47.784423 
L 256.283263 47.9057 
L 258.187001 47.850866 
L 259.329224 47.841064 
L 260.471477 47.868858 
L 262.37529 47.900057 
L 263.89827 47.873878 
L 281.793566 47.863215 
L 282.174477 48.124276 
L 282.555072 47.615812 
L 283.316725 48.110363 
L 283.697371 47.698553 
L 284.0781 47.832287 
L 286.362558 47.847404 
L 287.12401 47.856858 
L 292.073633 47.838004 
L 292.454342 47.799468 
L 293.215846 47.85825 
L 293.977371 47.876388 
L 295.50029 47.783378 
L 296.261793 47.873072 
L 300.830639 47.838572 
L 301.211342 47.789573 
L 301.972816 47.836172 
L 303.876499 47.822686 
L 305.399481 47.864516 
L 314.156353 47.808484 
L 314.917839 47.836117 
L 316.440798 47.871387 
L 320.628872 47.812094 
L 321.771001 47.726983 
L 322.151778 47.908136 
L 323.67474 47.813908 
L 324.816929 47.829997 
L 325.197496 47.570959 
L 325.578472 48.228381 
L 325.959147 47.744304 
L 326.339892 47.857591 
L 327.862822 47.807073 
L 329.005027 47.826167 
L 337.761775 47.840862 
L 338.142475 47.785193 
L 338.903962 47.847733 
L 340.046133 47.820249 
L 343.472686 47.826918 
L 344.234136 47.86109 
L 345.757069 47.835365 
L 346.137839 47.896632 
L 346.518559 47.818031 
L 346.899305 47.859185 
L 347.279971 47.729898 
L 347.660761 47.928909 
L 348.041303 47.532371 
L 348.422225 48.141867 
L 349.183717 47.80262 
L 351.848807 47.807312 
L 352.229477 47.737394 
L 352.610287 47.96252 
L 352.990997 47.800238 
L 354.5139 47.819992 
L 355.656056 47.857297 
L 356.036916 48.041083 
L 356.417506 47.609376 
L 356.798236 47.832379 
L 360.986185 47.805919 
L 361.367077 48.092623 
L 361.747656 47.591681 
L 362.128373 47.811325 
L 362.889859 47.834046 
L 363.65133 47.846671 
L 364.031955 47.665555 
L 364.412766 47.962098 
L 365.17421 47.793256 
L 368.219956 47.828146 
L 379.260959 47.808319 
L 379.641499 47.528428 
L 380.022401 48.109338 
L 380.403117 47.810445 
L 386.11389 47.795858 
L 387.256004 47.804838 
L 388.017464 47.816474 
L 391.063182 47.824903 
L 398.296843 47.843501 
L 398.677537 47.775498 
L 399.058287 47.865634 
L 399.819716 47.816767 
L 402.865455 47.786127 
L 403.246264 47.960139 
L 403.626866 47.626924 
L 404.007644 47.911379 
L 404.388294 47.703869 
L 404.769101 47.956952 
L 405.149812 47.80339 
L 405.530339 47.506766 
L 405.911254 48.130573 
L 406.291958 47.791515 
L 407.814816 47.780281 
L 408.195502 47.761441 
L 408.576253 47.867869 
L 410.099089 47.794136 
L 410.479831 47.852992 
L 411.241256 47.813927 
L 414.667694 47.803133 
L 415.048365 47.738128 
L 416.190544 47.866935 
L 416.571245 47.786237 
L 417.332699 47.820743 
L 418.094102 47.807257 
L 419.236249 47.793238 
L 420.378404 47.819021 
L 420.758903 47.46296 
L 421.139819 48.131452 
L 421.520521 47.788271 
L 423.043408 47.834999 
L 423.424086 47.749528 
L 424.185535 47.815484 
L 424.566256 47.819497 
L 424.946787 47.512452 
L 425.327702 48.129896 
L 425.70843 47.83095 
L 434.845541 47.862226 
L 435.226339 47.942189 
L 435.606985 47.699066 
L 436.368396 47.791094 
L 437.12983 47.79529 
L 438.652662 47.798497 
L 441.698335 47.815264 
L 442.079002 47.731896 
L 442.459744 47.852772 
L 443.221126 47.74753 
L 443.982572 47.809987 
L 444.74398 47.811545 
L 445.886135 47.847623 
L 446.266805 47.738311 
L 447.028236 47.811599 
L 448.170345 47.793128 
L 448.551123 47.909895 
L 448.931716 47.613667 
L 449.69321 47.907605 
L 450.073883 47.742343 
L 450.835326 47.808008 
L 454.642401 47.777954 
L 456.926676 47.807055 
L 463.398803 47.795895 
L 475.200754 47.747878 
L 475.581517 47.885109 
L 476.723687 47.816052 
L 479.769297 47.787483 
L 481.292119 47.825599 
L 481.672623 47.470114 
L 482.053508 48.081584 
L 482.434213 47.793201 
L 483.576393 47.891227 
L 483.957046 47.710615 
L 484.718442 47.783672 
L 491.190465 47.793238 
L 491.570968 47.467986 
L 491.951872 48.11375 
L 492.332545 47.740767 
L 492.713303 47.878697 
L 493.855252 47.530629 
L 494.236135 48.078819 
L 494.616749 47.647056 
L 494.997663 48.127973 
L 495.378236 47.581632 
L 495.758936 47.784826 
L 496.139672 47.842273 
L 497.281649 47.615171 
L 497.662434 47.921564 
L 498.043135 47.786182 
L 499.946674 47.782389 
L 501.469484 47.763897 
L 502.2309 47.776689 
L 522.789007 47.777697 
L 523.169678 47.738439 
L 523.931103 47.791937 
L 526.976697 47.791222 
L 528.118838 47.812296 
L 531.545139 47.779548 
L 534.210108 47.809675 
L 534.971509 47.80711 
L 538.017107 47.774435 
L 539.159282 47.9081 
L 539.53993 47.701046 
L 539.920649 47.815521 
L 540.301341 47.77372 
L 540.682085 47.854916 
L 541.443503 47.808448 
L 543.347019 47.811636 
L 543.727814 47.936217 
L 544.108432 47.65472 
L 544.869905 47.884999 
L 545.250541 47.681486 
L 546.773307 47.782609 
L 547.915454 47.837198 
L 548.296117 47.725884 
L 548.676817 47.784551 
L 549.057328 47.481543 
L 549.43821 48.077574 
L 549.818917 47.797123 
L 550.199666 47.863014 
L 550.580302 47.683374 
L 550.96102 47.813707 
L 551.341675 47.712979 
L 552.103108 47.829319 
L 556.290912 47.78303 
L 562.382091 47.830986 
L 562.762565 47.422249 
L 563.143455 48.089932 
L 563.524171 47.811325 
L 569.996101 47.779347 
L 573.803086 47.81105 
L 574.183748 47.723519 
L 574.945157 47.792908 
L 577.990758 47.787813 
L 585.224123 47.884834 
L 585.604742 47.655618 
L 586.366157 47.806267 
L 587.888973 47.791515 
L 588.269661 47.76628 
L 588.650133 47.419019 
L 589.031032 48.103956 
L 589.411748 47.812204 
L 591.695921 47.775388 
L 592.076649 47.828842 
L 592.838037 47.788601 
L 593.218763 47.825966 
L 593.599618 48.035077 
L 593.980154 47.521586 
L 594.36082 47.730338 
L 594.741526 47.794429 
L 595.122156 47.67221 
L 595.502933 47.910115 
L 596.264306 47.746027 
L 596.645023 47.813102 
L 597.406412 47.790452 
L 598.167818 47.794007 
L 598.548329 47.48158 
L 598.929239 48.12261 
L 599.309939 47.783892 
L 602.355534 47.789188 
L 604.259018 47.76452 
L 604.63953 47.483286 
L 605.020431 48.108496 
L 605.401101 47.73657 
L 606.543237 47.824573 
L 613.395845 47.783617 
L 613.776562 47.812241 
L 614.157084 47.498254 
L 614.537913 47.99197 
L 614.918617 47.792853 
L 619.487037 47.777661 
L 619.867699 47.723244 
L 620.629111 47.806652 
L 621.009782 47.738897 
L 621.390528 47.859441 
L 622.151912 47.763256 
L 624.055415 47.78413 
L 624.435936 47.497392 
L 624.816827 48.092568 
L 625.197531 47.790654 
L 625.578188 47.7167 
L 626.339594 47.799358 
L 627.481687 47.793219 
L 627.862202 47.487542 
L 628.243035 47.999185 
L 628.623752 47.81149 
L 630.527224 47.754806 
L 630.907959 47.840624 
L 631.288624 47.730191 
L 632.430725 47.802565 
L 633.572709 47.61937 
L 633.953479 47.898061 
L 634.334187 47.797984 
L 635.476312 47.821036 
L 636.237694 47.774417 
L 644.232299 47.801173 
L 644.61311 47.963142 
L 644.993695 47.600886 
L 645.755162 47.949039 
L 646.135767 47.631966 
L 646.516447 47.753579 
L 646.896978 47.512874 
L 647.277876 48.103223 
L 647.658558 47.756236 
L 648.039273 47.809236 
L 648.419933 47.721026 
L 649.181343 47.797178 
L 651.846236 47.804013 
L 652.226849 47.645186 
L 652.607622 47.901779 
L 653.368995 47.738806 
L 654.511058 47.775773 
L 655.272474 47.788235 
L 656.795245 47.722584 
L 657.556666 47.810995 
L 657.937336 47.735525 
L 658.318086 47.865341 
L 659.079458 47.767233 
L 662.505678 47.735323 
L 662.886195 47.490917 
L 663.267096 48.108331 
L 663.647808 47.804819 
L 664.789924 47.768259 
L 665.551297 47.793 
L 671.261742 47.766628 
L 671.642416 47.743241 
L 672.02315 47.839928 
L 672.784539 47.767434 
L 673.545933 47.761441 
L 674.307315 47.801869 
L 678.875714 47.776873 
L 680.779187 47.786585 
L 681.9213 47.761661 
L 683.063346 47.759627 
L 684.586152 47.797691 
L 685.728219 47.782865 
L 688.012398 47.760378 
L 689.53522 47.795638 
L 689.915904 47.759975 
L 690.296639 47.840441 
L 691.058008 47.736881 
L 691.819439 47.79617 
L 693.342245 47.791717 
L 693.722757 47.484295 
L 694.10364 48.077373 
L 694.484324 47.76069 
L 696.007116 47.804544 
L 696.387786 47.738403 
L 696.768599 47.965468 
L 697.149172 47.580898 
L 697.529867 47.777257 
L 698.671961 47.761881 
L 699.052552 47.611155 
L 699.433342 47.928176 
L 699.81404 47.783378 
L 702.47885 47.704785 
L 702.859573 47.821403 
L 704.763071 47.76441 
L 706.666537 47.769285 
L 709.331357 47.76584 
L 710.473509 47.807898 
L 711.234892 47.793861 
L 711.996268 47.781234 
L 712.376962 47.776818 
L 712.75746 47.459621 
L 713.13835 48.09006 
L 713.518817 47.410873 
L 713.899693 48.067193 
L 714.280413 47.817866 
L 717.325969 47.769487 
L 718.087381 47.774838 
L 720.371482 47.7268 
L 720.752212 47.833625 
L 721.894312 47.766664 
L 724.559186 47.772951 
L 724.939838 47.708067 
L 726.081941 47.799707 
L 730.650279 47.722566 
L 731.030923 47.694575 
L 731.411658 47.840991 
L 732.173042 47.770788 
L 733.315157 47.810024 
L 734.076553 47.797709 
L 735.980068 47.772053 
L 736.360682 47.646634 
L 736.741405 47.822521 
L 737.502821 47.801814 
L 737.883389 47.572774 
L 738.264237 48.022277 
L 738.644935 47.781509 
L 740.167659 47.760213 
L 740.54839 47.835659 
L 740.929063 47.74183 
L 741.69048 47.802199 
L 742.071137 47.716352 
L 743.213228 47.77821 
L 747.400818 47.779988 
L 747.781453 47.682293 
L 748.16218 47.828109 
L 749.304261 47.780355 
L 750.446359 47.761936 
L 750.827019 47.721375 
L 751.207526 47.47582 
L 751.588407 48.074608 
L 751.969106 47.783213 
L 753.111185 47.782865 
L 753.491832 47.700478 
L 753.872533 47.787135 
L 755.014612 47.755576 
L 755.776009 47.766206 
L 756.537341 47.724509 
L 756.918044 47.791295 
L 757.298718 47.743425 
L 758.060137 47.789151 
L 759.582882 47.780739 
L 760.344284 47.77471 
L 760.344284 47.77471 
" clip-path="url(#pd8297d0d82)" style="fill: none; stroke: #1f77b4; stroke-width: 1.5; stroke-linecap: square"/>
   </g>
   <g id="line2d_16">
    <path d="M 63.77 47.691383 
L 795.154 47.691383 
" clip-path="url(#pd8297d0d82)" style="fill: none; stroke-dasharray: 5.55,2.4; stroke-dashoffset: 0; stroke: #0000ff; stroke-width: 1.5"/>
   </g>
   <g id="patch_3">
    <path d="M 63.77 658.84 
L 63.77 46.08 
" style="fill: none; stroke: #000000; stroke-width: 0.8; stroke-linejoin: miter; stroke-linecap: square"/>
   </g>
   <g id="patch_4">
    <path d="M 795.154 658.84 
L 795.154 46.08 
" style="fill: none; stroke: #000000; stroke-width: 0.8; stroke-linejoin: miter; stroke-linecap: square"/>
   </g>
   <g id="patch_5">
    <path d="M 63.77 658.84 
L 795.154 658.84 
" style="fill: none; stroke: #000000; stroke-width: 0.8; stroke-linejoin: miter; stroke-linecap: square"/>
   </g>
   <g id="patch_6">
    <path d="M 63.77 46.08 
L 795.154 46.08 
" style="fill: none; stroke: #000000; stroke-width: 0.8; stroke-linejoin: miter; stroke-linecap: square"/>
   </g>
   <g id="text_17">
    <!-- Packet Rate from Timestamps (SelectionProcess: 16777217) -->
    <g transform="translate(248.322 40.08) scale(0.12 -0.12)">
     <defs>
      <path id="DejaVuSans-52" d="M 2841 2188 
Q 3044 2119 3236 1894 
Q 3428 1669 3622 1275 
L 4263 0 
L 3584 0 
L 2988 1197 
Q 2756 1666 2539 1819 
Q 2322 1972 1947 1972 
L 1259 1972 
L 1259 0 
L 628 0 
L 628 4666 
L 2053 4666 
Q 2853 4666 3247 4331 
Q 3641 3997 3641 3322 
Q 3641 2881 3436 2590 
Q 3231 2300 2841 2188 
z
M 1259 4147 
L 1259 2491 
L 2053 2491 
Q 2509 2491 2742 2702 
Q 2975 2913 2975 3322 
Q 2975 3731 2742 3939 
Q 2509 4147 2053 4147 
L 1259 4147 
z
" transform="scale(0.015625)"/>
      <path id="DejaVuSans-66" d="M 2375 4863 
L 2375 4384 
L 1825 4384 
Q 1516 4384 1395 4259 
Q 1275 4134 1275 3809 
L 1275 3500 
L 2222 3500 
L 2222 3053 
L 1275 3053 
L 1275 0 
L 697 0 
L 697 3053 
L 147 3053 
L 147 3500 
L 697 3500 
L 697 3744 
Q 697 4328 969 4595 
Q 1241 4863 1831 4863 
L 2375 4863 
z
" transform="scale(0.015625)"/>
      <path id="DejaVuSans-6c" d="M 603 4863 
L 1178 4863 
L 1178 0 
L 603 0 
L 603 4863 
z
" transform="scale(0.015625)"/>
      <path id="DejaVuSans-3a" d="M 750 794 
L 1409 794 
L 1409 0 
L 750 0 
L 750 794 
z
M 750 3309 
L 1409 3309 
L 1409 2516 
L 750 2516 
L 750 3309 
z
" transform="scale(0.015625)"/>
      <path id="DejaVuSans-37" d="M 525 4666 
L 3525 4666 
L 3525 4397 
L 1831 0 
L 1172 0 
L 2766 4134 
L 525 4134 
L 525 4666 
z
" transform="scale(0.015625)"/>
     </defs>
     <use xlink:href="#DejaVuSans-50"/>
     <use xlink:href="#DejaVuSans-61" x="55.802734"/>
     <use xlink:href="#DejaVuSans-63" x="117.082031"/>
     <use xlink:href="#DejaVuSans-6b" x="172.0625"/>
     <use xlink:href="#DejaVuSans-65" x="226.347656"/>
     <use xlink:href="#DejaVuSans-74" x="287.871094"/>
     <use xlink:href="#DejaVuSans-20" x="327.080078"/>
     <use xlink:href="#DejaVuSans-52" x="358.867188"/>
     <use xlink:href="#DejaVuSans-61" x="426.099609"/>
     <use xlink:href="#DejaVuSans-74" x="487.378906"/>
     <use xlink:href="#DejaVuSans-65" x="526.587891"/>
     <use xlink:href="#DejaVuSans-20" x="588.111328"/>
     <use xlink:href="#DejaVuSans-66" x="619.898438"/>
     <use xlink:href="#DejaVuSans-72" x="655.103516"/>
     <use xlink:href="#DejaVuSans-6f" x="693.966797"/>
     <use xlink:href="#DejaVuSans-6d" x="755.148438"/>
     <use xlink:href="#DejaVuSans-20" x="852.560547"/>
     <use xlink:href="#DejaVuSans-54" x="884.347656"/>
     <use xlink:href="#DejaVuSans-69" x="942.306641"/>
     <use xlink:href="#DejaVuSans-6d" x="970.089844"/>
     <use xlink:href="#DejaVuSans-65" x="1067.501953"/>
     <use xlink:href="#DejaVuSans-73" x="1129.025391"/>
     <use xlink:href="#DejaVuSans-74" x="1181.125"/>
     <use xlink:href="#DejaVuSans-61" x="1220.333984"/>
     <use xlink:href="#DejaVuSans-6d" x="1281.613281"/>
     <use xlink:href="#DejaVuSans-70" x="1379.025391"/>
     <use xlink:href="#DejaVuSans-73" x="1442.501953"/>
     <use xlink:href="#DejaVuSans-20" x="1494.601562"/>
     <use xlink:href="#DejaVuSans-28" x="1526.388672"/>
     <use xlink:href="#DejaVuSans-53" x="1565.402344"/>
     <use xlink:href="#DejaVuSans-65" x="1628.878906"/>
     <use xlink:href="#DejaVuSans-6c" x="1690.402344"/>
     <use xlink:href="#DejaVuSans-65" x="1718.185547"/>
     <use xlink:href="#DejaVuSans-63" x="1779.708984"/>
     <use xlink:href="#DejaVuSans-74" x="1834.689453"/>
     <use xlink:href="#DejaVuSans-69" x="1873.898438"/>
     <use xlink:href="#DejaVuSans-6f" x="1901.681641"/>
     <use xlink:href="#DejaVuSans-6e" x="1962.863281"/>
     <use xlink:href="#DejaVuSans-50" x="2026.242188"/>
     <use xlink:href="#DejaVuSans-72" x="2084.794922"/>
     <use xlink:href="#DejaVuSans-6f" x="2123.658203"/>
     <use xlink:href="#DejaVuSans-63" x="2184.839844"/>
     <use xlink:href="#DejaVuSans-65" x="2239.820312"/>
     <use xlink:href="#DejaVuSans-73" x="2301.34375"/>
     <use xlink:href="#DejaVuSans-73" x="2353.443359"/>
     <use xlink:href="#DejaVuSans-3a" x="2405.542969"/>
     <use xlink:href="#DejaVuSans-20" x="2439.234375"/>
     <use xlink:href="#DejaVuSans-31" x="2471.021484"/>
     <use xlink:href="#DejaVuSans-36" x="2534.644531"/>
     <use xlink:href="#DejaVuSans-37" x="2598.267578"/>
     <use xlink:href="#DejaVuSans-37" x="2661.890625"/>
     <use xlink:href="#DejaVuSans-37" x="2725.513672"/>
     <use xlink:href="#DejaVuSans-32" x="2789.136719"/>
     <use xlink:href="#DejaVuSans-31" x="2852.759766"/>
     <use xlink:href="#DejaVuSans-37" x="2916.382812"/>
     <use xlink:href="#DejaVuSans-29" x="2980.005859"/>
    </g>
   </g>
   <g id="legend_1">
    <g id="patch_7">
     <path d="M 802.154 368.638125 
L 983.61025 368.638125 
Q 985.61025 368.638125 985.61025 366.638125 
L 985.61025 338.281875 
Q 985.61025 336.281875 983.61025 336.281875 
L 802.154 336.281875 
Q 800.154 336.281875 800.154 338.281875 
L 800.154 366.638125 
Q 800.154 368.638125 802.154 368.638125 
z
" style="fill: #ffffff; opacity: 0.8; stroke: #cccccc; stroke-linejoin: miter"/>
    </g>
    <g id="line2d_17">
     <path d="M 804.154 344.380313 
L 814.154 344.380313 
L 824.154 344.380313 
" style="fill: none; stroke: #1f77b4; stroke-width: 1.5; stroke-linecap: square"/>
    </g>
    <g id="text_18">
     <!-- Packet Rate from Timestamps -->
     <g transform="translate(832.154 347.880313) scale(0.1 -0.1)">
      <use xlink:href="#DejaVuSans-50"/>
      <use xlink:href="#DejaVuSans-61" x="55.802734"/>
      <use xlink:href="#DejaVuSans-63" x="117.082031"/>
      <use xlink:href="#DejaVuSans-6b" x="172.0625"/>
      <use xlink:href="#DejaVuSans-65" x="226.347656"/>
      <use xlink:href="#DejaVuSans-74" x="287.871094"/>
      <use xlink:href="#DejaVuSans-20" x="327.080078"/>
      <use xlink:href="#DejaVuSans-52" x="358.867188"/>
      <use xlink:href="#DejaVuSans-61" x="426.099609"/>
      <use xlink:href="#DejaVuSans-74" x="487.378906"/>
      <use xlink:href="#DejaVuSans-65" x="526.587891"/>
      <use xlink:href="#DejaVuSans-20" x="588.111328"/>
      <use xlink:href="#DejaVuSans-66" x="619.898438"/>
      <use xlink:href="#DejaVuSans-72" x="655.103516"/>
      <use xlink:href="#DejaVuSans-6f" x="693.966797"/>
      <use xlink:href="#DejaVuSans-6d" x="755.148438"/>
      <use xlink:href="#DejaVuSans-20" x="852.560547"/>
      <use xlink:href="#DejaVuSans-54" x="884.347656"/>
      <use xlink:href="#DejaVuSans-69" x="942.306641"/>
      <use xlink:href="#DejaVuSans-6d" x="970.089844"/>
      <use xlink:href="#DejaVuSans-65" x="1067.501953"/>
      <use xlink:href="#DejaVuSans-73" x="1129.025391"/>
      <use xlink:href="#DejaVuSans-74" x="1181.125"/>
      <use xlink:href="#DejaVuSans-61" x="1220.333984"/>
      <use xlink:href="#DejaVuSans-6d" x="1281.613281"/>
      <use xlink:href="#DejaVuSans-70" x="1379.025391"/>
      <use xlink:href="#DejaVuSans-73" x="1442.501953"/>
     </g>
    </g>
    <g id="line2d_18">
     <path d="M 804.154 359.058438 
L 814.154 359.058438 
L 824.154 359.058438 
" style="fill: none; stroke-dasharray: 5.55,2.4; stroke-dashoffset: 0; stroke: #0000ff; stroke-width: 1.5"/>
    </g>
    <g id="text_19">
     <!-- Packet Rate Average -->
     <g transform="translate(832.154 362.558438) scale(0.1 -0.1)">
      <defs>
       <path id="DejaVuSans-41" d="M 2188 4044 
L 1331 1722 
L 3047 1722 
L 2188 4044 
z
M 1831 4666 
L 2547 4666 
L 4325 0 
L 3669 0 
L 3244 1197 
L 1141 1197 
L 716 0 
L 50 0 
L 1831 4666 
z
" transform="scale(0.015625)"/>
       <path id="DejaVuSans-76" d="M 191 3500 
L 800 3500 
L 1894 563 
L 2988 3500 
L 3597 3500 
L 2284 0 
L 1503 0 
L 191 3500 
z
" transform="scale(0.015625)"/>
       <path id="DejaVuSans-67" d="M 2906 1791 
Q 2906 2416 2648 2759 
Q 2391 3103 1925 3103 
Q 1463 3103 1205 2759 
Q 947 2416 947 1791 
Q 947 1169 1205 825 
Q 1463 481 1925 481 
Q 2391 481 2648 825 
Q 2906 1169 2906 1791 
z
M 3481 434 
Q 3481 -459 3084 -895 
Q 2688 -1331 1869 -1331 
Q 1566 -1331 1297 -1286 
Q 1028 -1241 775 -1147 
L 775 -588 
Q 1028 -725 1275 -790 
Q 1522 -856 1778 -856 
Q 2344 -856 2625 -561 
Q 2906 -266 2906 331 
L 2906 616 
Q 2728 306 2450 153 
Q 2172 0 1784 0 
Q 1141 0 747 490 
Q 353 981 353 1791 
Q 353 2603 747 3093 
Q 1141 3584 1784 3584 
Q 2172 3584 2450 3431 
Q 2728 3278 2906 2969 
L 2906 3500 
L 3481 3500 
L 3481 434 
z
" transform="scale(0.015625)"/>
      </defs>
      <use xlink:href="#DejaVuSans-50"/>
      <use xlink:href="#DejaVuSans-61" x="55.802734"/>
      <use xlink:href="#DejaVuSans-63" x="117.082031"/>
      <use xlink:href="#DejaVuSans-6b" x="172.0625"/>
      <use xlink:href="#DejaVuSans-65" x="226.347656"/>
      <use xlink:href="#DejaVuSans-74" x="287.871094"/>
      <use xlink:href="#DejaVuSans-20" x="327.080078"/>
      <use xlink:href="#DejaVuSans-52" x="358.867188"/>
      <use xlink:href="#DejaVuSans-61" x="426.099609"/>
      <use xlink:href="#DejaVuSans-74" x="487.378906"/>
      <use xlink:href="#DejaVuSans-65" x="526.587891"/>
      <use xlink:href="#DejaVuSans-20" x="588.111328"/>
      <use xlink:href="#DejaVuSans-41" x="619.898438"/>
      <use xlink:href="#DejaVuSans-76" x="682.431641"/>
      <use xlink:href="#DejaVuSans-65" x="741.611328"/>
      <use xlink:href="#DejaVuSans-72" x="803.134766"/>
      <use xlink:href="#DejaVuSans-61" x="844.248047"/>
      <use xlink:href="#DejaVuSans-67" x="905.527344"/>
      <use xlink:href="#DejaVuSans-65" x="969.003906"/>
     </g>
    </g>
   </g>
  </g>
 </g>
 <defs>
  <clipPath id="pd8297d0d82">
   <rect x="63.77" y="46.08" width="731.384" height="612.76"/>
  </clipPath>
 </defs>
</svg>
