<?xml version="1.0" encoding="utf-8" standalone="no"?>
<!DOCTYPE svg PUBLIC "-//W3C//DTD SVG 1.1//EN"
  "http://www.w3.org/Graphics/SVG/1.1/DTD/svg11.dtd">
<svg xmlns:xlink="http://www.w3.org/1999/xlink" width="1008pt" height="720pt" viewBox="0 0 1008 720" xmlns="http://www.w3.org/2000/svg" version="1.1">
 <metadata>
  <rdf:RDF xmlns:dc="http://purl.org/dc/elements/1.1/" xmlns:cc="http://creativecommons.org/ns#" xmlns:rdf="http://www.w3.org/1999/02/22-rdf-syntax-ns#">
   <cc:Work>
    <dc:type rdf:resource="http://purl.org/dc/dcmitype/StillImage"/>
    <dc:date>2023-04-13T17:46:50.482853</dc:date>
    <dc:format>image/svg+xml</dc:format>
    <dc:creator>
     <cc:Agent>
      <dc:title>Matplotlib v3.6.2, https://matplotlib.org/</dc:title>
     </cc:Agent>
    </dc:creator>
   </cc:Work>
  </rdf:RDF>
 </metadata>
 <defs>
  <style type="text/css">*{stroke-linejoin: round; stroke-linecap: butt}</style>
 </defs>
 <g id="figure_1">
  <g id="patch_1">
   <path d="M 0 720 
L 1008 720 
L 1008 0 
L 0 0 
z
" style="fill: #ffffff"/>
  </g>
  <g id="axes_1">
   <g id="patch_2">
    <path d="M 84.59 639.64 
L 789.718 639.64 
L 789.718 60.96 
L 84.59 60.96 
z
" style="fill: #ffffff"/>
   </g>
   <g id="matplotlib.axis_1">
    <g id="xtick_1">
     <g id="line2d_1">
      <defs>
       <path id="mab2eceb918" d="M 0 0 
L 0 3.5 
" style="stroke: #000000; stroke-width: 0.8"/>
      </defs>
      <g>
       <use xlink:href="#mab2eceb918" x="84.59" y="639.64" style="stroke: #000000; stroke-width: 0.8"/>
      </g>
     </g>
     <g id="text_1">
      <!-- 0 -->
      <g transform="translate(80.13625 657.277812) scale(0.14 -0.14)">
       <defs>
        <path id="DejaVuSans-30" d="M 2034 4250 
Q 1547 4250 1301 3770 
Q 1056 3291 1056 2328 
Q 1056 1369 1301 889 
Q 1547 409 2034 409 
Q 2525 409 2770 889 
Q 3016 1369 3016 2328 
Q 3016 3291 2770 3770 
Q 2525 4250 2034 4250 
z
M 2034 4750 
Q 2819 4750 3233 4129 
Q 3647 3509 3647 2328 
Q 3647 1150 3233 529 
Q 2819 -91 2034 -91 
Q 1250 -91 836 529 
Q 422 1150 422 2328 
Q 422 3509 836 4129 
Q 1250 4750 2034 4750 
z
" transform="scale(0.015625)"/>
       </defs>
       <use xlink:href="#DejaVuSans-30"/>
      </g>
     </g>
    </g>
    <g id="xtick_2">
     <g id="line2d_2">
      <g>
       <use xlink:href="#mab2eceb918" x="176.382028" y="639.64" style="stroke: #000000; stroke-width: 0.8"/>
      </g>
     </g>
     <g id="text_2">
      <!-- 250 -->
      <g transform="translate(163.020778 657.277812) scale(0.14 -0.14)">
       <defs>
        <path id="DejaVuSans-32" d="M 1228 531 
L 3431 531 
L 3431 0 
L 469 0 
L 469 531 
Q 828 903 1448 1529 
Q 2069 2156 2228 2338 
Q 2531 2678 2651 2914 
Q 2772 3150 2772 3378 
Q 2772 3750 2511 3984 
Q 2250 4219 1831 4219 
Q 1534 4219 1204 4116 
Q 875 4013 500 3803 
L 500 4441 
Q 881 4594 1212 4672 
Q 1544 4750 1819 4750 
Q 2544 4750 2975 4387 
Q 3406 4025 3406 3419 
Q 3406 3131 3298 2873 
Q 3191 2616 2906 2266 
Q 2828 2175 2409 1742 
Q 1991 1309 1228 531 
z
" transform="scale(0.015625)"/>
        <path id="DejaVuSans-35" d="M 691 4666 
L 3169 4666 
L 3169 4134 
L 1269 4134 
L 1269 2991 
Q 1406 3038 1543 3061 
Q 1681 3084 1819 3084 
Q 2600 3084 3056 2656 
Q 3513 2228 3513 1497 
Q 3513 744 3044 326 
Q 2575 -91 1722 -91 
Q 1428 -91 1123 -41 
Q 819 9 494 109 
L 494 744 
Q 775 591 1075 516 
Q 1375 441 1709 441 
Q 2250 441 2565 725 
Q 2881 1009 2881 1497 
Q 2881 1984 2565 2268 
Q 2250 2553 1709 2553 
Q 1456 2553 1204 2497 
Q 953 2441 691 2322 
L 691 4666 
z
" transform="scale(0.015625)"/>
       </defs>
       <use xlink:href="#DejaVuSans-32"/>
       <use xlink:href="#DejaVuSans-35" x="63.623047"/>
       <use xlink:href="#DejaVuSans-30" x="127.246094"/>
      </g>
     </g>
    </g>
    <g id="xtick_3">
     <g id="line2d_3">
      <g>
       <use xlink:href="#mab2eceb918" x="268.174056" y="639.64" style="stroke: #000000; stroke-width: 0.8"/>
      </g>
     </g>
     <g id="text_3">
      <!-- 500 -->
      <g transform="translate(254.812806 657.277812) scale(0.14 -0.14)">
       <use xlink:href="#DejaVuSans-35"/>
       <use xlink:href="#DejaVuSans-30" x="63.623047"/>
       <use xlink:href="#DejaVuSans-30" x="127.246094"/>
      </g>
     </g>
    </g>
    <g id="xtick_4">
     <g id="line2d_4">
      <g>
       <use xlink:href="#mab2eceb918" x="359.966084" y="639.64" style="stroke: #000000; stroke-width: 0.8"/>
      </g>
     </g>
     <g id="text_4">
      <!-- 750 -->
      <g transform="translate(346.604834 657.277812) scale(0.14 -0.14)">
       <defs>
        <path id="DejaVuSans-37" d="M 525 4666 
L 3525 4666 
L 3525 4397 
L 1831 0 
L 1172 0 
L 2766 4134 
L 525 4134 
L 525 4666 
z
" transform="scale(0.015625)"/>
       </defs>
       <use xlink:href="#DejaVuSans-37"/>
       <use xlink:href="#DejaVuSans-35" x="63.623047"/>
       <use xlink:href="#DejaVuSans-30" x="127.246094"/>
      </g>
     </g>
    </g>
    <g id="xtick_5">
     <g id="line2d_5">
      <g>
       <use xlink:href="#mab2eceb918" x="451.758112" y="639.64" style="stroke: #000000; stroke-width: 0.8"/>
      </g>
     </g>
     <g id="text_5">
      <!-- 1000 -->
      <g transform="translate(433.943112 657.277812) scale(0.14 -0.14)">
       <defs>
        <path id="DejaVuSans-31" d="M 794 531 
L 1825 531 
L 1825 4091 
L 703 3866 
L 703 4441 
L 1819 4666 
L 2450 4666 
L 2450 531 
L 3481 531 
L 3481 0 
L 794 0 
L 794 531 
z
" transform="scale(0.015625)"/>
       </defs>
       <use xlink:href="#DejaVuSans-31"/>
       <use xlink:href="#DejaVuSans-30" x="63.623047"/>
       <use xlink:href="#DejaVuSans-30" x="127.246094"/>
       <use xlink:href="#DejaVuSans-30" x="190.869141"/>
      </g>
     </g>
    </g>
    <g id="xtick_6">
     <g id="line2d_6">
      <g>
       <use xlink:href="#mab2eceb918" x="543.55014" y="639.64" style="stroke: #000000; stroke-width: 0.8"/>
      </g>
     </g>
     <g id="text_6">
      <!-- 1250 -->
      <g transform="translate(525.73514 657.277812) scale(0.14 -0.14)">
       <use xlink:href="#DejaVuSans-31"/>
       <use xlink:href="#DejaVuSans-32" x="63.623047"/>
       <use xlink:href="#DejaVuSans-35" x="127.246094"/>
       <use xlink:href="#DejaVuSans-30" x="190.869141"/>
      </g>
     </g>
    </g>
    <g id="xtick_7">
     <g id="line2d_7">
      <g>
       <use xlink:href="#mab2eceb918" x="635.342167" y="639.64" style="stroke: #000000; stroke-width: 0.8"/>
      </g>
     </g>
     <g id="text_7">
      <!-- 1500 -->
      <g transform="translate(617.527167 657.277812) scale(0.14 -0.14)">
       <use xlink:href="#DejaVuSans-31"/>
       <use xlink:href="#DejaVuSans-35" x="63.623047"/>
       <use xlink:href="#DejaVuSans-30" x="127.246094"/>
       <use xlink:href="#DejaVuSans-30" x="190.869141"/>
      </g>
     </g>
    </g>
    <g id="xtick_8">
     <g id="line2d_8">
      <g>
       <use xlink:href="#mab2eceb918" x="727.134195" y="639.64" style="stroke: #000000; stroke-width: 0.8"/>
      </g>
     </g>
     <g id="text_8">
      <!-- 1750 -->
      <g transform="translate(709.319195 657.277812) scale(0.14 -0.14)">
       <use xlink:href="#DejaVuSans-31"/>
       <use xlink:href="#DejaVuSans-37" x="63.623047"/>
       <use xlink:href="#DejaVuSans-35" x="127.246094"/>
       <use xlink:href="#DejaVuSans-30" x="190.869141"/>
      </g>
     </g>
    </g>
    <g id="text_9">
     <!-- Packet Number -->
     <g transform="translate(383.913531 674.827188) scale(0.14 -0.14)">
      <defs>
       <path id="DejaVuSans-50" d="M 1259 4147 
L 1259 2394 
L 2053 2394 
Q 2494 2394 2734 2622 
Q 2975 2850 2975 3272 
Q 2975 3691 2734 3919 
Q 2494 4147 2053 4147 
L 1259 4147 
z
M 628 4666 
L 2053 4666 
Q 2838 4666 3239 4311 
Q 3641 3956 3641 3272 
Q 3641 2581 3239 2228 
Q 2838 1875 2053 1875 
L 1259 1875 
L 1259 0 
L 628 0 
L 628 4666 
z
" transform="scale(0.015625)"/>
       <path id="DejaVuSans-61" d="M 2194 1759 
Q 1497 1759 1228 1600 
Q 959 1441 959 1056 
Q 959 750 1161 570 
Q 1363 391 1709 391 
Q 2188 391 2477 730 
Q 2766 1069 2766 1631 
L 2766 1759 
L 2194 1759 
z
M 3341 1997 
L 3341 0 
L 2766 0 
L 2766 531 
Q 2569 213 2275 61 
Q 1981 -91 1556 -91 
Q 1019 -91 701 211 
Q 384 513 384 1019 
Q 384 1609 779 1909 
Q 1175 2209 1959 2209 
L 2766 2209 
L 2766 2266 
Q 2766 2663 2505 2880 
Q 2244 3097 1772 3097 
Q 1472 3097 1187 3025 
Q 903 2953 641 2809 
L 641 3341 
Q 956 3463 1253 3523 
Q 1550 3584 1831 3584 
Q 2591 3584 2966 3190 
Q 3341 2797 3341 1997 
z
" transform="scale(0.015625)"/>
       <path id="DejaVuSans-63" d="M 3122 3366 
L 3122 2828 
Q 2878 2963 2633 3030 
Q 2388 3097 2138 3097 
Q 1578 3097 1268 2742 
Q 959 2388 959 1747 
Q 959 1106 1268 751 
Q 1578 397 2138 397 
Q 2388 397 2633 464 
Q 2878 531 3122 666 
L 3122 134 
Q 2881 22 2623 -34 
Q 2366 -91 2075 -91 
Q 1284 -91 818 406 
Q 353 903 353 1747 
Q 353 2603 823 3093 
Q 1294 3584 2113 3584 
Q 2378 3584 2631 3529 
Q 2884 3475 3122 3366 
z
" transform="scale(0.015625)"/>
       <path id="DejaVuSans-6b" d="M 581 4863 
L 1159 4863 
L 1159 1991 
L 2875 3500 
L 3609 3500 
L 1753 1863 
L 3688 0 
L 2938 0 
L 1159 1709 
L 1159 0 
L 581 0 
L 581 4863 
z
" transform="scale(0.015625)"/>
       <path id="DejaVuSans-65" d="M 3597 1894 
L 3597 1613 
L 953 1613 
Q 991 1019 1311 708 
Q 1631 397 2203 397 
Q 2534 397 2845 478 
Q 3156 559 3463 722 
L 3463 178 
Q 3153 47 2828 -22 
Q 2503 -91 2169 -91 
Q 1331 -91 842 396 
Q 353 884 353 1716 
Q 353 2575 817 3079 
Q 1281 3584 2069 3584 
Q 2775 3584 3186 3129 
Q 3597 2675 3597 1894 
z
M 3022 2063 
Q 3016 2534 2758 2815 
Q 2500 3097 2075 3097 
Q 1594 3097 1305 2825 
Q 1016 2553 972 2059 
L 3022 2063 
z
" transform="scale(0.015625)"/>
       <path id="DejaVuSans-74" d="M 1172 4494 
L 1172 3500 
L 2356 3500 
L 2356 3053 
L 1172 3053 
L 1172 1153 
Q 1172 725 1289 603 
Q 1406 481 1766 481 
L 2356 481 
L 2356 0 
L 1766 0 
Q 1100 0 847 248 
Q 594 497 594 1153 
L 594 3053 
L 172 3053 
L 172 3500 
L 594 3500 
L 594 4494 
L 1172 4494 
z
" transform="scale(0.015625)"/>
       <path id="DejaVuSans-20" transform="scale(0.015625)"/>
       <path id="DejaVuSans-4e" d="M 628 4666 
L 1478 4666 
L 3547 763 
L 3547 4666 
L 4159 4666 
L 4159 0 
L 3309 0 
L 1241 3903 
L 1241 0 
L 628 0 
L 628 4666 
z
" transform="scale(0.015625)"/>
       <path id="DejaVuSans-75" d="M 544 1381 
L 544 3500 
L 1119 3500 
L 1119 1403 
Q 1119 906 1312 657 
Q 1506 409 1894 409 
Q 2359 409 2629 706 
Q 2900 1003 2900 1516 
L 2900 3500 
L 3475 3500 
L 3475 0 
L 2900 0 
L 2900 538 
Q 2691 219 2414 64 
Q 2138 -91 1772 -91 
Q 1169 -91 856 284 
Q 544 659 544 1381 
z
M 1991 3584 
L 1991 3584 
z
" transform="scale(0.015625)"/>
       <path id="DejaVuSans-6d" d="M 3328 2828 
Q 3544 3216 3844 3400 
Q 4144 3584 4550 3584 
Q 5097 3584 5394 3201 
Q 5691 2819 5691 2113 
L 5691 0 
L 5113 0 
L 5113 2094 
Q 5113 2597 4934 2840 
Q 4756 3084 4391 3084 
Q 3944 3084 3684 2787 
Q 3425 2491 3425 1978 
L 3425 0 
L 2847 0 
L 2847 2094 
Q 2847 2600 2669 2842 
Q 2491 3084 2119 3084 
Q 1678 3084 1418 2786 
Q 1159 2488 1159 1978 
L 1159 0 
L 581 0 
L 581 3500 
L 1159 3500 
L 1159 2956 
Q 1356 3278 1631 3431 
Q 1906 3584 2284 3584 
Q 2666 3584 2933 3390 
Q 3200 3197 3328 2828 
z
" transform="scale(0.015625)"/>
       <path id="DejaVuSans-62" d="M 3116 1747 
Q 3116 2381 2855 2742 
Q 2594 3103 2138 3103 
Q 1681 3103 1420 2742 
Q 1159 2381 1159 1747 
Q 1159 1113 1420 752 
Q 1681 391 2138 391 
Q 2594 391 2855 752 
Q 3116 1113 3116 1747 
z
M 1159 2969 
Q 1341 3281 1617 3432 
Q 1894 3584 2278 3584 
Q 2916 3584 3314 3078 
Q 3713 2572 3713 1747 
Q 3713 922 3314 415 
Q 2916 -91 2278 -91 
Q 1894 -91 1617 61 
Q 1341 213 1159 525 
L 1159 0 
L 581 0 
L 581 4863 
L 1159 4863 
L 1159 2969 
z
" transform="scale(0.015625)"/>
       <path id="DejaVuSans-72" d="M 2631 2963 
Q 2534 3019 2420 3045 
Q 2306 3072 2169 3072 
Q 1681 3072 1420 2755 
Q 1159 2438 1159 1844 
L 1159 0 
L 581 0 
L 581 3500 
L 1159 3500 
L 1159 2956 
Q 1341 3275 1631 3429 
Q 1922 3584 2338 3584 
Q 2397 3584 2469 3576 
Q 2541 3569 2628 3553 
L 2631 2963 
z
" transform="scale(0.015625)"/>
      </defs>
      <use xlink:href="#DejaVuSans-50"/>
      <use xlink:href="#DejaVuSans-61" x="55.802734"/>
      <use xlink:href="#DejaVuSans-63" x="117.082031"/>
      <use xlink:href="#DejaVuSans-6b" x="172.0625"/>
      <use xlink:href="#DejaVuSans-65" x="226.347656"/>
      <use xlink:href="#DejaVuSans-74" x="287.871094"/>
      <use xlink:href="#DejaVuSans-20" x="327.080078"/>
      <use xlink:href="#DejaVuSans-4e" x="358.867188"/>
      <use xlink:href="#DejaVuSans-75" x="433.671875"/>
      <use xlink:href="#DejaVuSans-6d" x="497.050781"/>
      <use xlink:href="#DejaVuSans-62" x="594.462891"/>
      <use xlink:href="#DejaVuSans-65" x="657.939453"/>
      <use xlink:href="#DejaVuSans-72" x="719.462891"/>
     </g>
    </g>
   </g>
   <g id="matplotlib.axis_2">
    <g id="ytick_1">
     <g id="line2d_9">
      <defs>
       <path id="md48172e16e" d="M 0 0 
L -3.5 0 
" style="stroke: #000000; stroke-width: 0.8"/>
      </defs>
      <g>
       <use xlink:href="#md48172e16e" x="84.59" y="639.64" style="stroke: #000000; stroke-width: 0.8"/>
      </g>
     </g>
     <g id="text_10">
      <!-- 0 -->
      <g transform="translate(68.6825 644.958906) scale(0.14 -0.14)">
       <use xlink:href="#DejaVuSans-30"/>
      </g>
     </g>
    </g>
    <g id="ytick_2">
     <g id="line2d_10">
      <g>
       <use xlink:href="#md48172e16e" x="84.59" y="557.067144" style="stroke: #000000; stroke-width: 0.8"/>
      </g>
     </g>
     <g id="text_11">
      <!-- 5 -->
      <g transform="translate(68.6825 562.38605) scale(0.14 -0.14)">
       <use xlink:href="#DejaVuSans-35"/>
      </g>
     </g>
    </g>
    <g id="ytick_3">
     <g id="line2d_11">
      <g>
       <use xlink:href="#md48172e16e" x="84.59" y="474.494287" style="stroke: #000000; stroke-width: 0.8"/>
      </g>
     </g>
     <g id="text_12">
      <!-- 10 -->
      <g transform="translate(59.775 479.813194) scale(0.14 -0.14)">
       <use xlink:href="#DejaVuSans-31"/>
       <use xlink:href="#DejaVuSans-30" x="63.623047"/>
      </g>
     </g>
    </g>
    <g id="ytick_4">
     <g id="line2d_12">
      <g>
       <use xlink:href="#md48172e16e" x="84.59" y="391.921431" style="stroke: #000000; stroke-width: 0.8"/>
      </g>
     </g>
     <g id="text_13">
      <!-- 15 -->
      <g transform="translate(59.775 397.240337) scale(0.14 -0.14)">
       <use xlink:href="#DejaVuSans-31"/>
       <use xlink:href="#DejaVuSans-35" x="63.623047"/>
      </g>
     </g>
    </g>
    <g id="ytick_5">
     <g id="line2d_13">
      <g>
       <use xlink:href="#md48172e16e" x="84.59" y="309.348575" style="stroke: #000000; stroke-width: 0.8"/>
      </g>
     </g>
     <g id="text_14">
      <!-- 20 -->
      <g transform="translate(59.775 314.667481) scale(0.14 -0.14)">
       <use xlink:href="#DejaVuSans-32"/>
       <use xlink:href="#DejaVuSans-30" x="63.623047"/>
      </g>
     </g>
    </g>
    <g id="ytick_6">
     <g id="line2d_14">
      <g>
       <use xlink:href="#md48172e16e" x="84.59" y="226.775719" style="stroke: #000000; stroke-width: 0.8"/>
      </g>
     </g>
     <g id="text_15">
      <!-- 25 -->
      <g transform="translate(59.775 232.094625) scale(0.14 -0.14)">
       <use xlink:href="#DejaVuSans-32"/>
       <use xlink:href="#DejaVuSans-35" x="63.623047"/>
      </g>
     </g>
    </g>
    <g id="ytick_7">
     <g id="line2d_15">
      <g>
       <use xlink:href="#md48172e16e" x="84.59" y="144.202862" style="stroke: #000000; stroke-width: 0.8"/>
      </g>
     </g>
     <g id="text_16">
      <!-- 30 -->
      <g transform="translate(59.775 149.521769) scale(0.14 -0.14)">
       <defs>
        <path id="DejaVuSans-33" d="M 2597 2516 
Q 3050 2419 3304 2112 
Q 3559 1806 3559 1356 
Q 3559 666 3084 287 
Q 2609 -91 1734 -91 
Q 1441 -91 1130 -33 
Q 819 25 488 141 
L 488 750 
Q 750 597 1062 519 
Q 1375 441 1716 441 
Q 2309 441 2620 675 
Q 2931 909 2931 1356 
Q 2931 1769 2642 2001 
Q 2353 2234 1838 2234 
L 1294 2234 
L 1294 2753 
L 1863 2753 
Q 2328 2753 2575 2939 
Q 2822 3125 2822 3475 
Q 2822 3834 2567 4026 
Q 2313 4219 1838 4219 
Q 1578 4219 1281 4162 
Q 984 4106 628 3988 
L 628 4550 
Q 988 4650 1302 4700 
Q 1616 4750 1894 4750 
Q 2613 4750 3031 4423 
Q 3450 4097 3450 3541 
Q 3450 3153 3228 2886 
Q 3006 2619 2597 2516 
z
" transform="scale(0.015625)"/>
       </defs>
       <use xlink:href="#DejaVuSans-33"/>
       <use xlink:href="#DejaVuSans-30" x="63.623047"/>
      </g>
     </g>
    </g>
    <g id="ytick_8">
     <g id="line2d_16">
      <g>
       <use xlink:href="#md48172e16e" x="84.59" y="61.630006" style="stroke: #000000; stroke-width: 0.8"/>
      </g>
     </g>
     <g id="text_17">
      <!-- 35 -->
      <g transform="translate(59.775 66.948912) scale(0.14 -0.14)">
       <use xlink:href="#DejaVuSans-33"/>
       <use xlink:href="#DejaVuSans-35" x="63.623047"/>
      </g>
     </g>
    </g>
    <g id="text_18">
     <!-- Interarrival Time (ms) -->
     <g transform="translate(52.863438 426.478594) rotate(-90) scale(0.14 -0.14)">
      <defs>
       <path id="DejaVuSans-49" d="M 628 4666 
L 1259 4666 
L 1259 0 
L 628 0 
L 628 4666 
z
" transform="scale(0.015625)"/>
       <path id="DejaVuSans-6e" d="M 3513 2113 
L 3513 0 
L 2938 0 
L 2938 2094 
Q 2938 2591 2744 2837 
Q 2550 3084 2163 3084 
Q 1697 3084 1428 2787 
Q 1159 2491 1159 1978 
L 1159 0 
L 581 0 
L 581 3500 
L 1159 3500 
L 1159 2956 
Q 1366 3272 1645 3428 
Q 1925 3584 2291 3584 
Q 2894 3584 3203 3211 
Q 3513 2838 3513 2113 
z
" transform="scale(0.015625)"/>
       <path id="DejaVuSans-69" d="M 603 3500 
L 1178 3500 
L 1178 0 
L 603 0 
L 603 3500 
z
M 603 4863 
L 1178 4863 
L 1178 4134 
L 603 4134 
L 603 4863 
z
" transform="scale(0.015625)"/>
       <path id="DejaVuSans-76" d="M 191 3500 
L 800 3500 
L 1894 563 
L 2988 3500 
L 3597 3500 
L 2284 0 
L 1503 0 
L 191 3500 
z
" transform="scale(0.015625)"/>
       <path id="DejaVuSans-6c" d="M 603 4863 
L 1178 4863 
L 1178 0 
L 603 0 
L 603 4863 
z
" transform="scale(0.015625)"/>
       <path id="DejaVuSans-54" d="M -19 4666 
L 3928 4666 
L 3928 4134 
L 2272 4134 
L 2272 0 
L 1638 0 
L 1638 4134 
L -19 4134 
L -19 4666 
z
" transform="scale(0.015625)"/>
       <path id="DejaVuSans-28" d="M 1984 4856 
Q 1566 4138 1362 3434 
Q 1159 2731 1159 2009 
Q 1159 1288 1364 580 
Q 1569 -128 1984 -844 
L 1484 -844 
Q 1016 -109 783 600 
Q 550 1309 550 2009 
Q 550 2706 781 3412 
Q 1013 4119 1484 4856 
L 1984 4856 
z
" transform="scale(0.015625)"/>
       <path id="DejaVuSans-73" d="M 2834 3397 
L 2834 2853 
Q 2591 2978 2328 3040 
Q 2066 3103 1784 3103 
Q 1356 3103 1142 2972 
Q 928 2841 928 2578 
Q 928 2378 1081 2264 
Q 1234 2150 1697 2047 
L 1894 2003 
Q 2506 1872 2764 1633 
Q 3022 1394 3022 966 
Q 3022 478 2636 193 
Q 2250 -91 1575 -91 
Q 1294 -91 989 -36 
Q 684 19 347 128 
L 347 722 
Q 666 556 975 473 
Q 1284 391 1588 391 
Q 1994 391 2212 530 
Q 2431 669 2431 922 
Q 2431 1156 2273 1281 
Q 2116 1406 1581 1522 
L 1381 1569 
Q 847 1681 609 1914 
Q 372 2147 372 2553 
Q 372 3047 722 3315 
Q 1072 3584 1716 3584 
Q 2034 3584 2315 3537 
Q 2597 3491 2834 3397 
z
" transform="scale(0.015625)"/>
       <path id="DejaVuSans-29" d="M 513 4856 
L 1013 4856 
Q 1481 4119 1714 3412 
Q 1947 2706 1947 2009 
Q 1947 1309 1714 600 
Q 1481 -109 1013 -844 
L 513 -844 
Q 928 -128 1133 580 
Q 1338 1288 1338 2009 
Q 1338 2731 1133 3434 
Q 928 4138 513 4856 
z
" transform="scale(0.015625)"/>
      </defs>
      <use xlink:href="#DejaVuSans-49"/>
      <use xlink:href="#DejaVuSans-6e" x="29.492188"/>
      <use xlink:href="#DejaVuSans-74" x="92.871094"/>
      <use xlink:href="#DejaVuSans-65" x="132.080078"/>
      <use xlink:href="#DejaVuSans-72" x="193.603516"/>
      <use xlink:href="#DejaVuSans-61" x="234.716797"/>
      <use xlink:href="#DejaVuSans-72" x="295.996094"/>
      <use xlink:href="#DejaVuSans-72" x="335.359375"/>
      <use xlink:href="#DejaVuSans-69" x="376.472656"/>
      <use xlink:href="#DejaVuSans-76" x="404.255859"/>
      <use xlink:href="#DejaVuSans-61" x="463.435547"/>
      <use xlink:href="#DejaVuSans-6c" x="524.714844"/>
      <use xlink:href="#DejaVuSans-20" x="552.498047"/>
      <use xlink:href="#DejaVuSans-54" x="584.285156"/>
      <use xlink:href="#DejaVuSans-69" x="642.244141"/>
      <use xlink:href="#DejaVuSans-6d" x="670.027344"/>
      <use xlink:href="#DejaVuSans-65" x="767.439453"/>
      <use xlink:href="#DejaVuSans-20" x="828.962891"/>
      <use xlink:href="#DejaVuSans-28" x="860.75"/>
      <use xlink:href="#DejaVuSans-6d" x="899.763672"/>
      <use xlink:href="#DejaVuSans-73" x="997.175781"/>
      <use xlink:href="#DejaVuSans-29" x="1049.275391"/>
     </g>
    </g>
   </g>
   <g id="line2d_17">
    <path d="M 84.59 90.040518 
L 84.957168 90.425357 
L 85.324336 90.047388 
L 85.691504 90.241402 
L 86.425841 90.247776 
L 86.793009 90.378638 
L 87.160177 90.208125 
L 87.527345 89.855605 
L 87.894513 90.30959 
L 88.261681 89.876149 
L 88.628849 90.154733 
L 88.996017 90.015416 
L 89.363185 90.327591 
L 89.730354 89.839371 
L 90.46469 90.325197 
L 90.831858 89.958045 
L 91.566194 90.069353 
L 91.933362 90.053136 
L 92.30053 90.333817 
L 92.667698 90.088675 
L 93.402035 90.101209 
L 93.769203 89.899963 
L 94.136371 90.081838 
L 94.503539 90.084034 
L 94.870707 90.310961 
L 95.237875 90.022072 
L 95.972211 90.100978 
L 96.33938 89.825664 
L 96.706548 90.119475 
L 97.073716 90.004203 
L 97.440884 90.258346 
L 97.808052 90.249031 
L 98.17522 89.629685 
L 98.542388 90.250336 
L 98.909556 89.687949 
L 99.643893 90.12324 
L 100.011061 90.114388 
L 100.378229 89.95783 
L 101.479733 89.967607 
L 101.846901 89.768342 
L 102.214069 89.910664 
L 102.948406 89.926337 
L 103.315574 90.308418 
L 103.682742 89.952545 
L 104.784246 89.966484 
L 105.151414 89.743851 
L 105.518582 89.858264 
L 105.88575 90.283448 
L 106.252919 89.939069 
L 106.987255 89.946286 
L 107.354423 89.683672 
L 107.721591 89.976277 
L 108.455927 89.991833 
L 108.823095 90.312315 
L 109.190263 89.880823 
L 110.291768 89.892548 
L 110.658936 89.52206 
L 111.026104 89.895289 
L 111.393272 90.002981 
L 112.494776 89.855819 
L 112.861945 89.559895 
L 113.229113 89.863003 
L 113.963449 89.904125 
L 114.330617 90.124066 
L 114.697785 89.820165 
L 115.432121 89.865596 
L 115.799289 89.622914 
L 116.900794 90.093266 
L 117.267962 89.584997 
L 118.002298 90.067767 
L 118.369466 89.645193 
L 118.736634 89.848041 
L 119.470971 89.858214 
L 119.838139 90.064712 
L 120.205307 89.802709 
L 120.572475 89.742761 
L 120.939643 89.491855 
L 121.673979 89.747781 
L 122.041147 89.767698 
L 122.408315 89.986929 
L 122.775484 89.506107 
L 123.50982 89.95091 
L 123.876988 89.541894 
L 124.244156 89.751613 
L 125.34566 89.770951 
L 125.712829 89.967359 
L 126.079997 89.471179 
L 126.447165 89.770538 
L 127.181501 89.725272 
L 127.548669 89.758433 
L 127.915837 89.953602 
L 128.650173 89.510153 
L 129.017342 89.951224 
L 129.38451 89.51737 
L 129.751678 89.710904 
L 130.486014 89.730193 
L 130.853182 89.957384 
L 131.22035 89.720218 
L 131.587518 89.663887 
L 131.954686 89.445201 
L 132.321855 89.62848 
L 133.423359 89.872103 
L 133.790527 89.438694 
L 134.524863 89.884142 
L 134.892031 89.451708 
L 135.259199 89.667207 
L 135.993536 89.654044 
L 136.360704 89.877999 
L 137.09504 89.403452 
L 137.462208 89.667041 
L 138.196544 89.661988 
L 138.563712 89.676108 
L 138.930881 89.851493 
L 139.298049 89.413823 
L 140.032385 89.861203 
L 140.399553 89.465597 
L 141.133889 89.89737 
L 141.501057 89.626564 
L 141.868225 89.690657 
L 142.96973 89.354569 
L 143.336898 89.579333 
L 144.071234 89.593452 
L 144.438402 89.802296 
L 144.80557 89.575534 
L 145.539907 89.579712 
L 145.907075 89.240553 
L 146.274243 89.699146 
L 146.641411 89.569077 
L 147.008579 89.556906 
L 147.375747 89.82497 
L 148.110083 89.312738 
L 148.477251 89.601726 
L 149.211588 89.569209 
L 149.578756 89.557451 
L 149.945924 89.799587 
L 150.313092 89.32628 
L 150.68026 89.792982 
L 151.414596 89.386145 
L 151.781764 89.5991 
L 152.516101 89.576195 
L 152.883269 89.581991 
L 153.250437 89.768243 
L 153.984773 89.312028 
L 154.351941 89.491855 
L 155.086277 89.531952 
L 155.453446 89.710095 
L 156.187782 89.261493 
L 156.55495 89.731118 
L 156.922118 89.283375 
L 157.289286 89.567095 
L 157.656454 89.422229 
L 158.023622 89.749697 
L 158.39079 89.268479 
L 158.757959 89.736898 
L 159.492295 89.284085 
L 159.859463 89.481104 
L 160.593799 89.568912 
L 160.960967 89.701953 
L 161.328135 89.255878 
L 162.062472 89.709798 
L 162.42964 89.326792 
L 162.796808 89.515834 
L 163.163976 89.501301 
L 163.531144 89.764907 
L 163.898312 89.261377 
L 164.26548 89.702746 
L 164.632648 89.183098 
L 164.999816 89.481236 
L 165.734153 89.432997 
L 166.101321 89.463417 
L 166.468489 89.691813 
L 166.835657 89.453525 
L 167.569993 89.412816 
L 167.937161 89.214344 
L 168.304329 89.512333 
L 168.671498 89.40261 
L 169.038666 89.662219 
L 169.405834 89.463664 
L 169.773002 89.441766 
L 170.14017 89.20062 
L 170.507338 89.466142 
L 171.608842 89.433294 
L 171.976011 89.671401 
L 172.343179 89.209753 
L 172.710347 89.676785 
L 173.077515 89.22095 
L 173.444683 89.44971 
L 174.179019 89.453723 
L 174.546187 89.672888 
L 174.913355 89.462475 
L 175.647692 89.39759 
L 176.01486 89.199745 
L 176.382028 89.626729 
L 176.749196 89.173883 
L 177.483532 89.634788 
L 178.217868 89.144322 
L 178.585037 89.396004 
L 179.686541 89.368788 
L 180.053709 89.658487 
L 180.420877 89.268743 
L 180.788045 89.467017 
L 181.522381 89.161167 
L 181.88955 89.334768 
L 182.623886 89.384692 
L 182.991054 89.593205 
L 183.358222 89.134199 
L 183.72539 89.368986 
L 185.194063 89.341011 
L 185.561231 89.629917 
L 186.662735 88.815633 
L 187.029903 88.561374 
L 187.397071 89.11491 
L 187.764239 88.51619 
L 188.498576 89.17826 
L 188.865744 88.858785 
L 192.170257 88.839876 
L 192.537425 88.548675 
L 192.904593 89.161547 
L 193.271761 88.587732 
L 193.638929 88.735372 
L 194.006097 89.148897 
L 194.373265 88.855829 
L 194.740433 88.852477 
L 195.107602 88.549682 
L 195.47477 88.843856 
L 195.841938 88.82384 
L 196.209106 89.18726 
L 196.576274 88.853154 
L 197.677778 88.843063 
L 198.044946 88.545768 
L 198.412115 89.148599 
L 198.779283 88.594304 
L 199.146451 89.122606 
L 199.513619 88.847357 
L 200.247955 88.823708 
L 200.615123 88.56656 
L 200.982291 88.831206 
L 201.34946 88.854706 
L 201.716628 89.196393 
L 202.083796 88.834079 
L 203.1853 88.84995 
L 203.552468 88.535678 
L 203.919636 89.167773 
L 204.286804 88.524415 
L 204.653973 89.201611 
L 205.021141 88.810464 
L 205.755477 88.846053 
L 206.122645 88.574982 
L 206.489813 88.784371 
L 206.856981 88.854013 
L 207.224149 89.18977 
L 207.591317 88.850528 
L 208.692822 88.892211 
L 209.05999 88.578269 
L 209.427158 88.872146 
L 209.794326 88.847638 
L 210.161494 89.228613 
L 210.528662 88.878107 
L 211.262999 88.895101 
L 211.630167 88.630868 
L 211.997335 89.19058 
L 212.364503 88.584941 
L 212.731671 89.175535 
L 213.098839 88.891269 
L 214.200343 88.881328 
L 214.567512 88.652518 
L 214.93468 89.146799 
L 215.301848 88.553992 
L 215.669016 89.202173 
L 216.036184 88.856919 
L 216.77052 88.892954 
L 217.137688 88.593396 
L 217.504856 88.942481 
L 217.872025 88.821099 
L 218.239193 89.202784 
L 218.606361 88.896026 
L 219.340697 88.908643 
L 219.707865 88.884565 
L 220.075033 88.674384 
L 221.176538 89.12533 
L 221.543706 88.896802 
L 222.278042 88.902896 
L 222.64521 88.580102 
L 223.012378 88.878751 
L 223.379546 88.97878 
L 223.746714 88.814229 
L 224.113882 89.072616 
L 224.481051 89.032419 
L 224.848219 88.879891 
L 225.215387 88.861857 
L 225.582555 88.619489 
L 225.949723 88.878801 
L 226.684059 88.919361 
L 227.051227 89.16987 
L 227.418395 88.894903 
L 227.785564 88.892046 
L 228.152732 88.569533 
L 228.5199 88.91913 
L 228.887068 88.839348 
L 229.254236 89.168747 
L 229.621404 88.935083 
L 231.090077 88.649826 
L 231.457245 88.874771 
L 231.824413 88.851667 
L 232.191581 89.224946 
L 232.558749 88.899477 
L 233.660253 88.918667 
L 234.027421 88.703895 
L 234.761758 88.887091 
L 235.128926 89.247852 
L 235.496094 88.599639 
L 235.863262 89.042196 
L 236.23043 88.768484 
L 236.597598 88.896587 
L 236.964766 89.235862 
L 237.331934 88.55827 
L 237.699103 89.240041 
L 238.066271 88.82389 
L 238.433439 88.917032 
L 238.800607 88.894159 
L 239.167775 88.584181 
L 239.534943 88.934108 
L 239.902111 88.846895 
L 240.269279 89.193238 
L 240.636447 88.887851 
L 241.370784 88.894457 
L 241.737952 88.632767 
L 242.472288 89.251452 
L 242.839456 88.597789 
L 243.206624 89.234987 
L 243.94096 88.617045 
L 244.308129 89.175815 
L 245.042465 88.603305 
L 245.776801 89.204022 
L 246.143969 88.854822 
L 246.878305 88.910311 
L 247.245473 88.553926 
L 247.97981 89.235945 
L 248.346978 88.598268 
L 248.714146 89.214129 
L 249.081314 88.919906 
L 249.81565 88.887933 
L 250.182818 88.756164 
L 250.549986 88.763265 
L 250.917155 88.891088 
L 251.651491 88.901129 
L 252.018659 89.17319 
L 252.752995 88.599193 
L 253.120163 89.256539 
L 253.487331 88.563373 
L 254.221668 89.248298 
L 254.588836 88.911252 
L 257.893349 88.896356 
L 258.260517 88.593991 
L 258.627685 89.269073 
L 258.994853 88.893532 
L 260.096357 88.908659 
L 260.830694 88.908857 
L 261.197862 88.579805 
L 261.56503 89.234145 
L 261.932198 88.909303 
L 263.40087 88.866564 
L 263.768038 88.947006 
L 264.869543 88.922746 
L 266.705383 88.952456 
L 267.072551 88.571712 
L 267.806888 89.243195 
L 268.541224 88.625302 
L 268.908392 88.909122 
L 269.27556 88.988804 
L 270.009896 88.879495 
L 272.212905 88.947072 
L 273.314409 88.896125 
L 274.048746 88.912705 
L 275.884586 88.884581 
L 277.720427 88.909122 
L 283.962285 88.917164 
L 285.430957 88.907123 
L 285.798125 88.976105 
L 286.532461 88.886744 
L 288.001134 88.928708 
L 290.571311 88.907834 
L 294.61016 88.917792 
L 294.977328 88.682377 
L 295.344496 89.140706 
L 296.078832 88.694928 
L 296.446 89.066175 
L 297.180337 88.934191 
L 305.625203 88.922267 
L 306.359539 88.905918 
L 307.828212 88.989746 
L 308.562548 88.908907 
L 312.968565 88.940004 
L 313.702902 88.927023 
L 316.273078 88.922763 
L 323.983609 88.925504 
L 324.350777 89.000266 
L 324.717945 88.912755 
L 325.819449 88.967121 
L 326.553786 88.942217 
L 328.022458 88.910426 
L 332.795643 88.912425 
L 333.162812 89.040561 
L 333.52998 88.877298 
L 334.998652 88.962233 
L 336.100156 88.947733 
L 336.467325 89.1811 
L 336.834493 88.588442 
L 337.201661 89.024955 
L 337.568829 88.922862 
L 339.037501 88.968392 
L 340.506174 88.947815 
L 341.607678 88.9531 
L 345.279359 88.969433 
L 348.216704 88.917428 
L 350.786881 88.956518 
L 354.091394 88.950507 
L 355.192898 88.94116 
L 356.294403 88.942894 
L 356.661571 88.887669 
L 357.763075 89.037935 
L 358.130243 88.858571 
L 358.497411 89.215847 
L 358.864579 88.666506 
L 359.598916 88.972406 
L 362.169092 88.968178 
L 362.536261 89.031181 
L 362.903429 88.828266 
L 363.270597 88.974552 
L 364.739269 88.95675 
L 365.840774 88.923126 
L 366.207942 88.757419 
L 366.57511 89.146502 
L 366.942278 88.945586 
L 370.981127 88.969433 
L 371.348295 88.71093 
L 371.715463 89.162439 
L 372.082631 88.964561 
L 372.816968 88.944083 
L 373.551304 88.932704 
L 373.918472 89.095901 
L 374.28564 88.828646 
L 375.019976 88.980844 
L 378.691657 88.922911 
L 380.527498 88.965635 
L 381.99617 89.006244 
L 382.363339 89.012751 
L 382.730507 88.873054 
L 383.097675 88.972224 
L 383.832011 88.963356 
L 386.769356 88.916966 
L 387.136524 89.015476 
L 387.87086 88.927717 
L 388.972365 89.219397 
L 389.339533 88.695852 
L 389.706701 88.965354 
L 395.214222 88.978499 
L 396.315727 88.970407 
L 397.050063 88.95992 
L 400.721744 88.992405 
L 401.45608 88.956898 
L 402.924753 88.982694 
L 403.291921 88.933282 
L 404.026257 88.980712 
L 404.760593 88.953348 
L 407.33077 88.996847 
L 407.697938 88.915612 
L 408.432274 88.959656 
L 411.736787 88.830413 
L 412.103956 89.130698 
L 412.471124 88.874375 
L 412.838292 89.061386 
L 413.20546 88.833287 
L 413.572628 88.971712 
L 413.939796 89.238901 
L 414.306964 88.676696 
L 414.674132 88.982413 
L 416.142805 88.992537 
L 416.509973 89.009514 
L 416.877141 88.913597 
L 418.345813 88.980052 
L 419.08015 88.978037 
L 421.650326 88.946775 
L 422.017495 89.021553 
L 422.384663 88.896802 
L 423.118999 89.03052 
L 424.220503 88.914439 
L 424.587671 88.98717 
L 425.322008 88.956073 
L 426.056344 88.968227 
L 427.525016 88.95784 
L 428.259352 88.957625 
L 428.626521 89.278338 
L 428.993689 88.675903 
L 429.360857 88.985336 
L 430.829529 88.943224 
L 431.196697 89.020248 
L 431.931034 88.960812 
L 432.298202 88.957196 
L 432.66537 89.233782 
L 433.032538 88.677307 
L 433.399706 88.946874 
L 442.211741 88.918684 
L 442.578909 88.846598 
L 442.946077 89.065713 
L 443.680413 88.982793 
L 444.414749 88.979011 
L 446.617758 88.990753 
L 455.429793 88.875713 
L 455.796961 89.142638 
L 456.531297 88.877777 
L 456.898465 89.026722 
L 457.632801 88.96755 
L 461.671651 88.973925 
L 463.874659 88.963455 
L 464.241827 89.041073 
L 464.976164 88.958798 
L 466.812004 89.00266 
L 467.54634 88.95277 
L 469.015013 88.948228 
L 469.749349 88.978466 
L 481.131561 89.021735 
L 481.498729 88.898057 
L 482.600233 88.9603 
L 486.271914 89.020579 
L 487.00625 88.951696 
L 487.373418 89.271897 
L 487.740587 88.720889 
L 488.107755 88.980894 
L 489.209259 88.892541 
L 489.576427 89.055309 
L 490.310763 88.989482 
L 496.552621 88.980861 
L 496.919789 89.273813 
L 497.286957 88.691872 
L 497.654126 89.028142 
L 498.021294 88.903837 
L 499.122798 89.217416 
L 499.489966 88.723382 
L 499.857134 89.112565 
L 500.224302 88.679041 
L 500.59147 89.171489 
L 500.958639 88.988441 
L 501.692975 88.991678 
L 502.060143 89.008622 
L 502.427311 89.141284 
L 502.794479 88.865193 
L 503.161647 88.987219 
L 504.997488 88.990638 
L 506.46616 89.007301 
L 507.200496 88.995774 
L 538.042618 88.966047 
L 539.144122 88.981043 
L 541.714299 88.997805 
L 542.815803 88.877331 
L 543.182971 89.063929 
L 543.55014 88.960779 
L 544.651644 88.982529 
L 547.221821 88.851981 
L 547.588989 89.105662 
L 548.323325 88.898156 
L 548.690493 89.08155 
L 550.159166 88.990439 
L 551.26067 88.941243 
L 551.627838 89.041552 
L 551.995006 88.988689 
L 552.362174 89.261609 
L 552.729342 88.724505 
L 553.09651 88.97736 
L 553.463679 88.917973 
L 553.830847 89.079849 
L 554.198015 88.962414 
L 554.565183 89.053178 
L 555.299519 88.948344 
L 560.072705 89.047365 
L 560.807041 88.972835 
L 563.010049 89.003767 
L 563.744386 88.999605 
L 565.213058 88.946841 
L 565.580226 89.314984 
L 565.947394 88.713358 
L 566.314562 88.964561 
L 572.923588 88.98674 
L 586.875977 89.014121 
L 587.243145 88.898305 
L 587.610313 89.104852 
L 588.344649 88.969119 
L 589.813322 88.982413 
L 590.18049 89.005154 
L 590.547658 89.31789 
L 590.914826 88.700708 
L 591.281994 88.963768 
L 593.485003 88.996946 
L 594.219339 89.007482 
L 594.953675 88.951366 
L 595.320843 88.762836 
L 595.688011 89.225557 
L 596.05518 89.037539 
L 596.422348 88.979788 
L 596.789516 89.089907 
L 597.156684 88.875515 
L 597.89102 89.023403 
L 598.625356 89.00925 
L 599.726861 88.980167 
L 600.094029 89.261576 
L 600.461197 88.683879 
L 600.828365 88.989283 
L 603.76571 88.984511 
L 605.60155 89.006739 
L 605.968719 89.26004 
L 606.335887 88.696612 
L 606.703055 89.031924 
L 607.804559 88.952621 
L 614.413585 88.989531 
L 614.780753 88.963735 
L 615.147921 89.246564 
L 615.515089 88.801711 
L 615.882258 88.981208 
L 620.288275 88.994898 
L 621.022611 88.990225 
L 622.491284 88.990935 
L 624.694292 88.989069 
L 625.06146 89.24734 
L 625.428628 88.71098 
L 625.795797 88.98319 
L 626.162965 89.049826 
L 626.897301 88.975345 
L 627.998805 88.980877 
L 628.365973 89.256208 
L 628.733141 88.795204 
L 629.10031 88.964412 
L 632.404823 88.988606 
L 633.506327 88.977294 
L 633.873495 89.137502 
L 634.240663 88.886381 
L 634.974999 88.955775 
L 635.342167 89.017441 
L 636.076504 89.003717 
L 642.318362 88.985436 
L 643.052698 88.985452 
L 644.154202 88.97371 
L 644.52137 88.827705 
L 644.888538 89.154148 
L 645.622875 88.840421 
L 645.990043 89.126156 
L 646.357211 89.016598 
L 646.724379 89.233402 
L 647.091547 88.701368 
L 647.458715 89.014204 
L 647.825883 88.966444 
L 648.193051 89.045928 
L 649.294556 88.972637 
L 650.028892 88.986558 
L 651.497564 88.97115 
L 651.864732 89.114249 
L 652.231901 88.883029 
L 652.966237 89.029909 
L 654.434909 88.968574 
L 656.637918 88.979903 
L 658.473758 89.004295 
L 661.778271 89.033047 
L 662.14544 89.25317 
L 662.512608 88.696761 
L 662.879776 88.970424 
L 665.449953 88.998598 
L 667.285793 89.034616 
L 667.652961 88.951036 
L 668.387298 88.991133 
L 670.223138 89.00484 
L 671.691811 89.004113 
L 672.426147 89.009514 
L 673.894819 89.003684 
L 674.996324 88.992289 
L 675.363492 89.038464 
L 676.097828 88.969697 
L 678.668005 88.971365 
L 688.214376 89.010835 
L 688.581544 88.938319 
L 689.31588 89.031643 
L 690.050216 88.978219 
L 691.518889 88.982232 
L 691.886057 89.259131 
L 692.253225 88.724687 
L 692.620393 89.010191 
L 694.089065 88.970671 
L 694.456233 89.030273 
L 694.823402 88.825607 
L 695.19057 89.172149 
L 695.557738 88.995262 
L 696.659242 89.009117 
L 697.02641 89.1449 
L 697.393578 88.859231 
L 698.127915 89.007549 
L 698.862251 89.004989 
L 702.533932 89.006838 
L 705.104109 88.993148 
L 709.877294 88.995658 
L 710.244462 89.281344 
L 710.61163 88.713242 
L 710.978798 89.325223 
L 711.345967 88.733869 
L 711.713135 88.958665 
L 716.48632 89.037506 
L 718.689329 88.967847 
L 720.158001 89.009299 
L 720.892337 88.991562 
L 722.728178 88.981026 
L 727.134195 88.984758 
L 727.868532 89.069759 
L 728.2357 88.937824 
L 728.970036 89.001091 
L 730.805876 88.976831 
L 732.641717 88.999952 
L 733.008885 89.112945 
L 733.376053 88.954471 
L 734.110389 88.973132 
L 734.477558 89.179465 
L 734.844726 88.774379 
L 735.211894 88.99143 
L 736.680566 89.01062 
L 737.047734 88.94263 
L 737.414902 89.027184 
L 738.149239 88.972785 
L 738.516407 89.05014 
L 739.985079 88.993115 
L 742.188088 88.997821 
L 743.65676 88.992801 
L 744.023929 89.080824 
L 744.391097 88.949434 
L 745.492601 88.992471 
L 746.594105 89.009068 
L 746.961273 89.045615 
L 747.328442 89.266761 
L 747.69561 88.727181 
L 748.062778 88.989894 
L 751.734459 89.00522 
L 753.203131 89.025748 
L 753.937468 88.984544 
L 755.40614 88.992124 
L 756.140476 88.997557 
L 756.140476 88.997557 
" clip-path="url(#p3ae042be48)" style="fill: none; stroke: #1f77b4; stroke-width: 1.5; stroke-linecap: square"/>
   </g>
   <g id="line2d_18">
    <path d="M 84.59 89.072468 
L 789.718 89.072468 
" clip-path="url(#p3ae042be48)" style="fill: none; stroke-dasharray: 5.55,2.4; stroke-dashoffset: 0; stroke: #0000ff; stroke-width: 1.5"/>
   </g>
   <g id="line2d_19">
    <path d="M 84.59 639.64 
L 789.718 639.64 
" clip-path="url(#p3ae042be48)" style="fill: none; stroke: #000000; stroke-width: 1.5; stroke-linecap: square"/>
   </g>
   <g id="patch_3">
    <path d="M 84.59 639.64 
L 84.59 60.96 
" style="fill: none; stroke: #000000; stroke-width: 0.8; stroke-linejoin: miter; stroke-linecap: square"/>
   </g>
   <g id="patch_4">
    <path d="M 789.718 639.64 
L 789.718 60.96 
" style="fill: none; stroke: #000000; stroke-width: 0.8; stroke-linejoin: miter; stroke-linecap: square"/>
   </g>
   <g id="patch_5">
    <path d="M 84.59 639.64 
L 789.718 639.64 
" style="fill: none; stroke: #000000; stroke-width: 0.8; stroke-linejoin: miter; stroke-linecap: square"/>
   </g>
   <g id="patch_6">
    <path d="M 84.59 60.96 
L 789.718 60.96 
" style="fill: none; stroke: #000000; stroke-width: 0.8; stroke-linejoin: miter; stroke-linecap: square"/>
   </g>
   <g id="text_19">
    <!-- Interarrival Time (SelectionProcess: 16777217) -->
    <g transform="translate(239.469187 54.96) scale(0.168 -0.168)">
     <defs>
      <path id="DejaVuSans-53" d="M 3425 4513 
L 3425 3897 
Q 3066 4069 2747 4153 
Q 2428 4238 2131 4238 
Q 1616 4238 1336 4038 
Q 1056 3838 1056 3469 
Q 1056 3159 1242 3001 
Q 1428 2844 1947 2747 
L 2328 2669 
Q 3034 2534 3370 2195 
Q 3706 1856 3706 1288 
Q 3706 609 3251 259 
Q 2797 -91 1919 -91 
Q 1588 -91 1214 -16 
Q 841 59 441 206 
L 441 856 
Q 825 641 1194 531 
Q 1563 422 1919 422 
Q 2459 422 2753 634 
Q 3047 847 3047 1241 
Q 3047 1584 2836 1778 
Q 2625 1972 2144 2069 
L 1759 2144 
Q 1053 2284 737 2584 
Q 422 2884 422 3419 
Q 422 4038 858 4394 
Q 1294 4750 2059 4750 
Q 2388 4750 2728 4690 
Q 3069 4631 3425 4513 
z
" transform="scale(0.015625)"/>
      <path id="DejaVuSans-6f" d="M 1959 3097 
Q 1497 3097 1228 2736 
Q 959 2375 959 1747 
Q 959 1119 1226 758 
Q 1494 397 1959 397 
Q 2419 397 2687 759 
Q 2956 1122 2956 1747 
Q 2956 2369 2687 2733 
Q 2419 3097 1959 3097 
z
M 1959 3584 
Q 2709 3584 3137 3096 
Q 3566 2609 3566 1747 
Q 3566 888 3137 398 
Q 2709 -91 1959 -91 
Q 1206 -91 779 398 
Q 353 888 353 1747 
Q 353 2609 779 3096 
Q 1206 3584 1959 3584 
z
" transform="scale(0.015625)"/>
      <path id="DejaVuSans-3a" d="M 750 794 
L 1409 794 
L 1409 0 
L 750 0 
L 750 794 
z
M 750 3309 
L 1409 3309 
L 1409 2516 
L 750 2516 
L 750 3309 
z
" transform="scale(0.015625)"/>
      <path id="DejaVuSans-36" d="M 2113 2584 
Q 1688 2584 1439 2293 
Q 1191 2003 1191 1497 
Q 1191 994 1439 701 
Q 1688 409 2113 409 
Q 2538 409 2786 701 
Q 3034 994 3034 1497 
Q 3034 2003 2786 2293 
Q 2538 2584 2113 2584 
z
M 3366 4563 
L 3366 3988 
Q 3128 4100 2886 4159 
Q 2644 4219 2406 4219 
Q 1781 4219 1451 3797 
Q 1122 3375 1075 2522 
Q 1259 2794 1537 2939 
Q 1816 3084 2150 3084 
Q 2853 3084 3261 2657 
Q 3669 2231 3669 1497 
Q 3669 778 3244 343 
Q 2819 -91 2113 -91 
Q 1303 -91 875 529 
Q 447 1150 447 2328 
Q 447 3434 972 4092 
Q 1497 4750 2381 4750 
Q 2619 4750 2861 4703 
Q 3103 4656 3366 4563 
z
" transform="scale(0.015625)"/>
     </defs>
     <use xlink:href="#DejaVuSans-49"/>
     <use xlink:href="#DejaVuSans-6e" x="29.492188"/>
     <use xlink:href="#DejaVuSans-74" x="92.871094"/>
     <use xlink:href="#DejaVuSans-65" x="132.080078"/>
     <use xlink:href="#DejaVuSans-72" x="193.603516"/>
     <use xlink:href="#DejaVuSans-61" x="234.716797"/>
     <use xlink:href="#DejaVuSans-72" x="295.996094"/>
     <use xlink:href="#DejaVuSans-72" x="335.359375"/>
     <use xlink:href="#DejaVuSans-69" x="376.472656"/>
     <use xlink:href="#DejaVuSans-76" x="404.255859"/>
     <use xlink:href="#DejaVuSans-61" x="463.435547"/>
     <use xlink:href="#DejaVuSans-6c" x="524.714844"/>
     <use xlink:href="#DejaVuSans-20" x="552.498047"/>
     <use xlink:href="#DejaVuSans-54" x="584.285156"/>
     <use xlink:href="#DejaVuSans-69" x="642.244141"/>
     <use xlink:href="#DejaVuSans-6d" x="670.027344"/>
     <use xlink:href="#DejaVuSans-65" x="767.439453"/>
     <use xlink:href="#DejaVuSans-20" x="828.962891"/>
     <use xlink:href="#DejaVuSans-28" x="860.75"/>
     <use xlink:href="#DejaVuSans-53" x="899.763672"/>
     <use xlink:href="#DejaVuSans-65" x="963.240234"/>
     <use xlink:href="#DejaVuSans-6c" x="1024.763672"/>
     <use xlink:href="#DejaVuSans-65" x="1052.546875"/>
     <use xlink:href="#DejaVuSans-63" x="1114.070312"/>
     <use xlink:href="#DejaVuSans-74" x="1169.050781"/>
     <use xlink:href="#DejaVuSans-69" x="1208.259766"/>
     <use xlink:href="#DejaVuSans-6f" x="1236.042969"/>
     <use xlink:href="#DejaVuSans-6e" x="1297.224609"/>
     <use xlink:href="#DejaVuSans-50" x="1360.603516"/>
     <use xlink:href="#DejaVuSans-72" x="1419.15625"/>
     <use xlink:href="#DejaVuSans-6f" x="1458.019531"/>
     <use xlink:href="#DejaVuSans-63" x="1519.201172"/>
     <use xlink:href="#DejaVuSans-65" x="1574.181641"/>
     <use xlink:href="#DejaVuSans-73" x="1635.705078"/>
     <use xlink:href="#DejaVuSans-73" x="1687.804688"/>
     <use xlink:href="#DejaVuSans-3a" x="1739.904297"/>
     <use xlink:href="#DejaVuSans-20" x="1773.595703"/>
     <use xlink:href="#DejaVuSans-31" x="1805.382812"/>
     <use xlink:href="#DejaVuSans-36" x="1869.005859"/>
     <use xlink:href="#DejaVuSans-37" x="1932.628906"/>
     <use xlink:href="#DejaVuSans-37" x="1996.251953"/>
     <use xlink:href="#DejaVuSans-37" x="2059.875"/>
     <use xlink:href="#DejaVuSans-32" x="2123.498047"/>
     <use xlink:href="#DejaVuSans-31" x="2187.121094"/>
     <use xlink:href="#DejaVuSans-37" x="2250.744141"/>
     <use xlink:href="#DejaVuSans-29" x="2314.367188"/>
    </g>
   </g>
   <g id="legend_1">
    <g id="patch_7">
     <path d="M 799.518 372.949375 
L 1022.312688 372.949375 
Q 1025.112687 372.949375 1025.112687 370.149375 
L 1025.112687 330.450625 
Q 1025.112687 327.650625 1022.312688 327.650625 
L 799.518 327.650625 
Q 796.718 327.650625 796.718 330.450625 
L 796.718 370.149375 
Q 796.718 372.949375 799.518 372.949375 
z
" style="fill: #ffffff; opacity: 0.8; stroke: #cccccc; stroke-linejoin: miter"/>
    </g>
    <g id="line2d_20">
     <path d="M 802.318 338.988438 
L 816.318 338.988438 
L 830.318 338.988438 
" style="fill: none; stroke: #1f77b4; stroke-width: 1.5; stroke-linecap: square"/>
    </g>
    <g id="text_20">
     <!-- Interarrival Times -->
     <g transform="translate(841.518 343.888438) scale(0.14 -0.14)">
      <use xlink:href="#DejaVuSans-49"/>
      <use xlink:href="#DejaVuSans-6e" x="29.492188"/>
      <use xlink:href="#DejaVuSans-74" x="92.871094"/>
      <use xlink:href="#DejaVuSans-65" x="132.080078"/>
      <use xlink:href="#DejaVuSans-72" x="193.603516"/>
      <use xlink:href="#DejaVuSans-61" x="234.716797"/>
      <use xlink:href="#DejaVuSans-72" x="295.996094"/>
      <use xlink:href="#DejaVuSans-72" x="335.359375"/>
      <use xlink:href="#DejaVuSans-69" x="376.472656"/>
      <use xlink:href="#DejaVuSans-76" x="404.255859"/>
      <use xlink:href="#DejaVuSans-61" x="463.435547"/>
      <use xlink:href="#DejaVuSans-6c" x="524.714844"/>
      <use xlink:href="#DejaVuSans-20" x="552.498047"/>
      <use xlink:href="#DejaVuSans-54" x="584.285156"/>
      <use xlink:href="#DejaVuSans-69" x="642.244141"/>
      <use xlink:href="#DejaVuSans-6d" x="670.027344"/>
      <use xlink:href="#DejaVuSans-65" x="767.439453"/>
      <use xlink:href="#DejaVuSans-73" x="828.962891"/>
     </g>
    </g>
    <g id="line2d_21">
     <path d="M 802.318 359.537813 
L 816.318 359.537813 
L 830.318 359.537813 
" style="fill: none; stroke-dasharray: 5.55,2.4; stroke-dashoffset: 0; stroke: #0000ff; stroke-width: 1.5"/>
    </g>
    <g id="text_21">
     <!-- Interarrival Time Average -->
     <g transform="translate(841.518 364.437813) scale(0.14 -0.14)">
      <defs>
       <path id="DejaVuSans-41" d="M 2188 4044 
L 1331 1722 
L 3047 1722 
L 2188 4044 
z
M 1831 4666 
L 2547 4666 
L 4325 0 
L 3669 0 
L 3244 1197 
L 1141 1197 
L 716 0 
L 50 0 
L 1831 4666 
z
" transform="scale(0.015625)"/>
       <path id="DejaVuSans-67" d="M 2906 1791 
Q 2906 2416 2648 2759 
Q 2391 3103 1925 3103 
Q 1463 3103 1205 2759 
Q 947 2416 947 1791 
Q 947 1169 1205 825 
Q 1463 481 1925 481 
Q 2391 481 2648 825 
Q 2906 1169 2906 1791 
z
M 3481 434 
Q 3481 -459 3084 -895 
Q 2688 -1331 1869 -1331 
Q 1566 -1331 1297 -1286 
Q 1028 -1241 775 -1147 
L 775 -588 
Q 1028 -725 1275 -790 
Q 1522 -856 1778 -856 
Q 2344 -856 2625 -561 
Q 2906 -266 2906 331 
L 2906 616 
Q 2728 306 2450 153 
Q 2172 0 1784 0 
Q 1141 0 747 490 
Q 353 981 353 1791 
Q 353 2603 747 3093 
Q 1141 3584 1784 3584 
Q 2172 3584 2450 3431 
Q 2728 3278 2906 2969 
L 2906 3500 
L 3481 3500 
L 3481 434 
z
" transform="scale(0.015625)"/>
      </defs>
      <use xlink:href="#DejaVuSans-49"/>
      <use xlink:href="#DejaVuSans-6e" x="29.492188"/>
      <use xlink:href="#DejaVuSans-74" x="92.871094"/>
      <use xlink:href="#DejaVuSans-65" x="132.080078"/>
      <use xlink:href="#DejaVuSans-72" x="193.603516"/>
      <use xlink:href="#DejaVuSans-61" x="234.716797"/>
      <use xlink:href="#DejaVuSans-72" x="295.996094"/>
      <use xlink:href="#DejaVuSans-72" x="335.359375"/>
      <use xlink:href="#DejaVuSans-69" x="376.472656"/>
      <use xlink:href="#DejaVuSans-76" x="404.255859"/>
      <use xlink:href="#DejaVuSans-61" x="463.435547"/>
      <use xlink:href="#DejaVuSans-6c" x="524.714844"/>
      <use xlink:href="#DejaVuSans-20" x="552.498047"/>
      <use xlink:href="#DejaVuSans-54" x="584.285156"/>
      <use xlink:href="#DejaVuSans-69" x="642.244141"/>
      <use xlink:href="#DejaVuSans-6d" x="670.027344"/>
      <use xlink:href="#DejaVuSans-65" x="767.439453"/>
      <use xlink:href="#DejaVuSans-20" x="828.962891"/>
      <use xlink:href="#DejaVuSans-41" x="860.75"/>
      <use xlink:href="#DejaVuSans-76" x="923.283203"/>
      <use xlink:href="#DejaVuSans-65" x="982.462891"/>
      <use xlink:href="#DejaVuSans-72" x="1043.986328"/>
      <use xlink:href="#DejaVuSans-61" x="1085.099609"/>
      <use xlink:href="#DejaVuSans-67" x="1146.378906"/>
      <use xlink:href="#DejaVuSans-65" x="1209.855469"/>
     </g>
    </g>
   </g>
  </g>
 </g>
 <defs>
  <clipPath id="p3ae042be48">
   <rect x="84.59" y="60.96" width="705.128" height="578.68"/>
  </clipPath>
 </defs>
</svg>
