<?xml version="1.0" encoding="utf-8" standalone="no"?>
<!DOCTYPE svg PUBLIC "-//W3C//DTD SVG 1.1//EN"
  "http://www.w3.org/Graphics/SVG/1.1/DTD/svg11.dtd">
<svg xmlns:xlink="http://www.w3.org/1999/xlink" width="1008pt" height="720pt" viewBox="0 0 1008 720" xmlns="http://www.w3.org/2000/svg" version="1.1">
 <metadata>
  <rdf:RDF xmlns:dc="http://purl.org/dc/elements/1.1/" xmlns:cc="http://creativecommons.org/ns#" xmlns:rdf="http://www.w3.org/1999/02/22-rdf-syntax-ns#">
   <cc:Work>
    <dc:type rdf:resource="http://purl.org/dc/dcmitype/StillImage"/>
    <dc:date>2023-04-13T17:46:50.794125</dc:date>
    <dc:format>image/svg+xml</dc:format>
    <dc:creator>
     <cc:Agent>
      <dc:title>Matplotlib v3.6.2, https://matplotlib.org/</dc:title>
     </cc:Agent>
    </dc:creator>
   </cc:Work>
  </rdf:RDF>
 </metadata>
 <defs>
  <style type="text/css">*{stroke-linejoin: round; stroke-linecap: butt}</style>
 </defs>
 <g id="figure_1">
  <g id="patch_1">
   <path d="M 0 720 
L 1008 720 
L 1008 0 
L 0 0 
z
" style="fill: #ffffff"/>
  </g>
  <g id="axes_1">
   <g id="patch_2">
    <path d="M 93.23 639.64 
L 791.446 639.64 
L 791.446 60.96 
L 93.23 60.96 
z
" style="fill: #ffffff"/>
   </g>
   <g id="matplotlib.axis_1">
    <g id="xtick_1">
     <g id="line2d_1">
      <defs>
       <path id="m506e81b6c5" d="M 0 0 
L 0 3.5 
" style="stroke: #000000; stroke-width: 0.8"/>
      </defs>
      <g>
       <use xlink:href="#m506e81b6c5" x="93.23" y="639.64" style="stroke: #000000; stroke-width: 0.8"/>
      </g>
     </g>
     <g id="text_1">
      <!-- 0 -->
      <g transform="translate(88.77625 657.277812) scale(0.14 -0.14)">
       <defs>
        <path id="DejaVuSans-30" d="M 2034 4250 
Q 1547 4250 1301 3770 
Q 1056 3291 1056 2328 
Q 1056 1369 1301 889 
Q 1547 409 2034 409 
Q 2525 409 2770 889 
Q 3016 1369 3016 2328 
Q 3016 3291 2770 3770 
Q 2525 4250 2034 4250 
z
M 2034 4750 
Q 2819 4750 3233 4129 
Q 3647 3509 3647 2328 
Q 3647 1150 3233 529 
Q 2819 -91 2034 -91 
Q 1250 -91 836 529 
Q 422 1150 422 2328 
Q 422 3509 836 4129 
Q 1250 4750 2034 4750 
z
" transform="scale(0.015625)"/>
       </defs>
       <use xlink:href="#DejaVuSans-30"/>
      </g>
     </g>
    </g>
    <g id="xtick_2">
     <g id="line2d_2">
      <g>
       <use xlink:href="#m506e81b6c5" x="200.123955" y="639.64" style="stroke: #000000; stroke-width: 0.8"/>
      </g>
     </g>
     <g id="text_2">
      <!-- 10 -->
      <g transform="translate(191.216455 657.277812) scale(0.14 -0.14)">
       <defs>
        <path id="DejaVuSans-31" d="M 794 531 
L 1825 531 
L 1825 4091 
L 703 3866 
L 703 4441 
L 1819 4666 
L 2450 4666 
L 2450 531 
L 3481 531 
L 3481 0 
L 794 0 
L 794 531 
z
" transform="scale(0.015625)"/>
       </defs>
       <use xlink:href="#DejaVuSans-31"/>
       <use xlink:href="#DejaVuSans-30" x="63.623047"/>
      </g>
     </g>
    </g>
    <g id="xtick_3">
     <g id="line2d_3">
      <g>
       <use xlink:href="#m506e81b6c5" x="307.01791" y="639.64" style="stroke: #000000; stroke-width: 0.8"/>
      </g>
     </g>
     <g id="text_3">
      <!-- 20 -->
      <g transform="translate(298.11041 657.277812) scale(0.14 -0.14)">
       <defs>
        <path id="DejaVuSans-32" d="M 1228 531 
L 3431 531 
L 3431 0 
L 469 0 
L 469 531 
Q 828 903 1448 1529 
Q 2069 2156 2228 2338 
Q 2531 2678 2651 2914 
Q 2772 3150 2772 3378 
Q 2772 3750 2511 3984 
Q 2250 4219 1831 4219 
Q 1534 4219 1204 4116 
Q 875 4013 500 3803 
L 500 4441 
Q 881 4594 1212 4672 
Q 1544 4750 1819 4750 
Q 2544 4750 2975 4387 
Q 3406 4025 3406 3419 
Q 3406 3131 3298 2873 
Q 3191 2616 2906 2266 
Q 2828 2175 2409 1742 
Q 1991 1309 1228 531 
z
" transform="scale(0.015625)"/>
       </defs>
       <use xlink:href="#DejaVuSans-32"/>
       <use xlink:href="#DejaVuSans-30" x="63.623047"/>
      </g>
     </g>
    </g>
    <g id="xtick_4">
     <g id="line2d_4">
      <g>
       <use xlink:href="#m506e81b6c5" x="413.911865" y="639.64" style="stroke: #000000; stroke-width: 0.8"/>
      </g>
     </g>
     <g id="text_4">
      <!-- 30 -->
      <g transform="translate(405.004365 657.277812) scale(0.14 -0.14)">
       <defs>
        <path id="DejaVuSans-33" d="M 2597 2516 
Q 3050 2419 3304 2112 
Q 3559 1806 3559 1356 
Q 3559 666 3084 287 
Q 2609 -91 1734 -91 
Q 1441 -91 1130 -33 
Q 819 25 488 141 
L 488 750 
Q 750 597 1062 519 
Q 1375 441 1716 441 
Q 2309 441 2620 675 
Q 2931 909 2931 1356 
Q 2931 1769 2642 2001 
Q 2353 2234 1838 2234 
L 1294 2234 
L 1294 2753 
L 1863 2753 
Q 2328 2753 2575 2939 
Q 2822 3125 2822 3475 
Q 2822 3834 2567 4026 
Q 2313 4219 1838 4219 
Q 1578 4219 1281 4162 
Q 984 4106 628 3988 
L 628 4550 
Q 988 4650 1302 4700 
Q 1616 4750 1894 4750 
Q 2613 4750 3031 4423 
Q 3450 4097 3450 3541 
Q 3450 3153 3228 2886 
Q 3006 2619 2597 2516 
z
" transform="scale(0.015625)"/>
       </defs>
       <use xlink:href="#DejaVuSans-33"/>
       <use xlink:href="#DejaVuSans-30" x="63.623047"/>
      </g>
     </g>
    </g>
    <g id="xtick_5">
     <g id="line2d_5">
      <g>
       <use xlink:href="#m506e81b6c5" x="520.80582" y="639.64" style="stroke: #000000; stroke-width: 0.8"/>
      </g>
     </g>
     <g id="text_5">
      <!-- 40 -->
      <g transform="translate(511.89832 657.277812) scale(0.14 -0.14)">
       <defs>
        <path id="DejaVuSans-34" d="M 2419 4116 
L 825 1625 
L 2419 1625 
L 2419 4116 
z
M 2253 4666 
L 3047 4666 
L 3047 1625 
L 3713 1625 
L 3713 1100 
L 3047 1100 
L 3047 0 
L 2419 0 
L 2419 1100 
L 313 1100 
L 313 1709 
L 2253 4666 
z
" transform="scale(0.015625)"/>
       </defs>
       <use xlink:href="#DejaVuSans-34"/>
       <use xlink:href="#DejaVuSans-30" x="63.623047"/>
      </g>
     </g>
    </g>
    <g id="xtick_6">
     <g id="line2d_6">
      <g>
       <use xlink:href="#m506e81b6c5" x="627.699776" y="639.64" style="stroke: #000000; stroke-width: 0.8"/>
      </g>
     </g>
     <g id="text_6">
      <!-- 50 -->
      <g transform="translate(618.792276 657.277812) scale(0.14 -0.14)">
       <defs>
        <path id="DejaVuSans-35" d="M 691 4666 
L 3169 4666 
L 3169 4134 
L 1269 4134 
L 1269 2991 
Q 1406 3038 1543 3061 
Q 1681 3084 1819 3084 
Q 2600 3084 3056 2656 
Q 3513 2228 3513 1497 
Q 3513 744 3044 326 
Q 2575 -91 1722 -91 
Q 1428 -91 1123 -41 
Q 819 9 494 109 
L 494 744 
Q 775 591 1075 516 
Q 1375 441 1709 441 
Q 2250 441 2565 725 
Q 2881 1009 2881 1497 
Q 2881 1984 2565 2268 
Q 2250 2553 1709 2553 
Q 1456 2553 1204 2497 
Q 953 2441 691 2322 
L 691 4666 
z
" transform="scale(0.015625)"/>
       </defs>
       <use xlink:href="#DejaVuSans-35"/>
       <use xlink:href="#DejaVuSans-30" x="63.623047"/>
      </g>
     </g>
    </g>
    <g id="xtick_7">
     <g id="line2d_7">
      <g>
       <use xlink:href="#m506e81b6c5" x="734.593731" y="639.64" style="stroke: #000000; stroke-width: 0.8"/>
      </g>
     </g>
     <g id="text_7">
      <!-- 60 -->
      <g transform="translate(725.686231 657.277812) scale(0.14 -0.14)">
       <defs>
        <path id="DejaVuSans-36" d="M 2113 2584 
Q 1688 2584 1439 2293 
Q 1191 2003 1191 1497 
Q 1191 994 1439 701 
Q 1688 409 2113 409 
Q 2538 409 2786 701 
Q 3034 994 3034 1497 
Q 3034 2003 2786 2293 
Q 2538 2584 2113 2584 
z
M 3366 4563 
L 3366 3988 
Q 3128 4100 2886 4159 
Q 2644 4219 2406 4219 
Q 1781 4219 1451 3797 
Q 1122 3375 1075 2522 
Q 1259 2794 1537 2939 
Q 1816 3084 2150 3084 
Q 2853 3084 3261 2657 
Q 3669 2231 3669 1497 
Q 3669 778 3244 343 
Q 2819 -91 2113 -91 
Q 1303 -91 875 529 
Q 447 1150 447 2328 
Q 447 3434 972 4092 
Q 1497 4750 2381 4750 
Q 2619 4750 2861 4703 
Q 3103 4656 3366 4563 
z
" transform="scale(0.015625)"/>
       </defs>
       <use xlink:href="#DejaVuSans-36"/>
       <use xlink:href="#DejaVuSans-30" x="63.623047"/>
      </g>
     </g>
    </g>
    <g id="text_8">
     <!-- Time (s) -->
     <g transform="translate(413.877531 674.827188) scale(0.14 -0.14)">
      <defs>
       <path id="DejaVuSans-54" d="M -19 4666 
L 3928 4666 
L 3928 4134 
L 2272 4134 
L 2272 0 
L 1638 0 
L 1638 4134 
L -19 4134 
L -19 4666 
z
" transform="scale(0.015625)"/>
       <path id="DejaVuSans-69" d="M 603 3500 
L 1178 3500 
L 1178 0 
L 603 0 
L 603 3500 
z
M 603 4863 
L 1178 4863 
L 1178 4134 
L 603 4134 
L 603 4863 
z
" transform="scale(0.015625)"/>
       <path id="DejaVuSans-6d" d="M 3328 2828 
Q 3544 3216 3844 3400 
Q 4144 3584 4550 3584 
Q 5097 3584 5394 3201 
Q 5691 2819 5691 2113 
L 5691 0 
L 5113 0 
L 5113 2094 
Q 5113 2597 4934 2840 
Q 4756 3084 4391 3084 
Q 3944 3084 3684 2787 
Q 3425 2491 3425 1978 
L 3425 0 
L 2847 0 
L 2847 2094 
Q 2847 2600 2669 2842 
Q 2491 3084 2119 3084 
Q 1678 3084 1418 2786 
Q 1159 2488 1159 1978 
L 1159 0 
L 581 0 
L 581 3500 
L 1159 3500 
L 1159 2956 
Q 1356 3278 1631 3431 
Q 1906 3584 2284 3584 
Q 2666 3584 2933 3390 
Q 3200 3197 3328 2828 
z
" transform="scale(0.015625)"/>
       <path id="DejaVuSans-65" d="M 3597 1894 
L 3597 1613 
L 953 1613 
Q 991 1019 1311 708 
Q 1631 397 2203 397 
Q 2534 397 2845 478 
Q 3156 559 3463 722 
L 3463 178 
Q 3153 47 2828 -22 
Q 2503 -91 2169 -91 
Q 1331 -91 842 396 
Q 353 884 353 1716 
Q 353 2575 817 3079 
Q 1281 3584 2069 3584 
Q 2775 3584 3186 3129 
Q 3597 2675 3597 1894 
z
M 3022 2063 
Q 3016 2534 2758 2815 
Q 2500 3097 2075 3097 
Q 1594 3097 1305 2825 
Q 1016 2553 972 2059 
L 3022 2063 
z
" transform="scale(0.015625)"/>
       <path id="DejaVuSans-20" transform="scale(0.015625)"/>
       <path id="DejaVuSans-28" d="M 1984 4856 
Q 1566 4138 1362 3434 
Q 1159 2731 1159 2009 
Q 1159 1288 1364 580 
Q 1569 -128 1984 -844 
L 1484 -844 
Q 1016 -109 783 600 
Q 550 1309 550 2009 
Q 550 2706 781 3412 
Q 1013 4119 1484 4856 
L 1984 4856 
z
" transform="scale(0.015625)"/>
       <path id="DejaVuSans-73" d="M 2834 3397 
L 2834 2853 
Q 2591 2978 2328 3040 
Q 2066 3103 1784 3103 
Q 1356 3103 1142 2972 
Q 928 2841 928 2578 
Q 928 2378 1081 2264 
Q 1234 2150 1697 2047 
L 1894 2003 
Q 2506 1872 2764 1633 
Q 3022 1394 3022 966 
Q 3022 478 2636 193 
Q 2250 -91 1575 -91 
Q 1294 -91 989 -36 
Q 684 19 347 128 
L 347 722 
Q 666 556 975 473 
Q 1284 391 1588 391 
Q 1994 391 2212 530 
Q 2431 669 2431 922 
Q 2431 1156 2273 1281 
Q 2116 1406 1581 1522 
L 1381 1569 
Q 847 1681 609 1914 
Q 372 2147 372 2553 
Q 372 3047 722 3315 
Q 1072 3584 1716 3584 
Q 2034 3584 2315 3537 
Q 2597 3491 2834 3397 
z
" transform="scale(0.015625)"/>
       <path id="DejaVuSans-29" d="M 513 4856 
L 1013 4856 
Q 1481 4119 1714 3412 
Q 1947 2706 1947 2009 
Q 1947 1309 1714 600 
Q 1481 -109 1013 -844 
L 513 -844 
Q 928 -128 1133 580 
Q 1338 1288 1338 2009 
Q 1338 2731 1133 3434 
Q 928 4138 513 4856 
z
" transform="scale(0.015625)"/>
      </defs>
      <use xlink:href="#DejaVuSans-54"/>
      <use xlink:href="#DejaVuSans-69" x="57.958984"/>
      <use xlink:href="#DejaVuSans-6d" x="85.742188"/>
      <use xlink:href="#DejaVuSans-65" x="183.154297"/>
      <use xlink:href="#DejaVuSans-20" x="244.677734"/>
      <use xlink:href="#DejaVuSans-28" x="276.464844"/>
      <use xlink:href="#DejaVuSans-73" x="315.478516"/>
      <use xlink:href="#DejaVuSans-29" x="367.578125"/>
     </g>
    </g>
   </g>
   <g id="matplotlib.axis_2">
    <g id="ytick_1">
     <g id="line2d_8">
      <defs>
       <path id="m6feba06e70" d="M 0 0 
L -3.5 0 
" style="stroke: #000000; stroke-width: 0.8"/>
      </defs>
      <g>
       <use xlink:href="#m6feba06e70" x="93.23" y="639.64" style="stroke: #000000; stroke-width: 0.8"/>
      </g>
     </g>
     <g id="text_9">
      <!-- 0 -->
      <g transform="translate(77.3225 644.958906) scale(0.14 -0.14)">
       <use xlink:href="#DejaVuSans-30"/>
      </g>
     </g>
    </g>
    <g id="ytick_2">
     <g id="line2d_9">
      <g>
       <use xlink:href="#m6feba06e70" x="93.23" y="536.903785" style="stroke: #000000; stroke-width: 0.8"/>
      </g>
     </g>
     <g id="text_10">
      <!-- 20 -->
      <g transform="translate(68.415 542.222691) scale(0.14 -0.14)">
       <use xlink:href="#DejaVuSans-32"/>
       <use xlink:href="#DejaVuSans-30" x="63.623047"/>
      </g>
     </g>
    </g>
    <g id="ytick_3">
     <g id="line2d_10">
      <g>
       <use xlink:href="#m6feba06e70" x="93.23" y="434.167569" style="stroke: #000000; stroke-width: 0.8"/>
      </g>
     </g>
     <g id="text_11">
      <!-- 40 -->
      <g transform="translate(68.415 439.486476) scale(0.14 -0.14)">
       <use xlink:href="#DejaVuSans-34"/>
       <use xlink:href="#DejaVuSans-30" x="63.623047"/>
      </g>
     </g>
    </g>
    <g id="ytick_4">
     <g id="line2d_11">
      <g>
       <use xlink:href="#m6feba06e70" x="93.23" y="331.431354" style="stroke: #000000; stroke-width: 0.8"/>
      </g>
     </g>
     <g id="text_12">
      <!-- 60 -->
      <g transform="translate(68.415 336.75026) scale(0.14 -0.14)">
       <use xlink:href="#DejaVuSans-36"/>
       <use xlink:href="#DejaVuSans-30" x="63.623047"/>
      </g>
     </g>
    </g>
    <g id="ytick_5">
     <g id="line2d_12">
      <g>
       <use xlink:href="#m6feba06e70" x="93.23" y="228.695139" style="stroke: #000000; stroke-width: 0.8"/>
      </g>
     </g>
     <g id="text_13">
      <!-- 80 -->
      <g transform="translate(68.415 234.014045) scale(0.14 -0.14)">
       <defs>
        <path id="DejaVuSans-38" d="M 2034 2216 
Q 1584 2216 1326 1975 
Q 1069 1734 1069 1313 
Q 1069 891 1326 650 
Q 1584 409 2034 409 
Q 2484 409 2743 651 
Q 3003 894 3003 1313 
Q 3003 1734 2745 1975 
Q 2488 2216 2034 2216 
z
M 1403 2484 
Q 997 2584 770 2862 
Q 544 3141 544 3541 
Q 544 4100 942 4425 
Q 1341 4750 2034 4750 
Q 2731 4750 3128 4425 
Q 3525 4100 3525 3541 
Q 3525 3141 3298 2862 
Q 3072 2584 2669 2484 
Q 3125 2378 3379 2068 
Q 3634 1759 3634 1313 
Q 3634 634 3220 271 
Q 2806 -91 2034 -91 
Q 1263 -91 848 271 
Q 434 634 434 1313 
Q 434 1759 690 2068 
Q 947 2378 1403 2484 
z
M 1172 3481 
Q 1172 3119 1398 2916 
Q 1625 2713 2034 2713 
Q 2441 2713 2670 2916 
Q 2900 3119 2900 3481 
Q 2900 3844 2670 4047 
Q 2441 4250 2034 4250 
Q 1625 4250 1398 4047 
Q 1172 3844 1172 3481 
z
" transform="scale(0.015625)"/>
       </defs>
       <use xlink:href="#DejaVuSans-38"/>
       <use xlink:href="#DejaVuSans-30" x="63.623047"/>
      </g>
     </g>
    </g>
    <g id="ytick_6">
     <g id="line2d_13">
      <g>
       <use xlink:href="#m6feba06e70" x="93.23" y="125.958924" style="stroke: #000000; stroke-width: 0.8"/>
      </g>
     </g>
     <g id="text_14">
      <!-- 100 -->
      <g transform="translate(59.5075 131.27783) scale(0.14 -0.14)">
       <use xlink:href="#DejaVuSans-31"/>
       <use xlink:href="#DejaVuSans-30" x="63.623047"/>
       <use xlink:href="#DejaVuSans-30" x="127.246094"/>
      </g>
     </g>
    </g>
    <g id="text_15">
     <!-- Packets per Second -->
     <g transform="translate(52.595938 418.683438) rotate(-90) scale(0.14 -0.14)">
      <defs>
       <path id="DejaVuSans-50" d="M 1259 4147 
L 1259 2394 
L 2053 2394 
Q 2494 2394 2734 2622 
Q 2975 2850 2975 3272 
Q 2975 3691 2734 3919 
Q 2494 4147 2053 4147 
L 1259 4147 
z
M 628 4666 
L 2053 4666 
Q 2838 4666 3239 4311 
Q 3641 3956 3641 3272 
Q 3641 2581 3239 2228 
Q 2838 1875 2053 1875 
L 1259 1875 
L 1259 0 
L 628 0 
L 628 4666 
z
" transform="scale(0.015625)"/>
       <path id="DejaVuSans-61" d="M 2194 1759 
Q 1497 1759 1228 1600 
Q 959 1441 959 1056 
Q 959 750 1161 570 
Q 1363 391 1709 391 
Q 2188 391 2477 730 
Q 2766 1069 2766 1631 
L 2766 1759 
L 2194 1759 
z
M 3341 1997 
L 3341 0 
L 2766 0 
L 2766 531 
Q 2569 213 2275 61 
Q 1981 -91 1556 -91 
Q 1019 -91 701 211 
Q 384 513 384 1019 
Q 384 1609 779 1909 
Q 1175 2209 1959 2209 
L 2766 2209 
L 2766 2266 
Q 2766 2663 2505 2880 
Q 2244 3097 1772 3097 
Q 1472 3097 1187 3025 
Q 903 2953 641 2809 
L 641 3341 
Q 956 3463 1253 3523 
Q 1550 3584 1831 3584 
Q 2591 3584 2966 3190 
Q 3341 2797 3341 1997 
z
" transform="scale(0.015625)"/>
       <path id="DejaVuSans-63" d="M 3122 3366 
L 3122 2828 
Q 2878 2963 2633 3030 
Q 2388 3097 2138 3097 
Q 1578 3097 1268 2742 
Q 959 2388 959 1747 
Q 959 1106 1268 751 
Q 1578 397 2138 397 
Q 2388 397 2633 464 
Q 2878 531 3122 666 
L 3122 134 
Q 2881 22 2623 -34 
Q 2366 -91 2075 -91 
Q 1284 -91 818 406 
Q 353 903 353 1747 
Q 353 2603 823 3093 
Q 1294 3584 2113 3584 
Q 2378 3584 2631 3529 
Q 2884 3475 3122 3366 
z
" transform="scale(0.015625)"/>
       <path id="DejaVuSans-6b" d="M 581 4863 
L 1159 4863 
L 1159 1991 
L 2875 3500 
L 3609 3500 
L 1753 1863 
L 3688 0 
L 2938 0 
L 1159 1709 
L 1159 0 
L 581 0 
L 581 4863 
z
" transform="scale(0.015625)"/>
       <path id="DejaVuSans-74" d="M 1172 4494 
L 1172 3500 
L 2356 3500 
L 2356 3053 
L 1172 3053 
L 1172 1153 
Q 1172 725 1289 603 
Q 1406 481 1766 481 
L 2356 481 
L 2356 0 
L 1766 0 
Q 1100 0 847 248 
Q 594 497 594 1153 
L 594 3053 
L 172 3053 
L 172 3500 
L 594 3500 
L 594 4494 
L 1172 4494 
z
" transform="scale(0.015625)"/>
       <path id="DejaVuSans-70" d="M 1159 525 
L 1159 -1331 
L 581 -1331 
L 581 3500 
L 1159 3500 
L 1159 2969 
Q 1341 3281 1617 3432 
Q 1894 3584 2278 3584 
Q 2916 3584 3314 3078 
Q 3713 2572 3713 1747 
Q 3713 922 3314 415 
Q 2916 -91 2278 -91 
Q 1894 -91 1617 61 
Q 1341 213 1159 525 
z
M 3116 1747 
Q 3116 2381 2855 2742 
Q 2594 3103 2138 3103 
Q 1681 3103 1420 2742 
Q 1159 2381 1159 1747 
Q 1159 1113 1420 752 
Q 1681 391 2138 391 
Q 2594 391 2855 752 
Q 3116 1113 3116 1747 
z
" transform="scale(0.015625)"/>
       <path id="DejaVuSans-72" d="M 2631 2963 
Q 2534 3019 2420 3045 
Q 2306 3072 2169 3072 
Q 1681 3072 1420 2755 
Q 1159 2438 1159 1844 
L 1159 0 
L 581 0 
L 581 3500 
L 1159 3500 
L 1159 2956 
Q 1341 3275 1631 3429 
Q 1922 3584 2338 3584 
Q 2397 3584 2469 3576 
Q 2541 3569 2628 3553 
L 2631 2963 
z
" transform="scale(0.015625)"/>
       <path id="DejaVuSans-53" d="M 3425 4513 
L 3425 3897 
Q 3066 4069 2747 4153 
Q 2428 4238 2131 4238 
Q 1616 4238 1336 4038 
Q 1056 3838 1056 3469 
Q 1056 3159 1242 3001 
Q 1428 2844 1947 2747 
L 2328 2669 
Q 3034 2534 3370 2195 
Q 3706 1856 3706 1288 
Q 3706 609 3251 259 
Q 2797 -91 1919 -91 
Q 1588 -91 1214 -16 
Q 841 59 441 206 
L 441 856 
Q 825 641 1194 531 
Q 1563 422 1919 422 
Q 2459 422 2753 634 
Q 3047 847 3047 1241 
Q 3047 1584 2836 1778 
Q 2625 1972 2144 2069 
L 1759 2144 
Q 1053 2284 737 2584 
Q 422 2884 422 3419 
Q 422 4038 858 4394 
Q 1294 4750 2059 4750 
Q 2388 4750 2728 4690 
Q 3069 4631 3425 4513 
z
" transform="scale(0.015625)"/>
       <path id="DejaVuSans-6f" d="M 1959 3097 
Q 1497 3097 1228 2736 
Q 959 2375 959 1747 
Q 959 1119 1226 758 
Q 1494 397 1959 397 
Q 2419 397 2687 759 
Q 2956 1122 2956 1747 
Q 2956 2369 2687 2733 
Q 2419 3097 1959 3097 
z
M 1959 3584 
Q 2709 3584 3137 3096 
Q 3566 2609 3566 1747 
Q 3566 888 3137 398 
Q 2709 -91 1959 -91 
Q 1206 -91 779 398 
Q 353 888 353 1747 
Q 353 2609 779 3096 
Q 1206 3584 1959 3584 
z
" transform="scale(0.015625)"/>
       <path id="DejaVuSans-6e" d="M 3513 2113 
L 3513 0 
L 2938 0 
L 2938 2094 
Q 2938 2591 2744 2837 
Q 2550 3084 2163 3084 
Q 1697 3084 1428 2787 
Q 1159 2491 1159 1978 
L 1159 0 
L 581 0 
L 581 3500 
L 1159 3500 
L 1159 2956 
Q 1366 3272 1645 3428 
Q 1925 3584 2291 3584 
Q 2894 3584 3203 3211 
Q 3513 2838 3513 2113 
z
" transform="scale(0.015625)"/>
       <path id="DejaVuSans-64" d="M 2906 2969 
L 2906 4863 
L 3481 4863 
L 3481 0 
L 2906 0 
L 2906 525 
Q 2725 213 2448 61 
Q 2172 -91 1784 -91 
Q 1150 -91 751 415 
Q 353 922 353 1747 
Q 353 2572 751 3078 
Q 1150 3584 1784 3584 
Q 2172 3584 2448 3432 
Q 2725 3281 2906 2969 
z
M 947 1747 
Q 947 1113 1208 752 
Q 1469 391 1925 391 
Q 2381 391 2643 752 
Q 2906 1113 2906 1747 
Q 2906 2381 2643 2742 
Q 2381 3103 1925 3103 
Q 1469 3103 1208 2742 
Q 947 2381 947 1747 
z
" transform="scale(0.015625)"/>
      </defs>
      <use xlink:href="#DejaVuSans-50"/>
      <use xlink:href="#DejaVuSans-61" x="55.802734"/>
      <use xlink:href="#DejaVuSans-63" x="117.082031"/>
      <use xlink:href="#DejaVuSans-6b" x="172.0625"/>
      <use xlink:href="#DejaVuSans-65" x="226.347656"/>
      <use xlink:href="#DejaVuSans-74" x="287.871094"/>
      <use xlink:href="#DejaVuSans-73" x="327.080078"/>
      <use xlink:href="#DejaVuSans-20" x="379.179688"/>
      <use xlink:href="#DejaVuSans-70" x="410.966797"/>
      <use xlink:href="#DejaVuSans-65" x="474.443359"/>
      <use xlink:href="#DejaVuSans-72" x="535.966797"/>
      <use xlink:href="#DejaVuSans-20" x="577.080078"/>
      <use xlink:href="#DejaVuSans-53" x="608.867188"/>
      <use xlink:href="#DejaVuSans-65" x="672.34375"/>
      <use xlink:href="#DejaVuSans-63" x="733.867188"/>
      <use xlink:href="#DejaVuSans-6f" x="788.847656"/>
      <use xlink:href="#DejaVuSans-6e" x="850.029297"/>
      <use xlink:href="#DejaVuSans-64" x="913.408203"/>
     </g>
    </g>
   </g>
   <g id="line2d_14">
    <path d="M 109.408097 175.006636 
L 111.549092 75.41305 
L 113.936526 110.655264 
L 116.058949 148.089403 
L 118.495223 98.721448 
L 120.683051 162.78407 
L 122.963814 206.289799 
L 125.35264 156.935356 
L 127.525357 159.467617 
L 129.698214 184.769056 
L 131.707371 202.366829 
L 134.208301 134.661514 
L 136.3797 235.038794 
L 138.823625 145.350449 
L 141.104635 182.26431 
L 143.104584 145.442712 
L 145.602025 199.914635 
L 147.882225 182.101734 
L 150.270739 202.850263 
L 152.767933 133.905861 
L 154.939596 235.088073 
L 157.3428 114.126351 
L 159.732991 203.156737 
L 161.743427 148.020674 
L 164.133671 180.193841 
L 166.242573 144.937932 
L 168.740939 222.055526 
L 171.022526 182.379986 
L 173.195576 159.541101 
L 175.586102 203.217932 
L 177.651584 161.122389 
L 179.932845 182.314669 
L 182.106191 159.606574 
L 184.280218 185.013953 
L 186.561173 158.180197 
L 188.667346 196.438203 
L 190.949443 182.48205 
L 193.122827 159.615023 
L 195.513849 157.378775 
L 197.79666 206.678492 
L 199.970359 184.945249 
L 202.252559 134.383217 
L 204.426289 184.951822 
L 206.592015 183.271385 
L 208.657856 161.205749 
L 210.941007 206.743005 
L 213.224003 206.713567 
L 215.507214 134.606788 
L 217.572278 214.204927 
L 219.746817 185.121148 
L 221.922177 185.292435 
L 224.095683 184.905151 
L 226.163029 108.433167 
L 228.339505 185.525568 
L 230.623076 206.822574 
L 232.797732 185.14546 
L 234.975676 160.620197 
L 237.150264 185.131182 
L 239.43444 182.898322 
L 241.610182 160.135197 
L 243.680484 188.758877 
L 246.072978 180.626186 
L 248.247451 185.107264 
L 250.32401 137.232599 
L 252.662341 169.993825 
L 254.960002 185.578866 
L 257.135065 185.230472 
L 259.310182 134.753084 
L 261.702946 203.625946 
L 263.879755 135.145561 
L 266.055085 235.770068 
L 268.516359 148.834579 
L 270.759226 174.485875 
L 272.822249 160.552178 
L 274.939476 172.817578 
L 277.421619 197.204494 
L 279.923863 156.870713 
L 282.098083 235.56376 
L 284.381397 158.677652 
L 286.684707 186.692541 
L 288.858723 185.011566 
L 291.141803 182.679052 
L 293.213075 135.949989 
L 295.388378 185.280789 
L 297.45421 161.203469 
L 299.630073 185.397702 
L 301.764143 176.501888 
L 304.157042 203.650603 
L 306.258527 169.320402 
L 308.397177 151.818908 
L 310.521368 148.498402 
L 312.70653 237.587314 
L 315.154772 123.7938 
L 317.340019 237.602876 
L 319.487384 128.227979 
L 321.984448 177.858656 
L 324.226806 198.867827 
L 326.560034 168.966744 
L 328.757822 189.929128 
L 331.258401 200.466504 
L 333.390511 124.568904 
L 335.637765 199.827969 
L 337.882151 199.26602 
L 340.163055 134.096086 
L 342.292397 227.047542 
L 344.437363 153.255304 
L 346.881712 145.435922 
L 349.066797 237.573141 
L 351.2051 177.418706 
L 353.353013 128.358564 
L 355.591727 198.150337 
L 357.984949 157.821966 
L 360.378083 226.637939 
L 362.616228 148.971155 
L 364.758106 152.554008 
L 367.041376 206.765645 
L 369.136388 167.867367 
L 371.279793 204.13672 
L 373.630772 125.808703 
L 375.80722 185.519541 
L 377.980752 184.91046 
L 380.184828 216.124752 
L 382.361611 160.364658 
L 384.462314 195.284048 
L 386.854912 157.696319 
L 389.028979 159.765761 
L 391.135366 170.415057 
L 393.637137 178.727513 
L 395.761377 226.056593 
L 398.263322 134.866264 
L 400.403242 177.767897 
L 402.894644 198.848838 
L 405.036505 152.550202 
L 407.176146 177.707767 
L 409.460209 230.956004 
L 411.852949 134.776764 
L 413.937559 218.194029 
L 416.385673 146.196058 
L 418.559864 185.048267 
L 420.735513 160.114835 
L 422.855356 173.393421 
L 424.997401 152.592059 
L 427.244019 199.703652 
L 429.630061 156.372035 
L 431.806731 236.018678 
L 433.982602 134.928173 
L 436.40342 163.31447 
L 438.542094 177.498823 
L 440.672403 227.234825 
L 442.811373 177.562848 
L 445.026846 143.949784 
L 447.453595 164.478681 
L 449.628455 235.682676 
L 451.731692 117.498312 
L 454.216349 219.751597 
L 456.722121 135.637105 
L 458.858691 177.043723 
L 461.175111 212.960382 
L 463.493259 142.21811 
L 465.777902 207.025726 
L 467.847005 161.96006 
L 470.125934 205.941012 
L 472.148897 151.064792 
L 474.399049 200.394611 
L 476.649169 127.179412 
L 478.825926 210.809612 
L 480.957671 150.238746 
L 483.202538 199.360386 
L 485.23328 152.936314 
L 487.627881 226.891068 
L 489.86841 124.985862 
L 492.185515 213.086545 
L 494.254403 161.910233 
L 496.395391 177.998362 
L 498.776018 178.338036 
L 500.914245 177.402267 
L 503.417009 156.970921 
L 505.625884 192.186263 
L 507.790031 182.938364 
L 509.927208 202.867664 
L 512.324007 135.631706 
L 514.818024 177.294473 
L 519.09721 177.819708 
L 521.379112 206.506026 
L 523.483805 170.037395 
L 525.767127 206.775405 
L 528.050221 134.58099 
L 530.225817 210.580592 
L 532.402503 160.343159 
L 534.776678 153.956645 
L 537.063339 207.407407 
L 539.263365 190.386546 
L 541.438226 185.18824 
L 543.723729 135.113336 
L 546.183727 170.900846 
L 548.421753 222.549229 
L 550.812763 180.341281 
L 553.096436 158.753212 
L 555.203037 170.462857 
L 557.420688 193.957075 
L 559.663411 174.456061 
L 561.856251 188.914207 
L 564.000489 153.090312 
L 566.174895 185.093148 
L 568.585183 138.452229 
L 570.777633 188.834159 
L 572.912896 202.476147 
L 575.086612 210.209645 
L 577.194229 118.583132 
L 579.439808 199.499939 
L 581.772608 145.342499 
L 583.963022 188.415036 
L 586.096078 227.766126 
L 588.269518 184.89107 
L 590.554768 159.08511 
L 592.736355 186.589499 
L 594.7576 150.649706 
L 597.041128 206.814342 
L 599.1427 169.340174 
L 601.424574 182.437311 
L 603.914423 176.520645 
L 606.09082 160.279588 
L 608.373983 182.695532 
L 610.439045 161.025225 
L 612.694179 201.364852 
L 614.971059 157.318435 
L 617.407586 188.921555 
L 619.608235 140.610744 
L 621.846347 198.031495 
L 624.236983 180.269343 
L 626.628739 203.442318 
L 628.911616 134.532754 
L 631.007921 194.351749 
L 633.146418 177.460705 
L 635.290822 153.127742 
L 637.572199 206.406528 
L 639.751209 186.053589 
L 641.918876 183.680085 
L 644.2005 134.25551 
L 646.691414 198.762456 
L 648.829174 177.301191 
L 650.972688 152.92596 
L 653.323207 219.150162 
L 655.496432 184.846127 
L 657.689694 113.894532 
L 659.883169 189.04493 
L 662.018439 202.477609 
L 664.513938 155.565775 
L 666.652675 203.186206 
L 668.785259 201.926979 
L 670.932688 128.24317 
L 673.247167 212.602553 
L 675.556567 187.886917 
L 677.730184 134.404804 
L 680.144892 162.109119 
L 682.337294 188.824202 
L 684.475349 177.365097 
L 686.758695 206.779991 
L 688.851015 167.260429 
L 690.966223 198.331329 
L 693.247663 182.350382 
L 695.522176 156.81671 
L 697.772667 176.061797 
L 699.901098 201.072851 
L 702.073349 184.642329 
L 704.467764 158.061981 
L 706.57133 169.785872 
L 708.71084 152.014833 
L 711.145694 211.163166 
L 713.342961 164.832614 
L 715.833415 198.681119 
L 718.116495 158.628246 
L 720.416589 162.186571 
L 722.593564 185.629568 
L 724.752703 156.447962 
L 726.890858 203.067532 
L 729.019733 201.164329 
L 731.156342 177.052206 
L 733.662335 135.681553 
L 736.146918 219.7391 
L 738.297712 180.103011 
L 740.531967 172.693154 
L 742.925925 157.969968 
L 745.424123 156.08877 
L 747.656605 221.513583 
L 750.048656 180.541086 
L 752.5447 177.669984 
L 754.690136 127.768145 
L 756.862654 184.698259 
L 758.968005 170.184172 
L 758.968005 170.184172 
" clip-path="url(#p9e2b5cda44)" style="fill: none; stroke: #1f77b4; stroke-width: 1.5; stroke-linecap: square"/>
   </g>
   <g id="line2d_15">
    <path d="M 109.408097 321.732962 
L 111.549092 331.879845 
L 113.936526 317.649291 
L 116.058949 329.186992 
L 118.495223 324.104178 
L 120.683051 338.467834 
L 122.963814 350.739866 
L 125.35264 317.836904 
L 127.525357 336.373232 
L 129.698214 336.392704 
L 131.707371 339.014695 
L 134.208301 310.306205 
L 136.3797 361.476671 
L 138.823625 302.624397 
L 141.104635 350.771143 
L 143.104584 310.175141 
L 147.882225 350.668464 
L 150.270739 340.783864 
L 152.767933 309.813387 
L 154.939596 361.51055 
L 157.3428 296.913707 
L 159.732991 363.96636 
L 161.743427 311.893783 
L 164.133671 318.027689 
L 166.242573 327.196588 
L 168.740939 353.924308 
L 171.022526 326.777885 
L 173.195576 336.419643 
L 175.586102 341.035427 
L 177.651584 320.628259 
L 179.932845 326.733195 
L 182.106191 336.460994 
L 184.280218 336.555969 
L 186.561173 302.618138 
L 188.667346 352.862367 
L 190.949443 326.847719 
L 193.122827 336.466331 
L 195.513849 318.132517 
L 197.79666 350.998995 
L 199.970359 336.510166 
L 202.252559 302.802144 
L 204.426289 336.514548 
L 206.592015 335.394257 
L 208.657856 320.683833 
L 210.941007 351.042004 
L 213.224003 351.022378 
L 215.507214 302.951192 
L 217.572278 347.153387 
L 219.746817 336.627432 
L 221.922177 336.741623 
L 224.095683 336.483434 
L 226.163029 294.355559 
L 228.339505 336.897045 
L 230.623076 351.095049 
L 232.797732 336.64364 
L 234.975676 311.889608 
L 237.150264 336.634121 
L 239.43444 327.132536 
L 241.610182 336.794861 
L 243.680484 321.370972 
L 246.072978 341.281021 
L 248.247451 336.618176 
L 250.32401 322.330063 
L 252.662341 334.369986 
L 254.960002 328.966593 
L 257.135065 336.700314 
L 259.310182 311.463505 
L 261.702946 341.314595 
L 263.879755 311.718614 
L 266.055085 361.979422 
L 268.516359 304.99994 
L 270.759226 345.858448 
L 272.822249 320.248119 
L 274.939476 328.425052 
L 277.421619 329.935146 
L 279.923863 332.423181 
L 282.098083 361.837585 
L 284.381397 327.014474 
L 286.684707 329.728581 
L 288.858723 336.554377 
L 291.141803 326.982509 
L 293.213075 321.519993 
L 295.388378 336.733859 
L 297.45421 320.682313 
L 299.630073 336.811801 
L 301.764143 330.881259 
L 304.157042 341.331465 
L 306.258527 326.093601 
L 308.397177 305.867674 
L 310.521368 329.445306 
L 312.70653 363.228778 
L 315.154772 303.218566 
L 317.340019 363.239478 
L 319.487384 307.222187 
L 321.984448 331.785771 
L 324.226806 345.791885 
L 326.560034 310.168721 
L 328.757822 339.832752 
L 331.258401 354.177227 
L 333.390511 304.843787 
L 335.637765 346.431979 
L 337.882151 346.057347 
L 340.163055 302.610724 
L 342.292397 355.982685 
L 344.437363 306.850471 
L 346.881712 325.146496 
L 349.066797 363.219034 
L 351.2051 331.492471 
L 353.353013 307.307067 
L 355.591727 345.313558 
L 357.984949 318.427977 
L 360.378083 364.305293 
L 362.616228 296.171809 
L 364.758106 332.006742 
L 367.041376 351.057097 
L 369.136388 325.124911 
L 371.279793 332.22592 
L 373.630772 312.656447 
L 375.80722 336.893028 
L 377.980752 336.486974 
L 380.184828 340.68806 
L 382.361611 336.939784 
L 384.462314 325.976975 
L 386.854912 318.344213 
L 389.028979 336.561533 
L 391.135366 326.823371 
L 393.637137 332.365008 
L 395.761377 355.301407 
L 398.263322 310.439737 
L 400.403242 331.725265 
L 402.894644 331.086186 
L 405.036505 332.004338 
L 407.176146 331.685178 
L 409.460209 351.157179 
L 411.852949 318.363395 
L 413.937559 349.895895 
L 416.385673 303.200948 
L 418.559864 336.578845 
L 420.735513 336.782001 
L 422.855356 328.808947 
L 424.997401 332.030774 
L 427.244019 346.349102 
L 429.630061 317.461357 
L 431.806731 362.150341 
L 433.982602 311.577312 
L 438.542094 331.545882 
L 440.672403 356.111442 
L 442.811373 331.588565 
L 445.026846 317.44136 
L 447.453595 322.865788 
L 449.628455 361.919339 
L 451.731692 300.247903 
L 454.216349 352.347935 
L 456.722121 310.94246 
L 458.858691 331.242482 
L 461.175111 355.186921 
L 463.493259 308.025407 
L 465.777902 351.230484 
L 467.847005 321.186707 
L 470.125934 350.507341 
L 472.148897 313.923195 
L 474.399049 346.809741 
L 476.649169 297.999608 
L 478.825926 336.936197 
L 480.957671 330.544471 
L 483.202538 346.120258 
L 485.23328 315.170876 
L 487.627881 364.474046 
L 489.86841 296.537241 
L 492.185515 355.27103 
L 494.254403 321.153489 
L 496.395391 331.878908 
L 498.776018 316.728625 
L 500.914245 331.481512 
L 503.417009 332.48695 
L 505.625884 341.337509 
L 507.790031 335.172243 
L 509.927208 331.330116 
L 512.324007 318.90745 
L 514.818024 331.409649 
L 519.09721 331.759805 
L 521.379112 350.884017 
L 523.483805 326.571596 
L 525.767127 351.063603 
L 528.050221 302.933994 
L 530.225817 336.774535 
L 532.402503 336.926206 
L 534.776678 315.851097 
L 537.063339 351.484938 
L 539.263365 340.137697 
L 541.438226 336.67216 
L 543.723729 303.288891 
L 546.183727 327.147231 
L 548.421753 345.222985 
L 550.812763 341.095833 
L 553.096436 327.063588 
L 555.203037 326.855238 
L 557.420688 342.51805 
L 559.663411 321.356252 
L 561.856251 339.156138 
L 564.000489 306.737582 
L 566.174895 336.608766 
L 568.585183 320.702328 
L 570.777633 339.102773 
L 572.912896 331.053751 
L 575.086612 361.7733 
L 577.194229 300.953036 
L 579.439808 346.213292 
L 581.772608 310.108333 
L 583.963022 338.823358 
L 586.096078 356.476712 
L 588.269518 336.474047 
L 590.554768 327.279321 
L 592.736355 337.606333 
L 594.7576 313.646471 
L 597.041128 351.089561 
L 599.1427 326.106783 
L 601.424574 326.817108 
L 603.914423 330.893763 
L 606.09082 311.65656 
L 608.373983 351.043494 
L 610.439045 320.563484 
L 612.694179 347.456568 
L 614.971059 302.014904 
L 617.407586 346.67301 
L 619.608235 315.270984 
L 621.846347 345.23433 
L 624.236983 318.08054 
L 626.628739 364.146727 
L 628.911616 302.901836 
L 631.007921 325.318882 
L 633.146418 331.52047 
L 635.290822 332.3691 
L 637.572199 350.817686 
L 639.751209 337.24906 
L 641.918876 335.666723 
L 644.2005 302.717007 
L 646.691414 331.025719 
L 648.829174 331.414127 
L 650.972688 332.241659 
L 653.323207 359.313441 
L 655.496432 336.444085 
L 657.689694 289.143021 
L 659.883169 339.243286 
L 662.018439 331.054783 
L 664.513938 331.592766 
L 666.652675 331.554969 
L 668.785259 356.413928 
L 670.932688 307.23206 
L 673.247167 354.948369 
L 675.556567 330.545785 
L 677.730184 311.237123 
L 680.144892 321.286079 
L 682.337294 339.096135 
L 684.475349 331.456732 
L 686.758695 351.06666 
L 688.851015 324.720286 
L 690.966223 328.127997 
L 693.247663 350.825505 
L 695.522176 301.663697 
L 697.772667 346.853767 
L 699.901098 330.063189 
L 702.073349 336.308219 
L 704.467764 318.587987 
L 706.57133 326.403915 
L 708.71084 331.66621 
L 711.145694 346.47164 
L 713.342961 314.771788 
L 715.833415 353.016727 
L 718.116495 326.98236 
L 720.416589 305.4226 
L 722.593564 336.966378 
L 724.752703 334.466081 
L 726.890858 331.471199 
L 729.019733 355.920448 
L 731.156342 331.248137 
L 733.662335 310.971448 
L 736.146918 352.339384 
L 738.297712 333.282008 
L 740.531967 320.150053 
L 742.925925 318.526646 
L 747.656605 344.491941 
L 750.048656 341.225706 
L 752.5447 331.659989 
L 754.690136 306.923294 
L 756.862654 336.345506 
L 758.968005 326.669448 
L 758.968005 326.669448 
" clip-path="url(#p9e2b5cda44)" style="fill: none; stroke: #ff7f0e; stroke-width: 1.5; stroke-linecap: square"/>
   </g>
   <g id="line2d_16">
    <path d="M 93.23 176.079719 
L 791.446 176.079719 
" clip-path="url(#p9e2b5cda44)" style="fill: none; stroke-dasharray: 5.55,2.4; stroke-dashoffset: 0; stroke: #0000ff; stroke-width: 1.5"/>
   </g>
   <g id="line2d_17">
    <path d="M 93.23 331.397569 
L 791.446 331.397569 
" clip-path="url(#p9e2b5cda44)" style="fill: none; stroke-dasharray: 5.55,2.4; stroke-dashoffset: 0; stroke: #ffa500; stroke-width: 1.5"/>
   </g>
   <g id="patch_3">
    <path d="M 93.23 639.64 
L 93.23 60.96 
" style="fill: none; stroke: #000000; stroke-width: 0.8; stroke-linejoin: miter; stroke-linecap: square"/>
   </g>
   <g id="patch_4">
    <path d="M 791.446 639.64 
L 791.446 60.96 
" style="fill: none; stroke: #000000; stroke-width: 0.8; stroke-linejoin: miter; stroke-linecap: square"/>
   </g>
   <g id="patch_5">
    <path d="M 93.23 639.64 
L 791.446 639.64 
" style="fill: none; stroke: #000000; stroke-width: 0.8; stroke-linejoin: miter; stroke-linecap: square"/>
   </g>
   <g id="patch_6">
    <path d="M 93.23 60.96 
L 791.446 60.96 
" style="fill: none; stroke: #000000; stroke-width: 0.8; stroke-linejoin: miter; stroke-linecap: square"/>
   </g>
   <g id="text_16">
    <!-- Parsed and Filtered Packets (SelectionProcess: 16777218) -->
    <g transform="translate(199.340438 54.96) scale(0.168 -0.168)">
     <defs>
      <path id="DejaVuSans-46" d="M 628 4666 
L 3309 4666 
L 3309 4134 
L 1259 4134 
L 1259 2759 
L 3109 2759 
L 3109 2228 
L 1259 2228 
L 1259 0 
L 628 0 
L 628 4666 
z
" transform="scale(0.015625)"/>
      <path id="DejaVuSans-6c" d="M 603 4863 
L 1178 4863 
L 1178 0 
L 603 0 
L 603 4863 
z
" transform="scale(0.015625)"/>
      <path id="DejaVuSans-3a" d="M 750 794 
L 1409 794 
L 1409 0 
L 750 0 
L 750 794 
z
M 750 3309 
L 1409 3309 
L 1409 2516 
L 750 2516 
L 750 3309 
z
" transform="scale(0.015625)"/>
      <path id="DejaVuSans-37" d="M 525 4666 
L 3525 4666 
L 3525 4397 
L 1831 0 
L 1172 0 
L 2766 4134 
L 525 4134 
L 525 4666 
z
" transform="scale(0.015625)"/>
     </defs>
     <use xlink:href="#DejaVuSans-50"/>
     <use xlink:href="#DejaVuSans-61" x="55.802734"/>
     <use xlink:href="#DejaVuSans-72" x="117.082031"/>
     <use xlink:href="#DejaVuSans-73" x="158.195312"/>
     <use xlink:href="#DejaVuSans-65" x="210.294922"/>
     <use xlink:href="#DejaVuSans-64" x="271.818359"/>
     <use xlink:href="#DejaVuSans-20" x="335.294922"/>
     <use xlink:href="#DejaVuSans-61" x="367.082031"/>
     <use xlink:href="#DejaVuSans-6e" x="428.361328"/>
     <use xlink:href="#DejaVuSans-64" x="491.740234"/>
     <use xlink:href="#DejaVuSans-20" x="555.216797"/>
     <use xlink:href="#DejaVuSans-46" x="587.003906"/>
     <use xlink:href="#DejaVuSans-69" x="637.273438"/>
     <use xlink:href="#DejaVuSans-6c" x="665.056641"/>
     <use xlink:href="#DejaVuSans-74" x="692.839844"/>
     <use xlink:href="#DejaVuSans-65" x="732.048828"/>
     <use xlink:href="#DejaVuSans-72" x="793.572266"/>
     <use xlink:href="#DejaVuSans-65" x="832.435547"/>
     <use xlink:href="#DejaVuSans-64" x="893.958984"/>
     <use xlink:href="#DejaVuSans-20" x="957.435547"/>
     <use xlink:href="#DejaVuSans-50" x="989.222656"/>
     <use xlink:href="#DejaVuSans-61" x="1045.025391"/>
     <use xlink:href="#DejaVuSans-63" x="1106.304688"/>
     <use xlink:href="#DejaVuSans-6b" x="1161.285156"/>
     <use xlink:href="#DejaVuSans-65" x="1215.570312"/>
     <use xlink:href="#DejaVuSans-74" x="1277.09375"/>
     <use xlink:href="#DejaVuSans-73" x="1316.302734"/>
     <use xlink:href="#DejaVuSans-20" x="1368.402344"/>
     <use xlink:href="#DejaVuSans-28" x="1400.189453"/>
     <use xlink:href="#DejaVuSans-53" x="1439.203125"/>
     <use xlink:href="#DejaVuSans-65" x="1502.679688"/>
     <use xlink:href="#DejaVuSans-6c" x="1564.203125"/>
     <use xlink:href="#DejaVuSans-65" x="1591.986328"/>
     <use xlink:href="#DejaVuSans-63" x="1653.509766"/>
     <use xlink:href="#DejaVuSans-74" x="1708.490234"/>
     <use xlink:href="#DejaVuSans-69" x="1747.699219"/>
     <use xlink:href="#DejaVuSans-6f" x="1775.482422"/>
     <use xlink:href="#DejaVuSans-6e" x="1836.664062"/>
     <use xlink:href="#DejaVuSans-50" x="1900.042969"/>
     <use xlink:href="#DejaVuSans-72" x="1958.595703"/>
     <use xlink:href="#DejaVuSans-6f" x="1997.458984"/>
     <use xlink:href="#DejaVuSans-63" x="2058.640625"/>
     <use xlink:href="#DejaVuSans-65" x="2113.621094"/>
     <use xlink:href="#DejaVuSans-73" x="2175.144531"/>
     <use xlink:href="#DejaVuSans-73" x="2227.244141"/>
     <use xlink:href="#DejaVuSans-3a" x="2279.34375"/>
     <use xlink:href="#DejaVuSans-20" x="2313.035156"/>
     <use xlink:href="#DejaVuSans-31" x="2344.822266"/>
     <use xlink:href="#DejaVuSans-36" x="2408.445312"/>
     <use xlink:href="#DejaVuSans-37" x="2472.068359"/>
     <use xlink:href="#DejaVuSans-37" x="2535.691406"/>
     <use xlink:href="#DejaVuSans-37" x="2599.314453"/>
     <use xlink:href="#DejaVuSans-32" x="2662.9375"/>
     <use xlink:href="#DejaVuSans-31" x="2726.560547"/>
     <use xlink:href="#DejaVuSans-38" x="2790.183594"/>
     <use xlink:href="#DejaVuSans-29" x="2853.806641"/>
    </g>
   </g>
   <g id="legend_1">
    <g id="patch_7">
     <path d="M 801.246 393.49875 
L 1017.381938 393.49875 
Q 1020.181938 393.49875 1020.181938 390.69875 
L 1020.181938 309.90125 
Q 1020.181938 307.10125 1017.381938 307.10125 
L 801.246 307.10125 
Q 798.446 307.10125 798.446 309.90125 
L 798.446 390.69875 
Q 798.446 393.49875 801.246 393.49875 
z
" style="fill: #ffffff; opacity: 0.8; stroke: #cccccc; stroke-linejoin: miter"/>
    </g>
    <g id="line2d_18">
     <path d="M 804.046 318.439063 
L 818.046 318.439063 
L 832.046 318.439063 
" style="fill: none; stroke: #1f77b4; stroke-width: 1.5; stroke-linecap: square"/>
    </g>
    <g id="text_17">
     <!-- Parsed Packets -->
     <g transform="translate(843.246 323.339063) scale(0.14 -0.14)">
      <use xlink:href="#DejaVuSans-50"/>
      <use xlink:href="#DejaVuSans-61" x="55.802734"/>
      <use xlink:href="#DejaVuSans-72" x="117.082031"/>
      <use xlink:href="#DejaVuSans-73" x="158.195312"/>
      <use xlink:href="#DejaVuSans-65" x="210.294922"/>
      <use xlink:href="#DejaVuSans-64" x="271.818359"/>
      <use xlink:href="#DejaVuSans-20" x="335.294922"/>
      <use xlink:href="#DejaVuSans-50" x="367.082031"/>
      <use xlink:href="#DejaVuSans-61" x="422.884766"/>
      <use xlink:href="#DejaVuSans-63" x="484.164062"/>
      <use xlink:href="#DejaVuSans-6b" x="539.144531"/>
      <use xlink:href="#DejaVuSans-65" x="593.429688"/>
      <use xlink:href="#DejaVuSans-74" x="654.953125"/>
      <use xlink:href="#DejaVuSans-73" x="694.162109"/>
     </g>
    </g>
    <g id="line2d_19">
     <path d="M 804.046 338.988438 
L 818.046 338.988438 
L 832.046 338.988438 
" style="fill: none; stroke: #ff7f0e; stroke-width: 1.5; stroke-linecap: square"/>
    </g>
    <g id="text_18">
     <!-- Filtered Packets -->
     <g transform="translate(843.246 343.888438) scale(0.14 -0.14)">
      <use xlink:href="#DejaVuSans-46"/>
      <use xlink:href="#DejaVuSans-69" x="50.269531"/>
      <use xlink:href="#DejaVuSans-6c" x="78.052734"/>
      <use xlink:href="#DejaVuSans-74" x="105.835938"/>
      <use xlink:href="#DejaVuSans-65" x="145.044922"/>
      <use xlink:href="#DejaVuSans-72" x="206.568359"/>
      <use xlink:href="#DejaVuSans-65" x="245.431641"/>
      <use xlink:href="#DejaVuSans-64" x="306.955078"/>
      <use xlink:href="#DejaVuSans-20" x="370.431641"/>
      <use xlink:href="#DejaVuSans-50" x="402.21875"/>
      <use xlink:href="#DejaVuSans-61" x="458.021484"/>
      <use xlink:href="#DejaVuSans-63" x="519.300781"/>
      <use xlink:href="#DejaVuSans-6b" x="574.28125"/>
      <use xlink:href="#DejaVuSans-65" x="628.566406"/>
      <use xlink:href="#DejaVuSans-74" x="690.089844"/>
      <use xlink:href="#DejaVuSans-73" x="729.298828"/>
     </g>
    </g>
    <g id="line2d_20">
     <path d="M 804.046 359.537813 
L 818.046 359.537813 
L 832.046 359.537813 
" style="fill: none; stroke-dasharray: 5.55,2.4; stroke-dashoffset: 0; stroke: #0000ff; stroke-width: 1.5"/>
    </g>
    <g id="text_19">
     <!-- Parsed Packets Average -->
     <g transform="translate(843.246 364.437813) scale(0.14 -0.14)">
      <defs>
       <path id="DejaVuSans-41" d="M 2188 4044 
L 1331 1722 
L 3047 1722 
L 2188 4044 
z
M 1831 4666 
L 2547 4666 
L 4325 0 
L 3669 0 
L 3244 1197 
L 1141 1197 
L 716 0 
L 50 0 
L 1831 4666 
z
" transform="scale(0.015625)"/>
       <path id="DejaVuSans-76" d="M 191 3500 
L 800 3500 
L 1894 563 
L 2988 3500 
L 3597 3500 
L 2284 0 
L 1503 0 
L 191 3500 
z
" transform="scale(0.015625)"/>
       <path id="DejaVuSans-67" d="M 2906 1791 
Q 2906 2416 2648 2759 
Q 2391 3103 1925 3103 
Q 1463 3103 1205 2759 
Q 947 2416 947 1791 
Q 947 1169 1205 825 
Q 1463 481 1925 481 
Q 2391 481 2648 825 
Q 2906 1169 2906 1791 
z
M 3481 434 
Q 3481 -459 3084 -895 
Q 2688 -1331 1869 -1331 
Q 1566 -1331 1297 -1286 
Q 1028 -1241 775 -1147 
L 775 -588 
Q 1028 -725 1275 -790 
Q 1522 -856 1778 -856 
Q 2344 -856 2625 -561 
Q 2906 -266 2906 331 
L 2906 616 
Q 2728 306 2450 153 
Q 2172 0 1784 0 
Q 1141 0 747 490 
Q 353 981 353 1791 
Q 353 2603 747 3093 
Q 1141 3584 1784 3584 
Q 2172 3584 2450 3431 
Q 2728 3278 2906 2969 
L 2906 3500 
L 3481 3500 
L 3481 434 
z
" transform="scale(0.015625)"/>
      </defs>
      <use xlink:href="#DejaVuSans-50"/>
      <use xlink:href="#DejaVuSans-61" x="55.802734"/>
      <use xlink:href="#DejaVuSans-72" x="117.082031"/>
      <use xlink:href="#DejaVuSans-73" x="158.195312"/>
      <use xlink:href="#DejaVuSans-65" x="210.294922"/>
      <use xlink:href="#DejaVuSans-64" x="271.818359"/>
      <use xlink:href="#DejaVuSans-20" x="335.294922"/>
      <use xlink:href="#DejaVuSans-50" x="367.082031"/>
      <use xlink:href="#DejaVuSans-61" x="422.884766"/>
      <use xlink:href="#DejaVuSans-63" x="484.164062"/>
      <use xlink:href="#DejaVuSans-6b" x="539.144531"/>
      <use xlink:href="#DejaVuSans-65" x="593.429688"/>
      <use xlink:href="#DejaVuSans-74" x="654.953125"/>
      <use xlink:href="#DejaVuSans-73" x="694.162109"/>
      <use xlink:href="#DejaVuSans-20" x="746.261719"/>
      <use xlink:href="#DejaVuSans-41" x="778.048828"/>
      <use xlink:href="#DejaVuSans-76" x="840.582031"/>
      <use xlink:href="#DejaVuSans-65" x="899.761719"/>
      <use xlink:href="#DejaVuSans-72" x="961.285156"/>
      <use xlink:href="#DejaVuSans-61" x="1002.398438"/>
      <use xlink:href="#DejaVuSans-67" x="1063.677734"/>
      <use xlink:href="#DejaVuSans-65" x="1127.154297"/>
     </g>
    </g>
    <g id="line2d_21">
     <path d="M 804.046 380.087188 
L 818.046 380.087188 
L 832.046 380.087188 
" style="fill: none; stroke-dasharray: 5.55,2.4; stroke-dashoffset: 0; stroke: #ffa500; stroke-width: 1.5"/>
    </g>
    <g id="text_20">
     <!-- Filtered Packets Average -->
     <g transform="translate(843.246 384.987188) scale(0.14 -0.14)">
      <use xlink:href="#DejaVuSans-46"/>
      <use xlink:href="#DejaVuSans-69" x="50.269531"/>
      <use xlink:href="#DejaVuSans-6c" x="78.052734"/>
      <use xlink:href="#DejaVuSans-74" x="105.835938"/>
      <use xlink:href="#DejaVuSans-65" x="145.044922"/>
      <use xlink:href="#DejaVuSans-72" x="206.568359"/>
      <use xlink:href="#DejaVuSans-65" x="245.431641"/>
      <use xlink:href="#DejaVuSans-64" x="306.955078"/>
      <use xlink:href="#DejaVuSans-20" x="370.431641"/>
      <use xlink:href="#DejaVuSans-50" x="402.21875"/>
      <use xlink:href="#DejaVuSans-61" x="458.021484"/>
      <use xlink:href="#DejaVuSans-63" x="519.300781"/>
      <use xlink:href="#DejaVuSans-6b" x="574.28125"/>
      <use xlink:href="#DejaVuSans-65" x="628.566406"/>
      <use xlink:href="#DejaVuSans-74" x="690.089844"/>
      <use xlink:href="#DejaVuSans-73" x="729.298828"/>
      <use xlink:href="#DejaVuSans-20" x="781.398438"/>
      <use xlink:href="#DejaVuSans-41" x="813.185547"/>
      <use xlink:href="#DejaVuSans-76" x="875.71875"/>
      <use xlink:href="#DejaVuSans-65" x="934.898438"/>
      <use xlink:href="#DejaVuSans-72" x="996.421875"/>
      <use xlink:href="#DejaVuSans-61" x="1037.535156"/>
      <use xlink:href="#DejaVuSans-67" x="1098.814453"/>
      <use xlink:href="#DejaVuSans-65" x="1162.291016"/>
     </g>
    </g>
   </g>
  </g>
 </g>
 <defs>
  <clipPath id="p9e2b5cda44">
   <rect x="93.23" y="60.96" width="698.216" height="578.68"/>
  </clipPath>
 </defs>
</svg>
