<?xml version="1.0" encoding="utf-8" standalone="no"?>
<!DOCTYPE svg PUBLIC "-//W3C//DTD SVG 1.1//EN"
  "http://www.w3.org/Graphics/SVG/1.1/DTD/svg11.dtd">
<svg xmlns:xlink="http://www.w3.org/1999/xlink" width="1080pt" height="720pt" viewBox="0 0 1080 720" xmlns="http://www.w3.org/2000/svg" version="1.1">
 <metadata>
  <rdf:RDF xmlns:dc="http://purl.org/dc/elements/1.1/" xmlns:cc="http://creativecommons.org/ns#" xmlns:rdf="http://www.w3.org/1999/02/22-rdf-syntax-ns#">
   <cc:Work>
    <dc:type rdf:resource="http://purl.org/dc/dcmitype/StillImage"/>
    <dc:date>2023-04-13T18:38:15.272362</dc:date>
    <dc:format>image/svg+xml</dc:format>
    <dc:creator>
     <cc:Agent>
      <dc:title>Matplotlib v3.6.2, https://matplotlib.org/</dc:title>
     </cc:Agent>
    </dc:creator>
   </cc:Work>
  </rdf:RDF>
 </metadata>
 <defs>
  <style type="text/css">*{stroke-linejoin: round; stroke-linecap: butt}</style>
 </defs>
 <g id="figure_1">
  <g id="patch_1">
   <path d="M 0 720 
L 1080 720 
L 1080 0 
L 0 0 
z
" style="fill: #ffffff"/>
  </g>
  <g id="axes_1">
   <g id="patch_2">
    <path d="M 71.22 652.92 
L 806.805 652.92 
L 806.805 46.96 
L 71.22 46.96 
z
" style="fill: #ffffff"/>
   </g>
   <g id="matplotlib.axis_1">
    <g id="xtick_1">
     <g id="line2d_1">
      <defs>
       <path id="md5e66a93be" d="M 0 0 
L 0 3.5 
" style="stroke: #000000; stroke-width: 0.8"/>
      </defs>
      <g>
       <use xlink:href="#md5e66a93be" x="71.22" y="652.92" style="stroke: #000000; stroke-width: 0.8"/>
      </g>
     </g>
     <g id="text_1">
      <!-- 0 -->
      <g transform="translate(66.76625 670.557812) scale(0.14 -0.14)">
       <defs>
        <path id="DejaVuSans-30" d="M 2034 4250 
Q 1547 4250 1301 3770 
Q 1056 3291 1056 2328 
Q 1056 1369 1301 889 
Q 1547 409 2034 409 
Q 2525 409 2770 889 
Q 3016 1369 3016 2328 
Q 3016 3291 2770 3770 
Q 2525 4250 2034 4250 
z
M 2034 4750 
Q 2819 4750 3233 4129 
Q 3647 3509 3647 2328 
Q 3647 1150 3233 529 
Q 2819 -91 2034 -91 
Q 1250 -91 836 529 
Q 422 1150 422 2328 
Q 422 3509 836 4129 
Q 1250 4750 2034 4750 
z
" transform="scale(0.015625)"/>
       </defs>
       <use xlink:href="#DejaVuSans-30"/>
      </g>
     </g>
    </g>
    <g id="xtick_2">
     <g id="line2d_2">
      <g>
       <use xlink:href="#md5e66a93be" x="186.906162" y="652.92" style="stroke: #000000; stroke-width: 0.8"/>
      </g>
     </g>
     <g id="text_2">
      <!-- 10 -->
      <g transform="translate(177.998662 670.557812) scale(0.14 -0.14)">
       <defs>
        <path id="DejaVuSans-31" d="M 794 531 
L 1825 531 
L 1825 4091 
L 703 3866 
L 703 4441 
L 1819 4666 
L 2450 4666 
L 2450 531 
L 3481 531 
L 3481 0 
L 794 0 
L 794 531 
z
" transform="scale(0.015625)"/>
       </defs>
       <use xlink:href="#DejaVuSans-31"/>
       <use xlink:href="#DejaVuSans-30" x="63.623047"/>
      </g>
     </g>
    </g>
    <g id="xtick_3">
     <g id="line2d_3">
      <g>
       <use xlink:href="#md5e66a93be" x="302.592324" y="652.92" style="stroke: #000000; stroke-width: 0.8"/>
      </g>
     </g>
     <g id="text_3">
      <!-- 20 -->
      <g transform="translate(293.684824 670.557812) scale(0.14 -0.14)">
       <defs>
        <path id="DejaVuSans-32" d="M 1228 531 
L 3431 531 
L 3431 0 
L 469 0 
L 469 531 
Q 828 903 1448 1529 
Q 2069 2156 2228 2338 
Q 2531 2678 2651 2914 
Q 2772 3150 2772 3378 
Q 2772 3750 2511 3984 
Q 2250 4219 1831 4219 
Q 1534 4219 1204 4116 
Q 875 4013 500 3803 
L 500 4441 
Q 881 4594 1212 4672 
Q 1544 4750 1819 4750 
Q 2544 4750 2975 4387 
Q 3406 4025 3406 3419 
Q 3406 3131 3298 2873 
Q 3191 2616 2906 2266 
Q 2828 2175 2409 1742 
Q 1991 1309 1228 531 
z
" transform="scale(0.015625)"/>
       </defs>
       <use xlink:href="#DejaVuSans-32"/>
       <use xlink:href="#DejaVuSans-30" x="63.623047"/>
      </g>
     </g>
    </g>
    <g id="xtick_4">
     <g id="line2d_4">
      <g>
       <use xlink:href="#md5e66a93be" x="418.278486" y="652.92" style="stroke: #000000; stroke-width: 0.8"/>
      </g>
     </g>
     <g id="text_4">
      <!-- 30 -->
      <g transform="translate(409.370986 670.557812) scale(0.14 -0.14)">
       <defs>
        <path id="DejaVuSans-33" d="M 2597 2516 
Q 3050 2419 3304 2112 
Q 3559 1806 3559 1356 
Q 3559 666 3084 287 
Q 2609 -91 1734 -91 
Q 1441 -91 1130 -33 
Q 819 25 488 141 
L 488 750 
Q 750 597 1062 519 
Q 1375 441 1716 441 
Q 2309 441 2620 675 
Q 2931 909 2931 1356 
Q 2931 1769 2642 2001 
Q 2353 2234 1838 2234 
L 1294 2234 
L 1294 2753 
L 1863 2753 
Q 2328 2753 2575 2939 
Q 2822 3125 2822 3475 
Q 2822 3834 2567 4026 
Q 2313 4219 1838 4219 
Q 1578 4219 1281 4162 
Q 984 4106 628 3988 
L 628 4550 
Q 988 4650 1302 4700 
Q 1616 4750 1894 4750 
Q 2613 4750 3031 4423 
Q 3450 4097 3450 3541 
Q 3450 3153 3228 2886 
Q 3006 2619 2597 2516 
z
" transform="scale(0.015625)"/>
       </defs>
       <use xlink:href="#DejaVuSans-33"/>
       <use xlink:href="#DejaVuSans-30" x="63.623047"/>
      </g>
     </g>
    </g>
    <g id="xtick_5">
     <g id="line2d_5">
      <g>
       <use xlink:href="#md5e66a93be" x="533.964648" y="652.92" style="stroke: #000000; stroke-width: 0.8"/>
      </g>
     </g>
     <g id="text_5">
      <!-- 40 -->
      <g transform="translate(525.057148 670.557812) scale(0.14 -0.14)">
       <defs>
        <path id="DejaVuSans-34" d="M 2419 4116 
L 825 1625 
L 2419 1625 
L 2419 4116 
z
M 2253 4666 
L 3047 4666 
L 3047 1625 
L 3713 1625 
L 3713 1100 
L 3047 1100 
L 3047 0 
L 2419 0 
L 2419 1100 
L 313 1100 
L 313 1709 
L 2253 4666 
z
" transform="scale(0.015625)"/>
       </defs>
       <use xlink:href="#DejaVuSans-34"/>
       <use xlink:href="#DejaVuSans-30" x="63.623047"/>
      </g>
     </g>
    </g>
    <g id="xtick_6">
     <g id="line2d_6">
      <g>
       <use xlink:href="#md5e66a93be" x="649.65081" y="652.92" style="stroke: #000000; stroke-width: 0.8"/>
      </g>
     </g>
     <g id="text_6">
      <!-- 50 -->
      <g transform="translate(640.74331 670.557812) scale(0.14 -0.14)">
       <defs>
        <path id="DejaVuSans-35" d="M 691 4666 
L 3169 4666 
L 3169 4134 
L 1269 4134 
L 1269 2991 
Q 1406 3038 1543 3061 
Q 1681 3084 1819 3084 
Q 2600 3084 3056 2656 
Q 3513 2228 3513 1497 
Q 3513 744 3044 326 
Q 2575 -91 1722 -91 
Q 1428 -91 1123 -41 
Q 819 9 494 109 
L 494 744 
Q 775 591 1075 516 
Q 1375 441 1709 441 
Q 2250 441 2565 725 
Q 2881 1009 2881 1497 
Q 2881 1984 2565 2268 
Q 2250 2553 1709 2553 
Q 1456 2553 1204 2497 
Q 953 2441 691 2322 
L 691 4666 
z
" transform="scale(0.015625)"/>
       </defs>
       <use xlink:href="#DejaVuSans-35"/>
       <use xlink:href="#DejaVuSans-30" x="63.623047"/>
      </g>
     </g>
    </g>
    <g id="xtick_7">
     <g id="line2d_7">
      <g>
       <use xlink:href="#md5e66a93be" x="765.336972" y="652.92" style="stroke: #000000; stroke-width: 0.8"/>
      </g>
     </g>
     <g id="text_7">
      <!-- 60 -->
      <g transform="translate(756.429472 670.557812) scale(0.14 -0.14)">
       <defs>
        <path id="DejaVuSans-36" d="M 2113 2584 
Q 1688 2584 1439 2293 
Q 1191 2003 1191 1497 
Q 1191 994 1439 701 
Q 1688 409 2113 409 
Q 2538 409 2786 701 
Q 3034 994 3034 1497 
Q 3034 2003 2786 2293 
Q 2538 2584 2113 2584 
z
M 3366 4563 
L 3366 3988 
Q 3128 4100 2886 4159 
Q 2644 4219 2406 4219 
Q 1781 4219 1451 3797 
Q 1122 3375 1075 2522 
Q 1259 2794 1537 2939 
Q 1816 3084 2150 3084 
Q 2853 3084 3261 2657 
Q 3669 2231 3669 1497 
Q 3669 778 3244 343 
Q 2819 -91 2113 -91 
Q 1303 -91 875 529 
Q 447 1150 447 2328 
Q 447 3434 972 4092 
Q 1497 4750 2381 4750 
Q 2619 4750 2861 4703 
Q 3103 4656 3366 4563 
z
" transform="scale(0.015625)"/>
       </defs>
       <use xlink:href="#DejaVuSans-36"/>
       <use xlink:href="#DejaVuSans-30" x="63.623047"/>
      </g>
     </g>
    </g>
    <g id="text_8">
     <!-- Time (s) -->
     <g transform="translate(408.519141 688.867031) scale(0.15 -0.15)">
      <defs>
       <path id="DejaVuSans-54" d="M -19 4666 
L 3928 4666 
L 3928 4134 
L 2272 4134 
L 2272 0 
L 1638 0 
L 1638 4134 
L -19 4134 
L -19 4666 
z
" transform="scale(0.015625)"/>
       <path id="DejaVuSans-69" d="M 603 3500 
L 1178 3500 
L 1178 0 
L 603 0 
L 603 3500 
z
M 603 4863 
L 1178 4863 
L 1178 4134 
L 603 4134 
L 603 4863 
z
" transform="scale(0.015625)"/>
       <path id="DejaVuSans-6d" d="M 3328 2828 
Q 3544 3216 3844 3400 
Q 4144 3584 4550 3584 
Q 5097 3584 5394 3201 
Q 5691 2819 5691 2113 
L 5691 0 
L 5113 0 
L 5113 2094 
Q 5113 2597 4934 2840 
Q 4756 3084 4391 3084 
Q 3944 3084 3684 2787 
Q 3425 2491 3425 1978 
L 3425 0 
L 2847 0 
L 2847 2094 
Q 2847 2600 2669 2842 
Q 2491 3084 2119 3084 
Q 1678 3084 1418 2786 
Q 1159 2488 1159 1978 
L 1159 0 
L 581 0 
L 581 3500 
L 1159 3500 
L 1159 2956 
Q 1356 3278 1631 3431 
Q 1906 3584 2284 3584 
Q 2666 3584 2933 3390 
Q 3200 3197 3328 2828 
z
" transform="scale(0.015625)"/>
       <path id="DejaVuSans-65" d="M 3597 1894 
L 3597 1613 
L 953 1613 
Q 991 1019 1311 708 
Q 1631 397 2203 397 
Q 2534 397 2845 478 
Q 3156 559 3463 722 
L 3463 178 
Q 3153 47 2828 -22 
Q 2503 -91 2169 -91 
Q 1331 -91 842 396 
Q 353 884 353 1716 
Q 353 2575 817 3079 
Q 1281 3584 2069 3584 
Q 2775 3584 3186 3129 
Q 3597 2675 3597 1894 
z
M 3022 2063 
Q 3016 2534 2758 2815 
Q 2500 3097 2075 3097 
Q 1594 3097 1305 2825 
Q 1016 2553 972 2059 
L 3022 2063 
z
" transform="scale(0.015625)"/>
       <path id="DejaVuSans-20" transform="scale(0.015625)"/>
       <path id="DejaVuSans-28" d="M 1984 4856 
Q 1566 4138 1362 3434 
Q 1159 2731 1159 2009 
Q 1159 1288 1364 580 
Q 1569 -128 1984 -844 
L 1484 -844 
Q 1016 -109 783 600 
Q 550 1309 550 2009 
Q 550 2706 781 3412 
Q 1013 4119 1484 4856 
L 1984 4856 
z
" transform="scale(0.015625)"/>
       <path id="DejaVuSans-73" d="M 2834 3397 
L 2834 2853 
Q 2591 2978 2328 3040 
Q 2066 3103 1784 3103 
Q 1356 3103 1142 2972 
Q 928 2841 928 2578 
Q 928 2378 1081 2264 
Q 1234 2150 1697 2047 
L 1894 2003 
Q 2506 1872 2764 1633 
Q 3022 1394 3022 966 
Q 3022 478 2636 193 
Q 2250 -91 1575 -91 
Q 1294 -91 989 -36 
Q 684 19 347 128 
L 347 722 
Q 666 556 975 473 
Q 1284 391 1588 391 
Q 1994 391 2212 530 
Q 2431 669 2431 922 
Q 2431 1156 2273 1281 
Q 2116 1406 1581 1522 
L 1381 1569 
Q 847 1681 609 1914 
Q 372 2147 372 2553 
Q 372 3047 722 3315 
Q 1072 3584 1716 3584 
Q 2034 3584 2315 3537 
Q 2597 3491 2834 3397 
z
" transform="scale(0.015625)"/>
       <path id="DejaVuSans-29" d="M 513 4856 
L 1013 4856 
Q 1481 4119 1714 3412 
Q 1947 2706 1947 2009 
Q 1947 1309 1714 600 
Q 1481 -109 1013 -844 
L 513 -844 
Q 928 -128 1133 580 
Q 1338 1288 1338 2009 
Q 1338 2731 1133 3434 
Q 928 4138 513 4856 
z
" transform="scale(0.015625)"/>
      </defs>
      <use xlink:href="#DejaVuSans-54"/>
      <use xlink:href="#DejaVuSans-69" x="57.958984"/>
      <use xlink:href="#DejaVuSans-6d" x="85.742188"/>
      <use xlink:href="#DejaVuSans-65" x="183.154297"/>
      <use xlink:href="#DejaVuSans-20" x="244.677734"/>
      <use xlink:href="#DejaVuSans-28" x="276.464844"/>
      <use xlink:href="#DejaVuSans-73" x="315.478516"/>
      <use xlink:href="#DejaVuSans-29" x="367.578125"/>
     </g>
    </g>
   </g>
   <g id="matplotlib.axis_2">
    <g id="ytick_1">
     <g id="line2d_8">
      <defs>
       <path id="mf61ec7a140" d="M 0 0 
L -3.5 0 
" style="stroke: #000000; stroke-width: 0.8"/>
      </defs>
      <g>
       <use xlink:href="#mf61ec7a140" x="71.22" y="652.92" style="stroke: #000000; stroke-width: 0.8"/>
      </g>
     </g>
     <g id="text_9">
      <!-- 0 -->
      <g transform="translate(55.3125 658.238906) scale(0.14 -0.14)">
       <use xlink:href="#DejaVuSans-30"/>
      </g>
     </g>
    </g>
    <g id="ytick_2">
     <g id="line2d_9">
      <g>
       <use xlink:href="#mf61ec7a140" x="71.22" y="578.724329" style="stroke: #000000; stroke-width: 0.8"/>
      </g>
     </g>
     <g id="text_10">
      <!-- 10 -->
      <g transform="translate(46.405 584.043235) scale(0.14 -0.14)">
       <use xlink:href="#DejaVuSans-31"/>
       <use xlink:href="#DejaVuSans-30" x="63.623047"/>
      </g>
     </g>
    </g>
    <g id="ytick_3">
     <g id="line2d_10">
      <g>
       <use xlink:href="#mf61ec7a140" x="71.22" y="504.528657" style="stroke: #000000; stroke-width: 0.8"/>
      </g>
     </g>
     <g id="text_11">
      <!-- 20 -->
      <g transform="translate(46.405 509.847563) scale(0.14 -0.14)">
       <use xlink:href="#DejaVuSans-32"/>
       <use xlink:href="#DejaVuSans-30" x="63.623047"/>
      </g>
     </g>
    </g>
    <g id="ytick_4">
     <g id="line2d_11">
      <g>
       <use xlink:href="#mf61ec7a140" x="71.22" y="430.332986" style="stroke: #000000; stroke-width: 0.8"/>
      </g>
     </g>
     <g id="text_12">
      <!-- 30 -->
      <g transform="translate(46.405 435.651892) scale(0.14 -0.14)">
       <use xlink:href="#DejaVuSans-33"/>
       <use xlink:href="#DejaVuSans-30" x="63.623047"/>
      </g>
     </g>
    </g>
    <g id="ytick_5">
     <g id="line2d_12">
      <g>
       <use xlink:href="#mf61ec7a140" x="71.22" y="356.137314" style="stroke: #000000; stroke-width: 0.8"/>
      </g>
     </g>
     <g id="text_13">
      <!-- 40 -->
      <g transform="translate(46.405 361.456221) scale(0.14 -0.14)">
       <use xlink:href="#DejaVuSans-34"/>
       <use xlink:href="#DejaVuSans-30" x="63.623047"/>
      </g>
     </g>
    </g>
    <g id="ytick_6">
     <g id="line2d_13">
      <g>
       <use xlink:href="#mf61ec7a140" x="71.22" y="281.941643" style="stroke: #000000; stroke-width: 0.8"/>
      </g>
     </g>
     <g id="text_14">
      <!-- 50 -->
      <g transform="translate(46.405 287.260549) scale(0.14 -0.14)">
       <use xlink:href="#DejaVuSans-35"/>
       <use xlink:href="#DejaVuSans-30" x="63.623047"/>
      </g>
     </g>
    </g>
    <g id="ytick_7">
     <g id="line2d_14">
      <g>
       <use xlink:href="#mf61ec7a140" x="71.22" y="207.745971" style="stroke: #000000; stroke-width: 0.8"/>
      </g>
     </g>
     <g id="text_15">
      <!-- 60 -->
      <g transform="translate(46.405 213.064878) scale(0.14 -0.14)">
       <use xlink:href="#DejaVuSans-36"/>
       <use xlink:href="#DejaVuSans-30" x="63.623047"/>
      </g>
     </g>
    </g>
    <g id="ytick_8">
     <g id="line2d_15">
      <g>
       <use xlink:href="#mf61ec7a140" x="71.22" y="133.5503" style="stroke: #000000; stroke-width: 0.8"/>
      </g>
     </g>
     <g id="text_16">
      <!-- 70 -->
      <g transform="translate(46.405 138.869206) scale(0.14 -0.14)">
       <defs>
        <path id="DejaVuSans-37" d="M 525 4666 
L 3525 4666 
L 3525 4397 
L 1831 0 
L 1172 0 
L 2766 4134 
L 525 4134 
L 525 4666 
z
" transform="scale(0.015625)"/>
       </defs>
       <use xlink:href="#DejaVuSans-37"/>
       <use xlink:href="#DejaVuSans-30" x="63.623047"/>
      </g>
     </g>
    </g>
    <g id="ytick_9">
     <g id="line2d_16">
      <g>
       <use xlink:href="#mf61ec7a140" x="71.22" y="59.354629" style="stroke: #000000; stroke-width: 0.8"/>
      </g>
     </g>
     <g id="text_17">
      <!-- 80 -->
      <g transform="translate(46.405 64.673535) scale(0.14 -0.14)">
       <defs>
        <path id="DejaVuSans-38" d="M 2034 2216 
Q 1584 2216 1326 1975 
Q 1069 1734 1069 1313 
Q 1069 891 1326 650 
Q 1584 409 2034 409 
Q 2484 409 2743 651 
Q 3003 894 3003 1313 
Q 3003 1734 2745 1975 
Q 2488 2216 2034 2216 
z
M 1403 2484 
Q 997 2584 770 2862 
Q 544 3141 544 3541 
Q 544 4100 942 4425 
Q 1341 4750 2034 4750 
Q 2731 4750 3128 4425 
Q 3525 4100 3525 3541 
Q 3525 3141 3298 2862 
Q 3072 2584 2669 2484 
Q 3125 2378 3379 2068 
Q 3634 1759 3634 1313 
Q 3634 634 3220 271 
Q 2806 -91 2034 -91 
Q 1263 -91 848 271 
Q 434 634 434 1313 
Q 434 1759 690 2068 
Q 947 2378 1403 2484 
z
M 1172 3481 
Q 1172 3119 1398 2916 
Q 1625 2713 2034 2713 
Q 2441 2713 2670 2916 
Q 2900 3119 2900 3481 
Q 2900 3844 2670 4047 
Q 2441 4250 2034 4250 
Q 1625 4250 1398 4047 
Q 1172 3844 1172 3481 
z
" transform="scale(0.015625)"/>
       </defs>
       <use xlink:href="#DejaVuSans-38"/>
       <use xlink:href="#DejaVuSans-30" x="63.623047"/>
      </g>
     </g>
    </g>
    <g id="text_18">
     <!-- Packets per Second -->
     <g transform="translate(39.285469 423.207969) rotate(-90) scale(0.15 -0.15)">
      <defs>
       <path id="DejaVuSans-50" d="M 1259 4147 
L 1259 2394 
L 2053 2394 
Q 2494 2394 2734 2622 
Q 2975 2850 2975 3272 
Q 2975 3691 2734 3919 
Q 2494 4147 2053 4147 
L 1259 4147 
z
M 628 4666 
L 2053 4666 
Q 2838 4666 3239 4311 
Q 3641 3956 3641 3272 
Q 3641 2581 3239 2228 
Q 2838 1875 2053 1875 
L 1259 1875 
L 1259 0 
L 628 0 
L 628 4666 
z
" transform="scale(0.015625)"/>
       <path id="DejaVuSans-61" d="M 2194 1759 
Q 1497 1759 1228 1600 
Q 959 1441 959 1056 
Q 959 750 1161 570 
Q 1363 391 1709 391 
Q 2188 391 2477 730 
Q 2766 1069 2766 1631 
L 2766 1759 
L 2194 1759 
z
M 3341 1997 
L 3341 0 
L 2766 0 
L 2766 531 
Q 2569 213 2275 61 
Q 1981 -91 1556 -91 
Q 1019 -91 701 211 
Q 384 513 384 1019 
Q 384 1609 779 1909 
Q 1175 2209 1959 2209 
L 2766 2209 
L 2766 2266 
Q 2766 2663 2505 2880 
Q 2244 3097 1772 3097 
Q 1472 3097 1187 3025 
Q 903 2953 641 2809 
L 641 3341 
Q 956 3463 1253 3523 
Q 1550 3584 1831 3584 
Q 2591 3584 2966 3190 
Q 3341 2797 3341 1997 
z
" transform="scale(0.015625)"/>
       <path id="DejaVuSans-63" d="M 3122 3366 
L 3122 2828 
Q 2878 2963 2633 3030 
Q 2388 3097 2138 3097 
Q 1578 3097 1268 2742 
Q 959 2388 959 1747 
Q 959 1106 1268 751 
Q 1578 397 2138 397 
Q 2388 397 2633 464 
Q 2878 531 3122 666 
L 3122 134 
Q 2881 22 2623 -34 
Q 2366 -91 2075 -91 
Q 1284 -91 818 406 
Q 353 903 353 1747 
Q 353 2603 823 3093 
Q 1294 3584 2113 3584 
Q 2378 3584 2631 3529 
Q 2884 3475 3122 3366 
z
" transform="scale(0.015625)"/>
       <path id="DejaVuSans-6b" d="M 581 4863 
L 1159 4863 
L 1159 1991 
L 2875 3500 
L 3609 3500 
L 1753 1863 
L 3688 0 
L 2938 0 
L 1159 1709 
L 1159 0 
L 581 0 
L 581 4863 
z
" transform="scale(0.015625)"/>
       <path id="DejaVuSans-74" d="M 1172 4494 
L 1172 3500 
L 2356 3500 
L 2356 3053 
L 1172 3053 
L 1172 1153 
Q 1172 725 1289 603 
Q 1406 481 1766 481 
L 2356 481 
L 2356 0 
L 1766 0 
Q 1100 0 847 248 
Q 594 497 594 1153 
L 594 3053 
L 172 3053 
L 172 3500 
L 594 3500 
L 594 4494 
L 1172 4494 
z
" transform="scale(0.015625)"/>
       <path id="DejaVuSans-70" d="M 1159 525 
L 1159 -1331 
L 581 -1331 
L 581 3500 
L 1159 3500 
L 1159 2969 
Q 1341 3281 1617 3432 
Q 1894 3584 2278 3584 
Q 2916 3584 3314 3078 
Q 3713 2572 3713 1747 
Q 3713 922 3314 415 
Q 2916 -91 2278 -91 
Q 1894 -91 1617 61 
Q 1341 213 1159 525 
z
M 3116 1747 
Q 3116 2381 2855 2742 
Q 2594 3103 2138 3103 
Q 1681 3103 1420 2742 
Q 1159 2381 1159 1747 
Q 1159 1113 1420 752 
Q 1681 391 2138 391 
Q 2594 391 2855 752 
Q 3116 1113 3116 1747 
z
" transform="scale(0.015625)"/>
       <path id="DejaVuSans-72" d="M 2631 2963 
Q 2534 3019 2420 3045 
Q 2306 3072 2169 3072 
Q 1681 3072 1420 2755 
Q 1159 2438 1159 1844 
L 1159 0 
L 581 0 
L 581 3500 
L 1159 3500 
L 1159 2956 
Q 1341 3275 1631 3429 
Q 1922 3584 2338 3584 
Q 2397 3584 2469 3576 
Q 2541 3569 2628 3553 
L 2631 2963 
z
" transform="scale(0.015625)"/>
       <path id="DejaVuSans-53" d="M 3425 4513 
L 3425 3897 
Q 3066 4069 2747 4153 
Q 2428 4238 2131 4238 
Q 1616 4238 1336 4038 
Q 1056 3838 1056 3469 
Q 1056 3159 1242 3001 
Q 1428 2844 1947 2747 
L 2328 2669 
Q 3034 2534 3370 2195 
Q 3706 1856 3706 1288 
Q 3706 609 3251 259 
Q 2797 -91 1919 -91 
Q 1588 -91 1214 -16 
Q 841 59 441 206 
L 441 856 
Q 825 641 1194 531 
Q 1563 422 1919 422 
Q 2459 422 2753 634 
Q 3047 847 3047 1241 
Q 3047 1584 2836 1778 
Q 2625 1972 2144 2069 
L 1759 2144 
Q 1053 2284 737 2584 
Q 422 2884 422 3419 
Q 422 4038 858 4394 
Q 1294 4750 2059 4750 
Q 2388 4750 2728 4690 
Q 3069 4631 3425 4513 
z
" transform="scale(0.015625)"/>
       <path id="DejaVuSans-6f" d="M 1959 3097 
Q 1497 3097 1228 2736 
Q 959 2375 959 1747 
Q 959 1119 1226 758 
Q 1494 397 1959 397 
Q 2419 397 2687 759 
Q 2956 1122 2956 1747 
Q 2956 2369 2687 2733 
Q 2419 3097 1959 3097 
z
M 1959 3584 
Q 2709 3584 3137 3096 
Q 3566 2609 3566 1747 
Q 3566 888 3137 398 
Q 2709 -91 1959 -91 
Q 1206 -91 779 398 
Q 353 888 353 1747 
Q 353 2609 779 3096 
Q 1206 3584 1959 3584 
z
" transform="scale(0.015625)"/>
       <path id="DejaVuSans-6e" d="M 3513 2113 
L 3513 0 
L 2938 0 
L 2938 2094 
Q 2938 2591 2744 2837 
Q 2550 3084 2163 3084 
Q 1697 3084 1428 2787 
Q 1159 2491 1159 1978 
L 1159 0 
L 581 0 
L 581 3500 
L 1159 3500 
L 1159 2956 
Q 1366 3272 1645 3428 
Q 1925 3584 2291 3584 
Q 2894 3584 3203 3211 
Q 3513 2838 3513 2113 
z
" transform="scale(0.015625)"/>
       <path id="DejaVuSans-64" d="M 2906 2969 
L 2906 4863 
L 3481 4863 
L 3481 0 
L 2906 0 
L 2906 525 
Q 2725 213 2448 61 
Q 2172 -91 1784 -91 
Q 1150 -91 751 415 
Q 353 922 353 1747 
Q 353 2572 751 3078 
Q 1150 3584 1784 3584 
Q 2172 3584 2448 3432 
Q 2725 3281 2906 2969 
z
M 947 1747 
Q 947 1113 1208 752 
Q 1469 391 1925 391 
Q 2381 391 2643 752 
Q 2906 1113 2906 1747 
Q 2906 2381 2643 2742 
Q 2381 3103 1925 3103 
Q 1469 3103 1208 2742 
Q 947 2381 947 1747 
z
" transform="scale(0.015625)"/>
      </defs>
      <use xlink:href="#DejaVuSans-50"/>
      <use xlink:href="#DejaVuSans-61" x="55.802734"/>
      <use xlink:href="#DejaVuSans-63" x="117.082031"/>
      <use xlink:href="#DejaVuSans-6b" x="172.0625"/>
      <use xlink:href="#DejaVuSans-65" x="226.347656"/>
      <use xlink:href="#DejaVuSans-74" x="287.871094"/>
      <use xlink:href="#DejaVuSans-73" x="327.080078"/>
      <use xlink:href="#DejaVuSans-20" x="379.179688"/>
      <use xlink:href="#DejaVuSans-70" x="410.966797"/>
      <use xlink:href="#DejaVuSans-65" x="474.443359"/>
      <use xlink:href="#DejaVuSans-72" x="535.966797"/>
      <use xlink:href="#DejaVuSans-20" x="577.080078"/>
      <use xlink:href="#DejaVuSans-53" x="608.867188"/>
      <use xlink:href="#DejaVuSans-65" x="672.34375"/>
      <use xlink:href="#DejaVuSans-63" x="733.867188"/>
      <use xlink:href="#DejaVuSans-6f" x="788.847656"/>
      <use xlink:href="#DejaVuSans-6e" x="850.029297"/>
      <use xlink:href="#DejaVuSans-64" x="913.408203"/>
     </g>
    </g>
   </g>
   <g id="line2d_17">
    <path d="M 71.22 208.257688 
L 72.866578 183.760805 
L 74.043193 215.219923 
L 75.098053 164.698736 
L 76.510016 288.176206 
L 77.923368 167.073021 
L 79.099429 215.013382 
L 80.394496 255.253477 
L 81.452615 166.202698 
L 82.748168 255.402905 
L 85.335369 166.262633 
L 86.6293 254.904308 
L 87.805274 214.981112 
L 88.983342 215.759285 
L 90.394588 166.347886 
L 91.571377 215.284708 
L 92.747701 215.111142 
L 94.042498 255.170812 
L 95.218981 215.170255 
L 96.630343 227.204364 
L 98.042789 166.761368 
L 99.279153 166.94752 
L 100.572758 254.804145 
L 101.749534 215.279562 
L 103.160717 227.15035 
L 104.454859 188.644192 
L 105.630674 214.921879 
L 106.689522 166.537815 
L 107.866347 215.297967 
L 109.160568 254.993329 
L 110.57163 166.284649 
L 111.865347 122.144656 
L 113.160382 255.243605 
L 114.571328 166.24451 
L 115.748626 288.3814 
L 117.042337 188.489299 
L 118.336408 254.947308 
L 120.925801 167.042004 
L 122.101958 215.049076 
L 123.278957 215.362483 
L 124.572773 254.869018 
L 125.984169 227.214616 
L 127.163112 143.27809 
L 128.339243 288.019552 
L 129.51618 142.4095 
L 130.810214 254.93594 
L 131.987216 69.511554 
L 133.163626 288.106183 
L 134.457384 188.506367 
L 135.871138 167.211039 
L 137.047357 288.047094 
L 138.224575 142.530998 
L 139.400742 215.053099 
L 140.930032 203.905574 
L 142.105968 287.959229 
L 143.282374 142.178953 
L 144.811676 203.909334 
L 145.988285 215.217496 
L 147.283447 255.282426 
L 148.696916 227.839219 
L 149.992191 189.050214 
L 151.168727 215.190262 
L 152.580905 166.668844 
L 153.757635 215.262425 
L 155.051682 254.940121 
L 156.465442 167.213273 
L 157.641746 215.103883 
L 158.937129 255.350413 
L 160.114666 215.562624 
L 161.055441 105.493642 
L 162.468266 166.891799 
L 163.645679 288.416927 
L 164.821914 142.104704 
L 165.99798 287.999294 
L 167.292623 188.823779 
L 168.35394 167.669517 
L 169.647752 254.8679 
L 171.060102 166.728169 
L 172.354982 255.196092 
L 173.415783 167.43317 
L 174.946121 204.213321 
L 176.124386 215.832488 
L 177.418722 255.028977 
L 178.598978 216.56993 
L 179.892524 188.430148 
L 181.068717 215.062664 
L 182.599697 204.401376 
L 183.893689 188.590606 
L 184.952464 247.573452 
L 186.128725 142.115938 
L 187.425162 255.673932 
L 188.601582 215.146984 
L 189.778513 215.337223 
L 192.13189 215.215624 
L 193.428706 123.413064 
L 194.605761 215.38362 
L 195.900061 255.017693 
L 197.076667 215.216321 
L 198.252694 215.000847 
L 199.664862 227.447335 
L 200.842415 215.568454 
L 202.019759 215.49074 
L 203.196789 142.449566 
L 204.373796 215.365661 
L 205.785037 166.345823 
L 206.961799 215.274511 
L 208.25668 255.19632 
L 209.671448 167.559254 
L 210.847395 214.970888 
L 212.023271 287.940748 
L 213.200305 215.375298 
L 214.376373 215.016023 
L 215.613373 97.808667 
L 216.907385 188.597667 
L 218.084649 215.46071 
L 219.380347 255.447362 
L 220.556822 215.167397 
L 221.733008 215.060213 
L 223.143412 166.057243 
L 224.321824 215.887198 
L 225.852084 260.281499 
L 227.029841 142.76494 
L 228.207808 215.72189 
L 229.384547 215.265833 
L 230.561644 215.399057 
L 231.857083 255.367824 
L 233.268019 166.240886 
L 234.445051 288.299035 
L 235.38814 106.83693 
L 236.565459 142.575071 
L 237.858949 254.768471 
L 239.272131 227.752805 
L 240.801388 203.896029 
L 241.979916 215.930342 
L 243.155377 141.767938 
L 244.450159 255.166036 
L 245.861839 166.497402 
L 247.037954 288.014725 
L 248.214277 142.142834 
L 249.50862 255.031075 
L 250.684853 215.077732 
L 251.861367 215.182019 
L 253.276137 167.559893 
L 254.571198 255.251502 
L 255.631019 166.984353 
L 257.042103 227.120652 
L 258.219444 215.489613 
L 259.278064 85.352093 
L 260.572377 255.021904 
L 261.983544 166.320358 
L 263.278364 255.177646 
L 264.587275 128.30626 
L 265.882688 255.359634 
L 267.176668 254.919342 
L 268.474592 123.865479 
L 269.888491 288.675438 
L 270.94697 166.368498 
L 272.24213 255.282092 
L 273.655372 167.035063 
L 274.949573 254.987432 
L 276.364672 228.328432 
L 277.422425 166.034538 
L 278.720808 190.160766 
L 279.899981 216.169037 
L 281.075669 214.874419 
L 282.253202 215.561047 
L 283.429799 215.213012 
L 284.723726 122.231001 
L 285.900408 215.244401 
L 287.077484 215.391132 
L 288.313754 236.340454 
L 289.607262 254.774308 
L 292.195903 166.188028 
L 293.490746 255.184892 
L 294.901505 166.179702 
L 296.079355 215.678606 
L 297.377957 256.336101 
L 298.675791 123.828615 
L 300.205269 203.960796 
L 301.382888 215.592819 
L 302.558785 214.952572 
L 303.854733 255.523711 
L 305.035479 216.751183 
L 306.21099 214.808422 
L 307.390443 216.272968 
L 308.683789 121.992362 
L 309.975786 254.308823 
L 311.153194 215.51437 
L 312.329343 215.046178 
L 313.740382 166.276446 
L 314.916138 214.89987 
L 316.211929 255.475779 
L 317.627921 228.596336 
L 318.685985 85.053725 
L 319.744538 166.402519 
L 321.040303 255.467692 
L 322.333976 254.824858 
L 323.512251 215.836312 
L 324.922535 226.879164 
L 326.451187 147.568132 
L 327.630417 216.190357 
L 328.806742 215.111607 
L 329.983016 215.092722 
L 331.160325 288.384849 
L 332.33667 142.152473 
L 333.514887 215.81497 
L 334.690069 214.685951 
L 336.102983 166.922175 
L 337.399851 255.805782 
L 338.810424 166.115811 
L 339.988374 215.71554 
L 341.166029 215.606111 
L 342.460859 255.181001 
L 343.520709 166.997428 
L 344.695437 214.516724 
L 345.870988 214.823611 
L 347.283545 166.799297 
L 348.458852 287.763871 
L 349.63674 142.821268 
L 351.047987 166.34836 
L 352.225224 215.450797 
L 353.754683 203.955529 
L 354.93261 288.576087 
L 356.11156 143.280966 
L 357.641187 204.004663 
L 359.170979 204.052923 
L 360.348389 215.515423 
L 361.64276 255.039717 
L 362.823747 216.83992 
L 363.999402 214.862138 
L 365.175778 215.130749 
L 366.531636 209.777384 
L 367.826164 188.782542 
L 369.237778 227.280348 
L 370.413876 142.045057 
L 371.591497 215.593717 
L 372.887538 255.552266 
L 374.298246 227.006861 
L 375.826521 147.443574 
L 377.004079 288.461943 
L 378.298978 188.915349 
L 379.474279 214.730467 
L 380.889346 167.66164 
L 382.065442 288.008939 
L 383.243175 215.635283 
L 384.300294 84.546047 
L 385.478971 215.98522 
L 386.771635 254.51416 
L 388.06753 123.037176 
L 389.361324 254.862028 
L 390.777753 168.128476 
L 392.071766 254.929643 
L 393.486631 167.592348 
L 394.782099 255.376409 
L 396.193641 166.449918 
L 397.487383 254.846423 
L 398.782855 255.377704 
L 400.194966 166.64587 
L 401.490381 255.360401 
L 402.550509 167.125327 
L 403.610248 166.946658 
L 404.786374 215.037856 
L 406.083939 256.019014 
L 408.674273 166.740196 
L 409.851174 288.258531 
L 411.147492 189.423195 
L 412.442642 122.731946 
L 413.736781 254.968621 
L 414.799921 249.237534 
L 415.862458 87.444492 
L 417.03817 214.88338 
L 418.331573 254.742083 
L 419.509823 215.827059 
L 420.567169 165.846912 
L 422.099904 204.914856 
L 423.278248 215.86193 
L 424.570159 254.282003 
L 425.633134 168.426668 
L 426.811488 215.865483 
L 427.993028 217.044158 
L 429.410752 229.114603 
L 430.588163 142.615277 
L 431.764666 215.177672 
L 433.297288 204.88207 
L 434.594814 256.007294 
L 436.00492 165.954219 
L 437.297822 254.587585 
L 438.358838 167.531797 
L 439.652684 254.87825 
L 440.717259 169.154508 
L 442.128209 166.245619 
L 443.304636 288.111664 
L 444.836961 204.794868 
L 446.014916 215.717914 
L 447.189556 214.483586 
L 448.48351 188.576633 
L 449.897276 227.928474 
L 451.191382 188.630953 
L 452.257141 169.692177 
L 453.668545 166.402045 
L 454.960677 254.350236 
L 456.139507 216.042361 
L 457.553754 228.072691 
L 458.729451 141.870835 
L 459.905567 215.034191 
L 461.437104 204.564471 
L 462.614265 215.4228 
L 463.791526 215.459756 
L 465.085152 254.810518 
L 466.263807 215.977355 
L 467.324318 167.300697 
L 468.500834 215.182772 
L 469.91123 166.054507 
L 471.208501 255.929102 
L 472.62023 166.514291 
L 473.913955 254.841005 
L 475.324344 226.910898 
L 476.857585 149.080518 
L 478.03474 215.420453 
L 479.563672 203.800616 
L 480.85742 254.847972 
L 482.036572 216.161487 
L 483.218833 217.309968 
L 484.281882 168.459959 
L 485.695199 227.793457 
L 486.990771 189.156358 
L 488.289348 256.32848 
L 489.587489 190.074225 
L 490.767236 216.381801 
L 492.061199 188.579908 
L 493.237696 215.175705 
L 494.653479 167.907217 
L 495.951764 256.239235 
L 497.134523 217.493499 
L 498.312668 215.787947 
L 499.370783 166.200809 
L 500.785396 167.506039 
L 502.082589 255.905293 
L 503.495556 166.940654 
L 504.787225 254.207229 
L 505.962043 214.550065 
L 507.024132 168.022383 
L 508.436363 227.466173 
L 509.613859 142.651981 
L 510.79062 215.273853 
L 512.082885 254.391165 
L 513.143916 167.538645 
L 514.556476 166.800602 
L 515.731317 214.558542 
L 517.027368 255.555451 
L 518.086853 166.830289 
L 519.383887 255.85679 
L 520.794782 166.226596 
L 522.087048 254.391608 
L 523.262533 214.798945 
L 524.441169 215.970107 
L 525.615545 214.385476 
L 526.91243 255.810781 
L 528.206244 122.184627 
L 529.383108 215.312111 
L 530.557489 214.387321 
L 531.851485 254.924302 
L 533.148858 123.640343 
L 534.326817 215.719065 
L 535.503246 215.15048 
L 536.918837 289.111011 
L 537.98419 169.507864 
L 539.284446 124.813982 
L 540.458344 214.20661 
L 541.635038 215.249099 
L 542.930531 255.384172 
L 544.342056 166.443981 
L 545.520049 288.5967 
L 546.92966 165.78324 
L 548.109615 216.458729 
L 549.404734 188.994318 
L 550.581303 215.2027 
L 551.874641 254.721792 
L 553.286468 166.548193 
L 554.464643 288.652768 
L 555.756792 187.928012 
L 557.054016 123.579737 
L 558.111461 247.063815 
L 559.523405 227.379754 
L 560.702281 216.059222 
L 561.877761 214.796832 
L 563.294209 168.134831 
L 564.827617 205.1118 
L 566.002381 287.594759 
L 567.066246 168.831738 
L 568.477305 227.112975 
L 569.535584 166.276297 
L 570.947674 227.424005 
L 572.245237 189.868152 
L 573.420104 214.568362 
L 574.717972 256.111761 
L 576.012176 122.344452 
L 577.305892 254.838232 
L 578.719928 167.307823 
L 579.895492 287.843542 
L 581.19124 189.219887 
L 582.368024 215.282333 
L 583.546725 215.99438 
L 584.84356 123.420825 
L 586.374818 204.482874 
L 587.669283 255.068722 
L 588.850891 217.068973 
L 590.262431 166.449228 
L 591.558664 255.611332 
L 592.970103 166.414272 
L 594.147144 288.301841 
L 595.43919 187.890857 
L 596.971857 204.895273 
L 598.14935 215.546055 
L 599.325546 215.063797 
L 600.508197 217.453483 
L 601.917175 165.564632 
L 603.328921 227.320205 
L 604.507484 215.94294 
L 605.916379 226.458972 
L 606.979048 168.286776 
L 608.160685 217.079824 
L 609.570334 165.796737 
L 610.868576 256.226004 
L 612.279499 227.07204 
L 613.806799 203.320767 
L 615.337417 148.217019 
L 616.634769 255.953826 
L 617.926929 254.359021 
L 619.225455 124.11023 
L 620.401426 287.970147 
L 621.697405 189.302307 
L 622.870485 213.900533 
L 624.046724 215.079859 
L 625.461632 228.271384 
L 626.637351 214.886185 
L 627.812387 141.583368 
L 629.226136 227.923153 
L 630.404226 142.908862 
L 631.581168 215.341464 
L 632.756351 214.686059 
L 634.171879 228.457459 
L 635.465405 188.422965 
L 636.640976 214.831091 
L 638.050585 165.782544 
L 639.344795 254.990178 
L 640.525535 216.748931 
L 641.705979 216.639343 
L 643.114257 165.322469 
L 644.41227 256.156145 
L 645.470156 247.233034 
L 646.765028 188.905802 
L 647.828252 168.539829 
L 649.359943 204.609577 
L 650.655472 255.395383 
L 651.829646 214.309549 
L 652.888887 166.718616 
L 654.299159 166.011686 
L 655.47793 216.020233 
L 657.006261 259.785935 
L 658.538088 148.615621 
L 659.713485 214.766061 
L 660.897917 218.108669 
L 662.188383 253.835452 
L 663.365804 215.519454 
L 664.897708 204.671993 
L 665.959016 248.540834 
L 667.134773 141.897118 
L 668.31183 215.384071 
L 669.728586 168.24033 
L 670.904984 215.138684 
L 672.437851 204.953563 
L 673.614898 215.380614 
L 675.144081 203.874349 
L 676.439428 255.339243 
L 677.612988 214.080354 
L 678.909111 123.130181 
L 680.084201 287.696186 
L 681.734422 236.81041 
L 682.793383 166.589478 
L 683.970799 142.617072 
L 685.264922 254.963577 
L 687.851251 166.680702 
L 689.030015 216.017514 
L 690.561812 204.640696 
L 691.736475 214.492179 
L 693.030418 254.908055 
L 694.211506 216.877555 
L 695.388157 215.23289 
L 696.803081 167.612645 
L 698.095228 254.354957 
L 699.392606 123.64241 
L 700.686581 254.917808 
L 702.106261 169.238563 
L 703.28696 289.43138 
L 704.463271 142.137991 
L 705.641324 215.753781 
L 706.816038 214.511263 
L 708.170753 272.762759 
L 709.522981 145.111587 
L 710.586091 168.487825 
L 711.763481 288.409768 
L 712.772644 142.591155 
L 714.186585 227.981074 
L 715.716183 203.996049 
L 717.009164 254.611927 
L 718.193083 217.919991 
L 719.371802 216.001057 
L 720.724431 145.262115 
L 721.84623 193.831675 
L 723.022895 215.238303 
L 724.203322 216.633054 
L 725.260211 165.636244 
L 726.78664 203.064203 
L 727.908382 193.808579 
L 729.086118 215.636073 
L 730.616995 204.371254 
L 731.911573 255.103489 
L 733.089281 215.625734 
L 734.262498 213.951922 
L 735.677277 228.232654 
L 736.968056 187.434626 
L 738.144736 215.243828 
L 739.322198 215.53462 
L 740.498285 215.02294 
L 741.917949 229.694048 
L 743.096921 216.094665 
L 744.271451 141.36325 
L 745.686587 167.685263 
L 746.863696 215.403327 
L 748.041634 215.711508 
L 749.334126 254.461244 
L 750.514727 216.69742 
L 751.93781 230.710532 
L 752.994562 165.573197 
L 754.174032 143.505822 
L 755.584411 287.766546 
L 756.764252 216.416592 
L 757.942748 70.251085 
L 759.176102 235.355472 
L 760.470158 254.942814 
L 761.650494 216.59958 
L 763.061523 166.273059 
L 764.357242 255.453654 
L 765.541303 217.971927 
L 766.714861 214.079662 
L 768.13045 228.475615 
L 769.306454 142.004063 
L 770.479822 214.00867 
L 771.777143 255.944356 
L 771.777143 255.944356 
" clip-path="url(#p4f672413e9)" style="fill: none; stroke: #1f77b4; stroke-width: 1.5; stroke-linecap: square"/>
   </g>
   <g id="line2d_18">
    <path d="M 71.22 207.951481 
L 806.805 207.951481 
" clip-path="url(#p4f672413e9)" style="fill: none; stroke-dasharray: 5.55,2.4; stroke-dashoffset: 0; stroke: #0000ff; stroke-width: 1.5"/>
   </g>
   <g id="line2d_19">
    <path d="M 71.22 430.591356 
L 72.866533 444.399097 
L 74.043195 434.078616 
L 75.097991 327.41952 
L 76.509957 470.548591 
L 77.923305 470.726712 
L 79.099353 360.979268 
L 80.394496 454.098421 
L 81.452562 409.549256 
L 82.748036 454.149078 
L 85.335367 409.602777 
L 86.629218 453.899912 
L 87.805269 433.964789 
L 88.983337 434.339801 
L 90.394488 409.617624 
L 91.571281 434.10278 
L 92.747695 434.032493 
L 94.042411 454.032832 
L 95.218857 434.038432 
L 96.630324 470.484102 
L 98.042681 409.825172 
L 99.279039 375.220216 
L 100.572735 453.875966 
L 101.749421 434.083181 
L 103.160692 470.458686 
L 104.454741 453.930315 
L 105.630654 360.94544 
L 106.689414 409.708702 
L 107.866189 434.099747 
L 109.16043 453.959843 
L 110.571533 409.609191 
L 111.865215 387.525301 
L 113.160234 454.079289 
L 114.571303 409.603414 
L 115.7486 507.104498 
L 117.042306 453.877541 
L 118.336307 387.590659 
L 119.512511 433.993201 
L 120.925767 470.715034 
L 122.101846 360.986691 
L 123.278916 434.154519 
L 124.572735 453.894965 
L 125.984133 470.475094 
L 127.162874 361.646113 
L 128.339203 506.98439 
L 129.516137 361.19896 
L 130.810094 453.916218 
L 131.987168 434.155048 
L 133.163574 434.031045 
L 134.45726 387.526051 
L 135.871086 470.788304 
L 137.047303 433.99589 
L 138.224439 434.166668 
L 139.400686 434.001469 
L 140.929976 428.412792 
L 142.105909 433.943053 
L 143.282232 434.015399 
L 144.81162 372.304114 
L 145.98822 434.066979 
L 147.283303 520.366178 
L 148.696853 410.030429 
L 149.992128 387.851601 
L 151.168582 434.039997 
L 152.580844 409.808935 
L 153.757573 434.090926 
L 155.051618 520.259893 
L 156.465378 410.066448 
L 157.641671 361.039919 
L 158.937054 454.135354 
L 160.114479 434.220262 
L 161.055369 470.466965 
L 162.468042 349.11971 
L 163.645603 507.137072 
L 164.821672 433.968291 
L 165.997899 433.997684 
L 167.292395 387.691914 
L 168.353815 410.318368 
L 169.647629 453.894205 
L 171.059569 470.545092 
L 172.354906 387.864268 
L 173.415708 410.176831 
L 174.946042 484.654581 
L 176.123669 361.370597 
L 177.418189 454.00273 
L 178.598269 434.712286 
L 179.891977 453.878006 
L 181.068632 434.07723 
L 182.598976 428.567493 
L 183.892951 387.58526 
L 184.951904 490.808742 
L 186.128629 361.14697 
L 187.424414 454.197036 
L 188.601004 434.065178 
L 189.77826 434.189016 
L 190.95448 433.996343 
L 192.131093 507.01966 
L 193.42783 388.150334 
L 194.605653 434.294334 
L 195.899276 387.513081 
L 197.076032 434.096072 
L 198.252476 434.038012 
L 199.664061 470.499309 
L 200.841604 434.242169 
L 202.019105 434.234564 
L 203.196676 361.356843 
L 204.372964 434.008996 
L 205.784372 470.476319 
L 206.961688 361.293601 
L 208.255835 453.945392 
L 209.67026 410.180654 
L 210.846702 506.998487 
L 212.023147 434.038266 
L 213.199342 433.991629 
L 214.375888 434.057124 
L 215.612454 375.266798 
L 216.906668 453.955685 
L 218.084525 361.427375 
L 219.379446 454.064367 
L 220.555909 507.001002 
L 221.732272 361.057391 
L 223.143286 409.59386 
L 224.320885 434.252855 
L 225.851333 484.666959 
L 227.02891 434.248794 
L 228.207045 434.352207 
L 229.384415 361.306814 
L 230.560578 433.985806 
L 231.856143 454.163053 
L 233.267225 470.434323 
L 234.444918 434.270116 
L 235.387165 379.634644 
L 236.564656 361.336843 
L 237.858802 520.270123 
L 239.270921 409.784379 
L 240.800389 428.439047 
L 241.979076 434.454508 
L 243.155228 361.005072 
L 244.449026 520.234439 
L 245.860814 348.929146 
L 247.037299 507.003736 
L 248.213399 360.99203 
L 249.507677 453.96561 
L 250.68429 434.069428 
L 251.861201 434.124904 
L 253.274865 410.050004 
L 254.570132 454.11752 
L 255.630122 409.991006 
L 257.041939 470.529185 
L 258.218207 434.005319 
L 259.277219 328.715551 
L 260.571221 453.923021 
L 261.982785 409.68878 
L 263.277187 520.296364 
L 264.586517 390.696979 
L 265.881496 387.791025 
L 267.175912 453.986784 
L 268.473598 388.343946 
L 269.887013 470.735474 
L 270.94634 409.839052 
L 272.241954 454.170644 
L 273.654048 409.780059 
L 274.948405 520.291747 
L 276.363678 410.32619 
L 277.42225 409.665571 
L 278.719609 388.277361 
L 279.898981 434.581414 
L 281.075493 434.050642 
L 283.428584 434.066762 
L 284.722652 387.604326 
L 285.900214 434.245873 
L 287.076228 433.958009 
L 288.312661 514.078376 
L 289.607073 387.674941 
L 290.783842 434.098458 
L 292.194638 409.556411 
L 293.489665 454.080607 
L 294.901304 470.50625 
L 296.077915 361.118839 
L 297.376684 454.653377 
L 298.674696 388.410523 
L 300.205061 484.657967 
L 301.381398 361.050738 
L 302.557863 434.04202 
L 303.853435 454.164203 
L 305.034347 434.8663 
L 306.210791 434.037892 
L 307.388378 434.250629 
L 308.681599 387.430432 
L 309.975365 453.886947 
L 311.152013 507.023961 
L 312.328082 360.984383 
L 313.739548 470.483864 
L 314.91593 434.02652 
L 316.210305 387.66708 
L 317.626549 471.099496 
L 318.684742 328.464495 
L 319.744321 490.904424 
L 321.038348 387.595998 
L 322.332932 454.012598 
L 323.51085 434.311926 
L 324.921303 470.352773 
L 326.450963 372.354061 
L 327.62877 434.291208 
L 328.80531 434.055949 
L 329.982792 434.23107 
L 331.159081 506.979421 
L 332.336258 361.259041 
L 334.689835 506.977278 
L 336.101473 409.701442 
L 337.398381 454.369042 
L 338.8102 409.732602 
L 339.988141 434.316162 
L 341.164309 361.00902 
L 342.459734 454.141604 
L 343.519212 409.873531 
L 344.694125 433.752833 
L 345.870519 434.028724 
L 347.281818 409.643176 
L 348.457659 506.923871 
L 349.635178 361.343824 
L 351.046603 409.664701 
L 352.224982 507.238326 
L 353.754432 428.436279 
L 354.932116 434.268589 
L 356.110088 434.321849 
L 357.640666 372.522366 
L 359.170445 428.484613 
L 360.346683 433.999654 
L 361.641596 454.063131 
L 362.822325 434.832431 
L 363.998958 434.073125 
L 365.175529 434.061679 
L 366.529673 462.761183 
L 367.824837 387.828938 
L 369.236232 470.47475 
L 370.413616 361.310404 
L 371.590028 434.032082 
L 372.885493 454.147856 
L 374.296998 470.488911 
L 375.826255 372.279925 
L 377.002272 506.945713 
L 378.297449 387.831663 
L 379.47401 434.059631 
L 380.88781 410.073532 
L 382.065176 507.112907 
L 383.241616 434.037323 
L 384.300027 328.531542 
L 385.477501 434.229501 
L 386.771328 520.237388 
L 388.065369 387.598802 
L 389.359586 387.635012 
L 390.776226 471.150167 
L 392.07148 454.115442 
L 393.484619 349.219766 
L 394.780352 454.188962 
L 396.192089 409.718576 
L 397.487106 520.359416 
L 398.781042 387.577249 
L 400.193288 409.806194 
L 401.490098 520.54263 
L 402.548632 328.569075 
L 403.60859 409.983688 
L 404.784792 433.992915 
L 406.08364 454.665544 
L 407.260042 434.03028 
L 408.672659 470.632532 
L 409.850888 434.369652 
L 411.145607 454.033239 
L 412.44096 321.604614 
L 413.735151 453.952142 
L 414.799618 491.648478 
L 415.860273 329.217626 
L 417.036616 434.019207 
L 418.331026 453.985893 
L 419.508175 434.168956 
L 420.566862 409.692123 
L 422.097959 428.677844 
L 423.276284 434.387464 
L 424.568123 453.589879 
L 425.63281 411.062506 
L 426.80919 434.026137 
L 427.991423 435.109948 
L 429.410215 471.425882 
L 430.586405 361.014328 
L 431.764339 434.314895 
L 433.29529 428.656406 
L 434.592829 454.46568 
L 436.003157 409.475444 
L 438.356399 490.804651 
L 439.651013 387.716214 
L 440.716706 411.290881 
L 442.126409 470.255732 
L 443.304289 434.304942 
L 444.834901 428.606726 
L 446.012873 434.322046 
L 447.187753 433.746706 
L 448.483163 454.139403 
L 449.894757 409.693923 
L 451.18965 387.773348 
L 452.25655 411.564195 
L 453.666669 409.439566 
L 454.960318 453.868752 
L 456.137378 434.152601 
L 457.551656 470.846657 
L 458.727562 360.943944 
L 459.905198 434.259544 
L 461.434545 484.545936 
L 462.612468 434.3128 
L 463.790917 361.573839 
L 465.083235 453.663861 
L 466.263447 434.736917 
L 467.322109 409.686007 
L 468.498925 434.10734 
L 469.910863 409.753099 
L 471.206267 454.138524 
L 472.617991 470.517273 
L 473.911941 387.580105 
L 475.323959 470.555169 
L 476.85486 372.581504 
L 478.03254 434.267629 
L 479.561708 428.395006 
L 480.857034 454.126507 
L 482.033533 434.048274 
L 483.216899 435.318312 
L 484.281208 410.976917 
L 485.693158 470.546374 
L 486.988706 454.160499 
L 488.287382 388.545932 
L 489.5871 454.798218 
L 490.764449 434.206214 
L 492.058909 387.684753 
L 493.235651 434.093441 
L 494.653084 471.251876 
L 495.948851 387.952214 
L 497.132503 435.37096 
L 498.311999 434.604439 
L 499.368696 409.233916 
L 500.784995 471.10636 
L 502.07975 387.745149 
L 503.49321 470.741285 
L 504.78513 387.163208 
L 505.96163 434.048418 
L 507.021249 409.906034 
L 508.434306 470.689266 
L 509.613169 361.676092 
L 510.788488 433.828626 
L 512.08247 453.920094 
L 513.141444 409.757759 
L 514.554103 409.877194 
L 515.730891 434.102042 
L 517.024625 520.227969 
L 518.084257 328.905103 
L 519.38173 454.455495 
L 520.792555 409.561326 
L 522.085217 453.7168 
L 523.26212 434.123345 
L 524.438651 507.009572 
L 525.615136 361.087373 
L 526.909763 454.01922 
L 528.204128 453.978895 
L 529.38054 361.069454 
L 530.557089 507.011754 
L 531.851082 387.588927 
L 533.146285 454.107689 
L 534.324578 361.535332 
L 535.502809 434.369955 
L 536.916206 470.733129 
L 537.98188 411.286561 
L 539.28179 388.796859 
L 540.457918 433.97921 
L 541.634304 434.027286 
L 542.929671 454.132686 
L 544.341296 409.699269 
L 545.517768 507.002245 
L 546.929219 409.669142 
L 548.106819 434.252906 
L 549.402162 387.865634 
L 550.578972 434.105981 
L 551.873772 454.045765 
L 553.285764 409.762539 
L 554.462219 507.000067 
L 555.756086 387.563147 
L 557.051316 454.111767 
L 558.111023 409.925957 
L 559.522972 470.546349 
L 560.698974 360.967735 
L 561.875495 507.008208 
L 563.293764 410.838548 
L 564.824818 428.671538 
L 566.001647 434.109654 
L 567.063293 410.369836 
L 568.474966 470.510707 
L 569.534872 328.988965 
L 570.946875 470.553243 
L 572.242705 454.203774 
L 573.419584 434.118901 
L 574.714977 387.875846 
L 576.009466 387.690619 
L 577.305399 454.219628 
L 578.716746 470.468526 
L 579.893151 434.030782 
L 581.18868 387.903423 
L 582.365339 434.078074 
L 583.546239 507.549339 
L 584.840406 387.624647 
L 586.371336 372.586671 
L 587.666495 454.100892 
L 588.850377 435.413245 
L 590.261961 409.692151 
L 591.555573 453.863094 
L 592.9672 409.699684 
L 594.144589 507.115754 
L 595.438716 453.942258 
L 596.968353 372.349792 
L 598.146429 434.341224 
L 599.323018 507.016778 
L 600.504897 362.419322 
L 601.916198 470.462595 
L 603.32796 409.722771 
L 604.504271 434.0133 
L 605.915863 409.693566 
L 606.975926 410.007623 
L 608.158313 435.138281 
L 609.569816 409.678163 
L 610.865008 520.377354 
L 612.276574 409.689043 
L 613.80632 428.479764 
L 615.336887 372.520242 
L 616.63198 454.090777 
L 617.926411 520.299349 
L 619.221421 387.797361 
L 620.397721 434.011306 
L 621.69251 387.75206 
L 622.869359 507.048871 
L 624.045521 361.007455 
L 625.457558 470.557706 
L 626.633826 434.005179 
L 627.810967 434.167591 
L 629.222551 409.692161 
L 630.399778 361.271701 
L 631.5775 434.275414 
L 632.755218 434.274875 
L 634.167418 470.578701 
L 635.461465 387.600147 
L 636.637826 434.022507 
L 638.049383 409.687489 
L 639.343606 453.957061 
L 640.524381 434.840877 
L 641.700984 434.067724 
L 643.113071 409.778822 
L 645.466572 490.802157 
L 646.761292 454.033523 
L 647.827074 330.774737 
L 649.356592 484.564798 
L 650.650395 387.550009 
L 651.826782 434.02737 
L 652.886806 409.998798 
L 654.297587 409.553691 
L 655.474068 434.045003 
L 657.004732 484.690728 
L 658.534224 428.442497 
L 659.712255 434.333046 
L 660.892982 434.832002 
L 662.187033 387.600859 
L 663.364009 507.064663 
L 664.8938 372.377937 
L 665.953992 490.998072 
L 667.132995 361.711011 
L 668.310264 434.191389 
L 669.727346 471.20682 
L 670.903777 434.035659 
L 672.433169 428.42786 
L 673.611021 361.426281 
L 675.140187 428.3947 
L 676.434179 453.921518 
L 677.611049 434.117318 
L 678.904943 387.568625 
L 680.082938 507.190806 
L 681.729891 444.452275 
L 682.789508 409.905569 
L 683.965548 433.962808 
L 685.259979 453.989134 
L 686.437738 361.403075 
L 687.850005 409.809823 
L 689.028303 434.382529 
L 690.557752 484.557101 
L 691.735159 361.316138 
L 693.02908 453.910563 
L 694.209912 434.851556 
L 695.386809 434.122211 
L 696.798767 409.756584 
L 698.093901 454.097063 
L 699.38868 387.750077 
L 700.682736 453.931391 
L 702.104944 411.509088 
L 703.282599 507.148813 
L 704.45924 361.126249 
L 705.637105 434.301933 
L 706.814734 434.258339 
L 708.168806 462.751195 
L 709.521292 462.528092 
L 710.581282 409.990878 
L 711.75899 434.272846 
L 712.771313 398.552242 
L 714.182204 409.572716 
L 715.712052 428.49475 
L 717.007776 454.187563 
L 718.19178 435.43573 
L 719.369738 434.319262 
L 720.722719 399.157069 
L 721.84103 499.413298 
L 723.018778 434.280442 
L 724.201643 362.661521 
L 725.256077 408.710889 
L 726.78524 428.394275 
L 727.903696 422.689754 
L 729.081964 507.224579 
L 730.61265 428.617612 
L 731.907963 454.124537 
L 733.084073 360.994534 
L 734.260713 507.022931 
L 735.672956 409.805746 
L 736.966628 387.523146 
L 738.143397 434.098366 
L 740.496525 434.021961 
L 741.916233 471.542965 
L 743.092759 434.053381 
L 744.270092 361.297691 
L 745.681916 409.733489 
L 746.859404 434.232157 
L 748.037507 434.346303 
L 749.332744 454.112759 
L 750.509061 434.014546 
L 751.933554 472.152237 
L 752.992824 409.825688 
L 754.169854 361.22281 
L 755.582981 470.69834 
L 756.759396 434.032581 
L 757.938299 434.494563 
L 759.174081 375.090667 
L 760.468328 453.960771 
L 763.057183 409.759042 
L 764.355498 454.584197 
L 765.537003 434.975592 
L 766.713423 506.995681 
L 768.125623 409.798286 
L 769.302156 434.054621 
L 770.478353 433.992176 
L 771.772302 387.579858 
L 771.772302 387.579858 
" clip-path="url(#p4f672413e9)" style="fill: none; stroke: #ff7f0e; stroke-width: 1.5; stroke-linecap: square"/>
   </g>
   <g id="line2d_20">
    <path d="M 71.22 429.989024 
L 806.805 429.989024 
" clip-path="url(#p4f672413e9)" style="fill: none; stroke-dasharray: 5.55,2.4; stroke-dashoffset: 0; stroke: #ffa500; stroke-width: 1.5"/>
   </g>
   <g id="patch_3">
    <path d="M 71.22 652.92 
L 71.22 46.96 
" style="fill: none; stroke: #000000; stroke-width: 0.8; stroke-linejoin: miter; stroke-linecap: square"/>
   </g>
   <g id="patch_4">
    <path d="M 806.805 652.92 
L 806.805 46.96 
" style="fill: none; stroke: #000000; stroke-width: 0.8; stroke-linejoin: miter; stroke-linecap: square"/>
   </g>
   <g id="patch_5">
    <path d="M 71.22 652.92 
L 806.805 652.92 
" style="fill: none; stroke: #000000; stroke-width: 0.8; stroke-linejoin: miter; stroke-linecap: square"/>
   </g>
   <g id="patch_6">
    <path d="M 71.22 46.96 
L 806.805 46.96 
" style="fill: none; stroke: #000000; stroke-width: 0.8; stroke-linejoin: miter; stroke-linecap: square"/>
   </g>
   <g id="text_19">
    <!-- Observed and Filtered Packet Rates -->
    <g transform="translate(289.890188 40.96) scale(0.168 -0.168)">
     <defs>
      <path id="DejaVuSans-4f" d="M 2522 4238 
Q 1834 4238 1429 3725 
Q 1025 3213 1025 2328 
Q 1025 1447 1429 934 
Q 1834 422 2522 422 
Q 3209 422 3611 934 
Q 4013 1447 4013 2328 
Q 4013 3213 3611 3725 
Q 3209 4238 2522 4238 
z
M 2522 4750 
Q 3503 4750 4090 4092 
Q 4678 3434 4678 2328 
Q 4678 1225 4090 567 
Q 3503 -91 2522 -91 
Q 1538 -91 948 565 
Q 359 1222 359 2328 
Q 359 3434 948 4092 
Q 1538 4750 2522 4750 
z
" transform="scale(0.015625)"/>
      <path id="DejaVuSans-62" d="M 3116 1747 
Q 3116 2381 2855 2742 
Q 2594 3103 2138 3103 
Q 1681 3103 1420 2742 
Q 1159 2381 1159 1747 
Q 1159 1113 1420 752 
Q 1681 391 2138 391 
Q 2594 391 2855 752 
Q 3116 1113 3116 1747 
z
M 1159 2969 
Q 1341 3281 1617 3432 
Q 1894 3584 2278 3584 
Q 2916 3584 3314 3078 
Q 3713 2572 3713 1747 
Q 3713 922 3314 415 
Q 2916 -91 2278 -91 
Q 1894 -91 1617 61 
Q 1341 213 1159 525 
L 1159 0 
L 581 0 
L 581 4863 
L 1159 4863 
L 1159 2969 
z
" transform="scale(0.015625)"/>
      <path id="DejaVuSans-76" d="M 191 3500 
L 800 3500 
L 1894 563 
L 2988 3500 
L 3597 3500 
L 2284 0 
L 1503 0 
L 191 3500 
z
" transform="scale(0.015625)"/>
      <path id="DejaVuSans-46" d="M 628 4666 
L 3309 4666 
L 3309 4134 
L 1259 4134 
L 1259 2759 
L 3109 2759 
L 3109 2228 
L 1259 2228 
L 1259 0 
L 628 0 
L 628 4666 
z
" transform="scale(0.015625)"/>
      <path id="DejaVuSans-6c" d="M 603 4863 
L 1178 4863 
L 1178 0 
L 603 0 
L 603 4863 
z
" transform="scale(0.015625)"/>
      <path id="DejaVuSans-52" d="M 2841 2188 
Q 3044 2119 3236 1894 
Q 3428 1669 3622 1275 
L 4263 0 
L 3584 0 
L 2988 1197 
Q 2756 1666 2539 1819 
Q 2322 1972 1947 1972 
L 1259 1972 
L 1259 0 
L 628 0 
L 628 4666 
L 2053 4666 
Q 2853 4666 3247 4331 
Q 3641 3997 3641 3322 
Q 3641 2881 3436 2590 
Q 3231 2300 2841 2188 
z
M 1259 4147 
L 1259 2491 
L 2053 2491 
Q 2509 2491 2742 2702 
Q 2975 2913 2975 3322 
Q 2975 3731 2742 3939 
Q 2509 4147 2053 4147 
L 1259 4147 
z
" transform="scale(0.015625)"/>
     </defs>
     <use xlink:href="#DejaVuSans-4f"/>
     <use xlink:href="#DejaVuSans-62" x="78.710938"/>
     <use xlink:href="#DejaVuSans-73" x="142.1875"/>
     <use xlink:href="#DejaVuSans-65" x="194.287109"/>
     <use xlink:href="#DejaVuSans-72" x="255.810547"/>
     <use xlink:href="#DejaVuSans-76" x="296.923828"/>
     <use xlink:href="#DejaVuSans-65" x="356.103516"/>
     <use xlink:href="#DejaVuSans-64" x="417.626953"/>
     <use xlink:href="#DejaVuSans-20" x="481.103516"/>
     <use xlink:href="#DejaVuSans-61" x="512.890625"/>
     <use xlink:href="#DejaVuSans-6e" x="574.169922"/>
     <use xlink:href="#DejaVuSans-64" x="637.548828"/>
     <use xlink:href="#DejaVuSans-20" x="701.025391"/>
     <use xlink:href="#DejaVuSans-46" x="732.8125"/>
     <use xlink:href="#DejaVuSans-69" x="783.082031"/>
     <use xlink:href="#DejaVuSans-6c" x="810.865234"/>
     <use xlink:href="#DejaVuSans-74" x="838.648438"/>
     <use xlink:href="#DejaVuSans-65" x="877.857422"/>
     <use xlink:href="#DejaVuSans-72" x="939.380859"/>
     <use xlink:href="#DejaVuSans-65" x="978.244141"/>
     <use xlink:href="#DejaVuSans-64" x="1039.767578"/>
     <use xlink:href="#DejaVuSans-20" x="1103.244141"/>
     <use xlink:href="#DejaVuSans-50" x="1135.03125"/>
     <use xlink:href="#DejaVuSans-61" x="1190.833984"/>
     <use xlink:href="#DejaVuSans-63" x="1252.113281"/>
     <use xlink:href="#DejaVuSans-6b" x="1307.09375"/>
     <use xlink:href="#DejaVuSans-65" x="1361.378906"/>
     <use xlink:href="#DejaVuSans-74" x="1422.902344"/>
     <use xlink:href="#DejaVuSans-20" x="1462.111328"/>
     <use xlink:href="#DejaVuSans-52" x="1493.898438"/>
     <use xlink:href="#DejaVuSans-61" x="1561.130859"/>
     <use xlink:href="#DejaVuSans-74" x="1622.410156"/>
     <use xlink:href="#DejaVuSans-65" x="1661.619141"/>
     <use xlink:href="#DejaVuSans-73" x="1723.142578"/>
    </g>
   </g>
   <g id="legend_1">
    <g id="patch_7">
     <path d="M 816.605 393.13875 
L 1083.440625 393.13875 
Q 1086.240625 393.13875 1086.240625 390.33875 
L 1086.240625 309.54125 
Q 1086.240625 306.74125 1083.440625 306.74125 
L 816.605 306.74125 
Q 813.805 306.74125 813.805 309.54125 
L 813.805 390.33875 
Q 813.805 393.13875 816.605 393.13875 
z
" style="fill: #ffffff; opacity: 0.8; stroke: #cccccc; stroke-linejoin: miter"/>
    </g>
    <g id="line2d_21">
     <path d="M 819.405 318.079062 
L 833.405 318.079062 
L 847.405 318.079062 
" style="fill: none; stroke: #1f77b4; stroke-width: 1.5; stroke-linecap: square"/>
    </g>
    <g id="text_20">
     <!-- Filtered packets Cam 1 -->
     <g transform="translate(858.605 322.979062) scale(0.14 -0.14)">
      <defs>
       <path id="DejaVuSans-43" d="M 4122 4306 
L 4122 3641 
Q 3803 3938 3442 4084 
Q 3081 4231 2675 4231 
Q 1875 4231 1450 3742 
Q 1025 3253 1025 2328 
Q 1025 1406 1450 917 
Q 1875 428 2675 428 
Q 3081 428 3442 575 
Q 3803 722 4122 1019 
L 4122 359 
Q 3791 134 3420 21 
Q 3050 -91 2638 -91 
Q 1578 -91 968 557 
Q 359 1206 359 2328 
Q 359 3453 968 4101 
Q 1578 4750 2638 4750 
Q 3056 4750 3426 4639 
Q 3797 4528 4122 4306 
z
" transform="scale(0.015625)"/>
      </defs>
      <use xlink:href="#DejaVuSans-46"/>
      <use xlink:href="#DejaVuSans-69" x="50.269531"/>
      <use xlink:href="#DejaVuSans-6c" x="78.052734"/>
      <use xlink:href="#DejaVuSans-74" x="105.835938"/>
      <use xlink:href="#DejaVuSans-65" x="145.044922"/>
      <use xlink:href="#DejaVuSans-72" x="206.568359"/>
      <use xlink:href="#DejaVuSans-65" x="245.431641"/>
      <use xlink:href="#DejaVuSans-64" x="306.955078"/>
      <use xlink:href="#DejaVuSans-20" x="370.431641"/>
      <use xlink:href="#DejaVuSans-70" x="402.21875"/>
      <use xlink:href="#DejaVuSans-61" x="465.695312"/>
      <use xlink:href="#DejaVuSans-63" x="526.974609"/>
      <use xlink:href="#DejaVuSans-6b" x="581.955078"/>
      <use xlink:href="#DejaVuSans-65" x="636.240234"/>
      <use xlink:href="#DejaVuSans-74" x="697.763672"/>
      <use xlink:href="#DejaVuSans-73" x="736.972656"/>
      <use xlink:href="#DejaVuSans-20" x="789.072266"/>
      <use xlink:href="#DejaVuSans-43" x="820.859375"/>
      <use xlink:href="#DejaVuSans-61" x="890.683594"/>
      <use xlink:href="#DejaVuSans-6d" x="951.962891"/>
      <use xlink:href="#DejaVuSans-20" x="1049.375"/>
      <use xlink:href="#DejaVuSans-31" x="1081.162109"/>
     </g>
    </g>
    <g id="line2d_22">
     <path d="M 819.405 338.628437 
L 833.405 338.628437 
L 847.405 338.628437 
" style="fill: none; stroke-dasharray: 5.55,2.4; stroke-dashoffset: 0; stroke: #0000ff; stroke-width: 1.5"/>
    </g>
    <g id="text_21">
     <!-- Filtered packets Cam 1 average -->
     <g transform="translate(858.605 343.528437) scale(0.14 -0.14)">
      <defs>
       <path id="DejaVuSans-67" d="M 2906 1791 
Q 2906 2416 2648 2759 
Q 2391 3103 1925 3103 
Q 1463 3103 1205 2759 
Q 947 2416 947 1791 
Q 947 1169 1205 825 
Q 1463 481 1925 481 
Q 2391 481 2648 825 
Q 2906 1169 2906 1791 
z
M 3481 434 
Q 3481 -459 3084 -895 
Q 2688 -1331 1869 -1331 
Q 1566 -1331 1297 -1286 
Q 1028 -1241 775 -1147 
L 775 -588 
Q 1028 -725 1275 -790 
Q 1522 -856 1778 -856 
Q 2344 -856 2625 -561 
Q 2906 -266 2906 331 
L 2906 616 
Q 2728 306 2450 153 
Q 2172 0 1784 0 
Q 1141 0 747 490 
Q 353 981 353 1791 
Q 353 2603 747 3093 
Q 1141 3584 1784 3584 
Q 2172 3584 2450 3431 
Q 2728 3278 2906 2969 
L 2906 3500 
L 3481 3500 
L 3481 434 
z
" transform="scale(0.015625)"/>
      </defs>
      <use xlink:href="#DejaVuSans-46"/>
      <use xlink:href="#DejaVuSans-69" x="50.269531"/>
      <use xlink:href="#DejaVuSans-6c" x="78.052734"/>
      <use xlink:href="#DejaVuSans-74" x="105.835938"/>
      <use xlink:href="#DejaVuSans-65" x="145.044922"/>
      <use xlink:href="#DejaVuSans-72" x="206.568359"/>
      <use xlink:href="#DejaVuSans-65" x="245.431641"/>
      <use xlink:href="#DejaVuSans-64" x="306.955078"/>
      <use xlink:href="#DejaVuSans-20" x="370.431641"/>
      <use xlink:href="#DejaVuSans-70" x="402.21875"/>
      <use xlink:href="#DejaVuSans-61" x="465.695312"/>
      <use xlink:href="#DejaVuSans-63" x="526.974609"/>
      <use xlink:href="#DejaVuSans-6b" x="581.955078"/>
      <use xlink:href="#DejaVuSans-65" x="636.240234"/>
      <use xlink:href="#DejaVuSans-74" x="697.763672"/>
      <use xlink:href="#DejaVuSans-73" x="736.972656"/>
      <use xlink:href="#DejaVuSans-20" x="789.072266"/>
      <use xlink:href="#DejaVuSans-43" x="820.859375"/>
      <use xlink:href="#DejaVuSans-61" x="890.683594"/>
      <use xlink:href="#DejaVuSans-6d" x="951.962891"/>
      <use xlink:href="#DejaVuSans-20" x="1049.375"/>
      <use xlink:href="#DejaVuSans-31" x="1081.162109"/>
      <use xlink:href="#DejaVuSans-20" x="1144.785156"/>
      <use xlink:href="#DejaVuSans-61" x="1176.572266"/>
      <use xlink:href="#DejaVuSans-76" x="1237.851562"/>
      <use xlink:href="#DejaVuSans-65" x="1297.03125"/>
      <use xlink:href="#DejaVuSans-72" x="1358.554688"/>
      <use xlink:href="#DejaVuSans-61" x="1399.667969"/>
      <use xlink:href="#DejaVuSans-67" x="1460.947266"/>
      <use xlink:href="#DejaVuSans-65" x="1524.423828"/>
     </g>
    </g>
    <g id="line2d_23">
     <path d="M 819.405 359.177812 
L 833.405 359.177812 
L 847.405 359.177812 
" style="fill: none; stroke: #ff7f0e; stroke-width: 1.5; stroke-linecap: square"/>
    </g>
    <g id="text_22">
     <!-- Filtered packets Cam 2 -->
     <g transform="translate(858.605 364.077812) scale(0.14 -0.14)">
      <use xlink:href="#DejaVuSans-46"/>
      <use xlink:href="#DejaVuSans-69" x="50.269531"/>
      <use xlink:href="#DejaVuSans-6c" x="78.052734"/>
      <use xlink:href="#DejaVuSans-74" x="105.835938"/>
      <use xlink:href="#DejaVuSans-65" x="145.044922"/>
      <use xlink:href="#DejaVuSans-72" x="206.568359"/>
      <use xlink:href="#DejaVuSans-65" x="245.431641"/>
      <use xlink:href="#DejaVuSans-64" x="306.955078"/>
      <use xlink:href="#DejaVuSans-20" x="370.431641"/>
      <use xlink:href="#DejaVuSans-70" x="402.21875"/>
      <use xlink:href="#DejaVuSans-61" x="465.695312"/>
      <use xlink:href="#DejaVuSans-63" x="526.974609"/>
      <use xlink:href="#DejaVuSans-6b" x="581.955078"/>
      <use xlink:href="#DejaVuSans-65" x="636.240234"/>
      <use xlink:href="#DejaVuSans-74" x="697.763672"/>
      <use xlink:href="#DejaVuSans-73" x="736.972656"/>
      <use xlink:href="#DejaVuSans-20" x="789.072266"/>
      <use xlink:href="#DejaVuSans-43" x="820.859375"/>
      <use xlink:href="#DejaVuSans-61" x="890.683594"/>
      <use xlink:href="#DejaVuSans-6d" x="951.962891"/>
      <use xlink:href="#DejaVuSans-20" x="1049.375"/>
      <use xlink:href="#DejaVuSans-32" x="1081.162109"/>
     </g>
    </g>
    <g id="line2d_24">
     <path d="M 819.405 379.727187 
L 833.405 379.727187 
L 847.405 379.727187 
" style="fill: none; stroke-dasharray: 5.55,2.4; stroke-dashoffset: 0; stroke: #ffa500; stroke-width: 1.5"/>
    </g>
    <g id="text_23">
     <!-- Filtered packets Cam 2 average -->
     <g transform="translate(858.605 384.627187) scale(0.14 -0.14)">
      <use xlink:href="#DejaVuSans-46"/>
      <use xlink:href="#DejaVuSans-69" x="50.269531"/>
      <use xlink:href="#DejaVuSans-6c" x="78.052734"/>
      <use xlink:href="#DejaVuSans-74" x="105.835938"/>
      <use xlink:href="#DejaVuSans-65" x="145.044922"/>
      <use xlink:href="#DejaVuSans-72" x="206.568359"/>
      <use xlink:href="#DejaVuSans-65" x="245.431641"/>
      <use xlink:href="#DejaVuSans-64" x="306.955078"/>
      <use xlink:href="#DejaVuSans-20" x="370.431641"/>
      <use xlink:href="#DejaVuSans-70" x="402.21875"/>
      <use xlink:href="#DejaVuSans-61" x="465.695312"/>
      <use xlink:href="#DejaVuSans-63" x="526.974609"/>
      <use xlink:href="#DejaVuSans-6b" x="581.955078"/>
      <use xlink:href="#DejaVuSans-65" x="636.240234"/>
      <use xlink:href="#DejaVuSans-74" x="697.763672"/>
      <use xlink:href="#DejaVuSans-73" x="736.972656"/>
      <use xlink:href="#DejaVuSans-20" x="789.072266"/>
      <use xlink:href="#DejaVuSans-43" x="820.859375"/>
      <use xlink:href="#DejaVuSans-61" x="890.683594"/>
      <use xlink:href="#DejaVuSans-6d" x="951.962891"/>
      <use xlink:href="#DejaVuSans-20" x="1049.375"/>
      <use xlink:href="#DejaVuSans-32" x="1081.162109"/>
      <use xlink:href="#DejaVuSans-20" x="1144.785156"/>
      <use xlink:href="#DejaVuSans-61" x="1176.572266"/>
      <use xlink:href="#DejaVuSans-76" x="1237.851562"/>
      <use xlink:href="#DejaVuSans-65" x="1297.03125"/>
      <use xlink:href="#DejaVuSans-72" x="1358.554688"/>
      <use xlink:href="#DejaVuSans-61" x="1399.667969"/>
      <use xlink:href="#DejaVuSans-67" x="1460.947266"/>
      <use xlink:href="#DejaVuSans-65" x="1524.423828"/>
     </g>
    </g>
   </g>
  </g>
 </g>
 <defs>
  <clipPath id="p4f672413e9">
   <rect x="71.22" y="46.96" width="735.585" height="605.96"/>
  </clipPath>
 </defs>
</svg>
