<?xml version="1.0" encoding="utf-8" standalone="no"?>
<!DOCTYPE svg PUBLIC "-//W3C//DTD SVG 1.1//EN"
  "http://www.w3.org/Graphics/SVG/1.1/DTD/svg11.dtd">
<svg xmlns:xlink="http://www.w3.org/1999/xlink" width="1008pt" height="720pt" viewBox="0 0 1008 720" xmlns="http://www.w3.org/2000/svg" version="1.1">
 <metadata>
  <rdf:RDF xmlns:dc="http://purl.org/dc/elements/1.1/" xmlns:cc="http://creativecommons.org/ns#" xmlns:rdf="http://www.w3.org/1999/02/22-rdf-syntax-ns#">
   <cc:Work>
    <dc:type rdf:resource="http://purl.org/dc/dcmitype/StillImage"/>
    <dc:date>2023-04-13T18:38:14.333720</dc:date>
    <dc:format>image/svg+xml</dc:format>
    <dc:creator>
     <cc:Agent>
      <dc:title>Matplotlib v3.6.2, https://matplotlib.org/</dc:title>
     </cc:Agent>
    </dc:creator>
   </cc:Work>
  </rdf:RDF>
 </metadata>
 <defs>
  <style type="text/css">*{stroke-linejoin: round; stroke-linecap: butt}</style>
 </defs>
 <g id="figure_1">
  <g id="patch_1">
   <path d="M 0 720 
L 1008 720 
L 1008 0 
L 0 0 
z
" style="fill: #ffffff"/>
  </g>
  <g id="axes_1">
   <g id="patch_2">
    <path d="M 63.77 658.84 
L 795.154 658.84 
L 795.154 46.08 
L 63.77 46.08 
z
" style="fill: #ffffff"/>
   </g>
   <g id="matplotlib.axis_1">
    <g id="xtick_1">
     <g id="line2d_1">
      <defs>
       <path id="m7c9a6bb08a" d="M 0 0 
L 0 3.5 
" style="stroke: #000000; stroke-width: 0.8"/>
      </defs>
      <g>
       <use xlink:href="#m7c9a6bb08a" x="63.77" y="658.84" style="stroke: #000000; stroke-width: 0.8"/>
      </g>
     </g>
     <g id="text_1">
      <!-- 0 -->
      <g transform="translate(60.58875 673.438437) scale(0.1 -0.1)">
       <defs>
        <path id="DejaVuSans-30" d="M 2034 4250 
Q 1547 4250 1301 3770 
Q 1056 3291 1056 2328 
Q 1056 1369 1301 889 
Q 1547 409 2034 409 
Q 2525 409 2770 889 
Q 3016 1369 3016 2328 
Q 3016 3291 2770 3770 
Q 2525 4250 2034 4250 
z
M 2034 4750 
Q 2819 4750 3233 4129 
Q 3647 3509 3647 2328 
Q 3647 1150 3233 529 
Q 2819 -91 2034 -91 
Q 1250 -91 836 529 
Q 422 1150 422 2328 
Q 422 3509 836 4129 
Q 1250 4750 2034 4750 
z
" transform="scale(0.015625)"/>
       </defs>
       <use xlink:href="#DejaVuSans-30"/>
      </g>
     </g>
    </g>
    <g id="xtick_2">
     <g id="line2d_2">
      <g>
       <use xlink:href="#m7c9a6bb08a" x="177.91677" y="658.84" style="stroke: #000000; stroke-width: 0.8"/>
      </g>
     </g>
     <g id="text_2">
      <!-- 10 -->
      <g transform="translate(171.55427 673.438437) scale(0.1 -0.1)">
       <defs>
        <path id="DejaVuSans-31" d="M 794 531 
L 1825 531 
L 1825 4091 
L 703 3866 
L 703 4441 
L 1819 4666 
L 2450 4666 
L 2450 531 
L 3481 531 
L 3481 0 
L 794 0 
L 794 531 
z
" transform="scale(0.015625)"/>
       </defs>
       <use xlink:href="#DejaVuSans-31"/>
       <use xlink:href="#DejaVuSans-30" x="63.623047"/>
      </g>
     </g>
    </g>
    <g id="xtick_3">
     <g id="line2d_3">
      <g>
       <use xlink:href="#m7c9a6bb08a" x="292.063541" y="658.84" style="stroke: #000000; stroke-width: 0.8"/>
      </g>
     </g>
     <g id="text_3">
      <!-- 20 -->
      <g transform="translate(285.701041 673.438437) scale(0.1 -0.1)">
       <defs>
        <path id="DejaVuSans-32" d="M 1228 531 
L 3431 531 
L 3431 0 
L 469 0 
L 469 531 
Q 828 903 1448 1529 
Q 2069 2156 2228 2338 
Q 2531 2678 2651 2914 
Q 2772 3150 2772 3378 
Q 2772 3750 2511 3984 
Q 2250 4219 1831 4219 
Q 1534 4219 1204 4116 
Q 875 4013 500 3803 
L 500 4441 
Q 881 4594 1212 4672 
Q 1544 4750 1819 4750 
Q 2544 4750 2975 4387 
Q 3406 4025 3406 3419 
Q 3406 3131 3298 2873 
Q 3191 2616 2906 2266 
Q 2828 2175 2409 1742 
Q 1991 1309 1228 531 
z
" transform="scale(0.015625)"/>
       </defs>
       <use xlink:href="#DejaVuSans-32"/>
       <use xlink:href="#DejaVuSans-30" x="63.623047"/>
      </g>
     </g>
    </g>
    <g id="xtick_4">
     <g id="line2d_4">
      <g>
       <use xlink:href="#m7c9a6bb08a" x="406.210311" y="658.84" style="stroke: #000000; stroke-width: 0.8"/>
      </g>
     </g>
     <g id="text_4">
      <!-- 30 -->
      <g transform="translate(399.847811 673.438437) scale(0.1 -0.1)">
       <defs>
        <path id="DejaVuSans-33" d="M 2597 2516 
Q 3050 2419 3304 2112 
Q 3559 1806 3559 1356 
Q 3559 666 3084 287 
Q 2609 -91 1734 -91 
Q 1441 -91 1130 -33 
Q 819 25 488 141 
L 488 750 
Q 750 597 1062 519 
Q 1375 441 1716 441 
Q 2309 441 2620 675 
Q 2931 909 2931 1356 
Q 2931 1769 2642 2001 
Q 2353 2234 1838 2234 
L 1294 2234 
L 1294 2753 
L 1863 2753 
Q 2328 2753 2575 2939 
Q 2822 3125 2822 3475 
Q 2822 3834 2567 4026 
Q 2313 4219 1838 4219 
Q 1578 4219 1281 4162 
Q 984 4106 628 3988 
L 628 4550 
Q 988 4650 1302 4700 
Q 1616 4750 1894 4750 
Q 2613 4750 3031 4423 
Q 3450 4097 3450 3541 
Q 3450 3153 3228 2886 
Q 3006 2619 2597 2516 
z
" transform="scale(0.015625)"/>
       </defs>
       <use xlink:href="#DejaVuSans-33"/>
       <use xlink:href="#DejaVuSans-30" x="63.623047"/>
      </g>
     </g>
    </g>
    <g id="xtick_5">
     <g id="line2d_5">
      <g>
       <use xlink:href="#m7c9a6bb08a" x="520.357082" y="658.84" style="stroke: #000000; stroke-width: 0.8"/>
      </g>
     </g>
     <g id="text_5">
      <!-- 40 -->
      <g transform="translate(513.994582 673.438437) scale(0.1 -0.1)">
       <defs>
        <path id="DejaVuSans-34" d="M 2419 4116 
L 825 1625 
L 2419 1625 
L 2419 4116 
z
M 2253 4666 
L 3047 4666 
L 3047 1625 
L 3713 1625 
L 3713 1100 
L 3047 1100 
L 3047 0 
L 2419 0 
L 2419 1100 
L 313 1100 
L 313 1709 
L 2253 4666 
z
" transform="scale(0.015625)"/>
       </defs>
       <use xlink:href="#DejaVuSans-34"/>
       <use xlink:href="#DejaVuSans-30" x="63.623047"/>
      </g>
     </g>
    </g>
    <g id="xtick_6">
     <g id="line2d_6">
      <g>
       <use xlink:href="#m7c9a6bb08a" x="634.503852" y="658.84" style="stroke: #000000; stroke-width: 0.8"/>
      </g>
     </g>
     <g id="text_6">
      <!-- 50 -->
      <g transform="translate(628.141352 673.438437) scale(0.1 -0.1)">
       <defs>
        <path id="DejaVuSans-35" d="M 691 4666 
L 3169 4666 
L 3169 4134 
L 1269 4134 
L 1269 2991 
Q 1406 3038 1543 3061 
Q 1681 3084 1819 3084 
Q 2600 3084 3056 2656 
Q 3513 2228 3513 1497 
Q 3513 744 3044 326 
Q 2575 -91 1722 -91 
Q 1428 -91 1123 -41 
Q 819 9 494 109 
L 494 744 
Q 775 591 1075 516 
Q 1375 441 1709 441 
Q 2250 441 2565 725 
Q 2881 1009 2881 1497 
Q 2881 1984 2565 2268 
Q 2250 2553 1709 2553 
Q 1456 2553 1204 2497 
Q 953 2441 691 2322 
L 691 4666 
z
" transform="scale(0.015625)"/>
       </defs>
       <use xlink:href="#DejaVuSans-35"/>
       <use xlink:href="#DejaVuSans-30" x="63.623047"/>
      </g>
     </g>
    </g>
    <g id="xtick_7">
     <g id="line2d_7">
      <g>
       <use xlink:href="#m7c9a6bb08a" x="748.650622" y="658.84" style="stroke: #000000; stroke-width: 0.8"/>
      </g>
     </g>
     <g id="text_7">
      <!-- 60 -->
      <g transform="translate(742.288122 673.438437) scale(0.1 -0.1)">
       <defs>
        <path id="DejaVuSans-36" d="M 2113 2584 
Q 1688 2584 1439 2293 
Q 1191 2003 1191 1497 
Q 1191 994 1439 701 
Q 1688 409 2113 409 
Q 2538 409 2786 701 
Q 3034 994 3034 1497 
Q 3034 2003 2786 2293 
Q 2538 2584 2113 2584 
z
M 3366 4563 
L 3366 3988 
Q 3128 4100 2886 4159 
Q 2644 4219 2406 4219 
Q 1781 4219 1451 3797 
Q 1122 3375 1075 2522 
Q 1259 2794 1537 2939 
Q 1816 3084 2150 3084 
Q 2853 3084 3261 2657 
Q 3669 2231 3669 1497 
Q 3669 778 3244 343 
Q 2819 -91 2113 -91 
Q 1303 -91 875 529 
Q 447 1150 447 2328 
Q 447 3434 972 4092 
Q 1497 4750 2381 4750 
Q 2619 4750 2861 4703 
Q 3103 4656 3366 4563 
z
" transform="scale(0.015625)"/>
       </defs>
       <use xlink:href="#DejaVuSans-36"/>
       <use xlink:href="#DejaVuSans-30" x="63.623047"/>
      </g>
     </g>
    </g>
    <g id="text_8">
     <!-- Time (s) -->
     <g transform="translate(409.133094 687.116562) scale(0.1 -0.1)">
      <defs>
       <path id="DejaVuSans-54" d="M -19 4666 
L 3928 4666 
L 3928 4134 
L 2272 4134 
L 2272 0 
L 1638 0 
L 1638 4134 
L -19 4134 
L -19 4666 
z
" transform="scale(0.015625)"/>
       <path id="DejaVuSans-69" d="M 603 3500 
L 1178 3500 
L 1178 0 
L 603 0 
L 603 3500 
z
M 603 4863 
L 1178 4863 
L 1178 4134 
L 603 4134 
L 603 4863 
z
" transform="scale(0.015625)"/>
       <path id="DejaVuSans-6d" d="M 3328 2828 
Q 3544 3216 3844 3400 
Q 4144 3584 4550 3584 
Q 5097 3584 5394 3201 
Q 5691 2819 5691 2113 
L 5691 0 
L 5113 0 
L 5113 2094 
Q 5113 2597 4934 2840 
Q 4756 3084 4391 3084 
Q 3944 3084 3684 2787 
Q 3425 2491 3425 1978 
L 3425 0 
L 2847 0 
L 2847 2094 
Q 2847 2600 2669 2842 
Q 2491 3084 2119 3084 
Q 1678 3084 1418 2786 
Q 1159 2488 1159 1978 
L 1159 0 
L 581 0 
L 581 3500 
L 1159 3500 
L 1159 2956 
Q 1356 3278 1631 3431 
Q 1906 3584 2284 3584 
Q 2666 3584 2933 3390 
Q 3200 3197 3328 2828 
z
" transform="scale(0.015625)"/>
       <path id="DejaVuSans-65" d="M 3597 1894 
L 3597 1613 
L 953 1613 
Q 991 1019 1311 708 
Q 1631 397 2203 397 
Q 2534 397 2845 478 
Q 3156 559 3463 722 
L 3463 178 
Q 3153 47 2828 -22 
Q 2503 -91 2169 -91 
Q 1331 -91 842 396 
Q 353 884 353 1716 
Q 353 2575 817 3079 
Q 1281 3584 2069 3584 
Q 2775 3584 3186 3129 
Q 3597 2675 3597 1894 
z
M 3022 2063 
Q 3016 2534 2758 2815 
Q 2500 3097 2075 3097 
Q 1594 3097 1305 2825 
Q 1016 2553 972 2059 
L 3022 2063 
z
" transform="scale(0.015625)"/>
       <path id="DejaVuSans-20" transform="scale(0.015625)"/>
       <path id="DejaVuSans-28" d="M 1984 4856 
Q 1566 4138 1362 3434 
Q 1159 2731 1159 2009 
Q 1159 1288 1364 580 
Q 1569 -128 1984 -844 
L 1484 -844 
Q 1016 -109 783 600 
Q 550 1309 550 2009 
Q 550 2706 781 3412 
Q 1013 4119 1484 4856 
L 1984 4856 
z
" transform="scale(0.015625)"/>
       <path id="DejaVuSans-73" d="M 2834 3397 
L 2834 2853 
Q 2591 2978 2328 3040 
Q 2066 3103 1784 3103 
Q 1356 3103 1142 2972 
Q 928 2841 928 2578 
Q 928 2378 1081 2264 
Q 1234 2150 1697 2047 
L 1894 2003 
Q 2506 1872 2764 1633 
Q 3022 1394 3022 966 
Q 3022 478 2636 193 
Q 2250 -91 1575 -91 
Q 1294 -91 989 -36 
Q 684 19 347 128 
L 347 722 
Q 666 556 975 473 
Q 1284 391 1588 391 
Q 1994 391 2212 530 
Q 2431 669 2431 922 
Q 2431 1156 2273 1281 
Q 2116 1406 1581 1522 
L 1381 1569 
Q 847 1681 609 1914 
Q 372 2147 372 2553 
Q 372 3047 722 3315 
Q 1072 3584 1716 3584 
Q 2034 3584 2315 3537 
Q 2597 3491 2834 3397 
z
" transform="scale(0.015625)"/>
       <path id="DejaVuSans-29" d="M 513 4856 
L 1013 4856 
Q 1481 4119 1714 3412 
Q 1947 2706 1947 2009 
Q 1947 1309 1714 600 
Q 1481 -109 1013 -844 
L 513 -844 
Q 928 -128 1133 580 
Q 1338 1288 1338 2009 
Q 1338 2731 1133 3434 
Q 928 4138 513 4856 
z
" transform="scale(0.015625)"/>
      </defs>
      <use xlink:href="#DejaVuSans-54"/>
      <use xlink:href="#DejaVuSans-69" x="57.958984"/>
      <use xlink:href="#DejaVuSans-6d" x="85.742188"/>
      <use xlink:href="#DejaVuSans-65" x="183.154297"/>
      <use xlink:href="#DejaVuSans-20" x="244.677734"/>
      <use xlink:href="#DejaVuSans-28" x="276.464844"/>
      <use xlink:href="#DejaVuSans-73" x="315.478516"/>
      <use xlink:href="#DejaVuSans-29" x="367.578125"/>
     </g>
    </g>
   </g>
   <g id="matplotlib.axis_2">
    <g id="ytick_1">
     <g id="line2d_8">
      <defs>
       <path id="m44395af119" d="M 0 0 
L -3.5 0 
" style="stroke: #000000; stroke-width: 0.8"/>
      </defs>
      <g>
       <use xlink:href="#m44395af119" x="63.77" y="658.84" style="stroke: #000000; stroke-width: 0.8"/>
      </g>
     </g>
     <g id="text_9">
      <!-- 0 -->
      <g transform="translate(50.4075 662.639219) scale(0.1 -0.1)">
       <use xlink:href="#DejaVuSans-30"/>
      </g>
     </g>
    </g>
    <g id="ytick_2">
     <g id="line2d_9">
      <g>
       <use xlink:href="#m44395af119" x="63.77" y="556.760439" style="stroke: #000000; stroke-width: 0.8"/>
      </g>
     </g>
     <g id="text_10">
      <!-- 5 -->
      <g transform="translate(50.4075 560.559658) scale(0.1 -0.1)">
       <use xlink:href="#DejaVuSans-35"/>
      </g>
     </g>
    </g>
    <g id="ytick_3">
     <g id="line2d_10">
      <g>
       <use xlink:href="#m44395af119" x="63.77" y="454.680878" style="stroke: #000000; stroke-width: 0.8"/>
      </g>
     </g>
     <g id="text_11">
      <!-- 10 -->
      <g transform="translate(44.045 458.480096) scale(0.1 -0.1)">
       <use xlink:href="#DejaVuSans-31"/>
       <use xlink:href="#DejaVuSans-30" x="63.623047"/>
      </g>
     </g>
    </g>
    <g id="ytick_4">
     <g id="line2d_11">
      <g>
       <use xlink:href="#m44395af119" x="63.77" y="352.601316" style="stroke: #000000; stroke-width: 0.8"/>
      </g>
     </g>
     <g id="text_12">
      <!-- 15 -->
      <g transform="translate(44.045 356.400535) scale(0.1 -0.1)">
       <use xlink:href="#DejaVuSans-31"/>
       <use xlink:href="#DejaVuSans-35" x="63.623047"/>
      </g>
     </g>
    </g>
    <g id="ytick_5">
     <g id="line2d_12">
      <g>
       <use xlink:href="#m44395af119" x="63.77" y="250.521755" style="stroke: #000000; stroke-width: 0.8"/>
      </g>
     </g>
     <g id="text_13">
      <!-- 20 -->
      <g transform="translate(44.045 254.320974) scale(0.1 -0.1)">
       <use xlink:href="#DejaVuSans-32"/>
       <use xlink:href="#DejaVuSans-30" x="63.623047"/>
      </g>
     </g>
    </g>
    <g id="ytick_6">
     <g id="line2d_13">
      <g>
       <use xlink:href="#m44395af119" x="63.77" y="148.442194" style="stroke: #000000; stroke-width: 0.8"/>
      </g>
     </g>
     <g id="text_14">
      <!-- 25 -->
      <g transform="translate(44.045 152.241413) scale(0.1 -0.1)">
       <use xlink:href="#DejaVuSans-32"/>
       <use xlink:href="#DejaVuSans-35" x="63.623047"/>
      </g>
     </g>
    </g>
    <g id="ytick_7">
     <g id="line2d_14">
      <g>
       <use xlink:href="#m44395af119" x="63.77" y="46.362633" style="stroke: #000000; stroke-width: 0.8"/>
      </g>
     </g>
     <g id="text_15">
      <!-- 30 -->
      <g transform="translate(44.045 50.161851) scale(0.1 -0.1)">
       <use xlink:href="#DejaVuSans-33"/>
       <use xlink:href="#DejaVuSans-30" x="63.623047"/>
      </g>
     </g>
    </g>
    <g id="text_16">
     <!-- Packets per Second -->
     <g transform="translate(37.965312 401.305313) rotate(-90) scale(0.1 -0.1)">
      <defs>
       <path id="DejaVuSans-50" d="M 1259 4147 
L 1259 2394 
L 2053 2394 
Q 2494 2394 2734 2622 
Q 2975 2850 2975 3272 
Q 2975 3691 2734 3919 
Q 2494 4147 2053 4147 
L 1259 4147 
z
M 628 4666 
L 2053 4666 
Q 2838 4666 3239 4311 
Q 3641 3956 3641 3272 
Q 3641 2581 3239 2228 
Q 2838 1875 2053 1875 
L 1259 1875 
L 1259 0 
L 628 0 
L 628 4666 
z
" transform="scale(0.015625)"/>
       <path id="DejaVuSans-61" d="M 2194 1759 
Q 1497 1759 1228 1600 
Q 959 1441 959 1056 
Q 959 750 1161 570 
Q 1363 391 1709 391 
Q 2188 391 2477 730 
Q 2766 1069 2766 1631 
L 2766 1759 
L 2194 1759 
z
M 3341 1997 
L 3341 0 
L 2766 0 
L 2766 531 
Q 2569 213 2275 61 
Q 1981 -91 1556 -91 
Q 1019 -91 701 211 
Q 384 513 384 1019 
Q 384 1609 779 1909 
Q 1175 2209 1959 2209 
L 2766 2209 
L 2766 2266 
Q 2766 2663 2505 2880 
Q 2244 3097 1772 3097 
Q 1472 3097 1187 3025 
Q 903 2953 641 2809 
L 641 3341 
Q 956 3463 1253 3523 
Q 1550 3584 1831 3584 
Q 2591 3584 2966 3190 
Q 3341 2797 3341 1997 
z
" transform="scale(0.015625)"/>
       <path id="DejaVuSans-63" d="M 3122 3366 
L 3122 2828 
Q 2878 2963 2633 3030 
Q 2388 3097 2138 3097 
Q 1578 3097 1268 2742 
Q 959 2388 959 1747 
Q 959 1106 1268 751 
Q 1578 397 2138 397 
Q 2388 397 2633 464 
Q 2878 531 3122 666 
L 3122 134 
Q 2881 22 2623 -34 
Q 2366 -91 2075 -91 
Q 1284 -91 818 406 
Q 353 903 353 1747 
Q 353 2603 823 3093 
Q 1294 3584 2113 3584 
Q 2378 3584 2631 3529 
Q 2884 3475 3122 3366 
z
" transform="scale(0.015625)"/>
       <path id="DejaVuSans-6b" d="M 581 4863 
L 1159 4863 
L 1159 1991 
L 2875 3500 
L 3609 3500 
L 1753 1863 
L 3688 0 
L 2938 0 
L 1159 1709 
L 1159 0 
L 581 0 
L 581 4863 
z
" transform="scale(0.015625)"/>
       <path id="DejaVuSans-74" d="M 1172 4494 
L 1172 3500 
L 2356 3500 
L 2356 3053 
L 1172 3053 
L 1172 1153 
Q 1172 725 1289 603 
Q 1406 481 1766 481 
L 2356 481 
L 2356 0 
L 1766 0 
Q 1100 0 847 248 
Q 594 497 594 1153 
L 594 3053 
L 172 3053 
L 172 3500 
L 594 3500 
L 594 4494 
L 1172 4494 
z
" transform="scale(0.015625)"/>
       <path id="DejaVuSans-70" d="M 1159 525 
L 1159 -1331 
L 581 -1331 
L 581 3500 
L 1159 3500 
L 1159 2969 
Q 1341 3281 1617 3432 
Q 1894 3584 2278 3584 
Q 2916 3584 3314 3078 
Q 3713 2572 3713 1747 
Q 3713 922 3314 415 
Q 2916 -91 2278 -91 
Q 1894 -91 1617 61 
Q 1341 213 1159 525 
z
M 3116 1747 
Q 3116 2381 2855 2742 
Q 2594 3103 2138 3103 
Q 1681 3103 1420 2742 
Q 1159 2381 1159 1747 
Q 1159 1113 1420 752 
Q 1681 391 2138 391 
Q 2594 391 2855 752 
Q 3116 1113 3116 1747 
z
" transform="scale(0.015625)"/>
       <path id="DejaVuSans-72" d="M 2631 2963 
Q 2534 3019 2420 3045 
Q 2306 3072 2169 3072 
Q 1681 3072 1420 2755 
Q 1159 2438 1159 1844 
L 1159 0 
L 581 0 
L 581 3500 
L 1159 3500 
L 1159 2956 
Q 1341 3275 1631 3429 
Q 1922 3584 2338 3584 
Q 2397 3584 2469 3576 
Q 2541 3569 2628 3553 
L 2631 2963 
z
" transform="scale(0.015625)"/>
       <path id="DejaVuSans-53" d="M 3425 4513 
L 3425 3897 
Q 3066 4069 2747 4153 
Q 2428 4238 2131 4238 
Q 1616 4238 1336 4038 
Q 1056 3838 1056 3469 
Q 1056 3159 1242 3001 
Q 1428 2844 1947 2747 
L 2328 2669 
Q 3034 2534 3370 2195 
Q 3706 1856 3706 1288 
Q 3706 609 3251 259 
Q 2797 -91 1919 -91 
Q 1588 -91 1214 -16 
Q 841 59 441 206 
L 441 856 
Q 825 641 1194 531 
Q 1563 422 1919 422 
Q 2459 422 2753 634 
Q 3047 847 3047 1241 
Q 3047 1584 2836 1778 
Q 2625 1972 2144 2069 
L 1759 2144 
Q 1053 2284 737 2584 
Q 422 2884 422 3419 
Q 422 4038 858 4394 
Q 1294 4750 2059 4750 
Q 2388 4750 2728 4690 
Q 3069 4631 3425 4513 
z
" transform="scale(0.015625)"/>
       <path id="DejaVuSans-6f" d="M 1959 3097 
Q 1497 3097 1228 2736 
Q 959 2375 959 1747 
Q 959 1119 1226 758 
Q 1494 397 1959 397 
Q 2419 397 2687 759 
Q 2956 1122 2956 1747 
Q 2956 2369 2687 2733 
Q 2419 3097 1959 3097 
z
M 1959 3584 
Q 2709 3584 3137 3096 
Q 3566 2609 3566 1747 
Q 3566 888 3137 398 
Q 2709 -91 1959 -91 
Q 1206 -91 779 398 
Q 353 888 353 1747 
Q 353 2609 779 3096 
Q 1206 3584 1959 3584 
z
" transform="scale(0.015625)"/>
       <path id="DejaVuSans-6e" d="M 3513 2113 
L 3513 0 
L 2938 0 
L 2938 2094 
Q 2938 2591 2744 2837 
Q 2550 3084 2163 3084 
Q 1697 3084 1428 2787 
Q 1159 2491 1159 1978 
L 1159 0 
L 581 0 
L 581 3500 
L 1159 3500 
L 1159 2956 
Q 1366 3272 1645 3428 
Q 1925 3584 2291 3584 
Q 2894 3584 3203 3211 
Q 3513 2838 3513 2113 
z
" transform="scale(0.015625)"/>
       <path id="DejaVuSans-64" d="M 2906 2969 
L 2906 4863 
L 3481 4863 
L 3481 0 
L 2906 0 
L 2906 525 
Q 2725 213 2448 61 
Q 2172 -91 1784 -91 
Q 1150 -91 751 415 
Q 353 922 353 1747 
Q 353 2572 751 3078 
Q 1150 3584 1784 3584 
Q 2172 3584 2448 3432 
Q 2725 3281 2906 2969 
z
M 947 1747 
Q 947 1113 1208 752 
Q 1469 391 1925 391 
Q 2381 391 2643 752 
Q 2906 1113 2906 1747 
Q 2906 2381 2643 2742 
Q 2381 3103 1925 3103 
Q 1469 3103 1208 2742 
Q 947 2381 947 1747 
z
" transform="scale(0.015625)"/>
      </defs>
      <use xlink:href="#DejaVuSans-50"/>
      <use xlink:href="#DejaVuSans-61" x="55.802734"/>
      <use xlink:href="#DejaVuSans-63" x="117.082031"/>
      <use xlink:href="#DejaVuSans-6b" x="172.0625"/>
      <use xlink:href="#DejaVuSans-65" x="226.347656"/>
      <use xlink:href="#DejaVuSans-74" x="287.871094"/>
      <use xlink:href="#DejaVuSans-73" x="327.080078"/>
      <use xlink:href="#DejaVuSans-20" x="379.179688"/>
      <use xlink:href="#DejaVuSans-70" x="410.966797"/>
      <use xlink:href="#DejaVuSans-65" x="474.443359"/>
      <use xlink:href="#DejaVuSans-72" x="535.966797"/>
      <use xlink:href="#DejaVuSans-20" x="577.080078"/>
      <use xlink:href="#DejaVuSans-53" x="608.867188"/>
      <use xlink:href="#DejaVuSans-65" x="672.34375"/>
      <use xlink:href="#DejaVuSans-63" x="733.867188"/>
      <use xlink:href="#DejaVuSans-6f" x="788.847656"/>
      <use xlink:href="#DejaVuSans-6e" x="850.029297"/>
      <use xlink:href="#DejaVuSans-64" x="913.408203"/>
     </g>
    </g>
   </g>
   <g id="line2d_15">
    <path d="M 64.151414 47.847668 
L 64.532671 47.595848 
L 65.295062 47.472186 
L 66.438684 47.565322 
L 66.819808 47.38305 
L 67.582173 47.485239 
L 67.96331 47.404677 
L 68.344512 47.507207 
L 69.106865 47.487436 
L 71.012783 47.485349 
L 72.156358 47.479362 
L 85.114613 47.355268 
L 86.63906 47.370139 
L 87.782199 47.205984 
L 88.925351 47.249317 
L 92.735745 47.240156 
L 93.878862 47.248291 
L 97.308201 47.245066 
L 98.0703 47.25932 
L 99.213237 47.103409 
L 99.975225 47.181796 
L 101.880154 47.144025 
L 103.023125 47.164515 
L 110.261764 47.098441 
L 110.642646 46.994803 
L 111.404556 47.123974 
L 112.166413 47.063337 
L 112.928307 47.083557 
L 115.594857 47.082329 
L 116.356741 47.064162 
L 119.404355 47.102621 
L 119.785278 47.060056 
L 120.166032 46.788302 
L 120.547139 47.355176 
L 120.92806 47.057104 
L 122.070713 46.963685 
L 123.594306 46.998691 
L 125.49875 46.995738 
L 128.16495 46.995573 
L 129.307651 47.035691 
L 129.688373 46.736573 
L 130.069444 47.297351 
L 130.450319 46.983783 
L 131.592983 47.003843 
L 138.448429 46.932178 
L 138.829296 46.96926 
L 139.210101 46.870604 
L 139.590985 46.998287 
L 140.733547 46.948574 
L 150.255303 47.015944 
L 150.636142 46.92508 
L 151.3979 46.986552 
L 155.587583 46.976796 
L 156.349274 46.948409 
L 157.872642 46.948574 
L 158.634356 46.935314 
L 159.77689 46.929959 
L 164.347054 46.930289 
L 164.72785 46.854846 
L 165.108718 46.971368 
L 165.870424 46.969791 
L 169.297821 46.87264 
L 170.059494 46.909637 
L 170.821124 46.90861 
L 172.725223 46.875245 
L 173.486822 46.888599 
L 176.152488 46.875428 
L 177.295011 46.979694 
L 179.960677 46.849288 
L 183.387813 46.941696 
L 183.76854 46.74507 
L 184.530073 46.793055 
L 185.672452 46.885187 
L 186.81481 46.859781 
L 188.337844 46.677254 
L 188.718729 46.997939 
L 189.099515 46.839931 
L 191.384124 46.820925 
L 194.049491 46.773972 
L 194.430044 46.465212 
L 194.811013 47.134 
L 195.191779 46.809036 
L 196.334085 46.810082 
L 198.2379 46.80832 
L 199.761001 46.849416 
L 200.522499 46.795825 
L 200.903266 46.809586 
L 201.283869 46.546039 
L 201.664409 46.443775 
L 204.328332 46.463044 
L 204.708865 46.43257 
L 205.470025 46.499797 
L 207.372806 46.432827 
L 208.51449 46.490467 
L 211.55893 46.457331 
L 211.939532 46.544129 
L 213.081185 46.444014 
L 215.364576 46.50808 
L 215.745103 46.423146 
L 216.506243 46.483726 
L 218.409067 46.502019 
L 218.789585 46.408228 
L 219.170156 46.494526 
L 220.692384 46.468334 
L 221.072957 46.496766 
L 221.453471 46.402992 
L 222.595177 46.511643 
L 223.356297 46.494728 
L 227.161897 46.433433 
L 227.542267 46.17083 
L 227.923034 46.809623 
L 228.303606 46.496068 
L 233.250929 46.489365 
L 235.534323 46.477536 
L 236.675996 46.484938 
L 238.578841 46.42298 
L 238.959488 46.616106 
L 239.72063 46.480053 
L 241.242925 46.505141 
L 242.3846 46.47052 
L 243.906873 46.510982 
L 244.287388 46.403801 
L 245.048551 46.522276 
L 245.809669 46.484957 
L 246.951369 46.474598 
L 259.129411 46.475314 
L 259.510023 46.560803 
L 259.890533 46.396617 
L 260.651676 46.50819 
L 266.360083 46.463926 
L 267.501762 46.484204 
L 270.546281 46.488152 
L 270.926649 46.167833 
L 271.307413 46.804779 
L 271.687962 46.459481 
L 272.449111 46.497464 
L 272.82964 46.426269 
L 273.590785 46.497336 
L 277.396494 46.471585 
L 277.776996 46.382488 
L 278.157623 46.584416 
L 278.538154 46.429924 
L 279.679854 46.48121 
L 281.202069 46.401578 
L 281.963237 46.518401 
L 283.104948 46.484259 
L 287.29118 46.504076 
L 289.194021 46.486757 
L 292.238565 46.503323 
L 292.619098 46.433764 
L 293.380237 46.480622 
L 295.663587 46.426269 
L 296.04418 46.530283 
L 297.566484 46.513847 
L 299.849919 46.494544 
L 300.230564 46.612838 
L 300.611053 46.361487 
L 300.99163 46.504168 
L 301.372152 46.415301 
L 302.133299 46.49807 
L 303.655584 46.491183 
L 304.036111 46.424523 
L 304.797265 46.492175 
L 306.700056 46.38337 
L 307.080698 46.608743 
L 307.461262 46.483359 
L 309.364154 46.491679 
L 309.744691 46.438393 
L 310.125288 46.53649 
L 311.26699 46.498915 
L 313.550365 46.500531 
L 313.930755 46.203022 
L 314.311527 46.817109 
L 314.692106 46.508061 
L 315.453222 46.478234 
L 316.214372 46.4757 
L 343.61534 46.499705 
L 343.995871 46.429704 
L 344.376468 46.53537 
L 344.757036 46.488759 
L 345.137673 46.600739 
L 345.51819 46.408449 
L 345.898777 46.519081 
L 346.659901 46.497685 
L 355.79365 46.51987 
L 356.174035 46.196275 
L 356.554788 46.786889 
L 356.935375 46.519301 
L 358.077048 46.458985 
L 359.979967 46.553678 
L 361.121648 46.472191 
L 362.26339 46.484938 
L 366.449697 46.487565 
L 369.494249 46.471732 
L 370.635981 46.525545 
L 372.538814 46.467067 
L 373.299986 46.528887 
L 374.061126 46.511367 
L 375.963968 46.482275 
L 377.486265 46.512175 
L 377.86681 46.452537 
L 378.627963 46.485599 
L 379.769675 46.526794 
L 383.575325 46.42851 
L 384.336476 46.489824 
L 394.611935 46.497079 
L 395.373007 46.44901 
L 395.753614 46.55153 
L 396.514752 46.487436 
L 399.559338 46.528942 
L 400.701029 46.451913 
L 401.462176 46.487326 
L 409.073574 46.496289 
L 409.834699 46.50797 
L 410.215267 46.489548 
L 410.595669 46.221663 
L 410.976427 46.795385 
L 411.357002 46.500587 
L 415.162679 46.444951 
L 415.543267 46.522754 
L 416.304403 46.502405 
L 418.207268 46.504994 
L 418.587741 46.336534 
L 418.968399 46.634795 
L 419.729513 46.424413 
L 420.110133 46.572353 
L 421.632439 46.49414 
L 422.774162 46.522148 
L 423.154806 46.61214 
L 423.535271 46.324644 
L 423.91585 46.506041 
L 428.863336 46.522074 
L 429.243872 46.438962 
L 430.385583 46.489438 
L 431.907872 46.496491 
L 434.952419 46.451564 
L 436.094142 46.509016 
L 437.996973 46.513387 
L 440.280449 46.501395 
L 440.660977 46.424707 
L 441.422138 46.508521 
L 444.847277 46.488667 
L 445.989027 46.493111 
L 446.750147 46.507584 
L 448.272435 46.497428 
L 448.653071 46.598535 
L 449.033542 46.333594 
L 449.414135 46.529126 
L 450.175269 46.490816 
L 450.936434 46.489034 
L 452.458748 46.521064 
L 454.742178 46.486977 
L 456.264499 46.524204 
L 457.78674 46.41328 
L 458.547897 46.5074 
L 459.309055 46.48503 
L 459.689583 46.425956 
L 460.070218 46.596369 
L 460.450781 46.480971 
L 461.973109 46.540567 
L 463.875965 46.493681 
L 468.823451 46.511349 
L 469.20399 46.44293 
L 469.965156 46.515665 
L 473.770899 46.490522 
L 476.434894 46.486683 
L 479.098921 46.504811 
L 481.001747 46.504021 
L 483.285238 46.565871 
L 484.046346 46.470942 
L 488.61319 46.48514 
L 489.374318 46.512377 
L 490.135534 46.582011 
L 490.516049 46.404168 
L 491.277192 46.500715 
L 498.508096 46.508337 
L 500.410962 46.48931 
L 501.933277 46.497134 
L 504.977879 46.486187 
L 505.739043 46.50347 
L 506.119548 46.388864 
L 506.500174 46.581827 
L 507.26133 46.488942 
L 508.783623 46.503121 
L 509.164212 46.522992 
L 509.544658 46.293605 
L 509.925394 46.759603 
L 510.30596 46.486297 
L 512.589387 46.477555 
L 512.969779 46.205633 
L 513.350531 46.785899 
L 513.731107 46.50134 
L 515.63399 46.490081 
L 516.014601 46.558599 
L 516.394967 46.164175 
L 516.775733 46.807733 
L 517.156299 46.487638 
L 518.67858 46.497262 
L 528.192979 46.522919 
L 528.573345 46.164211 
L 528.954108 46.803293 
L 529.334709 46.541614 
L 530.095841 46.488244 
L 531.237573 46.512175 
L 531.618109 46.437548 
L 531.998696 46.520311 
L 533.140412 46.481118 
L 534.282142 46.499264 
L 534.662686 46.450057 
L 535.043276 46.5256 
L 535.804422 46.512396 
L 545.318857 46.510596 
L 545.69938 46.416293 
L 546.460557 46.538124 
L 547.60226 46.503801 
L 553.310835 46.499209 
L 553.691497 46.640339 
L 554.071959 46.319664 
L 554.833091 46.506482 
L 556.736019 46.509806 
L 557.11648 46.317882 
L 557.497135 46.62881 
L 558.258299 46.490834 
L 560.922304 46.501505 
L 580.331594 46.474928 
L 580.712203 46.554321 
L 581.473349 46.506519 
L 585.279108 46.530154 
L 585.659645 46.438815 
L 586.420811 46.512414 
L 587.181937 46.492818 
L 588.323671 46.520568 
L 590.607136 46.517244 
L 590.987746 46.556726 
L 591.368279 46.43279 
L 592.510042 46.525178 
L 593.271176 46.503195 
L 595.554606 46.505894 
L 600.88259 46.514857 
L 606.972019 46.532321 
L 608.494309 46.466369 
L 609.636047 46.517501 
L 610.777758 46.502295 
L 611.538899 46.515775 
L 615.344678 46.506317 
L 616.86695 46.463999 
L 617.247551 46.54277 
L 618.008693 46.504572 
L 619.531014 46.503801 
L 619.911561 46.45476 
L 620.672742 46.523837 
L 621.433879 46.507033 
L 622.57559 46.481504 
L 622.956321 46.752043 
L 623.336767 46.29241 
L 623.717342 46.501138 
L 624.097862 46.410892 
L 624.478507 46.613407 
L 624.859077 46.493644 
L 625.239753 46.66211 
L 625.620207 46.30658 
L 626.000793 46.517611 
L 627.90372 46.505931 
L 629.045444 46.492726 
L 629.426082 46.600867 
L 629.806603 46.414934 
L 630.948315 46.49886 
L 631.328852 46.438907 
L 632.090005 46.50516 
L 632.470578 46.497115 
L 632.850956 46.183038 
L 633.23174 46.837235 
L 633.612326 46.518181 
L 635.134638 46.498713 
L 636.656964 46.518732 
L 637.037502 46.440946 
L 637.798708 46.552044 
L 638.559867 46.526408 
L 641.985024 46.498199 
L 642.365622 46.537206 
L 642.74616 46.441993 
L 643.507323 46.514581 
L 643.887714 46.20418 
L 644.268476 46.801862 
L 644.649052 46.502313 
L 647.313109 46.500623 
L 648.835373 46.519797 
L 650.357717 46.556378 
L 651.118827 46.433157 
L 651.499422 46.533423 
L 653.021741 46.48705 
L 654.924605 46.489457 
L 656.446895 46.502827 
L 656.827425 46.429006 
L 657.208024 46.53829 
L 657.969165 46.512671 
L 658.730308 46.477591 
L 659.110694 46.196349 
L 659.491449 46.78966 
L 659.872043 46.531532 
L 660.633195 46.518181 
L 665.961514 46.622072 
L 666.342046 46.431761 
L 667.483777 46.522588 
L 669.386625 46.480512 
L 670.147797 46.500642 
L 671.670086 46.496656 
L 672.43127 46.52347 
L 672.811684 46.240064 
L 673.192465 46.832556 
L 673.57304 46.500036 
L 674.334187 46.535168 
L 676.617592 46.438007 
L 676.998179 46.519595 
L 678.139899 46.498125 
L 686.131991 46.529457 
L 686.512663 46.656163 
L 686.893149 46.357206 
L 687.654281 46.502221 
L 688.034821 46.444804 
L 688.79607 46.635584 
L 689.176542 46.33409 
L 689.557129 46.520274 
L 690.698859 46.486169 
L 691.0795 46.605329 
L 691.460002 46.383462 
L 691.840589 46.520127 
L 694.885211 46.505821 
L 699.071593 46.548463 
L 699.452139 46.45375 
L 699.832736 46.535976 
L 701.355034 46.473808 
L 702.116183 46.482771 
L 711.250044 46.522056 
L 712.01119 46.517648 
L 712.391931 46.766797 
L 712.772351 46.251074 
L 713.15293 46.50707 
L 713.91404 46.483193 
L 715.816915 46.501156 
L 720.003247 46.508612 
L 721.525583 46.530412 
L 722.28669 46.464973 
L 723.428425 46.519705 
L 724.570265 46.669728 
L 724.950803 46.440377 
L 727.234254 46.508539 
L 728.756546 46.480806 
L 729.137156 46.55713 
L 729.898287 46.468665 
L 730.278879 46.527455 
L 731.040017 46.510339 
L 732.942904 46.522643 
L 734.465169 46.504462 
L 741.696084 46.517924 
L 742.076612 46.424487 
L 742.4572 46.521652 
L 742.837945 46.774137 
L 743.218384 46.281015 
L 743.598995 46.56005 
L 744.360141 46.500036 
L 751.591033 46.507217 
L 751.971425 46.206368 
L 752.352205 46.83008 
L 752.732788 46.514453 
L 754.255109 46.535719 
L 754.635797 46.68221 
L 755.016287 46.363453 
L 755.396864 46.504664 
L 756.538588 46.517005 
L 756.919095 46.391344 
L 757.299759 46.644028 
L 757.68034 46.510357 
L 758.061013 46.658457 
L 758.441489 46.341091 
L 758.822169 46.669452 
L 759.202608 46.282908 
L 759.583188 46.508025 
L 760.344353 46.509788 
L 760.344353 46.509788 
" clip-path="url(#pb145bff9d2)" style="fill: none; stroke: #1f77b4; stroke-width: 1.5; stroke-linecap: square"/>
   </g>
   <g id="line2d_16">
    <path d="M 63.77 46.607894 
L 795.154 46.607894 
" clip-path="url(#pb145bff9d2)" style="fill: none; stroke-dasharray: 5.55,2.4; stroke-dashoffset: 0; stroke: #0000ff; stroke-width: 1.5"/>
   </g>
   <g id="patch_3">
    <path d="M 63.77 658.84 
L 63.77 46.08 
" style="fill: none; stroke: #000000; stroke-width: 0.8; stroke-linejoin: miter; stroke-linecap: square"/>
   </g>
   <g id="patch_4">
    <path d="M 795.154 658.84 
L 795.154 46.08 
" style="fill: none; stroke: #000000; stroke-width: 0.8; stroke-linejoin: miter; stroke-linecap: square"/>
   </g>
   <g id="patch_5">
    <path d="M 63.77 658.84 
L 795.154 658.84 
" style="fill: none; stroke: #000000; stroke-width: 0.8; stroke-linejoin: miter; stroke-linecap: square"/>
   </g>
   <g id="patch_6">
    <path d="M 63.77 46.08 
L 795.154 46.08 
" style="fill: none; stroke: #000000; stroke-width: 0.8; stroke-linejoin: miter; stroke-linecap: square"/>
   </g>
   <g id="text_17">
    <!-- Packet Rate from Timestamps (SelectionProcess: 16777217) -->
    <g transform="translate(248.322 40.08) scale(0.12 -0.12)">
     <defs>
      <path id="DejaVuSans-52" d="M 2841 2188 
Q 3044 2119 3236 1894 
Q 3428 1669 3622 1275 
L 4263 0 
L 3584 0 
L 2988 1197 
Q 2756 1666 2539 1819 
Q 2322 1972 1947 1972 
L 1259 1972 
L 1259 0 
L 628 0 
L 628 4666 
L 2053 4666 
Q 2853 4666 3247 4331 
Q 3641 3997 3641 3322 
Q 3641 2881 3436 2590 
Q 3231 2300 2841 2188 
z
M 1259 4147 
L 1259 2491 
L 2053 2491 
Q 2509 2491 2742 2702 
Q 2975 2913 2975 3322 
Q 2975 3731 2742 3939 
Q 2509 4147 2053 4147 
L 1259 4147 
z
" transform="scale(0.015625)"/>
      <path id="DejaVuSans-66" d="M 2375 4863 
L 2375 4384 
L 1825 4384 
Q 1516 4384 1395 4259 
Q 1275 4134 1275 3809 
L 1275 3500 
L 2222 3500 
L 2222 3053 
L 1275 3053 
L 1275 0 
L 697 0 
L 697 3053 
L 147 3053 
L 147 3500 
L 697 3500 
L 697 3744 
Q 697 4328 969 4595 
Q 1241 4863 1831 4863 
L 2375 4863 
z
" transform="scale(0.015625)"/>
      <path id="DejaVuSans-6c" d="M 603 4863 
L 1178 4863 
L 1178 0 
L 603 0 
L 603 4863 
z
" transform="scale(0.015625)"/>
      <path id="DejaVuSans-3a" d="M 750 794 
L 1409 794 
L 1409 0 
L 750 0 
L 750 794 
z
M 750 3309 
L 1409 3309 
L 1409 2516 
L 750 2516 
L 750 3309 
z
" transform="scale(0.015625)"/>
      <path id="DejaVuSans-37" d="M 525 4666 
L 3525 4666 
L 3525 4397 
L 1831 0 
L 1172 0 
L 2766 4134 
L 525 4134 
L 525 4666 
z
" transform="scale(0.015625)"/>
     </defs>
     <use xlink:href="#DejaVuSans-50"/>
     <use xlink:href="#DejaVuSans-61" x="55.802734"/>
     <use xlink:href="#DejaVuSans-63" x="117.082031"/>
     <use xlink:href="#DejaVuSans-6b" x="172.0625"/>
     <use xlink:href="#DejaVuSans-65" x="226.347656"/>
     <use xlink:href="#DejaVuSans-74" x="287.871094"/>
     <use xlink:href="#DejaVuSans-20" x="327.080078"/>
     <use xlink:href="#DejaVuSans-52" x="358.867188"/>
     <use xlink:href="#DejaVuSans-61" x="426.099609"/>
     <use xlink:href="#DejaVuSans-74" x="487.378906"/>
     <use xlink:href="#DejaVuSans-65" x="526.587891"/>
     <use xlink:href="#DejaVuSans-20" x="588.111328"/>
     <use xlink:href="#DejaVuSans-66" x="619.898438"/>
     <use xlink:href="#DejaVuSans-72" x="655.103516"/>
     <use xlink:href="#DejaVuSans-6f" x="693.966797"/>
     <use xlink:href="#DejaVuSans-6d" x="755.148438"/>
     <use xlink:href="#DejaVuSans-20" x="852.560547"/>
     <use xlink:href="#DejaVuSans-54" x="884.347656"/>
     <use xlink:href="#DejaVuSans-69" x="942.306641"/>
     <use xlink:href="#DejaVuSans-6d" x="970.089844"/>
     <use xlink:href="#DejaVuSans-65" x="1067.501953"/>
     <use xlink:href="#DejaVuSans-73" x="1129.025391"/>
     <use xlink:href="#DejaVuSans-74" x="1181.125"/>
     <use xlink:href="#DejaVuSans-61" x="1220.333984"/>
     <use xlink:href="#DejaVuSans-6d" x="1281.613281"/>
     <use xlink:href="#DejaVuSans-70" x="1379.025391"/>
     <use xlink:href="#DejaVuSans-73" x="1442.501953"/>
     <use xlink:href="#DejaVuSans-20" x="1494.601562"/>
     <use xlink:href="#DejaVuSans-28" x="1526.388672"/>
     <use xlink:href="#DejaVuSans-53" x="1565.402344"/>
     <use xlink:href="#DejaVuSans-65" x="1628.878906"/>
     <use xlink:href="#DejaVuSans-6c" x="1690.402344"/>
     <use xlink:href="#DejaVuSans-65" x="1718.185547"/>
     <use xlink:href="#DejaVuSans-63" x="1779.708984"/>
     <use xlink:href="#DejaVuSans-74" x="1834.689453"/>
     <use xlink:href="#DejaVuSans-69" x="1873.898438"/>
     <use xlink:href="#DejaVuSans-6f" x="1901.681641"/>
     <use xlink:href="#DejaVuSans-6e" x="1962.863281"/>
     <use xlink:href="#DejaVuSans-50" x="2026.242188"/>
     <use xlink:href="#DejaVuSans-72" x="2084.794922"/>
     <use xlink:href="#DejaVuSans-6f" x="2123.658203"/>
     <use xlink:href="#DejaVuSans-63" x="2184.839844"/>
     <use xlink:href="#DejaVuSans-65" x="2239.820312"/>
     <use xlink:href="#DejaVuSans-73" x="2301.34375"/>
     <use xlink:href="#DejaVuSans-73" x="2353.443359"/>
     <use xlink:href="#DejaVuSans-3a" x="2405.542969"/>
     <use xlink:href="#DejaVuSans-20" x="2439.234375"/>
     <use xlink:href="#DejaVuSans-31" x="2471.021484"/>
     <use xlink:href="#DejaVuSans-36" x="2534.644531"/>
     <use xlink:href="#DejaVuSans-37" x="2598.267578"/>
     <use xlink:href="#DejaVuSans-37" x="2661.890625"/>
     <use xlink:href="#DejaVuSans-37" x="2725.513672"/>
     <use xlink:href="#DejaVuSans-32" x="2789.136719"/>
     <use xlink:href="#DejaVuSans-31" x="2852.759766"/>
     <use xlink:href="#DejaVuSans-37" x="2916.382812"/>
     <use xlink:href="#DejaVuSans-29" x="2980.005859"/>
    </g>
   </g>
   <g id="legend_1">
    <g id="patch_7">
     <path d="M 802.154 368.638125 
L 983.61025 368.638125 
Q 985.61025 368.638125 985.61025 366.638125 
L 985.61025 338.281875 
Q 985.61025 336.281875 983.61025 336.281875 
L 802.154 336.281875 
Q 800.154 336.281875 800.154 338.281875 
L 800.154 366.638125 
Q 800.154 368.638125 802.154 368.638125 
z
" style="fill: #ffffff; opacity: 0.8; stroke: #cccccc; stroke-linejoin: miter"/>
    </g>
    <g id="line2d_17">
     <path d="M 804.154 344.380313 
L 814.154 344.380313 
L 824.154 344.380313 
" style="fill: none; stroke: #1f77b4; stroke-width: 1.5; stroke-linecap: square"/>
    </g>
    <g id="text_18">
     <!-- Packet Rate from Timestamps -->
     <g transform="translate(832.154 347.880313) scale(0.1 -0.1)">
      <use xlink:href="#DejaVuSans-50"/>
      <use xlink:href="#DejaVuSans-61" x="55.802734"/>
      <use xlink:href="#DejaVuSans-63" x="117.082031"/>
      <use xlink:href="#DejaVuSans-6b" x="172.0625"/>
      <use xlink:href="#DejaVuSans-65" x="226.347656"/>
      <use xlink:href="#DejaVuSans-74" x="287.871094"/>
      <use xlink:href="#DejaVuSans-20" x="327.080078"/>
      <use xlink:href="#DejaVuSans-52" x="358.867188"/>
      <use xlink:href="#DejaVuSans-61" x="426.099609"/>
      <use xlink:href="#DejaVuSans-74" x="487.378906"/>
      <use xlink:href="#DejaVuSans-65" x="526.587891"/>
      <use xlink:href="#DejaVuSans-20" x="588.111328"/>
      <use xlink:href="#DejaVuSans-66" x="619.898438"/>
      <use xlink:href="#DejaVuSans-72" x="655.103516"/>
      <use xlink:href="#DejaVuSans-6f" x="693.966797"/>
      <use xlink:href="#DejaVuSans-6d" x="755.148438"/>
      <use xlink:href="#DejaVuSans-20" x="852.560547"/>
      <use xlink:href="#DejaVuSans-54" x="884.347656"/>
      <use xlink:href="#DejaVuSans-69" x="942.306641"/>
      <use xlink:href="#DejaVuSans-6d" x="970.089844"/>
      <use xlink:href="#DejaVuSans-65" x="1067.501953"/>
      <use xlink:href="#DejaVuSans-73" x="1129.025391"/>
      <use xlink:href="#DejaVuSans-74" x="1181.125"/>
      <use xlink:href="#DejaVuSans-61" x="1220.333984"/>
      <use xlink:href="#DejaVuSans-6d" x="1281.613281"/>
      <use xlink:href="#DejaVuSans-70" x="1379.025391"/>
      <use xlink:href="#DejaVuSans-73" x="1442.501953"/>
     </g>
    </g>
    <g id="line2d_18">
     <path d="M 804.154 359.058438 
L 814.154 359.058438 
L 824.154 359.058438 
" style="fill: none; stroke-dasharray: 5.55,2.4; stroke-dashoffset: 0; stroke: #0000ff; stroke-width: 1.5"/>
    </g>
    <g id="text_19">
     <!-- Packet Rate Average -->
     <g transform="translate(832.154 362.558438) scale(0.1 -0.1)">
      <defs>
       <path id="DejaVuSans-41" d="M 2188 4044 
L 1331 1722 
L 3047 1722 
L 2188 4044 
z
M 1831 4666 
L 2547 4666 
L 4325 0 
L 3669 0 
L 3244 1197 
L 1141 1197 
L 716 0 
L 50 0 
L 1831 4666 
z
" transform="scale(0.015625)"/>
       <path id="DejaVuSans-76" d="M 191 3500 
L 800 3500 
L 1894 563 
L 2988 3500 
L 3597 3500 
L 2284 0 
L 1503 0 
L 191 3500 
z
" transform="scale(0.015625)"/>
       <path id="DejaVuSans-67" d="M 2906 1791 
Q 2906 2416 2648 2759 
Q 2391 3103 1925 3103 
Q 1463 3103 1205 2759 
Q 947 2416 947 1791 
Q 947 1169 1205 825 
Q 1463 481 1925 481 
Q 2391 481 2648 825 
Q 2906 1169 2906 1791 
z
M 3481 434 
Q 3481 -459 3084 -895 
Q 2688 -1331 1869 -1331 
Q 1566 -1331 1297 -1286 
Q 1028 -1241 775 -1147 
L 775 -588 
Q 1028 -725 1275 -790 
Q 1522 -856 1778 -856 
Q 2344 -856 2625 -561 
Q 2906 -266 2906 331 
L 2906 616 
Q 2728 306 2450 153 
Q 2172 0 1784 0 
Q 1141 0 747 490 
Q 353 981 353 1791 
Q 353 2603 747 3093 
Q 1141 3584 1784 3584 
Q 2172 3584 2450 3431 
Q 2728 3278 2906 2969 
L 2906 3500 
L 3481 3500 
L 3481 434 
z
" transform="scale(0.015625)"/>
      </defs>
      <use xlink:href="#DejaVuSans-50"/>
      <use xlink:href="#DejaVuSans-61" x="55.802734"/>
      <use xlink:href="#DejaVuSans-63" x="117.082031"/>
      <use xlink:href="#DejaVuSans-6b" x="172.0625"/>
      <use xlink:href="#DejaVuSans-65" x="226.347656"/>
      <use xlink:href="#DejaVuSans-74" x="287.871094"/>
      <use xlink:href="#DejaVuSans-20" x="327.080078"/>
      <use xlink:href="#DejaVuSans-52" x="358.867188"/>
      <use xlink:href="#DejaVuSans-61" x="426.099609"/>
      <use xlink:href="#DejaVuSans-74" x="487.378906"/>
      <use xlink:href="#DejaVuSans-65" x="526.587891"/>
      <use xlink:href="#DejaVuSans-20" x="588.111328"/>
      <use xlink:href="#DejaVuSans-41" x="619.898438"/>
      <use xlink:href="#DejaVuSans-76" x="682.431641"/>
      <use xlink:href="#DejaVuSans-65" x="741.611328"/>
      <use xlink:href="#DejaVuSans-72" x="803.134766"/>
      <use xlink:href="#DejaVuSans-61" x="844.248047"/>
      <use xlink:href="#DejaVuSans-67" x="905.527344"/>
      <use xlink:href="#DejaVuSans-65" x="969.003906"/>
     </g>
    </g>
   </g>
  </g>
 </g>
 <defs>
  <clipPath id="pb145bff9d2">
   <rect x="63.77" y="46.08" width="731.384" height="612.76"/>
  </clipPath>
 </defs>
</svg>
