<?xml version="1.0" encoding="utf-8" standalone="no"?>
<!DOCTYPE svg PUBLIC "-//W3C//DTD SVG 1.1//EN"
  "http://www.w3.org/Graphics/SVG/1.1/DTD/svg11.dtd">
<svg xmlns:xlink="http://www.w3.org/1999/xlink" width="1008pt" height="720pt" viewBox="0 0 1008 720" xmlns="http://www.w3.org/2000/svg" version="1.1">
 <metadata>
  <rdf:RDF xmlns:dc="http://purl.org/dc/elements/1.1/" xmlns:cc="http://creativecommons.org/ns#" xmlns:rdf="http://www.w3.org/1999/02/22-rdf-syntax-ns#">
   <cc:Work>
    <dc:type rdf:resource="http://purl.org/dc/dcmitype/StillImage"/>
    <dc:date>2023-04-13T18:38:14.901508</dc:date>
    <dc:format>image/svg+xml</dc:format>
    <dc:creator>
     <cc:Agent>
      <dc:title>Matplotlib v3.6.2, https://matplotlib.org/</dc:title>
     </cc:Agent>
    </dc:creator>
   </cc:Work>
  </rdf:RDF>
 </metadata>
 <defs>
  <style type="text/css">*{stroke-linejoin: round; stroke-linecap: butt}</style>
 </defs>
 <g id="figure_1">
  <g id="patch_1">
   <path d="M 0 720 
L 1008 720 
L 1008 0 
L 0 0 
z
" style="fill: #ffffff"/>
  </g>
  <g id="axes_1">
   <g id="patch_2">
    <path d="M 93.32 639.64 
L 791.464 639.64 
L 791.464 60.96 
L 93.32 60.96 
z
" style="fill: #ffffff"/>
   </g>
   <g id="matplotlib.axis_1">
    <g id="xtick_1">
     <g id="line2d_1">
      <defs>
       <path id="m270eef5f18" d="M 0 0 
L 0 3.5 
" style="stroke: #000000; stroke-width: 0.8"/>
      </defs>
      <g>
       <use xlink:href="#m270eef5f18" x="93.32" y="639.64" style="stroke: #000000; stroke-width: 0.8"/>
      </g>
     </g>
     <g id="text_1">
      <!-- 0 -->
      <g transform="translate(88.86625 657.277812) scale(0.14 -0.14)">
       <defs>
        <path id="DejaVuSans-30" d="M 2034 4250 
Q 1547 4250 1301 3770 
Q 1056 3291 1056 2328 
Q 1056 1369 1301 889 
Q 1547 409 2034 409 
Q 2525 409 2770 889 
Q 3016 1369 3016 2328 
Q 3016 3291 2770 3770 
Q 2525 4250 2034 4250 
z
M 2034 4750 
Q 2819 4750 3233 4129 
Q 3647 3509 3647 2328 
Q 3647 1150 3233 529 
Q 2819 -91 2034 -91 
Q 1250 -91 836 529 
Q 422 1150 422 2328 
Q 422 3509 836 4129 
Q 1250 4750 2034 4750 
z
" transform="scale(0.015625)"/>
       </defs>
       <use xlink:href="#DejaVuSans-30"/>
      </g>
     </g>
    </g>
    <g id="xtick_2">
     <g id="line2d_2">
      <g>
       <use xlink:href="#m270eef5f18" x="200.047576" y="639.64" style="stroke: #000000; stroke-width: 0.8"/>
      </g>
     </g>
     <g id="text_2">
      <!-- 10 -->
      <g transform="translate(191.140076 657.277812) scale(0.14 -0.14)">
       <defs>
        <path id="DejaVuSans-31" d="M 794 531 
L 1825 531 
L 1825 4091 
L 703 3866 
L 703 4441 
L 1819 4666 
L 2450 4666 
L 2450 531 
L 3481 531 
L 3481 0 
L 794 0 
L 794 531 
z
" transform="scale(0.015625)"/>
       </defs>
       <use xlink:href="#DejaVuSans-31"/>
       <use xlink:href="#DejaVuSans-30" x="63.623047"/>
      </g>
     </g>
    </g>
    <g id="xtick_3">
     <g id="line2d_3">
      <g>
       <use xlink:href="#m270eef5f18" x="306.775152" y="639.64" style="stroke: #000000; stroke-width: 0.8"/>
      </g>
     </g>
     <g id="text_3">
      <!-- 20 -->
      <g transform="translate(297.867652 657.277812) scale(0.14 -0.14)">
       <defs>
        <path id="DejaVuSans-32" d="M 1228 531 
L 3431 531 
L 3431 0 
L 469 0 
L 469 531 
Q 828 903 1448 1529 
Q 2069 2156 2228 2338 
Q 2531 2678 2651 2914 
Q 2772 3150 2772 3378 
Q 2772 3750 2511 3984 
Q 2250 4219 1831 4219 
Q 1534 4219 1204 4116 
Q 875 4013 500 3803 
L 500 4441 
Q 881 4594 1212 4672 
Q 1544 4750 1819 4750 
Q 2544 4750 2975 4387 
Q 3406 4025 3406 3419 
Q 3406 3131 3298 2873 
Q 3191 2616 2906 2266 
Q 2828 2175 2409 1742 
Q 1991 1309 1228 531 
z
" transform="scale(0.015625)"/>
       </defs>
       <use xlink:href="#DejaVuSans-32"/>
       <use xlink:href="#DejaVuSans-30" x="63.623047"/>
      </g>
     </g>
    </g>
    <g id="xtick_4">
     <g id="line2d_4">
      <g>
       <use xlink:href="#m270eef5f18" x="413.502728" y="639.64" style="stroke: #000000; stroke-width: 0.8"/>
      </g>
     </g>
     <g id="text_4">
      <!-- 30 -->
      <g transform="translate(404.595228 657.277812) scale(0.14 -0.14)">
       <defs>
        <path id="DejaVuSans-33" d="M 2597 2516 
Q 3050 2419 3304 2112 
Q 3559 1806 3559 1356 
Q 3559 666 3084 287 
Q 2609 -91 1734 -91 
Q 1441 -91 1130 -33 
Q 819 25 488 141 
L 488 750 
Q 750 597 1062 519 
Q 1375 441 1716 441 
Q 2309 441 2620 675 
Q 2931 909 2931 1356 
Q 2931 1769 2642 2001 
Q 2353 2234 1838 2234 
L 1294 2234 
L 1294 2753 
L 1863 2753 
Q 2328 2753 2575 2939 
Q 2822 3125 2822 3475 
Q 2822 3834 2567 4026 
Q 2313 4219 1838 4219 
Q 1578 4219 1281 4162 
Q 984 4106 628 3988 
L 628 4550 
Q 988 4650 1302 4700 
Q 1616 4750 1894 4750 
Q 2613 4750 3031 4423 
Q 3450 4097 3450 3541 
Q 3450 3153 3228 2886 
Q 3006 2619 2597 2516 
z
" transform="scale(0.015625)"/>
       </defs>
       <use xlink:href="#DejaVuSans-33"/>
       <use xlink:href="#DejaVuSans-30" x="63.623047"/>
      </g>
     </g>
    </g>
    <g id="xtick_5">
     <g id="line2d_5">
      <g>
       <use xlink:href="#m270eef5f18" x="520.230304" y="639.64" style="stroke: #000000; stroke-width: 0.8"/>
      </g>
     </g>
     <g id="text_5">
      <!-- 40 -->
      <g transform="translate(511.322804 657.277812) scale(0.14 -0.14)">
       <defs>
        <path id="DejaVuSans-34" d="M 2419 4116 
L 825 1625 
L 2419 1625 
L 2419 4116 
z
M 2253 4666 
L 3047 4666 
L 3047 1625 
L 3713 1625 
L 3713 1100 
L 3047 1100 
L 3047 0 
L 2419 0 
L 2419 1100 
L 313 1100 
L 313 1709 
L 2253 4666 
z
" transform="scale(0.015625)"/>
       </defs>
       <use xlink:href="#DejaVuSans-34"/>
       <use xlink:href="#DejaVuSans-30" x="63.623047"/>
      </g>
     </g>
    </g>
    <g id="xtick_6">
     <g id="line2d_6">
      <g>
       <use xlink:href="#m270eef5f18" x="626.95788" y="639.64" style="stroke: #000000; stroke-width: 0.8"/>
      </g>
     </g>
     <g id="text_6">
      <!-- 50 -->
      <g transform="translate(618.05038 657.277812) scale(0.14 -0.14)">
       <defs>
        <path id="DejaVuSans-35" d="M 691 4666 
L 3169 4666 
L 3169 4134 
L 1269 4134 
L 1269 2991 
Q 1406 3038 1543 3061 
Q 1681 3084 1819 3084 
Q 2600 3084 3056 2656 
Q 3513 2228 3513 1497 
Q 3513 744 3044 326 
Q 2575 -91 1722 -91 
Q 1428 -91 1123 -41 
Q 819 9 494 109 
L 494 744 
Q 775 591 1075 516 
Q 1375 441 1709 441 
Q 2250 441 2565 725 
Q 2881 1009 2881 1497 
Q 2881 1984 2565 2268 
Q 2250 2553 1709 2553 
Q 1456 2553 1204 2497 
Q 953 2441 691 2322 
L 691 4666 
z
" transform="scale(0.015625)"/>
       </defs>
       <use xlink:href="#DejaVuSans-35"/>
       <use xlink:href="#DejaVuSans-30" x="63.623047"/>
      </g>
     </g>
    </g>
    <g id="xtick_7">
     <g id="line2d_7">
      <g>
       <use xlink:href="#m270eef5f18" x="733.685456" y="639.64" style="stroke: #000000; stroke-width: 0.8"/>
      </g>
     </g>
     <g id="text_7">
      <!-- 60 -->
      <g transform="translate(724.777956 657.277812) scale(0.14 -0.14)">
       <defs>
        <path id="DejaVuSans-36" d="M 2113 2584 
Q 1688 2584 1439 2293 
Q 1191 2003 1191 1497 
Q 1191 994 1439 701 
Q 1688 409 2113 409 
Q 2538 409 2786 701 
Q 3034 994 3034 1497 
Q 3034 2003 2786 2293 
Q 2538 2584 2113 2584 
z
M 3366 4563 
L 3366 3988 
Q 3128 4100 2886 4159 
Q 2644 4219 2406 4219 
Q 1781 4219 1451 3797 
Q 1122 3375 1075 2522 
Q 1259 2794 1537 2939 
Q 1816 3084 2150 3084 
Q 2853 3084 3261 2657 
Q 3669 2231 3669 1497 
Q 3669 778 3244 343 
Q 2819 -91 2113 -91 
Q 1303 -91 875 529 
Q 447 1150 447 2328 
Q 447 3434 972 4092 
Q 1497 4750 2381 4750 
Q 2619 4750 2861 4703 
Q 3103 4656 3366 4563 
z
" transform="scale(0.015625)"/>
       </defs>
       <use xlink:href="#DejaVuSans-36"/>
       <use xlink:href="#DejaVuSans-30" x="63.623047"/>
      </g>
     </g>
    </g>
    <g id="text_8">
     <!-- Time (s) -->
     <g transform="translate(413.931531 674.827188) scale(0.14 -0.14)">
      <defs>
       <path id="DejaVuSans-54" d="M -19 4666 
L 3928 4666 
L 3928 4134 
L 2272 4134 
L 2272 0 
L 1638 0 
L 1638 4134 
L -19 4134 
L -19 4666 
z
" transform="scale(0.015625)"/>
       <path id="DejaVuSans-69" d="M 603 3500 
L 1178 3500 
L 1178 0 
L 603 0 
L 603 3500 
z
M 603 4863 
L 1178 4863 
L 1178 4134 
L 603 4134 
L 603 4863 
z
" transform="scale(0.015625)"/>
       <path id="DejaVuSans-6d" d="M 3328 2828 
Q 3544 3216 3844 3400 
Q 4144 3584 4550 3584 
Q 5097 3584 5394 3201 
Q 5691 2819 5691 2113 
L 5691 0 
L 5113 0 
L 5113 2094 
Q 5113 2597 4934 2840 
Q 4756 3084 4391 3084 
Q 3944 3084 3684 2787 
Q 3425 2491 3425 1978 
L 3425 0 
L 2847 0 
L 2847 2094 
Q 2847 2600 2669 2842 
Q 2491 3084 2119 3084 
Q 1678 3084 1418 2786 
Q 1159 2488 1159 1978 
L 1159 0 
L 581 0 
L 581 3500 
L 1159 3500 
L 1159 2956 
Q 1356 3278 1631 3431 
Q 1906 3584 2284 3584 
Q 2666 3584 2933 3390 
Q 3200 3197 3328 2828 
z
" transform="scale(0.015625)"/>
       <path id="DejaVuSans-65" d="M 3597 1894 
L 3597 1613 
L 953 1613 
Q 991 1019 1311 708 
Q 1631 397 2203 397 
Q 2534 397 2845 478 
Q 3156 559 3463 722 
L 3463 178 
Q 3153 47 2828 -22 
Q 2503 -91 2169 -91 
Q 1331 -91 842 396 
Q 353 884 353 1716 
Q 353 2575 817 3079 
Q 1281 3584 2069 3584 
Q 2775 3584 3186 3129 
Q 3597 2675 3597 1894 
z
M 3022 2063 
Q 3016 2534 2758 2815 
Q 2500 3097 2075 3097 
Q 1594 3097 1305 2825 
Q 1016 2553 972 2059 
L 3022 2063 
z
" transform="scale(0.015625)"/>
       <path id="DejaVuSans-20" transform="scale(0.015625)"/>
       <path id="DejaVuSans-28" d="M 1984 4856 
Q 1566 4138 1362 3434 
Q 1159 2731 1159 2009 
Q 1159 1288 1364 580 
Q 1569 -128 1984 -844 
L 1484 -844 
Q 1016 -109 783 600 
Q 550 1309 550 2009 
Q 550 2706 781 3412 
Q 1013 4119 1484 4856 
L 1984 4856 
z
" transform="scale(0.015625)"/>
       <path id="DejaVuSans-73" d="M 2834 3397 
L 2834 2853 
Q 2591 2978 2328 3040 
Q 2066 3103 1784 3103 
Q 1356 3103 1142 2972 
Q 928 2841 928 2578 
Q 928 2378 1081 2264 
Q 1234 2150 1697 2047 
L 1894 2003 
Q 2506 1872 2764 1633 
Q 3022 1394 3022 966 
Q 3022 478 2636 193 
Q 2250 -91 1575 -91 
Q 1294 -91 989 -36 
Q 684 19 347 128 
L 347 722 
Q 666 556 975 473 
Q 1284 391 1588 391 
Q 1994 391 2212 530 
Q 2431 669 2431 922 
Q 2431 1156 2273 1281 
Q 2116 1406 1581 1522 
L 1381 1569 
Q 847 1681 609 1914 
Q 372 2147 372 2553 
Q 372 3047 722 3315 
Q 1072 3584 1716 3584 
Q 2034 3584 2315 3537 
Q 2597 3491 2834 3397 
z
" transform="scale(0.015625)"/>
       <path id="DejaVuSans-29" d="M 513 4856 
L 1013 4856 
Q 1481 4119 1714 3412 
Q 1947 2706 1947 2009 
Q 1947 1309 1714 600 
Q 1481 -109 1013 -844 
L 513 -844 
Q 928 -128 1133 580 
Q 1338 1288 1338 2009 
Q 1338 2731 1133 3434 
Q 928 4138 513 4856 
z
" transform="scale(0.015625)"/>
      </defs>
      <use xlink:href="#DejaVuSans-54"/>
      <use xlink:href="#DejaVuSans-69" x="57.958984"/>
      <use xlink:href="#DejaVuSans-6d" x="85.742188"/>
      <use xlink:href="#DejaVuSans-65" x="183.154297"/>
      <use xlink:href="#DejaVuSans-20" x="244.677734"/>
      <use xlink:href="#DejaVuSans-28" x="276.464844"/>
      <use xlink:href="#DejaVuSans-73" x="315.478516"/>
      <use xlink:href="#DejaVuSans-29" x="367.578125"/>
     </g>
    </g>
   </g>
   <g id="matplotlib.axis_2">
    <g id="ytick_1">
     <g id="line2d_8">
      <defs>
       <path id="m59e9b44a34" d="M 0 0 
L -3.5 0 
" style="stroke: #000000; stroke-width: 0.8"/>
      </defs>
      <g>
       <use xlink:href="#m59e9b44a34" x="93.32" y="639.64" style="stroke: #000000; stroke-width: 0.8"/>
      </g>
     </g>
     <g id="text_9">
      <!-- 0 -->
      <g transform="translate(77.4125 644.958906) scale(0.14 -0.14)">
       <use xlink:href="#DejaVuSans-30"/>
      </g>
     </g>
    </g>
    <g id="ytick_2">
     <g id="line2d_9">
      <g>
       <use xlink:href="#m59e9b44a34" x="93.32" y="546.644303" style="stroke: #000000; stroke-width: 0.8"/>
      </g>
     </g>
     <g id="text_10">
      <!-- 20 -->
      <g transform="translate(68.505 551.963209) scale(0.14 -0.14)">
       <use xlink:href="#DejaVuSans-32"/>
       <use xlink:href="#DejaVuSans-30" x="63.623047"/>
      </g>
     </g>
    </g>
    <g id="ytick_3">
     <g id="line2d_10">
      <g>
       <use xlink:href="#m59e9b44a34" x="93.32" y="453.648605" style="stroke: #000000; stroke-width: 0.8"/>
      </g>
     </g>
     <g id="text_11">
      <!-- 40 -->
      <g transform="translate(68.505 458.967512) scale(0.14 -0.14)">
       <use xlink:href="#DejaVuSans-34"/>
       <use xlink:href="#DejaVuSans-30" x="63.623047"/>
      </g>
     </g>
    </g>
    <g id="ytick_4">
     <g id="line2d_11">
      <g>
       <use xlink:href="#m59e9b44a34" x="93.32" y="360.652908" style="stroke: #000000; stroke-width: 0.8"/>
      </g>
     </g>
     <g id="text_12">
      <!-- 60 -->
      <g transform="translate(68.505 365.971814) scale(0.14 -0.14)">
       <use xlink:href="#DejaVuSans-36"/>
       <use xlink:href="#DejaVuSans-30" x="63.623047"/>
      </g>
     </g>
    </g>
    <g id="ytick_5">
     <g id="line2d_12">
      <g>
       <use xlink:href="#m59e9b44a34" x="93.32" y="267.657211" style="stroke: #000000; stroke-width: 0.8"/>
      </g>
     </g>
     <g id="text_13">
      <!-- 80 -->
      <g transform="translate(68.505 272.976117) scale(0.14 -0.14)">
       <defs>
        <path id="DejaVuSans-38" d="M 2034 2216 
Q 1584 2216 1326 1975 
Q 1069 1734 1069 1313 
Q 1069 891 1326 650 
Q 1584 409 2034 409 
Q 2484 409 2743 651 
Q 3003 894 3003 1313 
Q 3003 1734 2745 1975 
Q 2488 2216 2034 2216 
z
M 1403 2484 
Q 997 2584 770 2862 
Q 544 3141 544 3541 
Q 544 4100 942 4425 
Q 1341 4750 2034 4750 
Q 2731 4750 3128 4425 
Q 3525 4100 3525 3541 
Q 3525 3141 3298 2862 
Q 3072 2584 2669 2484 
Q 3125 2378 3379 2068 
Q 3634 1759 3634 1313 
Q 3634 634 3220 271 
Q 2806 -91 2034 -91 
Q 1263 -91 848 271 
Q 434 634 434 1313 
Q 434 1759 690 2068 
Q 947 2378 1403 2484 
z
M 1172 3481 
Q 1172 3119 1398 2916 
Q 1625 2713 2034 2713 
Q 2441 2713 2670 2916 
Q 2900 3119 2900 3481 
Q 2900 3844 2670 4047 
Q 2441 4250 2034 4250 
Q 1625 4250 1398 4047 
Q 1172 3844 1172 3481 
z
" transform="scale(0.015625)"/>
       </defs>
       <use xlink:href="#DejaVuSans-38"/>
       <use xlink:href="#DejaVuSans-30" x="63.623047"/>
      </g>
     </g>
    </g>
    <g id="ytick_6">
     <g id="line2d_13">
      <g>
       <use xlink:href="#m59e9b44a34" x="93.32" y="174.661514" style="stroke: #000000; stroke-width: 0.8"/>
      </g>
     </g>
     <g id="text_14">
      <!-- 100 -->
      <g transform="translate(59.5975 179.98042) scale(0.14 -0.14)">
       <use xlink:href="#DejaVuSans-31"/>
       <use xlink:href="#DejaVuSans-30" x="63.623047"/>
       <use xlink:href="#DejaVuSans-30" x="127.246094"/>
      </g>
     </g>
    </g>
    <g id="ytick_7">
     <g id="line2d_14">
      <g>
       <use xlink:href="#m59e9b44a34" x="93.32" y="81.665816" style="stroke: #000000; stroke-width: 0.8"/>
      </g>
     </g>
     <g id="text_15">
      <!-- 120 -->
      <g transform="translate(59.5975 86.984723) scale(0.14 -0.14)">
       <use xlink:href="#DejaVuSans-31"/>
       <use xlink:href="#DejaVuSans-32" x="63.623047"/>
       <use xlink:href="#DejaVuSans-30" x="127.246094"/>
      </g>
     </g>
    </g>
    <g id="text_16">
     <!-- Packets per Second -->
     <g transform="translate(52.685938 418.683438) rotate(-90) scale(0.14 -0.14)">
      <defs>
       <path id="DejaVuSans-50" d="M 1259 4147 
L 1259 2394 
L 2053 2394 
Q 2494 2394 2734 2622 
Q 2975 2850 2975 3272 
Q 2975 3691 2734 3919 
Q 2494 4147 2053 4147 
L 1259 4147 
z
M 628 4666 
L 2053 4666 
Q 2838 4666 3239 4311 
Q 3641 3956 3641 3272 
Q 3641 2581 3239 2228 
Q 2838 1875 2053 1875 
L 1259 1875 
L 1259 0 
L 628 0 
L 628 4666 
z
" transform="scale(0.015625)"/>
       <path id="DejaVuSans-61" d="M 2194 1759 
Q 1497 1759 1228 1600 
Q 959 1441 959 1056 
Q 959 750 1161 570 
Q 1363 391 1709 391 
Q 2188 391 2477 730 
Q 2766 1069 2766 1631 
L 2766 1759 
L 2194 1759 
z
M 3341 1997 
L 3341 0 
L 2766 0 
L 2766 531 
Q 2569 213 2275 61 
Q 1981 -91 1556 -91 
Q 1019 -91 701 211 
Q 384 513 384 1019 
Q 384 1609 779 1909 
Q 1175 2209 1959 2209 
L 2766 2209 
L 2766 2266 
Q 2766 2663 2505 2880 
Q 2244 3097 1772 3097 
Q 1472 3097 1187 3025 
Q 903 2953 641 2809 
L 641 3341 
Q 956 3463 1253 3523 
Q 1550 3584 1831 3584 
Q 2591 3584 2966 3190 
Q 3341 2797 3341 1997 
z
" transform="scale(0.015625)"/>
       <path id="DejaVuSans-63" d="M 3122 3366 
L 3122 2828 
Q 2878 2963 2633 3030 
Q 2388 3097 2138 3097 
Q 1578 3097 1268 2742 
Q 959 2388 959 1747 
Q 959 1106 1268 751 
Q 1578 397 2138 397 
Q 2388 397 2633 464 
Q 2878 531 3122 666 
L 3122 134 
Q 2881 22 2623 -34 
Q 2366 -91 2075 -91 
Q 1284 -91 818 406 
Q 353 903 353 1747 
Q 353 2603 823 3093 
Q 1294 3584 2113 3584 
Q 2378 3584 2631 3529 
Q 2884 3475 3122 3366 
z
" transform="scale(0.015625)"/>
       <path id="DejaVuSans-6b" d="M 581 4863 
L 1159 4863 
L 1159 1991 
L 2875 3500 
L 3609 3500 
L 1753 1863 
L 3688 0 
L 2938 0 
L 1159 1709 
L 1159 0 
L 581 0 
L 581 4863 
z
" transform="scale(0.015625)"/>
       <path id="DejaVuSans-74" d="M 1172 4494 
L 1172 3500 
L 2356 3500 
L 2356 3053 
L 1172 3053 
L 1172 1153 
Q 1172 725 1289 603 
Q 1406 481 1766 481 
L 2356 481 
L 2356 0 
L 1766 0 
Q 1100 0 847 248 
Q 594 497 594 1153 
L 594 3053 
L 172 3053 
L 172 3500 
L 594 3500 
L 594 4494 
L 1172 4494 
z
" transform="scale(0.015625)"/>
       <path id="DejaVuSans-70" d="M 1159 525 
L 1159 -1331 
L 581 -1331 
L 581 3500 
L 1159 3500 
L 1159 2969 
Q 1341 3281 1617 3432 
Q 1894 3584 2278 3584 
Q 2916 3584 3314 3078 
Q 3713 2572 3713 1747 
Q 3713 922 3314 415 
Q 2916 -91 2278 -91 
Q 1894 -91 1617 61 
Q 1341 213 1159 525 
z
M 3116 1747 
Q 3116 2381 2855 2742 
Q 2594 3103 2138 3103 
Q 1681 3103 1420 2742 
Q 1159 2381 1159 1747 
Q 1159 1113 1420 752 
Q 1681 391 2138 391 
Q 2594 391 2855 752 
Q 3116 1113 3116 1747 
z
" transform="scale(0.015625)"/>
       <path id="DejaVuSans-72" d="M 2631 2963 
Q 2534 3019 2420 3045 
Q 2306 3072 2169 3072 
Q 1681 3072 1420 2755 
Q 1159 2438 1159 1844 
L 1159 0 
L 581 0 
L 581 3500 
L 1159 3500 
L 1159 2956 
Q 1341 3275 1631 3429 
Q 1922 3584 2338 3584 
Q 2397 3584 2469 3576 
Q 2541 3569 2628 3553 
L 2631 2963 
z
" transform="scale(0.015625)"/>
       <path id="DejaVuSans-53" d="M 3425 4513 
L 3425 3897 
Q 3066 4069 2747 4153 
Q 2428 4238 2131 4238 
Q 1616 4238 1336 4038 
Q 1056 3838 1056 3469 
Q 1056 3159 1242 3001 
Q 1428 2844 1947 2747 
L 2328 2669 
Q 3034 2534 3370 2195 
Q 3706 1856 3706 1288 
Q 3706 609 3251 259 
Q 2797 -91 1919 -91 
Q 1588 -91 1214 -16 
Q 841 59 441 206 
L 441 856 
Q 825 641 1194 531 
Q 1563 422 1919 422 
Q 2459 422 2753 634 
Q 3047 847 3047 1241 
Q 3047 1584 2836 1778 
Q 2625 1972 2144 2069 
L 1759 2144 
Q 1053 2284 737 2584 
Q 422 2884 422 3419 
Q 422 4038 858 4394 
Q 1294 4750 2059 4750 
Q 2388 4750 2728 4690 
Q 3069 4631 3425 4513 
z
" transform="scale(0.015625)"/>
       <path id="DejaVuSans-6f" d="M 1959 3097 
Q 1497 3097 1228 2736 
Q 959 2375 959 1747 
Q 959 1119 1226 758 
Q 1494 397 1959 397 
Q 2419 397 2687 759 
Q 2956 1122 2956 1747 
Q 2956 2369 2687 2733 
Q 2419 3097 1959 3097 
z
M 1959 3584 
Q 2709 3584 3137 3096 
Q 3566 2609 3566 1747 
Q 3566 888 3137 398 
Q 2709 -91 1959 -91 
Q 1206 -91 779 398 
Q 353 888 353 1747 
Q 353 2609 779 3096 
Q 1206 3584 1959 3584 
z
" transform="scale(0.015625)"/>
       <path id="DejaVuSans-6e" d="M 3513 2113 
L 3513 0 
L 2938 0 
L 2938 2094 
Q 2938 2591 2744 2837 
Q 2550 3084 2163 3084 
Q 1697 3084 1428 2787 
Q 1159 2491 1159 1978 
L 1159 0 
L 581 0 
L 581 3500 
L 1159 3500 
L 1159 2956 
Q 1366 3272 1645 3428 
Q 1925 3584 2291 3584 
Q 2894 3584 3203 3211 
Q 3513 2838 3513 2113 
z
" transform="scale(0.015625)"/>
       <path id="DejaVuSans-64" d="M 2906 2969 
L 2906 4863 
L 3481 4863 
L 3481 0 
L 2906 0 
L 2906 525 
Q 2725 213 2448 61 
Q 2172 -91 1784 -91 
Q 1150 -91 751 415 
Q 353 922 353 1747 
Q 353 2572 751 3078 
Q 1150 3584 1784 3584 
Q 2172 3584 2448 3432 
Q 2725 3281 2906 2969 
z
M 947 1747 
Q 947 1113 1208 752 
Q 1469 391 1925 391 
Q 2381 391 2643 752 
Q 2906 1113 2906 1747 
Q 2906 2381 2643 2742 
Q 2381 3103 1925 3103 
Q 1469 3103 1208 2742 
Q 947 2381 947 1747 
z
" transform="scale(0.015625)"/>
      </defs>
      <use xlink:href="#DejaVuSans-50"/>
      <use xlink:href="#DejaVuSans-61" x="55.802734"/>
      <use xlink:href="#DejaVuSans-63" x="117.082031"/>
      <use xlink:href="#DejaVuSans-6b" x="172.0625"/>
      <use xlink:href="#DejaVuSans-65" x="226.347656"/>
      <use xlink:href="#DejaVuSans-74" x="287.871094"/>
      <use xlink:href="#DejaVuSans-73" x="327.080078"/>
      <use xlink:href="#DejaVuSans-20" x="379.179688"/>
      <use xlink:href="#DejaVuSans-70" x="410.966797"/>
      <use xlink:href="#DejaVuSans-65" x="474.443359"/>
      <use xlink:href="#DejaVuSans-72" x="535.966797"/>
      <use xlink:href="#DejaVuSans-20" x="577.080078"/>
      <use xlink:href="#DejaVuSans-53" x="608.867188"/>
      <use xlink:href="#DejaVuSans-65" x="672.34375"/>
      <use xlink:href="#DejaVuSans-63" x="733.867188"/>
      <use xlink:href="#DejaVuSans-6f" x="788.847656"/>
      <use xlink:href="#DejaVuSans-6e" x="850.029297"/>
      <use xlink:href="#DejaVuSans-64" x="913.408203"/>
     </g>
    </g>
   </g>
   <g id="line2d_15">
    <path d="M 109.047513 286.442885 
L 110.472185 186.807095 
L 111.991253 116.940607 
L 113.076754 228.185163 
L 114.049926 78.70516 
L 115.352548 296.766863 
L 116.656453 220.984795 
L 117.741441 182.25223 
L 118.936219 265.818237 
L 119.912399 182.107094 
L 121.107626 265.958705 
L 123.494478 182.163436 
L 124.688209 265.490004 
L 125.773117 227.960671 
L 126.859956 228.692184 
L 128.161917 182.243576 
L 129.247578 228.246063 
L 130.332808 228.082905 
L 131.527338 265.740529 
L 132.612715 228.138473 
L 133.914783 258.507616 
L 135.217852 182.632266 
L 136.358473 161.053315 
L 137.551903 265.395848 
L 138.637551 228.241226 
L 139.939454 258.459259 
L 141.133379 223.985675 
L 142.218141 182.156655 
L 143.194993 182.422117 
L 144.280686 228.258527 
L 145.474684 265.573688 
L 146.776476 182.184131 
L 147.970009 140.690848 
L 149.164758 265.808957 
L 150.466442 182.146399 
L 151.552572 274.114403 
L 152.746099 223.847002 
L 153.939959 223.962696 
L 155.025012 228.015815 
L 156.328833 220.958068 
L 157.41391 182.289512 
L 158.499763 228.319175 
L 159.693388 265.456831 
L 160.995487 258.516794 
L 162.083135 137.743612 
L 163.168187 319.48763 
L 164.253984 136.888223 
L 165.44781 265.519741 
L 166.533666 136.915906 
L 167.618977 273.838442 
L 168.812548 182.284511 
L 170.116822 221.103726 
L 171.201957 273.779193 
L 172.288012 182.701704 
L 173.373099 228.028342 
L 174.783962 217.549241 
L 175.868835 273.69109 
L 176.954142 182.386528 
L 178.365017 182.37884 
L 179.450511 228.182882 
L 180.645377 307.378178 
L 181.949389 221.019584 
L 183.14436 182.820093 
L 184.229786 228.15728 
L 185.532607 182.545289 
L 186.618212 228.225117 
L 187.81205 307.092151 
L 189.116331 183.057073 
L 190.201543 182.346756 
L 191.396613 265.909361 
L 192.482963 228.507315 
L 193.350886 182.216228 
L 194.654304 144.681115 
L 195.740539 319.836274 
L 196.825688 182.320054 
L 197.910681 273.731263 
L 199.105068 182.5971 
L 200.084198 183.485961 
L 201.27782 265.45578 
L 202.580799 220.687636 
L 203.775405 224.222548 
L 204.754059 183.263784 
L 206.16589 252.988657 
L 207.252911 183.107775 
L 208.447016 265.607199 
L 209.535874 229.454221 
L 210.729249 223.794046 
L 211.814359 228.037333 
L 213.226782 218.015314 
L 214.42057 182.36747 
L 215.397354 284.001472 
L 216.482527 136.599122 
L 217.67857 266.213481 
L 218.763889 228.116598 
L 219.849681 228.29543 
L 220.935325 228.240053 
L 222.020815 273.898775 
L 223.217207 141.8832 
L 224.303113 228.339044 
L 225.497184 224.036212 
L 226.582675 228.181777 
L 227.667632 227.979223 
L 228.970443 258.725141 
L 230.056808 228.512796 
L 231.14298 228.439741 
L 232.228863 136.92768 
L 233.314724 228.322162 
L 234.61668 220.358168 
L 235.702315 182.524975 
L 236.896922 265.764507 
L 238.202132 183.382309 
L 239.287015 273.694276 
L 240.371834 273.672559 
L 241.457719 182.630247 
L 242.542714 227.993489 
L 243.683923 117.814086 
L 244.877728 223.944022 
L 245.963826 182.719458 
L 247.159187 266.000497 
L 248.244557 273.858477 
L 249.329661 182.301144 
L 250.630845 181.970361 
L 253.129761 288.120734 
L 254.216314 182.911147 
L 255.30306 228.657031 
L 256.388674 182.515911 
L 257.474619 228.353556 
L 258.669741 265.925728 
L 259.971416 220.267743 
L 261.0573 274.031816 
L 261.927357 126.300999 
L 263.013506 137.051278 
L 264.20683 306.948723 
L 265.510577 220.934484 
L 266.92141 217.540269 
L 268.008675 228.852984 
L 269.093109 136.256412 
L 270.287625 307.280924 
L 271.589986 144.279471 
L 272.675025 319.483394 
L 273.760255 136.62561 
L 274.954365 265.609171 
L 276.039513 228.051498 
L 277.124919 228.149532 
L 278.430131 183.38291 
L 279.624904 265.816381 
L 280.602654 182.84188 
L 281.904466 258.432671 
L 282.990635 228.438682 
L 283.967277 80.697973 
L 285.16136 265.600549 
L 286.463248 182.217699 
L 287.657798 307.290625 
L 288.865349 146.482991 
L 290.060447 224.393365 
L 291.254223 265.504137 
L 292.451638 142.308487 
L 293.756046 297.236161 
L 294.732558 182.262953 
L 295.927422 265.845137 
L 297.231225 182.88955 
L 298.425205 307.131684 
L 299.73072 221.501362 
L 300.706562 181.949017 
L 301.9044 183.913767 
L 302.992259 229.077367 
L 304.076903 227.860376 
L 305.16325 228.505832 
L 306.248733 228.178666 
L 307.44246 140.772015 
L 308.528021 228.208173 
L 309.613945 228.346106 
L 310.75448 291.550463 
L 311.947821 223.781999 
L 313.034467 228.619277 
L 314.336001 182.093304 
L 315.530573 265.753764 
L 317.918723 182.947047 
L 319.116763 266.835945 
L 320.314095 142.273833 
L 321.725132 252.771057 
L 322.811558 182.857444 
L 323.896395 227.933843 
L 325.091986 266.072268 
L 326.181297 229.624606 
L 327.265777 227.798336 
L 328.353895 229.175065 
L 329.547086 140.547685 
L 330.739033 264.930226 
L 331.825264 274.148404 
L 332.910333 182.286484 
L 334.212103 220.298385 
L 335.29681 227.884301 
L 336.492257 224.514677 
L 337.798596 259.753813 
L 338.774725 80.40414 
L 339.751306 233.111052 
L 340.946728 224.506231 
L 342.14022 265.415319 
L 343.227251 228.764592 
L 344.528325 258.216472 
L 345.9386 146.99544 
L 347.026513 229.097409 
L 348.111744 228.083342 
L 349.196929 228.065589 
L 350.283069 319.808129 
L 351.368319 136.635103 
L 352.455297 228.74453 
L 353.539474 273.456186 
L 354.842974 182.78343 
L 356.039414 266.337425 
L 357.340754 182.025417 
L 358.427485 228.651062 
L 359.513944 182.871328 
L 360.708505 265.750107 
L 361.686281 182.854171 
L 362.770039 227.524129 
L 363.854558 227.812615 
L 365.157728 182.66792 
L 366.242021 319.263303 
L 367.328694 137.293733 
L 368.630656 182.244022 
L 369.716729 274.095283 
L 371.127749 217.596202 
L 372.214459 274.309618 
L 373.302113 183.373131 
L 374.713288 182.475921 
L 376.124614 217.687756 
L 377.210847 228.462944 
L 378.404984 265.617294 
L 379.494517 229.708022 
L 380.57913 227.848832 
L 381.664409 228.101336 
L 382.915272 242.905684 
L 384.109553 182.556489 
L 385.411854 258.575643 
L 386.496876 136.529319 
L 387.583304 228.536544 
L 388.778981 266.09911 
L 390.080445 258.330797 
L 391.490372 146.874014 
L 392.576742 319.87577 
L 393.771365 182.687278 
L 394.855653 227.725056 
L 396.161139 183.478556 
L 397.24616 319.478317 
L 398.332691 228.575617 
L 399.307948 79.904177 
L 400.395349 228.904572 
L 401.587911 306.736223 
L 402.783454 141.52985 
L 403.977058 223.873622 
L 405.283801 221.894283 
L 406.477607 265.51382 
L 407.782907 145.394537 
L 408.978055 265.933798 
L 410.280289 182.33949 
L 411.473846 307.013859 
L 412.668998 224.41224 
L 413.971757 182.523693 
L 415.166857 307.443333 
L 416.14489 132.233778 
L 417.122564 182.806445 
L 418.207613 228.014013 
L 419.404696 266.537871 
L 420.491426 228.65088 
L 421.794437 220.697999 
L 422.880201 273.991202 
L 424.076133 224.683095 
L 425.270988 99.709832 
L 426.464912 265.550462 
L 427.445723 285.461486 
L 428.425979 82.758572 
L 429.510645 227.868799 
L 430.703889 265.337507 
L 431.790897 228.755894 
L 432.766363 130.898491 
L 434.180405 218.498005 
L 435.267499 228.788674 
L 436.459366 264.905014 
L 437.440027 184.197711 
L 438.52713 228.792014 
L 439.617173 229.900014 
L 440.92511 260.217804 
L 442.011345 137.090872 
L 443.09674 228.145445 
L 444.510678 218.467186 
L 445.707726 266.526854 
L 447.008634 181.873514 
L 448.201416 265.192273 
L 449.180268 234.054665 
L 450.37392 223.890566 
L 451.356056 184.881909 
L 452.657744 220.271821 
L 453.74307 273.843938 
L 455.156733 218.385212 
L 456.24347 228.653294 
L 457.327147 227.492978 
L 458.520899 223.92519 
L 459.825185 221.107483 
L 461.019076 182.407204 
L 462.002305 185.387338 
L 463.304411 182.294488 
L 464.496482 264.969156 
L 465.584026 228.958286 
L 466.888755 259.285007 
L 467.973407 136.357744 
L 469.058447 228.010568 
L 470.471383 253.291244 
L 471.557387 228.375876 
L 472.643482 182.718461 
L 473.836931 265.401839 
L 474.924313 228.897178 
L 475.9027 183.139255 
L 476.988107 228.15024 
L 478.289284 181.967789 
L 479.486096 266.453351 
L 480.788502 220.503336 
L 481.982043 223.851665 
L 483.283214 258.244883 
L 484.697722 148.469796 
L 485.78372 228.373669 
L 487.194253 217.450577 
L 488.387815 265.437047 
L 489.475655 229.070269 
L 490.566363 230.149886 
L 491.547091 184.229005 
L 492.850963 259.035016 
L 494.046207 224.444204 
L 495.244225 225.405313 
L 496.441839 225.265946 
L 497.530228 229.277373 
L 498.723988 182.356935 
L 499.809379 228.143596 
L 501.115525 221.703623 
L 502.313273 225.312097 
L 503.404441 230.322411 
L 504.491352 228.719127 
L 505.467527 182.105318 
L 506.772595 221.357927 
L 507.969335 224.963299 
L 509.272884 220.870734 
L 510.464527 223.189693 
L 511.548369 227.555471 
L 512.528211 183.817668 
L 513.831081 258.742007 
L 514.917394 137.127019 
L 516.003027 228.235859 
L 517.195221 265.007631 
L 518.174087 183.362935 
L 519.477261 182.669147 
L 520.561123 227.56344 
L 521.756809 307.606315 
L 522.734249 131.925615 
L 523.930843 266.385375 
L 525.23248 182.12956 
L 526.424675 265.008047 
L 527.509132 227.789428 
L 528.596495 274.529213 
L 529.67993 181.59639 
L 530.876385 266.342124 
L 532.070008 182.304386 
L 533.155737 182.564248 
L 534.239176 273.206653 
L 535.432966 223.938667 
L 536.629872 183.558779 
L 537.716612 182.989306 
L 538.801939 228.119884 
L 540.107909 297.645616 
L 541.090763 185.214076 
L 542.290329 143.200116 
L 543.373321 227.23261 
L 544.458894 228.21259 
L 545.654065 265.941096 
L 546.956283 182.333909 
L 548.043055 319.994001 
L 549.343507 181.712788 
L 550.432088 229.349688 
L 551.626914 182.765047 
L 552.712372 228.168973 
L 553.905555 265.318433 
L 555.208052 182.431872 
L 556.294991 320.043193 
L 557.487078 181.714946 
L 558.683846 183.506555 
L 559.659404 232.684951 
L 560.962009 258.664638 
L 562.049594 183.344596 
L 563.134046 273.548837 
L 564.440806 183.923373 
L 565.85547 218.68314 
L 566.939261 273.325633 
L 567.920742 184.578492 
L 569.22253 258.425798 
L 570.198858 131.346978 
L 571.501598 258.704255 
L 572.698679 225.081455 
L 573.782566 227.572671 
L 574.979928 225.178952 
L 576.173911 140.878663 
L 577.367443 265.427891 
L 578.671978 221.187124 
L 579.756507 273.57509 
L 580.951915 182.987187 
L 583.124994 274.549495 
L 584.321404 141.890495 
L 585.734083 182.962919 
L 586.928307 265.64456 
L 588.018412 229.923341 
L 589.320644 182.338842 
L 590.516499 266.154635 
L 591.818638 182.305981 
L 592.904531 319.735301 
L 594.096522 223.311233 
L 595.510502 183.382896 
L 597.681924 273.771909 
L 598.772992 184.800883 
L 600.07286 219.685014 
L 601.375283 220.508458 
L 602.462579 228.864827 
L 603.762371 219.660314 
L 604.742748 184.066207 
L 605.832881 229.933542 
L 607.133369 181.725475 
L 608.331076 308.166622 
L 609.63274 220.264064 
L 611.041768 216.999501 
L 612.453856 147.62801 
L 613.650743 266.476592 
L 614.84284 306.606591 
L 616.040809 142.538562 
L 617.125715 273.702038 
L 618.321335 183.068355 
L 619.403573 272.799898 
L 620.488726 182.321664 
L 621.794066 259.462892 
L 622.878739 227.871437 
L 623.962781 181.853315 
L 625.267051 221.102243 
L 626.353911 137.379996 
L 627.439713 228.299416 
L 628.52389 227.68331 
L 629.829802 259.62948 
L 631.023159 182.202377 
L 632.107696 227.819646 
L 633.408146 181.712134 
L 634.602134 265.570726 
L 635.691439 229.622489 
L 636.780471 229.519472 
L 638.079694 181.279645 
L 639.277191 266.66678 
L 640.253155 283.702799 
L 641.447754 224.219887 
L 642.428644 133.711207 
L 643.841722 253.330112 
L 645.036927 224.430705 
L 646.120174 227.329376 
L 647.09739 182.592077 
L 648.398452 181.927535 
L 650.895919 287.677068 
L 652.309123 183.132547 
L 653.393499 227.758515 
L 654.486211 230.900695 
L 655.676744 222.801377 
L 656.762987 274.152652 
L 658.176263 183.155514 
L 659.155384 284.850222 
L 660.240092 136.383628 
L 661.326 228.339469 
L 662.633044 221.990667 
L 663.718343 228.108795 
L 665.132507 218.534391 
L 666.218405 182.635798 
L 667.62917 217.519889 
L 668.824207 265.89886 
L 669.906888 227.113925 
L 671.102641 141.617279 
L 672.186733 319.203918 
L 673.709164 248.481048 
L 674.68612 182.470682 
L 675.772358 182.778764 
L 676.966266 265.54572 
L 678.049461 181.49512 
L 679.352314 182.556436 
L 680.439795 228.934929 
L 681.852972 253.356927 
L 682.93667 181.707839 
L 684.130412 265.493527 
L 685.220039 229.743401 
L 686.305571 228.197352 
L 687.610925 183.432498 
L 688.80301 264.973594 
L 689.999921 142.098793 
L 691.193692 265.502696 
L 692.503434 184.960923 
L 693.592701 320.726324 
L 694.67792 136.620841 
L 695.764746 228.68701 
L 696.848491 227.518995 
L 698.098299 282.277633 
L 699.345813 202.060588 
L 700.326597 184.255201 
L 701.412811 274.142848 
L 702.343826 159.911339 
L 703.648274 221.159283 
L 705.059421 217.634292 
L 706.252275 265.215156 
L 707.344513 230.72333 
L 708.431954 228.919459 
L 709.679837 162.422144 
L 710.714766 256.030569 
L 711.800311 228.202441 
L 712.889327 183.943956 
L 713.864372 181.574606 
L 715.272596 216.758321 
L 716.307472 208.05768 
L 717.394006 274.250098 
L 718.806333 217.986999 
L 720.000662 265.677243 
L 721.087169 182.891824 
L 722.169533 272.842839 
L 723.474754 221.407039 
L 724.665577 181.229059 
L 725.751136 228.207635 
L 726.837417 228.48099 
L 727.922429 227.999992 
L 729.232157 260.736567 
L 730.319831 229.007454 
L 731.403407 135.857874 
L 732.708956 183.500762 
L 733.794911 228.35757 
L 734.881632 228.647272 
L 736.074035 265.073508 
L 737.163211 229.574067 
L 738.476092 261.646599 
L 739.451011 181.515339 
L 740.539144 137.967883 
L 741.840305 296.381768 
L 742.928781 229.310078 
L 744.016016 137.553161 
L 745.153861 203.499278 
L 746.347707 265.526202 
L 747.436639 229.482094 
L 748.7384 182.173236 
L 749.93378 266.006411 
L 751.026148 230.772152 
L 752.108828 272.949577 
L 754.499731 182.229953 
L 755.582235 227.046539 
L 756.779093 225.0041 
L 757.874429 277.18671 
L 758.967977 185.832259 
L 758.967977 185.832259 
" clip-path="url(#p2efc897fe5)" style="fill: none; stroke: #1f77b4; stroke-width: 1.5; stroke-linecap: square"/>
   </g>
   <g id="line2d_16">
    <path d="M 109.047513 433.60835 
L 110.472185 360.973597 
L 111.991253 345.621591 
L 113.076754 365.336776 
L 114.049926 333.675542 
L 115.352548 411.057909 
L 116.656453 335.163487 
L 117.741441 365.207338 
L 118.936219 390.425491 
L 119.912399 334.618063 
L 121.107626 390.519137 
L 123.494478 334.655624 
L 124.688209 390.20667 
L 125.773117 365.187114 
L 126.859956 365.674789 
L 128.161917 334.709051 
L 129.247578 365.377375 
L 130.332808 365.268603 
L 131.527338 390.373686 
L 132.612715 365.305649 
L 133.914783 372.847331 
L 135.217852 334.968177 
L 136.358473 335.084837 
L 137.551903 390.143899 
L 138.637551 365.374151 
L 139.939454 372.813481 
L 141.133379 348.681972 
L 142.218141 365.149993 
L 143.194993 334.828078 
L 144.280686 365.385685 
L 145.474684 390.262459 
L 146.776476 334.669421 
L 147.970009 307.007232 
L 149.164758 390.419305 
L 150.466442 334.644266 
L 151.552572 411.186502 
L 152.746099 348.584901 
L 153.939959 390.233618 
L 156.328833 335.144049 
L 157.41391 365.229707 
L 158.499763 365.426116 
L 159.693388 390.184554 
L 160.995487 372.853756 
L 162.083135 320.25139 
L 163.168187 410.959735 
L 164.253984 319.707051 
L 165.44781 390.226494 
L 166.533666 274.022477 
L 167.618977 411.014026 
L 168.812548 348.595598 
L 170.116822 335.249982 
L 171.201957 410.976995 
L 172.288012 319.783193 
L 173.373099 365.232228 
L 174.783962 358.246161 
L 175.868835 410.921931 
L 176.954142 319.562569 
L 178.365017 358.248517 
L 179.450511 365.335255 
L 180.645377 390.443634 
L 181.949389 373.24519 
L 183.14436 348.936423 
L 184.229786 365.318187 
L 185.532607 334.910193 
L 186.618212 365.363411 
L 187.81205 390.229114 
L 189.116331 335.251382 
L 190.201543 365.264054 
L 191.396613 390.486241 
L 192.482963 365.551543 
L 193.350886 296.572171 
L 194.654304 335.049917 
L 195.740539 411.208767 
L 196.825688 319.516038 
L 197.910681 410.947039 
L 199.105068 348.794518 
L 200.084198 335.537307 
L 201.27782 390.183854 
L 202.580799 334.947371 
L 203.775405 390.389529 
L 204.754059 335.38919 
L 206.16589 358.439023 
L 207.252911 365.720665 
L 208.447016 390.284799 
L 209.535874 366.182814 
L 210.729249 348.547832 
L 211.814359 365.238222 
L 213.226782 358.556876 
L 214.42057 348.64839 
L 215.397354 385.61248 
L 216.482527 319.523078 
L 217.67857 390.688987 
L 218.763889 365.291065 
L 219.849681 365.410286 
L 222.020815 365.334081 
L 223.217207 307.802133 
L 224.303113 365.439363 
L 225.497184 390.277727 
L 226.582675 365.334518 
L 227.667632 365.199482 
L 228.970443 372.999599 
L 230.056808 365.555197 
L 231.14298 365.506494 
L 232.228863 319.73216 
L 233.314724 365.428108 
L 234.61668 334.707758 
L 235.702315 365.370985 
L 236.896922 390.389671 
L 238.202132 335.468206 
L 239.287015 365.180707 
L 240.371834 410.91035 
L 241.457719 365.434148 
L 242.542714 365.208993 
L 243.683923 291.756057 
L 244.877728 348.652815 
L 245.963826 365.487675 
L 247.159187 390.546998 
L 248.244557 365.303858 
L 249.329661 365.236687 
L 250.630845 334.526907 
L 251.718002 365.754951 
L 253.129761 393.576513 
L 254.216314 319.929803 
L 255.30306 365.651354 
L 256.388674 365.365547 
L 257.474619 365.449037 
L 258.669741 390.497152 
L 259.971416 334.641995 
L 261.0573 411.134885 
L 261.927357 297.413999 
L 263.013506 319.810813 
L 264.20683 390.121542 
L 265.510577 373.191035 
L 266.92141 358.240179 
L 268.008675 365.781989 
L 269.093109 319.304989 
L 270.287625 390.370693 
L 271.589986 334.802751 
L 272.675025 410.95671 
L 273.760255 319.539933 
L 274.954365 390.286114 
L 276.039513 365.247665 
L 277.124919 365.313021 
L 278.430131 335.468607 
L 279.624904 390.424254 
L 280.602654 335.10792 
L 281.904466 372.794869 
L 282.990635 365.505788 
L 283.967277 283.949619 
L 285.16136 390.280366 
L 286.463248 334.6918 
L 287.657798 390.377969 
L 288.865349 310.86866 
L 290.060447 390.492019 
L 291.254223 390.216091 
L 292.451638 308.085658 
L 293.756046 411.370774 
L 294.732558 334.721968 
L 295.927422 390.443424 
L 297.231225 335.1397 
L 298.425205 390.258763 
L 299.73072 373.551776 
L 300.706562 334.512678 
L 301.9044 349.632397 
L 302.992259 365.931578 
L 304.076903 365.12025 
L 305.16325 365.550555 
L 306.248733 365.332444 
L 307.44246 307.061343 
L 308.528021 365.352115 
L 309.613945 365.444071 
L 310.75448 378.572847 
L 311.947821 390.1252 
L 314.336001 334.608869 
L 315.530573 390.38251 
L 316.832085 334.603651 
L 317.918723 365.624228 
L 319.116763 391.103963 
L 320.314095 308.062555 
L 321.725132 358.280769 
L 322.811558 365.570467 
L 323.896395 365.169229 
L 325.091986 390.594845 
L 326.181297 366.296404 
L 327.265777 365.078891 
L 328.353895 365.99671 
L 329.547086 306.91179 
L 330.739033 389.833484 
L 331.825264 365.521303 
L 332.910333 365.22789 
L 334.212103 334.66428 
L 335.29681 365.1362 
L 336.492257 390.564806 
L 337.798596 373.719669 
L 338.774725 283.762634 
L 339.751306 334.743289 
L 340.946728 390.559739 
L 342.14022 390.156879 
L 343.227251 365.723061 
L 344.528325 372.64353 
L 345.9386 322.939926 
L 347.026513 365.944939 
L 348.111744 365.268895 
L 349.196929 365.257059 
L 350.283069 411.188664 
L 351.368319 319.545974 
L 352.455297 365.709686 
L 353.539474 365.002139 
L 354.842974 335.068953 
L 356.039414 390.771617 
L 357.340754 334.563611 
L 358.427485 365.647375 
L 359.513944 365.578797 
L 360.708505 390.380071 
L 361.686281 335.116114 
L 362.770039 364.896086 
L 363.854558 365.08841 
L 365.157728 334.991946 
L 366.242021 410.799502 
L 367.328694 319.965103 
L 368.630656 334.709348 
L 369.716729 365.481462 
L 371.127749 358.277468 
L 372.214459 411.308511 
L 373.302113 320.253192 
L 374.713288 358.308259 
L 376.124614 358.338504 
L 377.210847 365.521963 
L 378.404984 390.29153 
L 379.494517 366.352015 
L 380.57913 365.112554 
L 381.664409 365.280891 
L 382.915272 361.925979 
L 384.109553 348.768675 
L 385.411854 372.89495 
L 386.496876 319.478658 
L 387.583304 365.571029 
L 388.778981 390.61274 
L 390.080445 372.723558 
L 391.490372 322.861866 
L 392.576742 411.236978 
L 393.771365 348.851904 
L 394.855653 365.030037 
L 396.161139 335.53237 
L 397.24616 410.953084 
L 398.332691 365.597078 
L 399.307948 283.444476 
L 400.395349 365.816381 
L 401.587911 389.962167 
L 402.783454 307.566567 
L 403.977058 390.180173 
L 405.283801 335.824933 
L 406.477607 390.222547 
L 407.782907 335.488946 
L 408.978055 390.502532 
L 410.280289 334.772993 
L 411.473846 390.170394 
L 412.668998 390.503344 
L 413.971757 334.895795 
L 415.166857 390.4925 
L 416.14489 335.196267 
L 417.122564 335.084297 
L 418.207613 365.222676 
L 419.404696 390.905248 
L 421.794437 334.954908 
L 422.880201 411.109502 
L 424.076133 349.170167 
L 425.270988 307.375281 
L 426.464912 390.246974 
L 427.445723 386.655347 
L 428.425979 285.260909 
L 429.510645 365.125866 
L 430.703889 390.105005 
L 431.790897 365.717263 
L 432.766363 334.395094 
L 434.180405 358.87867 
L 435.267499 365.739116 
L 436.459366 389.816676 
L 437.440027 336.011807 
L 438.52713 365.741343 
L 439.617173 366.480009 
L 440.92511 374.044463 
L 442.011345 319.83601 
L 443.09674 365.310297 
L 444.510678 358.858124 
L 445.707726 390.897903 
L 447.008634 334.462343 
L 448.201416 390.008182 
L 449.180268 335.450998 
L 450.37392 390.19034 
L 451.356056 336.467939 
L 452.657744 334.644961 
L 453.74307 411.017461 
L 455.156733 358.803475 
L 456.24347 365.648863 
L 457.327147 364.875319 
L 458.520899 348.639633 
L 459.825185 373.301125 
L 461.019076 348.673675 
L 462.002305 336.804892 
L 463.304411 334.742992 
L 464.496482 389.859437 
L 465.584026 365.852191 
L 466.888755 373.391505 
L 467.973407 319.369474 
L 469.058447 365.220379 
L 470.471383 358.659087 
L 471.557387 365.463917 
L 472.643482 365.487077 
L 473.836931 390.147893 
L 474.924313 365.811452 
L 475.9027 335.30617 
L 476.988107 365.313493 
L 478.289284 334.525193 
L 479.486096 390.8489 
L 480.788502 334.813336 
L 481.982043 390.166999 
L 483.283214 372.663418 
L 484.697722 323.887726 
L 485.78372 365.462446 
L 487.194253 358.180385 
L 488.387815 390.171364 
L 489.475655 365.926846 
L 490.566363 366.64659 
L 491.547091 336.03267 
L 492.850963 373.216511 
L 494.046207 349.002943 
L 495.244225 391.099188 
L 496.441839 349.578162 
L 497.530228 366.064916 
L 498.723988 348.641686 
L 499.809379 365.309064 
L 501.115525 335.686271 
L 502.313273 391.043258 
L 503.404441 366.761608 
L 504.491352 365.692751 
L 505.467527 334.616879 
L 506.772595 335.434856 
L 507.969335 390.833979 
L 509.272884 335.080534 
L 510.464527 389.769816 
L 511.548369 364.91698 
L 512.528211 335.758445 
L 513.831081 373.011405 
L 514.917394 319.859012 
L 516.003027 365.370573 
L 517.195221 389.885087 
L 518.174087 335.45529 
L 519.477261 334.992765 
L 520.561123 364.922293 
L 521.756809 390.614736 
L 522.734249 335.011369 
L 523.930843 390.803583 
L 525.23248 334.63304 
L 526.424675 389.885365 
L 527.509132 365.072952 
L 528.596495 365.80691 
L 529.67993 364.813834 
L 530.876385 390.774749 
L 532.070008 307.032281 
L 533.155737 365.394549 
L 534.239176 364.81499 
L 535.432966 390.2192 
L 536.629872 307.944567 
L 537.716612 365.649584 
L 538.801939 365.293256 
L 540.107909 411.643744 
L 541.090763 336.689384 
L 542.290329 308.680077 
L 543.373321 364.70174 
L 544.458894 365.35506 
L 545.654065 390.507397 
L 546.956283 334.769273 
L 548.043055 411.321429 
L 549.343507 334.355192 
L 550.432088 366.113126 
L 551.626914 348.901393 
L 552.712372 365.325982 
L 553.905555 390.092289 
L 555.208052 334.834582 
L 556.294991 411.356566 
L 557.487078 348.233147 
L 558.683846 307.906585 
L 559.659404 385.293094 
L 560.962009 372.957247 
L 562.049594 365.862758 
L 563.134046 365.071628 
L 564.440806 335.828915 
L 565.85547 359.002094 
L 566.939261 410.69352 
L 567.920742 336.265661 
L 569.22253 372.790059 
L 570.198858 334.664187 
L 571.501598 372.984978 
L 572.698679 349.449018 
L 573.782566 364.928447 
L 574.979928 390.963371 
L 576.173911 307.132442 
L 577.367443 390.165261 
L 578.671978 335.310636 
L 579.756507 410.849431 
L 580.951915 349.042755 
L 582.03757 365.375887 
L 583.124994 365.822122 
L 584.321404 307.806997 
L 585.734083 358.60795 
L 586.928307 390.309707 
L 588.018412 366.495561 
L 589.320644 334.772561 
L 590.516499 390.649756 
L 591.818638 334.750654 
L 592.904531 411.136644 
L 594.096522 348.209863 
L 595.510502 358.866398 
L 596.596811 365.54116 
L 597.681924 365.238932 
L 598.772992 366.73653 
L 600.07286 334.218192 
L 601.375283 372.919928 
L 602.462579 365.789885 
L 603.762371 372.3802 
L 604.742748 335.924138 
L 605.832881 366.502361 
L 607.133369 334.36365 
L 608.331076 391.034967 
L 609.63274 372.764404 
L 611.041768 357.879667 
L 612.453856 323.346578 
L 613.650743 390.864394 
L 614.84284 389.864943 
L 616.040809 308.239041 
L 617.125715 410.928774 
L 618.321335 349.094408 
L 619.403573 364.509924 
L 620.488726 365.248999 
L 621.794066 373.516024 
L 622.878739 365.127625 
L 623.962781 319.189321 
L 625.267051 373.297791 
L 626.353911 320.019997 
L 627.439713 365.412944 
L 628.52389 365.002207 
L 629.829802 373.632636 
L 631.023159 348.543331 
L 632.107696 365.093098 
L 633.408146 334.354756 
L 634.602134 390.260484 
L 635.691439 366.294992 
L 636.780471 366.226315 
L 638.079694 334.06643 
L 639.277191 390.991186 
L 640.253155 385.399142 
L 641.447754 348.845921 
L 642.428644 336.082724 
L 643.841722 358.687354 
L 645.036927 390.514423 
L 646.120174 364.766251 
L 647.09739 334.941385 
L 648.398452 334.498357 
L 649.48594 365.838323 
L 650.895919 393.265948 
L 652.309123 323.596379 
L 653.393499 365.052343 
L 654.486211 367.14713 
L 655.676744 389.536826 
L 656.762987 365.524489 
L 658.176263 358.72647 
L 659.155384 386.21873 
L 660.240092 319.385945 
L 661.326 365.439646 
L 662.633044 335.895031 
L 663.718343 365.285863 
L 665.132507 358.902927 
L 666.218405 365.437479 
L 667.62917 358.226593 
L 668.824207 390.47924 
L 669.906888 364.622616 
L 671.102641 307.624852 
L 672.186733 410.757084 
L 673.709164 378.867365 
L 674.68612 334.860455 
L 675.772358 319.837135 
L 676.966266 390.243813 
L 679.352314 334.917624 
L 680.439795 365.83662 
L 681.852972 358.706856 
L 682.93667 364.880704 
L 684.130412 390.209018 
L 685.220039 366.3756 
L 686.305571 365.344901 
L 687.610925 335.501666 
L 688.80301 389.862396 
L 689.999921 307.945862 
L 691.193692 390.21513 
L 692.503434 336.520615 
L 693.592701 411.844517 
L 694.67792 319.536899 
L 695.764746 365.67134 
L 696.848491 364.892663 
L 698.098299 401.398422 
L 699.345813 321.400428 
L 700.326597 336.050134 
L 701.412811 411.20428 
L 702.343826 319.820893 
L 703.648274 373.334089 
L 705.059421 358.302861 
L 706.252275 390.023437 
L 707.344513 367.028887 
L 708.431954 365.826306 
L 709.679837 321.494763 
L 710.714766 351.932927 
L 711.800311 365.348294 
L 712.889327 366.222373 
L 713.864372 334.263071 
L 715.272596 357.71888 
L 716.307472 351.918453 
L 717.394006 365.597574 
L 718.806333 358.537999 
L 720.000662 390.331495 
L 721.087169 365.591094 
L 722.169533 364.542129 
L 723.474754 373.491752 
L 724.665577 347.923947 
L 725.751136 365.351757 
L 726.837417 365.533993 
L 727.922429 365.213328 
L 729.232157 374.407597 
L 730.319831 365.884969 
L 731.403407 319.051374 
L 732.708956 335.547175 
L 733.794911 365.451713 
L 734.881632 365.644848 
L 736.074035 389.929005 
L 737.163211 366.262711 
L 738.476092 375.044619 
L 739.451011 334.223559 
L 740.539144 320.394108 
L 741.840305 410.801178 
L 742.928781 366.086719 
L 744.016016 274.485935 
L 745.153861 377.955567 
L 746.347707 390.230801 
L 747.436639 366.201396 
L 748.7384 334.662157 
L 749.93378 390.550941 
L 751.026148 367.061435 
L 752.108828 364.622183 
L 753.414796 373.644014 
L 754.499731 319.452967 
L 755.582235 364.577693 
L 756.779093 390.85846 
L 757.874429 367.800032 
L 758.967977 367.355355 
L 758.967977 367.355355 
" clip-path="url(#p2efc897fe5)" style="fill: none; stroke: #ff7f0e; stroke-width: 1.5; stroke-linecap: square"/>
   </g>
   <g id="line2d_17">
    <path d="M 93.32 220.64414 
L 791.464 220.64414 
" clip-path="url(#p2efc897fe5)" style="fill: none; stroke-dasharray: 5.55,2.4; stroke-dashoffset: 0; stroke: #0000ff; stroke-width: 1.5"/>
   </g>
   <g id="line2d_18">
    <path d="M 93.32 360.936294 
L 791.464 360.936294 
" clip-path="url(#p2efc897fe5)" style="fill: none; stroke-dasharray: 5.55,2.4; stroke-dashoffset: 0; stroke: #ffa500; stroke-width: 1.5"/>
   </g>
   <g id="patch_3">
    <path d="M 93.32 639.64 
L 93.32 60.96 
" style="fill: none; stroke: #000000; stroke-width: 0.8; stroke-linejoin: miter; stroke-linecap: square"/>
   </g>
   <g id="patch_4">
    <path d="M 791.464 639.64 
L 791.464 60.96 
" style="fill: none; stroke: #000000; stroke-width: 0.8; stroke-linejoin: miter; stroke-linecap: square"/>
   </g>
   <g id="patch_5">
    <path d="M 93.32 639.64 
L 791.464 639.64 
" style="fill: none; stroke: #000000; stroke-width: 0.8; stroke-linejoin: miter; stroke-linecap: square"/>
   </g>
   <g id="patch_6">
    <path d="M 93.32 60.96 
L 791.464 60.96 
" style="fill: none; stroke: #000000; stroke-width: 0.8; stroke-linejoin: miter; stroke-linecap: square"/>
   </g>
   <g id="text_17">
    <!-- Parsed and Filtered Packets (SelectionProcess: 16777218) -->
    <g transform="translate(199.394438 54.96) scale(0.168 -0.168)">
     <defs>
      <path id="DejaVuSans-46" d="M 628 4666 
L 3309 4666 
L 3309 4134 
L 1259 4134 
L 1259 2759 
L 3109 2759 
L 3109 2228 
L 1259 2228 
L 1259 0 
L 628 0 
L 628 4666 
z
" transform="scale(0.015625)"/>
      <path id="DejaVuSans-6c" d="M 603 4863 
L 1178 4863 
L 1178 0 
L 603 0 
L 603 4863 
z
" transform="scale(0.015625)"/>
      <path id="DejaVuSans-3a" d="M 750 794 
L 1409 794 
L 1409 0 
L 750 0 
L 750 794 
z
M 750 3309 
L 1409 3309 
L 1409 2516 
L 750 2516 
L 750 3309 
z
" transform="scale(0.015625)"/>
      <path id="DejaVuSans-37" d="M 525 4666 
L 3525 4666 
L 3525 4397 
L 1831 0 
L 1172 0 
L 2766 4134 
L 525 4134 
L 525 4666 
z
" transform="scale(0.015625)"/>
     </defs>
     <use xlink:href="#DejaVuSans-50"/>
     <use xlink:href="#DejaVuSans-61" x="55.802734"/>
     <use xlink:href="#DejaVuSans-72" x="117.082031"/>
     <use xlink:href="#DejaVuSans-73" x="158.195312"/>
     <use xlink:href="#DejaVuSans-65" x="210.294922"/>
     <use xlink:href="#DejaVuSans-64" x="271.818359"/>
     <use xlink:href="#DejaVuSans-20" x="335.294922"/>
     <use xlink:href="#DejaVuSans-61" x="367.082031"/>
     <use xlink:href="#DejaVuSans-6e" x="428.361328"/>
     <use xlink:href="#DejaVuSans-64" x="491.740234"/>
     <use xlink:href="#DejaVuSans-20" x="555.216797"/>
     <use xlink:href="#DejaVuSans-46" x="587.003906"/>
     <use xlink:href="#DejaVuSans-69" x="637.273438"/>
     <use xlink:href="#DejaVuSans-6c" x="665.056641"/>
     <use xlink:href="#DejaVuSans-74" x="692.839844"/>
     <use xlink:href="#DejaVuSans-65" x="732.048828"/>
     <use xlink:href="#DejaVuSans-72" x="793.572266"/>
     <use xlink:href="#DejaVuSans-65" x="832.435547"/>
     <use xlink:href="#DejaVuSans-64" x="893.958984"/>
     <use xlink:href="#DejaVuSans-20" x="957.435547"/>
     <use xlink:href="#DejaVuSans-50" x="989.222656"/>
     <use xlink:href="#DejaVuSans-61" x="1045.025391"/>
     <use xlink:href="#DejaVuSans-63" x="1106.304688"/>
     <use xlink:href="#DejaVuSans-6b" x="1161.285156"/>
     <use xlink:href="#DejaVuSans-65" x="1215.570312"/>
     <use xlink:href="#DejaVuSans-74" x="1277.09375"/>
     <use xlink:href="#DejaVuSans-73" x="1316.302734"/>
     <use xlink:href="#DejaVuSans-20" x="1368.402344"/>
     <use xlink:href="#DejaVuSans-28" x="1400.189453"/>
     <use xlink:href="#DejaVuSans-53" x="1439.203125"/>
     <use xlink:href="#DejaVuSans-65" x="1502.679688"/>
     <use xlink:href="#DejaVuSans-6c" x="1564.203125"/>
     <use xlink:href="#DejaVuSans-65" x="1591.986328"/>
     <use xlink:href="#DejaVuSans-63" x="1653.509766"/>
     <use xlink:href="#DejaVuSans-74" x="1708.490234"/>
     <use xlink:href="#DejaVuSans-69" x="1747.699219"/>
     <use xlink:href="#DejaVuSans-6f" x="1775.482422"/>
     <use xlink:href="#DejaVuSans-6e" x="1836.664062"/>
     <use xlink:href="#DejaVuSans-50" x="1900.042969"/>
     <use xlink:href="#DejaVuSans-72" x="1958.595703"/>
     <use xlink:href="#DejaVuSans-6f" x="1997.458984"/>
     <use xlink:href="#DejaVuSans-63" x="2058.640625"/>
     <use xlink:href="#DejaVuSans-65" x="2113.621094"/>
     <use xlink:href="#DejaVuSans-73" x="2175.144531"/>
     <use xlink:href="#DejaVuSans-73" x="2227.244141"/>
     <use xlink:href="#DejaVuSans-3a" x="2279.34375"/>
     <use xlink:href="#DejaVuSans-20" x="2313.035156"/>
     <use xlink:href="#DejaVuSans-31" x="2344.822266"/>
     <use xlink:href="#DejaVuSans-36" x="2408.445312"/>
     <use xlink:href="#DejaVuSans-37" x="2472.068359"/>
     <use xlink:href="#DejaVuSans-37" x="2535.691406"/>
     <use xlink:href="#DejaVuSans-37" x="2599.314453"/>
     <use xlink:href="#DejaVuSans-32" x="2662.9375"/>
     <use xlink:href="#DejaVuSans-31" x="2726.560547"/>
     <use xlink:href="#DejaVuSans-38" x="2790.183594"/>
     <use xlink:href="#DejaVuSans-29" x="2853.806641"/>
    </g>
   </g>
   <g id="legend_1">
    <g id="patch_7">
     <path d="M 801.264 393.49875 
L 1017.399938 393.49875 
Q 1020.199938 393.49875 1020.199938 390.69875 
L 1020.199938 309.90125 
Q 1020.199938 307.10125 1017.399938 307.10125 
L 801.264 307.10125 
Q 798.464 307.10125 798.464 309.90125 
L 798.464 390.69875 
Q 798.464 393.49875 801.264 393.49875 
z
" style="fill: #ffffff; opacity: 0.8; stroke: #cccccc; stroke-linejoin: miter"/>
    </g>
    <g id="line2d_19">
     <path d="M 804.064 318.439063 
L 818.064 318.439063 
L 832.064 318.439063 
" style="fill: none; stroke: #1f77b4; stroke-width: 1.5; stroke-linecap: square"/>
    </g>
    <g id="text_18">
     <!-- Parsed Packets -->
     <g transform="translate(843.264 323.339063) scale(0.14 -0.14)">
      <use xlink:href="#DejaVuSans-50"/>
      <use xlink:href="#DejaVuSans-61" x="55.802734"/>
      <use xlink:href="#DejaVuSans-72" x="117.082031"/>
      <use xlink:href="#DejaVuSans-73" x="158.195312"/>
      <use xlink:href="#DejaVuSans-65" x="210.294922"/>
      <use xlink:href="#DejaVuSans-64" x="271.818359"/>
      <use xlink:href="#DejaVuSans-20" x="335.294922"/>
      <use xlink:href="#DejaVuSans-50" x="367.082031"/>
      <use xlink:href="#DejaVuSans-61" x="422.884766"/>
      <use xlink:href="#DejaVuSans-63" x="484.164062"/>
      <use xlink:href="#DejaVuSans-6b" x="539.144531"/>
      <use xlink:href="#DejaVuSans-65" x="593.429688"/>
      <use xlink:href="#DejaVuSans-74" x="654.953125"/>
      <use xlink:href="#DejaVuSans-73" x="694.162109"/>
     </g>
    </g>
    <g id="line2d_20">
     <path d="M 804.064 338.988438 
L 818.064 338.988438 
L 832.064 338.988438 
" style="fill: none; stroke: #ff7f0e; stroke-width: 1.5; stroke-linecap: square"/>
    </g>
    <g id="text_19">
     <!-- Filtered Packets -->
     <g transform="translate(843.264 343.888438) scale(0.14 -0.14)">
      <use xlink:href="#DejaVuSans-46"/>
      <use xlink:href="#DejaVuSans-69" x="50.269531"/>
      <use xlink:href="#DejaVuSans-6c" x="78.052734"/>
      <use xlink:href="#DejaVuSans-74" x="105.835938"/>
      <use xlink:href="#DejaVuSans-65" x="145.044922"/>
      <use xlink:href="#DejaVuSans-72" x="206.568359"/>
      <use xlink:href="#DejaVuSans-65" x="245.431641"/>
      <use xlink:href="#DejaVuSans-64" x="306.955078"/>
      <use xlink:href="#DejaVuSans-20" x="370.431641"/>
      <use xlink:href="#DejaVuSans-50" x="402.21875"/>
      <use xlink:href="#DejaVuSans-61" x="458.021484"/>
      <use xlink:href="#DejaVuSans-63" x="519.300781"/>
      <use xlink:href="#DejaVuSans-6b" x="574.28125"/>
      <use xlink:href="#DejaVuSans-65" x="628.566406"/>
      <use xlink:href="#DejaVuSans-74" x="690.089844"/>
      <use xlink:href="#DejaVuSans-73" x="729.298828"/>
     </g>
    </g>
    <g id="line2d_21">
     <path d="M 804.064 359.537813 
L 818.064 359.537813 
L 832.064 359.537813 
" style="fill: none; stroke-dasharray: 5.55,2.4; stroke-dashoffset: 0; stroke: #0000ff; stroke-width: 1.5"/>
    </g>
    <g id="text_20">
     <!-- Parsed Packets Average -->
     <g transform="translate(843.264 364.437813) scale(0.14 -0.14)">
      <defs>
       <path id="DejaVuSans-41" d="M 2188 4044 
L 1331 1722 
L 3047 1722 
L 2188 4044 
z
M 1831 4666 
L 2547 4666 
L 4325 0 
L 3669 0 
L 3244 1197 
L 1141 1197 
L 716 0 
L 50 0 
L 1831 4666 
z
" transform="scale(0.015625)"/>
       <path id="DejaVuSans-76" d="M 191 3500 
L 800 3500 
L 1894 563 
L 2988 3500 
L 3597 3500 
L 2284 0 
L 1503 0 
L 191 3500 
z
" transform="scale(0.015625)"/>
       <path id="DejaVuSans-67" d="M 2906 1791 
Q 2906 2416 2648 2759 
Q 2391 3103 1925 3103 
Q 1463 3103 1205 2759 
Q 947 2416 947 1791 
Q 947 1169 1205 825 
Q 1463 481 1925 481 
Q 2391 481 2648 825 
Q 2906 1169 2906 1791 
z
M 3481 434 
Q 3481 -459 3084 -895 
Q 2688 -1331 1869 -1331 
Q 1566 -1331 1297 -1286 
Q 1028 -1241 775 -1147 
L 775 -588 
Q 1028 -725 1275 -790 
Q 1522 -856 1778 -856 
Q 2344 -856 2625 -561 
Q 2906 -266 2906 331 
L 2906 616 
Q 2728 306 2450 153 
Q 2172 0 1784 0 
Q 1141 0 747 490 
Q 353 981 353 1791 
Q 353 2603 747 3093 
Q 1141 3584 1784 3584 
Q 2172 3584 2450 3431 
Q 2728 3278 2906 2969 
L 2906 3500 
L 3481 3500 
L 3481 434 
z
" transform="scale(0.015625)"/>
      </defs>
      <use xlink:href="#DejaVuSans-50"/>
      <use xlink:href="#DejaVuSans-61" x="55.802734"/>
      <use xlink:href="#DejaVuSans-72" x="117.082031"/>
      <use xlink:href="#DejaVuSans-73" x="158.195312"/>
      <use xlink:href="#DejaVuSans-65" x="210.294922"/>
      <use xlink:href="#DejaVuSans-64" x="271.818359"/>
      <use xlink:href="#DejaVuSans-20" x="335.294922"/>
      <use xlink:href="#DejaVuSans-50" x="367.082031"/>
      <use xlink:href="#DejaVuSans-61" x="422.884766"/>
      <use xlink:href="#DejaVuSans-63" x="484.164062"/>
      <use xlink:href="#DejaVuSans-6b" x="539.144531"/>
      <use xlink:href="#DejaVuSans-65" x="593.429688"/>
      <use xlink:href="#DejaVuSans-74" x="654.953125"/>
      <use xlink:href="#DejaVuSans-73" x="694.162109"/>
      <use xlink:href="#DejaVuSans-20" x="746.261719"/>
      <use xlink:href="#DejaVuSans-41" x="778.048828"/>
      <use xlink:href="#DejaVuSans-76" x="840.582031"/>
      <use xlink:href="#DejaVuSans-65" x="899.761719"/>
      <use xlink:href="#DejaVuSans-72" x="961.285156"/>
      <use xlink:href="#DejaVuSans-61" x="1002.398438"/>
      <use xlink:href="#DejaVuSans-67" x="1063.677734"/>
      <use xlink:href="#DejaVuSans-65" x="1127.154297"/>
     </g>
    </g>
    <g id="line2d_22">
     <path d="M 804.064 380.087188 
L 818.064 380.087188 
L 832.064 380.087188 
" style="fill: none; stroke-dasharray: 5.55,2.4; stroke-dashoffset: 0; stroke: #ffa500; stroke-width: 1.5"/>
    </g>
    <g id="text_21">
     <!-- Filtered Packets Average -->
     <g transform="translate(843.264 384.987188) scale(0.14 -0.14)">
      <use xlink:href="#DejaVuSans-46"/>
      <use xlink:href="#DejaVuSans-69" x="50.269531"/>
      <use xlink:href="#DejaVuSans-6c" x="78.052734"/>
      <use xlink:href="#DejaVuSans-74" x="105.835938"/>
      <use xlink:href="#DejaVuSans-65" x="145.044922"/>
      <use xlink:href="#DejaVuSans-72" x="206.568359"/>
      <use xlink:href="#DejaVuSans-65" x="245.431641"/>
      <use xlink:href="#DejaVuSans-64" x="306.955078"/>
      <use xlink:href="#DejaVuSans-20" x="370.431641"/>
      <use xlink:href="#DejaVuSans-50" x="402.21875"/>
      <use xlink:href="#DejaVuSans-61" x="458.021484"/>
      <use xlink:href="#DejaVuSans-63" x="519.300781"/>
      <use xlink:href="#DejaVuSans-6b" x="574.28125"/>
      <use xlink:href="#DejaVuSans-65" x="628.566406"/>
      <use xlink:href="#DejaVuSans-74" x="690.089844"/>
      <use xlink:href="#DejaVuSans-73" x="729.298828"/>
      <use xlink:href="#DejaVuSans-20" x="781.398438"/>
      <use xlink:href="#DejaVuSans-41" x="813.185547"/>
      <use xlink:href="#DejaVuSans-76" x="875.71875"/>
      <use xlink:href="#DejaVuSans-65" x="934.898438"/>
      <use xlink:href="#DejaVuSans-72" x="996.421875"/>
      <use xlink:href="#DejaVuSans-61" x="1037.535156"/>
      <use xlink:href="#DejaVuSans-67" x="1098.814453"/>
      <use xlink:href="#DejaVuSans-65" x="1162.291016"/>
     </g>
    </g>
   </g>
  </g>
 </g>
 <defs>
  <clipPath id="p2efc897fe5">
   <rect x="93.32" y="60.96" width="698.144" height="578.68"/>
  </clipPath>
 </defs>
</svg>
