<?xml version="1.0" encoding="utf-8" standalone="no"?>
<!DOCTYPE svg PUBLIC "-//W3C//DTD SVG 1.1//EN"
  "http://www.w3.org/Graphics/SVG/1.1/DTD/svg11.dtd">
<svg xmlns:xlink="http://www.w3.org/1999/xlink" width="1008pt" height="720pt" viewBox="0 0 1008 720" xmlns="http://www.w3.org/2000/svg" version="1.1">
 <metadata>
  <rdf:RDF xmlns:dc="http://purl.org/dc/elements/1.1/" xmlns:cc="http://creativecommons.org/ns#" xmlns:rdf="http://www.w3.org/1999/02/22-rdf-syntax-ns#">
   <cc:Work>
    <dc:type rdf:resource="http://purl.org/dc/dcmitype/StillImage"/>
    <dc:date>2023-04-13T18:38:14.557515</dc:date>
    <dc:format>image/svg+xml</dc:format>
    <dc:creator>
     <cc:Agent>
      <dc:title>Matplotlib v3.6.2, https://matplotlib.org/</dc:title>
     </cc:Agent>
    </dc:creator>
   </cc:Work>
  </rdf:RDF>
 </metadata>
 <defs>
  <style type="text/css">*{stroke-linejoin: round; stroke-linecap: butt}</style>
 </defs>
 <g id="figure_1">
  <g id="patch_1">
   <path d="M 0 720 
L 1008 720 
L 1008 0 
L 0 0 
z
" style="fill: #ffffff"/>
  </g>
  <g id="axes_1">
   <g id="patch_2">
    <path d="M 84.59 639.64 
L 789.718 639.64 
L 789.718 60.96 
L 84.59 60.96 
z
" style="fill: #ffffff"/>
   </g>
   <g id="matplotlib.axis_1">
    <g id="xtick_1">
     <g id="line2d_1">
      <defs>
       <path id="m7f87137e20" d="M 0 0 
L 0 3.5 
" style="stroke: #000000; stroke-width: 0.8"/>
      </defs>
      <g>
       <use xlink:href="#m7f87137e20" x="84.59" y="639.64" style="stroke: #000000; stroke-width: 0.8"/>
      </g>
     </g>
     <g id="text_1">
      <!-- 0 -->
      <g transform="translate(80.13625 657.277812) scale(0.14 -0.14)">
       <defs>
        <path id="DejaVuSans-30" d="M 2034 4250 
Q 1547 4250 1301 3770 
Q 1056 3291 1056 2328 
Q 1056 1369 1301 889 
Q 1547 409 2034 409 
Q 2525 409 2770 889 
Q 3016 1369 3016 2328 
Q 3016 3291 2770 3770 
Q 2525 4250 2034 4250 
z
M 2034 4750 
Q 2819 4750 3233 4129 
Q 3647 3509 3647 2328 
Q 3647 1150 3233 529 
Q 2819 -91 2034 -91 
Q 1250 -91 836 529 
Q 422 1150 422 2328 
Q 422 3509 836 4129 
Q 1250 4750 2034 4750 
z
" transform="scale(0.015625)"/>
       </defs>
       <use xlink:href="#DejaVuSans-30"/>
      </g>
     </g>
    </g>
    <g id="xtick_2">
     <g id="line2d_2">
      <g>
       <use xlink:href="#m7f87137e20" x="176.382028" y="639.64" style="stroke: #000000; stroke-width: 0.8"/>
      </g>
     </g>
     <g id="text_2">
      <!-- 250 -->
      <g transform="translate(163.020778 657.277812) scale(0.14 -0.14)">
       <defs>
        <path id="DejaVuSans-32" d="M 1228 531 
L 3431 531 
L 3431 0 
L 469 0 
L 469 531 
Q 828 903 1448 1529 
Q 2069 2156 2228 2338 
Q 2531 2678 2651 2914 
Q 2772 3150 2772 3378 
Q 2772 3750 2511 3984 
Q 2250 4219 1831 4219 
Q 1534 4219 1204 4116 
Q 875 4013 500 3803 
L 500 4441 
Q 881 4594 1212 4672 
Q 1544 4750 1819 4750 
Q 2544 4750 2975 4387 
Q 3406 4025 3406 3419 
Q 3406 3131 3298 2873 
Q 3191 2616 2906 2266 
Q 2828 2175 2409 1742 
Q 1991 1309 1228 531 
z
" transform="scale(0.015625)"/>
        <path id="DejaVuSans-35" d="M 691 4666 
L 3169 4666 
L 3169 4134 
L 1269 4134 
L 1269 2991 
Q 1406 3038 1543 3061 
Q 1681 3084 1819 3084 
Q 2600 3084 3056 2656 
Q 3513 2228 3513 1497 
Q 3513 744 3044 326 
Q 2575 -91 1722 -91 
Q 1428 -91 1123 -41 
Q 819 9 494 109 
L 494 744 
Q 775 591 1075 516 
Q 1375 441 1709 441 
Q 2250 441 2565 725 
Q 2881 1009 2881 1497 
Q 2881 1984 2565 2268 
Q 2250 2553 1709 2553 
Q 1456 2553 1204 2497 
Q 953 2441 691 2322 
L 691 4666 
z
" transform="scale(0.015625)"/>
       </defs>
       <use xlink:href="#DejaVuSans-32"/>
       <use xlink:href="#DejaVuSans-35" x="63.623047"/>
       <use xlink:href="#DejaVuSans-30" x="127.246094"/>
      </g>
     </g>
    </g>
    <g id="xtick_3">
     <g id="line2d_3">
      <g>
       <use xlink:href="#m7f87137e20" x="268.174056" y="639.64" style="stroke: #000000; stroke-width: 0.8"/>
      </g>
     </g>
     <g id="text_3">
      <!-- 500 -->
      <g transform="translate(254.812806 657.277812) scale(0.14 -0.14)">
       <use xlink:href="#DejaVuSans-35"/>
       <use xlink:href="#DejaVuSans-30" x="63.623047"/>
       <use xlink:href="#DejaVuSans-30" x="127.246094"/>
      </g>
     </g>
    </g>
    <g id="xtick_4">
     <g id="line2d_4">
      <g>
       <use xlink:href="#m7f87137e20" x="359.966084" y="639.64" style="stroke: #000000; stroke-width: 0.8"/>
      </g>
     </g>
     <g id="text_4">
      <!-- 750 -->
      <g transform="translate(346.604834 657.277812) scale(0.14 -0.14)">
       <defs>
        <path id="DejaVuSans-37" d="M 525 4666 
L 3525 4666 
L 3525 4397 
L 1831 0 
L 1172 0 
L 2766 4134 
L 525 4134 
L 525 4666 
z
" transform="scale(0.015625)"/>
       </defs>
       <use xlink:href="#DejaVuSans-37"/>
       <use xlink:href="#DejaVuSans-35" x="63.623047"/>
       <use xlink:href="#DejaVuSans-30" x="127.246094"/>
      </g>
     </g>
    </g>
    <g id="xtick_5">
     <g id="line2d_5">
      <g>
       <use xlink:href="#m7f87137e20" x="451.758112" y="639.64" style="stroke: #000000; stroke-width: 0.8"/>
      </g>
     </g>
     <g id="text_5">
      <!-- 1000 -->
      <g transform="translate(433.943112 657.277812) scale(0.14 -0.14)">
       <defs>
        <path id="DejaVuSans-31" d="M 794 531 
L 1825 531 
L 1825 4091 
L 703 3866 
L 703 4441 
L 1819 4666 
L 2450 4666 
L 2450 531 
L 3481 531 
L 3481 0 
L 794 0 
L 794 531 
z
" transform="scale(0.015625)"/>
       </defs>
       <use xlink:href="#DejaVuSans-31"/>
       <use xlink:href="#DejaVuSans-30" x="63.623047"/>
       <use xlink:href="#DejaVuSans-30" x="127.246094"/>
       <use xlink:href="#DejaVuSans-30" x="190.869141"/>
      </g>
     </g>
    </g>
    <g id="xtick_6">
     <g id="line2d_6">
      <g>
       <use xlink:href="#m7f87137e20" x="543.55014" y="639.64" style="stroke: #000000; stroke-width: 0.8"/>
      </g>
     </g>
     <g id="text_6">
      <!-- 1250 -->
      <g transform="translate(525.73514 657.277812) scale(0.14 -0.14)">
       <use xlink:href="#DejaVuSans-31"/>
       <use xlink:href="#DejaVuSans-32" x="63.623047"/>
       <use xlink:href="#DejaVuSans-35" x="127.246094"/>
       <use xlink:href="#DejaVuSans-30" x="190.869141"/>
      </g>
     </g>
    </g>
    <g id="xtick_7">
     <g id="line2d_7">
      <g>
       <use xlink:href="#m7f87137e20" x="635.342167" y="639.64" style="stroke: #000000; stroke-width: 0.8"/>
      </g>
     </g>
     <g id="text_7">
      <!-- 1500 -->
      <g transform="translate(617.527167 657.277812) scale(0.14 -0.14)">
       <use xlink:href="#DejaVuSans-31"/>
       <use xlink:href="#DejaVuSans-35" x="63.623047"/>
       <use xlink:href="#DejaVuSans-30" x="127.246094"/>
       <use xlink:href="#DejaVuSans-30" x="190.869141"/>
      </g>
     </g>
    </g>
    <g id="xtick_8">
     <g id="line2d_8">
      <g>
       <use xlink:href="#m7f87137e20" x="727.134195" y="639.64" style="stroke: #000000; stroke-width: 0.8"/>
      </g>
     </g>
     <g id="text_8">
      <!-- 1750 -->
      <g transform="translate(709.319195 657.277812) scale(0.14 -0.14)">
       <use xlink:href="#DejaVuSans-31"/>
       <use xlink:href="#DejaVuSans-37" x="63.623047"/>
       <use xlink:href="#DejaVuSans-35" x="127.246094"/>
       <use xlink:href="#DejaVuSans-30" x="190.869141"/>
      </g>
     </g>
    </g>
    <g id="text_9">
     <!-- Packet Number -->
     <g transform="translate(383.913531 674.827188) scale(0.14 -0.14)">
      <defs>
       <path id="DejaVuSans-50" d="M 1259 4147 
L 1259 2394 
L 2053 2394 
Q 2494 2394 2734 2622 
Q 2975 2850 2975 3272 
Q 2975 3691 2734 3919 
Q 2494 4147 2053 4147 
L 1259 4147 
z
M 628 4666 
L 2053 4666 
Q 2838 4666 3239 4311 
Q 3641 3956 3641 3272 
Q 3641 2581 3239 2228 
Q 2838 1875 2053 1875 
L 1259 1875 
L 1259 0 
L 628 0 
L 628 4666 
z
" transform="scale(0.015625)"/>
       <path id="DejaVuSans-61" d="M 2194 1759 
Q 1497 1759 1228 1600 
Q 959 1441 959 1056 
Q 959 750 1161 570 
Q 1363 391 1709 391 
Q 2188 391 2477 730 
Q 2766 1069 2766 1631 
L 2766 1759 
L 2194 1759 
z
M 3341 1997 
L 3341 0 
L 2766 0 
L 2766 531 
Q 2569 213 2275 61 
Q 1981 -91 1556 -91 
Q 1019 -91 701 211 
Q 384 513 384 1019 
Q 384 1609 779 1909 
Q 1175 2209 1959 2209 
L 2766 2209 
L 2766 2266 
Q 2766 2663 2505 2880 
Q 2244 3097 1772 3097 
Q 1472 3097 1187 3025 
Q 903 2953 641 2809 
L 641 3341 
Q 956 3463 1253 3523 
Q 1550 3584 1831 3584 
Q 2591 3584 2966 3190 
Q 3341 2797 3341 1997 
z
" transform="scale(0.015625)"/>
       <path id="DejaVuSans-63" d="M 3122 3366 
L 3122 2828 
Q 2878 2963 2633 3030 
Q 2388 3097 2138 3097 
Q 1578 3097 1268 2742 
Q 959 2388 959 1747 
Q 959 1106 1268 751 
Q 1578 397 2138 397 
Q 2388 397 2633 464 
Q 2878 531 3122 666 
L 3122 134 
Q 2881 22 2623 -34 
Q 2366 -91 2075 -91 
Q 1284 -91 818 406 
Q 353 903 353 1747 
Q 353 2603 823 3093 
Q 1294 3584 2113 3584 
Q 2378 3584 2631 3529 
Q 2884 3475 3122 3366 
z
" transform="scale(0.015625)"/>
       <path id="DejaVuSans-6b" d="M 581 4863 
L 1159 4863 
L 1159 1991 
L 2875 3500 
L 3609 3500 
L 1753 1863 
L 3688 0 
L 2938 0 
L 1159 1709 
L 1159 0 
L 581 0 
L 581 4863 
z
" transform="scale(0.015625)"/>
       <path id="DejaVuSans-65" d="M 3597 1894 
L 3597 1613 
L 953 1613 
Q 991 1019 1311 708 
Q 1631 397 2203 397 
Q 2534 397 2845 478 
Q 3156 559 3463 722 
L 3463 178 
Q 3153 47 2828 -22 
Q 2503 -91 2169 -91 
Q 1331 -91 842 396 
Q 353 884 353 1716 
Q 353 2575 817 3079 
Q 1281 3584 2069 3584 
Q 2775 3584 3186 3129 
Q 3597 2675 3597 1894 
z
M 3022 2063 
Q 3016 2534 2758 2815 
Q 2500 3097 2075 3097 
Q 1594 3097 1305 2825 
Q 1016 2553 972 2059 
L 3022 2063 
z
" transform="scale(0.015625)"/>
       <path id="DejaVuSans-74" d="M 1172 4494 
L 1172 3500 
L 2356 3500 
L 2356 3053 
L 1172 3053 
L 1172 1153 
Q 1172 725 1289 603 
Q 1406 481 1766 481 
L 2356 481 
L 2356 0 
L 1766 0 
Q 1100 0 847 248 
Q 594 497 594 1153 
L 594 3053 
L 172 3053 
L 172 3500 
L 594 3500 
L 594 4494 
L 1172 4494 
z
" transform="scale(0.015625)"/>
       <path id="DejaVuSans-20" transform="scale(0.015625)"/>
       <path id="DejaVuSans-4e" d="M 628 4666 
L 1478 4666 
L 3547 763 
L 3547 4666 
L 4159 4666 
L 4159 0 
L 3309 0 
L 1241 3903 
L 1241 0 
L 628 0 
L 628 4666 
z
" transform="scale(0.015625)"/>
       <path id="DejaVuSans-75" d="M 544 1381 
L 544 3500 
L 1119 3500 
L 1119 1403 
Q 1119 906 1312 657 
Q 1506 409 1894 409 
Q 2359 409 2629 706 
Q 2900 1003 2900 1516 
L 2900 3500 
L 3475 3500 
L 3475 0 
L 2900 0 
L 2900 538 
Q 2691 219 2414 64 
Q 2138 -91 1772 -91 
Q 1169 -91 856 284 
Q 544 659 544 1381 
z
M 1991 3584 
L 1991 3584 
z
" transform="scale(0.015625)"/>
       <path id="DejaVuSans-6d" d="M 3328 2828 
Q 3544 3216 3844 3400 
Q 4144 3584 4550 3584 
Q 5097 3584 5394 3201 
Q 5691 2819 5691 2113 
L 5691 0 
L 5113 0 
L 5113 2094 
Q 5113 2597 4934 2840 
Q 4756 3084 4391 3084 
Q 3944 3084 3684 2787 
Q 3425 2491 3425 1978 
L 3425 0 
L 2847 0 
L 2847 2094 
Q 2847 2600 2669 2842 
Q 2491 3084 2119 3084 
Q 1678 3084 1418 2786 
Q 1159 2488 1159 1978 
L 1159 0 
L 581 0 
L 581 3500 
L 1159 3500 
L 1159 2956 
Q 1356 3278 1631 3431 
Q 1906 3584 2284 3584 
Q 2666 3584 2933 3390 
Q 3200 3197 3328 2828 
z
" transform="scale(0.015625)"/>
       <path id="DejaVuSans-62" d="M 3116 1747 
Q 3116 2381 2855 2742 
Q 2594 3103 2138 3103 
Q 1681 3103 1420 2742 
Q 1159 2381 1159 1747 
Q 1159 1113 1420 752 
Q 1681 391 2138 391 
Q 2594 391 2855 752 
Q 3116 1113 3116 1747 
z
M 1159 2969 
Q 1341 3281 1617 3432 
Q 1894 3584 2278 3584 
Q 2916 3584 3314 3078 
Q 3713 2572 3713 1747 
Q 3713 922 3314 415 
Q 2916 -91 2278 -91 
Q 1894 -91 1617 61 
Q 1341 213 1159 525 
L 1159 0 
L 581 0 
L 581 4863 
L 1159 4863 
L 1159 2969 
z
" transform="scale(0.015625)"/>
       <path id="DejaVuSans-72" d="M 2631 2963 
Q 2534 3019 2420 3045 
Q 2306 3072 2169 3072 
Q 1681 3072 1420 2755 
Q 1159 2438 1159 1844 
L 1159 0 
L 581 0 
L 581 3500 
L 1159 3500 
L 1159 2956 
Q 1341 3275 1631 3429 
Q 1922 3584 2338 3584 
Q 2397 3584 2469 3576 
Q 2541 3569 2628 3553 
L 2631 2963 
z
" transform="scale(0.015625)"/>
      </defs>
      <use xlink:href="#DejaVuSans-50"/>
      <use xlink:href="#DejaVuSans-61" x="55.802734"/>
      <use xlink:href="#DejaVuSans-63" x="117.082031"/>
      <use xlink:href="#DejaVuSans-6b" x="172.0625"/>
      <use xlink:href="#DejaVuSans-65" x="226.347656"/>
      <use xlink:href="#DejaVuSans-74" x="287.871094"/>
      <use xlink:href="#DejaVuSans-20" x="327.080078"/>
      <use xlink:href="#DejaVuSans-4e" x="358.867188"/>
      <use xlink:href="#DejaVuSans-75" x="433.671875"/>
      <use xlink:href="#DejaVuSans-6d" x="497.050781"/>
      <use xlink:href="#DejaVuSans-62" x="594.462891"/>
      <use xlink:href="#DejaVuSans-65" x="657.939453"/>
      <use xlink:href="#DejaVuSans-72" x="719.462891"/>
     </g>
    </g>
   </g>
   <g id="matplotlib.axis_2">
    <g id="ytick_1">
     <g id="line2d_9">
      <defs>
       <path id="mf20f3cc841" d="M 0 0 
L -3.5 0 
" style="stroke: #000000; stroke-width: 0.8"/>
      </defs>
      <g>
       <use xlink:href="#mf20f3cc841" x="84.59" y="639.64" style="stroke: #000000; stroke-width: 0.8"/>
      </g>
     </g>
     <g id="text_10">
      <!-- 0 -->
      <g transform="translate(68.6825 644.958906) scale(0.14 -0.14)">
       <use xlink:href="#DejaVuSans-30"/>
      </g>
     </g>
    </g>
    <g id="ytick_2">
     <g id="line2d_10">
      <g>
       <use xlink:href="#mf20f3cc841" x="84.59" y="557.17187" style="stroke: #000000; stroke-width: 0.8"/>
      </g>
     </g>
     <g id="text_11">
      <!-- 5 -->
      <g transform="translate(68.6825 562.490776) scale(0.14 -0.14)">
       <use xlink:href="#DejaVuSans-35"/>
      </g>
     </g>
    </g>
    <g id="ytick_3">
     <g id="line2d_11">
      <g>
       <use xlink:href="#mf20f3cc841" x="84.59" y="474.70374" style="stroke: #000000; stroke-width: 0.8"/>
      </g>
     </g>
     <g id="text_12">
      <!-- 10 -->
      <g transform="translate(59.775 480.022646) scale(0.14 -0.14)">
       <use xlink:href="#DejaVuSans-31"/>
       <use xlink:href="#DejaVuSans-30" x="63.623047"/>
      </g>
     </g>
    </g>
    <g id="ytick_4">
     <g id="line2d_12">
      <g>
       <use xlink:href="#mf20f3cc841" x="84.59" y="392.23561" style="stroke: #000000; stroke-width: 0.8"/>
      </g>
     </g>
     <g id="text_13">
      <!-- 15 -->
      <g transform="translate(59.775 397.554516) scale(0.14 -0.14)">
       <use xlink:href="#DejaVuSans-31"/>
       <use xlink:href="#DejaVuSans-35" x="63.623047"/>
      </g>
     </g>
    </g>
    <g id="ytick_5">
     <g id="line2d_13">
      <g>
       <use xlink:href="#mf20f3cc841" x="84.59" y="309.767479" style="stroke: #000000; stroke-width: 0.8"/>
      </g>
     </g>
     <g id="text_14">
      <!-- 20 -->
      <g transform="translate(59.775 315.086386) scale(0.14 -0.14)">
       <use xlink:href="#DejaVuSans-32"/>
       <use xlink:href="#DejaVuSans-30" x="63.623047"/>
      </g>
     </g>
    </g>
    <g id="ytick_6">
     <g id="line2d_14">
      <g>
       <use xlink:href="#mf20f3cc841" x="84.59" y="227.299349" style="stroke: #000000; stroke-width: 0.8"/>
      </g>
     </g>
     <g id="text_15">
      <!-- 25 -->
      <g transform="translate(59.775 232.618255) scale(0.14 -0.14)">
       <use xlink:href="#DejaVuSans-32"/>
       <use xlink:href="#DejaVuSans-35" x="63.623047"/>
      </g>
     </g>
    </g>
    <g id="ytick_7">
     <g id="line2d_15">
      <g>
       <use xlink:href="#mf20f3cc841" x="84.59" y="144.831219" style="stroke: #000000; stroke-width: 0.8"/>
      </g>
     </g>
     <g id="text_16">
      <!-- 30 -->
      <g transform="translate(59.775 150.150125) scale(0.14 -0.14)">
       <defs>
        <path id="DejaVuSans-33" d="M 2597 2516 
Q 3050 2419 3304 2112 
Q 3559 1806 3559 1356 
Q 3559 666 3084 287 
Q 2609 -91 1734 -91 
Q 1441 -91 1130 -33 
Q 819 25 488 141 
L 488 750 
Q 750 597 1062 519 
Q 1375 441 1716 441 
Q 2309 441 2620 675 
Q 2931 909 2931 1356 
Q 2931 1769 2642 2001 
Q 2353 2234 1838 2234 
L 1294 2234 
L 1294 2753 
L 1863 2753 
Q 2328 2753 2575 2939 
Q 2822 3125 2822 3475 
Q 2822 3834 2567 4026 
Q 2313 4219 1838 4219 
Q 1578 4219 1281 4162 
Q 984 4106 628 3988 
L 628 4550 
Q 988 4650 1302 4700 
Q 1616 4750 1894 4750 
Q 2613 4750 3031 4423 
Q 3450 4097 3450 3541 
Q 3450 3153 3228 2886 
Q 3006 2619 2597 2516 
z
" transform="scale(0.015625)"/>
       </defs>
       <use xlink:href="#DejaVuSans-33"/>
       <use xlink:href="#DejaVuSans-30" x="63.623047"/>
      </g>
     </g>
    </g>
    <g id="ytick_8">
     <g id="line2d_16">
      <g>
       <use xlink:href="#mf20f3cc841" x="84.59" y="62.363089" style="stroke: #000000; stroke-width: 0.8"/>
      </g>
     </g>
     <g id="text_17">
      <!-- 35 -->
      <g transform="translate(59.775 67.681995) scale(0.14 -0.14)">
       <use xlink:href="#DejaVuSans-33"/>
       <use xlink:href="#DejaVuSans-35" x="63.623047"/>
      </g>
     </g>
    </g>
    <g id="text_18">
     <!-- Interarrival Time (ms) -->
     <g transform="translate(52.863438 426.478594) rotate(-90) scale(0.14 -0.14)">
      <defs>
       <path id="DejaVuSans-49" d="M 628 4666 
L 1259 4666 
L 1259 0 
L 628 0 
L 628 4666 
z
" transform="scale(0.015625)"/>
       <path id="DejaVuSans-6e" d="M 3513 2113 
L 3513 0 
L 2938 0 
L 2938 2094 
Q 2938 2591 2744 2837 
Q 2550 3084 2163 3084 
Q 1697 3084 1428 2787 
Q 1159 2491 1159 1978 
L 1159 0 
L 581 0 
L 581 3500 
L 1159 3500 
L 1159 2956 
Q 1366 3272 1645 3428 
Q 1925 3584 2291 3584 
Q 2894 3584 3203 3211 
Q 3513 2838 3513 2113 
z
" transform="scale(0.015625)"/>
       <path id="DejaVuSans-69" d="M 603 3500 
L 1178 3500 
L 1178 0 
L 603 0 
L 603 3500 
z
M 603 4863 
L 1178 4863 
L 1178 4134 
L 603 4134 
L 603 4863 
z
" transform="scale(0.015625)"/>
       <path id="DejaVuSans-76" d="M 191 3500 
L 800 3500 
L 1894 563 
L 2988 3500 
L 3597 3500 
L 2284 0 
L 1503 0 
L 191 3500 
z
" transform="scale(0.015625)"/>
       <path id="DejaVuSans-6c" d="M 603 4863 
L 1178 4863 
L 1178 0 
L 603 0 
L 603 4863 
z
" transform="scale(0.015625)"/>
       <path id="DejaVuSans-54" d="M -19 4666 
L 3928 4666 
L 3928 4134 
L 2272 4134 
L 2272 0 
L 1638 0 
L 1638 4134 
L -19 4134 
L -19 4666 
z
" transform="scale(0.015625)"/>
       <path id="DejaVuSans-28" d="M 1984 4856 
Q 1566 4138 1362 3434 
Q 1159 2731 1159 2009 
Q 1159 1288 1364 580 
Q 1569 -128 1984 -844 
L 1484 -844 
Q 1016 -109 783 600 
Q 550 1309 550 2009 
Q 550 2706 781 3412 
Q 1013 4119 1484 4856 
L 1984 4856 
z
" transform="scale(0.015625)"/>
       <path id="DejaVuSans-73" d="M 2834 3397 
L 2834 2853 
Q 2591 2978 2328 3040 
Q 2066 3103 1784 3103 
Q 1356 3103 1142 2972 
Q 928 2841 928 2578 
Q 928 2378 1081 2264 
Q 1234 2150 1697 2047 
L 1894 2003 
Q 2506 1872 2764 1633 
Q 3022 1394 3022 966 
Q 3022 478 2636 193 
Q 2250 -91 1575 -91 
Q 1294 -91 989 -36 
Q 684 19 347 128 
L 347 722 
Q 666 556 975 473 
Q 1284 391 1588 391 
Q 1994 391 2212 530 
Q 2431 669 2431 922 
Q 2431 1156 2273 1281 
Q 2116 1406 1581 1522 
L 1381 1569 
Q 847 1681 609 1914 
Q 372 2147 372 2553 
Q 372 3047 722 3315 
Q 1072 3584 1716 3584 
Q 2034 3584 2315 3537 
Q 2597 3491 2834 3397 
z
" transform="scale(0.015625)"/>
       <path id="DejaVuSans-29" d="M 513 4856 
L 1013 4856 
Q 1481 4119 1714 3412 
Q 1947 2706 1947 2009 
Q 1947 1309 1714 600 
Q 1481 -109 1013 -844 
L 513 -844 
Q 928 -128 1133 580 
Q 1338 1288 1338 2009 
Q 1338 2731 1133 3434 
Q 928 4138 513 4856 
z
" transform="scale(0.015625)"/>
      </defs>
      <use xlink:href="#DejaVuSans-49"/>
      <use xlink:href="#DejaVuSans-6e" x="29.492188"/>
      <use xlink:href="#DejaVuSans-74" x="92.871094"/>
      <use xlink:href="#DejaVuSans-65" x="132.080078"/>
      <use xlink:href="#DejaVuSans-72" x="193.603516"/>
      <use xlink:href="#DejaVuSans-61" x="234.716797"/>
      <use xlink:href="#DejaVuSans-72" x="295.996094"/>
      <use xlink:href="#DejaVuSans-72" x="335.359375"/>
      <use xlink:href="#DejaVuSans-69" x="376.472656"/>
      <use xlink:href="#DejaVuSans-76" x="404.255859"/>
      <use xlink:href="#DejaVuSans-61" x="463.435547"/>
      <use xlink:href="#DejaVuSans-6c" x="524.714844"/>
      <use xlink:href="#DejaVuSans-20" x="552.498047"/>
      <use xlink:href="#DejaVuSans-54" x="584.285156"/>
      <use xlink:href="#DejaVuSans-69" x="642.244141"/>
      <use xlink:href="#DejaVuSans-6d" x="670.027344"/>
      <use xlink:href="#DejaVuSans-65" x="767.439453"/>
      <use xlink:href="#DejaVuSans-20" x="828.962891"/>
      <use xlink:href="#DejaVuSans-28" x="860.75"/>
      <use xlink:href="#DejaVuSans-6d" x="899.763672"/>
      <use xlink:href="#DejaVuSans-73" x="997.175781"/>
      <use xlink:href="#DejaVuSans-29" x="1049.275391"/>
     </g>
    </g>
   </g>
   <g id="line2d_17">
    <path d="M 84.59 88.51619 
L 84.957168 88.743242 
L 85.691504 88.854673 
L 86.793009 88.770753 
L 87.160177 88.934964 
L 87.894513 88.842913 
L 88.261681 88.915485 
L 88.628849 88.82312 
L 89.363185 88.840933 
L 91.199026 88.842814 
L 92.30053 88.848207 
L 105.518582 88.96711 
L 106.620087 88.997639 
L 107.721591 89.0491 
L 109.190263 89.007948 
L 110.291768 89.098778 
L 111.026104 89.064191 
L 117.267962 89.046378 
L 118.369466 89.186706 
L 119.103802 89.116163 
L 120.939643 89.150156 
L 122.041147 89.131716 
L 129.017342 89.191176 
L 129.38451 89.284414 
L 130.118846 89.1682 
L 130.853182 89.222761 
L 131.587518 89.204568 
L 134.157695 89.205674 
L 135.626368 89.138495 
L 136.360704 89.207768 
L 136.727872 89.080784 
L 137.462208 89.234389 
L 138.196544 89.225713 
L 138.563712 89.470099 
L 138.930881 88.960067 
L 139.298049 89.228369 
L 140.766721 89.27945 
L 141.133889 89.211479 
L 141.868225 89.280917 
L 144.80557 89.257909 
L 147.008579 89.285981 
L 147.375747 89.247633 
L 147.742915 89.516595 
L 148.110083 89.012137 
L 148.477251 89.294327 
L 149.945924 89.283655 
L 151.047428 89.322976 
L 151.781764 89.324411 
L 153.250437 89.300908 
L 154.351941 89.299539 
L 156.922118 89.396109 
L 157.289286 89.28128 
L 158.39079 89.325995 
L 167.569993 89.265397 
L 167.937161 89.347123 
L 168.671498 89.291836 
L 172.710347 89.300611 
L 173.811851 89.343659 
L 178.217868 89.314977 
L 179.686541 89.322646 
L 181.522381 89.410277 
L 181.88955 89.305493 
L 183.358222 89.362033 
L 189.232912 89.391936 
L 190.334416 89.39507 
L 191.803089 89.382716 
L 193.271761 89.386279 
L 193.638929 89.298005 
L 196.943442 89.451445 
L 198.044946 89.430036 
L 199.513619 89.33218 
L 199.880787 89.508958 
L 200.615123 89.465827 
L 201.716628 89.382996 
L 202.818132 89.40584 
L 204.286804 89.569902 
L 204.653973 89.281594 
L 205.021141 89.423686 
L 207.958486 89.427166 
L 209.794326 89.482981 
L 210.161494 89.760371 
L 210.528662 89.159178 
L 210.89583 89.451462 
L 212.731671 89.432708 
L 213.833175 89.452105 
L 215.301848 89.415159 
L 216.036184 89.463337 
L 216.403352 89.450967 
L 216.77052 89.687782 
L 217.504856 89.764857 
L 221.910874 89.741123 
L 224.481051 89.752091 
L 225.215387 89.721495 
L 225.582555 89.843532 
L 225.949723 89.737362 
L 228.152732 89.779404 
L 230.35574 89.721875 
L 230.722908 89.798141 
L 231.457245 89.743745 
L 233.293085 89.727317 
L 233.660253 89.811534 
L 234.39459 89.763191 
L 235.863262 89.732035 
L 236.23043 89.816235 
L 237.331934 89.718675 
L 238.066271 89.733865 
L 241.737952 89.788905 
L 242.10512 90.024582 
L 242.472288 89.450934 
L 242.839456 89.732661 
L 248.714146 89.758424 
L 249.81565 89.749303 
L 250.917155 89.742657 
L 252.752995 89.79829 
L 253.120163 89.624843 
L 253.854499 89.747044 
L 255.323172 89.724514 
L 256.424676 89.755604 
L 257.893349 89.719269 
L 258.260517 89.815509 
L 258.994853 89.709125 
L 259.729189 89.74264 
L 261.56503 89.727961 
L 263.033702 89.763719 
L 263.40087 89.708366 
L 263.768038 89.794545 
L 264.502375 89.682867 
L 264.869543 89.791296 
L 265.971047 89.739358 
L 269.642728 89.723771 
L 271.845737 89.744735 
L 272.580073 89.751299 
L 272.947241 89.674521 
L 273.314409 89.821958 
L 274.048746 89.721776 
L 279.556267 89.761525 
L 280.657772 89.743316 
L 283.595117 89.73977 
L 283.962285 90.027271 
L 284.329453 89.455288 
L 284.696621 89.765517 
L 285.430957 89.731408 
L 285.798125 89.795337 
L 286.532461 89.731523 
L 290.204143 89.754647 
L 290.571311 89.834641 
L 290.938479 89.653311 
L 291.305647 89.792055 
L 292.407151 89.746005 
L 293.875824 89.817505 
L 294.61016 89.712605 
L 295.711664 89.743267 
L 300.117682 89.745708 
L 305.992371 89.758919 
L 307.461044 89.742607 
L 307.828212 89.795337 
L 308.19538 89.701934 
L 309.664052 89.716696 
L 311.867061 89.73403 
L 312.234229 89.627778 
L 312.601397 89.853494 
L 312.968565 89.725388 
L 313.335734 89.805184 
L 314.07007 89.730864 
L 315.538742 89.737049 
L 315.90591 89.796904 
L 316.640247 89.736158 
L 318.476087 89.83385 
L 318.843255 89.631456 
L 319.210423 89.744075 
L 321.046264 89.736603 
L 321.413432 89.784451 
L 321.7806 89.696359 
L 322.882104 89.730105 
L 325.085113 89.728653 
L 325.452281 89.995702 
L 325.819449 89.444204 
L 326.186617 89.721891 
L 326.920954 89.748677 
L 327.65529 89.750953 
L 354.091394 89.729396 
L 354.458562 89.792253 
L 354.82573 89.697365 
L 355.192898 89.739226 
L 355.560066 89.638648 
L 355.927235 89.811336 
L 356.294403 89.711995 
L 357.028739 89.73121 
L 365.840774 89.711286 
L 366.207942 90.001755 
L 366.57511 89.471369 
L 366.942278 89.711797 
L 368.043782 89.765962 
L 369.879623 89.680921 
L 370.981127 89.754103 
L 372.082631 89.742657 
L 376.121481 89.740298 
L 379.058826 89.754515 
L 380.16033 89.706189 
L 382.363339 89.720736 
L 383.832011 89.741683 
L 386.402188 89.757138 
L 387.503692 89.711088 
L 388.605196 89.737263 
L 389.706701 89.732843 
L 390.073869 89.790076 
L 390.808205 89.732975 
L 394.112718 89.741485 
L 418.345813 89.738517 
L 418.712982 89.978977 
L 419.08015 89.463733 
L 419.447318 89.728604 
L 423.118999 89.778563 
L 423.853335 89.751728 
L 425.322008 89.633568 
L 425.689176 89.820704 
L 426.056344 89.724645 
L 426.423512 89.875892 
L 426.79068 89.608052 
L 427.525016 89.797003 
L 427.892184 89.664147 
L 429.728025 89.736389 
L 430.462361 89.70924 
L 430.829529 89.628405 
L 431.196697 89.886563 
L 431.563866 89.723705 
L 436.337051 89.709306 
L 436.704219 89.78394 
L 437.805723 89.738616 
L 439.641564 89.742854 
L 440.743068 89.72834 
L 442.211741 89.772625 
L 443.313245 89.721033 
L 445.516254 89.713413 
L 449.922271 89.742145 
L 453.96112 89.730831 
L 455.429793 89.640627 
L 455.796961 89.878531 
L 456.164129 89.702973 
L 456.898465 89.737379 
L 457.99997 89.715673 
L 462.405987 89.747176 
L 463.507491 89.737214 
L 463.874659 89.714733 
L 464.241827 89.806998 
L 464.976164 89.722485 
L 465.7105 89.742574 
L 466.077668 89.795618 
L 466.444836 89.642573 
L 466.812004 89.746219 
L 468.280677 89.692697 
L 470.116517 89.734806 
L 474.889703 89.718939 
L 475.256871 89.780377 
L 475.991207 89.715063 
L 480.030056 89.724052 
L 488.474923 89.730897 
L 488.842091 89.669969 
L 489.576427 89.755225 
L 493.982444 89.742475 
L 494.716781 89.718015 
L 495.451117 89.655471 
L 495.818285 89.815179 
L 496.552621 89.728488 
L 504.997488 89.722336 
L 507.200496 89.744025 
L 507.567665 89.678562 
L 508.302001 89.727087 
L 510.872178 89.828918 
L 511.239346 89.655636 
L 512.34085 89.712077 
L 513.442354 89.726328 
L 513.809523 89.708482 
L 514.176691 89.914421 
L 514.543859 89.495895 
L 514.911027 89.741436 
L 517.114036 89.749287 
L 517.481204 89.99336 
L 517.848372 89.47226 
L 518.21554 89.727928 
L 520.05138 89.738038 
L 520.418549 89.676501 
L 520.785717 90.030553 
L 521.152885 89.452633 
L 521.520053 89.740232 
L 522.988725 89.731589 
L 532.167928 89.708548 
L 532.535096 90.03052 
L 532.902264 89.456624 
L 533.269432 89.691757 
L 534.003769 89.739688 
L 535.105273 89.718196 
L 535.472441 89.78521 
L 536.206777 89.741255 
L 537.67545 89.733041 
L 548.690493 89.719615 
L 549.057661 89.804293 
L 549.791997 89.694891 
L 550.893502 89.725718 
L 556.768192 89.603071 
L 557.13536 89.891033 
L 557.869696 89.723309 
L 559.705536 89.720324 
L 560.072705 89.892633 
L 560.439873 89.613429 
L 561.174209 89.737362 
L 564.111554 89.728967 
L 565.213058 89.728076 
L 565.947394 89.731391 
L 567.416067 89.693506 
L 568.884739 89.744867 
L 571.822084 89.689893 
L 574.025093 89.788129 
L 574.392261 89.699641 
L 575.493765 89.745543 
L 578.798278 89.710972 
L 579.532614 89.724167 
L 581.368455 89.708284 
L 582.469959 89.751646 
L 582.837127 89.680344 
L 583.571464 89.723276 
L 587.243145 89.702049 
L 587.610313 89.784072 
L 588.344649 89.717982 
L 589.078985 89.735581 
L 590.547658 89.721198 
L 595.688011 89.744405 
L 596.789516 89.716547 
L 602.297037 89.715788 
L 609.273232 89.718378 
L 610.007568 89.730022 
L 615.147921 89.744174 
L 618.819602 89.725025 
L 620.288275 89.725718 
L 621.022611 89.704078 
L 623.22562 89.745741 
L 623.592788 89.502691 
L 623.959956 89.915493 
L 624.327124 89.728109 
L 624.694292 89.809142 
L 625.06146 89.627267 
L 625.428628 89.734839 
L 625.795797 89.58351 
L 626.162965 89.902777 
L 626.530133 89.713314 
L 628.365973 89.723804 
L 629.467478 89.735663 
L 629.834646 89.638532 
L 630.201814 89.805514 
L 631.303318 89.730154 
L 632.037654 89.727614 
L 632.771991 89.731721 
L 633.139159 90.01363 
L 633.506327 89.426111 
L 633.873495 89.712803 
L 635.342167 89.730286 
L 636.81084 89.712308 
L 637.178008 89.782159 
L 637.912344 89.682389 
L 638.64668 89.705414 
L 641.951193 89.730748 
L 642.318362 89.695716 
L 642.68553 89.781219 
L 643.419866 89.716036 
L 643.787034 89.994663 
L 644.154202 89.457911 
L 644.52137 89.727054 
L 647.091547 89.728571 
L 648.560219 89.711352 
L 650.39606 89.72608 
L 650.763228 89.789152 
L 651.130396 89.699113 
L 652.599069 89.74076 
L 654.802077 89.72895 
L 658.10659 89.749254 
L 658.473758 90.001689 
L 658.840927 89.468879 
L 659.208095 89.700812 
L 659.942431 89.712803 
L 665.082785 89.619482 
L 665.449953 89.790406 
L 666.551457 89.708845 
L 668.387298 89.746631 
L 669.121634 89.728554 
L 671.324642 89.708053 
L 671.691811 89.962467 
L 672.058979 89.430317 
L 672.426147 89.729099 
L 673.160483 89.697546 
L 675.363492 89.784798 
L 676.097828 89.75059 
L 677.199332 89.731771 
L 680.871013 89.744322 
L 682.339686 89.647455 
L 682.706854 89.82839 
L 683.074022 89.703435 
L 683.808358 89.746401 
L 684.909863 89.588853 
L 685.277031 89.857337 
L 686.011367 89.727136 
L 686.378535 89.778695 
L 687.112871 89.607343 
L 687.480039 89.878086 
L 687.847207 89.710923 
L 688.948712 89.741551 
L 689.31588 89.634524 
L 689.683048 89.833767 
L 690.050216 89.711055 
L 692.987561 89.723903 
L 697.02641 89.685605 
L 697.393578 89.770663 
L 698.127915 89.727202 
L 699.963755 89.744603 
L 709.510126 89.713281 
L 709.877294 89.48943 
L 710.244462 89.952587 
L 710.61163 89.722782 
L 711.345967 89.744223 
L 713.181807 89.728093 
L 718.322161 89.734426 
L 719.056497 89.759216 
L 721.259506 89.756412 
L 721.626674 89.576665 
L 721.993842 89.78267 
L 724.564019 89.736851 
L 730.07154 89.733305 
L 730.805876 89.725421 
L 738.883575 89.709686 
L 739.250743 89.482832 
L 739.617911 89.925719 
L 739.985079 89.675198 
L 740.719416 89.729099 
L 747.69561 89.72265 
L 748.062778 89.9927 
L 748.429946 89.432543 
L 748.797114 89.716151 
L 750.265786 89.697052 
L 750.632955 89.565449 
L 751.000123 89.851729 
L 751.367291 89.724942 
L 752.468795 89.713859 
L 752.835963 89.826692 
L 753.203131 89.599756 
L 753.570299 89.719829 
L 753.937468 89.586792 
L 754.304636 89.871802 
L 754.671804 89.576912 
L 755.038972 89.92402 
L 755.40614 89.721924 
L 756.140476 89.720341 
L 756.140476 89.720341 
" clip-path="url(#p263c5d5823)" style="fill: none; stroke: #1f77b4; stroke-width: 1.5; stroke-linecap: square"/>
   </g>
   <g id="line2d_18">
    <path d="M 84.59 89.632128 
L 789.718 89.632128 
" clip-path="url(#p263c5d5823)" style="fill: none; stroke-dasharray: 5.55,2.4; stroke-dashoffset: 0; stroke: #0000ff; stroke-width: 1.5"/>
   </g>
   <g id="line2d_19">
    <path d="M 84.59 639.64 
L 789.718 639.64 
" clip-path="url(#p263c5d5823)" style="fill: none; stroke: #000000; stroke-width: 1.5; stroke-linecap: square"/>
   </g>
   <g id="patch_3">
    <path d="M 84.59 639.64 
L 84.59 60.96 
" style="fill: none; stroke: #000000; stroke-width: 0.8; stroke-linejoin: miter; stroke-linecap: square"/>
   </g>
   <g id="patch_4">
    <path d="M 789.718 639.64 
L 789.718 60.96 
" style="fill: none; stroke: #000000; stroke-width: 0.8; stroke-linejoin: miter; stroke-linecap: square"/>
   </g>
   <g id="patch_5">
    <path d="M 84.59 639.64 
L 789.718 639.64 
" style="fill: none; stroke: #000000; stroke-width: 0.8; stroke-linejoin: miter; stroke-linecap: square"/>
   </g>
   <g id="patch_6">
    <path d="M 84.59 60.96 
L 789.718 60.96 
" style="fill: none; stroke: #000000; stroke-width: 0.8; stroke-linejoin: miter; stroke-linecap: square"/>
   </g>
   <g id="text_19">
    <!-- Interarrival Time (SelectionProcess: 16777217) -->
    <g transform="translate(239.469187 54.96) scale(0.168 -0.168)">
     <defs>
      <path id="DejaVuSans-53" d="M 3425 4513 
L 3425 3897 
Q 3066 4069 2747 4153 
Q 2428 4238 2131 4238 
Q 1616 4238 1336 4038 
Q 1056 3838 1056 3469 
Q 1056 3159 1242 3001 
Q 1428 2844 1947 2747 
L 2328 2669 
Q 3034 2534 3370 2195 
Q 3706 1856 3706 1288 
Q 3706 609 3251 259 
Q 2797 -91 1919 -91 
Q 1588 -91 1214 -16 
Q 841 59 441 206 
L 441 856 
Q 825 641 1194 531 
Q 1563 422 1919 422 
Q 2459 422 2753 634 
Q 3047 847 3047 1241 
Q 3047 1584 2836 1778 
Q 2625 1972 2144 2069 
L 1759 2144 
Q 1053 2284 737 2584 
Q 422 2884 422 3419 
Q 422 4038 858 4394 
Q 1294 4750 2059 4750 
Q 2388 4750 2728 4690 
Q 3069 4631 3425 4513 
z
" transform="scale(0.015625)"/>
      <path id="DejaVuSans-6f" d="M 1959 3097 
Q 1497 3097 1228 2736 
Q 959 2375 959 1747 
Q 959 1119 1226 758 
Q 1494 397 1959 397 
Q 2419 397 2687 759 
Q 2956 1122 2956 1747 
Q 2956 2369 2687 2733 
Q 2419 3097 1959 3097 
z
M 1959 3584 
Q 2709 3584 3137 3096 
Q 3566 2609 3566 1747 
Q 3566 888 3137 398 
Q 2709 -91 1959 -91 
Q 1206 -91 779 398 
Q 353 888 353 1747 
Q 353 2609 779 3096 
Q 1206 3584 1959 3584 
z
" transform="scale(0.015625)"/>
      <path id="DejaVuSans-3a" d="M 750 794 
L 1409 794 
L 1409 0 
L 750 0 
L 750 794 
z
M 750 3309 
L 1409 3309 
L 1409 2516 
L 750 2516 
L 750 3309 
z
" transform="scale(0.015625)"/>
      <path id="DejaVuSans-36" d="M 2113 2584 
Q 1688 2584 1439 2293 
Q 1191 2003 1191 1497 
Q 1191 994 1439 701 
Q 1688 409 2113 409 
Q 2538 409 2786 701 
Q 3034 994 3034 1497 
Q 3034 2003 2786 2293 
Q 2538 2584 2113 2584 
z
M 3366 4563 
L 3366 3988 
Q 3128 4100 2886 4159 
Q 2644 4219 2406 4219 
Q 1781 4219 1451 3797 
Q 1122 3375 1075 2522 
Q 1259 2794 1537 2939 
Q 1816 3084 2150 3084 
Q 2853 3084 3261 2657 
Q 3669 2231 3669 1497 
Q 3669 778 3244 343 
Q 2819 -91 2113 -91 
Q 1303 -91 875 529 
Q 447 1150 447 2328 
Q 447 3434 972 4092 
Q 1497 4750 2381 4750 
Q 2619 4750 2861 4703 
Q 3103 4656 3366 4563 
z
" transform="scale(0.015625)"/>
     </defs>
     <use xlink:href="#DejaVuSans-49"/>
     <use xlink:href="#DejaVuSans-6e" x="29.492188"/>
     <use xlink:href="#DejaVuSans-74" x="92.871094"/>
     <use xlink:href="#DejaVuSans-65" x="132.080078"/>
     <use xlink:href="#DejaVuSans-72" x="193.603516"/>
     <use xlink:href="#DejaVuSans-61" x="234.716797"/>
     <use xlink:href="#DejaVuSans-72" x="295.996094"/>
     <use xlink:href="#DejaVuSans-72" x="335.359375"/>
     <use xlink:href="#DejaVuSans-69" x="376.472656"/>
     <use xlink:href="#DejaVuSans-76" x="404.255859"/>
     <use xlink:href="#DejaVuSans-61" x="463.435547"/>
     <use xlink:href="#DejaVuSans-6c" x="524.714844"/>
     <use xlink:href="#DejaVuSans-20" x="552.498047"/>
     <use xlink:href="#DejaVuSans-54" x="584.285156"/>
     <use xlink:href="#DejaVuSans-69" x="642.244141"/>
     <use xlink:href="#DejaVuSans-6d" x="670.027344"/>
     <use xlink:href="#DejaVuSans-65" x="767.439453"/>
     <use xlink:href="#DejaVuSans-20" x="828.962891"/>
     <use xlink:href="#DejaVuSans-28" x="860.75"/>
     <use xlink:href="#DejaVuSans-53" x="899.763672"/>
     <use xlink:href="#DejaVuSans-65" x="963.240234"/>
     <use xlink:href="#DejaVuSans-6c" x="1024.763672"/>
     <use xlink:href="#DejaVuSans-65" x="1052.546875"/>
     <use xlink:href="#DejaVuSans-63" x="1114.070312"/>
     <use xlink:href="#DejaVuSans-74" x="1169.050781"/>
     <use xlink:href="#DejaVuSans-69" x="1208.259766"/>
     <use xlink:href="#DejaVuSans-6f" x="1236.042969"/>
     <use xlink:href="#DejaVuSans-6e" x="1297.224609"/>
     <use xlink:href="#DejaVuSans-50" x="1360.603516"/>
     <use xlink:href="#DejaVuSans-72" x="1419.15625"/>
     <use xlink:href="#DejaVuSans-6f" x="1458.019531"/>
     <use xlink:href="#DejaVuSans-63" x="1519.201172"/>
     <use xlink:href="#DejaVuSans-65" x="1574.181641"/>
     <use xlink:href="#DejaVuSans-73" x="1635.705078"/>
     <use xlink:href="#DejaVuSans-73" x="1687.804688"/>
     <use xlink:href="#DejaVuSans-3a" x="1739.904297"/>
     <use xlink:href="#DejaVuSans-20" x="1773.595703"/>
     <use xlink:href="#DejaVuSans-31" x="1805.382812"/>
     <use xlink:href="#DejaVuSans-36" x="1869.005859"/>
     <use xlink:href="#DejaVuSans-37" x="1932.628906"/>
     <use xlink:href="#DejaVuSans-37" x="1996.251953"/>
     <use xlink:href="#DejaVuSans-37" x="2059.875"/>
     <use xlink:href="#DejaVuSans-32" x="2123.498047"/>
     <use xlink:href="#DejaVuSans-31" x="2187.121094"/>
     <use xlink:href="#DejaVuSans-37" x="2250.744141"/>
     <use xlink:href="#DejaVuSans-29" x="2314.367188"/>
    </g>
   </g>
   <g id="legend_1">
    <g id="patch_7">
     <path d="M 799.518 372.949375 
L 1022.312688 372.949375 
Q 1025.112687 372.949375 1025.112687 370.149375 
L 1025.112687 330.450625 
Q 1025.112687 327.650625 1022.312688 327.650625 
L 799.518 327.650625 
Q 796.718 327.650625 796.718 330.450625 
L 796.718 370.149375 
Q 796.718 372.949375 799.518 372.949375 
z
" style="fill: #ffffff; opacity: 0.8; stroke: #cccccc; stroke-linejoin: miter"/>
    </g>
    <g id="line2d_20">
     <path d="M 802.318 338.988438 
L 816.318 338.988438 
L 830.318 338.988438 
" style="fill: none; stroke: #1f77b4; stroke-width: 1.5; stroke-linecap: square"/>
    </g>
    <g id="text_20">
     <!-- Interarrival Times -->
     <g transform="translate(841.518 343.888438) scale(0.14 -0.14)">
      <use xlink:href="#DejaVuSans-49"/>
      <use xlink:href="#DejaVuSans-6e" x="29.492188"/>
      <use xlink:href="#DejaVuSans-74" x="92.871094"/>
      <use xlink:href="#DejaVuSans-65" x="132.080078"/>
      <use xlink:href="#DejaVuSans-72" x="193.603516"/>
      <use xlink:href="#DejaVuSans-61" x="234.716797"/>
      <use xlink:href="#DejaVuSans-72" x="295.996094"/>
      <use xlink:href="#DejaVuSans-72" x="335.359375"/>
      <use xlink:href="#DejaVuSans-69" x="376.472656"/>
      <use xlink:href="#DejaVuSans-76" x="404.255859"/>
      <use xlink:href="#DejaVuSans-61" x="463.435547"/>
      <use xlink:href="#DejaVuSans-6c" x="524.714844"/>
      <use xlink:href="#DejaVuSans-20" x="552.498047"/>
      <use xlink:href="#DejaVuSans-54" x="584.285156"/>
      <use xlink:href="#DejaVuSans-69" x="642.244141"/>
      <use xlink:href="#DejaVuSans-6d" x="670.027344"/>
      <use xlink:href="#DejaVuSans-65" x="767.439453"/>
      <use xlink:href="#DejaVuSans-73" x="828.962891"/>
     </g>
    </g>
    <g id="line2d_21">
     <path d="M 802.318 359.537813 
L 816.318 359.537813 
L 830.318 359.537813 
" style="fill: none; stroke-dasharray: 5.55,2.4; stroke-dashoffset: 0; stroke: #0000ff; stroke-width: 1.5"/>
    </g>
    <g id="text_21">
     <!-- Interarrival Time Average -->
     <g transform="translate(841.518 364.437813) scale(0.14 -0.14)">
      <defs>
       <path id="DejaVuSans-41" d="M 2188 4044 
L 1331 1722 
L 3047 1722 
L 2188 4044 
z
M 1831 4666 
L 2547 4666 
L 4325 0 
L 3669 0 
L 3244 1197 
L 1141 1197 
L 716 0 
L 50 0 
L 1831 4666 
z
" transform="scale(0.015625)"/>
       <path id="DejaVuSans-67" d="M 2906 1791 
Q 2906 2416 2648 2759 
Q 2391 3103 1925 3103 
Q 1463 3103 1205 2759 
Q 947 2416 947 1791 
Q 947 1169 1205 825 
Q 1463 481 1925 481 
Q 2391 481 2648 825 
Q 2906 1169 2906 1791 
z
M 3481 434 
Q 3481 -459 3084 -895 
Q 2688 -1331 1869 -1331 
Q 1566 -1331 1297 -1286 
Q 1028 -1241 775 -1147 
L 775 -588 
Q 1028 -725 1275 -790 
Q 1522 -856 1778 -856 
Q 2344 -856 2625 -561 
Q 2906 -266 2906 331 
L 2906 616 
Q 2728 306 2450 153 
Q 2172 0 1784 0 
Q 1141 0 747 490 
Q 353 981 353 1791 
Q 353 2603 747 3093 
Q 1141 3584 1784 3584 
Q 2172 3584 2450 3431 
Q 2728 3278 2906 2969 
L 2906 3500 
L 3481 3500 
L 3481 434 
z
" transform="scale(0.015625)"/>
      </defs>
      <use xlink:href="#DejaVuSans-49"/>
      <use xlink:href="#DejaVuSans-6e" x="29.492188"/>
      <use xlink:href="#DejaVuSans-74" x="92.871094"/>
      <use xlink:href="#DejaVuSans-65" x="132.080078"/>
      <use xlink:href="#DejaVuSans-72" x="193.603516"/>
      <use xlink:href="#DejaVuSans-61" x="234.716797"/>
      <use xlink:href="#DejaVuSans-72" x="295.996094"/>
      <use xlink:href="#DejaVuSans-72" x="335.359375"/>
      <use xlink:href="#DejaVuSans-69" x="376.472656"/>
      <use xlink:href="#DejaVuSans-76" x="404.255859"/>
      <use xlink:href="#DejaVuSans-61" x="463.435547"/>
      <use xlink:href="#DejaVuSans-6c" x="524.714844"/>
      <use xlink:href="#DejaVuSans-20" x="552.498047"/>
      <use xlink:href="#DejaVuSans-54" x="584.285156"/>
      <use xlink:href="#DejaVuSans-69" x="642.244141"/>
      <use xlink:href="#DejaVuSans-6d" x="670.027344"/>
      <use xlink:href="#DejaVuSans-65" x="767.439453"/>
      <use xlink:href="#DejaVuSans-20" x="828.962891"/>
      <use xlink:href="#DejaVuSans-41" x="860.75"/>
      <use xlink:href="#DejaVuSans-76" x="923.283203"/>
      <use xlink:href="#DejaVuSans-65" x="982.462891"/>
      <use xlink:href="#DejaVuSans-72" x="1043.986328"/>
      <use xlink:href="#DejaVuSans-61" x="1085.099609"/>
      <use xlink:href="#DejaVuSans-67" x="1146.378906"/>
      <use xlink:href="#DejaVuSans-65" x="1209.855469"/>
     </g>
    </g>
   </g>
  </g>
 </g>
 <defs>
  <clipPath id="p263c5d5823">
   <rect x="84.59" y="60.96" width="705.128" height="578.68"/>
  </clipPath>
 </defs>
</svg>
