<?xml version="1.0" encoding="utf-8" standalone="no"?>
<!DOCTYPE svg PUBLIC "-//W3C//DTD SVG 1.1//EN"
  "http://www.w3.org/Graphics/SVG/1.1/DTD/svg11.dtd">
<svg xmlns:xlink="http://www.w3.org/1999/xlink" width="1008pt" height="720pt" viewBox="0 0 1008 720" xmlns="http://www.w3.org/2000/svg" version="1.1">
 <metadata>
  <rdf:RDF xmlns:dc="http://purl.org/dc/elements/1.1/" xmlns:cc="http://creativecommons.org/ns#" xmlns:rdf="http://www.w3.org/1999/02/22-rdf-syntax-ns#">
   <cc:Work>
    <dc:type rdf:resource="http://purl.org/dc/dcmitype/StillImage"/>
    <dc:date>2023-04-13T18:19:02.783130</dc:date>
    <dc:format>image/svg+xml</dc:format>
    <dc:creator>
     <cc:Agent>
      <dc:title>Matplotlib v3.6.2, https://matplotlib.org/</dc:title>
     </cc:Agent>
    </dc:creator>
   </cc:Work>
  </rdf:RDF>
 </metadata>
 <defs>
  <style type="text/css">*{stroke-linejoin: round; stroke-linecap: butt}</style>
 </defs>
 <g id="figure_1">
  <g id="patch_1">
   <path d="M 0 720 
L 1008 720 
L 1008 0 
L 0 0 
z
" style="fill: #ffffff"/>
  </g>
  <g id="axes_1">
   <g id="patch_2">
    <path d="M 93.23 639.64 
L 791.446 639.64 
L 791.446 60.96 
L 93.23 60.96 
z
" style="fill: #ffffff"/>
   </g>
   <g id="matplotlib.axis_1">
    <g id="xtick_1">
     <g id="line2d_1">
      <defs>
       <path id="m7f7ae36a95" d="M 0 0 
L 0 3.5 
" style="stroke: #000000; stroke-width: 0.8"/>
      </defs>
      <g>
       <use xlink:href="#m7f7ae36a95" x="93.23" y="639.64" style="stroke: #000000; stroke-width: 0.8"/>
      </g>
     </g>
     <g id="text_1">
      <!-- 0 -->
      <g transform="translate(88.77625 657.277812) scale(0.14 -0.14)">
       <defs>
        <path id="DejaVuSans-30" d="M 2034 4250 
Q 1547 4250 1301 3770 
Q 1056 3291 1056 2328 
Q 1056 1369 1301 889 
Q 1547 409 2034 409 
Q 2525 409 2770 889 
Q 3016 1369 3016 2328 
Q 3016 3291 2770 3770 
Q 2525 4250 2034 4250 
z
M 2034 4750 
Q 2819 4750 3233 4129 
Q 3647 3509 3647 2328 
Q 3647 1150 3233 529 
Q 2819 -91 2034 -91 
Q 1250 -91 836 529 
Q 422 1150 422 2328 
Q 422 3509 836 4129 
Q 1250 4750 2034 4750 
z
" transform="scale(0.015625)"/>
       </defs>
       <use xlink:href="#DejaVuSans-30"/>
      </g>
     </g>
    </g>
    <g id="xtick_2">
     <g id="line2d_2">
      <g>
       <use xlink:href="#m7f7ae36a95" x="200.182363" y="639.64" style="stroke: #000000; stroke-width: 0.8"/>
      </g>
     </g>
     <g id="text_2">
      <!-- 10 -->
      <g transform="translate(191.274863 657.277812) scale(0.14 -0.14)">
       <defs>
        <path id="DejaVuSans-31" d="M 794 531 
L 1825 531 
L 1825 4091 
L 703 3866 
L 703 4441 
L 1819 4666 
L 2450 4666 
L 2450 531 
L 3481 531 
L 3481 0 
L 794 0 
L 794 531 
z
" transform="scale(0.015625)"/>
       </defs>
       <use xlink:href="#DejaVuSans-31"/>
       <use xlink:href="#DejaVuSans-30" x="63.623047"/>
      </g>
     </g>
    </g>
    <g id="xtick_3">
     <g id="line2d_3">
      <g>
       <use xlink:href="#m7f7ae36a95" x="307.134727" y="639.64" style="stroke: #000000; stroke-width: 0.8"/>
      </g>
     </g>
     <g id="text_3">
      <!-- 20 -->
      <g transform="translate(298.227227 657.277812) scale(0.14 -0.14)">
       <defs>
        <path id="DejaVuSans-32" d="M 1228 531 
L 3431 531 
L 3431 0 
L 469 0 
L 469 531 
Q 828 903 1448 1529 
Q 2069 2156 2228 2338 
Q 2531 2678 2651 2914 
Q 2772 3150 2772 3378 
Q 2772 3750 2511 3984 
Q 2250 4219 1831 4219 
Q 1534 4219 1204 4116 
Q 875 4013 500 3803 
L 500 4441 
Q 881 4594 1212 4672 
Q 1544 4750 1819 4750 
Q 2544 4750 2975 4387 
Q 3406 4025 3406 3419 
Q 3406 3131 3298 2873 
Q 3191 2616 2906 2266 
Q 2828 2175 2409 1742 
Q 1991 1309 1228 531 
z
" transform="scale(0.015625)"/>
       </defs>
       <use xlink:href="#DejaVuSans-32"/>
       <use xlink:href="#DejaVuSans-30" x="63.623047"/>
      </g>
     </g>
    </g>
    <g id="xtick_4">
     <g id="line2d_4">
      <g>
       <use xlink:href="#m7f7ae36a95" x="414.08709" y="639.64" style="stroke: #000000; stroke-width: 0.8"/>
      </g>
     </g>
     <g id="text_4">
      <!-- 30 -->
      <g transform="translate(405.17959 657.277812) scale(0.14 -0.14)">
       <defs>
        <path id="DejaVuSans-33" d="M 2597 2516 
Q 3050 2419 3304 2112 
Q 3559 1806 3559 1356 
Q 3559 666 3084 287 
Q 2609 -91 1734 -91 
Q 1441 -91 1130 -33 
Q 819 25 488 141 
L 488 750 
Q 750 597 1062 519 
Q 1375 441 1716 441 
Q 2309 441 2620 675 
Q 2931 909 2931 1356 
Q 2931 1769 2642 2001 
Q 2353 2234 1838 2234 
L 1294 2234 
L 1294 2753 
L 1863 2753 
Q 2328 2753 2575 2939 
Q 2822 3125 2822 3475 
Q 2822 3834 2567 4026 
Q 2313 4219 1838 4219 
Q 1578 4219 1281 4162 
Q 984 4106 628 3988 
L 628 4550 
Q 988 4650 1302 4700 
Q 1616 4750 1894 4750 
Q 2613 4750 3031 4423 
Q 3450 4097 3450 3541 
Q 3450 3153 3228 2886 
Q 3006 2619 2597 2516 
z
" transform="scale(0.015625)"/>
       </defs>
       <use xlink:href="#DejaVuSans-33"/>
       <use xlink:href="#DejaVuSans-30" x="63.623047"/>
      </g>
     </g>
    </g>
    <g id="xtick_5">
     <g id="line2d_5">
      <g>
       <use xlink:href="#m7f7ae36a95" x="521.039454" y="639.64" style="stroke: #000000; stroke-width: 0.8"/>
      </g>
     </g>
     <g id="text_5">
      <!-- 40 -->
      <g transform="translate(512.131954 657.277812) scale(0.14 -0.14)">
       <defs>
        <path id="DejaVuSans-34" d="M 2419 4116 
L 825 1625 
L 2419 1625 
L 2419 4116 
z
M 2253 4666 
L 3047 4666 
L 3047 1625 
L 3713 1625 
L 3713 1100 
L 3047 1100 
L 3047 0 
L 2419 0 
L 2419 1100 
L 313 1100 
L 313 1709 
L 2253 4666 
z
" transform="scale(0.015625)"/>
       </defs>
       <use xlink:href="#DejaVuSans-34"/>
       <use xlink:href="#DejaVuSans-30" x="63.623047"/>
      </g>
     </g>
    </g>
    <g id="xtick_6">
     <g id="line2d_6">
      <g>
       <use xlink:href="#m7f7ae36a95" x="627.991817" y="639.64" style="stroke: #000000; stroke-width: 0.8"/>
      </g>
     </g>
     <g id="text_6">
      <!-- 50 -->
      <g transform="translate(619.084317 657.277812) scale(0.14 -0.14)">
       <defs>
        <path id="DejaVuSans-35" d="M 691 4666 
L 3169 4666 
L 3169 4134 
L 1269 4134 
L 1269 2991 
Q 1406 3038 1543 3061 
Q 1681 3084 1819 3084 
Q 2600 3084 3056 2656 
Q 3513 2228 3513 1497 
Q 3513 744 3044 326 
Q 2575 -91 1722 -91 
Q 1428 -91 1123 -41 
Q 819 9 494 109 
L 494 744 
Q 775 591 1075 516 
Q 1375 441 1709 441 
Q 2250 441 2565 725 
Q 2881 1009 2881 1497 
Q 2881 1984 2565 2268 
Q 2250 2553 1709 2553 
Q 1456 2553 1204 2497 
Q 953 2441 691 2322 
L 691 4666 
z
" transform="scale(0.015625)"/>
       </defs>
       <use xlink:href="#DejaVuSans-35"/>
       <use xlink:href="#DejaVuSans-30" x="63.623047"/>
      </g>
     </g>
    </g>
    <g id="xtick_7">
     <g id="line2d_7">
      <g>
       <use xlink:href="#m7f7ae36a95" x="734.944181" y="639.64" style="stroke: #000000; stroke-width: 0.8"/>
      </g>
     </g>
     <g id="text_7">
      <!-- 60 -->
      <g transform="translate(726.036681 657.277812) scale(0.14 -0.14)">
       <defs>
        <path id="DejaVuSans-36" d="M 2113 2584 
Q 1688 2584 1439 2293 
Q 1191 2003 1191 1497 
Q 1191 994 1439 701 
Q 1688 409 2113 409 
Q 2538 409 2786 701 
Q 3034 994 3034 1497 
Q 3034 2003 2786 2293 
Q 2538 2584 2113 2584 
z
M 3366 4563 
L 3366 3988 
Q 3128 4100 2886 4159 
Q 2644 4219 2406 4219 
Q 1781 4219 1451 3797 
Q 1122 3375 1075 2522 
Q 1259 2794 1537 2939 
Q 1816 3084 2150 3084 
Q 2853 3084 3261 2657 
Q 3669 2231 3669 1497 
Q 3669 778 3244 343 
Q 2819 -91 2113 -91 
Q 1303 -91 875 529 
Q 447 1150 447 2328 
Q 447 3434 972 4092 
Q 1497 4750 2381 4750 
Q 2619 4750 2861 4703 
Q 3103 4656 3366 4563 
z
" transform="scale(0.015625)"/>
       </defs>
       <use xlink:href="#DejaVuSans-36"/>
       <use xlink:href="#DejaVuSans-30" x="63.623047"/>
      </g>
     </g>
    </g>
    <g id="text_8">
     <!-- Time (s) -->
     <g transform="translate(413.877531 674.827188) scale(0.14 -0.14)">
      <defs>
       <path id="DejaVuSans-54" d="M -19 4666 
L 3928 4666 
L 3928 4134 
L 2272 4134 
L 2272 0 
L 1638 0 
L 1638 4134 
L -19 4134 
L -19 4666 
z
" transform="scale(0.015625)"/>
       <path id="DejaVuSans-69" d="M 603 3500 
L 1178 3500 
L 1178 0 
L 603 0 
L 603 3500 
z
M 603 4863 
L 1178 4863 
L 1178 4134 
L 603 4134 
L 603 4863 
z
" transform="scale(0.015625)"/>
       <path id="DejaVuSans-6d" d="M 3328 2828 
Q 3544 3216 3844 3400 
Q 4144 3584 4550 3584 
Q 5097 3584 5394 3201 
Q 5691 2819 5691 2113 
L 5691 0 
L 5113 0 
L 5113 2094 
Q 5113 2597 4934 2840 
Q 4756 3084 4391 3084 
Q 3944 3084 3684 2787 
Q 3425 2491 3425 1978 
L 3425 0 
L 2847 0 
L 2847 2094 
Q 2847 2600 2669 2842 
Q 2491 3084 2119 3084 
Q 1678 3084 1418 2786 
Q 1159 2488 1159 1978 
L 1159 0 
L 581 0 
L 581 3500 
L 1159 3500 
L 1159 2956 
Q 1356 3278 1631 3431 
Q 1906 3584 2284 3584 
Q 2666 3584 2933 3390 
Q 3200 3197 3328 2828 
z
" transform="scale(0.015625)"/>
       <path id="DejaVuSans-65" d="M 3597 1894 
L 3597 1613 
L 953 1613 
Q 991 1019 1311 708 
Q 1631 397 2203 397 
Q 2534 397 2845 478 
Q 3156 559 3463 722 
L 3463 178 
Q 3153 47 2828 -22 
Q 2503 -91 2169 -91 
Q 1331 -91 842 396 
Q 353 884 353 1716 
Q 353 2575 817 3079 
Q 1281 3584 2069 3584 
Q 2775 3584 3186 3129 
Q 3597 2675 3597 1894 
z
M 3022 2063 
Q 3016 2534 2758 2815 
Q 2500 3097 2075 3097 
Q 1594 3097 1305 2825 
Q 1016 2553 972 2059 
L 3022 2063 
z
" transform="scale(0.015625)"/>
       <path id="DejaVuSans-20" transform="scale(0.015625)"/>
       <path id="DejaVuSans-28" d="M 1984 4856 
Q 1566 4138 1362 3434 
Q 1159 2731 1159 2009 
Q 1159 1288 1364 580 
Q 1569 -128 1984 -844 
L 1484 -844 
Q 1016 -109 783 600 
Q 550 1309 550 2009 
Q 550 2706 781 3412 
Q 1013 4119 1484 4856 
L 1984 4856 
z
" transform="scale(0.015625)"/>
       <path id="DejaVuSans-73" d="M 2834 3397 
L 2834 2853 
Q 2591 2978 2328 3040 
Q 2066 3103 1784 3103 
Q 1356 3103 1142 2972 
Q 928 2841 928 2578 
Q 928 2378 1081 2264 
Q 1234 2150 1697 2047 
L 1894 2003 
Q 2506 1872 2764 1633 
Q 3022 1394 3022 966 
Q 3022 478 2636 193 
Q 2250 -91 1575 -91 
Q 1294 -91 989 -36 
Q 684 19 347 128 
L 347 722 
Q 666 556 975 473 
Q 1284 391 1588 391 
Q 1994 391 2212 530 
Q 2431 669 2431 922 
Q 2431 1156 2273 1281 
Q 2116 1406 1581 1522 
L 1381 1569 
Q 847 1681 609 1914 
Q 372 2147 372 2553 
Q 372 3047 722 3315 
Q 1072 3584 1716 3584 
Q 2034 3584 2315 3537 
Q 2597 3491 2834 3397 
z
" transform="scale(0.015625)"/>
       <path id="DejaVuSans-29" d="M 513 4856 
L 1013 4856 
Q 1481 4119 1714 3412 
Q 1947 2706 1947 2009 
Q 1947 1309 1714 600 
Q 1481 -109 1013 -844 
L 513 -844 
Q 928 -128 1133 580 
Q 1338 1288 1338 2009 
Q 1338 2731 1133 3434 
Q 928 4138 513 4856 
z
" transform="scale(0.015625)"/>
      </defs>
      <use xlink:href="#DejaVuSans-54"/>
      <use xlink:href="#DejaVuSans-69" x="57.958984"/>
      <use xlink:href="#DejaVuSans-6d" x="85.742188"/>
      <use xlink:href="#DejaVuSans-65" x="183.154297"/>
      <use xlink:href="#DejaVuSans-20" x="244.677734"/>
      <use xlink:href="#DejaVuSans-28" x="276.464844"/>
      <use xlink:href="#DejaVuSans-73" x="315.478516"/>
      <use xlink:href="#DejaVuSans-29" x="367.578125"/>
     </g>
    </g>
   </g>
   <g id="matplotlib.axis_2">
    <g id="ytick_1">
     <g id="line2d_8">
      <defs>
       <path id="m5bab8718b5" d="M 0 0 
L -3.5 0 
" style="stroke: #000000; stroke-width: 0.8"/>
      </defs>
      <g>
       <use xlink:href="#m5bab8718b5" x="93.23" y="639.64" style="stroke: #000000; stroke-width: 0.8"/>
      </g>
     </g>
     <g id="text_9">
      <!-- 0 -->
      <g transform="translate(77.3225 644.958906) scale(0.14 -0.14)">
       <use xlink:href="#DejaVuSans-30"/>
      </g>
     </g>
    </g>
    <g id="ytick_2">
     <g id="line2d_9">
      <g>
       <use xlink:href="#m5bab8718b5" x="93.23" y="540.95566" style="stroke: #000000; stroke-width: 0.8"/>
      </g>
     </g>
     <g id="text_10">
      <!-- 20 -->
      <g transform="translate(68.415 546.274566) scale(0.14 -0.14)">
       <use xlink:href="#DejaVuSans-32"/>
       <use xlink:href="#DejaVuSans-30" x="63.623047"/>
      </g>
     </g>
    </g>
    <g id="ytick_3">
     <g id="line2d_10">
      <g>
       <use xlink:href="#m5bab8718b5" x="93.23" y="442.27132" style="stroke: #000000; stroke-width: 0.8"/>
      </g>
     </g>
     <g id="text_11">
      <!-- 40 -->
      <g transform="translate(68.415 447.590226) scale(0.14 -0.14)">
       <use xlink:href="#DejaVuSans-34"/>
       <use xlink:href="#DejaVuSans-30" x="63.623047"/>
      </g>
     </g>
    </g>
    <g id="ytick_4">
     <g id="line2d_11">
      <g>
       <use xlink:href="#m5bab8718b5" x="93.23" y="343.58698" style="stroke: #000000; stroke-width: 0.8"/>
      </g>
     </g>
     <g id="text_12">
      <!-- 60 -->
      <g transform="translate(68.415 348.905886) scale(0.14 -0.14)">
       <use xlink:href="#DejaVuSans-36"/>
       <use xlink:href="#DejaVuSans-30" x="63.623047"/>
      </g>
     </g>
    </g>
    <g id="ytick_5">
     <g id="line2d_12">
      <g>
       <use xlink:href="#m5bab8718b5" x="93.23" y="244.90264" style="stroke: #000000; stroke-width: 0.8"/>
      </g>
     </g>
     <g id="text_13">
      <!-- 80 -->
      <g transform="translate(68.415 250.221546) scale(0.14 -0.14)">
       <defs>
        <path id="DejaVuSans-38" d="M 2034 2216 
Q 1584 2216 1326 1975 
Q 1069 1734 1069 1313 
Q 1069 891 1326 650 
Q 1584 409 2034 409 
Q 2484 409 2743 651 
Q 3003 894 3003 1313 
Q 3003 1734 2745 1975 
Q 2488 2216 2034 2216 
z
M 1403 2484 
Q 997 2584 770 2862 
Q 544 3141 544 3541 
Q 544 4100 942 4425 
Q 1341 4750 2034 4750 
Q 2731 4750 3128 4425 
Q 3525 4100 3525 3541 
Q 3525 3141 3298 2862 
Q 3072 2584 2669 2484 
Q 3125 2378 3379 2068 
Q 3634 1759 3634 1313 
Q 3634 634 3220 271 
Q 2806 -91 2034 -91 
Q 1263 -91 848 271 
Q 434 634 434 1313 
Q 434 1759 690 2068 
Q 947 2378 1403 2484 
z
M 1172 3481 
Q 1172 3119 1398 2916 
Q 1625 2713 2034 2713 
Q 2441 2713 2670 2916 
Q 2900 3119 2900 3481 
Q 2900 3844 2670 4047 
Q 2441 4250 2034 4250 
Q 1625 4250 1398 4047 
Q 1172 3844 1172 3481 
z
" transform="scale(0.015625)"/>
       </defs>
       <use xlink:href="#DejaVuSans-38"/>
       <use xlink:href="#DejaVuSans-30" x="63.623047"/>
      </g>
     </g>
    </g>
    <g id="ytick_6">
     <g id="line2d_13">
      <g>
       <use xlink:href="#m5bab8718b5" x="93.23" y="146.2183" style="stroke: #000000; stroke-width: 0.8"/>
      </g>
     </g>
     <g id="text_14">
      <!-- 100 -->
      <g transform="translate(59.5075 151.537206) scale(0.14 -0.14)">
       <use xlink:href="#DejaVuSans-31"/>
       <use xlink:href="#DejaVuSans-30" x="63.623047"/>
       <use xlink:href="#DejaVuSans-30" x="127.246094"/>
      </g>
     </g>
    </g>
    <g id="text_15">
     <!-- Packets per Second -->
     <g transform="translate(52.595938 418.683438) rotate(-90) scale(0.14 -0.14)">
      <defs>
       <path id="DejaVuSans-50" d="M 1259 4147 
L 1259 2394 
L 2053 2394 
Q 2494 2394 2734 2622 
Q 2975 2850 2975 3272 
Q 2975 3691 2734 3919 
Q 2494 4147 2053 4147 
L 1259 4147 
z
M 628 4666 
L 2053 4666 
Q 2838 4666 3239 4311 
Q 3641 3956 3641 3272 
Q 3641 2581 3239 2228 
Q 2838 1875 2053 1875 
L 1259 1875 
L 1259 0 
L 628 0 
L 628 4666 
z
" transform="scale(0.015625)"/>
       <path id="DejaVuSans-61" d="M 2194 1759 
Q 1497 1759 1228 1600 
Q 959 1441 959 1056 
Q 959 750 1161 570 
Q 1363 391 1709 391 
Q 2188 391 2477 730 
Q 2766 1069 2766 1631 
L 2766 1759 
L 2194 1759 
z
M 3341 1997 
L 3341 0 
L 2766 0 
L 2766 531 
Q 2569 213 2275 61 
Q 1981 -91 1556 -91 
Q 1019 -91 701 211 
Q 384 513 384 1019 
Q 384 1609 779 1909 
Q 1175 2209 1959 2209 
L 2766 2209 
L 2766 2266 
Q 2766 2663 2505 2880 
Q 2244 3097 1772 3097 
Q 1472 3097 1187 3025 
Q 903 2953 641 2809 
L 641 3341 
Q 956 3463 1253 3523 
Q 1550 3584 1831 3584 
Q 2591 3584 2966 3190 
Q 3341 2797 3341 1997 
z
" transform="scale(0.015625)"/>
       <path id="DejaVuSans-63" d="M 3122 3366 
L 3122 2828 
Q 2878 2963 2633 3030 
Q 2388 3097 2138 3097 
Q 1578 3097 1268 2742 
Q 959 2388 959 1747 
Q 959 1106 1268 751 
Q 1578 397 2138 397 
Q 2388 397 2633 464 
Q 2878 531 3122 666 
L 3122 134 
Q 2881 22 2623 -34 
Q 2366 -91 2075 -91 
Q 1284 -91 818 406 
Q 353 903 353 1747 
Q 353 2603 823 3093 
Q 1294 3584 2113 3584 
Q 2378 3584 2631 3529 
Q 2884 3475 3122 3366 
z
" transform="scale(0.015625)"/>
       <path id="DejaVuSans-6b" d="M 581 4863 
L 1159 4863 
L 1159 1991 
L 2875 3500 
L 3609 3500 
L 1753 1863 
L 3688 0 
L 2938 0 
L 1159 1709 
L 1159 0 
L 581 0 
L 581 4863 
z
" transform="scale(0.015625)"/>
       <path id="DejaVuSans-74" d="M 1172 4494 
L 1172 3500 
L 2356 3500 
L 2356 3053 
L 1172 3053 
L 1172 1153 
Q 1172 725 1289 603 
Q 1406 481 1766 481 
L 2356 481 
L 2356 0 
L 1766 0 
Q 1100 0 847 248 
Q 594 497 594 1153 
L 594 3053 
L 172 3053 
L 172 3500 
L 594 3500 
L 594 4494 
L 1172 4494 
z
" transform="scale(0.015625)"/>
       <path id="DejaVuSans-70" d="M 1159 525 
L 1159 -1331 
L 581 -1331 
L 581 3500 
L 1159 3500 
L 1159 2969 
Q 1341 3281 1617 3432 
Q 1894 3584 2278 3584 
Q 2916 3584 3314 3078 
Q 3713 2572 3713 1747 
Q 3713 922 3314 415 
Q 2916 -91 2278 -91 
Q 1894 -91 1617 61 
Q 1341 213 1159 525 
z
M 3116 1747 
Q 3116 2381 2855 2742 
Q 2594 3103 2138 3103 
Q 1681 3103 1420 2742 
Q 1159 2381 1159 1747 
Q 1159 1113 1420 752 
Q 1681 391 2138 391 
Q 2594 391 2855 752 
Q 3116 1113 3116 1747 
z
" transform="scale(0.015625)"/>
       <path id="DejaVuSans-72" d="M 2631 2963 
Q 2534 3019 2420 3045 
Q 2306 3072 2169 3072 
Q 1681 3072 1420 2755 
Q 1159 2438 1159 1844 
L 1159 0 
L 581 0 
L 581 3500 
L 1159 3500 
L 1159 2956 
Q 1341 3275 1631 3429 
Q 1922 3584 2338 3584 
Q 2397 3584 2469 3576 
Q 2541 3569 2628 3553 
L 2631 2963 
z
" transform="scale(0.015625)"/>
       <path id="DejaVuSans-53" d="M 3425 4513 
L 3425 3897 
Q 3066 4069 2747 4153 
Q 2428 4238 2131 4238 
Q 1616 4238 1336 4038 
Q 1056 3838 1056 3469 
Q 1056 3159 1242 3001 
Q 1428 2844 1947 2747 
L 2328 2669 
Q 3034 2534 3370 2195 
Q 3706 1856 3706 1288 
Q 3706 609 3251 259 
Q 2797 -91 1919 -91 
Q 1588 -91 1214 -16 
Q 841 59 441 206 
L 441 856 
Q 825 641 1194 531 
Q 1563 422 1919 422 
Q 2459 422 2753 634 
Q 3047 847 3047 1241 
Q 3047 1584 2836 1778 
Q 2625 1972 2144 2069 
L 1759 2144 
Q 1053 2284 737 2584 
Q 422 2884 422 3419 
Q 422 4038 858 4394 
Q 1294 4750 2059 4750 
Q 2388 4750 2728 4690 
Q 3069 4631 3425 4513 
z
" transform="scale(0.015625)"/>
       <path id="DejaVuSans-6f" d="M 1959 3097 
Q 1497 3097 1228 2736 
Q 959 2375 959 1747 
Q 959 1119 1226 758 
Q 1494 397 1959 397 
Q 2419 397 2687 759 
Q 2956 1122 2956 1747 
Q 2956 2369 2687 2733 
Q 2419 3097 1959 3097 
z
M 1959 3584 
Q 2709 3584 3137 3096 
Q 3566 2609 3566 1747 
Q 3566 888 3137 398 
Q 2709 -91 1959 -91 
Q 1206 -91 779 398 
Q 353 888 353 1747 
Q 353 2609 779 3096 
Q 1206 3584 1959 3584 
z
" transform="scale(0.015625)"/>
       <path id="DejaVuSans-6e" d="M 3513 2113 
L 3513 0 
L 2938 0 
L 2938 2094 
Q 2938 2591 2744 2837 
Q 2550 3084 2163 3084 
Q 1697 3084 1428 2787 
Q 1159 2491 1159 1978 
L 1159 0 
L 581 0 
L 581 3500 
L 1159 3500 
L 1159 2956 
Q 1366 3272 1645 3428 
Q 1925 3584 2291 3584 
Q 2894 3584 3203 3211 
Q 3513 2838 3513 2113 
z
" transform="scale(0.015625)"/>
       <path id="DejaVuSans-64" d="M 2906 2969 
L 2906 4863 
L 3481 4863 
L 3481 0 
L 2906 0 
L 2906 525 
Q 2725 213 2448 61 
Q 2172 -91 1784 -91 
Q 1150 -91 751 415 
Q 353 922 353 1747 
Q 353 2572 751 3078 
Q 1150 3584 1784 3584 
Q 2172 3584 2448 3432 
Q 2725 3281 2906 2969 
z
M 947 1747 
Q 947 1113 1208 752 
Q 1469 391 1925 391 
Q 2381 391 2643 752 
Q 2906 1113 2906 1747 
Q 2906 2381 2643 2742 
Q 2381 3103 1925 3103 
Q 1469 3103 1208 2742 
Q 947 2381 947 1747 
z
" transform="scale(0.015625)"/>
      </defs>
      <use xlink:href="#DejaVuSans-50"/>
      <use xlink:href="#DejaVuSans-61" x="55.802734"/>
      <use xlink:href="#DejaVuSans-63" x="117.082031"/>
      <use xlink:href="#DejaVuSans-6b" x="172.0625"/>
      <use xlink:href="#DejaVuSans-65" x="226.347656"/>
      <use xlink:href="#DejaVuSans-74" x="287.871094"/>
      <use xlink:href="#DejaVuSans-73" x="327.080078"/>
      <use xlink:href="#DejaVuSans-20" x="379.179688"/>
      <use xlink:href="#DejaVuSans-70" x="410.966797"/>
      <use xlink:href="#DejaVuSans-65" x="474.443359"/>
      <use xlink:href="#DejaVuSans-72" x="535.966797"/>
      <use xlink:href="#DejaVuSans-20" x="577.080078"/>
      <use xlink:href="#DejaVuSans-53" x="608.867188"/>
      <use xlink:href="#DejaVuSans-65" x="672.34375"/>
      <use xlink:href="#DejaVuSans-63" x="733.867188"/>
      <use xlink:href="#DejaVuSans-6f" x="788.847656"/>
      <use xlink:href="#DejaVuSans-6e" x="850.029297"/>
      <use xlink:href="#DejaVuSans-64" x="913.408203"/>
     </g>
    </g>
   </g>
   <g id="line2d_14">
    <path d="M 109.681259 192.430837 
L 111.963208 223.369901 
L 114.303632 75.932126 
L 118.649098 179.256878 
L 120.930573 177.021661 
L 122.999089 180.418347 
L 125.380826 196.496167 
L 127.879201 174.938806 
L 130.05138 226.628642 
L 132.333088 177.068886 
L 134.723413 176.010631 
L 136.788784 230.821455 
L 138.96166 202.474186 
L 141.39759 184.690552 
L 146.034229 168.981573 
L 148.207975 202.649223 
L 150.706136 196.023787 
L 152.796054 210.372139 
L 155.077504 200.14765 
L 157.17763 162.20223 
L 159.567031 175.831247 
L 162.066881 217.433722 
L 164.240966 178.443788 
L 166.270826 223.669503 
L 168.770427 175.166928 
L 171.052467 200.261231 
L 173.444196 198.347333 
L 175.618016 178.387743 
L 177.899092 223.210538 
L 180.29037 176.195383 
L 182.573103 223.512904 
L 184.85527 154.037808 
L 187.354868 196.278874 
L 189.485843 193.878124 
L 191.985995 196.377043 
L 194.159948 226.965742 
L 196.333165 178.25947 
L 198.508385 202.94541 
L 200.898663 220.157449 
L 203.181573 200.428705 
L 205.269192 184.620793 
L 207.594418 185.72595 
L 209.786235 206.252159 
L 212.286622 154.20699 
L 214.56983 223.599405 
L 216.637383 205.728768 
L 218.811741 202.772241 
L 221.203738 154.272469 
L 223.27558 232.0984 
L 225.478335 160.488988 
L 227.872296 242.84689 
L 230.048415 203.125804 
L 232.333686 154.697505 
L 234.402806 231.562193 
L 236.578214 202.982956 
L 238.755532 203.366007 
L 240.82436 180.487726 
L 242.999951 203.019884 
L 245.503845 154.886998 
L 247.572593 154.960429 
L 249.748348 203.052731 
L 251.862598 240.272832 
L 254.04043 203.469067 
L 256.216496 203.114929 
L 258.501042 177.643476 
L 260.786696 200.956105 
L 263.071172 177.629236 
L 265.465739 220.908872 
L 267.642133 203.18085 
L 269.819044 203.28449 
L 271.995828 179.015657 
L 274.083573 184.648043 
L 276.478465 198.930207 
L 278.654886 203.186369 
L 280.83039 154.48685 
L 282.899428 231.546205 
L 285.186603 178.174355 
L 287.57866 176.34647 
L 289.782091 232.486469 
L 292.068997 201.196158 
L 294.353904 200.812661 
L 296.444835 185.341302 
L 298.729787 200.821417 
L 301.082352 191.000996 
L 303.259075 203.246801 
L 305.36959 139.54761 
L 307.610429 215.733103 
L 309.749545 195.574791 
L 312.034652 223.945159 
L 314.231728 135.231134 
L 316.365513 243.929076 
L 318.540562 154.385566 
L 320.695629 247.836855 
L 322.872563 203.289093 
L 325.341761 148.07546 
L 327.587201 240.103768 
L 329.980525 198.641526 
L 332.187555 185.328316 
L 334.581319 154.6308 
L 336.867428 224.127238 
L 339.071832 208.72683 
L 341.357958 177.96275 
L 343.531803 178.392886 
L 346.018287 236.387912 
L 348.523621 155.165679 
L 350.874744 235.617267 
L 353.160968 154.899639 
L 355.294891 219.224335 
L 357.580378 200.923953 
L 359.679099 212.17292 
L 361.855042 203.090211 
L 364.250109 154.894718 
L 366.435195 204.917138 
L 368.484696 227.655867 
L 370.933593 165.549841 
L 373.131389 183.419441 
L 375.570512 206.922174 
L 377.766887 183.124144 
L 380.268715 196.673964 
L 382.55437 247.133519 
L 384.948143 176.678366 
L 387.01851 206.318458 
L 389.195086 178.971665 
L 391.318538 167.446692 
L 393.45499 219.722066 
L 395.597879 171.729854 
L 397.82825 213.743536 
L 400.180427 168.491277 
L 402.374524 206.702381 
L 404.622561 217.090445 
L 406.948346 208.525531 
L 409.140677 206.353724 
L 411.28872 148.284572 
L 413.722133 227.593309 
L 415.899359 154.870773 
L 418.119857 211.849772 
L 420.260084 195.80538 
L 422.504299 216.370812 
L 424.699101 206.841396 
L 426.984007 200.812332 
L 429.159851 154.562961 
L 431.33678 227.529733 
L 433.62306 201.076198 
L 435.798993 203.088415 
L 438.082757 200.59293 
L 440.259187 203.188132 
L 442.32853 155.099774 
L 444.504695 154.634455 
L 446.682097 203.382838 
L 449.09048 179.486859 
L 451.22981 220.287058 
L 453.369788 171.093191 
L 455.766135 243.24198 
L 458.003052 167.806718 
L 460.289066 201.025021 
L 462.612879 185.450114 
L 464.787427 202.810357 
L 467.00069 186.607654 
L 469.222864 212.172519 
L 471.558487 165.152124 
L 474.06006 196.628743 
L 476.195401 194.789624 
L 478.518875 230.809498 
L 480.804388 200.929049 
L 482.979629 178.68888 
L 485.110408 169.070377 
L 487.297886 205.392377 
L 489.690482 198.507229 
L 491.881912 206.175576 
L 494.016709 219.39656 
L 496.155741 195.557246 
L 498.296031 195.818288 
L 500.581578 177.845812 
L 502.939637 169.666593 
L 505.07153 243.578096 
L 507.578831 155.54556 
L 510.019367 185.549331 
L 512.194711 227.229465 
L 516.793754 164.994426 
L 518.985858 230.382795 
L 521.123979 195.368153 
L 523.407759 200.595944 
L 525.621068 210.460461 
L 527.872665 147.444981 
L 530.034904 249.136458 
L 532.540213 155.16069 
L 535.042369 238.913741 
L 537.112275 180.726786 
L 539.315543 160.600595 
L 541.755848 185.506247 
L 543.916541 224.433106 
L 546.094196 179.199828 
L 548.222691 242.945699 
L 550.727277 155.020863 
L 553.168759 185.725252 
L 555.348233 252.224544 
L 557.522402 154.189179 
L 559.713297 206.06959 
L 562.076783 215.402381 
L 564.269067 206.344391 
L 566.40844 195.627951 
L 568.857895 165.657947 
L 571.032957 178.651056 
L 573.210142 203.339337 
L 575.327673 215.96997 
L 577.5819 194.840305 
L 579.773349 206.179185 
L 581.966842 206.583216 
L 584.249875 154.222112 
L 586.383423 219.150586 
L 588.830771 165.249806 
L 591.024202 206.570975 
L 593.152776 242.960371 
L 597.440308 165.196321 
L 599.573429 219.066284 
L 601.858281 177.705393 
L 604.033593 202.963694 
L 606.211025 179.152773 
L 608.487937 222.449005 
L 610.929417 185.724701 
L 613.210888 177.020858 
L 615.326361 190.611765 
L 617.590643 220.121979 
L 619.736159 196.899278 
L 621.880173 196.589371 
L 624.124949 192.967432 
L 626.26295 195.343109 
L 628.457129 206.718645 
L 630.677274 188.011926 
L 632.854482 179.105402 
L 635.183779 186.51939 
L 637.46806 200.692453 
L 639.523102 177.407372 
L 641.806056 246.669194 
L 644.202158 155.103903 
L 646.289346 235.094859 
L 648.73795 165.493354 
L 651.021092 200.473356 
L 653.376882 169.213957 
L 655.561866 253.201603 
L 658.003461 185.74601 
L 660.197422 206.675514 
L 662.391625 182.67248 
L 664.833999 207.497956 
L 667.028516 158.690412 
L 669.219779 206.142338 
L 671.616239 221.239793 
L 674.055482 163.673562 
L 676.243302 229.581307 
L 678.532393 178.56073 
L 680.880809 212.679978 
L 683.022986 171.574354 
L 685.469505 165.08912 
L 687.600623 243.433932 
L 689.779565 155.25245 
L 691.990195 209.940299 
L 694.386433 177.154713 
L 696.579366 206.472496 
L 698.708161 243.001623 
L 701.211114 175.788858 
L 703.38756 227.438559 
L 705.563819 154.655092 
L 707.938115 172.880639 
L 710.077772 195.687061 
L 712.268976 206.130741 
L 714.508937 215.566943 
L 716.706933 207.47048 
L 719.008729 204.032505 
L 721.182684 154.141246 
L 723.315914 243.8262 
L 725.602888 178.133897 
L 727.782456 203.816494 
L 730.071386 155.47276 
L 732.355752 246.911977 
L 734.453167 186.745688 
L 736.850497 199.378421 
L 739.023998 178.319861 
L 741.093893 206.219815 
L 743.379284 177.814191 
L 745.489855 189.568809 
L 747.643419 223.058721 
L 749.930467 201.22354 
L 752.215591 154.666304 
L 754.341533 242.469268 
L 756.650168 182.464116 
L 758.981012 186.820222 
L 758.981012 186.820222 
" clip-path="url(#p05008b958d)" style="fill: none; stroke: #1f77b4; stroke-width: 1.5; stroke-linecap: square"/>
   </g>
   <g id="line2d_15">
    <path d="M 109.681259 347.98185 
L 111.963208 362.126601 
L 114.303632 323.963591 
L 116.585801 362.15339 
L 118.649098 358.294759 
L 120.930573 338.93808 
L 122.999089 333.492232 
L 125.380826 351.596509 
L 127.879201 322.798277 
L 130.05138 372.397357 
L 132.333088 338.968776 
L 134.723413 330.553754 
L 136.788784 358.57725 
L 141.39759 336.340368 
L 143.679602 339.008802 
L 146.034229 325.867716 
L 148.207975 348.312815 
L 150.706136 343.895858 
L 152.796054 336.627392 
L 155.077504 362.065884 
L 157.17763 338.100356 
L 159.567031 330.434165 
L 162.066881 344.095605 
L 164.240966 348.358182 
L 166.270826 353.660283 
L 168.770427 322.953815 
L 171.052467 362.13762 
L 173.444196 330.735133 
L 175.618016 348.322785 
L 177.899092 362.020359 
L 180.29037 330.676922 
L 182.573103 362.221936 
L 184.85527 315.905206 
L 187.354868 344.065916 
L 189.485843 342.465416 
L 191.985995 344.131362 
L 194.159948 348.340524 
L 196.333165 348.241771 
L 198.508385 348.510273 
L 200.898663 352.625623 
L 203.181573 339.127009 
L 205.269192 336.293862 
L 207.594418 344.595868 
L 209.786235 350.714772 
L 212.286622 323.053255 
L 214.56983 362.279603 
L 216.637383 333.349719 
L 218.811741 348.394827 
L 221.203738 330.769753 
L 223.27558 359.45515 
L 225.478335 328.191842 
L 227.872296 375.11126 
L 230.048415 348.630536 
L 232.333686 316.345004 
L 234.402806 359.086507 
L 236.578214 348.535304 
L 238.755532 348.790671 
L 240.82436 333.538484 
L 242.999951 348.559923 
L 245.503845 323.496738 
L 247.572593 333.526587 
L 249.748348 348.58182 
L 251.862598 365.075072 
L 254.04043 348.859378 
L 256.216496 348.623286 
L 258.501042 339.34226 
L 260.786696 339.487862 
L 263.071172 339.333003 
L 265.465739 353.139754 
L 267.642133 348.667233 
L 269.819044 348.736327 
L 271.995828 324.475976 
L 274.083573 336.312028 
L 276.478465 353.178635 
L 278.654886 348.670912 
L 280.83039 324.290452 
L 282.899428 359.075516 
L 285.186603 339.687331 
L 287.57866 330.777647 
L 289.782091 352.237507 
L 292.068997 362.7281 
L 294.353904 339.389715 
L 296.444835 336.774201 
L 298.729787 339.395707 
L 301.082352 348.024648 
L 303.259075 348.7112 
L 305.36959 314.579946 
L 307.610429 357.035402 
L 309.749545 343.596527 
L 312.034652 362.510106 
L 314.231728 303.367422 
L 316.365513 367.58874 
L 318.540562 324.224618 
L 320.695629 370.275338 
L 322.872563 348.739395 
L 325.341761 319.054431 
L 327.587201 357.614424 
L 329.980525 352.990992 
L 332.187555 328.795164 
L 334.581319 330.997782 
L 336.867428 362.631492 
L 339.071832 352.364553 
L 341.357958 316.465925 
L 343.531803 348.326033 
L 346.018287 363.730676 
L 348.523621 323.678486 
L 350.874744 370.291511 
L 353.160968 316.47976 
L 355.294891 342.876001 
L 357.580378 362.556181 
L 359.679099 337.898532 
L 361.855042 348.606808 
L 364.250109 331.16573 
L 366.435195 349.824759 
L 368.484696 356.400909 
L 370.933593 316.39671 
L 373.131389 351.5007 
L 375.570512 336.737522 
L 377.766887 351.314196 
L 380.268715 344.329309 
L 382.55437 362.576602 
L 384.948143 330.998911 
L 387.01851 359.255473 
L 389.195086 324.445876 
L 391.318538 341.412647 
L 393.45499 343.227341 
L 395.597879 344.117803 
L 397.82825 355.709024 
L 400.180427 325.540851 
L 402.374524 351.014921 
L 404.622561 357.940297 
L 406.948346 344.666942 
L 409.140677 350.782483 
L 411.28872 320.258972 
L 413.722133 357.713317 
L 415.899359 324.540003 
L 418.119857 354.446515 
L 420.260084 343.750253 
L 422.504299 357.460542 
L 424.699101 351.107597 
L 426.984007 339.389491 
L 429.159851 324.339925 
L 431.33678 348.738635 
L 433.62306 362.652336 
L 435.798993 348.60561 
L 438.082757 339.239373 
L 440.259187 348.672088 
L 442.32853 333.614594 
L 444.504695 324.386396 
L 446.682097 348.801892 
L 449.09048 332.871239 
L 451.22981 343.626159 
L 453.369788 343.715699 
L 455.766135 375.374654 
L 458.003052 309.356702 
L 460.289066 362.620013 
L 462.612879 321.70708 
L 464.787427 348.420238 
L 467.00069 353.514308 
L 469.222864 354.661679 
L 471.558487 323.314749 
L 474.06006 344.299162 
L 476.195401 343.073083 
L 478.518875 367.086332 
L 480.804388 339.469349 
L 482.979629 324.252392 
L 485.110408 342.438133 
L 487.297886 350.141584 
L 489.690482 330.847061 
L 491.881912 350.663717 
L 494.016709 367.717774 
L 496.155741 343.58483 
L 498.296031 343.758859 
L 500.581578 339.473778 
L 502.939637 326.324396 
L 505.07153 367.347441 
L 507.578831 323.926235 
L 512.194711 348.526681 
L 514.347723 345.507297 
L 516.793754 337.592817 
L 518.985858 350.752561 
L 521.123979 343.458769 
L 523.407759 362.349017 
L 525.621068 353.520307 
L 527.872665 311.509987 
L 530.034904 371.168815 
L 532.540213 323.675233 
L 535.042369 365.458875 
L 537.112275 333.697857 
L 539.315543 328.264387 
L 541.755848 336.884165 
L 543.916541 346.552781 
L 546.094196 348.835681 
L 548.222691 366.912668 
L 550.727277 323.584041 
L 553.168759 337.030168 
L 555.348233 373.291874 
L 557.522402 324.096966 
L 559.713297 350.59306 
L 562.076783 349.372155 
L 564.269067 350.776261 
L 566.40844 343.631967 
L 568.857895 316.470419 
L 571.032957 348.489088 
L 573.210142 348.772892 
L 575.327673 340.578802 
L 577.5819 358.713877 
L 579.773349 350.666123 
L 581.966842 350.935477 
L 584.249875 316.028075 
L 586.383423 342.823943 
L 588.830771 337.755331 
L 591.024202 350.927316 
L 593.152776 366.922755 
L 595.438159 339.452284 
L 597.440308 323.344214 
L 599.573429 367.504066 
L 601.858281 339.382505 
L 604.033593 348.522463 
L 606.211025 324.569792 
L 608.487937 361.51267 
L 610.929417 337.029801 
L 613.210888 338.937558 
L 615.326361 340.287844 
L 617.590643 359.961319 
L 619.736159 344.479519 
L 621.880173 344.272914 
L 624.124949 334.021927 
L 626.26295 343.442072 
L 628.457129 351.025764 
L 630.677274 330.631318 
L 632.854482 348.776044 
L 635.183779 322.455573 
L 637.46806 362.40997 
L 639.523102 331.484915 
L 641.806056 362.248843 
L 644.202158 331.298847 
L 646.289346 361.515216 
L 648.73795 316.358196 
L 651.021092 362.271593 
L 653.376882 326.022638 
L 655.561866 373.963602 
L 658.003461 337.044007 
L 660.197422 350.99701 
L 662.391625 326.978012 
L 664.833999 358.747671 
L 667.028516 327.022768 
L 669.219779 350.641559 
L 671.616239 353.366174 
L 674.055482 315.117428 
L 676.243302 374.307905 
L 678.532393 339.938475 
L 680.880809 347.509458 
L 683.022986 319.384558 
L 685.469505 337.653076 
L 687.600623 367.248328 
L 689.779565 324.788092 
L 691.990195 353.173533 
L 694.386433 331.316476 
L 696.579366 350.861664 
L 698.708161 366.951116 
L 701.211114 323.377858 
L 703.38756 372.92142 
L 705.563819 324.39981 
L 707.938115 328.467093 
L 710.077772 343.671374 
L 712.268976 350.633827 
L 714.508937 356.924629 
L 716.706933 351.526987 
L 719.008729 341.592766 
L 721.182684 324.06581 
L 723.315914 367.518013 
L 725.602888 339.661033 
L 727.782456 349.090996 
L 730.071386 316.86184 
L 732.355752 362.420219 
L 734.453167 337.710459 
L 736.850497 353.469974 
L 739.023998 323.999905 
L 741.093893 359.191645 
L 743.379284 339.453224 
L 745.489855 339.592539 
L 747.643419 345.582627 
L 749.930467 362.745394 
L 752.215591 316.324202 
L 754.341533 366.585122 
L 756.650168 342.475675 
L 758.981012 322.666155 
L 758.981012 322.666155 
" clip-path="url(#p05008b958d)" style="fill: none; stroke: #ff7f0e; stroke-width: 1.5; stroke-linecap: square"/>
   </g>
   <g id="line2d_16">
    <path d="M 93.23 194.881455 
L 791.446 194.881455 
" clip-path="url(#p05008b958d)" style="fill: none; stroke-dasharray: 5.55,2.4; stroke-dashoffset: 0; stroke: #0000ff; stroke-width: 1.5"/>
   </g>
   <g id="line2d_17">
    <path d="M 93.23 343.826638 
L 791.446 343.826638 
" clip-path="url(#p05008b958d)" style="fill: none; stroke-dasharray: 5.55,2.4; stroke-dashoffset: 0; stroke: #ffa500; stroke-width: 1.5"/>
   </g>
   <g id="patch_3">
    <path d="M 93.23 639.64 
L 93.23 60.96 
" style="fill: none; stroke: #000000; stroke-width: 0.8; stroke-linejoin: miter; stroke-linecap: square"/>
   </g>
   <g id="patch_4">
    <path d="M 791.446 639.64 
L 791.446 60.96 
" style="fill: none; stroke: #000000; stroke-width: 0.8; stroke-linejoin: miter; stroke-linecap: square"/>
   </g>
   <g id="patch_5">
    <path d="M 93.23 639.64 
L 791.446 639.64 
" style="fill: none; stroke: #000000; stroke-width: 0.8; stroke-linejoin: miter; stroke-linecap: square"/>
   </g>
   <g id="patch_6">
    <path d="M 93.23 60.96 
L 791.446 60.96 
" style="fill: none; stroke: #000000; stroke-width: 0.8; stroke-linejoin: miter; stroke-linecap: square"/>
   </g>
   <g id="text_16">
    <!-- Parsed and Filtered Packets (SelectionProcess: 16777218) -->
    <g transform="translate(199.340438 54.96) scale(0.168 -0.168)">
     <defs>
      <path id="DejaVuSans-46" d="M 628 4666 
L 3309 4666 
L 3309 4134 
L 1259 4134 
L 1259 2759 
L 3109 2759 
L 3109 2228 
L 1259 2228 
L 1259 0 
L 628 0 
L 628 4666 
z
" transform="scale(0.015625)"/>
      <path id="DejaVuSans-6c" d="M 603 4863 
L 1178 4863 
L 1178 0 
L 603 0 
L 603 4863 
z
" transform="scale(0.015625)"/>
      <path id="DejaVuSans-3a" d="M 750 794 
L 1409 794 
L 1409 0 
L 750 0 
L 750 794 
z
M 750 3309 
L 1409 3309 
L 1409 2516 
L 750 2516 
L 750 3309 
z
" transform="scale(0.015625)"/>
      <path id="DejaVuSans-37" d="M 525 4666 
L 3525 4666 
L 3525 4397 
L 1831 0 
L 1172 0 
L 2766 4134 
L 525 4134 
L 525 4666 
z
" transform="scale(0.015625)"/>
     </defs>
     <use xlink:href="#DejaVuSans-50"/>
     <use xlink:href="#DejaVuSans-61" x="55.802734"/>
     <use xlink:href="#DejaVuSans-72" x="117.082031"/>
     <use xlink:href="#DejaVuSans-73" x="158.195312"/>
     <use xlink:href="#DejaVuSans-65" x="210.294922"/>
     <use xlink:href="#DejaVuSans-64" x="271.818359"/>
     <use xlink:href="#DejaVuSans-20" x="335.294922"/>
     <use xlink:href="#DejaVuSans-61" x="367.082031"/>
     <use xlink:href="#DejaVuSans-6e" x="428.361328"/>
     <use xlink:href="#DejaVuSans-64" x="491.740234"/>
     <use xlink:href="#DejaVuSans-20" x="555.216797"/>
     <use xlink:href="#DejaVuSans-46" x="587.003906"/>
     <use xlink:href="#DejaVuSans-69" x="637.273438"/>
     <use xlink:href="#DejaVuSans-6c" x="665.056641"/>
     <use xlink:href="#DejaVuSans-74" x="692.839844"/>
     <use xlink:href="#DejaVuSans-65" x="732.048828"/>
     <use xlink:href="#DejaVuSans-72" x="793.572266"/>
     <use xlink:href="#DejaVuSans-65" x="832.435547"/>
     <use xlink:href="#DejaVuSans-64" x="893.958984"/>
     <use xlink:href="#DejaVuSans-20" x="957.435547"/>
     <use xlink:href="#DejaVuSans-50" x="989.222656"/>
     <use xlink:href="#DejaVuSans-61" x="1045.025391"/>
     <use xlink:href="#DejaVuSans-63" x="1106.304688"/>
     <use xlink:href="#DejaVuSans-6b" x="1161.285156"/>
     <use xlink:href="#DejaVuSans-65" x="1215.570312"/>
     <use xlink:href="#DejaVuSans-74" x="1277.09375"/>
     <use xlink:href="#DejaVuSans-73" x="1316.302734"/>
     <use xlink:href="#DejaVuSans-20" x="1368.402344"/>
     <use xlink:href="#DejaVuSans-28" x="1400.189453"/>
     <use xlink:href="#DejaVuSans-53" x="1439.203125"/>
     <use xlink:href="#DejaVuSans-65" x="1502.679688"/>
     <use xlink:href="#DejaVuSans-6c" x="1564.203125"/>
     <use xlink:href="#DejaVuSans-65" x="1591.986328"/>
     <use xlink:href="#DejaVuSans-63" x="1653.509766"/>
     <use xlink:href="#DejaVuSans-74" x="1708.490234"/>
     <use xlink:href="#DejaVuSans-69" x="1747.699219"/>
     <use xlink:href="#DejaVuSans-6f" x="1775.482422"/>
     <use xlink:href="#DejaVuSans-6e" x="1836.664062"/>
     <use xlink:href="#DejaVuSans-50" x="1900.042969"/>
     <use xlink:href="#DejaVuSans-72" x="1958.595703"/>
     <use xlink:href="#DejaVuSans-6f" x="1997.458984"/>
     <use xlink:href="#DejaVuSans-63" x="2058.640625"/>
     <use xlink:href="#DejaVuSans-65" x="2113.621094"/>
     <use xlink:href="#DejaVuSans-73" x="2175.144531"/>
     <use xlink:href="#DejaVuSans-73" x="2227.244141"/>
     <use xlink:href="#DejaVuSans-3a" x="2279.34375"/>
     <use xlink:href="#DejaVuSans-20" x="2313.035156"/>
     <use xlink:href="#DejaVuSans-31" x="2344.822266"/>
     <use xlink:href="#DejaVuSans-36" x="2408.445312"/>
     <use xlink:href="#DejaVuSans-37" x="2472.068359"/>
     <use xlink:href="#DejaVuSans-37" x="2535.691406"/>
     <use xlink:href="#DejaVuSans-37" x="2599.314453"/>
     <use xlink:href="#DejaVuSans-32" x="2662.9375"/>
     <use xlink:href="#DejaVuSans-31" x="2726.560547"/>
     <use xlink:href="#DejaVuSans-38" x="2790.183594"/>
     <use xlink:href="#DejaVuSans-29" x="2853.806641"/>
    </g>
   </g>
   <g id="legend_1">
    <g id="patch_7">
     <path d="M 801.246 393.49875 
L 1017.381938 393.49875 
Q 1020.181938 393.49875 1020.181938 390.69875 
L 1020.181938 309.90125 
Q 1020.181938 307.10125 1017.381938 307.10125 
L 801.246 307.10125 
Q 798.446 307.10125 798.446 309.90125 
L 798.446 390.69875 
Q 798.446 393.49875 801.246 393.49875 
z
" style="fill: #ffffff; opacity: 0.8; stroke: #cccccc; stroke-linejoin: miter"/>
    </g>
    <g id="line2d_18">
     <path d="M 804.046 318.439063 
L 818.046 318.439063 
L 832.046 318.439063 
" style="fill: none; stroke: #1f77b4; stroke-width: 1.5; stroke-linecap: square"/>
    </g>
    <g id="text_17">
     <!-- Parsed Packets -->
     <g transform="translate(843.246 323.339063) scale(0.14 -0.14)">
      <use xlink:href="#DejaVuSans-50"/>
      <use xlink:href="#DejaVuSans-61" x="55.802734"/>
      <use xlink:href="#DejaVuSans-72" x="117.082031"/>
      <use xlink:href="#DejaVuSans-73" x="158.195312"/>
      <use xlink:href="#DejaVuSans-65" x="210.294922"/>
      <use xlink:href="#DejaVuSans-64" x="271.818359"/>
      <use xlink:href="#DejaVuSans-20" x="335.294922"/>
      <use xlink:href="#DejaVuSans-50" x="367.082031"/>
      <use xlink:href="#DejaVuSans-61" x="422.884766"/>
      <use xlink:href="#DejaVuSans-63" x="484.164062"/>
      <use xlink:href="#DejaVuSans-6b" x="539.144531"/>
      <use xlink:href="#DejaVuSans-65" x="593.429688"/>
      <use xlink:href="#DejaVuSans-74" x="654.953125"/>
      <use xlink:href="#DejaVuSans-73" x="694.162109"/>
     </g>
    </g>
    <g id="line2d_19">
     <path d="M 804.046 338.988438 
L 818.046 338.988438 
L 832.046 338.988438 
" style="fill: none; stroke: #ff7f0e; stroke-width: 1.5; stroke-linecap: square"/>
    </g>
    <g id="text_18">
     <!-- Filtered Packets -->
     <g transform="translate(843.246 343.888438) scale(0.14 -0.14)">
      <use xlink:href="#DejaVuSans-46"/>
      <use xlink:href="#DejaVuSans-69" x="50.269531"/>
      <use xlink:href="#DejaVuSans-6c" x="78.052734"/>
      <use xlink:href="#DejaVuSans-74" x="105.835938"/>
      <use xlink:href="#DejaVuSans-65" x="145.044922"/>
      <use xlink:href="#DejaVuSans-72" x="206.568359"/>
      <use xlink:href="#DejaVuSans-65" x="245.431641"/>
      <use xlink:href="#DejaVuSans-64" x="306.955078"/>
      <use xlink:href="#DejaVuSans-20" x="370.431641"/>
      <use xlink:href="#DejaVuSans-50" x="402.21875"/>
      <use xlink:href="#DejaVuSans-61" x="458.021484"/>
      <use xlink:href="#DejaVuSans-63" x="519.300781"/>
      <use xlink:href="#DejaVuSans-6b" x="574.28125"/>
      <use xlink:href="#DejaVuSans-65" x="628.566406"/>
      <use xlink:href="#DejaVuSans-74" x="690.089844"/>
      <use xlink:href="#DejaVuSans-73" x="729.298828"/>
     </g>
    </g>
    <g id="line2d_20">
     <path d="M 804.046 359.537813 
L 818.046 359.537813 
L 832.046 359.537813 
" style="fill: none; stroke-dasharray: 5.55,2.4; stroke-dashoffset: 0; stroke: #0000ff; stroke-width: 1.5"/>
    </g>
    <g id="text_19">
     <!-- Parsed Packets Average -->
     <g transform="translate(843.246 364.437813) scale(0.14 -0.14)">
      <defs>
       <path id="DejaVuSans-41" d="M 2188 4044 
L 1331 1722 
L 3047 1722 
L 2188 4044 
z
M 1831 4666 
L 2547 4666 
L 4325 0 
L 3669 0 
L 3244 1197 
L 1141 1197 
L 716 0 
L 50 0 
L 1831 4666 
z
" transform="scale(0.015625)"/>
       <path id="DejaVuSans-76" d="M 191 3500 
L 800 3500 
L 1894 563 
L 2988 3500 
L 3597 3500 
L 2284 0 
L 1503 0 
L 191 3500 
z
" transform="scale(0.015625)"/>
       <path id="DejaVuSans-67" d="M 2906 1791 
Q 2906 2416 2648 2759 
Q 2391 3103 1925 3103 
Q 1463 3103 1205 2759 
Q 947 2416 947 1791 
Q 947 1169 1205 825 
Q 1463 481 1925 481 
Q 2391 481 2648 825 
Q 2906 1169 2906 1791 
z
M 3481 434 
Q 3481 -459 3084 -895 
Q 2688 -1331 1869 -1331 
Q 1566 -1331 1297 -1286 
Q 1028 -1241 775 -1147 
L 775 -588 
Q 1028 -725 1275 -790 
Q 1522 -856 1778 -856 
Q 2344 -856 2625 -561 
Q 2906 -266 2906 331 
L 2906 616 
Q 2728 306 2450 153 
Q 2172 0 1784 0 
Q 1141 0 747 490 
Q 353 981 353 1791 
Q 353 2603 747 3093 
Q 1141 3584 1784 3584 
Q 2172 3584 2450 3431 
Q 2728 3278 2906 2969 
L 2906 3500 
L 3481 3500 
L 3481 434 
z
" transform="scale(0.015625)"/>
      </defs>
      <use xlink:href="#DejaVuSans-50"/>
      <use xlink:href="#DejaVuSans-61" x="55.802734"/>
      <use xlink:href="#DejaVuSans-72" x="117.082031"/>
      <use xlink:href="#DejaVuSans-73" x="158.195312"/>
      <use xlink:href="#DejaVuSans-65" x="210.294922"/>
      <use xlink:href="#DejaVuSans-64" x="271.818359"/>
      <use xlink:href="#DejaVuSans-20" x="335.294922"/>
      <use xlink:href="#DejaVuSans-50" x="367.082031"/>
      <use xlink:href="#DejaVuSans-61" x="422.884766"/>
      <use xlink:href="#DejaVuSans-63" x="484.164062"/>
      <use xlink:href="#DejaVuSans-6b" x="539.144531"/>
      <use xlink:href="#DejaVuSans-65" x="593.429688"/>
      <use xlink:href="#DejaVuSans-74" x="654.953125"/>
      <use xlink:href="#DejaVuSans-73" x="694.162109"/>
      <use xlink:href="#DejaVuSans-20" x="746.261719"/>
      <use xlink:href="#DejaVuSans-41" x="778.048828"/>
      <use xlink:href="#DejaVuSans-76" x="840.582031"/>
      <use xlink:href="#DejaVuSans-65" x="899.761719"/>
      <use xlink:href="#DejaVuSans-72" x="961.285156"/>
      <use xlink:href="#DejaVuSans-61" x="1002.398438"/>
      <use xlink:href="#DejaVuSans-67" x="1063.677734"/>
      <use xlink:href="#DejaVuSans-65" x="1127.154297"/>
     </g>
    </g>
    <g id="line2d_21">
     <path d="M 804.046 380.087188 
L 818.046 380.087188 
L 832.046 380.087188 
" style="fill: none; stroke-dasharray: 5.55,2.4; stroke-dashoffset: 0; stroke: #ffa500; stroke-width: 1.5"/>
    </g>
    <g id="text_20">
     <!-- Filtered Packets Average -->
     <g transform="translate(843.246 384.987188) scale(0.14 -0.14)">
      <use xlink:href="#DejaVuSans-46"/>
      <use xlink:href="#DejaVuSans-69" x="50.269531"/>
      <use xlink:href="#DejaVuSans-6c" x="78.052734"/>
      <use xlink:href="#DejaVuSans-74" x="105.835938"/>
      <use xlink:href="#DejaVuSans-65" x="145.044922"/>
      <use xlink:href="#DejaVuSans-72" x="206.568359"/>
      <use xlink:href="#DejaVuSans-65" x="245.431641"/>
      <use xlink:href="#DejaVuSans-64" x="306.955078"/>
      <use xlink:href="#DejaVuSans-20" x="370.431641"/>
      <use xlink:href="#DejaVuSans-50" x="402.21875"/>
      <use xlink:href="#DejaVuSans-61" x="458.021484"/>
      <use xlink:href="#DejaVuSans-63" x="519.300781"/>
      <use xlink:href="#DejaVuSans-6b" x="574.28125"/>
      <use xlink:href="#DejaVuSans-65" x="628.566406"/>
      <use xlink:href="#DejaVuSans-74" x="690.089844"/>
      <use xlink:href="#DejaVuSans-73" x="729.298828"/>
      <use xlink:href="#DejaVuSans-20" x="781.398438"/>
      <use xlink:href="#DejaVuSans-41" x="813.185547"/>
      <use xlink:href="#DejaVuSans-76" x="875.71875"/>
      <use xlink:href="#DejaVuSans-65" x="934.898438"/>
      <use xlink:href="#DejaVuSans-72" x="996.421875"/>
      <use xlink:href="#DejaVuSans-61" x="1037.535156"/>
      <use xlink:href="#DejaVuSans-67" x="1098.814453"/>
      <use xlink:href="#DejaVuSans-65" x="1162.291016"/>
     </g>
    </g>
   </g>
  </g>
 </g>
 <defs>
  <clipPath id="p05008b958d">
   <rect x="93.23" y="60.96" width="698.216" height="578.68"/>
  </clipPath>
 </defs>
</svg>
