<?xml version="1.0" encoding="utf-8" standalone="no"?>
<!DOCTYPE svg PUBLIC "-//W3C//DTD SVG 1.1//EN"
  "http://www.w3.org/Graphics/SVG/1.1/DTD/svg11.dtd">
<svg xmlns:xlink="http://www.w3.org/1999/xlink" width="1008pt" height="720pt" viewBox="0 0 1008 720" xmlns="http://www.w3.org/2000/svg" version="1.1">
 <metadata>
  <rdf:RDF xmlns:dc="http://purl.org/dc/elements/1.1/" xmlns:cc="http://creativecommons.org/ns#" xmlns:rdf="http://www.w3.org/1999/02/22-rdf-syntax-ns#">
   <cc:Work>
    <dc:type rdf:resource="http://purl.org/dc/dcmitype/StillImage"/>
    <dc:date>2023-04-13T18:19:02.579396</dc:date>
    <dc:format>image/svg+xml</dc:format>
    <dc:creator>
     <cc:Agent>
      <dc:title>Matplotlib v3.6.2, https://matplotlib.org/</dc:title>
     </cc:Agent>
    </dc:creator>
   </cc:Work>
  </rdf:RDF>
 </metadata>
 <defs>
  <style type="text/css">*{stroke-linejoin: round; stroke-linecap: butt}</style>
 </defs>
 <g id="figure_1">
  <g id="patch_1">
   <path d="M 0 720 
L 1008 720 
L 1008 0 
L 0 0 
z
" style="fill: #ffffff"/>
  </g>
  <g id="axes_1">
   <g id="patch_2">
    <path d="M 106.82 639.64 
L 794.164 639.64 
L 794.164 60.96 
L 106.82 60.96 
z
" style="fill: #ffffff"/>
   </g>
   <g id="matplotlib.axis_1">
    <g id="xtick_1">
     <g id="line2d_1">
      <defs>
       <path id="m8882f011fa" d="M 0 0 
L 0 3.5 
" style="stroke: #000000; stroke-width: 0.8"/>
      </defs>
      <g>
       <use xlink:href="#m8882f011fa" x="106.82" y="639.64" style="stroke: #000000; stroke-width: 0.8"/>
      </g>
     </g>
     <g id="text_1">
      <!-- 0 -->
      <g transform="translate(102.36625 657.277812) scale(0.14 -0.14)">
       <defs>
        <path id="DejaVuSans-30" d="M 2034 4250 
Q 1547 4250 1301 3770 
Q 1056 3291 1056 2328 
Q 1056 1369 1301 889 
Q 1547 409 2034 409 
Q 2525 409 2770 889 
Q 3016 1369 3016 2328 
Q 3016 3291 2770 3770 
Q 2525 4250 2034 4250 
z
M 2034 4750 
Q 2819 4750 3233 4129 
Q 3647 3509 3647 2328 
Q 3647 1150 3233 529 
Q 2819 -91 2034 -91 
Q 1250 -91 836 529 
Q 422 1150 422 2328 
Q 422 3509 836 4129 
Q 1250 4750 2034 4750 
z
" transform="scale(0.015625)"/>
       </defs>
       <use xlink:href="#DejaVuSans-30"/>
      </g>
     </g>
    </g>
    <g id="xtick_2">
     <g id="line2d_2">
      <g>
       <use xlink:href="#m8882f011fa" x="214.185465" y="639.64" style="stroke: #000000; stroke-width: 0.8"/>
      </g>
     </g>
     <g id="text_2">
      <!-- 10 -->
      <g transform="translate(205.277965 657.277812) scale(0.14 -0.14)">
       <defs>
        <path id="DejaVuSans-31" d="M 794 531 
L 1825 531 
L 1825 4091 
L 703 3866 
L 703 4441 
L 1819 4666 
L 2450 4666 
L 2450 531 
L 3481 531 
L 3481 0 
L 794 0 
L 794 531 
z
" transform="scale(0.015625)"/>
       </defs>
       <use xlink:href="#DejaVuSans-31"/>
       <use xlink:href="#DejaVuSans-30" x="63.623047"/>
      </g>
     </g>
    </g>
    <g id="xtick_3">
     <g id="line2d_3">
      <g>
       <use xlink:href="#m8882f011fa" x="321.55093" y="639.64" style="stroke: #000000; stroke-width: 0.8"/>
      </g>
     </g>
     <g id="text_3">
      <!-- 20 -->
      <g transform="translate(312.64343 657.277812) scale(0.14 -0.14)">
       <defs>
        <path id="DejaVuSans-32" d="M 1228 531 
L 3431 531 
L 3431 0 
L 469 0 
L 469 531 
Q 828 903 1448 1529 
Q 2069 2156 2228 2338 
Q 2531 2678 2651 2914 
Q 2772 3150 2772 3378 
Q 2772 3750 2511 3984 
Q 2250 4219 1831 4219 
Q 1534 4219 1204 4116 
Q 875 4013 500 3803 
L 500 4441 
Q 881 4594 1212 4672 
Q 1544 4750 1819 4750 
Q 2544 4750 2975 4387 
Q 3406 4025 3406 3419 
Q 3406 3131 3298 2873 
Q 3191 2616 2906 2266 
Q 2828 2175 2409 1742 
Q 1991 1309 1228 531 
z
" transform="scale(0.015625)"/>
       </defs>
       <use xlink:href="#DejaVuSans-32"/>
       <use xlink:href="#DejaVuSans-30" x="63.623047"/>
      </g>
     </g>
    </g>
    <g id="xtick_4">
     <g id="line2d_4">
      <g>
       <use xlink:href="#m8882f011fa" x="428.916395" y="639.64" style="stroke: #000000; stroke-width: 0.8"/>
      </g>
     </g>
     <g id="text_4">
      <!-- 30 -->
      <g transform="translate(420.008895 657.277812) scale(0.14 -0.14)">
       <defs>
        <path id="DejaVuSans-33" d="M 2597 2516 
Q 3050 2419 3304 2112 
Q 3559 1806 3559 1356 
Q 3559 666 3084 287 
Q 2609 -91 1734 -91 
Q 1441 -91 1130 -33 
Q 819 25 488 141 
L 488 750 
Q 750 597 1062 519 
Q 1375 441 1716 441 
Q 2309 441 2620 675 
Q 2931 909 2931 1356 
Q 2931 1769 2642 2001 
Q 2353 2234 1838 2234 
L 1294 2234 
L 1294 2753 
L 1863 2753 
Q 2328 2753 2575 2939 
Q 2822 3125 2822 3475 
Q 2822 3834 2567 4026 
Q 2313 4219 1838 4219 
Q 1578 4219 1281 4162 
Q 984 4106 628 3988 
L 628 4550 
Q 988 4650 1302 4700 
Q 1616 4750 1894 4750 
Q 2613 4750 3031 4423 
Q 3450 4097 3450 3541 
Q 3450 3153 3228 2886 
Q 3006 2619 2597 2516 
z
" transform="scale(0.015625)"/>
       </defs>
       <use xlink:href="#DejaVuSans-33"/>
       <use xlink:href="#DejaVuSans-30" x="63.623047"/>
      </g>
     </g>
    </g>
    <g id="xtick_5">
     <g id="line2d_5">
      <g>
       <use xlink:href="#m8882f011fa" x="536.28186" y="639.64" style="stroke: #000000; stroke-width: 0.8"/>
      </g>
     </g>
     <g id="text_5">
      <!-- 40 -->
      <g transform="translate(527.37436 657.277812) scale(0.14 -0.14)">
       <defs>
        <path id="DejaVuSans-34" d="M 2419 4116 
L 825 1625 
L 2419 1625 
L 2419 4116 
z
M 2253 4666 
L 3047 4666 
L 3047 1625 
L 3713 1625 
L 3713 1100 
L 3047 1100 
L 3047 0 
L 2419 0 
L 2419 1100 
L 313 1100 
L 313 1709 
L 2253 4666 
z
" transform="scale(0.015625)"/>
       </defs>
       <use xlink:href="#DejaVuSans-34"/>
       <use xlink:href="#DejaVuSans-30" x="63.623047"/>
      </g>
     </g>
    </g>
    <g id="xtick_6">
     <g id="line2d_6">
      <g>
       <use xlink:href="#m8882f011fa" x="643.647325" y="639.64" style="stroke: #000000; stroke-width: 0.8"/>
      </g>
     </g>
     <g id="text_6">
      <!-- 50 -->
      <g transform="translate(634.739825 657.277812) scale(0.14 -0.14)">
       <defs>
        <path id="DejaVuSans-35" d="M 691 4666 
L 3169 4666 
L 3169 4134 
L 1269 4134 
L 1269 2991 
Q 1406 3038 1543 3061 
Q 1681 3084 1819 3084 
Q 2600 3084 3056 2656 
Q 3513 2228 3513 1497 
Q 3513 744 3044 326 
Q 2575 -91 1722 -91 
Q 1428 -91 1123 -41 
Q 819 9 494 109 
L 494 744 
Q 775 591 1075 516 
Q 1375 441 1709 441 
Q 2250 441 2565 725 
Q 2881 1009 2881 1497 
Q 2881 1984 2565 2268 
Q 2250 2553 1709 2553 
Q 1456 2553 1204 2497 
Q 953 2441 691 2322 
L 691 4666 
z
" transform="scale(0.015625)"/>
       </defs>
       <use xlink:href="#DejaVuSans-35"/>
       <use xlink:href="#DejaVuSans-30" x="63.623047"/>
      </g>
     </g>
    </g>
    <g id="xtick_7">
     <g id="line2d_7">
      <g>
       <use xlink:href="#m8882f011fa" x="751.01279" y="639.64" style="stroke: #000000; stroke-width: 0.8"/>
      </g>
     </g>
     <g id="text_7">
      <!-- 60 -->
      <g transform="translate(742.10529 657.277812) scale(0.14 -0.14)">
       <defs>
        <path id="DejaVuSans-36" d="M 2113 2584 
Q 1688 2584 1439 2293 
Q 1191 2003 1191 1497 
Q 1191 994 1439 701 
Q 1688 409 2113 409 
Q 2538 409 2786 701 
Q 3034 994 3034 1497 
Q 3034 2003 2786 2293 
Q 2538 2584 2113 2584 
z
M 3366 4563 
L 3366 3988 
Q 3128 4100 2886 4159 
Q 2644 4219 2406 4219 
Q 1781 4219 1451 3797 
Q 1122 3375 1075 2522 
Q 1259 2794 1537 2939 
Q 1816 3084 2150 3084 
Q 2853 3084 3261 2657 
Q 3669 2231 3669 1497 
Q 3669 778 3244 343 
Q 2819 -91 2113 -91 
Q 1303 -91 875 529 
Q 447 1150 447 2328 
Q 447 3434 972 4092 
Q 1497 4750 2381 4750 
Q 2619 4750 2861 4703 
Q 3103 4656 3366 4563 
z
" transform="scale(0.015625)"/>
       </defs>
       <use xlink:href="#DejaVuSans-36"/>
       <use xlink:href="#DejaVuSans-30" x="63.623047"/>
      </g>
     </g>
    </g>
    <g id="text_8">
     <!-- Observed Time(s) -->
     <g transform="translate(388.351688 674.827188) scale(0.14 -0.14)">
      <defs>
       <path id="DejaVuSans-4f" d="M 2522 4238 
Q 1834 4238 1429 3725 
Q 1025 3213 1025 2328 
Q 1025 1447 1429 934 
Q 1834 422 2522 422 
Q 3209 422 3611 934 
Q 4013 1447 4013 2328 
Q 4013 3213 3611 3725 
Q 3209 4238 2522 4238 
z
M 2522 4750 
Q 3503 4750 4090 4092 
Q 4678 3434 4678 2328 
Q 4678 1225 4090 567 
Q 3503 -91 2522 -91 
Q 1538 -91 948 565 
Q 359 1222 359 2328 
Q 359 3434 948 4092 
Q 1538 4750 2522 4750 
z
" transform="scale(0.015625)"/>
       <path id="DejaVuSans-62" d="M 3116 1747 
Q 3116 2381 2855 2742 
Q 2594 3103 2138 3103 
Q 1681 3103 1420 2742 
Q 1159 2381 1159 1747 
Q 1159 1113 1420 752 
Q 1681 391 2138 391 
Q 2594 391 2855 752 
Q 3116 1113 3116 1747 
z
M 1159 2969 
Q 1341 3281 1617 3432 
Q 1894 3584 2278 3584 
Q 2916 3584 3314 3078 
Q 3713 2572 3713 1747 
Q 3713 922 3314 415 
Q 2916 -91 2278 -91 
Q 1894 -91 1617 61 
Q 1341 213 1159 525 
L 1159 0 
L 581 0 
L 581 4863 
L 1159 4863 
L 1159 2969 
z
" transform="scale(0.015625)"/>
       <path id="DejaVuSans-73" d="M 2834 3397 
L 2834 2853 
Q 2591 2978 2328 3040 
Q 2066 3103 1784 3103 
Q 1356 3103 1142 2972 
Q 928 2841 928 2578 
Q 928 2378 1081 2264 
Q 1234 2150 1697 2047 
L 1894 2003 
Q 2506 1872 2764 1633 
Q 3022 1394 3022 966 
Q 3022 478 2636 193 
Q 2250 -91 1575 -91 
Q 1294 -91 989 -36 
Q 684 19 347 128 
L 347 722 
Q 666 556 975 473 
Q 1284 391 1588 391 
Q 1994 391 2212 530 
Q 2431 669 2431 922 
Q 2431 1156 2273 1281 
Q 2116 1406 1581 1522 
L 1381 1569 
Q 847 1681 609 1914 
Q 372 2147 372 2553 
Q 372 3047 722 3315 
Q 1072 3584 1716 3584 
Q 2034 3584 2315 3537 
Q 2597 3491 2834 3397 
z
" transform="scale(0.015625)"/>
       <path id="DejaVuSans-65" d="M 3597 1894 
L 3597 1613 
L 953 1613 
Q 991 1019 1311 708 
Q 1631 397 2203 397 
Q 2534 397 2845 478 
Q 3156 559 3463 722 
L 3463 178 
Q 3153 47 2828 -22 
Q 2503 -91 2169 -91 
Q 1331 -91 842 396 
Q 353 884 353 1716 
Q 353 2575 817 3079 
Q 1281 3584 2069 3584 
Q 2775 3584 3186 3129 
Q 3597 2675 3597 1894 
z
M 3022 2063 
Q 3016 2534 2758 2815 
Q 2500 3097 2075 3097 
Q 1594 3097 1305 2825 
Q 1016 2553 972 2059 
L 3022 2063 
z
" transform="scale(0.015625)"/>
       <path id="DejaVuSans-72" d="M 2631 2963 
Q 2534 3019 2420 3045 
Q 2306 3072 2169 3072 
Q 1681 3072 1420 2755 
Q 1159 2438 1159 1844 
L 1159 0 
L 581 0 
L 581 3500 
L 1159 3500 
L 1159 2956 
Q 1341 3275 1631 3429 
Q 1922 3584 2338 3584 
Q 2397 3584 2469 3576 
Q 2541 3569 2628 3553 
L 2631 2963 
z
" transform="scale(0.015625)"/>
       <path id="DejaVuSans-76" d="M 191 3500 
L 800 3500 
L 1894 563 
L 2988 3500 
L 3597 3500 
L 2284 0 
L 1503 0 
L 191 3500 
z
" transform="scale(0.015625)"/>
       <path id="DejaVuSans-64" d="M 2906 2969 
L 2906 4863 
L 3481 4863 
L 3481 0 
L 2906 0 
L 2906 525 
Q 2725 213 2448 61 
Q 2172 -91 1784 -91 
Q 1150 -91 751 415 
Q 353 922 353 1747 
Q 353 2572 751 3078 
Q 1150 3584 1784 3584 
Q 2172 3584 2448 3432 
Q 2725 3281 2906 2969 
z
M 947 1747 
Q 947 1113 1208 752 
Q 1469 391 1925 391 
Q 2381 391 2643 752 
Q 2906 1113 2906 1747 
Q 2906 2381 2643 2742 
Q 2381 3103 1925 3103 
Q 1469 3103 1208 2742 
Q 947 2381 947 1747 
z
" transform="scale(0.015625)"/>
       <path id="DejaVuSans-20" transform="scale(0.015625)"/>
       <path id="DejaVuSans-54" d="M -19 4666 
L 3928 4666 
L 3928 4134 
L 2272 4134 
L 2272 0 
L 1638 0 
L 1638 4134 
L -19 4134 
L -19 4666 
z
" transform="scale(0.015625)"/>
       <path id="DejaVuSans-69" d="M 603 3500 
L 1178 3500 
L 1178 0 
L 603 0 
L 603 3500 
z
M 603 4863 
L 1178 4863 
L 1178 4134 
L 603 4134 
L 603 4863 
z
" transform="scale(0.015625)"/>
       <path id="DejaVuSans-6d" d="M 3328 2828 
Q 3544 3216 3844 3400 
Q 4144 3584 4550 3584 
Q 5097 3584 5394 3201 
Q 5691 2819 5691 2113 
L 5691 0 
L 5113 0 
L 5113 2094 
Q 5113 2597 4934 2840 
Q 4756 3084 4391 3084 
Q 3944 3084 3684 2787 
Q 3425 2491 3425 1978 
L 3425 0 
L 2847 0 
L 2847 2094 
Q 2847 2600 2669 2842 
Q 2491 3084 2119 3084 
Q 1678 3084 1418 2786 
Q 1159 2488 1159 1978 
L 1159 0 
L 581 0 
L 581 3500 
L 1159 3500 
L 1159 2956 
Q 1356 3278 1631 3431 
Q 1906 3584 2284 3584 
Q 2666 3584 2933 3390 
Q 3200 3197 3328 2828 
z
" transform="scale(0.015625)"/>
       <path id="DejaVuSans-28" d="M 1984 4856 
Q 1566 4138 1362 3434 
Q 1159 2731 1159 2009 
Q 1159 1288 1364 580 
Q 1569 -128 1984 -844 
L 1484 -844 
Q 1016 -109 783 600 
Q 550 1309 550 2009 
Q 550 2706 781 3412 
Q 1013 4119 1484 4856 
L 1984 4856 
z
" transform="scale(0.015625)"/>
       <path id="DejaVuSans-29" d="M 513 4856 
L 1013 4856 
Q 1481 4119 1714 3412 
Q 1947 2706 1947 2009 
Q 1947 1309 1714 600 
Q 1481 -109 1013 -844 
L 513 -844 
Q 928 -128 1133 580 
Q 1338 1288 1338 2009 
Q 1338 2731 1133 3434 
Q 928 4138 513 4856 
z
" transform="scale(0.015625)"/>
      </defs>
      <use xlink:href="#DejaVuSans-4f"/>
      <use xlink:href="#DejaVuSans-62" x="78.710938"/>
      <use xlink:href="#DejaVuSans-73" x="142.1875"/>
      <use xlink:href="#DejaVuSans-65" x="194.287109"/>
      <use xlink:href="#DejaVuSans-72" x="255.810547"/>
      <use xlink:href="#DejaVuSans-76" x="296.923828"/>
      <use xlink:href="#DejaVuSans-65" x="356.103516"/>
      <use xlink:href="#DejaVuSans-64" x="417.626953"/>
      <use xlink:href="#DejaVuSans-20" x="481.103516"/>
      <use xlink:href="#DejaVuSans-54" x="512.890625"/>
      <use xlink:href="#DejaVuSans-69" x="570.849609"/>
      <use xlink:href="#DejaVuSans-6d" x="598.632812"/>
      <use xlink:href="#DejaVuSans-65" x="696.044922"/>
      <use xlink:href="#DejaVuSans-28" x="757.568359"/>
      <use xlink:href="#DejaVuSans-73" x="796.582031"/>
      <use xlink:href="#DejaVuSans-29" x="848.681641"/>
     </g>
    </g>
   </g>
   <g id="matplotlib.axis_2">
    <g id="ytick_1">
     <g id="line2d_8">
      <defs>
       <path id="m867f966740" d="M 0 0 
L -3.5 0 
" style="stroke: #000000; stroke-width: 0.8"/>
      </defs>
      <g>
       <use xlink:href="#m867f966740" x="106.82" y="639.64" style="stroke: #000000; stroke-width: 0.8"/>
      </g>
     </g>
     <g id="text_9">
      <!-- 0 -->
      <g transform="translate(90.9125 644.958906) scale(0.14 -0.14)">
       <use xlink:href="#DejaVuSans-30"/>
      </g>
     </g>
    </g>
    <g id="ytick_2">
     <g id="line2d_9">
      <g>
       <use xlink:href="#m867f966740" x="106.82" y="552.943823" style="stroke: #000000; stroke-width: 0.8"/>
      </g>
     </g>
     <g id="text_10">
      <!-- 5 -->
      <g transform="translate(90.9125 558.262729) scale(0.14 -0.14)">
       <use xlink:href="#DejaVuSans-35"/>
      </g>
     </g>
    </g>
    <g id="ytick_3">
     <g id="line2d_10">
      <g>
       <use xlink:href="#m867f966740" x="106.82" y="466.247646" style="stroke: #000000; stroke-width: 0.8"/>
      </g>
     </g>
     <g id="text_11">
      <!-- 10 -->
      <g transform="translate(82.005 471.566552) scale(0.14 -0.14)">
       <use xlink:href="#DejaVuSans-31"/>
       <use xlink:href="#DejaVuSans-30" x="63.623047"/>
      </g>
     </g>
    </g>
    <g id="ytick_4">
     <g id="line2d_11">
      <g>
       <use xlink:href="#m867f966740" x="106.82" y="379.551469" style="stroke: #000000; stroke-width: 0.8"/>
      </g>
     </g>
     <g id="text_12">
      <!-- 15 -->
      <g transform="translate(82.005 384.870375) scale(0.14 -0.14)">
       <use xlink:href="#DejaVuSans-31"/>
       <use xlink:href="#DejaVuSans-35" x="63.623047"/>
      </g>
     </g>
    </g>
    <g id="ytick_5">
     <g id="line2d_12">
      <g>
       <use xlink:href="#m867f966740" x="106.82" y="292.855292" style="stroke: #000000; stroke-width: 0.8"/>
      </g>
     </g>
     <g id="text_13">
      <!-- 20 -->
      <g transform="translate(82.005 298.174198) scale(0.14 -0.14)">
       <use xlink:href="#DejaVuSans-32"/>
       <use xlink:href="#DejaVuSans-30" x="63.623047"/>
      </g>
     </g>
    </g>
    <g id="ytick_6">
     <g id="line2d_13">
      <g>
       <use xlink:href="#m867f966740" x="106.82" y="206.159115" style="stroke: #000000; stroke-width: 0.8"/>
      </g>
     </g>
     <g id="text_14">
      <!-- 25 -->
      <g transform="translate(82.005 211.478021) scale(0.14 -0.14)">
       <use xlink:href="#DejaVuSans-32"/>
       <use xlink:href="#DejaVuSans-35" x="63.623047"/>
      </g>
     </g>
    </g>
    <g id="ytick_7">
     <g id="line2d_14">
      <g>
       <use xlink:href="#m867f966740" x="106.82" y="119.462938" style="stroke: #000000; stroke-width: 0.8"/>
      </g>
     </g>
     <g id="text_15">
      <!-- 30 -->
      <g transform="translate(82.005 124.781845) scale(0.14 -0.14)">
       <use xlink:href="#DejaVuSans-33"/>
       <use xlink:href="#DejaVuSans-30" x="63.623047"/>
      </g>
     </g>
    </g>
    <g id="text_16">
     <!-- Interarrival Time (ms) -->
     <g transform="translate(75.093438 426.478594) rotate(-90) scale(0.14 -0.14)">
      <defs>
       <path id="DejaVuSans-49" d="M 628 4666 
L 1259 4666 
L 1259 0 
L 628 0 
L 628 4666 
z
" transform="scale(0.015625)"/>
       <path id="DejaVuSans-6e" d="M 3513 2113 
L 3513 0 
L 2938 0 
L 2938 2094 
Q 2938 2591 2744 2837 
Q 2550 3084 2163 3084 
Q 1697 3084 1428 2787 
Q 1159 2491 1159 1978 
L 1159 0 
L 581 0 
L 581 3500 
L 1159 3500 
L 1159 2956 
Q 1366 3272 1645 3428 
Q 1925 3584 2291 3584 
Q 2894 3584 3203 3211 
Q 3513 2838 3513 2113 
z
" transform="scale(0.015625)"/>
       <path id="DejaVuSans-74" d="M 1172 4494 
L 1172 3500 
L 2356 3500 
L 2356 3053 
L 1172 3053 
L 1172 1153 
Q 1172 725 1289 603 
Q 1406 481 1766 481 
L 2356 481 
L 2356 0 
L 1766 0 
Q 1100 0 847 248 
Q 594 497 594 1153 
L 594 3053 
L 172 3053 
L 172 3500 
L 594 3500 
L 594 4494 
L 1172 4494 
z
" transform="scale(0.015625)"/>
       <path id="DejaVuSans-61" d="M 2194 1759 
Q 1497 1759 1228 1600 
Q 959 1441 959 1056 
Q 959 750 1161 570 
Q 1363 391 1709 391 
Q 2188 391 2477 730 
Q 2766 1069 2766 1631 
L 2766 1759 
L 2194 1759 
z
M 3341 1997 
L 3341 0 
L 2766 0 
L 2766 531 
Q 2569 213 2275 61 
Q 1981 -91 1556 -91 
Q 1019 -91 701 211 
Q 384 513 384 1019 
Q 384 1609 779 1909 
Q 1175 2209 1959 2209 
L 2766 2209 
L 2766 2266 
Q 2766 2663 2505 2880 
Q 2244 3097 1772 3097 
Q 1472 3097 1187 3025 
Q 903 2953 641 2809 
L 641 3341 
Q 956 3463 1253 3523 
Q 1550 3584 1831 3584 
Q 2591 3584 2966 3190 
Q 3341 2797 3341 1997 
z
" transform="scale(0.015625)"/>
       <path id="DejaVuSans-6c" d="M 603 4863 
L 1178 4863 
L 1178 0 
L 603 0 
L 603 4863 
z
" transform="scale(0.015625)"/>
      </defs>
      <use xlink:href="#DejaVuSans-49"/>
      <use xlink:href="#DejaVuSans-6e" x="29.492188"/>
      <use xlink:href="#DejaVuSans-74" x="92.871094"/>
      <use xlink:href="#DejaVuSans-65" x="132.080078"/>
      <use xlink:href="#DejaVuSans-72" x="193.603516"/>
      <use xlink:href="#DejaVuSans-61" x="234.716797"/>
      <use xlink:href="#DejaVuSans-72" x="295.996094"/>
      <use xlink:href="#DejaVuSans-72" x="335.359375"/>
      <use xlink:href="#DejaVuSans-69" x="376.472656"/>
      <use xlink:href="#DejaVuSans-76" x="404.255859"/>
      <use xlink:href="#DejaVuSans-61" x="463.435547"/>
      <use xlink:href="#DejaVuSans-6c" x="524.714844"/>
      <use xlink:href="#DejaVuSans-20" x="552.498047"/>
      <use xlink:href="#DejaVuSans-54" x="584.285156"/>
      <use xlink:href="#DejaVuSans-69" x="642.244141"/>
      <use xlink:href="#DejaVuSans-6d" x="670.027344"/>
      <use xlink:href="#DejaVuSans-65" x="767.439453"/>
      <use xlink:href="#DejaVuSans-20" x="828.962891"/>
      <use xlink:href="#DejaVuSans-28" x="860.75"/>
      <use xlink:href="#DejaVuSans-6d" x="899.763672"/>
      <use xlink:href="#DejaVuSans-73" x="997.175781"/>
      <use xlink:href="#DejaVuSans-29" x="1049.275391"/>
     </g>
    </g>
   </g>
   <g id="line2d_15">
    <path d="M 106.82 62.665984 
L 107.534404 62.972143 
L 109.67694 62.946221 
L 110.748218 62.954214 
L 111.105305 63.147893 
L 111.462272 62.752871 
L 111.819483 62.925795 
L 112.533722 62.911213 
L 113.247902 62.955341 
L 118.605183 62.75353 
L 118.962394 63.061683 
L 119.319414 62.483575 
L 119.676793 62.773661 
L 125.034746 62.787515 
L 125.391936 63.009006 
L 125.748989 62.509549 
L 126.463658 62.689392 
L 126.820909 62.589449 
L 128.25009 62.635692 
L 129.32195 62.630872 
L 133.966757 62.610204 
L 134.681323 62.610602 
L 136.467796 62.612163 
L 136.825095 62.453457 
L 137.89724 62.496822 
L 139.32677 62.477125 
L 140.041505 62.478616 
L 140.756287 62.482275 
L 142.185805 62.557007 
L 142.543138 62.456942 
L 145.044838 62.525606 
L 146.116954 62.471733 
L 146.47434 62.517387 
L 146.831697 62.445689 
L 147.189099 62.507919 
L 148.618853 62.377632 
L 149.691238 62.362218 
L 151.478503 62.34963 
L 152.908318 62.392562 
L 153.265753 62.342833 
L 153.623218 62.633976 
L 153.980504 62.094726 
L 154.338123 62.34148 
L 158.270254 62.324002 
L 158.627731 62.232833 
L 160.057837 62.274135 
L 161.130398 62.261321 
L 161.487914 62.322476 
L 161.845392 62.213395 
L 162.560456 62.275019 
L 163.275498 62.252911 
L 164.348054 62.330556 
L 164.705527 62.20105 
L 165.778112 62.27521 
L 166.135619 62.227267 
L 166.493156 62.423633 
L 166.850572 62.134779 
L 167.565687 62.257524 
L 168.280755 62.216759 
L 168.638299 62.366397 
L 168.99575 62.086524 
L 170.426114 62.161256 
L 176.862497 62.159054 
L 177.577618 62.176757 
L 185.802667 62.097604 
L 186.160284 62.184456 
L 186.517847 61.949492 
L 186.875556 62.085397 
L 207.620441 61.971894 
L 207.978136 62.238294 
L 208.335666 61.647373 
L 208.693563 61.952145 
L 210.839785 61.935083 
L 211.197503 62.094656 
L 211.555122 61.749813 
L 211.912955 61.95211 
L 212.628412 61.918021 
L 219.425406 61.897769 
L 220.140862 61.879632 
L 221.571842 61.909196 
L 222.28734 61.900439 
L 223.003001 61.371541 
L 223.719113 61.404433 
L 224.435238 61.400393 
L 228.015723 61.404451 
L 228.731849 61.403202 
L 230.52212 61.416917 
L 231.596274 61.370448 
L 232.312395 61.396024 
L 232.670447 61.658262 
L 233.028336 61.064185 
L 233.386593 61.440932 
L 233.744617 61.31583 
L 234.102719 61.456451 
L 235.176823 61.393405 
L 236.96709 61.399648 
L 239.831456 61.416865 
L 240.189494 61.182318 
L 240.547679 61.585039 
L 240.905613 61.41423 
L 243.411958 61.307836 
L 243.770064 61.486396 
L 244.486096 61.399908 
L 246.634355 61.438817 
L 248.782591 61.343763 
L 249.140675 61.477466 
L 249.856719 61.390007 
L 252.721086 61.426575 
L 253.437184 61.430373 
L 256.659557 61.405005 
L 258.449713 61.403341 
L 258.80776 61.246421 
L 259.165904 61.597193 
L 259.523831 61.387337 
L 259.881888 61.477691 
L 260.597937 61.414143 
L 261.672068 61.38888 
L 262.030124 61.270505 
L 262.388254 61.553221 
L 263.10424 61.411265 
L 264.178359 61.404971 
L 264.536405 61.584935 
L 264.89434 61.254744 
L 265.610482 61.704887 
L 265.968342 61.129242 
L 266.326559 61.437447 
L 269.548814 61.437326 
L 269.90684 61.310888 
L 270.622991 61.511728 
L 271.339001 61.412045 
L 272.413097 61.447573 
L 275.27733 61.42687 
L 279.573646 61.455307 
L 280.289711 61.438089 
L 293.894618 61.441557 
L 294.252642 61.214673 
L 294.610806 61.640663 
L 294.968706 61.425414 
L 296.758838 61.463924 
L 297.116847 61.190502 
L 297.475026 61.677439 
L 297.832904 61.442909 
L 301.055078 61.477327 
L 301.413079 61.432089 
L 301.771109 61.689612 
L 302.128979 61.227382 
L 302.487135 61.425188 
L 302.845169 61.409306 
L 303.203212 61.510965 
L 303.919222 61.451388 
L 310.363636 61.280666 
L 310.721759 61.655332 
L 311.07965 61.426523 
L 313.943817 61.456434 
L 316.449937 61.446082 
L 318.598058 61.453642 
L 319.314059 61.453659 
L 323.968227 61.460768 
L 324.684228 61.456538 
L 326.474304 61.429454 
L 327.19033 61.436129 
L 327.548357 61.297242 
L 327.90647 61.446914 
L 331.84463 61.309171 
L 332.202735 61.496591 
L 332.560725 61.336585 
L 332.918813 61.564405 
L 333.63477 61.432159 
L 339.721011 61.456503 
L 340.079025 61.53146 
L 340.436993 61.375893 
L 340.795057 61.46193 
L 341.153068 61.355328 
L 341.511145 61.546112 
L 342.227104 61.45248 
L 343.659141 61.481627 
L 346.5232 61.436823 
L 348.313288 61.504203 
L 348.671272 61.427789 
L 349.745314 61.457353 
L 353.325441 61.467964 
L 354.757475 61.478402 
L 355.831501 61.46441 
L 360.127602 61.463456 
L 361.917603 61.444417 
L 362.633611 61.455861 
L 364.423651 61.506735 
L 365.139658 61.440256 
L 365.855674 61.452879 
L 368.36172 61.497978 
L 369.077714 61.430702 
L 369.435745 61.60106 
L 369.793669 61.355814 
L 370.50976 61.456988 
L 372.29981 61.511798 
L 373.015807 61.34945 
L 373.373888 61.606591 
L 373.731809 61.454492 
L 374.447809 61.46037 
L 380.175926 61.474518 
L 380.533929 61.533038 
L 380.891896 61.44447 
L 381.965919 61.491407 
L 382.323911 61.477327 
L 382.681913 61.610267 
L 383.039832 61.214152 
L 383.397996 61.466022 
L 393.422171 61.460179 
L 394.138165 61.473807 
L 397.002185 61.389435 
L 397.360241 61.551851 
L 398.076189 61.45548 
L 399.150196 61.48917 
L 400.940213 61.477449 
L 405.594216 61.496244 
L 405.952205 61.791462 
L 406.310012 61.181295 
L 406.668197 61.443499 
L 407.026219 61.54476 
L 407.742188 61.469906 
L 409.890184 61.5355 
L 410.606158 61.496383 
L 412.038148 61.451943 
L 412.75415 61.48969 
L 413.112144 61.406843 
L 413.828191 61.523068 
L 414.54417 61.485113 
L 419.556156 61.479044 
L 426.000159 61.475403 
L 426.358161 61.774869 
L 426.715978 61.199102 
L 427.074152 61.471276 
L 428.864103 61.47197 
L 439.961932 61.494302 
L 440.319923 61.400757 
L 440.677972 61.568965 
L 441.393919 61.492083 
L 442.825909 61.373119 
L 443.541976 61.493973 
L 444.257994 61.479217 
L 444.615994 61.545367 
L 445.331943 61.440308 
L 446.047949 61.488945 
L 447.479936 61.489083 
L 455.355764 61.527212 
L 456.429744 61.457526 
L 457.861755 61.561405 
L 458.219704 61.456867 
L 459.651686 61.499834 
L 461.79963 61.478385 
L 462.15763 61.810744 
L 462.515425 61.132415 
L 462.87364 61.485928 
L 463.231636 61.494545 
L 463.589627 61.789382 
L 463.947435 61.169174 
L 464.305628 61.516046 
L 465.379597 61.502625 
L 467.169541 61.502539 
L 472.89744 61.488026 
L 473.255435 61.622353 
L 473.613347 61.375425 
L 473.971411 61.518699 
L 474.687398 61.499903 
L 475.761382 61.490453 
L 479.699259 61.451561 
L 480.057276 61.305201 
L 480.415384 61.704125 
L 480.773245 61.481419 
L 482.92121 61.504325 
L 493.302898 61.480292 
L 494.018915 61.508417 
L 494.376897 61.515647 
L 494.734875 61.391672 
L 495.092929 61.582264 
L 495.80885 61.501169 
L 496.882814 61.380956 
L 497.240875 61.615625 
L 497.95679 61.385967 
L 498.314848 61.536524 
L 499.388851 61.461497 
L 499.746862 61.630884 
L 500.104768 61.337781 
L 500.462856 61.507186 
L 510.12856 61.481281 
L 510.844529 61.483084 
L 512.992496 61.493852 
L 520.15221 61.377176 
L 520.510274 61.5776 
L 520.868213 61.488286 
L 521.226208 61.795849 
L 521.584012 61.211413 
L 521.942178 61.506925 
L 522.300161 61.420853 
L 522.658197 61.55636 
L 523.374152 61.506717 
L 525.164088 61.484124 
L 526.954032 61.502764 
L 530.175939 61.493505 
L 530.53393 61.277181 
L 530.892055 61.71751 
L 531.249908 61.473565 
L 531.607912 61.579213 
L 531.96585 61.406687 
L 532.681883 61.507047 
L 534.829828 61.517138 
L 535.903782 61.490037 
L 537.335753 61.52801 
L 537.693723 61.475802 
L 538.409689 61.545731 
L 539.125652 61.508365 
L 542.34758 61.507758 
L 543.779513 61.528201 
L 544.495485 61.510341 
L 545.569451 61.523051 
L 545.927425 61.633779 
L 546.285329 61.353907 
L 547.001402 61.508035 
L 549.865301 61.327707 
L 550.223395 61.664296 
L 550.58128 61.496834 
L 555.593109 61.511486 
L 555.951089 61.351601 
L 556.309168 61.50344 
L 558.815034 61.526987 
L 560.24695 61.484124 
L 562.394861 61.539818 
L 563.110823 61.487939 
L 564.542782 61.490002 
L 564.900775 61.55447 
L 565.974712 61.363547 
L 566.332784 61.619388 
L 566.690698 61.496244 
L 568.838621 61.506041 
L 569.196605 61.572537 
L 569.554547 61.459433 
L 571.344484 61.553065 
L 571.702438 61.421963 
L 572.418465 61.495499 
L 575.998326 61.495967 
L 576.356315 61.452272 
L 576.714332 61.540824 
L 578.504234 61.394186 
L 578.862287 61.59676 
L 579.578196 61.487852 
L 580.294174 61.52071 
L 580.652149 61.29126 
L 581.010266 61.759645 
L 581.368092 61.492083 
L 581.726084 61.496765 
L 582.084074 61.275013 
L 582.4422 61.733948 
L 582.800043 61.494476 
L 588.885801 61.503475 
L 590.675718 61.510012 
L 591.391705 61.496678 
L 592.107645 61.51504 
L 593.181617 61.502712 
L 597.119497 61.557261 
L 597.477449 61.447972 
L 599.983398 61.511676 
L 601.415327 61.453 
L 601.773343 61.579074 
L 602.131281 61.480934 
L 602.489281 61.563469 
L 603.563194 61.476877 
L 604.637171 61.566208 
L 605.353118 61.476634 
L 606.06911 61.463976 
L 606.42712 61.404953 
L 607.143145 61.513601 
L 607.501124 61.457595 
L 607.859138 61.591125 
L 608.575061 61.49751 
L 621.462469 61.610579 
L 621.820388 61.389261 
L 622.178444 61.477709 
L 622.536445 61.307628 
L 622.894551 61.723562 
L 623.2524 61.496609 
L 655.470958 61.501464 
L 655.828944 61.824892 
L 656.18673 61.249004 
L 656.544873 61.50136 
L 660.12474 61.469924 
L 660.482746 61.540061 
L 661.198711 61.504168 
L 661.556696 61.57271 
L 661.914638 61.518213 
L 662.272614 61.293393 
L 662.63073 61.701784 
L 662.988592 61.5213 
L 665.494462 61.495395 
L 667.284368 61.542141 
L 668.716279 61.485113 
L 670.506246 61.509561 
L 671.222235 61.505781 
L 672.296169 61.501082 
L 673.370125 61.530247 
L 673.728094 61.800461 
L 674.085895 61.218678 
L 674.444056 61.503804 
L 674.802041 61.439372 
L 675.160066 61.59272 
L 676.233951 61.473461 
L 676.591954 61.519826 
L 676.949929 61.335857 
L 677.308018 61.681809 
L 677.665893 61.507758 
L 681.961673 61.488338 
L 682.319668 61.303502 
L 682.677777 61.708303 
L 683.035635 61.646818 
L 683.393532 61.351947 
L 683.751611 61.488875 
L 686.615487 61.537182 
L 687.689423 61.514485 
L 688.047401 61.557452 
L 688.405353 61.362663 
L 688.763425 61.644252 
L 689.121323 61.50129 
L 691.269185 61.484523 
L 693.059138 61.513913 
L 693.775067 61.503718 
L 699.502765 61.522721 
L 700.218741 61.525132 
L 701.650672 61.538188 
L 702.008636 61.798433 
L 702.366439 61.185525 
L 702.724621 61.525843 
L 703.440592 61.52664 
L 705.588439 61.503163 
L 707.020369 61.572468 
L 707.378312 61.46271 
L 708.094295 61.523398 
L 709.884162 61.526987 
L 715.611886 61.532015 
L 715.969853 61.790058 
L 716.327661 61.195183 
L 717.0439 61.656598 
L 717.759759 61.514156 
L 719.549668 61.491164 
L 720.623593 61.512301 
L 720.981573 61.357184 
L 721.339649 61.665302 
L 721.697534 61.485494 
L 723.129436 61.522843 
L 724.203387 61.514381 
L 726.70924 61.440655 
L 727.067264 61.813743 
L 727.425057 61.181017 
L 727.783242 61.489933 
L 728.141236 61.552805 
L 728.857212 61.294936 
L 729.215326 61.738838 
L 729.573166 61.522011 
L 732.079006 61.477587 
L 733.510936 61.538466 
L 734.942868 61.50644 
L 738.522684 61.507255 
L 739.238619 61.503093 
L 739.954589 61.498186 
L 740.312577 61.308755 
L 740.670683 61.717476 
L 741.028536 61.499504 
L 744.250369 61.584293 
L 744.96629 61.468606 
L 745.68227 61.519358 
L 746.756214 61.506873 
L 748.546128 61.53902 
L 749.262089 61.500094 
L 749.620076 61.564943 
L 750.336011 61.509093 
L 752.84187 61.528045 
L 754.631745 61.495031 
L 754.989735 61.566364 
L 755.705681 61.49158 
L 756.421669 61.520901 
L 756.779644 61.350508 
L 757.137723 61.675775 
L 757.495602 61.520866 
L 757.853576 61.575329 
L 758.569499 61.494563 
L 759.64346 61.384493 
L 760.001519 61.650408 
L 760.717362 61.503839 
L 761.433333 61.487211 
L 761.433333 61.487211 
" clip-path="url(#p255fb55426)" style="fill: none; stroke: #1f77b4; stroke-width: 1.5; stroke-linecap: square"/>
   </g>
   <g id="line2d_16">
    <path d="M 106.82 61.628429 
L 794.164 61.628429 
" clip-path="url(#p255fb55426)" style="fill: none; stroke-dasharray: 5.55,2.4; stroke-dashoffset: 0; stroke: #0000ff; stroke-width: 1.5"/>
   </g>
   <g id="patch_3">
    <path d="M 106.82 639.64 
L 106.82 60.96 
" style="fill: none; stroke: #000000; stroke-width: 0.8; stroke-linejoin: miter; stroke-linecap: square"/>
   </g>
   <g id="patch_4">
    <path d="M 794.164 639.64 
L 794.164 60.96 
" style="fill: none; stroke: #000000; stroke-width: 0.8; stroke-linejoin: miter; stroke-linecap: square"/>
   </g>
   <g id="patch_5">
    <path d="M 106.82 639.64 
L 794.164 639.64 
" style="fill: none; stroke: #000000; stroke-width: 0.8; stroke-linejoin: miter; stroke-linecap: square"/>
   </g>
   <g id="patch_6">
    <path d="M 106.82 60.96 
L 794.164 60.96 
" style="fill: none; stroke: #000000; stroke-width: 0.8; stroke-linejoin: miter; stroke-linecap: square"/>
   </g>
   <g id="text_17">
    <!-- Interarrival Time (SelectionProcess: 16777217) -->
    <g transform="translate(252.807188 54.96) scale(0.168 -0.168)">
     <defs>
      <path id="DejaVuSans-53" d="M 3425 4513 
L 3425 3897 
Q 3066 4069 2747 4153 
Q 2428 4238 2131 4238 
Q 1616 4238 1336 4038 
Q 1056 3838 1056 3469 
Q 1056 3159 1242 3001 
Q 1428 2844 1947 2747 
L 2328 2669 
Q 3034 2534 3370 2195 
Q 3706 1856 3706 1288 
Q 3706 609 3251 259 
Q 2797 -91 1919 -91 
Q 1588 -91 1214 -16 
Q 841 59 441 206 
L 441 856 
Q 825 641 1194 531 
Q 1563 422 1919 422 
Q 2459 422 2753 634 
Q 3047 847 3047 1241 
Q 3047 1584 2836 1778 
Q 2625 1972 2144 2069 
L 1759 2144 
Q 1053 2284 737 2584 
Q 422 2884 422 3419 
Q 422 4038 858 4394 
Q 1294 4750 2059 4750 
Q 2388 4750 2728 4690 
Q 3069 4631 3425 4513 
z
" transform="scale(0.015625)"/>
      <path id="DejaVuSans-63" d="M 3122 3366 
L 3122 2828 
Q 2878 2963 2633 3030 
Q 2388 3097 2138 3097 
Q 1578 3097 1268 2742 
Q 959 2388 959 1747 
Q 959 1106 1268 751 
Q 1578 397 2138 397 
Q 2388 397 2633 464 
Q 2878 531 3122 666 
L 3122 134 
Q 2881 22 2623 -34 
Q 2366 -91 2075 -91 
Q 1284 -91 818 406 
Q 353 903 353 1747 
Q 353 2603 823 3093 
Q 1294 3584 2113 3584 
Q 2378 3584 2631 3529 
Q 2884 3475 3122 3366 
z
" transform="scale(0.015625)"/>
      <path id="DejaVuSans-6f" d="M 1959 3097 
Q 1497 3097 1228 2736 
Q 959 2375 959 1747 
Q 959 1119 1226 758 
Q 1494 397 1959 397 
Q 2419 397 2687 759 
Q 2956 1122 2956 1747 
Q 2956 2369 2687 2733 
Q 2419 3097 1959 3097 
z
M 1959 3584 
Q 2709 3584 3137 3096 
Q 3566 2609 3566 1747 
Q 3566 888 3137 398 
Q 2709 -91 1959 -91 
Q 1206 -91 779 398 
Q 353 888 353 1747 
Q 353 2609 779 3096 
Q 1206 3584 1959 3584 
z
" transform="scale(0.015625)"/>
      <path id="DejaVuSans-50" d="M 1259 4147 
L 1259 2394 
L 2053 2394 
Q 2494 2394 2734 2622 
Q 2975 2850 2975 3272 
Q 2975 3691 2734 3919 
Q 2494 4147 2053 4147 
L 1259 4147 
z
M 628 4666 
L 2053 4666 
Q 2838 4666 3239 4311 
Q 3641 3956 3641 3272 
Q 3641 2581 3239 2228 
Q 2838 1875 2053 1875 
L 1259 1875 
L 1259 0 
L 628 0 
L 628 4666 
z
" transform="scale(0.015625)"/>
      <path id="DejaVuSans-3a" d="M 750 794 
L 1409 794 
L 1409 0 
L 750 0 
L 750 794 
z
M 750 3309 
L 1409 3309 
L 1409 2516 
L 750 2516 
L 750 3309 
z
" transform="scale(0.015625)"/>
      <path id="DejaVuSans-37" d="M 525 4666 
L 3525 4666 
L 3525 4397 
L 1831 0 
L 1172 0 
L 2766 4134 
L 525 4134 
L 525 4666 
z
" transform="scale(0.015625)"/>
     </defs>
     <use xlink:href="#DejaVuSans-49"/>
     <use xlink:href="#DejaVuSans-6e" x="29.492188"/>
     <use xlink:href="#DejaVuSans-74" x="92.871094"/>
     <use xlink:href="#DejaVuSans-65" x="132.080078"/>
     <use xlink:href="#DejaVuSans-72" x="193.603516"/>
     <use xlink:href="#DejaVuSans-61" x="234.716797"/>
     <use xlink:href="#DejaVuSans-72" x="295.996094"/>
     <use xlink:href="#DejaVuSans-72" x="335.359375"/>
     <use xlink:href="#DejaVuSans-69" x="376.472656"/>
     <use xlink:href="#DejaVuSans-76" x="404.255859"/>
     <use xlink:href="#DejaVuSans-61" x="463.435547"/>
     <use xlink:href="#DejaVuSans-6c" x="524.714844"/>
     <use xlink:href="#DejaVuSans-20" x="552.498047"/>
     <use xlink:href="#DejaVuSans-54" x="584.285156"/>
     <use xlink:href="#DejaVuSans-69" x="642.244141"/>
     <use xlink:href="#DejaVuSans-6d" x="670.027344"/>
     <use xlink:href="#DejaVuSans-65" x="767.439453"/>
     <use xlink:href="#DejaVuSans-20" x="828.962891"/>
     <use xlink:href="#DejaVuSans-28" x="860.75"/>
     <use xlink:href="#DejaVuSans-53" x="899.763672"/>
     <use xlink:href="#DejaVuSans-65" x="963.240234"/>
     <use xlink:href="#DejaVuSans-6c" x="1024.763672"/>
     <use xlink:href="#DejaVuSans-65" x="1052.546875"/>
     <use xlink:href="#DejaVuSans-63" x="1114.070312"/>
     <use xlink:href="#DejaVuSans-74" x="1169.050781"/>
     <use xlink:href="#DejaVuSans-69" x="1208.259766"/>
     <use xlink:href="#DejaVuSans-6f" x="1236.042969"/>
     <use xlink:href="#DejaVuSans-6e" x="1297.224609"/>
     <use xlink:href="#DejaVuSans-50" x="1360.603516"/>
     <use xlink:href="#DejaVuSans-72" x="1419.15625"/>
     <use xlink:href="#DejaVuSans-6f" x="1458.019531"/>
     <use xlink:href="#DejaVuSans-63" x="1519.201172"/>
     <use xlink:href="#DejaVuSans-65" x="1574.181641"/>
     <use xlink:href="#DejaVuSans-73" x="1635.705078"/>
     <use xlink:href="#DejaVuSans-73" x="1687.804688"/>
     <use xlink:href="#DejaVuSans-3a" x="1739.904297"/>
     <use xlink:href="#DejaVuSans-20" x="1773.595703"/>
     <use xlink:href="#DejaVuSans-31" x="1805.382812"/>
     <use xlink:href="#DejaVuSans-36" x="1869.005859"/>
     <use xlink:href="#DejaVuSans-37" x="1932.628906"/>
     <use xlink:href="#DejaVuSans-37" x="1996.251953"/>
     <use xlink:href="#DejaVuSans-37" x="2059.875"/>
     <use xlink:href="#DejaVuSans-32" x="2123.498047"/>
     <use xlink:href="#DejaVuSans-31" x="2187.121094"/>
     <use xlink:href="#DejaVuSans-37" x="2250.744141"/>
     <use xlink:href="#DejaVuSans-29" x="2314.367188"/>
    </g>
   </g>
   <g id="legend_1">
    <g id="patch_7">
     <path d="M 803.964 372.949375 
L 1026.758688 372.949375 
Q 1029.558688 372.949375 1029.558688 370.149375 
L 1029.558688 330.450625 
Q 1029.558688 327.650625 1026.758688 327.650625 
L 803.964 327.650625 
Q 801.164 327.650625 801.164 330.450625 
L 801.164 370.149375 
Q 801.164 372.949375 803.964 372.949375 
z
" style="fill: #ffffff; opacity: 0.8; stroke: #cccccc; stroke-linejoin: miter"/>
    </g>
    <g id="line2d_17">
     <path d="M 806.764 338.988438 
L 820.764 338.988438 
L 834.764 338.988438 
" style="fill: none; stroke: #1f77b4; stroke-width: 1.5; stroke-linecap: square"/>
    </g>
    <g id="text_18">
     <!-- Interarrival Times -->
     <g transform="translate(845.964 343.888438) scale(0.14 -0.14)">
      <use xlink:href="#DejaVuSans-49"/>
      <use xlink:href="#DejaVuSans-6e" x="29.492188"/>
      <use xlink:href="#DejaVuSans-74" x="92.871094"/>
      <use xlink:href="#DejaVuSans-65" x="132.080078"/>
      <use xlink:href="#DejaVuSans-72" x="193.603516"/>
      <use xlink:href="#DejaVuSans-61" x="234.716797"/>
      <use xlink:href="#DejaVuSans-72" x="295.996094"/>
      <use xlink:href="#DejaVuSans-72" x="335.359375"/>
      <use xlink:href="#DejaVuSans-69" x="376.472656"/>
      <use xlink:href="#DejaVuSans-76" x="404.255859"/>
      <use xlink:href="#DejaVuSans-61" x="463.435547"/>
      <use xlink:href="#DejaVuSans-6c" x="524.714844"/>
      <use xlink:href="#DejaVuSans-20" x="552.498047"/>
      <use xlink:href="#DejaVuSans-54" x="584.285156"/>
      <use xlink:href="#DejaVuSans-69" x="642.244141"/>
      <use xlink:href="#DejaVuSans-6d" x="670.027344"/>
      <use xlink:href="#DejaVuSans-65" x="767.439453"/>
      <use xlink:href="#DejaVuSans-73" x="828.962891"/>
     </g>
    </g>
    <g id="line2d_18">
     <path d="M 806.764 359.537813 
L 820.764 359.537813 
L 834.764 359.537813 
" style="fill: none; stroke-dasharray: 5.55,2.4; stroke-dashoffset: 0; stroke: #0000ff; stroke-width: 1.5"/>
    </g>
    <g id="text_19">
     <!-- Interarrival Time Average -->
     <g transform="translate(845.964 364.437813) scale(0.14 -0.14)">
      <defs>
       <path id="DejaVuSans-41" d="M 2188 4044 
L 1331 1722 
L 3047 1722 
L 2188 4044 
z
M 1831 4666 
L 2547 4666 
L 4325 0 
L 3669 0 
L 3244 1197 
L 1141 1197 
L 716 0 
L 50 0 
L 1831 4666 
z
" transform="scale(0.015625)"/>
       <path id="DejaVuSans-67" d="M 2906 1791 
Q 2906 2416 2648 2759 
Q 2391 3103 1925 3103 
Q 1463 3103 1205 2759 
Q 947 2416 947 1791 
Q 947 1169 1205 825 
Q 1463 481 1925 481 
Q 2391 481 2648 825 
Q 2906 1169 2906 1791 
z
M 3481 434 
Q 3481 -459 3084 -895 
Q 2688 -1331 1869 -1331 
Q 1566 -1331 1297 -1286 
Q 1028 -1241 775 -1147 
L 775 -588 
Q 1028 -725 1275 -790 
Q 1522 -856 1778 -856 
Q 2344 -856 2625 -561 
Q 2906 -266 2906 331 
L 2906 616 
Q 2728 306 2450 153 
Q 2172 0 1784 0 
Q 1141 0 747 490 
Q 353 981 353 1791 
Q 353 2603 747 3093 
Q 1141 3584 1784 3584 
Q 2172 3584 2450 3431 
Q 2728 3278 2906 2969 
L 2906 3500 
L 3481 3500 
L 3481 434 
z
" transform="scale(0.015625)"/>
      </defs>
      <use xlink:href="#DejaVuSans-49"/>
      <use xlink:href="#DejaVuSans-6e" x="29.492188"/>
      <use xlink:href="#DejaVuSans-74" x="92.871094"/>
      <use xlink:href="#DejaVuSans-65" x="132.080078"/>
      <use xlink:href="#DejaVuSans-72" x="193.603516"/>
      <use xlink:href="#DejaVuSans-61" x="234.716797"/>
      <use xlink:href="#DejaVuSans-72" x="295.996094"/>
      <use xlink:href="#DejaVuSans-72" x="335.359375"/>
      <use xlink:href="#DejaVuSans-69" x="376.472656"/>
      <use xlink:href="#DejaVuSans-76" x="404.255859"/>
      <use xlink:href="#DejaVuSans-61" x="463.435547"/>
      <use xlink:href="#DejaVuSans-6c" x="524.714844"/>
      <use xlink:href="#DejaVuSans-20" x="552.498047"/>
      <use xlink:href="#DejaVuSans-54" x="584.285156"/>
      <use xlink:href="#DejaVuSans-69" x="642.244141"/>
      <use xlink:href="#DejaVuSans-6d" x="670.027344"/>
      <use xlink:href="#DejaVuSans-65" x="767.439453"/>
      <use xlink:href="#DejaVuSans-20" x="828.962891"/>
      <use xlink:href="#DejaVuSans-41" x="860.75"/>
      <use xlink:href="#DejaVuSans-76" x="923.283203"/>
      <use xlink:href="#DejaVuSans-65" x="982.462891"/>
      <use xlink:href="#DejaVuSans-72" x="1043.986328"/>
      <use xlink:href="#DejaVuSans-61" x="1085.099609"/>
      <use xlink:href="#DejaVuSans-67" x="1146.378906"/>
      <use xlink:href="#DejaVuSans-65" x="1209.855469"/>
     </g>
    </g>
   </g>
  </g>
 </g>
 <defs>
  <clipPath id="p255fb55426">
   <rect x="106.82" y="60.96" width="687.344" height="578.68"/>
  </clipPath>
 </defs>
</svg>
