<?xml version="1.0" encoding="utf-8" standalone="no"?>
<!DOCTYPE svg PUBLIC "-//W3C//DTD SVG 1.1//EN"
  "http://www.w3.org/Graphics/SVG/1.1/DTD/svg11.dtd">
<svg xmlns:xlink="http://www.w3.org/1999/xlink" width="1186.56pt" height="588.24pt" viewBox="0 0 1186.56 588.24" xmlns="http://www.w3.org/2000/svg" version="1.1">
 <metadata>
  <rdf:RDF xmlns:dc="http://purl.org/dc/elements/1.1/" xmlns:cc="http://creativecommons.org/ns#" xmlns:rdf="http://www.w3.org/1999/02/22-rdf-syntax-ns#">
   <cc:Work>
    <dc:type rdf:resource="http://purl.org/dc/dcmitype/StillImage"/>
    <dc:date>2023-03-22T16:51:05.190226</dc:date>
    <dc:format>image/svg+xml</dc:format>
    <dc:creator>
     <cc:Agent>
      <dc:title>Matplotlib v3.6.2, https://matplotlib.org/</dc:title>
     </cc:Agent>
    </dc:creator>
   </cc:Work>
  </rdf:RDF>
 </metadata>
 <defs>
  <style type="text/css">*{stroke-linejoin: round; stroke-linecap: butt}</style>
 </defs>
 <g id="figure_1">
  <g id="patch_1">
   <path d="M 0 588.24 
L 1186.56 588.24 
L 1186.56 0 
L 0 0 
z
" style="fill: #ffffff"/>
  </g>
  <g id="axes_1">
   <g id="patch_2">
    <path d="M 72.61088 536.37684 
L 885.00072 536.37684 
L 885.00072 38.36632 
L 72.61088 38.36632 
z
" style="fill: #ffffff"/>
   </g>
   <g id="matplotlib.axis_1">
    <g id="xtick_1">
     <g id="line2d_1">
      <defs>
       <path id="mf76a3af7c1" d="M 0 0 
L 0 3.5 
" style="stroke: #000000; stroke-width: 0.8"/>
      </defs>
      <g>
       <use xlink:href="#mf76a3af7c1" x="72.61088" y="536.37684" style="stroke: #000000; stroke-width: 0.8"/>
      </g>
     </g>
     <g id="text_1">
      <!-- 0 -->
      <g transform="translate(69.42963 550.975278) scale(0.1 -0.1)">
       <defs>
        <path id="DejaVuSans-30" d="M 2034 4250 
Q 1547 4250 1301 3770 
Q 1056 3291 1056 2328 
Q 1056 1369 1301 889 
Q 1547 409 2034 409 
Q 2525 409 2770 889 
Q 3016 1369 3016 2328 
Q 3016 3291 2770 3770 
Q 2525 4250 2034 4250 
z
M 2034 4750 
Q 2819 4750 3233 4129 
Q 3647 3509 3647 2328 
Q 3647 1150 3233 529 
Q 2819 -91 2034 -91 
Q 1250 -91 836 529 
Q 422 1150 422 2328 
Q 422 3509 836 4129 
Q 1250 4750 2034 4750 
z
" transform="scale(0.015625)"/>
       </defs>
       <use xlink:href="#DejaVuSans-30"/>
      </g>
     </g>
    </g>
    <g id="xtick_2">
     <g id="line2d_2">
      <g>
       <use xlink:href="#mf76a3af7c1" x="200.265693" y="536.37684" style="stroke: #000000; stroke-width: 0.8"/>
      </g>
     </g>
     <g id="text_2">
      <!-- 10 -->
      <g transform="translate(193.903193 550.975278) scale(0.1 -0.1)">
       <defs>
        <path id="DejaVuSans-31" d="M 794 531 
L 1825 531 
L 1825 4091 
L 703 3866 
L 703 4441 
L 1819 4666 
L 2450 4666 
L 2450 531 
L 3481 531 
L 3481 0 
L 794 0 
L 794 531 
z
" transform="scale(0.015625)"/>
       </defs>
       <use xlink:href="#DejaVuSans-31"/>
       <use xlink:href="#DejaVuSans-30" x="63.623047"/>
      </g>
     </g>
    </g>
    <g id="xtick_3">
     <g id="line2d_3">
      <g>
       <use xlink:href="#mf76a3af7c1" x="327.920506" y="536.37684" style="stroke: #000000; stroke-width: 0.8"/>
      </g>
     </g>
     <g id="text_3">
      <!-- 20 -->
      <g transform="translate(321.558006 550.975278) scale(0.1 -0.1)">
       <defs>
        <path id="DejaVuSans-32" d="M 1228 531 
L 3431 531 
L 3431 0 
L 469 0 
L 469 531 
Q 828 903 1448 1529 
Q 2069 2156 2228 2338 
Q 2531 2678 2651 2914 
Q 2772 3150 2772 3378 
Q 2772 3750 2511 3984 
Q 2250 4219 1831 4219 
Q 1534 4219 1204 4116 
Q 875 4013 500 3803 
L 500 4441 
Q 881 4594 1212 4672 
Q 1544 4750 1819 4750 
Q 2544 4750 2975 4387 
Q 3406 4025 3406 3419 
Q 3406 3131 3298 2873 
Q 3191 2616 2906 2266 
Q 2828 2175 2409 1742 
Q 1991 1309 1228 531 
z
" transform="scale(0.015625)"/>
       </defs>
       <use xlink:href="#DejaVuSans-32"/>
       <use xlink:href="#DejaVuSans-30" x="63.623047"/>
      </g>
     </g>
    </g>
    <g id="xtick_4">
     <g id="line2d_4">
      <g>
       <use xlink:href="#mf76a3af7c1" x="455.57532" y="536.37684" style="stroke: #000000; stroke-width: 0.8"/>
      </g>
     </g>
     <g id="text_4">
      <!-- 30 -->
      <g transform="translate(449.21282 550.975278) scale(0.1 -0.1)">
       <defs>
        <path id="DejaVuSans-33" d="M 2597 2516 
Q 3050 2419 3304 2112 
Q 3559 1806 3559 1356 
Q 3559 666 3084 287 
Q 2609 -91 1734 -91 
Q 1441 -91 1130 -33 
Q 819 25 488 141 
L 488 750 
Q 750 597 1062 519 
Q 1375 441 1716 441 
Q 2309 441 2620 675 
Q 2931 909 2931 1356 
Q 2931 1769 2642 2001 
Q 2353 2234 1838 2234 
L 1294 2234 
L 1294 2753 
L 1863 2753 
Q 2328 2753 2575 2939 
Q 2822 3125 2822 3475 
Q 2822 3834 2567 4026 
Q 2313 4219 1838 4219 
Q 1578 4219 1281 4162 
Q 984 4106 628 3988 
L 628 4550 
Q 988 4650 1302 4700 
Q 1616 4750 1894 4750 
Q 2613 4750 3031 4423 
Q 3450 4097 3450 3541 
Q 3450 3153 3228 2886 
Q 3006 2619 2597 2516 
z
" transform="scale(0.015625)"/>
       </defs>
       <use xlink:href="#DejaVuSans-33"/>
       <use xlink:href="#DejaVuSans-30" x="63.623047"/>
      </g>
     </g>
    </g>
    <g id="xtick_5">
     <g id="line2d_5">
      <g>
       <use xlink:href="#mf76a3af7c1" x="583.230133" y="536.37684" style="stroke: #000000; stroke-width: 0.8"/>
      </g>
     </g>
     <g id="text_5">
      <!-- 40 -->
      <g transform="translate(576.867633 550.975278) scale(0.1 -0.1)">
       <defs>
        <path id="DejaVuSans-34" d="M 2419 4116 
L 825 1625 
L 2419 1625 
L 2419 4116 
z
M 2253 4666 
L 3047 4666 
L 3047 1625 
L 3713 1625 
L 3713 1100 
L 3047 1100 
L 3047 0 
L 2419 0 
L 2419 1100 
L 313 1100 
L 313 1709 
L 2253 4666 
z
" transform="scale(0.015625)"/>
       </defs>
       <use xlink:href="#DejaVuSans-34"/>
       <use xlink:href="#DejaVuSans-30" x="63.623047"/>
      </g>
     </g>
    </g>
    <g id="xtick_6">
     <g id="line2d_6">
      <g>
       <use xlink:href="#mf76a3af7c1" x="710.884946" y="536.37684" style="stroke: #000000; stroke-width: 0.8"/>
      </g>
     </g>
     <g id="text_6">
      <!-- 50 -->
      <g transform="translate(704.522446 550.975278) scale(0.1 -0.1)">
       <defs>
        <path id="DejaVuSans-35" d="M 691 4666 
L 3169 4666 
L 3169 4134 
L 1269 4134 
L 1269 2991 
Q 1406 3038 1543 3061 
Q 1681 3084 1819 3084 
Q 2600 3084 3056 2656 
Q 3513 2228 3513 1497 
Q 3513 744 3044 326 
Q 2575 -91 1722 -91 
Q 1428 -91 1123 -41 
Q 819 9 494 109 
L 494 744 
Q 775 591 1075 516 
Q 1375 441 1709 441 
Q 2250 441 2565 725 
Q 2881 1009 2881 1497 
Q 2881 1984 2565 2268 
Q 2250 2553 1709 2553 
Q 1456 2553 1204 2497 
Q 953 2441 691 2322 
L 691 4666 
z
" transform="scale(0.015625)"/>
       </defs>
       <use xlink:href="#DejaVuSans-35"/>
       <use xlink:href="#DejaVuSans-30" x="63.623047"/>
      </g>
     </g>
    </g>
    <g id="xtick_7">
     <g id="line2d_7">
      <g>
       <use xlink:href="#mf76a3af7c1" x="838.539759" y="536.37684" style="stroke: #000000; stroke-width: 0.8"/>
      </g>
     </g>
     <g id="text_7">
      <!-- 60 -->
      <g transform="translate(832.177259 550.975278) scale(0.1 -0.1)">
       <defs>
        <path id="DejaVuSans-36" d="M 2113 2584 
Q 1688 2584 1439 2293 
Q 1191 2003 1191 1497 
Q 1191 994 1439 701 
Q 1688 409 2113 409 
Q 2538 409 2786 701 
Q 3034 994 3034 1497 
Q 3034 2003 2786 2293 
Q 2538 2584 2113 2584 
z
M 3366 4563 
L 3366 3988 
Q 3128 4100 2886 4159 
Q 2644 4219 2406 4219 
Q 1781 4219 1451 3797 
Q 1122 3375 1075 2522 
Q 1259 2794 1537 2939 
Q 1816 3084 2150 3084 
Q 2853 3084 3261 2657 
Q 3669 2231 3669 1497 
Q 3669 778 3244 343 
Q 2819 -91 2113 -91 
Q 1303 -91 875 529 
Q 447 1150 447 2328 
Q 447 3434 972 4092 
Q 1497 4750 2381 4750 
Q 2619 4750 2861 4703 
Q 3103 4656 3366 4563 
z
" transform="scale(0.015625)"/>
       </defs>
       <use xlink:href="#DejaVuSans-36"/>
       <use xlink:href="#DejaVuSans-30" x="63.623047"/>
      </g>
     </g>
    </g>
    <g id="text_8">
     <!-- Time (s) -->
     <g transform="translate(448.312441 568.452621) scale(0.15 -0.15)">
      <defs>
       <path id="DejaVuSans-54" d="M -19 4666 
L 3928 4666 
L 3928 4134 
L 2272 4134 
L 2272 0 
L 1638 0 
L 1638 4134 
L -19 4134 
L -19 4666 
z
" transform="scale(0.015625)"/>
       <path id="DejaVuSans-69" d="M 603 3500 
L 1178 3500 
L 1178 0 
L 603 0 
L 603 3500 
z
M 603 4863 
L 1178 4863 
L 1178 4134 
L 603 4134 
L 603 4863 
z
" transform="scale(0.015625)"/>
       <path id="DejaVuSans-6d" d="M 3328 2828 
Q 3544 3216 3844 3400 
Q 4144 3584 4550 3584 
Q 5097 3584 5394 3201 
Q 5691 2819 5691 2113 
L 5691 0 
L 5113 0 
L 5113 2094 
Q 5113 2597 4934 2840 
Q 4756 3084 4391 3084 
Q 3944 3084 3684 2787 
Q 3425 2491 3425 1978 
L 3425 0 
L 2847 0 
L 2847 2094 
Q 2847 2600 2669 2842 
Q 2491 3084 2119 3084 
Q 1678 3084 1418 2786 
Q 1159 2488 1159 1978 
L 1159 0 
L 581 0 
L 581 3500 
L 1159 3500 
L 1159 2956 
Q 1356 3278 1631 3431 
Q 1906 3584 2284 3584 
Q 2666 3584 2933 3390 
Q 3200 3197 3328 2828 
z
" transform="scale(0.015625)"/>
       <path id="DejaVuSans-65" d="M 3597 1894 
L 3597 1613 
L 953 1613 
Q 991 1019 1311 708 
Q 1631 397 2203 397 
Q 2534 397 2845 478 
Q 3156 559 3463 722 
L 3463 178 
Q 3153 47 2828 -22 
Q 2503 -91 2169 -91 
Q 1331 -91 842 396 
Q 353 884 353 1716 
Q 353 2575 817 3079 
Q 1281 3584 2069 3584 
Q 2775 3584 3186 3129 
Q 3597 2675 3597 1894 
z
M 3022 2063 
Q 3016 2534 2758 2815 
Q 2500 3097 2075 3097 
Q 1594 3097 1305 2825 
Q 1016 2553 972 2059 
L 3022 2063 
z
" transform="scale(0.015625)"/>
       <path id="DejaVuSans-20" transform="scale(0.015625)"/>
       <path id="DejaVuSans-28" d="M 1984 4856 
Q 1566 4138 1362 3434 
Q 1159 2731 1159 2009 
Q 1159 1288 1364 580 
Q 1569 -128 1984 -844 
L 1484 -844 
Q 1016 -109 783 600 
Q 550 1309 550 2009 
Q 550 2706 781 3412 
Q 1013 4119 1484 4856 
L 1984 4856 
z
" transform="scale(0.015625)"/>
       <path id="DejaVuSans-73" d="M 2834 3397 
L 2834 2853 
Q 2591 2978 2328 3040 
Q 2066 3103 1784 3103 
Q 1356 3103 1142 2972 
Q 928 2841 928 2578 
Q 928 2378 1081 2264 
Q 1234 2150 1697 2047 
L 1894 2003 
Q 2506 1872 2764 1633 
Q 3022 1394 3022 966 
Q 3022 478 2636 193 
Q 2250 -91 1575 -91 
Q 1294 -91 989 -36 
Q 684 19 347 128 
L 347 722 
Q 666 556 975 473 
Q 1284 391 1588 391 
Q 1994 391 2212 530 
Q 2431 669 2431 922 
Q 2431 1156 2273 1281 
Q 2116 1406 1581 1522 
L 1381 1569 
Q 847 1681 609 1914 
Q 372 2147 372 2553 
Q 372 3047 722 3315 
Q 1072 3584 1716 3584 
Q 2034 3584 2315 3537 
Q 2597 3491 2834 3397 
z
" transform="scale(0.015625)"/>
       <path id="DejaVuSans-29" d="M 513 4856 
L 1013 4856 
Q 1481 4119 1714 3412 
Q 1947 2706 1947 2009 
Q 1947 1309 1714 600 
Q 1481 -109 1013 -844 
L 513 -844 
Q 928 -128 1133 580 
Q 1338 1288 1338 2009 
Q 1338 2731 1133 3434 
Q 928 4138 513 4856 
z
" transform="scale(0.015625)"/>
      </defs>
      <use xlink:href="#DejaVuSans-54"/>
      <use xlink:href="#DejaVuSans-69" x="57.958984"/>
      <use xlink:href="#DejaVuSans-6d" x="85.742188"/>
      <use xlink:href="#DejaVuSans-65" x="183.154297"/>
      <use xlink:href="#DejaVuSans-20" x="244.677734"/>
      <use xlink:href="#DejaVuSans-28" x="276.464844"/>
      <use xlink:href="#DejaVuSans-73" x="315.478516"/>
      <use xlink:href="#DejaVuSans-29" x="367.578125"/>
     </g>
    </g>
   </g>
   <g id="matplotlib.axis_2">
    <g id="ytick_1">
     <g id="line2d_8">
      <defs>
       <path id="m9f10f69652" d="M 0 0 
L -3.5 0 
" style="stroke: #000000; stroke-width: 0.8"/>
      </defs>
      <g>
       <use xlink:href="#m9f10f69652" x="72.61088" y="536.37684" style="stroke: #000000; stroke-width: 0.8"/>
      </g>
     </g>
     <g id="text_9">
      <!-- 0 -->
      <g transform="translate(59.24838 540.176059) scale(0.1 -0.1)">
       <use xlink:href="#DejaVuSans-30"/>
      </g>
     </g>
    </g>
    <g id="ytick_2">
     <g id="line2d_9">
      <g>
       <use xlink:href="#m9f10f69652" x="72.61088" y="462.132537" style="stroke: #000000; stroke-width: 0.8"/>
      </g>
     </g>
     <g id="text_10">
      <!-- 10 -->
      <g transform="translate(52.88588 465.931756) scale(0.1 -0.1)">
       <use xlink:href="#DejaVuSans-31"/>
       <use xlink:href="#DejaVuSans-30" x="63.623047"/>
      </g>
     </g>
    </g>
    <g id="ytick_3">
     <g id="line2d_10">
      <g>
       <use xlink:href="#m9f10f69652" x="72.61088" y="387.888235" style="stroke: #000000; stroke-width: 0.8"/>
      </g>
     </g>
     <g id="text_11">
      <!-- 20 -->
      <g transform="translate(52.88588 391.687454) scale(0.1 -0.1)">
       <use xlink:href="#DejaVuSans-32"/>
       <use xlink:href="#DejaVuSans-30" x="63.623047"/>
      </g>
     </g>
    </g>
    <g id="ytick_4">
     <g id="line2d_11">
      <g>
       <use xlink:href="#m9f10f69652" x="72.61088" y="313.643932" style="stroke: #000000; stroke-width: 0.8"/>
      </g>
     </g>
     <g id="text_12">
      <!-- 30 -->
      <g transform="translate(52.88588 317.443151) scale(0.1 -0.1)">
       <use xlink:href="#DejaVuSans-33"/>
       <use xlink:href="#DejaVuSans-30" x="63.623047"/>
      </g>
     </g>
    </g>
    <g id="ytick_5">
     <g id="line2d_12">
      <g>
       <use xlink:href="#m9f10f69652" x="72.61088" y="239.39963" style="stroke: #000000; stroke-width: 0.8"/>
      </g>
     </g>
     <g id="text_13">
      <!-- 40 -->
      <g transform="translate(52.88588 243.198849) scale(0.1 -0.1)">
       <use xlink:href="#DejaVuSans-34"/>
       <use xlink:href="#DejaVuSans-30" x="63.623047"/>
      </g>
     </g>
    </g>
    <g id="ytick_6">
     <g id="line2d_13">
      <g>
       <use xlink:href="#m9f10f69652" x="72.61088" y="165.155327" style="stroke: #000000; stroke-width: 0.8"/>
      </g>
     </g>
     <g id="text_14">
      <!-- 50 -->
      <g transform="translate(52.88588 168.954546) scale(0.1 -0.1)">
       <use xlink:href="#DejaVuSans-35"/>
       <use xlink:href="#DejaVuSans-30" x="63.623047"/>
      </g>
     </g>
    </g>
    <g id="ytick_7">
     <g id="line2d_14">
      <g>
       <use xlink:href="#m9f10f69652" x="72.61088" y="90.911025" style="stroke: #000000; stroke-width: 0.8"/>
      </g>
     </g>
     <g id="text_15">
      <!-- 60 -->
      <g transform="translate(52.88588 94.710243) scale(0.1 -0.1)">
       <use xlink:href="#DejaVuSans-36"/>
       <use xlink:href="#DejaVuSans-30" x="63.623047"/>
      </g>
     </g>
    </g>
    <g id="text_16">
     <!-- Packets per Second -->
     <g transform="translate(45.766349 360.639549) rotate(-90) scale(0.15 -0.15)">
      <defs>
       <path id="DejaVuSans-50" d="M 1259 4147 
L 1259 2394 
L 2053 2394 
Q 2494 2394 2734 2622 
Q 2975 2850 2975 3272 
Q 2975 3691 2734 3919 
Q 2494 4147 2053 4147 
L 1259 4147 
z
M 628 4666 
L 2053 4666 
Q 2838 4666 3239 4311 
Q 3641 3956 3641 3272 
Q 3641 2581 3239 2228 
Q 2838 1875 2053 1875 
L 1259 1875 
L 1259 0 
L 628 0 
L 628 4666 
z
" transform="scale(0.015625)"/>
       <path id="DejaVuSans-61" d="M 2194 1759 
Q 1497 1759 1228 1600 
Q 959 1441 959 1056 
Q 959 750 1161 570 
Q 1363 391 1709 391 
Q 2188 391 2477 730 
Q 2766 1069 2766 1631 
L 2766 1759 
L 2194 1759 
z
M 3341 1997 
L 3341 0 
L 2766 0 
L 2766 531 
Q 2569 213 2275 61 
Q 1981 -91 1556 -91 
Q 1019 -91 701 211 
Q 384 513 384 1019 
Q 384 1609 779 1909 
Q 1175 2209 1959 2209 
L 2766 2209 
L 2766 2266 
Q 2766 2663 2505 2880 
Q 2244 3097 1772 3097 
Q 1472 3097 1187 3025 
Q 903 2953 641 2809 
L 641 3341 
Q 956 3463 1253 3523 
Q 1550 3584 1831 3584 
Q 2591 3584 2966 3190 
Q 3341 2797 3341 1997 
z
" transform="scale(0.015625)"/>
       <path id="DejaVuSans-63" d="M 3122 3366 
L 3122 2828 
Q 2878 2963 2633 3030 
Q 2388 3097 2138 3097 
Q 1578 3097 1268 2742 
Q 959 2388 959 1747 
Q 959 1106 1268 751 
Q 1578 397 2138 397 
Q 2388 397 2633 464 
Q 2878 531 3122 666 
L 3122 134 
Q 2881 22 2623 -34 
Q 2366 -91 2075 -91 
Q 1284 -91 818 406 
Q 353 903 353 1747 
Q 353 2603 823 3093 
Q 1294 3584 2113 3584 
Q 2378 3584 2631 3529 
Q 2884 3475 3122 3366 
z
" transform="scale(0.015625)"/>
       <path id="DejaVuSans-6b" d="M 581 4863 
L 1159 4863 
L 1159 1991 
L 2875 3500 
L 3609 3500 
L 1753 1863 
L 3688 0 
L 2938 0 
L 1159 1709 
L 1159 0 
L 581 0 
L 581 4863 
z
" transform="scale(0.015625)"/>
       <path id="DejaVuSans-74" d="M 1172 4494 
L 1172 3500 
L 2356 3500 
L 2356 3053 
L 1172 3053 
L 1172 1153 
Q 1172 725 1289 603 
Q 1406 481 1766 481 
L 2356 481 
L 2356 0 
L 1766 0 
Q 1100 0 847 248 
Q 594 497 594 1153 
L 594 3053 
L 172 3053 
L 172 3500 
L 594 3500 
L 594 4494 
L 1172 4494 
z
" transform="scale(0.015625)"/>
       <path id="DejaVuSans-70" d="M 1159 525 
L 1159 -1331 
L 581 -1331 
L 581 3500 
L 1159 3500 
L 1159 2969 
Q 1341 3281 1617 3432 
Q 1894 3584 2278 3584 
Q 2916 3584 3314 3078 
Q 3713 2572 3713 1747 
Q 3713 922 3314 415 
Q 2916 -91 2278 -91 
Q 1894 -91 1617 61 
Q 1341 213 1159 525 
z
M 3116 1747 
Q 3116 2381 2855 2742 
Q 2594 3103 2138 3103 
Q 1681 3103 1420 2742 
Q 1159 2381 1159 1747 
Q 1159 1113 1420 752 
Q 1681 391 2138 391 
Q 2594 391 2855 752 
Q 3116 1113 3116 1747 
z
" transform="scale(0.015625)"/>
       <path id="DejaVuSans-72" d="M 2631 2963 
Q 2534 3019 2420 3045 
Q 2306 3072 2169 3072 
Q 1681 3072 1420 2755 
Q 1159 2438 1159 1844 
L 1159 0 
L 581 0 
L 581 3500 
L 1159 3500 
L 1159 2956 
Q 1341 3275 1631 3429 
Q 1922 3584 2338 3584 
Q 2397 3584 2469 3576 
Q 2541 3569 2628 3553 
L 2631 2963 
z
" transform="scale(0.015625)"/>
       <path id="DejaVuSans-53" d="M 3425 4513 
L 3425 3897 
Q 3066 4069 2747 4153 
Q 2428 4238 2131 4238 
Q 1616 4238 1336 4038 
Q 1056 3838 1056 3469 
Q 1056 3159 1242 3001 
Q 1428 2844 1947 2747 
L 2328 2669 
Q 3034 2534 3370 2195 
Q 3706 1856 3706 1288 
Q 3706 609 3251 259 
Q 2797 -91 1919 -91 
Q 1588 -91 1214 -16 
Q 841 59 441 206 
L 441 856 
Q 825 641 1194 531 
Q 1563 422 1919 422 
Q 2459 422 2753 634 
Q 3047 847 3047 1241 
Q 3047 1584 2836 1778 
Q 2625 1972 2144 2069 
L 1759 2144 
Q 1053 2284 737 2584 
Q 422 2884 422 3419 
Q 422 4038 858 4394 
Q 1294 4750 2059 4750 
Q 2388 4750 2728 4690 
Q 3069 4631 3425 4513 
z
" transform="scale(0.015625)"/>
       <path id="DejaVuSans-6f" d="M 1959 3097 
Q 1497 3097 1228 2736 
Q 959 2375 959 1747 
Q 959 1119 1226 758 
Q 1494 397 1959 397 
Q 2419 397 2687 759 
Q 2956 1122 2956 1747 
Q 2956 2369 2687 2733 
Q 2419 3097 1959 3097 
z
M 1959 3584 
Q 2709 3584 3137 3096 
Q 3566 2609 3566 1747 
Q 3566 888 3137 398 
Q 2709 -91 1959 -91 
Q 1206 -91 779 398 
Q 353 888 353 1747 
Q 353 2609 779 3096 
Q 1206 3584 1959 3584 
z
" transform="scale(0.015625)"/>
       <path id="DejaVuSans-6e" d="M 3513 2113 
L 3513 0 
L 2938 0 
L 2938 2094 
Q 2938 2591 2744 2837 
Q 2550 3084 2163 3084 
Q 1697 3084 1428 2787 
Q 1159 2491 1159 1978 
L 1159 0 
L 581 0 
L 581 3500 
L 1159 3500 
L 1159 2956 
Q 1366 3272 1645 3428 
Q 1925 3584 2291 3584 
Q 2894 3584 3203 3211 
Q 3513 2838 3513 2113 
z
" transform="scale(0.015625)"/>
       <path id="DejaVuSans-64" d="M 2906 2969 
L 2906 4863 
L 3481 4863 
L 3481 0 
L 2906 0 
L 2906 525 
Q 2725 213 2448 61 
Q 2172 -91 1784 -91 
Q 1150 -91 751 415 
Q 353 922 353 1747 
Q 353 2572 751 3078 
Q 1150 3584 1784 3584 
Q 2172 3584 2448 3432 
Q 2725 3281 2906 2969 
z
M 947 1747 
Q 947 1113 1208 752 
Q 1469 391 1925 391 
Q 2381 391 2643 752 
Q 2906 1113 2906 1747 
Q 2906 2381 2643 2742 
Q 2381 3103 1925 3103 
Q 1469 3103 1208 2742 
Q 947 2381 947 1747 
z
" transform="scale(0.015625)"/>
      </defs>
      <use xlink:href="#DejaVuSans-50"/>
      <use xlink:href="#DejaVuSans-61" x="55.802734"/>
      <use xlink:href="#DejaVuSans-63" x="117.082031"/>
      <use xlink:href="#DejaVuSans-6b" x="172.0625"/>
      <use xlink:href="#DejaVuSans-65" x="226.347656"/>
      <use xlink:href="#DejaVuSans-74" x="287.871094"/>
      <use xlink:href="#DejaVuSans-73" x="327.080078"/>
      <use xlink:href="#DejaVuSans-20" x="379.179688"/>
      <use xlink:href="#DejaVuSans-70" x="410.966797"/>
      <use xlink:href="#DejaVuSans-65" x="474.443359"/>
      <use xlink:href="#DejaVuSans-72" x="535.966797"/>
      <use xlink:href="#DejaVuSans-20" x="577.080078"/>
      <use xlink:href="#DejaVuSans-53" x="608.867188"/>
      <use xlink:href="#DejaVuSans-65" x="672.34375"/>
      <use xlink:href="#DejaVuSans-63" x="733.867188"/>
      <use xlink:href="#DejaVuSans-6f" x="788.847656"/>
      <use xlink:href="#DejaVuSans-6e" x="850.029297"/>
      <use xlink:href="#DejaVuSans-64" x="913.408203"/>
     </g>
    </g>
   </g>
   <g id="line2d_15">
    <path d="M 72.61088 90.911172 
L 75.164004 90.915885 
L 77.718272 91.115373 
L 80.270916 90.832105 
L 82.824038 90.915506 
L 85.382943 91.922217 
L 87.930365 89.918698 
L 90.483402 90.900712 
L 116.014369 90.904182 
L 118.567831 90.974817 
L 121.120787 90.88644 
L 123.674189 90.964318 
L 126.22701 90.863081 
L 128.780169 90.921985 
L 131.332986 90.862328 
L 133.88637 90.961214 
L 138.992295 90.888788 
L 141.545706 90.965919 
L 146.651736 90.908272 
L 151.758299 90.947251 
L 154.311034 90.847969 
L 159.417381 90.935123 
L 164.523632 90.942348 
L 182.395728 90.942782 
L 184.948105 90.785617 
L 187.501351 90.937116 
L 190.054495 90.919399 
L 192.608324 91.038772 
L 195.161202 90.872941 
L 197.714042 90.866309 
L 200.267702 91.009353 
L 202.820185 90.804018 
L 207.927066 91.061345 
L 210.479657 90.822948 
L 213.033129 90.976487 
L 215.586081 90.885959 
L 218.139211 90.916793 
L 220.691786 90.820138 
L 223.245753 91.062901 
L 225.798024 90.76697 
L 228.351722 91.015974 
L 230.90461 90.874712 
L 233.458026 90.966774 
L 236.010322 90.77141 
L 238.564342 91.072 
L 241.11714 90.859062 
L 243.669725 90.821731 
L 251.329935 91.04393 
L 253.882523 90.822248 
L 256.435231 90.843317 
L 258.989072 91.040983 
L 261.541845 90.854639 
L 264.094525 90.838299 
L 266.648514 91.066734 
L 269.201119 90.825356 
L 271.76604 92.964615 
L 274.318991 90.885694 
L 276.877164 91.795004 
L 279.430188 90.898482 
L 281.984474 91.1186 
L 284.536762 90.76981 
L 287.090167 90.964917 
L 292.196113 90.876924 
L 297.302538 90.917424 
L 299.85545 90.878993 
L 302.408881 90.969438 
L 304.961696 90.861913 
L 310.068221 90.972504 
L 312.621053 90.864821 
L 320.280472 90.904327 
L 322.833604 90.917208 
L 325.386073 90.801571 
L 333.046724 91.076923 
L 335.600168 90.971765 
L 338.154053 91.048573 
L 343.260506 90.883331 
L 345.817096 91.519829 
L 348.37059 90.980362 
L 350.923584 90.893118 
L 353.478965 91.30938 
L 356.034269 91.295784 
L 358.592757 91.849906 
L 361.140884 90.042192 
L 363.694169 90.94402 
L 366.249878 91.366373 
L 368.802341 90.800477 
L 371.355067 90.84655 
L 373.911335 91.463762 
L 379.020204 91.059082 
L 381.573813 91.000637 
L 384.127884 91.080976 
L 386.680841 90.886781 
L 389.233737 90.87606 
L 391.790746 91.592599 
L 394.342723 90.715582 
L 399.449815 91.045751 
L 402.001943 90.742009 
L 404.55619 91.111806 
L 407.108986 90.858632 
L 409.661076 90.735232 
L 412.215702 91.177803 
L 414.768813 90.91366 
L 417.327112 91.817004 
L 419.874761 89.958464 
L 422.426401 90.656768 
L 430.100879 92.364096 
L 432.645715 89.46525 
L 435.19334 89.954267 
L 437.761866 93.587014 
L 440.298096 125.317711 
L 442.852788 54.090314 
L 445.410916 91.787226 
L 447.959118 90.055362 
L 450.517424 91.818147 
L 453.063597 89.699815 
L 455.616688 90.910114 
L 458.17155 91.218894 
L 460.72412 90.819142 
L 463.283218 91.955772 
L 465.830712 89.931325 
L 468.383532 90.862838 
L 470.94088 91.651719 
L 473.495495 91.17583 
L 476.048111 90.827259 
L 478.60168 90.993483 
L 481.149374 89.966391 
L 483.707703 91.822091 
L 486.259642 90.709106 
L 488.808872 127.413863 
L 491.366645 54.671238 
L 493.920408 91.027379 
L 496.468064 89.959824 
L 499.019436 90.609943 
L 501.581135 92.406952 
L 504.133283 90.745484 
L 506.684641 90.607543 
L 511.792833 91.256932 
L 514.345134 90.772087 
L 516.898968 91.039729 
L 519.45174 90.85451 
L 522.004801 90.904837 
L 524.560259 91.322724 
L 527.118867 91.870685 
L 529.672633 91.027795 
L 532.220823 90.053271 
L 534.773978 90.921304 
L 539.878939 90.769489 
L 542.43191 90.889249 
L 544.986439 91.160871 
L 547.5395 90.904826 
L 550.097437 91.754061 
L 552.650243 90.860307 
L 555.224364 94.549405 
L 557.767568 89.17839 
L 560.317536 90.36445 
L 562.870615 90.908134 
L 567.976426 90.833389 
L 570.534054 91.70027 
L 575.646382 91.328173 
L 578.194056 89.962931 
L 580.747254 128.049389 
L 585.857464 54.627051 
L 588.404996 89.938065 
L 590.964929 92.100829 
L 593.512759 89.990288 
L 598.623965 91.776388 
L 601.176164 90.754442 
L 603.723652 89.930311 
L 606.278284 91.178849 
L 608.831432 90.920101 
L 613.937218 90.839251 
L 616.489376 90.747231 
L 619.047897 91.85553 
L 621.602368 91.150841 
L 624.150084 89.970312 
L 626.703215 90.917003 
L 629.272738 93.758932 
L 631.809087 87.969605 
L 634.367463 91.830325 
L 636.922 91.16235 
L 639.475092 90.910205 
L 642.028247 90.921355 
L 644.575632 127.117645 
L 647.132965 54.588267 
L 649.685962 90.893776 
L 652.240443 91.152472 
L 654.79375 90.947873 
L 657.35278 91.943851 
L 659.909637 91.566257 
L 662.471774 92.482937 
L 665.009164 88.153652 
L 667.569416 92.155929 
L 670.122523 90.913009 
L 672.675619 90.910895 
L 675.22293 89.899378 
L 677.774904 90.715072 
L 680.32776 90.869165 
L 682.882695 91.231567 
L 685.435772 90.907719 
L 690.541585 90.840494 
L 693.093555 90.714421 
L 695.646408 90.868543 
L 698.201406 91.242596 
L 700.759733 91.821805 
L 703.307555 89.988829 
L 705.865678 91.786417 
L 708.417447 90.679422 
L 710.964998 89.941358 
L 713.520535 128.423068 
L 716.091338 57.112745 
L 718.647246 128.482459 
L 721.199764 90.810108 
L 723.753401 91.005443 
L 726.306351 90.88546 
L 728.871249 56.009401 
L 731.421759 90.459243 
L 733.979043 91.640477 
L 736.531942 90.876592 
L 739.103999 94.194966 
L 741.63646 87.281191 
L 744.210207 94.485376 
L 749.295594 87.256841 
L 751.846002 90.441484 
L 754.40216 91.444581 
L 756.954809 90.833075 
L 759.524664 93.815959 
L 762.081763 91.608357 
L 764.635033 90.941274 
L 767.17081 87.868562 
L 769.722575 90.678689 
L 772.275508 90.882473 
L 774.828548 90.901224 
L 777.379729 90.576559 
L 779.930641 90.529692 
L 782.486354 91.367062 
L 785.040934 91.169766 
L 787.592974 90.726619 
L 790.145146 127.885326 
L 792.695921 90.505697 
L 795.252284 91.480141 
L 797.804522 90.761338 
L 800.358502 53.955738 
L 805.466079 128.15584 
L 808.015242 90.223703 
L 810.568789 90.989613 
L 813.124152 91.306201 
L 815.678564 54.037505 
L 818.231005 127.92826 
L 820.783329 90.776235 
L 823.337306 91.064722 
L 825.890123 90.86231 
L 828.442854 90.847256 
L 830.993175 53.263763 
L 833.550072 128.640051 
L 836.10182 90.675663 
L 838.655994 91.099114 
L 841.208414 90.792923 
L 843.759 53.313827 
L 846.31549 91.502378 
L 846.31549 91.502378 
" clip-path="url(#pcbcbf21264)" style="fill: none; stroke: #1f77b4; stroke-width: 1.5; stroke-linecap: square"/>
   </g>
   <g id="line2d_16">
    <path d="M 72.61088 90.979214 
L 885.00072 90.979214 
" clip-path="url(#pcbcbf21264)" style="fill: none; stroke-dasharray: 5.55,2.4; stroke-dashoffset: 0; stroke: #0000ff; stroke-width: 1.5"/>
   </g>
   <g id="line2d_17">
    <path d="M 72.61088 313.642399 
L 82.82401 313.64504 
L 85.383058 314.161996 
L 87.930502 350.354203 
L 90.483273 276.488739 
L 95.58981 350.791508 
L 98.142576 276.488114 
L 103.24911 350.791458 
L 108.354983 276.492694 
L 110.908084 313.644383 
L 116.014317 313.645712 
L 118.567947 350.804864 
L 121.120829 313.625257 
L 128.780142 313.645375 
L 131.332925 276.489838 
L 133.886339 350.789184 
L 136.439109 276.488595 
L 141.54565 350.789953 
L 144.098398 276.486268 
L 146.651823 350.790038 
L 151.757811 276.501685 
L 154.311118 350.781393 
L 156.86391 276.490883 
L 161.970441 350.791695 
L 164.523538 313.644023 
L 172.183059 313.665016 
L 174.73561 276.466254 
L 177.289042 350.790499 
L 179.842094 313.640057 
L 182.395225 313.646927 
L 184.947994 276.488485 
L 187.501151 313.649222 
L 192.607556 313.661918 
L 195.160757 350.773698 
L 197.713862 313.644702 
L 215.585564 313.644271 
L 218.138345 276.489703 
L 220.691811 350.793003 
L 225.797612 276.485427 
L 230.904163 350.7896 
L 233.457261 313.644148 
L 241.11655 313.646306 
L 243.669364 276.493025 
L 248.775918 350.792796 
L 251.328988 313.641625 
L 253.88208 313.643524 
L 256.434859 276.489529 
L 261.54136 350.787144 
L 264.094147 276.490297 
L 266.64754 350.78765 
L 271.765848 277.752301 
L 274.317966 350.694972 
L 276.876651 277.089303 
L 279.42998 350.783035 
L 281.982854 276.499129 
L 284.536154 350.780941 
L 287.088927 276.488821 
L 289.642022 313.643796 
L 294.748219 313.644197 
L 297.301668 350.791726 
L 299.854434 276.48818 
L 302.40783 350.787862 
L 304.960624 276.491043 
L 310.067137 350.788609 
L 312.61995 276.49294 
L 315.173044 313.643804 
L 317.726124 313.6425 
L 320.279518 350.787742 
L 322.83267 313.648781 
L 335.599027 313.673867 
L 338.153298 313.746384 
L 340.707118 313.707115 
L 343.260081 276.508137 
L 345.815935 350.966395 
L 350.922335 276.492088 
L 353.47827 350.972205 
L 358.59247 277.08729 
L 363.693039 350.789341 
L 368.801426 276.480782 
L 373.910815 350.9981 
L 376.465107 313.748123 
L 381.573598 313.772863 
L 384.126195 276.470964 
L 386.679263 313.641511 
L 389.232345 313.642665 
L 391.789409 351.054092 
L 394.342323 313.628045 
L 402.001611 313.6396 
L 404.55441 276.491504 
L 407.107818 350.788743 
L 409.660966 313.648426 
L 417.320556 313.668312 
L 419.873022 276.457595 
L 424.979381 350.778633 
L 427.532929 313.68333 
L 430.088039 313.819461 
L 432.639149 313.470519 
L 435.191566 276.452641 
L 437.747422 350.966474 
L 442.850886 276.504685 
L 445.404638 350.813744 
L 447.957326 313.608352 
L 450.510862 313.682212 
L 453.063301 276.454865 
L 455.616383 313.642718 
L 458.169486 313.644523 
L 460.7228 350.781936 
L 465.828805 276.454452 
L 470.935618 350.813577 
L 473.488706 313.643137 
L 478.594943 313.645193 
L 481.147402 276.456874 
L 483.701149 350.81337 
L 486.254225 313.642169 
L 488.806756 313.594589 
L 491.360423 313.693698 
L 493.913564 313.647838 
L 496.466028 276.457431 
L 499.019103 313.642094 
L 501.578941 314.230557 
L 504.131208 313.571512 
L 509.237419 313.644786 
L 522.002933 313.643281 
L 524.559659 313.960114 
L 527.113308 350.80622 
L 532.21887 276.447744 
L 534.772002 313.647093 
L 542.431281 313.645683 
L 544.984594 350.781818 
L 547.53747 276.499389 
L 550.09123 350.814328 
L 552.644368 313.647568 
L 555.199451 313.817178 
L 557.767084 277.992944 
L 560.315416 313.227533 
L 562.868536 313.645966 
L 565.421862 350.782749 
L 567.974743 276.499908 
L 570.528479 350.812618 
L 573.090148 277.391398 
L 575.639484 350.492281 
L 578.191921 276.45467 
L 580.745105 350.772483 
L 583.29817 313.641141 
L 585.85187 313.696606 
L 588.404313 276.455284 
L 590.958069 350.814047 
L 593.510546 276.458718 
L 598.617381 350.809713 
L 603.72296 276.459563 
L 606.276034 313.642011 
L 616.488465 313.645801 
L 619.042209 350.813163 
L 624.147745 276.45424 
L 626.700881 313.647336 
L 629.270972 315.116773 
L 631.808065 312.239046 
L 634.366903 314.143706 
L 636.914889 350.393819 
L 639.468002 313.64536 
L 654.786624 313.674436 
L 657.350493 277.613608 
L 659.902848 350.712169 
L 665.0084 276.244742 
L 667.562147 350.813374 
L 670.11525 313.644485 
L 672.668359 313.64507 
L 675.22081 276.456082 
L 677.773892 313.642706 
L 698.198719 313.645231 
L 700.75245 350.812202 
L 703.304912 276.457237 
L 705.858646 350.812399 
L 710.964183 276.453705 
L 713.517678 350.795028 
L 716.090743 278.53842 
L 718.644027 350.779721 
L 721.197197 313.650408 
L 726.303464 313.653421 
L 728.868546 277.736052 
L 731.420762 350.702032 
L 733.974008 313.656959 
L 736.526842 313.621062 
L 739.081166 313.751023 
L 741.633087 276.402094 
L 744.187379 350.852954 
L 749.292363 276.397511 
L 751.84546 313.644037 
L 756.951645 313.641487 
L 759.510899 351.212628 
L 762.059143 313.219799 
L 764.612176 313.63845 
L 767.164061 313.538166 
L 772.270304 313.648117 
L 774.823376 313.641804 
L 777.376461 276.520656 
L 779.929963 313.679294 
L 782.482641 313.607465 
L 785.035788 350.769787 
L 787.58965 313.710697 
L 790.142422 313.615634 
L 797.801734 313.646351 
L 800.354701 276.508604 
L 802.908194 350.794946 
L 805.461053 313.623239 
L 823.332719 313.647404 
L 841.204414 313.644802 
L 843.757436 276.51417 
L 846.310587 350.77008 
L 846.310587 350.77008 
" clip-path="url(#pcbcbf21264)" style="fill: none; stroke: #ff7f0e; stroke-width: 1.5; stroke-linecap: square"/>
   </g>
   <g id="line2d_18">
    <path d="M 72.61088 313.799839 
L 885.00072 313.799839 
" clip-path="url(#pcbcbf21264)" style="fill: none; stroke-dasharray: 5.55,2.4; stroke-dashoffset: 0; stroke: #ffa500; stroke-width: 1.5"/>
   </g>
   <g id="patch_3">
    <path d="M 72.61088 536.37684 
L 72.61088 38.36632 
" style="fill: none; stroke: #000000; stroke-width: 0.8; stroke-linejoin: miter; stroke-linecap: square"/>
   </g>
   <g id="patch_4">
    <path d="M 885.00072 536.37684 
L 885.00072 38.36632 
" style="fill: none; stroke: #000000; stroke-width: 0.8; stroke-linejoin: miter; stroke-linecap: square"/>
   </g>
   <g id="patch_5">
    <path d="M 72.61088 536.37684 
L 885.00072 536.37684 
" style="fill: none; stroke: #000000; stroke-width: 0.8; stroke-linejoin: miter; stroke-linecap: square"/>
   </g>
   <g id="patch_6">
    <path d="M 72.61088 38.36632 
L 885.00072 38.36632 
" style="fill: none; stroke: #000000; stroke-width: 0.8; stroke-linejoin: miter; stroke-linecap: square"/>
   </g>
   <g id="text_17">
    <!-- Observed and Filtered Packet Rates -->
    <g transform="translate(329.683488 32.36632) scale(0.168 -0.168)">
     <defs>
      <path id="DejaVuSans-4f" d="M 2522 4238 
Q 1834 4238 1429 3725 
Q 1025 3213 1025 2328 
Q 1025 1447 1429 934 
Q 1834 422 2522 422 
Q 3209 422 3611 934 
Q 4013 1447 4013 2328 
Q 4013 3213 3611 3725 
Q 3209 4238 2522 4238 
z
M 2522 4750 
Q 3503 4750 4090 4092 
Q 4678 3434 4678 2328 
Q 4678 1225 4090 567 
Q 3503 -91 2522 -91 
Q 1538 -91 948 565 
Q 359 1222 359 2328 
Q 359 3434 948 4092 
Q 1538 4750 2522 4750 
z
" transform="scale(0.015625)"/>
      <path id="DejaVuSans-62" d="M 3116 1747 
Q 3116 2381 2855 2742 
Q 2594 3103 2138 3103 
Q 1681 3103 1420 2742 
Q 1159 2381 1159 1747 
Q 1159 1113 1420 752 
Q 1681 391 2138 391 
Q 2594 391 2855 752 
Q 3116 1113 3116 1747 
z
M 1159 2969 
Q 1341 3281 1617 3432 
Q 1894 3584 2278 3584 
Q 2916 3584 3314 3078 
Q 3713 2572 3713 1747 
Q 3713 922 3314 415 
Q 2916 -91 2278 -91 
Q 1894 -91 1617 61 
Q 1341 213 1159 525 
L 1159 0 
L 581 0 
L 581 4863 
L 1159 4863 
L 1159 2969 
z
" transform="scale(0.015625)"/>
      <path id="DejaVuSans-76" d="M 191 3500 
L 800 3500 
L 1894 563 
L 2988 3500 
L 3597 3500 
L 2284 0 
L 1503 0 
L 191 3500 
z
" transform="scale(0.015625)"/>
      <path id="DejaVuSans-46" d="M 628 4666 
L 3309 4666 
L 3309 4134 
L 1259 4134 
L 1259 2759 
L 3109 2759 
L 3109 2228 
L 1259 2228 
L 1259 0 
L 628 0 
L 628 4666 
z
" transform="scale(0.015625)"/>
      <path id="DejaVuSans-6c" d="M 603 4863 
L 1178 4863 
L 1178 0 
L 603 0 
L 603 4863 
z
" transform="scale(0.015625)"/>
      <path id="DejaVuSans-52" d="M 2841 2188 
Q 3044 2119 3236 1894 
Q 3428 1669 3622 1275 
L 4263 0 
L 3584 0 
L 2988 1197 
Q 2756 1666 2539 1819 
Q 2322 1972 1947 1972 
L 1259 1972 
L 1259 0 
L 628 0 
L 628 4666 
L 2053 4666 
Q 2853 4666 3247 4331 
Q 3641 3997 3641 3322 
Q 3641 2881 3436 2590 
Q 3231 2300 2841 2188 
z
M 1259 4147 
L 1259 2491 
L 2053 2491 
Q 2509 2491 2742 2702 
Q 2975 2913 2975 3322 
Q 2975 3731 2742 3939 
Q 2509 4147 2053 4147 
L 1259 4147 
z
" transform="scale(0.015625)"/>
     </defs>
     <use xlink:href="#DejaVuSans-4f"/>
     <use xlink:href="#DejaVuSans-62" x="78.710938"/>
     <use xlink:href="#DejaVuSans-73" x="142.1875"/>
     <use xlink:href="#DejaVuSans-65" x="194.287109"/>
     <use xlink:href="#DejaVuSans-72" x="255.810547"/>
     <use xlink:href="#DejaVuSans-76" x="296.923828"/>
     <use xlink:href="#DejaVuSans-65" x="356.103516"/>
     <use xlink:href="#DejaVuSans-64" x="417.626953"/>
     <use xlink:href="#DejaVuSans-20" x="481.103516"/>
     <use xlink:href="#DejaVuSans-61" x="512.890625"/>
     <use xlink:href="#DejaVuSans-6e" x="574.169922"/>
     <use xlink:href="#DejaVuSans-64" x="637.548828"/>
     <use xlink:href="#DejaVuSans-20" x="701.025391"/>
     <use xlink:href="#DejaVuSans-46" x="732.8125"/>
     <use xlink:href="#DejaVuSans-69" x="783.082031"/>
     <use xlink:href="#DejaVuSans-6c" x="810.865234"/>
     <use xlink:href="#DejaVuSans-74" x="838.648438"/>
     <use xlink:href="#DejaVuSans-65" x="877.857422"/>
     <use xlink:href="#DejaVuSans-72" x="939.380859"/>
     <use xlink:href="#DejaVuSans-65" x="978.244141"/>
     <use xlink:href="#DejaVuSans-64" x="1039.767578"/>
     <use xlink:href="#DejaVuSans-20" x="1103.244141"/>
     <use xlink:href="#DejaVuSans-50" x="1135.03125"/>
     <use xlink:href="#DejaVuSans-61" x="1190.833984"/>
     <use xlink:href="#DejaVuSans-63" x="1252.113281"/>
     <use xlink:href="#DejaVuSans-6b" x="1307.09375"/>
     <use xlink:href="#DejaVuSans-65" x="1361.378906"/>
     <use xlink:href="#DejaVuSans-74" x="1422.902344"/>
     <use xlink:href="#DejaVuSans-20" x="1462.111328"/>
     <use xlink:href="#DejaVuSans-52" x="1493.898438"/>
     <use xlink:href="#DejaVuSans-61" x="1561.130859"/>
     <use xlink:href="#DejaVuSans-74" x="1622.410156"/>
     <use xlink:href="#DejaVuSans-65" x="1661.619141"/>
     <use xlink:href="#DejaVuSans-73" x="1723.142578"/>
    </g>
   </g>
   <g id="legend_1">
    <g id="patch_7">
     <path d="M 894.80072 330.57033 
L 1161.636345 330.57033 
Q 1164.436345 330.57033 1164.436345 327.77033 
L 1164.436345 246.97283 
Q 1164.436345 244.17283 1161.636345 244.17283 
L 894.80072 244.17283 
Q 892.00072 244.17283 892.00072 246.97283 
L 892.00072 327.77033 
Q 892.00072 330.57033 894.80072 330.57033 
z
" style="fill: #ffffff; opacity: 0.8; stroke: #cccccc; stroke-linejoin: miter"/>
    </g>
    <g id="line2d_19">
     <path d="M 897.60072 255.510642 
L 911.60072 255.510642 
L 925.60072 255.510642 
" style="fill: none; stroke: #1f77b4; stroke-width: 1.5; stroke-linecap: square"/>
    </g>
    <g id="text_18">
     <!-- Filtered packets Cam 1 -->
     <g transform="translate(936.80072 260.410642) scale(0.14 -0.14)">
      <defs>
       <path id="DejaVuSans-43" d="M 4122 4306 
L 4122 3641 
Q 3803 3938 3442 4084 
Q 3081 4231 2675 4231 
Q 1875 4231 1450 3742 
Q 1025 3253 1025 2328 
Q 1025 1406 1450 917 
Q 1875 428 2675 428 
Q 3081 428 3442 575 
Q 3803 722 4122 1019 
L 4122 359 
Q 3791 134 3420 21 
Q 3050 -91 2638 -91 
Q 1578 -91 968 557 
Q 359 1206 359 2328 
Q 359 3453 968 4101 
Q 1578 4750 2638 4750 
Q 3056 4750 3426 4639 
Q 3797 4528 4122 4306 
z
" transform="scale(0.015625)"/>
      </defs>
      <use xlink:href="#DejaVuSans-46"/>
      <use xlink:href="#DejaVuSans-69" x="50.269531"/>
      <use xlink:href="#DejaVuSans-6c" x="78.052734"/>
      <use xlink:href="#DejaVuSans-74" x="105.835938"/>
      <use xlink:href="#DejaVuSans-65" x="145.044922"/>
      <use xlink:href="#DejaVuSans-72" x="206.568359"/>
      <use xlink:href="#DejaVuSans-65" x="245.431641"/>
      <use xlink:href="#DejaVuSans-64" x="306.955078"/>
      <use xlink:href="#DejaVuSans-20" x="370.431641"/>
      <use xlink:href="#DejaVuSans-70" x="402.21875"/>
      <use xlink:href="#DejaVuSans-61" x="465.695312"/>
      <use xlink:href="#DejaVuSans-63" x="526.974609"/>
      <use xlink:href="#DejaVuSans-6b" x="581.955078"/>
      <use xlink:href="#DejaVuSans-65" x="636.240234"/>
      <use xlink:href="#DejaVuSans-74" x="697.763672"/>
      <use xlink:href="#DejaVuSans-73" x="736.972656"/>
      <use xlink:href="#DejaVuSans-20" x="789.072266"/>
      <use xlink:href="#DejaVuSans-43" x="820.859375"/>
      <use xlink:href="#DejaVuSans-61" x="890.683594"/>
      <use xlink:href="#DejaVuSans-6d" x="951.962891"/>
      <use xlink:href="#DejaVuSans-20" x="1049.375"/>
      <use xlink:href="#DejaVuSans-31" x="1081.162109"/>
     </g>
    </g>
    <g id="line2d_20">
     <path d="M 897.60072 276.060018 
L 911.60072 276.060018 
L 925.60072 276.060018 
" style="fill: none; stroke-dasharray: 5.55,2.4; stroke-dashoffset: 0; stroke: #0000ff; stroke-width: 1.5"/>
    </g>
    <g id="text_19">
     <!-- Filtered packets Cam 1 average -->
     <g transform="translate(936.80072 280.960017) scale(0.14 -0.14)">
      <defs>
       <path id="DejaVuSans-67" d="M 2906 1791 
Q 2906 2416 2648 2759 
Q 2391 3103 1925 3103 
Q 1463 3103 1205 2759 
Q 947 2416 947 1791 
Q 947 1169 1205 825 
Q 1463 481 1925 481 
Q 2391 481 2648 825 
Q 2906 1169 2906 1791 
z
M 3481 434 
Q 3481 -459 3084 -895 
Q 2688 -1331 1869 -1331 
Q 1566 -1331 1297 -1286 
Q 1028 -1241 775 -1147 
L 775 -588 
Q 1028 -725 1275 -790 
Q 1522 -856 1778 -856 
Q 2344 -856 2625 -561 
Q 2906 -266 2906 331 
L 2906 616 
Q 2728 306 2450 153 
Q 2172 0 1784 0 
Q 1141 0 747 490 
Q 353 981 353 1791 
Q 353 2603 747 3093 
Q 1141 3584 1784 3584 
Q 2172 3584 2450 3431 
Q 2728 3278 2906 2969 
L 2906 3500 
L 3481 3500 
L 3481 434 
z
" transform="scale(0.015625)"/>
      </defs>
      <use xlink:href="#DejaVuSans-46"/>
      <use xlink:href="#DejaVuSans-69" x="50.269531"/>
      <use xlink:href="#DejaVuSans-6c" x="78.052734"/>
      <use xlink:href="#DejaVuSans-74" x="105.835938"/>
      <use xlink:href="#DejaVuSans-65" x="145.044922"/>
      <use xlink:href="#DejaVuSans-72" x="206.568359"/>
      <use xlink:href="#DejaVuSans-65" x="245.431641"/>
      <use xlink:href="#DejaVuSans-64" x="306.955078"/>
      <use xlink:href="#DejaVuSans-20" x="370.431641"/>
      <use xlink:href="#DejaVuSans-70" x="402.21875"/>
      <use xlink:href="#DejaVuSans-61" x="465.695312"/>
      <use xlink:href="#DejaVuSans-63" x="526.974609"/>
      <use xlink:href="#DejaVuSans-6b" x="581.955078"/>
      <use xlink:href="#DejaVuSans-65" x="636.240234"/>
      <use xlink:href="#DejaVuSans-74" x="697.763672"/>
      <use xlink:href="#DejaVuSans-73" x="736.972656"/>
      <use xlink:href="#DejaVuSans-20" x="789.072266"/>
      <use xlink:href="#DejaVuSans-43" x="820.859375"/>
      <use xlink:href="#DejaVuSans-61" x="890.683594"/>
      <use xlink:href="#DejaVuSans-6d" x="951.962891"/>
      <use xlink:href="#DejaVuSans-20" x="1049.375"/>
      <use xlink:href="#DejaVuSans-31" x="1081.162109"/>
      <use xlink:href="#DejaVuSans-20" x="1144.785156"/>
      <use xlink:href="#DejaVuSans-61" x="1176.572266"/>
      <use xlink:href="#DejaVuSans-76" x="1237.851562"/>
      <use xlink:href="#DejaVuSans-65" x="1297.03125"/>
      <use xlink:href="#DejaVuSans-72" x="1358.554688"/>
      <use xlink:href="#DejaVuSans-61" x="1399.667969"/>
      <use xlink:href="#DejaVuSans-67" x="1460.947266"/>
      <use xlink:href="#DejaVuSans-65" x="1524.423828"/>
     </g>
    </g>
    <g id="line2d_21">
     <path d="M 897.60072 296.609393 
L 911.60072 296.609393 
L 925.60072 296.609393 
" style="fill: none; stroke: #ff7f0e; stroke-width: 1.5; stroke-linecap: square"/>
    </g>
    <g id="text_20">
     <!-- Filtered packets Cam 2 -->
     <g transform="translate(936.80072 301.509392) scale(0.14 -0.14)">
      <use xlink:href="#DejaVuSans-46"/>
      <use xlink:href="#DejaVuSans-69" x="50.269531"/>
      <use xlink:href="#DejaVuSans-6c" x="78.052734"/>
      <use xlink:href="#DejaVuSans-74" x="105.835938"/>
      <use xlink:href="#DejaVuSans-65" x="145.044922"/>
      <use xlink:href="#DejaVuSans-72" x="206.568359"/>
      <use xlink:href="#DejaVuSans-65" x="245.431641"/>
      <use xlink:href="#DejaVuSans-64" x="306.955078"/>
      <use xlink:href="#DejaVuSans-20" x="370.431641"/>
      <use xlink:href="#DejaVuSans-70" x="402.21875"/>
      <use xlink:href="#DejaVuSans-61" x="465.695312"/>
      <use xlink:href="#DejaVuSans-63" x="526.974609"/>
      <use xlink:href="#DejaVuSans-6b" x="581.955078"/>
      <use xlink:href="#DejaVuSans-65" x="636.240234"/>
      <use xlink:href="#DejaVuSans-74" x="697.763672"/>
      <use xlink:href="#DejaVuSans-73" x="736.972656"/>
      <use xlink:href="#DejaVuSans-20" x="789.072266"/>
      <use xlink:href="#DejaVuSans-43" x="820.859375"/>
      <use xlink:href="#DejaVuSans-61" x="890.683594"/>
      <use xlink:href="#DejaVuSans-6d" x="951.962891"/>
      <use xlink:href="#DejaVuSans-20" x="1049.375"/>
      <use xlink:href="#DejaVuSans-32" x="1081.162109"/>
     </g>
    </g>
    <g id="line2d_22">
     <path d="M 897.60072 317.158768 
L 911.60072 317.158768 
L 925.60072 317.158768 
" style="fill: none; stroke-dasharray: 5.55,2.4; stroke-dashoffset: 0; stroke: #ffa500; stroke-width: 1.5"/>
    </g>
    <g id="text_21">
     <!-- Filtered packets Cam 2 average -->
     <g transform="translate(936.80072 322.058767) scale(0.14 -0.14)">
      <use xlink:href="#DejaVuSans-46"/>
      <use xlink:href="#DejaVuSans-69" x="50.269531"/>
      <use xlink:href="#DejaVuSans-6c" x="78.052734"/>
      <use xlink:href="#DejaVuSans-74" x="105.835938"/>
      <use xlink:href="#DejaVuSans-65" x="145.044922"/>
      <use xlink:href="#DejaVuSans-72" x="206.568359"/>
      <use xlink:href="#DejaVuSans-65" x="245.431641"/>
      <use xlink:href="#DejaVuSans-64" x="306.955078"/>
      <use xlink:href="#DejaVuSans-20" x="370.431641"/>
      <use xlink:href="#DejaVuSans-70" x="402.21875"/>
      <use xlink:href="#DejaVuSans-61" x="465.695312"/>
      <use xlink:href="#DejaVuSans-63" x="526.974609"/>
      <use xlink:href="#DejaVuSans-6b" x="581.955078"/>
      <use xlink:href="#DejaVuSans-65" x="636.240234"/>
      <use xlink:href="#DejaVuSans-74" x="697.763672"/>
      <use xlink:href="#DejaVuSans-73" x="736.972656"/>
      <use xlink:href="#DejaVuSans-20" x="789.072266"/>
      <use xlink:href="#DejaVuSans-43" x="820.859375"/>
      <use xlink:href="#DejaVuSans-61" x="890.683594"/>
      <use xlink:href="#DejaVuSans-6d" x="951.962891"/>
      <use xlink:href="#DejaVuSans-20" x="1049.375"/>
      <use xlink:href="#DejaVuSans-32" x="1081.162109"/>
      <use xlink:href="#DejaVuSans-20" x="1144.785156"/>
      <use xlink:href="#DejaVuSans-61" x="1176.572266"/>
      <use xlink:href="#DejaVuSans-76" x="1237.851562"/>
      <use xlink:href="#DejaVuSans-65" x="1297.03125"/>
      <use xlink:href="#DejaVuSans-72" x="1358.554688"/>
      <use xlink:href="#DejaVuSans-61" x="1399.667969"/>
      <use xlink:href="#DejaVuSans-67" x="1460.947266"/>
      <use xlink:href="#DejaVuSans-65" x="1524.423828"/>
     </g>
    </g>
   </g>
  </g>
 </g>
 <defs>
  <clipPath id="pcbcbf21264">
   <rect x="72.61088" y="38.36632" width="812.38984" height="498.01052"/>
  </clipPath>
 </defs>
</svg>
