<?xml version="1.0" encoding="utf-8" standalone="no"?>
<!DOCTYPE svg PUBLIC "-//W3C//DTD SVG 1.1//EN"
  "http://www.w3.org/Graphics/SVG/1.1/DTD/svg11.dtd">
<svg xmlns:xlink="http://www.w3.org/1999/xlink" width="1008pt" height="720pt" viewBox="0 0 1008 720" xmlns="http://www.w3.org/2000/svg" version="1.1">
 <metadata>
  <rdf:RDF xmlns:dc="http://purl.org/dc/elements/1.1/" xmlns:cc="http://creativecommons.org/ns#" xmlns:rdf="http://www.w3.org/1999/02/22-rdf-syntax-ns#">
   <cc:Work>
    <dc:type rdf:resource="http://purl.org/dc/dcmitype/StillImage"/>
    <dc:date>2023-03-21T15:09:55.633785</dc:date>
    <dc:format>image/svg+xml</dc:format>
    <dc:creator>
     <cc:Agent>
      <dc:title>Matplotlib v3.6.2, https://matplotlib.org/</dc:title>
     </cc:Agent>
    </dc:creator>
   </cc:Work>
  </rdf:RDF>
 </metadata>
 <defs>
  <style type="text/css">*{stroke-linejoin: round; stroke-linecap: butt}</style>
 </defs>
 <g id="figure_1">
  <g id="patch_1">
   <path d="M 0 720 
L 1008 720 
L 1008 0 
L 0 0 
z
" style="fill: #ffffff"/>
  </g>
  <g id="axes_1">
   <g id="patch_2">
    <path d="M 126 640.8 
L 907.2 640.8 
L 907.2 86.4 
L 126 86.4 
z
" style="fill: #ffffff"/>
   </g>
   <g id="matplotlib.axis_1">
    <g id="xtick_1">
     <g id="line2d_1">
      <defs>
       <path id="mf9677ce158" d="M 0 0 
L 0 3.5 
" style="stroke: #000000; stroke-width: 0.8"/>
      </defs>
      <g>
       <use xlink:href="#mf9677ce158" x="144.728504" y="640.8" style="stroke: #000000; stroke-width: 0.8"/>
      </g>
     </g>
     <g id="text_1">
      <!-- 0 -->
      <g transform="translate(141.547254 655.398438) scale(0.1 -0.1)">
       <defs>
        <path id="DejaVuSans-30" d="M 2034 4250 
Q 1547 4250 1301 3770 
Q 1056 3291 1056 2328 
Q 1056 1369 1301 889 
Q 1547 409 2034 409 
Q 2525 409 2770 889 
Q 3016 1369 3016 2328 
Q 3016 3291 2770 3770 
Q 2525 4250 2034 4250 
z
M 2034 4750 
Q 2819 4750 3233 4129 
Q 3647 3509 3647 2328 
Q 3647 1150 3233 529 
Q 2819 -91 2034 -91 
Q 1250 -91 836 529 
Q 422 1150 422 2328 
Q 422 3509 836 4129 
Q 1250 4750 2034 4750 
z
" transform="scale(0.015625)"/>
       </defs>
       <use xlink:href="#DejaVuSans-30"/>
      </g>
     </g>
    </g>
    <g id="xtick_2">
     <g id="line2d_2">
      <g>
       <use xlink:href="#mf9677ce158" x="260.754053" y="640.8" style="stroke: #000000; stroke-width: 0.8"/>
      </g>
     </g>
     <g id="text_2">
      <!-- 10 -->
      <g transform="translate(254.391553 655.398438) scale(0.1 -0.1)">
       <defs>
        <path id="DejaVuSans-31" d="M 794 531 
L 1825 531 
L 1825 4091 
L 703 3866 
L 703 4441 
L 1819 4666 
L 2450 4666 
L 2450 531 
L 3481 531 
L 3481 0 
L 794 0 
L 794 531 
z
" transform="scale(0.015625)"/>
       </defs>
       <use xlink:href="#DejaVuSans-31"/>
       <use xlink:href="#DejaVuSans-30" x="63.623047"/>
      </g>
     </g>
    </g>
    <g id="xtick_3">
     <g id="line2d_3">
      <g>
       <use xlink:href="#mf9677ce158" x="376.779602" y="640.8" style="stroke: #000000; stroke-width: 0.8"/>
      </g>
     </g>
     <g id="text_3">
      <!-- 20 -->
      <g transform="translate(370.417102 655.398438) scale(0.1 -0.1)">
       <defs>
        <path id="DejaVuSans-32" d="M 1228 531 
L 3431 531 
L 3431 0 
L 469 0 
L 469 531 
Q 828 903 1448 1529 
Q 2069 2156 2228 2338 
Q 2531 2678 2651 2914 
Q 2772 3150 2772 3378 
Q 2772 3750 2511 3984 
Q 2250 4219 1831 4219 
Q 1534 4219 1204 4116 
Q 875 4013 500 3803 
L 500 4441 
Q 881 4594 1212 4672 
Q 1544 4750 1819 4750 
Q 2544 4750 2975 4387 
Q 3406 4025 3406 3419 
Q 3406 3131 3298 2873 
Q 3191 2616 2906 2266 
Q 2828 2175 2409 1742 
Q 1991 1309 1228 531 
z
" transform="scale(0.015625)"/>
       </defs>
       <use xlink:href="#DejaVuSans-32"/>
       <use xlink:href="#DejaVuSans-30" x="63.623047"/>
      </g>
     </g>
    </g>
    <g id="xtick_4">
     <g id="line2d_4">
      <g>
       <use xlink:href="#mf9677ce158" x="492.805152" y="640.8" style="stroke: #000000; stroke-width: 0.8"/>
      </g>
     </g>
     <g id="text_4">
      <!-- 30 -->
      <g transform="translate(486.442652 655.398438) scale(0.1 -0.1)">
       <defs>
        <path id="DejaVuSans-33" d="M 2597 2516 
Q 3050 2419 3304 2112 
Q 3559 1806 3559 1356 
Q 3559 666 3084 287 
Q 2609 -91 1734 -91 
Q 1441 -91 1130 -33 
Q 819 25 488 141 
L 488 750 
Q 750 597 1062 519 
Q 1375 441 1716 441 
Q 2309 441 2620 675 
Q 2931 909 2931 1356 
Q 2931 1769 2642 2001 
Q 2353 2234 1838 2234 
L 1294 2234 
L 1294 2753 
L 1863 2753 
Q 2328 2753 2575 2939 
Q 2822 3125 2822 3475 
Q 2822 3834 2567 4026 
Q 2313 4219 1838 4219 
Q 1578 4219 1281 4162 
Q 984 4106 628 3988 
L 628 4550 
Q 988 4650 1302 4700 
Q 1616 4750 1894 4750 
Q 2613 4750 3031 4423 
Q 3450 4097 3450 3541 
Q 3450 3153 3228 2886 
Q 3006 2619 2597 2516 
z
" transform="scale(0.015625)"/>
       </defs>
       <use xlink:href="#DejaVuSans-33"/>
       <use xlink:href="#DejaVuSans-30" x="63.623047"/>
      </g>
     </g>
    </g>
    <g id="xtick_5">
     <g id="line2d_5">
      <g>
       <use xlink:href="#mf9677ce158" x="608.830701" y="640.8" style="stroke: #000000; stroke-width: 0.8"/>
      </g>
     </g>
     <g id="text_5">
      <!-- 40 -->
      <g transform="translate(602.468201 655.398438) scale(0.1 -0.1)">
       <defs>
        <path id="DejaVuSans-34" d="M 2419 4116 
L 825 1625 
L 2419 1625 
L 2419 4116 
z
M 2253 4666 
L 3047 4666 
L 3047 1625 
L 3713 1625 
L 3713 1100 
L 3047 1100 
L 3047 0 
L 2419 0 
L 2419 1100 
L 313 1100 
L 313 1709 
L 2253 4666 
z
" transform="scale(0.015625)"/>
       </defs>
       <use xlink:href="#DejaVuSans-34"/>
       <use xlink:href="#DejaVuSans-30" x="63.623047"/>
      </g>
     </g>
    </g>
    <g id="xtick_6">
     <g id="line2d_6">
      <g>
       <use xlink:href="#mf9677ce158" x="724.85625" y="640.8" style="stroke: #000000; stroke-width: 0.8"/>
      </g>
     </g>
     <g id="text_6">
      <!-- 50 -->
      <g transform="translate(718.49375 655.398438) scale(0.1 -0.1)">
       <defs>
        <path id="DejaVuSans-35" d="M 691 4666 
L 3169 4666 
L 3169 4134 
L 1269 4134 
L 1269 2991 
Q 1406 3038 1543 3061 
Q 1681 3084 1819 3084 
Q 2600 3084 3056 2656 
Q 3513 2228 3513 1497 
Q 3513 744 3044 326 
Q 2575 -91 1722 -91 
Q 1428 -91 1123 -41 
Q 819 9 494 109 
L 494 744 
Q 775 591 1075 516 
Q 1375 441 1709 441 
Q 2250 441 2565 725 
Q 2881 1009 2881 1497 
Q 2881 1984 2565 2268 
Q 2250 2553 1709 2553 
Q 1456 2553 1204 2497 
Q 953 2441 691 2322 
L 691 4666 
z
" transform="scale(0.015625)"/>
       </defs>
       <use xlink:href="#DejaVuSans-35"/>
       <use xlink:href="#DejaVuSans-30" x="63.623047"/>
      </g>
     </g>
    </g>
    <g id="xtick_7">
     <g id="line2d_7">
      <g>
       <use xlink:href="#mf9677ce158" x="840.881799" y="640.8" style="stroke: #000000; stroke-width: 0.8"/>
      </g>
     </g>
     <g id="text_7">
      <!-- 60 -->
      <g transform="translate(834.519299 655.398438) scale(0.1 -0.1)">
       <defs>
        <path id="DejaVuSans-36" d="M 2113 2584 
Q 1688 2584 1439 2293 
Q 1191 2003 1191 1497 
Q 1191 994 1439 701 
Q 1688 409 2113 409 
Q 2538 409 2786 701 
Q 3034 994 3034 1497 
Q 3034 2003 2786 2293 
Q 2538 2584 2113 2584 
z
M 3366 4563 
L 3366 3988 
Q 3128 4100 2886 4159 
Q 2644 4219 2406 4219 
Q 1781 4219 1451 3797 
Q 1122 3375 1075 2522 
Q 1259 2794 1537 2939 
Q 1816 3084 2150 3084 
Q 2853 3084 3261 2657 
Q 3669 2231 3669 1497 
Q 3669 778 3244 343 
Q 2819 -91 2113 -91 
Q 1303 -91 875 529 
Q 447 1150 447 2328 
Q 447 3434 972 4092 
Q 1497 4750 2381 4750 
Q 2619 4750 2861 4703 
Q 3103 4656 3366 4563 
z
" transform="scale(0.015625)"/>
       </defs>
       <use xlink:href="#DejaVuSans-36"/>
       <use xlink:href="#DejaVuSans-30" x="63.623047"/>
      </g>
     </g>
    </g>
    <g id="text_8">
     <!-- Time (s) -->
     <g transform="translate(496.271094 669.076563) scale(0.1 -0.1)">
      <defs>
       <path id="DejaVuSans-54" d="M -19 4666 
L 3928 4666 
L 3928 4134 
L 2272 4134 
L 2272 0 
L 1638 0 
L 1638 4134 
L -19 4134 
L -19 4666 
z
" transform="scale(0.015625)"/>
       <path id="DejaVuSans-69" d="M 603 3500 
L 1178 3500 
L 1178 0 
L 603 0 
L 603 3500 
z
M 603 4863 
L 1178 4863 
L 1178 4134 
L 603 4134 
L 603 4863 
z
" transform="scale(0.015625)"/>
       <path id="DejaVuSans-6d" d="M 3328 2828 
Q 3544 3216 3844 3400 
Q 4144 3584 4550 3584 
Q 5097 3584 5394 3201 
Q 5691 2819 5691 2113 
L 5691 0 
L 5113 0 
L 5113 2094 
Q 5113 2597 4934 2840 
Q 4756 3084 4391 3084 
Q 3944 3084 3684 2787 
Q 3425 2491 3425 1978 
L 3425 0 
L 2847 0 
L 2847 2094 
Q 2847 2600 2669 2842 
Q 2491 3084 2119 3084 
Q 1678 3084 1418 2786 
Q 1159 2488 1159 1978 
L 1159 0 
L 581 0 
L 581 3500 
L 1159 3500 
L 1159 2956 
Q 1356 3278 1631 3431 
Q 1906 3584 2284 3584 
Q 2666 3584 2933 3390 
Q 3200 3197 3328 2828 
z
" transform="scale(0.015625)"/>
       <path id="DejaVuSans-65" d="M 3597 1894 
L 3597 1613 
L 953 1613 
Q 991 1019 1311 708 
Q 1631 397 2203 397 
Q 2534 397 2845 478 
Q 3156 559 3463 722 
L 3463 178 
Q 3153 47 2828 -22 
Q 2503 -91 2169 -91 
Q 1331 -91 842 396 
Q 353 884 353 1716 
Q 353 2575 817 3079 
Q 1281 3584 2069 3584 
Q 2775 3584 3186 3129 
Q 3597 2675 3597 1894 
z
M 3022 2063 
Q 3016 2534 2758 2815 
Q 2500 3097 2075 3097 
Q 1594 3097 1305 2825 
Q 1016 2553 972 2059 
L 3022 2063 
z
" transform="scale(0.015625)"/>
       <path id="DejaVuSans-20" transform="scale(0.015625)"/>
       <path id="DejaVuSans-28" d="M 1984 4856 
Q 1566 4138 1362 3434 
Q 1159 2731 1159 2009 
Q 1159 1288 1364 580 
Q 1569 -128 1984 -844 
L 1484 -844 
Q 1016 -109 783 600 
Q 550 1309 550 2009 
Q 550 2706 781 3412 
Q 1013 4119 1484 4856 
L 1984 4856 
z
" transform="scale(0.015625)"/>
       <path id="DejaVuSans-73" d="M 2834 3397 
L 2834 2853 
Q 2591 2978 2328 3040 
Q 2066 3103 1784 3103 
Q 1356 3103 1142 2972 
Q 928 2841 928 2578 
Q 928 2378 1081 2264 
Q 1234 2150 1697 2047 
L 1894 2003 
Q 2506 1872 2764 1633 
Q 3022 1394 3022 966 
Q 3022 478 2636 193 
Q 2250 -91 1575 -91 
Q 1294 -91 989 -36 
Q 684 19 347 128 
L 347 722 
Q 666 556 975 473 
Q 1284 391 1588 391 
Q 1994 391 2212 530 
Q 2431 669 2431 922 
Q 2431 1156 2273 1281 
Q 2116 1406 1581 1522 
L 1381 1569 
Q 847 1681 609 1914 
Q 372 2147 372 2553 
Q 372 3047 722 3315 
Q 1072 3584 1716 3584 
Q 2034 3584 2315 3537 
Q 2597 3491 2834 3397 
z
" transform="scale(0.015625)"/>
       <path id="DejaVuSans-29" d="M 513 4856 
L 1013 4856 
Q 1481 4119 1714 3412 
Q 1947 2706 1947 2009 
Q 1947 1309 1714 600 
Q 1481 -109 1013 -844 
L 513 -844 
Q 928 -128 1133 580 
Q 1338 1288 1338 2009 
Q 1338 2731 1133 3434 
Q 928 4138 513 4856 
z
" transform="scale(0.015625)"/>
      </defs>
      <use xlink:href="#DejaVuSans-54"/>
      <use xlink:href="#DejaVuSans-69" x="57.958984"/>
      <use xlink:href="#DejaVuSans-6d" x="85.742188"/>
      <use xlink:href="#DejaVuSans-65" x="183.154297"/>
      <use xlink:href="#DejaVuSans-20" x="244.677734"/>
      <use xlink:href="#DejaVuSans-28" x="276.464844"/>
      <use xlink:href="#DejaVuSans-73" x="315.478516"/>
      <use xlink:href="#DejaVuSans-29" x="367.578125"/>
     </g>
    </g>
   </g>
   <g id="matplotlib.axis_2">
    <g id="ytick_1">
     <g id="line2d_8">
      <defs>
       <path id="m1e2e1d30eb" d="M 0 0 
L -3.5 0 
" style="stroke: #000000; stroke-width: 0.8"/>
      </defs>
      <g>
       <use xlink:href="#m1e2e1d30eb" x="126" y="615.6" style="stroke: #000000; stroke-width: 0.8"/>
      </g>
     </g>
     <g id="text_9">
      <!-- 0 -->
      <g transform="translate(112.6375 619.399219) scale(0.1 -0.1)">
       <use xlink:href="#DejaVuSans-30"/>
      </g>
     </g>
    </g>
    <g id="ytick_2">
     <g id="line2d_9">
      <g>
       <use xlink:href="#m1e2e1d30eb" x="126" y="519.618817" style="stroke: #000000; stroke-width: 0.8"/>
      </g>
     </g>
     <g id="text_10">
      <!-- 20 -->
      <g transform="translate(106.275 523.418036) scale(0.1 -0.1)">
       <use xlink:href="#DejaVuSans-32"/>
       <use xlink:href="#DejaVuSans-30" x="63.623047"/>
      </g>
     </g>
    </g>
    <g id="ytick_3">
     <g id="line2d_10">
      <g>
       <use xlink:href="#m1e2e1d30eb" x="126" y="423.637634" style="stroke: #000000; stroke-width: 0.8"/>
      </g>
     </g>
     <g id="text_11">
      <!-- 40 -->
      <g transform="translate(106.275 427.436853) scale(0.1 -0.1)">
       <use xlink:href="#DejaVuSans-34"/>
       <use xlink:href="#DejaVuSans-30" x="63.623047"/>
      </g>
     </g>
    </g>
    <g id="ytick_4">
     <g id="line2d_11">
      <g>
       <use xlink:href="#m1e2e1d30eb" x="126" y="327.656451" style="stroke: #000000; stroke-width: 0.8"/>
      </g>
     </g>
     <g id="text_12">
      <!-- 60 -->
      <g transform="translate(106.275 331.45567) scale(0.1 -0.1)">
       <use xlink:href="#DejaVuSans-36"/>
       <use xlink:href="#DejaVuSans-30" x="63.623047"/>
      </g>
     </g>
    </g>
    <g id="ytick_5">
     <g id="line2d_12">
      <g>
       <use xlink:href="#m1e2e1d30eb" x="126" y="231.675268" style="stroke: #000000; stroke-width: 0.8"/>
      </g>
     </g>
     <g id="text_13">
      <!-- 80 -->
      <g transform="translate(106.275 235.474487) scale(0.1 -0.1)">
       <defs>
        <path id="DejaVuSans-38" d="M 2034 2216 
Q 1584 2216 1326 1975 
Q 1069 1734 1069 1313 
Q 1069 891 1326 650 
Q 1584 409 2034 409 
Q 2484 409 2743 651 
Q 3003 894 3003 1313 
Q 3003 1734 2745 1975 
Q 2488 2216 2034 2216 
z
M 1403 2484 
Q 997 2584 770 2862 
Q 544 3141 544 3541 
Q 544 4100 942 4425 
Q 1341 4750 2034 4750 
Q 2731 4750 3128 4425 
Q 3525 4100 3525 3541 
Q 3525 3141 3298 2862 
Q 3072 2584 2669 2484 
Q 3125 2378 3379 2068 
Q 3634 1759 3634 1313 
Q 3634 634 3220 271 
Q 2806 -91 2034 -91 
Q 1263 -91 848 271 
Q 434 634 434 1313 
Q 434 1759 690 2068 
Q 947 2378 1403 2484 
z
M 1172 3481 
Q 1172 3119 1398 2916 
Q 1625 2713 2034 2713 
Q 2441 2713 2670 2916 
Q 2900 3119 2900 3481 
Q 2900 3844 2670 4047 
Q 2441 4250 2034 4250 
Q 1625 4250 1398 4047 
Q 1172 3844 1172 3481 
z
" transform="scale(0.015625)"/>
       </defs>
       <use xlink:href="#DejaVuSans-38"/>
       <use xlink:href="#DejaVuSans-30" x="63.623047"/>
      </g>
     </g>
    </g>
    <g id="ytick_6">
     <g id="line2d_13">
      <g>
       <use xlink:href="#m1e2e1d30eb" x="126" y="135.694085" style="stroke: #000000; stroke-width: 0.8"/>
      </g>
     </g>
     <g id="text_14">
      <!-- 100 -->
      <g transform="translate(99.9125 139.493304) scale(0.1 -0.1)">
       <use xlink:href="#DejaVuSans-31"/>
       <use xlink:href="#DejaVuSans-30" x="63.623047"/>
       <use xlink:href="#DejaVuSans-30" x="127.246094"/>
      </g>
     </g>
    </g>
    <g id="text_15">
     <!-- Packets per Second -->
     <g transform="translate(93.832812 412.445312) rotate(-90) scale(0.1 -0.1)">
      <defs>
       <path id="DejaVuSans-50" d="M 1259 4147 
L 1259 2394 
L 2053 2394 
Q 2494 2394 2734 2622 
Q 2975 2850 2975 3272 
Q 2975 3691 2734 3919 
Q 2494 4147 2053 4147 
L 1259 4147 
z
M 628 4666 
L 2053 4666 
Q 2838 4666 3239 4311 
Q 3641 3956 3641 3272 
Q 3641 2581 3239 2228 
Q 2838 1875 2053 1875 
L 1259 1875 
L 1259 0 
L 628 0 
L 628 4666 
z
" transform="scale(0.015625)"/>
       <path id="DejaVuSans-61" d="M 2194 1759 
Q 1497 1759 1228 1600 
Q 959 1441 959 1056 
Q 959 750 1161 570 
Q 1363 391 1709 391 
Q 2188 391 2477 730 
Q 2766 1069 2766 1631 
L 2766 1759 
L 2194 1759 
z
M 3341 1997 
L 3341 0 
L 2766 0 
L 2766 531 
Q 2569 213 2275 61 
Q 1981 -91 1556 -91 
Q 1019 -91 701 211 
Q 384 513 384 1019 
Q 384 1609 779 1909 
Q 1175 2209 1959 2209 
L 2766 2209 
L 2766 2266 
Q 2766 2663 2505 2880 
Q 2244 3097 1772 3097 
Q 1472 3097 1187 3025 
Q 903 2953 641 2809 
L 641 3341 
Q 956 3463 1253 3523 
Q 1550 3584 1831 3584 
Q 2591 3584 2966 3190 
Q 3341 2797 3341 1997 
z
" transform="scale(0.015625)"/>
       <path id="DejaVuSans-63" d="M 3122 3366 
L 3122 2828 
Q 2878 2963 2633 3030 
Q 2388 3097 2138 3097 
Q 1578 3097 1268 2742 
Q 959 2388 959 1747 
Q 959 1106 1268 751 
Q 1578 397 2138 397 
Q 2388 397 2633 464 
Q 2878 531 3122 666 
L 3122 134 
Q 2881 22 2623 -34 
Q 2366 -91 2075 -91 
Q 1284 -91 818 406 
Q 353 903 353 1747 
Q 353 2603 823 3093 
Q 1294 3584 2113 3584 
Q 2378 3584 2631 3529 
Q 2884 3475 3122 3366 
z
" transform="scale(0.015625)"/>
       <path id="DejaVuSans-6b" d="M 581 4863 
L 1159 4863 
L 1159 1991 
L 2875 3500 
L 3609 3500 
L 1753 1863 
L 3688 0 
L 2938 0 
L 1159 1709 
L 1159 0 
L 581 0 
L 581 4863 
z
" transform="scale(0.015625)"/>
       <path id="DejaVuSans-74" d="M 1172 4494 
L 1172 3500 
L 2356 3500 
L 2356 3053 
L 1172 3053 
L 1172 1153 
Q 1172 725 1289 603 
Q 1406 481 1766 481 
L 2356 481 
L 2356 0 
L 1766 0 
Q 1100 0 847 248 
Q 594 497 594 1153 
L 594 3053 
L 172 3053 
L 172 3500 
L 594 3500 
L 594 4494 
L 1172 4494 
z
" transform="scale(0.015625)"/>
       <path id="DejaVuSans-70" d="M 1159 525 
L 1159 -1331 
L 581 -1331 
L 581 3500 
L 1159 3500 
L 1159 2969 
Q 1341 3281 1617 3432 
Q 1894 3584 2278 3584 
Q 2916 3584 3314 3078 
Q 3713 2572 3713 1747 
Q 3713 922 3314 415 
Q 2916 -91 2278 -91 
Q 1894 -91 1617 61 
Q 1341 213 1159 525 
z
M 3116 1747 
Q 3116 2381 2855 2742 
Q 2594 3103 2138 3103 
Q 1681 3103 1420 2742 
Q 1159 2381 1159 1747 
Q 1159 1113 1420 752 
Q 1681 391 2138 391 
Q 2594 391 2855 752 
Q 3116 1113 3116 1747 
z
" transform="scale(0.015625)"/>
       <path id="DejaVuSans-72" d="M 2631 2963 
Q 2534 3019 2420 3045 
Q 2306 3072 2169 3072 
Q 1681 3072 1420 2755 
Q 1159 2438 1159 1844 
L 1159 0 
L 581 0 
L 581 3500 
L 1159 3500 
L 1159 2956 
Q 1341 3275 1631 3429 
Q 1922 3584 2338 3584 
Q 2397 3584 2469 3576 
Q 2541 3569 2628 3553 
L 2631 2963 
z
" transform="scale(0.015625)"/>
       <path id="DejaVuSans-53" d="M 3425 4513 
L 3425 3897 
Q 3066 4069 2747 4153 
Q 2428 4238 2131 4238 
Q 1616 4238 1336 4038 
Q 1056 3838 1056 3469 
Q 1056 3159 1242 3001 
Q 1428 2844 1947 2747 
L 2328 2669 
Q 3034 2534 3370 2195 
Q 3706 1856 3706 1288 
Q 3706 609 3251 259 
Q 2797 -91 1919 -91 
Q 1588 -91 1214 -16 
Q 841 59 441 206 
L 441 856 
Q 825 641 1194 531 
Q 1563 422 1919 422 
Q 2459 422 2753 634 
Q 3047 847 3047 1241 
Q 3047 1584 2836 1778 
Q 2625 1972 2144 2069 
L 1759 2144 
Q 1053 2284 737 2584 
Q 422 2884 422 3419 
Q 422 4038 858 4394 
Q 1294 4750 2059 4750 
Q 2388 4750 2728 4690 
Q 3069 4631 3425 4513 
z
" transform="scale(0.015625)"/>
       <path id="DejaVuSans-6f" d="M 1959 3097 
Q 1497 3097 1228 2736 
Q 959 2375 959 1747 
Q 959 1119 1226 758 
Q 1494 397 1959 397 
Q 2419 397 2687 759 
Q 2956 1122 2956 1747 
Q 2956 2369 2687 2733 
Q 2419 3097 1959 3097 
z
M 1959 3584 
Q 2709 3584 3137 3096 
Q 3566 2609 3566 1747 
Q 3566 888 3137 398 
Q 2709 -91 1959 -91 
Q 1206 -91 779 398 
Q 353 888 353 1747 
Q 353 2609 779 3096 
Q 1206 3584 1959 3584 
z
" transform="scale(0.015625)"/>
       <path id="DejaVuSans-6e" d="M 3513 2113 
L 3513 0 
L 2938 0 
L 2938 2094 
Q 2938 2591 2744 2837 
Q 2550 3084 2163 3084 
Q 1697 3084 1428 2787 
Q 1159 2491 1159 1978 
L 1159 0 
L 581 0 
L 581 3500 
L 1159 3500 
L 1159 2956 
Q 1366 3272 1645 3428 
Q 1925 3584 2291 3584 
Q 2894 3584 3203 3211 
Q 3513 2838 3513 2113 
z
" transform="scale(0.015625)"/>
       <path id="DejaVuSans-64" d="M 2906 2969 
L 2906 4863 
L 3481 4863 
L 3481 0 
L 2906 0 
L 2906 525 
Q 2725 213 2448 61 
Q 2172 -91 1784 -91 
Q 1150 -91 751 415 
Q 353 922 353 1747 
Q 353 2572 751 3078 
Q 1150 3584 1784 3584 
Q 2172 3584 2448 3432 
Q 2725 3281 2906 2969 
z
M 947 1747 
Q 947 1113 1208 752 
Q 1469 391 1925 391 
Q 2381 391 2643 752 
Q 2906 1113 2906 1747 
Q 2906 2381 2643 2742 
Q 2381 3103 1925 3103 
Q 1469 3103 1208 2742 
Q 947 2381 947 1747 
z
" transform="scale(0.015625)"/>
      </defs>
      <use xlink:href="#DejaVuSans-50"/>
      <use xlink:href="#DejaVuSans-61" x="55.802734"/>
      <use xlink:href="#DejaVuSans-63" x="117.082031"/>
      <use xlink:href="#DejaVuSans-6b" x="172.0625"/>
      <use xlink:href="#DejaVuSans-65" x="226.347656"/>
      <use xlink:href="#DejaVuSans-74" x="287.871094"/>
      <use xlink:href="#DejaVuSans-73" x="327.080078"/>
      <use xlink:href="#DejaVuSans-20" x="379.179688"/>
      <use xlink:href="#DejaVuSans-70" x="410.966797"/>
      <use xlink:href="#DejaVuSans-65" x="474.443359"/>
      <use xlink:href="#DejaVuSans-72" x="535.966797"/>
      <use xlink:href="#DejaVuSans-20" x="577.080078"/>
      <use xlink:href="#DejaVuSans-53" x="608.867188"/>
      <use xlink:href="#DejaVuSans-65" x="672.34375"/>
      <use xlink:href="#DejaVuSans-63" x="733.867188"/>
      <use xlink:href="#DejaVuSans-6f" x="788.847656"/>
      <use xlink:href="#DejaVuSans-6e" x="850.029297"/>
      <use xlink:href="#DejaVuSans-64" x="913.408203"/>
     </g>
    </g>
   </g>
   <g id="line2d_14">
    <path d="M 161.509091 111.712009 
L 163.829586 159.686242 
L 166.150116 135.697998 
L 168.471728 159.905667 
L 170.791784 111.6 
L 173.112307 159.691649 
L 175.438228 184.689286 
L 177.753601 206.774774 
L 180.073817 159.631409 
L 184.715152 207.735847 
L 187.035362 159.630312 
L 191.676694 207.735737 
L 196.317426 159.638347 
L 198.637942 183.685551 
L 214.881868 183.687473 
L 217.202093 159.633338 
L 219.522893 207.73074 
L 221.843108 159.631156 
L 226.484447 207.73243 
L 228.804641 159.627074 
L 231.125451 207.732618 
L 235.766287 159.654122 
L 238.086989 207.713619 
L 240.407224 159.635171 
L 245.048553 207.736259 
L 247.369065 183.684851 
L 254.33081 183.725562 
L 256.650825 159.591959 
L 258.971641 207.733631 
L 261.292112 183.677161 
L 263.612654 183.690483 
L 265.932868 159.630964 
L 268.253434 183.694934 
L 272.894649 183.719553 
L 275.215255 207.696706 
L 277.535774 183.686169 
L 286.817906 183.702086 
L 293.779376 183.685333 
L 296.099601 159.633101 
L 298.420448 183.747317 
L 300.740927 183.67875 
L 303.061114 159.625599 
L 307.702462 207.731655 
L 310.022975 183.685095 
L 316.984508 183.689278 
L 319.304762 159.638928 
L 323.946113 207.738678 
L 326.2666 183.680202 
L 328.587106 183.683884 
L 330.907329 159.632795 
L 335.548632 207.726258 
L 337.868862 159.634143 
L 340.189643 207.727369 
L 342.510124 183.679152 
L 344.841676 161.848304 
L 347.161298 207.523689 
L 349.486888 160.685087 
L 351.807611 207.717226 
L 354.12792 159.649638 
L 356.448616 207.712623 
L 358.768833 159.631552 
L 361.089343 183.684413 
L 365.730369 183.68519 
L 368.051201 207.736327 
L 370.371412 159.630428 
L 372.692195 207.727836 
L 375.012431 159.635451 
L 379.653744 207.729477 
L 381.973998 159.63878 
L 384.294507 183.684428 
L 386.615003 183.681899 
L 388.935785 207.727571 
L 391.256347 183.694079 
L 398.217388 183.566016 
L 400.538874 183.866087 
L 402.859697 183.742724 
L 405.181276 183.883346 
L 407.502445 183.807198 
L 409.822834 159.665442 
L 412.145852 208.120201 
L 416.787063 159.637285 
L 419.110154 208.132969 
L 423.758454 160.681555 
L 426.073562 182.676757 
L 428.394364 207.731086 
L 433.037381 159.617449 
L 437.681308 208.189878 
L 440.002905 183.886718 
L 442.324162 183.823361 
L 444.646017 183.934695 
L 446.966074 159.600223 
L 449.28656 183.679981 
L 451.607058 183.682219 
L 453.931175 208.312933 
L 456.25152 183.653868 
L 458.572227 183.721038 
L 463.213052 183.676275 
L 465.533293 159.636261 
L 467.854087 207.729771 
L 470.174645 183.69339 
L 474.815687 183.692911 
L 477.136452 207.724622 
L 479.45639 135.575545 
L 481.776896 159.688323 
L 484.097564 207.707552 
L 486.418485 207.752126 
L 488.740826 160.048669 
L 491.059532 207.362377 
L 493.379426 135.566396 
L 495.702445 232.089764 
L 500.340987 135.662512 
L 502.662094 207.784715 
L 504.982234 183.61568 
L 507.303144 207.750079 
L 509.623058 135.570504 
L 511.943556 183.682322 
L 514.264073 183.685821 
L 516.584782 207.714812 
L 521.225634 159.571253 
L 523.546115 183.679113 
L 525.86722 231.773504 
L 528.187723 183.683134 
L 532.828786 183.687121 
L 535.148717 135.574213 
L 537.46982 231.773077 
L 539.790312 183.681258 
L 542.110309 183.588992 
L 544.431339 183.781179 
L 546.751891 183.69225 
L 549.071827 135.575243 
L 551.392319 183.681111 
L 553.718958 184.822238 
L 556.038714 183.544241 
L 558.359233 183.68611 
L 572.282338 183.683413 
L 574.606148 184.297805 
L 576.927161 231.758287 
L 581.56761 135.557352 
L 583.888154 183.690805 
L 590.849678 183.688071 
L 593.170385 207.714553 
L 595.490696 159.650094 
L 597.811811 231.775058 
L 600.13236 183.691727 
L 602.454677 184.020628 
L 604.7884 138.41106 
L 607.104581 182.877211 
L 609.425113 183.68862 
L 611.745833 207.716598 
L 614.066148 159.651006 
L 616.387241 231.771522 
L 618.715544 137.300113 
L 621.032637 231.108924 
L 623.352549 135.570143 
L 625.67314 231.688505 
L 627.993622 183.679264 
L 630.314682 183.78682 
L 632.634599 135.571277 
L 634.95571 231.774477 
L 637.275658 135.577619 
L 641.917263 231.765513 
L 646.557728 135.57918 
L 648.878219 183.680951 
L 658.160304 183.6883 
L 660.481404 207.783439 
L 662.801922 207.681192 
L 665.12183 135.569349 
L 667.442376 183.691276 
L 669.778334 186.540754 
L 672.0843 180.960373 
L 674.410029 184.653818 
L 676.725896 230.905261 
L 679.046421 183.687445 
L 692.969528 183.743828 
L 695.29983 137.710494 
L 697.619667 231.563749 
L 699.942068 160.06029 
L 702.260107 159.20332 
L 704.58121 231.773084 
L 706.901726 183.685747 
L 709.222249 183.686883 
L 711.542174 135.572751 
L 713.862672 183.682299 
L 732.426812 183.687194 
L 734.747899 231.770661 
L 737.067834 135.574883 
L 739.388924 231.771068 
L 744.029351 135.56836 
L 746.350224 231.735137 
L 748.688884 139.418458 
L 751.009566 231.703477 
L 753.330144 183.697234 
L 757.971234 183.703077 
L 760.302639 137.936626 
L 762.62235 207.539205 
L 764.942996 183.709938 
L 767.263269 207.638087 
L 769.584896 183.892343 
L 771.904339 135.473044 
L 774.225937 231.854955 
L 778.86586 135.46458 
L 781.186372 183.684879 
L 785.827387 183.679934 
L 788.153495 208.661351 
L 790.469595 206.903201 
L 792.790049 183.674044 
L 795.109459 183.479579 
L 797.429972 159.689887 
L 799.750527 207.687637 
L 802.071016 183.680549 
L 804.391517 135.692007 
L 806.712396 183.753249 
L 809.032527 183.61396 
L 811.353084 231.682929 
L 813.674291 159.82604 
L 815.994507 207.628145 
L 818.315017 183.6844 
L 822.956061 183.689367 
L 825.276455 135.66975 
L 827.597327 207.743404 
L 829.917622 207.642073 
L 832.238108 183.679955 
L 836.879131 183.662369 
L 839.199668 159.69453 
L 841.520145 207.674031 
L 843.840645 183.682476 
L 850.802219 183.684508 
L 853.122723 159.687922 
L 855.44314 207.663534 
L 857.763729 183.699134 
L 862.404788 183.686363 
L 864.725231 135.680028 
L 867.045792 207.688754 
L 869.366223 519.615509 
L 871.686799 591.605378 
L 871.686799 591.605378 
" clip-path="url(#pc5831ab919)" style="fill: none; stroke: #1f77b4; stroke-width: 1.5; stroke-linecap: square"/>
   </g>
   <g id="line2d_15">
    <path d="M 161.509091 615.6 
L 163.829586 471.627234 
L 173.112307 471.628942 
L 175.438228 471.963095 
L 177.753601 495.357286 
L 180.073817 447.611572 
L 184.715152 495.639955 
L 187.035362 447.611168 
L 191.676694 495.639923 
L 196.317426 447.614128 
L 198.637942 471.628517 
L 203.279 471.629376 
L 205.599996 495.648589 
L 207.920312 471.616154 
L 214.881868 471.629158 
L 217.202093 447.612282 
L 219.522893 495.638453 
L 221.843108 447.611478 
L 226.484447 495.63895 
L 228.804641 447.609975 
L 231.125451 495.639005 
L 235.766287 447.61994 
L 238.086989 495.633417 
L 240.407224 447.612958 
L 245.048553 495.640076 
L 247.369065 471.628284 
L 254.33081 471.641854 
L 256.650825 447.597038 
L 258.971641 495.639303 
L 261.292112 471.62572 
L 263.612654 471.630161 
L 265.932868 447.611408 
L 268.253434 471.631645 
L 272.894649 471.639851 
L 275.215255 495.628443 
L 277.535774 471.628723 
L 293.779376 471.628444 
L 296.099601 447.612195 
L 298.420448 495.640921 
L 303.061114 447.609431 
L 307.702462 495.638722 
L 310.022975 471.628365 
L 316.984508 471.629759 
L 319.304762 447.614342 
L 323.946113 495.640788 
L 326.2666 471.626734 
L 328.587106 471.627961 
L 330.907329 447.612082 
L 335.548632 495.637135 
L 337.868862 447.612579 
L 340.189643 495.637461 
L 344.841676 448.428322 
L 347.161298 495.577556 
L 349.486888 447.999769 
L 351.807611 495.634478 
L 354.12792 447.618288 
L 356.448616 495.633125 
L 358.768833 447.611625 
L 361.089343 471.628138 
L 365.730369 471.628397 
L 368.051201 495.640096 
L 370.371412 447.61121 
L 372.692195 495.637599 
L 375.012431 447.613061 
L 379.653744 495.638082 
L 381.973998 447.614287 
L 384.294507 471.628143 
L 386.615003 471.6273 
L 388.935785 495.637521 
L 391.256347 471.63136 
L 407.502445 471.669066 
L 409.822834 447.62411 
L 412.145852 495.753 
L 416.787063 447.613736 
L 419.110154 495.756756 
L 423.758454 447.998468 
L 428.394364 495.638555 
L 433.037381 447.606429 
L 437.681308 495.773494 
L 440.002905 471.695573 
L 444.646017 471.711565 
L 446.966074 447.600082 
L 449.28656 471.62666 
L 451.607058 471.627406 
L 453.931175 495.809686 
L 456.25152 471.617956 
L 463.213052 471.625425 
L 465.533293 447.613359 
L 467.854087 495.638168 
L 470.174645 471.63113 
L 477.136452 471.643984 
L 479.45639 447.591441 
L 484.097564 495.631633 
L 486.418485 471.653692 
L 488.740826 471.741685 
L 491.059532 471.516133 
L 493.379426 447.588239 
L 495.702445 495.753051 
L 500.340987 447.621879 
L 502.662094 495.654328 
L 504.982234 471.605227 
L 507.303144 471.652969 
L 509.623058 447.589676 
L 511.943556 471.627441 
L 514.264073 471.628607 
L 516.584782 495.633768 
L 521.225634 447.589409 
L 525.86722 495.65422 
L 528.187723 471.627711 
L 532.828786 471.62904 
L 535.148717 447.590974 
L 537.46982 495.654086 
L 539.790312 471.627086 
L 546.751891 471.63075 
L 549.071827 447.591335 
L 551.392319 471.627037 
L 553.718958 472.007413 
L 556.038714 471.581414 
L 563.000299 471.630414 
L 572.282338 471.627804 
L 574.606148 471.832602 
L 576.927161 495.649465 
L 581.56761 447.585073 
L 583.888154 471.630268 
L 590.849678 471.629357 
L 593.170385 495.633692 
L 595.490696 447.618456 
L 597.811811 495.654706 
L 600.13236 471.630576 
L 602.454677 471.740209 
L 604.7884 448.583871 
L 607.104581 471.35907 
L 609.425113 471.62954 
L 611.745833 495.634294 
L 614.066148 447.618792 
L 616.387241 495.653601 
L 618.715544 448.19504 
L 621.032637 495.446539 
L 623.352549 447.58955 
L 625.67314 495.627658 
L 627.993622 471.626421 
L 630.314682 471.662273 
L 632.634599 447.589947 
L 634.95571 495.654524 
L 637.275658 447.592167 
L 641.917263 495.651723 
L 646.557728 447.592713 
L 648.878219 471.626984 
L 658.160304 471.629433 
L 660.481404 495.653953 
L 665.12183 447.589272 
L 667.442376 471.630425 
L 669.778334 472.580251 
L 672.0843 470.720124 
L 674.410029 471.951273 
L 676.725896 495.382894 
L 679.046421 471.629148 
L 692.969528 471.647943 
L 695.29983 448.338673 
L 697.619667 495.588672 
L 702.260107 447.453855 
L 704.58121 495.654089 
L 706.901726 471.628582 
L 709.222249 471.628961 
L 711.542174 447.590463 
L 713.862672 471.627433 
L 732.426812 471.629065 
L 734.747899 495.653332 
L 737.067834 447.591209 
L 739.388924 495.653459 
L 744.029351 447.588926 
L 746.350224 495.64223 
L 748.688884 448.93646 
L 751.009566 495.632336 
L 753.330144 471.632411 
L 757.971234 471.634359 
L 760.302639 448.417819 
L 762.62235 495.582119 
L 764.942996 471.636646 
L 769.584896 471.697448 
L 771.904339 447.555565 
L 774.225937 495.679673 
L 778.86586 447.552603 
L 781.186372 471.628293 
L 785.827387 471.626645 
L 788.153495 495.912162 
L 790.469595 471.354071 
L 792.790049 471.624681 
L 795.109459 471.55986 
L 799.750527 471.630931 
L 802.071016 471.62685 
L 804.391517 447.632202 
L 806.712396 471.651083 
L 809.032527 471.604653 
L 811.353084 495.625915 
L 813.674291 471.671381 
L 818.315017 471.628133 
L 822.956061 471.629789 
L 825.276455 447.624412 
L 827.597327 495.642178 
L 829.917622 471.614849 
L 853.122723 471.627765 
L 862.404788 471.628788 
L 864.725231 447.62801 
L 867.045792 495.626104 
L 869.366223 567.607754 
L 871.686799 615.6 
L 871.686799 615.6 
" clip-path="url(#pc5831ab919)" style="fill: none; stroke: #ff7f0e; stroke-width: 1.5; stroke-linecap: square"/>
   </g>
   <g id="line2d_16">
    <path d="M 161.509516 615.6 
L 163.830028 327.656546 
L 166.150564 327.659592 
L 168.47214 327.788539 
L 170.79224 327.605438 
L 173.112774 327.659348 
L 175.438565 328.310073 
L 177.753918 327.015023 
L 180.074375 327.649785 
L 217.202591 327.624974 
L 219.523364 327.688893 
L 224.164142 327.642077 
L 228.805317 327.639987 
L 249.690262 327.676115 
L 252.010558 327.629792 
L 254.331536 327.714359 
L 256.651731 327.617324 
L 263.613553 327.676978 
L 265.93341 327.575389 
L 270.574612 327.661864 
L 272.895789 327.739025 
L 277.536379 327.627547 
L 279.857403 327.720009 
L 282.177356 327.587283 
L 286.819004 327.753616 
L 289.139056 327.599519 
L 291.459908 327.698765 
L 298.420867 327.597703 
L 300.74217 327.754622 
L 303.06193 327.563336 
L 305.382988 327.724289 
L 307.70331 327.632979 
L 310.024111 327.692487 
L 312.343895 327.566206 
L 314.665245 327.760503 
L 316.985486 327.622863 
L 321.626005 327.651819 
L 326.267902 327.742359 
L 328.587951 327.599067 
L 330.908109 327.612685 
L 333.229297 327.740454 
L 337.869647 327.609442 
L 340.190969 327.757099 
L 342.511034 327.601076 
L 344.842292 328.983866 
L 347.162671 327.640077 
L 349.487796 328.227844 
L 351.808242 327.648344 
L 354.129834 327.790625 
L 356.44961 327.565171 
L 358.770402 327.691286 
L 365.731888 327.678497 
L 377.33434 327.654196 
L 379.655171 327.69619 
L 384.295926 327.653174 
L 391.257637 327.660447 
L 393.577578 327.585702 
L 400.540349 327.763686 
L 402.861176 327.695712 
L 407.503296 327.703719 
L 409.823663 327.63855 
L 412.147349 328.049975 
L 414.468222 327.70127 
L 416.788639 327.644877 
L 419.111227 327.913943 
L 421.433744 327.905154 
L 423.759156 328.263332 
L 426.07515 327.094848 
L 428.395833 327.677779 
L 430.718718 327.950782 
L 433.038654 327.584994 
L 435.358829 327.614775 
L 437.682223 328.013734 
L 442.325677 327.752153 
L 451.608765 327.63385 
L 453.932832 328.097012 
L 456.252325 327.530119 
L 460.894165 327.743536 
L 463.213796 327.547201 
L 465.535353 327.786233 
L 470.175187 327.542821 
L 472.497088 327.828893 
L 474.817613 327.658154 
L 477.142853 328.242065 
L 479.458412 327.040727 
L 484.099558 327.835926 
L 488.752938 328.595698 
L 491.065942 326.72192 
L 493.38148 327.038015 
L 495.716015 329.386177 
L 498.021196 349.896504 
L 500.343158 303.856003 
L 502.668242 328.222817 
L 504.984304 327.103361 
L 507.30955 328.242803 
L 509.623769 326.87354 
L 511.944275 327.655862 
L 514.266391 327.855454 
L 516.586423 327.597059 
L 518.912389 328.331762 
L 521.227808 327.023185 
L 525.872444 328.135226 
L 530.51441 327.602306 
L 532.835351 327.709751 
L 535.150951 327.045852 
L 537.476218 328.245353 
L 539.795677 327.525933 
L 542.112674 351.25143 
L 544.437436 304.231504 
L 546.758553 327.731661 
L 549.07412 327.041607 
L 551.393063 327.461835 
L 553.721393 328.6234 
L 556.041042 327.549447 
L 558.359973 327.460284 
L 563.002813 327.880041 
L 565.3226 327.566644 
L 567.643782 327.739644 
L 569.963999 327.619921 
L 572.284477 327.652451 
L 576.932656 328.276763 
L 581.569827 327.10201 
L 583.890391 327.663095 
L 588.530294 327.564964 
L 593.172505 327.817948 
L 595.492984 327.652444 
L 597.817894 328.201379 
L 600.138141 327.623668 
L 602.477761 330.008255 
L 604.789282 326.536497 
L 607.106949 327.303152 
L 609.427445 327.654582 
L 614.06812 327.606268 
L 616.392749 328.166609 
L 621.039348 327.926091 
L 623.354931 327.043615 
L 625.675534 351.662226 
L 630.320207 304.202942 
L 632.635661 327.027542 
L 634.962386 328.425526 
L 637.278111 327.061298 
L 641.923689 328.215811 
L 644.243385 327.555238 
L 646.558798 327.02253 
L 648.880705 327.829569 
L 651.201264 327.662318 
L 658.161574 327.550577 
L 660.487015 328.266967 
L 662.808776 327.811465 
L 665.124397 327.048386 
L 667.444939 327.660315 
L 669.780381 329.497303 
L 672.08567 325.755154 
L 674.41098 328.250675 
L 676.732801 327.818905 
L 679.053307 327.655921 
L 681.373872 327.663128 
L 683.689192 351.059959 
L 686.013553 304.177873 
L 688.333974 327.645301 
L 690.655744 327.812519 
L 692.976447 327.680269 
L 695.30235 328.324057 
L 697.62628 328.079985 
L 699.955008 328.672516 
L 702.261244 325.87412 
L 704.588258 328.461142 
L 706.908779 327.657734 
L 709.229289 327.656367 
L 711.544543 327.002535 
L 713.864033 327.529789 
L 716.184326 327.629393 
L 718.506508 327.863646 
L 720.827002 327.654314 
L 725.467679 327.610861 
L 727.787166 327.529369 
L 730.107456 327.628991 
L 732.429695 327.870775 
L 734.75496 328.245168 
L 737.070677 327.060355 
L 739.395757 328.222293 
L 741.715063 327.506746 
L 744.030533 327.02967 
L 746.353262 351.903768 
L 748.689867 305.809664 
L 751.012934 351.942158 
L 753.332919 327.59122 
L 755.653922 327.717482 
L 757.9743 327.639926 
L 760.305537 305.096476 
L 762.623697 327.364425 
L 764.948014 328.12796 
L 767.268346 327.634194 
L 769.606091 329.779149 
L 771.907846 325.310172 
L 774.247127 329.966867 
L 778.869238 325.294432 
L 781.187306 327.352945 
L 783.5106 328.001335 
L 785.830705 327.606065 
L 788.166447 329.534164 
L 790.490596 328.107198 
L 792.811265 327.676004 
L 795.116035 325.689841 
L 797.435336 327.506272 
L 799.755698 327.637995 
L 802.076158 327.650116 
L 804.394928 327.440256 
L 806.713455 327.409962 
L 809.036344 327.951228 
L 811.358203 327.823698 
L 813.677754 327.537253 
L 815.997425 351.556179 
L 818.315827 327.394452 
L 820.639306 328.024321 
L 822.959037 327.559695 
L 825.280351 303.769014 
L 829.922632 351.731035 
L 832.239568 327.212175 
L 834.560488 327.70725 
L 836.88306 327.911888 
L 839.204767 303.821867 
L 841.524682 351.58393 
L 843.844491 327.569324 
L 846.165803 327.755799 
L 848.48606 327.624962 
L 850.806239 327.615232 
L 853.124228 303.321731 
L 855.448192 352.044023 
L 857.767478 327.504316 
L 860.088969 327.77803 
L 862.408865 327.580111 
L 864.727094 303.354091 
L 867.05069 328.038695 
L 869.370087 567.58637 
L 871.690909 615.6 
L 871.690909 615.6 
" clip-path="url(#pc5831ab919)" style="fill: none; stroke: #2ca02c; stroke-width: 1.5; stroke-linecap: square"/>
   </g>
   <g id="line2d_17">
    <path d="M 126 185.395873 
L 907.2 185.395873 
" clip-path="url(#pc5831ab919)" style="fill: none; stroke-dasharray: 5.55,2.4; stroke-dashoffset: 0; stroke: #0000ff; stroke-width: 1.5"/>
   </g>
   <g id="line2d_18">
    <path d="M 126 472.512497 
L 907.2 472.512497 
" clip-path="url(#pc5831ab919)" style="fill: none; stroke-dasharray: 5.55,2.4; stroke-dashoffset: 0; stroke: #ffa500; stroke-width: 1.5"/>
   </g>
   <g id="line2d_19">
    <path d="M 126 329.423343 
L 907.2 329.423343 
" clip-path="url(#pc5831ab919)" style="fill: none; stroke-dasharray: 5.55,2.4; stroke-dashoffset: 0; stroke: #008000; stroke-width: 1.5"/>
   </g>
   <g id="patch_3">
    <path d="M 126 640.8 
L 126 86.4 
" style="fill: none; stroke: #000000; stroke-width: 0.8; stroke-linejoin: miter; stroke-linecap: square"/>
   </g>
   <g id="patch_4">
    <path d="M 907.2 640.8 
L 907.2 86.4 
" style="fill: none; stroke: #000000; stroke-width: 0.8; stroke-linejoin: miter; stroke-linecap: square"/>
   </g>
   <g id="patch_5">
    <path d="M 126 640.8 
L 907.2 640.8 
" style="fill: none; stroke: #000000; stroke-width: 0.8; stroke-linejoin: miter; stroke-linecap: square"/>
   </g>
   <g id="patch_6">
    <path d="M 126 86.4 
L 907.2 86.4 
" style="fill: none; stroke: #000000; stroke-width: 0.8; stroke-linejoin: miter; stroke-linecap: square"/>
   </g>
   <g id="text_16">
    <!-- Dual Observed and Filtered Packets -->
    <g transform="translate(410.072813 80.4) scale(0.12 -0.12)">
     <defs>
      <path id="DejaVuSans-44" d="M 1259 4147 
L 1259 519 
L 2022 519 
Q 2988 519 3436 956 
Q 3884 1394 3884 2338 
Q 3884 3275 3436 3711 
Q 2988 4147 2022 4147 
L 1259 4147 
z
M 628 4666 
L 1925 4666 
Q 3281 4666 3915 4102 
Q 4550 3538 4550 2338 
Q 4550 1131 3912 565 
Q 3275 0 1925 0 
L 628 0 
L 628 4666 
z
" transform="scale(0.015625)"/>
      <path id="DejaVuSans-75" d="M 544 1381 
L 544 3500 
L 1119 3500 
L 1119 1403 
Q 1119 906 1312 657 
Q 1506 409 1894 409 
Q 2359 409 2629 706 
Q 2900 1003 2900 1516 
L 2900 3500 
L 3475 3500 
L 3475 0 
L 2900 0 
L 2900 538 
Q 2691 219 2414 64 
Q 2138 -91 1772 -91 
Q 1169 -91 856 284 
Q 544 659 544 1381 
z
M 1991 3584 
L 1991 3584 
z
" transform="scale(0.015625)"/>
      <path id="DejaVuSans-6c" d="M 603 4863 
L 1178 4863 
L 1178 0 
L 603 0 
L 603 4863 
z
" transform="scale(0.015625)"/>
      <path id="DejaVuSans-4f" d="M 2522 4238 
Q 1834 4238 1429 3725 
Q 1025 3213 1025 2328 
Q 1025 1447 1429 934 
Q 1834 422 2522 422 
Q 3209 422 3611 934 
Q 4013 1447 4013 2328 
Q 4013 3213 3611 3725 
Q 3209 4238 2522 4238 
z
M 2522 4750 
Q 3503 4750 4090 4092 
Q 4678 3434 4678 2328 
Q 4678 1225 4090 567 
Q 3503 -91 2522 -91 
Q 1538 -91 948 565 
Q 359 1222 359 2328 
Q 359 3434 948 4092 
Q 1538 4750 2522 4750 
z
" transform="scale(0.015625)"/>
      <path id="DejaVuSans-62" d="M 3116 1747 
Q 3116 2381 2855 2742 
Q 2594 3103 2138 3103 
Q 1681 3103 1420 2742 
Q 1159 2381 1159 1747 
Q 1159 1113 1420 752 
Q 1681 391 2138 391 
Q 2594 391 2855 752 
Q 3116 1113 3116 1747 
z
M 1159 2969 
Q 1341 3281 1617 3432 
Q 1894 3584 2278 3584 
Q 2916 3584 3314 3078 
Q 3713 2572 3713 1747 
Q 3713 922 3314 415 
Q 2916 -91 2278 -91 
Q 1894 -91 1617 61 
Q 1341 213 1159 525 
L 1159 0 
L 581 0 
L 581 4863 
L 1159 4863 
L 1159 2969 
z
" transform="scale(0.015625)"/>
      <path id="DejaVuSans-76" d="M 191 3500 
L 800 3500 
L 1894 563 
L 2988 3500 
L 3597 3500 
L 2284 0 
L 1503 0 
L 191 3500 
z
" transform="scale(0.015625)"/>
      <path id="DejaVuSans-46" d="M 628 4666 
L 3309 4666 
L 3309 4134 
L 1259 4134 
L 1259 2759 
L 3109 2759 
L 3109 2228 
L 1259 2228 
L 1259 0 
L 628 0 
L 628 4666 
z
" transform="scale(0.015625)"/>
     </defs>
     <use xlink:href="#DejaVuSans-44"/>
     <use xlink:href="#DejaVuSans-75" x="77.001953"/>
     <use xlink:href="#DejaVuSans-61" x="140.380859"/>
     <use xlink:href="#DejaVuSans-6c" x="201.660156"/>
     <use xlink:href="#DejaVuSans-20" x="229.443359"/>
     <use xlink:href="#DejaVuSans-4f" x="261.230469"/>
     <use xlink:href="#DejaVuSans-62" x="339.941406"/>
     <use xlink:href="#DejaVuSans-73" x="403.417969"/>
     <use xlink:href="#DejaVuSans-65" x="455.517578"/>
     <use xlink:href="#DejaVuSans-72" x="517.041016"/>
     <use xlink:href="#DejaVuSans-76" x="558.154297"/>
     <use xlink:href="#DejaVuSans-65" x="617.333984"/>
     <use xlink:href="#DejaVuSans-64" x="678.857422"/>
     <use xlink:href="#DejaVuSans-20" x="742.333984"/>
     <use xlink:href="#DejaVuSans-61" x="774.121094"/>
     <use xlink:href="#DejaVuSans-6e" x="835.400391"/>
     <use xlink:href="#DejaVuSans-64" x="898.779297"/>
     <use xlink:href="#DejaVuSans-20" x="962.255859"/>
     <use xlink:href="#DejaVuSans-46" x="994.042969"/>
     <use xlink:href="#DejaVuSans-69" x="1044.3125"/>
     <use xlink:href="#DejaVuSans-6c" x="1072.095703"/>
     <use xlink:href="#DejaVuSans-74" x="1099.878906"/>
     <use xlink:href="#DejaVuSans-65" x="1139.087891"/>
     <use xlink:href="#DejaVuSans-72" x="1200.611328"/>
     <use xlink:href="#DejaVuSans-65" x="1239.474609"/>
     <use xlink:href="#DejaVuSans-64" x="1300.998047"/>
     <use xlink:href="#DejaVuSans-20" x="1364.474609"/>
     <use xlink:href="#DejaVuSans-50" x="1396.261719"/>
     <use xlink:href="#DejaVuSans-61" x="1452.064453"/>
     <use xlink:href="#DejaVuSans-63" x="1513.34375"/>
     <use xlink:href="#DejaVuSans-6b" x="1568.324219"/>
     <use xlink:href="#DejaVuSans-65" x="1622.609375"/>
     <use xlink:href="#DejaVuSans-74" x="1684.132812"/>
     <use xlink:href="#DejaVuSans-73" x="1723.341797"/>
    </g>
   </g>
   <g id="legend_1">
    <g id="patch_7">
     <path d="M 414.752344 635.8 
L 618.447656 635.8 
Q 620.447656 635.8 620.447656 633.8 
L 620.447656 546.73125 
Q 620.447656 544.73125 618.447656 544.73125 
L 414.752344 544.73125 
Q 412.752344 544.73125 412.752344 546.73125 
L 412.752344 633.8 
Q 412.752344 635.8 414.752344 635.8 
z
" style="fill: #ffffff; opacity: 0.8; stroke: #cccccc; stroke-linejoin: miter"/>
    </g>
    <g id="line2d_20">
     <path d="M 416.752344 552.829688 
L 426.752344 552.829688 
L 436.752344 552.829688 
" style="fill: none; stroke: #1f77b4; stroke-width: 1.5; stroke-linecap: square"/>
    </g>
    <g id="text_17">
     <!-- Observed Packets -->
     <g transform="translate(444.752344 556.329688) scale(0.1 -0.1)">
      <use xlink:href="#DejaVuSans-4f"/>
      <use xlink:href="#DejaVuSans-62" x="78.710938"/>
      <use xlink:href="#DejaVuSans-73" x="142.1875"/>
      <use xlink:href="#DejaVuSans-65" x="194.287109"/>
      <use xlink:href="#DejaVuSans-72" x="255.810547"/>
      <use xlink:href="#DejaVuSans-76" x="296.923828"/>
      <use xlink:href="#DejaVuSans-65" x="356.103516"/>
      <use xlink:href="#DejaVuSans-64" x="417.626953"/>
      <use xlink:href="#DejaVuSans-20" x="481.103516"/>
      <use xlink:href="#DejaVuSans-50" x="512.890625"/>
      <use xlink:href="#DejaVuSans-61" x="568.693359"/>
      <use xlink:href="#DejaVuSans-63" x="629.972656"/>
      <use xlink:href="#DejaVuSans-6b" x="684.953125"/>
      <use xlink:href="#DejaVuSans-65" x="739.238281"/>
      <use xlink:href="#DejaVuSans-74" x="800.761719"/>
      <use xlink:href="#DejaVuSans-73" x="839.970703"/>
     </g>
    </g>
    <g id="line2d_21">
     <path d="M 416.752344 567.507812 
L 426.752344 567.507812 
L 436.752344 567.507812 
" style="fill: none; stroke: #ff7f0e; stroke-width: 1.5; stroke-linecap: square"/>
    </g>
    <g id="text_18">
     <!-- Filtered Packets SelectionProcess1 -->
     <g transform="translate(444.752344 571.007812) scale(0.1 -0.1)">
      <use xlink:href="#DejaVuSans-46"/>
      <use xlink:href="#DejaVuSans-69" x="50.269531"/>
      <use xlink:href="#DejaVuSans-6c" x="78.052734"/>
      <use xlink:href="#DejaVuSans-74" x="105.835938"/>
      <use xlink:href="#DejaVuSans-65" x="145.044922"/>
      <use xlink:href="#DejaVuSans-72" x="206.568359"/>
      <use xlink:href="#DejaVuSans-65" x="245.431641"/>
      <use xlink:href="#DejaVuSans-64" x="306.955078"/>
      <use xlink:href="#DejaVuSans-20" x="370.431641"/>
      <use xlink:href="#DejaVuSans-50" x="402.21875"/>
      <use xlink:href="#DejaVuSans-61" x="458.021484"/>
      <use xlink:href="#DejaVuSans-63" x="519.300781"/>
      <use xlink:href="#DejaVuSans-6b" x="574.28125"/>
      <use xlink:href="#DejaVuSans-65" x="628.566406"/>
      <use xlink:href="#DejaVuSans-74" x="690.089844"/>
      <use xlink:href="#DejaVuSans-73" x="729.298828"/>
      <use xlink:href="#DejaVuSans-20" x="781.398438"/>
      <use xlink:href="#DejaVuSans-53" x="813.185547"/>
      <use xlink:href="#DejaVuSans-65" x="876.662109"/>
      <use xlink:href="#DejaVuSans-6c" x="938.185547"/>
      <use xlink:href="#DejaVuSans-65" x="965.96875"/>
      <use xlink:href="#DejaVuSans-63" x="1027.492188"/>
      <use xlink:href="#DejaVuSans-74" x="1082.472656"/>
      <use xlink:href="#DejaVuSans-69" x="1121.681641"/>
      <use xlink:href="#DejaVuSans-6f" x="1149.464844"/>
      <use xlink:href="#DejaVuSans-6e" x="1210.646484"/>
      <use xlink:href="#DejaVuSans-50" x="1274.025391"/>
      <use xlink:href="#DejaVuSans-72" x="1332.578125"/>
      <use xlink:href="#DejaVuSans-6f" x="1371.441406"/>
      <use xlink:href="#DejaVuSans-63" x="1432.623047"/>
      <use xlink:href="#DejaVuSans-65" x="1487.603516"/>
      <use xlink:href="#DejaVuSans-73" x="1549.126953"/>
      <use xlink:href="#DejaVuSans-73" x="1601.226562"/>
      <use xlink:href="#DejaVuSans-31" x="1653.326172"/>
     </g>
    </g>
    <g id="line2d_22">
     <path d="M 416.752344 582.185938 
L 426.752344 582.185938 
L 436.752344 582.185938 
" style="fill: none; stroke: #2ca02c; stroke-width: 1.5; stroke-linecap: square"/>
    </g>
    <g id="text_19">
     <!-- Filtered Packets SelectionProcess2 -->
     <g transform="translate(444.752344 585.685938) scale(0.1 -0.1)">
      <use xlink:href="#DejaVuSans-46"/>
      <use xlink:href="#DejaVuSans-69" x="50.269531"/>
      <use xlink:href="#DejaVuSans-6c" x="78.052734"/>
      <use xlink:href="#DejaVuSans-74" x="105.835938"/>
      <use xlink:href="#DejaVuSans-65" x="145.044922"/>
      <use xlink:href="#DejaVuSans-72" x="206.568359"/>
      <use xlink:href="#DejaVuSans-65" x="245.431641"/>
      <use xlink:href="#DejaVuSans-64" x="306.955078"/>
      <use xlink:href="#DejaVuSans-20" x="370.431641"/>
      <use xlink:href="#DejaVuSans-50" x="402.21875"/>
      <use xlink:href="#DejaVuSans-61" x="458.021484"/>
      <use xlink:href="#DejaVuSans-63" x="519.300781"/>
      <use xlink:href="#DejaVuSans-6b" x="574.28125"/>
      <use xlink:href="#DejaVuSans-65" x="628.566406"/>
      <use xlink:href="#DejaVuSans-74" x="690.089844"/>
      <use xlink:href="#DejaVuSans-73" x="729.298828"/>
      <use xlink:href="#DejaVuSans-20" x="781.398438"/>
      <use xlink:href="#DejaVuSans-53" x="813.185547"/>
      <use xlink:href="#DejaVuSans-65" x="876.662109"/>
      <use xlink:href="#DejaVuSans-6c" x="938.185547"/>
      <use xlink:href="#DejaVuSans-65" x="965.96875"/>
      <use xlink:href="#DejaVuSans-63" x="1027.492188"/>
      <use xlink:href="#DejaVuSans-74" x="1082.472656"/>
      <use xlink:href="#DejaVuSans-69" x="1121.681641"/>
      <use xlink:href="#DejaVuSans-6f" x="1149.464844"/>
      <use xlink:href="#DejaVuSans-6e" x="1210.646484"/>
      <use xlink:href="#DejaVuSans-50" x="1274.025391"/>
      <use xlink:href="#DejaVuSans-72" x="1332.578125"/>
      <use xlink:href="#DejaVuSans-6f" x="1371.441406"/>
      <use xlink:href="#DejaVuSans-63" x="1432.623047"/>
      <use xlink:href="#DejaVuSans-65" x="1487.603516"/>
      <use xlink:href="#DejaVuSans-73" x="1549.126953"/>
      <use xlink:href="#DejaVuSans-73" x="1601.226562"/>
      <use xlink:href="#DejaVuSans-32" x="1653.326172"/>
     </g>
    </g>
    <g id="line2d_23">
     <path d="M 416.752344 596.864063 
L 426.752344 596.864063 
L 436.752344 596.864063 
" style="fill: none; stroke-dasharray: 5.55,2.4; stroke-dashoffset: 0; stroke: #0000ff; stroke-width: 1.5"/>
    </g>
    <g id="text_20">
     <!-- Observed Packets Average -->
     <g transform="translate(444.752344 600.364063) scale(0.1 -0.1)">
      <defs>
       <path id="DejaVuSans-41" d="M 2188 4044 
L 1331 1722 
L 3047 1722 
L 2188 4044 
z
M 1831 4666 
L 2547 4666 
L 4325 0 
L 3669 0 
L 3244 1197 
L 1141 1197 
L 716 0 
L 50 0 
L 1831 4666 
z
" transform="scale(0.015625)"/>
       <path id="DejaVuSans-67" d="M 2906 1791 
Q 2906 2416 2648 2759 
Q 2391 3103 1925 3103 
Q 1463 3103 1205 2759 
Q 947 2416 947 1791 
Q 947 1169 1205 825 
Q 1463 481 1925 481 
Q 2391 481 2648 825 
Q 2906 1169 2906 1791 
z
M 3481 434 
Q 3481 -459 3084 -895 
Q 2688 -1331 1869 -1331 
Q 1566 -1331 1297 -1286 
Q 1028 -1241 775 -1147 
L 775 -588 
Q 1028 -725 1275 -790 
Q 1522 -856 1778 -856 
Q 2344 -856 2625 -561 
Q 2906 -266 2906 331 
L 2906 616 
Q 2728 306 2450 153 
Q 2172 0 1784 0 
Q 1141 0 747 490 
Q 353 981 353 1791 
Q 353 2603 747 3093 
Q 1141 3584 1784 3584 
Q 2172 3584 2450 3431 
Q 2728 3278 2906 2969 
L 2906 3500 
L 3481 3500 
L 3481 434 
z
" transform="scale(0.015625)"/>
      </defs>
      <use xlink:href="#DejaVuSans-4f"/>
      <use xlink:href="#DejaVuSans-62" x="78.710938"/>
      <use xlink:href="#DejaVuSans-73" x="142.1875"/>
      <use xlink:href="#DejaVuSans-65" x="194.287109"/>
      <use xlink:href="#DejaVuSans-72" x="255.810547"/>
      <use xlink:href="#DejaVuSans-76" x="296.923828"/>
      <use xlink:href="#DejaVuSans-65" x="356.103516"/>
      <use xlink:href="#DejaVuSans-64" x="417.626953"/>
      <use xlink:href="#DejaVuSans-20" x="481.103516"/>
      <use xlink:href="#DejaVuSans-50" x="512.890625"/>
      <use xlink:href="#DejaVuSans-61" x="568.693359"/>
      <use xlink:href="#DejaVuSans-63" x="629.972656"/>
      <use xlink:href="#DejaVuSans-6b" x="684.953125"/>
      <use xlink:href="#DejaVuSans-65" x="739.238281"/>
      <use xlink:href="#DejaVuSans-74" x="800.761719"/>
      <use xlink:href="#DejaVuSans-73" x="839.970703"/>
      <use xlink:href="#DejaVuSans-20" x="892.070312"/>
      <use xlink:href="#DejaVuSans-41" x="923.857422"/>
      <use xlink:href="#DejaVuSans-76" x="986.390625"/>
      <use xlink:href="#DejaVuSans-65" x="1045.570312"/>
      <use xlink:href="#DejaVuSans-72" x="1107.09375"/>
      <use xlink:href="#DejaVuSans-61" x="1148.207031"/>
      <use xlink:href="#DejaVuSans-67" x="1209.486328"/>
      <use xlink:href="#DejaVuSans-65" x="1272.962891"/>
     </g>
    </g>
    <g id="line2d_24">
     <path d="M 416.752344 611.542188 
L 426.752344 611.542188 
L 436.752344 611.542188 
" style="fill: none; stroke-dasharray: 5.55,2.4; stroke-dashoffset: 0; stroke: #ffa500; stroke-width: 1.5"/>
    </g>
    <g id="text_21">
     <!-- Filtered Packets Average 1 -->
     <g transform="translate(444.752344 615.042188) scale(0.1 -0.1)">
      <use xlink:href="#DejaVuSans-46"/>
      <use xlink:href="#DejaVuSans-69" x="50.269531"/>
      <use xlink:href="#DejaVuSans-6c" x="78.052734"/>
      <use xlink:href="#DejaVuSans-74" x="105.835938"/>
      <use xlink:href="#DejaVuSans-65" x="145.044922"/>
      <use xlink:href="#DejaVuSans-72" x="206.568359"/>
      <use xlink:href="#DejaVuSans-65" x="245.431641"/>
      <use xlink:href="#DejaVuSans-64" x="306.955078"/>
      <use xlink:href="#DejaVuSans-20" x="370.431641"/>
      <use xlink:href="#DejaVuSans-50" x="402.21875"/>
      <use xlink:href="#DejaVuSans-61" x="458.021484"/>
      <use xlink:href="#DejaVuSans-63" x="519.300781"/>
      <use xlink:href="#DejaVuSans-6b" x="574.28125"/>
      <use xlink:href="#DejaVuSans-65" x="628.566406"/>
      <use xlink:href="#DejaVuSans-74" x="690.089844"/>
      <use xlink:href="#DejaVuSans-73" x="729.298828"/>
      <use xlink:href="#DejaVuSans-20" x="781.398438"/>
      <use xlink:href="#DejaVuSans-41" x="813.185547"/>
      <use xlink:href="#DejaVuSans-76" x="875.71875"/>
      <use xlink:href="#DejaVuSans-65" x="934.898438"/>
      <use xlink:href="#DejaVuSans-72" x="996.421875"/>
      <use xlink:href="#DejaVuSans-61" x="1037.535156"/>
      <use xlink:href="#DejaVuSans-67" x="1098.814453"/>
      <use xlink:href="#DejaVuSans-65" x="1162.291016"/>
      <use xlink:href="#DejaVuSans-20" x="1223.814453"/>
      <use xlink:href="#DejaVuSans-31" x="1255.601562"/>
     </g>
    </g>
    <g id="line2d_25">
     <path d="M 416.752344 626.220313 
L 426.752344 626.220313 
L 436.752344 626.220313 
" style="fill: none; stroke-dasharray: 5.55,2.4; stroke-dashoffset: 0; stroke: #008000; stroke-width: 1.5"/>
    </g>
    <g id="text_22">
     <!-- Filtered Packets Average 2 -->
     <g transform="translate(444.752344 629.720313) scale(0.1 -0.1)">
      <use xlink:href="#DejaVuSans-46"/>
      <use xlink:href="#DejaVuSans-69" x="50.269531"/>
      <use xlink:href="#DejaVuSans-6c" x="78.052734"/>
      <use xlink:href="#DejaVuSans-74" x="105.835938"/>
      <use xlink:href="#DejaVuSans-65" x="145.044922"/>
      <use xlink:href="#DejaVuSans-72" x="206.568359"/>
      <use xlink:href="#DejaVuSans-65" x="245.431641"/>
      <use xlink:href="#DejaVuSans-64" x="306.955078"/>
      <use xlink:href="#DejaVuSans-20" x="370.431641"/>
      <use xlink:href="#DejaVuSans-50" x="402.21875"/>
      <use xlink:href="#DejaVuSans-61" x="458.021484"/>
      <use xlink:href="#DejaVuSans-63" x="519.300781"/>
      <use xlink:href="#DejaVuSans-6b" x="574.28125"/>
      <use xlink:href="#DejaVuSans-65" x="628.566406"/>
      <use xlink:href="#DejaVuSans-74" x="690.089844"/>
      <use xlink:href="#DejaVuSans-73" x="729.298828"/>
      <use xlink:href="#DejaVuSans-20" x="781.398438"/>
      <use xlink:href="#DejaVuSans-41" x="813.185547"/>
      <use xlink:href="#DejaVuSans-76" x="875.71875"/>
      <use xlink:href="#DejaVuSans-65" x="934.898438"/>
      <use xlink:href="#DejaVuSans-72" x="996.421875"/>
      <use xlink:href="#DejaVuSans-61" x="1037.535156"/>
      <use xlink:href="#DejaVuSans-67" x="1098.814453"/>
      <use xlink:href="#DejaVuSans-65" x="1162.291016"/>
      <use xlink:href="#DejaVuSans-20" x="1223.814453"/>
      <use xlink:href="#DejaVuSans-32" x="1255.601562"/>
     </g>
    </g>
   </g>
  </g>
 </g>
 <defs>
  <clipPath id="pc5831ab919">
   <rect x="126" y="86.4" width="781.2" height="554.4"/>
  </clipPath>
 </defs>
</svg>
