<?xml version="1.0" encoding="utf-8" standalone="no"?>
<!DOCTYPE svg PUBLIC "-//W3C//DTD SVG 1.1//EN"
  "http://www.w3.org/Graphics/SVG/1.1/DTD/svg11.dtd">
<svg xmlns:xlink="http://www.w3.org/1999/xlink" width="1008pt" height="720pt" viewBox="0 0 1008 720" xmlns="http://www.w3.org/2000/svg" version="1.1">
 <metadata>
  <rdf:RDF xmlns:dc="http://purl.org/dc/elements/1.1/" xmlns:cc="http://creativecommons.org/ns#" xmlns:rdf="http://www.w3.org/1999/02/22-rdf-syntax-ns#">
   <cc:Work>
    <dc:type rdf:resource="http://purl.org/dc/dcmitype/StillImage"/>
    <dc:date>2023-04-13T18:12:49.616003</dc:date>
    <dc:format>image/svg+xml</dc:format>
    <dc:creator>
     <cc:Agent>
      <dc:title>Matplotlib v3.6.2, https://matplotlib.org/</dc:title>
     </cc:Agent>
    </dc:creator>
   </cc:Work>
  </rdf:RDF>
 </metadata>
 <defs>
  <style type="text/css">*{stroke-linejoin: round; stroke-linecap: butt}</style>
 </defs>
 <g id="figure_1">
  <g id="patch_1">
   <path d="M 0 720 
L 1008 720 
L 1008 0 
L 0 0 
z
" style="fill: #ffffff"/>
  </g>
  <g id="axes_1">
   <g id="patch_2">
    <path d="M 63.77 658.84 
L 795.154 658.84 
L 795.154 46.08 
L 63.77 46.08 
z
" style="fill: #ffffff"/>
   </g>
   <g id="matplotlib.axis_1">
    <g id="xtick_1">
     <g id="line2d_1">
      <defs>
       <path id="m7e5fd506ea" d="M 0 0 
L 0 3.5 
" style="stroke: #000000; stroke-width: 0.8"/>
      </defs>
      <g>
       <use xlink:href="#m7e5fd506ea" x="63.77" y="658.84" style="stroke: #000000; stroke-width: 0.8"/>
      </g>
     </g>
     <g id="text_1">
      <!-- 0 -->
      <g transform="translate(60.58875 673.438437) scale(0.1 -0.1)">
       <defs>
        <path id="DejaVuSans-30" d="M 2034 4250 
Q 1547 4250 1301 3770 
Q 1056 3291 1056 2328 
Q 1056 1369 1301 889 
Q 1547 409 2034 409 
Q 2525 409 2770 889 
Q 3016 1369 3016 2328 
Q 3016 3291 2770 3770 
Q 2525 4250 2034 4250 
z
M 2034 4750 
Q 2819 4750 3233 4129 
Q 3647 3509 3647 2328 
Q 3647 1150 3233 529 
Q 2819 -91 2034 -91 
Q 1250 -91 836 529 
Q 422 1150 422 2328 
Q 422 3509 836 4129 
Q 1250 4750 2034 4750 
z
" transform="scale(0.015625)"/>
       </defs>
       <use xlink:href="#DejaVuSans-30"/>
      </g>
     </g>
    </g>
    <g id="xtick_2">
     <g id="line2d_2">
      <g>
       <use xlink:href="#m7e5fd506ea" x="177.90674" y="658.84" style="stroke: #000000; stroke-width: 0.8"/>
      </g>
     </g>
     <g id="text_2">
      <!-- 10 -->
      <g transform="translate(171.54424 673.438437) scale(0.1 -0.1)">
       <defs>
        <path id="DejaVuSans-31" d="M 794 531 
L 1825 531 
L 1825 4091 
L 703 3866 
L 703 4441 
L 1819 4666 
L 2450 4666 
L 2450 531 
L 3481 531 
L 3481 0 
L 794 0 
L 794 531 
z
" transform="scale(0.015625)"/>
       </defs>
       <use xlink:href="#DejaVuSans-31"/>
       <use xlink:href="#DejaVuSans-30" x="63.623047"/>
      </g>
     </g>
    </g>
    <g id="xtick_3">
     <g id="line2d_3">
      <g>
       <use xlink:href="#m7e5fd506ea" x="292.04348" y="658.84" style="stroke: #000000; stroke-width: 0.8"/>
      </g>
     </g>
     <g id="text_3">
      <!-- 20 -->
      <g transform="translate(285.68098 673.438437) scale(0.1 -0.1)">
       <defs>
        <path id="DejaVuSans-32" d="M 1228 531 
L 3431 531 
L 3431 0 
L 469 0 
L 469 531 
Q 828 903 1448 1529 
Q 2069 2156 2228 2338 
Q 2531 2678 2651 2914 
Q 2772 3150 2772 3378 
Q 2772 3750 2511 3984 
Q 2250 4219 1831 4219 
Q 1534 4219 1204 4116 
Q 875 4013 500 3803 
L 500 4441 
Q 881 4594 1212 4672 
Q 1544 4750 1819 4750 
Q 2544 4750 2975 4387 
Q 3406 4025 3406 3419 
Q 3406 3131 3298 2873 
Q 3191 2616 2906 2266 
Q 2828 2175 2409 1742 
Q 1991 1309 1228 531 
z
" transform="scale(0.015625)"/>
       </defs>
       <use xlink:href="#DejaVuSans-32"/>
       <use xlink:href="#DejaVuSans-30" x="63.623047"/>
      </g>
     </g>
    </g>
    <g id="xtick_4">
     <g id="line2d_4">
      <g>
       <use xlink:href="#m7e5fd506ea" x="406.180219" y="658.84" style="stroke: #000000; stroke-width: 0.8"/>
      </g>
     </g>
     <g id="text_4">
      <!-- 30 -->
      <g transform="translate(399.817719 673.438437) scale(0.1 -0.1)">
       <defs>
        <path id="DejaVuSans-33" d="M 2597 2516 
Q 3050 2419 3304 2112 
Q 3559 1806 3559 1356 
Q 3559 666 3084 287 
Q 2609 -91 1734 -91 
Q 1441 -91 1130 -33 
Q 819 25 488 141 
L 488 750 
Q 750 597 1062 519 
Q 1375 441 1716 441 
Q 2309 441 2620 675 
Q 2931 909 2931 1356 
Q 2931 1769 2642 2001 
Q 2353 2234 1838 2234 
L 1294 2234 
L 1294 2753 
L 1863 2753 
Q 2328 2753 2575 2939 
Q 2822 3125 2822 3475 
Q 2822 3834 2567 4026 
Q 2313 4219 1838 4219 
Q 1578 4219 1281 4162 
Q 984 4106 628 3988 
L 628 4550 
Q 988 4650 1302 4700 
Q 1616 4750 1894 4750 
Q 2613 4750 3031 4423 
Q 3450 4097 3450 3541 
Q 3450 3153 3228 2886 
Q 3006 2619 2597 2516 
z
" transform="scale(0.015625)"/>
       </defs>
       <use xlink:href="#DejaVuSans-33"/>
       <use xlink:href="#DejaVuSans-30" x="63.623047"/>
      </g>
     </g>
    </g>
    <g id="xtick_5">
     <g id="line2d_5">
      <g>
       <use xlink:href="#m7e5fd506ea" x="520.316959" y="658.84" style="stroke: #000000; stroke-width: 0.8"/>
      </g>
     </g>
     <g id="text_5">
      <!-- 40 -->
      <g transform="translate(513.954459 673.438437) scale(0.1 -0.1)">
       <defs>
        <path id="DejaVuSans-34" d="M 2419 4116 
L 825 1625 
L 2419 1625 
L 2419 4116 
z
M 2253 4666 
L 3047 4666 
L 3047 1625 
L 3713 1625 
L 3713 1100 
L 3047 1100 
L 3047 0 
L 2419 0 
L 2419 1100 
L 313 1100 
L 313 1709 
L 2253 4666 
z
" transform="scale(0.015625)"/>
       </defs>
       <use xlink:href="#DejaVuSans-34"/>
       <use xlink:href="#DejaVuSans-30" x="63.623047"/>
      </g>
     </g>
    </g>
    <g id="xtick_6">
     <g id="line2d_6">
      <g>
       <use xlink:href="#m7e5fd506ea" x="634.453699" y="658.84" style="stroke: #000000; stroke-width: 0.8"/>
      </g>
     </g>
     <g id="text_6">
      <!-- 50 -->
      <g transform="translate(628.091199 673.438437) scale(0.1 -0.1)">
       <defs>
        <path id="DejaVuSans-35" d="M 691 4666 
L 3169 4666 
L 3169 4134 
L 1269 4134 
L 1269 2991 
Q 1406 3038 1543 3061 
Q 1681 3084 1819 3084 
Q 2600 3084 3056 2656 
Q 3513 2228 3513 1497 
Q 3513 744 3044 326 
Q 2575 -91 1722 -91 
Q 1428 -91 1123 -41 
Q 819 9 494 109 
L 494 744 
Q 775 591 1075 516 
Q 1375 441 1709 441 
Q 2250 441 2565 725 
Q 2881 1009 2881 1497 
Q 2881 1984 2565 2268 
Q 2250 2553 1709 2553 
Q 1456 2553 1204 2497 
Q 953 2441 691 2322 
L 691 4666 
z
" transform="scale(0.015625)"/>
       </defs>
       <use xlink:href="#DejaVuSans-35"/>
       <use xlink:href="#DejaVuSans-30" x="63.623047"/>
      </g>
     </g>
    </g>
    <g id="xtick_7">
     <g id="line2d_7">
      <g>
       <use xlink:href="#m7e5fd506ea" x="748.590439" y="658.84" style="stroke: #000000; stroke-width: 0.8"/>
      </g>
     </g>
     <g id="text_7">
      <!-- 60 -->
      <g transform="translate(742.227939 673.438437) scale(0.1 -0.1)">
       <defs>
        <path id="DejaVuSans-36" d="M 2113 2584 
Q 1688 2584 1439 2293 
Q 1191 2003 1191 1497 
Q 1191 994 1439 701 
Q 1688 409 2113 409 
Q 2538 409 2786 701 
Q 3034 994 3034 1497 
Q 3034 2003 2786 2293 
Q 2538 2584 2113 2584 
z
M 3366 4563 
L 3366 3988 
Q 3128 4100 2886 4159 
Q 2644 4219 2406 4219 
Q 1781 4219 1451 3797 
Q 1122 3375 1075 2522 
Q 1259 2794 1537 2939 
Q 1816 3084 2150 3084 
Q 2853 3084 3261 2657 
Q 3669 2231 3669 1497 
Q 3669 778 3244 343 
Q 2819 -91 2113 -91 
Q 1303 -91 875 529 
Q 447 1150 447 2328 
Q 447 3434 972 4092 
Q 1497 4750 2381 4750 
Q 2619 4750 2861 4703 
Q 3103 4656 3366 4563 
z
" transform="scale(0.015625)"/>
       </defs>
       <use xlink:href="#DejaVuSans-36"/>
       <use xlink:href="#DejaVuSans-30" x="63.623047"/>
      </g>
     </g>
    </g>
    <g id="text_8">
     <!-- Time (s) -->
     <g transform="translate(409.133094 687.116562) scale(0.1 -0.1)">
      <defs>
       <path id="DejaVuSans-54" d="M -19 4666 
L 3928 4666 
L 3928 4134 
L 2272 4134 
L 2272 0 
L 1638 0 
L 1638 4134 
L -19 4134 
L -19 4666 
z
" transform="scale(0.015625)"/>
       <path id="DejaVuSans-69" d="M 603 3500 
L 1178 3500 
L 1178 0 
L 603 0 
L 603 3500 
z
M 603 4863 
L 1178 4863 
L 1178 4134 
L 603 4134 
L 603 4863 
z
" transform="scale(0.015625)"/>
       <path id="DejaVuSans-6d" d="M 3328 2828 
Q 3544 3216 3844 3400 
Q 4144 3584 4550 3584 
Q 5097 3584 5394 3201 
Q 5691 2819 5691 2113 
L 5691 0 
L 5113 0 
L 5113 2094 
Q 5113 2597 4934 2840 
Q 4756 3084 4391 3084 
Q 3944 3084 3684 2787 
Q 3425 2491 3425 1978 
L 3425 0 
L 2847 0 
L 2847 2094 
Q 2847 2600 2669 2842 
Q 2491 3084 2119 3084 
Q 1678 3084 1418 2786 
Q 1159 2488 1159 1978 
L 1159 0 
L 581 0 
L 581 3500 
L 1159 3500 
L 1159 2956 
Q 1356 3278 1631 3431 
Q 1906 3584 2284 3584 
Q 2666 3584 2933 3390 
Q 3200 3197 3328 2828 
z
" transform="scale(0.015625)"/>
       <path id="DejaVuSans-65" d="M 3597 1894 
L 3597 1613 
L 953 1613 
Q 991 1019 1311 708 
Q 1631 397 2203 397 
Q 2534 397 2845 478 
Q 3156 559 3463 722 
L 3463 178 
Q 3153 47 2828 -22 
Q 2503 -91 2169 -91 
Q 1331 -91 842 396 
Q 353 884 353 1716 
Q 353 2575 817 3079 
Q 1281 3584 2069 3584 
Q 2775 3584 3186 3129 
Q 3597 2675 3597 1894 
z
M 3022 2063 
Q 3016 2534 2758 2815 
Q 2500 3097 2075 3097 
Q 1594 3097 1305 2825 
Q 1016 2553 972 2059 
L 3022 2063 
z
" transform="scale(0.015625)"/>
       <path id="DejaVuSans-20" transform="scale(0.015625)"/>
       <path id="DejaVuSans-28" d="M 1984 4856 
Q 1566 4138 1362 3434 
Q 1159 2731 1159 2009 
Q 1159 1288 1364 580 
Q 1569 -128 1984 -844 
L 1484 -844 
Q 1016 -109 783 600 
Q 550 1309 550 2009 
Q 550 2706 781 3412 
Q 1013 4119 1484 4856 
L 1984 4856 
z
" transform="scale(0.015625)"/>
       <path id="DejaVuSans-73" d="M 2834 3397 
L 2834 2853 
Q 2591 2978 2328 3040 
Q 2066 3103 1784 3103 
Q 1356 3103 1142 2972 
Q 928 2841 928 2578 
Q 928 2378 1081 2264 
Q 1234 2150 1697 2047 
L 1894 2003 
Q 2506 1872 2764 1633 
Q 3022 1394 3022 966 
Q 3022 478 2636 193 
Q 2250 -91 1575 -91 
Q 1294 -91 989 -36 
Q 684 19 347 128 
L 347 722 
Q 666 556 975 473 
Q 1284 391 1588 391 
Q 1994 391 2212 530 
Q 2431 669 2431 922 
Q 2431 1156 2273 1281 
Q 2116 1406 1581 1522 
L 1381 1569 
Q 847 1681 609 1914 
Q 372 2147 372 2553 
Q 372 3047 722 3315 
Q 1072 3584 1716 3584 
Q 2034 3584 2315 3537 
Q 2597 3491 2834 3397 
z
" transform="scale(0.015625)"/>
       <path id="DejaVuSans-29" d="M 513 4856 
L 1013 4856 
Q 1481 4119 1714 3412 
Q 1947 2706 1947 2009 
Q 1947 1309 1714 600 
Q 1481 -109 1013 -844 
L 513 -844 
Q 928 -128 1133 580 
Q 1338 1288 1338 2009 
Q 1338 2731 1133 3434 
Q 928 4138 513 4856 
z
" transform="scale(0.015625)"/>
      </defs>
      <use xlink:href="#DejaVuSans-54"/>
      <use xlink:href="#DejaVuSans-69" x="57.958984"/>
      <use xlink:href="#DejaVuSans-6d" x="85.742188"/>
      <use xlink:href="#DejaVuSans-65" x="183.154297"/>
      <use xlink:href="#DejaVuSans-20" x="244.677734"/>
      <use xlink:href="#DejaVuSans-28" x="276.464844"/>
      <use xlink:href="#DejaVuSans-73" x="315.478516"/>
      <use xlink:href="#DejaVuSans-29" x="367.578125"/>
     </g>
    </g>
   </g>
   <g id="matplotlib.axis_2">
    <g id="ytick_1">
     <g id="line2d_8">
      <defs>
       <path id="me7b64240ff" d="M 0 0 
L -3.5 0 
" style="stroke: #000000; stroke-width: 0.8"/>
      </defs>
      <g>
       <use xlink:href="#me7b64240ff" x="63.77" y="658.84" style="stroke: #000000; stroke-width: 0.8"/>
      </g>
     </g>
     <g id="text_9">
      <!-- 0 -->
      <g transform="translate(50.4075 662.639219) scale(0.1 -0.1)">
       <use xlink:href="#DejaVuSans-30"/>
      </g>
     </g>
    </g>
    <g id="ytick_2">
     <g id="line2d_9">
      <g>
       <use xlink:href="#me7b64240ff" x="63.77" y="556.751067" style="stroke: #000000; stroke-width: 0.8"/>
      </g>
     </g>
     <g id="text_10">
      <!-- 5 -->
      <g transform="translate(50.4075 560.550285) scale(0.1 -0.1)">
       <use xlink:href="#DejaVuSans-35"/>
      </g>
     </g>
    </g>
    <g id="ytick_3">
     <g id="line2d_10">
      <g>
       <use xlink:href="#me7b64240ff" x="63.77" y="454.662133" style="stroke: #000000; stroke-width: 0.8"/>
      </g>
     </g>
     <g id="text_11">
      <!-- 10 -->
      <g transform="translate(44.045 458.461352) scale(0.1 -0.1)">
       <use xlink:href="#DejaVuSans-31"/>
       <use xlink:href="#DejaVuSans-30" x="63.623047"/>
      </g>
     </g>
    </g>
    <g id="ytick_4">
     <g id="line2d_11">
      <g>
       <use xlink:href="#me7b64240ff" x="63.77" y="352.5732" style="stroke: #000000; stroke-width: 0.8"/>
      </g>
     </g>
     <g id="text_12">
      <!-- 15 -->
      <g transform="translate(44.045 356.372419) scale(0.1 -0.1)">
       <use xlink:href="#DejaVuSans-31"/>
       <use xlink:href="#DejaVuSans-35" x="63.623047"/>
      </g>
     </g>
    </g>
    <g id="ytick_5">
     <g id="line2d_12">
      <g>
       <use xlink:href="#me7b64240ff" x="63.77" y="250.484266" style="stroke: #000000; stroke-width: 0.8"/>
      </g>
     </g>
     <g id="text_13">
      <!-- 20 -->
      <g transform="translate(44.045 254.283485) scale(0.1 -0.1)">
       <use xlink:href="#DejaVuSans-32"/>
       <use xlink:href="#DejaVuSans-30" x="63.623047"/>
      </g>
     </g>
    </g>
    <g id="ytick_6">
     <g id="line2d_13">
      <g>
       <use xlink:href="#me7b64240ff" x="63.77" y="148.395333" style="stroke: #000000; stroke-width: 0.8"/>
      </g>
     </g>
     <g id="text_14">
      <!-- 25 -->
      <g transform="translate(44.045 152.194552) scale(0.1 -0.1)">
       <use xlink:href="#DejaVuSans-32"/>
       <use xlink:href="#DejaVuSans-35" x="63.623047"/>
      </g>
     </g>
    </g>
    <g id="ytick_7">
     <g id="line2d_14">
      <g>
       <use xlink:href="#me7b64240ff" x="63.77" y="46.3064" style="stroke: #000000; stroke-width: 0.8"/>
      </g>
     </g>
     <g id="text_15">
      <!-- 30 -->
      <g transform="translate(44.045 50.105618) scale(0.1 -0.1)">
       <use xlink:href="#DejaVuSans-33"/>
       <use xlink:href="#DejaVuSans-30" x="63.623047"/>
      </g>
     </g>
    </g>
    <g id="text_16">
     <!-- Packets per Second -->
     <g transform="translate(37.965312 401.305313) rotate(-90) scale(0.1 -0.1)">
      <defs>
       <path id="DejaVuSans-50" d="M 1259 4147 
L 1259 2394 
L 2053 2394 
Q 2494 2394 2734 2622 
Q 2975 2850 2975 3272 
Q 2975 3691 2734 3919 
Q 2494 4147 2053 4147 
L 1259 4147 
z
M 628 4666 
L 2053 4666 
Q 2838 4666 3239 4311 
Q 3641 3956 3641 3272 
Q 3641 2581 3239 2228 
Q 2838 1875 2053 1875 
L 1259 1875 
L 1259 0 
L 628 0 
L 628 4666 
z
" transform="scale(0.015625)"/>
       <path id="DejaVuSans-61" d="M 2194 1759 
Q 1497 1759 1228 1600 
Q 959 1441 959 1056 
Q 959 750 1161 570 
Q 1363 391 1709 391 
Q 2188 391 2477 730 
Q 2766 1069 2766 1631 
L 2766 1759 
L 2194 1759 
z
M 3341 1997 
L 3341 0 
L 2766 0 
L 2766 531 
Q 2569 213 2275 61 
Q 1981 -91 1556 -91 
Q 1019 -91 701 211 
Q 384 513 384 1019 
Q 384 1609 779 1909 
Q 1175 2209 1959 2209 
L 2766 2209 
L 2766 2266 
Q 2766 2663 2505 2880 
Q 2244 3097 1772 3097 
Q 1472 3097 1187 3025 
Q 903 2953 641 2809 
L 641 3341 
Q 956 3463 1253 3523 
Q 1550 3584 1831 3584 
Q 2591 3584 2966 3190 
Q 3341 2797 3341 1997 
z
" transform="scale(0.015625)"/>
       <path id="DejaVuSans-63" d="M 3122 3366 
L 3122 2828 
Q 2878 2963 2633 3030 
Q 2388 3097 2138 3097 
Q 1578 3097 1268 2742 
Q 959 2388 959 1747 
Q 959 1106 1268 751 
Q 1578 397 2138 397 
Q 2388 397 2633 464 
Q 2878 531 3122 666 
L 3122 134 
Q 2881 22 2623 -34 
Q 2366 -91 2075 -91 
Q 1284 -91 818 406 
Q 353 903 353 1747 
Q 353 2603 823 3093 
Q 1294 3584 2113 3584 
Q 2378 3584 2631 3529 
Q 2884 3475 3122 3366 
z
" transform="scale(0.015625)"/>
       <path id="DejaVuSans-6b" d="M 581 4863 
L 1159 4863 
L 1159 1991 
L 2875 3500 
L 3609 3500 
L 1753 1863 
L 3688 0 
L 2938 0 
L 1159 1709 
L 1159 0 
L 581 0 
L 581 4863 
z
" transform="scale(0.015625)"/>
       <path id="DejaVuSans-74" d="M 1172 4494 
L 1172 3500 
L 2356 3500 
L 2356 3053 
L 1172 3053 
L 1172 1153 
Q 1172 725 1289 603 
Q 1406 481 1766 481 
L 2356 481 
L 2356 0 
L 1766 0 
Q 1100 0 847 248 
Q 594 497 594 1153 
L 594 3053 
L 172 3053 
L 172 3500 
L 594 3500 
L 594 4494 
L 1172 4494 
z
" transform="scale(0.015625)"/>
       <path id="DejaVuSans-70" d="M 1159 525 
L 1159 -1331 
L 581 -1331 
L 581 3500 
L 1159 3500 
L 1159 2969 
Q 1341 3281 1617 3432 
Q 1894 3584 2278 3584 
Q 2916 3584 3314 3078 
Q 3713 2572 3713 1747 
Q 3713 922 3314 415 
Q 2916 -91 2278 -91 
Q 1894 -91 1617 61 
Q 1341 213 1159 525 
z
M 3116 1747 
Q 3116 2381 2855 2742 
Q 2594 3103 2138 3103 
Q 1681 3103 1420 2742 
Q 1159 2381 1159 1747 
Q 1159 1113 1420 752 
Q 1681 391 2138 391 
Q 2594 391 2855 752 
Q 3116 1113 3116 1747 
z
" transform="scale(0.015625)"/>
       <path id="DejaVuSans-72" d="M 2631 2963 
Q 2534 3019 2420 3045 
Q 2306 3072 2169 3072 
Q 1681 3072 1420 2755 
Q 1159 2438 1159 1844 
L 1159 0 
L 581 0 
L 581 3500 
L 1159 3500 
L 1159 2956 
Q 1341 3275 1631 3429 
Q 1922 3584 2338 3584 
Q 2397 3584 2469 3576 
Q 2541 3569 2628 3553 
L 2631 2963 
z
" transform="scale(0.015625)"/>
       <path id="DejaVuSans-53" d="M 3425 4513 
L 3425 3897 
Q 3066 4069 2747 4153 
Q 2428 4238 2131 4238 
Q 1616 4238 1336 4038 
Q 1056 3838 1056 3469 
Q 1056 3159 1242 3001 
Q 1428 2844 1947 2747 
L 2328 2669 
Q 3034 2534 3370 2195 
Q 3706 1856 3706 1288 
Q 3706 609 3251 259 
Q 2797 -91 1919 -91 
Q 1588 -91 1214 -16 
Q 841 59 441 206 
L 441 856 
Q 825 641 1194 531 
Q 1563 422 1919 422 
Q 2459 422 2753 634 
Q 3047 847 3047 1241 
Q 3047 1584 2836 1778 
Q 2625 1972 2144 2069 
L 1759 2144 
Q 1053 2284 737 2584 
Q 422 2884 422 3419 
Q 422 4038 858 4394 
Q 1294 4750 2059 4750 
Q 2388 4750 2728 4690 
Q 3069 4631 3425 4513 
z
" transform="scale(0.015625)"/>
       <path id="DejaVuSans-6f" d="M 1959 3097 
Q 1497 3097 1228 2736 
Q 959 2375 959 1747 
Q 959 1119 1226 758 
Q 1494 397 1959 397 
Q 2419 397 2687 759 
Q 2956 1122 2956 1747 
Q 2956 2369 2687 2733 
Q 2419 3097 1959 3097 
z
M 1959 3584 
Q 2709 3584 3137 3096 
Q 3566 2609 3566 1747 
Q 3566 888 3137 398 
Q 2709 -91 1959 -91 
Q 1206 -91 779 398 
Q 353 888 353 1747 
Q 353 2609 779 3096 
Q 1206 3584 1959 3584 
z
" transform="scale(0.015625)"/>
       <path id="DejaVuSans-6e" d="M 3513 2113 
L 3513 0 
L 2938 0 
L 2938 2094 
Q 2938 2591 2744 2837 
Q 2550 3084 2163 3084 
Q 1697 3084 1428 2787 
Q 1159 2491 1159 1978 
L 1159 0 
L 581 0 
L 581 3500 
L 1159 3500 
L 1159 2956 
Q 1366 3272 1645 3428 
Q 1925 3584 2291 3584 
Q 2894 3584 3203 3211 
Q 3513 2838 3513 2113 
z
" transform="scale(0.015625)"/>
       <path id="DejaVuSans-64" d="M 2906 2969 
L 2906 4863 
L 3481 4863 
L 3481 0 
L 2906 0 
L 2906 525 
Q 2725 213 2448 61 
Q 2172 -91 1784 -91 
Q 1150 -91 751 415 
Q 353 922 353 1747 
Q 353 2572 751 3078 
Q 1150 3584 1784 3584 
Q 2172 3584 2448 3432 
Q 2725 3281 2906 2969 
z
M 947 1747 
Q 947 1113 1208 752 
Q 1469 391 1925 391 
Q 2381 391 2643 752 
Q 2906 1113 2906 1747 
Q 2906 2381 2643 2742 
Q 2381 3103 1925 3103 
Q 1469 3103 1208 2742 
Q 947 2381 947 1747 
z
" transform="scale(0.015625)"/>
      </defs>
      <use xlink:href="#DejaVuSans-50"/>
      <use xlink:href="#DejaVuSans-61" x="55.802734"/>
      <use xlink:href="#DejaVuSans-63" x="117.082031"/>
      <use xlink:href="#DejaVuSans-6b" x="172.0625"/>
      <use xlink:href="#DejaVuSans-65" x="226.347656"/>
      <use xlink:href="#DejaVuSans-74" x="287.871094"/>
      <use xlink:href="#DejaVuSans-73" x="327.080078"/>
      <use xlink:href="#DejaVuSans-20" x="379.179688"/>
      <use xlink:href="#DejaVuSans-70" x="410.966797"/>
      <use xlink:href="#DejaVuSans-65" x="474.443359"/>
      <use xlink:href="#DejaVuSans-72" x="535.966797"/>
      <use xlink:href="#DejaVuSans-20" x="577.080078"/>
      <use xlink:href="#DejaVuSans-53" x="608.867188"/>
      <use xlink:href="#DejaVuSans-65" x="672.34375"/>
      <use xlink:href="#DejaVuSans-63" x="733.867188"/>
      <use xlink:href="#DejaVuSans-6f" x="788.847656"/>
      <use xlink:href="#DejaVuSans-6e" x="850.029297"/>
      <use xlink:href="#DejaVuSans-64" x="913.408203"/>
     </g>
    </g>
   </g>
   <g id="line2d_15">
    <path d="M 64.151089 47.32486 
L 64.532025 47.078406 
L 65.674731 47.010212 
L 66.436561 47.037821 
L 67.579226 47.00451 
L 69.86472 47.035658 
L 70.245412 46.687257 
L 70.626515 47.346361 
L 71.00743 47.045264 
L 72.530999 47.006985 
L 73.673702 46.991108 
L 75.19712 46.941838 
L 78.244032 46.997066 
L 79.005743 46.960322 
L 92.33505 46.898447 
L 92.715905 46.948439 
L 93.477458 46.818655 
L 94.619942 46.908442 
L 95.381568 46.894944 
L 97.666391 46.832084 
L 99.189518 46.825682 
L 99.570359 46.925571 
L 100.712746 46.820141 
L 102.616699 46.848153 
L 109.089998 46.795356 
L 109.470591 46.526184 
L 109.851509 47.050012 
L 110.612995 46.635882 
L 110.993755 46.794751 
L 112.13605 46.818325 
L 113.278305 46.778532 
L 114.039891 46.898612 
L 114.420566 46.659726 
L 115.182071 46.792494 
L 115.943629 46.832066 
L 116.324348 46.729448 
L 117.847384 46.815463 
L 118.989582 46.700581 
L 119.370351 46.810125 
L 120.512561 46.76 
L 122.035452 46.709977 
L 122.796935 46.758073 
L 125.462045 46.74066 
L 128.888635 46.761798 
L 129.269478 46.929147 
L 129.649966 46.356905 
L 130.030841 46.981316 
L 130.411532 46.685385 
L 131.172967 46.720089 
L 136.122144 46.583617 
L 136.502949 46.868881 
L 136.883643 46.688431 
L 141.452143 46.756477 
L 141.832824 46.669821 
L 142.594214 46.666223 
L 142.974903 46.681475 
L 143.355684 46.830158 
L 143.736311 46.581469 
L 144.497684 46.697901 
L 144.878339 46.625969 
L 145.639753 46.719061 
L 146.781717 46.527377 
L 147.162496 46.824893 
L 147.543182 46.677823 
L 148.304605 46.717519 
L 149.065956 46.674886 
L 153.253491 46.627309 
L 153.634189 46.695993 
L 154.39551 46.620774 
L 154.776246 46.758275 
L 155.156909 46.640104 
L 158.582953 46.650989 
L 160.486303 46.659359 
L 163.912378 46.666792 
L 165.054394 46.652696 
L 166.196346 46.632541 
L 166.577033 46.67863 
L 167.338318 46.611155 
L 169.24166 46.678557 
L 169.622229 46.488023 
L 170.003082 46.945138 
L 170.38372 46.599828 
L 170.764406 46.677511 
L 171.525713 46.626924 
L 173.048339 46.629512 
L 181.042045 46.645115 
L 181.422593 46.454909 
L 181.803312 46.728934 
L 182.183955 46.608493 
L 192.843242 46.74611 
L 193.985412 46.733026 
L 194.746907 46.77389 
L 196.269805 46.73899 
L 204.645634 46.685752 
L 205.026422 46.841348 
L 205.407081 46.633 
L 206.168547 46.769963 
L 206.929962 46.712032 
L 216.82837 46.732641 
L 217.208857 46.357438 
L 217.589778 47.05311 
L 217.970499 46.73365 
L 219.493284 46.688303 
L 220.254742 46.741742 
L 224.442471 46.681769 
L 224.823232 46.798163 
L 225.203926 46.689991 
L 227.107485 46.790237 
L 227.488015 46.426035 
L 227.868839 46.899272 
L 228.249523 46.672978 
L 228.630233 46.71495 
L 229.010736 46.383416 
L 229.391646 47.03564 
L 229.772349 46.705536 
L 232.817924 46.673822 
L 235.48286 46.787889 
L 235.863454 46.528442 
L 236.244156 46.702508 
L 251.852348 46.696818 
L 252.232853 46.385694 
L 252.613734 46.988724 
L 252.994411 46.662736 
L 270.124783 46.670408 
L 270.505588 46.868367 
L 270.886107 46.409337 
L 271.266801 46.688174 
L 272.408834 46.648694 
L 274.312176 46.637515 
L 276.215541 46.689165 
L 276.976852 46.641462 
L 277.738168 46.629806 
L 278.118711 46.446974 
L 278.499517 46.869468 
L 278.880186 46.650621 
L 279.260971 46.834854 
L 279.641502 46.427431 
L 280.402981 46.911102 
L 280.783515 46.431986 
L 281.544811 46.655541 
L 284.5901 46.650621 
L 285.351487 46.666443 
L 286.874133 46.609264 
L 287.635492 46.680539 
L 288.016132 46.602453 
L 288.396822 46.682687 
L 288.777478 46.628484 
L 289.158273 46.853014 
L 289.538804 46.427908 
L 289.919456 46.620738 
L 291.442116 46.648511 
L 292.203426 46.636304 
L 292.584193 46.807391 
L 292.964761 46.487417 
L 293.345408 46.61378 
L 296.009979 46.593311 
L 296.390764 46.835092 
L 296.771324 46.473974 
L 297.151991 46.646216 
L 299.055293 46.655467 
L 300.958562 46.637387 
L 301.339186 46.576218 
L 301.719871 46.675125 
L 303.623126 46.608493 
L 305.907069 46.612091 
L 306.287654 46.514266 
L 306.668386 46.749981 
L 307.429463 46.319624 
L 307.810299 46.917392 
L 308.190949 46.618975 
L 310.855515 46.636249 
L 311.236217 46.702214 
L 311.997504 46.598763 
L 313.520098 46.644693 
L 315.423296 46.591144 
L 316.184633 46.632486 
L 317.326575 46.592558 
L 318.087909 46.631954 
L 319.229835 46.631384 
L 319.991131 46.632321 
L 323.036465 46.82104 
L 323.416977 46.395578 
L 323.797619 46.605941 
L 326.462156 46.612568 
L 326.842769 46.559418 
L 327.604097 46.647446 
L 327.984726 46.58358 
L 328.746022 46.596101 
L 331.791161 46.599222 
L 332.171823 46.63746 
L 332.552433 46.555214 
L 333.313723 46.597203 
L 337.50086 46.650273 
L 337.881565 46.706765 
L 338.26209 46.418265 
L 338.642753 46.639516 
L 341.687864 46.595128 
L 343.971735 46.64282 
L 344.352338 46.543775 
L 345.874925 46.64394 
L 346.636133 46.528057 
L 347.397402 46.585031 
L 349.681201 46.583415 
L 350.061769 46.486921 
L 350.442488 46.728769 
L 351.20378 46.590263 
L 351.96504 46.553286 
L 352.72627 46.594853 
L 353.106915 46.610935 
L 353.487357 46.283533 
L 353.868187 46.907745 
L 354.248806 46.568984 
L 356.15199 46.592264 
L 359.958302 46.604326 
L 370.23529 46.564633 
L 370.615999 46.714491 
L 370.996531 46.429874 
L 371.757967 46.865946 
L 372.138436 46.327029 
L 372.519041 46.546015 
L 373.28032 46.584829 
L 373.660943 46.575208 
L 374.041728 46.836101 
L 374.422198 46.329987 
L 374.802809 46.555287 
L 377.467226 46.601756 
L 377.847818 46.527065 
L 378.609111 46.621729 
L 379.370332 46.560226 
L 380.892869 46.59656 
L 382.415355 46.566965 
L 383.176633 46.607759 
L 383.557215 46.508867 
L 384.318475 46.604124 
L 386.602191 46.525523 
L 388.124703 46.584278 
L 393.83413 46.721997 
L 394.214643 46.399233 
L 394.595195 46.461282 
L 394.97589 46.690964 
L 395.737145 46.555251 
L 397.259637 46.592448 
L 398.020864 46.573886 
L 404.491282 46.450813 
L 404.871987 46.706307 
L 405.25259 46.543536 
L 411.723094 46.588097 
L 412.103666 46.493625 
L 412.864891 46.551597 
L 414.387373 46.568158 
L 415.909878 46.595771 
L 417.051685 46.535163 
L 418.954783 46.593586 
L 419.71599 46.563238 
L 420.85785 46.556481 
L 425.80587 46.574419 
L 426.567055 46.543628 
L 428.089551 46.603995 
L 429.231299 46.430462 
L 429.611984 46.675253 
L 430.753831 46.5334 
L 432.656878 46.553763 
L 440.269123 46.557913 
L 440.64968 46.468482 
L 441.791671 46.731374 
L 442.17215 46.34318 
L 442.552756 46.549375 
L 444.075213 46.550458 
L 444.836409 46.559676 
L 445.217072 46.640067 
L 445.597645 46.494745 
L 446.358907 46.6187 
L 446.73947 46.478694 
L 447.50069 46.542912 
L 448.642614 46.667453 
L 449.023122 46.389203 
L 449.784437 46.69335 
L 450.165029 46.525871 
L 450.545667 46.5988 
L 451.306868 46.536503 
L 454.351691 46.557693 
L 455.112905 46.578054 
L 466.91155 46.414627 
L 467.292256 46.708546 
L 468.434083 46.526826 
L 469.575938 46.597515 
L 470.717752 46.55604 
L 473.381968 46.553727 
L 479.852202 46.534098 
L 480.232892 46.684595 
L 480.61338 46.358099 
L 480.993984 46.544766 
L 484.79996 46.527579 
L 489.367149 46.538027 
L 494.315091 46.688156 
L 494.695579 46.35786 
L 495.076192 46.560245 
L 496.598552 46.522603 
L 497.359781 46.544362 
L 499.262776 46.508243 
L 499.643398 46.574694 
L 500.404565 46.498601 
L 500.78497 46.224995 
L 501.165823 46.944497 
L 501.926802 46.175878 
L 502.307619 46.886544 
L 502.687972 46.141994 
L 503.068808 46.917887 
L 503.44941 46.541424 
L 504.210656 46.607795 
L 504.591008 46.140303 
L 504.971825 46.887644 
L 505.352214 46.198526 
L 506.113547 46.791228 
L 506.494161 46.559657 
L 507.255345 46.488923 
L 507.635757 46.234627 
L 508.016362 46.546768 
L 508.396946 46.512999 
L 508.77771 46.80152 
L 509.158335 46.579229 
L 509.538919 46.512723 
L 509.919537 46.567534 
L 510.29994 46.220676 
L 510.680535 46.530829 
L 511.441749 46.552478 
L 511.822493 46.768734 
L 512.202947 46.303564 
L 512.583719 46.816326 
L 513.344742 46.263685 
L 513.725519 46.822655 
L 514.106138 46.570416 
L 514.486706 46.485599 
L 514.867328 46.574584 
L 515.247837 46.392547 
L 515.628544 46.710362 
L 516.008975 46.266552 
L 516.389564 46.519812 
L 516.770145 46.508334 
L 517.150907 46.799411 
L 517.531497 46.522272 
L 518.292712 46.55514 
L 518.673158 46.290332 
L 519.43451 46.795044 
L 519.81494 46.264971 
L 520.195683 46.767138 
L 520.576298 46.562778 
L 520.956946 46.616258 
L 521.337527 46.508169 
L 522.85992 46.54719 
L 523.6211 46.549577 
L 525.143477 46.55066 
L 527.046428 46.541498 
L 527.427139 46.717391 
L 527.807645 46.386686 
L 528.188234 46.520289 
L 530.091212 46.573317 
L 530.471854 46.605335 
L 530.852381 46.421645 
L 531.23297 46.520069 
L 531.613542 46.494341 
L 532.374781 46.557491 
L 535.800093 46.504717 
L 536.941871 46.523411 
L 537.703021 46.522401 
L 539.225423 46.538431 
L 539.986634 46.528369 
L 540.367192 46.470796 
L 541.128384 46.533437 
L 550.262549 46.539019 
L 553.307303 46.527763 
L 554.829644 46.519646 
L 556.732649 46.544087 
L 557.113195 46.451585 
L 557.87442 46.568378 
L 561.680167 46.303894 
L 562.060921 46.786531 
L 562.441554 46.59131 
L 562.822174 46.569388 
L 563.202672 46.375002 
L 563.583262 46.521758 
L 578.045696 46.525688 
L 578.806922 46.547465 
L 580.32926 46.510446 
L 581.090485 46.541498 
L 582.232228 46.511787 
L 584.135126 46.512044 
L 585.276929 46.548347 
L 585.657486 46.469235 
L 586.418678 46.530462 
L 588.702174 46.466076 
L 589.082833 46.632614 
L 589.46333 46.372558 
L 589.843935 46.546253 
L 592.127438 46.517369 
L 593.269235 46.519242 
L 593.649802 46.486168 
L 594.030422 46.570655 
L 594.410934 46.396147 
L 594.791527 46.527598 
L 597.075034 46.440325 
L 597.455776 46.765358 
L 597.836244 46.326331 
L 598.216838 46.529746 
L 598.977989 46.506204 
L 600.500326 46.508316 
L 602.022685 46.524751 
L 603.16446 46.519297 
L 605.447957 46.447801 
L 605.828439 46.348214 
L 606.209119 46.66659 
L 606.589716 46.533822 
L 606.970346 46.587344 
L 607.350885 46.438948 
L 608.112057 46.521428 
L 608.873196 46.499336 
L 609.253835 46.600985 
L 610.014984 46.476912 
L 611.537315 46.544509 
L 612.298458 46.484387 
L 613.059646 46.507306 
L 619.149038 46.504735 
L 619.529657 46.570233 
L 619.91018 46.414297 
L 620.671379 46.539827 
L 621.813105 46.499611 
L 623.335473 46.559161 
L 623.716041 46.487417 
L 624.477218 46.494304 
L 630.186013 46.59276 
L 630.566555 46.44523 
L 630.947151 46.530646 
L 631.327688 46.438048 
L 632.088893 46.562925 
L 633.991801 46.478271 
L 634.752988 46.521134 
L 635.133551 46.47974 
L 635.514163 46.557968 
L 636.275315 46.492945 
L 637.036483 46.489088 
L 639.319987 46.52117 
L 640.842286 46.491329 
L 641.984078 46.548806 
L 643.506373 46.518085 
L 644.648167 46.531858 
L 645.409265 46.44613 
L 646.170441 46.506388 
L 649.595707 46.518563 
L 649.976212 46.38472 
L 650.356888 46.661286 
L 650.737469 46.507324 
L 651.117858 46.200015 
L 651.498636 46.824086 
L 651.879194 46.470778 
L 653.401535 46.526606 
L 654.923806 46.496747 
L 655.685008 46.522676 
L 656.826714 46.45535 
L 657.587914 46.541792 
L 661.393731 46.503303 
L 661.774352 46.571849 
L 662.535483 46.459372 
L 663.296653 46.499318 
L 665.19953 46.514505 
L 667.863607 46.494818 
L 668.244153 46.451254 
L 669.005394 46.601187 
L 669.385908 46.40153 
L 669.766519 46.556003 
L 670.908227 46.453017 
L 672.430552 46.501962 
L 673.952854 46.478198 
L 674.333464 46.55514 
L 675.094629 46.50681 
L 675.475242 46.558794 
L 675.855797 46.46558 
L 676.236408 46.556444 
L 676.997565 46.512797 
L 678.519892 46.516157 
L 681.945166 46.510226 
L 683.467454 46.515919 
L 684.609354 46.71506 
L 684.989809 46.306449 
L 685.370385 46.499538 
L 686.89273 46.510722 
L 688.034462 46.502109 
L 688.795639 46.49805 
L 696.407273 46.523778 
L 696.787803 46.425906 
L 697.168407 46.543481 
L 697.548804 46.212974 
L 697.929577 46.815408 
L 698.310145 46.488354 
L 699.071346 46.587932 
L 699.451844 46.374671 
L 699.832449 46.546859 
L 700.593616 46.513182 
L 700.974279 46.64104 
L 701.354787 46.389442 
L 702.115945 46.530793 
L 703.257677 46.485617 
L 710.108129 46.500787 
L 710.869256 46.495957 
L 713.152757 46.517553 
L 713.533315 46.471494 
L 713.913952 46.59779 
L 714.294509 46.469052 
L 716.958553 46.513788 
L 717.719688 46.50749 
L 729.898203 46.575906 
L 730.278746 46.446423 
L 732.181651 46.570416 
L 733.323423 46.510208 
L 734.08454 46.49502 
L 736.36799 46.461687 
L 737.129183 46.539441 
L 738.651478 46.486774 
L 739.41265 46.488703 
L 741.696111 46.52308 
L 742.457247 46.504184 
L 744.740714 46.492008 
L 745.121198 46.353139 
L 745.501825 46.581028 
L 747.024193 46.513513 
L 747.785297 46.45175 
L 748.927042 46.518361 
L 750.449336 46.481577 
L 753.113416 46.52892 
L 753.49394 46.416042 
L 754.255114 46.519059 
L 755.396848 46.528534 
L 760.344338 46.51781 
L 760.344338 46.51781 
" clip-path="url(#pd3eafe13ef)" style="fill: none; stroke: #1f77b4; stroke-width: 1.5; stroke-linecap: square"/>
   </g>
   <g id="line2d_16">
    <path d="M 63.77 46.605548 
L 795.154 46.605548 
" clip-path="url(#pd3eafe13ef)" style="fill: none; stroke-dasharray: 5.55,2.4; stroke-dashoffset: 0; stroke: #0000ff; stroke-width: 1.5"/>
   </g>
   <g id="patch_3">
    <path d="M 63.77 658.84 
L 63.77 46.08 
" style="fill: none; stroke: #000000; stroke-width: 0.8; stroke-linejoin: miter; stroke-linecap: square"/>
   </g>
   <g id="patch_4">
    <path d="M 795.154 658.84 
L 795.154 46.08 
" style="fill: none; stroke: #000000; stroke-width: 0.8; stroke-linejoin: miter; stroke-linecap: square"/>
   </g>
   <g id="patch_5">
    <path d="M 63.77 658.84 
L 795.154 658.84 
" style="fill: none; stroke: #000000; stroke-width: 0.8; stroke-linejoin: miter; stroke-linecap: square"/>
   </g>
   <g id="patch_6">
    <path d="M 63.77 46.08 
L 795.154 46.08 
" style="fill: none; stroke: #000000; stroke-width: 0.8; stroke-linejoin: miter; stroke-linecap: square"/>
   </g>
   <g id="text_17">
    <!-- Packet Rate from Timestamps (SelectionProcess: 16777217) -->
    <g transform="translate(248.322 40.08) scale(0.12 -0.12)">
     <defs>
      <path id="DejaVuSans-52" d="M 2841 2188 
Q 3044 2119 3236 1894 
Q 3428 1669 3622 1275 
L 4263 0 
L 3584 0 
L 2988 1197 
Q 2756 1666 2539 1819 
Q 2322 1972 1947 1972 
L 1259 1972 
L 1259 0 
L 628 0 
L 628 4666 
L 2053 4666 
Q 2853 4666 3247 4331 
Q 3641 3997 3641 3322 
Q 3641 2881 3436 2590 
Q 3231 2300 2841 2188 
z
M 1259 4147 
L 1259 2491 
L 2053 2491 
Q 2509 2491 2742 2702 
Q 2975 2913 2975 3322 
Q 2975 3731 2742 3939 
Q 2509 4147 2053 4147 
L 1259 4147 
z
" transform="scale(0.015625)"/>
      <path id="DejaVuSans-66" d="M 2375 4863 
L 2375 4384 
L 1825 4384 
Q 1516 4384 1395 4259 
Q 1275 4134 1275 3809 
L 1275 3500 
L 2222 3500 
L 2222 3053 
L 1275 3053 
L 1275 0 
L 697 0 
L 697 3053 
L 147 3053 
L 147 3500 
L 697 3500 
L 697 3744 
Q 697 4328 969 4595 
Q 1241 4863 1831 4863 
L 2375 4863 
z
" transform="scale(0.015625)"/>
      <path id="DejaVuSans-6c" d="M 603 4863 
L 1178 4863 
L 1178 0 
L 603 0 
L 603 4863 
z
" transform="scale(0.015625)"/>
      <path id="DejaVuSans-3a" d="M 750 794 
L 1409 794 
L 1409 0 
L 750 0 
L 750 794 
z
M 750 3309 
L 1409 3309 
L 1409 2516 
L 750 2516 
L 750 3309 
z
" transform="scale(0.015625)"/>
      <path id="DejaVuSans-37" d="M 525 4666 
L 3525 4666 
L 3525 4397 
L 1831 0 
L 1172 0 
L 2766 4134 
L 525 4134 
L 525 4666 
z
" transform="scale(0.015625)"/>
     </defs>
     <use xlink:href="#DejaVuSans-50"/>
     <use xlink:href="#DejaVuSans-61" x="55.802734"/>
     <use xlink:href="#DejaVuSans-63" x="117.082031"/>
     <use xlink:href="#DejaVuSans-6b" x="172.0625"/>
     <use xlink:href="#DejaVuSans-65" x="226.347656"/>
     <use xlink:href="#DejaVuSans-74" x="287.871094"/>
     <use xlink:href="#DejaVuSans-20" x="327.080078"/>
     <use xlink:href="#DejaVuSans-52" x="358.867188"/>
     <use xlink:href="#DejaVuSans-61" x="426.099609"/>
     <use xlink:href="#DejaVuSans-74" x="487.378906"/>
     <use xlink:href="#DejaVuSans-65" x="526.587891"/>
     <use xlink:href="#DejaVuSans-20" x="588.111328"/>
     <use xlink:href="#DejaVuSans-66" x="619.898438"/>
     <use xlink:href="#DejaVuSans-72" x="655.103516"/>
     <use xlink:href="#DejaVuSans-6f" x="693.966797"/>
     <use xlink:href="#DejaVuSans-6d" x="755.148438"/>
     <use xlink:href="#DejaVuSans-20" x="852.560547"/>
     <use xlink:href="#DejaVuSans-54" x="884.347656"/>
     <use xlink:href="#DejaVuSans-69" x="942.306641"/>
     <use xlink:href="#DejaVuSans-6d" x="970.089844"/>
     <use xlink:href="#DejaVuSans-65" x="1067.501953"/>
     <use xlink:href="#DejaVuSans-73" x="1129.025391"/>
     <use xlink:href="#DejaVuSans-74" x="1181.125"/>
     <use xlink:href="#DejaVuSans-61" x="1220.333984"/>
     <use xlink:href="#DejaVuSans-6d" x="1281.613281"/>
     <use xlink:href="#DejaVuSans-70" x="1379.025391"/>
     <use xlink:href="#DejaVuSans-73" x="1442.501953"/>
     <use xlink:href="#DejaVuSans-20" x="1494.601562"/>
     <use xlink:href="#DejaVuSans-28" x="1526.388672"/>
     <use xlink:href="#DejaVuSans-53" x="1565.402344"/>
     <use xlink:href="#DejaVuSans-65" x="1628.878906"/>
     <use xlink:href="#DejaVuSans-6c" x="1690.402344"/>
     <use xlink:href="#DejaVuSans-65" x="1718.185547"/>
     <use xlink:href="#DejaVuSans-63" x="1779.708984"/>
     <use xlink:href="#DejaVuSans-74" x="1834.689453"/>
     <use xlink:href="#DejaVuSans-69" x="1873.898438"/>
     <use xlink:href="#DejaVuSans-6f" x="1901.681641"/>
     <use xlink:href="#DejaVuSans-6e" x="1962.863281"/>
     <use xlink:href="#DejaVuSans-50" x="2026.242188"/>
     <use xlink:href="#DejaVuSans-72" x="2084.794922"/>
     <use xlink:href="#DejaVuSans-6f" x="2123.658203"/>
     <use xlink:href="#DejaVuSans-63" x="2184.839844"/>
     <use xlink:href="#DejaVuSans-65" x="2239.820312"/>
     <use xlink:href="#DejaVuSans-73" x="2301.34375"/>
     <use xlink:href="#DejaVuSans-73" x="2353.443359"/>
     <use xlink:href="#DejaVuSans-3a" x="2405.542969"/>
     <use xlink:href="#DejaVuSans-20" x="2439.234375"/>
     <use xlink:href="#DejaVuSans-31" x="2471.021484"/>
     <use xlink:href="#DejaVuSans-36" x="2534.644531"/>
     <use xlink:href="#DejaVuSans-37" x="2598.267578"/>
     <use xlink:href="#DejaVuSans-37" x="2661.890625"/>
     <use xlink:href="#DejaVuSans-37" x="2725.513672"/>
     <use xlink:href="#DejaVuSans-32" x="2789.136719"/>
     <use xlink:href="#DejaVuSans-31" x="2852.759766"/>
     <use xlink:href="#DejaVuSans-37" x="2916.382812"/>
     <use xlink:href="#DejaVuSans-29" x="2980.005859"/>
    </g>
   </g>
   <g id="legend_1">
    <g id="patch_7">
     <path d="M 802.154 368.638125 
L 983.61025 368.638125 
Q 985.61025 368.638125 985.61025 366.638125 
L 985.61025 338.281875 
Q 985.61025 336.281875 983.61025 336.281875 
L 802.154 336.281875 
Q 800.154 336.281875 800.154 338.281875 
L 800.154 366.638125 
Q 800.154 368.638125 802.154 368.638125 
z
" style="fill: #ffffff; opacity: 0.8; stroke: #cccccc; stroke-linejoin: miter"/>
    </g>
    <g id="line2d_17">
     <path d="M 804.154 344.380313 
L 814.154 344.380313 
L 824.154 344.380313 
" style="fill: none; stroke: #1f77b4; stroke-width: 1.5; stroke-linecap: square"/>
    </g>
    <g id="text_18">
     <!-- Packet Rate from Timestamps -->
     <g transform="translate(832.154 347.880313) scale(0.1 -0.1)">
      <use xlink:href="#DejaVuSans-50"/>
      <use xlink:href="#DejaVuSans-61" x="55.802734"/>
      <use xlink:href="#DejaVuSans-63" x="117.082031"/>
      <use xlink:href="#DejaVuSans-6b" x="172.0625"/>
      <use xlink:href="#DejaVuSans-65" x="226.347656"/>
      <use xlink:href="#DejaVuSans-74" x="287.871094"/>
      <use xlink:href="#DejaVuSans-20" x="327.080078"/>
      <use xlink:href="#DejaVuSans-52" x="358.867188"/>
      <use xlink:href="#DejaVuSans-61" x="426.099609"/>
      <use xlink:href="#DejaVuSans-74" x="487.378906"/>
      <use xlink:href="#DejaVuSans-65" x="526.587891"/>
      <use xlink:href="#DejaVuSans-20" x="588.111328"/>
      <use xlink:href="#DejaVuSans-66" x="619.898438"/>
      <use xlink:href="#DejaVuSans-72" x="655.103516"/>
      <use xlink:href="#DejaVuSans-6f" x="693.966797"/>
      <use xlink:href="#DejaVuSans-6d" x="755.148438"/>
      <use xlink:href="#DejaVuSans-20" x="852.560547"/>
      <use xlink:href="#DejaVuSans-54" x="884.347656"/>
      <use xlink:href="#DejaVuSans-69" x="942.306641"/>
      <use xlink:href="#DejaVuSans-6d" x="970.089844"/>
      <use xlink:href="#DejaVuSans-65" x="1067.501953"/>
      <use xlink:href="#DejaVuSans-73" x="1129.025391"/>
      <use xlink:href="#DejaVuSans-74" x="1181.125"/>
      <use xlink:href="#DejaVuSans-61" x="1220.333984"/>
      <use xlink:href="#DejaVuSans-6d" x="1281.613281"/>
      <use xlink:href="#DejaVuSans-70" x="1379.025391"/>
      <use xlink:href="#DejaVuSans-73" x="1442.501953"/>
     </g>
    </g>
    <g id="line2d_18">
     <path d="M 804.154 359.058438 
L 814.154 359.058438 
L 824.154 359.058438 
" style="fill: none; stroke-dasharray: 5.55,2.4; stroke-dashoffset: 0; stroke: #0000ff; stroke-width: 1.5"/>
    </g>
    <g id="text_19">
     <!-- Packet Rate Average -->
     <g transform="translate(832.154 362.558438) scale(0.1 -0.1)">
      <defs>
       <path id="DejaVuSans-41" d="M 2188 4044 
L 1331 1722 
L 3047 1722 
L 2188 4044 
z
M 1831 4666 
L 2547 4666 
L 4325 0 
L 3669 0 
L 3244 1197 
L 1141 1197 
L 716 0 
L 50 0 
L 1831 4666 
z
" transform="scale(0.015625)"/>
       <path id="DejaVuSans-76" d="M 191 3500 
L 800 3500 
L 1894 563 
L 2988 3500 
L 3597 3500 
L 2284 0 
L 1503 0 
L 191 3500 
z
" transform="scale(0.015625)"/>
       <path id="DejaVuSans-67" d="M 2906 1791 
Q 2906 2416 2648 2759 
Q 2391 3103 1925 3103 
Q 1463 3103 1205 2759 
Q 947 2416 947 1791 
Q 947 1169 1205 825 
Q 1463 481 1925 481 
Q 2391 481 2648 825 
Q 2906 1169 2906 1791 
z
M 3481 434 
Q 3481 -459 3084 -895 
Q 2688 -1331 1869 -1331 
Q 1566 -1331 1297 -1286 
Q 1028 -1241 775 -1147 
L 775 -588 
Q 1028 -725 1275 -790 
Q 1522 -856 1778 -856 
Q 2344 -856 2625 -561 
Q 2906 -266 2906 331 
L 2906 616 
Q 2728 306 2450 153 
Q 2172 0 1784 0 
Q 1141 0 747 490 
Q 353 981 353 1791 
Q 353 2603 747 3093 
Q 1141 3584 1784 3584 
Q 2172 3584 2450 3431 
Q 2728 3278 2906 2969 
L 2906 3500 
L 3481 3500 
L 3481 434 
z
" transform="scale(0.015625)"/>
      </defs>
      <use xlink:href="#DejaVuSans-50"/>
      <use xlink:href="#DejaVuSans-61" x="55.802734"/>
      <use xlink:href="#DejaVuSans-63" x="117.082031"/>
      <use xlink:href="#DejaVuSans-6b" x="172.0625"/>
      <use xlink:href="#DejaVuSans-65" x="226.347656"/>
      <use xlink:href="#DejaVuSans-74" x="287.871094"/>
      <use xlink:href="#DejaVuSans-20" x="327.080078"/>
      <use xlink:href="#DejaVuSans-52" x="358.867188"/>
      <use xlink:href="#DejaVuSans-61" x="426.099609"/>
      <use xlink:href="#DejaVuSans-74" x="487.378906"/>
      <use xlink:href="#DejaVuSans-65" x="526.587891"/>
      <use xlink:href="#DejaVuSans-20" x="588.111328"/>
      <use xlink:href="#DejaVuSans-41" x="619.898438"/>
      <use xlink:href="#DejaVuSans-76" x="682.431641"/>
      <use xlink:href="#DejaVuSans-65" x="741.611328"/>
      <use xlink:href="#DejaVuSans-72" x="803.134766"/>
      <use xlink:href="#DejaVuSans-61" x="844.248047"/>
      <use xlink:href="#DejaVuSans-67" x="905.527344"/>
      <use xlink:href="#DejaVuSans-65" x="969.003906"/>
     </g>
    </g>
   </g>
  </g>
 </g>
 <defs>
  <clipPath id="pd3eafe13ef">
   <rect x="63.77" y="46.08" width="731.384" height="612.76"/>
  </clipPath>
 </defs>
</svg>
