<?xml version="1.0" encoding="utf-8" standalone="no"?>
<!DOCTYPE svg PUBLIC "-//W3C//DTD SVG 1.1//EN"
  "http://www.w3.org/Graphics/SVG/1.1/DTD/svg11.dtd">
<svg xmlns:xlink="http://www.w3.org/1999/xlink" width="1008pt" height="720pt" viewBox="0 0 1008 720" xmlns="http://www.w3.org/2000/svg" version="1.1">
 <metadata>
  <rdf:RDF xmlns:dc="http://purl.org/dc/elements/1.1/" xmlns:cc="http://creativecommons.org/ns#" xmlns:rdf="http://www.w3.org/1999/02/22-rdf-syntax-ns#">
   <cc:Work>
    <dc:type rdf:resource="http://purl.org/dc/dcmitype/StillImage"/>
    <dc:date>2023-04-13T18:12:50.223686</dc:date>
    <dc:format>image/svg+xml</dc:format>
    <dc:creator>
     <cc:Agent>
      <dc:title>Matplotlib v3.6.2, https://matplotlib.org/</dc:title>
     </cc:Agent>
    </dc:creator>
   </cc:Work>
  </rdf:RDF>
 </metadata>
 <defs>
  <style type="text/css">*{stroke-linejoin: round; stroke-linecap: butt}</style>
 </defs>
 <g id="figure_1">
  <g id="patch_1">
   <path d="M 0 720 
L 1008 720 
L 1008 0 
L 0 0 
z
" style="fill: #ffffff"/>
  </g>
  <g id="axes_1">
   <g id="patch_2">
    <path d="M 93.23 639.64 
L 791.446 639.64 
L 791.446 60.96 
L 93.23 60.96 
z
" style="fill: #ffffff"/>
   </g>
   <g id="matplotlib.axis_1">
    <g id="xtick_1">
     <g id="line2d_1">
      <defs>
       <path id="m6c750b185c" d="M 0 0 
L 0 3.5 
" style="stroke: #000000; stroke-width: 0.8"/>
      </defs>
      <g>
       <use xlink:href="#m6c750b185c" x="93.23" y="639.64" style="stroke: #000000; stroke-width: 0.8"/>
      </g>
     </g>
     <g id="text_1">
      <!-- 0 -->
      <g transform="translate(88.77625 657.277812) scale(0.14 -0.14)">
       <defs>
        <path id="DejaVuSans-30" d="M 2034 4250 
Q 1547 4250 1301 3770 
Q 1056 3291 1056 2328 
Q 1056 1369 1301 889 
Q 1547 409 2034 409 
Q 2525 409 2770 889 
Q 3016 1369 3016 2328 
Q 3016 3291 2770 3770 
Q 2525 4250 2034 4250 
z
M 2034 4750 
Q 2819 4750 3233 4129 
Q 3647 3509 3647 2328 
Q 3647 1150 3233 529 
Q 2819 -91 2034 -91 
Q 1250 -91 836 529 
Q 422 1150 422 2328 
Q 422 3509 836 4129 
Q 1250 4750 2034 4750 
z
" transform="scale(0.015625)"/>
       </defs>
       <use xlink:href="#DejaVuSans-30"/>
      </g>
     </g>
    </g>
    <g id="xtick_2">
     <g id="line2d_2">
      <g>
       <use xlink:href="#m6c750b185c" x="200.057232" y="639.64" style="stroke: #000000; stroke-width: 0.8"/>
      </g>
     </g>
     <g id="text_2">
      <!-- 10 -->
      <g transform="translate(191.149732 657.277812) scale(0.14 -0.14)">
       <defs>
        <path id="DejaVuSans-31" d="M 794 531 
L 1825 531 
L 1825 4091 
L 703 3866 
L 703 4441 
L 1819 4666 
L 2450 4666 
L 2450 531 
L 3481 531 
L 3481 0 
L 794 0 
L 794 531 
z
" transform="scale(0.015625)"/>
       </defs>
       <use xlink:href="#DejaVuSans-31"/>
       <use xlink:href="#DejaVuSans-30" x="63.623047"/>
      </g>
     </g>
    </g>
    <g id="xtick_3">
     <g id="line2d_3">
      <g>
       <use xlink:href="#m6c750b185c" x="306.884463" y="639.64" style="stroke: #000000; stroke-width: 0.8"/>
      </g>
     </g>
     <g id="text_3">
      <!-- 20 -->
      <g transform="translate(297.976963 657.277812) scale(0.14 -0.14)">
       <defs>
        <path id="DejaVuSans-32" d="M 1228 531 
L 3431 531 
L 3431 0 
L 469 0 
L 469 531 
Q 828 903 1448 1529 
Q 2069 2156 2228 2338 
Q 2531 2678 2651 2914 
Q 2772 3150 2772 3378 
Q 2772 3750 2511 3984 
Q 2250 4219 1831 4219 
Q 1534 4219 1204 4116 
Q 875 4013 500 3803 
L 500 4441 
Q 881 4594 1212 4672 
Q 1544 4750 1819 4750 
Q 2544 4750 2975 4387 
Q 3406 4025 3406 3419 
Q 3406 3131 3298 2873 
Q 3191 2616 2906 2266 
Q 2828 2175 2409 1742 
Q 1991 1309 1228 531 
z
" transform="scale(0.015625)"/>
       </defs>
       <use xlink:href="#DejaVuSans-32"/>
       <use xlink:href="#DejaVuSans-30" x="63.623047"/>
      </g>
     </g>
    </g>
    <g id="xtick_4">
     <g id="line2d_4">
      <g>
       <use xlink:href="#m6c750b185c" x="413.711695" y="639.64" style="stroke: #000000; stroke-width: 0.8"/>
      </g>
     </g>
     <g id="text_4">
      <!-- 30 -->
      <g transform="translate(404.804195 657.277812) scale(0.14 -0.14)">
       <defs>
        <path id="DejaVuSans-33" d="M 2597 2516 
Q 3050 2419 3304 2112 
Q 3559 1806 3559 1356 
Q 3559 666 3084 287 
Q 2609 -91 1734 -91 
Q 1441 -91 1130 -33 
Q 819 25 488 141 
L 488 750 
Q 750 597 1062 519 
Q 1375 441 1716 441 
Q 2309 441 2620 675 
Q 2931 909 2931 1356 
Q 2931 1769 2642 2001 
Q 2353 2234 1838 2234 
L 1294 2234 
L 1294 2753 
L 1863 2753 
Q 2328 2753 2575 2939 
Q 2822 3125 2822 3475 
Q 2822 3834 2567 4026 
Q 2313 4219 1838 4219 
Q 1578 4219 1281 4162 
Q 984 4106 628 3988 
L 628 4550 
Q 988 4650 1302 4700 
Q 1616 4750 1894 4750 
Q 2613 4750 3031 4423 
Q 3450 4097 3450 3541 
Q 3450 3153 3228 2886 
Q 3006 2619 2597 2516 
z
" transform="scale(0.015625)"/>
       </defs>
       <use xlink:href="#DejaVuSans-33"/>
       <use xlink:href="#DejaVuSans-30" x="63.623047"/>
      </g>
     </g>
    </g>
    <g id="xtick_5">
     <g id="line2d_5">
      <g>
       <use xlink:href="#m6c750b185c" x="520.538927" y="639.64" style="stroke: #000000; stroke-width: 0.8"/>
      </g>
     </g>
     <g id="text_5">
      <!-- 40 -->
      <g transform="translate(511.631427 657.277812) scale(0.14 -0.14)">
       <defs>
        <path id="DejaVuSans-34" d="M 2419 4116 
L 825 1625 
L 2419 1625 
L 2419 4116 
z
M 2253 4666 
L 3047 4666 
L 3047 1625 
L 3713 1625 
L 3713 1100 
L 3047 1100 
L 3047 0 
L 2419 0 
L 2419 1100 
L 313 1100 
L 313 1709 
L 2253 4666 
z
" transform="scale(0.015625)"/>
       </defs>
       <use xlink:href="#DejaVuSans-34"/>
       <use xlink:href="#DejaVuSans-30" x="63.623047"/>
      </g>
     </g>
    </g>
    <g id="xtick_6">
     <g id="line2d_6">
      <g>
       <use xlink:href="#m6c750b185c" x="627.366159" y="639.64" style="stroke: #000000; stroke-width: 0.8"/>
      </g>
     </g>
     <g id="text_6">
      <!-- 50 -->
      <g transform="translate(618.458659 657.277812) scale(0.14 -0.14)">
       <defs>
        <path id="DejaVuSans-35" d="M 691 4666 
L 3169 4666 
L 3169 4134 
L 1269 4134 
L 1269 2991 
Q 1406 3038 1543 3061 
Q 1681 3084 1819 3084 
Q 2600 3084 3056 2656 
Q 3513 2228 3513 1497 
Q 3513 744 3044 326 
Q 2575 -91 1722 -91 
Q 1428 -91 1123 -41 
Q 819 9 494 109 
L 494 744 
Q 775 591 1075 516 
Q 1375 441 1709 441 
Q 2250 441 2565 725 
Q 2881 1009 2881 1497 
Q 2881 1984 2565 2268 
Q 2250 2553 1709 2553 
Q 1456 2553 1204 2497 
Q 953 2441 691 2322 
L 691 4666 
z
" transform="scale(0.015625)"/>
       </defs>
       <use xlink:href="#DejaVuSans-35"/>
       <use xlink:href="#DejaVuSans-30" x="63.623047"/>
      </g>
     </g>
    </g>
    <g id="xtick_7">
     <g id="line2d_7">
      <g>
       <use xlink:href="#m6c750b185c" x="734.19339" y="639.64" style="stroke: #000000; stroke-width: 0.8"/>
      </g>
     </g>
     <g id="text_7">
      <!-- 60 -->
      <g transform="translate(725.28589 657.277812) scale(0.14 -0.14)">
       <defs>
        <path id="DejaVuSans-36" d="M 2113 2584 
Q 1688 2584 1439 2293 
Q 1191 2003 1191 1497 
Q 1191 994 1439 701 
Q 1688 409 2113 409 
Q 2538 409 2786 701 
Q 3034 994 3034 1497 
Q 3034 2003 2786 2293 
Q 2538 2584 2113 2584 
z
M 3366 4563 
L 3366 3988 
Q 3128 4100 2886 4159 
Q 2644 4219 2406 4219 
Q 1781 4219 1451 3797 
Q 1122 3375 1075 2522 
Q 1259 2794 1537 2939 
Q 1816 3084 2150 3084 
Q 2853 3084 3261 2657 
Q 3669 2231 3669 1497 
Q 3669 778 3244 343 
Q 2819 -91 2113 -91 
Q 1303 -91 875 529 
Q 447 1150 447 2328 
Q 447 3434 972 4092 
Q 1497 4750 2381 4750 
Q 2619 4750 2861 4703 
Q 3103 4656 3366 4563 
z
" transform="scale(0.015625)"/>
       </defs>
       <use xlink:href="#DejaVuSans-36"/>
       <use xlink:href="#DejaVuSans-30" x="63.623047"/>
      </g>
     </g>
    </g>
    <g id="text_8">
     <!-- Time (s) -->
     <g transform="translate(413.877531 674.827188) scale(0.14 -0.14)">
      <defs>
       <path id="DejaVuSans-54" d="M -19 4666 
L 3928 4666 
L 3928 4134 
L 2272 4134 
L 2272 0 
L 1638 0 
L 1638 4134 
L -19 4134 
L -19 4666 
z
" transform="scale(0.015625)"/>
       <path id="DejaVuSans-69" d="M 603 3500 
L 1178 3500 
L 1178 0 
L 603 0 
L 603 3500 
z
M 603 4863 
L 1178 4863 
L 1178 4134 
L 603 4134 
L 603 4863 
z
" transform="scale(0.015625)"/>
       <path id="DejaVuSans-6d" d="M 3328 2828 
Q 3544 3216 3844 3400 
Q 4144 3584 4550 3584 
Q 5097 3584 5394 3201 
Q 5691 2819 5691 2113 
L 5691 0 
L 5113 0 
L 5113 2094 
Q 5113 2597 4934 2840 
Q 4756 3084 4391 3084 
Q 3944 3084 3684 2787 
Q 3425 2491 3425 1978 
L 3425 0 
L 2847 0 
L 2847 2094 
Q 2847 2600 2669 2842 
Q 2491 3084 2119 3084 
Q 1678 3084 1418 2786 
Q 1159 2488 1159 1978 
L 1159 0 
L 581 0 
L 581 3500 
L 1159 3500 
L 1159 2956 
Q 1356 3278 1631 3431 
Q 1906 3584 2284 3584 
Q 2666 3584 2933 3390 
Q 3200 3197 3328 2828 
z
" transform="scale(0.015625)"/>
       <path id="DejaVuSans-65" d="M 3597 1894 
L 3597 1613 
L 953 1613 
Q 991 1019 1311 708 
Q 1631 397 2203 397 
Q 2534 397 2845 478 
Q 3156 559 3463 722 
L 3463 178 
Q 3153 47 2828 -22 
Q 2503 -91 2169 -91 
Q 1331 -91 842 396 
Q 353 884 353 1716 
Q 353 2575 817 3079 
Q 1281 3584 2069 3584 
Q 2775 3584 3186 3129 
Q 3597 2675 3597 1894 
z
M 3022 2063 
Q 3016 2534 2758 2815 
Q 2500 3097 2075 3097 
Q 1594 3097 1305 2825 
Q 1016 2553 972 2059 
L 3022 2063 
z
" transform="scale(0.015625)"/>
       <path id="DejaVuSans-20" transform="scale(0.015625)"/>
       <path id="DejaVuSans-28" d="M 1984 4856 
Q 1566 4138 1362 3434 
Q 1159 2731 1159 2009 
Q 1159 1288 1364 580 
Q 1569 -128 1984 -844 
L 1484 -844 
Q 1016 -109 783 600 
Q 550 1309 550 2009 
Q 550 2706 781 3412 
Q 1013 4119 1484 4856 
L 1984 4856 
z
" transform="scale(0.015625)"/>
       <path id="DejaVuSans-73" d="M 2834 3397 
L 2834 2853 
Q 2591 2978 2328 3040 
Q 2066 3103 1784 3103 
Q 1356 3103 1142 2972 
Q 928 2841 928 2578 
Q 928 2378 1081 2264 
Q 1234 2150 1697 2047 
L 1894 2003 
Q 2506 1872 2764 1633 
Q 3022 1394 3022 966 
Q 3022 478 2636 193 
Q 2250 -91 1575 -91 
Q 1294 -91 989 -36 
Q 684 19 347 128 
L 347 722 
Q 666 556 975 473 
Q 1284 391 1588 391 
Q 1994 391 2212 530 
Q 2431 669 2431 922 
Q 2431 1156 2273 1281 
Q 2116 1406 1581 1522 
L 1381 1569 
Q 847 1681 609 1914 
Q 372 2147 372 2553 
Q 372 3047 722 3315 
Q 1072 3584 1716 3584 
Q 2034 3584 2315 3537 
Q 2597 3491 2834 3397 
z
" transform="scale(0.015625)"/>
       <path id="DejaVuSans-29" d="M 513 4856 
L 1013 4856 
Q 1481 4119 1714 3412 
Q 1947 2706 1947 2009 
Q 1947 1309 1714 600 
Q 1481 -109 1013 -844 
L 513 -844 
Q 928 -128 1133 580 
Q 1338 1288 1338 2009 
Q 1338 2731 1133 3434 
Q 928 4138 513 4856 
z
" transform="scale(0.015625)"/>
      </defs>
      <use xlink:href="#DejaVuSans-54"/>
      <use xlink:href="#DejaVuSans-69" x="57.958984"/>
      <use xlink:href="#DejaVuSans-6d" x="85.742188"/>
      <use xlink:href="#DejaVuSans-65" x="183.154297"/>
      <use xlink:href="#DejaVuSans-20" x="244.677734"/>
      <use xlink:href="#DejaVuSans-28" x="276.464844"/>
      <use xlink:href="#DejaVuSans-73" x="315.478516"/>
      <use xlink:href="#DejaVuSans-29" x="367.578125"/>
     </g>
    </g>
   </g>
   <g id="matplotlib.axis_2">
    <g id="ytick_1">
     <g id="line2d_8">
      <defs>
       <path id="m38fa861612" d="M 0 0 
L -3.5 0 
" style="stroke: #000000; stroke-width: 0.8"/>
      </defs>
      <g>
       <use xlink:href="#m38fa861612" x="93.23" y="639.64" style="stroke: #000000; stroke-width: 0.8"/>
      </g>
     </g>
     <g id="text_9">
      <!-- 0 -->
      <g transform="translate(77.3225 644.958906) scale(0.14 -0.14)">
       <use xlink:href="#DejaVuSans-30"/>
      </g>
     </g>
    </g>
    <g id="ytick_2">
     <g id="line2d_9">
      <g>
       <use xlink:href="#m38fa861612" x="93.23" y="540.924435" style="stroke: #000000; stroke-width: 0.8"/>
      </g>
     </g>
     <g id="text_10">
      <!-- 20 -->
      <g transform="translate(68.415 546.243341) scale(0.14 -0.14)">
       <use xlink:href="#DejaVuSans-32"/>
       <use xlink:href="#DejaVuSans-30" x="63.623047"/>
      </g>
     </g>
    </g>
    <g id="ytick_3">
     <g id="line2d_10">
      <g>
       <use xlink:href="#m38fa861612" x="93.23" y="442.20887" style="stroke: #000000; stroke-width: 0.8"/>
      </g>
     </g>
     <g id="text_11">
      <!-- 40 -->
      <g transform="translate(68.415 447.527777) scale(0.14 -0.14)">
       <use xlink:href="#DejaVuSans-34"/>
       <use xlink:href="#DejaVuSans-30" x="63.623047"/>
      </g>
     </g>
    </g>
    <g id="ytick_4">
     <g id="line2d_11">
      <g>
       <use xlink:href="#m38fa861612" x="93.23" y="343.493305" style="stroke: #000000; stroke-width: 0.8"/>
      </g>
     </g>
     <g id="text_12">
      <!-- 60 -->
      <g transform="translate(68.415 348.812212) scale(0.14 -0.14)">
       <use xlink:href="#DejaVuSans-36"/>
       <use xlink:href="#DejaVuSans-30" x="63.623047"/>
      </g>
     </g>
    </g>
    <g id="ytick_5">
     <g id="line2d_12">
      <g>
       <use xlink:href="#m38fa861612" x="93.23" y="244.777741" style="stroke: #000000; stroke-width: 0.8"/>
      </g>
     </g>
     <g id="text_13">
      <!-- 80 -->
      <g transform="translate(68.415 250.096647) scale(0.14 -0.14)">
       <defs>
        <path id="DejaVuSans-38" d="M 2034 2216 
Q 1584 2216 1326 1975 
Q 1069 1734 1069 1313 
Q 1069 891 1326 650 
Q 1584 409 2034 409 
Q 2484 409 2743 651 
Q 3003 894 3003 1313 
Q 3003 1734 2745 1975 
Q 2488 2216 2034 2216 
z
M 1403 2484 
Q 997 2584 770 2862 
Q 544 3141 544 3541 
Q 544 4100 942 4425 
Q 1341 4750 2034 4750 
Q 2731 4750 3128 4425 
Q 3525 4100 3525 3541 
Q 3525 3141 3298 2862 
Q 3072 2584 2669 2484 
Q 3125 2378 3379 2068 
Q 3634 1759 3634 1313 
Q 3634 634 3220 271 
Q 2806 -91 2034 -91 
Q 1263 -91 848 271 
Q 434 634 434 1313 
Q 434 1759 690 2068 
Q 947 2378 1403 2484 
z
M 1172 3481 
Q 1172 3119 1398 2916 
Q 1625 2713 2034 2713 
Q 2441 2713 2670 2916 
Q 2900 3119 2900 3481 
Q 2900 3844 2670 4047 
Q 2441 4250 2034 4250 
Q 1625 4250 1398 4047 
Q 1172 3844 1172 3481 
z
" transform="scale(0.015625)"/>
       </defs>
       <use xlink:href="#DejaVuSans-38"/>
       <use xlink:href="#DejaVuSans-30" x="63.623047"/>
      </g>
     </g>
    </g>
    <g id="ytick_6">
     <g id="line2d_13">
      <g>
       <use xlink:href="#m38fa861612" x="93.23" y="146.062176" style="stroke: #000000; stroke-width: 0.8"/>
      </g>
     </g>
     <g id="text_14">
      <!-- 100 -->
      <g transform="translate(59.5075 151.381082) scale(0.14 -0.14)">
       <use xlink:href="#DejaVuSans-31"/>
       <use xlink:href="#DejaVuSans-30" x="63.623047"/>
       <use xlink:href="#DejaVuSans-30" x="127.246094"/>
      </g>
     </g>
    </g>
    <g id="text_15">
     <!-- Packets per Second -->
     <g transform="translate(52.595938 418.683438) rotate(-90) scale(0.14 -0.14)">
      <defs>
       <path id="DejaVuSans-50" d="M 1259 4147 
L 1259 2394 
L 2053 2394 
Q 2494 2394 2734 2622 
Q 2975 2850 2975 3272 
Q 2975 3691 2734 3919 
Q 2494 4147 2053 4147 
L 1259 4147 
z
M 628 4666 
L 2053 4666 
Q 2838 4666 3239 4311 
Q 3641 3956 3641 3272 
Q 3641 2581 3239 2228 
Q 2838 1875 2053 1875 
L 1259 1875 
L 1259 0 
L 628 0 
L 628 4666 
z
" transform="scale(0.015625)"/>
       <path id="DejaVuSans-61" d="M 2194 1759 
Q 1497 1759 1228 1600 
Q 959 1441 959 1056 
Q 959 750 1161 570 
Q 1363 391 1709 391 
Q 2188 391 2477 730 
Q 2766 1069 2766 1631 
L 2766 1759 
L 2194 1759 
z
M 3341 1997 
L 3341 0 
L 2766 0 
L 2766 531 
Q 2569 213 2275 61 
Q 1981 -91 1556 -91 
Q 1019 -91 701 211 
Q 384 513 384 1019 
Q 384 1609 779 1909 
Q 1175 2209 1959 2209 
L 2766 2209 
L 2766 2266 
Q 2766 2663 2505 2880 
Q 2244 3097 1772 3097 
Q 1472 3097 1187 3025 
Q 903 2953 641 2809 
L 641 3341 
Q 956 3463 1253 3523 
Q 1550 3584 1831 3584 
Q 2591 3584 2966 3190 
Q 3341 2797 3341 1997 
z
" transform="scale(0.015625)"/>
       <path id="DejaVuSans-63" d="M 3122 3366 
L 3122 2828 
Q 2878 2963 2633 3030 
Q 2388 3097 2138 3097 
Q 1578 3097 1268 2742 
Q 959 2388 959 1747 
Q 959 1106 1268 751 
Q 1578 397 2138 397 
Q 2388 397 2633 464 
Q 2878 531 3122 666 
L 3122 134 
Q 2881 22 2623 -34 
Q 2366 -91 2075 -91 
Q 1284 -91 818 406 
Q 353 903 353 1747 
Q 353 2603 823 3093 
Q 1294 3584 2113 3584 
Q 2378 3584 2631 3529 
Q 2884 3475 3122 3366 
z
" transform="scale(0.015625)"/>
       <path id="DejaVuSans-6b" d="M 581 4863 
L 1159 4863 
L 1159 1991 
L 2875 3500 
L 3609 3500 
L 1753 1863 
L 3688 0 
L 2938 0 
L 1159 1709 
L 1159 0 
L 581 0 
L 581 4863 
z
" transform="scale(0.015625)"/>
       <path id="DejaVuSans-74" d="M 1172 4494 
L 1172 3500 
L 2356 3500 
L 2356 3053 
L 1172 3053 
L 1172 1153 
Q 1172 725 1289 603 
Q 1406 481 1766 481 
L 2356 481 
L 2356 0 
L 1766 0 
Q 1100 0 847 248 
Q 594 497 594 1153 
L 594 3053 
L 172 3053 
L 172 3500 
L 594 3500 
L 594 4494 
L 1172 4494 
z
" transform="scale(0.015625)"/>
       <path id="DejaVuSans-70" d="M 1159 525 
L 1159 -1331 
L 581 -1331 
L 581 3500 
L 1159 3500 
L 1159 2969 
Q 1341 3281 1617 3432 
Q 1894 3584 2278 3584 
Q 2916 3584 3314 3078 
Q 3713 2572 3713 1747 
Q 3713 922 3314 415 
Q 2916 -91 2278 -91 
Q 1894 -91 1617 61 
Q 1341 213 1159 525 
z
M 3116 1747 
Q 3116 2381 2855 2742 
Q 2594 3103 2138 3103 
Q 1681 3103 1420 2742 
Q 1159 2381 1159 1747 
Q 1159 1113 1420 752 
Q 1681 391 2138 391 
Q 2594 391 2855 752 
Q 3116 1113 3116 1747 
z
" transform="scale(0.015625)"/>
       <path id="DejaVuSans-72" d="M 2631 2963 
Q 2534 3019 2420 3045 
Q 2306 3072 2169 3072 
Q 1681 3072 1420 2755 
Q 1159 2438 1159 1844 
L 1159 0 
L 581 0 
L 581 3500 
L 1159 3500 
L 1159 2956 
Q 1341 3275 1631 3429 
Q 1922 3584 2338 3584 
Q 2397 3584 2469 3576 
Q 2541 3569 2628 3553 
L 2631 2963 
z
" transform="scale(0.015625)"/>
       <path id="DejaVuSans-53" d="M 3425 4513 
L 3425 3897 
Q 3066 4069 2747 4153 
Q 2428 4238 2131 4238 
Q 1616 4238 1336 4038 
Q 1056 3838 1056 3469 
Q 1056 3159 1242 3001 
Q 1428 2844 1947 2747 
L 2328 2669 
Q 3034 2534 3370 2195 
Q 3706 1856 3706 1288 
Q 3706 609 3251 259 
Q 2797 -91 1919 -91 
Q 1588 -91 1214 -16 
Q 841 59 441 206 
L 441 856 
Q 825 641 1194 531 
Q 1563 422 1919 422 
Q 2459 422 2753 634 
Q 3047 847 3047 1241 
Q 3047 1584 2836 1778 
Q 2625 1972 2144 2069 
L 1759 2144 
Q 1053 2284 737 2584 
Q 422 2884 422 3419 
Q 422 4038 858 4394 
Q 1294 4750 2059 4750 
Q 2388 4750 2728 4690 
Q 3069 4631 3425 4513 
z
" transform="scale(0.015625)"/>
       <path id="DejaVuSans-6f" d="M 1959 3097 
Q 1497 3097 1228 2736 
Q 959 2375 959 1747 
Q 959 1119 1226 758 
Q 1494 397 1959 397 
Q 2419 397 2687 759 
Q 2956 1122 2956 1747 
Q 2956 2369 2687 2733 
Q 2419 3097 1959 3097 
z
M 1959 3584 
Q 2709 3584 3137 3096 
Q 3566 2609 3566 1747 
Q 3566 888 3137 398 
Q 2709 -91 1959 -91 
Q 1206 -91 779 398 
Q 353 888 353 1747 
Q 353 2609 779 3096 
Q 1206 3584 1959 3584 
z
" transform="scale(0.015625)"/>
       <path id="DejaVuSans-6e" d="M 3513 2113 
L 3513 0 
L 2938 0 
L 2938 2094 
Q 2938 2591 2744 2837 
Q 2550 3084 2163 3084 
Q 1697 3084 1428 2787 
Q 1159 2491 1159 1978 
L 1159 0 
L 581 0 
L 581 3500 
L 1159 3500 
L 1159 2956 
Q 1366 3272 1645 3428 
Q 1925 3584 2291 3584 
Q 2894 3584 3203 3211 
Q 3513 2838 3513 2113 
z
" transform="scale(0.015625)"/>
       <path id="DejaVuSans-64" d="M 2906 2969 
L 2906 4863 
L 3481 4863 
L 3481 0 
L 2906 0 
L 2906 525 
Q 2725 213 2448 61 
Q 2172 -91 1784 -91 
Q 1150 -91 751 415 
Q 353 922 353 1747 
Q 353 2572 751 3078 
Q 1150 3584 1784 3584 
Q 2172 3584 2448 3432 
Q 2725 3281 2906 2969 
z
M 947 1747 
Q 947 1113 1208 752 
Q 1469 391 1925 391 
Q 2381 391 2643 752 
Q 2906 1113 2906 1747 
Q 2906 2381 2643 2742 
Q 2381 3103 1925 3103 
Q 1469 3103 1208 2742 
Q 947 2381 947 1747 
z
" transform="scale(0.015625)"/>
      </defs>
      <use xlink:href="#DejaVuSans-50"/>
      <use xlink:href="#DejaVuSans-61" x="55.802734"/>
      <use xlink:href="#DejaVuSans-63" x="117.082031"/>
      <use xlink:href="#DejaVuSans-6b" x="172.0625"/>
      <use xlink:href="#DejaVuSans-65" x="226.347656"/>
      <use xlink:href="#DejaVuSans-74" x="287.871094"/>
      <use xlink:href="#DejaVuSans-73" x="327.080078"/>
      <use xlink:href="#DejaVuSans-20" x="379.179688"/>
      <use xlink:href="#DejaVuSans-70" x="410.966797"/>
      <use xlink:href="#DejaVuSans-65" x="474.443359"/>
      <use xlink:href="#DejaVuSans-72" x="535.966797"/>
      <use xlink:href="#DejaVuSans-20" x="577.080078"/>
      <use xlink:href="#DejaVuSans-53" x="608.867188"/>
      <use xlink:href="#DejaVuSans-65" x="672.34375"/>
      <use xlink:href="#DejaVuSans-63" x="733.867188"/>
      <use xlink:href="#DejaVuSans-6f" x="788.847656"/>
      <use xlink:href="#DejaVuSans-6e" x="850.029297"/>
      <use xlink:href="#DejaVuSans-64" x="913.408203"/>
     </g>
    </g>
   </g>
   <g id="line2d_14">
    <path d="M 109.469815 216.239208 
L 111.590281 216.917482 
L 114.022212 75.924825 
L 116.319921 134.786702 
L 118.712712 132.811821 
L 120.800216 184.984335 
L 123.30085 175.755003 
L 125.437194 195.37838 
L 127.717448 223.416178 
L 130.107111 220.407929 
L 132.282319 154.835151 
L 134.348985 231.426645 
L 136.851558 197.18389 
L 139.137026 201.295047 
L 141.530854 155.057792 
L 143.708035 227.929533 
L 146.102807 199.284415 
L 148.388186 178.206272 
L 150.458056 206.584732 
L 152.878038 182.083412 
L 155.380746 176.139548 
L 157.505742 217.818711 
L 160.007432 154.874359 
L 164.358706 251.807977 
L 166.860352 154.86564 
L 168.927199 205.951389 
L 171.102329 203.300038 
L 173.193104 160.476241 
L 175.586016 243.011977 
L 177.869853 154.807358 
L 180.15353 224.040218 
L 182.219712 180.292311 
L 184.338758 191.751622 
L 186.731631 220.970349 
L 188.906853 154.838344 
L 191.223086 229.881529 
L 193.289005 205.75646 
L 195.633282 189.799448 
L 197.916965 177.863379 
L 200.309922 176.916109 
L 202.485914 227.70438 
L 204.905722 160.260696 
L 207.080842 203.298143 
L 209.364853 224.100769 
L 211.431227 205.852027 
L 213.823202 176.725947 
L 215.998373 179.067834 
L 218.281723 223.980572 
L 220.348909 180.515363 
L 222.631938 223.922054 
L 224.91556 177.851355 
L 226.986829 206.877003 
L 229.270275 177.815508 
L 231.662669 220.886439 
L 233.729288 129.361772 
L 236.013814 224.194425 
L 238.189097 203.330952 
L 240.179468 162.79629 
L 242.680998 196.999314 
L 245.182103 175.842624 
L 247.375452 206.924538 
L 249.55022 203.227472 
L 251.942543 176.793514 
L 254.151112 209.90656 
L 256.217303 180.294178 
L 258.718982 239.179642 
L 260.895964 203.671313 
L 263.179 177.732691 
L 265.245301 205.836609 
L 267.359749 165.840868 
L 269.576589 211.5098 
L 271.641609 180.033959 
L 274.033647 198.781135 
L 276.535188 175.923277 
L 278.818803 224.028917 
L 281.210731 220.804784 
L 283.386234 203.374897 
L 285.452431 180.295745 
L 287.73432 177.500535 
L 290.125634 176.598129 
L 292.201875 182.517742 
L 294.702809 239.060142 
L 296.986986 201.047245 
L 299.377946 154.476754 
L 301.812581 228.151773 
L 306.270082 177.717957 
L 308.424039 199.010946 
L 310.725317 181.394284 
L 312.865884 171.622045 
L 315.351813 236.642388 
L 317.489276 195.610908 
L 319.663371 178.839794 
L 321.837694 203.138177 
L 324.258665 204.049735 
L 326.75351 195.81345 
L 329.256052 155.039346 
L 331.492072 215.182198 
L 333.882839 176.492054 
L 336.057802 203.266771 
L 338.161794 188.546896 
L 340.553935 242.884198 
L 342.645747 185.920429 
L 344.929833 201.029828 
L 347.168624 192.155842 
L 349.359863 182.445054 
L 351.700506 166.574054 
L 354.137161 206.853522 
L 356.419244 200.644889 
L 358.516388 212.216526 
L 360.801672 201.259717 
L 363.039038 191.870876 
L 365.212341 154.410355 
L 367.495857 224.010767 
L 369.696705 208.398907 
L 371.949305 171.491639 
L 374.123926 178.951286 
L 376.406266 223.796705 
L 378.473086 205.945397 
L 380.864743 154.617982 
L 383.042115 252.181813 
L 385.288648 193.698001 
L 387.680217 198.694616 
L 389.855011 154.743184 
L 392.028104 202.891045 
L 394.092106 205.353336 
L 396.22903 195.498942 
L 398.365551 195.415043 
L 400.81291 187.201863 
L 403.299524 194.344148 
L 405.47392 178.903527 
L 407.601632 218.35736 
L 409.777749 227.728082 
L 411.9505 154.287076 
L 414.036772 209.989286 
L 416.174328 195.630075 
L 418.673412 154.368749 
L 420.848029 227.443932 
L 422.915512 206.084643 
L 425.089161 178.745231 
L 427.51996 205.810942 
L 429.717578 183.772185 
L 432.017602 204.069099 
L 434.299105 154.311514 
L 436.5829 247.149234 
L 438.975755 198.931586 
L 441.149697 203.061705 
L 443.327226 179.566505 
L 445.438673 165.167483 
L 447.831441 220.951988 
L 449.990821 200.117522 
L 452.164052 202.918888 
L 454.44813 201.0281 
L 456.54353 186.697379 
L 458.934204 198.529758 
L 461.415952 193.471201 
L 463.608685 158.709967 
L 465.891143 223.818033 
L 467.996976 188.941437 
L 470.279771 200.781802 
L 472.407294 193.536191 
L 474.690356 177.738008 
L 476.81195 217.14228 
L 478.988427 179.344049 
L 481.1267 195.77909 
L 483.259928 219.446564 
L 485.653402 154.986246 
L 487.724103 232.222126 
L 489.861384 195.572968 
L 492.033636 202.721917 
L 494.14516 140.213492 
L 496.428141 223.913487 
L 498.469936 200.629897 
L 500.755027 201.222694 
L 502.748788 163.607006 
L 504.886699 195.703964 
L 507.379596 195.466582 
L 509.509156 243.482524 
L 511.683668 203.176253 
L 514.182782 196.57149 
L 516.277047 186.452016 
L 518.422476 148.106089 
L 520.63392 210.465266 
L 522.753614 191.888472 
L 525.187368 206.337818 
L 527.361476 227.347494 
L 529.642177 177.259863 
L 531.709494 180.544357 
L 533.991953 223.818325 
L 536.223064 190.615521 
L 538.365795 172.094762 
L 540.608339 216.417148 
L 542.75225 172.352319 
L 544.78095 171.805386 
L 547.128166 235.290297 
L 549.265178 195.51707 
L 551.408943 196.916289 
L 553.435654 171.346312 
L 555.77051 165.401441 
L 558.05406 224.017022 
L 560.044937 162.91743 
L 562.236138 206.500304 
L 564.47767 216.226098 
L 566.803801 208.957678 
L 568.996858 206.866862 
L 571.25001 171.606472 
L 573.633897 175.155445 
L 575.877526 216.621787 
L 578.018046 196.244994 
L 580.147881 194.020363 
L 582.484886 165.837722 
L 584.660456 251.860752 
L 586.81518 150.22634 
L 589.247086 227.69009 
L 591.438373 206.517454 
L 593.931753 195.552672 
L 596.10483 154.359755 
L 598.313144 209.856968 
L 600.460506 197.657703 
L 602.78368 208.409629 
L 604.956968 178.668527 
L 607.128686 178.335529 
L 609.559019 184.032212 
L 611.74238 253.244535 
L 614.234306 195.293427 
L 616.409782 179.13218 
L 618.691669 223.714127 
L 621.012953 139.913902 
L 623.364211 235.985448 
L 625.395494 172.400311 
L 627.776941 196.820624 
L 629.950565 227.255753 
L 632.052264 137.878685 
L 634.487741 228.294139 
L 636.677971 206.308318 
L 638.813363 195.180268 
L 641.254362 186.022964 
L 643.450794 183.525953 
L 645.892687 164.596108 
L 648.083284 206.381145 
L 650.520743 206.996255 
L 652.694249 178.714887 
L 654.898343 209.0341 
L 657.170239 221.884977 
L 659.123243 180.670945 
L 661.364183 216.114181 
L 663.503578 171.365756 
L 665.748626 216.889183 
L 667.884798 195.342548 
L 670.118533 143.932664 
L 672.304999 229.677787 
L 674.491147 205.499297 
L 676.774924 200.970426 
L 678.931027 199.449545 
L 681.10764 203.597478 
L 683.201586 186.382764 
L 685.4872 155.184469 
L 687.616277 243.392765 
L 690.116355 196.742392 
L 692.334397 164.197543 
L 694.496339 225.027532 
L 696.890609 155.147401 
L 698.970424 183.303173 
L 701.152338 252.988318 
L 703.290449 195.745417 
L 705.573011 177.636595 
L 707.871623 180.862687 
L 710.043173 226.861882 
L 712.220239 155.249071 
L 714.502861 223.848111 
L 716.676452 202.991021 
L 718.713452 199.596753 
L 721.106705 199.004937 
L 723.238467 194.423296 
L 725.410462 202.670338 
L 727.912933 155.025455 
L 730.003637 236.12016 
L 732.198711 159.222923 
L 734.372568 227.29993 
L 736.760782 153.918815 
L 738.866414 188.898209 
L 741.148507 246.856602 
L 743.539093 176.456994 
L 745.709825 178.125915 
L 747.81876 214.606279 
L 749.996569 179.625775 
L 752.393433 221.667264 
L 754.590312 159.617815 
L 756.799596 233.911936 
L 758.970944 178.256669 
L 758.970944 178.256669 
" clip-path="url(#pf021e753c5)" style="fill: none; stroke: #1f77b4; stroke-width: 1.5; stroke-linecap: square"/>
   </g>
   <g id="line2d_15">
    <path d="M 109.469815 364.429485 
L 111.590281 341.247634 
L 114.022212 357.782412 
L 116.319921 341.317597 
L 118.712712 331.135891 
L 120.800216 336.536224 
L 123.30085 344.440457 
L 125.437194 343.465586 
L 127.717448 362.157452 
L 130.107111 352.797004 
L 132.282319 324.516848 
L 134.348985 358.993319 
L 136.851558 344.66926 
L 139.137026 339.719769 
L 141.530854 331.269504 
L 143.708035 349.020847 
L 146.102807 353.40887 
L 148.388186 339.708077 
L 150.458056 333.953928 
L 152.878038 334.602275 
L 155.380746 344.685167 
L 157.505742 366.696813 
L 160.007432 323.488495 
L 164.358706 373.005485 
L 166.860352 323.482809 
L 168.927199 333.506863 
L 171.102329 348.746692 
L 173.193104 337.010258 
L 175.586016 375.221318 
L 177.869853 316.418239 
L 180.15353 362.573479 
L 182.219712 333.408208 
L 184.338758 341.047748 
L 186.731631 353.181818 
L 188.906853 324.518923 
L 191.223086 366.467686 
L 193.289005 333.369266 
L 195.633282 347.243641 
L 200.309922 331.157406 
L 202.485914 348.861915 
L 204.905722 334.580443 
L 207.080842 348.745429 
L 209.364853 362.613846 
L 211.431227 333.436725 
L 213.823202 331.030631 
L 215.998373 348.752316 
L 218.281723 362.533715 
L 220.348909 333.556909 
L 222.631938 362.494703 
L 224.91556 316.387949 
L 226.986829 359.616884 
L 229.270275 339.45408 
L 231.662669 353.124406 
L 233.729288 307.959152 
L 236.013814 362.676283 
L 238.189097 348.767302 
L 240.179468 321.744194 
L 242.680998 344.546209 
L 245.182103 344.496215 
L 247.375452 351.163025 
L 249.55022 348.698315 
L 251.942543 331.075676 
L 254.151112 353.15104 
L 256.217303 333.409452 
L 258.718982 365.640808 
L 260.895964 348.994209 
L 263.179 339.400249 
L 265.245301 333.425841 
L 267.359749 340.398443 
L 269.576589 354.219866 
L 271.641609 333.235973 
L 274.033647 331.038794 
L 276.535188 344.54754 
L 278.818803 362.565945 
L 281.210731 353.068536 
L 283.386234 348.796598 
L 285.452431 333.410497 
L 287.73432 339.249347 
L 290.125634 330.945419 
L 292.201875 334.891828 
L 294.702809 365.559045 
L 296.986986 339.55022 
L 299.377946 330.899753 
L 301.812581 358.095423 
L 303.987119 348.667539 
L 306.270082 339.390672 
L 308.424039 345.887297 
L 310.725317 318.867999 
L 312.865884 344.049713 
L 315.351813 363.904792 
L 317.489276 343.620606 
L 319.663371 324.355649 
L 321.837694 348.638785 
L 324.258665 356.506328 
L 326.75351 343.755633 
L 329.256052 323.596095 
L 331.492072 356.668132 
L 333.882839 330.874703 
L 336.057802 348.724514 
L 338.161794 338.911264 
L 340.553935 375.136132 
L 342.645747 337.160286 
L 344.929833 339.538303 
L 347.168624 333.466629 
L 349.359863 350.885297 
L 351.700506 324.262703 
L 354.137161 336.689465 
L 356.419244 362.37993 
L 358.516388 337.929312 
L 360.801672 362.768242 
L 363.039038 333.271652 
L 365.212341 324.240731 
L 367.495857 362.553845 
L 369.696705 352.145938 
L 371.949305 311.936147 
L 374.123926 348.678707 
L 376.406266 362.411137 
L 378.473086 333.502633 
L 380.864743 330.989625 
L 383.042115 373.262496 
L 385.288648 334.52179 
L 387.680217 353.0255 
L 389.855011 324.45707 
L 392.028104 348.47403 
L 394.092106 333.084708 
L 396.22903 343.545961 
L 398.365551 343.490029 
L 400.81291 338.014575 
L 403.299524 342.776099 
L 405.47392 348.648544 
L 407.601632 342.264019 
L 409.777749 373.108759 
L 411.9505 324.160599 
L 414.036772 361.630715 
L 418.673412 323.15875 
L 420.848029 348.67807 
L 422.915512 359.104181 
L 425.089161 324.290947 
L 427.51996 357.651112 
L 429.717578 327.730442 
L 432.017602 364.542589 
L 434.299105 316.087676 
L 436.5829 362.587695 
L 438.975755 353.179531 
L 441.149697 348.587803 
L 443.327226 324.852872 
L 445.438673 339.973147 
L 447.831441 353.169255 
L 449.990821 346.625014 
L 452.164052 348.492592 
L 454.44813 339.537121 
L 456.54353 337.678253 
L 458.934204 352.918343 
L 461.415952 342.194134 
L 463.608685 327.035479 
L 465.891143 362.425355 
L 467.996976 339.174291 
L 470.279771 339.368601 
L 472.407294 342.237461 
L 474.690356 339.403705 
L 476.81195 341.406315 
L 478.988427 348.926768 
L 481.1267 343.732727 
L 483.259928 343.032869 
L 485.653402 331.223975 
L 487.724103 359.540212 
L 489.861384 343.595312 
L 492.033636 348.361278 
L 494.14516 315.01277 
L 496.428141 362.488992 
L 498.469936 329.750516 
L 500.755027 362.74486 
L 502.748788 322.284671 
L 504.886699 343.682643 
L 507.379596 343.524388 
L 509.509156 367.281735 
L 511.683668 348.664169 
L 514.182782 344.260993 
L 516.277047 337.514677 
L 518.422476 320.142958 
L 520.63392 353.523511 
L 522.753614 341.138982 
L 525.187368 336.328472 
L 527.361476 372.862496 
L 529.642177 339.092911 
L 531.709494 333.576238 
L 533.991953 362.42555 
L 536.223064 332.412725 
L 538.365795 319.740627 
L 540.608339 357.491432 
L 542.75225 344.510938 
L 544.78095 327.750257 
L 547.128166 370.073531 
L 549.265178 343.558047 
L 551.408943 344.490859 
L 553.435654 327.444208 
L 555.77051 323.480961 
L 558.05406 362.558015 
L 560.044937 321.824954 
L 562.236138 350.880203 
L 564.47767 357.364065 
L 566.803801 344.962622 
L 568.996858 351.124575 
L 571.25001 335.418207 
L 573.633897 329.98363 
L 575.877526 357.627858 
L 578.018046 344.04333 
L 580.147881 342.560242 
L 582.484886 323.771814 
L 584.660456 373.041767 
L 586.81518 321.521121 
L 589.247086 357.779535 
L 591.438373 350.891636 
L 593.931753 343.581781 
L 596.10483 324.20784 
L 598.313144 353.117978 
L 600.460506 344.985136 
L 602.78368 344.587641 
L 604.956968 324.238466 
L 607.128686 348.289808 
L 609.559019 335.901475 
L 611.74238 373.993118 
L 614.234306 343.408952 
L 616.409782 324.555702 
L 618.691669 362.356084 
L 621.012953 321.632483 
L 623.364211 370.536966 
L 625.395494 328.146874 
L 627.776941 329.666436 
L 629.950565 372.803134 
L 632.052264 313.495145 
L 634.487741 358.192832 
L 638.813363 343.333512 
L 641.254362 337.228642 
L 643.450794 327.561968 
L 645.892687 337.339342 
L 648.083284 350.800763 
L 650.520743 336.789379 
L 652.694249 348.529402 
L 654.898343 352.5694 
L 657.170239 361.136651 
L 659.123243 315.661844 
L 661.364183 357.289454 
L 663.503578 343.887846 
L 665.748626 357.806122 
L 667.884798 343.441699 
L 670.118533 309.168443 
L 672.304999 350.254908 
L 674.491147 350.212864 
L 676.774924 362.585532 
L 678.931027 346.179697 
L 681.10764 348.944985 
L 683.201586 337.468509 
L 685.4872 316.669646 
L 687.616277 367.220026 
L 690.116355 344.374928 
L 692.334397 330.602403 
L 694.496339 346.972376 
L 696.890609 331.326528 
L 698.970424 335.415448 
L 701.152338 373.816969 
L 703.290449 343.710278 
L 705.573011 339.337787 
L 707.871623 318.495881 
L 710.043173 372.548277 
L 712.220239 324.785896 
L 714.502861 362.445407 
L 716.676452 348.540681 
L 718.713452 329.021237 
L 721.106705 353.227209 
L 723.238467 342.828864 
L 725.410462 348.326892 
L 727.912933 323.587036 
L 730.003637 362.22011 
L 732.198711 327.3689 
L 734.372568 348.576421 
L 736.760782 330.544701 
L 738.866414 339.145473 
L 741.148507 362.381131 
L 743.539093 330.85133 
L 745.709825 348.15742 
L 747.81876 339.616197 
L 749.996569 349.1047 
L 752.393433 353.658654 
L 754.590312 327.62558 
L 756.799596 353.24372 
L 758.970944 348.240002 
L 758.970944 348.240002 
" clip-path="url(#pf021e753c5)" style="fill: none; stroke: #ff7f0e; stroke-width: 1.5; stroke-linecap: square"/>
   </g>
   <g id="line2d_16">
    <path d="M 93.23 194.632242 
L 791.446 194.632242 
" clip-path="url(#pf021e753c5)" style="fill: none; stroke-dasharray: 5.55,2.4; stroke-dashoffset: 0; stroke: #0000ff; stroke-width: 1.5"/>
   </g>
   <g id="line2d_17">
    <path d="M 93.23 343.634943 
L 791.446 343.634943 
" clip-path="url(#pf021e753c5)" style="fill: none; stroke-dasharray: 5.55,2.4; stroke-dashoffset: 0; stroke: #ffa500; stroke-width: 1.5"/>
   </g>
   <g id="patch_3">
    <path d="M 93.23 639.64 
L 93.23 60.96 
" style="fill: none; stroke: #000000; stroke-width: 0.8; stroke-linejoin: miter; stroke-linecap: square"/>
   </g>
   <g id="patch_4">
    <path d="M 791.446 639.64 
L 791.446 60.96 
" style="fill: none; stroke: #000000; stroke-width: 0.8; stroke-linejoin: miter; stroke-linecap: square"/>
   </g>
   <g id="patch_5">
    <path d="M 93.23 639.64 
L 791.446 639.64 
" style="fill: none; stroke: #000000; stroke-width: 0.8; stroke-linejoin: miter; stroke-linecap: square"/>
   </g>
   <g id="patch_6">
    <path d="M 93.23 60.96 
L 791.446 60.96 
" style="fill: none; stroke: #000000; stroke-width: 0.8; stroke-linejoin: miter; stroke-linecap: square"/>
   </g>
   <g id="text_16">
    <!-- Parsed and Filtered Packets (SelectionProcess: 16777218) -->
    <g transform="translate(199.340438 54.96) scale(0.168 -0.168)">
     <defs>
      <path id="DejaVuSans-46" d="M 628 4666 
L 3309 4666 
L 3309 4134 
L 1259 4134 
L 1259 2759 
L 3109 2759 
L 3109 2228 
L 1259 2228 
L 1259 0 
L 628 0 
L 628 4666 
z
" transform="scale(0.015625)"/>
      <path id="DejaVuSans-6c" d="M 603 4863 
L 1178 4863 
L 1178 0 
L 603 0 
L 603 4863 
z
" transform="scale(0.015625)"/>
      <path id="DejaVuSans-3a" d="M 750 794 
L 1409 794 
L 1409 0 
L 750 0 
L 750 794 
z
M 750 3309 
L 1409 3309 
L 1409 2516 
L 750 2516 
L 750 3309 
z
" transform="scale(0.015625)"/>
      <path id="DejaVuSans-37" d="M 525 4666 
L 3525 4666 
L 3525 4397 
L 1831 0 
L 1172 0 
L 2766 4134 
L 525 4134 
L 525 4666 
z
" transform="scale(0.015625)"/>
     </defs>
     <use xlink:href="#DejaVuSans-50"/>
     <use xlink:href="#DejaVuSans-61" x="55.802734"/>
     <use xlink:href="#DejaVuSans-72" x="117.082031"/>
     <use xlink:href="#DejaVuSans-73" x="158.195312"/>
     <use xlink:href="#DejaVuSans-65" x="210.294922"/>
     <use xlink:href="#DejaVuSans-64" x="271.818359"/>
     <use xlink:href="#DejaVuSans-20" x="335.294922"/>
     <use xlink:href="#DejaVuSans-61" x="367.082031"/>
     <use xlink:href="#DejaVuSans-6e" x="428.361328"/>
     <use xlink:href="#DejaVuSans-64" x="491.740234"/>
     <use xlink:href="#DejaVuSans-20" x="555.216797"/>
     <use xlink:href="#DejaVuSans-46" x="587.003906"/>
     <use xlink:href="#DejaVuSans-69" x="637.273438"/>
     <use xlink:href="#DejaVuSans-6c" x="665.056641"/>
     <use xlink:href="#DejaVuSans-74" x="692.839844"/>
     <use xlink:href="#DejaVuSans-65" x="732.048828"/>
     <use xlink:href="#DejaVuSans-72" x="793.572266"/>
     <use xlink:href="#DejaVuSans-65" x="832.435547"/>
     <use xlink:href="#DejaVuSans-64" x="893.958984"/>
     <use xlink:href="#DejaVuSans-20" x="957.435547"/>
     <use xlink:href="#DejaVuSans-50" x="989.222656"/>
     <use xlink:href="#DejaVuSans-61" x="1045.025391"/>
     <use xlink:href="#DejaVuSans-63" x="1106.304688"/>
     <use xlink:href="#DejaVuSans-6b" x="1161.285156"/>
     <use xlink:href="#DejaVuSans-65" x="1215.570312"/>
     <use xlink:href="#DejaVuSans-74" x="1277.09375"/>
     <use xlink:href="#DejaVuSans-73" x="1316.302734"/>
     <use xlink:href="#DejaVuSans-20" x="1368.402344"/>
     <use xlink:href="#DejaVuSans-28" x="1400.189453"/>
     <use xlink:href="#DejaVuSans-53" x="1439.203125"/>
     <use xlink:href="#DejaVuSans-65" x="1502.679688"/>
     <use xlink:href="#DejaVuSans-6c" x="1564.203125"/>
     <use xlink:href="#DejaVuSans-65" x="1591.986328"/>
     <use xlink:href="#DejaVuSans-63" x="1653.509766"/>
     <use xlink:href="#DejaVuSans-74" x="1708.490234"/>
     <use xlink:href="#DejaVuSans-69" x="1747.699219"/>
     <use xlink:href="#DejaVuSans-6f" x="1775.482422"/>
     <use xlink:href="#DejaVuSans-6e" x="1836.664062"/>
     <use xlink:href="#DejaVuSans-50" x="1900.042969"/>
     <use xlink:href="#DejaVuSans-72" x="1958.595703"/>
     <use xlink:href="#DejaVuSans-6f" x="1997.458984"/>
     <use xlink:href="#DejaVuSans-63" x="2058.640625"/>
     <use xlink:href="#DejaVuSans-65" x="2113.621094"/>
     <use xlink:href="#DejaVuSans-73" x="2175.144531"/>
     <use xlink:href="#DejaVuSans-73" x="2227.244141"/>
     <use xlink:href="#DejaVuSans-3a" x="2279.34375"/>
     <use xlink:href="#DejaVuSans-20" x="2313.035156"/>
     <use xlink:href="#DejaVuSans-31" x="2344.822266"/>
     <use xlink:href="#DejaVuSans-36" x="2408.445312"/>
     <use xlink:href="#DejaVuSans-37" x="2472.068359"/>
     <use xlink:href="#DejaVuSans-37" x="2535.691406"/>
     <use xlink:href="#DejaVuSans-37" x="2599.314453"/>
     <use xlink:href="#DejaVuSans-32" x="2662.9375"/>
     <use xlink:href="#DejaVuSans-31" x="2726.560547"/>
     <use xlink:href="#DejaVuSans-38" x="2790.183594"/>
     <use xlink:href="#DejaVuSans-29" x="2853.806641"/>
    </g>
   </g>
   <g id="legend_1">
    <g id="patch_7">
     <path d="M 801.246 393.49875 
L 1017.381938 393.49875 
Q 1020.181938 393.49875 1020.181938 390.69875 
L 1020.181938 309.90125 
Q 1020.181938 307.10125 1017.381938 307.10125 
L 801.246 307.10125 
Q 798.446 307.10125 798.446 309.90125 
L 798.446 390.69875 
Q 798.446 393.49875 801.246 393.49875 
z
" style="fill: #ffffff; opacity: 0.8; stroke: #cccccc; stroke-linejoin: miter"/>
    </g>
    <g id="line2d_18">
     <path d="M 804.046 318.439063 
L 818.046 318.439063 
L 832.046 318.439063 
" style="fill: none; stroke: #1f77b4; stroke-width: 1.5; stroke-linecap: square"/>
    </g>
    <g id="text_17">
     <!-- Parsed Packets -->
     <g transform="translate(843.246 323.339063) scale(0.14 -0.14)">
      <use xlink:href="#DejaVuSans-50"/>
      <use xlink:href="#DejaVuSans-61" x="55.802734"/>
      <use xlink:href="#DejaVuSans-72" x="117.082031"/>
      <use xlink:href="#DejaVuSans-73" x="158.195312"/>
      <use xlink:href="#DejaVuSans-65" x="210.294922"/>
      <use xlink:href="#DejaVuSans-64" x="271.818359"/>
      <use xlink:href="#DejaVuSans-20" x="335.294922"/>
      <use xlink:href="#DejaVuSans-50" x="367.082031"/>
      <use xlink:href="#DejaVuSans-61" x="422.884766"/>
      <use xlink:href="#DejaVuSans-63" x="484.164062"/>
      <use xlink:href="#DejaVuSans-6b" x="539.144531"/>
      <use xlink:href="#DejaVuSans-65" x="593.429688"/>
      <use xlink:href="#DejaVuSans-74" x="654.953125"/>
      <use xlink:href="#DejaVuSans-73" x="694.162109"/>
     </g>
    </g>
    <g id="line2d_19">
     <path d="M 804.046 338.988438 
L 818.046 338.988438 
L 832.046 338.988438 
" style="fill: none; stroke: #ff7f0e; stroke-width: 1.5; stroke-linecap: square"/>
    </g>
    <g id="text_18">
     <!-- Filtered Packets -->
     <g transform="translate(843.246 343.888438) scale(0.14 -0.14)">
      <use xlink:href="#DejaVuSans-46"/>
      <use xlink:href="#DejaVuSans-69" x="50.269531"/>
      <use xlink:href="#DejaVuSans-6c" x="78.052734"/>
      <use xlink:href="#DejaVuSans-74" x="105.835938"/>
      <use xlink:href="#DejaVuSans-65" x="145.044922"/>
      <use xlink:href="#DejaVuSans-72" x="206.568359"/>
      <use xlink:href="#DejaVuSans-65" x="245.431641"/>
      <use xlink:href="#DejaVuSans-64" x="306.955078"/>
      <use xlink:href="#DejaVuSans-20" x="370.431641"/>
      <use xlink:href="#DejaVuSans-50" x="402.21875"/>
      <use xlink:href="#DejaVuSans-61" x="458.021484"/>
      <use xlink:href="#DejaVuSans-63" x="519.300781"/>
      <use xlink:href="#DejaVuSans-6b" x="574.28125"/>
      <use xlink:href="#DejaVuSans-65" x="628.566406"/>
      <use xlink:href="#DejaVuSans-74" x="690.089844"/>
      <use xlink:href="#DejaVuSans-73" x="729.298828"/>
     </g>
    </g>
    <g id="line2d_20">
     <path d="M 804.046 359.537813 
L 818.046 359.537813 
L 832.046 359.537813 
" style="fill: none; stroke-dasharray: 5.55,2.4; stroke-dashoffset: 0; stroke: #0000ff; stroke-width: 1.5"/>
    </g>
    <g id="text_19">
     <!-- Parsed Packets Average -->
     <g transform="translate(843.246 364.437813) scale(0.14 -0.14)">
      <defs>
       <path id="DejaVuSans-41" d="M 2188 4044 
L 1331 1722 
L 3047 1722 
L 2188 4044 
z
M 1831 4666 
L 2547 4666 
L 4325 0 
L 3669 0 
L 3244 1197 
L 1141 1197 
L 716 0 
L 50 0 
L 1831 4666 
z
" transform="scale(0.015625)"/>
       <path id="DejaVuSans-76" d="M 191 3500 
L 800 3500 
L 1894 563 
L 2988 3500 
L 3597 3500 
L 2284 0 
L 1503 0 
L 191 3500 
z
" transform="scale(0.015625)"/>
       <path id="DejaVuSans-67" d="M 2906 1791 
Q 2906 2416 2648 2759 
Q 2391 3103 1925 3103 
Q 1463 3103 1205 2759 
Q 947 2416 947 1791 
Q 947 1169 1205 825 
Q 1463 481 1925 481 
Q 2391 481 2648 825 
Q 2906 1169 2906 1791 
z
M 3481 434 
Q 3481 -459 3084 -895 
Q 2688 -1331 1869 -1331 
Q 1566 -1331 1297 -1286 
Q 1028 -1241 775 -1147 
L 775 -588 
Q 1028 -725 1275 -790 
Q 1522 -856 1778 -856 
Q 2344 -856 2625 -561 
Q 2906 -266 2906 331 
L 2906 616 
Q 2728 306 2450 153 
Q 2172 0 1784 0 
Q 1141 0 747 490 
Q 353 981 353 1791 
Q 353 2603 747 3093 
Q 1141 3584 1784 3584 
Q 2172 3584 2450 3431 
Q 2728 3278 2906 2969 
L 2906 3500 
L 3481 3500 
L 3481 434 
z
" transform="scale(0.015625)"/>
      </defs>
      <use xlink:href="#DejaVuSans-50"/>
      <use xlink:href="#DejaVuSans-61" x="55.802734"/>
      <use xlink:href="#DejaVuSans-72" x="117.082031"/>
      <use xlink:href="#DejaVuSans-73" x="158.195312"/>
      <use xlink:href="#DejaVuSans-65" x="210.294922"/>
      <use xlink:href="#DejaVuSans-64" x="271.818359"/>
      <use xlink:href="#DejaVuSans-20" x="335.294922"/>
      <use xlink:href="#DejaVuSans-50" x="367.082031"/>
      <use xlink:href="#DejaVuSans-61" x="422.884766"/>
      <use xlink:href="#DejaVuSans-63" x="484.164062"/>
      <use xlink:href="#DejaVuSans-6b" x="539.144531"/>
      <use xlink:href="#DejaVuSans-65" x="593.429688"/>
      <use xlink:href="#DejaVuSans-74" x="654.953125"/>
      <use xlink:href="#DejaVuSans-73" x="694.162109"/>
      <use xlink:href="#DejaVuSans-20" x="746.261719"/>
      <use xlink:href="#DejaVuSans-41" x="778.048828"/>
      <use xlink:href="#DejaVuSans-76" x="840.582031"/>
      <use xlink:href="#DejaVuSans-65" x="899.761719"/>
      <use xlink:href="#DejaVuSans-72" x="961.285156"/>
      <use xlink:href="#DejaVuSans-61" x="1002.398438"/>
      <use xlink:href="#DejaVuSans-67" x="1063.677734"/>
      <use xlink:href="#DejaVuSans-65" x="1127.154297"/>
     </g>
    </g>
    <g id="line2d_21">
     <path d="M 804.046 380.087188 
L 818.046 380.087188 
L 832.046 380.087188 
" style="fill: none; stroke-dasharray: 5.55,2.4; stroke-dashoffset: 0; stroke: #ffa500; stroke-width: 1.5"/>
    </g>
    <g id="text_20">
     <!-- Filtered Packets Average -->
     <g transform="translate(843.246 384.987188) scale(0.14 -0.14)">
      <use xlink:href="#DejaVuSans-46"/>
      <use xlink:href="#DejaVuSans-69" x="50.269531"/>
      <use xlink:href="#DejaVuSans-6c" x="78.052734"/>
      <use xlink:href="#DejaVuSans-74" x="105.835938"/>
      <use xlink:href="#DejaVuSans-65" x="145.044922"/>
      <use xlink:href="#DejaVuSans-72" x="206.568359"/>
      <use xlink:href="#DejaVuSans-65" x="245.431641"/>
      <use xlink:href="#DejaVuSans-64" x="306.955078"/>
      <use xlink:href="#DejaVuSans-20" x="370.431641"/>
      <use xlink:href="#DejaVuSans-50" x="402.21875"/>
      <use xlink:href="#DejaVuSans-61" x="458.021484"/>
      <use xlink:href="#DejaVuSans-63" x="519.300781"/>
      <use xlink:href="#DejaVuSans-6b" x="574.28125"/>
      <use xlink:href="#DejaVuSans-65" x="628.566406"/>
      <use xlink:href="#DejaVuSans-74" x="690.089844"/>
      <use xlink:href="#DejaVuSans-73" x="729.298828"/>
      <use xlink:href="#DejaVuSans-20" x="781.398438"/>
      <use xlink:href="#DejaVuSans-41" x="813.185547"/>
      <use xlink:href="#DejaVuSans-76" x="875.71875"/>
      <use xlink:href="#DejaVuSans-65" x="934.898438"/>
      <use xlink:href="#DejaVuSans-72" x="996.421875"/>
      <use xlink:href="#DejaVuSans-61" x="1037.535156"/>
      <use xlink:href="#DejaVuSans-67" x="1098.814453"/>
      <use xlink:href="#DejaVuSans-65" x="1162.291016"/>
     </g>
    </g>
   </g>
  </g>
 </g>
 <defs>
  <clipPath id="pf021e753c5">
   <rect x="93.23" y="60.96" width="698.216" height="578.68"/>
  </clipPath>
 </defs>
</svg>
