<?xml version="1.0" encoding="utf-8" standalone="no"?>
<!DOCTYPE svg PUBLIC "-//W3C//DTD SVG 1.1//EN"
  "http://www.w3.org/Graphics/SVG/1.1/DTD/svg11.dtd">
<svg xmlns:xlink="http://www.w3.org/1999/xlink" width="1008pt" height="720pt" viewBox="0 0 1008 720" xmlns="http://www.w3.org/2000/svg" version="1.1">
 <metadata>
  <rdf:RDF xmlns:dc="http://purl.org/dc/elements/1.1/" xmlns:cc="http://creativecommons.org/ns#" xmlns:rdf="http://www.w3.org/1999/02/22-rdf-syntax-ns#">
   <cc:Work>
    <dc:type rdf:resource="http://purl.org/dc/dcmitype/StillImage"/>
    <dc:date>2023-04-13T18:12:49.943438</dc:date>
    <dc:format>image/svg+xml</dc:format>
    <dc:creator>
     <cc:Agent>
      <dc:title>Matplotlib v3.6.2, https://matplotlib.org/</dc:title>
     </cc:Agent>
    </dc:creator>
   </cc:Work>
  </rdf:RDF>
 </metadata>
 <defs>
  <style type="text/css">*{stroke-linejoin: round; stroke-linecap: butt}</style>
 </defs>
 <g id="figure_1">
  <g id="patch_1">
   <path d="M 0 720 
L 1008 720 
L 1008 0 
L 0 0 
z
" style="fill: #ffffff"/>
  </g>
  <g id="axes_1">
   <g id="patch_2">
    <path d="M 106.91 639.64 
L 794.182 639.64 
L 794.182 60.96 
L 106.91 60.96 
z
" style="fill: #ffffff"/>
   </g>
   <g id="matplotlib.axis_1">
    <g id="xtick_1">
     <g id="line2d_1">
      <defs>
       <path id="mba855c13b8" d="M 0 0 
L 0 3.5 
" style="stroke: #000000; stroke-width: 0.8"/>
      </defs>
      <g>
       <use xlink:href="#mba855c13b8" x="106.91" y="639.64" style="stroke: #000000; stroke-width: 0.8"/>
      </g>
     </g>
     <g id="text_1">
      <!-- 0 -->
      <g transform="translate(102.45625 657.277812) scale(0.14 -0.14)">
       <defs>
        <path id="DejaVuSans-30" d="M 2034 4250 
Q 1547 4250 1301 3770 
Q 1056 3291 1056 2328 
Q 1056 1369 1301 889 
Q 1547 409 2034 409 
Q 2525 409 2770 889 
Q 3016 1369 3016 2328 
Q 3016 3291 2770 3770 
Q 2525 4250 2034 4250 
z
M 2034 4750 
Q 2819 4750 3233 4129 
Q 3647 3509 3647 2328 
Q 3647 1150 3233 529 
Q 2819 -91 2034 -91 
Q 1250 -91 836 529 
Q 422 1150 422 2328 
Q 422 3509 836 4129 
Q 1250 4750 2034 4750 
z
" transform="scale(0.015625)"/>
       </defs>
       <use xlink:href="#DejaVuSans-30"/>
      </g>
     </g>
    </g>
    <g id="xtick_2">
     <g id="line2d_2">
      <g>
       <use xlink:href="#mba855c13b8" x="214.218641" y="639.64" style="stroke: #000000; stroke-width: 0.8"/>
      </g>
     </g>
     <g id="text_2">
      <!-- 10 -->
      <g transform="translate(205.311141 657.277812) scale(0.14 -0.14)">
       <defs>
        <path id="DejaVuSans-31" d="M 794 531 
L 1825 531 
L 1825 4091 
L 703 3866 
L 703 4441 
L 1819 4666 
L 2450 4666 
L 2450 531 
L 3481 531 
L 3481 0 
L 794 0 
L 794 531 
z
" transform="scale(0.015625)"/>
       </defs>
       <use xlink:href="#DejaVuSans-31"/>
       <use xlink:href="#DejaVuSans-30" x="63.623047"/>
      </g>
     </g>
    </g>
    <g id="xtick_3">
     <g id="line2d_3">
      <g>
       <use xlink:href="#mba855c13b8" x="321.527282" y="639.64" style="stroke: #000000; stroke-width: 0.8"/>
      </g>
     </g>
     <g id="text_3">
      <!-- 20 -->
      <g transform="translate(312.619782 657.277812) scale(0.14 -0.14)">
       <defs>
        <path id="DejaVuSans-32" d="M 1228 531 
L 3431 531 
L 3431 0 
L 469 0 
L 469 531 
Q 828 903 1448 1529 
Q 2069 2156 2228 2338 
Q 2531 2678 2651 2914 
Q 2772 3150 2772 3378 
Q 2772 3750 2511 3984 
Q 2250 4219 1831 4219 
Q 1534 4219 1204 4116 
Q 875 4013 500 3803 
L 500 4441 
Q 881 4594 1212 4672 
Q 1544 4750 1819 4750 
Q 2544 4750 2975 4387 
Q 3406 4025 3406 3419 
Q 3406 3131 3298 2873 
Q 3191 2616 2906 2266 
Q 2828 2175 2409 1742 
Q 1991 1309 1228 531 
z
" transform="scale(0.015625)"/>
       </defs>
       <use xlink:href="#DejaVuSans-32"/>
       <use xlink:href="#DejaVuSans-30" x="63.623047"/>
      </g>
     </g>
    </g>
    <g id="xtick_4">
     <g id="line2d_4">
      <g>
       <use xlink:href="#mba855c13b8" x="428.835922" y="639.64" style="stroke: #000000; stroke-width: 0.8"/>
      </g>
     </g>
     <g id="text_4">
      <!-- 30 -->
      <g transform="translate(419.928422 657.277812) scale(0.14 -0.14)">
       <defs>
        <path id="DejaVuSans-33" d="M 2597 2516 
Q 3050 2419 3304 2112 
Q 3559 1806 3559 1356 
Q 3559 666 3084 287 
Q 2609 -91 1734 -91 
Q 1441 -91 1130 -33 
Q 819 25 488 141 
L 488 750 
Q 750 597 1062 519 
Q 1375 441 1716 441 
Q 2309 441 2620 675 
Q 2931 909 2931 1356 
Q 2931 1769 2642 2001 
Q 2353 2234 1838 2234 
L 1294 2234 
L 1294 2753 
L 1863 2753 
Q 2328 2753 2575 2939 
Q 2822 3125 2822 3475 
Q 2822 3834 2567 4026 
Q 2313 4219 1838 4219 
Q 1578 4219 1281 4162 
Q 984 4106 628 3988 
L 628 4550 
Q 988 4650 1302 4700 
Q 1616 4750 1894 4750 
Q 2613 4750 3031 4423 
Q 3450 4097 3450 3541 
Q 3450 3153 3228 2886 
Q 3006 2619 2597 2516 
z
" transform="scale(0.015625)"/>
       </defs>
       <use xlink:href="#DejaVuSans-33"/>
       <use xlink:href="#DejaVuSans-30" x="63.623047"/>
      </g>
     </g>
    </g>
    <g id="xtick_5">
     <g id="line2d_5">
      <g>
       <use xlink:href="#mba855c13b8" x="536.144563" y="639.64" style="stroke: #000000; stroke-width: 0.8"/>
      </g>
     </g>
     <g id="text_5">
      <!-- 40 -->
      <g transform="translate(527.237063 657.277812) scale(0.14 -0.14)">
       <defs>
        <path id="DejaVuSans-34" d="M 2419 4116 
L 825 1625 
L 2419 1625 
L 2419 4116 
z
M 2253 4666 
L 3047 4666 
L 3047 1625 
L 3713 1625 
L 3713 1100 
L 3047 1100 
L 3047 0 
L 2419 0 
L 2419 1100 
L 313 1100 
L 313 1709 
L 2253 4666 
z
" transform="scale(0.015625)"/>
       </defs>
       <use xlink:href="#DejaVuSans-34"/>
       <use xlink:href="#DejaVuSans-30" x="63.623047"/>
      </g>
     </g>
    </g>
    <g id="xtick_6">
     <g id="line2d_6">
      <g>
       <use xlink:href="#mba855c13b8" x="643.453204" y="639.64" style="stroke: #000000; stroke-width: 0.8"/>
      </g>
     </g>
     <g id="text_6">
      <!-- 50 -->
      <g transform="translate(634.545704 657.277812) scale(0.14 -0.14)">
       <defs>
        <path id="DejaVuSans-35" d="M 691 4666 
L 3169 4666 
L 3169 4134 
L 1269 4134 
L 1269 2991 
Q 1406 3038 1543 3061 
Q 1681 3084 1819 3084 
Q 2600 3084 3056 2656 
Q 3513 2228 3513 1497 
Q 3513 744 3044 326 
Q 2575 -91 1722 -91 
Q 1428 -91 1123 -41 
Q 819 9 494 109 
L 494 744 
Q 775 591 1075 516 
Q 1375 441 1709 441 
Q 2250 441 2565 725 
Q 2881 1009 2881 1497 
Q 2881 1984 2565 2268 
Q 2250 2553 1709 2553 
Q 1456 2553 1204 2497 
Q 953 2441 691 2322 
L 691 4666 
z
" transform="scale(0.015625)"/>
       </defs>
       <use xlink:href="#DejaVuSans-35"/>
       <use xlink:href="#DejaVuSans-30" x="63.623047"/>
      </g>
     </g>
    </g>
    <g id="xtick_7">
     <g id="line2d_7">
      <g>
       <use xlink:href="#mba855c13b8" x="750.761845" y="639.64" style="stroke: #000000; stroke-width: 0.8"/>
      </g>
     </g>
     <g id="text_7">
      <!-- 60 -->
      <g transform="translate(741.854345 657.277812) scale(0.14 -0.14)">
       <defs>
        <path id="DejaVuSans-36" d="M 2113 2584 
Q 1688 2584 1439 2293 
Q 1191 2003 1191 1497 
Q 1191 994 1439 701 
Q 1688 409 2113 409 
Q 2538 409 2786 701 
Q 3034 994 3034 1497 
Q 3034 2003 2786 2293 
Q 2538 2584 2113 2584 
z
M 3366 4563 
L 3366 3988 
Q 3128 4100 2886 4159 
Q 2644 4219 2406 4219 
Q 1781 4219 1451 3797 
Q 1122 3375 1075 2522 
Q 1259 2794 1537 2939 
Q 1816 3084 2150 3084 
Q 2853 3084 3261 2657 
Q 3669 2231 3669 1497 
Q 3669 778 3244 343 
Q 2819 -91 2113 -91 
Q 1303 -91 875 529 
Q 447 1150 447 2328 
Q 447 3434 972 4092 
Q 1497 4750 2381 4750 
Q 2619 4750 2861 4703 
Q 3103 4656 3366 4563 
z
" transform="scale(0.015625)"/>
       </defs>
       <use xlink:href="#DejaVuSans-36"/>
       <use xlink:href="#DejaVuSans-30" x="63.623047"/>
      </g>
     </g>
    </g>
    <g id="text_8">
     <!-- Observed Time(s) -->
     <g transform="translate(388.405688 674.827188) scale(0.14 -0.14)">
      <defs>
       <path id="DejaVuSans-4f" d="M 2522 4238 
Q 1834 4238 1429 3725 
Q 1025 3213 1025 2328 
Q 1025 1447 1429 934 
Q 1834 422 2522 422 
Q 3209 422 3611 934 
Q 4013 1447 4013 2328 
Q 4013 3213 3611 3725 
Q 3209 4238 2522 4238 
z
M 2522 4750 
Q 3503 4750 4090 4092 
Q 4678 3434 4678 2328 
Q 4678 1225 4090 567 
Q 3503 -91 2522 -91 
Q 1538 -91 948 565 
Q 359 1222 359 2328 
Q 359 3434 948 4092 
Q 1538 4750 2522 4750 
z
" transform="scale(0.015625)"/>
       <path id="DejaVuSans-62" d="M 3116 1747 
Q 3116 2381 2855 2742 
Q 2594 3103 2138 3103 
Q 1681 3103 1420 2742 
Q 1159 2381 1159 1747 
Q 1159 1113 1420 752 
Q 1681 391 2138 391 
Q 2594 391 2855 752 
Q 3116 1113 3116 1747 
z
M 1159 2969 
Q 1341 3281 1617 3432 
Q 1894 3584 2278 3584 
Q 2916 3584 3314 3078 
Q 3713 2572 3713 1747 
Q 3713 922 3314 415 
Q 2916 -91 2278 -91 
Q 1894 -91 1617 61 
Q 1341 213 1159 525 
L 1159 0 
L 581 0 
L 581 4863 
L 1159 4863 
L 1159 2969 
z
" transform="scale(0.015625)"/>
       <path id="DejaVuSans-73" d="M 2834 3397 
L 2834 2853 
Q 2591 2978 2328 3040 
Q 2066 3103 1784 3103 
Q 1356 3103 1142 2972 
Q 928 2841 928 2578 
Q 928 2378 1081 2264 
Q 1234 2150 1697 2047 
L 1894 2003 
Q 2506 1872 2764 1633 
Q 3022 1394 3022 966 
Q 3022 478 2636 193 
Q 2250 -91 1575 -91 
Q 1294 -91 989 -36 
Q 684 19 347 128 
L 347 722 
Q 666 556 975 473 
Q 1284 391 1588 391 
Q 1994 391 2212 530 
Q 2431 669 2431 922 
Q 2431 1156 2273 1281 
Q 2116 1406 1581 1522 
L 1381 1569 
Q 847 1681 609 1914 
Q 372 2147 372 2553 
Q 372 3047 722 3315 
Q 1072 3584 1716 3584 
Q 2034 3584 2315 3537 
Q 2597 3491 2834 3397 
z
" transform="scale(0.015625)"/>
       <path id="DejaVuSans-65" d="M 3597 1894 
L 3597 1613 
L 953 1613 
Q 991 1019 1311 708 
Q 1631 397 2203 397 
Q 2534 397 2845 478 
Q 3156 559 3463 722 
L 3463 178 
Q 3153 47 2828 -22 
Q 2503 -91 2169 -91 
Q 1331 -91 842 396 
Q 353 884 353 1716 
Q 353 2575 817 3079 
Q 1281 3584 2069 3584 
Q 2775 3584 3186 3129 
Q 3597 2675 3597 1894 
z
M 3022 2063 
Q 3016 2534 2758 2815 
Q 2500 3097 2075 3097 
Q 1594 3097 1305 2825 
Q 1016 2553 972 2059 
L 3022 2063 
z
" transform="scale(0.015625)"/>
       <path id="DejaVuSans-72" d="M 2631 2963 
Q 2534 3019 2420 3045 
Q 2306 3072 2169 3072 
Q 1681 3072 1420 2755 
Q 1159 2438 1159 1844 
L 1159 0 
L 581 0 
L 581 3500 
L 1159 3500 
L 1159 2956 
Q 1341 3275 1631 3429 
Q 1922 3584 2338 3584 
Q 2397 3584 2469 3576 
Q 2541 3569 2628 3553 
L 2631 2963 
z
" transform="scale(0.015625)"/>
       <path id="DejaVuSans-76" d="M 191 3500 
L 800 3500 
L 1894 563 
L 2988 3500 
L 3597 3500 
L 2284 0 
L 1503 0 
L 191 3500 
z
" transform="scale(0.015625)"/>
       <path id="DejaVuSans-64" d="M 2906 2969 
L 2906 4863 
L 3481 4863 
L 3481 0 
L 2906 0 
L 2906 525 
Q 2725 213 2448 61 
Q 2172 -91 1784 -91 
Q 1150 -91 751 415 
Q 353 922 353 1747 
Q 353 2572 751 3078 
Q 1150 3584 1784 3584 
Q 2172 3584 2448 3432 
Q 2725 3281 2906 2969 
z
M 947 1747 
Q 947 1113 1208 752 
Q 1469 391 1925 391 
Q 2381 391 2643 752 
Q 2906 1113 2906 1747 
Q 2906 2381 2643 2742 
Q 2381 3103 1925 3103 
Q 1469 3103 1208 2742 
Q 947 2381 947 1747 
z
" transform="scale(0.015625)"/>
       <path id="DejaVuSans-20" transform="scale(0.015625)"/>
       <path id="DejaVuSans-54" d="M -19 4666 
L 3928 4666 
L 3928 4134 
L 2272 4134 
L 2272 0 
L 1638 0 
L 1638 4134 
L -19 4134 
L -19 4666 
z
" transform="scale(0.015625)"/>
       <path id="DejaVuSans-69" d="M 603 3500 
L 1178 3500 
L 1178 0 
L 603 0 
L 603 3500 
z
M 603 4863 
L 1178 4863 
L 1178 4134 
L 603 4134 
L 603 4863 
z
" transform="scale(0.015625)"/>
       <path id="DejaVuSans-6d" d="M 3328 2828 
Q 3544 3216 3844 3400 
Q 4144 3584 4550 3584 
Q 5097 3584 5394 3201 
Q 5691 2819 5691 2113 
L 5691 0 
L 5113 0 
L 5113 2094 
Q 5113 2597 4934 2840 
Q 4756 3084 4391 3084 
Q 3944 3084 3684 2787 
Q 3425 2491 3425 1978 
L 3425 0 
L 2847 0 
L 2847 2094 
Q 2847 2600 2669 2842 
Q 2491 3084 2119 3084 
Q 1678 3084 1418 2786 
Q 1159 2488 1159 1978 
L 1159 0 
L 581 0 
L 581 3500 
L 1159 3500 
L 1159 2956 
Q 1356 3278 1631 3431 
Q 1906 3584 2284 3584 
Q 2666 3584 2933 3390 
Q 3200 3197 3328 2828 
z
" transform="scale(0.015625)"/>
       <path id="DejaVuSans-28" d="M 1984 4856 
Q 1566 4138 1362 3434 
Q 1159 2731 1159 2009 
Q 1159 1288 1364 580 
Q 1569 -128 1984 -844 
L 1484 -844 
Q 1016 -109 783 600 
Q 550 1309 550 2009 
Q 550 2706 781 3412 
Q 1013 4119 1484 4856 
L 1984 4856 
z
" transform="scale(0.015625)"/>
       <path id="DejaVuSans-29" d="M 513 4856 
L 1013 4856 
Q 1481 4119 1714 3412 
Q 1947 2706 1947 2009 
Q 1947 1309 1714 600 
Q 1481 -109 1013 -844 
L 513 -844 
Q 928 -128 1133 580 
Q 1338 1288 1338 2009 
Q 1338 2731 1133 3434 
Q 928 4138 513 4856 
z
" transform="scale(0.015625)"/>
      </defs>
      <use xlink:href="#DejaVuSans-4f"/>
      <use xlink:href="#DejaVuSans-62" x="78.710938"/>
      <use xlink:href="#DejaVuSans-73" x="142.1875"/>
      <use xlink:href="#DejaVuSans-65" x="194.287109"/>
      <use xlink:href="#DejaVuSans-72" x="255.810547"/>
      <use xlink:href="#DejaVuSans-76" x="296.923828"/>
      <use xlink:href="#DejaVuSans-65" x="356.103516"/>
      <use xlink:href="#DejaVuSans-64" x="417.626953"/>
      <use xlink:href="#DejaVuSans-20" x="481.103516"/>
      <use xlink:href="#DejaVuSans-54" x="512.890625"/>
      <use xlink:href="#DejaVuSans-69" x="570.849609"/>
      <use xlink:href="#DejaVuSans-6d" x="598.632812"/>
      <use xlink:href="#DejaVuSans-65" x="696.044922"/>
      <use xlink:href="#DejaVuSans-28" x="757.568359"/>
      <use xlink:href="#DejaVuSans-73" x="796.582031"/>
      <use xlink:href="#DejaVuSans-29" x="848.681641"/>
     </g>
    </g>
   </g>
   <g id="matplotlib.axis_2">
    <g id="ytick_1">
     <g id="line2d_8">
      <defs>
       <path id="m76afee0e02" d="M 0 0 
L -3.5 0 
" style="stroke: #000000; stroke-width: 0.8"/>
      </defs>
      <g>
       <use xlink:href="#m76afee0e02" x="106.91" y="639.64" style="stroke: #000000; stroke-width: 0.8"/>
      </g>
     </g>
     <g id="text_9">
      <!-- 0 -->
      <g transform="translate(91.0025 644.958906) scale(0.14 -0.14)">
       <use xlink:href="#DejaVuSans-30"/>
      </g>
     </g>
    </g>
    <g id="ytick_2">
     <g id="line2d_9">
      <g>
       <use xlink:href="#m76afee0e02" x="106.91" y="552.993901" style="stroke: #000000; stroke-width: 0.8"/>
      </g>
     </g>
     <g id="text_10">
      <!-- 5 -->
      <g transform="translate(91.0025 558.312807) scale(0.14 -0.14)">
       <use xlink:href="#DejaVuSans-35"/>
      </g>
     </g>
    </g>
    <g id="ytick_3">
     <g id="line2d_10">
      <g>
       <use xlink:href="#m76afee0e02" x="106.91" y="466.347801" style="stroke: #000000; stroke-width: 0.8"/>
      </g>
     </g>
     <g id="text_11">
      <!-- 10 -->
      <g transform="translate(82.095 471.666707) scale(0.14 -0.14)">
       <use xlink:href="#DejaVuSans-31"/>
       <use xlink:href="#DejaVuSans-30" x="63.623047"/>
      </g>
     </g>
    </g>
    <g id="ytick_4">
     <g id="line2d_11">
      <g>
       <use xlink:href="#m76afee0e02" x="106.91" y="379.701702" style="stroke: #000000; stroke-width: 0.8"/>
      </g>
     </g>
     <g id="text_12">
      <!-- 15 -->
      <g transform="translate(82.095 385.020608) scale(0.14 -0.14)">
       <use xlink:href="#DejaVuSans-31"/>
       <use xlink:href="#DejaVuSans-35" x="63.623047"/>
      </g>
     </g>
    </g>
    <g id="ytick_5">
     <g id="line2d_12">
      <g>
       <use xlink:href="#m76afee0e02" x="106.91" y="293.055602" style="stroke: #000000; stroke-width: 0.8"/>
      </g>
     </g>
     <g id="text_13">
      <!-- 20 -->
      <g transform="translate(82.095 298.374508) scale(0.14 -0.14)">
       <use xlink:href="#DejaVuSans-32"/>
       <use xlink:href="#DejaVuSans-30" x="63.623047"/>
      </g>
     </g>
    </g>
    <g id="ytick_6">
     <g id="line2d_13">
      <g>
       <use xlink:href="#m76afee0e02" x="106.91" y="206.409503" style="stroke: #000000; stroke-width: 0.8"/>
      </g>
     </g>
     <g id="text_14">
      <!-- 25 -->
      <g transform="translate(82.095 211.728409) scale(0.14 -0.14)">
       <use xlink:href="#DejaVuSans-32"/>
       <use xlink:href="#DejaVuSans-35" x="63.623047"/>
      </g>
     </g>
    </g>
    <g id="ytick_7">
     <g id="line2d_14">
      <g>
       <use xlink:href="#m76afee0e02" x="106.91" y="119.763403" style="stroke: #000000; stroke-width: 0.8"/>
      </g>
     </g>
     <g id="text_15">
      <!-- 30 -->
      <g transform="translate(82.095 125.082309) scale(0.14 -0.14)">
       <use xlink:href="#DejaVuSans-33"/>
       <use xlink:href="#DejaVuSans-30" x="63.623047"/>
      </g>
     </g>
    </g>
    <g id="text_16">
     <!-- Interarrival Time (ms) -->
     <g transform="translate(75.183438 426.478594) rotate(-90) scale(0.14 -0.14)">
      <defs>
       <path id="DejaVuSans-49" d="M 628 4666 
L 1259 4666 
L 1259 0 
L 628 0 
L 628 4666 
z
" transform="scale(0.015625)"/>
       <path id="DejaVuSans-6e" d="M 3513 2113 
L 3513 0 
L 2938 0 
L 2938 2094 
Q 2938 2591 2744 2837 
Q 2550 3084 2163 3084 
Q 1697 3084 1428 2787 
Q 1159 2491 1159 1978 
L 1159 0 
L 581 0 
L 581 3500 
L 1159 3500 
L 1159 2956 
Q 1366 3272 1645 3428 
Q 1925 3584 2291 3584 
Q 2894 3584 3203 3211 
Q 3513 2838 3513 2113 
z
" transform="scale(0.015625)"/>
       <path id="DejaVuSans-74" d="M 1172 4494 
L 1172 3500 
L 2356 3500 
L 2356 3053 
L 1172 3053 
L 1172 1153 
Q 1172 725 1289 603 
Q 1406 481 1766 481 
L 2356 481 
L 2356 0 
L 1766 0 
Q 1100 0 847 248 
Q 594 497 594 1153 
L 594 3053 
L 172 3053 
L 172 3500 
L 594 3500 
L 594 4494 
L 1172 4494 
z
" transform="scale(0.015625)"/>
       <path id="DejaVuSans-61" d="M 2194 1759 
Q 1497 1759 1228 1600 
Q 959 1441 959 1056 
Q 959 750 1161 570 
Q 1363 391 1709 391 
Q 2188 391 2477 730 
Q 2766 1069 2766 1631 
L 2766 1759 
L 2194 1759 
z
M 3341 1997 
L 3341 0 
L 2766 0 
L 2766 531 
Q 2569 213 2275 61 
Q 1981 -91 1556 -91 
Q 1019 -91 701 211 
Q 384 513 384 1019 
Q 384 1609 779 1909 
Q 1175 2209 1959 2209 
L 2766 2209 
L 2766 2266 
Q 2766 2663 2505 2880 
Q 2244 3097 1772 3097 
Q 1472 3097 1187 3025 
Q 903 2953 641 2809 
L 641 3341 
Q 956 3463 1253 3523 
Q 1550 3584 1831 3584 
Q 2591 3584 2966 3190 
Q 3341 2797 3341 1997 
z
" transform="scale(0.015625)"/>
       <path id="DejaVuSans-6c" d="M 603 4863 
L 1178 4863 
L 1178 0 
L 603 0 
L 603 4863 
z
" transform="scale(0.015625)"/>
      </defs>
      <use xlink:href="#DejaVuSans-49"/>
      <use xlink:href="#DejaVuSans-6e" x="29.492188"/>
      <use xlink:href="#DejaVuSans-74" x="92.871094"/>
      <use xlink:href="#DejaVuSans-65" x="132.080078"/>
      <use xlink:href="#DejaVuSans-72" x="193.603516"/>
      <use xlink:href="#DejaVuSans-61" x="234.716797"/>
      <use xlink:href="#DejaVuSans-72" x="295.996094"/>
      <use xlink:href="#DejaVuSans-72" x="335.359375"/>
      <use xlink:href="#DejaVuSans-69" x="376.472656"/>
      <use xlink:href="#DejaVuSans-76" x="404.255859"/>
      <use xlink:href="#DejaVuSans-61" x="463.435547"/>
      <use xlink:href="#DejaVuSans-6c" x="524.714844"/>
      <use xlink:href="#DejaVuSans-20" x="552.498047"/>
      <use xlink:href="#DejaVuSans-54" x="584.285156"/>
      <use xlink:href="#DejaVuSans-69" x="642.244141"/>
      <use xlink:href="#DejaVuSans-6d" x="670.027344"/>
      <use xlink:href="#DejaVuSans-65" x="767.439453"/>
      <use xlink:href="#DejaVuSans-20" x="828.962891"/>
      <use xlink:href="#DejaVuSans-28" x="860.75"/>
      <use xlink:href="#DejaVuSans-6d" x="899.763672"/>
      <use xlink:href="#DejaVuSans-73" x="997.175781"/>
      <use xlink:href="#DejaVuSans-29" x="1049.275391"/>
     </g>
    </g>
   </g>
   <g id="line2d_15">
    <path d="M 106.91 61.037294 
L 107.268291 61.270389 
L 108.342676 61.334854 
L 109.058914 61.308756 
L 110.133239 61.340243 
L 112.281988 61.310801 
L 112.64011 61.639952 
L 112.998028 61.016949 
L 113.356332 61.30172 
L 114.788777 61.337903 
L 115.863128 61.352911 
L 117.295439 61.399474 
L 120.16004 61.347279 
L 120.876204 61.382006 
L 133.408138 61.440475 
L 133.766179 61.393236 
L 134.482249 61.515857 
L 135.556332 61.431031 
L 136.630442 61.439817 
L 148.444849 61.515979 
L 149.518782 61.791998 
L 149.876606 61.297232 
L 150.592779 61.688456 
L 150.950667 61.538437 
L 152.024612 61.516169 
L 153.098557 61.553756 
L 153.814511 61.440319 
L 154.172552 61.665946 
L 154.888424 61.540569 
L 155.604399 61.50319 
L 155.962402 61.600112 
L 157.394274 61.518873 
L 158.468209 61.627371 
L 158.826134 61.523915 
L 159.900042 61.571259 
L 161.331857 61.618498 
L 162.047757 61.573078 
L 164.911389 61.589662 
L 166.34322 61.576406 
L 167.059104 61.591551 
L 168.132988 61.411466 
L 168.491048 61.951704 
L 168.848773 61.362164 
L 169.206863 61.641719 
L 170.280662 61.613889 
L 170.996557 61.606021 
L 172.070361 61.688266 
L 172.786196 61.567689 
L 174.575903 61.737793 
L 174.93376 61.46841 
L 175.291785 61.638843 
L 179.586939 61.574586 
L 179.944898 61.656415 
L 180.66074 61.659811 
L 181.018646 61.645411 
L 181.376561 61.504992 
L 181.734562 61.73982 
L 182.45032 61.629901 
L 182.808244 61.697814 
L 183.524052 61.60992 
L 184.597813 61.790872 
L 184.955637 61.509965 
L 185.313636 61.648859 
L 186.029484 61.611376 
L 186.745313 61.651632 
L 190.682361 61.696549 
L 191.398167 61.674333 
L 191.756064 61.702718 
L 192.113943 61.572888 
L 192.471903 61.684471 
L 195.692981 61.674194 
L 197.840362 61.675789 
L 199.629871 61.669273 
L 205.714027 61.648166 
L 206.07194 61.828008 
L 206.429741 61.396355 
L 206.78781 61.722491 
L 207.145677 61.649154 
L 207.861469 61.696913 
L 209.293004 61.69447 
L 217.166381 61.859253 
L 217.524163 61.600597 
L 217.882105 61.714311 
L 227.903632 61.584377 
L 228.97748 61.596733 
L 229.693396 61.558141 
L 231.125209 61.591101 
L 238.999994 61.641373 
L 239.357911 61.494421 
L 239.715919 61.691177 
L 240.431752 61.561849 
L 241.14765 61.616557 
L 250.453885 61.597097 
L 250.811829 61.951202 
L 251.169555 61.294303 
L 251.527687 61.596144 
L 252.959399 61.638964 
L 253.675273 61.588501 
L 257.612511 61.645133 
L 257.970425 61.535214 
L 258.328408 61.63737 
L 260.11803 61.5427 
L 260.476008 61.886495 
L 260.833773 61.439695 
L 261.191815 61.653434 
L 261.549725 61.613802 
L 261.907659 61.926698 
L 262.2654 61.310818 
L 262.623521 61.622692 
L 265.486917 61.652637 
L 267.992359 61.544918 
L 268.350336 61.789867 
L 268.708161 61.625551 
L 283.382615 61.630923 
L 283.740539 61.92455 
L 284.09828 61.355163 
L 284.456375 61.663104 
L 300.561937 61.65586 
L 300.919846 61.468895 
L 301.27787 61.902247 
L 301.635625 61.639085 
L 302.709361 61.67636 
L 304.498844 61.686914 
L 306.288312 61.63815 
L 307.004107 61.683188 
L 307.719884 61.694192 
L 308.077769 61.866739 
L 308.435546 61.467855 
L 308.793571 61.674541 
L 309.151467 61.500556 
L 309.509472 61.885178 
L 310.225114 61.428518 
L 310.583163 61.88088 
L 311.298784 61.669897 
L 314.161895 61.674541 
L 314.877724 61.659603 
L 316.309313 61.713584 
L 317.025083 61.646294 
L 317.382997 61.720013 
L 317.740866 61.644267 
L 318.098781 61.69544 
L 318.456665 61.4834 
L 318.81468 61.884727 
L 319.172446 61.702753 
L 320.603998 61.676534 
L 321.319771 61.688058 
L 321.677659 61.526497 
L 322.035648 61.82858 
L 322.751324 61.703793 
L 323.824992 61.686498 
L 324.898627 61.728643 
L 325.25649 61.50033 
L 325.614495 61.841265 
L 325.972288 61.6787 
L 327.761722 61.669966 
L 329.551141 61.687035 
L 329.90903 61.744776 
L 330.266883 61.651406 
L 332.056317 61.714311 
L 334.203624 61.710915 
L 334.561498 61.803245 
L 334.919315 61.580721 
L 335.635113 61.986865 
L 335.992816 61.422574 
L 336.350869 61.704416 
L 338.856021 61.68811 
L 339.213909 61.625828 
L 339.929714 61.723496 
L 341.361193 61.680138 
L 343.150566 61.730688 
L 343.866333 61.691662 
L 344.939983 61.729353 
L 345.655748 61.692165 
L 347.087245 61.723409 
L 348.160891 61.709962 
L 349.234504 61.720619 
L 349.95025 61.665703 
L 350.308152 61.513604 
L 350.666148 61.915226 
L 351.023896 61.71672 
L 353.529026 61.710464 
L 353.886901 61.760632 
L 354.602632 61.677539 
L 355.318384 61.687763 
L 356.391996 61.710707 
L 364.265227 61.621531 
L 364.623156 61.893825 
L 364.980917 61.685025 
L 367.843884 61.726927 
L 369.991097 61.681906 
L 370.348989 61.775397 
L 371.78043 61.680849 
L 372.496168 61.790231 
L 373.211861 61.736458 
L 375.359036 61.737983 
L 375.716893 61.829048 
L 376.074694 61.600753 
L 376.790524 61.731519 
L 377.506265 61.76642 
L 378.221931 61.727187 
L 378.579795 61.712007 
L 378.937668 62.0209 
L 379.29535 61.431689 
L 379.653397 61.751604 
L 381.442712 61.729631 
L 386.094905 61.795672 
L 387.168465 61.685632 
L 387.88421 61.739144 
L 391.104949 61.758709 
L 392.894203 61.742367 
L 393.967794 61.704694 
L 394.683511 61.755711 
L 395.041357 61.614235 
L 395.399291 61.882873 
L 396.11492 61.471183 
L 396.472942 61.979882 
L 396.83065 61.773283 
L 397.546364 61.736649 
L 397.904222 61.745729 
L 398.262074 61.499377 
L 398.620079 61.977092 
L 398.977789 61.764532 
L 401.482783 61.720671 
L 401.840651 61.791167 
L 402.556344 61.701817 
L 403.272062 61.75987 
L 404.703494 61.725575 
L 406.492764 61.726355 
L 409.355598 61.734725 
L 410.786974 61.748987 
L 411.860557 61.733634 
L 416.512658 61.786834 
L 416.870485 61.607148 
L 417.228424 61.911778 
L 417.586173 61.85324 
L 417.943959 61.636451 
L 418.659753 61.764566 
L 420.80684 61.746977 
L 426.890245 61.863117 
L 427.248024 61.621964 
L 427.605954 61.775622 
L 433.689342 61.733564 
L 434.047202 61.822723 
L 434.762853 61.768015 
L 436.552093 61.73249 
L 437.267787 61.727638 
L 446.92964 61.746475 
L 447.645305 61.775536 
L 449.076685 61.718557 
L 450.15023 61.882318 
L 450.507998 61.651285 
L 451.581619 61.785188 
L 453.370806 61.76597 
L 461.601127 61.686463 
L 461.959017 61.598292 
L 462.31696 61.964649 
L 462.674677 61.770112 
L 464.106054 61.769089 
L 464.821707 61.76039 
L 465.17955 61.684505 
L 465.537441 61.821666 
L 466.253089 61.704676 
L 466.610967 61.836812 
L 467.32661 61.776211 
L 468.400148 61.65865 
L 468.758054 61.92124 
L 469.473647 61.634198 
L 469.831569 61.792293 
L 470.189392 61.723461 
L 470.905092 61.782259 
L 473.767749 61.762261 
L 474.483412 61.743043 
L 485.576313 61.897256 
L 485.934072 61.61985 
L 487.007697 61.791392 
L 488.0812 61.724674 
L 489.15473 61.763821 
L 491.659565 61.766005 
L 497.742735 61.784529 
L 498.100564 61.642465 
L 498.45848 61.950578 
L 498.816206 61.774461 
L 503.467995 61.738936 
L 503.825851 61.850173 
L 504.541468 61.759108 
L 506.688459 61.780821 
L 511.340309 61.639103 
L 511.698227 61.950803 
L 512.055953 61.759853 
L 513.487261 61.795378 
L 514.202938 61.774842 
L 517.065598 61.818027 
L 517.423405 62.076094 
L 517.781053 61.396961 
L 518.496957 62.122397 
L 518.854577 61.451722 
L 519.212611 62.154335 
L 519.570211 61.422106 
L 519.928264 61.777615 
L 520.64393 61.71497 
L 521.001801 62.155929 
L 521.3594 61.450682 
L 521.717435 62.101048 
L 522.432876 61.541764 
L 522.790855 61.760407 
L 523.506544 61.827159 
L 523.864346 62.067013 
L 524.221999 61.772572 
L 524.579835 61.804441 
L 524.937652 61.532043 
L 525.295636 61.741934 
L 525.653491 61.804701 
L 526.011307 61.752973 
L 526.369155 62.080166 
L 526.726801 61.787614 
L 527.442464 61.767183 
L 527.800303 61.56301 
L 528.158269 62.002011 
L 528.515963 61.518058 
L 529.231781 62.039616 
L 529.589451 61.512079 
L 529.947448 61.750252 
L 530.305298 61.830296 
L 530.663098 61.746319 
L 531.02095 61.918086 
L 531.378696 61.618134 
L 531.736628 62.036912 
L 532.0943 61.798012 
L 532.45212 61.808842 
L 532.809934 61.534036 
L 533.167917 61.795689 
L 533.883574 61.76467 
L 534.241415 62.014488 
L 534.956925 61.53816 
L 535.314906 62.038403 
L 535.672578 61.564518 
L 536.030542 61.757461 
L 536.388388 61.706981 
L 536.746264 61.808998 
L 538.177559 61.772174 
L 538.893201 61.769921 
L 541.040177 61.8339 
L 542.47145 61.611497 
L 542.829385 61.923614 
L 543.187128 61.797561 
L 550.343625 61.812256 
L 551.417087 61.794615 
L 552.132703 61.795568 
L 553.564019 61.78044 
L 554.279697 61.789936 
L 554.995314 61.787683 
L 564.65653 61.761239 
L 565.014373 61.847452 
L 565.372162 61.764237 
L 566.445647 61.786852 
L 574.317754 61.801633 
L 574.675571 62.001699 
L 575.033265 61.546201 
L 575.391242 61.730532 
L 575.749103 61.751223 
L 576.106953 61.934635 
L 576.464688 61.796175 
L 590.061922 61.792466 
L 590.777596 61.771914 
L 592.208883 61.80685 
L 592.92455 61.777546 
L 593.998007 61.805584 
L 595.787066 61.805342 
L 596.860541 61.771082 
L 597.218378 61.845736 
L 597.933997 61.787961 
L 600.080923 61.848717 
L 600.438712 61.691541 
L 600.796598 61.93694 
L 601.154332 61.773058 
L 603.301245 61.800316 
L 604.374734 61.798549 
L 605.448204 61.914689 
L 605.805952 61.790664 
L 607.952902 61.873012 
L 608.310676 61.566199 
L 608.668639 61.98054 
L 609.026346 61.788637 
L 610.099788 61.785847 
L 614.751449 61.791652 
L 615.467116 61.824092 
L 616.182698 61.959901 
L 616.540418 61.659465 
L 616.898324 61.784789 
L 617.256152 61.734275 
L 617.614012 61.874312 
L 618.3296 61.796487 
L 619.045218 61.817334 
L 619.403026 61.721399 
L 620.118712 61.838493 
L 621.549932 61.774704 
L 622.265576 61.83144 
L 622.981214 61.809813 
L 628.706316 61.812239 
L 629.064127 61.750426 
L 629.421976 61.897568 
L 630.137564 61.779123 
L 631.211011 61.817074 
L 632.642271 61.760875 
L 633.000114 61.82858 
L 633.71575 61.822082 
L 639.082966 61.729163 
L 639.440828 61.868386 
L 639.798605 61.787787 
L 640.156431 61.875161 
L 640.872025 61.757323 
L 642.661143 61.83721 
L 643.376768 61.796764 
L 643.734589 61.835824 
L 644.092385 61.762001 
L 644.80804 61.823364 
L 645.523674 61.827003 
L 648.38618 61.798878 
L 649.459602 61.789919 
L 657.68936 61.925468 
L 658.047101 61.664473 
L 658.405004 61.809795 
L 658.762816 62.099644 
L 659.12045 61.510728 
L 659.478448 61.844281 
L 660.909684 61.7916 
L 662.340905 61.819777 
L 663.056554 61.795308 
L 664.129997 61.858837 
L 664.845609 61.777269 
L 668.42377 61.813591 
L 668.78158 61.748901 
L 669.497244 61.855042 
L 670.212854 61.817351 
L 672.001884 61.80302 
L 674.506598 61.821597 
L 674.864404 61.862702 
L 675.580016 61.721209 
L 675.937884 61.909612 
L 676.295635 61.763856 
L 677.369101 61.861038 
L 678.800327 61.814856 
L 681.305026 61.810281 
L 681.662838 61.761222 
L 682.020681 61.849185 
L 682.37847 61.76344 
L 683.094117 61.804631 
L 685.598821 61.836136 
L 687.38791 61.791582 
L 689.176951 61.801685 
L 690.250421 61.613698 
L 690.608355 61.999291 
L 690.966051 61.817143 
L 692.397317 61.80659 
L 694.186394 61.818547 
L 701.342655 61.794269 
L 701.700478 61.886616 
L 702.058243 61.775674 
L 702.416077 62.087427 
L 702.773718 61.518925 
L 703.131711 61.827697 
L 705.278561 61.804267 
L 705.636377 61.683587 
L 705.994268 61.921014 
L 706.709808 61.787649 
L 707.783264 61.830279 
L 714.223887 61.815965 
L 714.939483 61.820522 
L 717.086363 61.800143 
L 717.444182 61.843605 
L 717.801974 61.724414 
L 718.159839 61.84591 
L 720.664484 61.803696 
L 721.380089 61.80964 
L 732.829998 61.745071 
L 733.187851 61.867259 
L 746.784622 61.824248 
L 747.142426 61.955257 
L 747.500149 61.740236 
L 749.289299 61.844645 
L 750.362684 61.816242 
L 752.867347 61.779313 
L 753.582968 61.813608 
L 754.656416 61.789416 
L 755.014241 61.895922 
L 755.729819 61.798722 
L 757.518891 61.837696 
L 761.454762 61.7999 
L 761.454762 61.7999 
" clip-path="url(#p1abfa73852)" style="fill: none; stroke: #1f77b4; stroke-width: 1.5; stroke-linecap: square"/>
   </g>
   <g id="line2d_16">
    <path d="M 106.91 61.717064 
L 794.182 61.717064 
" clip-path="url(#p1abfa73852)" style="fill: none; stroke-dasharray: 5.55,2.4; stroke-dashoffset: 0; stroke: #0000ff; stroke-width: 1.5"/>
   </g>
   <g id="patch_3">
    <path d="M 106.91 639.64 
L 106.91 60.96 
" style="fill: none; stroke: #000000; stroke-width: 0.8; stroke-linejoin: miter; stroke-linecap: square"/>
   </g>
   <g id="patch_4">
    <path d="M 794.182 639.64 
L 794.182 60.96 
" style="fill: none; stroke: #000000; stroke-width: 0.8; stroke-linejoin: miter; stroke-linecap: square"/>
   </g>
   <g id="patch_5">
    <path d="M 106.91 639.64 
L 794.182 639.64 
" style="fill: none; stroke: #000000; stroke-width: 0.8; stroke-linejoin: miter; stroke-linecap: square"/>
   </g>
   <g id="patch_6">
    <path d="M 106.91 60.96 
L 794.182 60.96 
" style="fill: none; stroke: #000000; stroke-width: 0.8; stroke-linejoin: miter; stroke-linecap: square"/>
   </g>
   <g id="text_17">
    <!-- Interarrival Time (SelectionProcess: 16777217) -->
    <g transform="translate(252.861188 54.96) scale(0.168 -0.168)">
     <defs>
      <path id="DejaVuSans-53" d="M 3425 4513 
L 3425 3897 
Q 3066 4069 2747 4153 
Q 2428 4238 2131 4238 
Q 1616 4238 1336 4038 
Q 1056 3838 1056 3469 
Q 1056 3159 1242 3001 
Q 1428 2844 1947 2747 
L 2328 2669 
Q 3034 2534 3370 2195 
Q 3706 1856 3706 1288 
Q 3706 609 3251 259 
Q 2797 -91 1919 -91 
Q 1588 -91 1214 -16 
Q 841 59 441 206 
L 441 856 
Q 825 641 1194 531 
Q 1563 422 1919 422 
Q 2459 422 2753 634 
Q 3047 847 3047 1241 
Q 3047 1584 2836 1778 
Q 2625 1972 2144 2069 
L 1759 2144 
Q 1053 2284 737 2584 
Q 422 2884 422 3419 
Q 422 4038 858 4394 
Q 1294 4750 2059 4750 
Q 2388 4750 2728 4690 
Q 3069 4631 3425 4513 
z
" transform="scale(0.015625)"/>
      <path id="DejaVuSans-63" d="M 3122 3366 
L 3122 2828 
Q 2878 2963 2633 3030 
Q 2388 3097 2138 3097 
Q 1578 3097 1268 2742 
Q 959 2388 959 1747 
Q 959 1106 1268 751 
Q 1578 397 2138 397 
Q 2388 397 2633 464 
Q 2878 531 3122 666 
L 3122 134 
Q 2881 22 2623 -34 
Q 2366 -91 2075 -91 
Q 1284 -91 818 406 
Q 353 903 353 1747 
Q 353 2603 823 3093 
Q 1294 3584 2113 3584 
Q 2378 3584 2631 3529 
Q 2884 3475 3122 3366 
z
" transform="scale(0.015625)"/>
      <path id="DejaVuSans-6f" d="M 1959 3097 
Q 1497 3097 1228 2736 
Q 959 2375 959 1747 
Q 959 1119 1226 758 
Q 1494 397 1959 397 
Q 2419 397 2687 759 
Q 2956 1122 2956 1747 
Q 2956 2369 2687 2733 
Q 2419 3097 1959 3097 
z
M 1959 3584 
Q 2709 3584 3137 3096 
Q 3566 2609 3566 1747 
Q 3566 888 3137 398 
Q 2709 -91 1959 -91 
Q 1206 -91 779 398 
Q 353 888 353 1747 
Q 353 2609 779 3096 
Q 1206 3584 1959 3584 
z
" transform="scale(0.015625)"/>
      <path id="DejaVuSans-50" d="M 1259 4147 
L 1259 2394 
L 2053 2394 
Q 2494 2394 2734 2622 
Q 2975 2850 2975 3272 
Q 2975 3691 2734 3919 
Q 2494 4147 2053 4147 
L 1259 4147 
z
M 628 4666 
L 2053 4666 
Q 2838 4666 3239 4311 
Q 3641 3956 3641 3272 
Q 3641 2581 3239 2228 
Q 2838 1875 2053 1875 
L 1259 1875 
L 1259 0 
L 628 0 
L 628 4666 
z
" transform="scale(0.015625)"/>
      <path id="DejaVuSans-3a" d="M 750 794 
L 1409 794 
L 1409 0 
L 750 0 
L 750 794 
z
M 750 3309 
L 1409 3309 
L 1409 2516 
L 750 2516 
L 750 3309 
z
" transform="scale(0.015625)"/>
      <path id="DejaVuSans-37" d="M 525 4666 
L 3525 4666 
L 3525 4397 
L 1831 0 
L 1172 0 
L 2766 4134 
L 525 4134 
L 525 4666 
z
" transform="scale(0.015625)"/>
     </defs>
     <use xlink:href="#DejaVuSans-49"/>
     <use xlink:href="#DejaVuSans-6e" x="29.492188"/>
     <use xlink:href="#DejaVuSans-74" x="92.871094"/>
     <use xlink:href="#DejaVuSans-65" x="132.080078"/>
     <use xlink:href="#DejaVuSans-72" x="193.603516"/>
     <use xlink:href="#DejaVuSans-61" x="234.716797"/>
     <use xlink:href="#DejaVuSans-72" x="295.996094"/>
     <use xlink:href="#DejaVuSans-72" x="335.359375"/>
     <use xlink:href="#DejaVuSans-69" x="376.472656"/>
     <use xlink:href="#DejaVuSans-76" x="404.255859"/>
     <use xlink:href="#DejaVuSans-61" x="463.435547"/>
     <use xlink:href="#DejaVuSans-6c" x="524.714844"/>
     <use xlink:href="#DejaVuSans-20" x="552.498047"/>
     <use xlink:href="#DejaVuSans-54" x="584.285156"/>
     <use xlink:href="#DejaVuSans-69" x="642.244141"/>
     <use xlink:href="#DejaVuSans-6d" x="670.027344"/>
     <use xlink:href="#DejaVuSans-65" x="767.439453"/>
     <use xlink:href="#DejaVuSans-20" x="828.962891"/>
     <use xlink:href="#DejaVuSans-28" x="860.75"/>
     <use xlink:href="#DejaVuSans-53" x="899.763672"/>
     <use xlink:href="#DejaVuSans-65" x="963.240234"/>
     <use xlink:href="#DejaVuSans-6c" x="1024.763672"/>
     <use xlink:href="#DejaVuSans-65" x="1052.546875"/>
     <use xlink:href="#DejaVuSans-63" x="1114.070312"/>
     <use xlink:href="#DejaVuSans-74" x="1169.050781"/>
     <use xlink:href="#DejaVuSans-69" x="1208.259766"/>
     <use xlink:href="#DejaVuSans-6f" x="1236.042969"/>
     <use xlink:href="#DejaVuSans-6e" x="1297.224609"/>
     <use xlink:href="#DejaVuSans-50" x="1360.603516"/>
     <use xlink:href="#DejaVuSans-72" x="1419.15625"/>
     <use xlink:href="#DejaVuSans-6f" x="1458.019531"/>
     <use xlink:href="#DejaVuSans-63" x="1519.201172"/>
     <use xlink:href="#DejaVuSans-65" x="1574.181641"/>
     <use xlink:href="#DejaVuSans-73" x="1635.705078"/>
     <use xlink:href="#DejaVuSans-73" x="1687.804688"/>
     <use xlink:href="#DejaVuSans-3a" x="1739.904297"/>
     <use xlink:href="#DejaVuSans-20" x="1773.595703"/>
     <use xlink:href="#DejaVuSans-31" x="1805.382812"/>
     <use xlink:href="#DejaVuSans-36" x="1869.005859"/>
     <use xlink:href="#DejaVuSans-37" x="1932.628906"/>
     <use xlink:href="#DejaVuSans-37" x="1996.251953"/>
     <use xlink:href="#DejaVuSans-37" x="2059.875"/>
     <use xlink:href="#DejaVuSans-32" x="2123.498047"/>
     <use xlink:href="#DejaVuSans-31" x="2187.121094"/>
     <use xlink:href="#DejaVuSans-37" x="2250.744141"/>
     <use xlink:href="#DejaVuSans-29" x="2314.367188"/>
    </g>
   </g>
   <g id="legend_1">
    <g id="patch_7">
     <path d="M 803.982 372.949375 
L 1026.776687 372.949375 
Q 1029.576687 372.949375 1029.576687 370.149375 
L 1029.576687 330.450625 
Q 1029.576687 327.650625 1026.776687 327.650625 
L 803.982 327.650625 
Q 801.182 327.650625 801.182 330.450625 
L 801.182 370.149375 
Q 801.182 372.949375 803.982 372.949375 
z
" style="fill: #ffffff; opacity: 0.8; stroke: #cccccc; stroke-linejoin: miter"/>
    </g>
    <g id="line2d_17">
     <path d="M 806.782 338.988438 
L 820.782 338.988438 
L 834.782 338.988438 
" style="fill: none; stroke: #1f77b4; stroke-width: 1.5; stroke-linecap: square"/>
    </g>
    <g id="text_18">
     <!-- Interarrival Times -->
     <g transform="translate(845.982 343.888438) scale(0.14 -0.14)">
      <use xlink:href="#DejaVuSans-49"/>
      <use xlink:href="#DejaVuSans-6e" x="29.492188"/>
      <use xlink:href="#DejaVuSans-74" x="92.871094"/>
      <use xlink:href="#DejaVuSans-65" x="132.080078"/>
      <use xlink:href="#DejaVuSans-72" x="193.603516"/>
      <use xlink:href="#DejaVuSans-61" x="234.716797"/>
      <use xlink:href="#DejaVuSans-72" x="295.996094"/>
      <use xlink:href="#DejaVuSans-72" x="335.359375"/>
      <use xlink:href="#DejaVuSans-69" x="376.472656"/>
      <use xlink:href="#DejaVuSans-76" x="404.255859"/>
      <use xlink:href="#DejaVuSans-61" x="463.435547"/>
      <use xlink:href="#DejaVuSans-6c" x="524.714844"/>
      <use xlink:href="#DejaVuSans-20" x="552.498047"/>
      <use xlink:href="#DejaVuSans-54" x="584.285156"/>
      <use xlink:href="#DejaVuSans-69" x="642.244141"/>
      <use xlink:href="#DejaVuSans-6d" x="670.027344"/>
      <use xlink:href="#DejaVuSans-65" x="767.439453"/>
      <use xlink:href="#DejaVuSans-73" x="828.962891"/>
     </g>
    </g>
    <g id="line2d_18">
     <path d="M 806.782 359.537813 
L 820.782 359.537813 
L 834.782 359.537813 
" style="fill: none; stroke-dasharray: 5.55,2.4; stroke-dashoffset: 0; stroke: #0000ff; stroke-width: 1.5"/>
    </g>
    <g id="text_19">
     <!-- Interarrival Time Average -->
     <g transform="translate(845.982 364.437813) scale(0.14 -0.14)">
      <defs>
       <path id="DejaVuSans-41" d="M 2188 4044 
L 1331 1722 
L 3047 1722 
L 2188 4044 
z
M 1831 4666 
L 2547 4666 
L 4325 0 
L 3669 0 
L 3244 1197 
L 1141 1197 
L 716 0 
L 50 0 
L 1831 4666 
z
" transform="scale(0.015625)"/>
       <path id="DejaVuSans-67" d="M 2906 1791 
Q 2906 2416 2648 2759 
Q 2391 3103 1925 3103 
Q 1463 3103 1205 2759 
Q 947 2416 947 1791 
Q 947 1169 1205 825 
Q 1463 481 1925 481 
Q 2391 481 2648 825 
Q 2906 1169 2906 1791 
z
M 3481 434 
Q 3481 -459 3084 -895 
Q 2688 -1331 1869 -1331 
Q 1566 -1331 1297 -1286 
Q 1028 -1241 775 -1147 
L 775 -588 
Q 1028 -725 1275 -790 
Q 1522 -856 1778 -856 
Q 2344 -856 2625 -561 
Q 2906 -266 2906 331 
L 2906 616 
Q 2728 306 2450 153 
Q 2172 0 1784 0 
Q 1141 0 747 490 
Q 353 981 353 1791 
Q 353 2603 747 3093 
Q 1141 3584 1784 3584 
Q 2172 3584 2450 3431 
Q 2728 3278 2906 2969 
L 2906 3500 
L 3481 3500 
L 3481 434 
z
" transform="scale(0.015625)"/>
      </defs>
      <use xlink:href="#DejaVuSans-49"/>
      <use xlink:href="#DejaVuSans-6e" x="29.492188"/>
      <use xlink:href="#DejaVuSans-74" x="92.871094"/>
      <use xlink:href="#DejaVuSans-65" x="132.080078"/>
      <use xlink:href="#DejaVuSans-72" x="193.603516"/>
      <use xlink:href="#DejaVuSans-61" x="234.716797"/>
      <use xlink:href="#DejaVuSans-72" x="295.996094"/>
      <use xlink:href="#DejaVuSans-72" x="335.359375"/>
      <use xlink:href="#DejaVuSans-69" x="376.472656"/>
      <use xlink:href="#DejaVuSans-76" x="404.255859"/>
      <use xlink:href="#DejaVuSans-61" x="463.435547"/>
      <use xlink:href="#DejaVuSans-6c" x="524.714844"/>
      <use xlink:href="#DejaVuSans-20" x="552.498047"/>
      <use xlink:href="#DejaVuSans-54" x="584.285156"/>
      <use xlink:href="#DejaVuSans-69" x="642.244141"/>
      <use xlink:href="#DejaVuSans-6d" x="670.027344"/>
      <use xlink:href="#DejaVuSans-65" x="767.439453"/>
      <use xlink:href="#DejaVuSans-20" x="828.962891"/>
      <use xlink:href="#DejaVuSans-41" x="860.75"/>
      <use xlink:href="#DejaVuSans-76" x="923.283203"/>
      <use xlink:href="#DejaVuSans-65" x="982.462891"/>
      <use xlink:href="#DejaVuSans-72" x="1043.986328"/>
      <use xlink:href="#DejaVuSans-61" x="1085.099609"/>
      <use xlink:href="#DejaVuSans-67" x="1146.378906"/>
      <use xlink:href="#DejaVuSans-65" x="1209.855469"/>
     </g>
    </g>
   </g>
  </g>
 </g>
 <defs>
  <clipPath id="p1abfa73852">
   <rect x="106.91" y="60.96" width="687.272" height="578.68"/>
  </clipPath>
 </defs>
</svg>
