<?xml version="1.0" encoding="utf-8" standalone="no"?>
<!DOCTYPE svg PUBLIC "-//W3C//DTD SVG 1.1//EN"
  "http://www.w3.org/Graphics/SVG/1.1/DTD/svg11.dtd">
<svg xmlns:xlink="http://www.w3.org/1999/xlink" width="1080pt" height="720pt" viewBox="0 0 1080 720" xmlns="http://www.w3.org/2000/svg" version="1.1">
 <metadata>
  <rdf:RDF xmlns:dc="http://purl.org/dc/elements/1.1/" xmlns:cc="http://creativecommons.org/ns#" xmlns:rdf="http://www.w3.org/1999/02/22-rdf-syntax-ns#">
   <cc:Work>
    <dc:type rdf:resource="http://purl.org/dc/dcmitype/StillImage"/>
    <dc:date>2023-04-13T18:19:03.168806</dc:date>
    <dc:format>image/svg+xml</dc:format>
    <dc:creator>
     <cc:Agent>
      <dc:title>Matplotlib v3.6.2, https://matplotlib.org/</dc:title>
     </cc:Agent>
    </dc:creator>
   </cc:Work>
  </rdf:RDF>
 </metadata>
 <defs>
  <style type="text/css">*{stroke-linejoin: round; stroke-linecap: butt}</style>
 </defs>
 <g id="figure_1">
  <g id="patch_1">
   <path d="M 0 720 
L 1080 720 
L 1080 0 
L 0 0 
z
" style="fill: #ffffff"/>
  </g>
  <g id="axes_1">
   <g id="patch_2">
    <path d="M 71.22 652.92 
L 806.805 652.92 
L 806.805 46.96 
L 71.22 46.96 
z
" style="fill: #ffffff"/>
   </g>
   <g id="matplotlib.axis_1">
    <g id="xtick_1">
     <g id="line2d_1">
      <defs>
       <path id="m3206e24d46" d="M 0 0 
L 0 3.5 
" style="stroke: #000000; stroke-width: 0.8"/>
      </defs>
      <g>
       <use xlink:href="#m3206e24d46" x="71.22" y="652.92" style="stroke: #000000; stroke-width: 0.8"/>
      </g>
     </g>
     <g id="text_1">
      <!-- 0 -->
      <g transform="translate(66.76625 670.557812) scale(0.14 -0.14)">
       <defs>
        <path id="DejaVuSans-30" d="M 2034 4250 
Q 1547 4250 1301 3770 
Q 1056 3291 1056 2328 
Q 1056 1369 1301 889 
Q 1547 409 2034 409 
Q 2525 409 2770 889 
Q 3016 1369 3016 2328 
Q 3016 3291 2770 3770 
Q 2525 4250 2034 4250 
z
M 2034 4750 
Q 2819 4750 3233 4129 
Q 3647 3509 3647 2328 
Q 3647 1150 3233 529 
Q 2819 -91 2034 -91 
Q 1250 -91 836 529 
Q 422 1150 422 2328 
Q 422 3509 836 4129 
Q 1250 4750 2034 4750 
z
" transform="scale(0.015625)"/>
       </defs>
       <use xlink:href="#DejaVuSans-30"/>
      </g>
     </g>
    </g>
    <g id="xtick_2">
     <g id="line2d_2">
      <g>
       <use xlink:href="#m3206e24d46" x="187.858808" y="652.92" style="stroke: #000000; stroke-width: 0.8"/>
      </g>
     </g>
     <g id="text_2">
      <!-- 10 -->
      <g transform="translate(178.951308 670.557812) scale(0.14 -0.14)">
       <defs>
        <path id="DejaVuSans-31" d="M 794 531 
L 1825 531 
L 1825 4091 
L 703 3866 
L 703 4441 
L 1819 4666 
L 2450 4666 
L 2450 531 
L 3481 531 
L 3481 0 
L 794 0 
L 794 531 
z
" transform="scale(0.015625)"/>
       </defs>
       <use xlink:href="#DejaVuSans-31"/>
       <use xlink:href="#DejaVuSans-30" x="63.623047"/>
      </g>
     </g>
    </g>
    <g id="xtick_3">
     <g id="line2d_3">
      <g>
       <use xlink:href="#m3206e24d46" x="304.497616" y="652.92" style="stroke: #000000; stroke-width: 0.8"/>
      </g>
     </g>
     <g id="text_3">
      <!-- 20 -->
      <g transform="translate(295.590116 670.557812) scale(0.14 -0.14)">
       <defs>
        <path id="DejaVuSans-32" d="M 1228 531 
L 3431 531 
L 3431 0 
L 469 0 
L 469 531 
Q 828 903 1448 1529 
Q 2069 2156 2228 2338 
Q 2531 2678 2651 2914 
Q 2772 3150 2772 3378 
Q 2772 3750 2511 3984 
Q 2250 4219 1831 4219 
Q 1534 4219 1204 4116 
Q 875 4013 500 3803 
L 500 4441 
Q 881 4594 1212 4672 
Q 1544 4750 1819 4750 
Q 2544 4750 2975 4387 
Q 3406 4025 3406 3419 
Q 3406 3131 3298 2873 
Q 3191 2616 2906 2266 
Q 2828 2175 2409 1742 
Q 1991 1309 1228 531 
z
" transform="scale(0.015625)"/>
       </defs>
       <use xlink:href="#DejaVuSans-32"/>
       <use xlink:href="#DejaVuSans-30" x="63.623047"/>
      </g>
     </g>
    </g>
    <g id="xtick_4">
     <g id="line2d_4">
      <g>
       <use xlink:href="#m3206e24d46" x="421.136424" y="652.92" style="stroke: #000000; stroke-width: 0.8"/>
      </g>
     </g>
     <g id="text_4">
      <!-- 30 -->
      <g transform="translate(412.228924 670.557812) scale(0.14 -0.14)">
       <defs>
        <path id="DejaVuSans-33" d="M 2597 2516 
Q 3050 2419 3304 2112 
Q 3559 1806 3559 1356 
Q 3559 666 3084 287 
Q 2609 -91 1734 -91 
Q 1441 -91 1130 -33 
Q 819 25 488 141 
L 488 750 
Q 750 597 1062 519 
Q 1375 441 1716 441 
Q 2309 441 2620 675 
Q 2931 909 2931 1356 
Q 2931 1769 2642 2001 
Q 2353 2234 1838 2234 
L 1294 2234 
L 1294 2753 
L 1863 2753 
Q 2328 2753 2575 2939 
Q 2822 3125 2822 3475 
Q 2822 3834 2567 4026 
Q 2313 4219 1838 4219 
Q 1578 4219 1281 4162 
Q 984 4106 628 3988 
L 628 4550 
Q 988 4650 1302 4700 
Q 1616 4750 1894 4750 
Q 2613 4750 3031 4423 
Q 3450 4097 3450 3541 
Q 3450 3153 3228 2886 
Q 3006 2619 2597 2516 
z
" transform="scale(0.015625)"/>
       </defs>
       <use xlink:href="#DejaVuSans-33"/>
       <use xlink:href="#DejaVuSans-30" x="63.623047"/>
      </g>
     </g>
    </g>
    <g id="xtick_5">
     <g id="line2d_5">
      <g>
       <use xlink:href="#m3206e24d46" x="537.775232" y="652.92" style="stroke: #000000; stroke-width: 0.8"/>
      </g>
     </g>
     <g id="text_5">
      <!-- 40 -->
      <g transform="translate(528.867732 670.557812) scale(0.14 -0.14)">
       <defs>
        <path id="DejaVuSans-34" d="M 2419 4116 
L 825 1625 
L 2419 1625 
L 2419 4116 
z
M 2253 4666 
L 3047 4666 
L 3047 1625 
L 3713 1625 
L 3713 1100 
L 3047 1100 
L 3047 0 
L 2419 0 
L 2419 1100 
L 313 1100 
L 313 1709 
L 2253 4666 
z
" transform="scale(0.015625)"/>
       </defs>
       <use xlink:href="#DejaVuSans-34"/>
       <use xlink:href="#DejaVuSans-30" x="63.623047"/>
      </g>
     </g>
    </g>
    <g id="xtick_6">
     <g id="line2d_6">
      <g>
       <use xlink:href="#m3206e24d46" x="654.41404" y="652.92" style="stroke: #000000; stroke-width: 0.8"/>
      </g>
     </g>
     <g id="text_6">
      <!-- 50 -->
      <g transform="translate(645.50654 670.557812) scale(0.14 -0.14)">
       <defs>
        <path id="DejaVuSans-35" d="M 691 4666 
L 3169 4666 
L 3169 4134 
L 1269 4134 
L 1269 2991 
Q 1406 3038 1543 3061 
Q 1681 3084 1819 3084 
Q 2600 3084 3056 2656 
Q 3513 2228 3513 1497 
Q 3513 744 3044 326 
Q 2575 -91 1722 -91 
Q 1428 -91 1123 -41 
Q 819 9 494 109 
L 494 744 
Q 775 591 1075 516 
Q 1375 441 1709 441 
Q 2250 441 2565 725 
Q 2881 1009 2881 1497 
Q 2881 1984 2565 2268 
Q 2250 2553 1709 2553 
Q 1456 2553 1204 2497 
Q 953 2441 691 2322 
L 691 4666 
z
" transform="scale(0.015625)"/>
       </defs>
       <use xlink:href="#DejaVuSans-35"/>
       <use xlink:href="#DejaVuSans-30" x="63.623047"/>
      </g>
     </g>
    </g>
    <g id="xtick_7">
     <g id="line2d_7">
      <g>
       <use xlink:href="#m3206e24d46" x="771.052848" y="652.92" style="stroke: #000000; stroke-width: 0.8"/>
      </g>
     </g>
     <g id="text_7">
      <!-- 60 -->
      <g transform="translate(762.145348 670.557812) scale(0.14 -0.14)">
       <defs>
        <path id="DejaVuSans-36" d="M 2113 2584 
Q 1688 2584 1439 2293 
Q 1191 2003 1191 1497 
Q 1191 994 1439 701 
Q 1688 409 2113 409 
Q 2538 409 2786 701 
Q 3034 994 3034 1497 
Q 3034 2003 2786 2293 
Q 2538 2584 2113 2584 
z
M 3366 4563 
L 3366 3988 
Q 3128 4100 2886 4159 
Q 2644 4219 2406 4219 
Q 1781 4219 1451 3797 
Q 1122 3375 1075 2522 
Q 1259 2794 1537 2939 
Q 1816 3084 2150 3084 
Q 2853 3084 3261 2657 
Q 3669 2231 3669 1497 
Q 3669 778 3244 343 
Q 2819 -91 2113 -91 
Q 1303 -91 875 529 
Q 447 1150 447 2328 
Q 447 3434 972 4092 
Q 1497 4750 2381 4750 
Q 2619 4750 2861 4703 
Q 3103 4656 3366 4563 
z
" transform="scale(0.015625)"/>
       </defs>
       <use xlink:href="#DejaVuSans-36"/>
       <use xlink:href="#DejaVuSans-30" x="63.623047"/>
      </g>
     </g>
    </g>
    <g id="text_8">
     <!-- Time (s) -->
     <g transform="translate(408.519141 688.867031) scale(0.15 -0.15)">
      <defs>
       <path id="DejaVuSans-54" d="M -19 4666 
L 3928 4666 
L 3928 4134 
L 2272 4134 
L 2272 0 
L 1638 0 
L 1638 4134 
L -19 4134 
L -19 4666 
z
" transform="scale(0.015625)"/>
       <path id="DejaVuSans-69" d="M 603 3500 
L 1178 3500 
L 1178 0 
L 603 0 
L 603 3500 
z
M 603 4863 
L 1178 4863 
L 1178 4134 
L 603 4134 
L 603 4863 
z
" transform="scale(0.015625)"/>
       <path id="DejaVuSans-6d" d="M 3328 2828 
Q 3544 3216 3844 3400 
Q 4144 3584 4550 3584 
Q 5097 3584 5394 3201 
Q 5691 2819 5691 2113 
L 5691 0 
L 5113 0 
L 5113 2094 
Q 5113 2597 4934 2840 
Q 4756 3084 4391 3084 
Q 3944 3084 3684 2787 
Q 3425 2491 3425 1978 
L 3425 0 
L 2847 0 
L 2847 2094 
Q 2847 2600 2669 2842 
Q 2491 3084 2119 3084 
Q 1678 3084 1418 2786 
Q 1159 2488 1159 1978 
L 1159 0 
L 581 0 
L 581 3500 
L 1159 3500 
L 1159 2956 
Q 1356 3278 1631 3431 
Q 1906 3584 2284 3584 
Q 2666 3584 2933 3390 
Q 3200 3197 3328 2828 
z
" transform="scale(0.015625)"/>
       <path id="DejaVuSans-65" d="M 3597 1894 
L 3597 1613 
L 953 1613 
Q 991 1019 1311 708 
Q 1631 397 2203 397 
Q 2534 397 2845 478 
Q 3156 559 3463 722 
L 3463 178 
Q 3153 47 2828 -22 
Q 2503 -91 2169 -91 
Q 1331 -91 842 396 
Q 353 884 353 1716 
Q 353 2575 817 3079 
Q 1281 3584 2069 3584 
Q 2775 3584 3186 3129 
Q 3597 2675 3597 1894 
z
M 3022 2063 
Q 3016 2534 2758 2815 
Q 2500 3097 2075 3097 
Q 1594 3097 1305 2825 
Q 1016 2553 972 2059 
L 3022 2063 
z
" transform="scale(0.015625)"/>
       <path id="DejaVuSans-20" transform="scale(0.015625)"/>
       <path id="DejaVuSans-28" d="M 1984 4856 
Q 1566 4138 1362 3434 
Q 1159 2731 1159 2009 
Q 1159 1288 1364 580 
Q 1569 -128 1984 -844 
L 1484 -844 
Q 1016 -109 783 600 
Q 550 1309 550 2009 
Q 550 2706 781 3412 
Q 1013 4119 1484 4856 
L 1984 4856 
z
" transform="scale(0.015625)"/>
       <path id="DejaVuSans-73" d="M 2834 3397 
L 2834 2853 
Q 2591 2978 2328 3040 
Q 2066 3103 1784 3103 
Q 1356 3103 1142 2972 
Q 928 2841 928 2578 
Q 928 2378 1081 2264 
Q 1234 2150 1697 2047 
L 1894 2003 
Q 2506 1872 2764 1633 
Q 3022 1394 3022 966 
Q 3022 478 2636 193 
Q 2250 -91 1575 -91 
Q 1294 -91 989 -36 
Q 684 19 347 128 
L 347 722 
Q 666 556 975 473 
Q 1284 391 1588 391 
Q 1994 391 2212 530 
Q 2431 669 2431 922 
Q 2431 1156 2273 1281 
Q 2116 1406 1581 1522 
L 1381 1569 
Q 847 1681 609 1914 
Q 372 2147 372 2553 
Q 372 3047 722 3315 
Q 1072 3584 1716 3584 
Q 2034 3584 2315 3537 
Q 2597 3491 2834 3397 
z
" transform="scale(0.015625)"/>
       <path id="DejaVuSans-29" d="M 513 4856 
L 1013 4856 
Q 1481 4119 1714 3412 
Q 1947 2706 1947 2009 
Q 1947 1309 1714 600 
Q 1481 -109 1013 -844 
L 513 -844 
Q 928 -128 1133 580 
Q 1338 1288 1338 2009 
Q 1338 2731 1133 3434 
Q 928 4138 513 4856 
z
" transform="scale(0.015625)"/>
      </defs>
      <use xlink:href="#DejaVuSans-54"/>
      <use xlink:href="#DejaVuSans-69" x="57.958984"/>
      <use xlink:href="#DejaVuSans-6d" x="85.742188"/>
      <use xlink:href="#DejaVuSans-65" x="183.154297"/>
      <use xlink:href="#DejaVuSans-20" x="244.677734"/>
      <use xlink:href="#DejaVuSans-28" x="276.464844"/>
      <use xlink:href="#DejaVuSans-73" x="315.478516"/>
      <use xlink:href="#DejaVuSans-29" x="367.578125"/>
     </g>
    </g>
   </g>
   <g id="matplotlib.axis_2">
    <g id="ytick_1">
     <g id="line2d_8">
      <defs>
       <path id="m8f3e77d530" d="M 0 0 
L -3.5 0 
" style="stroke: #000000; stroke-width: 0.8"/>
      </defs>
      <g>
       <use xlink:href="#m8f3e77d530" x="71.22" y="652.92" style="stroke: #000000; stroke-width: 0.8"/>
      </g>
     </g>
     <g id="text_9">
      <!-- 0 -->
      <g transform="translate(55.3125 658.238906) scale(0.14 -0.14)">
       <use xlink:href="#DejaVuSans-30"/>
      </g>
     </g>
    </g>
    <g id="ytick_2">
     <g id="line2d_9">
      <g>
       <use xlink:href="#m8f3e77d530" x="71.22" y="566.832547" style="stroke: #000000; stroke-width: 0.8"/>
      </g>
     </g>
     <g id="text_10">
      <!-- 10 -->
      <g transform="translate(46.405 572.151453) scale(0.14 -0.14)">
       <use xlink:href="#DejaVuSans-31"/>
       <use xlink:href="#DejaVuSans-30" x="63.623047"/>
      </g>
     </g>
    </g>
    <g id="ytick_3">
     <g id="line2d_10">
      <g>
       <use xlink:href="#m8f3e77d530" x="71.22" y="480.745093" style="stroke: #000000; stroke-width: 0.8"/>
      </g>
     </g>
     <g id="text_11">
      <!-- 20 -->
      <g transform="translate(46.405 486.063999) scale(0.14 -0.14)">
       <use xlink:href="#DejaVuSans-32"/>
       <use xlink:href="#DejaVuSans-30" x="63.623047"/>
      </g>
     </g>
    </g>
    <g id="ytick_4">
     <g id="line2d_11">
      <g>
       <use xlink:href="#m8f3e77d530" x="71.22" y="394.65764" style="stroke: #000000; stroke-width: 0.8"/>
      </g>
     </g>
     <g id="text_12">
      <!-- 30 -->
      <g transform="translate(46.405 399.976546) scale(0.14 -0.14)">
       <use xlink:href="#DejaVuSans-33"/>
       <use xlink:href="#DejaVuSans-30" x="63.623047"/>
      </g>
     </g>
    </g>
    <g id="ytick_5">
     <g id="line2d_12">
      <g>
       <use xlink:href="#m8f3e77d530" x="71.22" y="308.570186" style="stroke: #000000; stroke-width: 0.8"/>
      </g>
     </g>
     <g id="text_13">
      <!-- 40 -->
      <g transform="translate(46.405 313.889093) scale(0.14 -0.14)">
       <use xlink:href="#DejaVuSans-34"/>
       <use xlink:href="#DejaVuSans-30" x="63.623047"/>
      </g>
     </g>
    </g>
    <g id="ytick_6">
     <g id="line2d_13">
      <g>
       <use xlink:href="#m8f3e77d530" x="71.22" y="222.482733" style="stroke: #000000; stroke-width: 0.8"/>
      </g>
     </g>
     <g id="text_14">
      <!-- 50 -->
      <g transform="translate(46.405 227.801639) scale(0.14 -0.14)">
       <use xlink:href="#DejaVuSans-35"/>
       <use xlink:href="#DejaVuSans-30" x="63.623047"/>
      </g>
     </g>
    </g>
    <g id="ytick_7">
     <g id="line2d_14">
      <g>
       <use xlink:href="#m8f3e77d530" x="71.22" y="136.39528" style="stroke: #000000; stroke-width: 0.8"/>
      </g>
     </g>
     <g id="text_15">
      <!-- 60 -->
      <g transform="translate(46.405 141.714186) scale(0.14 -0.14)">
       <use xlink:href="#DejaVuSans-36"/>
       <use xlink:href="#DejaVuSans-30" x="63.623047"/>
      </g>
     </g>
    </g>
    <g id="ytick_8">
     <g id="line2d_15">
      <g>
       <use xlink:href="#m8f3e77d530" x="71.22" y="50.307826" style="stroke: #000000; stroke-width: 0.8"/>
      </g>
     </g>
     <g id="text_16">
      <!-- 70 -->
      <g transform="translate(46.405 55.626732) scale(0.14 -0.14)">
       <defs>
        <path id="DejaVuSans-37" d="M 525 4666 
L 3525 4666 
L 3525 4397 
L 1831 0 
L 1172 0 
L 2766 4134 
L 525 4134 
L 525 4666 
z
" transform="scale(0.015625)"/>
       </defs>
       <use xlink:href="#DejaVuSans-37"/>
       <use xlink:href="#DejaVuSans-30" x="63.623047"/>
      </g>
     </g>
    </g>
    <g id="text_17">
     <!-- Packets per Second -->
     <g transform="translate(39.285469 423.207969) rotate(-90) scale(0.15 -0.15)">
      <defs>
       <path id="DejaVuSans-50" d="M 1259 4147 
L 1259 2394 
L 2053 2394 
Q 2494 2394 2734 2622 
Q 2975 2850 2975 3272 
Q 2975 3691 2734 3919 
Q 2494 4147 2053 4147 
L 1259 4147 
z
M 628 4666 
L 2053 4666 
Q 2838 4666 3239 4311 
Q 3641 3956 3641 3272 
Q 3641 2581 3239 2228 
Q 2838 1875 2053 1875 
L 1259 1875 
L 1259 0 
L 628 0 
L 628 4666 
z
" transform="scale(0.015625)"/>
       <path id="DejaVuSans-61" d="M 2194 1759 
Q 1497 1759 1228 1600 
Q 959 1441 959 1056 
Q 959 750 1161 570 
Q 1363 391 1709 391 
Q 2188 391 2477 730 
Q 2766 1069 2766 1631 
L 2766 1759 
L 2194 1759 
z
M 3341 1997 
L 3341 0 
L 2766 0 
L 2766 531 
Q 2569 213 2275 61 
Q 1981 -91 1556 -91 
Q 1019 -91 701 211 
Q 384 513 384 1019 
Q 384 1609 779 1909 
Q 1175 2209 1959 2209 
L 2766 2209 
L 2766 2266 
Q 2766 2663 2505 2880 
Q 2244 3097 1772 3097 
Q 1472 3097 1187 3025 
Q 903 2953 641 2809 
L 641 3341 
Q 956 3463 1253 3523 
Q 1550 3584 1831 3584 
Q 2591 3584 2966 3190 
Q 3341 2797 3341 1997 
z
" transform="scale(0.015625)"/>
       <path id="DejaVuSans-63" d="M 3122 3366 
L 3122 2828 
Q 2878 2963 2633 3030 
Q 2388 3097 2138 3097 
Q 1578 3097 1268 2742 
Q 959 2388 959 1747 
Q 959 1106 1268 751 
Q 1578 397 2138 397 
Q 2388 397 2633 464 
Q 2878 531 3122 666 
L 3122 134 
Q 2881 22 2623 -34 
Q 2366 -91 2075 -91 
Q 1284 -91 818 406 
Q 353 903 353 1747 
Q 353 2603 823 3093 
Q 1294 3584 2113 3584 
Q 2378 3584 2631 3529 
Q 2884 3475 3122 3366 
z
" transform="scale(0.015625)"/>
       <path id="DejaVuSans-6b" d="M 581 4863 
L 1159 4863 
L 1159 1991 
L 2875 3500 
L 3609 3500 
L 1753 1863 
L 3688 0 
L 2938 0 
L 1159 1709 
L 1159 0 
L 581 0 
L 581 4863 
z
" transform="scale(0.015625)"/>
       <path id="DejaVuSans-74" d="M 1172 4494 
L 1172 3500 
L 2356 3500 
L 2356 3053 
L 1172 3053 
L 1172 1153 
Q 1172 725 1289 603 
Q 1406 481 1766 481 
L 2356 481 
L 2356 0 
L 1766 0 
Q 1100 0 847 248 
Q 594 497 594 1153 
L 594 3053 
L 172 3053 
L 172 3500 
L 594 3500 
L 594 4494 
L 1172 4494 
z
" transform="scale(0.015625)"/>
       <path id="DejaVuSans-70" d="M 1159 525 
L 1159 -1331 
L 581 -1331 
L 581 3500 
L 1159 3500 
L 1159 2969 
Q 1341 3281 1617 3432 
Q 1894 3584 2278 3584 
Q 2916 3584 3314 3078 
Q 3713 2572 3713 1747 
Q 3713 922 3314 415 
Q 2916 -91 2278 -91 
Q 1894 -91 1617 61 
Q 1341 213 1159 525 
z
M 3116 1747 
Q 3116 2381 2855 2742 
Q 2594 3103 2138 3103 
Q 1681 3103 1420 2742 
Q 1159 2381 1159 1747 
Q 1159 1113 1420 752 
Q 1681 391 2138 391 
Q 2594 391 2855 752 
Q 3116 1113 3116 1747 
z
" transform="scale(0.015625)"/>
       <path id="DejaVuSans-72" d="M 2631 2963 
Q 2534 3019 2420 3045 
Q 2306 3072 2169 3072 
Q 1681 3072 1420 2755 
Q 1159 2438 1159 1844 
L 1159 0 
L 581 0 
L 581 3500 
L 1159 3500 
L 1159 2956 
Q 1341 3275 1631 3429 
Q 1922 3584 2338 3584 
Q 2397 3584 2469 3576 
Q 2541 3569 2628 3553 
L 2631 2963 
z
" transform="scale(0.015625)"/>
       <path id="DejaVuSans-53" d="M 3425 4513 
L 3425 3897 
Q 3066 4069 2747 4153 
Q 2428 4238 2131 4238 
Q 1616 4238 1336 4038 
Q 1056 3838 1056 3469 
Q 1056 3159 1242 3001 
Q 1428 2844 1947 2747 
L 2328 2669 
Q 3034 2534 3370 2195 
Q 3706 1856 3706 1288 
Q 3706 609 3251 259 
Q 2797 -91 1919 -91 
Q 1588 -91 1214 -16 
Q 841 59 441 206 
L 441 856 
Q 825 641 1194 531 
Q 1563 422 1919 422 
Q 2459 422 2753 634 
Q 3047 847 3047 1241 
Q 3047 1584 2836 1778 
Q 2625 1972 2144 2069 
L 1759 2144 
Q 1053 2284 737 2584 
Q 422 2884 422 3419 
Q 422 4038 858 4394 
Q 1294 4750 2059 4750 
Q 2388 4750 2728 4690 
Q 3069 4631 3425 4513 
z
" transform="scale(0.015625)"/>
       <path id="DejaVuSans-6f" d="M 1959 3097 
Q 1497 3097 1228 2736 
Q 959 2375 959 1747 
Q 959 1119 1226 758 
Q 1494 397 1959 397 
Q 2419 397 2687 759 
Q 2956 1122 2956 1747 
Q 2956 2369 2687 2733 
Q 2419 3097 1959 3097 
z
M 1959 3584 
Q 2709 3584 3137 3096 
Q 3566 2609 3566 1747 
Q 3566 888 3137 398 
Q 2709 -91 1959 -91 
Q 1206 -91 779 398 
Q 353 888 353 1747 
Q 353 2609 779 3096 
Q 1206 3584 1959 3584 
z
" transform="scale(0.015625)"/>
       <path id="DejaVuSans-6e" d="M 3513 2113 
L 3513 0 
L 2938 0 
L 2938 2094 
Q 2938 2591 2744 2837 
Q 2550 3084 2163 3084 
Q 1697 3084 1428 2787 
Q 1159 2491 1159 1978 
L 1159 0 
L 581 0 
L 581 3500 
L 1159 3500 
L 1159 2956 
Q 1366 3272 1645 3428 
Q 1925 3584 2291 3584 
Q 2894 3584 3203 3211 
Q 3513 2838 3513 2113 
z
" transform="scale(0.015625)"/>
       <path id="DejaVuSans-64" d="M 2906 2969 
L 2906 4863 
L 3481 4863 
L 3481 0 
L 2906 0 
L 2906 525 
Q 2725 213 2448 61 
Q 2172 -91 1784 -91 
Q 1150 -91 751 415 
Q 353 922 353 1747 
Q 353 2572 751 3078 
Q 1150 3584 1784 3584 
Q 2172 3584 2448 3432 
Q 2725 3281 2906 2969 
z
M 947 1747 
Q 947 1113 1208 752 
Q 1469 391 1925 391 
Q 2381 391 2643 752 
Q 2906 1113 2906 1747 
Q 2906 2381 2643 2742 
Q 2381 3103 1925 3103 
Q 1469 3103 1208 2742 
Q 947 2381 947 1747 
z
" transform="scale(0.015625)"/>
      </defs>
      <use xlink:href="#DejaVuSans-50"/>
      <use xlink:href="#DejaVuSans-61" x="55.802734"/>
      <use xlink:href="#DejaVuSans-63" x="117.082031"/>
      <use xlink:href="#DejaVuSans-6b" x="172.0625"/>
      <use xlink:href="#DejaVuSans-65" x="226.347656"/>
      <use xlink:href="#DejaVuSans-74" x="287.871094"/>
      <use xlink:href="#DejaVuSans-73" x="327.080078"/>
      <use xlink:href="#DejaVuSans-20" x="379.179688"/>
      <use xlink:href="#DejaVuSans-70" x="410.966797"/>
      <use xlink:href="#DejaVuSans-65" x="474.443359"/>
      <use xlink:href="#DejaVuSans-72" x="535.966797"/>
      <use xlink:href="#DejaVuSans-20" x="577.080078"/>
      <use xlink:href="#DejaVuSans-53" x="608.867188"/>
      <use xlink:href="#DejaVuSans-65" x="672.34375"/>
      <use xlink:href="#DejaVuSans-63" x="733.867188"/>
      <use xlink:href="#DejaVuSans-6f" x="788.847656"/>
      <use xlink:href="#DejaVuSans-6e" x="850.029297"/>
      <use xlink:href="#DejaVuSans-64" x="913.408203"/>
     </g>
    </g>
   </g>
   <g id="line2d_16">
    <path d="M 71.22 168.74142 
L 73.772391 102.158285 
L 76.261251 168.788159 
L 78.511417 162.055993 
L 80.99952 128.284327 
L 83.255377 118.782938 
L 85.852823 150.369532 
L 88.57747 100.125159 
L 90.946378 186.660843 
L 93.434736 128.337883 
L 96.041548 113.656165 
L 98.293975 162.548856 
L 103.32019 123.752091 
L 105.808879 128.407717 
L 108.37676 105.480419 
L 110.747377 144.640461 
L 113.471792 136.93418 
L 115.750989 124.252863 
L 118.239065 168.635487 
L 120.529395 126.822748 
L 123.135199 113.447518 
L 125.861455 137.28268 
L 128.232442 144.719612 
L 130.446142 153.970206 
L 133.172127 100.396525 
L 135.660846 168.760645 
L 138.269188 113.972619 
L 140.639887 144.657856 
L 143.127555 168.55606 
L 145.735406 113.871057 
L 148.224881 168.907752 
L 150.713739 88.098793 
L 153.439721 137.230881 
L 155.763693 134.438484 
L 158.490279 137.345065 
L 160.861122 144.688805 
L 163.231162 144.516509 
L 165.603387 144.984966 
L 168.210147 152.165031 
L 170.699815 128.613953 
L 172.976506 123.670952 
L 175.512322 138.15549 
L 177.902648 148.831164 
L 180.629489 100.570019 
L 183.119482 169.008364 
L 185.374289 118.534295 
L 187.745574 144.783548 
L 190.354209 114.03302 
L 192.613693 164.080531 
L 195.015947 109.535331 
L 197.626724 191.395799 
L 199.99993 145.19479 
L 202.492173 88.86611 
L 204.748688 163.437359 
L 207.121118 145.028638 
L 209.495631 145.474178 
L 211.751828 118.863635 
L 214.124458 145.07159 
L 216.855125 101.343766 
L 219.111234 118.842878 
L 221.484043 145.109795 
L 223.789776 173.885628 
L 226.16485 145.59405 
L 228.537997 145.18214 
L 231.029449 128.989502 
L 233.52211 129.243534 
L 236.013486 128.973352 
L 238.624924 153.062038 
L 240.998429 145.258815 
L 243.372498 145.379363 
L 245.746429 103.052246 
L 248.023256 123.702647 
L 250.635048 153.129873 
L 253.008584 145.265234 
L 255.381118 102.728562 
L 257.637545 163.418182 
L 260.131864 129.591548 
L 262.740565 114.046792 
L 265.143555 151.487885 
L 267.637581 169.790857 
L 270.129427 129.072298 
L 272.409729 124.509002 
L 274.901625 129.082751 
L 277.467257 144.137694 
L 279.841121 145.335525 
L 282.14278 85.786609 
L 284.586567 159.858788 
L 286.919419 136.411937 
L 289.411483 169.410523 
L 291.807544 66.22408 
L 294.134581 178.271233 
L 296.50662 102.6137 
L 298.856866 182.95855 
L 301.23096 145.384717 
L 303.923788 93.593257 
L 306.372592 160.86901 
L 308.982675 152.802492 
L 311.389591 110.587948 
L 314.000153 114.430862 
L 316.493309 169.622305 
L 318.897362 151.709542 
L 321.390538 89.077082 
L 323.761263 144.663522 
L 326.472942 171.540056 
L 329.205179 101.660863 
L 331.769239 182.986768 
L 334.262521 89.10122 
L 336.589708 135.154833 
L 339.082186 169.49091 
L 341.370985 126.470624 
L 343.743998 145.15339 
L 346.355981 114.723882 
L 348.738966 147.278354 
L 350.974086 158.751786 
L 353.644773 88.956322 
L 356.041619 150.202374 
L 358.701649 124.445007 
L 361.096944 149.876981 
L 363.825358 137.690425 
L 366.31802 169.526538 
L 368.928591 114.432833 
L 371.186467 163.732153 
L 373.560171 102.999731 
L 375.875939 132.601714 
L 378.205885 135.767816 
L 380.542851 137.321408 
L 382.975222 157.544651 
L 385.54043 104.910137 
L 387.933241 149.354834 
L 390.384879 161.437561 
L 392.921305 138.279494 
L 395.312191 148.949298 
L 397.654777 95.694824 
L 400.308579 161.041549 
L 402.682992 103.163953 
L 405.104595 155.341947 
L 407.438659 136.680143 
L 409.886128 160.600531 
L 412.279708 149.516526 
L 414.771552 129.071906 
L 417.144459 102.814877 
L 419.518546 145.38339 
L 422.01189 169.658672 
L 424.384893 145.151301 
L 426.875492 128.809995 
L 429.249037 145.267285 
L 431.505796 118.996424 
L 433.879052 102.895955 
L 436.253656 145.493754 
L 438.880161 117.69949 
L 441.213246 136.463635 
L 443.547037 136.619857 
L 446.160415 191.855343 
L 448.599926 76.673597 
L 451.092979 169.602279 
L 453.627255 98.221343 
L 455.998747 144.827881 
L 458.41246 153.715523 
L 460.835892 155.717345 
L 463.383047 101.026249 
L 466.111182 137.637826 
L 468.439916 135.498682 
L 470.973823 177.39468 
L 473.46633 129.211235 
L 475.838578 102.662158 
L 478.162336 134.390882 
L 480.547929 147.831121 
L 483.157217 114.167899 
L 485.547121 148.742087 
L 487.875262 178.49636 
L 490.208021 136.39153 
L 492.542152 136.695157 
L 495.034696 129.218962 
L 497.60632 106.27719 
L 499.931294 177.850238 
L 502.665676 102.09311 
L 507.699606 145.013593 
L 510.047612 139.745664 
L 512.715174 125.937243 
L 515.105813 148.897094 
L 517.437579 136.17159 
L 519.928195 169.129471 
L 522.341959 153.72599 
L 524.797479 80.430441 
L 527.155547 184.517402 
L 529.887756 101.655186 
L 532.616527 174.555251 
L 534.8739 119.141694 
L 537.276713 109.6619 
L 539.938032 124.700856 
L 542.294414 141.569723 
L 544.669294 145.552706 
L 546.990562 177.091688 
L 549.721983 101.496083 
L 552.384585 124.955587 
L 554.761449 188.22151 
L 557.132529 102.390986 
L 559.521848 148.618812 
L 562.09939 146.488696 
L 564.490225 148.938443 
L 566.823355 136.473769 
L 569.494652 89.084923 
L 571.866705 144.948004 
L 574.241073 145.443158 
L 576.550384 131.146902 
L 579.008772 162.787229 
L 581.398695 148.746285 
L 583.790849 149.216228 
L 586.280651 88.313164 
L 588.60743 135.064007 
L 591.276428 126.220782 
L 593.668514 149.20199 
L 595.989868 177.109287 
L 598.482233 129.181462 
L 600.665713 101.077657 
L 602.992026 178.123502 
L 605.483812 129.059719 
L 607.856137 145.006234 
L 610.230775 103.215927 
L 612.713902 167.670293 
L 615.376501 124.954947 
L 617.8646 128.283417 
L 620.171667 130.639265 
L 622.64102 164.963646 
L 624.980851 137.952495 
L 627.319044 137.592031 
L 629.767124 119.707099 
L 632.098759 136.142459 
L 634.491661 149.373751 
L 636.912879 113.791492 
L 639.287272 145.448657 
L 641.827529 99.527242 
L 644.318692 169.235815 
L 646.559854 115.280765 
L 649.049571 168.954696 
L 651.662682 114.956133 
L 653.938903 167.674735 
L 656.609272 88.889127 
L 659.099193 168.994389 
L 661.668342 105.750712 
L 664.051215 189.393477 
L 666.713939 124.979732 
L 669.106603 149.323584 
L 671.49953 107.417557 
L 674.163104 162.84619 
L 676.556375 107.495642 
L 678.946095 148.703428 
L 681.559598 153.457074 
L 684.219758 86.724356 
L 686.605723 189.994183 
L 689.102132 130.02972 
L 691.663239 143.238841 
L 693.999429 94.169232 
L 696.667524 126.042377 
L 698.991652 177.677315 
L 701.367936 103.596796 
L 703.778779 153.120972 
L 706.392039 114.986889 
L 708.783581 149.087446 
L 711.105176 177.158768 
L 713.834816 101.136356 
L 716.208379 187.575179 
L 718.581736 102.919359 
L 721.171067 110.015561 
L 723.504509 136.542522 
L 725.894165 148.689939 
L 728.336994 159.665522 
L 730.734059 150.248237 
L 733.244324 132.915969 
L 735.615169 102.336628 
L 737.941601 178.147835 
L 740.435701 129.545667 
L 742.812668 145.998156 
L 745.308902 89.767836 
L 747.800158 169.253697 
L 750.08753 126.142493 
L 752.701981 153.638173 
L 755.072332 102.221643 
L 757.329693 163.620792 
L 759.822067 129.183102 
L 762.123787 129.426166 
L 764.472395 139.877092 
L 766.966576 169.82103 
L 769.458659 88.829818 
L 771.777143 176.520217 
L 771.777143 176.520217 
" clip-path="url(#pf657b9618e)" style="fill: none; stroke: #1f77b4; stroke-width: 1.5; stroke-linecap: square"/>
   </g>
   <g id="line2d_17">
    <path d="M 71.22 136.925002 
L 806.805 136.925002 
" clip-path="url(#pf657b9618e)" style="fill: none; stroke-dasharray: 5.55,2.4; stroke-dashoffset: 0; stroke: #0000ff; stroke-width: 1.5"/>
   </g>
   <g id="line2d_18">
    <path d="M 71.22 410.826485 
L 73.772379 416.87819 
L 76.261238 370.50954 
L 78.511404 429.800023 
L 80.999564 370.43035 
L 83.255339 430.354814 
L 85.852784 382.315808 
L 88.577401 394.946251 
L 90.946307 398.596504 
L 93.434644 370.450444 
L 96.041494 383.292013 
L 98.294007 430.032549 
L 100.663532 398.663017 
L 103.320219 388.349983 
L 105.80879 370.476909 
L 108.376786 379.212524 
L 110.747228 398.761426 
L 113.471802 394.942198 
L 115.750944 432.636641 
L 118.239086 370.428204 
L 120.52941 389.870698 
L 123.135144 383.176545 
L 125.861464 431.937743 
L 128.232445 356.46908 
L 130.446024 426.112201 
L 133.172129 395.087075 
L 135.660847 370.493567 
L 138.269013 421.926962 
L 140.639316 356.384212 
L 143.127551 410.793269 
L 145.735401 383.395433 
L 148.224879 410.914071 
L 150.713728 370.508477 
L 153.439711 395.075596 
L 155.763681 393.678909 
L 158.490264 395.13232 
L 160.861101 441.156457 
L 163.231148 356.352185 
L 165.603368 398.951785 
L 168.210119 421.80157 
L 170.699794 410.933324 
L 172.976483 388.295223 
L 175.512294 375.738574 
L 177.902617 400.875281 
L 180.629364 358.323133 
L 183.119452 410.973464 
L 185.373825 430.216466 
L 187.745546 398.898391 
L 190.354182 344.984756 
L 192.613654 430.71897 
L 195.01524 360.246956 
L 197.626181 422.172429 
L 199.999385 399.057189 
L 202.491625 370.892664 
L 204.748177 430.431545 
L 207.12108 399.024948 
L 209.494919 399.125108 
L 211.751286 385.911842 
L 214.124411 399.048769 
L 216.854379 358.670732 
L 219.110486 385.881081 
L 221.483448 399.031344 
L 223.789711 435.227168 
L 226.163981 399.171086 
L 228.537598 399.101397 
L 231.029252 370.826336 
L 233.521397 411.1731 
L 236.013355 370.860811 
L 238.624089 422.15414 
L 240.997717 399.102527 
L 245.745752 399.140039 
L 248.023173 388.380244 
L 250.634169 383.720185 
L 253.007913 399.114926 
L 255.381038 356.736919 
L 257.636641 430.337872 
L 260.130775 371.106925 
L 262.739805 383.517289 
L 265.143463 444.047935 
L 267.6363 370.960366 
L 270.128595 411.187594 
L 272.408939 388.719455 
L 274.901509 411.214332 
L 277.466119 378.851163 
L 279.840504 399.183481 
L 282.142516 347.587212 
L 284.58567 406.325557 
L 286.919311 394.753347 
L 289.411372 411.164911 
L 291.806366 359.441394 
L 294.133518 437.181227 
L 296.506508 356.71996 
L 298.856753 439.301066 
L 303.922821 354.537704 
L 306.371313 447.872617 
L 308.981544 383.641242 
L 311.388409 402.607499 
L 313.999507 345.275068 
L 316.492159 411.222307 
L 318.897223 402.420183 
L 321.389295 411.165967 
L 323.760455 356.491391 
L 326.471752 430.713332 
L 329.204887 359.011743 
L 331.769093 417.966883 
L 334.261429 370.903576 
L 336.58848 437.171888 
L 339.081882 371.024086 
L 341.36991 433.492242 
L 343.74385 399.135841 
L 346.354473 345.219198 
L 348.737437 400.096925 
L 350.973924 428.435314 
L 353.643318 389.609443 
L 356.040249 359.678512 
L 358.700457 426.445913 
L 361.09587 359.492679 
L 363.825191 395.390837 
L 366.317848 451.505677 
L 368.928416 383.676 
L 371.184842 385.918862 
L 373.55877 399.134598 
L 375.875777 349.563327 
L 378.205509 437.420114 
L 380.542322 352.134451 
L 382.97504 405.267608 
L 385.539135 378.79617 
L 387.931774 401.11929 
L 390.383356 407.173284 
L 392.919829 415.397867 
L 395.311998 401.069803 
L 397.65459 352.876399 
L 400.308384 425.898503 
L 402.681409 356.72437 
L 405.103237 404.154109 
L 407.4371 394.777925 
L 409.885923 406.896378 
L 412.278029 401.063148 
L 414.769928 411.149258 
L 417.143022 356.732948 
L 419.518343 441.556199 
L 422.010155 370.844353 
L 424.383272 399.047791 
L 426.875273 411.15915 
L 429.248698 399.080792 
L 431.504029 385.789354 
L 433.877346 356.760757 
L 436.252176 399.230986 
L 438.879945 385.438488 
L 441.211352 437.574935 
L 443.546812 351.96014 
L 446.158484 422.237074 
L 448.598209 405.97888 
L 451.09144 371.004845 
L 453.625727 415.193097 
L 455.998505 399.011543 
L 458.411856 361.673661 
L 460.835356 404.325716 
L 463.38144 376.857046 
L 466.110938 395.407554 
L 468.437652 393.984746 
L 470.972001 415.198861 
L 473.464388 411.196544 
L 475.837971 399.097787 
L 478.16039 350.270169 
L 480.546266 400.405476 
L 483.156958 422.150481 
L 485.54513 400.648255 
L 487.873384 394.156013 
L 490.207733 394.831678 
L 492.540079 394.609985 
L 495.032776 370.944403 
L 497.605858 379.753576 
L 499.929323 436.838846 
L 502.663727 359.148181 
L 505.326764 388.980862 
L 507.697864 441.179943 
L 510.04733 396.492145 
L 512.7149 351.787957 
L 515.103387 442.721263 
L 517.435848 394.622703 
L 519.927902 370.871664 
L 522.339761 403.125888 
L 524.795529 366.704226 
L 527.153679 440.017076 
L 529.885545 358.875218 
L 532.614616 432.16054 
L 534.873585 386.219435 
L 537.274447 360.158634 
L 539.937706 389.002887 
L 542.294097 439.858154 
L 544.666996 356.708617 
L 546.98834 436.641524 
L 549.719603 358.810261 
L 552.382719 388.988664 
L 554.759077 441.648476 
L 557.130366 356.507447 
L 559.519469 400.746634 
L 562.097232 419.202478 
L 564.488051 400.927569 
L 566.822981 394.895876 
L 569.492181 389.590293 
L 571.864814 356.675447 
L 574.238751 399.135537 
L 576.550029 435.699512 
L 579.008349 367.001374 
L 581.395864 400.578861 
L 583.788503 401.119228 
L 586.280317 370.844491 
L 588.60709 437.146068 
L 591.273652 351.674087 
L 593.666139 401.10323 
L 595.989519 436.830952 
L 598.481885 411.194564 
L 600.662853 376.681141 
L 602.990001 394.03301 
L 605.481323 370.788832 
L 607.855812 399.194564 
L 610.227698 398.91612 
L 612.7119 410.400066 
L 615.376164 389.102457 
L 617.864235 370.420219 
L 620.169346 391.55806 
L 622.638253 408.897682 
L 624.98049 395.700896 
L 627.316291 394.992028 
L 629.764661 406.850859 
L 632.098006 394.720668 
L 634.490966 401.152991 
L 636.910411 403.909072 
L 639.286869 357.15219 
L 641.826887 415.729484 
L 644.318329 370.802338 
L 646.557102 383.813542 
L 649.049203 451.460762 
L 651.659795 345.215369 
L 653.93668 432.418346 
L 656.606389 389.640557 
L 659.098828 370.915242 
L 661.665099 379.028494 
L 664.04895 442.312512 
L 666.711447 388.927393 
L 669.103628 401.07101 
L 671.496823 401.177783 
L 674.160593 389.053511 
L 676.555439 359.423124 
L 678.945368 400.833729 
L 681.556624 422.2003 
L 684.218852 388.900657 
L 686.604973 400.431503 
L 689.101316 371.356171 
L 691.660174 417.47586 
L 693.998988 395.324287 
L 696.66682 351.817549 
L 698.991226 436.926369 
L 701.364259 356.72535 
L 703.775932 403.106548 
L 706.389429 383.977833 
L 708.781108 401.01818 
L 711.104727 436.853185 
L 713.834361 395.420422 
L 716.207395 399.038924 
L 718.580931 356.788157 
L 721.16759 381.187375 
L 723.500785 394.703962 
L 725.893065 401.081453 
L 728.335864 406.289721 
L 730.729877 401.263757 
L 733.240414 412.94414 
L 735.614053 356.800969 
L 737.940487 437.114727 
L 740.431834 370.791552 
L 742.811529 399.749686 
L 745.304562 370.982359 
L 747.796261 451.428244 
L 750.086008 389.80428 
L 752.697955 383.818207 
L 755.07119 399.060543 
L 759.8179 370.918801 
L 762.12017 391.235573 
L 764.471079 439.36136 
L 766.96215 370.760367 
L 769.455276 370.992946 
L 771.773411 436.34211 
L 771.773411 436.34211 
" clip-path="url(#pf657b9618e)" style="fill: none; stroke: #ff7f0e; stroke-width: 1.5; stroke-linecap: square"/>
   </g>
   <g id="line2d_19">
    <path d="M 71.22 395.116385 
L 806.805 395.116385 
" clip-path="url(#pf657b9618e)" style="fill: none; stroke-dasharray: 5.55,2.4; stroke-dashoffset: 0; stroke: #ffa500; stroke-width: 1.5"/>
   </g>
   <g id="patch_3">
    <path d="M 71.22 652.92 
L 71.22 46.96 
" style="fill: none; stroke: #000000; stroke-width: 0.8; stroke-linejoin: miter; stroke-linecap: square"/>
   </g>
   <g id="patch_4">
    <path d="M 806.805 652.92 
L 806.805 46.96 
" style="fill: none; stroke: #000000; stroke-width: 0.8; stroke-linejoin: miter; stroke-linecap: square"/>
   </g>
   <g id="patch_5">
    <path d="M 71.22 652.92 
L 806.805 652.92 
" style="fill: none; stroke: #000000; stroke-width: 0.8; stroke-linejoin: miter; stroke-linecap: square"/>
   </g>
   <g id="patch_6">
    <path d="M 71.22 46.96 
L 806.805 46.96 
" style="fill: none; stroke: #000000; stroke-width: 0.8; stroke-linejoin: miter; stroke-linecap: square"/>
   </g>
   <g id="text_18">
    <!-- Observed and Filtered Packet Rates -->
    <g transform="translate(289.890188 40.96) scale(0.168 -0.168)">
     <defs>
      <path id="DejaVuSans-4f" d="M 2522 4238 
Q 1834 4238 1429 3725 
Q 1025 3213 1025 2328 
Q 1025 1447 1429 934 
Q 1834 422 2522 422 
Q 3209 422 3611 934 
Q 4013 1447 4013 2328 
Q 4013 3213 3611 3725 
Q 3209 4238 2522 4238 
z
M 2522 4750 
Q 3503 4750 4090 4092 
Q 4678 3434 4678 2328 
Q 4678 1225 4090 567 
Q 3503 -91 2522 -91 
Q 1538 -91 948 565 
Q 359 1222 359 2328 
Q 359 3434 948 4092 
Q 1538 4750 2522 4750 
z
" transform="scale(0.015625)"/>
      <path id="DejaVuSans-62" d="M 3116 1747 
Q 3116 2381 2855 2742 
Q 2594 3103 2138 3103 
Q 1681 3103 1420 2742 
Q 1159 2381 1159 1747 
Q 1159 1113 1420 752 
Q 1681 391 2138 391 
Q 2594 391 2855 752 
Q 3116 1113 3116 1747 
z
M 1159 2969 
Q 1341 3281 1617 3432 
Q 1894 3584 2278 3584 
Q 2916 3584 3314 3078 
Q 3713 2572 3713 1747 
Q 3713 922 3314 415 
Q 2916 -91 2278 -91 
Q 1894 -91 1617 61 
Q 1341 213 1159 525 
L 1159 0 
L 581 0 
L 581 4863 
L 1159 4863 
L 1159 2969 
z
" transform="scale(0.015625)"/>
      <path id="DejaVuSans-76" d="M 191 3500 
L 800 3500 
L 1894 563 
L 2988 3500 
L 3597 3500 
L 2284 0 
L 1503 0 
L 191 3500 
z
" transform="scale(0.015625)"/>
      <path id="DejaVuSans-46" d="M 628 4666 
L 3309 4666 
L 3309 4134 
L 1259 4134 
L 1259 2759 
L 3109 2759 
L 3109 2228 
L 1259 2228 
L 1259 0 
L 628 0 
L 628 4666 
z
" transform="scale(0.015625)"/>
      <path id="DejaVuSans-6c" d="M 603 4863 
L 1178 4863 
L 1178 0 
L 603 0 
L 603 4863 
z
" transform="scale(0.015625)"/>
      <path id="DejaVuSans-52" d="M 2841 2188 
Q 3044 2119 3236 1894 
Q 3428 1669 3622 1275 
L 4263 0 
L 3584 0 
L 2988 1197 
Q 2756 1666 2539 1819 
Q 2322 1972 1947 1972 
L 1259 1972 
L 1259 0 
L 628 0 
L 628 4666 
L 2053 4666 
Q 2853 4666 3247 4331 
Q 3641 3997 3641 3322 
Q 3641 2881 3436 2590 
Q 3231 2300 2841 2188 
z
M 1259 4147 
L 1259 2491 
L 2053 2491 
Q 2509 2491 2742 2702 
Q 2975 2913 2975 3322 
Q 2975 3731 2742 3939 
Q 2509 4147 2053 4147 
L 1259 4147 
z
" transform="scale(0.015625)"/>
     </defs>
     <use xlink:href="#DejaVuSans-4f"/>
     <use xlink:href="#DejaVuSans-62" x="78.710938"/>
     <use xlink:href="#DejaVuSans-73" x="142.1875"/>
     <use xlink:href="#DejaVuSans-65" x="194.287109"/>
     <use xlink:href="#DejaVuSans-72" x="255.810547"/>
     <use xlink:href="#DejaVuSans-76" x="296.923828"/>
     <use xlink:href="#DejaVuSans-65" x="356.103516"/>
     <use xlink:href="#DejaVuSans-64" x="417.626953"/>
     <use xlink:href="#DejaVuSans-20" x="481.103516"/>
     <use xlink:href="#DejaVuSans-61" x="512.890625"/>
     <use xlink:href="#DejaVuSans-6e" x="574.169922"/>
     <use xlink:href="#DejaVuSans-64" x="637.548828"/>
     <use xlink:href="#DejaVuSans-20" x="701.025391"/>
     <use xlink:href="#DejaVuSans-46" x="732.8125"/>
     <use xlink:href="#DejaVuSans-69" x="783.082031"/>
     <use xlink:href="#DejaVuSans-6c" x="810.865234"/>
     <use xlink:href="#DejaVuSans-74" x="838.648438"/>
     <use xlink:href="#DejaVuSans-65" x="877.857422"/>
     <use xlink:href="#DejaVuSans-72" x="939.380859"/>
     <use xlink:href="#DejaVuSans-65" x="978.244141"/>
     <use xlink:href="#DejaVuSans-64" x="1039.767578"/>
     <use xlink:href="#DejaVuSans-20" x="1103.244141"/>
     <use xlink:href="#DejaVuSans-50" x="1135.03125"/>
     <use xlink:href="#DejaVuSans-61" x="1190.833984"/>
     <use xlink:href="#DejaVuSans-63" x="1252.113281"/>
     <use xlink:href="#DejaVuSans-6b" x="1307.09375"/>
     <use xlink:href="#DejaVuSans-65" x="1361.378906"/>
     <use xlink:href="#DejaVuSans-74" x="1422.902344"/>
     <use xlink:href="#DejaVuSans-20" x="1462.111328"/>
     <use xlink:href="#DejaVuSans-52" x="1493.898438"/>
     <use xlink:href="#DejaVuSans-61" x="1561.130859"/>
     <use xlink:href="#DejaVuSans-74" x="1622.410156"/>
     <use xlink:href="#DejaVuSans-65" x="1661.619141"/>
     <use xlink:href="#DejaVuSans-73" x="1723.142578"/>
    </g>
   </g>
   <g id="legend_1">
    <g id="patch_7">
     <path d="M 816.605 393.13875 
L 1083.440625 393.13875 
Q 1086.240625 393.13875 1086.240625 390.33875 
L 1086.240625 309.54125 
Q 1086.240625 306.74125 1083.440625 306.74125 
L 816.605 306.74125 
Q 813.805 306.74125 813.805 309.54125 
L 813.805 390.33875 
Q 813.805 393.13875 816.605 393.13875 
z
" style="fill: #ffffff; opacity: 0.8; stroke: #cccccc; stroke-linejoin: miter"/>
    </g>
    <g id="line2d_20">
     <path d="M 819.405 318.079062 
L 833.405 318.079062 
L 847.405 318.079062 
" style="fill: none; stroke: #1f77b4; stroke-width: 1.5; stroke-linecap: square"/>
    </g>
    <g id="text_19">
     <!-- Filtered packets Cam 1 -->
     <g transform="translate(858.605 322.979062) scale(0.14 -0.14)">
      <defs>
       <path id="DejaVuSans-43" d="M 4122 4306 
L 4122 3641 
Q 3803 3938 3442 4084 
Q 3081 4231 2675 4231 
Q 1875 4231 1450 3742 
Q 1025 3253 1025 2328 
Q 1025 1406 1450 917 
Q 1875 428 2675 428 
Q 3081 428 3442 575 
Q 3803 722 4122 1019 
L 4122 359 
Q 3791 134 3420 21 
Q 3050 -91 2638 -91 
Q 1578 -91 968 557 
Q 359 1206 359 2328 
Q 359 3453 968 4101 
Q 1578 4750 2638 4750 
Q 3056 4750 3426 4639 
Q 3797 4528 4122 4306 
z
" transform="scale(0.015625)"/>
      </defs>
      <use xlink:href="#DejaVuSans-46"/>
      <use xlink:href="#DejaVuSans-69" x="50.269531"/>
      <use xlink:href="#DejaVuSans-6c" x="78.052734"/>
      <use xlink:href="#DejaVuSans-74" x="105.835938"/>
      <use xlink:href="#DejaVuSans-65" x="145.044922"/>
      <use xlink:href="#DejaVuSans-72" x="206.568359"/>
      <use xlink:href="#DejaVuSans-65" x="245.431641"/>
      <use xlink:href="#DejaVuSans-64" x="306.955078"/>
      <use xlink:href="#DejaVuSans-20" x="370.431641"/>
      <use xlink:href="#DejaVuSans-70" x="402.21875"/>
      <use xlink:href="#DejaVuSans-61" x="465.695312"/>
      <use xlink:href="#DejaVuSans-63" x="526.974609"/>
      <use xlink:href="#DejaVuSans-6b" x="581.955078"/>
      <use xlink:href="#DejaVuSans-65" x="636.240234"/>
      <use xlink:href="#DejaVuSans-74" x="697.763672"/>
      <use xlink:href="#DejaVuSans-73" x="736.972656"/>
      <use xlink:href="#DejaVuSans-20" x="789.072266"/>
      <use xlink:href="#DejaVuSans-43" x="820.859375"/>
      <use xlink:href="#DejaVuSans-61" x="890.683594"/>
      <use xlink:href="#DejaVuSans-6d" x="951.962891"/>
      <use xlink:href="#DejaVuSans-20" x="1049.375"/>
      <use xlink:href="#DejaVuSans-31" x="1081.162109"/>
     </g>
    </g>
    <g id="line2d_21">
     <path d="M 819.405 338.628437 
L 833.405 338.628437 
L 847.405 338.628437 
" style="fill: none; stroke-dasharray: 5.55,2.4; stroke-dashoffset: 0; stroke: #0000ff; stroke-width: 1.5"/>
    </g>
    <g id="text_20">
     <!-- Filtered packets Cam 1 average -->
     <g transform="translate(858.605 343.528437) scale(0.14 -0.14)">
      <defs>
       <path id="DejaVuSans-67" d="M 2906 1791 
Q 2906 2416 2648 2759 
Q 2391 3103 1925 3103 
Q 1463 3103 1205 2759 
Q 947 2416 947 1791 
Q 947 1169 1205 825 
Q 1463 481 1925 481 
Q 2391 481 2648 825 
Q 2906 1169 2906 1791 
z
M 3481 434 
Q 3481 -459 3084 -895 
Q 2688 -1331 1869 -1331 
Q 1566 -1331 1297 -1286 
Q 1028 -1241 775 -1147 
L 775 -588 
Q 1028 -725 1275 -790 
Q 1522 -856 1778 -856 
Q 2344 -856 2625 -561 
Q 2906 -266 2906 331 
L 2906 616 
Q 2728 306 2450 153 
Q 2172 0 1784 0 
Q 1141 0 747 490 
Q 353 981 353 1791 
Q 353 2603 747 3093 
Q 1141 3584 1784 3584 
Q 2172 3584 2450 3431 
Q 2728 3278 2906 2969 
L 2906 3500 
L 3481 3500 
L 3481 434 
z
" transform="scale(0.015625)"/>
      </defs>
      <use xlink:href="#DejaVuSans-46"/>
      <use xlink:href="#DejaVuSans-69" x="50.269531"/>
      <use xlink:href="#DejaVuSans-6c" x="78.052734"/>
      <use xlink:href="#DejaVuSans-74" x="105.835938"/>
      <use xlink:href="#DejaVuSans-65" x="145.044922"/>
      <use xlink:href="#DejaVuSans-72" x="206.568359"/>
      <use xlink:href="#DejaVuSans-65" x="245.431641"/>
      <use xlink:href="#DejaVuSans-64" x="306.955078"/>
      <use xlink:href="#DejaVuSans-20" x="370.431641"/>
      <use xlink:href="#DejaVuSans-70" x="402.21875"/>
      <use xlink:href="#DejaVuSans-61" x="465.695312"/>
      <use xlink:href="#DejaVuSans-63" x="526.974609"/>
      <use xlink:href="#DejaVuSans-6b" x="581.955078"/>
      <use xlink:href="#DejaVuSans-65" x="636.240234"/>
      <use xlink:href="#DejaVuSans-74" x="697.763672"/>
      <use xlink:href="#DejaVuSans-73" x="736.972656"/>
      <use xlink:href="#DejaVuSans-20" x="789.072266"/>
      <use xlink:href="#DejaVuSans-43" x="820.859375"/>
      <use xlink:href="#DejaVuSans-61" x="890.683594"/>
      <use xlink:href="#DejaVuSans-6d" x="951.962891"/>
      <use xlink:href="#DejaVuSans-20" x="1049.375"/>
      <use xlink:href="#DejaVuSans-31" x="1081.162109"/>
      <use xlink:href="#DejaVuSans-20" x="1144.785156"/>
      <use xlink:href="#DejaVuSans-61" x="1176.572266"/>
      <use xlink:href="#DejaVuSans-76" x="1237.851562"/>
      <use xlink:href="#DejaVuSans-65" x="1297.03125"/>
      <use xlink:href="#DejaVuSans-72" x="1358.554688"/>
      <use xlink:href="#DejaVuSans-61" x="1399.667969"/>
      <use xlink:href="#DejaVuSans-67" x="1460.947266"/>
      <use xlink:href="#DejaVuSans-65" x="1524.423828"/>
     </g>
    </g>
    <g id="line2d_22">
     <path d="M 819.405 359.177812 
L 833.405 359.177812 
L 847.405 359.177812 
" style="fill: none; stroke: #ff7f0e; stroke-width: 1.5; stroke-linecap: square"/>
    </g>
    <g id="text_21">
     <!-- Filtered packets Cam 2 -->
     <g transform="translate(858.605 364.077812) scale(0.14 -0.14)">
      <use xlink:href="#DejaVuSans-46"/>
      <use xlink:href="#DejaVuSans-69" x="50.269531"/>
      <use xlink:href="#DejaVuSans-6c" x="78.052734"/>
      <use xlink:href="#DejaVuSans-74" x="105.835938"/>
      <use xlink:href="#DejaVuSans-65" x="145.044922"/>
      <use xlink:href="#DejaVuSans-72" x="206.568359"/>
      <use xlink:href="#DejaVuSans-65" x="245.431641"/>
      <use xlink:href="#DejaVuSans-64" x="306.955078"/>
      <use xlink:href="#DejaVuSans-20" x="370.431641"/>
      <use xlink:href="#DejaVuSans-70" x="402.21875"/>
      <use xlink:href="#DejaVuSans-61" x="465.695312"/>
      <use xlink:href="#DejaVuSans-63" x="526.974609"/>
      <use xlink:href="#DejaVuSans-6b" x="581.955078"/>
      <use xlink:href="#DejaVuSans-65" x="636.240234"/>
      <use xlink:href="#DejaVuSans-74" x="697.763672"/>
      <use xlink:href="#DejaVuSans-73" x="736.972656"/>
      <use xlink:href="#DejaVuSans-20" x="789.072266"/>
      <use xlink:href="#DejaVuSans-43" x="820.859375"/>
      <use xlink:href="#DejaVuSans-61" x="890.683594"/>
      <use xlink:href="#DejaVuSans-6d" x="951.962891"/>
      <use xlink:href="#DejaVuSans-20" x="1049.375"/>
      <use xlink:href="#DejaVuSans-32" x="1081.162109"/>
     </g>
    </g>
    <g id="line2d_23">
     <path d="M 819.405 379.727187 
L 833.405 379.727187 
L 847.405 379.727187 
" style="fill: none; stroke-dasharray: 5.55,2.4; stroke-dashoffset: 0; stroke: #ffa500; stroke-width: 1.5"/>
    </g>
    <g id="text_22">
     <!-- Filtered packets Cam 2 average -->
     <g transform="translate(858.605 384.627187) scale(0.14 -0.14)">
      <use xlink:href="#DejaVuSans-46"/>
      <use xlink:href="#DejaVuSans-69" x="50.269531"/>
      <use xlink:href="#DejaVuSans-6c" x="78.052734"/>
      <use xlink:href="#DejaVuSans-74" x="105.835938"/>
      <use xlink:href="#DejaVuSans-65" x="145.044922"/>
      <use xlink:href="#DejaVuSans-72" x="206.568359"/>
      <use xlink:href="#DejaVuSans-65" x="245.431641"/>
      <use xlink:href="#DejaVuSans-64" x="306.955078"/>
      <use xlink:href="#DejaVuSans-20" x="370.431641"/>
      <use xlink:href="#DejaVuSans-70" x="402.21875"/>
      <use xlink:href="#DejaVuSans-61" x="465.695312"/>
      <use xlink:href="#DejaVuSans-63" x="526.974609"/>
      <use xlink:href="#DejaVuSans-6b" x="581.955078"/>
      <use xlink:href="#DejaVuSans-65" x="636.240234"/>
      <use xlink:href="#DejaVuSans-74" x="697.763672"/>
      <use xlink:href="#DejaVuSans-73" x="736.972656"/>
      <use xlink:href="#DejaVuSans-20" x="789.072266"/>
      <use xlink:href="#DejaVuSans-43" x="820.859375"/>
      <use xlink:href="#DejaVuSans-61" x="890.683594"/>
      <use xlink:href="#DejaVuSans-6d" x="951.962891"/>
      <use xlink:href="#DejaVuSans-20" x="1049.375"/>
      <use xlink:href="#DejaVuSans-32" x="1081.162109"/>
      <use xlink:href="#DejaVuSans-20" x="1144.785156"/>
      <use xlink:href="#DejaVuSans-61" x="1176.572266"/>
      <use xlink:href="#DejaVuSans-76" x="1237.851562"/>
      <use xlink:href="#DejaVuSans-65" x="1297.03125"/>
      <use xlink:href="#DejaVuSans-72" x="1358.554688"/>
      <use xlink:href="#DejaVuSans-61" x="1399.667969"/>
      <use xlink:href="#DejaVuSans-67" x="1460.947266"/>
      <use xlink:href="#DejaVuSans-65" x="1524.423828"/>
     </g>
    </g>
   </g>
  </g>
 </g>
 <defs>
  <clipPath id="pf657b9618e">
   <rect x="71.22" y="46.96" width="735.585" height="605.96"/>
  </clipPath>
 </defs>
</svg>
