<?xml version="1.0" encoding="utf-8" standalone="no"?>
<!DOCTYPE svg PUBLIC "-//W3C//DTD SVG 1.1//EN"
  "http://www.w3.org/Graphics/SVG/1.1/DTD/svg11.dtd">
<svg xmlns:xlink="http://www.w3.org/1999/xlink" width="1186.56pt" height="588.24pt" viewBox="0 0 1186.56 588.24" xmlns="http://www.w3.org/2000/svg" version="1.1">
 <metadata>
  <rdf:RDF xmlns:dc="http://purl.org/dc/elements/1.1/" xmlns:cc="http://creativecommons.org/ns#" xmlns:rdf="http://www.w3.org/1999/02/22-rdf-syntax-ns#">
   <cc:Work>
    <dc:type rdf:resource="http://purl.org/dc/dcmitype/StillImage"/>
    <dc:date>2023-04-13T18:55:12.074410</dc:date>
    <dc:format>image/svg+xml</dc:format>
    <dc:creator>
     <cc:Agent>
      <dc:title>Matplotlib v3.6.2, https://matplotlib.org/</dc:title>
     </cc:Agent>
    </dc:creator>
   </cc:Work>
  </rdf:RDF>
 </metadata>
 <defs>
  <style type="text/css">*{stroke-linejoin: round; stroke-linecap: butt}</style>
 </defs>
 <g id="figure_1">
  <g id="patch_1">
   <path d="M 0 588.24 
L 1186.56 588.24 
L 1186.56 0 
L 0 0 
z
" style="fill: #ffffff"/>
  </g>
  <g id="axes_1">
   <g id="patch_2">
    <path d="M 78.24704 533.43564 
L 886.40976 533.43564 
L 886.40976 38.36632 
L 78.24704 38.36632 
z
" style="fill: #ffffff"/>
   </g>
   <g id="matplotlib.axis_1">
    <g id="xtick_1">
     <g id="line2d_1">
      <defs>
       <path id="mafca19ccbc" d="M 0 0 
L 0 3.5 
" style="stroke: #000000; stroke-width: 0.8"/>
      </defs>
      <g>
       <use xlink:href="#mafca19ccbc" x="78.24704" y="533.43564" style="stroke: #000000; stroke-width: 0.8"/>
      </g>
     </g>
     <g id="text_1">
      <!-- 0 -->
      <g transform="translate(73.79329 551.073453) scale(0.14 -0.14)">
       <defs>
        <path id="DejaVuSans-30" d="M 2034 4250 
Q 1547 4250 1301 3770 
Q 1056 3291 1056 2328 
Q 1056 1369 1301 889 
Q 1547 409 2034 409 
Q 2525 409 2770 889 
Q 3016 1369 3016 2328 
Q 3016 3291 2770 3770 
Q 2525 4250 2034 4250 
z
M 2034 4750 
Q 2819 4750 3233 4129 
Q 3647 3509 3647 2328 
Q 3647 1150 3233 529 
Q 2819 -91 2034 -91 
Q 1250 -91 836 529 
Q 422 1150 422 2328 
Q 422 3509 836 4129 
Q 1250 4750 2034 4750 
z
" transform="scale(0.015625)"/>
       </defs>
       <use xlink:href="#DejaVuSans-30"/>
      </g>
     </g>
    </g>
    <g id="xtick_2">
     <g id="line2d_2">
      <g>
       <use xlink:href="#mafca19ccbc" x="205.479323" y="533.43564" style="stroke: #000000; stroke-width: 0.8"/>
      </g>
     </g>
     <g id="text_2">
      <!-- 10 -->
      <g transform="translate(196.571823 551.073453) scale(0.14 -0.14)">
       <defs>
        <path id="DejaVuSans-31" d="M 794 531 
L 1825 531 
L 1825 4091 
L 703 3866 
L 703 4441 
L 1819 4666 
L 2450 4666 
L 2450 531 
L 3481 531 
L 3481 0 
L 794 0 
L 794 531 
z
" transform="scale(0.015625)"/>
       </defs>
       <use xlink:href="#DejaVuSans-31"/>
       <use xlink:href="#DejaVuSans-30" x="63.623047"/>
      </g>
     </g>
    </g>
    <g id="xtick_3">
     <g id="line2d_3">
      <g>
       <use xlink:href="#mafca19ccbc" x="332.711606" y="533.43564" style="stroke: #000000; stroke-width: 0.8"/>
      </g>
     </g>
     <g id="text_3">
      <!-- 20 -->
      <g transform="translate(323.804106 551.073453) scale(0.14 -0.14)">
       <defs>
        <path id="DejaVuSans-32" d="M 1228 531 
L 3431 531 
L 3431 0 
L 469 0 
L 469 531 
Q 828 903 1448 1529 
Q 2069 2156 2228 2338 
Q 2531 2678 2651 2914 
Q 2772 3150 2772 3378 
Q 2772 3750 2511 3984 
Q 2250 4219 1831 4219 
Q 1534 4219 1204 4116 
Q 875 4013 500 3803 
L 500 4441 
Q 881 4594 1212 4672 
Q 1544 4750 1819 4750 
Q 2544 4750 2975 4387 
Q 3406 4025 3406 3419 
Q 3406 3131 3298 2873 
Q 3191 2616 2906 2266 
Q 2828 2175 2409 1742 
Q 1991 1309 1228 531 
z
" transform="scale(0.015625)"/>
       </defs>
       <use xlink:href="#DejaVuSans-32"/>
       <use xlink:href="#DejaVuSans-30" x="63.623047"/>
      </g>
     </g>
    </g>
    <g id="xtick_4">
     <g id="line2d_4">
      <g>
       <use xlink:href="#mafca19ccbc" x="459.94389" y="533.43564" style="stroke: #000000; stroke-width: 0.8"/>
      </g>
     </g>
     <g id="text_4">
      <!-- 30 -->
      <g transform="translate(451.03639 551.073453) scale(0.14 -0.14)">
       <defs>
        <path id="DejaVuSans-33" d="M 2597 2516 
Q 3050 2419 3304 2112 
Q 3559 1806 3559 1356 
Q 3559 666 3084 287 
Q 2609 -91 1734 -91 
Q 1441 -91 1130 -33 
Q 819 25 488 141 
L 488 750 
Q 750 597 1062 519 
Q 1375 441 1716 441 
Q 2309 441 2620 675 
Q 2931 909 2931 1356 
Q 2931 1769 2642 2001 
Q 2353 2234 1838 2234 
L 1294 2234 
L 1294 2753 
L 1863 2753 
Q 2328 2753 2575 2939 
Q 2822 3125 2822 3475 
Q 2822 3834 2567 4026 
Q 2313 4219 1838 4219 
Q 1578 4219 1281 4162 
Q 984 4106 628 3988 
L 628 4550 
Q 988 4650 1302 4700 
Q 1616 4750 1894 4750 
Q 2613 4750 3031 4423 
Q 3450 4097 3450 3541 
Q 3450 3153 3228 2886 
Q 3006 2619 2597 2516 
z
" transform="scale(0.015625)"/>
       </defs>
       <use xlink:href="#DejaVuSans-33"/>
       <use xlink:href="#DejaVuSans-30" x="63.623047"/>
      </g>
     </g>
    </g>
    <g id="xtick_5">
     <g id="line2d_5">
      <g>
       <use xlink:href="#mafca19ccbc" x="587.176173" y="533.43564" style="stroke: #000000; stroke-width: 0.8"/>
      </g>
     </g>
     <g id="text_5">
      <!-- 40 -->
      <g transform="translate(578.268673 551.073453) scale(0.14 -0.14)">
       <defs>
        <path id="DejaVuSans-34" d="M 2419 4116 
L 825 1625 
L 2419 1625 
L 2419 4116 
z
M 2253 4666 
L 3047 4666 
L 3047 1625 
L 3713 1625 
L 3713 1100 
L 3047 1100 
L 3047 0 
L 2419 0 
L 2419 1100 
L 313 1100 
L 313 1709 
L 2253 4666 
z
" transform="scale(0.015625)"/>
       </defs>
       <use xlink:href="#DejaVuSans-34"/>
       <use xlink:href="#DejaVuSans-30" x="63.623047"/>
      </g>
     </g>
    </g>
    <g id="xtick_6">
     <g id="line2d_6">
      <g>
       <use xlink:href="#mafca19ccbc" x="714.408456" y="533.43564" style="stroke: #000000; stroke-width: 0.8"/>
      </g>
     </g>
     <g id="text_6">
      <!-- 50 -->
      <g transform="translate(705.500956 551.073453) scale(0.14 -0.14)">
       <defs>
        <path id="DejaVuSans-35" d="M 691 4666 
L 3169 4666 
L 3169 4134 
L 1269 4134 
L 1269 2991 
Q 1406 3038 1543 3061 
Q 1681 3084 1819 3084 
Q 2600 3084 3056 2656 
Q 3513 2228 3513 1497 
Q 3513 744 3044 326 
Q 2575 -91 1722 -91 
Q 1428 -91 1123 -41 
Q 819 9 494 109 
L 494 744 
Q 775 591 1075 516 
Q 1375 441 1709 441 
Q 2250 441 2565 725 
Q 2881 1009 2881 1497 
Q 2881 1984 2565 2268 
Q 2250 2553 1709 2553 
Q 1456 2553 1204 2497 
Q 953 2441 691 2322 
L 691 4666 
z
" transform="scale(0.015625)"/>
       </defs>
       <use xlink:href="#DejaVuSans-35"/>
       <use xlink:href="#DejaVuSans-30" x="63.623047"/>
      </g>
     </g>
    </g>
    <g id="xtick_7">
     <g id="line2d_7">
      <g>
       <use xlink:href="#mafca19ccbc" x="841.640739" y="533.43564" style="stroke: #000000; stroke-width: 0.8"/>
      </g>
     </g>
     <g id="text_7">
      <!-- 60 -->
      <g transform="translate(832.733239 551.073453) scale(0.14 -0.14)">
       <defs>
        <path id="DejaVuSans-36" d="M 2113 2584 
Q 1688 2584 1439 2293 
Q 1191 2003 1191 1497 
Q 1191 994 1439 701 
Q 1688 409 2113 409 
Q 2538 409 2786 701 
Q 3034 994 3034 1497 
Q 3034 2003 2786 2293 
Q 2538 2584 2113 2584 
z
M 3366 4563 
L 3366 3988 
Q 3128 4100 2886 4159 
Q 2644 4219 2406 4219 
Q 1781 4219 1451 3797 
Q 1122 3375 1075 2522 
Q 1259 2794 1537 2939 
Q 1816 3084 2150 3084 
Q 2853 3084 3261 2657 
Q 3669 2231 3669 1497 
Q 3669 778 3244 343 
Q 2819 -91 2113 -91 
Q 1303 -91 875 529 
Q 447 1150 447 2328 
Q 447 3434 972 4092 
Q 1497 4750 2381 4750 
Q 2619 4750 2861 4703 
Q 3103 4656 3366 4563 
z
" transform="scale(0.015625)"/>
       </defs>
       <use xlink:href="#DejaVuSans-36"/>
       <use xlink:href="#DejaVuSans-30" x="63.623047"/>
      </g>
     </g>
    </g>
    <g id="text_8">
     <!-- Time (s) -->
     <g transform="translate(451.835041 569.382671) scale(0.15 -0.15)">
      <defs>
       <path id="DejaVuSans-54" d="M -19 4666 
L 3928 4666 
L 3928 4134 
L 2272 4134 
L 2272 0 
L 1638 0 
L 1638 4134 
L -19 4134 
L -19 4666 
z
" transform="scale(0.015625)"/>
       <path id="DejaVuSans-69" d="M 603 3500 
L 1178 3500 
L 1178 0 
L 603 0 
L 603 3500 
z
M 603 4863 
L 1178 4863 
L 1178 4134 
L 603 4134 
L 603 4863 
z
" transform="scale(0.015625)"/>
       <path id="DejaVuSans-6d" d="M 3328 2828 
Q 3544 3216 3844 3400 
Q 4144 3584 4550 3584 
Q 5097 3584 5394 3201 
Q 5691 2819 5691 2113 
L 5691 0 
L 5113 0 
L 5113 2094 
Q 5113 2597 4934 2840 
Q 4756 3084 4391 3084 
Q 3944 3084 3684 2787 
Q 3425 2491 3425 1978 
L 3425 0 
L 2847 0 
L 2847 2094 
Q 2847 2600 2669 2842 
Q 2491 3084 2119 3084 
Q 1678 3084 1418 2786 
Q 1159 2488 1159 1978 
L 1159 0 
L 581 0 
L 581 3500 
L 1159 3500 
L 1159 2956 
Q 1356 3278 1631 3431 
Q 1906 3584 2284 3584 
Q 2666 3584 2933 3390 
Q 3200 3197 3328 2828 
z
" transform="scale(0.015625)"/>
       <path id="DejaVuSans-65" d="M 3597 1894 
L 3597 1613 
L 953 1613 
Q 991 1019 1311 708 
Q 1631 397 2203 397 
Q 2534 397 2845 478 
Q 3156 559 3463 722 
L 3463 178 
Q 3153 47 2828 -22 
Q 2503 -91 2169 -91 
Q 1331 -91 842 396 
Q 353 884 353 1716 
Q 353 2575 817 3079 
Q 1281 3584 2069 3584 
Q 2775 3584 3186 3129 
Q 3597 2675 3597 1894 
z
M 3022 2063 
Q 3016 2534 2758 2815 
Q 2500 3097 2075 3097 
Q 1594 3097 1305 2825 
Q 1016 2553 972 2059 
L 3022 2063 
z
" transform="scale(0.015625)"/>
       <path id="DejaVuSans-20" transform="scale(0.015625)"/>
       <path id="DejaVuSans-28" d="M 1984 4856 
Q 1566 4138 1362 3434 
Q 1159 2731 1159 2009 
Q 1159 1288 1364 580 
Q 1569 -128 1984 -844 
L 1484 -844 
Q 1016 -109 783 600 
Q 550 1309 550 2009 
Q 550 2706 781 3412 
Q 1013 4119 1484 4856 
L 1984 4856 
z
" transform="scale(0.015625)"/>
       <path id="DejaVuSans-73" d="M 2834 3397 
L 2834 2853 
Q 2591 2978 2328 3040 
Q 2066 3103 1784 3103 
Q 1356 3103 1142 2972 
Q 928 2841 928 2578 
Q 928 2378 1081 2264 
Q 1234 2150 1697 2047 
L 1894 2003 
Q 2506 1872 2764 1633 
Q 3022 1394 3022 966 
Q 3022 478 2636 193 
Q 2250 -91 1575 -91 
Q 1294 -91 989 -36 
Q 684 19 347 128 
L 347 722 
Q 666 556 975 473 
Q 1284 391 1588 391 
Q 1994 391 2212 530 
Q 2431 669 2431 922 
Q 2431 1156 2273 1281 
Q 2116 1406 1581 1522 
L 1381 1569 
Q 847 1681 609 1914 
Q 372 2147 372 2553 
Q 372 3047 722 3315 
Q 1072 3584 1716 3584 
Q 2034 3584 2315 3537 
Q 2597 3491 2834 3397 
z
" transform="scale(0.015625)"/>
       <path id="DejaVuSans-29" d="M 513 4856 
L 1013 4856 
Q 1481 4119 1714 3412 
Q 1947 2706 1947 2009 
Q 1947 1309 1714 600 
Q 1481 -109 1013 -844 
L 513 -844 
Q 928 -128 1133 580 
Q 1338 1288 1338 2009 
Q 1338 2731 1133 3434 
Q 928 4138 513 4856 
z
" transform="scale(0.015625)"/>
      </defs>
      <use xlink:href="#DejaVuSans-54"/>
      <use xlink:href="#DejaVuSans-69" x="57.958984"/>
      <use xlink:href="#DejaVuSans-6d" x="85.742188"/>
      <use xlink:href="#DejaVuSans-65" x="183.154297"/>
      <use xlink:href="#DejaVuSans-20" x="244.677734"/>
      <use xlink:href="#DejaVuSans-28" x="276.464844"/>
      <use xlink:href="#DejaVuSans-73" x="315.478516"/>
      <use xlink:href="#DejaVuSans-29" x="367.578125"/>
     </g>
    </g>
   </g>
   <g id="matplotlib.axis_2">
    <g id="ytick_1">
     <g id="line2d_8">
      <defs>
       <path id="md6368b6ed3" d="M 0 0 
L -3.5 0 
" style="stroke: #000000; stroke-width: 0.8"/>
      </defs>
      <g>
       <use xlink:href="#md6368b6ed3" x="78.24704" y="533.43564" style="stroke: #000000; stroke-width: 0.8"/>
      </g>
     </g>
     <g id="text_9">
      <!-- 0 -->
      <g transform="translate(62.33954 538.754546) scale(0.14 -0.14)">
       <use xlink:href="#DejaVuSans-30"/>
      </g>
     </g>
    </g>
    <g id="ytick_2">
     <g id="line2d_9">
      <g>
       <use xlink:href="#md6368b6ed3" x="78.24704" y="472.964135" style="stroke: #000000; stroke-width: 0.8"/>
      </g>
     </g>
     <g id="text_10">
      <!-- 10 -->
      <g transform="translate(53.43204 478.283041) scale(0.14 -0.14)">
       <use xlink:href="#DejaVuSans-31"/>
       <use xlink:href="#DejaVuSans-30" x="63.623047"/>
      </g>
     </g>
    </g>
    <g id="ytick_3">
     <g id="line2d_10">
      <g>
       <use xlink:href="#md6368b6ed3" x="78.24704" y="412.49263" style="stroke: #000000; stroke-width: 0.8"/>
      </g>
     </g>
     <g id="text_11">
      <!-- 20 -->
      <g transform="translate(53.43204 417.811536) scale(0.14 -0.14)">
       <use xlink:href="#DejaVuSans-32"/>
       <use xlink:href="#DejaVuSans-30" x="63.623047"/>
      </g>
     </g>
    </g>
    <g id="ytick_4">
     <g id="line2d_11">
      <g>
       <use xlink:href="#md6368b6ed3" x="78.24704" y="352.021124" style="stroke: #000000; stroke-width: 0.8"/>
      </g>
     </g>
     <g id="text_12">
      <!-- 30 -->
      <g transform="translate(53.43204 357.340031) scale(0.14 -0.14)">
       <use xlink:href="#DejaVuSans-33"/>
       <use xlink:href="#DejaVuSans-30" x="63.623047"/>
      </g>
     </g>
    </g>
    <g id="ytick_5">
     <g id="line2d_12">
      <g>
       <use xlink:href="#md6368b6ed3" x="78.24704" y="291.549619" style="stroke: #000000; stroke-width: 0.8"/>
      </g>
     </g>
     <g id="text_13">
      <!-- 40 -->
      <g transform="translate(53.43204 296.868525) scale(0.14 -0.14)">
       <use xlink:href="#DejaVuSans-34"/>
       <use xlink:href="#DejaVuSans-30" x="63.623047"/>
      </g>
     </g>
    </g>
    <g id="ytick_6">
     <g id="line2d_13">
      <g>
       <use xlink:href="#md6368b6ed3" x="78.24704" y="231.078114" style="stroke: #000000; stroke-width: 0.8"/>
      </g>
     </g>
     <g id="text_14">
      <!-- 50 -->
      <g transform="translate(53.43204 236.39702) scale(0.14 -0.14)">
       <use xlink:href="#DejaVuSans-35"/>
       <use xlink:href="#DejaVuSans-30" x="63.623047"/>
      </g>
     </g>
    </g>
    <g id="ytick_7">
     <g id="line2d_14">
      <g>
       <use xlink:href="#md6368b6ed3" x="78.24704" y="170.606609" style="stroke: #000000; stroke-width: 0.8"/>
      </g>
     </g>
     <g id="text_15">
      <!-- 60 -->
      <g transform="translate(53.43204 175.925515) scale(0.14 -0.14)">
       <use xlink:href="#DejaVuSans-36"/>
       <use xlink:href="#DejaVuSans-30" x="63.623047"/>
      </g>
     </g>
    </g>
    <g id="ytick_8">
     <g id="line2d_15">
      <g>
       <use xlink:href="#md6368b6ed3" x="78.24704" y="110.135104" style="stroke: #000000; stroke-width: 0.8"/>
      </g>
     </g>
     <g id="text_16">
      <!-- 70 -->
      <g transform="translate(53.43204 115.45401) scale(0.14 -0.14)">
       <defs>
        <path id="DejaVuSans-37" d="M 525 4666 
L 3525 4666 
L 3525 4397 
L 1831 0 
L 1172 0 
L 2766 4134 
L 525 4134 
L 525 4666 
z
" transform="scale(0.015625)"/>
       </defs>
       <use xlink:href="#DejaVuSans-37"/>
       <use xlink:href="#DejaVuSans-30" x="63.623047"/>
      </g>
     </g>
    </g>
    <g id="ytick_9">
     <g id="line2d_16">
      <g>
       <use xlink:href="#md6368b6ed3" x="78.24704" y="49.663598" style="stroke: #000000; stroke-width: 0.8"/>
      </g>
     </g>
     <g id="text_17">
      <!-- 80 -->
      <g transform="translate(53.43204 54.982505) scale(0.14 -0.14)">
       <defs>
        <path id="DejaVuSans-38" d="M 2034 2216 
Q 1584 2216 1326 1975 
Q 1069 1734 1069 1313 
Q 1069 891 1326 650 
Q 1584 409 2034 409 
Q 2484 409 2743 651 
Q 3003 894 3003 1313 
Q 3003 1734 2745 1975 
Q 2488 2216 2034 2216 
z
M 1403 2484 
Q 997 2584 770 2862 
Q 544 3141 544 3541 
Q 544 4100 942 4425 
Q 1341 4750 2034 4750 
Q 2731 4750 3128 4425 
Q 3525 4100 3525 3541 
Q 3525 3141 3298 2862 
Q 3072 2584 2669 2484 
Q 3125 2378 3379 2068 
Q 3634 1759 3634 1313 
Q 3634 634 3220 271 
Q 2806 -91 2034 -91 
Q 1263 -91 848 271 
Q 434 634 434 1313 
Q 434 1759 690 2068 
Q 947 2378 1403 2484 
z
M 1172 3481 
Q 1172 3119 1398 2916 
Q 1625 2713 2034 2713 
Q 2441 2713 2670 2916 
Q 2900 3119 2900 3481 
Q 2900 3844 2670 4047 
Q 2441 4250 2034 4250 
Q 1625 4250 1398 4047 
Q 1172 3844 1172 3481 
z
" transform="scale(0.015625)"/>
       </defs>
       <use xlink:href="#DejaVuSans-38"/>
       <use xlink:href="#DejaVuSans-30" x="63.623047"/>
      </g>
     </g>
    </g>
    <g id="text_18">
     <!-- Packets per Second -->
     <g transform="translate(46.312509 359.168949) rotate(-90) scale(0.15 -0.15)">
      <defs>
       <path id="DejaVuSans-50" d="M 1259 4147 
L 1259 2394 
L 2053 2394 
Q 2494 2394 2734 2622 
Q 2975 2850 2975 3272 
Q 2975 3691 2734 3919 
Q 2494 4147 2053 4147 
L 1259 4147 
z
M 628 4666 
L 2053 4666 
Q 2838 4666 3239 4311 
Q 3641 3956 3641 3272 
Q 3641 2581 3239 2228 
Q 2838 1875 2053 1875 
L 1259 1875 
L 1259 0 
L 628 0 
L 628 4666 
z
" transform="scale(0.015625)"/>
       <path id="DejaVuSans-61" d="M 2194 1759 
Q 1497 1759 1228 1600 
Q 959 1441 959 1056 
Q 959 750 1161 570 
Q 1363 391 1709 391 
Q 2188 391 2477 730 
Q 2766 1069 2766 1631 
L 2766 1759 
L 2194 1759 
z
M 3341 1997 
L 3341 0 
L 2766 0 
L 2766 531 
Q 2569 213 2275 61 
Q 1981 -91 1556 -91 
Q 1019 -91 701 211 
Q 384 513 384 1019 
Q 384 1609 779 1909 
Q 1175 2209 1959 2209 
L 2766 2209 
L 2766 2266 
Q 2766 2663 2505 2880 
Q 2244 3097 1772 3097 
Q 1472 3097 1187 3025 
Q 903 2953 641 2809 
L 641 3341 
Q 956 3463 1253 3523 
Q 1550 3584 1831 3584 
Q 2591 3584 2966 3190 
Q 3341 2797 3341 1997 
z
" transform="scale(0.015625)"/>
       <path id="DejaVuSans-63" d="M 3122 3366 
L 3122 2828 
Q 2878 2963 2633 3030 
Q 2388 3097 2138 3097 
Q 1578 3097 1268 2742 
Q 959 2388 959 1747 
Q 959 1106 1268 751 
Q 1578 397 2138 397 
Q 2388 397 2633 464 
Q 2878 531 3122 666 
L 3122 134 
Q 2881 22 2623 -34 
Q 2366 -91 2075 -91 
Q 1284 -91 818 406 
Q 353 903 353 1747 
Q 353 2603 823 3093 
Q 1294 3584 2113 3584 
Q 2378 3584 2631 3529 
Q 2884 3475 3122 3366 
z
" transform="scale(0.015625)"/>
       <path id="DejaVuSans-6b" d="M 581 4863 
L 1159 4863 
L 1159 1991 
L 2875 3500 
L 3609 3500 
L 1753 1863 
L 3688 0 
L 2938 0 
L 1159 1709 
L 1159 0 
L 581 0 
L 581 4863 
z
" transform="scale(0.015625)"/>
       <path id="DejaVuSans-74" d="M 1172 4494 
L 1172 3500 
L 2356 3500 
L 2356 3053 
L 1172 3053 
L 1172 1153 
Q 1172 725 1289 603 
Q 1406 481 1766 481 
L 2356 481 
L 2356 0 
L 1766 0 
Q 1100 0 847 248 
Q 594 497 594 1153 
L 594 3053 
L 172 3053 
L 172 3500 
L 594 3500 
L 594 4494 
L 1172 4494 
z
" transform="scale(0.015625)"/>
       <path id="DejaVuSans-70" d="M 1159 525 
L 1159 -1331 
L 581 -1331 
L 581 3500 
L 1159 3500 
L 1159 2969 
Q 1341 3281 1617 3432 
Q 1894 3584 2278 3584 
Q 2916 3584 3314 3078 
Q 3713 2572 3713 1747 
Q 3713 922 3314 415 
Q 2916 -91 2278 -91 
Q 1894 -91 1617 61 
Q 1341 213 1159 525 
z
M 3116 1747 
Q 3116 2381 2855 2742 
Q 2594 3103 2138 3103 
Q 1681 3103 1420 2742 
Q 1159 2381 1159 1747 
Q 1159 1113 1420 752 
Q 1681 391 2138 391 
Q 2594 391 2855 752 
Q 3116 1113 3116 1747 
z
" transform="scale(0.015625)"/>
       <path id="DejaVuSans-72" d="M 2631 2963 
Q 2534 3019 2420 3045 
Q 2306 3072 2169 3072 
Q 1681 3072 1420 2755 
Q 1159 2438 1159 1844 
L 1159 0 
L 581 0 
L 581 3500 
L 1159 3500 
L 1159 2956 
Q 1341 3275 1631 3429 
Q 1922 3584 2338 3584 
Q 2397 3584 2469 3576 
Q 2541 3569 2628 3553 
L 2631 2963 
z
" transform="scale(0.015625)"/>
       <path id="DejaVuSans-53" d="M 3425 4513 
L 3425 3897 
Q 3066 4069 2747 4153 
Q 2428 4238 2131 4238 
Q 1616 4238 1336 4038 
Q 1056 3838 1056 3469 
Q 1056 3159 1242 3001 
Q 1428 2844 1947 2747 
L 2328 2669 
Q 3034 2534 3370 2195 
Q 3706 1856 3706 1288 
Q 3706 609 3251 259 
Q 2797 -91 1919 -91 
Q 1588 -91 1214 -16 
Q 841 59 441 206 
L 441 856 
Q 825 641 1194 531 
Q 1563 422 1919 422 
Q 2459 422 2753 634 
Q 3047 847 3047 1241 
Q 3047 1584 2836 1778 
Q 2625 1972 2144 2069 
L 1759 2144 
Q 1053 2284 737 2584 
Q 422 2884 422 3419 
Q 422 4038 858 4394 
Q 1294 4750 2059 4750 
Q 2388 4750 2728 4690 
Q 3069 4631 3425 4513 
z
" transform="scale(0.015625)"/>
       <path id="DejaVuSans-6f" d="M 1959 3097 
Q 1497 3097 1228 2736 
Q 959 2375 959 1747 
Q 959 1119 1226 758 
Q 1494 397 1959 397 
Q 2419 397 2687 759 
Q 2956 1122 2956 1747 
Q 2956 2369 2687 2733 
Q 2419 3097 1959 3097 
z
M 1959 3584 
Q 2709 3584 3137 3096 
Q 3566 2609 3566 1747 
Q 3566 888 3137 398 
Q 2709 -91 1959 -91 
Q 1206 -91 779 398 
Q 353 888 353 1747 
Q 353 2609 779 3096 
Q 1206 3584 1959 3584 
z
" transform="scale(0.015625)"/>
       <path id="DejaVuSans-6e" d="M 3513 2113 
L 3513 0 
L 2938 0 
L 2938 2094 
Q 2938 2591 2744 2837 
Q 2550 3084 2163 3084 
Q 1697 3084 1428 2787 
Q 1159 2491 1159 1978 
L 1159 0 
L 581 0 
L 581 3500 
L 1159 3500 
L 1159 2956 
Q 1366 3272 1645 3428 
Q 1925 3584 2291 3584 
Q 2894 3584 3203 3211 
Q 3513 2838 3513 2113 
z
" transform="scale(0.015625)"/>
       <path id="DejaVuSans-64" d="M 2906 2969 
L 2906 4863 
L 3481 4863 
L 3481 0 
L 2906 0 
L 2906 525 
Q 2725 213 2448 61 
Q 2172 -91 1784 -91 
Q 1150 -91 751 415 
Q 353 922 353 1747 
Q 353 2572 751 3078 
Q 1150 3584 1784 3584 
Q 2172 3584 2448 3432 
Q 2725 3281 2906 2969 
z
M 947 1747 
Q 947 1113 1208 752 
Q 1469 391 1925 391 
Q 2381 391 2643 752 
Q 2906 1113 2906 1747 
Q 2906 2381 2643 2742 
Q 2381 3103 1925 3103 
Q 1469 3103 1208 2742 
Q 947 2381 947 1747 
z
" transform="scale(0.015625)"/>
      </defs>
      <use xlink:href="#DejaVuSans-50"/>
      <use xlink:href="#DejaVuSans-61" x="55.802734"/>
      <use xlink:href="#DejaVuSans-63" x="117.082031"/>
      <use xlink:href="#DejaVuSans-6b" x="172.0625"/>
      <use xlink:href="#DejaVuSans-65" x="226.347656"/>
      <use xlink:href="#DejaVuSans-74" x="287.871094"/>
      <use xlink:href="#DejaVuSans-73" x="327.080078"/>
      <use xlink:href="#DejaVuSans-20" x="379.179688"/>
      <use xlink:href="#DejaVuSans-70" x="410.966797"/>
      <use xlink:href="#DejaVuSans-65" x="474.443359"/>
      <use xlink:href="#DejaVuSans-72" x="535.966797"/>
      <use xlink:href="#DejaVuSans-20" x="577.080078"/>
      <use xlink:href="#DejaVuSans-53" x="608.867188"/>
      <use xlink:href="#DejaVuSans-65" x="672.34375"/>
      <use xlink:href="#DejaVuSans-63" x="733.867188"/>
      <use xlink:href="#DejaVuSans-6f" x="788.847656"/>
      <use xlink:href="#DejaVuSans-6e" x="850.029297"/>
      <use xlink:href="#DejaVuSans-64" x="913.408203"/>
     </g>
    </g>
   </g>
   <g id="line2d_17">
    <path d="M 78.24704 168.410643 
L 79.673121 209.726378 
L 81.359127 168.363319 
L 82.654325 177.014564 
L 83.951549 177.57136 
L 85.378091 209.831089 
L 88.23 137.908477 
L 89.655963 209.699632 
L 92.508671 138.074576 
L 93.804725 177.25011 
L 95.101304 236.734516 
L 96.78585 122.373439 
L 98.082064 177.293959 
L 99.508096 209.71527 
L 101.063127 137.614375 
L 102.3589 236.549972 
L 103.785167 155.824196 
L 105.342105 187.516219 
L 106.769065 156.007645 
L 107.934782 137.425596 
L 109.361169 101.915831 
L 110.787801 209.851253 
L 112.08342 177.130471 
L 113.249695 137.615378 
L 114.547233 177.657338 
L 116.231668 168.022807 
L 117.526967 177.042408 
L 118.952024 209.493897 
L 120.50672 137.529087 
L 121.801896 177.008559 
L 123.226744 209.446293 
L 124.525358 177.952229 
L 126.080514 187.120077 
L 127.506817 155.833584 
L 128.672677 137.474069 
L 130.099174 209.820707 
L 131.653015 186.82692 
L 132.949488 118.020297 
L 134.244766 177.036715 
L 135.606197 194.354423 
L 137.162716 187.423138 
L 138.459027 117.968312 
L 139.754904 177.201518 
L 141.117459 194.63414 
L 142.672368 187.064849 
L 144.356732 122.328915 
L 145.652174 177.081902 
L 147.078057 209.681306 
L 149.92736 137.412634 
L 151.223717 177.333541 
L 152.517764 176.697572 
L 154.071323 186.764039 
L 155.366588 117.632602 
L 156.66084 176.754322 
L 158.0849 209.26695 
L 159.638129 137.155202 
L 160.931937 176.631651 
L 162.357655 209.644105 
L 163.910947 137.17112 
L 165.012299 184.141105 
L 166.308735 177.355122 
L 167.605444 118.095822 
L 169.030187 209.4222 
L 170.584031 137.312145 
L 171.87896 176.940798 
L 173.175176 236.651361 
L 174.470353 177.009025 
L 175.895471 155.519492 
L 177.193209 177.712411 
L 178.487838 176.858126 
L 179.782458 176.855606 
L 181.335936 186.745697 
L 182.63049 117.404446 
L 184.056462 209.701666 
L 185.353275 177.458713 
L 186.520373 137.894045 
L 187.945014 209.399196 
L 188.980793 87.74616 
L 190.535161 186.944472 
L 191.959402 155.286831 
L 193.257944 177.932456 
L 194.811349 137.200302 
L 196.107451 236.625332 
L 197.793107 122.643834 
L 199.219301 209.751981 
L 200.773495 137.401439 
L 202.458255 168.093129 
L 203.754721 236.70884 
L 205.179733 155.491456 
L 206.736499 187.478203 
L 208.032581 177.257788 
L 209.716686 122.265609 
L 211.141606 209.462626 
L 212.436492 176.928637 
L 213.733884 177.617619 
L 215.288309 186.956954 
L 216.582691 117.349116 
L 218.009165 209.815563 
L 219.562473 137.175411 
L 220.857705 236.426077 
L 223.836656 117.56296 
L 224.873389 162.369559 
L 226.29727 209.226114 
L 227.721334 155.23989 
L 229.019248 177.760614 
L 231.493649 115.81221 
L 232.916597 209.013638 
L 234.214268 177.694031 
L 235.637703 209.12451 
L 237.064419 155.942991 
L 238.551775 119.604557 
L 241.14261 236.2864 
L 242.567874 155.558208 
L 243.862609 176.887164 
L 245.157823 177.019266 
L 246.712065 137.413454 
L 248.137639 209.611311 
L 249.432081 176.806612 
L 250.727613 177.106498 
L 252.023876 58.598299 
L 253.319528 177.139582 
L 254.614293 176.895432 
L 256.298863 168.051981 
L 257.981854 167.709265 
L 259.280007 177.826195 
L 260.963082 167.727468 
L 262.386649 209.154637 
L 264.071222 168.05276 
L 265.367551 177.325639 
L 267.05096 167.800159 
L 268.732409 167.373725 
L 270.027758 236.453004 
L 271.321328 117.087669 
L 272.615212 236.116651 
L 274.039503 155.300256 
L 275.335099 177.124264 
L 276.628482 176.514373 
L 278.052026 101.054242 
L 279.735012 167.708051 
L 281.03161 236.738851 
L 282.200145 138.380719 
L 283.624974 155.442874 
L 284.922784 177.732042 
L 286.478728 187.295464 
L 288.160344 167.410107 
L 289.45695 118.062781 
L 290.880066 209.051881 
L 292.432285 136.8975 
L 293.726472 176.736259 
L 295.020233 236.088295 
L 296.446261 155.7608 
L 297.998386 136.873332 
L 299.162431 136.856984 
L 300.588022 209.615001 
L 303.436264 136.991387 
L 304.732984 177.432995 
L 306.156693 209.187051 
L 307.708923 136.900263 
L 309.00254 176.579222 
L 310.299161 236.74422 
L 312.888329 117.770657 
L 314.182147 236.1014 
L 315.348213 137.544215 
L 316.641842 117.106895 
L 317.937429 177.121538 
L 319.166816 157.935025 
L 320.590229 209.119619 
L 322.012878 208.94538 
L 323.438962 101.824226 
L 324.733097 176.722018 
L 325.901479 204.180039 
L 327.503607 101.22689 
L 329.316618 193.937373 
L 330.610058 176.530306 
L 332.035884 209.668433 
L 333.463258 102.214078 
L 334.755912 176.313313 
L 336.182326 209.801886 
L 337.346929 203.111805 
L 339.029154 167.542751 
L 340.323176 176.690761 
L 341.74759 209.347366 
L 343.17094 155.050414 
L 344.403973 159.045192 
L 345.570307 137.635124 
L 347.124004 186.794745 
L 348.546612 154.852849 
L 349.841311 176.877132 
L 351.140366 178.072998 
L 352.69636 137.859447 
L 353.992165 177.181766 
L 355.285636 176.538921 
L 356.967098 167.376686 
L 358.262488 236.462067 
L 359.557899 177.073306 
L 360.725974 138.225092 
L 362.019394 176.524882 
L 363.315041 177.138133 
L 364.60932 176.761674 
L 366.291678 167.571648 
L 367.586882 177.016252 
L 369.015375 156.41255 
L 370.056489 90.030033 
L 371.739349 213.400292 
L 373.035063 177.156641 
L 374.327834 176.345585 
L 375.623097 117.632136 
L 377.306685 167.838877 
L 378.989801 213.448851 
L 380.283671 176.648833 
L 381.578496 117.491524 
L 383.001664 209.063812 
L 384.553636 136.834082 
L 385.848177 176.83399 
L 387.143095 176.937488 
L 388.698964 187.278729 
L 389.992366 117.033685 
L 391.677521 168.179061 
L 392.970794 235.976103 
L 394.268653 118.463828 
L 395.948459 167.015775 
L 397.633519 168.158292 
L 398.927955 176.805003 
L 400.349458 208.683653 
L 401.903652 137.401501 
L 403.58568 167.499771 
L 405.267061 167.359077 
L 406.562205 176.9999 
L 407.854799 176.296552 
L 409.278397 209.161726 
L 410.705595 209.979827 
L 412.130094 209.366757 
L 413.427909 118.449671 
L 414.721427 117.071173 
L 416.013939 176.274133 
L 417.699293 213.873802 
L 418.99435 117.565799 
L 420.288683 176.776719 
L 421.841235 136.982339 
L 423.331116 223.588393 
L 424.755032 101.166859 
L 426.049014 236.139132 
L 427.472682 155.134781 
L 429.025862 137.142538 
L 430.319767 176.658607 
L 431.616222 177.3603 
L 433.300161 167.915169 
L 434.723288 209.054337 
L 436.146681 209.115045 
L 437.444987 59.345538 
L 438.738761 236.091231 
L 440.15978 154.429546 
L 441.325809 203.515558 
L 442.748419 154.853356 
L 444.30094 136.974574 
L 445.593317 235.769924 
L 447.016462 154.995601 
L 448.183434 137.851511 
L 449.608033 209.38946 
L 450.900305 176.207932 
L 452.45738 187.546724 
L 453.752266 176.928766 
L 455.047884 177.130376 
L 456.34074 116.857775 
L 457.636265 177.104643 
L 458.931545 177.037489 
L 460.488849 187.597602 
L 461.781244 176.241514 
L 463.462912 121.669804 
L 464.88688 209.246145 
L 466.442153 137.675828 
L 467.735391 235.968202 
L 469.417406 121.754773 
L 470.714156 236.773679 
L 472.007234 116.929288 
L 473.301389 176.727562 
L 474.596525 176.997617 
L 476.14893 136.944985 
L 477.441196 176.206064 
L 479.124039 167.677018 
L 480.420041 177.235833 
L 481.713928 176.653685 
L 483.393751 167.019424 
L 484.688103 236.223995 
L 485.984997 118.155288 
L 487.667481 167.59905 
L 488.961599 176.717076 
L 490.384351 208.969027 
L 491.681019 177.418858 
L 493.10403 100.892034 
L 494.400161 236.6319 
L 495.693868 176.60394 
L 497.117135 155.028207 
L 498.279998 202.617368 
L 499.837223 187.580057 
L 501.00012 136.465185 
L 502.295534 177.074286 
L 503.847203 136.756802 
L 505.141399 176.7387 
L 506.566683 209.545255 
L 507.999745 103.925816 
L 509.289597 175.537596 
L 510.522408 221.387506 
L 512.206146 167.871609 
L 513.498144 116.58133 
L 514.925319 209.974492 
L 516.476484 136.627779 
L 518.160599 213.638672 
L 519.455793 117.609892 
L 520.877385 208.704309 
L 522.432089 187.019093 
L 523.724897 176.355938 
L 525.019501 117.42033 
L 526.313026 176.553914 
L 527.543796 158.356827 
L 528.838402 176.851772 
L 530.523321 168.127694 
L 531.944454 208.599301 
L 533.495003 136.470316 
L 534.791051 236.612882 
L 537.768823 117.825716 
L 539.190122 208.637197 
L 540.616811 155.935797 
L 542.22865 151.564801 
L 543.652248 155.116267 
L 544.947174 176.939664 
L 546.500318 186.671345 
L 547.925493 209.520697 
L 549.219012 117.071554 
L 552.321207 208.618151 
L 553.616941 177.162043 
L 554.917181 178.39697 
L 556.33953 154.783727 
L 557.636734 177.565957 
L 559.061644 155.464465 
L 560.35494 176.490661 
L 561.905933 136.583766 
L 563.331842 209.68743 
L 564.883882 136.85172 
L 566.308296 209.347502 
L 567.600879 176.293402 
L 569.155163 186.925664 
L 570.450228 176.978224 
L 571.613802 136.696124 
L 572.78268 138.496552 
L 574.487968 127.373306 
L 576.185271 170.793073 
L 577.865484 167.104639 
L 579.291249 209.654515 
L 580.454321 202.676686 
L 581.74915 176.913282 
L 583.041098 116.565209 
L 584.726383 213.860615 
L 586.019087 176.327007 
L 587.314859 117.795627 
L 588.738662 209.208284 
L 591.593263 138.806614 
L 592.888258 176.9587 
L 594.310934 208.951735 
L 595.604007 176.428826 
L 596.896419 176.246395 
L 598.452738 187.3788 
L 599.745787 176.422281 
L 600.91884 139.902397 
L 602.340739 154.663815 
L 603.767314 209.838526 
L 605.190342 100.897186 
L 606.483786 236.015576 
L 607.779713 177.215105 
L 609.339568 89.51398 
L 610.633554 236.139921 
L 612.314652 121.530382 
L 613.613526 237.258708 
L 615.299228 168.297397 
L 616.719557 154.24552 
L 618.270402 186.15725 
L 619.565876 177.09049 
L 621.247424 121.640521 
L 622.668215 208.521104 
L 623.841284 205.495479 
L 625.136451 177.006045 
L 626.559107 154.865613 
L 627.857907 178.003138 
L 629.412883 137.600652 
L 630.706364 236.023796 
L 631.933673 157.299273 
L 633.361014 156.108233 
L 634.79202 210.840386 
L 636.213966 154.676626 
L 637.895282 167.344827 
L 639.192205 118.164353 
L 640.745035 186.601189 
L 642.167964 154.93837 
L 643.461349 176.514875 
L 645.017671 137.942849 
L 646.440152 208.907158 
L 647.990465 186.038051 
L 649.674531 122.256252 
L 650.968304 236.090909 
L 652.394054 155.687317 
L 653.944271 136.385085 
L 655.24279 177.926444 
L 656.535881 176.433951 
L 657.828997 176.440822 
L 659.12143 176.25214 
L 660.807395 213.989568 
L 662.487888 121.381875 
L 663.782383 236.256853 
L 665.206293 155.198976 
L 666.505525 178.121374 
L 668.064868 188.049896 
L 669.357847 176.402973 
L 671.944322 136.958918 
L 673.370516 209.751976 
L 674.799175 102.602071 
L 676.095955 177.449771 
L 677.390206 176.753694 
L 678.556788 137.71924 
L 679.978707 208.778927 
L 682.830903 138.288667 
L 684.51757 168.506422 
L 685.807122 175.454101 
L 687.230856 209.192612 
L 688.524119 176.481496 
L 689.817386 176.482683 
L 691.159877 132.259685 
L 693.880675 176.60142 
L 695.302031 208.650094 
L 696.856339 137.430457 
L 698.276656 208.412705 
L 699.832833 187.34697 
L 701.12738 117.402295 
L 702.548951 208.699374 
L 704.104878 137.842445 
L 705.528453 209.156466 
L 706.829174 178.528033 
L 708.383548 137.447225 
L 709.681883 177.875795 
L 710.974886 235.914153 
L 712.268734 117.177304 
L 713.821518 137.041614 
L 715.504466 167.700027 
L 716.926862 208.887605 
L 718.093992 203.826674 
L 719.776862 121.963923 
L 721.202352 209.592099 
L 722.363521 135.874555 
L 723.659524 177.236266 
L 725.079782 208.399209 
L 726.50679 102.103506 
L 727.928862 208.813809 
L 730.778208 137.891457 
L 732.071832 176.581054 
L 733.365572 176.613278 
L 734.787922 208.877101 
L 736.085742 177.734839 
L 737.255051 138.642021 
L 738.553842 178.000801 
L 739.847739 176.656242 
L 741.402345 137.506413 
L 743.085677 167.783282 
L 744.378341 176.31603 
L 745.801308 209.018007 
L 747.35427 137.087035 
L 748.651053 236.78125 
L 749.944878 176.63657 
L 751.623874 166.838903 
L 752.793252 72.870342 
L 754.086436 176.4597 
L 755.767318 213.023564 
L 757.445872 120.905728 
L 758.74104 177.006508 
L 760.034833 176.627833 
L 761.334107 178.132668 
L 763.015251 213.073477 
L 764.309186 176.666956 
L 765.988167 121.010707 
L 767.671118 213.417555 
L 769.094354 155.019906 
L 770.268269 140.191008 
L 771.56169 236.01009 
L 772.857934 117.946731 
L 774.149176 175.922838 
L 775.836266 168.597735 
L 777.386765 136.457521 
L 778.679548 176.348846 
L 779.969575 235.227704 
L 781.655993 168.452514 
L 782.95027 176.76112 
L 784.369667 153.996412 
L 785.662676 176.411296 
L 787.217098 186.956429 
L 788.51387 118.115745 
L 789.804157 235.287865 
L 791.103779 119.026687 
L 792.394132 175.676365 
L 793.694209 178.352454 
L 795.246512 136.918701 
L 796.537568 175.871156 
L 797.834936 177.611048 
L 799.51351 166.746793 
L 800.938974 209.586347 
L 802.102549 136.696527 
L 803.40031 177.718654 
L 804.691677 175.957266 
L 805.986189 176.825988 
L 807.282805 177.404332 
L 808.578103 177.042422 
L 809.870112 176.134792 
L 811.161528 175.970917 
L 812.715077 137.236919 
L 814.00844 235.99673 
L 815.30575 177.594985 
L 816.992143 122.823514 
L 818.412343 208.385995 
L 819.967714 187.167772 
L 821.6492 121.625081 
L 824.752804 208.32629 
L 825.916199 136.63505 
L 827.209863 176.592173 
L 828.512399 179.022624 
L 829.805885 176.542934 
L 831.09961 176.609035 
L 832.390993 56.803979 
L 833.813873 263.070889 
L 835.107519 117.11239 
L 836.530289 208.973007 
L 837.95422 209.23771 
L 839.511639 187.623013 
L 840.803288 176.035626 
L 842.095441 176.17471 
L 843.650372 137.589051 
L 844.949309 178.040717 
L 846.630805 121.627527 
L 847.925821 236.376491 
L 847.925821 236.376491 
" clip-path="url(#pe4eeb38153)" style="fill: none; stroke: #1f77b4; stroke-width: 1.5; stroke-linecap: square"/>
   </g>
   <g id="line2d_18">
    <path d="M 78.24704 171.346004 
L 886.40976 171.346004 
" clip-path="url(#pe4eeb38153)" style="fill: none; stroke-dasharray: 5.55,2.4; stroke-dashoffset: 0; stroke: #0000ff; stroke-width: 1.5"/>
   </g>
   <g id="line2d_19">
    <path d="M 78.24704 350.923924 
L 79.673069 317.621505 
L 81.359114 396.536717 
L 82.654263 355.218385 
L 83.951457 296.187407 
L 85.378007 371.634139 
L 88.229984 335.677496 
L 89.655868 371.558737 
L 90.951682 355.309845 
L 92.508574 385.180143 
L 93.804615 355.341071 
L 95.1012 355.415811 
L 96.785729 350.739383 
L 98.082046 296.026813 
L 99.507979 371.564266 
L 101.063106 335.537143 
L 102.358877 414.68126 
L 103.785033 317.640847 
L 105.342083 385.195153 
L 106.768971 317.751508 
L 107.934638 335.422109 
L 109.361145 317.693902 
L 110.787768 371.642477 
L 112.083302 355.271387 
L 113.249666 335.540369 
L 114.547084 414.832003 
L 116.231546 305.056292 
L 117.526807 355.233776 
L 118.951986 371.478563 
L 120.506587 335.470305 
L 121.801859 355.235395 
L 123.226572 371.425535 
L 124.525318 355.712129 
L 126.080381 385.005752 
L 127.506777 317.677002 
L 128.672639 335.455189 
L 130.099045 425.557161 
L 131.65297 335.384158 
L 132.949438 355.399744 
L 134.244638 295.822199 
L 135.606139 363.903674 
L 137.162659 385.144762 
L 138.458882 355.366065 
L 139.754855 295.963786 
L 141.117401 364.033776 
L 142.672249 384.985164 
L 144.356676 305.051572 
L 145.652108 355.257441 
L 147.077937 371.552358 
L 149.927292 335.423733 
L 151.223587 355.375966 
L 152.5177 355.075871 
L 154.071252 384.861369 
L 155.366461 295.823623 
L 156.660775 355.103531 
L 158.084829 371.35058 
L 159.638008 384.825707 
L 160.931866 295.575523 
L 162.357341 371.512244 
L 163.910871 384.859275 
L 165.011994 323.815316 
L 166.308642 355.424357 
L 167.604858 355.365144 
L 169.029746 317.448773 
L 170.583904 335.413902 
L 171.878874 355.193837 
L 173.17509 414.722006 
L 174.470219 355.215582 
L 175.894873 317.413391 
L 177.19311 355.64227 
L 178.48765 355.13457 
L 179.782363 355.158536 
L 181.335836 384.853754 
L 182.630293 355.123269 
L 184.056364 371.579819 
L 185.353176 296.117523 
L 186.520187 335.650166 
L 187.944912 425.4298 
L 188.980692 310.591179 
L 190.534965 335.428507 
L 191.959297 317.364574 
L 193.257153 355.590149 
L 194.81075 384.86563 
L 196.10735 355.417902 
L 197.792319 350.787123 
L 199.218516 317.647054 
L 200.772871 335.438901 
L 202.458138 396.473517 
L 203.753848 355.295518 
L 205.178898 317.473287 
L 206.735856 385.186476 
L 208.032467 355.419342 
L 209.715843 304.908886 
L 211.140878 371.46218 
L 212.435829 355.191298 
L 213.733752 355.59933 
L 215.28734 384.864804 
L 216.582238 295.7666 
L 218.00826 425.528113 
L 219.561997 285.841261 
L 220.856785 414.591104 
L 222.541121 350.718465 
L 223.8359 355.16754 
L 224.872586 310.785819 
L 226.296892 371.379257 
L 227.721197 317.360374 
L 229.018206 355.474009 
L 230.571528 384.839381 
L 231.492522 282.817651 
L 232.916435 371.334541 
L 234.213105 355.427534 
L 235.637156 371.350189 
L 237.063053 317.601669 
L 238.551179 378.329199 
L 239.84695 295.926812 
L 241.141993 414.614438 
L 242.566842 317.44295 
L 243.862022 355.22269 
L 245.15694 355.186562 
L 246.711176 384.926842 
L 248.137145 317.61243 
L 249.431925 355.167729 
L 250.726414 414.563563 
L 252.02279 296.037568 
L 253.318599 295.93382 
L 254.614128 355.270705 
L 256.297597 350.624299 
L 257.981184 350.63717 
L 259.27877 414.847323 
L 260.962184 350.61842 
L 262.386486 317.359968 
L 264.070013 350.630611 
L 265.366432 355.393097 
L 267.050033 350.638717 
L 268.732231 396.223583 
L 270.026613 355.112812 
L 271.320312 355.018669 
L 272.614148 355.037651 
L 274.03932 317.491714 
L 275.333817 355.128669 
L 276.627704 355.044683 
L 278.050809 317.178138 
L 279.734205 396.321191 
L 281.030369 355.358056 
L 282.199304 335.975633 
L 283.623951 317.412291 
L 284.921723 414.864342 
L 286.478077 335.693184 
L 288.160153 350.473019 
L 289.455589 295.865408 
L 290.878823 371.257213 
L 292.431132 335.177918 
L 293.72607 355.189482 
L 295.019826 414.496248 
L 296.444937 371.470871 
L 297.99752 285.657275 
L 299.161332 335.106444 
L 300.586885 425.492616 
L 301.882954 295.981366 
L 303.436068 335.280747 
L 304.731537 355.262435 
L 306.15539 371.32772 
L 307.707827 384.754735 
L 309.002158 355.105794 
L 310.297665 355.26769 
L 311.591713 355.066808 
L 312.886932 355.228003 
L 314.181208 355.098207 
L 315.346797 335.408948 
L 316.640892 295.619114 
L 317.936208 355.241432 
L 319.165581 345.683191 
L 320.589417 371.32581 
L 322.012662 371.258434 
L 323.437398 317.425805 
L 324.731696 355.101215 
L 325.90029 401.757277 
L 327.503376 293.463179 
L 329.315012 406.027159 
L 330.609028 295.60457 
L 332.034453 425.482913 
L 333.461892 263.93448 
L 334.755685 355.031645 
L 336.180684 371.458155 
L 337.345468 401.326585 
L 339.02766 350.485533 
L 340.322951 355.237974 
L 341.74605 371.241855 
L 343.169663 317.255342 
L 344.403726 346.39671 
L 345.568632 401.340366 
L 347.122466 335.372616 
L 348.546242 371.318953 
L 349.839694 295.500901 
L 351.139096 355.801746 
L 352.696117 335.777989 
L 353.990308 355.086616 
L 355.284311 355.060503 
L 356.966847 350.523049 
L 358.260695 414.504662 
L 359.556323 355.284354 
L 360.724561 335.857932 
L 362.019145 355.140657 
L 363.312945 355.032566 
L 364.608118 355.221743 
L 366.290233 350.477202 
L 367.585156 355.187335 
L 369.013403 317.95682 
L 370.055166 385.725815 
L 371.73785 350.539166 
L 373.033594 355.300229 
L 374.327563 355.055908 
L 375.622647 295.800821 
L 377.30501 396.237023 
L 378.989273 350.710604 
L 380.283215 355.052189 
L 381.576983 295.559008 
L 383.001133 371.361588 
L 384.55336 335.167448 
L 385.846428 354.931688 
L 387.141615 355.223689 
L 388.697217 385.057129 
L 389.992093 295.762702 
L 391.675671 350.636181 
L 392.969481 414.501221 
L 394.266878 355.527172 
L 395.948001 350.369312 
L 397.631635 350.642294 
L 398.926366 295.735971 
L 400.349174 371.208595 
L 401.90172 335.208265 
L 403.583826 396.216143 
L 405.266771 350.567431 
L 406.560661 355.045038 
L 407.85452 295.575729 
L 409.277728 371.254232 
L 410.705007 371.716949 
L 412.128481 371.284565 
L 413.425838 355.521727 
L 414.719952 355.075948 
L 416.013647 355.018119 
L 417.697301 350.644406 
L 418.992774 295.872184 
L 420.288199 355.256337 
L 421.840705 335.203237 
L 423.330598 378.513182 
L 424.753387 317.130176 
L 426.046852 414.469502 
L 427.471232 317.37173 
L 429.025553 384.934877 
L 430.319465 295.585466 
L 431.614453 355.196287 
L 433.298113 350.645092 
L 434.72158 425.334415 
L 436.146375 317.434718 
L 437.44288 355.404809 
L 438.736649 355.0284 
L 440.159465 317.134182 
L 441.323471 401.238271 
L 442.746852 317.220037 
L 444.298973 384.724424 
L 445.592992 355.062776 
L 447.016122 317.181949 
L 448.181045 335.295585 
L 449.606347 425.473635 
L 450.899977 295.533586 
L 452.455171 385.018292 
L 453.750538 355.248454 
L 455.045702 355.220393 
L 456.339297 295.5274 
L 457.635692 355.389601 
L 458.929663 355.056258 
L 460.486561 385.180669 
L 461.780551 355.058907 
L 463.462427 304.705031 
L 464.886528 425.382507 
L 466.439703 285.751804 
L 467.733277 414.479546 
L 469.416645 350.613388 
L 470.712084 355.25827 
L 472.005414 295.478581 
L 473.300487 355.207985 
L 474.59435 355.04131 
L 476.146922 384.767589 
L 477.44057 295.536998 
L 479.123639 350.580966 
L 480.417727 414.526725 
L 481.711978 355.094807 
L 483.393357 304.637456 
L 484.6872 414.504235 
L 485.982778 295.891533 
L 487.665495 350.542625 
L 488.959358 355.041236 
L 490.382227 425.289029 
L 491.680615 296.405339 
L 493.103541 317.151004 
L 494.397724 414.535537 
L 495.691507 355.030235 
L 497.115103 317.252656 
L 498.279615 401.295699 
L 499.833924 335.433212 
L 500.998173 401.265752 
L 502.293197 295.789836 
L 503.84515 335.132556 
L 505.140415 414.634791 
L 506.564212 317.283227 
L 507.997362 318.694023 
L 509.289183 414.318019 
L 510.520207 345.935025 
L 512.204049 350.664806 
L 513.497752 295.547187 
L 514.922159 371.39081 
L 516.474499 335.181935 
L 518.158206 396.346586 
L 519.453665 295.869566 
L 520.876971 425.322137 
L 522.428965 335.137766 
L 523.722503 354.996543 
L 525.017369 355.179422 
L 526.312607 355.230676 
L 527.540798 282.858099 
L 528.836319 414.658337 
L 530.520879 350.742725 
L 531.942251 371.04479 
L 533.494575 285.615976 
L 534.787988 414.464713 
L 536.47048 350.518233 
L 537.766442 295.961756 
L 539.189707 371.260716 
L 540.613953 371.372473 
L 542.226359 342.567451 
L 543.649695 371.26879 
L 544.944955 295.833026 
L 546.499852 384.989989 
L 547.922378 371.176412 
L 549.21612 355.024738 
L 550.897707 304.665799 
L 552.320561 371.213836 
L 553.614327 355.028042 
L 554.914576 355.917353 
L 556.339115 371.405789 
L 557.634104 355.196539 
L 559.058924 317.438429 
L 560.352616 414.490354 
L 561.905489 285.703556 
L 563.328412 371.221808 
L 564.881236 335.243807 
L 566.305939 371.424366 
L 567.600445 355.130015 
L 569.152454 384.713676 
L 570.447677 355.228616 
L 571.613307 335.415712 
L 572.778691 335.374106 
L 574.485218 308.009179 
L 576.182849 352.149404 
L 577.86501 350.482224 
L 579.287901 371.218067 
L 580.45161 401.204515 
L 581.746734 355.21509 
L 583.040617 295.580058 
L 584.722922 396.232359 
L 586.016691 355.028324 
L 587.311909 355.227931 
L 588.736291 317.371985 
L 590.030267 355.056965 
L 591.590856 336.229838 
L 592.88575 355.183385 
L 594.308233 371.171599 
L 595.6019 355.014233 
L 596.895916 355.062413 
L 598.449191 384.834927 
L 599.742951 355.027047 
L 600.916283 336.715748 
L 602.340249 317.308864 
L 603.764354 371.356488 
L 605.187764 371.277209 
L 606.483275 355.26822 
L 607.776746 354.987263 
L 609.336636 286.817983 
L 610.630943 414.546876 
L 612.314112 350.591824 
L 613.61047 355.384701 
L 615.296298 350.880082 
L 616.716894 370.956094 
L 618.269866 335.262635 
L 619.562796 354.912563 
L 621.244737 350.45833 
L 622.667664 317.15108 
L 623.838178 401.97324 
L 625.133424 355.231849 
L 626.55641 317.160092 
L 627.857363 356.013478 
L 629.409734 335.185957 
L 630.703641 414.510148 
L 631.933116 345.698735 
L 633.357832 317.422656 
L 634.788929 372.148292 
L 636.211241 371.15211 
L 637.894731 350.626622 
L 639.188443 295.548794 
L 640.741953 384.857388 
L 642.165186 371.257096 
L 643.460808 295.899416 
L 646.437379 371.218011 
L 647.989906 384.763258 
L 649.671365 350.405842 
L 650.965209 355.038798 
L 652.391249 317.623179 
L 653.943725 335.199286 
L 655.23899 355.234397 
L 656.532747 355.026724 
L 657.826169 414.465583 
L 659.12086 355.155398 
L 660.802961 350.475626 
L 662.485038 350.473048 
L 663.779091 355.067532 
L 665.203409 317.362304 
L 666.50492 415.20495 
L 668.060639 335.612583 
L 669.354536 355.045997 
L 670.779389 371.441523 
L 671.943748 269.121043 
L 673.367117 371.272651 
L 674.798612 318.445609 
L 676.092033 354.980294 
L 677.387294 355.23383 
L 678.553189 335.460807 
L 679.975758 371.181432 
L 682.829151 336.025336 
L 684.512507 350.612079 
L 685.805913 354.97823 
L 687.229219 371.265437 
L 688.522548 414.45706 
L 689.816149 295.528345 
L 691.158603 361.498374 
L 692.582052 317.230363 
L 693.876872 355.173139 
L 695.300233 371.2717 
L 696.852324 384.721599 
L 698.275373 317.16957 
L 699.827722 384.746272 
L 701.123054 295.846147 
L 702.547665 371.414095 
L 704.100223 384.766226 
L 705.524192 317.309341 
L 706.827861 415.400657 
L 708.382208 335.437927 
L 709.67717 355.192764 
L 710.970529 354.971778 
L 712.264719 355.086404 
L 713.819656 286.032386 
L 715.502785 350.587405 
L 716.925527 371.2012 
L 718.089243 401.205316 
L 719.772446 304.885368 
L 721.196913 371.397592 
L 722.361651 335.264247 
L 723.655342 355.017574 
L 725.07847 371.24517 
L 726.502558 317.327447 
L 727.927268 371.425271 
L 730.773289 335.203008 
L 732.06734 414.52333 
L 733.361325 295.598997 
L 734.785951 371.415692 
L 736.084072 414.896214 
L 737.253691 336.091025 
L 738.548978 355.23748 
L 739.843981 355.198413 
L 741.398033 285.891505 
L 743.081497 350.623762 
L 744.376651 355.219248 
L 745.799951 425.321695 
L 747.35248 335.20608 
L 748.646461 355.057635 
L 749.940635 355.084102 
L 751.622471 350.446857 
L 752.787457 269.263347 
L 754.081723 355.096869 
L 755.763107 396.157147 
L 757.444479 304.636477 
L 758.739652 414.626446 
L 761.328973 295.876082 
L 763.010959 396.206288 
L 764.304518 354.999344 
L 765.986438 350.456014 
L 767.66971 350.602999 
L 769.092951 317.198787 
L 770.266541 402.317784 
L 771.560244 355.019316 
L 772.854247 295.60214 
L 774.147782 354.996108 
L 775.829486 350.432485 
L 777.381831 335.182674 
L 778.67495 414.437648 
L 779.968171 354.952707 
L 781.649965 350.442297 
L 782.944316 355.108609 
L 784.367981 317.263205 
L 785.661236 414.450151 
L 787.215255 335.39622 
L 788.509317 355.06874 
L 789.802708 354.9762 
L 791.097602 355.183314 
L 792.39269 295.801542 
L 793.68848 355.306478 
L 795.241554 335.275725 
L 796.536094 355.134531 
L 797.830229 414.531105 
L 799.512091 304.703299 
L 800.936562 371.398028 
L 802.100697 335.161525 
L 803.395631 414.604406 
L 805.984341 295.750406 
L 807.277918 414.479741 
L 808.57192 295.602042 
L 811.159655 414.518597 
L 812.713157 335.330199 
L 814.006898 355.024475 
L 815.300903 355.060964 
L 816.985747 305.107972 
L 818.410853 371.470248 
L 819.962825 384.71016 
L 821.646744 350.67326 
L 823.327566 304.561604 
L 824.75062 371.236781 
L 825.914648 401.240693 
L 827.208302 295.538175 
L 829.800661 414.515359 
L 831.094796 295.626456 
L 832.389512 295.733217 
L 833.812345 425.286246 
L 835.10558 295.46105 
L 836.52874 425.311093 
L 837.952268 317.242417 
L 839.50484 384.767623 
L 840.798563 355.021987 
L 842.09391 355.24565 
L 843.647632 335.358316 
L 844.942453 355.173265 
L 846.625847 304.911425 
L 847.92105 414.629134 
L 847.92105 414.629134 
" clip-path="url(#pe4eeb38153)" style="fill: none; stroke: #ff7f0e; stroke-width: 1.5; stroke-linecap: square"/>
   </g>
   <g id="line2d_20">
    <path d="M 78.24704 352.231218 
L 886.40976 352.231218 
" clip-path="url(#pe4eeb38153)" style="fill: none; stroke-dasharray: 5.55,2.4; stroke-dashoffset: 0; stroke: #ffa500; stroke-width: 1.5"/>
   </g>
   <g id="patch_3">
    <path d="M 78.24704 533.43564 
L 78.24704 38.36632 
" style="fill: none; stroke: #000000; stroke-width: 0.8; stroke-linejoin: miter; stroke-linecap: square"/>
   </g>
   <g id="patch_4">
    <path d="M 886.40976 533.43564 
L 886.40976 38.36632 
" style="fill: none; stroke: #000000; stroke-width: 0.8; stroke-linejoin: miter; stroke-linecap: square"/>
   </g>
   <g id="patch_5">
    <path d="M 78.24704 533.43564 
L 886.40976 533.43564 
" style="fill: none; stroke: #000000; stroke-width: 0.8; stroke-linejoin: miter; stroke-linecap: square"/>
   </g>
   <g id="patch_6">
    <path d="M 78.24704 38.36632 
L 886.40976 38.36632 
" style="fill: none; stroke: #000000; stroke-width: 0.8; stroke-linejoin: miter; stroke-linecap: square"/>
   </g>
   <g id="text_19">
    <!-- Observed and Filtered Packet Rates -->
    <g transform="translate(333.206087 32.36632) scale(0.168 -0.168)">
     <defs>
      <path id="DejaVuSans-4f" d="M 2522 4238 
Q 1834 4238 1429 3725 
Q 1025 3213 1025 2328 
Q 1025 1447 1429 934 
Q 1834 422 2522 422 
Q 3209 422 3611 934 
Q 4013 1447 4013 2328 
Q 4013 3213 3611 3725 
Q 3209 4238 2522 4238 
z
M 2522 4750 
Q 3503 4750 4090 4092 
Q 4678 3434 4678 2328 
Q 4678 1225 4090 567 
Q 3503 -91 2522 -91 
Q 1538 -91 948 565 
Q 359 1222 359 2328 
Q 359 3434 948 4092 
Q 1538 4750 2522 4750 
z
" transform="scale(0.015625)"/>
      <path id="DejaVuSans-62" d="M 3116 1747 
Q 3116 2381 2855 2742 
Q 2594 3103 2138 3103 
Q 1681 3103 1420 2742 
Q 1159 2381 1159 1747 
Q 1159 1113 1420 752 
Q 1681 391 2138 391 
Q 2594 391 2855 752 
Q 3116 1113 3116 1747 
z
M 1159 2969 
Q 1341 3281 1617 3432 
Q 1894 3584 2278 3584 
Q 2916 3584 3314 3078 
Q 3713 2572 3713 1747 
Q 3713 922 3314 415 
Q 2916 -91 2278 -91 
Q 1894 -91 1617 61 
Q 1341 213 1159 525 
L 1159 0 
L 581 0 
L 581 4863 
L 1159 4863 
L 1159 2969 
z
" transform="scale(0.015625)"/>
      <path id="DejaVuSans-76" d="M 191 3500 
L 800 3500 
L 1894 563 
L 2988 3500 
L 3597 3500 
L 2284 0 
L 1503 0 
L 191 3500 
z
" transform="scale(0.015625)"/>
      <path id="DejaVuSans-46" d="M 628 4666 
L 3309 4666 
L 3309 4134 
L 1259 4134 
L 1259 2759 
L 3109 2759 
L 3109 2228 
L 1259 2228 
L 1259 0 
L 628 0 
L 628 4666 
z
" transform="scale(0.015625)"/>
      <path id="DejaVuSans-6c" d="M 603 4863 
L 1178 4863 
L 1178 0 
L 603 0 
L 603 4863 
z
" transform="scale(0.015625)"/>
      <path id="DejaVuSans-52" d="M 2841 2188 
Q 3044 2119 3236 1894 
Q 3428 1669 3622 1275 
L 4263 0 
L 3584 0 
L 2988 1197 
Q 2756 1666 2539 1819 
Q 2322 1972 1947 1972 
L 1259 1972 
L 1259 0 
L 628 0 
L 628 4666 
L 2053 4666 
Q 2853 4666 3247 4331 
Q 3641 3997 3641 3322 
Q 3641 2881 3436 2590 
Q 3231 2300 2841 2188 
z
M 1259 4147 
L 1259 2491 
L 2053 2491 
Q 2509 2491 2742 2702 
Q 2975 2913 2975 3322 
Q 2975 3731 2742 3939 
Q 2509 4147 2053 4147 
L 1259 4147 
z
" transform="scale(0.015625)"/>
     </defs>
     <use xlink:href="#DejaVuSans-4f"/>
     <use xlink:href="#DejaVuSans-62" x="78.710938"/>
     <use xlink:href="#DejaVuSans-73" x="142.1875"/>
     <use xlink:href="#DejaVuSans-65" x="194.287109"/>
     <use xlink:href="#DejaVuSans-72" x="255.810547"/>
     <use xlink:href="#DejaVuSans-76" x="296.923828"/>
     <use xlink:href="#DejaVuSans-65" x="356.103516"/>
     <use xlink:href="#DejaVuSans-64" x="417.626953"/>
     <use xlink:href="#DejaVuSans-20" x="481.103516"/>
     <use xlink:href="#DejaVuSans-61" x="512.890625"/>
     <use xlink:href="#DejaVuSans-6e" x="574.169922"/>
     <use xlink:href="#DejaVuSans-64" x="637.548828"/>
     <use xlink:href="#DejaVuSans-20" x="701.025391"/>
     <use xlink:href="#DejaVuSans-46" x="732.8125"/>
     <use xlink:href="#DejaVuSans-69" x="783.082031"/>
     <use xlink:href="#DejaVuSans-6c" x="810.865234"/>
     <use xlink:href="#DejaVuSans-74" x="838.648438"/>
     <use xlink:href="#DejaVuSans-65" x="877.857422"/>
     <use xlink:href="#DejaVuSans-72" x="939.380859"/>
     <use xlink:href="#DejaVuSans-65" x="978.244141"/>
     <use xlink:href="#DejaVuSans-64" x="1039.767578"/>
     <use xlink:href="#DejaVuSans-20" x="1103.244141"/>
     <use xlink:href="#DejaVuSans-50" x="1135.03125"/>
     <use xlink:href="#DejaVuSans-61" x="1190.833984"/>
     <use xlink:href="#DejaVuSans-63" x="1252.113281"/>
     <use xlink:href="#DejaVuSans-6b" x="1307.09375"/>
     <use xlink:href="#DejaVuSans-65" x="1361.378906"/>
     <use xlink:href="#DejaVuSans-74" x="1422.902344"/>
     <use xlink:href="#DejaVuSans-20" x="1462.111328"/>
     <use xlink:href="#DejaVuSans-52" x="1493.898438"/>
     <use xlink:href="#DejaVuSans-61" x="1561.130859"/>
     <use xlink:href="#DejaVuSans-74" x="1622.410156"/>
     <use xlink:href="#DejaVuSans-65" x="1661.619141"/>
     <use xlink:href="#DejaVuSans-73" x="1723.142578"/>
    </g>
   </g>
   <g id="legend_1">
    <g id="patch_7">
     <path d="M 896.20976 329.09973 
L 1163.045385 329.09973 
Q 1165.845385 329.09973 1165.845385 326.29973 
L 1165.845385 245.50223 
Q 1165.845385 242.70223 1163.045385 242.70223 
L 896.20976 242.70223 
Q 893.40976 242.70223 893.40976 245.50223 
L 893.40976 326.29973 
Q 893.40976 329.09973 896.20976 329.09973 
z
" style="fill: #ffffff; opacity: 0.8; stroke: #cccccc; stroke-linejoin: miter"/>
    </g>
    <g id="line2d_21">
     <path d="M 899.00976 254.040042 
L 913.00976 254.040042 
L 927.00976 254.040042 
" style="fill: none; stroke: #1f77b4; stroke-width: 1.5; stroke-linecap: square"/>
    </g>
    <g id="text_20">
     <!-- Filtered packets Cam 1 -->
     <g transform="translate(938.20976 258.940042) scale(0.14 -0.14)">
      <defs>
       <path id="DejaVuSans-43" d="M 4122 4306 
L 4122 3641 
Q 3803 3938 3442 4084 
Q 3081 4231 2675 4231 
Q 1875 4231 1450 3742 
Q 1025 3253 1025 2328 
Q 1025 1406 1450 917 
Q 1875 428 2675 428 
Q 3081 428 3442 575 
Q 3803 722 4122 1019 
L 4122 359 
Q 3791 134 3420 21 
Q 3050 -91 2638 -91 
Q 1578 -91 968 557 
Q 359 1206 359 2328 
Q 359 3453 968 4101 
Q 1578 4750 2638 4750 
Q 3056 4750 3426 4639 
Q 3797 4528 4122 4306 
z
" transform="scale(0.015625)"/>
      </defs>
      <use xlink:href="#DejaVuSans-46"/>
      <use xlink:href="#DejaVuSans-69" x="50.269531"/>
      <use xlink:href="#DejaVuSans-6c" x="78.052734"/>
      <use xlink:href="#DejaVuSans-74" x="105.835938"/>
      <use xlink:href="#DejaVuSans-65" x="145.044922"/>
      <use xlink:href="#DejaVuSans-72" x="206.568359"/>
      <use xlink:href="#DejaVuSans-65" x="245.431641"/>
      <use xlink:href="#DejaVuSans-64" x="306.955078"/>
      <use xlink:href="#DejaVuSans-20" x="370.431641"/>
      <use xlink:href="#DejaVuSans-70" x="402.21875"/>
      <use xlink:href="#DejaVuSans-61" x="465.695312"/>
      <use xlink:href="#DejaVuSans-63" x="526.974609"/>
      <use xlink:href="#DejaVuSans-6b" x="581.955078"/>
      <use xlink:href="#DejaVuSans-65" x="636.240234"/>
      <use xlink:href="#DejaVuSans-74" x="697.763672"/>
      <use xlink:href="#DejaVuSans-73" x="736.972656"/>
      <use xlink:href="#DejaVuSans-20" x="789.072266"/>
      <use xlink:href="#DejaVuSans-43" x="820.859375"/>
      <use xlink:href="#DejaVuSans-61" x="890.683594"/>
      <use xlink:href="#DejaVuSans-6d" x="951.962891"/>
      <use xlink:href="#DejaVuSans-20" x="1049.375"/>
      <use xlink:href="#DejaVuSans-31" x="1081.162109"/>
     </g>
    </g>
    <g id="line2d_22">
     <path d="M 899.00976 274.589417 
L 913.00976 274.589417 
L 927.00976 274.589417 
" style="fill: none; stroke-dasharray: 5.55,2.4; stroke-dashoffset: 0; stroke: #0000ff; stroke-width: 1.5"/>
    </g>
    <g id="text_21">
     <!-- Filtered packets Cam 1 average -->
     <g transform="translate(938.20976 279.489417) scale(0.14 -0.14)">
      <defs>
       <path id="DejaVuSans-67" d="M 2906 1791 
Q 2906 2416 2648 2759 
Q 2391 3103 1925 3103 
Q 1463 3103 1205 2759 
Q 947 2416 947 1791 
Q 947 1169 1205 825 
Q 1463 481 1925 481 
Q 2391 481 2648 825 
Q 2906 1169 2906 1791 
z
M 3481 434 
Q 3481 -459 3084 -895 
Q 2688 -1331 1869 -1331 
Q 1566 -1331 1297 -1286 
Q 1028 -1241 775 -1147 
L 775 -588 
Q 1028 -725 1275 -790 
Q 1522 -856 1778 -856 
Q 2344 -856 2625 -561 
Q 2906 -266 2906 331 
L 2906 616 
Q 2728 306 2450 153 
Q 2172 0 1784 0 
Q 1141 0 747 490 
Q 353 981 353 1791 
Q 353 2603 747 3093 
Q 1141 3584 1784 3584 
Q 2172 3584 2450 3431 
Q 2728 3278 2906 2969 
L 2906 3500 
L 3481 3500 
L 3481 434 
z
" transform="scale(0.015625)"/>
      </defs>
      <use xlink:href="#DejaVuSans-46"/>
      <use xlink:href="#DejaVuSans-69" x="50.269531"/>
      <use xlink:href="#DejaVuSans-6c" x="78.052734"/>
      <use xlink:href="#DejaVuSans-74" x="105.835938"/>
      <use xlink:href="#DejaVuSans-65" x="145.044922"/>
      <use xlink:href="#DejaVuSans-72" x="206.568359"/>
      <use xlink:href="#DejaVuSans-65" x="245.431641"/>
      <use xlink:href="#DejaVuSans-64" x="306.955078"/>
      <use xlink:href="#DejaVuSans-20" x="370.431641"/>
      <use xlink:href="#DejaVuSans-70" x="402.21875"/>
      <use xlink:href="#DejaVuSans-61" x="465.695312"/>
      <use xlink:href="#DejaVuSans-63" x="526.974609"/>
      <use xlink:href="#DejaVuSans-6b" x="581.955078"/>
      <use xlink:href="#DejaVuSans-65" x="636.240234"/>
      <use xlink:href="#DejaVuSans-74" x="697.763672"/>
      <use xlink:href="#DejaVuSans-73" x="736.972656"/>
      <use xlink:href="#DejaVuSans-20" x="789.072266"/>
      <use xlink:href="#DejaVuSans-43" x="820.859375"/>
      <use xlink:href="#DejaVuSans-61" x="890.683594"/>
      <use xlink:href="#DejaVuSans-6d" x="951.962891"/>
      <use xlink:href="#DejaVuSans-20" x="1049.375"/>
      <use xlink:href="#DejaVuSans-31" x="1081.162109"/>
      <use xlink:href="#DejaVuSans-20" x="1144.785156"/>
      <use xlink:href="#DejaVuSans-61" x="1176.572266"/>
      <use xlink:href="#DejaVuSans-76" x="1237.851562"/>
      <use xlink:href="#DejaVuSans-65" x="1297.03125"/>
      <use xlink:href="#DejaVuSans-72" x="1358.554688"/>
      <use xlink:href="#DejaVuSans-61" x="1399.667969"/>
      <use xlink:href="#DejaVuSans-67" x="1460.947266"/>
      <use xlink:href="#DejaVuSans-65" x="1524.423828"/>
     </g>
    </g>
    <g id="line2d_23">
     <path d="M 899.00976 295.138792 
L 913.00976 295.138792 
L 927.00976 295.138792 
" style="fill: none; stroke: #ff7f0e; stroke-width: 1.5; stroke-linecap: square"/>
    </g>
    <g id="text_22">
     <!-- Filtered packets Cam 2 -->
     <g transform="translate(938.20976 300.038792) scale(0.14 -0.14)">
      <use xlink:href="#DejaVuSans-46"/>
      <use xlink:href="#DejaVuSans-69" x="50.269531"/>
      <use xlink:href="#DejaVuSans-6c" x="78.052734"/>
      <use xlink:href="#DejaVuSans-74" x="105.835938"/>
      <use xlink:href="#DejaVuSans-65" x="145.044922"/>
      <use xlink:href="#DejaVuSans-72" x="206.568359"/>
      <use xlink:href="#DejaVuSans-65" x="245.431641"/>
      <use xlink:href="#DejaVuSans-64" x="306.955078"/>
      <use xlink:href="#DejaVuSans-20" x="370.431641"/>
      <use xlink:href="#DejaVuSans-70" x="402.21875"/>
      <use xlink:href="#DejaVuSans-61" x="465.695312"/>
      <use xlink:href="#DejaVuSans-63" x="526.974609"/>
      <use xlink:href="#DejaVuSans-6b" x="581.955078"/>
      <use xlink:href="#DejaVuSans-65" x="636.240234"/>
      <use xlink:href="#DejaVuSans-74" x="697.763672"/>
      <use xlink:href="#DejaVuSans-73" x="736.972656"/>
      <use xlink:href="#DejaVuSans-20" x="789.072266"/>
      <use xlink:href="#DejaVuSans-43" x="820.859375"/>
      <use xlink:href="#DejaVuSans-61" x="890.683594"/>
      <use xlink:href="#DejaVuSans-6d" x="951.962891"/>
      <use xlink:href="#DejaVuSans-20" x="1049.375"/>
      <use xlink:href="#DejaVuSans-32" x="1081.162109"/>
     </g>
    </g>
    <g id="line2d_24">
     <path d="M 899.00976 315.688167 
L 913.00976 315.688167 
L 927.00976 315.688167 
" style="fill: none; stroke-dasharray: 5.55,2.4; stroke-dashoffset: 0; stroke: #ffa500; stroke-width: 1.5"/>
    </g>
    <g id="text_23">
     <!-- Filtered packets Cam 2 average -->
     <g transform="translate(938.20976 320.588167) scale(0.14 -0.14)">
      <use xlink:href="#DejaVuSans-46"/>
      <use xlink:href="#DejaVuSans-69" x="50.269531"/>
      <use xlink:href="#DejaVuSans-6c" x="78.052734"/>
      <use xlink:href="#DejaVuSans-74" x="105.835938"/>
      <use xlink:href="#DejaVuSans-65" x="145.044922"/>
      <use xlink:href="#DejaVuSans-72" x="206.568359"/>
      <use xlink:href="#DejaVuSans-65" x="245.431641"/>
      <use xlink:href="#DejaVuSans-64" x="306.955078"/>
      <use xlink:href="#DejaVuSans-20" x="370.431641"/>
      <use xlink:href="#DejaVuSans-70" x="402.21875"/>
      <use xlink:href="#DejaVuSans-61" x="465.695312"/>
      <use xlink:href="#DejaVuSans-63" x="526.974609"/>
      <use xlink:href="#DejaVuSans-6b" x="581.955078"/>
      <use xlink:href="#DejaVuSans-65" x="636.240234"/>
      <use xlink:href="#DejaVuSans-74" x="697.763672"/>
      <use xlink:href="#DejaVuSans-73" x="736.972656"/>
      <use xlink:href="#DejaVuSans-20" x="789.072266"/>
      <use xlink:href="#DejaVuSans-43" x="820.859375"/>
      <use xlink:href="#DejaVuSans-61" x="890.683594"/>
      <use xlink:href="#DejaVuSans-6d" x="951.962891"/>
      <use xlink:href="#DejaVuSans-20" x="1049.375"/>
      <use xlink:href="#DejaVuSans-32" x="1081.162109"/>
      <use xlink:href="#DejaVuSans-20" x="1144.785156"/>
      <use xlink:href="#DejaVuSans-61" x="1176.572266"/>
      <use xlink:href="#DejaVuSans-76" x="1237.851562"/>
      <use xlink:href="#DejaVuSans-65" x="1297.03125"/>
      <use xlink:href="#DejaVuSans-72" x="1358.554688"/>
      <use xlink:href="#DejaVuSans-61" x="1399.667969"/>
      <use xlink:href="#DejaVuSans-67" x="1460.947266"/>
      <use xlink:href="#DejaVuSans-65" x="1524.423828"/>
     </g>
    </g>
   </g>
  </g>
 </g>
 <defs>
  <clipPath id="pe4eeb38153">
   <rect x="78.24704" y="38.36632" width="808.16272" height="495.06932"/>
  </clipPath>
 </defs>
</svg>
