<?xml version="1.0" encoding="utf-8" standalone="no"?>
<!DOCTYPE svg PUBLIC "-//W3C//DTD SVG 1.1//EN"
  "http://www.w3.org/Graphics/SVG/1.1/DTD/svg11.dtd">
<svg xmlns:xlink="http://www.w3.org/1999/xlink" width="1008pt" height="720pt" viewBox="0 0 1008 720" xmlns="http://www.w3.org/2000/svg" version="1.1">
 <metadata>
  <rdf:RDF xmlns:dc="http://purl.org/dc/elements/1.1/" xmlns:cc="http://creativecommons.org/ns#" xmlns:rdf="http://www.w3.org/1999/02/22-rdf-syntax-ns#">
   <cc:Work>
    <dc:type rdf:resource="http://purl.org/dc/dcmitype/StillImage"/>
    <dc:date>2023-04-13T18:54:41.454740</dc:date>
    <dc:format>image/svg+xml</dc:format>
    <dc:creator>
     <cc:Agent>
      <dc:title>Matplotlib v3.6.2, https://matplotlib.org/</dc:title>
     </cc:Agent>
    </dc:creator>
   </cc:Work>
  </rdf:RDF>
 </metadata>
 <defs>
  <style type="text/css">*{stroke-linejoin: round; stroke-linecap: butt}</style>
 </defs>
 <g id="figure_1">
  <g id="patch_1">
   <path d="M 0 720 
L 1008 720 
L 1008 0 
L 0 0 
z
" style="fill: #ffffff"/>
  </g>
  <g id="axes_1">
   <g id="patch_2">
    <path d="M 93.32 639.64 
L 791.464 639.64 
L 791.464 60.96 
L 93.32 60.96 
z
" style="fill: #ffffff"/>
   </g>
   <g id="matplotlib.axis_1">
    <g id="xtick_1">
     <g id="line2d_1">
      <defs>
       <path id="mb2bddd93e8" d="M 0 0 
L 0 3.5 
" style="stroke: #000000; stroke-width: 0.8"/>
      </defs>
      <g>
       <use xlink:href="#mb2bddd93e8" x="93.32" y="639.64" style="stroke: #000000; stroke-width: 0.8"/>
      </g>
     </g>
     <g id="text_1">
      <!-- 0 -->
      <g transform="translate(88.86625 657.277812) scale(0.14 -0.14)">
       <defs>
        <path id="DejaVuSans-30" d="M 2034 4250 
Q 1547 4250 1301 3770 
Q 1056 3291 1056 2328 
Q 1056 1369 1301 889 
Q 1547 409 2034 409 
Q 2525 409 2770 889 
Q 3016 1369 3016 2328 
Q 3016 3291 2770 3770 
Q 2525 4250 2034 4250 
z
M 2034 4750 
Q 2819 4750 3233 4129 
Q 3647 3509 3647 2328 
Q 3647 1150 3233 529 
Q 2819 -91 2034 -91 
Q 1250 -91 836 529 
Q 422 1150 422 2328 
Q 422 3509 836 4129 
Q 1250 4750 2034 4750 
z
" transform="scale(0.015625)"/>
       </defs>
       <use xlink:href="#DejaVuSans-30"/>
      </g>
     </g>
    </g>
    <g id="xtick_2">
     <g id="line2d_2">
      <g>
       <use xlink:href="#mb2bddd93e8" x="200.149744" y="639.64" style="stroke: #000000; stroke-width: 0.8"/>
      </g>
     </g>
     <g id="text_2">
      <!-- 10 -->
      <g transform="translate(191.242244 657.277812) scale(0.14 -0.14)">
       <defs>
        <path id="DejaVuSans-31" d="M 794 531 
L 1825 531 
L 1825 4091 
L 703 3866 
L 703 4441 
L 1819 4666 
L 2450 4666 
L 2450 531 
L 3481 531 
L 3481 0 
L 794 0 
L 794 531 
z
" transform="scale(0.015625)"/>
       </defs>
       <use xlink:href="#DejaVuSans-31"/>
       <use xlink:href="#DejaVuSans-30" x="63.623047"/>
      </g>
     </g>
    </g>
    <g id="xtick_3">
     <g id="line2d_3">
      <g>
       <use xlink:href="#mb2bddd93e8" x="306.979488" y="639.64" style="stroke: #000000; stroke-width: 0.8"/>
      </g>
     </g>
     <g id="text_3">
      <!-- 20 -->
      <g transform="translate(298.071988 657.277812) scale(0.14 -0.14)">
       <defs>
        <path id="DejaVuSans-32" d="M 1228 531 
L 3431 531 
L 3431 0 
L 469 0 
L 469 531 
Q 828 903 1448 1529 
Q 2069 2156 2228 2338 
Q 2531 2678 2651 2914 
Q 2772 3150 2772 3378 
Q 2772 3750 2511 3984 
Q 2250 4219 1831 4219 
Q 1534 4219 1204 4116 
Q 875 4013 500 3803 
L 500 4441 
Q 881 4594 1212 4672 
Q 1544 4750 1819 4750 
Q 2544 4750 2975 4387 
Q 3406 4025 3406 3419 
Q 3406 3131 3298 2873 
Q 3191 2616 2906 2266 
Q 2828 2175 2409 1742 
Q 1991 1309 1228 531 
z
" transform="scale(0.015625)"/>
       </defs>
       <use xlink:href="#DejaVuSans-32"/>
       <use xlink:href="#DejaVuSans-30" x="63.623047"/>
      </g>
     </g>
    </g>
    <g id="xtick_4">
     <g id="line2d_4">
      <g>
       <use xlink:href="#mb2bddd93e8" x="413.809231" y="639.64" style="stroke: #000000; stroke-width: 0.8"/>
      </g>
     </g>
     <g id="text_4">
      <!-- 30 -->
      <g transform="translate(404.901731 657.277812) scale(0.14 -0.14)">
       <defs>
        <path id="DejaVuSans-33" d="M 2597 2516 
Q 3050 2419 3304 2112 
Q 3559 1806 3559 1356 
Q 3559 666 3084 287 
Q 2609 -91 1734 -91 
Q 1441 -91 1130 -33 
Q 819 25 488 141 
L 488 750 
Q 750 597 1062 519 
Q 1375 441 1716 441 
Q 2309 441 2620 675 
Q 2931 909 2931 1356 
Q 2931 1769 2642 2001 
Q 2353 2234 1838 2234 
L 1294 2234 
L 1294 2753 
L 1863 2753 
Q 2328 2753 2575 2939 
Q 2822 3125 2822 3475 
Q 2822 3834 2567 4026 
Q 2313 4219 1838 4219 
Q 1578 4219 1281 4162 
Q 984 4106 628 3988 
L 628 4550 
Q 988 4650 1302 4700 
Q 1616 4750 1894 4750 
Q 2613 4750 3031 4423 
Q 3450 4097 3450 3541 
Q 3450 3153 3228 2886 
Q 3006 2619 2597 2516 
z
" transform="scale(0.015625)"/>
       </defs>
       <use xlink:href="#DejaVuSans-33"/>
       <use xlink:href="#DejaVuSans-30" x="63.623047"/>
      </g>
     </g>
    </g>
    <g id="xtick_5">
     <g id="line2d_5">
      <g>
       <use xlink:href="#mb2bddd93e8" x="520.638975" y="639.64" style="stroke: #000000; stroke-width: 0.8"/>
      </g>
     </g>
     <g id="text_5">
      <!-- 40 -->
      <g transform="translate(511.731475 657.277812) scale(0.14 -0.14)">
       <defs>
        <path id="DejaVuSans-34" d="M 2419 4116 
L 825 1625 
L 2419 1625 
L 2419 4116 
z
M 2253 4666 
L 3047 4666 
L 3047 1625 
L 3713 1625 
L 3713 1100 
L 3047 1100 
L 3047 0 
L 2419 0 
L 2419 1100 
L 313 1100 
L 313 1709 
L 2253 4666 
z
" transform="scale(0.015625)"/>
       </defs>
       <use xlink:href="#DejaVuSans-34"/>
       <use xlink:href="#DejaVuSans-30" x="63.623047"/>
      </g>
     </g>
    </g>
    <g id="xtick_6">
     <g id="line2d_6">
      <g>
       <use xlink:href="#mb2bddd93e8" x="627.468719" y="639.64" style="stroke: #000000; stroke-width: 0.8"/>
      </g>
     </g>
     <g id="text_6">
      <!-- 50 -->
      <g transform="translate(618.561219 657.277812) scale(0.14 -0.14)">
       <defs>
        <path id="DejaVuSans-35" d="M 691 4666 
L 3169 4666 
L 3169 4134 
L 1269 4134 
L 1269 2991 
Q 1406 3038 1543 3061 
Q 1681 3084 1819 3084 
Q 2600 3084 3056 2656 
Q 3513 2228 3513 1497 
Q 3513 744 3044 326 
Q 2575 -91 1722 -91 
Q 1428 -91 1123 -41 
Q 819 9 494 109 
L 494 744 
Q 775 591 1075 516 
Q 1375 441 1709 441 
Q 2250 441 2565 725 
Q 2881 1009 2881 1497 
Q 2881 1984 2565 2268 
Q 2250 2553 1709 2553 
Q 1456 2553 1204 2497 
Q 953 2441 691 2322 
L 691 4666 
z
" transform="scale(0.015625)"/>
       </defs>
       <use xlink:href="#DejaVuSans-35"/>
       <use xlink:href="#DejaVuSans-30" x="63.623047"/>
      </g>
     </g>
    </g>
    <g id="xtick_7">
     <g id="line2d_7">
      <g>
       <use xlink:href="#mb2bddd93e8" x="734.298463" y="639.64" style="stroke: #000000; stroke-width: 0.8"/>
      </g>
     </g>
     <g id="text_7">
      <!-- 60 -->
      <g transform="translate(725.390963 657.277812) scale(0.14 -0.14)">
       <defs>
        <path id="DejaVuSans-36" d="M 2113 2584 
Q 1688 2584 1439 2293 
Q 1191 2003 1191 1497 
Q 1191 994 1439 701 
Q 1688 409 2113 409 
Q 2538 409 2786 701 
Q 3034 994 3034 1497 
Q 3034 2003 2786 2293 
Q 2538 2584 2113 2584 
z
M 3366 4563 
L 3366 3988 
Q 3128 4100 2886 4159 
Q 2644 4219 2406 4219 
Q 1781 4219 1451 3797 
Q 1122 3375 1075 2522 
Q 1259 2794 1537 2939 
Q 1816 3084 2150 3084 
Q 2853 3084 3261 2657 
Q 3669 2231 3669 1497 
Q 3669 778 3244 343 
Q 2819 -91 2113 -91 
Q 1303 -91 875 529 
Q 447 1150 447 2328 
Q 447 3434 972 4092 
Q 1497 4750 2381 4750 
Q 2619 4750 2861 4703 
Q 3103 4656 3366 4563 
z
" transform="scale(0.015625)"/>
       </defs>
       <use xlink:href="#DejaVuSans-36"/>
       <use xlink:href="#DejaVuSans-30" x="63.623047"/>
      </g>
     </g>
    </g>
    <g id="text_8">
     <!-- Time (s) -->
     <g transform="translate(413.931531 674.827188) scale(0.14 -0.14)">
      <defs>
       <path id="DejaVuSans-54" d="M -19 4666 
L 3928 4666 
L 3928 4134 
L 2272 4134 
L 2272 0 
L 1638 0 
L 1638 4134 
L -19 4134 
L -19 4666 
z
" transform="scale(0.015625)"/>
       <path id="DejaVuSans-69" d="M 603 3500 
L 1178 3500 
L 1178 0 
L 603 0 
L 603 3500 
z
M 603 4863 
L 1178 4863 
L 1178 4134 
L 603 4134 
L 603 4863 
z
" transform="scale(0.015625)"/>
       <path id="DejaVuSans-6d" d="M 3328 2828 
Q 3544 3216 3844 3400 
Q 4144 3584 4550 3584 
Q 5097 3584 5394 3201 
Q 5691 2819 5691 2113 
L 5691 0 
L 5113 0 
L 5113 2094 
Q 5113 2597 4934 2840 
Q 4756 3084 4391 3084 
Q 3944 3084 3684 2787 
Q 3425 2491 3425 1978 
L 3425 0 
L 2847 0 
L 2847 2094 
Q 2847 2600 2669 2842 
Q 2491 3084 2119 3084 
Q 1678 3084 1418 2786 
Q 1159 2488 1159 1978 
L 1159 0 
L 581 0 
L 581 3500 
L 1159 3500 
L 1159 2956 
Q 1356 3278 1631 3431 
Q 1906 3584 2284 3584 
Q 2666 3584 2933 3390 
Q 3200 3197 3328 2828 
z
" transform="scale(0.015625)"/>
       <path id="DejaVuSans-65" d="M 3597 1894 
L 3597 1613 
L 953 1613 
Q 991 1019 1311 708 
Q 1631 397 2203 397 
Q 2534 397 2845 478 
Q 3156 559 3463 722 
L 3463 178 
Q 3153 47 2828 -22 
Q 2503 -91 2169 -91 
Q 1331 -91 842 396 
Q 353 884 353 1716 
Q 353 2575 817 3079 
Q 1281 3584 2069 3584 
Q 2775 3584 3186 3129 
Q 3597 2675 3597 1894 
z
M 3022 2063 
Q 3016 2534 2758 2815 
Q 2500 3097 2075 3097 
Q 1594 3097 1305 2825 
Q 1016 2553 972 2059 
L 3022 2063 
z
" transform="scale(0.015625)"/>
       <path id="DejaVuSans-20" transform="scale(0.015625)"/>
       <path id="DejaVuSans-28" d="M 1984 4856 
Q 1566 4138 1362 3434 
Q 1159 2731 1159 2009 
Q 1159 1288 1364 580 
Q 1569 -128 1984 -844 
L 1484 -844 
Q 1016 -109 783 600 
Q 550 1309 550 2009 
Q 550 2706 781 3412 
Q 1013 4119 1484 4856 
L 1984 4856 
z
" transform="scale(0.015625)"/>
       <path id="DejaVuSans-73" d="M 2834 3397 
L 2834 2853 
Q 2591 2978 2328 3040 
Q 2066 3103 1784 3103 
Q 1356 3103 1142 2972 
Q 928 2841 928 2578 
Q 928 2378 1081 2264 
Q 1234 2150 1697 2047 
L 1894 2003 
Q 2506 1872 2764 1633 
Q 3022 1394 3022 966 
Q 3022 478 2636 193 
Q 2250 -91 1575 -91 
Q 1294 -91 989 -36 
Q 684 19 347 128 
L 347 722 
Q 666 556 975 473 
Q 1284 391 1588 391 
Q 1994 391 2212 530 
Q 2431 669 2431 922 
Q 2431 1156 2273 1281 
Q 2116 1406 1581 1522 
L 1381 1569 
Q 847 1681 609 1914 
Q 372 2147 372 2553 
Q 372 3047 722 3315 
Q 1072 3584 1716 3584 
Q 2034 3584 2315 3537 
Q 2597 3491 2834 3397 
z
" transform="scale(0.015625)"/>
       <path id="DejaVuSans-29" d="M 513 4856 
L 1013 4856 
Q 1481 4119 1714 3412 
Q 1947 2706 1947 2009 
Q 1947 1309 1714 600 
Q 1481 -109 1013 -844 
L 513 -844 
Q 928 -128 1133 580 
Q 1338 1288 1338 2009 
Q 1338 2731 1133 3434 
Q 928 4138 513 4856 
z
" transform="scale(0.015625)"/>
      </defs>
      <use xlink:href="#DejaVuSans-54"/>
      <use xlink:href="#DejaVuSans-69" x="57.958984"/>
      <use xlink:href="#DejaVuSans-6d" x="85.742188"/>
      <use xlink:href="#DejaVuSans-65" x="183.154297"/>
      <use xlink:href="#DejaVuSans-20" x="244.677734"/>
      <use xlink:href="#DejaVuSans-28" x="276.464844"/>
      <use xlink:href="#DejaVuSans-73" x="315.478516"/>
      <use xlink:href="#DejaVuSans-29" x="367.578125"/>
     </g>
    </g>
   </g>
   <g id="matplotlib.axis_2">
    <g id="ytick_1">
     <g id="line2d_8">
      <defs>
       <path id="m13b46e74b6" d="M 0 0 
L -3.5 0 
" style="stroke: #000000; stroke-width: 0.8"/>
      </defs>
      <g>
       <use xlink:href="#m13b46e74b6" x="93.32" y="639.64" style="stroke: #000000; stroke-width: 0.8"/>
      </g>
     </g>
     <g id="text_9">
      <!-- 0 -->
      <g transform="translate(77.4125 644.958906) scale(0.14 -0.14)">
       <use xlink:href="#DejaVuSans-30"/>
      </g>
     </g>
    </g>
    <g id="ytick_2">
     <g id="line2d_9">
      <g>
       <use xlink:href="#m13b46e74b6" x="93.32" y="551.863986" style="stroke: #000000; stroke-width: 0.8"/>
      </g>
     </g>
     <g id="text_10">
      <!-- 20 -->
      <g transform="translate(68.505 557.182893) scale(0.14 -0.14)">
       <use xlink:href="#DejaVuSans-32"/>
       <use xlink:href="#DejaVuSans-30" x="63.623047"/>
      </g>
     </g>
    </g>
    <g id="ytick_3">
     <g id="line2d_10">
      <g>
       <use xlink:href="#m13b46e74b6" x="93.32" y="464.087973" style="stroke: #000000; stroke-width: 0.8"/>
      </g>
     </g>
     <g id="text_11">
      <!-- 40 -->
      <g transform="translate(68.505 469.406879) scale(0.14 -0.14)">
       <use xlink:href="#DejaVuSans-34"/>
       <use xlink:href="#DejaVuSans-30" x="63.623047"/>
      </g>
     </g>
    </g>
    <g id="ytick_4">
     <g id="line2d_11">
      <g>
       <use xlink:href="#m13b46e74b6" x="93.32" y="376.311959" style="stroke: #000000; stroke-width: 0.8"/>
      </g>
     </g>
     <g id="text_12">
      <!-- 60 -->
      <g transform="translate(68.505 381.630865) scale(0.14 -0.14)">
       <use xlink:href="#DejaVuSans-36"/>
       <use xlink:href="#DejaVuSans-30" x="63.623047"/>
      </g>
     </g>
    </g>
    <g id="ytick_5">
     <g id="line2d_12">
      <g>
       <use xlink:href="#m13b46e74b6" x="93.32" y="288.535945" style="stroke: #000000; stroke-width: 0.8"/>
      </g>
     </g>
     <g id="text_13">
      <!-- 80 -->
      <g transform="translate(68.505 293.854852) scale(0.14 -0.14)">
       <defs>
        <path id="DejaVuSans-38" d="M 2034 2216 
Q 1584 2216 1326 1975 
Q 1069 1734 1069 1313 
Q 1069 891 1326 650 
Q 1584 409 2034 409 
Q 2484 409 2743 651 
Q 3003 894 3003 1313 
Q 3003 1734 2745 1975 
Q 2488 2216 2034 2216 
z
M 1403 2484 
Q 997 2584 770 2862 
Q 544 3141 544 3541 
Q 544 4100 942 4425 
Q 1341 4750 2034 4750 
Q 2731 4750 3128 4425 
Q 3525 4100 3525 3541 
Q 3525 3141 3298 2862 
Q 3072 2584 2669 2484 
Q 3125 2378 3379 2068 
Q 3634 1759 3634 1313 
Q 3634 634 3220 271 
Q 2806 -91 2034 -91 
Q 1263 -91 848 271 
Q 434 634 434 1313 
Q 434 1759 690 2068 
Q 947 2378 1403 2484 
z
M 1172 3481 
Q 1172 3119 1398 2916 
Q 1625 2713 2034 2713 
Q 2441 2713 2670 2916 
Q 2900 3119 2900 3481 
Q 2900 3844 2670 4047 
Q 2441 4250 2034 4250 
Q 1625 4250 1398 4047 
Q 1172 3844 1172 3481 
z
" transform="scale(0.015625)"/>
       </defs>
       <use xlink:href="#DejaVuSans-38"/>
       <use xlink:href="#DejaVuSans-30" x="63.623047"/>
      </g>
     </g>
    </g>
    <g id="ytick_6">
     <g id="line2d_13">
      <g>
       <use xlink:href="#m13b46e74b6" x="93.32" y="200.759932" style="stroke: #000000; stroke-width: 0.8"/>
      </g>
     </g>
     <g id="text_14">
      <!-- 100 -->
      <g transform="translate(59.5975 206.078838) scale(0.14 -0.14)">
       <use xlink:href="#DejaVuSans-31"/>
       <use xlink:href="#DejaVuSans-30" x="63.623047"/>
       <use xlink:href="#DejaVuSans-30" x="127.246094"/>
      </g>
     </g>
    </g>
    <g id="ytick_7">
     <g id="line2d_14">
      <g>
       <use xlink:href="#m13b46e74b6" x="93.32" y="112.983918" style="stroke: #000000; stroke-width: 0.8"/>
      </g>
     </g>
     <g id="text_15">
      <!-- 120 -->
      <g transform="translate(59.5975 118.302824) scale(0.14 -0.14)">
       <use xlink:href="#DejaVuSans-31"/>
       <use xlink:href="#DejaVuSans-32" x="63.623047"/>
       <use xlink:href="#DejaVuSans-30" x="127.246094"/>
      </g>
     </g>
    </g>
    <g id="text_16">
     <!-- Packets per Second -->
     <g transform="translate(52.685938 418.683438) rotate(-90) scale(0.14 -0.14)">
      <defs>
       <path id="DejaVuSans-50" d="M 1259 4147 
L 1259 2394 
L 2053 2394 
Q 2494 2394 2734 2622 
Q 2975 2850 2975 3272 
Q 2975 3691 2734 3919 
Q 2494 4147 2053 4147 
L 1259 4147 
z
M 628 4666 
L 2053 4666 
Q 2838 4666 3239 4311 
Q 3641 3956 3641 3272 
Q 3641 2581 3239 2228 
Q 2838 1875 2053 1875 
L 1259 1875 
L 1259 0 
L 628 0 
L 628 4666 
z
" transform="scale(0.015625)"/>
       <path id="DejaVuSans-61" d="M 2194 1759 
Q 1497 1759 1228 1600 
Q 959 1441 959 1056 
Q 959 750 1161 570 
Q 1363 391 1709 391 
Q 2188 391 2477 730 
Q 2766 1069 2766 1631 
L 2766 1759 
L 2194 1759 
z
M 3341 1997 
L 3341 0 
L 2766 0 
L 2766 531 
Q 2569 213 2275 61 
Q 1981 -91 1556 -91 
Q 1019 -91 701 211 
Q 384 513 384 1019 
Q 384 1609 779 1909 
Q 1175 2209 1959 2209 
L 2766 2209 
L 2766 2266 
Q 2766 2663 2505 2880 
Q 2244 3097 1772 3097 
Q 1472 3097 1187 3025 
Q 903 2953 641 2809 
L 641 3341 
Q 956 3463 1253 3523 
Q 1550 3584 1831 3584 
Q 2591 3584 2966 3190 
Q 3341 2797 3341 1997 
z
" transform="scale(0.015625)"/>
       <path id="DejaVuSans-63" d="M 3122 3366 
L 3122 2828 
Q 2878 2963 2633 3030 
Q 2388 3097 2138 3097 
Q 1578 3097 1268 2742 
Q 959 2388 959 1747 
Q 959 1106 1268 751 
Q 1578 397 2138 397 
Q 2388 397 2633 464 
Q 2878 531 3122 666 
L 3122 134 
Q 2881 22 2623 -34 
Q 2366 -91 2075 -91 
Q 1284 -91 818 406 
Q 353 903 353 1747 
Q 353 2603 823 3093 
Q 1294 3584 2113 3584 
Q 2378 3584 2631 3529 
Q 2884 3475 3122 3366 
z
" transform="scale(0.015625)"/>
       <path id="DejaVuSans-6b" d="M 581 4863 
L 1159 4863 
L 1159 1991 
L 2875 3500 
L 3609 3500 
L 1753 1863 
L 3688 0 
L 2938 0 
L 1159 1709 
L 1159 0 
L 581 0 
L 581 4863 
z
" transform="scale(0.015625)"/>
       <path id="DejaVuSans-74" d="M 1172 4494 
L 1172 3500 
L 2356 3500 
L 2356 3053 
L 1172 3053 
L 1172 1153 
Q 1172 725 1289 603 
Q 1406 481 1766 481 
L 2356 481 
L 2356 0 
L 1766 0 
Q 1100 0 847 248 
Q 594 497 594 1153 
L 594 3053 
L 172 3053 
L 172 3500 
L 594 3500 
L 594 4494 
L 1172 4494 
z
" transform="scale(0.015625)"/>
       <path id="DejaVuSans-70" d="M 1159 525 
L 1159 -1331 
L 581 -1331 
L 581 3500 
L 1159 3500 
L 1159 2969 
Q 1341 3281 1617 3432 
Q 1894 3584 2278 3584 
Q 2916 3584 3314 3078 
Q 3713 2572 3713 1747 
Q 3713 922 3314 415 
Q 2916 -91 2278 -91 
Q 1894 -91 1617 61 
Q 1341 213 1159 525 
z
M 3116 1747 
Q 3116 2381 2855 2742 
Q 2594 3103 2138 3103 
Q 1681 3103 1420 2742 
Q 1159 2381 1159 1747 
Q 1159 1113 1420 752 
Q 1681 391 2138 391 
Q 2594 391 2855 752 
Q 3116 1113 3116 1747 
z
" transform="scale(0.015625)"/>
       <path id="DejaVuSans-72" d="M 2631 2963 
Q 2534 3019 2420 3045 
Q 2306 3072 2169 3072 
Q 1681 3072 1420 2755 
Q 1159 2438 1159 1844 
L 1159 0 
L 581 0 
L 581 3500 
L 1159 3500 
L 1159 2956 
Q 1341 3275 1631 3429 
Q 1922 3584 2338 3584 
Q 2397 3584 2469 3576 
Q 2541 3569 2628 3553 
L 2631 2963 
z
" transform="scale(0.015625)"/>
       <path id="DejaVuSans-53" d="M 3425 4513 
L 3425 3897 
Q 3066 4069 2747 4153 
Q 2428 4238 2131 4238 
Q 1616 4238 1336 4038 
Q 1056 3838 1056 3469 
Q 1056 3159 1242 3001 
Q 1428 2844 1947 2747 
L 2328 2669 
Q 3034 2534 3370 2195 
Q 3706 1856 3706 1288 
Q 3706 609 3251 259 
Q 2797 -91 1919 -91 
Q 1588 -91 1214 -16 
Q 841 59 441 206 
L 441 856 
Q 825 641 1194 531 
Q 1563 422 1919 422 
Q 2459 422 2753 634 
Q 3047 847 3047 1241 
Q 3047 1584 2836 1778 
Q 2625 1972 2144 2069 
L 1759 2144 
Q 1053 2284 737 2584 
Q 422 2884 422 3419 
Q 422 4038 858 4394 
Q 1294 4750 2059 4750 
Q 2388 4750 2728 4690 
Q 3069 4631 3425 4513 
z
" transform="scale(0.015625)"/>
       <path id="DejaVuSans-6f" d="M 1959 3097 
Q 1497 3097 1228 2736 
Q 959 2375 959 1747 
Q 959 1119 1226 758 
Q 1494 397 1959 397 
Q 2419 397 2687 759 
Q 2956 1122 2956 1747 
Q 2956 2369 2687 2733 
Q 2419 3097 1959 3097 
z
M 1959 3584 
Q 2709 3584 3137 3096 
Q 3566 2609 3566 1747 
Q 3566 888 3137 398 
Q 2709 -91 1959 -91 
Q 1206 -91 779 398 
Q 353 888 353 1747 
Q 353 2609 779 3096 
Q 1206 3584 1959 3584 
z
" transform="scale(0.015625)"/>
       <path id="DejaVuSans-6e" d="M 3513 2113 
L 3513 0 
L 2938 0 
L 2938 2094 
Q 2938 2591 2744 2837 
Q 2550 3084 2163 3084 
Q 1697 3084 1428 2787 
Q 1159 2491 1159 1978 
L 1159 0 
L 581 0 
L 581 3500 
L 1159 3500 
L 1159 2956 
Q 1366 3272 1645 3428 
Q 1925 3584 2291 3584 
Q 2894 3584 3203 3211 
Q 3513 2838 3513 2113 
z
" transform="scale(0.015625)"/>
       <path id="DejaVuSans-64" d="M 2906 2969 
L 2906 4863 
L 3481 4863 
L 3481 0 
L 2906 0 
L 2906 525 
Q 2725 213 2448 61 
Q 2172 -91 1784 -91 
Q 1150 -91 751 415 
Q 353 922 353 1747 
Q 353 2572 751 3078 
Q 1150 3584 1784 3584 
Q 2172 3584 2448 3432 
Q 2725 3281 2906 2969 
z
M 947 1747 
Q 947 1113 1208 752 
Q 1469 391 1925 391 
Q 2381 391 2643 752 
Q 2906 1113 2906 1747 
Q 2906 2381 2643 2742 
Q 2381 3103 1925 3103 
Q 1469 3103 1208 2742 
Q 947 2381 947 1747 
z
" transform="scale(0.015625)"/>
      </defs>
      <use xlink:href="#DejaVuSans-50"/>
      <use xlink:href="#DejaVuSans-61" x="55.802734"/>
      <use xlink:href="#DejaVuSans-63" x="117.082031"/>
      <use xlink:href="#DejaVuSans-6b" x="172.0625"/>
      <use xlink:href="#DejaVuSans-65" x="226.347656"/>
      <use xlink:href="#DejaVuSans-74" x="287.871094"/>
      <use xlink:href="#DejaVuSans-73" x="327.080078"/>
      <use xlink:href="#DejaVuSans-20" x="379.179688"/>
      <use xlink:href="#DejaVuSans-70" x="410.966797"/>
      <use xlink:href="#DejaVuSans-65" x="474.443359"/>
      <use xlink:href="#DejaVuSans-72" x="535.966797"/>
      <use xlink:href="#DejaVuSans-20" x="577.080078"/>
      <use xlink:href="#DejaVuSans-53" x="608.867188"/>
      <use xlink:href="#DejaVuSans-65" x="672.34375"/>
      <use xlink:href="#DejaVuSans-63" x="733.867188"/>
      <use xlink:href="#DejaVuSans-6f" x="788.847656"/>
      <use xlink:href="#DejaVuSans-6e" x="850.029297"/>
      <use xlink:href="#DejaVuSans-64" x="913.408203"/>
     </g>
    </g>
   </g>
   <g id="line2d_15">
    <path d="M 108.897868 257.35699 
L 110.313695 242.257311 
L 111.511095 248.079428 
L 112.926739 275.325309 
L 114.014243 79.172341 
L 115.103448 123.093442 
L 116.301235 287.349478 
L 117.389179 251.780805 
L 118.695821 137.286489 
L 119.893122 287.206368 
L 120.981188 208.733888 
L 122.288379 245.099424 
L 123.376602 251.880354 
L 124.465266 295.104281 
L 125.879685 208.713239 
L 126.968042 208.848989 
L 128.1654 287.223392 
L 129.471071 208.731103 
L 130.559058 337.983736 
L 131.756614 208.979667 
L 133.063887 280.989051 
L 134.262025 209.188888 
L 135.240812 208.525591 
L 136.438468 169.868058 
L 137.636329 287.37143 
L 138.724187 251.750109 
L 139.703443 208.732195 
L 140.792912 295.358827 
L 142.207237 208.684686 
L 143.294826 251.65424 
L 144.491366 286.982396 
L 145.796756 208.638256 
L 146.884241 251.617391 
L 148.080606 286.930572 
L 149.170978 252.644712 
L 150.476755 280.578329 
L 151.674341 208.990374 
L 152.653247 208.57836 
L 153.850996 326.482823 
L 155.155668 244.337821 
L 156.244244 208.935339 
L 157.331815 165.427608 
L 158.474932 270.500881 
L 159.781852 280.892544 
L 160.870292 208.881441 
L 161.958366 208.737171 
L 163.102426 270.805394 
L 164.407995 280.521069 
L 165.82226 175.514761 
L 166.90997 251.697235 
L 168.107203 287.186418 
L 170.499601 208.511479 
L 171.588079 251.971181 
L 172.674617 251.278836 
L 173.979053 280.209187 
L 175.066613 165.422712 
L 176.153323 251.340616 
L 177.349026 286.735332 
L 179.739521 208.047857 
L 180.936616 287.145919 
L 182.240827 244.197843 
L 183.16557 234.031683 
L 184.254114 251.994674 
L 185.342888 209.013644 
L 186.539163 247.711493 
L 187.843838 208.402082 
L 188.931117 251.543623 
L 190.019476 338.086754 
L 191.106963 251.617898 
L 192.303553 208.632157 
L 193.393191 252.383636 
L 194.480218 251.453622 
L 195.567237 251.450879 
L 196.871604 280.19017 
L 197.958567 208.296821 
L 199.155876 287.208582 
L 200.244736 209.048275 
L 201.224682 209.035565 
L 202.420873 326.074933 
L 203.290557 154.442314 
L 204.595673 244.471887 
L 205.791527 208.36681 
L 206.881839 252.623186 
L 208.186145 244.226964 
L 209.274409 294.977495 
L 210.689758 208.9967 
L 211.887253 248.110398 
L 213.192222 208.499292 
L 214.606819 275.05568 
L 215.695388 295.074466 
L 216.89189 208.600181 
L 218.199019 280.949635 
L 219.287265 251.888713 
L 220.701313 175.44329 
L 221.897738 286.948353 
L 222.984979 251.530383 
L 224.074327 252.28044 
L 225.379489 280.409202 
L 226.466308 165.099401 
L 227.664038 326.477845 
L 228.968262 172.30433 
L 230.055796 337.857851 
L 231.469674 241.709521 
L 232.557052 208.461169 
L 233.427538 208.750095 
L 234.62309 286.690875 
L 235.818796 208.313274 
L 236.908581 252.436111 
L 238.212753 244.186033 
L 238.986195 94.067539 
L 240.180964 286.459565 
L 241.270545 252.363626 
L 242.465723 286.580264 
L 243.663656 209.115151 
L 244.912504 226.667735 
L 246.00086 208.848334 
L 247.087882 337.715929 
L 248.284595 208.676311 
L 249.37171 251.485234 
L 250.459229 251.629047 
L 251.764238 244.439674 
L 254.048081 251.397541 
L 255.135866 294.825788 
L 256.224265 122.710637 
L 257.31215 208.662253 
L 258.399291 251.494236 
L 259.813729 241.866856 
L 261.226841 241.493759 
L 262.316827 295.522228 
L 263.73001 241.513576 
L 264.925298 247.387847 
L 266.339739 241.867703 
L 267.428193 251.962578 
L 268.841656 241.592711 
L 270.253473 274.337769 
L 271.341105 294.777383 
L 272.427242 207.968386 
L 273.513643 294.386803 
L 274.70954 208.382121 
L 275.797379 251.743352 
L 276.883359 251.079397 
L 278.078629 168.930092 
L 279.491736 274.671401 
L 280.580416 295.109315 
L 281.561569 209.56538 
L 282.757917 208.544775 
L 283.847614 295.431117 
L 285.154053 244.872188 
L 286.56601 241.168082 
L 287.654697 165.913325 
L 288.849607 286.501197 
L 290.152917 207.950681 
L 291.239573 251.320953 
L 292.325871 337.514641 
L 293.523226 248.064877 
L 294.826457 171.948069 
L 295.80384 207.906573 
L 297.000828 326.283765 
L 298.088716 208.66321 
L 299.392335 208.052891 
L 300.481118 252.079451 
L 301.676525 286.64835 
L 302.979845 243.927548 
L 304.066023 251.149995 
L 305.154722 295.115549 
L 307.328699 208.676511 
L 308.415045 294.369094 
L 309.394125 208.654725 
L 310.480312 164.823151 
L 311.568142 251.740384 
L 312.600389 230.85308 
L 313.795549 286.57494 
L 314.990066 286.385255 
L 316.187468 169.768332 
L 317.27408 251.305449 
L 318.255105 305.093657 
L 319.60032 151.691306 
L 321.122603 300.846289 
L 322.208632 207.925269 
L 323.405817 326.33547 
L 324.604302 131.072137 
L 325.68967 250.860514 
L 326.887349 287.317687 
L 327.865201 304.008258 
L 329.27767 241.312484 
L 330.364187 251.271421 
L 331.560186 286.822875 
L 332.755293 208.09718 
L 334.769906 256.629948 
L 336.074457 244.301125 
L 337.268941 247.123509 
L 338.356026 208.344793 
L 339.446769 252.776187 
L 340.753249 208.9979 
L 341.841263 251.805951 
L 342.927318 251.106121 
L 344.339146 241.131698 
L 345.426811 337.894418 
L 346.514494 251.687877 
L 347.495261 209.395957 
L 348.581273 251.090837 
L 349.669154 251.758451 
L 350.755887 251.348621 
L 352.168468 241.343943 
L 353.255977 251.625765 
L 354.455401 209.650676 
L 355.329566 210.563236 
L 356.742569 274.644363 
L 357.830506 251.7786 
L 358.915973 250.895647 
L 360.003532 165.422181 
L 361.417145 274.801955 
L 362.830363 274.699744 
L 363.916752 251.225776 
L 365.003943 165.261815 
L 366.198897 286.514185 
L 367.501999 207.881642 
L 368.588952 251.427346 
L 369.676221 251.54002 
L 370.982597 280.74282 
L 372.068593 164.739656 
L 373.483523 242.005201 
L 374.569411 337.400646 
L 375.65915 209.395194 
L 377.069587 240.738794 
L 378.484437 241.98259 
L 379.571302 208.257544 
L 380.764857 286.100327 
L 382.069826 208.499359 
L 383.482129 274.463554 
L 384.89389 241.112529 
L 385.981349 251.607964 
L 387.066666 207.64252 
L 388.261981 286.62078 
L 389.460319 287.511401 
L 390.65639 286.843986 
L 391.746091 209.380516 
L 392.832185 207.951283 
L 393.917434 250.817861 
L 395.332531 275.184394 
L 396.419917 165.346525 
L 397.506695 251.364999 
L 398.810285 208.04304 
L 400.061254 302.326301 
L 401.256835 169.052692 
L 402.343319 337.566295 
L 403.538693 208.1934 
L 404.842809 244.169321 
L 405.929228 208.080463 
L 407.017788 252.000312 
L 408.431696 208.557742 
L 409.626615 325.741219 
L 410.821758 247.339956 
L 411.911872 166.533771 
L 412.998181 294.357284 
L 414.19133 207.389089 
L 415.170378 304.418499 
L 416.364864 207.872439 
L 417.668428 244.001705 
L 418.753564 293.984176 
L 419.948498 208.034667 
L 420.928338 208.989261 
L 422.124493 326.065512 
L 423.209541 207.535324 
L 424.516929 281.020679 
L 425.604171 251.530524 
L 426.692028 251.750006 
L 427.777566 164.539033 
L 428.865345 251.721992 
L 429.952918 251.648885 
L 431.260498 281.073429 
L 432.345649 250.782351 
L 433.75765 174.770647 
L 434.953276 325.926828 
L 436.25915 172.894504 
L 437.345009 337.392618 
L 438.757302 208.064676 
L 439.84611 295.149758 
L 440.931834 164.620593 
L 442.018463 251.311485 
L 443.105915 251.605479 
L 444.409382 243.972178 
L 445.494424 207.533065 
L 446.907412 241.458654 
L 447.995591 294.950943 
L 449.081995 251.231058 
L 450.492447 207.501331 
L 451.579241 337.652521 
L 452.66817 166.018828 
L 454.080857 241.373774 
L 455.167454 251.300069 
L 456.362058 325.658665 
L 457.450797 209.000067 
L 458.645619 168.753506 
L 459.733906 338.06698 
L 460.820159 251.176904 
L 462.015196 208.071853 
L 462.991586 303.505876 
L 464.2991 245.196763 
L 465.275518 255.497816 
L 466.363204 208.583271 
L 467.666053 207.79751 
L 468.752716 294.469875 
L 469.949446 247.86034 
L 471.152707 172.056218 
L 472.235723 293.307585 
L 473.270845 277.283003 
L 474.684584 241.670494 
L 475.769402 164.223752 
L 476.96772 287.505594 
L 478.270145 207.657051 
L 479.684201 308.072938 
L 480.771702 165.396811 
L 481.965333 325.402502 
L 483.270729 244.556991 
L 484.356227 250.906918 
L 485.443232 208.31329 
L 486.529333 251.122444 
L 487.56274 185.942526 
L 488.649748 294.579294 
L 490.064479 241.94928 
L 491.257724 286.008499 
L 492.559632 171.472765 
L 493.64785 338.047657 
L 496.148116 165.642956 
L 497.3415 286.049753 
L 498.539411 248.246315 
L 499.89278 223.918167 
L 501.088095 247.396622 
L 502.175371 208.420431 
L 503.479458 280.113081 
L 504.676097 287.011572 
L 505.762192 207.951678 
L 507.173615 207.798663 
L 508.366929 286.029019 
L 509.454883 251.78448 
L 510.546622 253.128878 
L 511.740887 247.051842 
L 512.830076 252.224199 
L 514.026492 208.569399 
L 515.1124 294.229852 
L 516.414681 171.606565 
L 517.611936 287.193085 
L 518.915096 207.900843 
L 520.111096 286.823024 
L 521.196404 250.838839 
L 522.501449 280.376761 
L 523.588842 251.584367 
L 524.565829 207.731454 
L 525.547269 209.691481 
L 526.979104 181.209703 
L 528.404233 244.850932 
L 529.815013 240.835536 
L 531.012146 287.157252 
L 531.988712 303.566147 
L 533.075907 251.513668 
L 534.160682 164.205366 
L 535.575721 308.303049 
L 536.661131 250.875422 
L 537.749118 208.7024 
L 538.944604 247.452739 
L 540.031835 251.526638 
L 541.341451 210.029028 
L 542.428785 251.563112 
L 543.623326 286.392174 
L 544.709045 250.986267 
L 545.79421 250.787664 
L 547.100964 280.846574 
L 548.186663 250.979142 
L 549.17161 211.221948 
L 550.365498 207.656269 
L 551.563312 287.357575 
L 552.758148 207.999188 
L 553.84418 294.269432 
L 554.932296 251.842246 
L 556.242018 138.467837 
L 557.328505 337.567097 
L 558.740028 207.829441 
L 559.830619 295.712983 
L 561.246007 242.134026 
L 562.438578 246.493828 
L 563.740734 243.574072 
L 564.82847 251.706585 
L 566.240371 207.944902 
L 567.433329 246.621521 
L 568.418288 306.430235 
L 569.505766 251.614654 
L 570.70029 207.886417 
L 571.790819 252.700134 
L 573.096445 208.716165 
L 574.182507 337.449106 
L 575.213009 230.160972 
L 576.411466 209.303607 
L 577.613001 288.448244 
L 578.806929 246.9408 
L 580.218634 241.097015 
L 581.307587 166.029167 
L 582.611411 280.040343 
L 583.806164 247.212178 
L 584.892145 207.906604 
L 586.198901 209.088695 
L 587.393278 286.343646 
L 588.694988 279.456479 
L 590.109003 208.590389 
L 591.195311 294.356911 
L 592.392433 208.823558 
L 593.694061 207.392843 
L 594.784355 252.616641 
L 595.87009 250.991846 
L 596.955846 294.181623 
L 598.041029 250.793919 
L 599.456638 275.316423 
L 600.867653 207.673757 
L 601.954567 294.549608 
L 603.150144 208.266613 
L 604.241035 295.807868 
L 605.550327 245.732607 
L 606.635969 250.958123 
L 607.830051 246.991571 
L 608.807685 160.059493 
L 610.005179 287.263352 
L 611.204743 170.615129 
L 612.293577 252.097714 
L 613.380285 251.339933 
L 614.359798 208.845264 
L 615.553703 286.204047 
L 617.948531 209.465168 
L 619.36473 242.36158 
L 620.447494 249.925138 
L 621.642922 286.654403 
L 622.728802 294.220983 
L 623.814685 207.867664 
L 624.941899 223.698806 
L 626.140154 209.23111 
L 627.226399 251.174161 
L 628.419831 286.063794 
L 629.724895 244.456642 
L 630.917455 246.490401 
L 632.224088 280.813573 
L 633.311047 165.16005 
L 634.504659 286.117442 
L 635.811083 244.867775 
L 637.006378 247.390059 
L 638.09852 296.201385 
L 639.40364 208.549136 
L 641.57944 294.151658 
L 642.665811 208.061319 
L 643.969595 172.146534 
L 645.382672 241.483703 
L 646.576977 286.322358 
L 647.55695 304.734615 
L 648.96996 175.102697 
L 650.166864 287.089303 
L 651.141832 206.837057 
L 652.230012 251.865283 
L 653.422523 285.790669 
L 654.6207 170.072368 
L 655.814734 286.242022 
L 658.207168 209.032747 
L 659.29335 294.317324 
L 660.379631 208.025633 
L 661.573898 286.310924 
L 662.663604 295.433823 
L 663.645406 209.849845 
L 664.735928 252.69759 
L 665.822339 251.233843 
L 667.127655 172.694702 
L 668.541053 241.574337 
L 669.62643 250.863472 
L 670.821215 325.706063 
L 672.125149 208.157017 
L 673.213984 295.158549 
L 674.300336 251.212427 
L 675.710093 240.546243 
L 676.691954 114.372008 
L 677.777767 251.019878 
L 679.189109 307.435191 
L 680.598495 173.908032 
L 681.685974 294.729029 
L 683.863226 209.863496 
L 685.274787 307.486941 
L 686.361232 251.245506 
L 687.770977 207.284653 
L 689.184056 274.664051 
L 690.379067 208.062386 
L 691.364736 259.103238 
L 692.450748 294.263062 
L 693.539131 165.780972 
L 694.623314 250.435426 
L 696.039868 242.460987 
L 697.341734 207.4717 
L 698.42721 294.09262 
L 699.510373 293.354539 
L 700.926363 242.302894 
L 702.013094 251.348018 
L 703.204882 206.895105 
L 704.290548 294.153052 
L 705.595708 244.485524 
L 706.684534 209.0343 
L 707.767915 293.424399 
L 708.859134 209.978769 
L 709.94257 206.892338 
L 711.034172 253.080415 
L 712.337552 207.973762 
L 714.510906 295.314033 
L 715.920309 207.1798 
L 717.117191 287.083041 
L 718.094178 207.731893 
L 719.183835 295.418162 
L 721.355051 208.282928 
L 722.443746 295.113997 
L 723.531335 208.544728 
L 725.70049 293.726904 
L 727.004917 208.320188 
L 728.090881 294.247548 
L 729.180158 252.2558 
L 730.596127 176.073146 
L 731.788589 285.776283 
L 733.094546 280.627779 
L 734.506394 207.928717 
L 735.920072 208.487491 
L 737.112315 285.711286 
L 738.089152 255.662192 
L 739.175368 208.000104 
L 740.269034 253.809993 
L 741.355101 294.280435 
L 743.52567 120.757259 
L 744.720381 364.930812 
L 745.806583 164.829418 
L 747.001202 325.662517 
L 748.196797 247.488332 
L 749.504473 281.099775 
L 750.588998 250.558211 
L 751.673945 250.709624 
L 752.979533 208.703534 
L 754.070177 252.741044 
L 755.482033 174.722918 
L 756.569385 337.807467 
L 757.547847 160.465182 
L 758.960851 208.281692 
L 758.960851 208.281692 
" clip-path="url(#p8a9cc9c8e9)" style="fill: none; stroke: #1f77b4; stroke-width: 1.5; stroke-linecap: square"/>
   </g>
   <g id="line2d_16">
    <path d="M 108.897868 374.982532 
L 110.313695 374.718207 
L 111.511095 404.703657 
L 112.926739 374.683861 
L 114.014243 380.962619 
L 115.103448 381.366721 
L 116.301235 404.779652 
L 118.695821 352.580851 
L 119.893122 404.684246 
L 122.288379 352.701399 
L 123.376602 381.133569 
L 124.465266 424.305176 
L 125.879685 341.306088 
L 126.968042 381.165394 
L 128.1654 404.695595 
L 129.471071 352.367402 
L 130.559058 424.17124 
L 131.756614 365.583425 
L 133.063887 388.584336 
L 134.262025 365.716565 
L 135.240812 352.230394 
L 136.438468 326.458705 
L 137.636329 404.794287 
L 138.724187 381.04674 
L 139.703443 352.36813 
L 140.792912 381.42912 
L 142.207237 374.43673 
L 143.294826 380.982826 
L 144.491366 404.534931 
L 145.796756 352.305504 
L 146.884241 380.958261 
L 148.080606 404.500381 
L 149.170978 381.643142 
L 150.476755 388.29683 
L 151.674341 365.590238 
L 152.653247 352.265573 
L 153.850996 404.772117 
L 155.155668 388.084068 
L 156.244244 338.146737 
L 157.331815 380.978695 
L 158.474932 393.547254 
L 159.781852 388.516781 
L 160.870292 338.109008 
L 161.958366 381.098303 
L 163.102426 393.750262 
L 164.407995 388.256748 
L 165.82226 341.273775 
L 166.90997 381.01149 
L 168.107203 404.670945 
L 170.499601 352.220986 
L 171.588079 381.194121 
L 172.674617 380.732558 
L 173.979053 388.038431 
L 175.066613 337.865362 
L 176.153323 380.773744 
L 177.349026 404.370221 
L 178.653184 352.034151 
L 179.739521 380.684714 
L 180.936616 404.643946 
L 182.240827 352.045704 
L 183.16557 386.134802 
L 184.254114 381.209783 
L 185.342888 338.201551 
L 186.539163 404.482896 
L 187.843838 352.148055 
L 188.931117 380.909082 
L 190.019476 424.244824 
L 191.106963 380.958599 
L 192.303553 365.362282 
L 193.393191 381.469091 
L 194.480218 380.849081 
L 195.567237 380.847253 
L 196.871604 388.025119 
L 197.958567 337.699775 
L 199.155876 404.685721 
L 200.244736 381.284965 
L 201.224682 352.570377 
L 202.420873 404.4662 
L 203.290557 316.174876 
L 204.595673 388.169383 
L 205.791527 365.193425 
L 206.881839 381.628791 
L 208.186145 352.066883 
L 209.274409 424.225934 
L 210.689758 341.502331 
L 211.887253 404.722239 
L 213.192222 352.212861 
L 214.606819 374.487767 
L 215.695388 424.286541 
L 216.89189 365.341934 
L 218.199019 388.556745 
L 219.287265 381.139142 
L 220.701313 341.227829 
L 221.897738 404.512235 
L 222.984979 380.900256 
L 224.074327 381.400293 
L 225.379489 388.178441 
L 226.466308 337.659619 
L 227.664038 404.768384 
L 228.968262 352.048818 
L 230.055796 424.081322 
L 232.557052 337.814818 
L 233.427538 370.33381 
L 234.62309 404.340583 
L 235.818796 365.159356 
L 236.908581 381.504074 
L 238.986195 336.544188 
L 240.180964 404.186376 
L 241.270545 381.455751 
L 242.465723 404.266843 
L 243.663656 365.669641 
L 244.912504 339.296535 
L 247.087882 423.979949 
L 248.284595 365.39038 
L 249.37171 380.870156 
L 250.459229 380.966031 
L 251.764238 352.221581 
L 252.961212 404.620145 
L 254.048081 380.811694 
L 255.135866 381.029341 
L 256.224265 295.020424 
L 257.31215 381.053352 
L 258.399291 380.876157 
L 259.813729 374.457904 
L 261.226841 374.209173 
L 262.316827 381.551671 
L 263.73001 374.222384 
L 264.925298 404.288708 
L 266.339739 374.458469 
L 267.428193 381.188385 
L 268.841656 374.27514 
L 270.253473 373.96565 
L 271.341105 424.100864 
L 272.427242 337.46987 
L 273.513643 423.856752 
L 274.70954 365.203168 
L 275.797379 381.042234 
L 276.883359 380.599598 
L 278.078629 325.833395 
L 279.491736 374.208292 
L 280.580416 424.308322 
L 281.561569 352.923586 
L 282.757917 365.306675 
L 283.847614 381.483338 
L 285.154053 388.424119 
L 286.56601 373.992055 
L 287.654697 338.177571 
L 288.849607 404.214131 
L 290.152917 351.847121 
L 291.239573 380.760635 
L 292.325871 423.836172 
L 293.523226 365.537414 
L 294.826457 351.829581 
L 295.80384 351.817716 
L 297.000828 404.622824 
L 299.392335 351.91526 
L 300.481118 381.2663 
L 301.676525 404.312233 
L 302.979845 351.849126 
L 304.066023 380.646663 
L 305.154722 424.312218 
L 307.328699 337.965558 
L 308.415045 423.845683 
L 309.394125 352.316483 
L 310.480312 337.483823 
L 311.568142 381.040256 
L 312.600389 367.115387 
L 313.795549 404.263294 
L 314.990066 404.136837 
L 316.187468 326.392221 
L 317.27408 380.750299 
L 318.255105 400.678326 
L 319.60032 325.958696 
L 321.122603 393.244574 
L 322.208632 380.611162 
L 323.405817 404.661602 
L 324.604302 326.675161 
L 325.68967 380.453676 
L 326.887349 404.758458 
L 327.865201 399.903041 
L 329.27767 374.088323 
L 330.364187 380.727614 
L 331.560186 404.428584 
L 332.755293 365.021842 
L 333.790601 367.921106 
L 334.769906 352.382461 
L 336.074457 388.060716 
L 337.268941 364.878456 
L 338.356026 380.862876 
L 339.446769 381.730791 
L 340.753249 352.545266 
L 341.841263 381.083967 
L 342.927318 380.617414 
L 344.339146 373.967799 
L 345.426811 424.107442 
L 346.514494 381.005251 
L 347.495261 352.810638 
L 348.581273 380.607225 
L 349.669154 381.052301 
L 350.755887 380.77908 
L 352.168468 374.109295 
L 353.255977 380.963844 
L 354.455401 366.01043 
L 355.329566 317.832427 
L 356.742569 407.370049 
L 357.830506 381.065733 
L 358.915973 380.477098 
L 360.003532 337.865024 
L 361.417145 374.30324 
L 362.830363 407.405291 
L 363.916752 380.697184 
L 365.003943 337.762973 
L 366.198897 404.22279 
L 367.501999 351.801095 
L 368.588952 380.831564 
L 369.676221 380.90668 
L 370.982597 388.411974 
L 372.068593 337.43069 
L 373.483523 374.550134 
L 374.569411 423.754747 
L 375.65915 338.468636 
L 377.069587 373.705863 
L 378.484437 374.53506 
L 379.571302 380.810527 
L 380.764857 403.946885 
L 382.069826 352.212906 
L 383.482129 374.05713 
L 384.89389 373.955019 
L 385.981349 380.951976 
L 387.066666 380.441512 
L 388.261981 404.293853 
L 389.460319 404.887601 
L 390.65639 404.442657 
L 391.746091 338.458361 
L 392.832185 337.457898 
L 393.917434 380.425241 
L 395.332531 407.713705 
L 396.419917 337.816879 
L 397.506695 380.789999 
L 398.810285 351.908694 
L 400.061254 414.764201 
L 401.256835 325.915128 
L 402.343319 423.873068 
L 403.538693 365.083072 
L 404.842809 352.024961 
L 405.929228 380.704278 
L 407.017788 381.213541 
L 408.431696 374.358611 
L 409.626615 404.215914 
L 410.821758 404.259974 
L 411.911872 295.562743 
L 412.998181 423.838303 
L 414.19133 364.571238 
L 415.170378 400.19607 
L 416.364864 364.878825 
L 417.668428 351.903058 
L 418.753564 423.60511 
L 419.948498 364.982061 
L 420.928338 352.539507 
L 422.124493 404.459134 
L 423.209541 380.377195 
L 424.516929 388.606475 
L 425.604171 380.90035 
L 426.692028 381.046671 
L 427.777566 337.303021 
L 428.865345 381.027995 
L 429.952918 380.979257 
L 431.260498 388.6434 
L 432.345649 380.401567 
L 433.75765 340.795416 
L 434.953276 404.355121 
L 436.25915 352.412002 
L 437.345009 423.749013 
L 438.757302 340.857083 
L 439.84611 424.333599 
L 440.931834 337.354923 
L 442.018463 380.754323 
L 443.105915 380.950319 
L 444.409382 351.881584 
L 445.494424 380.375839 
L 446.907412 374.185769 
L 447.995591 381.123207 
L 449.081995 380.700706 
L 450.492447 373.708512 
L 451.579241 423.934658 
L 452.66817 338.244709 
L 454.080857 374.129183 
L 455.167454 380.746713 
L 456.362058 404.153999 
L 457.450797 381.25604 
L 458.645619 325.715671 
L 459.733906 424.2307 
L 460.820159 380.664602 
L 462.015196 365.005725 
L 462.991586 399.544197 
L 464.2991 388.630667 
L 465.275518 351.533362 
L 466.363204 381.005962 
L 467.666053 351.745007 
L 468.752716 380.762407 
L 469.949446 404.572204 
L 471.152707 327.917479 
L 472.235723 379.890689 
L 473.270845 413.166877 
L 474.684584 374.326996 
L 475.769402 337.102388 
L 476.96772 404.883729 
L 478.270145 351.651367 
L 479.684201 407.543056 
L 480.771702 337.84888 
L 481.965333 403.961877 
L 483.270729 388.22354 
L 484.356227 380.484612 
L 485.443232 337.711303 
L 486.529333 380.628296 
L 487.56274 367.421516 
L 488.649748 380.84447 
L 490.064479 374.512853 
L 491.257724 403.885666 
L 492.559632 351.537086 
L 493.64785 424.216898 
L 496.148116 338.005517 
L 497.3415 403.913169 
L 498.539411 365.66442 
L 499.89278 362.492111 
L 501.088095 365.069635 
L 502.175371 380.908258 
L 503.479458 387.971157 
L 504.676097 404.554381 
L 505.762192 337.458174 
L 508.366929 403.899346 
L 509.454883 381.069653 
L 510.546622 381.965918 
L 511.740887 364.82829 
L 512.830076 381.362799 
L 514.026492 365.322345 
L 515.1124 380.582389 
L 516.414681 351.619424 
L 517.611936 404.67539 
L 518.915096 351.813896 
L 520.111096 404.428682 
L 521.196404 380.439226 
L 522.501449 388.155733 
L 523.588842 380.936245 
L 524.565829 351.700969 
L 525.547269 353.007654 
L 526.979104 344.934809 
L 528.404233 376.447288 
L 529.815013 373.770358 
L 531.012146 404.651501 
L 531.988712 399.587248 
L 533.075907 380.889112 
L 534.160682 337.090688 
L 535.575721 407.704134 
L 536.661131 380.463615 
L 537.749118 337.98368 
L 538.944604 404.327643 
L 541.341451 353.232685 
L 542.428785 380.922074 
L 543.623326 404.141449 
L 544.709045 380.537511 
L 545.79421 380.405109 
L 547.100964 388.484602 
L 548.186663 380.532761 
L 549.17161 354.027965 
L 550.365498 364.741262 
L 551.563312 404.78505 
L 552.758148 325.719409 
L 553.84418 423.783395 
L 554.932296 381.108164 
L 556.242018 317.457895 
L 557.328505 423.873641 
L 558.740028 340.694228 
L 559.830619 424.685615 
L 561.246007 374.636017 
L 562.438578 364.437679 
L 563.740734 387.598046 
L 564.82847 381.017723 
L 566.240371 340.774163 
L 567.433329 403.828913 
L 568.418288 401.633025 
L 569.505766 380.956436 
L 570.70029 364.88772 
L 571.790819 381.680089 
L 573.096445 352.357443 
L 574.182507 423.789361 
L 575.213009 366.653981 
L 576.411466 365.789568 
L 577.613001 405.512163 
L 578.806929 364.75056 
L 580.218634 373.944677 
L 581.307587 338.251288 
L 582.611411 387.92024 
L 583.806164 364.940525 
L 584.892145 380.599963 
L 586.198901 352.605797 
L 587.393278 404.109097 
L 588.694988 387.511536 
L 590.109003 341.221038 
L 591.195311 423.838069 
L 592.392433 365.484082 
L 593.694061 351.475229 
L 594.784355 381.624427 
L 595.87009 380.541231 
L 596.955846 380.546217 
L 598.041029 380.409279 
L 599.456638 407.797724 
L 600.867653 340.586447 
L 601.954567 423.958505 
L 603.150144 365.129663 
L 604.241035 381.765901 
L 605.550327 388.971659 
L 606.635969 380.518748 
L 608.807685 351.891696 
L 610.005179 404.722235 
L 611.204743 326.956752 
L 612.293577 381.278476 
L 613.380285 380.773289 
L 614.359798 352.44351 
L 615.553703 404.016031 
L 617.948531 352.856779 
L 619.36473 374.78772 
L 620.447494 379.830092 
L 621.642922 404.316269 
L 622.728802 380.575737 
L 623.814685 380.576599 
L 624.941899 348.481164 
L 627.226399 380.662774 
L 628.419831 403.922529 
L 629.724895 352.233921 
L 630.917455 403.750241 
L 632.224088 388.461501 
L 633.311047 337.698214 
L 634.504659 403.958295 
L 635.811083 352.532927 
L 637.006378 404.290036 
L 638.09852 382.061039 
L 639.40364 352.246091 
L 640.493778 381.587669 
L 641.57944 423.709786 
L 642.665811 337.534924 
L 643.969595 351.951713 
L 645.382672 374.202469 
L 646.576977 404.094906 
L 647.55695 400.421868 
L 648.96996 341.008877 
L 650.166864 404.606202 
L 651.141832 351.104705 
L 652.230012 381.123522 
L 653.422523 403.740446 
L 654.6207 326.594912 
L 655.814734 404.041348 
L 658.207168 352.568498 
L 659.29335 380.647993 
L 660.379631 380.67138 
L 661.573898 404.087282 
L 662.663604 381.485367 
L 663.645406 353.11323 
L 664.735928 381.678394 
L 665.822339 380.702562 
L 667.127655 352.289047 
L 668.541053 374.262891 
L 669.62643 380.455648 
L 670.821215 404.189547 
L 672.125149 351.984678 
L 673.213984 424.339093 
L 674.300336 380.688284 
L 675.710093 373.577496 
L 676.691954 305.378551 
L 677.777767 380.559919 
L 679.189109 407.096634 
L 680.598495 340.240878 
L 681.685974 380.956772 
L 682.7723 380.681943 
L 683.863226 381.774098 
L 685.274787 407.132859 
L 686.361232 380.710338 
L 687.770977 340.317067 
L 689.184056 407.382578 
L 690.379067 364.9997 
L 691.364736 354.237429 
L 692.450748 423.779414 
L 693.539131 338.093346 
L 694.623314 380.170284 
L 696.039868 374.853992 
L 697.341734 351.5278 
L 698.42721 380.479465 
L 699.510373 423.211587 
L 700.926363 374.748596 
L 702.013094 380.778678 
L 703.204882 364.256885 
L 704.290548 380.524789 
L 705.595708 388.178061 
L 706.684534 338.21601 
L 707.767915 423.255249 
L 708.859134 338.877138 
L 709.94257 379.991403 
L 711.034172 381.93361 
L 712.337552 351.862508 
L 713.421579 380.132775 
L 714.510906 381.395525 
L 715.920309 373.510646 
L 717.117191 404.602027 
L 718.094178 351.701262 
L 719.183835 381.473621 
L 720.268122 380.195271 
L 721.355051 380.825757 
L 722.443746 381.245498 
L 723.531335 380.982837 
L 724.616161 380.324113 
L 725.70049 380.205178 
L 727.004917 352.093459 
L 728.090881 423.769718 
L 729.180158 381.383867 
L 730.596127 341.632736 
L 731.788589 403.730856 
L 733.094546 388.331445 
L 734.506394 340.762958 
L 737.112315 403.687524 
L 738.089152 351.656644 
L 739.175368 380.656062 
L 740.269034 382.419995 
L 741.355101 380.620326 
L 742.441369 380.668301 
L 743.52567 293.718173 
L 744.720381 443.419152 
L 745.806583 337.487811 
L 747.001202 404.156888 
L 748.196797 404.348999 
L 749.504473 388.661843 
L 750.588998 380.252141 
L 751.673945 380.353083 
L 752.979533 352.349023 
L 754.070177 381.707363 
L 755.482033 340.764733 
L 756.569385 424.045334 
L 757.547847 304.217627 
L 758.960851 374.188734 
L 758.960851 374.188734 
" clip-path="url(#p8a9cc9c8e9)" style="fill: none; stroke: #ff7f0e; stroke-width: 1.5; stroke-linecap: square"/>
   </g>
   <g id="line2d_17">
    <path d="M 93.32 244.216873 
L 791.464 244.216873 
" clip-path="url(#p8a9cc9c8e9)" style="fill: none; stroke-dasharray: 5.55,2.4; stroke-dashoffset: 0; stroke: #0000ff; stroke-width: 1.5"/>
   </g>
   <g id="line2d_18">
    <path d="M 93.32 376.709313 
L 791.464 376.709313 
" clip-path="url(#p8a9cc9c8e9)" style="fill: none; stroke-dasharray: 5.55,2.4; stroke-dashoffset: 0; stroke: #ffa500; stroke-width: 1.5"/>
   </g>
   <g id="patch_3">
    <path d="M 93.32 639.64 
L 93.32 60.96 
" style="fill: none; stroke: #000000; stroke-width: 0.8; stroke-linejoin: miter; stroke-linecap: square"/>
   </g>
   <g id="patch_4">
    <path d="M 791.464 639.64 
L 791.464 60.96 
" style="fill: none; stroke: #000000; stroke-width: 0.8; stroke-linejoin: miter; stroke-linecap: square"/>
   </g>
   <g id="patch_5">
    <path d="M 93.32 639.64 
L 791.464 639.64 
" style="fill: none; stroke: #000000; stroke-width: 0.8; stroke-linejoin: miter; stroke-linecap: square"/>
   </g>
   <g id="patch_6">
    <path d="M 93.32 60.96 
L 791.464 60.96 
" style="fill: none; stroke: #000000; stroke-width: 0.8; stroke-linejoin: miter; stroke-linecap: square"/>
   </g>
   <g id="text_17">
    <!-- Parsed and Filtered Packets (SelectionProcess: 16777218) -->
    <g transform="translate(199.394438 54.96) scale(0.168 -0.168)">
     <defs>
      <path id="DejaVuSans-46" d="M 628 4666 
L 3309 4666 
L 3309 4134 
L 1259 4134 
L 1259 2759 
L 3109 2759 
L 3109 2228 
L 1259 2228 
L 1259 0 
L 628 0 
L 628 4666 
z
" transform="scale(0.015625)"/>
      <path id="DejaVuSans-6c" d="M 603 4863 
L 1178 4863 
L 1178 0 
L 603 0 
L 603 4863 
z
" transform="scale(0.015625)"/>
      <path id="DejaVuSans-3a" d="M 750 794 
L 1409 794 
L 1409 0 
L 750 0 
L 750 794 
z
M 750 3309 
L 1409 3309 
L 1409 2516 
L 750 2516 
L 750 3309 
z
" transform="scale(0.015625)"/>
      <path id="DejaVuSans-37" d="M 525 4666 
L 3525 4666 
L 3525 4397 
L 1831 0 
L 1172 0 
L 2766 4134 
L 525 4134 
L 525 4666 
z
" transform="scale(0.015625)"/>
     </defs>
     <use xlink:href="#DejaVuSans-50"/>
     <use xlink:href="#DejaVuSans-61" x="55.802734"/>
     <use xlink:href="#DejaVuSans-72" x="117.082031"/>
     <use xlink:href="#DejaVuSans-73" x="158.195312"/>
     <use xlink:href="#DejaVuSans-65" x="210.294922"/>
     <use xlink:href="#DejaVuSans-64" x="271.818359"/>
     <use xlink:href="#DejaVuSans-20" x="335.294922"/>
     <use xlink:href="#DejaVuSans-61" x="367.082031"/>
     <use xlink:href="#DejaVuSans-6e" x="428.361328"/>
     <use xlink:href="#DejaVuSans-64" x="491.740234"/>
     <use xlink:href="#DejaVuSans-20" x="555.216797"/>
     <use xlink:href="#DejaVuSans-46" x="587.003906"/>
     <use xlink:href="#DejaVuSans-69" x="637.273438"/>
     <use xlink:href="#DejaVuSans-6c" x="665.056641"/>
     <use xlink:href="#DejaVuSans-74" x="692.839844"/>
     <use xlink:href="#DejaVuSans-65" x="732.048828"/>
     <use xlink:href="#DejaVuSans-72" x="793.572266"/>
     <use xlink:href="#DejaVuSans-65" x="832.435547"/>
     <use xlink:href="#DejaVuSans-64" x="893.958984"/>
     <use xlink:href="#DejaVuSans-20" x="957.435547"/>
     <use xlink:href="#DejaVuSans-50" x="989.222656"/>
     <use xlink:href="#DejaVuSans-61" x="1045.025391"/>
     <use xlink:href="#DejaVuSans-63" x="1106.304688"/>
     <use xlink:href="#DejaVuSans-6b" x="1161.285156"/>
     <use xlink:href="#DejaVuSans-65" x="1215.570312"/>
     <use xlink:href="#DejaVuSans-74" x="1277.09375"/>
     <use xlink:href="#DejaVuSans-73" x="1316.302734"/>
     <use xlink:href="#DejaVuSans-20" x="1368.402344"/>
     <use xlink:href="#DejaVuSans-28" x="1400.189453"/>
     <use xlink:href="#DejaVuSans-53" x="1439.203125"/>
     <use xlink:href="#DejaVuSans-65" x="1502.679688"/>
     <use xlink:href="#DejaVuSans-6c" x="1564.203125"/>
     <use xlink:href="#DejaVuSans-65" x="1591.986328"/>
     <use xlink:href="#DejaVuSans-63" x="1653.509766"/>
     <use xlink:href="#DejaVuSans-74" x="1708.490234"/>
     <use xlink:href="#DejaVuSans-69" x="1747.699219"/>
     <use xlink:href="#DejaVuSans-6f" x="1775.482422"/>
     <use xlink:href="#DejaVuSans-6e" x="1836.664062"/>
     <use xlink:href="#DejaVuSans-50" x="1900.042969"/>
     <use xlink:href="#DejaVuSans-72" x="1958.595703"/>
     <use xlink:href="#DejaVuSans-6f" x="1997.458984"/>
     <use xlink:href="#DejaVuSans-63" x="2058.640625"/>
     <use xlink:href="#DejaVuSans-65" x="2113.621094"/>
     <use xlink:href="#DejaVuSans-73" x="2175.144531"/>
     <use xlink:href="#DejaVuSans-73" x="2227.244141"/>
     <use xlink:href="#DejaVuSans-3a" x="2279.34375"/>
     <use xlink:href="#DejaVuSans-20" x="2313.035156"/>
     <use xlink:href="#DejaVuSans-31" x="2344.822266"/>
     <use xlink:href="#DejaVuSans-36" x="2408.445312"/>
     <use xlink:href="#DejaVuSans-37" x="2472.068359"/>
     <use xlink:href="#DejaVuSans-37" x="2535.691406"/>
     <use xlink:href="#DejaVuSans-37" x="2599.314453"/>
     <use xlink:href="#DejaVuSans-32" x="2662.9375"/>
     <use xlink:href="#DejaVuSans-31" x="2726.560547"/>
     <use xlink:href="#DejaVuSans-38" x="2790.183594"/>
     <use xlink:href="#DejaVuSans-29" x="2853.806641"/>
    </g>
   </g>
   <g id="legend_1">
    <g id="patch_7">
     <path d="M 801.264 393.49875 
L 1017.399938 393.49875 
Q 1020.199938 393.49875 1020.199938 390.69875 
L 1020.199938 309.90125 
Q 1020.199938 307.10125 1017.399938 307.10125 
L 801.264 307.10125 
Q 798.464 307.10125 798.464 309.90125 
L 798.464 390.69875 
Q 798.464 393.49875 801.264 393.49875 
z
" style="fill: #ffffff; opacity: 0.8; stroke: #cccccc; stroke-linejoin: miter"/>
    </g>
    <g id="line2d_19">
     <path d="M 804.064 318.439063 
L 818.064 318.439063 
L 832.064 318.439063 
" style="fill: none; stroke: #1f77b4; stroke-width: 1.5; stroke-linecap: square"/>
    </g>
    <g id="text_18">
     <!-- Parsed Packets -->
     <g transform="translate(843.264 323.339063) scale(0.14 -0.14)">
      <use xlink:href="#DejaVuSans-50"/>
      <use xlink:href="#DejaVuSans-61" x="55.802734"/>
      <use xlink:href="#DejaVuSans-72" x="117.082031"/>
      <use xlink:href="#DejaVuSans-73" x="158.195312"/>
      <use xlink:href="#DejaVuSans-65" x="210.294922"/>
      <use xlink:href="#DejaVuSans-64" x="271.818359"/>
      <use xlink:href="#DejaVuSans-20" x="335.294922"/>
      <use xlink:href="#DejaVuSans-50" x="367.082031"/>
      <use xlink:href="#DejaVuSans-61" x="422.884766"/>
      <use xlink:href="#DejaVuSans-63" x="484.164062"/>
      <use xlink:href="#DejaVuSans-6b" x="539.144531"/>
      <use xlink:href="#DejaVuSans-65" x="593.429688"/>
      <use xlink:href="#DejaVuSans-74" x="654.953125"/>
      <use xlink:href="#DejaVuSans-73" x="694.162109"/>
     </g>
    </g>
    <g id="line2d_20">
     <path d="M 804.064 338.988438 
L 818.064 338.988438 
L 832.064 338.988438 
" style="fill: none; stroke: #ff7f0e; stroke-width: 1.5; stroke-linecap: square"/>
    </g>
    <g id="text_19">
     <!-- Filtered Packets -->
     <g transform="translate(843.264 343.888438) scale(0.14 -0.14)">
      <use xlink:href="#DejaVuSans-46"/>
      <use xlink:href="#DejaVuSans-69" x="50.269531"/>
      <use xlink:href="#DejaVuSans-6c" x="78.052734"/>
      <use xlink:href="#DejaVuSans-74" x="105.835938"/>
      <use xlink:href="#DejaVuSans-65" x="145.044922"/>
      <use xlink:href="#DejaVuSans-72" x="206.568359"/>
      <use xlink:href="#DejaVuSans-65" x="245.431641"/>
      <use xlink:href="#DejaVuSans-64" x="306.955078"/>
      <use xlink:href="#DejaVuSans-20" x="370.431641"/>
      <use xlink:href="#DejaVuSans-50" x="402.21875"/>
      <use xlink:href="#DejaVuSans-61" x="458.021484"/>
      <use xlink:href="#DejaVuSans-63" x="519.300781"/>
      <use xlink:href="#DejaVuSans-6b" x="574.28125"/>
      <use xlink:href="#DejaVuSans-65" x="628.566406"/>
      <use xlink:href="#DejaVuSans-74" x="690.089844"/>
      <use xlink:href="#DejaVuSans-73" x="729.298828"/>
     </g>
    </g>
    <g id="line2d_21">
     <path d="M 804.064 359.537813 
L 818.064 359.537813 
L 832.064 359.537813 
" style="fill: none; stroke-dasharray: 5.55,2.4; stroke-dashoffset: 0; stroke: #0000ff; stroke-width: 1.5"/>
    </g>
    <g id="text_20">
     <!-- Parsed Packets Average -->
     <g transform="translate(843.264 364.437813) scale(0.14 -0.14)">
      <defs>
       <path id="DejaVuSans-41" d="M 2188 4044 
L 1331 1722 
L 3047 1722 
L 2188 4044 
z
M 1831 4666 
L 2547 4666 
L 4325 0 
L 3669 0 
L 3244 1197 
L 1141 1197 
L 716 0 
L 50 0 
L 1831 4666 
z
" transform="scale(0.015625)"/>
       <path id="DejaVuSans-76" d="M 191 3500 
L 800 3500 
L 1894 563 
L 2988 3500 
L 3597 3500 
L 2284 0 
L 1503 0 
L 191 3500 
z
" transform="scale(0.015625)"/>
       <path id="DejaVuSans-67" d="M 2906 1791 
Q 2906 2416 2648 2759 
Q 2391 3103 1925 3103 
Q 1463 3103 1205 2759 
Q 947 2416 947 1791 
Q 947 1169 1205 825 
Q 1463 481 1925 481 
Q 2391 481 2648 825 
Q 2906 1169 2906 1791 
z
M 3481 434 
Q 3481 -459 3084 -895 
Q 2688 -1331 1869 -1331 
Q 1566 -1331 1297 -1286 
Q 1028 -1241 775 -1147 
L 775 -588 
Q 1028 -725 1275 -790 
Q 1522 -856 1778 -856 
Q 2344 -856 2625 -561 
Q 2906 -266 2906 331 
L 2906 616 
Q 2728 306 2450 153 
Q 2172 0 1784 0 
Q 1141 0 747 490 
Q 353 981 353 1791 
Q 353 2603 747 3093 
Q 1141 3584 1784 3584 
Q 2172 3584 2450 3431 
Q 2728 3278 2906 2969 
L 2906 3500 
L 3481 3500 
L 3481 434 
z
" transform="scale(0.015625)"/>
      </defs>
      <use xlink:href="#DejaVuSans-50"/>
      <use xlink:href="#DejaVuSans-61" x="55.802734"/>
      <use xlink:href="#DejaVuSans-72" x="117.082031"/>
      <use xlink:href="#DejaVuSans-73" x="158.195312"/>
      <use xlink:href="#DejaVuSans-65" x="210.294922"/>
      <use xlink:href="#DejaVuSans-64" x="271.818359"/>
      <use xlink:href="#DejaVuSans-20" x="335.294922"/>
      <use xlink:href="#DejaVuSans-50" x="367.082031"/>
      <use xlink:href="#DejaVuSans-61" x="422.884766"/>
      <use xlink:href="#DejaVuSans-63" x="484.164062"/>
      <use xlink:href="#DejaVuSans-6b" x="539.144531"/>
      <use xlink:href="#DejaVuSans-65" x="593.429688"/>
      <use xlink:href="#DejaVuSans-74" x="654.953125"/>
      <use xlink:href="#DejaVuSans-73" x="694.162109"/>
      <use xlink:href="#DejaVuSans-20" x="746.261719"/>
      <use xlink:href="#DejaVuSans-41" x="778.048828"/>
      <use xlink:href="#DejaVuSans-76" x="840.582031"/>
      <use xlink:href="#DejaVuSans-65" x="899.761719"/>
      <use xlink:href="#DejaVuSans-72" x="961.285156"/>
      <use xlink:href="#DejaVuSans-61" x="1002.398438"/>
      <use xlink:href="#DejaVuSans-67" x="1063.677734"/>
      <use xlink:href="#DejaVuSans-65" x="1127.154297"/>
     </g>
    </g>
    <g id="line2d_22">
     <path d="M 804.064 380.087188 
L 818.064 380.087188 
L 832.064 380.087188 
" style="fill: none; stroke-dasharray: 5.55,2.4; stroke-dashoffset: 0; stroke: #ffa500; stroke-width: 1.5"/>
    </g>
    <g id="text_21">
     <!-- Filtered Packets Average -->
     <g transform="translate(843.264 384.987188) scale(0.14 -0.14)">
      <use xlink:href="#DejaVuSans-46"/>
      <use xlink:href="#DejaVuSans-69" x="50.269531"/>
      <use xlink:href="#DejaVuSans-6c" x="78.052734"/>
      <use xlink:href="#DejaVuSans-74" x="105.835938"/>
      <use xlink:href="#DejaVuSans-65" x="145.044922"/>
      <use xlink:href="#DejaVuSans-72" x="206.568359"/>
      <use xlink:href="#DejaVuSans-65" x="245.431641"/>
      <use xlink:href="#DejaVuSans-64" x="306.955078"/>
      <use xlink:href="#DejaVuSans-20" x="370.431641"/>
      <use xlink:href="#DejaVuSans-50" x="402.21875"/>
      <use xlink:href="#DejaVuSans-61" x="458.021484"/>
      <use xlink:href="#DejaVuSans-63" x="519.300781"/>
      <use xlink:href="#DejaVuSans-6b" x="574.28125"/>
      <use xlink:href="#DejaVuSans-65" x="628.566406"/>
      <use xlink:href="#DejaVuSans-74" x="690.089844"/>
      <use xlink:href="#DejaVuSans-73" x="729.298828"/>
      <use xlink:href="#DejaVuSans-20" x="781.398438"/>
      <use xlink:href="#DejaVuSans-41" x="813.185547"/>
      <use xlink:href="#DejaVuSans-76" x="875.71875"/>
      <use xlink:href="#DejaVuSans-65" x="934.898438"/>
      <use xlink:href="#DejaVuSans-72" x="996.421875"/>
      <use xlink:href="#DejaVuSans-61" x="1037.535156"/>
      <use xlink:href="#DejaVuSans-67" x="1098.814453"/>
      <use xlink:href="#DejaVuSans-65" x="1162.291016"/>
     </g>
    </g>
   </g>
  </g>
 </g>
 <defs>
  <clipPath id="p8a9cc9c8e9">
   <rect x="93.32" y="60.96" width="698.144" height="578.68"/>
  </clipPath>
 </defs>
</svg>
