<?xml version="1.0" encoding="utf-8" standalone="no"?>
<!DOCTYPE svg PUBLIC "-//W3C//DTD SVG 1.1//EN"
  "http://www.w3.org/Graphics/SVG/1.1/DTD/svg11.dtd">
<svg xmlns:xlink="http://www.w3.org/1999/xlink" width="1008pt" height="720pt" viewBox="0 0 1008 720" xmlns="http://www.w3.org/2000/svg" version="1.1">
 <metadata>
  <rdf:RDF xmlns:dc="http://purl.org/dc/elements/1.1/" xmlns:cc="http://creativecommons.org/ns#" xmlns:rdf="http://www.w3.org/1999/02/22-rdf-syntax-ns#">
   <cc:Work>
    <dc:type rdf:resource="http://purl.org/dc/dcmitype/StillImage"/>
    <dc:date>2023-04-13T18:54:41.133775</dc:date>
    <dc:format>image/svg+xml</dc:format>
    <dc:creator>
     <cc:Agent>
      <dc:title>Matplotlib v3.6.2, https://matplotlib.org/</dc:title>
     </cc:Agent>
    </dc:creator>
   </cc:Work>
  </rdf:RDF>
 </metadata>
 <defs>
  <style type="text/css">*{stroke-linejoin: round; stroke-linecap: butt}</style>
 </defs>
 <g id="figure_1">
  <g id="patch_1">
   <path d="M 0 720 
L 1008 720 
L 1008 0 
L 0 0 
z
" style="fill: #ffffff"/>
  </g>
  <g id="axes_1">
   <g id="patch_2">
    <path d="M 84.59 639.64 
L 789.718 639.64 
L 789.718 60.96 
L 84.59 60.96 
z
" style="fill: #ffffff"/>
   </g>
   <g id="matplotlib.axis_1">
    <g id="xtick_1">
     <g id="line2d_1">
      <defs>
       <path id="m8e72189af9" d="M 0 0 
L 0 3.5 
" style="stroke: #000000; stroke-width: 0.8"/>
      </defs>
      <g>
       <use xlink:href="#m8e72189af9" x="84.59" y="639.64" style="stroke: #000000; stroke-width: 0.8"/>
      </g>
     </g>
     <g id="text_1">
      <!-- 0 -->
      <g transform="translate(80.13625 657.277812) scale(0.14 -0.14)">
       <defs>
        <path id="DejaVuSans-30" d="M 2034 4250 
Q 1547 4250 1301 3770 
Q 1056 3291 1056 2328 
Q 1056 1369 1301 889 
Q 1547 409 2034 409 
Q 2525 409 2770 889 
Q 3016 1369 3016 2328 
Q 3016 3291 2770 3770 
Q 2525 4250 2034 4250 
z
M 2034 4750 
Q 2819 4750 3233 4129 
Q 3647 3509 3647 2328 
Q 3647 1150 3233 529 
Q 2819 -91 2034 -91 
Q 1250 -91 836 529 
Q 422 1150 422 2328 
Q 422 3509 836 4129 
Q 1250 4750 2034 4750 
z
" transform="scale(0.015625)"/>
       </defs>
       <use xlink:href="#DejaVuSans-30"/>
      </g>
     </g>
    </g>
    <g id="xtick_2">
     <g id="line2d_2">
      <g>
       <use xlink:href="#m8e72189af9" x="176.382028" y="639.64" style="stroke: #000000; stroke-width: 0.8"/>
      </g>
     </g>
     <g id="text_2">
      <!-- 250 -->
      <g transform="translate(163.020778 657.277812) scale(0.14 -0.14)">
       <defs>
        <path id="DejaVuSans-32" d="M 1228 531 
L 3431 531 
L 3431 0 
L 469 0 
L 469 531 
Q 828 903 1448 1529 
Q 2069 2156 2228 2338 
Q 2531 2678 2651 2914 
Q 2772 3150 2772 3378 
Q 2772 3750 2511 3984 
Q 2250 4219 1831 4219 
Q 1534 4219 1204 4116 
Q 875 4013 500 3803 
L 500 4441 
Q 881 4594 1212 4672 
Q 1544 4750 1819 4750 
Q 2544 4750 2975 4387 
Q 3406 4025 3406 3419 
Q 3406 3131 3298 2873 
Q 3191 2616 2906 2266 
Q 2828 2175 2409 1742 
Q 1991 1309 1228 531 
z
" transform="scale(0.015625)"/>
        <path id="DejaVuSans-35" d="M 691 4666 
L 3169 4666 
L 3169 4134 
L 1269 4134 
L 1269 2991 
Q 1406 3038 1543 3061 
Q 1681 3084 1819 3084 
Q 2600 3084 3056 2656 
Q 3513 2228 3513 1497 
Q 3513 744 3044 326 
Q 2575 -91 1722 -91 
Q 1428 -91 1123 -41 
Q 819 9 494 109 
L 494 744 
Q 775 591 1075 516 
Q 1375 441 1709 441 
Q 2250 441 2565 725 
Q 2881 1009 2881 1497 
Q 2881 1984 2565 2268 
Q 2250 2553 1709 2553 
Q 1456 2553 1204 2497 
Q 953 2441 691 2322 
L 691 4666 
z
" transform="scale(0.015625)"/>
       </defs>
       <use xlink:href="#DejaVuSans-32"/>
       <use xlink:href="#DejaVuSans-35" x="63.623047"/>
       <use xlink:href="#DejaVuSans-30" x="127.246094"/>
      </g>
     </g>
    </g>
    <g id="xtick_3">
     <g id="line2d_3">
      <g>
       <use xlink:href="#m8e72189af9" x="268.174056" y="639.64" style="stroke: #000000; stroke-width: 0.8"/>
      </g>
     </g>
     <g id="text_3">
      <!-- 500 -->
      <g transform="translate(254.812806 657.277812) scale(0.14 -0.14)">
       <use xlink:href="#DejaVuSans-35"/>
       <use xlink:href="#DejaVuSans-30" x="63.623047"/>
       <use xlink:href="#DejaVuSans-30" x="127.246094"/>
      </g>
     </g>
    </g>
    <g id="xtick_4">
     <g id="line2d_4">
      <g>
       <use xlink:href="#m8e72189af9" x="359.966084" y="639.64" style="stroke: #000000; stroke-width: 0.8"/>
      </g>
     </g>
     <g id="text_4">
      <!-- 750 -->
      <g transform="translate(346.604834 657.277812) scale(0.14 -0.14)">
       <defs>
        <path id="DejaVuSans-37" d="M 525 4666 
L 3525 4666 
L 3525 4397 
L 1831 0 
L 1172 0 
L 2766 4134 
L 525 4134 
L 525 4666 
z
" transform="scale(0.015625)"/>
       </defs>
       <use xlink:href="#DejaVuSans-37"/>
       <use xlink:href="#DejaVuSans-35" x="63.623047"/>
       <use xlink:href="#DejaVuSans-30" x="127.246094"/>
      </g>
     </g>
    </g>
    <g id="xtick_5">
     <g id="line2d_5">
      <g>
       <use xlink:href="#m8e72189af9" x="451.758112" y="639.64" style="stroke: #000000; stroke-width: 0.8"/>
      </g>
     </g>
     <g id="text_5">
      <!-- 1000 -->
      <g transform="translate(433.943112 657.277812) scale(0.14 -0.14)">
       <defs>
        <path id="DejaVuSans-31" d="M 794 531 
L 1825 531 
L 1825 4091 
L 703 3866 
L 703 4441 
L 1819 4666 
L 2450 4666 
L 2450 531 
L 3481 531 
L 3481 0 
L 794 0 
L 794 531 
z
" transform="scale(0.015625)"/>
       </defs>
       <use xlink:href="#DejaVuSans-31"/>
       <use xlink:href="#DejaVuSans-30" x="63.623047"/>
       <use xlink:href="#DejaVuSans-30" x="127.246094"/>
       <use xlink:href="#DejaVuSans-30" x="190.869141"/>
      </g>
     </g>
    </g>
    <g id="xtick_6">
     <g id="line2d_6">
      <g>
       <use xlink:href="#m8e72189af9" x="543.55014" y="639.64" style="stroke: #000000; stroke-width: 0.8"/>
      </g>
     </g>
     <g id="text_6">
      <!-- 1250 -->
      <g transform="translate(525.73514 657.277812) scale(0.14 -0.14)">
       <use xlink:href="#DejaVuSans-31"/>
       <use xlink:href="#DejaVuSans-32" x="63.623047"/>
       <use xlink:href="#DejaVuSans-35" x="127.246094"/>
       <use xlink:href="#DejaVuSans-30" x="190.869141"/>
      </g>
     </g>
    </g>
    <g id="xtick_7">
     <g id="line2d_7">
      <g>
       <use xlink:href="#m8e72189af9" x="635.342167" y="639.64" style="stroke: #000000; stroke-width: 0.8"/>
      </g>
     </g>
     <g id="text_7">
      <!-- 1500 -->
      <g transform="translate(617.527167 657.277812) scale(0.14 -0.14)">
       <use xlink:href="#DejaVuSans-31"/>
       <use xlink:href="#DejaVuSans-35" x="63.623047"/>
       <use xlink:href="#DejaVuSans-30" x="127.246094"/>
       <use xlink:href="#DejaVuSans-30" x="190.869141"/>
      </g>
     </g>
    </g>
    <g id="xtick_8">
     <g id="line2d_8">
      <g>
       <use xlink:href="#m8e72189af9" x="727.134195" y="639.64" style="stroke: #000000; stroke-width: 0.8"/>
      </g>
     </g>
     <g id="text_8">
      <!-- 1750 -->
      <g transform="translate(709.319195 657.277812) scale(0.14 -0.14)">
       <use xlink:href="#DejaVuSans-31"/>
       <use xlink:href="#DejaVuSans-37" x="63.623047"/>
       <use xlink:href="#DejaVuSans-35" x="127.246094"/>
       <use xlink:href="#DejaVuSans-30" x="190.869141"/>
      </g>
     </g>
    </g>
    <g id="text_9">
     <!-- Packet Number -->
     <g transform="translate(383.913531 674.827188) scale(0.14 -0.14)">
      <defs>
       <path id="DejaVuSans-50" d="M 1259 4147 
L 1259 2394 
L 2053 2394 
Q 2494 2394 2734 2622 
Q 2975 2850 2975 3272 
Q 2975 3691 2734 3919 
Q 2494 4147 2053 4147 
L 1259 4147 
z
M 628 4666 
L 2053 4666 
Q 2838 4666 3239 4311 
Q 3641 3956 3641 3272 
Q 3641 2581 3239 2228 
Q 2838 1875 2053 1875 
L 1259 1875 
L 1259 0 
L 628 0 
L 628 4666 
z
" transform="scale(0.015625)"/>
       <path id="DejaVuSans-61" d="M 2194 1759 
Q 1497 1759 1228 1600 
Q 959 1441 959 1056 
Q 959 750 1161 570 
Q 1363 391 1709 391 
Q 2188 391 2477 730 
Q 2766 1069 2766 1631 
L 2766 1759 
L 2194 1759 
z
M 3341 1997 
L 3341 0 
L 2766 0 
L 2766 531 
Q 2569 213 2275 61 
Q 1981 -91 1556 -91 
Q 1019 -91 701 211 
Q 384 513 384 1019 
Q 384 1609 779 1909 
Q 1175 2209 1959 2209 
L 2766 2209 
L 2766 2266 
Q 2766 2663 2505 2880 
Q 2244 3097 1772 3097 
Q 1472 3097 1187 3025 
Q 903 2953 641 2809 
L 641 3341 
Q 956 3463 1253 3523 
Q 1550 3584 1831 3584 
Q 2591 3584 2966 3190 
Q 3341 2797 3341 1997 
z
" transform="scale(0.015625)"/>
       <path id="DejaVuSans-63" d="M 3122 3366 
L 3122 2828 
Q 2878 2963 2633 3030 
Q 2388 3097 2138 3097 
Q 1578 3097 1268 2742 
Q 959 2388 959 1747 
Q 959 1106 1268 751 
Q 1578 397 2138 397 
Q 2388 397 2633 464 
Q 2878 531 3122 666 
L 3122 134 
Q 2881 22 2623 -34 
Q 2366 -91 2075 -91 
Q 1284 -91 818 406 
Q 353 903 353 1747 
Q 353 2603 823 3093 
Q 1294 3584 2113 3584 
Q 2378 3584 2631 3529 
Q 2884 3475 3122 3366 
z
" transform="scale(0.015625)"/>
       <path id="DejaVuSans-6b" d="M 581 4863 
L 1159 4863 
L 1159 1991 
L 2875 3500 
L 3609 3500 
L 1753 1863 
L 3688 0 
L 2938 0 
L 1159 1709 
L 1159 0 
L 581 0 
L 581 4863 
z
" transform="scale(0.015625)"/>
       <path id="DejaVuSans-65" d="M 3597 1894 
L 3597 1613 
L 953 1613 
Q 991 1019 1311 708 
Q 1631 397 2203 397 
Q 2534 397 2845 478 
Q 3156 559 3463 722 
L 3463 178 
Q 3153 47 2828 -22 
Q 2503 -91 2169 -91 
Q 1331 -91 842 396 
Q 353 884 353 1716 
Q 353 2575 817 3079 
Q 1281 3584 2069 3584 
Q 2775 3584 3186 3129 
Q 3597 2675 3597 1894 
z
M 3022 2063 
Q 3016 2534 2758 2815 
Q 2500 3097 2075 3097 
Q 1594 3097 1305 2825 
Q 1016 2553 972 2059 
L 3022 2063 
z
" transform="scale(0.015625)"/>
       <path id="DejaVuSans-74" d="M 1172 4494 
L 1172 3500 
L 2356 3500 
L 2356 3053 
L 1172 3053 
L 1172 1153 
Q 1172 725 1289 603 
Q 1406 481 1766 481 
L 2356 481 
L 2356 0 
L 1766 0 
Q 1100 0 847 248 
Q 594 497 594 1153 
L 594 3053 
L 172 3053 
L 172 3500 
L 594 3500 
L 594 4494 
L 1172 4494 
z
" transform="scale(0.015625)"/>
       <path id="DejaVuSans-20" transform="scale(0.015625)"/>
       <path id="DejaVuSans-4e" d="M 628 4666 
L 1478 4666 
L 3547 763 
L 3547 4666 
L 4159 4666 
L 4159 0 
L 3309 0 
L 1241 3903 
L 1241 0 
L 628 0 
L 628 4666 
z
" transform="scale(0.015625)"/>
       <path id="DejaVuSans-75" d="M 544 1381 
L 544 3500 
L 1119 3500 
L 1119 1403 
Q 1119 906 1312 657 
Q 1506 409 1894 409 
Q 2359 409 2629 706 
Q 2900 1003 2900 1516 
L 2900 3500 
L 3475 3500 
L 3475 0 
L 2900 0 
L 2900 538 
Q 2691 219 2414 64 
Q 2138 -91 1772 -91 
Q 1169 -91 856 284 
Q 544 659 544 1381 
z
M 1991 3584 
L 1991 3584 
z
" transform="scale(0.015625)"/>
       <path id="DejaVuSans-6d" d="M 3328 2828 
Q 3544 3216 3844 3400 
Q 4144 3584 4550 3584 
Q 5097 3584 5394 3201 
Q 5691 2819 5691 2113 
L 5691 0 
L 5113 0 
L 5113 2094 
Q 5113 2597 4934 2840 
Q 4756 3084 4391 3084 
Q 3944 3084 3684 2787 
Q 3425 2491 3425 1978 
L 3425 0 
L 2847 0 
L 2847 2094 
Q 2847 2600 2669 2842 
Q 2491 3084 2119 3084 
Q 1678 3084 1418 2786 
Q 1159 2488 1159 1978 
L 1159 0 
L 581 0 
L 581 3500 
L 1159 3500 
L 1159 2956 
Q 1356 3278 1631 3431 
Q 1906 3584 2284 3584 
Q 2666 3584 2933 3390 
Q 3200 3197 3328 2828 
z
" transform="scale(0.015625)"/>
       <path id="DejaVuSans-62" d="M 3116 1747 
Q 3116 2381 2855 2742 
Q 2594 3103 2138 3103 
Q 1681 3103 1420 2742 
Q 1159 2381 1159 1747 
Q 1159 1113 1420 752 
Q 1681 391 2138 391 
Q 2594 391 2855 752 
Q 3116 1113 3116 1747 
z
M 1159 2969 
Q 1341 3281 1617 3432 
Q 1894 3584 2278 3584 
Q 2916 3584 3314 3078 
Q 3713 2572 3713 1747 
Q 3713 922 3314 415 
Q 2916 -91 2278 -91 
Q 1894 -91 1617 61 
Q 1341 213 1159 525 
L 1159 0 
L 581 0 
L 581 4863 
L 1159 4863 
L 1159 2969 
z
" transform="scale(0.015625)"/>
       <path id="DejaVuSans-72" d="M 2631 2963 
Q 2534 3019 2420 3045 
Q 2306 3072 2169 3072 
Q 1681 3072 1420 2755 
Q 1159 2438 1159 1844 
L 1159 0 
L 581 0 
L 581 3500 
L 1159 3500 
L 1159 2956 
Q 1341 3275 1631 3429 
Q 1922 3584 2338 3584 
Q 2397 3584 2469 3576 
Q 2541 3569 2628 3553 
L 2631 2963 
z
" transform="scale(0.015625)"/>
      </defs>
      <use xlink:href="#DejaVuSans-50"/>
      <use xlink:href="#DejaVuSans-61" x="55.802734"/>
      <use xlink:href="#DejaVuSans-63" x="117.082031"/>
      <use xlink:href="#DejaVuSans-6b" x="172.0625"/>
      <use xlink:href="#DejaVuSans-65" x="226.347656"/>
      <use xlink:href="#DejaVuSans-74" x="287.871094"/>
      <use xlink:href="#DejaVuSans-20" x="327.080078"/>
      <use xlink:href="#DejaVuSans-4e" x="358.867188"/>
      <use xlink:href="#DejaVuSans-75" x="433.671875"/>
      <use xlink:href="#DejaVuSans-6d" x="497.050781"/>
      <use xlink:href="#DejaVuSans-62" x="594.462891"/>
      <use xlink:href="#DejaVuSans-65" x="657.939453"/>
      <use xlink:href="#DejaVuSans-72" x="719.462891"/>
     </g>
    </g>
   </g>
   <g id="matplotlib.axis_2">
    <g id="ytick_1">
     <g id="line2d_9">
      <defs>
       <path id="m685b293fef" d="M 0 0 
L -3.5 0 
" style="stroke: #000000; stroke-width: 0.8"/>
      </defs>
      <g>
       <use xlink:href="#m685b293fef" x="84.59" y="639.64" style="stroke: #000000; stroke-width: 0.8"/>
      </g>
     </g>
     <g id="text_10">
      <!-- 0 -->
      <g transform="translate(68.6825 644.958906) scale(0.14 -0.14)">
       <use xlink:href="#DejaVuSans-30"/>
      </g>
     </g>
    </g>
    <g id="ytick_2">
     <g id="line2d_10">
      <g>
       <use xlink:href="#m685b293fef" x="84.59" y="557.209254" style="stroke: #000000; stroke-width: 0.8"/>
      </g>
     </g>
     <g id="text_11">
      <!-- 5 -->
      <g transform="translate(68.6825 562.52816) scale(0.14 -0.14)">
       <use xlink:href="#DejaVuSans-35"/>
      </g>
     </g>
    </g>
    <g id="ytick_3">
     <g id="line2d_11">
      <g>
       <use xlink:href="#m685b293fef" x="84.59" y="474.778507" style="stroke: #000000; stroke-width: 0.8"/>
      </g>
     </g>
     <g id="text_12">
      <!-- 10 -->
      <g transform="translate(59.775 480.097414) scale(0.14 -0.14)">
       <use xlink:href="#DejaVuSans-31"/>
       <use xlink:href="#DejaVuSans-30" x="63.623047"/>
      </g>
     </g>
    </g>
    <g id="ytick_4">
     <g id="line2d_12">
      <g>
       <use xlink:href="#m685b293fef" x="84.59" y="392.347761" style="stroke: #000000; stroke-width: 0.8"/>
      </g>
     </g>
     <g id="text_13">
      <!-- 15 -->
      <g transform="translate(59.775 397.666667) scale(0.14 -0.14)">
       <use xlink:href="#DejaVuSans-31"/>
       <use xlink:href="#DejaVuSans-35" x="63.623047"/>
      </g>
     </g>
    </g>
    <g id="ytick_5">
     <g id="line2d_13">
      <g>
       <use xlink:href="#m685b293fef" x="84.59" y="309.917015" style="stroke: #000000; stroke-width: 0.8"/>
      </g>
     </g>
     <g id="text_14">
      <!-- 20 -->
      <g transform="translate(59.775 315.235921) scale(0.14 -0.14)">
       <use xlink:href="#DejaVuSans-32"/>
       <use xlink:href="#DejaVuSans-30" x="63.623047"/>
      </g>
     </g>
    </g>
    <g id="ytick_6">
     <g id="line2d_14">
      <g>
       <use xlink:href="#m685b293fef" x="84.59" y="227.486268" style="stroke: #000000; stroke-width: 0.8"/>
      </g>
     </g>
     <g id="text_15">
      <!-- 25 -->
      <g transform="translate(59.775 232.805174) scale(0.14 -0.14)">
       <use xlink:href="#DejaVuSans-32"/>
       <use xlink:href="#DejaVuSans-35" x="63.623047"/>
      </g>
     </g>
    </g>
    <g id="ytick_7">
     <g id="line2d_15">
      <g>
       <use xlink:href="#m685b293fef" x="84.59" y="145.055522" style="stroke: #000000; stroke-width: 0.8"/>
      </g>
     </g>
     <g id="text_16">
      <!-- 30 -->
      <g transform="translate(59.775 150.374428) scale(0.14 -0.14)">
       <defs>
        <path id="DejaVuSans-33" d="M 2597 2516 
Q 3050 2419 3304 2112 
Q 3559 1806 3559 1356 
Q 3559 666 3084 287 
Q 2609 -91 1734 -91 
Q 1441 -91 1130 -33 
Q 819 25 488 141 
L 488 750 
Q 750 597 1062 519 
Q 1375 441 1716 441 
Q 2309 441 2620 675 
Q 2931 909 2931 1356 
Q 2931 1769 2642 2001 
Q 2353 2234 1838 2234 
L 1294 2234 
L 1294 2753 
L 1863 2753 
Q 2328 2753 2575 2939 
Q 2822 3125 2822 3475 
Q 2822 3834 2567 4026 
Q 2313 4219 1838 4219 
Q 1578 4219 1281 4162 
Q 984 4106 628 3988 
L 628 4550 
Q 988 4650 1302 4700 
Q 1616 4750 1894 4750 
Q 2613 4750 3031 4423 
Q 3450 4097 3450 3541 
Q 3450 3153 3228 2886 
Q 3006 2619 2597 2516 
z
" transform="scale(0.015625)"/>
       </defs>
       <use xlink:href="#DejaVuSans-33"/>
       <use xlink:href="#DejaVuSans-30" x="63.623047"/>
      </g>
     </g>
    </g>
    <g id="ytick_8">
     <g id="line2d_16">
      <g>
       <use xlink:href="#m685b293fef" x="84.59" y="62.624775" style="stroke: #000000; stroke-width: 0.8"/>
      </g>
     </g>
     <g id="text_17">
      <!-- 35 -->
      <g transform="translate(59.775 67.943682) scale(0.14 -0.14)">
       <use xlink:href="#DejaVuSans-33"/>
       <use xlink:href="#DejaVuSans-35" x="63.623047"/>
      </g>
     </g>
    </g>
    <g id="text_18">
     <!-- Interarrival Time (ms) -->
     <g transform="translate(52.863438 426.478594) rotate(-90) scale(0.14 -0.14)">
      <defs>
       <path id="DejaVuSans-49" d="M 628 4666 
L 1259 4666 
L 1259 0 
L 628 0 
L 628 4666 
z
" transform="scale(0.015625)"/>
       <path id="DejaVuSans-6e" d="M 3513 2113 
L 3513 0 
L 2938 0 
L 2938 2094 
Q 2938 2591 2744 2837 
Q 2550 3084 2163 3084 
Q 1697 3084 1428 2787 
Q 1159 2491 1159 1978 
L 1159 0 
L 581 0 
L 581 3500 
L 1159 3500 
L 1159 2956 
Q 1366 3272 1645 3428 
Q 1925 3584 2291 3584 
Q 2894 3584 3203 3211 
Q 3513 2838 3513 2113 
z
" transform="scale(0.015625)"/>
       <path id="DejaVuSans-69" d="M 603 3500 
L 1178 3500 
L 1178 0 
L 603 0 
L 603 3500 
z
M 603 4863 
L 1178 4863 
L 1178 4134 
L 603 4134 
L 603 4863 
z
" transform="scale(0.015625)"/>
       <path id="DejaVuSans-76" d="M 191 3500 
L 800 3500 
L 1894 563 
L 2988 3500 
L 3597 3500 
L 2284 0 
L 1503 0 
L 191 3500 
z
" transform="scale(0.015625)"/>
       <path id="DejaVuSans-6c" d="M 603 4863 
L 1178 4863 
L 1178 0 
L 603 0 
L 603 4863 
z
" transform="scale(0.015625)"/>
       <path id="DejaVuSans-54" d="M -19 4666 
L 3928 4666 
L 3928 4134 
L 2272 4134 
L 2272 0 
L 1638 0 
L 1638 4134 
L -19 4134 
L -19 4666 
z
" transform="scale(0.015625)"/>
       <path id="DejaVuSans-28" d="M 1984 4856 
Q 1566 4138 1362 3434 
Q 1159 2731 1159 2009 
Q 1159 1288 1364 580 
Q 1569 -128 1984 -844 
L 1484 -844 
Q 1016 -109 783 600 
Q 550 1309 550 2009 
Q 550 2706 781 3412 
Q 1013 4119 1484 4856 
L 1984 4856 
z
" transform="scale(0.015625)"/>
       <path id="DejaVuSans-73" d="M 2834 3397 
L 2834 2853 
Q 2591 2978 2328 3040 
Q 2066 3103 1784 3103 
Q 1356 3103 1142 2972 
Q 928 2841 928 2578 
Q 928 2378 1081 2264 
Q 1234 2150 1697 2047 
L 1894 2003 
Q 2506 1872 2764 1633 
Q 3022 1394 3022 966 
Q 3022 478 2636 193 
Q 2250 -91 1575 -91 
Q 1294 -91 989 -36 
Q 684 19 347 128 
L 347 722 
Q 666 556 975 473 
Q 1284 391 1588 391 
Q 1994 391 2212 530 
Q 2431 669 2431 922 
Q 2431 1156 2273 1281 
Q 2116 1406 1581 1522 
L 1381 1569 
Q 847 1681 609 1914 
Q 372 2147 372 2553 
Q 372 3047 722 3315 
Q 1072 3584 1716 3584 
Q 2034 3584 2315 3537 
Q 2597 3491 2834 3397 
z
" transform="scale(0.015625)"/>
       <path id="DejaVuSans-29" d="M 513 4856 
L 1013 4856 
Q 1481 4119 1714 3412 
Q 1947 2706 1947 2009 
Q 1947 1309 1714 600 
Q 1481 -109 1013 -844 
L 513 -844 
Q 928 -128 1133 580 
Q 1338 1288 1338 2009 
Q 1338 2731 1133 3434 
Q 928 4138 513 4856 
z
" transform="scale(0.015625)"/>
      </defs>
      <use xlink:href="#DejaVuSans-49"/>
      <use xlink:href="#DejaVuSans-6e" x="29.492188"/>
      <use xlink:href="#DejaVuSans-74" x="92.871094"/>
      <use xlink:href="#DejaVuSans-65" x="132.080078"/>
      <use xlink:href="#DejaVuSans-72" x="193.603516"/>
      <use xlink:href="#DejaVuSans-61" x="234.716797"/>
      <use xlink:href="#DejaVuSans-72" x="295.996094"/>
      <use xlink:href="#DejaVuSans-72" x="335.359375"/>
      <use xlink:href="#DejaVuSans-69" x="376.472656"/>
      <use xlink:href="#DejaVuSans-76" x="404.255859"/>
      <use xlink:href="#DejaVuSans-61" x="463.435547"/>
      <use xlink:href="#DejaVuSans-6c" x="524.714844"/>
      <use xlink:href="#DejaVuSans-20" x="552.498047"/>
      <use xlink:href="#DejaVuSans-54" x="584.285156"/>
      <use xlink:href="#DejaVuSans-69" x="642.244141"/>
      <use xlink:href="#DejaVuSans-6d" x="670.027344"/>
      <use xlink:href="#DejaVuSans-65" x="767.439453"/>
      <use xlink:href="#DejaVuSans-20" x="828.962891"/>
      <use xlink:href="#DejaVuSans-28" x="860.75"/>
      <use xlink:href="#DejaVuSans-6d" x="899.763672"/>
      <use xlink:href="#DejaVuSans-73" x="997.175781"/>
      <use xlink:href="#DejaVuSans-29" x="1049.275391"/>
     </g>
    </g>
   </g>
   <g id="line2d_17">
    <path d="M 84.59 88.51619 
L 84.957168 89.106081 
L 85.324336 88.623878 
L 86.058672 89.122436 
L 86.425841 88.63072 
L 86.793009 89.147132 
L 87.160177 88.673913 
L 87.527345 88.985551 
L 88.261681 88.706787 
L 88.628849 89.00456 
L 88.996017 89.018012 
L 89.363185 89.30563 
L 89.730354 88.994042 
L 91.566194 89.00146 
L 91.933362 89.243543 
L 92.30053 89.043055 
L 93.769203 88.907127 
L 94.136371 88.745595 
L 94.870707 89.308713 
L 95.237875 89.006752 
L 95.972211 88.97777 
L 96.33938 88.766698 
L 97.073716 89.273696 
L 97.440884 88.720454 
L 97.808052 89.314714 
L 98.17522 89.016924 
L 99.276724 88.890311 
L 99.643893 89.373635 
L 100.011061 88.815843 
L 100.378229 89.443883 
L 100.745397 89.123375 
L 101.479733 89.124628 
L 101.846901 88.896295 
L 102.581237 89.129755 
L 102.948406 89.10473 
L 103.315574 89.453593 
L 103.682742 89.118067 
L 104.417078 89.128536 
L 104.784246 88.875753 
L 105.151414 89.122172 
L 105.518582 89.037697 
L 105.88575 89.436299 
L 106.252919 88.858789 
L 106.620087 89.373932 
L 107.354423 88.901126 
L 108.088759 89.382488 
L 108.455927 88.873544 
L 108.823095 89.413499 
L 109.557432 88.798318 
L 109.9246 89.414306 
L 110.291768 88.939324 
L 111.026104 89.55978 
L 111.76044 88.927916 
L 112.127608 89.384681 
L 112.494776 89.307493 
L 112.861945 88.949001 
L 113.596281 89.539832 
L 113.963449 88.963262 
L 114.330617 89.466337 
L 115.064953 88.903978 
L 115.432121 89.551999 
L 115.799289 88.90711 
L 116.166458 89.269657 
L 116.533626 89.119204 
L 116.900794 89.546987 
L 117.267962 89.214824 
L 118.002298 89.214395 
L 118.369466 89.022002 
L 118.736634 89.169108 
L 119.103802 89.523296 
L 119.470971 88.924569 
L 119.838139 89.565435 
L 120.205307 88.914578 
L 120.572475 89.325578 
L 120.939643 88.945589 
L 121.306811 89.601754 
L 122.041147 89.088491 
L 122.408315 89.600188 
L 122.775484 89.304904 
L 123.50982 89.296447 
L 123.876988 89.085754 
L 124.611324 89.555032 
L 124.978492 89.063564 
L 125.34566 89.561824 
L 125.712829 89.315291 
L 126.079997 89.343301 
L 126.447165 89.022266 
L 126.814333 89.619526 
L 127.181501 89.027129 
L 127.915837 89.590082 
L 128.283005 89.300601 
L 129.017342 89.300107 
L 129.38451 89.088029 
L 130.118846 89.541728 
L 130.486014 89.31745 
L 131.587518 89.313494 
L 131.954686 89.048973 
L 132.321855 89.294271 
L 133.423359 89.687861 
L 134.157695 89.092925 
L 134.524863 89.639804 
L 134.892031 89.122617 
L 135.626368 89.694307 
L 135.993536 89.096322 
L 136.727872 89.692856 
L 137.09504 89.085012 
L 137.462208 89.432705 
L 137.829376 89.349203 
L 138.196544 89.70466 
L 138.563712 89.119633 
L 138.930881 89.661978 
L 139.298049 89.421231 
L 140.032385 89.405371 
L 140.399553 89.137916 
L 141.133889 89.679437 
L 141.501057 89.102042 
L 141.868225 89.729406 
L 142.235394 89.398183 
L 142.602562 89.410168 
L 142.96973 89.095431 
L 143.336898 89.768099 
L 143.704066 89.218138 
L 144.438402 89.749701 
L 144.80557 89.47697 
L 145.172738 89.505689 
L 145.907075 89.233486 
L 146.274243 89.462265 
L 146.641411 89.432144 
L 147.008579 89.783283 
L 147.375747 89.493242 
L 148.110083 89.456791 
L 148.477251 89.175307 
L 148.84442 89.426572 
L 149.578756 89.531342 
L 149.945924 89.718888 
L 150.313092 89.449339 
L 151.047428 89.497199 
L 151.414596 89.26148 
L 151.781764 89.501057 
L 152.516101 89.453543 
L 152.883269 89.470854 
L 153.250437 89.698561 
L 153.984773 89.280126 
L 154.351941 89.44502 
L 154.719109 89.770012 
L 155.086277 89.343993 
L 155.453446 89.773672 
L 155.820614 89.551686 
L 156.55495 89.504832 
L 156.922118 89.306471 
L 157.289286 89.523346 
L 157.656454 89.513866 
L 158.023622 89.7741 
L 158.39079 89.549427 
L 159.125127 89.530484 
L 159.492295 89.32482 
L 159.859463 89.501024 
L 160.593799 89.567562 
L 160.960967 89.748629 
L 161.328135 89.511674 
L 162.062472 89.521466 
L 162.42964 89.214115 
L 162.796808 89.639837 
L 163.163976 89.454384 
L 163.531144 89.836467 
L 163.898312 89.546707 
L 164.632648 89.503991 
L 164.999816 89.262222 
L 165.366985 89.932713 
L 165.734153 89.272344 
L 166.101321 89.878029 
L 166.468489 89.593264 
L 167.569993 89.580915 
L 167.937161 89.442729 
L 168.304329 89.489384 
L 168.671498 89.815744 
L 169.038666 89.588631 
L 169.773002 89.582597 
L 170.14017 89.255858 
L 170.874506 89.867577 
L 171.608842 89.304476 
L 171.976011 89.887591 
L 172.343179 89.270976 
L 172.710347 89.872984 
L 173.077515 89.293446 
L 173.444683 89.606634 
L 174.546187 89.594236 
L 174.913355 89.875506 
L 175.280524 89.55856 
L 175.647692 89.587345 
L 176.01486 89.326683 
L 176.382028 89.923811 
L 176.749196 89.2962 
L 177.483532 89.938846 
L 177.8507 89.653455 
L 178.585037 89.64902 
L 178.952205 89.303635 
L 179.686541 89.886882 
L 180.053709 89.644783 
L 180.788045 89.593099 
L 181.155213 89.331216 
L 181.88955 89.874781 
L 182.256718 89.311977 
L 182.623886 89.718459 
L 182.991054 89.820871 
L 183.72539 89.311515 
L 184.092558 89.580784 
L 184.459726 89.510239 
L 184.826894 89.582614 
L 185.194063 89.476772 
L 185.561231 89.879397 
L 185.928399 89.562979 
L 186.662735 89.567743 
L 187.029903 89.268173 
L 187.397071 89.724625 
L 188.131407 89.136845 
L 188.498576 89.726191 
L 188.865744 89.441723 
L 189.60008 89.488873 
L 189.967248 89.137174 
L 190.334416 89.532479 
L 190.701584 89.295903 
L 191.068752 89.769385 
L 191.43592 89.438327 
L 192.170257 89.441954 
L 192.537425 89.138328 
L 192.904593 89.715492 
L 193.271761 89.161442 
L 194.006097 89.751877 
L 194.373265 89.142714 
L 194.740433 89.721015 
L 195.107602 89.124843 
L 195.47477 89.430512 
L 195.841938 89.518944 
L 196.209106 89.390467 
L 196.576274 89.715113 
L 196.943442 89.182478 
L 197.31061 89.671342 
L 198.044946 89.161491 
L 198.412115 89.757845 
L 198.779283 89.182956 
L 199.146451 89.781486 
L 199.513619 89.428765 
L 200.615123 89.530781 
L 200.982291 89.166371 
L 201.34946 89.505195 
L 201.716628 89.405074 
L 202.083796 89.747706 
L 202.450964 89.460286 
L 203.1853 89.475899 
L 203.552468 89.182956 
L 204.286804 89.744606 
L 204.653973 89.491165 
L 205.755477 89.459429 
L 206.122645 89.1622 
L 206.489813 89.438129 
L 207.224149 89.401299 
L 207.591317 89.7954 
L 207.958486 89.461424 
L 208.692822 89.452159 
L 209.05999 89.234212 
L 210.161494 89.771232 
L 210.528662 89.478141 
L 211.262999 89.484406 
L 211.630167 89.201454 
L 211.997335 89.494759 
L 212.731671 89.461308 
L 213.098839 89.733396 
L 213.466007 89.532083 
L 213.833175 89.457714 
L 214.200343 89.516372 
L 214.567512 89.20846 
L 214.93468 89.472601 
L 215.301848 89.543888 
L 215.669016 89.769088 
L 216.036184 89.507667 
L 216.77052 89.518367 
L 217.137688 89.27485 
L 218.239193 89.776787 
L 218.606361 89.508212 
L 219.340697 89.463155 
L 219.707865 89.191859 
L 220.075033 89.557637 
L 220.809369 89.500991 
L 221.543706 89.511113 
L 224.113882 89.590181 
L 224.481051 89.426935 
L 224.848219 89.432441 
L 225.215387 89.571106 
L 227.051227 89.498171 
L 228.152732 89.525456 
L 239.167775 89.557225 
L 239.534943 88.68791 
L 239.902111 89.541959 
L 241.370784 89.520444 
L 241.737952 89.609502 
L 242.472288 89.532116 
L 243.94096 89.604491 
L 245.042465 89.5717 
L 246.511137 89.566919 
L 246.878305 89.534523 
L 247.245473 89.6356 
L 248.346978 89.555791 
L 250.917155 89.593593 
L 251.284323 89.533847 
L 252.018659 89.568485 
L 255.323172 89.600089 
L 258.994853 89.587032 
L 261.56503 89.594945 
L 264.135207 89.602117 
L 264.869543 89.607128 
L 266.705383 89.661846 
L 267.072551 89.583801 
L 267.43972 89.643678 
L 267.806888 89.579926 
L 268.541224 89.626648 
L 268.908392 89.579531 
L 269.642728 89.609651 
L 272.212905 89.609371 
L 273.314409 89.596099 
L 274.048746 89.610937 
L 274.415914 89.904077 
L 274.783082 89.375712 
L 275.15025 89.618619 
L 279.556267 89.652333 
L 279.923435 89.91565 
L 280.290604 89.384038 
L 280.657772 89.589373 
L 282.86078 89.636919 
L 283.595117 89.63987 
L 288.368302 89.688356 
L 289.102638 89.647503 
L 292.407151 89.643744 
L 298.281841 89.654526 
L 301.219186 89.651377 
L 303.422195 89.646168 
L 303.789363 89.796258 
L 304.156531 89.532298 
L 304.890867 89.683509 
L 305.625203 89.661665 
L 306.726708 89.689609 
L 307.461044 89.625016 
L 307.828212 89.724774 
L 308.562548 89.687432 
L 309.664052 89.655944 
L 310.398389 89.701726 
L 311.132725 89.676585 
L 317.007415 89.677969 
L 317.374583 89.985387 
L 317.741751 89.407728 
L 318.108919 89.660675 
L 324.350777 89.753756 
L 325.085113 89.683476 
L 342.342014 89.720141 
L 342.709182 89.875292 
L 343.076351 89.57231 
L 343.443519 89.736001 
L 344.545023 89.722334 
L 346.380864 89.729934 
L 347.849536 89.700819 
L 348.216704 89.591648 
L 348.583872 89.734286 
L 350.052545 89.709903 
L 352.622721 89.697819 
L 354.458562 89.738243 
L 355.560066 89.708667 
L 357.763075 89.729076 
L 358.497411 89.727296 
L 360.70042 89.742183 
L 361.434756 89.690021 
L 361.801924 89.76317 
L 362.903429 89.72568 
L 363.270597 89.892322 
L 363.637765 89.547877 
L 364.004933 89.754696 
L 369.879623 89.737418 
L 370.613959 89.74548 
L 370.981127 89.783184 
L 371.348295 89.703902 
L 372.082631 89.742315 
L 372.816968 89.74975 
L 374.652808 89.731747 
L 376.121481 89.763434 
L 377.957321 89.754581 
L 378.324489 90.059278 
L 378.691657 89.471546 
L 379.058826 89.746914 
L 381.261834 89.731038 
L 381.629002 90.022711 
L 381.99617 89.52544 
L 382.363339 89.736001 
L 386.03502 89.899494 
L 386.402188 89.62373 
L 387.136524 89.794559 
L 388.238028 89.740205 
L 389.339533 89.766582 
L 391.542541 89.770259 
L 394.112718 89.785014 
L 395.214222 89.741589 
L 396.315727 89.777051 
L 397.784399 89.775172 
L 398.151567 90.046814 
L 398.518735 89.545734 
L 398.885904 89.749948 
L 401.45608 89.726027 
L 401.823248 89.596116 
L 402.190417 89.739463 
L 405.862098 89.7376 
L 408.799443 89.762906 
L 409.166611 89.827598 
L 409.533779 89.766302 
L 409.900947 89.98692 
L 410.268115 89.506415 
L 410.635283 89.726208 
L 411.736787 89.805292 
L 417.978645 89.713563 
L 418.345813 89.873182 
L 419.08015 89.762181 
L 420.548822 89.796752 
L 422.017495 89.740122 
L 422.751831 89.803198 
L 425.322008 89.78658 
L 425.689176 89.842336 
L 426.423512 89.760417 
L 434.868379 89.888563 
L 435.235547 89.699863 
L 435.969883 89.929416 
L 436.337051 89.655252 
L 436.704219 89.85142 
L 437.438555 89.769006 
L 449.187935 89.803561 
L 449.922271 89.784025 
L 450.656607 89.794477 
L 451.390944 89.804121 
L 453.96112 89.803792 
L 454.695457 89.796933 
L 461.671651 89.813304 
L 462.038819 90.010957 
L 462.405987 89.561363 
L 462.773155 89.807616 
L 467.54634 89.815381 
L 469.015013 89.810732 
L 470.116517 89.804913 
L 471.218022 89.808177 
L 473.053862 89.736182 
L 474.155366 89.818151 
L 477.827048 89.852162 
L 478.561384 89.821234 
L 479.662888 89.839187 
L 480.030056 90.049402 
L 480.397224 89.51868 
L 480.764392 89.870923 
L 481.865897 89.80366 
L 483.701737 89.81304 
L 485.17041 89.78325 
L 486.271914 89.878622 
L 487.00625 89.796868 
L 519.317044 89.849689 
L 519.684212 90.037582 
L 520.05138 89.670369 
L 520.785717 89.83378 
L 525.558902 89.815101 
L 525.92607 89.96745 
L 526.293238 89.711717 
L 526.660406 89.857207 
L 528.863415 89.830087 
L 529.230583 90.118512 
L 529.597751 89.51202 
L 529.964919 89.849689 
L 532.167928 89.83195 
L 534.003769 89.834011 
L 535.105273 89.82707 
L 536.206777 89.847645 
L 536.573945 89.785212 
L 537.308282 89.841578 
L 538.409786 89.834225 
L 560.807041 89.835214 
L 561.174209 89.478388 
L 561.541377 90.100031 
L 561.908545 89.84626 
L 562.275713 89.74914 
L 563.010049 89.887376 
L 564.111554 89.832593 
L 565.580226 89.892537 
L 565.947394 89.812744 
L 567.048899 89.85696 
L 569.251907 89.858839 
L 570.72058 89.878161 
L 571.087748 89.913721 
L 571.822084 89.840292 
L 575.493765 89.828076 
L 576.59527 89.888184 
L 577.696774 89.863439 
L 580.266951 89.882497 
L 581.368455 89.847332 
L 581.735623 89.964037 
L 582.102791 89.789103 
L 582.469959 89.85025 
L 582.837127 90.081897 
L 583.204296 89.648591 
L 583.571464 89.855146 
L 584.672968 89.853712 
L 585.040136 89.994767 
L 585.407304 89.771809 
L 585.774472 89.871039 
L 586.141641 89.806792 
L 586.875977 89.875721 
L 587.243145 89.830681 
L 587.977481 89.872654 
L 588.344649 89.897367 
L 588.711817 89.781206 
L 589.446154 89.873841 
L 591.281994 89.863505 
L 591.649162 90.172966 
L 592.01633 89.573546 
L 592.383498 89.858377 
L 592.750667 89.814013 
L 593.117835 89.92053 
L 593.852171 89.830961 
L 594.586507 89.868747 
L 594.953675 89.752602 
L 595.320843 89.927784 
L 598.258188 89.85025 
L 598.625356 89.913787 
L 599.359693 89.816865 
L 600.094029 89.885316 
L 601.562701 89.845996 
L 601.929869 89.849162 
L 602.297037 90.134059 
L 602.664206 89.566408 
L 603.031374 89.8974 
L 604.867214 89.764884 
L 605.234382 89.946183 
L 605.968719 89.847051 
L 607.070223 89.84903 
L 610.007568 89.874254 
L 610.741904 89.84077 
L 611.47624 89.866307 
L 615.147921 89.865846 
L 615.515089 89.690614 
L 615.882258 90.03102 
L 616.616594 89.729538 
L 616.983762 89.993943 
L 617.35093 89.843309 
L 617.718098 89.899791 
L 618.085266 90.078995 
L 618.452434 89.633885 
L 618.819602 89.874056 
L 619.186771 89.607425 
L 619.553939 89.841248 
L 621.022611 89.886173 
L 622.124115 89.844875 
L 625.428628 89.905759 
L 625.795797 89.843391 
L 626.162965 89.915436 
L 626.530133 89.840984 
L 627.631637 89.864873 
L 629.834646 89.899659 
L 630.93615 89.873446 
L 633.873495 89.859762 
L 634.240663 89.931576 
L 634.974999 89.860372 
L 635.342167 89.917513 
L 635.709336 89.811787 
L 636.076504 89.900961 
L 636.81084 89.879644 
L 637.178008 89.925542 
L 637.912344 89.867577 
L 642.318362 89.736627 
L 642.68553 89.967466 
L 643.419866 89.863439 
L 647.458715 89.903813 
L 647.825883 89.864642 
L 648.193051 89.949628 
L 648.560219 89.831175 
L 649.661724 89.904357 
L 650.028892 89.861971 
L 650.39606 90.051826 
L 650.763228 89.760202 
L 651.497564 89.886354 
L 662.512608 89.83223 
L 662.879776 89.90749 
L 663.246944 89.829774 
L 663.98128 89.872028 
L 669.121634 89.963394 
L 669.488802 89.765181 
L 669.85597 89.891745 
L 671.324642 89.851437 
L 672.058979 89.86362 
L 672.426147 89.787355 
L 672.793315 90.026899 
L 673.160483 89.857108 
L 674.996324 89.892982 
L 675.363492 89.926515 
L 675.73066 89.84321 
L 676.097828 89.913491 
L 677.199332 89.885893 
L 681.972518 89.901588 
L 683.44119 89.875853 
L 683.808358 89.94366 
L 684.542694 89.86512 
L 684.909863 89.873413 
L 685.277031 90.021838 
L 685.644199 89.711684 
L 686.011367 89.869621 
L 686.378535 89.823196 
L 686.745703 89.967648 
L 687.480039 89.865813 
L 693.354729 89.858245 
L 693.721897 90.165415 
L 694.089065 89.558857 
L 694.456233 89.907011 
L 722.728178 89.882431 
L 723.095346 89.83922 
L 723.462514 90.03839 
L 723.829682 89.761505 
L 724.19685 89.899692 
L 724.564019 90.210258 
L 724.931187 89.632435 
L 725.298355 89.86057 
L 727.501363 89.938137 
L 728.2357 89.864889 
L 728.970036 89.904736 
L 730.07154 89.877188 
L 731.173045 89.90594 
L 731.907381 89.847727 
L 733.008885 89.939176 
L 733.743221 89.857058 
L 734.110389 89.871187 
L 734.477558 90.027525 
L 734.844726 89.741474 
L 735.211894 89.896279 
L 744.391097 90.061487 
L 744.758265 89.703803 
L 745.125433 89.888959 
L 745.492601 89.847464 
L 745.859769 90.19209 
L 746.226937 89.586999 
L 746.594105 89.904984 
L 750.632955 89.883832 
L 751.000123 90.181292 
L 751.367291 89.586949 
L 751.734459 89.861955 
L 753.937468 89.885283 
L 754.671804 89.875408 
L 755.038972 89.935417 
L 755.773308 89.870775 
L 756.140476 89.894581 
L 756.140476 89.894581 
" clip-path="url(#pca039803de)" style="fill: none; stroke: #1f77b4; stroke-width: 1.5; stroke-linecap: square"/>
   </g>
   <g id="line2d_18">
    <path d="M 84.59 89.700115 
L 789.718 89.700115 
" clip-path="url(#pca039803de)" style="fill: none; stroke-dasharray: 5.55,2.4; stroke-dashoffset: 0; stroke: #0000ff; stroke-width: 1.5"/>
   </g>
   <g id="line2d_19">
    <path d="M 84.59 639.64 
L 789.718 639.64 
" clip-path="url(#pca039803de)" style="fill: none; stroke: #000000; stroke-width: 1.5; stroke-linecap: square"/>
   </g>
   <g id="patch_3">
    <path d="M 84.59 639.64 
L 84.59 60.96 
" style="fill: none; stroke: #000000; stroke-width: 0.8; stroke-linejoin: miter; stroke-linecap: square"/>
   </g>
   <g id="patch_4">
    <path d="M 789.718 639.64 
L 789.718 60.96 
" style="fill: none; stroke: #000000; stroke-width: 0.8; stroke-linejoin: miter; stroke-linecap: square"/>
   </g>
   <g id="patch_5">
    <path d="M 84.59 639.64 
L 789.718 639.64 
" style="fill: none; stroke: #000000; stroke-width: 0.8; stroke-linejoin: miter; stroke-linecap: square"/>
   </g>
   <g id="patch_6">
    <path d="M 84.59 60.96 
L 789.718 60.96 
" style="fill: none; stroke: #000000; stroke-width: 0.8; stroke-linejoin: miter; stroke-linecap: square"/>
   </g>
   <g id="text_19">
    <!-- Interarrival Time (SelectionProcess: 16777217) -->
    <g transform="translate(239.469187 54.96) scale(0.168 -0.168)">
     <defs>
      <path id="DejaVuSans-53" d="M 3425 4513 
L 3425 3897 
Q 3066 4069 2747 4153 
Q 2428 4238 2131 4238 
Q 1616 4238 1336 4038 
Q 1056 3838 1056 3469 
Q 1056 3159 1242 3001 
Q 1428 2844 1947 2747 
L 2328 2669 
Q 3034 2534 3370 2195 
Q 3706 1856 3706 1288 
Q 3706 609 3251 259 
Q 2797 -91 1919 -91 
Q 1588 -91 1214 -16 
Q 841 59 441 206 
L 441 856 
Q 825 641 1194 531 
Q 1563 422 1919 422 
Q 2459 422 2753 634 
Q 3047 847 3047 1241 
Q 3047 1584 2836 1778 
Q 2625 1972 2144 2069 
L 1759 2144 
Q 1053 2284 737 2584 
Q 422 2884 422 3419 
Q 422 4038 858 4394 
Q 1294 4750 2059 4750 
Q 2388 4750 2728 4690 
Q 3069 4631 3425 4513 
z
" transform="scale(0.015625)"/>
      <path id="DejaVuSans-6f" d="M 1959 3097 
Q 1497 3097 1228 2736 
Q 959 2375 959 1747 
Q 959 1119 1226 758 
Q 1494 397 1959 397 
Q 2419 397 2687 759 
Q 2956 1122 2956 1747 
Q 2956 2369 2687 2733 
Q 2419 3097 1959 3097 
z
M 1959 3584 
Q 2709 3584 3137 3096 
Q 3566 2609 3566 1747 
Q 3566 888 3137 398 
Q 2709 -91 1959 -91 
Q 1206 -91 779 398 
Q 353 888 353 1747 
Q 353 2609 779 3096 
Q 1206 3584 1959 3584 
z
" transform="scale(0.015625)"/>
      <path id="DejaVuSans-3a" d="M 750 794 
L 1409 794 
L 1409 0 
L 750 0 
L 750 794 
z
M 750 3309 
L 1409 3309 
L 1409 2516 
L 750 2516 
L 750 3309 
z
" transform="scale(0.015625)"/>
      <path id="DejaVuSans-36" d="M 2113 2584 
Q 1688 2584 1439 2293 
Q 1191 2003 1191 1497 
Q 1191 994 1439 701 
Q 1688 409 2113 409 
Q 2538 409 2786 701 
Q 3034 994 3034 1497 
Q 3034 2003 2786 2293 
Q 2538 2584 2113 2584 
z
M 3366 4563 
L 3366 3988 
Q 3128 4100 2886 4159 
Q 2644 4219 2406 4219 
Q 1781 4219 1451 3797 
Q 1122 3375 1075 2522 
Q 1259 2794 1537 2939 
Q 1816 3084 2150 3084 
Q 2853 3084 3261 2657 
Q 3669 2231 3669 1497 
Q 3669 778 3244 343 
Q 2819 -91 2113 -91 
Q 1303 -91 875 529 
Q 447 1150 447 2328 
Q 447 3434 972 4092 
Q 1497 4750 2381 4750 
Q 2619 4750 2861 4703 
Q 3103 4656 3366 4563 
z
" transform="scale(0.015625)"/>
     </defs>
     <use xlink:href="#DejaVuSans-49"/>
     <use xlink:href="#DejaVuSans-6e" x="29.492188"/>
     <use xlink:href="#DejaVuSans-74" x="92.871094"/>
     <use xlink:href="#DejaVuSans-65" x="132.080078"/>
     <use xlink:href="#DejaVuSans-72" x="193.603516"/>
     <use xlink:href="#DejaVuSans-61" x="234.716797"/>
     <use xlink:href="#DejaVuSans-72" x="295.996094"/>
     <use xlink:href="#DejaVuSans-72" x="335.359375"/>
     <use xlink:href="#DejaVuSans-69" x="376.472656"/>
     <use xlink:href="#DejaVuSans-76" x="404.255859"/>
     <use xlink:href="#DejaVuSans-61" x="463.435547"/>
     <use xlink:href="#DejaVuSans-6c" x="524.714844"/>
     <use xlink:href="#DejaVuSans-20" x="552.498047"/>
     <use xlink:href="#DejaVuSans-54" x="584.285156"/>
     <use xlink:href="#DejaVuSans-69" x="642.244141"/>
     <use xlink:href="#DejaVuSans-6d" x="670.027344"/>
     <use xlink:href="#DejaVuSans-65" x="767.439453"/>
     <use xlink:href="#DejaVuSans-20" x="828.962891"/>
     <use xlink:href="#DejaVuSans-28" x="860.75"/>
     <use xlink:href="#DejaVuSans-53" x="899.763672"/>
     <use xlink:href="#DejaVuSans-65" x="963.240234"/>
     <use xlink:href="#DejaVuSans-6c" x="1024.763672"/>
     <use xlink:href="#DejaVuSans-65" x="1052.546875"/>
     <use xlink:href="#DejaVuSans-63" x="1114.070312"/>
     <use xlink:href="#DejaVuSans-74" x="1169.050781"/>
     <use xlink:href="#DejaVuSans-69" x="1208.259766"/>
     <use xlink:href="#DejaVuSans-6f" x="1236.042969"/>
     <use xlink:href="#DejaVuSans-6e" x="1297.224609"/>
     <use xlink:href="#DejaVuSans-50" x="1360.603516"/>
     <use xlink:href="#DejaVuSans-72" x="1419.15625"/>
     <use xlink:href="#DejaVuSans-6f" x="1458.019531"/>
     <use xlink:href="#DejaVuSans-63" x="1519.201172"/>
     <use xlink:href="#DejaVuSans-65" x="1574.181641"/>
     <use xlink:href="#DejaVuSans-73" x="1635.705078"/>
     <use xlink:href="#DejaVuSans-73" x="1687.804688"/>
     <use xlink:href="#DejaVuSans-3a" x="1739.904297"/>
     <use xlink:href="#DejaVuSans-20" x="1773.595703"/>
     <use xlink:href="#DejaVuSans-31" x="1805.382812"/>
     <use xlink:href="#DejaVuSans-36" x="1869.005859"/>
     <use xlink:href="#DejaVuSans-37" x="1932.628906"/>
     <use xlink:href="#DejaVuSans-37" x="1996.251953"/>
     <use xlink:href="#DejaVuSans-37" x="2059.875"/>
     <use xlink:href="#DejaVuSans-32" x="2123.498047"/>
     <use xlink:href="#DejaVuSans-31" x="2187.121094"/>
     <use xlink:href="#DejaVuSans-37" x="2250.744141"/>
     <use xlink:href="#DejaVuSans-29" x="2314.367188"/>
    </g>
   </g>
   <g id="legend_1">
    <g id="patch_7">
     <path d="M 799.518 372.949375 
L 1022.312688 372.949375 
Q 1025.112687 372.949375 1025.112687 370.149375 
L 1025.112687 330.450625 
Q 1025.112687 327.650625 1022.312688 327.650625 
L 799.518 327.650625 
Q 796.718 327.650625 796.718 330.450625 
L 796.718 370.149375 
Q 796.718 372.949375 799.518 372.949375 
z
" style="fill: #ffffff; opacity: 0.8; stroke: #cccccc; stroke-linejoin: miter"/>
    </g>
    <g id="line2d_20">
     <path d="M 802.318 338.988438 
L 816.318 338.988438 
L 830.318 338.988438 
" style="fill: none; stroke: #1f77b4; stroke-width: 1.5; stroke-linecap: square"/>
    </g>
    <g id="text_20">
     <!-- Interarrival Times -->
     <g transform="translate(841.518 343.888438) scale(0.14 -0.14)">
      <use xlink:href="#DejaVuSans-49"/>
      <use xlink:href="#DejaVuSans-6e" x="29.492188"/>
      <use xlink:href="#DejaVuSans-74" x="92.871094"/>
      <use xlink:href="#DejaVuSans-65" x="132.080078"/>
      <use xlink:href="#DejaVuSans-72" x="193.603516"/>
      <use xlink:href="#DejaVuSans-61" x="234.716797"/>
      <use xlink:href="#DejaVuSans-72" x="295.996094"/>
      <use xlink:href="#DejaVuSans-72" x="335.359375"/>
      <use xlink:href="#DejaVuSans-69" x="376.472656"/>
      <use xlink:href="#DejaVuSans-76" x="404.255859"/>
      <use xlink:href="#DejaVuSans-61" x="463.435547"/>
      <use xlink:href="#DejaVuSans-6c" x="524.714844"/>
      <use xlink:href="#DejaVuSans-20" x="552.498047"/>
      <use xlink:href="#DejaVuSans-54" x="584.285156"/>
      <use xlink:href="#DejaVuSans-69" x="642.244141"/>
      <use xlink:href="#DejaVuSans-6d" x="670.027344"/>
      <use xlink:href="#DejaVuSans-65" x="767.439453"/>
      <use xlink:href="#DejaVuSans-73" x="828.962891"/>
     </g>
    </g>
    <g id="line2d_21">
     <path d="M 802.318 359.537813 
L 816.318 359.537813 
L 830.318 359.537813 
" style="fill: none; stroke-dasharray: 5.55,2.4; stroke-dashoffset: 0; stroke: #0000ff; stroke-width: 1.5"/>
    </g>
    <g id="text_21">
     <!-- Interarrival Time Average -->
     <g transform="translate(841.518 364.437813) scale(0.14 -0.14)">
      <defs>
       <path id="DejaVuSans-41" d="M 2188 4044 
L 1331 1722 
L 3047 1722 
L 2188 4044 
z
M 1831 4666 
L 2547 4666 
L 4325 0 
L 3669 0 
L 3244 1197 
L 1141 1197 
L 716 0 
L 50 0 
L 1831 4666 
z
" transform="scale(0.015625)"/>
       <path id="DejaVuSans-67" d="M 2906 1791 
Q 2906 2416 2648 2759 
Q 2391 3103 1925 3103 
Q 1463 3103 1205 2759 
Q 947 2416 947 1791 
Q 947 1169 1205 825 
Q 1463 481 1925 481 
Q 2391 481 2648 825 
Q 2906 1169 2906 1791 
z
M 3481 434 
Q 3481 -459 3084 -895 
Q 2688 -1331 1869 -1331 
Q 1566 -1331 1297 -1286 
Q 1028 -1241 775 -1147 
L 775 -588 
Q 1028 -725 1275 -790 
Q 1522 -856 1778 -856 
Q 2344 -856 2625 -561 
Q 2906 -266 2906 331 
L 2906 616 
Q 2728 306 2450 153 
Q 2172 0 1784 0 
Q 1141 0 747 490 
Q 353 981 353 1791 
Q 353 2603 747 3093 
Q 1141 3584 1784 3584 
Q 2172 3584 2450 3431 
Q 2728 3278 2906 2969 
L 2906 3500 
L 3481 3500 
L 3481 434 
z
" transform="scale(0.015625)"/>
      </defs>
      <use xlink:href="#DejaVuSans-49"/>
      <use xlink:href="#DejaVuSans-6e" x="29.492188"/>
      <use xlink:href="#DejaVuSans-74" x="92.871094"/>
      <use xlink:href="#DejaVuSans-65" x="132.080078"/>
      <use xlink:href="#DejaVuSans-72" x="193.603516"/>
      <use xlink:href="#DejaVuSans-61" x="234.716797"/>
      <use xlink:href="#DejaVuSans-72" x="295.996094"/>
      <use xlink:href="#DejaVuSans-72" x="335.359375"/>
      <use xlink:href="#DejaVuSans-69" x="376.472656"/>
      <use xlink:href="#DejaVuSans-76" x="404.255859"/>
      <use xlink:href="#DejaVuSans-61" x="463.435547"/>
      <use xlink:href="#DejaVuSans-6c" x="524.714844"/>
      <use xlink:href="#DejaVuSans-20" x="552.498047"/>
      <use xlink:href="#DejaVuSans-54" x="584.285156"/>
      <use xlink:href="#DejaVuSans-69" x="642.244141"/>
      <use xlink:href="#DejaVuSans-6d" x="670.027344"/>
      <use xlink:href="#DejaVuSans-65" x="767.439453"/>
      <use xlink:href="#DejaVuSans-20" x="828.962891"/>
      <use xlink:href="#DejaVuSans-41" x="860.75"/>
      <use xlink:href="#DejaVuSans-76" x="923.283203"/>
      <use xlink:href="#DejaVuSans-65" x="982.462891"/>
      <use xlink:href="#DejaVuSans-72" x="1043.986328"/>
      <use xlink:href="#DejaVuSans-61" x="1085.099609"/>
      <use xlink:href="#DejaVuSans-67" x="1146.378906"/>
      <use xlink:href="#DejaVuSans-65" x="1209.855469"/>
     </g>
    </g>
   </g>
  </g>
 </g>
 <defs>
  <clipPath id="pca039803de">
   <rect x="84.59" y="60.96" width="705.128" height="578.68"/>
  </clipPath>
 </defs>
</svg>
