<?xml version="1.0" encoding="utf-8" standalone="no"?>
<!DOCTYPE svg PUBLIC "-//W3C//DTD SVG 1.1//EN"
  "http://www.w3.org/Graphics/SVG/1.1/DTD/svg11.dtd">
<svg xmlns:xlink="http://www.w3.org/1999/xlink" width="1008pt" height="720pt" viewBox="0 0 1008 720" xmlns="http://www.w3.org/2000/svg" version="1.1">
 <metadata>
  <rdf:RDF xmlns:dc="http://purl.org/dc/elements/1.1/" xmlns:cc="http://creativecommons.org/ns#" xmlns:rdf="http://www.w3.org/1999/02/22-rdf-syntax-ns#">
   <cc:Work>
    <dc:type rdf:resource="http://purl.org/dc/dcmitype/StillImage"/>
    <dc:date>2023-04-13T18:54:40.901907</dc:date>
    <dc:format>image/svg+xml</dc:format>
    <dc:creator>
     <cc:Agent>
      <dc:title>Matplotlib v3.6.2, https://matplotlib.org/</dc:title>
     </cc:Agent>
    </dc:creator>
   </cc:Work>
  </rdf:RDF>
 </metadata>
 <defs>
  <style type="text/css">*{stroke-linejoin: round; stroke-linecap: butt}</style>
 </defs>
 <g id="figure_1">
  <g id="patch_1">
   <path d="M 0 720 
L 1008 720 
L 1008 0 
L 0 0 
z
" style="fill: #ffffff"/>
  </g>
  <g id="axes_1">
   <g id="patch_2">
    <path d="M 63.77 658.84 
L 795.154 658.84 
L 795.154 46.08 
L 63.77 46.08 
z
" style="fill: #ffffff"/>
   </g>
   <g id="matplotlib.axis_1">
    <g id="xtick_1">
     <g id="line2d_1">
      <defs>
       <path id="mb08c939afe" d="M 0 0 
L 0 3.5 
" style="stroke: #000000; stroke-width: 0.8"/>
      </defs>
      <g>
       <use xlink:href="#mb08c939afe" x="63.77" y="658.84" style="stroke: #000000; stroke-width: 0.8"/>
      </g>
     </g>
     <g id="text_1">
      <!-- 0 -->
      <g transform="translate(60.58875 673.438437) scale(0.1 -0.1)">
       <defs>
        <path id="DejaVuSans-30" d="M 2034 4250 
Q 1547 4250 1301 3770 
Q 1056 3291 1056 2328 
Q 1056 1369 1301 889 
Q 1547 409 2034 409 
Q 2525 409 2770 889 
Q 3016 1369 3016 2328 
Q 3016 3291 2770 3770 
Q 2525 4250 2034 4250 
z
M 2034 4750 
Q 2819 4750 3233 4129 
Q 3647 3509 3647 2328 
Q 3647 1150 3233 529 
Q 2819 -91 2034 -91 
Q 1250 -91 836 529 
Q 422 1150 422 2328 
Q 422 3509 836 4129 
Q 1250 4750 2034 4750 
z
" transform="scale(0.015625)"/>
       </defs>
       <use xlink:href="#DejaVuSans-30"/>
      </g>
     </g>
    </g>
    <g id="xtick_2">
     <g id="line2d_2">
      <g>
       <use xlink:href="#mb08c939afe" x="177.879132" y="658.84" style="stroke: #000000; stroke-width: 0.8"/>
      </g>
     </g>
     <g id="text_2">
      <!-- 10 -->
      <g transform="translate(171.516632 673.438437) scale(0.1 -0.1)">
       <defs>
        <path id="DejaVuSans-31" d="M 794 531 
L 1825 531 
L 1825 4091 
L 703 3866 
L 703 4441 
L 1819 4666 
L 2450 4666 
L 2450 531 
L 3481 531 
L 3481 0 
L 794 0 
L 794 531 
z
" transform="scale(0.015625)"/>
       </defs>
       <use xlink:href="#DejaVuSans-31"/>
       <use xlink:href="#DejaVuSans-30" x="63.623047"/>
      </g>
     </g>
    </g>
    <g id="xtick_3">
     <g id="line2d_3">
      <g>
       <use xlink:href="#mb08c939afe" x="291.988264" y="658.84" style="stroke: #000000; stroke-width: 0.8"/>
      </g>
     </g>
     <g id="text_3">
      <!-- 20 -->
      <g transform="translate(285.625764 673.438437) scale(0.1 -0.1)">
       <defs>
        <path id="DejaVuSans-32" d="M 1228 531 
L 3431 531 
L 3431 0 
L 469 0 
L 469 531 
Q 828 903 1448 1529 
Q 2069 2156 2228 2338 
Q 2531 2678 2651 2914 
Q 2772 3150 2772 3378 
Q 2772 3750 2511 3984 
Q 2250 4219 1831 4219 
Q 1534 4219 1204 4116 
Q 875 4013 500 3803 
L 500 4441 
Q 881 4594 1212 4672 
Q 1544 4750 1819 4750 
Q 2544 4750 2975 4387 
Q 3406 4025 3406 3419 
Q 3406 3131 3298 2873 
Q 3191 2616 2906 2266 
Q 2828 2175 2409 1742 
Q 1991 1309 1228 531 
z
" transform="scale(0.015625)"/>
       </defs>
       <use xlink:href="#DejaVuSans-32"/>
       <use xlink:href="#DejaVuSans-30" x="63.623047"/>
      </g>
     </g>
    </g>
    <g id="xtick_4">
     <g id="line2d_4">
      <g>
       <use xlink:href="#mb08c939afe" x="406.097395" y="658.84" style="stroke: #000000; stroke-width: 0.8"/>
      </g>
     </g>
     <g id="text_4">
      <!-- 30 -->
      <g transform="translate(399.734895 673.438437) scale(0.1 -0.1)">
       <defs>
        <path id="DejaVuSans-33" d="M 2597 2516 
Q 3050 2419 3304 2112 
Q 3559 1806 3559 1356 
Q 3559 666 3084 287 
Q 2609 -91 1734 -91 
Q 1441 -91 1130 -33 
Q 819 25 488 141 
L 488 750 
Q 750 597 1062 519 
Q 1375 441 1716 441 
Q 2309 441 2620 675 
Q 2931 909 2931 1356 
Q 2931 1769 2642 2001 
Q 2353 2234 1838 2234 
L 1294 2234 
L 1294 2753 
L 1863 2753 
Q 2328 2753 2575 2939 
Q 2822 3125 2822 3475 
Q 2822 3834 2567 4026 
Q 2313 4219 1838 4219 
Q 1578 4219 1281 4162 
Q 984 4106 628 3988 
L 628 4550 
Q 988 4650 1302 4700 
Q 1616 4750 1894 4750 
Q 2613 4750 3031 4423 
Q 3450 4097 3450 3541 
Q 3450 3153 3228 2886 
Q 3006 2619 2597 2516 
z
" transform="scale(0.015625)"/>
       </defs>
       <use xlink:href="#DejaVuSans-33"/>
       <use xlink:href="#DejaVuSans-30" x="63.623047"/>
      </g>
     </g>
    </g>
    <g id="xtick_5">
     <g id="line2d_5">
      <g>
       <use xlink:href="#mb08c939afe" x="520.206527" y="658.84" style="stroke: #000000; stroke-width: 0.8"/>
      </g>
     </g>
     <g id="text_5">
      <!-- 40 -->
      <g transform="translate(513.844027 673.438437) scale(0.1 -0.1)">
       <defs>
        <path id="DejaVuSans-34" d="M 2419 4116 
L 825 1625 
L 2419 1625 
L 2419 4116 
z
M 2253 4666 
L 3047 4666 
L 3047 1625 
L 3713 1625 
L 3713 1100 
L 3047 1100 
L 3047 0 
L 2419 0 
L 2419 1100 
L 313 1100 
L 313 1709 
L 2253 4666 
z
" transform="scale(0.015625)"/>
       </defs>
       <use xlink:href="#DejaVuSans-34"/>
       <use xlink:href="#DejaVuSans-30" x="63.623047"/>
      </g>
     </g>
    </g>
    <g id="xtick_6">
     <g id="line2d_6">
      <g>
       <use xlink:href="#mb08c939afe" x="634.315659" y="658.84" style="stroke: #000000; stroke-width: 0.8"/>
      </g>
     </g>
     <g id="text_6">
      <!-- 50 -->
      <g transform="translate(627.953159 673.438437) scale(0.1 -0.1)">
       <defs>
        <path id="DejaVuSans-35" d="M 691 4666 
L 3169 4666 
L 3169 4134 
L 1269 4134 
L 1269 2991 
Q 1406 3038 1543 3061 
Q 1681 3084 1819 3084 
Q 2600 3084 3056 2656 
Q 3513 2228 3513 1497 
Q 3513 744 3044 326 
Q 2575 -91 1722 -91 
Q 1428 -91 1123 -41 
Q 819 9 494 109 
L 494 744 
Q 775 591 1075 516 
Q 1375 441 1709 441 
Q 2250 441 2565 725 
Q 2881 1009 2881 1497 
Q 2881 1984 2565 2268 
Q 2250 2553 1709 2553 
Q 1456 2553 1204 2497 
Q 953 2441 691 2322 
L 691 4666 
z
" transform="scale(0.015625)"/>
       </defs>
       <use xlink:href="#DejaVuSans-35"/>
       <use xlink:href="#DejaVuSans-30" x="63.623047"/>
      </g>
     </g>
    </g>
    <g id="xtick_7">
     <g id="line2d_7">
      <g>
       <use xlink:href="#mb08c939afe" x="748.424791" y="658.84" style="stroke: #000000; stroke-width: 0.8"/>
      </g>
     </g>
     <g id="text_7">
      <!-- 60 -->
      <g transform="translate(742.062291 673.438437) scale(0.1 -0.1)">
       <defs>
        <path id="DejaVuSans-36" d="M 2113 2584 
Q 1688 2584 1439 2293 
Q 1191 2003 1191 1497 
Q 1191 994 1439 701 
Q 1688 409 2113 409 
Q 2538 409 2786 701 
Q 3034 994 3034 1497 
Q 3034 2003 2786 2293 
Q 2538 2584 2113 2584 
z
M 3366 4563 
L 3366 3988 
Q 3128 4100 2886 4159 
Q 2644 4219 2406 4219 
Q 1781 4219 1451 3797 
Q 1122 3375 1075 2522 
Q 1259 2794 1537 2939 
Q 1816 3084 2150 3084 
Q 2853 3084 3261 2657 
Q 3669 2231 3669 1497 
Q 3669 778 3244 343 
Q 2819 -91 2113 -91 
Q 1303 -91 875 529 
Q 447 1150 447 2328 
Q 447 3434 972 4092 
Q 1497 4750 2381 4750 
Q 2619 4750 2861 4703 
Q 3103 4656 3366 4563 
z
" transform="scale(0.015625)"/>
       </defs>
       <use xlink:href="#DejaVuSans-36"/>
       <use xlink:href="#DejaVuSans-30" x="63.623047"/>
      </g>
     </g>
    </g>
    <g id="text_8">
     <!-- Time (s) -->
     <g transform="translate(409.133094 687.116562) scale(0.1 -0.1)">
      <defs>
       <path id="DejaVuSans-54" d="M -19 4666 
L 3928 4666 
L 3928 4134 
L 2272 4134 
L 2272 0 
L 1638 0 
L 1638 4134 
L -19 4134 
L -19 4666 
z
" transform="scale(0.015625)"/>
       <path id="DejaVuSans-69" d="M 603 3500 
L 1178 3500 
L 1178 0 
L 603 0 
L 603 3500 
z
M 603 4863 
L 1178 4863 
L 1178 4134 
L 603 4134 
L 603 4863 
z
" transform="scale(0.015625)"/>
       <path id="DejaVuSans-6d" d="M 3328 2828 
Q 3544 3216 3844 3400 
Q 4144 3584 4550 3584 
Q 5097 3584 5394 3201 
Q 5691 2819 5691 2113 
L 5691 0 
L 5113 0 
L 5113 2094 
Q 5113 2597 4934 2840 
Q 4756 3084 4391 3084 
Q 3944 3084 3684 2787 
Q 3425 2491 3425 1978 
L 3425 0 
L 2847 0 
L 2847 2094 
Q 2847 2600 2669 2842 
Q 2491 3084 2119 3084 
Q 1678 3084 1418 2786 
Q 1159 2488 1159 1978 
L 1159 0 
L 581 0 
L 581 3500 
L 1159 3500 
L 1159 2956 
Q 1356 3278 1631 3431 
Q 1906 3584 2284 3584 
Q 2666 3584 2933 3390 
Q 3200 3197 3328 2828 
z
" transform="scale(0.015625)"/>
       <path id="DejaVuSans-65" d="M 3597 1894 
L 3597 1613 
L 953 1613 
Q 991 1019 1311 708 
Q 1631 397 2203 397 
Q 2534 397 2845 478 
Q 3156 559 3463 722 
L 3463 178 
Q 3153 47 2828 -22 
Q 2503 -91 2169 -91 
Q 1331 -91 842 396 
Q 353 884 353 1716 
Q 353 2575 817 3079 
Q 1281 3584 2069 3584 
Q 2775 3584 3186 3129 
Q 3597 2675 3597 1894 
z
M 3022 2063 
Q 3016 2534 2758 2815 
Q 2500 3097 2075 3097 
Q 1594 3097 1305 2825 
Q 1016 2553 972 2059 
L 3022 2063 
z
" transform="scale(0.015625)"/>
       <path id="DejaVuSans-20" transform="scale(0.015625)"/>
       <path id="DejaVuSans-28" d="M 1984 4856 
Q 1566 4138 1362 3434 
Q 1159 2731 1159 2009 
Q 1159 1288 1364 580 
Q 1569 -128 1984 -844 
L 1484 -844 
Q 1016 -109 783 600 
Q 550 1309 550 2009 
Q 550 2706 781 3412 
Q 1013 4119 1484 4856 
L 1984 4856 
z
" transform="scale(0.015625)"/>
       <path id="DejaVuSans-73" d="M 2834 3397 
L 2834 2853 
Q 2591 2978 2328 3040 
Q 2066 3103 1784 3103 
Q 1356 3103 1142 2972 
Q 928 2841 928 2578 
Q 928 2378 1081 2264 
Q 1234 2150 1697 2047 
L 1894 2003 
Q 2506 1872 2764 1633 
Q 3022 1394 3022 966 
Q 3022 478 2636 193 
Q 2250 -91 1575 -91 
Q 1294 -91 989 -36 
Q 684 19 347 128 
L 347 722 
Q 666 556 975 473 
Q 1284 391 1588 391 
Q 1994 391 2212 530 
Q 2431 669 2431 922 
Q 2431 1156 2273 1281 
Q 2116 1406 1581 1522 
L 1381 1569 
Q 847 1681 609 1914 
Q 372 2147 372 2553 
Q 372 3047 722 3315 
Q 1072 3584 1716 3584 
Q 2034 3584 2315 3537 
Q 2597 3491 2834 3397 
z
" transform="scale(0.015625)"/>
       <path id="DejaVuSans-29" d="M 513 4856 
L 1013 4856 
Q 1481 4119 1714 3412 
Q 1947 2706 1947 2009 
Q 1947 1309 1714 600 
Q 1481 -109 1013 -844 
L 513 -844 
Q 928 -128 1133 580 
Q 1338 1288 1338 2009 
Q 1338 2731 1133 3434 
Q 928 4138 513 4856 
z
" transform="scale(0.015625)"/>
      </defs>
      <use xlink:href="#DejaVuSans-54"/>
      <use xlink:href="#DejaVuSans-69" x="57.958984"/>
      <use xlink:href="#DejaVuSans-6d" x="85.742188"/>
      <use xlink:href="#DejaVuSans-65" x="183.154297"/>
      <use xlink:href="#DejaVuSans-20" x="244.677734"/>
      <use xlink:href="#DejaVuSans-28" x="276.464844"/>
      <use xlink:href="#DejaVuSans-73" x="315.478516"/>
      <use xlink:href="#DejaVuSans-29" x="367.578125"/>
     </g>
    </g>
   </g>
   <g id="matplotlib.axis_2">
    <g id="ytick_1">
     <g id="line2d_8">
      <defs>
       <path id="m27ee735840" d="M 0 0 
L -3.5 0 
" style="stroke: #000000; stroke-width: 0.8"/>
      </defs>
      <g>
       <use xlink:href="#m27ee735840" x="63.77" y="658.84" style="stroke: #000000; stroke-width: 0.8"/>
      </g>
     </g>
     <g id="text_9">
      <!-- 0 -->
      <g transform="translate(50.4075 662.639219) scale(0.1 -0.1)">
       <use xlink:href="#DejaVuSans-30"/>
      </g>
     </g>
    </g>
    <g id="ytick_2">
     <g id="line2d_9">
      <g>
       <use xlink:href="#m27ee735840" x="63.77" y="556.7492" style="stroke: #000000; stroke-width: 0.8"/>
      </g>
     </g>
     <g id="text_10">
      <!-- 5 -->
      <g transform="translate(50.4075 560.548419) scale(0.1 -0.1)">
       <use xlink:href="#DejaVuSans-35"/>
      </g>
     </g>
    </g>
    <g id="ytick_3">
     <g id="line2d_10">
      <g>
       <use xlink:href="#m27ee735840" x="63.77" y="454.6584" style="stroke: #000000; stroke-width: 0.8"/>
      </g>
     </g>
     <g id="text_11">
      <!-- 10 -->
      <g transform="translate(44.045 458.457619) scale(0.1 -0.1)">
       <use xlink:href="#DejaVuSans-31"/>
       <use xlink:href="#DejaVuSans-30" x="63.623047"/>
      </g>
     </g>
    </g>
    <g id="ytick_4">
     <g id="line2d_11">
      <g>
       <use xlink:href="#m27ee735840" x="63.77" y="352.5676" style="stroke: #000000; stroke-width: 0.8"/>
      </g>
     </g>
     <g id="text_12">
      <!-- 15 -->
      <g transform="translate(44.045 356.366819) scale(0.1 -0.1)">
       <use xlink:href="#DejaVuSans-31"/>
       <use xlink:href="#DejaVuSans-35" x="63.623047"/>
      </g>
     </g>
    </g>
    <g id="ytick_5">
     <g id="line2d_12">
      <g>
       <use xlink:href="#m27ee735840" x="63.77" y="250.4768" style="stroke: #000000; stroke-width: 0.8"/>
      </g>
     </g>
     <g id="text_13">
      <!-- 20 -->
      <g transform="translate(44.045 254.276019) scale(0.1 -0.1)">
       <use xlink:href="#DejaVuSans-32"/>
       <use xlink:href="#DejaVuSans-30" x="63.623047"/>
      </g>
     </g>
    </g>
    <g id="ytick_6">
     <g id="line2d_13">
      <g>
       <use xlink:href="#m27ee735840" x="63.77" y="148.386" style="stroke: #000000; stroke-width: 0.8"/>
      </g>
     </g>
     <g id="text_14">
      <!-- 25 -->
      <g transform="translate(44.045 152.185219) scale(0.1 -0.1)">
       <use xlink:href="#DejaVuSans-32"/>
       <use xlink:href="#DejaVuSans-35" x="63.623047"/>
      </g>
     </g>
    </g>
    <g id="ytick_7">
     <g id="line2d_14">
      <g>
       <use xlink:href="#m27ee735840" x="63.77" y="46.2952" style="stroke: #000000; stroke-width: 0.8"/>
      </g>
     </g>
     <g id="text_15">
      <!-- 30 -->
      <g transform="translate(44.045 50.094419) scale(0.1 -0.1)">
       <use xlink:href="#DejaVuSans-33"/>
       <use xlink:href="#DejaVuSans-30" x="63.623047"/>
      </g>
     </g>
    </g>
    <g id="text_16">
     <!-- Packets per Second -->
     <g transform="translate(37.965312 401.305313) rotate(-90) scale(0.1 -0.1)">
      <defs>
       <path id="DejaVuSans-50" d="M 1259 4147 
L 1259 2394 
L 2053 2394 
Q 2494 2394 2734 2622 
Q 2975 2850 2975 3272 
Q 2975 3691 2734 3919 
Q 2494 4147 2053 4147 
L 1259 4147 
z
M 628 4666 
L 2053 4666 
Q 2838 4666 3239 4311 
Q 3641 3956 3641 3272 
Q 3641 2581 3239 2228 
Q 2838 1875 2053 1875 
L 1259 1875 
L 1259 0 
L 628 0 
L 628 4666 
z
" transform="scale(0.015625)"/>
       <path id="DejaVuSans-61" d="M 2194 1759 
Q 1497 1759 1228 1600 
Q 959 1441 959 1056 
Q 959 750 1161 570 
Q 1363 391 1709 391 
Q 2188 391 2477 730 
Q 2766 1069 2766 1631 
L 2766 1759 
L 2194 1759 
z
M 3341 1997 
L 3341 0 
L 2766 0 
L 2766 531 
Q 2569 213 2275 61 
Q 1981 -91 1556 -91 
Q 1019 -91 701 211 
Q 384 513 384 1019 
Q 384 1609 779 1909 
Q 1175 2209 1959 2209 
L 2766 2209 
L 2766 2266 
Q 2766 2663 2505 2880 
Q 2244 3097 1772 3097 
Q 1472 3097 1187 3025 
Q 903 2953 641 2809 
L 641 3341 
Q 956 3463 1253 3523 
Q 1550 3584 1831 3584 
Q 2591 3584 2966 3190 
Q 3341 2797 3341 1997 
z
" transform="scale(0.015625)"/>
       <path id="DejaVuSans-63" d="M 3122 3366 
L 3122 2828 
Q 2878 2963 2633 3030 
Q 2388 3097 2138 3097 
Q 1578 3097 1268 2742 
Q 959 2388 959 1747 
Q 959 1106 1268 751 
Q 1578 397 2138 397 
Q 2388 397 2633 464 
Q 2878 531 3122 666 
L 3122 134 
Q 2881 22 2623 -34 
Q 2366 -91 2075 -91 
Q 1284 -91 818 406 
Q 353 903 353 1747 
Q 353 2603 823 3093 
Q 1294 3584 2113 3584 
Q 2378 3584 2631 3529 
Q 2884 3475 3122 3366 
z
" transform="scale(0.015625)"/>
       <path id="DejaVuSans-6b" d="M 581 4863 
L 1159 4863 
L 1159 1991 
L 2875 3500 
L 3609 3500 
L 1753 1863 
L 3688 0 
L 2938 0 
L 1159 1709 
L 1159 0 
L 581 0 
L 581 4863 
z
" transform="scale(0.015625)"/>
       <path id="DejaVuSans-74" d="M 1172 4494 
L 1172 3500 
L 2356 3500 
L 2356 3053 
L 1172 3053 
L 1172 1153 
Q 1172 725 1289 603 
Q 1406 481 1766 481 
L 2356 481 
L 2356 0 
L 1766 0 
Q 1100 0 847 248 
Q 594 497 594 1153 
L 594 3053 
L 172 3053 
L 172 3500 
L 594 3500 
L 594 4494 
L 1172 4494 
z
" transform="scale(0.015625)"/>
       <path id="DejaVuSans-70" d="M 1159 525 
L 1159 -1331 
L 581 -1331 
L 581 3500 
L 1159 3500 
L 1159 2969 
Q 1341 3281 1617 3432 
Q 1894 3584 2278 3584 
Q 2916 3584 3314 3078 
Q 3713 2572 3713 1747 
Q 3713 922 3314 415 
Q 2916 -91 2278 -91 
Q 1894 -91 1617 61 
Q 1341 213 1159 525 
z
M 3116 1747 
Q 3116 2381 2855 2742 
Q 2594 3103 2138 3103 
Q 1681 3103 1420 2742 
Q 1159 2381 1159 1747 
Q 1159 1113 1420 752 
Q 1681 391 2138 391 
Q 2594 391 2855 752 
Q 3116 1113 3116 1747 
z
" transform="scale(0.015625)"/>
       <path id="DejaVuSans-72" d="M 2631 2963 
Q 2534 3019 2420 3045 
Q 2306 3072 2169 3072 
Q 1681 3072 1420 2755 
Q 1159 2438 1159 1844 
L 1159 0 
L 581 0 
L 581 3500 
L 1159 3500 
L 1159 2956 
Q 1341 3275 1631 3429 
Q 1922 3584 2338 3584 
Q 2397 3584 2469 3576 
Q 2541 3569 2628 3553 
L 2631 2963 
z
" transform="scale(0.015625)"/>
       <path id="DejaVuSans-53" d="M 3425 4513 
L 3425 3897 
Q 3066 4069 2747 4153 
Q 2428 4238 2131 4238 
Q 1616 4238 1336 4038 
Q 1056 3838 1056 3469 
Q 1056 3159 1242 3001 
Q 1428 2844 1947 2747 
L 2328 2669 
Q 3034 2534 3370 2195 
Q 3706 1856 3706 1288 
Q 3706 609 3251 259 
Q 2797 -91 1919 -91 
Q 1588 -91 1214 -16 
Q 841 59 441 206 
L 441 856 
Q 825 641 1194 531 
Q 1563 422 1919 422 
Q 2459 422 2753 634 
Q 3047 847 3047 1241 
Q 3047 1584 2836 1778 
Q 2625 1972 2144 2069 
L 1759 2144 
Q 1053 2284 737 2584 
Q 422 2884 422 3419 
Q 422 4038 858 4394 
Q 1294 4750 2059 4750 
Q 2388 4750 2728 4690 
Q 3069 4631 3425 4513 
z
" transform="scale(0.015625)"/>
       <path id="DejaVuSans-6f" d="M 1959 3097 
Q 1497 3097 1228 2736 
Q 959 2375 959 1747 
Q 959 1119 1226 758 
Q 1494 397 1959 397 
Q 2419 397 2687 759 
Q 2956 1122 2956 1747 
Q 2956 2369 2687 2733 
Q 2419 3097 1959 3097 
z
M 1959 3584 
Q 2709 3584 3137 3096 
Q 3566 2609 3566 1747 
Q 3566 888 3137 398 
Q 2709 -91 1959 -91 
Q 1206 -91 779 398 
Q 353 888 353 1747 
Q 353 2609 779 3096 
Q 1206 3584 1959 3584 
z
" transform="scale(0.015625)"/>
       <path id="DejaVuSans-6e" d="M 3513 2113 
L 3513 0 
L 2938 0 
L 2938 2094 
Q 2938 2591 2744 2837 
Q 2550 3084 2163 3084 
Q 1697 3084 1428 2787 
Q 1159 2491 1159 1978 
L 1159 0 
L 581 0 
L 581 3500 
L 1159 3500 
L 1159 2956 
Q 1366 3272 1645 3428 
Q 1925 3584 2291 3584 
Q 2894 3584 3203 3211 
Q 3513 2838 3513 2113 
z
" transform="scale(0.015625)"/>
       <path id="DejaVuSans-64" d="M 2906 2969 
L 2906 4863 
L 3481 4863 
L 3481 0 
L 2906 0 
L 2906 525 
Q 2725 213 2448 61 
Q 2172 -91 1784 -91 
Q 1150 -91 751 415 
Q 353 922 353 1747 
Q 353 2572 751 3078 
Q 1150 3584 1784 3584 
Q 2172 3584 2448 3432 
Q 2725 3281 2906 2969 
z
M 947 1747 
Q 947 1113 1208 752 
Q 1469 391 1925 391 
Q 2381 391 2643 752 
Q 2906 1113 2906 1747 
Q 2906 2381 2643 2742 
Q 2381 3103 1925 3103 
Q 1469 3103 1208 2742 
Q 947 2381 947 1747 
z
" transform="scale(0.015625)"/>
      </defs>
      <use xlink:href="#DejaVuSans-50"/>
      <use xlink:href="#DejaVuSans-61" x="55.802734"/>
      <use xlink:href="#DejaVuSans-63" x="117.082031"/>
      <use xlink:href="#DejaVuSans-6b" x="172.0625"/>
      <use xlink:href="#DejaVuSans-65" x="226.347656"/>
      <use xlink:href="#DejaVuSans-74" x="287.871094"/>
      <use xlink:href="#DejaVuSans-73" x="327.080078"/>
      <use xlink:href="#DejaVuSans-20" x="379.179688"/>
      <use xlink:href="#DejaVuSans-70" x="410.966797"/>
      <use xlink:href="#DejaVuSans-65" x="474.443359"/>
      <use xlink:href="#DejaVuSans-72" x="535.966797"/>
      <use xlink:href="#DejaVuSans-20" x="577.080078"/>
      <use xlink:href="#DejaVuSans-53" x="608.867188"/>
      <use xlink:href="#DejaVuSans-65" x="672.34375"/>
      <use xlink:href="#DejaVuSans-63" x="733.867188"/>
      <use xlink:href="#DejaVuSans-6f" x="788.847656"/>
      <use xlink:href="#DejaVuSans-6e" x="850.029297"/>
      <use xlink:href="#DejaVuSans-64" x="913.408203"/>
     </g>
    </g>
   </g>
   <g id="line2d_15">
    <path d="M 64.151461 48.0574 
L 64.532514 47.402953 
L 64.913901 47.938032 
L 65.676157 47.384789 
L 66.057539 47.930446 
L 66.438563 47.357358 
L 66.819915 47.882553 
L 67.201052 47.536788 
L 67.963617 47.846098 
L 68.34474 47.515685 
L 68.725854 47.500749 
L 69.106769 47.181249 
L 69.487899 47.527362 
L 70.631386 47.579154 
L 71.012593 47.650787 
L 71.393719 47.519126 
L 71.774676 47.250246 
L 72.155773 47.472944 
L 73.680344 47.623837 
L 74.061646 47.803056 
L 74.823649 47.177823 
L 75.204771 47.51325 
L 75.585865 47.469557 
L 75.967007 47.545426 
L 76.348295 47.779649 
L 77.110359 47.216739 
L 77.491679 47.830941 
L 77.872587 47.171153 
L 78.253702 47.501957 
L 79.397165 47.642499 
L 79.778033 47.105656 
L 80.159287 47.725129 
L 80.540106 47.027552 
L 80.921147 47.383745 
L 81.683225 47.382353 
L 82.064423 47.635858 
L 82.445499 47.440358 
L 83.20759 47.404454 
L 83.588402 47.016754 
L 83.969447 47.389641 
L 84.731511 47.378014 
L 85.112723 47.658654 
L 85.493765 47.385082 
L 85.874865 47.478893 
L 86.255689 47.035985 
L 86.636913 47.677479 
L 87.017781 47.105326 
L 87.780023 47.630497 
L 88.541935 47.095814 
L 88.923149 47.661106 
L 89.303989 47.061337 
L 90.066295 47.744572 
L 90.447135 47.060438 
L 90.828303 47.588102 
L 91.590019 46.898648 
L 92.352156 47.600764 
L 92.733016 47.093377 
L 93.11393 47.179178 
L 93.495091 47.57736 
L 94.256813 46.920839 
L 94.637964 47.561531 
L 95.018768 47.002582 
L 95.780924 47.627332 
L 96.161668 46.907304 
L 96.542859 47.623856 
L 96.923798 47.221228 
L 97.304842 47.388378 
L 97.68559 46.912879 
L 98.066567 47.282157 
L 98.828509 47.282633 
L 99.20962 47.496319 
L 99.590629 47.332946 
L 99.971393 46.939232 
L 100.352572 47.604479 
L 100.733307 46.892357 
L 101.114492 47.615567 
L 101.495393 47.159077 
L 101.876557 47.581148 
L 102.257267 46.85195 
L 103.019243 47.422489 
L 103.399953 46.853693 
L 103.780869 47.182055 
L 104.542713 47.191455 
L 104.92378 47.425528 
L 105.685413 46.90393 
L 106.066495 47.450171 
L 106.447233 46.896374 
L 106.828141 47.170511 
L 107.209029 47.139378 
L 107.59014 47.496026 
L 107.970838 46.832176 
L 108.351945 47.490627 
L 109.113575 46.864937 
L 109.494493 47.186838 
L 110.256315 47.187387 
L 110.63738 47.423002 
L 111.399006 46.91873 
L 111.779913 47.168111 
L 112.541698 47.160836 
L 112.922607 47.172509 
L 113.3037 47.466372 
L 113.684622 47.193873 
L 114.82696 46.75613 
L 115.58889 47.417564 
L 115.969573 46.809612 
L 116.350615 47.384587 
L 116.731502 47.136702 
L 117.112148 46.748955 
L 117.493207 47.413792 
L 118.254709 46.75057 
L 118.635777 47.426352 
L 119.016604 47.039981 
L 119.397488 47.132817 
L 119.778127 46.737432 
L 120.15917 47.387902 
L 120.539838 46.784936 
L 120.920673 47.05274 
L 121.682362 47.070373 
L 122.063393 47.367594 
L 122.824897 46.765506 
L 123.205953 47.407439 
L 123.586574 46.709888 
L 123.967425 47.078365 
L 124.348267 47.065039 
L 124.729327 47.414781 
L 125.109922 46.666814 
L 125.490897 47.278475 
L 126.252322 46.687296 
L 126.633118 46.990756 
L 127.013894 46.958816 
L 127.775697 47.261421 
L 128.156504 47.007111 
L 128.537331 47.040604 
L 128.917915 46.649909 
L 129.2987 46.97266 
L 130.060316 47.013197 
L 130.441321 47.32606 
L 130.822152 47.0468 
L 131.583706 46.930283 
L 131.964335 46.721596 
L 132.34515 47.021484 
L 133.106728 46.968259 
L 133.487674 47.230315 
L 133.868453 46.963968 
L 134.630084 47.016809 
L 135.010884 46.997559 
L 135.391527 46.744221 
L 136.153253 47.209594 
L 136.534071 47.026287 
L 136.914665 46.664685 
L 137.295553 47.138608 
L 137.676144 46.66061 
L 138.056888 46.907653 
L 138.818426 46.959769 
L 139.19934 47.180315 
L 139.580104 46.939177 
L 139.960875 46.949721 
L 140.341466 46.660133 
L 140.722212 46.910165 
L 141.483737 46.931236 
L 141.864638 47.15992 
L 142.245418 46.964005 
L 143.00691 46.889991 
L 143.387518 46.688489 
L 143.768291 46.95216 
L 144.529804 46.941267 
L 144.910782 47.282944 
L 145.291465 46.809575 
L 145.672277 47.015874 
L 146.052824 46.59069 
L 146.433572 46.913191 
L 147.195108 46.960705 
L 147.576053 47.22949 
L 147.956534 46.483494 
L 148.337472 47.218241 
L 148.71799 46.544404 
L 149.098706 46.861397 
L 150.240848 46.875135 
L 150.621668 47.028835 
L 151.002455 46.97695 
L 151.383017 46.613766 
L 151.763736 46.866551 
L 152.525176 46.873264 
L 152.906125 47.236562 
L 153.667354 46.556045 
L 154.428982 47.182532 
L 154.809494 46.533755 
L 155.190433 47.219762 
L 155.570955 46.550023 
L 155.951878 47.19479 
L 156.332584 46.846521 
L 157.474771 46.860314 
L 157.855292 46.547214 
L 158.236031 46.900005 
L 158.616751 46.867981 
L 158.997651 47.157849 
L 159.378138 46.493411 
L 159.759059 47.19173 
L 160.520212 46.476662 
L 160.900886 46.794421 
L 161.66224 46.799356 
L 162.043157 47.183466 
L 162.804345 46.534544 
L 163.185025 46.804071 
L 163.946427 46.86158 
L 164.327324 47.15281 
L 165.088506 46.548022 
L 165.469417 47.174194 
L 165.850046 46.722073 
L 166.230604 46.608057 
L 166.99224 47.174708 
L 167.372965 46.875282 
L 167.753738 46.953755 
L 168.134461 46.873246 
L 168.515257 46.990977 
L 168.895775 46.54288 
L 169.276511 46.89509 
L 170.03799 46.889789 
L 170.41893 47.222877 
L 170.799555 46.71521 
L 171.561401 47.368785 
L 171.942025 46.713466 
L 172.322845 47.029953 
L 173.084438 46.977519 
L 173.46547 47.368418 
L 173.846228 46.929018 
L 174.227149 47.19206 
L 174.607743 46.665382 
L 174.988566 47.03373 
L 175.750211 47.029697 
L 176.131242 47.367137 
L 176.511873 46.725376 
L 176.892887 47.341462 
L 177.654302 46.684874 
L 178.035329 47.362265 
L 178.415956 46.719228 
L 178.796996 47.382115 
L 179.177825 47.042419 
L 179.558592 46.944073 
L 179.939448 47.086943 
L 180.320079 46.725798 
L 180.701079 47.318093 
L 181.081741 46.774515 
L 181.843592 47.341407 
L 182.224194 46.67823 
L 182.605194 47.317562 
L 182.985779 46.65191 
L 183.366608 47.044362 
L 184.508954 46.930906 
L 184.889965 47.335986 
L 185.270742 46.959366 
L 185.651588 47.070703 
L 186.032197 46.689517 
L 186.413004 47.009311 
L 187.174602 46.991948 
L 187.555601 47.317562 
L 188.317043 46.692967 
L 188.69783 46.97497 
L 189.459459 47.014077 
L 189.840268 47.010264 
L 190.221282 47.340619 
L 190.602105 47.03395 
L 191.363762 47.074901 
L 191.744338 46.636418 
L 192.125145 47.008046 
L 192.886777 47.018349 
L 193.267741 47.260615 
L 194.409926 46.663326 
L 194.790722 46.989455 
L 195.552312 46.982487 
L 195.933299 47.297012 
L 196.314083 46.970973 
L 197.075697 47.008174 
L 197.456315 46.705447 
L 197.837073 46.929458 
L 198.217883 47.012171 
L 198.598652 46.946934 
L 198.979634 47.289227 
L 199.360433 46.995615 
L 199.741183 46.916327 
L 200.121777 46.665713 
L 200.502552 46.956615 
L 201.264102 46.944715 
L 201.645038 47.215457 
L 202.787228 46.657141 
L 203.168003 46.95601 
L 203.9296 47.006121 
L 204.310593 47.307671 
L 204.691333 46.901032 
L 205.452883 46.964042 
L 206.2144 46.952783 
L 208.879694 46.864827 
L 209.260525 47.046397 
L 209.641352 47.040274 
L 210.022083 46.886048 
L 211.545178 46.932208 
L 212.306714 46.923589 
L 224.490718 46.90149 
L 224.87206 47.867032 
L 225.252811 46.918473 
L 226.775836 46.942404 
L 227.15654 46.843329 
L 227.918048 46.929421 
L 229.440939 46.848905 
L 230.583155 46.885388 
L 232.106071 46.890706 
L 232.486827 46.926744 
L 232.867513 46.81429 
L 233.629003 46.932392 
L 235.913377 46.84287 
L 237.055583 46.927495 
L 237.817036 46.888964 
L 240.862793 46.870164 
L 243.527783 46.840302 
L 243.908524 46.901986 
L 244.289196 46.791871 
L 245.431358 46.882215 
L 246.19279 46.882453 
L 257.233275 46.820289 
L 257.614014 46.898373 
L 259.136819 46.811263 
L 260.65964 46.841733 
L 261.04014 46.515392 
L 261.421006 47.103347 
L 261.801705 46.833185 
L 266.369967 46.795669 
L 266.75046 46.502501 
L 267.13132 47.094091 
L 267.512038 46.865725 
L 269.796201 46.812822 
L 270.557594 46.809538 
L 275.506483 46.755579 
L 276.267858 46.801044 
L 278.17124 46.813483 
L 278.551889 46.753745 
L 279.313271 46.833166 
L 280.836002 46.819683 
L 291.49472 46.635463 
L 291.875478 46.929219 
L 292.636802 46.760974 
L 293.017499 46.831552 
L 294.540137 46.754185 
L 295.301511 46.826067 
L 295.682136 46.715044 
L 296.443454 46.756607 
L 297.585467 46.791651 
L 298.346745 46.740698 
L 299.108076 46.76868 
L 304.056602 46.741157 
L 304.81795 46.782166 
L 305.198608 46.767139 
L 305.579052 46.424812 
L 305.959896 47.067752 
L 306.340565 46.786385 
L 310.908295 46.727339 
L 311.669612 46.747983 
L 315.476027 46.725119 
L 316.237366 46.780588 
L 316.998643 46.759451 
L 317.759913 46.737285 
L 318.521227 46.743891 
L 326.514757 46.840889 
L 326.89532 46.616593 
L 327.656625 46.786716 
L 328.798525 46.728881 
L 331.843516 46.547452 
L 332.224246 46.884709 
L 332.604863 46.702547 
L 333.746754 46.71776 
L 335.649898 46.7093 
L 337.172413 46.741707 
L 337.553129 46.863194 
L 337.933747 46.704456 
L 339.456276 46.731597 
L 341.740064 46.73835 
L 346.307546 46.717375 
L 347.4494 46.710255 
L 348.210669 46.712237 
L 349.733139 46.677606 
L 350.875031 46.750203 
L 352.778136 46.714035 
L 353.158645 46.528485 
L 353.539392 46.911889 
L 353.919996 46.681735 
L 360.009787 46.700969 
L 360.771038 46.691994 
L 361.151623 46.650019 
L 361.532262 46.738276 
L 361.912851 46.657526 
L 363.05471 46.687241 
L 364.957731 46.707282 
L 366.480162 46.672008 
L 368.383217 46.681864 
L 368.76361 46.342473 
L 369.14441 46.996789 
L 369.525019 46.690398 
L 371.808658 46.708071 
L 372.189076 46.383222 
L 372.569839 46.936848 
L 372.950456 46.702547 
L 376.756424 46.520497 
L 377.137118 46.827498 
L 377.898305 46.637354 
L 379.040142 46.697867 
L 379.801344 46.703905 
L 380.943139 46.665621 
L 382.084948 46.667585 
L 388.935677 46.65894 
L 389.316079 46.356363 
L 389.696827 46.914273 
L 390.077434 46.687021 
L 392.741637 46.71365 
L 393.122351 46.858223 
L 393.502965 46.698693 
L 396.928395 46.700125 
L 401.114988 46.668814 
L 401.495431 46.423103 
L 401.876207 46.958009 
L 402.256831 46.713448 
L 403.398577 46.625404 
L 409.868599 46.727523 
L 410.249121 46.549803 
L 411.010296 46.673403 
L 412.532597 46.634913 
L 414.054977 46.697959 
L 414.816117 46.627735 
L 417.480225 46.646238 
L 417.860768 46.584154 
L 418.621963 46.675367 
L 427.375239 46.532671 
L 427.755881 46.742772 
L 428.516957 46.487167 
L 428.89763 46.792421 
L 429.278167 46.574038 
L 430.039352 46.665804 
L 439.934367 46.628635 
L 440.314961 46.665951 
L 440.695497 46.571193 
L 441.837224 46.654314 
L 443.359521 46.589901 
L 444.501268 46.626708 
L 447.165212 46.627075 
L 447.92639 46.634711 
L 455.157161 46.616483 
L 455.537588 46.396321 
L 455.918326 46.896887 
L 456.298893 46.622816 
L 461.246219 46.61417 
L 462.768478 46.619346 
L 463.149068 46.659435 
L 463.529612 46.585164 
L 464.671291 46.612206 
L 468.477042 46.601613 
L 473.804866 46.587661 
L 474.185266 46.353478 
L 474.566033 46.944366 
L 474.946557 46.552318 
L 476.088235 46.627222 
L 477.99103 46.616777 
L 479.513334 46.649946 
L 480.654963 46.543743 
L 481.416102 46.634784 
L 484.460557 46.596142 
L 484.841055 46.510673 
L 485.221671 46.70095 
L 485.602233 46.614684 
L 485.982823 46.658885 
L 486.743898 46.573983 
L 487.124423 46.554356 
L 487.505012 46.658885 
L 487.885556 46.585311 
L 488.646695 46.622706 
L 489.027229 46.570091 
L 489.788371 46.618006 
L 490.168904 46.568769 
L 490.930059 46.633628 
L 492.452248 46.558304 
L 493.593937 46.613729 
L 495.877246 46.596051 
L 499.302156 46.581657 
L 501.204941 46.625239 
L 502.346619 46.601283 
L 502.727256 46.734129 
L 503.107767 46.532396 
L 504.249451 46.671384 
L 504.629999 46.591333 
L 505.010592 46.664997 
L 506.152197 46.548793 
L 506.532774 46.637281 
L 507.67441 46.571248 
L 509.19662 46.603357 
L 514.904834 46.575966 
L 515.285242 46.366651 
L 515.665904 46.775597 
L 516.046471 46.623128 
L 517.568629 46.531716 
L 518.329726 46.582172 
L 521.374104 46.614482 
L 521.754561 46.444796 
L 522.135194 46.729578 
L 522.515727 46.567594 
L 524.798971 46.597795 
L 525.179324 46.27645 
L 525.560096 46.951775 
L 525.940634 46.575966 
L 528.223959 46.59572 
L 530.126658 46.593425 
L 531.268327 46.601154 
L 532.40994 46.578243 
L 532.790523 46.647762 
L 533.551608 46.584999 
L 534.693264 46.593187 
L 557.906239 46.592085 
L 558.287035 46.98918 
L 558.667399 46.29705 
L 559.04794 46.579785 
L 559.428548 46.68792 
L 560.189589 46.533993 
L 561.331228 46.595004 
L 562.853335 46.528246 
L 563.233898 46.617107 
L 564.375486 46.567869 
L 566.658645 46.565776 
L 568.180804 46.544258 
L 568.561298 46.504649 
L 569.322397 46.586431 
L 573.127837 46.600034 
L 574.269402 46.533094 
L 575.030491 46.591057 
L 576.55262 46.57962 
L 579.21635 46.578591 
L 579.596809 46.448598 
L 579.977389 46.64343 
L 580.357927 46.575342 
L 580.738304 46.317263 
L 581.118982 46.799833 
L 581.499516 46.569889 
L 582.641123 46.571486 
L 583.021561 46.41436 
L 583.402153 46.662684 
L 583.782677 46.55219 
L 584.163245 46.623734 
L 584.924293 46.546975 
L 585.304844 46.597134 
L 585.685342 46.511242 
L 586.826955 46.652222 
L 587.587995 46.549068 
L 589.490646 46.56058 
L 589.870961 46.215743 
L 590.25169 46.883333 
L 590.632222 46.56629 
L 591.012785 46.615693 
L 591.393274 46.497065 
L 592.154361 46.596822 
L 592.915414 46.554742 
L 593.296019 46.684066 
L 593.676503 46.488985 
L 596.7208 46.575342 
L 597.101294 46.504576 
L 597.86239 46.612518 
L 598.623429 46.536289 
L 599.765027 46.583548 
L 600.526106 46.576554 
L 600.906448 46.259119 
L 601.287182 46.891275 
L 601.667687 46.522829 
L 602.809297 46.55946 
L 603.570426 46.670393 
L 603.950898 46.468489 
L 604.711969 46.578904 
L 605.473016 46.567631 
L 608.136758 46.567612 
L 608.897773 46.548609 
L 609.658884 46.585898 
L 610.419922 46.557459 
L 614.225194 46.557973 
L 614.605842 46.753066 
L 614.986255 46.373963 
L 615.747431 46.709741 
L 616.127869 46.415278 
L 616.508412 46.583071 
L 616.888916 46.520166 
L 617.269295 46.320497 
L 617.649983 46.816198 
L 618.030504 46.54883 
L 618.41121 46.84564 
L 618.791754 46.585366 
L 620.313858 46.535334 
L 621.455471 46.581327 
L 624.880179 46.513519 
L 625.260722 46.582979 
L 625.641214 46.50274 
L 626.021759 46.58566 
L 627.163336 46.559056 
L 629.446464 46.520313 
L 630.588047 46.549509 
L 633.632216 46.564748 
L 634.012698 46.484761 
L 634.773767 46.564069 
L 635.154258 46.500426 
L 635.534823 46.618172 
L 635.915325 46.518863 
L 636.676373 46.542605 
L 637.056859 46.491482 
L 637.437401 46.58241 
L 639.720525 46.534563 
L 640.101077 46.598033 
L 640.862095 46.517669 
L 641.623144 46.5375 
L 642.003674 46.562049 
L 642.38429 46.70185 
L 642.764747 46.444778 
L 643.145276 46.561168 
L 650.375202 46.562288 
L 650.755601 46.350777 
L 651.136201 46.675605 
L 651.897251 46.535132 
L 663.312936 46.595408 
L 663.693434 46.511591 
L 664.073986 46.598144 
L 664.835018 46.551088 
L 670.162315 46.449314 
L 670.542912 46.670062 
L 670.923421 46.529127 
L 672.445529 46.57402 
L 673.20657 46.560452 
L 673.587151 46.645375 
L 673.967567 46.378556 
L 674.3481 46.567704 
L 676.250694 46.52775 
L 676.631179 46.490399 
L 677.011722 46.583181 
L 677.392216 46.504907 
L 678.153271 46.565097 
L 679.675325 46.510452 
L 680.436364 46.521929 
L 686.524616 46.549546 
L 686.905035 46.384196 
L 687.285669 46.729615 
L 687.666193 46.553769 
L 688.04675 46.605468 
L 688.427206 46.444576 
L 689.188261 46.55801 
L 694.895991 46.556725 
L 695.276524 46.566437 
L 695.656843 46.224161 
L 696.037583 46.899675 
L 696.418081 46.512123 
L 713.921807 46.559332 
L 714.682867 46.5393 
L 717.726955 46.520901 
L 718.868494 46.560434 
L 720.01001 46.521672 
L 722.293127 46.562141 
L 723.054125 46.524537 
L 723.815169 46.535334 
L 726.098267 46.587624 
L 726.478675 46.365751 
L 726.859274 46.674155 
L 727.239778 46.520277 
L 727.620066 46.174162 
L 728.000755 46.817812 
L 728.381286 46.563849 
L 729.903334 46.49813 
L 730.28387 46.572735 
L 730.664347 46.477451 
L 731.425397 46.559038 
L 732.186395 46.514658 
L 733.327963 46.545341 
L 734.469472 46.513317 
L 735.230553 46.578151 
L 736.372054 46.476294 
L 737.133106 46.567759 
L 737.513629 46.552024 
L 737.894044 46.377858 
L 738.274658 46.696454 
L 738.655163 46.524078 
L 747.787443 46.47185 
L 748.167835 46.340011 
L 748.548474 46.738386 
L 748.928985 46.532231 
L 749.309525 46.578445 
L 749.689826 46.19442 
L 750.070546 46.868367 
L 750.451046 46.514382 
L 754.636699 46.537941 
L 755.017007 46.20646 
L 755.397727 46.868422 
L 755.778257 46.562306 
L 757.680755 46.503639 
L 758.82232 46.547324 
L 759.202799 46.480482 
L 759.963848 46.552483 
L 760.344355 46.525969 
L 760.344355 46.525969 
" clip-path="url(#p3860526297)" style="fill: none; stroke: #1f77b4; stroke-width: 1.5; stroke-linecap: square"/>
   </g>
   <g id="line2d_16">
    <path d="M 63.77 46.742384 
L 795.154 46.742384 
" clip-path="url(#p3860526297)" style="fill: none; stroke-dasharray: 5.55,2.4; stroke-dashoffset: 0; stroke: #0000ff; stroke-width: 1.5"/>
   </g>
   <g id="patch_3">
    <path d="M 63.77 658.84 
L 63.77 46.08 
" style="fill: none; stroke: #000000; stroke-width: 0.8; stroke-linejoin: miter; stroke-linecap: square"/>
   </g>
   <g id="patch_4">
    <path d="M 795.154 658.84 
L 795.154 46.08 
" style="fill: none; stroke: #000000; stroke-width: 0.8; stroke-linejoin: miter; stroke-linecap: square"/>
   </g>
   <g id="patch_5">
    <path d="M 63.77 658.84 
L 795.154 658.84 
" style="fill: none; stroke: #000000; stroke-width: 0.8; stroke-linejoin: miter; stroke-linecap: square"/>
   </g>
   <g id="patch_6">
    <path d="M 63.77 46.08 
L 795.154 46.08 
" style="fill: none; stroke: #000000; stroke-width: 0.8; stroke-linejoin: miter; stroke-linecap: square"/>
   </g>
   <g id="text_17">
    <!-- Packet Rate from Timestamps (SelectionProcess: 16777217) -->
    <g transform="translate(248.322 40.08) scale(0.12 -0.12)">
     <defs>
      <path id="DejaVuSans-52" d="M 2841 2188 
Q 3044 2119 3236 1894 
Q 3428 1669 3622 1275 
L 4263 0 
L 3584 0 
L 2988 1197 
Q 2756 1666 2539 1819 
Q 2322 1972 1947 1972 
L 1259 1972 
L 1259 0 
L 628 0 
L 628 4666 
L 2053 4666 
Q 2853 4666 3247 4331 
Q 3641 3997 3641 3322 
Q 3641 2881 3436 2590 
Q 3231 2300 2841 2188 
z
M 1259 4147 
L 1259 2491 
L 2053 2491 
Q 2509 2491 2742 2702 
Q 2975 2913 2975 3322 
Q 2975 3731 2742 3939 
Q 2509 4147 2053 4147 
L 1259 4147 
z
" transform="scale(0.015625)"/>
      <path id="DejaVuSans-66" d="M 2375 4863 
L 2375 4384 
L 1825 4384 
Q 1516 4384 1395 4259 
Q 1275 4134 1275 3809 
L 1275 3500 
L 2222 3500 
L 2222 3053 
L 1275 3053 
L 1275 0 
L 697 0 
L 697 3053 
L 147 3053 
L 147 3500 
L 697 3500 
L 697 3744 
Q 697 4328 969 4595 
Q 1241 4863 1831 4863 
L 2375 4863 
z
" transform="scale(0.015625)"/>
      <path id="DejaVuSans-6c" d="M 603 4863 
L 1178 4863 
L 1178 0 
L 603 0 
L 603 4863 
z
" transform="scale(0.015625)"/>
      <path id="DejaVuSans-3a" d="M 750 794 
L 1409 794 
L 1409 0 
L 750 0 
L 750 794 
z
M 750 3309 
L 1409 3309 
L 1409 2516 
L 750 2516 
L 750 3309 
z
" transform="scale(0.015625)"/>
      <path id="DejaVuSans-37" d="M 525 4666 
L 3525 4666 
L 3525 4397 
L 1831 0 
L 1172 0 
L 2766 4134 
L 525 4134 
L 525 4666 
z
" transform="scale(0.015625)"/>
     </defs>
     <use xlink:href="#DejaVuSans-50"/>
     <use xlink:href="#DejaVuSans-61" x="55.802734"/>
     <use xlink:href="#DejaVuSans-63" x="117.082031"/>
     <use xlink:href="#DejaVuSans-6b" x="172.0625"/>
     <use xlink:href="#DejaVuSans-65" x="226.347656"/>
     <use xlink:href="#DejaVuSans-74" x="287.871094"/>
     <use xlink:href="#DejaVuSans-20" x="327.080078"/>
     <use xlink:href="#DejaVuSans-52" x="358.867188"/>
     <use xlink:href="#DejaVuSans-61" x="426.099609"/>
     <use xlink:href="#DejaVuSans-74" x="487.378906"/>
     <use xlink:href="#DejaVuSans-65" x="526.587891"/>
     <use xlink:href="#DejaVuSans-20" x="588.111328"/>
     <use xlink:href="#DejaVuSans-66" x="619.898438"/>
     <use xlink:href="#DejaVuSans-72" x="655.103516"/>
     <use xlink:href="#DejaVuSans-6f" x="693.966797"/>
     <use xlink:href="#DejaVuSans-6d" x="755.148438"/>
     <use xlink:href="#DejaVuSans-20" x="852.560547"/>
     <use xlink:href="#DejaVuSans-54" x="884.347656"/>
     <use xlink:href="#DejaVuSans-69" x="942.306641"/>
     <use xlink:href="#DejaVuSans-6d" x="970.089844"/>
     <use xlink:href="#DejaVuSans-65" x="1067.501953"/>
     <use xlink:href="#DejaVuSans-73" x="1129.025391"/>
     <use xlink:href="#DejaVuSans-74" x="1181.125"/>
     <use xlink:href="#DejaVuSans-61" x="1220.333984"/>
     <use xlink:href="#DejaVuSans-6d" x="1281.613281"/>
     <use xlink:href="#DejaVuSans-70" x="1379.025391"/>
     <use xlink:href="#DejaVuSans-73" x="1442.501953"/>
     <use xlink:href="#DejaVuSans-20" x="1494.601562"/>
     <use xlink:href="#DejaVuSans-28" x="1526.388672"/>
     <use xlink:href="#DejaVuSans-53" x="1565.402344"/>
     <use xlink:href="#DejaVuSans-65" x="1628.878906"/>
     <use xlink:href="#DejaVuSans-6c" x="1690.402344"/>
     <use xlink:href="#DejaVuSans-65" x="1718.185547"/>
     <use xlink:href="#DejaVuSans-63" x="1779.708984"/>
     <use xlink:href="#DejaVuSans-74" x="1834.689453"/>
     <use xlink:href="#DejaVuSans-69" x="1873.898438"/>
     <use xlink:href="#DejaVuSans-6f" x="1901.681641"/>
     <use xlink:href="#DejaVuSans-6e" x="1962.863281"/>
     <use xlink:href="#DejaVuSans-50" x="2026.242188"/>
     <use xlink:href="#DejaVuSans-72" x="2084.794922"/>
     <use xlink:href="#DejaVuSans-6f" x="2123.658203"/>
     <use xlink:href="#DejaVuSans-63" x="2184.839844"/>
     <use xlink:href="#DejaVuSans-65" x="2239.820312"/>
     <use xlink:href="#DejaVuSans-73" x="2301.34375"/>
     <use xlink:href="#DejaVuSans-73" x="2353.443359"/>
     <use xlink:href="#DejaVuSans-3a" x="2405.542969"/>
     <use xlink:href="#DejaVuSans-20" x="2439.234375"/>
     <use xlink:href="#DejaVuSans-31" x="2471.021484"/>
     <use xlink:href="#DejaVuSans-36" x="2534.644531"/>
     <use xlink:href="#DejaVuSans-37" x="2598.267578"/>
     <use xlink:href="#DejaVuSans-37" x="2661.890625"/>
     <use xlink:href="#DejaVuSans-37" x="2725.513672"/>
     <use xlink:href="#DejaVuSans-32" x="2789.136719"/>
     <use xlink:href="#DejaVuSans-31" x="2852.759766"/>
     <use xlink:href="#DejaVuSans-37" x="2916.382812"/>
     <use xlink:href="#DejaVuSans-29" x="2980.005859"/>
    </g>
   </g>
   <g id="legend_1">
    <g id="patch_7">
     <path d="M 802.154 368.638125 
L 983.61025 368.638125 
Q 985.61025 368.638125 985.61025 366.638125 
L 985.61025 338.281875 
Q 985.61025 336.281875 983.61025 336.281875 
L 802.154 336.281875 
Q 800.154 336.281875 800.154 338.281875 
L 800.154 366.638125 
Q 800.154 368.638125 802.154 368.638125 
z
" style="fill: #ffffff; opacity: 0.8; stroke: #cccccc; stroke-linejoin: miter"/>
    </g>
    <g id="line2d_17">
     <path d="M 804.154 344.380313 
L 814.154 344.380313 
L 824.154 344.380313 
" style="fill: none; stroke: #1f77b4; stroke-width: 1.5; stroke-linecap: square"/>
    </g>
    <g id="text_18">
     <!-- Packet Rate from Timestamps -->
     <g transform="translate(832.154 347.880313) scale(0.1 -0.1)">
      <use xlink:href="#DejaVuSans-50"/>
      <use xlink:href="#DejaVuSans-61" x="55.802734"/>
      <use xlink:href="#DejaVuSans-63" x="117.082031"/>
      <use xlink:href="#DejaVuSans-6b" x="172.0625"/>
      <use xlink:href="#DejaVuSans-65" x="226.347656"/>
      <use xlink:href="#DejaVuSans-74" x="287.871094"/>
      <use xlink:href="#DejaVuSans-20" x="327.080078"/>
      <use xlink:href="#DejaVuSans-52" x="358.867188"/>
      <use xlink:href="#DejaVuSans-61" x="426.099609"/>
      <use xlink:href="#DejaVuSans-74" x="487.378906"/>
      <use xlink:href="#DejaVuSans-65" x="526.587891"/>
      <use xlink:href="#DejaVuSans-20" x="588.111328"/>
      <use xlink:href="#DejaVuSans-66" x="619.898438"/>
      <use xlink:href="#DejaVuSans-72" x="655.103516"/>
      <use xlink:href="#DejaVuSans-6f" x="693.966797"/>
      <use xlink:href="#DejaVuSans-6d" x="755.148438"/>
      <use xlink:href="#DejaVuSans-20" x="852.560547"/>
      <use xlink:href="#DejaVuSans-54" x="884.347656"/>
      <use xlink:href="#DejaVuSans-69" x="942.306641"/>
      <use xlink:href="#DejaVuSans-6d" x="970.089844"/>
      <use xlink:href="#DejaVuSans-65" x="1067.501953"/>
      <use xlink:href="#DejaVuSans-73" x="1129.025391"/>
      <use xlink:href="#DejaVuSans-74" x="1181.125"/>
      <use xlink:href="#DejaVuSans-61" x="1220.333984"/>
      <use xlink:href="#DejaVuSans-6d" x="1281.613281"/>
      <use xlink:href="#DejaVuSans-70" x="1379.025391"/>
      <use xlink:href="#DejaVuSans-73" x="1442.501953"/>
     </g>
    </g>
    <g id="line2d_18">
     <path d="M 804.154 359.058438 
L 814.154 359.058438 
L 824.154 359.058438 
" style="fill: none; stroke-dasharray: 5.55,2.4; stroke-dashoffset: 0; stroke: #0000ff; stroke-width: 1.5"/>
    </g>
    <g id="text_19">
     <!-- Packet Rate Average -->
     <g transform="translate(832.154 362.558438) scale(0.1 -0.1)">
      <defs>
       <path id="DejaVuSans-41" d="M 2188 4044 
L 1331 1722 
L 3047 1722 
L 2188 4044 
z
M 1831 4666 
L 2547 4666 
L 4325 0 
L 3669 0 
L 3244 1197 
L 1141 1197 
L 716 0 
L 50 0 
L 1831 4666 
z
" transform="scale(0.015625)"/>
       <path id="DejaVuSans-76" d="M 191 3500 
L 800 3500 
L 1894 563 
L 2988 3500 
L 3597 3500 
L 2284 0 
L 1503 0 
L 191 3500 
z
" transform="scale(0.015625)"/>
       <path id="DejaVuSans-67" d="M 2906 1791 
Q 2906 2416 2648 2759 
Q 2391 3103 1925 3103 
Q 1463 3103 1205 2759 
Q 947 2416 947 1791 
Q 947 1169 1205 825 
Q 1463 481 1925 481 
Q 2391 481 2648 825 
Q 2906 1169 2906 1791 
z
M 3481 434 
Q 3481 -459 3084 -895 
Q 2688 -1331 1869 -1331 
Q 1566 -1331 1297 -1286 
Q 1028 -1241 775 -1147 
L 775 -588 
Q 1028 -725 1275 -790 
Q 1522 -856 1778 -856 
Q 2344 -856 2625 -561 
Q 2906 -266 2906 331 
L 2906 616 
Q 2728 306 2450 153 
Q 2172 0 1784 0 
Q 1141 0 747 490 
Q 353 981 353 1791 
Q 353 2603 747 3093 
Q 1141 3584 1784 3584 
Q 2172 3584 2450 3431 
Q 2728 3278 2906 2969 
L 2906 3500 
L 3481 3500 
L 3481 434 
z
" transform="scale(0.015625)"/>
      </defs>
      <use xlink:href="#DejaVuSans-50"/>
      <use xlink:href="#DejaVuSans-61" x="55.802734"/>
      <use xlink:href="#DejaVuSans-63" x="117.082031"/>
      <use xlink:href="#DejaVuSans-6b" x="172.0625"/>
      <use xlink:href="#DejaVuSans-65" x="226.347656"/>
      <use xlink:href="#DejaVuSans-74" x="287.871094"/>
      <use xlink:href="#DejaVuSans-20" x="327.080078"/>
      <use xlink:href="#DejaVuSans-52" x="358.867188"/>
      <use xlink:href="#DejaVuSans-61" x="426.099609"/>
      <use xlink:href="#DejaVuSans-74" x="487.378906"/>
      <use xlink:href="#DejaVuSans-65" x="526.587891"/>
      <use xlink:href="#DejaVuSans-20" x="588.111328"/>
      <use xlink:href="#DejaVuSans-41" x="619.898438"/>
      <use xlink:href="#DejaVuSans-76" x="682.431641"/>
      <use xlink:href="#DejaVuSans-65" x="741.611328"/>
      <use xlink:href="#DejaVuSans-72" x="803.134766"/>
      <use xlink:href="#DejaVuSans-61" x="844.248047"/>
      <use xlink:href="#DejaVuSans-67" x="905.527344"/>
      <use xlink:href="#DejaVuSans-65" x="969.003906"/>
     </g>
    </g>
   </g>
  </g>
 </g>
 <defs>
  <clipPath id="p3860526297">
   <rect x="63.77" y="46.08" width="731.384" height="612.76"/>
  </clipPath>
 </defs>
</svg>
