<?xml version="1.0" encoding="utf-8" standalone="no"?>
<!DOCTYPE svg PUBLIC "-//W3C//DTD SVG 1.1//EN"
  "http://www.w3.org/Graphics/SVG/1.1/DTD/svg11.dtd">
<svg xmlns:xlink="http://www.w3.org/1999/xlink" width="1186.56pt" height="588.24pt" viewBox="0 0 1186.56 588.24" xmlns="http://www.w3.org/2000/svg" version="1.1">
 <metadata>
  <rdf:RDF xmlns:dc="http://purl.org/dc/elements/1.1/" xmlns:cc="http://creativecommons.org/ns#" xmlns:rdf="http://www.w3.org/1999/02/22-rdf-syntax-ns#">
   <cc:Work>
    <dc:type rdf:resource="http://purl.org/dc/dcmitype/StillImage"/>
    <dc:date>2023-04-13T18:55:35.450842</dc:date>
    <dc:format>image/svg+xml</dc:format>
    <dc:creator>
     <cc:Agent>
      <dc:title>Matplotlib v3.6.2, https://matplotlib.org/</dc:title>
     </cc:Agent>
    </dc:creator>
   </cc:Work>
  </rdf:RDF>
 </metadata>
 <defs>
  <style type="text/css">*{stroke-linejoin: round; stroke-linecap: butt}</style>
 </defs>
 <g id="figure_1">
  <g id="patch_1">
   <path d="M 0 588.24 
L 1186.56 588.24 
L 1186.56 0 
L 0 0 
z
" style="fill: #ffffff"/>
  </g>
  <g id="axes_1">
   <g id="patch_2">
    <path d="M 96.608114 528.46828 
L 929.017623 528.46828 
L 929.017623 47.45136 
L 96.608114 47.45136 
z
" style="fill: #ffffff"/>
   </g>
   <g id="matplotlib.axis_1">
    <g id="xtick_1">
     <g id="line2d_1">
      <defs>
       <path id="m73920bdbf4" d="M 0 0 
L 0 3.5 
" style="stroke: #000000; stroke-width: 0.8"/>
      </defs>
      <g>
       <use xlink:href="#m73920bdbf4" x="96.608114" y="528.46828" style="stroke: #000000; stroke-width: 0.8"/>
      </g>
     </g>
     <g id="text_1">
      <!-- 0 -->
      <g transform="translate(93.426864 543.066717) scale(0.1 -0.1)">
       <defs>
        <path id="DejaVuSans-30" d="M 2034 4250 
Q 1547 4250 1301 3770 
Q 1056 3291 1056 2328 
Q 1056 1369 1301 889 
Q 1547 409 2034 409 
Q 2525 409 2770 889 
Q 3016 1369 3016 2328 
Q 3016 3291 2770 3770 
Q 2525 4250 2034 4250 
z
M 2034 4750 
Q 2819 4750 3233 4129 
Q 3647 3509 3647 2328 
Q 3647 1150 3233 529 
Q 2819 -91 2034 -91 
Q 1250 -91 836 529 
Q 422 1150 422 2328 
Q 422 3509 836 4129 
Q 1250 4750 2034 4750 
z
" transform="scale(0.015625)"/>
       </defs>
       <use xlink:href="#DejaVuSans-30"/>
      </g>
     </g>
    </g>
    <g id="xtick_2">
     <g id="line2d_2">
      <g>
       <use xlink:href="#m73920bdbf4" x="223.983891" y="528.46828" style="stroke: #000000; stroke-width: 0.8"/>
      </g>
     </g>
     <g id="text_2">
      <!-- 10 -->
      <g transform="translate(217.621391 543.066717) scale(0.1 -0.1)">
       <defs>
        <path id="DejaVuSans-31" d="M 794 531 
L 1825 531 
L 1825 4091 
L 703 3866 
L 703 4441 
L 1819 4666 
L 2450 4666 
L 2450 531 
L 3481 531 
L 3481 0 
L 794 0 
L 794 531 
z
" transform="scale(0.015625)"/>
       </defs>
       <use xlink:href="#DejaVuSans-31"/>
       <use xlink:href="#DejaVuSans-30" x="63.623047"/>
      </g>
     </g>
    </g>
    <g id="xtick_3">
     <g id="line2d_3">
      <g>
       <use xlink:href="#m73920bdbf4" x="351.359668" y="528.46828" style="stroke: #000000; stroke-width: 0.8"/>
      </g>
     </g>
     <g id="text_3">
      <!-- 20 -->
      <g transform="translate(344.997168 543.066717) scale(0.1 -0.1)">
       <defs>
        <path id="DejaVuSans-32" d="M 1228 531 
L 3431 531 
L 3431 0 
L 469 0 
L 469 531 
Q 828 903 1448 1529 
Q 2069 2156 2228 2338 
Q 2531 2678 2651 2914 
Q 2772 3150 2772 3378 
Q 2772 3750 2511 3984 
Q 2250 4219 1831 4219 
Q 1534 4219 1204 4116 
Q 875 4013 500 3803 
L 500 4441 
Q 881 4594 1212 4672 
Q 1544 4750 1819 4750 
Q 2544 4750 2975 4387 
Q 3406 4025 3406 3419 
Q 3406 3131 3298 2873 
Q 3191 2616 2906 2266 
Q 2828 2175 2409 1742 
Q 1991 1309 1228 531 
z
" transform="scale(0.015625)"/>
       </defs>
       <use xlink:href="#DejaVuSans-32"/>
       <use xlink:href="#DejaVuSans-30" x="63.623047"/>
      </g>
     </g>
    </g>
    <g id="xtick_4">
     <g id="line2d_4">
      <g>
       <use xlink:href="#m73920bdbf4" x="478.735445" y="528.46828" style="stroke: #000000; stroke-width: 0.8"/>
      </g>
     </g>
     <g id="text_4">
      <!-- 30 -->
      <g transform="translate(472.372945 543.066717) scale(0.1 -0.1)">
       <defs>
        <path id="DejaVuSans-33" d="M 2597 2516 
Q 3050 2419 3304 2112 
Q 3559 1806 3559 1356 
Q 3559 666 3084 287 
Q 2609 -91 1734 -91 
Q 1441 -91 1130 -33 
Q 819 25 488 141 
L 488 750 
Q 750 597 1062 519 
Q 1375 441 1716 441 
Q 2309 441 2620 675 
Q 2931 909 2931 1356 
Q 2931 1769 2642 2001 
Q 2353 2234 1838 2234 
L 1294 2234 
L 1294 2753 
L 1863 2753 
Q 2328 2753 2575 2939 
Q 2822 3125 2822 3475 
Q 2822 3834 2567 4026 
Q 2313 4219 1838 4219 
Q 1578 4219 1281 4162 
Q 984 4106 628 3988 
L 628 4550 
Q 988 4650 1302 4700 
Q 1616 4750 1894 4750 
Q 2613 4750 3031 4423 
Q 3450 4097 3450 3541 
Q 3450 3153 3228 2886 
Q 3006 2619 2597 2516 
z
" transform="scale(0.015625)"/>
       </defs>
       <use xlink:href="#DejaVuSans-33"/>
       <use xlink:href="#DejaVuSans-30" x="63.623047"/>
      </g>
     </g>
    </g>
    <g id="xtick_5">
     <g id="line2d_5">
      <g>
       <use xlink:href="#m73920bdbf4" x="606.111222" y="528.46828" style="stroke: #000000; stroke-width: 0.8"/>
      </g>
     </g>
     <g id="text_5">
      <!-- 40 -->
      <g transform="translate(599.748722 543.066717) scale(0.1 -0.1)">
       <defs>
        <path id="DejaVuSans-34" d="M 2419 4116 
L 825 1625 
L 2419 1625 
L 2419 4116 
z
M 2253 4666 
L 3047 4666 
L 3047 1625 
L 3713 1625 
L 3713 1100 
L 3047 1100 
L 3047 0 
L 2419 0 
L 2419 1100 
L 313 1100 
L 313 1709 
L 2253 4666 
z
" transform="scale(0.015625)"/>
       </defs>
       <use xlink:href="#DejaVuSans-34"/>
       <use xlink:href="#DejaVuSans-30" x="63.623047"/>
      </g>
     </g>
    </g>
    <g id="xtick_6">
     <g id="line2d_6">
      <g>
       <use xlink:href="#m73920bdbf4" x="733.486999" y="528.46828" style="stroke: #000000; stroke-width: 0.8"/>
      </g>
     </g>
     <g id="text_6">
      <!-- 50 -->
      <g transform="translate(727.124499 543.066717) scale(0.1 -0.1)">
       <defs>
        <path id="DejaVuSans-35" d="M 691 4666 
L 3169 4666 
L 3169 4134 
L 1269 4134 
L 1269 2991 
Q 1406 3038 1543 3061 
Q 1681 3084 1819 3084 
Q 2600 3084 3056 2656 
Q 3513 2228 3513 1497 
Q 3513 744 3044 326 
Q 2575 -91 1722 -91 
Q 1428 -91 1123 -41 
Q 819 9 494 109 
L 494 744 
Q 775 591 1075 516 
Q 1375 441 1709 441 
Q 2250 441 2565 725 
Q 2881 1009 2881 1497 
Q 2881 1984 2565 2268 
Q 2250 2553 1709 2553 
Q 1456 2553 1204 2497 
Q 953 2441 691 2322 
L 691 4666 
z
" transform="scale(0.015625)"/>
       </defs>
       <use xlink:href="#DejaVuSans-35"/>
       <use xlink:href="#DejaVuSans-30" x="63.623047"/>
      </g>
     </g>
    </g>
    <g id="xtick_7">
     <g id="line2d_7">
      <g>
       <use xlink:href="#m73920bdbf4" x="860.862776" y="528.46828" style="stroke: #000000; stroke-width: 0.8"/>
      </g>
     </g>
     <g id="text_7">
      <!-- 60 -->
      <g transform="translate(854.500276 543.066717) scale(0.1 -0.1)">
       <defs>
        <path id="DejaVuSans-36" d="M 2113 2584 
Q 1688 2584 1439 2293 
Q 1191 2003 1191 1497 
Q 1191 994 1439 701 
Q 1688 409 2113 409 
Q 2538 409 2786 701 
Q 3034 994 3034 1497 
Q 3034 2003 2786 2293 
Q 2538 2584 2113 2584 
z
M 3366 4563 
L 3366 3988 
Q 3128 4100 2886 4159 
Q 2644 4219 2406 4219 
Q 1781 4219 1451 3797 
Q 1122 3375 1075 2522 
Q 1259 2794 1537 2939 
Q 1816 3084 2150 3084 
Q 2853 3084 3261 2657 
Q 3669 2231 3669 1497 
Q 3669 778 3244 343 
Q 2819 -91 2113 -91 
Q 1303 -91 875 529 
Q 447 1150 447 2328 
Q 447 3434 972 4092 
Q 1497 4750 2381 4750 
Q 2619 4750 2861 4703 
Q 3103 4656 3366 4563 
z
" transform="scale(0.015625)"/>
       </defs>
       <use xlink:href="#DejaVuSans-36"/>
       <use xlink:href="#DejaVuSans-30" x="63.623047"/>
      </g>
     </g>
    </g>
    <g id="text_8">
     <!-- Time (s) -->
     <g transform="translate(492.483962 556.744843) scale(0.1 -0.1)">
      <defs>
       <path id="DejaVuSans-54" d="M -19 4666 
L 3928 4666 
L 3928 4134 
L 2272 4134 
L 2272 0 
L 1638 0 
L 1638 4134 
L -19 4134 
L -19 4666 
z
" transform="scale(0.015625)"/>
       <path id="DejaVuSans-69" d="M 603 3500 
L 1178 3500 
L 1178 0 
L 603 0 
L 603 3500 
z
M 603 4863 
L 1178 4863 
L 1178 4134 
L 603 4134 
L 603 4863 
z
" transform="scale(0.015625)"/>
       <path id="DejaVuSans-6d" d="M 3328 2828 
Q 3544 3216 3844 3400 
Q 4144 3584 4550 3584 
Q 5097 3584 5394 3201 
Q 5691 2819 5691 2113 
L 5691 0 
L 5113 0 
L 5113 2094 
Q 5113 2597 4934 2840 
Q 4756 3084 4391 3084 
Q 3944 3084 3684 2787 
Q 3425 2491 3425 1978 
L 3425 0 
L 2847 0 
L 2847 2094 
Q 2847 2600 2669 2842 
Q 2491 3084 2119 3084 
Q 1678 3084 1418 2786 
Q 1159 2488 1159 1978 
L 1159 0 
L 581 0 
L 581 3500 
L 1159 3500 
L 1159 2956 
Q 1356 3278 1631 3431 
Q 1906 3584 2284 3584 
Q 2666 3584 2933 3390 
Q 3200 3197 3328 2828 
z
" transform="scale(0.015625)"/>
       <path id="DejaVuSans-65" d="M 3597 1894 
L 3597 1613 
L 953 1613 
Q 991 1019 1311 708 
Q 1631 397 2203 397 
Q 2534 397 2845 478 
Q 3156 559 3463 722 
L 3463 178 
Q 3153 47 2828 -22 
Q 2503 -91 2169 -91 
Q 1331 -91 842 396 
Q 353 884 353 1716 
Q 353 2575 817 3079 
Q 1281 3584 2069 3584 
Q 2775 3584 3186 3129 
Q 3597 2675 3597 1894 
z
M 3022 2063 
Q 3016 2534 2758 2815 
Q 2500 3097 2075 3097 
Q 1594 3097 1305 2825 
Q 1016 2553 972 2059 
L 3022 2063 
z
" transform="scale(0.015625)"/>
       <path id="DejaVuSans-20" transform="scale(0.015625)"/>
       <path id="DejaVuSans-28" d="M 1984 4856 
Q 1566 4138 1362 3434 
Q 1159 2731 1159 2009 
Q 1159 1288 1364 580 
Q 1569 -128 1984 -844 
L 1484 -844 
Q 1016 -109 783 600 
Q 550 1309 550 2009 
Q 550 2706 781 3412 
Q 1013 4119 1484 4856 
L 1984 4856 
z
" transform="scale(0.015625)"/>
       <path id="DejaVuSans-73" d="M 2834 3397 
L 2834 2853 
Q 2591 2978 2328 3040 
Q 2066 3103 1784 3103 
Q 1356 3103 1142 2972 
Q 928 2841 928 2578 
Q 928 2378 1081 2264 
Q 1234 2150 1697 2047 
L 1894 2003 
Q 2506 1872 2764 1633 
Q 3022 1394 3022 966 
Q 3022 478 2636 193 
Q 2250 -91 1575 -91 
Q 1294 -91 989 -36 
Q 684 19 347 128 
L 347 722 
Q 666 556 975 473 
Q 1284 391 1588 391 
Q 1994 391 2212 530 
Q 2431 669 2431 922 
Q 2431 1156 2273 1281 
Q 2116 1406 1581 1522 
L 1381 1569 
Q 847 1681 609 1914 
Q 372 2147 372 2553 
Q 372 3047 722 3315 
Q 1072 3584 1716 3584 
Q 2034 3584 2315 3537 
Q 2597 3491 2834 3397 
z
" transform="scale(0.015625)"/>
       <path id="DejaVuSans-29" d="M 513 4856 
L 1013 4856 
Q 1481 4119 1714 3412 
Q 1947 2706 1947 2009 
Q 1947 1309 1714 600 
Q 1481 -109 1013 -844 
L 513 -844 
Q 928 -128 1133 580 
Q 1338 1288 1338 2009 
Q 1338 2731 1133 3434 
Q 928 4138 513 4856 
z
" transform="scale(0.015625)"/>
      </defs>
      <use xlink:href="#DejaVuSans-54"/>
      <use xlink:href="#DejaVuSans-69" x="57.958984"/>
      <use xlink:href="#DejaVuSans-6d" x="85.742188"/>
      <use xlink:href="#DejaVuSans-65" x="183.154297"/>
      <use xlink:href="#DejaVuSans-20" x="244.677734"/>
      <use xlink:href="#DejaVuSans-28" x="276.464844"/>
      <use xlink:href="#DejaVuSans-73" x="315.478516"/>
      <use xlink:href="#DejaVuSans-29" x="367.578125"/>
     </g>
    </g>
   </g>
   <g id="matplotlib.axis_2">
    <g id="ytick_1">
     <g id="line2d_8">
      <defs>
       <path id="m35edbdf667" d="M 0 0 
L -3.5 0 
" style="stroke: #000000; stroke-width: 0.8"/>
      </defs>
      <g>
       <use xlink:href="#m35edbdf667" x="96.608114" y="528.46828" style="stroke: #000000; stroke-width: 0.8"/>
      </g>
     </g>
     <g id="text_9">
      <!-- 0 -->
      <g transform="translate(83.245614 532.267499) scale(0.1 -0.1)">
       <use xlink:href="#DejaVuSans-30"/>
      </g>
     </g>
    </g>
    <g id="ytick_2">
     <g id="line2d_9">
      <g>
       <use xlink:href="#m35edbdf667" x="96.608114" y="456.725206" style="stroke: #000000; stroke-width: 0.8"/>
      </g>
     </g>
     <g id="text_10">
      <!-- 20 -->
      <g transform="translate(76.883114 460.524425) scale(0.1 -0.1)">
       <use xlink:href="#DejaVuSans-32"/>
       <use xlink:href="#DejaVuSans-30" x="63.623047"/>
      </g>
     </g>
    </g>
    <g id="ytick_3">
     <g id="line2d_10">
      <g>
       <use xlink:href="#m35edbdf667" x="96.608114" y="384.982132" style="stroke: #000000; stroke-width: 0.8"/>
      </g>
     </g>
     <g id="text_11">
      <!-- 40 -->
      <g transform="translate(76.883114 388.781351) scale(0.1 -0.1)">
       <use xlink:href="#DejaVuSans-34"/>
       <use xlink:href="#DejaVuSans-30" x="63.623047"/>
      </g>
     </g>
    </g>
    <g id="ytick_4">
     <g id="line2d_11">
      <g>
       <use xlink:href="#m35edbdf667" x="96.608114" y="313.239058" style="stroke: #000000; stroke-width: 0.8"/>
      </g>
     </g>
     <g id="text_12">
      <!-- 60 -->
      <g transform="translate(76.883114 317.038277) scale(0.1 -0.1)">
       <use xlink:href="#DejaVuSans-36"/>
       <use xlink:href="#DejaVuSans-30" x="63.623047"/>
      </g>
     </g>
    </g>
    <g id="ytick_5">
     <g id="line2d_12">
      <g>
       <use xlink:href="#m35edbdf667" x="96.608114" y="241.495985" style="stroke: #000000; stroke-width: 0.8"/>
      </g>
     </g>
     <g id="text_13">
      <!-- 80 -->
      <g transform="translate(76.883114 245.295203) scale(0.1 -0.1)">
       <defs>
        <path id="DejaVuSans-38" d="M 2034 2216 
Q 1584 2216 1326 1975 
Q 1069 1734 1069 1313 
Q 1069 891 1326 650 
Q 1584 409 2034 409 
Q 2484 409 2743 651 
Q 3003 894 3003 1313 
Q 3003 1734 2745 1975 
Q 2488 2216 2034 2216 
z
M 1403 2484 
Q 997 2584 770 2862 
Q 544 3141 544 3541 
Q 544 4100 942 4425 
Q 1341 4750 2034 4750 
Q 2731 4750 3128 4425 
Q 3525 4100 3525 3541 
Q 3525 3141 3298 2862 
Q 3072 2584 2669 2484 
Q 3125 2378 3379 2068 
Q 3634 1759 3634 1313 
Q 3634 634 3220 271 
Q 2806 -91 2034 -91 
Q 1263 -91 848 271 
Q 434 634 434 1313 
Q 434 1759 690 2068 
Q 947 2378 1403 2484 
z
M 1172 3481 
Q 1172 3119 1398 2916 
Q 1625 2713 2034 2713 
Q 2441 2713 2670 2916 
Q 2900 3119 2900 3481 
Q 2900 3844 2670 4047 
Q 2441 4250 2034 4250 
Q 1625 4250 1398 4047 
Q 1172 3844 1172 3481 
z
" transform="scale(0.015625)"/>
       </defs>
       <use xlink:href="#DejaVuSans-38"/>
       <use xlink:href="#DejaVuSans-30" x="63.623047"/>
      </g>
     </g>
    </g>
    <g id="ytick_6">
     <g id="line2d_13">
      <g>
       <use xlink:href="#m35edbdf667" x="96.608114" y="169.752911" style="stroke: #000000; stroke-width: 0.8"/>
      </g>
     </g>
     <g id="text_14">
      <!-- 100 -->
      <g transform="translate(70.520614 173.55213) scale(0.1 -0.1)">
       <use xlink:href="#DejaVuSans-31"/>
       <use xlink:href="#DejaVuSans-30" x="63.623047"/>
       <use xlink:href="#DejaVuSans-30" x="127.246094"/>
      </g>
     </g>
    </g>
    <g id="ytick_7">
     <g id="line2d_14">
      <g>
       <use xlink:href="#m35edbdf667" x="96.608114" y="98.009837" style="stroke: #000000; stroke-width: 0.8"/>
      </g>
     </g>
     <g id="text_15">
      <!-- 120 -->
      <g transform="translate(70.520614 101.809056) scale(0.1 -0.1)">
       <use xlink:href="#DejaVuSans-31"/>
       <use xlink:href="#DejaVuSans-32" x="63.623047"/>
       <use xlink:href="#DejaVuSans-30" x="127.246094"/>
      </g>
     </g>
    </g>
    <g id="text_16">
     <!-- Packets per Second -->
     <g transform="translate(64.440927 336.805133) rotate(-90) scale(0.1 -0.1)">
      <defs>
       <path id="DejaVuSans-50" d="M 1259 4147 
L 1259 2394 
L 2053 2394 
Q 2494 2394 2734 2622 
Q 2975 2850 2975 3272 
Q 2975 3691 2734 3919 
Q 2494 4147 2053 4147 
L 1259 4147 
z
M 628 4666 
L 2053 4666 
Q 2838 4666 3239 4311 
Q 3641 3956 3641 3272 
Q 3641 2581 3239 2228 
Q 2838 1875 2053 1875 
L 1259 1875 
L 1259 0 
L 628 0 
L 628 4666 
z
" transform="scale(0.015625)"/>
       <path id="DejaVuSans-61" d="M 2194 1759 
Q 1497 1759 1228 1600 
Q 959 1441 959 1056 
Q 959 750 1161 570 
Q 1363 391 1709 391 
Q 2188 391 2477 730 
Q 2766 1069 2766 1631 
L 2766 1759 
L 2194 1759 
z
M 3341 1997 
L 3341 0 
L 2766 0 
L 2766 531 
Q 2569 213 2275 61 
Q 1981 -91 1556 -91 
Q 1019 -91 701 211 
Q 384 513 384 1019 
Q 384 1609 779 1909 
Q 1175 2209 1959 2209 
L 2766 2209 
L 2766 2266 
Q 2766 2663 2505 2880 
Q 2244 3097 1772 3097 
Q 1472 3097 1187 3025 
Q 903 2953 641 2809 
L 641 3341 
Q 956 3463 1253 3523 
Q 1550 3584 1831 3584 
Q 2591 3584 2966 3190 
Q 3341 2797 3341 1997 
z
" transform="scale(0.015625)"/>
       <path id="DejaVuSans-63" d="M 3122 3366 
L 3122 2828 
Q 2878 2963 2633 3030 
Q 2388 3097 2138 3097 
Q 1578 3097 1268 2742 
Q 959 2388 959 1747 
Q 959 1106 1268 751 
Q 1578 397 2138 397 
Q 2388 397 2633 464 
Q 2878 531 3122 666 
L 3122 134 
Q 2881 22 2623 -34 
Q 2366 -91 2075 -91 
Q 1284 -91 818 406 
Q 353 903 353 1747 
Q 353 2603 823 3093 
Q 1294 3584 2113 3584 
Q 2378 3584 2631 3529 
Q 2884 3475 3122 3366 
z
" transform="scale(0.015625)"/>
       <path id="DejaVuSans-6b" d="M 581 4863 
L 1159 4863 
L 1159 1991 
L 2875 3500 
L 3609 3500 
L 1753 1863 
L 3688 0 
L 2938 0 
L 1159 1709 
L 1159 0 
L 581 0 
L 581 4863 
z
" transform="scale(0.015625)"/>
       <path id="DejaVuSans-74" d="M 1172 4494 
L 1172 3500 
L 2356 3500 
L 2356 3053 
L 1172 3053 
L 1172 1153 
Q 1172 725 1289 603 
Q 1406 481 1766 481 
L 2356 481 
L 2356 0 
L 1766 0 
Q 1100 0 847 248 
Q 594 497 594 1153 
L 594 3053 
L 172 3053 
L 172 3500 
L 594 3500 
L 594 4494 
L 1172 4494 
z
" transform="scale(0.015625)"/>
       <path id="DejaVuSans-70" d="M 1159 525 
L 1159 -1331 
L 581 -1331 
L 581 3500 
L 1159 3500 
L 1159 2969 
Q 1341 3281 1617 3432 
Q 1894 3584 2278 3584 
Q 2916 3584 3314 3078 
Q 3713 2572 3713 1747 
Q 3713 922 3314 415 
Q 2916 -91 2278 -91 
Q 1894 -91 1617 61 
Q 1341 213 1159 525 
z
M 3116 1747 
Q 3116 2381 2855 2742 
Q 2594 3103 2138 3103 
Q 1681 3103 1420 2742 
Q 1159 2381 1159 1747 
Q 1159 1113 1420 752 
Q 1681 391 2138 391 
Q 2594 391 2855 752 
Q 3116 1113 3116 1747 
z
" transform="scale(0.015625)"/>
       <path id="DejaVuSans-72" d="M 2631 2963 
Q 2534 3019 2420 3045 
Q 2306 3072 2169 3072 
Q 1681 3072 1420 2755 
Q 1159 2438 1159 1844 
L 1159 0 
L 581 0 
L 581 3500 
L 1159 3500 
L 1159 2956 
Q 1341 3275 1631 3429 
Q 1922 3584 2338 3584 
Q 2397 3584 2469 3576 
Q 2541 3569 2628 3553 
L 2631 2963 
z
" transform="scale(0.015625)"/>
       <path id="DejaVuSans-53" d="M 3425 4513 
L 3425 3897 
Q 3066 4069 2747 4153 
Q 2428 4238 2131 4238 
Q 1616 4238 1336 4038 
Q 1056 3838 1056 3469 
Q 1056 3159 1242 3001 
Q 1428 2844 1947 2747 
L 2328 2669 
Q 3034 2534 3370 2195 
Q 3706 1856 3706 1288 
Q 3706 609 3251 259 
Q 2797 -91 1919 -91 
Q 1588 -91 1214 -16 
Q 841 59 441 206 
L 441 856 
Q 825 641 1194 531 
Q 1563 422 1919 422 
Q 2459 422 2753 634 
Q 3047 847 3047 1241 
Q 3047 1584 2836 1778 
Q 2625 1972 2144 2069 
L 1759 2144 
Q 1053 2284 737 2584 
Q 422 2884 422 3419 
Q 422 4038 858 4394 
Q 1294 4750 2059 4750 
Q 2388 4750 2728 4690 
Q 3069 4631 3425 4513 
z
" transform="scale(0.015625)"/>
       <path id="DejaVuSans-6f" d="M 1959 3097 
Q 1497 3097 1228 2736 
Q 959 2375 959 1747 
Q 959 1119 1226 758 
Q 1494 397 1959 397 
Q 2419 397 2687 759 
Q 2956 1122 2956 1747 
Q 2956 2369 2687 2733 
Q 2419 3097 1959 3097 
z
M 1959 3584 
Q 2709 3584 3137 3096 
Q 3566 2609 3566 1747 
Q 3566 888 3137 398 
Q 2709 -91 1959 -91 
Q 1206 -91 779 398 
Q 353 888 353 1747 
Q 353 2609 779 3096 
Q 1206 3584 1959 3584 
z
" transform="scale(0.015625)"/>
       <path id="DejaVuSans-6e" d="M 3513 2113 
L 3513 0 
L 2938 0 
L 2938 2094 
Q 2938 2591 2744 2837 
Q 2550 3084 2163 3084 
Q 1697 3084 1428 2787 
Q 1159 2491 1159 1978 
L 1159 0 
L 581 0 
L 581 3500 
L 1159 3500 
L 1159 2956 
Q 1366 3272 1645 3428 
Q 1925 3584 2291 3584 
Q 2894 3584 3203 3211 
Q 3513 2838 3513 2113 
z
" transform="scale(0.015625)"/>
       <path id="DejaVuSans-64" d="M 2906 2969 
L 2906 4863 
L 3481 4863 
L 3481 0 
L 2906 0 
L 2906 525 
Q 2725 213 2448 61 
Q 2172 -91 1784 -91 
Q 1150 -91 751 415 
Q 353 922 353 1747 
Q 353 2572 751 3078 
Q 1150 3584 1784 3584 
Q 2172 3584 2448 3432 
Q 2725 3281 2906 2969 
z
M 947 1747 
Q 947 1113 1208 752 
Q 1469 391 1925 391 
Q 2381 391 2643 752 
Q 2906 1113 2906 1747 
Q 2906 2381 2643 2742 
Q 2381 3103 1925 3103 
Q 1469 3103 1208 2742 
Q 947 2381 947 1747 
z
" transform="scale(0.015625)"/>
      </defs>
      <use xlink:href="#DejaVuSans-50"/>
      <use xlink:href="#DejaVuSans-61" x="55.802734"/>
      <use xlink:href="#DejaVuSans-63" x="117.082031"/>
      <use xlink:href="#DejaVuSans-6b" x="172.0625"/>
      <use xlink:href="#DejaVuSans-65" x="226.347656"/>
      <use xlink:href="#DejaVuSans-74" x="287.871094"/>
      <use xlink:href="#DejaVuSans-73" x="327.080078"/>
      <use xlink:href="#DejaVuSans-20" x="379.179688"/>
      <use xlink:href="#DejaVuSans-70" x="410.966797"/>
      <use xlink:href="#DejaVuSans-65" x="474.443359"/>
      <use xlink:href="#DejaVuSans-72" x="535.966797"/>
      <use xlink:href="#DejaVuSans-20" x="577.080078"/>
      <use xlink:href="#DejaVuSans-53" x="608.867188"/>
      <use xlink:href="#DejaVuSans-65" x="672.34375"/>
      <use xlink:href="#DejaVuSans-63" x="733.867188"/>
      <use xlink:href="#DejaVuSans-6f" x="788.847656"/>
      <use xlink:href="#DejaVuSans-6e" x="850.029297"/>
      <use xlink:href="#DejaVuSans-64" x="913.408203"/>
     </g>
    </g>
   </g>
   <g id="line2d_15">
    <path d="M 115.181848 216.023663 
L 116.869982 203.671878 
L 118.297619 208.417346 
L 119.985566 230.705324 
L 121.282176 70.356928 
L 122.580833 106.263207 
L 124.008991 240.527613 
L 125.3062 211.460778 
L 126.864185 117.884652 
L 128.291678 240.393429 
L 129.588953 176.255778 
L 131.147601 206.004128 
L 132.445103 211.532598 
L 133.743151 246.865903 
L 135.429579 176.249736 
L 136.727358 176.392559 
L 138.1549 240.403268 
L 139.71178 176.289686 
L 141.009013 281.911535 
L 142.436778 176.443805 
L 143.995584 235.348731 
L 145.424081 176.624324 
L 146.591063 176.084973 
L 148.019178 144.535995 
L 149.44741 240.542451 
L 150.744405 211.40859 
L 151.912084 176.295425 
L 153.210966 247.046826 
L 154.897328 176.235814 
L 156.194049 211.341657 
L 157.620836 240.250752 
L 159.17719 176.170741 
L 160.473923 211.344539 
L 161.900242 240.156382 
L 163.200454 212.19293 
L 164.757271 234.974223 
L 166.185275 176.502783 
L 167.352451 176.143841 
L 168.780466 272.495367 
L 170.336144 205.388338 
L 171.634074 176.433537 
L 172.930735 140.851202 
L 174.293771 226.770539 
L 175.852047 235.249091 
L 177.149732 176.366944 
L 178.447167 176.299092 
L 179.811249 227.002068 
L 181.36785 234.933515 
L 183.054177 149.13317 
L 184.351071 211.383771 
L 185.778508 240.382077 
L 188.631076 176.087862 
L 189.928833 211.594698 
L 191.224406 211.06065 
L 192.77971 234.688732 
L 194.076379 140.853524 
L 195.372153 211.109874 
L 196.797813 240.022993 
L 199.648061 175.723299 
L 201.075144 240.310689 
L 202.630426 205.306222 
L 203.732791 196.878355 
L 205.0309 211.680813 
L 206.328578 176.365123 
L 207.755073 208.161184 
L 209.310984 176.070366 
L 210.607415 211.270583 
L 211.905093 281.996133 
L 213.201682 211.309279 
L 214.627944 176.072756 
L 215.927644 212.06861 
L 217.223644 211.16511 
L 218.519818 211.20776 
L 220.075042 234.673674 
L 221.37096 175.886858 
L 222.798639 240.430945 
L 224.096914 176.527082 
L 225.265241 176.490819 
L 226.691572 272.193166 
L 227.728521 131.896046 
L 229.284546 205.460684 
L 230.710485 175.993121 
L 232.009805 211.975856 
L 233.565154 205.320045 
L 234.863216 246.86921 
L 236.550086 176.341775 
L 237.977891 208.455234 
L 239.533999 176.114854 
L 241.221167 230.56786 
L 242.518338 246.675616 
L 243.944995 176.170464 
L 245.503709 235.331573 
L 246.801782 211.671888 
L 248.487057 148.896175 
L 249.913699 240.221596 
L 251.210111 211.266064 
L 252.509498 211.992193 
L 254.064838 234.695524 
L 255.361196 140.760504 
L 256.788827 272.426443 
L 258.344315 146.600221 
L 259.640564 281.724356 
L 261.3268 203.306246 
L 262.623039 175.974396 
L 263.660894 176.26752 
L 265.086806 240.074027 
L 266.512717 175.98627 
L 267.811189 211.769174 
L 269.366263 205.262951 
L 270.288296 82.470495 
L 271.713815 239.994451 
L 273.011948 211.686467 
L 274.437604 240.022297 
L 275.86511 176.379893 
L 277.354913 191.102936 
L 278.652146 176.244259 
L 279.948649 281.7728 
L 281.375106 176.120976 
L 282.671746 211.321928 
L 283.968124 211.257636 
L 285.524114 205.453185 
L 288.247932 211.224121 
L 289.54388 246.409874 
L 290.841718 105.996555 
L 292.138989 176.254651 
L 293.435979 211.407375 
L 295.121346 203.138669 
L 296.806832 203.161573 
L 298.105881 247.083176 
L 299.791194 203.128207 
L 301.217103 208.029488 
L 302.902528 203.1499 
L 304.200409 211.625183 
L 305.885909 203.164327 
L 307.570004 230.024238 
L 308.865846 246.386601 
L 310.161004 175.680029 
L 311.4563 246.267706 
L 312.883078 176.200525 
L 314.179035 211.154609 
L 315.474382 211.005149 
L 316.899092 143.618145 
L 318.584386 230.236541 
L 319.882012 246.774542 
L 321.052265 177.070018 
L 322.478519 176.070962 
L 323.777755 247.12356 
L 325.335864 205.89245 
L 327.019837 202.869451 
L 328.316734 140.921689 
L 329.741573 239.856838 
L 331.295633 175.650411 
L 332.592032 211.262832 
L 333.887247 281.527416 
L 335.313965 208.211372 
L 336.868299 146.316457 
L 338.033423 175.523217 
L 339.460584 272.342215 
L 340.758115 176.325162 
L 342.31298 175.833406 
L 343.60991 211.392659 
L 345.035369 239.982313 
L 346.589558 205.078841 
L 347.885348 211.113901 
L 349.182316 246.631596 
L 351.774503 176.09395 
L 353.070239 246.363497 
L 354.237143 176.061551 
L 355.532697 140.519911 
L 356.829474 211.355282 
L 358.060233 194.345512 
L 359.485675 239.978913 
L 360.910525 239.859011 
L 362.336869 144.058891 
L 363.632626 211.105752 
L 364.802538 255.078882 
L 366.407431 129.885398 
L 368.221111 251.347575 
L 369.516586 175.766376 
L 370.943619 272.319191 
L 372.372667 112.813104 
L 373.66792 210.981947 
L 375.094526 240.214434 
L 376.260624 254.184682 
L 377.944713 202.891721 
L 379.241465 211.349127 
L 380.666169 239.829508 
L 382.091387 175.814932 
L 384.493062 215.034011 
L 386.048648 205.36951 
L 387.47403 207.910981 
L 388.768941 175.612636 
L 390.069808 212.352411 
L 391.628585 176.718293 
L 392.924236 211.079772 
L 394.219698 211.033302 
L 395.904132 202.958485 
L 397.199439 281.544885 
L 398.496528 211.431664 
L 399.666084 176.860559 
L 400.962128 211.175944 
L 402.257387 210.983586 
L 403.554021 211.320243 
L 405.238032 202.876896 
L 406.534416 211.259011 
L 407.964274 176.959249 
L 409.007212 177.983969 
L 410.691794 230.110592 
L 411.988999 211.459915 
L 413.284427 211.025124 
L 414.580972 140.816328 
L 416.265232 230.053472 
L 417.951395 230.390259 
L 419.246797 211.018507 
L 420.542023 140.421861 
L 421.96778 240.042583 
L 423.521757 175.631778 
L 424.816284 210.804064 
L 426.112932 211.323707 
L 427.670288 235.075813 
L 428.966624 140.754146 
L 430.652101 203.159813 
L 431.94737 281.537741 
L 433.24623 176.685504 
L 434.92925 202.684895 
L 436.614782 203.170691 
L 437.910974 175.961244 
L 439.335386 239.770318 
L 440.889682 175.704416 
L 442.573686 230.008057 
L 444.258529 203.037467 
L 445.553878 211.00578 
L 446.849196 175.723605 
L 448.274009 239.851534 
L 449.702899 240.674981 
L 451.127978 239.905514 
L 452.426798 176.674737 
L 453.722372 175.793288 
L 455.017526 210.957876 
L 456.703078 230.282269 
L 458.000012 140.932742 
L 459.296898 211.381806 
L 460.851155 175.695469 
L 462.342728 252.769504 
L 463.767122 143.532793 
L 465.062046 281.471885 
L 466.488033 176.004796 
L 468.044107 205.47066 
L 469.339477 175.738044 
L 470.635926 211.274943 
L 472.321485 176.067954 
L 473.746557 271.966838 
L 475.17296 208.140341 
L 476.470927 141.24108 
L 477.766155 246.253072 
L 479.190575 175.617285 
L 480.355894 254.001326 
L 481.78088 175.75734 
L 483.334752 205.012913 
L 484.63023 246.30745 
L 486.054965 175.695206 
L 487.221202 175.859811 
L 488.648112 272.297176 
L 489.9432 175.661108 
L 491.500149 234.999019 
L 492.796977 211.367778 
L 494.093601 211.31784 
L 495.388655 140.370298 
L 496.686512 211.618961 
L 497.981942 211.025748 
L 499.540596 235.320091 
L 500.836046 211.030461 
L 502.519818 148.557582 
L 503.945525 272.08095 
L 505.500452 146.46225 
L 506.795485 281.492739 
L 508.480752 176.006832 
L 509.777651 246.616695 
L 511.07244 140.29066 
L 512.368974 211.295759 
L 513.664296 210.999146 
L 515.218619 205.1068 
L 516.513726 175.666167 
L 518.198694 203.061554 
L 519.494241 246.322464 
L 520.789952 211.094349 
L 522.473227 175.589838 
L 523.768529 281.543999 
L 525.065569 140.964307 
L 526.750183 202.993321 
L 528.045505 210.999015 
L 529.469979 271.859145 
L 530.769831 176.953911 
L 532.194362 143.569859 
L 533.490005 281.608986 
L 534.785247 210.979437 
L 536.210448 175.810551 
L 537.376273 254.120558 
L 538.932336 205.46836 
L 540.097897 214.856968 
L 541.394382 176.041124 
L 542.948086 175.569685 
L 544.244811 246.578882 
L 545.670214 207.915682 
L 547.104981 146.315802 
L 548.398258 245.827249 
L 549.630671 231.86863 
L 551.316411 203.210754 
L 552.611574 140.402577 
L 554.037588 240.094586 
L 555.591678 175.65756 
L 557.277284 257.398733 
L 558.574204 140.928471 
L 559.999115 271.937704 
L 561.552859 204.986401 
L 562.847857 210.919479 
L 564.144182 175.99789 
L 565.440881 211.33614 
L 566.670457 156.863444 
L 567.96744 246.634751 
L 569.6539 203.349418 
L 571.076875 239.478812 
L 572.630949 146.25276 
L 573.925821 281.461943 
L 576.907634 141.07886 
L 578.332504 239.863072 
L 579.758357 208.016807 
L 581.372581 188.800766 
L 582.797522 207.811793 
L 584.094243 176.105175 
L 585.650894 234.943055 
L 587.075024 239.713046 
L 588.370226 175.692029 
L 590.053709 175.633553 
L 591.478167 239.779645 
L 592.773393 210.975534 
L 594.075108 212.558144 
L 595.501253 208.082684 
L 596.797704 211.275391 
L 598.22413 176.113601 
L 599.519281 246.236163 
L 601.073905 146.387836 
L 602.498433 239.793832 
L 604.053009 175.767667 
L 605.479318 240.154302 
L 606.775285 211.157005 
L 608.329044 234.396694 
L 609.625728 211.332474 
L 610.792672 176.073587 
L 611.959371 175.999546 
L 613.667822 154.045615 
L 615.367368 205.852733 
L 617.051426 202.885833 
L 618.475921 239.787175 
L 619.640943 253.931242 
L 620.937528 211.308403 
L 622.23287 140.4562 
L 623.917072 257.172868 
L 625.2123 210.976037 
L 626.508979 176.093808 
L 627.934967 208.047309 
L 629.230403 211.027006 
L 630.792752 177.522399 
L 632.089106 211.251982 
L 633.513194 239.704481 
L 634.808319 210.95096 
L 636.103795 211.036701 
L 637.658822 234.636448 
L 638.954041 210.973764 
L 640.128696 178.387122 
L 641.554268 175.902243 
L 642.97998 240.033508 
L 644.404994 175.764456 
L 645.701966 246.632434 
L 646.996896 210.902964 
L 648.558546 118.848043 
L 649.854312 281.63253 
L 651.53938 175.965259 
L 652.8372 246.81669 
L 654.524929 203.593858 
L 655.947127 207.193491 
L 657.50185 205.190098 
L 658.796239 210.770028 
L 660.480077 175.707897 
L 661.904608 207.719708 
L 663.076442 255.527262 
L 664.37315 211.338227 
L 665.797741 175.659551 
L 667.10016 212.729208 
L 668.654282 175.664717 
L 669.949649 281.556275 
L 671.180511 194.373174 
L 672.606833 176.087871 
L 674.039544 241.442595 
L 675.46346 207.581077 
L 677.148849 203.142802 
L 678.44402 140.405199 
L 679.999282 234.680859 
L 681.42412 207.788668 
L 682.721203 176.20363 
L 684.276637 175.962182 
L 685.701131 239.787074 
L 687.255409 234.494734 
L 688.938764 175.606705 
L 690.234068 246.269521 
L 691.661716 176.414982 
L 693.215943 175.688438 
L 694.512669 211.342763 
L 695.807885 210.973189 
L 697.102766 246.177387 
L 698.398917 211.202176 
L 700.082915 230.00694 
L 701.766889 175.736271 
L 703.062401 246.314974 
L 704.488325 175.989419 
L 705.791304 247.931751 
L 707.348778 205.760966 
L 708.644134 211.007488 
L 710.070594 208.153342 
L 711.236267 136.49148 
L 712.661241 239.884311 
L 714.094351 145.873728 
L 715.38923 210.890563 
L 716.685952 211.341754 
L 717.853161 176.153838 
L 719.277335 239.721979 
L 722.133946 177.158469 
L 723.819201 203.116922 
L 725.114065 210.886889 
L 726.538976 239.871474 
L 727.833765 246.157164 
L 729.128825 175.653335 
L 730.472793 188.492508 
L 731.897847 175.774185 
L 733.194127 211.233747 
L 734.619093 239.882619 
L 736.172935 205.006769 
L 737.597589 207.747129 
L 739.151689 234.461147 
L 740.448481 140.890269 
L 741.8747 240.136025 
L 743.429008 205.103835 
L 744.854583 207.954408 
L 746.159722 248.396122 
L 747.715822 176.113121 
L 750.307062 246.163505 
L 751.602712 175.813963 
L 753.159403 146.894995 
L 754.84443 203.073012 
L 756.268777 239.757158 
L 757.433805 253.932905 
L 759.118906 148.857114 
L 760.544979 240.106656 
L 761.711031 175.804041 
L 763.006181 210.956905 
L 764.430914 239.835407 
L 765.856609 143.883855 
L 767.282926 240.155914 
L 770.132156 175.695061 
L 771.427666 246.314408 
L 772.723111 175.758112 
L 774.149344 240.138865 
L 775.448929 247.199185 
L 776.619866 177.275369 
L 777.916615 211.348249 
L 779.213079 211.278726 
L 780.768883 146.677712 
L 782.454245 203.137713 
L 783.75086 211.315803 
L 785.175765 271.936656 
L 786.730045 175.700528 
L 788.025486 246.299319 
L 789.321119 211.075298 
L 791.004852 202.822894 
L 792.171152 97.52594 
L 793.466878 211.098018 
L 795.150158 257.02415 
L 796.833426 148.443717 
L 798.13006 246.559082 
L 800.722302 176.169027 
L 802.406184 257.121317 
L 803.701202 210.924464 
L 805.385019 175.703432 
L 807.07019 230.214723 
L 808.495036 175.722675 
L 809.669949 217.353219 
L 810.965111 246.238703 
L 812.260573 140.492222 
L 813.555567 210.918704 
L 815.239168 202.797318 
L 816.793264 175.658876 
L 818.087841 246.111104 
L 819.382521 246.133336 
L 821.066211 202.814779 
L 822.362022 211.118911 
L 823.787293 175.827759 
L 825.082006 246.140772 
L 826.637778 205.408015 
L 827.9333 175.779037 
L 829.228149 246.1705 
L 830.524504 176.005585 
L 831.821052 176.058484 
L 833.118303 211.471037 
L 834.673129 175.824467 
L 837.264723 246.332858 
L 838.948483 175.691389 
L 840.37456 240.107431 
L 841.540008 175.621239 
L 842.836402 246.506784 
L 845.428032 175.98265 
L 846.723067 246.210983 
L 848.018529 175.762627 
L 850.609183 246.303178 
L 852.164436 175.921409 
L 853.459636 246.246863 
L 854.755101 211.034123 
L 856.441845 149.226847 
L 857.868558 240.235953 
L 859.422281 234.389741 
L 861.108099 176.122259 
L 862.790816 175.472851 
L 864.215476 239.820478 
L 865.380816 214.797508 
L 866.67593 175.667912 
L 869.271212 246.295495 
L 871.862982 105.454935 
L 873.28742 303.92951 
L 874.582114 140.262063 
L 876.006879 271.911499 
L 877.432013 207.855161 
L 878.986336 234.503366 
L 880.281518 210.964759 
L 881.578326 211.362789 
L 883.1338 175.971445 
L 884.430081 211.233972 
L 886.115374 148.900392 
L 887.412038 281.803312 
L 888.578545 136.771955 
L 890.263538 175.949777 
L 890.263538 175.949777 
" clip-path="url(#p4bc29d079c)" style="fill: none; stroke: #1f77b4; stroke-width: 1.5; stroke-linecap: square"/>
   </g>
   <g id="line2d_16">
    <path d="M 115.181848 528.46828 
L 116.869982 420.202813 
L 118.297619 400.447906 
L 119.985566 447.260201 
L 121.282176 422.750276 
L 122.580833 387.733256 
L 124.008991 432.488058 
L 126.864185 411.158672 
L 128.291678 432.44333 
L 129.588953 422.80453 
L 131.147601 440.523511 
L 132.445103 422.823053 
L 133.743151 422.867388 
L 135.429579 420.093343 
L 136.727358 387.637992 
L 138.1549 432.446609 
L 139.71178 411.075415 
L 141.009013 458.023496 
L 142.436778 400.45938 
L 143.995584 440.532415 
L 145.424081 400.525023 
L 146.591063 411.007178 
L 148.019178 400.490852 
L 149.44741 432.493004 
L 150.744405 422.781717 
L 151.912084 411.077328 
L 153.210966 458.112916 
L 154.897328 392.994255 
L 156.194049 422.759406 
L 157.620836 432.395771 
L 159.17719 411.035767 
L 160.473923 422.760366 
L 161.900242 432.364314 
L 163.200454 423.043163 
L 164.757271 440.420063 
L 166.185275 400.480827 
L 167.352451 411.0268 
L 168.780466 464.475052 
L 170.336144 410.984665 
L 171.634074 422.857857 
L 172.930735 387.516615 
L 174.293771 427.902366 
L 175.852047 440.502523 
L 177.149732 422.837879 
L 178.447167 387.600605 
L 179.811249 427.979543 
L 181.36785 440.40785 
L 183.054177 392.991455 
L 184.351071 422.773444 
L 185.778508 432.439546 
L 188.631076 411.008141 
L 189.928833 422.843753 
L 191.224406 422.665737 
L 192.77971 440.334416 
L 194.076379 387.51746 
L 195.372153 422.682145 
L 196.797813 432.319851 
L 198.352744 440.313261 
L 199.648061 387.370288 
L 201.075144 432.41575 
L 202.630426 440.333173 
L 203.732791 404.122058 
L 205.0309 422.872458 
L 206.328578 422.837333 
L 207.755073 400.345442 
L 209.310984 411.002309 
L 210.607415 422.735714 
L 211.905093 458.047667 
L 213.201682 422.748613 
L 214.627944 400.324453 
L 215.927644 423.001723 
L 217.223644 422.700557 
L 218.519818 422.714773 
L 220.075042 440.329898 
L 221.37096 422.693853 
L 222.798639 432.455835 
L 224.096914 387.691801 
L 225.265241 411.14246 
L 226.691572 464.399502 
L 227.728521 396.277535 
L 229.284546 411.010972 
L 230.710485 400.295495 
L 232.009805 422.970805 
L 233.565154 440.336943 
L 234.863216 422.868629 
L 236.550086 420.121663 
L 237.977891 400.463062 
L 239.533999 411.017138 
L 241.221167 447.222711 
L 242.518338 422.796031 
L 243.944995 400.359983 
L 245.503709 440.527268 
L 246.801782 422.869483 
L 248.487057 392.906814 
L 249.913699 432.386052 
L 251.210111 422.734208 
L 252.509498 422.976251 
L 254.064838 440.336453 
L 255.361196 387.483634 
L 256.788827 464.457821 
L 258.344315 381.59595 
L 259.640564 457.970016 
L 261.3268 420.080935 
L 262.623039 422.720115 
L 263.660894 396.392995 
L 265.086806 432.336862 
L 266.512717 400.293004 
L 267.811189 422.901911 
L 269.366263 440.321372 
L 270.288296 379.802352 
L 271.713815 432.310337 
L 273.011948 422.874342 
L 274.437604 432.319619 
L 275.86511 400.436139 
L 277.354913 436.45955 
L 278.652146 387.578671 
L 279.948649 457.983857 
L 281.375106 400.341988 
L 282.671746 422.752829 
L 283.968124 422.731399 
L 285.524114 440.373254 
L 286.951691 400.442523 
L 288.247932 422.720227 
L 289.54388 457.953678 
L 290.841718 387.644372 
L 292.138989 387.582828 
L 293.435979 422.781312 
L 295.121346 420.025076 
L 296.806832 420.032711 
L 298.105881 458.122004 
L 299.791194 420.021589 
L 301.217103 400.292763 
L 302.902528 420.02882 
L 304.200409 422.853914 
L 305.885909 420.033629 
L 307.570004 447.07445 
L 308.865846 422.68765 
L 311.4563 422.643065 
L 312.883078 400.370915 
L 314.179035 422.697056 
L 315.474382 422.647236 
L 316.899092 400.184902 
L 318.584386 447.132351 
L 319.882012 422.833128 
L 321.052265 411.335526 
L 322.478519 400.323801 
L 323.777755 458.1321 
L 325.335864 411.167978 
L 327.019837 419.935337 
L 328.316734 387.542247 
L 329.741573 432.264466 
L 331.295633 410.862324 
L 332.592032 422.733131 
L 333.887247 457.913747 
L 335.313965 432.391207 
L 336.868299 381.486809 
L 338.033423 410.819926 
L 339.460584 464.436764 
L 340.758115 387.611033 
L 342.31298 410.923322 
L 343.60991 422.776406 
L 345.035369 432.306291 
L 346.589558 440.27116 
L 347.885348 422.683487 
L 349.182316 422.779523 
L 350.477824 422.660361 
L 351.774503 422.755981 
L 353.070239 422.678986 
L 354.237143 410.99937 
L 355.532697 387.396146 
L 356.829474 422.763947 
L 358.060233 417.094024 
L 359.485675 432.305158 
L 360.910525 432.26519 
L 362.336869 400.331817 
L 363.632626 422.680771 
L 364.802538 450.357023 
L 366.407431 386.117251 
L 368.221111 452.889906 
L 369.516586 387.387518 
L 370.943619 464.431008 
L 372.372667 368.600905 
L 373.66792 422.639502 
L 375.094526 432.383665 
L 376.260624 450.101538 
L 377.944713 419.94276 
L 379.241465 422.761896 
L 380.666169 432.255356 
L 382.091387 400.230699 
L 383.326842 417.517282 
L 384.493062 450.109713 
L 386.048648 410.977818 
L 387.47403 432.30109 
L 388.768941 387.326023 
L 390.069808 423.096324 
L 391.628585 411.218284 
L 392.924236 422.672111 
L 394.219698 422.656621 
L 395.904132 419.965015 
L 397.199439 457.918739 
L 398.496528 422.789408 
L 399.666084 411.265706 
L 400.962128 422.704168 
L 402.257387 422.640049 
L 403.554021 422.752268 
L 405.238032 419.937819 
L 406.534416 422.731857 
L 407.964274 400.646814 
L 409.007212 440.847202 
L 410.691794 419.974575 
L 411.988999 422.798825 
L 413.284427 422.653895 
L 414.580972 387.503934 
L 416.265232 447.082423 
L 417.951395 420.076272 
L 419.246797 422.651689 
L 420.542023 387.360491 
L 421.96778 432.326381 
L 423.521757 410.856113 
L 424.816284 422.580208 
L 426.112932 422.753422 
L 427.670288 440.45054 
L 428.966624 387.481322 
L 430.652101 420.032124 
L 431.94737 457.916698 
L 433.24623 422.933447 
L 434.92925 419.873818 
L 436.614782 420.03575 
L 437.910974 387.465465 
L 439.335386 432.235626 
L 440.889682 410.880325 
L 442.573686 447.070037 
L 444.258529 419.991342 
L 445.553878 422.647447 
L 446.849196 387.37041 
L 448.274009 432.262698 
L 449.702899 432.53718 
L 451.127978 432.280691 
L 452.426798 422.930217 
L 453.722372 422.665782 
L 455.017526 422.631479 
L 456.703078 420.037003 
L 458.000012 387.546266 
L 459.296898 422.772789 
L 460.851155 410.877343 
L 462.342728 436.568688 
L 463.767122 400.156451 
L 465.062046 457.897882 
L 466.488033 400.29974 
L 468.044107 440.37802 
L 469.339477 387.376186 
L 470.635926 422.737168 
L 472.321485 420.037411 
L 473.746557 464.342919 
L 475.17296 400.337105 
L 476.470927 422.860862 
L 477.766155 422.637577 
L 479.190575 400.158827 
L 480.355894 450.04915 
L 481.78088 400.209756 
L 483.334752 440.25318 
L 484.63023 422.657969 
L 486.054965 400.187162 
L 487.221202 410.932124 
L 488.648112 464.425504 
L 489.9432 387.345411 
L 491.500149 440.427502 
L 492.796977 422.768113 
L 494.093601 422.751467 
L 495.388655 387.341741 
L 496.686512 422.85184 
L 497.981942 422.654103 
L 499.540596 440.523823 
L 500.836046 422.655674 
L 502.519818 392.785888 
L 503.945525 464.371447 
L 505.500452 381.542884 
L 506.795485 457.90384 
L 508.480752 420.018604 
L 509.777651 422.773936 
L 511.07244 387.312782 
L 512.368974 422.744106 
L 513.664296 422.645235 
L 515.218619 440.278786 
L 516.513726 387.347435 
L 518.198694 419.999371 
L 519.494241 457.931826 
L 520.789952 422.67697 
L 522.473227 392.745802 
L 523.768529 457.918485 
L 525.065569 387.557744 
L 526.750183 419.976627 
L 528.045505 422.645192 
L 529.469979 464.315996 
L 530.769831 387.862532 
L 532.194362 400.168806 
L 533.490005 457.937053 
L 534.785247 422.638666 
L 536.210448 400.229106 
L 537.376273 450.083216 
L 538.932336 411.013764 
L 540.097897 450.065452 
L 541.394382 387.497418 
L 542.948086 410.835415 
L 544.244811 457.99593 
L 545.670214 400.247241 
L 547.104981 401.084121 
L 548.398258 457.808022 
L 549.630671 417.243411 
L 551.316411 420.049105 
L 552.611574 387.353479 
L 554.037588 432.343715 
L 555.591678 410.864707 
L 557.277284 447.147416 
L 558.574204 387.544713 
L 559.999115 464.335636 
L 561.552859 410.838506 
L 562.847857 422.61868 
L 565.440881 422.757567 
L 566.670457 379.826346 
L 567.96744 458.009898 
L 569.6539 420.095326 
L 571.076875 432.138457 
L 572.630949 381.462311 
L 573.925821 457.895041 
L 575.610211 419.962158 
L 576.907634 387.5994 
L 578.332504 432.266544 
L 579.758357 432.332838 
L 581.372581 415.245775 
L 582.797522 432.271334 
L 584.094243 387.523038 
L 585.650894 440.410713 
L 587.075024 432.216535 
L 588.370226 422.635405 
L 590.053709 392.762616 
L 591.478167 432.238735 
L 592.773393 422.637365 
L 594.075108 423.164901 
L 595.501253 432.352601 
L 596.797704 422.737317 
L 598.22413 400.339306 
L 599.519281 457.910251 
L 601.073905 381.514263 
L 602.498433 432.243464 
L 604.053009 410.901409 
L 605.479318 432.363621 
L 606.775285 422.697855 
L 608.329044 440.246804 
L 609.625728 422.756345 
L 610.792672 411.003382 
L 611.959371 410.978702 
L 613.667822 394.7459 
L 615.367368 420.929764 
L 617.051426 419.940798 
L 618.475921 432.241245 
L 619.640943 450.029126 
L 620.937528 422.748321 
L 622.23287 387.372978 
L 623.917072 447.079656 
L 625.2123 422.637532 
L 626.508979 422.755939 
L 627.934967 400.299891 
L 629.230403 422.654522 
L 630.792752 411.48632 
L 632.089106 422.729514 
L 633.513194 432.21368 
L 634.808319 422.629173 
L 636.103795 422.657754 
L 637.658822 440.31873 
L 638.954041 422.636775 
L 640.128696 411.774561 
L 641.554268 400.262448 
L 642.97998 432.323356 
L 644.404994 432.276328 
L 645.701966 422.779838 
L 646.996896 422.613175 
L 648.558546 382.175338 
L 649.854312 457.94378 
L 651.53938 420.005812 
L 652.8372 422.848934 
L 654.524929 420.176806 
L 655.947127 432.085843 
L 657.50185 410.912577 
L 658.796239 422.568863 
L 660.480077 419.926624 
L 661.904608 400.168851 
L 663.076442 450.485132 
L 664.37315 422.758262 
L 665.797741 400.174197 
L 667.10016 423.221923 
L 668.654282 410.867092 
L 669.949649 457.921993 
L 671.180511 417.103245 
L 672.606833 400.32995 
L 674.039544 432.793052 
L 675.46346 432.202119 
L 677.148849 420.026454 
L 678.44402 387.354432 
L 679.999282 440.332054 
L 681.42412 432.264396 
L 682.721203 387.56242 
L 685.701131 432.241211 
L 687.255409 440.276216 
L 688.938764 419.895488 
L 690.234068 422.643745 
L 691.661716 400.448899 
L 693.215943 410.874999 
L 694.512669 422.759774 
L 695.807885 422.636583 
L 697.102766 457.895557 
L 698.398917 422.712912 
L 700.082915 419.936884 
L 701.766889 419.935354 
L 703.062401 422.66079 
L 704.488325 400.294149 
L 705.791304 458.334148 
L 707.348778 411.120166 
L 708.644134 422.648016 
L 710.070594 432.373799 
L 711.236267 371.67756 
L 712.661241 432.273624 
L 714.094351 400.936763 
L 715.38923 422.609041 
L 716.685952 422.759438 
L 717.853161 411.030133 
L 719.277335 432.219513 
L 722.133946 411.36501 
L 723.819201 420.017827 
L 725.114065 422.607816 
L 726.538976 432.269345 
L 727.833765 457.890501 
L 729.128825 387.342302 
L 730.472793 426.475548 
L 731.897847 400.215882 
L 733.194127 422.723436 
L 734.619093 432.27306 
L 736.172935 440.251504 
L 737.597589 400.17982 
L 739.151689 440.26614 
L 740.448481 387.530821 
L 741.8747 432.357528 
L 743.429008 440.277977 
L 744.854583 400.262731 
L 746.159722 458.450241 
L 747.715822 411.01656 
L 749.012245 422.735077 
L 750.307062 422.603989 
L 751.602712 422.671985 
L 753.159403 381.709324 
L 754.84443 420.003191 
L 756.268777 432.231239 
L 757.433805 450.029601 
L 759.118906 392.892864 
L 760.544979 432.347739 
L 761.711031 410.913534 
L 763.006181 422.631155 
L 764.430914 432.257322 
L 765.856609 400.273472 
L 767.282926 432.364158 
L 770.132156 410.877207 
L 771.427666 457.929812 
L 772.723111 387.384213 
L 774.149344 432.358475 
L 775.448929 458.151006 
L 776.619866 411.403976 
L 777.916615 422.761603 
L 779.213079 422.738429 
L 780.768883 381.625754 
L 782.454245 420.024758 
L 783.75086 422.750788 
L 785.175765 464.335374 
L 786.730045 410.879029 
L 788.025486 422.654919 
L 789.321119 422.670619 
L 791.004852 419.919818 
L 792.171152 371.761975 
L 793.466878 422.678193 
L 795.150158 447.035041 
L 796.833426 392.745222 
L 798.13006 457.990981 
L 800.722302 387.548579 
L 802.406184 447.064191 
L 803.701202 422.620341 
L 805.385019 419.92525 
L 807.07019 420.012441 
L 808.495036 400.197151 
L 809.669949 450.689515 
L 810.965111 422.632189 
L 812.260573 387.386077 
L 813.555567 422.618421 
L 815.239168 419.911293 
L 816.793264 410.865145 
L 818.087841 457.878986 
L 819.382521 422.592676 
L 821.066211 419.917113 
L 822.362022 422.685157 
L 823.787293 400.235363 
L 825.082006 457.886403 
L 826.637778 410.99182 
L 827.9333 422.661507 
L 829.228149 422.606612 
L 830.524504 422.729471 
L 831.821052 387.504362 
L 833.118303 422.802532 
L 834.673129 410.920342 
L 835.969129 422.700534 
L 837.264723 457.934424 
L 838.948483 392.78486 
L 840.37456 432.347997 
L 841.540008 410.8526 
L 842.836402 457.977906 
L 845.428032 387.474028 
L 846.723067 457.903956 
L 848.018529 387.386019 
L 850.609183 457.927004 
L 852.164436 410.952656 
L 853.459636 422.635249 
L 854.755101 422.656894 
L 856.441845 393.024911 
L 857.868558 432.390838 
L 859.422281 440.244718 
L 861.108099 420.05412 
L 862.790816 392.700807 
L 864.215476 432.252346 
L 865.380816 450.050587 
L 866.67593 387.348133 
L 869.271212 457.925084 
L 870.566806 387.400501 
L 871.862982 387.463832 
L 873.28742 464.314346 
L 874.582114 387.302383 
L 876.006879 464.329085 
L 877.432013 400.223032 
L 878.986336 440.278806 
L 880.281518 422.633773 
L 881.578326 422.76645 
L 883.1338 410.969335 
L 884.430081 422.723511 
L 886.115374 392.90832 
L 887.412038 457.992575 
L 888.578545 410.959382 
L 890.263538 392.88424 
L 890.263538 392.88424 
" clip-path="url(#p4bc29d079c)" style="fill: none; stroke: #ff7f0e; stroke-width: 1.5; stroke-linecap: square"/>
   </g>
   <g id="line2d_17">
    <path d="M 96.608114 205.271484 
L 929.017623 205.271484 
" clip-path="url(#p4bc29d079c)" style="fill: none; stroke-dasharray: 5.55,2.4; stroke-dashoffset: 0; stroke: #0000ff; stroke-width: 1.5"/>
   </g>
   <g id="line2d_18">
    <path d="M 96.608114 421.103526 
L 929.017623 421.103526 
" clip-path="url(#p4bc29d079c)" style="fill: none; stroke-dasharray: 5.55,2.4; stroke-dashoffset: 0; stroke: #ffa500; stroke-width: 1.5"/>
   </g>
   <g id="patch_3">
    <path d="M 96.608114 528.46828 
L 96.608114 47.45136 
" style="fill: none; stroke: #000000; stroke-width: 0.8; stroke-linejoin: miter; stroke-linecap: square"/>
   </g>
   <g id="patch_4">
    <path d="M 929.017623 528.46828 
L 929.017623 47.45136 
" style="fill: none; stroke: #000000; stroke-width: 0.8; stroke-linejoin: miter; stroke-linecap: square"/>
   </g>
   <g id="patch_5">
    <path d="M 96.608114 528.46828 
L 929.017623 528.46828 
" style="fill: none; stroke: #000000; stroke-width: 0.8; stroke-linejoin: miter; stroke-linecap: square"/>
   </g>
   <g id="patch_6">
    <path d="M 96.608114 47.45136 
L 929.017623 47.45136 
" style="fill: none; stroke: #000000; stroke-width: 0.8; stroke-linejoin: miter; stroke-linecap: square"/>
   </g>
   <g id="text_17">
    <!-- Parsed and Filtered Packets (SelectionProcess: 16777217) -->
    <g transform="translate(339.243181 41.45136) scale(0.12 -0.12)">
     <defs>
      <path id="DejaVuSans-46" d="M 628 4666 
L 3309 4666 
L 3309 4134 
L 1259 4134 
L 1259 2759 
L 3109 2759 
L 3109 2228 
L 1259 2228 
L 1259 0 
L 628 0 
L 628 4666 
z
" transform="scale(0.015625)"/>
      <path id="DejaVuSans-6c" d="M 603 4863 
L 1178 4863 
L 1178 0 
L 603 0 
L 603 4863 
z
" transform="scale(0.015625)"/>
      <path id="DejaVuSans-3a" d="M 750 794 
L 1409 794 
L 1409 0 
L 750 0 
L 750 794 
z
M 750 3309 
L 1409 3309 
L 1409 2516 
L 750 2516 
L 750 3309 
z
" transform="scale(0.015625)"/>
      <path id="DejaVuSans-37" d="M 525 4666 
L 3525 4666 
L 3525 4397 
L 1831 0 
L 1172 0 
L 2766 4134 
L 525 4134 
L 525 4666 
z
" transform="scale(0.015625)"/>
     </defs>
     <use xlink:href="#DejaVuSans-50"/>
     <use xlink:href="#DejaVuSans-61" x="55.802734"/>
     <use xlink:href="#DejaVuSans-72" x="117.082031"/>
     <use xlink:href="#DejaVuSans-73" x="158.195312"/>
     <use xlink:href="#DejaVuSans-65" x="210.294922"/>
     <use xlink:href="#DejaVuSans-64" x="271.818359"/>
     <use xlink:href="#DejaVuSans-20" x="335.294922"/>
     <use xlink:href="#DejaVuSans-61" x="367.082031"/>
     <use xlink:href="#DejaVuSans-6e" x="428.361328"/>
     <use xlink:href="#DejaVuSans-64" x="491.740234"/>
     <use xlink:href="#DejaVuSans-20" x="555.216797"/>
     <use xlink:href="#DejaVuSans-46" x="587.003906"/>
     <use xlink:href="#DejaVuSans-69" x="637.273438"/>
     <use xlink:href="#DejaVuSans-6c" x="665.056641"/>
     <use xlink:href="#DejaVuSans-74" x="692.839844"/>
     <use xlink:href="#DejaVuSans-65" x="732.048828"/>
     <use xlink:href="#DejaVuSans-72" x="793.572266"/>
     <use xlink:href="#DejaVuSans-65" x="832.435547"/>
     <use xlink:href="#DejaVuSans-64" x="893.958984"/>
     <use xlink:href="#DejaVuSans-20" x="957.435547"/>
     <use xlink:href="#DejaVuSans-50" x="989.222656"/>
     <use xlink:href="#DejaVuSans-61" x="1045.025391"/>
     <use xlink:href="#DejaVuSans-63" x="1106.304688"/>
     <use xlink:href="#DejaVuSans-6b" x="1161.285156"/>
     <use xlink:href="#DejaVuSans-65" x="1215.570312"/>
     <use xlink:href="#DejaVuSans-74" x="1277.09375"/>
     <use xlink:href="#DejaVuSans-73" x="1316.302734"/>
     <use xlink:href="#DejaVuSans-20" x="1368.402344"/>
     <use xlink:href="#DejaVuSans-28" x="1400.189453"/>
     <use xlink:href="#DejaVuSans-53" x="1439.203125"/>
     <use xlink:href="#DejaVuSans-65" x="1502.679688"/>
     <use xlink:href="#DejaVuSans-6c" x="1564.203125"/>
     <use xlink:href="#DejaVuSans-65" x="1591.986328"/>
     <use xlink:href="#DejaVuSans-63" x="1653.509766"/>
     <use xlink:href="#DejaVuSans-74" x="1708.490234"/>
     <use xlink:href="#DejaVuSans-69" x="1747.699219"/>
     <use xlink:href="#DejaVuSans-6f" x="1775.482422"/>
     <use xlink:href="#DejaVuSans-6e" x="1836.664062"/>
     <use xlink:href="#DejaVuSans-50" x="1900.042969"/>
     <use xlink:href="#DejaVuSans-72" x="1958.595703"/>
     <use xlink:href="#DejaVuSans-6f" x="1997.458984"/>
     <use xlink:href="#DejaVuSans-63" x="2058.640625"/>
     <use xlink:href="#DejaVuSans-65" x="2113.621094"/>
     <use xlink:href="#DejaVuSans-73" x="2175.144531"/>
     <use xlink:href="#DejaVuSans-73" x="2227.244141"/>
     <use xlink:href="#DejaVuSans-3a" x="2279.34375"/>
     <use xlink:href="#DejaVuSans-20" x="2313.035156"/>
     <use xlink:href="#DejaVuSans-31" x="2344.822266"/>
     <use xlink:href="#DejaVuSans-36" x="2408.445312"/>
     <use xlink:href="#DejaVuSans-37" x="2472.068359"/>
     <use xlink:href="#DejaVuSans-37" x="2535.691406"/>
     <use xlink:href="#DejaVuSans-37" x="2599.314453"/>
     <use xlink:href="#DejaVuSans-32" x="2662.9375"/>
     <use xlink:href="#DejaVuSans-31" x="2726.560547"/>
     <use xlink:href="#DejaVuSans-37" x="2790.183594"/>
     <use xlink:href="#DejaVuSans-29" x="2853.806641"/>
    </g>
   </g>
   <g id="legend_1">
    <g id="patch_7">
     <path d="M 938.817623 331.15857 
L 1154.95356 331.15857 
Q 1157.75356 331.15857 1157.75356 328.35857 
L 1157.75356 247.56107 
Q 1157.75356 244.76107 1154.95356 244.76107 
L 938.817623 244.76107 
Q 936.017623 244.76107 936.017623 247.56107 
L 936.017623 328.35857 
Q 936.017623 331.15857 938.817623 331.15857 
z
" style="fill: #ffffff; opacity: 0.8; stroke: #cccccc; stroke-linejoin: miter"/>
    </g>
    <g id="line2d_19">
     <path d="M 941.617623 256.098883 
L 955.617623 256.098883 
L 969.617623 256.098883 
" style="fill: none; stroke: #1f77b4; stroke-width: 1.5; stroke-linecap: square"/>
    </g>
    <g id="text_18">
     <!-- Parsed Packets -->
     <g transform="translate(980.817623 260.998883) scale(0.14 -0.14)">
      <use xlink:href="#DejaVuSans-50"/>
      <use xlink:href="#DejaVuSans-61" x="55.802734"/>
      <use xlink:href="#DejaVuSans-72" x="117.082031"/>
      <use xlink:href="#DejaVuSans-73" x="158.195312"/>
      <use xlink:href="#DejaVuSans-65" x="210.294922"/>
      <use xlink:href="#DejaVuSans-64" x="271.818359"/>
      <use xlink:href="#DejaVuSans-20" x="335.294922"/>
      <use xlink:href="#DejaVuSans-50" x="367.082031"/>
      <use xlink:href="#DejaVuSans-61" x="422.884766"/>
      <use xlink:href="#DejaVuSans-63" x="484.164062"/>
      <use xlink:href="#DejaVuSans-6b" x="539.144531"/>
      <use xlink:href="#DejaVuSans-65" x="593.429688"/>
      <use xlink:href="#DejaVuSans-74" x="654.953125"/>
      <use xlink:href="#DejaVuSans-73" x="694.162109"/>
     </g>
    </g>
    <g id="line2d_20">
     <path d="M 941.617623 276.648258 
L 955.617623 276.648258 
L 969.617623 276.648258 
" style="fill: none; stroke: #ff7f0e; stroke-width: 1.5; stroke-linecap: square"/>
    </g>
    <g id="text_19">
     <!-- Filtered Packets -->
     <g transform="translate(980.817623 281.548258) scale(0.14 -0.14)">
      <use xlink:href="#DejaVuSans-46"/>
      <use xlink:href="#DejaVuSans-69" x="50.269531"/>
      <use xlink:href="#DejaVuSans-6c" x="78.052734"/>
      <use xlink:href="#DejaVuSans-74" x="105.835938"/>
      <use xlink:href="#DejaVuSans-65" x="145.044922"/>
      <use xlink:href="#DejaVuSans-72" x="206.568359"/>
      <use xlink:href="#DejaVuSans-65" x="245.431641"/>
      <use xlink:href="#DejaVuSans-64" x="306.955078"/>
      <use xlink:href="#DejaVuSans-20" x="370.431641"/>
      <use xlink:href="#DejaVuSans-50" x="402.21875"/>
      <use xlink:href="#DejaVuSans-61" x="458.021484"/>
      <use xlink:href="#DejaVuSans-63" x="519.300781"/>
      <use xlink:href="#DejaVuSans-6b" x="574.28125"/>
      <use xlink:href="#DejaVuSans-65" x="628.566406"/>
      <use xlink:href="#DejaVuSans-74" x="690.089844"/>
      <use xlink:href="#DejaVuSans-73" x="729.298828"/>
     </g>
    </g>
    <g id="line2d_21">
     <path d="M 941.617623 297.197633 
L 955.617623 297.197633 
L 969.617623 297.197633 
" style="fill: none; stroke-dasharray: 5.55,2.4; stroke-dashoffset: 0; stroke: #0000ff; stroke-width: 1.5"/>
    </g>
    <g id="text_20">
     <!-- Parsed Packets Average -->
     <g transform="translate(980.817623 302.097633) scale(0.14 -0.14)">
      <defs>
       <path id="DejaVuSans-41" d="M 2188 4044 
L 1331 1722 
L 3047 1722 
L 2188 4044 
z
M 1831 4666 
L 2547 4666 
L 4325 0 
L 3669 0 
L 3244 1197 
L 1141 1197 
L 716 0 
L 50 0 
L 1831 4666 
z
" transform="scale(0.015625)"/>
       <path id="DejaVuSans-76" d="M 191 3500 
L 800 3500 
L 1894 563 
L 2988 3500 
L 3597 3500 
L 2284 0 
L 1503 0 
L 191 3500 
z
" transform="scale(0.015625)"/>
       <path id="DejaVuSans-67" d="M 2906 1791 
Q 2906 2416 2648 2759 
Q 2391 3103 1925 3103 
Q 1463 3103 1205 2759 
Q 947 2416 947 1791 
Q 947 1169 1205 825 
Q 1463 481 1925 481 
Q 2391 481 2648 825 
Q 2906 1169 2906 1791 
z
M 3481 434 
Q 3481 -459 3084 -895 
Q 2688 -1331 1869 -1331 
Q 1566 -1331 1297 -1286 
Q 1028 -1241 775 -1147 
L 775 -588 
Q 1028 -725 1275 -790 
Q 1522 -856 1778 -856 
Q 2344 -856 2625 -561 
Q 2906 -266 2906 331 
L 2906 616 
Q 2728 306 2450 153 
Q 2172 0 1784 0 
Q 1141 0 747 490 
Q 353 981 353 1791 
Q 353 2603 747 3093 
Q 1141 3584 1784 3584 
Q 2172 3584 2450 3431 
Q 2728 3278 2906 2969 
L 2906 3500 
L 3481 3500 
L 3481 434 
z
" transform="scale(0.015625)"/>
      </defs>
      <use xlink:href="#DejaVuSans-50"/>
      <use xlink:href="#DejaVuSans-61" x="55.802734"/>
      <use xlink:href="#DejaVuSans-72" x="117.082031"/>
      <use xlink:href="#DejaVuSans-73" x="158.195312"/>
      <use xlink:href="#DejaVuSans-65" x="210.294922"/>
      <use xlink:href="#DejaVuSans-64" x="271.818359"/>
      <use xlink:href="#DejaVuSans-20" x="335.294922"/>
      <use xlink:href="#DejaVuSans-50" x="367.082031"/>
      <use xlink:href="#DejaVuSans-61" x="422.884766"/>
      <use xlink:href="#DejaVuSans-63" x="484.164062"/>
      <use xlink:href="#DejaVuSans-6b" x="539.144531"/>
      <use xlink:href="#DejaVuSans-65" x="593.429688"/>
      <use xlink:href="#DejaVuSans-74" x="654.953125"/>
      <use xlink:href="#DejaVuSans-73" x="694.162109"/>
      <use xlink:href="#DejaVuSans-20" x="746.261719"/>
      <use xlink:href="#DejaVuSans-41" x="778.048828"/>
      <use xlink:href="#DejaVuSans-76" x="840.582031"/>
      <use xlink:href="#DejaVuSans-65" x="899.761719"/>
      <use xlink:href="#DejaVuSans-72" x="961.285156"/>
      <use xlink:href="#DejaVuSans-61" x="1002.398438"/>
      <use xlink:href="#DejaVuSans-67" x="1063.677734"/>
      <use xlink:href="#DejaVuSans-65" x="1127.154297"/>
     </g>
    </g>
    <g id="line2d_22">
     <path d="M 941.617623 317.747008 
L 955.617623 317.747008 
L 969.617623 317.747008 
" style="fill: none; stroke-dasharray: 5.55,2.4; stroke-dashoffset: 0; stroke: #ffa500; stroke-width: 1.5"/>
    </g>
    <g id="text_21">
     <!-- Filtered Packets Average -->
     <g transform="translate(980.817623 322.647008) scale(0.14 -0.14)">
      <use xlink:href="#DejaVuSans-46"/>
      <use xlink:href="#DejaVuSans-69" x="50.269531"/>
      <use xlink:href="#DejaVuSans-6c" x="78.052734"/>
      <use xlink:href="#DejaVuSans-74" x="105.835938"/>
      <use xlink:href="#DejaVuSans-65" x="145.044922"/>
      <use xlink:href="#DejaVuSans-72" x="206.568359"/>
      <use xlink:href="#DejaVuSans-65" x="245.431641"/>
      <use xlink:href="#DejaVuSans-64" x="306.955078"/>
      <use xlink:href="#DejaVuSans-20" x="370.431641"/>
      <use xlink:href="#DejaVuSans-50" x="402.21875"/>
      <use xlink:href="#DejaVuSans-61" x="458.021484"/>
      <use xlink:href="#DejaVuSans-63" x="519.300781"/>
      <use xlink:href="#DejaVuSans-6b" x="574.28125"/>
      <use xlink:href="#DejaVuSans-65" x="628.566406"/>
      <use xlink:href="#DejaVuSans-74" x="690.089844"/>
      <use xlink:href="#DejaVuSans-73" x="729.298828"/>
      <use xlink:href="#DejaVuSans-20" x="781.398438"/>
      <use xlink:href="#DejaVuSans-41" x="813.185547"/>
      <use xlink:href="#DejaVuSans-76" x="875.71875"/>
      <use xlink:href="#DejaVuSans-65" x="934.898438"/>
      <use xlink:href="#DejaVuSans-72" x="996.421875"/>
      <use xlink:href="#DejaVuSans-61" x="1037.535156"/>
      <use xlink:href="#DejaVuSans-67" x="1098.814453"/>
      <use xlink:href="#DejaVuSans-65" x="1162.291016"/>
     </g>
    </g>
   </g>
  </g>
 </g>
 <defs>
  <clipPath id="p4bc29d079c">
   <rect x="96.608114" y="47.45136" width="832.409509" height="481.01692"/>
  </clipPath>
 </defs>
</svg>
