<?xml version="1.0" encoding="utf-8" standalone="no"?>
<!DOCTYPE svg PUBLIC "-//W3C//DTD SVG 1.1//EN"
  "http://www.w3.org/Graphics/SVG/1.1/DTD/svg11.dtd">
<svg xmlns:xlink="http://www.w3.org/1999/xlink" width="1008pt" height="720pt" viewBox="0 0 1008 720" xmlns="http://www.w3.org/2000/svg" version="1.1">
 <metadata>
  <rdf:RDF xmlns:dc="http://purl.org/dc/elements/1.1/" xmlns:cc="http://creativecommons.org/ns#" xmlns:rdf="http://www.w3.org/1999/02/22-rdf-syntax-ns#">
   <cc:Work>
    <dc:type rdf:resource="http://purl.org/dc/dcmitype/StillImage"/>
    <dc:date>2023-04-13T18:30:57.870643</dc:date>
    <dc:format>image/svg+xml</dc:format>
    <dc:creator>
     <cc:Agent>
      <dc:title>Matplotlib v3.6.2, https://matplotlib.org/</dc:title>
     </cc:Agent>
    </dc:creator>
   </cc:Work>
  </rdf:RDF>
 </metadata>
 <defs>
  <style type="text/css">*{stroke-linejoin: round; stroke-linecap: butt}</style>
 </defs>
 <g id="figure_1">
  <g id="patch_1">
   <path d="M 0 720 
L 1008 720 
L 1008 0 
L 0 0 
z
" style="fill: #ffffff"/>
  </g>
  <g id="axes_1">
   <g id="patch_2">
    <path d="M 63.77 658.84 
L 795.154 658.84 
L 795.154 46.08 
L 63.77 46.08 
z
" style="fill: #ffffff"/>
   </g>
   <g id="matplotlib.axis_1">
    <g id="xtick_1">
     <g id="line2d_1">
      <defs>
       <path id="m76df84b066" d="M 0 0 
L 0 3.5 
" style="stroke: #000000; stroke-width: 0.8"/>
      </defs>
      <g>
       <use xlink:href="#m76df84b066" x="63.77" y="658.84" style="stroke: #000000; stroke-width: 0.8"/>
      </g>
     </g>
     <g id="text_1">
      <!-- 0 -->
      <g transform="translate(60.58875 673.438437) scale(0.1 -0.1)">
       <defs>
        <path id="DejaVuSans-30" d="M 2034 4250 
Q 1547 4250 1301 3770 
Q 1056 3291 1056 2328 
Q 1056 1369 1301 889 
Q 1547 409 2034 409 
Q 2525 409 2770 889 
Q 3016 1369 3016 2328 
Q 3016 3291 2770 3770 
Q 2525 4250 2034 4250 
z
M 2034 4750 
Q 2819 4750 3233 4129 
Q 3647 3509 3647 2328 
Q 3647 1150 3233 529 
Q 2819 -91 2034 -91 
Q 1250 -91 836 529 
Q 422 1150 422 2328 
Q 422 3509 836 4129 
Q 1250 4750 2034 4750 
z
" transform="scale(0.015625)"/>
       </defs>
       <use xlink:href="#DejaVuSans-30"/>
      </g>
     </g>
    </g>
    <g id="xtick_2">
     <g id="line2d_2">
      <g>
       <use xlink:href="#m76df84b066" x="177.930037" y="658.84" style="stroke: #000000; stroke-width: 0.8"/>
      </g>
     </g>
     <g id="text_2">
      <!-- 10 -->
      <g transform="translate(171.567537 673.438437) scale(0.1 -0.1)">
       <defs>
        <path id="DejaVuSans-31" d="M 794 531 
L 1825 531 
L 1825 4091 
L 703 3866 
L 703 4441 
L 1819 4666 
L 2450 4666 
L 2450 531 
L 3481 531 
L 3481 0 
L 794 0 
L 794 531 
z
" transform="scale(0.015625)"/>
       </defs>
       <use xlink:href="#DejaVuSans-31"/>
       <use xlink:href="#DejaVuSans-30" x="63.623047"/>
      </g>
     </g>
    </g>
    <g id="xtick_3">
     <g id="line2d_3">
      <g>
       <use xlink:href="#m76df84b066" x="292.090074" y="658.84" style="stroke: #000000; stroke-width: 0.8"/>
      </g>
     </g>
     <g id="text_3">
      <!-- 20 -->
      <g transform="translate(285.727574 673.438437) scale(0.1 -0.1)">
       <defs>
        <path id="DejaVuSans-32" d="M 1228 531 
L 3431 531 
L 3431 0 
L 469 0 
L 469 531 
Q 828 903 1448 1529 
Q 2069 2156 2228 2338 
Q 2531 2678 2651 2914 
Q 2772 3150 2772 3378 
Q 2772 3750 2511 3984 
Q 2250 4219 1831 4219 
Q 1534 4219 1204 4116 
Q 875 4013 500 3803 
L 500 4441 
Q 881 4594 1212 4672 
Q 1544 4750 1819 4750 
Q 2544 4750 2975 4387 
Q 3406 4025 3406 3419 
Q 3406 3131 3298 2873 
Q 3191 2616 2906 2266 
Q 2828 2175 2409 1742 
Q 1991 1309 1228 531 
z
" transform="scale(0.015625)"/>
       </defs>
       <use xlink:href="#DejaVuSans-32"/>
       <use xlink:href="#DejaVuSans-30" x="63.623047"/>
      </g>
     </g>
    </g>
    <g id="xtick_4">
     <g id="line2d_4">
      <g>
       <use xlink:href="#m76df84b066" x="406.25011" y="658.84" style="stroke: #000000; stroke-width: 0.8"/>
      </g>
     </g>
     <g id="text_4">
      <!-- 30 -->
      <g transform="translate(399.88761 673.438437) scale(0.1 -0.1)">
       <defs>
        <path id="DejaVuSans-33" d="M 2597 2516 
Q 3050 2419 3304 2112 
Q 3559 1806 3559 1356 
Q 3559 666 3084 287 
Q 2609 -91 1734 -91 
Q 1441 -91 1130 -33 
Q 819 25 488 141 
L 488 750 
Q 750 597 1062 519 
Q 1375 441 1716 441 
Q 2309 441 2620 675 
Q 2931 909 2931 1356 
Q 2931 1769 2642 2001 
Q 2353 2234 1838 2234 
L 1294 2234 
L 1294 2753 
L 1863 2753 
Q 2328 2753 2575 2939 
Q 2822 3125 2822 3475 
Q 2822 3834 2567 4026 
Q 2313 4219 1838 4219 
Q 1578 4219 1281 4162 
Q 984 4106 628 3988 
L 628 4550 
Q 988 4650 1302 4700 
Q 1616 4750 1894 4750 
Q 2613 4750 3031 4423 
Q 3450 4097 3450 3541 
Q 3450 3153 3228 2886 
Q 3006 2619 2597 2516 
z
" transform="scale(0.015625)"/>
       </defs>
       <use xlink:href="#DejaVuSans-33"/>
       <use xlink:href="#DejaVuSans-30" x="63.623047"/>
      </g>
     </g>
    </g>
    <g id="xtick_5">
     <g id="line2d_5">
      <g>
       <use xlink:href="#m76df84b066" x="520.410147" y="658.84" style="stroke: #000000; stroke-width: 0.8"/>
      </g>
     </g>
     <g id="text_5">
      <!-- 40 -->
      <g transform="translate(514.047647 673.438437) scale(0.1 -0.1)">
       <defs>
        <path id="DejaVuSans-34" d="M 2419 4116 
L 825 1625 
L 2419 1625 
L 2419 4116 
z
M 2253 4666 
L 3047 4666 
L 3047 1625 
L 3713 1625 
L 3713 1100 
L 3047 1100 
L 3047 0 
L 2419 0 
L 2419 1100 
L 313 1100 
L 313 1709 
L 2253 4666 
z
" transform="scale(0.015625)"/>
       </defs>
       <use xlink:href="#DejaVuSans-34"/>
       <use xlink:href="#DejaVuSans-30" x="63.623047"/>
      </g>
     </g>
    </g>
    <g id="xtick_6">
     <g id="line2d_6">
      <g>
       <use xlink:href="#m76df84b066" x="634.570184" y="658.84" style="stroke: #000000; stroke-width: 0.8"/>
      </g>
     </g>
     <g id="text_6">
      <!-- 50 -->
      <g transform="translate(628.207684 673.438437) scale(0.1 -0.1)">
       <defs>
        <path id="DejaVuSans-35" d="M 691 4666 
L 3169 4666 
L 3169 4134 
L 1269 4134 
L 1269 2991 
Q 1406 3038 1543 3061 
Q 1681 3084 1819 3084 
Q 2600 3084 3056 2656 
Q 3513 2228 3513 1497 
Q 3513 744 3044 326 
Q 2575 -91 1722 -91 
Q 1428 -91 1123 -41 
Q 819 9 494 109 
L 494 744 
Q 775 591 1075 516 
Q 1375 441 1709 441 
Q 2250 441 2565 725 
Q 2881 1009 2881 1497 
Q 2881 1984 2565 2268 
Q 2250 2553 1709 2553 
Q 1456 2553 1204 2497 
Q 953 2441 691 2322 
L 691 4666 
z
" transform="scale(0.015625)"/>
       </defs>
       <use xlink:href="#DejaVuSans-35"/>
       <use xlink:href="#DejaVuSans-30" x="63.623047"/>
      </g>
     </g>
    </g>
    <g id="xtick_7">
     <g id="line2d_7">
      <g>
       <use xlink:href="#m76df84b066" x="748.730221" y="658.84" style="stroke: #000000; stroke-width: 0.8"/>
      </g>
     </g>
     <g id="text_7">
      <!-- 60 -->
      <g transform="translate(742.367721 673.438437) scale(0.1 -0.1)">
       <defs>
        <path id="DejaVuSans-36" d="M 2113 2584 
Q 1688 2584 1439 2293 
Q 1191 2003 1191 1497 
Q 1191 994 1439 701 
Q 1688 409 2113 409 
Q 2538 409 2786 701 
Q 3034 994 3034 1497 
Q 3034 2003 2786 2293 
Q 2538 2584 2113 2584 
z
M 3366 4563 
L 3366 3988 
Q 3128 4100 2886 4159 
Q 2644 4219 2406 4219 
Q 1781 4219 1451 3797 
Q 1122 3375 1075 2522 
Q 1259 2794 1537 2939 
Q 1816 3084 2150 3084 
Q 2853 3084 3261 2657 
Q 3669 2231 3669 1497 
Q 3669 778 3244 343 
Q 2819 -91 2113 -91 
Q 1303 -91 875 529 
Q 447 1150 447 2328 
Q 447 3434 972 4092 
Q 1497 4750 2381 4750 
Q 2619 4750 2861 4703 
Q 3103 4656 3366 4563 
z
" transform="scale(0.015625)"/>
       </defs>
       <use xlink:href="#DejaVuSans-36"/>
       <use xlink:href="#DejaVuSans-30" x="63.623047"/>
      </g>
     </g>
    </g>
    <g id="text_8">
     <!-- Time (s) -->
     <g transform="translate(409.133094 687.116562) scale(0.1 -0.1)">
      <defs>
       <path id="DejaVuSans-54" d="M -19 4666 
L 3928 4666 
L 3928 4134 
L 2272 4134 
L 2272 0 
L 1638 0 
L 1638 4134 
L -19 4134 
L -19 4666 
z
" transform="scale(0.015625)"/>
       <path id="DejaVuSans-69" d="M 603 3500 
L 1178 3500 
L 1178 0 
L 603 0 
L 603 3500 
z
M 603 4863 
L 1178 4863 
L 1178 4134 
L 603 4134 
L 603 4863 
z
" transform="scale(0.015625)"/>
       <path id="DejaVuSans-6d" d="M 3328 2828 
Q 3544 3216 3844 3400 
Q 4144 3584 4550 3584 
Q 5097 3584 5394 3201 
Q 5691 2819 5691 2113 
L 5691 0 
L 5113 0 
L 5113 2094 
Q 5113 2597 4934 2840 
Q 4756 3084 4391 3084 
Q 3944 3084 3684 2787 
Q 3425 2491 3425 1978 
L 3425 0 
L 2847 0 
L 2847 2094 
Q 2847 2600 2669 2842 
Q 2491 3084 2119 3084 
Q 1678 3084 1418 2786 
Q 1159 2488 1159 1978 
L 1159 0 
L 581 0 
L 581 3500 
L 1159 3500 
L 1159 2956 
Q 1356 3278 1631 3431 
Q 1906 3584 2284 3584 
Q 2666 3584 2933 3390 
Q 3200 3197 3328 2828 
z
" transform="scale(0.015625)"/>
       <path id="DejaVuSans-65" d="M 3597 1894 
L 3597 1613 
L 953 1613 
Q 991 1019 1311 708 
Q 1631 397 2203 397 
Q 2534 397 2845 478 
Q 3156 559 3463 722 
L 3463 178 
Q 3153 47 2828 -22 
Q 2503 -91 2169 -91 
Q 1331 -91 842 396 
Q 353 884 353 1716 
Q 353 2575 817 3079 
Q 1281 3584 2069 3584 
Q 2775 3584 3186 3129 
Q 3597 2675 3597 1894 
z
M 3022 2063 
Q 3016 2534 2758 2815 
Q 2500 3097 2075 3097 
Q 1594 3097 1305 2825 
Q 1016 2553 972 2059 
L 3022 2063 
z
" transform="scale(0.015625)"/>
       <path id="DejaVuSans-20" transform="scale(0.015625)"/>
       <path id="DejaVuSans-28" d="M 1984 4856 
Q 1566 4138 1362 3434 
Q 1159 2731 1159 2009 
Q 1159 1288 1364 580 
Q 1569 -128 1984 -844 
L 1484 -844 
Q 1016 -109 783 600 
Q 550 1309 550 2009 
Q 550 2706 781 3412 
Q 1013 4119 1484 4856 
L 1984 4856 
z
" transform="scale(0.015625)"/>
       <path id="DejaVuSans-73" d="M 2834 3397 
L 2834 2853 
Q 2591 2978 2328 3040 
Q 2066 3103 1784 3103 
Q 1356 3103 1142 2972 
Q 928 2841 928 2578 
Q 928 2378 1081 2264 
Q 1234 2150 1697 2047 
L 1894 2003 
Q 2506 1872 2764 1633 
Q 3022 1394 3022 966 
Q 3022 478 2636 193 
Q 2250 -91 1575 -91 
Q 1294 -91 989 -36 
Q 684 19 347 128 
L 347 722 
Q 666 556 975 473 
Q 1284 391 1588 391 
Q 1994 391 2212 530 
Q 2431 669 2431 922 
Q 2431 1156 2273 1281 
Q 2116 1406 1581 1522 
L 1381 1569 
Q 847 1681 609 1914 
Q 372 2147 372 2553 
Q 372 3047 722 3315 
Q 1072 3584 1716 3584 
Q 2034 3584 2315 3537 
Q 2597 3491 2834 3397 
z
" transform="scale(0.015625)"/>
       <path id="DejaVuSans-29" d="M 513 4856 
L 1013 4856 
Q 1481 4119 1714 3412 
Q 1947 2706 1947 2009 
Q 1947 1309 1714 600 
Q 1481 -109 1013 -844 
L 513 -844 
Q 928 -128 1133 580 
Q 1338 1288 1338 2009 
Q 1338 2731 1133 3434 
Q 928 4138 513 4856 
z
" transform="scale(0.015625)"/>
      </defs>
      <use xlink:href="#DejaVuSans-54"/>
      <use xlink:href="#DejaVuSans-69" x="57.958984"/>
      <use xlink:href="#DejaVuSans-6d" x="85.742188"/>
      <use xlink:href="#DejaVuSans-65" x="183.154297"/>
      <use xlink:href="#DejaVuSans-20" x="244.677734"/>
      <use xlink:href="#DejaVuSans-28" x="276.464844"/>
      <use xlink:href="#DejaVuSans-73" x="315.478516"/>
      <use xlink:href="#DejaVuSans-29" x="367.578125"/>
     </g>
    </g>
   </g>
   <g id="matplotlib.axis_2">
    <g id="ytick_1">
     <g id="line2d_8">
      <defs>
       <path id="m99f4ab2211" d="M 0 0 
L -3.5 0 
" style="stroke: #000000; stroke-width: 0.8"/>
      </defs>
      <g>
       <use xlink:href="#m99f4ab2211" x="63.77" y="658.84" style="stroke: #000000; stroke-width: 0.8"/>
      </g>
     </g>
     <g id="text_9">
      <!-- 0 -->
      <g transform="translate(50.4075 662.639219) scale(0.1 -0.1)">
       <use xlink:href="#DejaVuSans-30"/>
      </g>
     </g>
    </g>
    <g id="ytick_2">
     <g id="line2d_9">
      <g>
       <use xlink:href="#m99f4ab2211" x="63.77" y="556.776219" style="stroke: #000000; stroke-width: 0.8"/>
      </g>
     </g>
     <g id="text_10">
      <!-- 5 -->
      <g transform="translate(50.4075 560.575438) scale(0.1 -0.1)">
       <use xlink:href="#DejaVuSans-35"/>
      </g>
     </g>
    </g>
    <g id="ytick_3">
     <g id="line2d_10">
      <g>
       <use xlink:href="#m99f4ab2211" x="63.77" y="454.712439" style="stroke: #000000; stroke-width: 0.8"/>
      </g>
     </g>
     <g id="text_11">
      <!-- 10 -->
      <g transform="translate(44.045 458.511658) scale(0.1 -0.1)">
       <use xlink:href="#DejaVuSans-31"/>
       <use xlink:href="#DejaVuSans-30" x="63.623047"/>
      </g>
     </g>
    </g>
    <g id="ytick_4">
     <g id="line2d_11">
      <g>
       <use xlink:href="#m99f4ab2211" x="63.77" y="352.648658" style="stroke: #000000; stroke-width: 0.8"/>
      </g>
     </g>
     <g id="text_12">
      <!-- 15 -->
      <g transform="translate(44.045 356.447877) scale(0.1 -0.1)">
       <use xlink:href="#DejaVuSans-31"/>
       <use xlink:href="#DejaVuSans-35" x="63.623047"/>
      </g>
     </g>
    </g>
    <g id="ytick_5">
     <g id="line2d_12">
      <g>
       <use xlink:href="#m99f4ab2211" x="63.77" y="250.584878" style="stroke: #000000; stroke-width: 0.8"/>
      </g>
     </g>
     <g id="text_13">
      <!-- 20 -->
      <g transform="translate(44.045 254.384097) scale(0.1 -0.1)">
       <use xlink:href="#DejaVuSans-32"/>
       <use xlink:href="#DejaVuSans-30" x="63.623047"/>
      </g>
     </g>
    </g>
    <g id="ytick_6">
     <g id="line2d_13">
      <g>
       <use xlink:href="#m99f4ab2211" x="63.77" y="148.521097" style="stroke: #000000; stroke-width: 0.8"/>
      </g>
     </g>
     <g id="text_14">
      <!-- 25 -->
      <g transform="translate(44.045 152.320316) scale(0.1 -0.1)">
       <use xlink:href="#DejaVuSans-32"/>
       <use xlink:href="#DejaVuSans-35" x="63.623047"/>
      </g>
     </g>
    </g>
    <g id="ytick_7">
     <g id="line2d_14">
      <g>
       <use xlink:href="#m99f4ab2211" x="63.77" y="46.457317" style="stroke: #000000; stroke-width: 0.8"/>
      </g>
     </g>
     <g id="text_15">
      <!-- 30 -->
      <g transform="translate(44.045 50.256535) scale(0.1 -0.1)">
       <use xlink:href="#DejaVuSans-33"/>
       <use xlink:href="#DejaVuSans-30" x="63.623047"/>
      </g>
     </g>
    </g>
    <g id="text_16">
     <!-- Packets per Second -->
     <g transform="translate(37.965312 401.305313) rotate(-90) scale(0.1 -0.1)">
      <defs>
       <path id="DejaVuSans-50" d="M 1259 4147 
L 1259 2394 
L 2053 2394 
Q 2494 2394 2734 2622 
Q 2975 2850 2975 3272 
Q 2975 3691 2734 3919 
Q 2494 4147 2053 4147 
L 1259 4147 
z
M 628 4666 
L 2053 4666 
Q 2838 4666 3239 4311 
Q 3641 3956 3641 3272 
Q 3641 2581 3239 2228 
Q 2838 1875 2053 1875 
L 1259 1875 
L 1259 0 
L 628 0 
L 628 4666 
z
" transform="scale(0.015625)"/>
       <path id="DejaVuSans-61" d="M 2194 1759 
Q 1497 1759 1228 1600 
Q 959 1441 959 1056 
Q 959 750 1161 570 
Q 1363 391 1709 391 
Q 2188 391 2477 730 
Q 2766 1069 2766 1631 
L 2766 1759 
L 2194 1759 
z
M 3341 1997 
L 3341 0 
L 2766 0 
L 2766 531 
Q 2569 213 2275 61 
Q 1981 -91 1556 -91 
Q 1019 -91 701 211 
Q 384 513 384 1019 
Q 384 1609 779 1909 
Q 1175 2209 1959 2209 
L 2766 2209 
L 2766 2266 
Q 2766 2663 2505 2880 
Q 2244 3097 1772 3097 
Q 1472 3097 1187 3025 
Q 903 2953 641 2809 
L 641 3341 
Q 956 3463 1253 3523 
Q 1550 3584 1831 3584 
Q 2591 3584 2966 3190 
Q 3341 2797 3341 1997 
z
" transform="scale(0.015625)"/>
       <path id="DejaVuSans-63" d="M 3122 3366 
L 3122 2828 
Q 2878 2963 2633 3030 
Q 2388 3097 2138 3097 
Q 1578 3097 1268 2742 
Q 959 2388 959 1747 
Q 959 1106 1268 751 
Q 1578 397 2138 397 
Q 2388 397 2633 464 
Q 2878 531 3122 666 
L 3122 134 
Q 2881 22 2623 -34 
Q 2366 -91 2075 -91 
Q 1284 -91 818 406 
Q 353 903 353 1747 
Q 353 2603 823 3093 
Q 1294 3584 2113 3584 
Q 2378 3584 2631 3529 
Q 2884 3475 3122 3366 
z
" transform="scale(0.015625)"/>
       <path id="DejaVuSans-6b" d="M 581 4863 
L 1159 4863 
L 1159 1991 
L 2875 3500 
L 3609 3500 
L 1753 1863 
L 3688 0 
L 2938 0 
L 1159 1709 
L 1159 0 
L 581 0 
L 581 4863 
z
" transform="scale(0.015625)"/>
       <path id="DejaVuSans-74" d="M 1172 4494 
L 1172 3500 
L 2356 3500 
L 2356 3053 
L 1172 3053 
L 1172 1153 
Q 1172 725 1289 603 
Q 1406 481 1766 481 
L 2356 481 
L 2356 0 
L 1766 0 
Q 1100 0 847 248 
Q 594 497 594 1153 
L 594 3053 
L 172 3053 
L 172 3500 
L 594 3500 
L 594 4494 
L 1172 4494 
z
" transform="scale(0.015625)"/>
       <path id="DejaVuSans-70" d="M 1159 525 
L 1159 -1331 
L 581 -1331 
L 581 3500 
L 1159 3500 
L 1159 2969 
Q 1341 3281 1617 3432 
Q 1894 3584 2278 3584 
Q 2916 3584 3314 3078 
Q 3713 2572 3713 1747 
Q 3713 922 3314 415 
Q 2916 -91 2278 -91 
Q 1894 -91 1617 61 
Q 1341 213 1159 525 
z
M 3116 1747 
Q 3116 2381 2855 2742 
Q 2594 3103 2138 3103 
Q 1681 3103 1420 2742 
Q 1159 2381 1159 1747 
Q 1159 1113 1420 752 
Q 1681 391 2138 391 
Q 2594 391 2855 752 
Q 3116 1113 3116 1747 
z
" transform="scale(0.015625)"/>
       <path id="DejaVuSans-72" d="M 2631 2963 
Q 2534 3019 2420 3045 
Q 2306 3072 2169 3072 
Q 1681 3072 1420 2755 
Q 1159 2438 1159 1844 
L 1159 0 
L 581 0 
L 581 3500 
L 1159 3500 
L 1159 2956 
Q 1341 3275 1631 3429 
Q 1922 3584 2338 3584 
Q 2397 3584 2469 3576 
Q 2541 3569 2628 3553 
L 2631 2963 
z
" transform="scale(0.015625)"/>
       <path id="DejaVuSans-53" d="M 3425 4513 
L 3425 3897 
Q 3066 4069 2747 4153 
Q 2428 4238 2131 4238 
Q 1616 4238 1336 4038 
Q 1056 3838 1056 3469 
Q 1056 3159 1242 3001 
Q 1428 2844 1947 2747 
L 2328 2669 
Q 3034 2534 3370 2195 
Q 3706 1856 3706 1288 
Q 3706 609 3251 259 
Q 2797 -91 1919 -91 
Q 1588 -91 1214 -16 
Q 841 59 441 206 
L 441 856 
Q 825 641 1194 531 
Q 1563 422 1919 422 
Q 2459 422 2753 634 
Q 3047 847 3047 1241 
Q 3047 1584 2836 1778 
Q 2625 1972 2144 2069 
L 1759 2144 
Q 1053 2284 737 2584 
Q 422 2884 422 3419 
Q 422 4038 858 4394 
Q 1294 4750 2059 4750 
Q 2388 4750 2728 4690 
Q 3069 4631 3425 4513 
z
" transform="scale(0.015625)"/>
       <path id="DejaVuSans-6f" d="M 1959 3097 
Q 1497 3097 1228 2736 
Q 959 2375 959 1747 
Q 959 1119 1226 758 
Q 1494 397 1959 397 
Q 2419 397 2687 759 
Q 2956 1122 2956 1747 
Q 2956 2369 2687 2733 
Q 2419 3097 1959 3097 
z
M 1959 3584 
Q 2709 3584 3137 3096 
Q 3566 2609 3566 1747 
Q 3566 888 3137 398 
Q 2709 -91 1959 -91 
Q 1206 -91 779 398 
Q 353 888 353 1747 
Q 353 2609 779 3096 
Q 1206 3584 1959 3584 
z
" transform="scale(0.015625)"/>
       <path id="DejaVuSans-6e" d="M 3513 2113 
L 3513 0 
L 2938 0 
L 2938 2094 
Q 2938 2591 2744 2837 
Q 2550 3084 2163 3084 
Q 1697 3084 1428 2787 
Q 1159 2491 1159 1978 
L 1159 0 
L 581 0 
L 581 3500 
L 1159 3500 
L 1159 2956 
Q 1366 3272 1645 3428 
Q 1925 3584 2291 3584 
Q 2894 3584 3203 3211 
Q 3513 2838 3513 2113 
z
" transform="scale(0.015625)"/>
       <path id="DejaVuSans-64" d="M 2906 2969 
L 2906 4863 
L 3481 4863 
L 3481 0 
L 2906 0 
L 2906 525 
Q 2725 213 2448 61 
Q 2172 -91 1784 -91 
Q 1150 -91 751 415 
Q 353 922 353 1747 
Q 353 2572 751 3078 
Q 1150 3584 1784 3584 
Q 2172 3584 2448 3432 
Q 2725 3281 2906 2969 
z
M 947 1747 
Q 947 1113 1208 752 
Q 1469 391 1925 391 
Q 2381 391 2643 752 
Q 2906 1113 2906 1747 
Q 2906 2381 2643 2742 
Q 2381 3103 1925 3103 
Q 1469 3103 1208 2742 
Q 947 2381 947 1747 
z
" transform="scale(0.015625)"/>
      </defs>
      <use xlink:href="#DejaVuSans-50"/>
      <use xlink:href="#DejaVuSans-61" x="55.802734"/>
      <use xlink:href="#DejaVuSans-63" x="117.082031"/>
      <use xlink:href="#DejaVuSans-6b" x="172.0625"/>
      <use xlink:href="#DejaVuSans-65" x="226.347656"/>
      <use xlink:href="#DejaVuSans-74" x="287.871094"/>
      <use xlink:href="#DejaVuSans-73" x="327.080078"/>
      <use xlink:href="#DejaVuSans-20" x="379.179688"/>
      <use xlink:href="#DejaVuSans-70" x="410.966797"/>
      <use xlink:href="#DejaVuSans-65" x="474.443359"/>
      <use xlink:href="#DejaVuSans-72" x="535.966797"/>
      <use xlink:href="#DejaVuSans-20" x="577.080078"/>
      <use xlink:href="#DejaVuSans-53" x="608.867188"/>
      <use xlink:href="#DejaVuSans-65" x="672.34375"/>
      <use xlink:href="#DejaVuSans-63" x="733.867188"/>
      <use xlink:href="#DejaVuSans-6f" x="788.847656"/>
      <use xlink:href="#DejaVuSans-6e" x="850.029297"/>
      <use xlink:href="#DejaVuSans-64" x="913.408203"/>
     </g>
    </g>
   </g>
   <g id="line2d_15">
    <path d="M 64.150839 46.947913 
L 64.912291 46.74346 
L 65.673606 46.60489 
L 66.054349 46.793508 
L 66.434833 46.377715 
L 66.815509 46.687143 
L 67.576876 46.692614 
L 67.957726 46.967209 
L 68.338406 46.692798 
L 68.719068 46.663259 
L 69.099565 46.399545 
L 69.861078 46.964347 
L 70.241602 46.441933 
L 70.622509 47.059174 
L 71.383598 46.282824 
L 71.764264 46.670768 
L 73.28695 46.665499 
L 74.048528 46.955599 
L 74.429216 46.705372 
L 74.80963 46.265673 
L 75.190283 46.649508 
L 76.332309 46.633571 
L 81.66165 46.721305 
L 82.042514 46.989309 
L 82.423189 46.685381 
L 82.803815 46.605698 
L 83.184311 46.39666 
L 83.564971 46.661717 
L 85.468312 46.68305 
L 88.132926 46.652409 
L 88.89427 46.675413 
L 89.274917 46.638547 
L 89.655627 46.741294 
L 90.416977 46.694395 
L 90.797642 46.668032 
L 91.178546 47.054426 
L 91.558969 46.278835 
L 91.939646 46.687657 
L 93.081634 46.671924 
L 93.462533 47.044341 
L 93.843139 46.573947 
L 94.223623 46.376906 
L 94.604531 47.059615 
L 94.984936 46.251738 
L 95.365626 46.707997 
L 96.507637 46.659036 
L 96.888554 47.074502 
L 97.268972 46.271629 
L 97.649631 46.65777 
L 98.791629 46.675486 
L 99.172462 46.938706 
L 99.552957 46.396293 
L 99.933627 46.67589 
L 101.456284 46.666766 
L 101.837146 46.986154 
L 102.21761 46.345077 
L 102.598496 47.023803 
L 103.359645 46.350921 
L 103.740304 46.659367 
L 104.501645 46.700636 
L 104.882524 47.013094 
L 105.263114 46.547648 
L 105.643602 46.383742 
L 106.024277 46.685032 
L 107.166269 46.674183 
L 107.547177 47.059651 
L 108.308347 46.365972 
L 108.689237 47.03024 
L 109.069657 46.274809 
L 109.450333 46.686152 
L 110.592294 46.613263 
L 110.973197 47.050098 
L 111.353627 46.291426 
L 111.734522 47.038051 
L 112.114942 46.27468 
L 112.495606 46.668253 
L 112.876261 46.653345 
L 113.257253 47.194002 
L 113.637585 46.133048 
L 114.018263 46.688612 
L 115.160245 46.653051 
L 115.921595 46.703353 
L 116.302438 46.954718 
L 116.683077 46.627897 
L 117.825142 46.783029 
L 118.205748 46.573837 
L 118.586332 46.537712 
L 119.347902 46.928709 
L 119.72833 46.287327 
L 120.108984 46.650903 
L 121.631635 46.672237 
L 122.012515 47.013974 
L 122.773618 46.292474 
L 123.154444 46.928085 
L 123.53492 46.36487 
L 124.296465 47.013699 
L 124.677168 46.730189 
L 125.057558 46.226331 
L 125.819127 47.038143 
L 126.19954 46.264846 
L 126.580194 46.651252 
L 127.341529 46.69713 
L 127.722336 46.896019 
L 128.103008 46.680021 
L 128.483667 46.66023 
L 128.86415 46.375124 
L 129.244826 46.687841 
L 130.006151 46.660597 
L 130.386969 46.914988 
L 130.767644 46.685454 
L 131.528945 46.625914 
L 131.909443 46.399692 
L 132.290096 46.649489 
L 133.051461 46.738981 
L 133.432207 46.800389 
L 133.812876 46.675174 
L 134.19337 46.393481 
L 134.574025 46.653565 
L 135.71602 46.693605 
L 136.096847 46.930084 
L 136.477516 46.674513 
L 137.238827 46.636123 
L 137.619324 46.399012 
L 137.999969 46.63649 
L 138.761295 46.67231 
L 139.142094 46.885324 
L 139.522752 46.65687 
L 139.903405 46.649746 
L 140.283901 46.397046 
L 140.664556 46.6525 
L 141.425871 46.649563 
L 141.806677 46.895487 
L 142.187365 46.705574 
L 142.948693 46.661662 
L 143.329164 46.357078 
L 143.709989 46.925755 
L 144.090488 46.402926 
L 144.851972 46.90554 
L 145.613125 46.421264 
L 145.993782 46.655603 
L 147.135754 46.643302 
L 147.516531 46.848337 
L 148.277878 46.654281 
L 148.658531 46.648755 
L 149.039022 46.389898 
L 149.419679 46.656117 
L 150.180999 46.654961 
L 150.561808 46.899927 
L 150.942456 46.641705 
L 151.323122 46.670878 
L 151.703611 46.386554 
L 152.084252 46.630505 
L 152.845586 46.679396 
L 153.226395 46.900679 
L 153.60706 46.668877 
L 154.368363 46.643853 
L 154.748859 46.396715 
L 155.129688 46.932763 
L 155.510192 46.410405 
L 155.890992 46.884608 
L 156.271632 46.629256 
L 157.032943 46.669061 
L 157.41342 46.366873 
L 157.794078 46.656999 
L 158.174737 46.659055 
L 158.555562 46.926214 
L 159.316723 46.392416 
L 159.697552 46.932854 
L 160.078172 46.596278 
L 160.458681 46.41882 
L 160.839331 46.644808 
L 161.219992 46.661588 
L 161.600814 46.921646 
L 162.362229 46.690026 
L 162.742689 46.33756 
L 163.123318 46.61218 
L 164.265299 46.658155 
L 164.646198 47.044011 
L 165.026809 46.582891 
L 165.407323 46.426298 
L 165.788163 46.949894 
L 166.168574 46.260084 
L 166.549458 47.020961 
L 166.929884 46.28378 
L 167.310529 46.637298 
L 167.691189 46.660065 
L 168.07202 46.936761 
L 168.452521 46.404947 
L 168.833156 46.62092 
L 169.594479 46.656742 
L 169.975134 46.653033 
L 170.356035 47.047788 
L 170.736455 46.274754 
L 171.117343 47.027654 
L 171.878421 46.253099 
L 172.259085 46.668546 
L 173.40102 46.663388 
L 173.781837 46.913227 
L 174.162336 46.40096 
L 174.542994 46.657494 
L 175.684937 46.637849 
L 176.065835 47.043314 
L 176.446249 46.263761 
L 177.20779 47.044249 
L 177.588283 46.391791 
L 177.968953 46.676881 
L 179.110886 46.673522 
L 179.491774 47.027214 
L 179.872194 46.274074 
L 180.252844 46.645212 
L 181.394804 46.654006 
L 181.775657 46.972197 
L 182.156068 46.260011 
L 182.536724 46.654869 
L 184.059336 46.645083 
L 184.440151 46.911044 
L 184.820657 46.41261 
L 185.20154 47.018504 
L 185.581971 46.293136 
L 185.962717 46.799729 
L 186.343284 46.511355 
L 186.723947 46.665077 
L 187.865891 46.664985 
L 190.149768 46.617872 
L 190.530676 47.059596 
L 191.29177 46.300819 
L 191.672426 46.655658 
L 193.195011 46.57369 
L 193.575681 46.677304 
L 195.098278 46.636931 
L 195.478928 46.644257 
L 195.859834 47.056076 
L 196.620897 46.25411 
L 197.001568 46.678515 
L 198.14354 46.658963 
L 198.524194 46.652005 
L 198.905095 47.04821 
L 199.285498 46.246683 
L 199.666144 46.639281 
L 201.18873 46.633901 
L 201.569552 46.919885 
L 202.330915 46.633553 
L 202.71132 46.250948 
L 203.091962 46.631772 
L 204.233973 46.696285 
L 204.614854 47.016212 
L 204.995274 46.274699 
L 205.37592 46.637996 
L 207.279133 46.583148 
L 207.659991 46.979717 
L 208.04069 46.723177 
L 208.421097 46.253852 
L 208.801751 46.650958 
L 210.324342 46.638216 
L 210.705166 46.924802 
L 211.085682 46.429862 
L 211.847047 46.753701 
L 212.227628 46.534461 
L 212.988989 46.748562 
L 213.369567 46.529429 
L 213.750218 46.646827 
L 215.65345 46.614346 
L 216.034326 47.007189 
L 216.414744 46.272585 
L 216.795636 47.033339 
L 217.17603 46.233133 
L 217.556706 46.685638 
L 220.601878 46.613428 
L 220.982537 46.658761 
L 221.363405 46.996021 
L 222.124476 46.274276 
L 222.505121 46.635939 
L 224.789037 46.658155 
L 225.169858 46.919298 
L 225.550329 46.3566 
L 225.930978 46.643779 
L 226.692278 46.664911 
L 227.073079 46.887654 
L 227.453553 46.361507 
L 227.834213 46.662176 
L 228.976146 46.651325 
L 230.118067 46.60164 
L 230.498967 47.046064 
L 230.879395 46.287217 
L 231.260051 46.654428 
L 232.402 46.644385 
L 232.782795 46.878169 
L 233.543929 46.38207 
L 233.924759 46.933129 
L 234.30524 46.373103 
L 234.68589 46.645762 
L 235.827849 46.665499 
L 236.208742 47.035393 
L 236.969785 46.250507 
L 237.350644 46.980542 
L 237.731125 46.373323 
L 238.492646 46.990501 
L 239.253703 46.262768 
L 239.634607 47.052262 
L 240.015019 46.262437 
L 240.395652 46.616623 
L 241.537577 46.5967 
L 241.91848 47.050153 
L 242.298899 46.274331 
L 242.679552 46.648663 
L 244.202128 46.601493 
L 244.583006 47.010729 
L 244.963406 46.242362 
L 245.344053 46.64075 
L 246.866625 46.614181 
L 247.247416 46.870885 
L 247.6279 46.378597 
L 248.008706 46.895304 
L 248.389181 46.363638 
L 248.769839 46.657641 
L 249.911809 46.68942 
L 250.292665 46.975334 
L 250.673073 46.255985 
L 251.053947 47.005099 
L 251.434374 46.285121 
L 251.815027 46.651013 
L 253.33759 46.654851 
L 253.718399 46.900349 
L 254.098897 46.399894 
L 254.479531 46.619433 
L 255.240824 46.656485 
L 255.621695 46.999927 
L 256.002098 46.245947 
L 256.763678 47.082973 
L 257.144104 46.283963 
L 257.524729 46.604835 
L 258.666674 46.649508 
L 260.189248 46.638694 
L 260.950544 46.639373 
L 261.331401 46.976434 
L 261.711992 46.550366 
L 262.092461 46.353255 
L 262.47328 46.917409 
L 262.853746 46.347613 
L 263.234396 46.645854 
L 263.9957 46.623197 
L 264.376321 46.597783 
L 264.757217 47.040985 
L 265.137689 46.358566 
L 265.898934 46.655603 
L 266.660242 46.656962 
L 267.04107 46.930378 
L 267.42166 46.548548 
L 267.802165 46.412169 
L 268.182807 46.631349 
L 269.324746 46.646772 
L 269.705615 46.995507 
L 270.466695 46.273357 
L 270.847556 46.984063 
L 271.227971 46.266335 
L 271.608596 46.604743 
L 272.369886 46.64501 
L 272.75078 47.036181 
L 273.131177 46.238704 
L 273.511827 46.644808 
L 275.03442 46.637629 
L 275.415308 47.028681 
L 275.795709 46.243043 
L 276.17661 47.048961 
L 276.557181 46.518004 
L 276.937676 46.394106 
L 277.699053 46.799288 
L 278.079602 46.482828 
L 278.460466 46.98841 
L 278.840871 46.251187 
L 279.60242 47.045588 
L 279.982818 46.239513 
L 280.363468 46.645762 
L 280.744109 46.629587 
L 281.124974 46.990996 
L 281.886059 46.25229 
L 282.266854 46.87793 
L 282.647352 46.401622 
L 283.027988 46.621838 
L 284.169901 46.592458 
L 284.550732 46.934927 
L 284.931191 46.338351 
L 285.311835 46.634746 
L 286.453749 46.62338 
L 286.834635 47.023235 
L 287.215042 46.254588 
L 287.59592 47.01137 
L 288.357016 46.291959 
L 288.737658 46.632506 
L 289.498942 46.640126 
L 289.879811 46.997011 
L 290.260371 46.500572 
L 290.640862 46.388649 
L 291.021503 46.631257 
L 292.163422 46.623178 
L 292.544301 47.012049 
L 292.924716 46.267677 
L 293.686173 46.906916 
L 294.066641 46.352483 
L 294.447283 46.632084 
L 295.208579 46.619157 
L 295.589359 46.853217 
L 295.970107 46.802133 
L 296.350498 46.229089 
L 296.731139 46.630596 
L 297.873076 46.633828 
L 298.253925 46.964549 
L 298.634339 46.264662 
L 299.015242 47.051473 
L 299.395647 46.250378 
L 299.776375 46.770384 
L 300.53765 46.5949 
L 300.918308 46.656962 
L 301.299158 46.966182 
L 301.679581 46.28036 
L 302.060418 46.945125 
L 302.440895 46.365825 
L 302.821521 46.606873 
L 303.582815 46.630486 
L 303.963688 47.003191 
L 304.344103 46.266096 
L 305.105626 47.017367 
L 305.486034 46.25536 
L 305.866676 46.632286 
L 306.627949 46.638069 
L 307.008822 47.002861 
L 307.389239 46.269405 
L 307.770119 47.014323 
L 308.15056 46.308778 
L 308.531194 46.61991 
L 309.292491 46.628705 
L 309.673091 46.564655 
L 310.053753 46.66381 
L 310.434578 46.925279 
L 310.815264 46.704069 
L 311.195686 46.276684 
L 311.576325 46.62843 
L 312.337609 46.637574 
L 312.718474 46.989822 
L 313.098882 46.255672 
L 313.479522 46.629807 
L 316.144123 46.780551 
L 316.524911 46.865932 
L 316.905312 46.243851 
L 317.285947 46.621232 
L 320.331089 46.652537 
L 320.711722 46.618515 
L 321.092588 46.991106 
L 321.47302 46.29422 
L 321.853907 47.026554 
L 322.234312 46.249275 
L 322.614962 46.645762 
L 323.756863 46.610949 
L 324.898796 46.638271 
L 326.421375 46.640695 
L 326.802217 46.952682 
L 327.18264 46.280691 
L 327.563468 46.930983 
L 327.944192 46.763777 
L 328.324608 46.26718 
L 328.705257 46.644294 
L 330.22782 46.623178 
L 332.131062 46.642751 
L 332.511912 46.96675 
L 332.892355 46.311388 
L 333.27325 47.03862 
L 333.65365 46.241351 
L 334.034296 46.638345 
L 335.176253 46.650334 
L 335.556897 46.634801 
L 335.937704 46.898239 
L 336.318187 46.375822 
L 336.698835 46.640713 
L 337.840773 46.637206 
L 338.221675 47.048796 
L 338.602061 46.220061 
L 338.982699 46.625621 
L 340.505256 46.639612 
L 340.886117 46.984632 
L 341.266531 46.264919 
L 341.647403 47.001798 
L 342.027809 46.251554 
L 342.408459 46.644753 
L 343.169726 46.638528 
L 343.550369 46.632579 
L 343.931162 46.874903 
L 344.692307 46.384551 
L 345.07319 47.018045 
L 345.453589 46.242344 
L 345.834228 46.625584 
L 346.976146 46.646974 
L 347.35703 47.020759 
L 347.73745 46.275802 
L 348.118093 46.632837 
L 349.260028 46.638326 
L 349.640902 47.004255 
L 350.021305 46.248631 
L 350.40194 46.619506 
L 354.969651 46.628779 
L 355.350509 46.978396 
L 355.73109 46.534939 
L 356.111573 46.375822 
L 356.492213 46.62876 
L 358.395383 46.620498 
L 358.77626 47.009353 
L 359.156746 46.380582 
L 359.918218 46.946153 
L 360.298773 46.49102 
L 360.67943 46.65698 
L 361.060292 46.985934 
L 361.440878 46.541 
L 361.821359 46.37222 
L 362.20199 46.615779 
L 364.105177 46.640291 
L 364.486046 46.99813 
L 364.866468 46.277769 
L 365.247101 46.616164 
L 365.627827 46.768053 
L 366.008387 46.499525 
L 366.76969 46.686758 
L 367.150358 46.672916 
L 367.531149 46.87195 
L 368.292322 46.44276 
L 368.673088 46.830392 
L 369.053723 46.6207 
L 369.434425 46.728849 
L 369.814995 46.515139 
L 370.576287 46.65922 
L 372.479481 46.598169 
L 374.002086 46.693587 
L 374.763355 46.620736 
L 375.905248 46.641741 
L 377.808418 46.583184 
L 378.569709 46.630119 
L 381.61483 46.615944 
L 383.137416 46.659991 
L 383.898679 46.632396 
L 387.705112 46.659165 
L 389.227651 46.587298 
L 391.511504 46.649232 
L 392.653389 46.638492 
L 395.698525 46.628118 
L 398.363014 46.649232 
L 398.743638 46.603715 
L 399.124309 46.677964 
L 399.885575 46.612529 
L 400.266238 46.665187 
L 400.646845 46.575508 
L 401.408132 46.63649 
L 403.691922 46.580852 
L 404.833853 46.645395 
L 406.737037 46.634434 
L 408.259608 46.646735 
L 410.16278 46.618423 
L 410.543462 46.696542 
L 411.304737 46.618037 
L 411.685408 46.678166 
L 412.066015 46.576059 
L 412.827307 46.637482 
L 418.156261 46.637243 
L 418.536937 46.685932 
L 419.298196 46.60735 
L 420.440159 46.688263 
L 420.820765 46.573029 
L 421.201453 46.706272 
L 421.581902 46.321221 
L 421.962729 46.928764 
L 422.723968 46.472926 
L 423.104702 46.779303 
L 423.485301 46.562855 
L 423.865995 46.716955 
L 424.246584 46.545885 
L 425.007877 46.653786 
L 427.291701 46.597306 
L 428.814261 46.647635 
L 429.194868 46.575637 
L 430.336791 46.61677 
L 437.949521 46.654538 
L 440.233429 46.669005 
L 440.614029 46.564067 
L 441.375319 46.634691 
L 444.420388 46.619304 
L 445.181689 46.62294 
L 446.704213 46.633883 
L 447.465525 46.632139 
L 452.41381 46.618092 
L 453.936365 46.632065 
L 456.220201 46.649838 
L 456.600936 46.780239 
L 456.981468 46.455069 
L 457.362107 46.628044 
L 457.742711 46.570366 
L 458.884649 46.653327 
L 459.645913 46.632616 
L 461.549076 46.617817 
L 462.310376 46.617615 
L 465.736119 46.616825 
L 470.68441 46.613961 
L 471.065078 46.674403 
L 471.826329 46.594643 
L 472.20699 46.662561 
L 473.348878 46.599289 
L 474.490788 46.650995 
L 474.871393 46.573286 
L 476.013413 46.78046 
L 476.393936 46.441952 
L 476.774579 46.633332 
L 477.155001 46.277456 
L 477.535815 46.907888 
L 477.916468 46.650077 
L 478.29705 46.535196 
L 478.677719 46.675027 
L 479.819606 46.580797 
L 480.200246 46.628779 
L 480.580833 46.54302 
L 481.342116 46.632855 
L 489.716043 46.618772 
L 493.903027 46.6272 
L 501.515664 46.594552 
L 502.657582 46.631 
L 503.799444 46.604725 
L 504.56076 46.64758 
L 507.225193 46.619084 
L 508.367111 46.619928 
L 509.128343 46.615099 
L 513.695937 46.614144 
L 514.07635 46.263982 
L 514.457122 46.841309 
L 514.837748 46.605331 
L 515.97965 46.61879 
L 516.360126 46.364833 
L 516.740752 46.606524 
L 517.121385 46.617376 
L 517.502173 46.866446 
L 517.882657 46.37834 
L 518.263399 46.791379 
L 518.643907 46.41667 
L 519.024536 46.612143 
L 519.785788 46.605992 
L 520.166591 46.890296 
L 520.547219 46.608562 
L 521.308483 46.607002 
L 521.688939 46.333002 
L 522.069562 46.601621 
L 522.45023 46.67332 
L 522.830848 46.594258 
L 523.211638 46.869032 
L 523.592281 46.633222 
L 523.972921 46.629991 
L 524.353369 46.319714 
L 524.734009 46.627402 
L 525.49526 46.600097 
L 525.876024 46.827859 
L 526.256668 46.634397 
L 527.01802 46.691568 
L 527.398445 46.283008 
L 527.77907 46.60388 
L 528.540327 46.595323 
L 528.92114 46.906678 
L 529.30159 46.323261 
L 529.682392 46.889635 
L 530.062837 46.313741 
L 530.443479 46.632102 
L 531.965976 46.609995 
L 532.346816 46.951105 
L 532.727248 46.293834 
L 533.107889 46.629935 
L 534.249782 46.62092 
L 534.63062 46.946593 
L 535.011276 46.655034 
L 535.772335 46.35671 
L 536.152964 46.611372 
L 537.294934 46.732484 
L 537.67547 46.46093 
L 538.056327 46.976837 
L 538.817366 46.250874 
L 539.197997 46.613704 
L 539.578624 46.607699 
L 539.959433 46.899909 
L 540.340052 46.594974 
L 541.101311 46.604008 
L 541.481765 46.32997 
L 542.243229 46.937165 
L 542.623785 46.492747 
L 543.004607 46.922637 
L 543.385239 46.614604 
L 544.146504 46.626943 
L 544.526977 46.359981 
L 544.907636 46.659532 
L 545.288278 46.631313 
L 545.669046 46.835566 
L 546.049699 46.648682 
L 546.810951 46.621397 
L 547.191411 46.33824 
L 547.572037 46.606524 
L 548.33331 46.612676 
L 548.714085 46.844997 
L 549.094728 46.63381 
L 549.855989 46.606579 
L 550.236474 46.379736 
L 550.617114 46.628724 
L 550.997753 46.626796 
L 551.378505 46.809088 
L 551.759219 46.747828 
L 552.139641 46.278559 
L 552.520478 46.945089 
L 552.900901 46.279 
L 553.662372 46.943126 
L 554.042806 46.297437 
L 554.423417 46.581862 
L 554.804048 46.614034 
L 555.18489 46.953563 
L 555.565328 46.304238 
L 555.945943 46.587169 
L 556.707235 46.65821 
L 557.087997 46.824502 
L 557.46865 46.64971 
L 557.849098 46.320192 
L 558.229918 46.917996 
L 558.610363 46.314733 
L 558.991002 46.627438 
L 560.132868 46.580577 
L 560.513704 46.943658 
L 561.274776 46.272713 
L 561.65541 46.619837 
L 563.178139 46.673577 
L 563.558564 46.282162 
L 563.939369 46.894038 
L 564.31981 46.309311 
L 564.700451 46.629274 
L 565.461703 46.614732 
L 565.842544 46.952591 
L 566.222975 46.292823 
L 566.603607 46.615393 
L 568.126119 46.630303 
L 568.506896 46.849126 
L 568.887542 46.63772 
L 570.029462 46.613961 
L 594.77045 46.603421 
L 595.150906 46.333021 
L 595.531735 46.932542 
L 596.292803 46.302455 
L 596.673639 46.94397 
L 597.054229 46.548107 
L 597.815498 46.619727 
L 599.338013 46.607571 
L 604.666805 46.62171 
L 606.189332 46.609223 
L 614.563111 46.607663 
L 615.324388 46.598279 
L 621.033795 46.605477 
L 621.795085 46.62013 
L 624.078852 46.621838 
L 626.74325 46.624243 
L 627.123978 46.770366 
L 627.504616 46.625437 
L 635.117149 46.607956 
L 635.497581 46.293154 
L 635.878419 46.948134 
L 636.25904 46.597894 
L 637.781534 46.594331 
L 638.542791 46.609921 
L 638.92322 46.288743 
L 639.304079 46.981423 
L 639.684694 46.588161 
L 640.826591 46.593817 
L 641.968474 46.599932 
L 642.348937 46.344305 
L 642.729718 46.855584 
L 643.11034 46.599069 
L 645.013494 46.625841 
L 645.394087 46.552332 
L 646.155389 46.648975 
L 646.536001 46.583644 
L 646.916646 46.636362 
L 647.677884 46.61464 
L 650.342281 46.667904 
L 651.103509 46.588455 
L 651.484162 46.648957 
L 652.245406 46.61139 
L 653.006687 46.608489 
L 654.909787 46.609407 
L 655.290294 46.415476 
L 655.671037 46.794627 
L 656.051677 46.628356 
L 656.432114 46.301554 
L 656.812912 46.883581 
L 657.193575 46.664618 
L 657.574276 46.727326 
L 657.954831 46.492086 
L 658.335461 46.612327 
L 662.522376 46.574149 
L 663.283647 46.614548 
L 663.664254 46.576243 
L 664.044684 46.291371 
L 664.425342 46.656393 
L 664.805949 46.576849 
L 665.186724 46.846098 
L 665.567371 46.638785 
L 665.948014 46.634654 
L 666.328467 46.327121 
L 666.709112 46.636252 
L 667.08973 46.593542 
L 667.470414 46.700342 
L 667.851054 46.62832 
L 668.231873 46.916969 
L 668.612301 46.286371 
L 668.993126 46.926122 
L 669.373718 46.55268 
L 669.754188 46.354854 
L 670.134798 46.579732 
L 670.896025 46.553617 
L 671.276833 46.898991 
L 671.657461 46.609554 
L 672.038093 46.616164 
L 672.418562 46.352704 
L 672.799182 46.596755 
L 673.179835 46.649343 
L 673.560446 46.583295 
L 673.941271 46.92504 
L 674.321706 46.299771 
L 674.702546 46.948941 
L 675.463593 46.266427 
L 675.844234 46.630303 
L 676.224865 46.61352 
L 676.605673 46.898753 
L 676.986093 46.27457 
L 677.366943 46.96708 
L 677.747353 46.257786 
L 678.127974 46.598573 
L 679.269898 46.621801 
L 679.65069 46.873105 
L 680.031155 46.347246 
L 680.411964 46.899303 
L 680.792418 46.330025 
L 681.17305 46.614989 
L 681.934307 46.606983 
L 682.315118 46.902825 
L 682.695754 46.622371 
L 683.076375 46.599344 
L 683.456829 46.328775 
L 683.837448 46.594827 
L 684.979343 46.595323 
L 685.360178 46.942594 
L 685.740618 46.305672 
L 686.121235 46.592476 
L 688.405012 46.619947 
L 688.785856 46.957414 
L 689.16628 46.280011 
L 689.546912 46.617211 
L 690.688827 46.624941 
L 691.069654 46.929461 
L 691.450076 46.277658 
L 691.830909 46.939458 
L 692.211344 46.298889 
L 692.591977 46.618092 
L 693.733826 46.573653 
L 694.114667 46.951288 
L 694.875722 46.263228 
L 695.256342 46.596076 
L 696.398243 46.624904 
L 696.779077 46.940136 
L 697.159489 46.261151 
L 697.540273 46.860391 
L 697.920736 46.343699 
L 698.301372 46.623564 
L 699.062627 46.581807 
L 699.443401 46.844667 
L 699.824021 46.596773 
L 700.585299 46.64444 
L 700.96576 46.340666 
L 701.346544 46.860244 
L 701.727016 46.359412 
L 702.488409 46.82096 
L 702.868893 46.376557 
L 703.249691 46.882792 
L 703.630134 46.311994 
L 704.01077 46.622499 
L 704.391409 46.62663 
L 704.772205 46.880334 
L 705.152835 46.61262 
L 706.294745 46.62338 
L 706.675192 46.319016 
L 707.055823 46.613245 
L 707.817074 46.60287 
L 708.197836 46.825401 
L 709.339559 46.314568 
L 709.720207 46.641393 
L 710.481468 46.614181 
L 710.862263 46.878499 
L 711.242896 46.616862 
L 712.004177 46.64534 
L 712.384641 46.345004 
L 712.765265 46.603329 
L 713.145914 46.642659 
L 713.526671 46.818189 
L 713.907301 46.611372 
L 714.668574 46.602778 
L 715.049042 46.35116 
L 715.429666 46.603917 
L 716.571541 46.601401 
L 716.952319 46.850814 
L 717.713416 46.357647 
L 718.09404 46.602595 
L 719.236096 46.831071 
L 719.616725 46.611225 
L 720.377994 46.602723 
L 720.75845 46.332745 
L 721.139311 46.98311 
L 721.519954 46.633185 
L 723.042459 46.593468 
L 724.564985 46.620094 
L 725.32623 46.620993 
L 728.751907 46.601548 
L 729.132623 46.751499 
L 729.513264 46.630486 
L 729.893958 46.715762 
L 730.655201 46.568383 
L 731.797115 46.638547 
L 732.939008 46.606506 
L 734.080918 46.615926 
L 736.364653 46.559347 
L 737.506557 46.633516 
L 737.887168 46.581954 
L 738.267829 46.663516 
L 739.028999 46.462932 
L 739.409704 46.734191 
L 739.790325 46.597875 
L 742.074092 46.561422 
L 742.454827 46.781634 
L 742.835362 46.459993 
L 743.216007 46.636454 
L 744.357891 46.604541 
L 745.119181 46.624501 
L 745.499812 46.615118 
L 745.880535 46.762272 
L 746.261073 46.464384 
L 746.641693 46.597031 
L 753.112379 46.603806 
L 754.254237 46.604137 
L 760.344326 46.600611 
L 760.344326 46.600611 
" clip-path="url(#pcf12e4c0d2)" style="fill: none; stroke: #1f77b4; stroke-width: 1.5; stroke-linecap: square"/>
   </g>
   <g id="line2d_16">
    <path d="M 63.77 46.631436 
L 795.154 46.631436 
" clip-path="url(#pcf12e4c0d2)" style="fill: none; stroke-dasharray: 5.55,2.4; stroke-dashoffset: 0; stroke: #0000ff; stroke-width: 1.5"/>
   </g>
   <g id="patch_3">
    <path d="M 63.77 658.84 
L 63.77 46.08 
" style="fill: none; stroke: #000000; stroke-width: 0.8; stroke-linejoin: miter; stroke-linecap: square"/>
   </g>
   <g id="patch_4">
    <path d="M 795.154 658.84 
L 795.154 46.08 
" style="fill: none; stroke: #000000; stroke-width: 0.8; stroke-linejoin: miter; stroke-linecap: square"/>
   </g>
   <g id="patch_5">
    <path d="M 63.77 658.84 
L 795.154 658.84 
" style="fill: none; stroke: #000000; stroke-width: 0.8; stroke-linejoin: miter; stroke-linecap: square"/>
   </g>
   <g id="patch_6">
    <path d="M 63.77 46.08 
L 795.154 46.08 
" style="fill: none; stroke: #000000; stroke-width: 0.8; stroke-linejoin: miter; stroke-linecap: square"/>
   </g>
   <g id="text_17">
    <!-- Packet Rate from Timestamps (SelectionProcess: 16777217) -->
    <g transform="translate(248.322 40.08) scale(0.12 -0.12)">
     <defs>
      <path id="DejaVuSans-52" d="M 2841 2188 
Q 3044 2119 3236 1894 
Q 3428 1669 3622 1275 
L 4263 0 
L 3584 0 
L 2988 1197 
Q 2756 1666 2539 1819 
Q 2322 1972 1947 1972 
L 1259 1972 
L 1259 0 
L 628 0 
L 628 4666 
L 2053 4666 
Q 2853 4666 3247 4331 
Q 3641 3997 3641 3322 
Q 3641 2881 3436 2590 
Q 3231 2300 2841 2188 
z
M 1259 4147 
L 1259 2491 
L 2053 2491 
Q 2509 2491 2742 2702 
Q 2975 2913 2975 3322 
Q 2975 3731 2742 3939 
Q 2509 4147 2053 4147 
L 1259 4147 
z
" transform="scale(0.015625)"/>
      <path id="DejaVuSans-66" d="M 2375 4863 
L 2375 4384 
L 1825 4384 
Q 1516 4384 1395 4259 
Q 1275 4134 1275 3809 
L 1275 3500 
L 2222 3500 
L 2222 3053 
L 1275 3053 
L 1275 0 
L 697 0 
L 697 3053 
L 147 3053 
L 147 3500 
L 697 3500 
L 697 3744 
Q 697 4328 969 4595 
Q 1241 4863 1831 4863 
L 2375 4863 
z
" transform="scale(0.015625)"/>
      <path id="DejaVuSans-6c" d="M 603 4863 
L 1178 4863 
L 1178 0 
L 603 0 
L 603 4863 
z
" transform="scale(0.015625)"/>
      <path id="DejaVuSans-3a" d="M 750 794 
L 1409 794 
L 1409 0 
L 750 0 
L 750 794 
z
M 750 3309 
L 1409 3309 
L 1409 2516 
L 750 2516 
L 750 3309 
z
" transform="scale(0.015625)"/>
      <path id="DejaVuSans-37" d="M 525 4666 
L 3525 4666 
L 3525 4397 
L 1831 0 
L 1172 0 
L 2766 4134 
L 525 4134 
L 525 4666 
z
" transform="scale(0.015625)"/>
     </defs>
     <use xlink:href="#DejaVuSans-50"/>
     <use xlink:href="#DejaVuSans-61" x="55.802734"/>
     <use xlink:href="#DejaVuSans-63" x="117.082031"/>
     <use xlink:href="#DejaVuSans-6b" x="172.0625"/>
     <use xlink:href="#DejaVuSans-65" x="226.347656"/>
     <use xlink:href="#DejaVuSans-74" x="287.871094"/>
     <use xlink:href="#DejaVuSans-20" x="327.080078"/>
     <use xlink:href="#DejaVuSans-52" x="358.867188"/>
     <use xlink:href="#DejaVuSans-61" x="426.099609"/>
     <use xlink:href="#DejaVuSans-74" x="487.378906"/>
     <use xlink:href="#DejaVuSans-65" x="526.587891"/>
     <use xlink:href="#DejaVuSans-20" x="588.111328"/>
     <use xlink:href="#DejaVuSans-66" x="619.898438"/>
     <use xlink:href="#DejaVuSans-72" x="655.103516"/>
     <use xlink:href="#DejaVuSans-6f" x="693.966797"/>
     <use xlink:href="#DejaVuSans-6d" x="755.148438"/>
     <use xlink:href="#DejaVuSans-20" x="852.560547"/>
     <use xlink:href="#DejaVuSans-54" x="884.347656"/>
     <use xlink:href="#DejaVuSans-69" x="942.306641"/>
     <use xlink:href="#DejaVuSans-6d" x="970.089844"/>
     <use xlink:href="#DejaVuSans-65" x="1067.501953"/>
     <use xlink:href="#DejaVuSans-73" x="1129.025391"/>
     <use xlink:href="#DejaVuSans-74" x="1181.125"/>
     <use xlink:href="#DejaVuSans-61" x="1220.333984"/>
     <use xlink:href="#DejaVuSans-6d" x="1281.613281"/>
     <use xlink:href="#DejaVuSans-70" x="1379.025391"/>
     <use xlink:href="#DejaVuSans-73" x="1442.501953"/>
     <use xlink:href="#DejaVuSans-20" x="1494.601562"/>
     <use xlink:href="#DejaVuSans-28" x="1526.388672"/>
     <use xlink:href="#DejaVuSans-53" x="1565.402344"/>
     <use xlink:href="#DejaVuSans-65" x="1628.878906"/>
     <use xlink:href="#DejaVuSans-6c" x="1690.402344"/>
     <use xlink:href="#DejaVuSans-65" x="1718.185547"/>
     <use xlink:href="#DejaVuSans-63" x="1779.708984"/>
     <use xlink:href="#DejaVuSans-74" x="1834.689453"/>
     <use xlink:href="#DejaVuSans-69" x="1873.898438"/>
     <use xlink:href="#DejaVuSans-6f" x="1901.681641"/>
     <use xlink:href="#DejaVuSans-6e" x="1962.863281"/>
     <use xlink:href="#DejaVuSans-50" x="2026.242188"/>
     <use xlink:href="#DejaVuSans-72" x="2084.794922"/>
     <use xlink:href="#DejaVuSans-6f" x="2123.658203"/>
     <use xlink:href="#DejaVuSans-63" x="2184.839844"/>
     <use xlink:href="#DejaVuSans-65" x="2239.820312"/>
     <use xlink:href="#DejaVuSans-73" x="2301.34375"/>
     <use xlink:href="#DejaVuSans-73" x="2353.443359"/>
     <use xlink:href="#DejaVuSans-3a" x="2405.542969"/>
     <use xlink:href="#DejaVuSans-20" x="2439.234375"/>
     <use xlink:href="#DejaVuSans-31" x="2471.021484"/>
     <use xlink:href="#DejaVuSans-36" x="2534.644531"/>
     <use xlink:href="#DejaVuSans-37" x="2598.267578"/>
     <use xlink:href="#DejaVuSans-37" x="2661.890625"/>
     <use xlink:href="#DejaVuSans-37" x="2725.513672"/>
     <use xlink:href="#DejaVuSans-32" x="2789.136719"/>
     <use xlink:href="#DejaVuSans-31" x="2852.759766"/>
     <use xlink:href="#DejaVuSans-37" x="2916.382812"/>
     <use xlink:href="#DejaVuSans-29" x="2980.005859"/>
    </g>
   </g>
   <g id="legend_1">
    <g id="patch_7">
     <path d="M 802.154 368.638125 
L 983.61025 368.638125 
Q 985.61025 368.638125 985.61025 366.638125 
L 985.61025 338.281875 
Q 985.61025 336.281875 983.61025 336.281875 
L 802.154 336.281875 
Q 800.154 336.281875 800.154 338.281875 
L 800.154 366.638125 
Q 800.154 368.638125 802.154 368.638125 
z
" style="fill: #ffffff; opacity: 0.8; stroke: #cccccc; stroke-linejoin: miter"/>
    </g>
    <g id="line2d_17">
     <path d="M 804.154 344.380313 
L 814.154 344.380313 
L 824.154 344.380313 
" style="fill: none; stroke: #1f77b4; stroke-width: 1.5; stroke-linecap: square"/>
    </g>
    <g id="text_18">
     <!-- Packet Rate from Timestamps -->
     <g transform="translate(832.154 347.880313) scale(0.1 -0.1)">
      <use xlink:href="#DejaVuSans-50"/>
      <use xlink:href="#DejaVuSans-61" x="55.802734"/>
      <use xlink:href="#DejaVuSans-63" x="117.082031"/>
      <use xlink:href="#DejaVuSans-6b" x="172.0625"/>
      <use xlink:href="#DejaVuSans-65" x="226.347656"/>
      <use xlink:href="#DejaVuSans-74" x="287.871094"/>
      <use xlink:href="#DejaVuSans-20" x="327.080078"/>
      <use xlink:href="#DejaVuSans-52" x="358.867188"/>
      <use xlink:href="#DejaVuSans-61" x="426.099609"/>
      <use xlink:href="#DejaVuSans-74" x="487.378906"/>
      <use xlink:href="#DejaVuSans-65" x="526.587891"/>
      <use xlink:href="#DejaVuSans-20" x="588.111328"/>
      <use xlink:href="#DejaVuSans-66" x="619.898438"/>
      <use xlink:href="#DejaVuSans-72" x="655.103516"/>
      <use xlink:href="#DejaVuSans-6f" x="693.966797"/>
      <use xlink:href="#DejaVuSans-6d" x="755.148438"/>
      <use xlink:href="#DejaVuSans-20" x="852.560547"/>
      <use xlink:href="#DejaVuSans-54" x="884.347656"/>
      <use xlink:href="#DejaVuSans-69" x="942.306641"/>
      <use xlink:href="#DejaVuSans-6d" x="970.089844"/>
      <use xlink:href="#DejaVuSans-65" x="1067.501953"/>
      <use xlink:href="#DejaVuSans-73" x="1129.025391"/>
      <use xlink:href="#DejaVuSans-74" x="1181.125"/>
      <use xlink:href="#DejaVuSans-61" x="1220.333984"/>
      <use xlink:href="#DejaVuSans-6d" x="1281.613281"/>
      <use xlink:href="#DejaVuSans-70" x="1379.025391"/>
      <use xlink:href="#DejaVuSans-73" x="1442.501953"/>
     </g>
    </g>
    <g id="line2d_18">
     <path d="M 804.154 359.058438 
L 814.154 359.058438 
L 824.154 359.058438 
" style="fill: none; stroke-dasharray: 5.55,2.4; stroke-dashoffset: 0; stroke: #0000ff; stroke-width: 1.5"/>
    </g>
    <g id="text_19">
     <!-- Packet Rate Average -->
     <g transform="translate(832.154 362.558438) scale(0.1 -0.1)">
      <defs>
       <path id="DejaVuSans-41" d="M 2188 4044 
L 1331 1722 
L 3047 1722 
L 2188 4044 
z
M 1831 4666 
L 2547 4666 
L 4325 0 
L 3669 0 
L 3244 1197 
L 1141 1197 
L 716 0 
L 50 0 
L 1831 4666 
z
" transform="scale(0.015625)"/>
       <path id="DejaVuSans-76" d="M 191 3500 
L 800 3500 
L 1894 563 
L 2988 3500 
L 3597 3500 
L 2284 0 
L 1503 0 
L 191 3500 
z
" transform="scale(0.015625)"/>
       <path id="DejaVuSans-67" d="M 2906 1791 
Q 2906 2416 2648 2759 
Q 2391 3103 1925 3103 
Q 1463 3103 1205 2759 
Q 947 2416 947 1791 
Q 947 1169 1205 825 
Q 1463 481 1925 481 
Q 2391 481 2648 825 
Q 2906 1169 2906 1791 
z
M 3481 434 
Q 3481 -459 3084 -895 
Q 2688 -1331 1869 -1331 
Q 1566 -1331 1297 -1286 
Q 1028 -1241 775 -1147 
L 775 -588 
Q 1028 -725 1275 -790 
Q 1522 -856 1778 -856 
Q 2344 -856 2625 -561 
Q 2906 -266 2906 331 
L 2906 616 
Q 2728 306 2450 153 
Q 2172 0 1784 0 
Q 1141 0 747 490 
Q 353 981 353 1791 
Q 353 2603 747 3093 
Q 1141 3584 1784 3584 
Q 2172 3584 2450 3431 
Q 2728 3278 2906 2969 
L 2906 3500 
L 3481 3500 
L 3481 434 
z
" transform="scale(0.015625)"/>
      </defs>
      <use xlink:href="#DejaVuSans-50"/>
      <use xlink:href="#DejaVuSans-61" x="55.802734"/>
      <use xlink:href="#DejaVuSans-63" x="117.082031"/>
      <use xlink:href="#DejaVuSans-6b" x="172.0625"/>
      <use xlink:href="#DejaVuSans-65" x="226.347656"/>
      <use xlink:href="#DejaVuSans-74" x="287.871094"/>
      <use xlink:href="#DejaVuSans-20" x="327.080078"/>
      <use xlink:href="#DejaVuSans-52" x="358.867188"/>
      <use xlink:href="#DejaVuSans-61" x="426.099609"/>
      <use xlink:href="#DejaVuSans-74" x="487.378906"/>
      <use xlink:href="#DejaVuSans-65" x="526.587891"/>
      <use xlink:href="#DejaVuSans-20" x="588.111328"/>
      <use xlink:href="#DejaVuSans-41" x="619.898438"/>
      <use xlink:href="#DejaVuSans-76" x="682.431641"/>
      <use xlink:href="#DejaVuSans-65" x="741.611328"/>
      <use xlink:href="#DejaVuSans-72" x="803.134766"/>
      <use xlink:href="#DejaVuSans-61" x="844.248047"/>
      <use xlink:href="#DejaVuSans-67" x="905.527344"/>
      <use xlink:href="#DejaVuSans-65" x="969.003906"/>
     </g>
    </g>
   </g>
  </g>
 </g>
 <defs>
  <clipPath id="pcf12e4c0d2">
   <rect x="63.77" y="46.08" width="731.384" height="612.76"/>
  </clipPath>
 </defs>
</svg>
